<svg xmlns="http://www.w3.org/2000/svg" xmlns:xlink="http://www.w3.org/1999/xlink" width="500px" height="303px" viewBox="0 0 500 302.7542908916634">
    <g id="cf3aecf2-5605-4e1c-9569-96b2a8794cf3">
<g style="">
		<g id="cf3aecf2-5605-4e1c-9569-96b2a8794cf3-child-0">
<path style="stroke: rgb(193,193,193); stroke-width: 0; stroke-dasharray: none; stroke-linecap: butt; stroke-dashoffset: 0; stroke-linejoin: miter; stroke-miterlimit: 4; fill: rgb(0,0,0); fill-rule: nonzero; opacity: 1;" transform="matrix(0.610477 0 0 0.610477 249.99988 151.377073) matrix(1 0 0 1 0 0)  translate(-511.891745, -535.754921)" d="M 167.50 783.30 C 158.69 780.96 154.25 770.03 158.96 762.30 C 166.10 750.59 185.33 755.84 185.33 769.50 C 185.33 778.38 176.04 785.56 167.50 783.30 Z M 848.64 783.02 C 840.26 780.37 836.36 769.84 840.96 762.30 C 848.10 750.59 867.33 755.84 867.33 769.50 C 867.33 778.92 857.71 785.88 848.64 783.02 Z M 211.30 781.04 C 202.49 775.67 203.06 762.05 212.28 757.67 C 215.20 756.29 219.16 756.00 235.40 756.00 L 255.00 756.00 L 255.00 653.62 L 255.00 551.23 L 228.25 550.75 C 197.91 550.20 191.57 549.11 178.74 542.26 C 169.85 537.52 156.45 525.01 150.97 516.34 C 142.15 502.37 139.93 494.00 139.11 471.63 L 138.50 454.77 L 132.76 453.00 C 116.65 448.02 105.51 434.90 102.85 417.76 C 101.34 408.07 103.47 397.86 108.79 389.18 C 111.31 385.08 125.93 369.58 154.50 340.72 C 196.28 298.51 196.54 298.27 205.00 294.25 C 209.68 292.03 215.52 289.75 218.00 289.18 C 221.02 288.49 317.50 288.07 511.50 287.89 C 784.29 287.65 800.86 287.73 806.91 289.39 C 815.40 291.71 825.32 296.86 831.55 302.18 C 834.33 304.56 853.68 323.92 874.55 345.22 C 908.20 379.54 912.93 384.76 916.26 391.22 C 922.91 404.10 923.12 417.96 916.87 430.83 C 911.51 441.86 899.07 452.00 888.89 453.63 L 885.28 454.21 L 884.69 471.36 C 884.06 489.70 882.89 495.87 878.00 506.65 C 867.54 529.74 845.50 546.64 821.50 549.98 C 817.65 550.52 804.26 550.97 791.75 550.98 L 769.00 551.00 L 769.00 653.50 L 769.00 756.00 L 788.53 756.00 C 809.83 756.00 812.97 756.61 816.81 761.48 C 820.15 765.73 820.56 770.21 818.09 775.32 C 813.95 783.87 833.87 783.13 616.67 782.79 L 423.85 782.50 L 420.42 778.76 C 417.53 775.60 417.00 774.30 417.00 770.26 C 417.01 764.27 419.87 759.37 424.49 757.44 C 427.43 756.21 448.10 756.00 565.98 756.00 L 704.02 756.00 L 703.76 706.25 L 703.50 656.50 L 512.00 656.50 L 320.50 656.50 L 320.40 706.25 L 320.29 756.00 L 352.68 756.00 C 377.88 756.00 385.78 756.30 388.28 757.37 C 398.61 761.77 400.00 775.37 390.70 781.04 C 387.59 782.94 385.03 782.99 301.00 782.99 C 216.97 782.99 214.41 782.94 211.30 781.04 Z M 294.00 653.50 L 294.00 551.00 L 288.00 551.00 L 282.00 551.00 L 282.00 653.50 L 282.00 756.00 L 288.00 756.00 L 294.00 756.00 L 294.00 653.50 Z M 742.64 752.25 C 742.30 750.19 742.02 704.06 742.01 649.75 L 742.00 551.00 L 736.00 551.00 L 730.00 551.00 L 730.00 653.50 L 730.00 756.00 L 736.63 756.00 L 743.26 756.00 L 742.64 752.25 Z M 703.15 624.14 C 703.34 621.47 703.35 618.55 703.18 617.64 C 702.88 616.13 688.20 616.00 511.43 616.00 L 320.00 616.00 L 320.00 622.50 L 320.00 629.00 L 511.40 629.00 L 702.81 629.00 L 703.15 624.14 Z M 703.82 569.75 L 704.13 551.00 L 512.07 551.00 L 320.00 551.00 L 320.00 570.00 L 320.00 589.01 L 511.75 588.75 L 703.50 588.50 L 703.82 569.75 Z M 821.91 522.46 C 838.86 518.47 851.82 505.31 856.49 487.37 C 857.47 483.61 858.00 476.91 858.00 468.29 L 858.00 455.00 L 843.75 455.00 C 828.08 455.00 824.50 454.03 820.65 448.79 C 818.17 445.39 818.01 438.16 820.35 434.59 C 824.22 428.68 824.96 428.54 855.45 428.00 C 879.73 427.57 883.93 427.26 886.72 425.74 C 889.98 423.96 895.00 417.61 895.00 415.27 C 895.00 414.25 852.42 414.00 677.25 414.00 C 471.92 414.00 459.30 413.90 456.07 412.25 C 450.97 409.65 448.48 405.69 448.60 400.37 C 448.71 395.07 451.17 391.25 456.07 388.75 C 459.27 387.12 466.39 387.00 561.90 387.00 C 659.77 387.00 664.24 386.92 662.71 385.23 C 659.93 382.16 657.04 374.65 657.04 370.50 C 657.04 366.04 659.76 359.27 662.44 357.05 C 664.11 355.67 664.10 355.56 662.35 354.87 C 659.80 353.86 362.81 353.84 361.23 354.84 C 360.25 355.46 360.42 356.07 361.94 357.45 C 367.88 362.82 368.48 375.03 363.16 382.58 L 360.04 387.00 L 389.05 387.00 C 419.82 387.00 422.37 387.33 426.42 391.88 C 427.63 393.24 428.50 396.04 428.79 399.50 C 429.32 405.81 427.80 408.93 422.70 412.04 C 419.57 413.95 416.46 413.99 274.25 414.00 C 140.59 414.00 129.00 414.13 129.00 415.63 C 129.00 418.35 132.66 423.38 136.18 425.50 C 139.48 427.49 141.72 427.50 465.00 428.00 C 782.61 428.49 790.57 428.55 793.30 430.40 C 799.06 434.30 800.73 442.66 796.97 448.81 C 792.89 455.51 819.36 455.00 477.03 455.00 L 166.00 455.00 L 166.00 469.39 C 166.00 480.99 166.39 485.06 168.01 490.29 C 170.39 498.01 176.51 507.54 182.32 512.61 C 187.50 517.12 197.37 521.89 203.72 522.96 C 206.35 523.40 345.08 523.81 512.00 523.87 C 779.57 523.96 816.26 523.79 821.91 522.46 Z M 192.11 360.67 C 220.14 331.98 222.66 330.10 235.74 327.96 C 239.25 327.38 347.26 327.02 512.50 327.02 C 803.82 327.04 790.59 326.81 801.14 331.99 C 804.09 333.44 813.93 342.72 831.50 360.62 L 857.50 387.12 L 867.68 386.81 L 877.86 386.50 L 844.97 353.36 C 810.57 318.69 808.49 316.99 798.08 315.01 C 790.67 313.61 233.33 313.61 225.92 315.01 C 215.87 316.92 212.64 319.32 193.11 339.43 C 182.92 349.92 168.22 364.91 160.45 372.75 L 146.32 387.00 L 156.36 387.00 L 166.39 387.00 L 192.11 360.67 Z M 272.53 384.25 C 266.09 377.32 265.42 367.11 270.89 359.35 C 272.60 356.93 274.00 354.73 274.00 354.47 C 274.00 353.54 242.42 354.03 238.87 355.02 C 234.10 356.34 230.92 359.03 216.08 374.26 L 203.66 387.00 L 239.37 387.00 L 275.08 387.00 L 272.53 384.25 Z M 805.00 371.59 C 792.66 359.34 788.68 355.97 785.50 355.10 C 780.82 353.83 750.00 353.60 750.00 354.85 C 750.00 355.31 750.88 356.49 751.96 357.47 C 753.04 358.45 754.68 361.21 755.60 363.61 C 757.86 369.53 757.02 375.84 753.16 382.05 L 750.08 387.00 L 785.29 386.99 L 820.50 386.98 L 805.00 371.59 Z M 330.61 371.41 C 332.88 371.14 335.54 370.32 336.54 369.59 C 338.20 368.38 338.02 368.16 334.43 366.91 C 328.81 364.97 304.70 365.14 300.00 367.15 L 296.50 368.65 L 298.86 369.92 C 303.50 372.41 317.00 373.05 330.61 371.41 Z M 726.04 369.97 L 728.50 368.65 L 725.00 367.13 C 717.93 364.05 687.00 365.53 687.00 368.95 C 687.00 370.13 694.75 371.96 701.00 372.25 C 709.74 372.65 723.36 371.41 726.04 369.97 Z M 466.12 501.29 C 463.92 500.21 462.08 498.19 460.89 495.56 C 458.55 490.41 458.56 489.54 461.02 484.46 C 464.78 476.69 463.69 476.84 513.33 477.19 L 557.16 477.50 L 560.58 481.24 C 566.21 487.38 565.11 495.99 558.09 500.72 L 554.70 503.00 L 512.10 502.98 C 474.39 502.96 469.11 502.76 466.12 501.29 Z" stroke-linecap="round"/>
</g>
</g>
</g>

  </svg>