<svg xmlns="http://www.w3.org/2000/svg" xmlns:xlink="http://www.w3.org/1999/xlink" width="1686px" height="1381px" viewBox="0 0 1686.4747250948103 1381.5311410542477">
    <g id="8dd320d9-6617-4942-9dc5-521d5fba190e">
<g style="">
		<g id="8dd320d9-6617-4942-9dc5-521d5fba190e-child-0">
<path style="stroke: rgb(193,193,193); stroke-width: 0; stroke-dasharray: none; stroke-linecap: butt; stroke-dashoffset: 0; stroke-linejoin: miter; stroke-miterlimit: 4; fill: rgb(0,0,0); fill-rule: nonzero; opacity: 1;" transform="matrix(2.939777 0 0 2.939777 843.23744 690.765634) matrix(1 0 0 1 0 0)  translate(-512.337213, -511.825231)" d="M 379.00 745.49 C 368.10 742.50 358.99 737.18 350.96 729.09 C 339.14 717.20 333.06 703.24 333.02 687.87 L 333.00 682.24 L 326.92 679.97 C 314.57 675.35 301.66 664.39 296.00 653.71 L 293.50 649.00 L 275.50 648.99 C 248.76 648.99 240.90 647.06 233.31 638.66 C 226.19 630.78 225.50 627.89 225.50 606.00 C 225.50 589.22 225.77 585.81 227.41 581.56 C 229.82 575.29 235.98 568.58 242.46 565.16 C 247.38 562.57 248.01 562.49 268.28 562.18 L 289.05 561.85 L 288.78 547.68 L 288.50 533.50 L 267.50 533.00 C 243.91 532.44 242.25 532.04 234.67 525.05 C 232.23 522.80 229.16 518.60 227.86 515.73 C 225.64 510.81 225.50 509.36 225.50 491.00 C 225.50 472.10 225.58 471.33 228.09 466.00 C 231.77 458.19 235.20 454.56 242.20 451.06 L 248.32 448.00 L 267.91 447.98 C 278.68 447.98 288.00 447.64 288.62 447.23 C 289.23 446.83 290.51 443.80 291.46 440.50 C 297.69 418.77 314.65 404.27 338.25 400.51 L 342.00 399.91 L 342.00 352.64 C 342.00 312.41 342.24 304.57 343.58 300.03 C 346.54 290.06 351.93 283.75 361.00 279.60 C 366.19 277.23 367.55 277.07 385.12 276.91 C 403.39 276.74 403.85 276.79 409.62 279.42 C 417.99 283.25 424.42 290.40 426.99 298.71 C 428.88 304.84 429.00 307.98 429.00 353.11 L 429.00 401.00 L 513.00 401.00 L 597.00 401.00 L 597.00 386.62 C 597.00 375.43 596.69 371.98 595.58 371.07 C 594.52 370.19 577.65 369.91 529.11 369.97 C 458.39 370.06 459.62 370.15 455.17 364.49 C 452.62 361.24 452.35 356.16 454.52 351.97 C 457.70 345.81 455.26 346.00 530.20 346.01 C 574.17 346.01 599.83 346.38 602.22 347.05 C 607.92 348.63 614.09 353.91 617.21 359.88 C 619.95 365.14 620.00 365.53 620.00 382.61 L 620.00 400.00 L 629.60 400.00 L 639.20 400.00 L 638.85 379.23 L 638.50 358.45 L 635.21 351.78 C 631.58 344.40 625.75 338.59 618.22 334.84 L 613.50 332.50 L 536.82 332.00 C 461.00 331.51 460.11 331.48 457.32 329.41 C 455.77 328.26 453.86 325.51 453.08 323.30 C 451.78 319.62 451.83 318.96 453.63 315.48 C 454.72 313.39 457.14 310.86 459.03 309.84 C 462.28 308.10 466.47 308.00 535.98 308.01 C 617.73 308.03 616.03 307.91 630.00 314.76 C 639.94 319.64 651.17 330.72 655.81 340.21 C 660.84 350.51 661.96 357.77 661.98 380.11 L 662.00 399.73 L 676.75 400.29 C 685.78 400.63 693.36 401.45 696.30 402.39 C 715.31 408.50 730.09 424.38 733.90 442.80 C 734.59 446.13 735.00 462.97 735.00 488.12 L 735.00 528.13 L 751.92 527.82 C 768.25 527.51 768.94 527.41 771.42 525.07 C 772.84 523.74 774.45 521.04 775.00 519.07 C 775.61 516.86 775.99 488.13 775.99 443.68 C 776.00 392.77 776.33 371.23 777.12 369.68 C 779.08 365.85 782.24 364.05 787.03 364.02 C 792.44 364.00 795.69 366.02 797.61 370.60 C 799.79 375.84 799.65 516.07 797.45 524.53 C 794.51 535.84 786.48 545.01 775.81 549.27 C 771.28 551.07 767.88 551.45 752.75 551.79 L 735.00 552.19 L 735.00 593.89 C 735.00 639.69 734.81 641.48 728.87 653.26 C 725.01 660.91 713.51 672.71 706.50 676.22 C 703.75 677.60 699.14 679.50 696.25 680.44 L 691.00 682.16 L 691.00 688.87 C 691.00 701.67 685.18 716.86 676.51 726.70 C 670.60 733.42 658.98 741.16 650.33 744.14 C 641.32 747.25 623.51 747.49 615.00 744.61 C 600.35 739.66 586.69 728.55 580.22 716.31 C 576.18 708.66 573.00 696.58 573.00 688.84 L 573.00 683.00 L 512.25 683.00 L 451.50 683.00 L 451.22 690.55 C 450.33 714.38 434.53 735.74 411.88 743.70 C 402.58 746.97 387.43 747.79 379.00 745.49 Z M 407.50 720.10 C 414.99 716.62 421.54 710.15 424.84 703.00 C 426.93 698.46 427.38 695.93 427.44 688.50 C 427.49 680.62 427.14 678.73 424.62 673.27 C 421.48 666.48 414.83 659.49 408.37 656.19 C 391.07 647.36 369.58 654.62 360.16 672.47 C 357.77 676.99 357.50 678.56 357.50 688.00 C 357.50 697.55 357.75 698.98 360.28 703.78 C 369.47 721.21 389.92 728.28 407.50 720.10 Z M 639.20 722.88 C 650.49 720.48 659.88 713.03 664.59 702.73 C 667.01 697.45 667.44 695.21 667.45 688.00 C 667.46 680.90 667.02 678.56 664.82 673.82 C 659.70 662.81 650.39 655.40 638.68 653.02 C 631.31 651.51 624.75 652.41 617.33 655.93 C 587.09 670.29 590.82 713.74 623.02 722.40 C 629.81 724.22 632.48 724.30 639.20 722.88 Z M 345.41 652.25 C 349.90 646.14 358.86 638.65 366.15 634.93 C 372.83 631.51 384.06 629.00 392.62 629.00 C 411.79 629.00 430.12 638.69 441.09 654.63 L 444.10 659.00 L 512.43 659.00 L 580.77 659.00 L 585.59 652.43 C 605.93 624.72 646.69 620.94 671.82 644.45 C 675.31 647.72 679.51 652.33 681.14 654.70 C 683.71 658.44 684.46 658.93 686.80 658.41 C 692.64 657.11 700.09 652.69 704.27 648.04 C 712.41 638.99 712.00 644.65 712.00 541.07 C 712.00 462.59 711.78 448.64 710.50 444.33 C 708.52 437.65 702.40 430.83 695.21 427.31 L 689.50 424.50 L 512.00 424.50 L 334.50 424.50 L 329.44 427.17 C 323.43 430.34 317.51 436.59 314.88 442.54 C 313.07 446.64 312.98 450.89 312.86 540.66 C 312.74 626.56 312.87 634.84 314.41 638.50 C 318.42 648.02 325.37 654.53 334.53 657.33 C 337.27 658.17 339.80 658.77 340.16 658.68 C 340.52 658.58 342.89 655.69 345.41 652.25 Z M 289.00 605.50 L 289.00 586.00 L 271.56 586.00 C 254.56 586.00 254.04 586.06 251.31 588.41 C 248.52 590.80 248.50 590.93 248.22 604.16 C 247.80 624.79 248.00 624.96 272.25 624.99 L 289.00 625.00 L 289.00 605.50 Z M 289.00 490.50 L 289.00 471.00 L 271.56 471.00 C 254.56 471.00 254.04 471.06 251.31 473.41 C 248.57 475.76 248.49 476.13 248.16 487.53 C 247.50 510.29 247.21 510.00 271.00 510.00 L 289.00 510.00 L 289.00 490.50 Z M 405.00 353.63 C 405.00 308.07 404.93 306.18 403.04 303.77 C 401.18 301.41 400.36 301.24 387.78 300.57 C 373.91 299.83 369.89 300.47 367.36 303.79 C 366.34 305.14 366.06 315.54 366.03 352.58 C 366.01 378.48 366.30 399.97 366.67 400.33 C 367.03 400.70 375.81 401.00 386.17 401.00 L 405.00 401.00 L 405.00 353.63 Z M 383.83 702.97 C 379.00 700.42 375.85 695.83 375.24 690.47 C 374.58 684.56 375.45 681.69 379.25 677.37 C 384.98 670.84 392.01 669.37 399.70 673.10 C 408.20 677.21 411.25 687.12 406.75 696.03 C 402.62 704.22 392.17 707.38 383.83 702.97 Z M 624.22 702.88 C 613.41 697.53 611.94 683.53 621.33 675.28 C 627.23 670.10 635.03 669.71 641.66 674.25 C 652.24 681.50 651.07 697.88 639.60 703.09 C 634.21 705.54 629.47 705.48 624.22 702.88 Z M 501.41 592.52 C 484.51 588.84 469.53 575.56 463.93 559.30 C 454.40 531.61 470.87 500.98 499.37 493.39 C 506.99 491.36 519.59 491.63 527.22 493.99 C 543.63 499.05 558.30 514.32 561.94 530.11 C 563.47 536.77 563.20 549.95 561.40 556.07 C 558.72 565.21 554.12 572.65 546.97 579.39 C 539.19 586.72 532.32 590.40 522.48 592.49 C 514.09 594.26 509.48 594.27 501.41 592.52 Z M 524.78 567.42 C 530.38 564.63 533.86 561.07 537.28 554.62 C 540.39 548.75 540.39 536.24 537.27 530.37 C 532.12 520.65 522.84 515.03 511.95 515.01 C 482.55 514.97 474.45 555.85 501.43 568.11 C 507.75 570.98 518.26 570.67 524.78 567.42 Z M 343.50 565.06 C 337.09 562.36 334.34 553.98 337.97 548.19 C 341.78 542.10 342.62 542.00 387.72 542.00 C 433.56 542.00 433.63 542.01 437.48 549.21 C 439.33 552.65 439.36 553.21 437.98 557.12 C 437.17 559.43 435.23 562.26 433.68 563.41 C 430.93 565.45 429.74 565.51 388.18 565.70 C 364.71 565.81 344.60 565.53 343.50 565.06 Z M 593.00 564.25 C 590.85 563.17 588.78 561.02 587.62 558.65 C 585.15 553.59 586.59 548.14 591.28 544.80 L 594.50 542.50 L 636.76 542.21 C 674.61 541.95 679.39 542.09 682.56 543.59 C 691.11 547.65 691.16 560.32 682.64 564.37 C 679.63 565.80 674.05 566.00 637.85 566.00 C 600.49 566.00 596.16 565.83 593.00 564.25 Z M 343.27 526.52 C 336.52 523.58 334.03 513.99 338.67 508.78 C 342.78 504.16 344.46 504.00 388.32 504.00 L 429.70 504.00 L 433.10 506.28 C 435.25 507.72 437.02 510.07 437.92 512.64 C 439.22 516.37 439.17 517.04 437.37 520.52 C 433.47 528.04 433.72 528.00 387.52 527.96 C 354.57 527.93 345.86 527.65 343.27 526.52 Z M 593.50 526.60 C 588.50 524.39 586.50 521.37 586.50 516.00 C 586.50 510.55 588.53 507.56 593.72 505.36 C 598.65 503.27 677.90 503.38 681.96 505.48 C 691.56 510.44 691.22 522.50 681.36 526.62 C 676.65 528.59 597.97 528.57 593.50 526.60 Z M 507.00 553.25 C 502.02 550.76 499.36 545.07 500.85 540.09 C 502.33 535.15 505.93 531.95 510.74 531.31 C 518.62 530.25 524.75 536.37 523.69 544.24 C 523.08 548.81 520.77 551.74 516.28 553.64 C 512.13 555.39 511.22 555.35 507.00 553.25 Z" stroke-linecap="round"/>
</g>
</g>
</g>

  </svg>