<svg xmlns="http://www.w3.org/2000/svg" xmlns:xlink="http://www.w3.org/1999/xlink" width="500px" height="477px" viewBox="0 0 499.9999999999998 476.9441198250698">
    <g id="7b42546a-8f9b-4c01-ba84-5c2c57a15a53">
<g style="">
		<g id="7b42546a-8f9b-4c01-ba84-5c2c57a15a53-child-0">
<path style="stroke: rgb(193,193,193); stroke-width: 0; stroke-dasharray: none; stroke-linecap: butt; stroke-dashoffset: 0; stroke-linejoin: miter; stroke-miterlimit: 4; fill: rgb(0,0,0); fill-rule: nonzero; opacity: 1;" transform="matrix(0.845872 0 0 0.845872 249.999987 238.472047) matrix(1 0 0 1 0 0)  translate(-512.009429, -512.015424)" d="M 347.67 792.57 C 337.64 789.87 328.91 780.25 327.41 770.24 C 326.50 764.17 328.47 756.03 332.06 751.08 C 333.67 748.85 335.00 746.85 335.00 746.65 C 335.00 746.45 332.19 744.55 328.75 742.43 C 321.08 737.71 305.81 723.10 298.58 713.58 C 295.62 709.69 282.51 688.95 269.45 667.50 C 256.39 646.05 241.99 622.42 237.47 615.00 C 232.95 607.58 227.89 598.80 226.24 595.50 C 218.68 580.41 215.11 560.96 216.92 544.80 C 218.93 526.93 221.28 520.84 235.22 497.45 C 240.44 488.68 250.26 472.05 257.03 460.50 C 263.80 448.95 277.07 426.45 286.51 410.50 C 295.95 394.55 310.11 370.48 317.98 357.00 C 336.78 324.82 336.38 325.42 340.88 322.82 C 344.26 320.88 344.87 319.98 345.39 316.15 C 346.17 310.49 346.06 302.00 345.18 299.79 C 344.81 298.86 341.70 296.69 338.28 294.98 C 326.34 289.02 319.71 278.00 319.63 264.00 C 319.57 253.75 323.07 246.01 331.10 238.56 C 341.25 229.17 324.15 229.95 513.53 230.24 L 680.50 230.50 L 685.47 232.95 C 711.06 245.54 710.43 282.86 684.41 295.59 L 679.00 298.23 L 679.00 308.92 L 679.00 319.61 L 683.40 322.72 C 686.34 324.79 689.23 328.27 692.07 333.16 C 696.04 340.01 712.13 367.35 774.35 473.00 C 801.72 519.48 804.91 526.38 807.02 543.50 C 808.92 559.03 805.75 578.09 798.74 593.12 C 796.85 597.18 785.43 616.70 773.35 636.50 C 761.28 656.30 746.50 680.58 740.50 690.45 C 724.74 716.42 712.81 730.05 696.07 741.24 C 691.91 744.02 688.31 746.46 688.08 746.65 C 687.85 746.85 688.61 748.02 689.77 749.25 C 696.14 756.04 697.84 768.50 693.63 777.54 C 690.60 784.05 683.23 790.56 676.67 792.50 C 672.29 793.81 650.91 793.99 512.07 793.93 C 384.61 793.88 351.53 793.60 347.67 792.57 Z M 671.37 769.93 C 674.44 767.51 674.78 764.01 672.17 761.65 C 670.48 760.12 658.19 760.01 510.95 760.25 L 351.56 760.50 L 350.37 762.89 C 348.86 765.92 349.97 769.12 353.10 770.74 C 354.98 771.70 389.80 771.97 512.12 771.99 L 668.73 772.00 L 671.37 769.93 Z M 658.82 735.21 C 678.58 729.12 694.11 717.84 708.25 699.32 C 715.84 689.38 726.28 672.27 725.52 671.03 C 724.61 669.56 717.34 669.76 710.96 671.43 C 707.96 672.21 698.53 675.85 690.00 679.51 C 639.00 701.42 598.93 707.99 562.34 700.44 C 537.63 695.33 514.65 683.34 491.50 663.46 C 472.44 647.10 465.28 643.68 450.00 643.62 C 438.45 643.58 435.26 644.55 406.34 656.85 C 373.33 670.90 359.58 675.01 345.66 674.99 C 342.27 674.99 333.01 673.64 325.09 671.99 C 311.30 669.13 298.67 668.11 297.63 669.78 C 296.95 670.89 309.44 691.07 316.68 700.55 C 332.78 721.62 351.68 733.76 373.48 737.03 C 376.24 737.44 439.92 737.71 515.00 737.62 L 651.50 737.47 L 658.82 735.21 Z M 616.50 679.52 C 636.35 676.27 654.79 670.50 680.50 659.48 C 703.53 649.61 707.18 648.61 720.50 648.55 C 726.55 648.52 733.35 648.87 735.62 649.32 L 739.73 650.13 L 742.53 645.32 C 744.07 642.67 752.89 628.07 762.13 612.89 C 780.54 582.62 783.20 576.60 785.12 560.86 C 786.78 547.30 784.81 536.74 778.23 524.00 C 773.04 513.95 741.11 459.34 702.51 394.50 C 689.74 373.05 677.54 352.47 675.39 348.77 L 671.50 342.04 L 511.99 342.02 L 352.48 342.00 L 334.31 372.75 C 324.32 389.66 307.73 417.67 297.45 435.00 C 260.66 496.97 243.72 526.49 241.90 531.78 C 236.26 548.18 237.80 569.79 245.73 585.44 C 247.10 588.16 254.56 600.76 262.29 613.44 C 270.03 626.12 277.84 638.97 279.65 642.00 C 281.46 645.03 283.30 648.05 283.76 648.72 C 284.39 649.66 285.66 649.61 289.45 648.47 C 297.13 646.15 312.68 646.58 327.00 649.50 C 334.64 651.06 342.62 652.00 348.14 652.00 L 357.00 652.00 L 357.00 614.50 C 357.00 578.34 356.93 577.00 355.10 577.00 C 351.31 577.00 335.44 568.09 329.25 562.49 C 321.24 555.24 313.65 543.65 310.27 533.50 C 307.74 525.92 307.58 524.27 307.22 501.92 L 306.84 478.34 L 309.48 475.20 C 314.34 469.43 323.23 470.04 327.11 476.42 C 328.77 479.13 328.99 481.66 329.00 497.70 C 329.00 507.71 329.50 518.29 330.11 521.20 C 331.80 529.21 335.81 536.90 341.44 542.90 C 346.08 547.85 354.25 554.00 356.20 554.00 C 356.64 554.00 357.00 540.93 357.00 524.95 C 357.00 493.82 357.26 492.04 362.22 488.56 C 365.69 486.13 372.37 486.55 375.69 489.41 L 378.50 491.83 L 379.00 542.33 C 379.27 570.11 379.80 593.13 380.17 593.50 C 381.38 594.71 389.78 590.25 394.57 585.84 C 400.20 580.66 402.95 576.47 405.84 568.71 C 407.95 563.06 408.00 561.70 408.00 511.91 C 408.00 456.99 407.98 457.23 413.22 453.56 C 418.27 450.02 427.15 452.71 429.58 458.53 C 431.65 463.49 431.59 554.81 429.51 566.50 C 425.61 588.37 408.53 607.77 386.35 615.52 L 379.50 617.91 L 379.22 630.95 C 379.07 638.13 379.17 644.00 379.45 644.00 C 379.73 644.00 388.38 640.38 398.66 635.96 C 428.34 623.19 440.16 620.15 455.28 621.41 C 470.86 622.70 484.27 628.68 498.87 640.87 C 529.35 666.30 545.20 674.84 570.50 679.50 C 580.31 681.30 605.53 681.31 616.50 679.52 Z M 657.00 309.00 L 657.00 298.00 L 581.95 298.00 C 499.59 298.00 502.72 298.23 499.52 292.03 C 497.60 288.32 497.60 285.68 499.52 281.97 C 502.74 275.74 498.74 276.00 590.50 276.00 C 682.26 276.00 678.26 276.26 681.48 270.03 C 684.64 263.92 682.52 256.43 676.73 253.27 C 673.69 251.60 664.28 251.48 513.17 251.24 C 358.21 250.98 352.70 251.04 348.60 252.85 C 341.81 255.86 339.36 262.75 342.63 269.64 C 345.74 276.19 343.79 276.00 408.02 276.00 C 448.85 276.00 466.78 276.33 468.32 277.12 C 474.70 280.38 476.04 288.68 471.08 294.23 L 468.17 297.50 L 417.58 297.78 L 367.00 298.05 L 367.00 309.03 L 367.00 320.00 L 512.00 320.00 L 657.00 320.00 L 657.00 309.00 Z M 615.00 650.92 C 596.72 648.94 580.58 641.30 566.62 628.00 C 553.62 615.62 547.00 604.02 547.00 593.60 C 547.00 589.71 547.56 587.55 549.09 585.61 C 553.66 579.80 550.99 580.00 624.08 580.00 C 689.69 580.00 691.34 580.05 694.53 582.02 C 706.25 589.26 701.19 608.14 682.61 626.54 C 678.70 630.41 672.84 635.32 669.59 637.45 C 653.95 647.69 632.99 652.86 615.00 650.92 Z M 637.94 627.38 C 648.86 624.70 659.50 618.55 668.00 610.02 L 675.50 602.50 L 649.75 602.23 C 635.59 602.09 612.41 602.09 598.25 602.23 L 572.50 602.50 L 578.00 608.37 C 586.76 617.71 598.35 624.68 609.73 627.44 C 617.63 629.35 630.04 629.33 637.94 627.38 Z M 558.50 521.36 C 543.15 518.11 528.31 510.05 516.45 498.50 C 494.66 477.29 487.48 452.09 500.86 443.77 L 504.50 441.50 L 574.80 441.22 C 642.74 440.96 645.24 441.01 649.52 442.91 C 655.33 445.48 657.99 449.83 658.00 456.78 C 658.01 477.57 634.46 506.23 608.81 516.65 C 593.62 522.83 574.09 524.65 558.50 521.36 Z M 588.79 499.43 C 599.71 497.21 611.15 491.43 619.21 484.05 C 625.58 478.21 634.00 466.94 634.00 464.26 C 634.00 463.26 621.94 463.00 576.00 463.00 C 544.10 463.00 518.00 463.38 518.00 463.84 C 518.00 466.16 526.48 477.26 532.77 483.17 C 548.30 497.76 568.36 503.59 588.79 499.43 Z M 361.50 459.75 C 357.73 456.49 357.05 451.89 357.02 429.22 C 357.00 407.41 357.65 403.76 362.12 400.63 C 363.40 399.73 366.39 399.00 368.80 399.00 C 372.24 399.00 373.74 399.59 375.95 401.80 L 378.75 404.60 L 379.19 427.55 C 379.43 440.17 379.28 452.08 378.86 454.00 C 377.78 459.02 373.91 462.00 368.50 462.00 C 365.39 462.00 363.35 461.35 361.50 459.75 Z M 671.14 415.25 C 667.25 411.29 649.00 377.77 649.00 374.57 C 649.00 370.29 651.82 365.97 655.67 364.36 C 660.13 362.50 664.00 363.32 667.22 366.80 C 670.07 369.87 687.68 399.79 689.19 404.10 C 690.49 407.84 688.69 413.31 685.29 415.98 C 681.34 419.09 674.58 418.74 671.14 415.25 Z" stroke-linecap="round"/>
</g>
</g>
</g>

  </svg>