<svg xmlns="http://www.w3.org/2000/svg" xmlns:xlink="http://www.w3.org/1999/xlink" width="316px" height="501px" viewBox="0 0 315.5449825186638 500">
    <g id="4c04da36-c166-47f4-84c7-3bbcb7831c24">
<g style="">
		<g id="4c04da36-c166-47f4-84c7-3bbcb7831c24-child-0">
<path style="stroke: rgb(193,193,193); stroke-width: 0; stroke-dasharray: none; stroke-linecap: butt; stroke-dashoffset: 0; stroke-linejoin: miter; stroke-miterlimit: 4; fill: rgb(0,0,0); fill-rule: nonzero; opacity: 1;" transform="matrix(0.798746 0 0 0.798746 157.772589 250.000154) matrix(1 0 0 1 0 0)  translate(-512.385356, -512.009643)" d="M 356.70 823.56 C 350.35 821.29 345.50 817.46 341.92 811.87 L 338.50 806.55 L 338.20 773.28 L 337.90 740.01 L 340.46 737.45 C 344.06 733.85 350.39 734.27 353.40 738.32 C 355.42 741.03 355.51 742.35 355.64 771.15 L 355.77 801.15 L 358.57 804.08 L 361.37 807.00 L 427.74 807.00 C 484.97 807.00 494.50 807.21 497.02 808.51 C 502.77 811.48 503.68 817.48 499.08 822.08 L 496.15 825.00 L 428.33 824.96 C 373.90 824.92 359.75 824.64 356.70 823.56 Z M 525.08 822.41 C 521.16 819.12 520.90 814.39 524.41 810.31 L 526.83 807.50 L 595.66 806.98 C 633.52 806.69 664.62 806.35 664.76 806.23 C 664.91 806.10 665.92 804.54 667.01 802.75 C 668.95 799.57 668.99 797.46 669.00 708.75 L 669.00 618.00 L 512.02 618.00 L 355.04 618.00 L 355.27 664.09 L 355.50 710.17 L 352.69 712.59 C 348.91 715.84 343.73 715.82 340.45 712.55 L 338.00 710.09 L 338.00 662.23 L 338.00 614.37 L 334.16 612.21 C 328.62 609.10 321.28 600.83 318.18 594.22 C 315.56 588.62 315.49 588.02 315.18 565.74 L 314.86 542.97 L 317.74 537.74 C 319.32 534.86 324.53 525.85 329.31 517.73 L 338.00 502.96 L 338.00 415.94 C 338.00 328.99 338.00 328.92 335.86 324.71 C 334.68 322.39 330.61 315.15 326.80 308.60 C 323.00 302.06 318.78 294.53 317.44 291.88 L 315.00 287.07 L 315.00 252.00 C 315.00 224.51 315.30 216.22 316.37 213.65 C 318.41 208.76 323.95 202.93 328.49 200.86 C 332.32 199.13 340.55 199.04 512.28 199.02 C 660.89 199.00 692.62 199.23 695.28 200.35 C 700.30 202.45 704.63 206.61 707.17 211.77 C 709.44 216.38 709.51 217.34 709.83 248.88 C 710.06 270.91 709.80 282.72 709.03 285.81 C 708.40 288.30 703.19 298.53 697.44 308.53 L 687.00 326.72 L 687.00 415.16 L 687.00 503.59 L 698.25 522.55 L 709.50 541.50 L 709.37 564.00 C 709.23 588.78 708.78 591.25 702.72 600.32 C 700.95 602.97 696.80 607.18 693.50 609.68 L 687.50 614.23 L 687.00 709.36 L 686.50 804.50 L 683.79 809.64 C 682.30 812.46 679.21 816.38 676.92 818.33 C 668.92 825.18 671.15 825.00 595.90 825.00 L 528.15 825.00 L 525.08 822.41 Z M 681.90 596.57 C 684.22 594.96 687.34 591.58 688.81 589.07 C 691.24 584.95 691.53 583.35 691.86 572.75 L 692.21 561.00 L 512.61 561.00 L 333.00 561.00 L 333.00 572.03 C 333.00 579.03 333.49 584.24 334.35 586.28 C 336.28 590.89 340.66 595.77 344.87 598.00 C 348.41 599.88 352.37 599.92 513.09 599.71 L 677.67 599.50 L 681.90 596.57 Z M 689.00 542.60 C 689.00 542.37 685.01 535.51 680.14 527.35 L 671.29 512.50 L 655.64 512.22 C 640.51 511.96 640.00 512.02 640.00 513.97 C 640.00 515.71 640.65 516.00 644.45 516.00 C 651.66 516.00 654.32 517.85 656.40 524.31 C 657.23 526.90 654.35 531.92 651.39 533.04 C 650.00 533.57 640.61 534.00 630.51 534.00 C 612.22 534.00 612.14 533.99 609.08 531.41 C 606.65 529.37 606.00 528.03 606.00 525.09 C 606.00 519.66 609.40 516.80 616.54 516.21 C 620.99 515.84 622.03 515.42 621.79 514.12 C 621.51 512.69 618.62 512.47 596.74 512.23 C 572.51 511.97 572.00 512.01 572.00 513.98 C 572.00 515.71 572.65 516.00 576.55 516.00 C 581.56 516.00 586.42 518.04 587.38 520.54 C 588.86 524.40 588.00 529.10 585.35 531.55 C 582.74 533.97 582.45 534.00 564.30 534.00 C 543.87 534.00 541.23 533.38 539.02 528.05 C 536.41 521.74 541.62 516.00 549.95 516.00 C 553.33 516.00 554.00 515.67 554.00 514.00 C 554.00 512.03 553.33 512.00 512.00 512.00 C 471.59 512.00 470.00 512.07 470.00 513.88 C 470.00 515.43 470.95 515.83 475.56 516.21 C 482.10 516.76 484.78 518.89 485.66 524.26 C 486.16 527.40 485.82 528.33 483.20 530.95 L 480.15 534.00 L 461.15 534.00 C 442.17 534.00 442.15 534.00 439.08 531.41 C 436.65 529.37 436.00 528.03 436.00 525.09 C 436.00 519.68 439.41 516.80 446.49 516.21 C 451.05 515.83 452.00 515.43 452.00 513.88 C 452.00 512.09 450.78 512.00 427.00 512.00 C 402.67 512.00 402.00 512.05 402.00 514.00 C 402.00 515.70 402.67 516.00 406.45 516.00 C 412.42 516.00 415.58 517.61 417.48 521.60 C 419.42 525.70 418.64 529.35 415.25 532.02 C 412.93 533.84 411.16 534.00 393.29 534.00 L 373.85 534.00 L 370.92 531.08 C 364.29 524.44 369.73 516.00 380.65 516.00 C 383.35 516.00 384.00 515.61 384.00 513.97 C 384.00 512.02 383.49 511.96 368.84 512.22 L 353.69 512.50 L 344.39 527.75 L 335.10 543.00 L 512.05 543.00 C 609.37 543.00 689.00 542.82 689.00 542.60 Z M 452.00 487.54 C 452.00 479.43 451.33 479.00 438.69 479.00 C 423.77 479.00 415.82 475.10 411.40 465.62 L 409.02 460.50 L 409.03 403.50 C 409.05 339.46 408.78 341.92 416.52 335.12 C 423.73 328.78 418.86 329.10 511.70 328.94 L 596.67 328.79 L 601.08 331.01 C 606.81 333.88 609.69 336.57 612.35 341.50 C 614.48 345.46 614.50 346.02 614.50 404.00 C 614.50 468.60 614.84 465.01 608.10 471.75 C 602.84 477.01 598.59 478.39 586.00 478.97 C 579.67 479.26 573.94 479.86 573.25 480.31 C 572.46 480.82 572.00 483.50 572.00 487.56 L 572.00 494.00 L 620.48 494.00 L 668.97 494.00 L 669.23 407.73 L 669.50 321.45 L 679.13 304.48 C 684.43 295.14 689.49 286.06 690.38 284.30 C 691.77 281.56 692.00 276.75 692.00 251.00 L 692.00 220.91 L 689.49 218.40 C 687.39 216.30 686.20 215.94 682.24 216.20 L 677.50 216.50 L 677.00 240.00 C 676.53 262.02 676.36 263.77 674.22 267.76 C 671.61 272.65 665.40 277.55 659.94 279.02 C 657.47 279.68 606.08 279.94 509.84 279.76 L 363.50 279.50 L 359.38 277.29 C 354.66 274.77 350.34 270.03 348.28 265.12 C 347.26 262.69 346.73 255.51 346.38 239.69 C 346.11 227.56 345.67 217.27 345.39 216.82 C 344.52 215.42 337.56 215.92 335.22 217.56 C 333.01 219.11 333.00 219.20 333.00 250.59 L 333.00 282.06 L 335.92 287.78 C 337.52 290.93 342.47 300.01 346.92 307.97 L 355.00 322.44 L 355.00 384.06 C 355.00 417.95 355.30 456.55 355.66 469.84 L 356.32 494.00 L 404.16 494.00 L 452.00 494.00 L 452.00 487.54 Z M 554.00 487.94 C 554.00 475.82 557.89 468.20 566.35 463.76 C 569.75 461.98 572.62 461.51 582.19 461.19 C 592.31 460.85 594.12 460.52 595.69 458.79 C 597.39 456.91 597.50 453.55 597.50 403.81 L 597.50 350.83 L 594.67 348.40 L 591.85 345.97 L 510.96 346.23 C 434.85 346.48 429.97 346.61 428.29 348.29 C 426.62 349.95 426.48 353.74 426.22 403.05 L 425.95 456.04 L 428.43 458.52 C 430.71 460.80 431.65 461.00 440.01 461.00 C 452.06 461.00 456.99 462.36 462.47 467.19 C 467.77 471.85 470.00 477.92 470.00 487.68 L 470.00 494.00 L 512.00 494.00 L 554.00 494.00 L 554.00 487.94 Z M 657.61 259.67 C 660.03 256.85 660.04 256.78 659.77 236.67 L 659.50 216.50 L 511.75 216.25 L 364.00 215.99 L 364.00 236.57 L 364.00 257.15 L 366.93 260.09 L 369.87 263.02 L 512.52 262.76 L 655.17 262.50 L 657.61 259.67 Z M 454.17 780.54 C 445.27 777.72 438.42 770.91 436.02 762.50 C 435.22 759.68 434.97 743.80 435.19 708.50 C 435.50 659.25 435.53 658.44 437.69 654.41 C 440.33 649.48 445.90 644.40 451.43 641.89 C 455.23 640.17 459.22 640.04 512.00 640.03 L 568.50 640.02 L 573.50 642.35 C 579.52 645.16 585.11 651.10 587.39 657.10 C 588.89 661.04 589.04 666.75 588.78 712.00 C 588.52 758.45 588.35 762.79 586.68 766.15 C 584.20 771.14 578.62 776.51 573.10 779.23 C 568.51 781.50 568.44 781.50 513.50 781.70 C 469.25 781.87 457.65 781.64 454.17 780.54 Z M 566.03 762.48 C 572.11 759.34 572.09 759.60 571.78 708.91 L 571.50 662.83 L 568.69 660.41 L 565.89 658.00 L 512.00 658.00 L 458.11 658.00 L 455.31 660.41 L 452.50 662.83 L 452.22 708.37 C 451.91 759.18 451.98 759.78 458.21 762.49 C 463.26 764.69 561.79 764.68 566.03 762.48 Z M 381.27 475.20 C 380.04 475.02 378.13 473.71 377.02 472.30 C 375.03 469.77 375.00 468.47 375.00 392.56 L 375.00 315.39 L 377.60 310.17 C 379.04 307.30 381.65 303.85 383.41 302.50 C 390.89 296.79 383.67 297.11 512.11 296.92 C 642.80 296.74 633.72 296.30 641.49 303.12 C 649.15 309.85 649.46 311.46 649.81 346.68 C 650.17 381.62 649.97 382.87 643.66 384.95 C 639.60 386.29 635.92 385.15 633.60 381.84 C 632.22 379.87 632.00 375.47 632.00 349.86 C 632.00 333.53 631.72 319.44 631.38 318.54 C 629.60 313.90 632.27 314.00 512.61 314.00 C 437.21 314.00 399.23 314.34 397.40 315.04 C 391.82 317.16 392.07 313.58 392.03 394.62 C 392.00 467.91 391.95 469.79 390.02 472.24 C 387.99 474.83 385.16 475.79 381.27 475.20 Z M 635.91 473.72 C 632.26 470.91 632.00 468.63 632.00 439.12 L 632.00 410.11 L 634.37 407.36 C 637.64 403.55 642.99 403.54 646.78 407.32 L 649.50 410.04 L 649.83 436.71 C 650.00 451.38 649.86 464.92 649.51 466.80 C 648.25 473.50 640.66 477.36 635.91 473.72 Z M 492.96 735.75 C 489.70 734.11 487.89 732.30 486.25 729.04 C 484.23 725.04 484.00 723.11 484.01 710.54 C 484.01 693.67 484.81 690.30 489.92 685.69 C 493.26 682.67 494.76 682.08 500.57 681.46 C 504.30 681.06 511.97 680.97 517.63 681.26 C 529.91 681.88 533.70 683.69 537.00 690.49 C 538.96 694.56 539.11 696.23 538.82 711.39 C 538.45 730.20 537.91 731.70 529.98 735.75 C 526.03 737.77 524.13 738.00 511.50 738.00 C 498.89 738.00 496.96 737.77 492.96 735.75 Z M 521.00 710.11 C 521.00 698.54 521.46 699.00 509.92 699.00 L 502.00 699.00 L 502.00 709.50 L 502.00 720.00 L 511.50 720.00 L 521.00 720.00 L 521.00 710.11 Z" stroke-linecap="round"/>
</g>
</g>
</g>

  </svg>