<svg xmlns="http://www.w3.org/2000/svg" xmlns:xlink="http://www.w3.org/1999/xlink" width="500px" height="483px" viewBox="0 0 499.9999999999998 482.5727192419931">
    <g id="54170e95-f774-44c5-a5d4-cedd548db0be">
<g style="">
		<g id="54170e95-f774-44c5-a5d4-cedd548db0be-child-0">
<path style="stroke: rgb(193,193,193); stroke-width: 0; stroke-dasharray: none; stroke-linecap: butt; stroke-dashoffset: 0; stroke-linejoin: miter; stroke-miterlimit: 4; fill: rgb(0,0,0); fill-rule: nonzero; opacity: 1;" transform="matrix(0.972873 0 0 0.972873 249.999896 241.286259) matrix(1 0 0 1 0 0)  translate(-512.116734, -511.011625)" d="M 327.50 758.05 C 326.40 757.59 324.38 756.01 323.00 754.53 L 320.50 751.84 L 320.00 721.01 L 319.50 690.18 L 313.31 686.05 C 301.06 677.87 292.90 666.14 289.54 651.91 C 288.29 646.59 288.03 635.91 288.01 589.32 L 288.00 533.14 L 282.11 529.57 C 269.87 522.13 260.07 508.58 256.40 494.00 C 254.23 485.41 254.95 470.94 257.99 462.28 C 265.43 441.00 284.57 426.15 308.00 423.48 C 312.92 422.92 319.20 423.55 328.68 425.55 L 331.86 426.22 L 332.23 391.86 C 332.60 358.44 332.68 357.23 335.25 347.72 C 344.01 315.35 365.61 289.07 395.50 274.42 C 407.29 268.64 417.28 265.65 430.30 264.02 C 441.25 262.65 583.81 262.66 594.77 264.03 C 624.64 267.78 651.89 284.07 670.81 309.50 C 677.24 318.16 685.60 335.93 688.68 347.50 C 691.26 357.21 691.35 358.51 691.76 391.82 C 692.12 421.44 692.38 426.07 693.64 425.58 C 697.61 424.06 709.21 422.92 715.00 423.48 C 729.87 424.92 742.22 430.60 752.28 440.62 C 778.45 466.66 773.36 510.22 741.88 529.66 L 736.00 533.28 L 735.98 588.89 C 735.96 650.07 735.76 652.65 729.96 664.43 C 725.92 672.64 718.54 680.86 710.44 686.19 L 704.00 690.42 L 704.00 720.31 C 704.00 753.03 703.86 753.88 697.96 757.36 C 695.57 758.78 691.22 759.00 665.85 759.00 C 624.48 758.99 627.00 761.42 627.00 721.53 L 627.00 695.00 L 512.00 695.00 L 397.00 695.00 L 397.00 721.53 C 397.00 750.39 396.62 752.79 391.49 756.83 C 388.80 758.95 388.03 759.00 359.12 758.94 C 342.83 758.90 328.60 758.50 327.50 758.05 Z M 375.00 716.50 L 375.00 695.00 L 358.00 695.00 L 341.00 695.00 L 341.00 716.50 L 341.00 738.00 L 358.00 738.00 L 375.00 738.00 L 375.00 716.50 Z M 683.00 716.50 L 683.00 695.00 L 666.00 695.00 L 649.00 695.00 L 649.00 716.50 L 649.00 738.00 L 666.00 738.00 L 683.00 738.00 L 683.00 716.50 Z M 689.80 672.38 C 698.80 670.04 706.42 663.74 711.30 654.62 C 713.48 650.53 713.50 650.05 714.00 587.50 C 714.59 513.75 713.58 519.91 726.03 513.89 C 734.62 509.74 741.86 502.70 745.20 495.26 C 748.24 488.48 748.25 475.60 745.23 468.00 C 739.98 454.83 727.21 445.81 712.88 445.15 C 698.61 444.50 687.33 450.08 679.35 461.76 C 671.39 473.41 671.66 470.83 671.05 540.00 L 670.50 601.50 L 667.30 608.26 C 663.32 616.66 655.75 624.79 648.12 628.86 C 636.03 635.30 641.35 635.07 508.74 634.77 C 393.23 634.51 388.30 634.42 383.50 632.59 C 368.84 627.00 358.20 615.64 353.88 600.98 C 352.86 597.50 352.56 583.24 352.53 537.00 C 352.50 478.24 352.47 477.43 350.31 471.70 C 343.69 454.20 328.44 444.14 310.14 445.20 C 284.60 446.68 269.01 474.10 280.43 497.45 C 283.78 504.30 289.36 509.48 298.07 513.85 C 310.55 520.10 309.42 513.24 310.00 586.32 C 310.49 647.90 310.55 649.61 312.61 654.05 C 316.77 663.05 325.02 669.93 334.93 672.66 C 342.04 674.62 682.24 674.35 689.80 672.38 Z M 636.00 610.92 C 641.60 608.38 644.58 605.64 647.35 600.50 C 649.40 596.69 649.51 595.01 649.80 565.75 L 650.11 535.00 L 511.99 535.00 L 373.87 535.00 L 374.18 565.75 C 374.48 595.00 374.60 596.70 376.65 600.50 C 379.29 605.40 382.39 608.38 387.56 610.95 C 391.41 612.88 394.19 612.92 511.50 612.94 C 630.17 612.96 631.55 612.93 636.00 610.92 Z M 650.00 495.66 C 650.00 469.40 653.03 459.05 665.10 444.07 L 670.00 437.99 L 670.00 401.68 C 670.00 380.73 669.56 362.86 668.95 359.43 C 665.51 340.01 656.49 323.37 641.87 309.49 C 629.05 297.31 615.19 289.84 599.02 286.42 C 589.17 284.33 434.53 284.39 424.63 286.49 C 395.83 292.59 370.90 314.08 359.99 342.22 C 354.23 357.05 353.59 363.01 353.54 402.05 L 353.50 437.60 L 358.25 443.03 C 364.44 450.11 369.57 460.01 372.03 469.61 C 373.64 475.91 374.00 480.68 374.00 495.66 L 374.00 514.00 L 512.00 514.00 L 650.00 514.00 L 650.00 495.66 Z" stroke-linecap="round"/>
</g>
</g>
</g>

  </svg>