<svg xmlns="http://www.w3.org/2000/svg" xmlns:xlink="http://www.w3.org/1999/xlink" width="318px" height="501px" viewBox="0 0 317.5126956275283 500">
    <g id="724245eb-d920-4442-881a-abd966ed8991">
<g style="">
		<g id="724245eb-d920-4442-881a-abd966ed8991-child-0">
<path style="stroke: rgb(193,193,193); stroke-width: 0; stroke-dasharray: none; stroke-linecap: butt; stroke-dashoffset: 0; stroke-linejoin: miter; stroke-miterlimit: 4; fill: rgb(0,0,0); fill-rule: nonzero; opacity: 1;" transform="matrix(0.826469 0 0 0.826469 158.75643 250.00013) matrix(1 0 0 1 0 0)  translate(-511.91, -511.491841)" d="M 359.45 812.59 C 354.17 810.29 351.36 805.84 349.17 796.28 C 348.07 791.45 345.96 782.21 344.48 775.75 C 342.59 767.45 341.38 764.00 340.37 764.00 C 337.59 764.00 329.23 759.06 326.48 755.80 C 320.67 748.90 320.60 748.41 320.19 711.29 L 319.82 677.09 L 322.37 674.54 C 325.36 671.55 327.02 671.37 329.90 673.75 C 331.99 675.47 332.04 676.18 332.27 710.00 C 332.52 747.72 332.58 748.12 338.56 750.85 C 340.44 751.70 385.11 752.00 512.56 752.00 L 684.03 752.00 L 687.76 748.58 L 691.50 745.16 L 691.79 713.36 C 692.04 685.78 692.30 681.33 693.70 679.78 C 696.04 677.19 699.53 677.58 701.99 680.71 C 704.08 683.38 704.12 684.04 703.81 714.96 C 703.53 743.44 703.32 746.84 701.64 750.00 C 697.91 757.01 689.23 764.00 684.26 764.00 C 682.72 764.00 681.70 767.06 677.67 783.93 C 672.55 805.28 670.87 809.04 665.02 812.15 C 657.48 816.15 645.82 813.31 641.87 806.50 C 640.92 804.85 637.69 794.72 634.69 784.00 L 629.25 764.50 L 512.17 764.25 L 395.09 763.99 L 392.97 771.25 C 385.41 797.14 383.64 802.85 382.27 805.78 C 379.06 812.66 367.51 816.10 359.45 812.59 Z M 376.67 784.50 C 379.52 775.15 381.88 766.71 381.92 765.75 C 381.99 764.16 380.69 764.00 367.93 764.00 C 355.01 764.00 353.91 764.14 354.38 765.75 C 354.66 766.71 356.53 774.47 358.54 783.00 C 360.55 791.52 362.63 799.31 363.16 800.30 C 363.88 801.65 365.07 802.03 367.82 801.81 L 371.50 801.50 L 376.67 784.50 Z M 660.66 800.75 C 661.80 798.92 669.78 765.63 669.30 764.75 C 668.64 763.56 642.00 763.83 642.00 765.02 C 642.00 766.20 650.55 795.69 651.99 799.48 C 652.76 801.50 653.63 802.00 656.42 802.00 C 658.32 802.00 660.23 801.44 660.66 800.75 Z M 353.24 738.01 C 351.45 736.91 349.09 734.55 347.99 732.76 C 346.03 729.53 346.01 727.21 346.00 485.78 L 346.00 242.07 L 349.00 238.66 C 350.64 236.78 353.23 234.74 354.75 234.11 C 356.77 233.27 398.76 233.04 513.50 233.24 C 667.71 233.50 669.53 233.52 672.24 235.50 C 673.74 236.60 675.88 239.33 676.99 241.57 C 678.99 245.61 679.00 247.06 679.00 486.87 C 679.00 755.90 679.71 731.30 671.81 737.02 L 667.70 740.00 L 512.10 740.00 C 358.60 739.99 356.46 739.97 353.24 738.01 Z M 506.00 486.50 L 506.00 245.00 L 432.00 245.00 L 358.00 245.00 L 358.00 485.83 C 358.00 618.29 358.30 726.97 358.67 727.33 C 359.03 727.70 392.33 728.00 432.67 728.00 L 506.00 728.00 L 506.00 486.50 Z M 666.50 486.50 L 666.50 245.50 L 592.25 245.24 L 518.00 244.99 L 518.00 486.50 L 518.00 728.01 L 592.25 727.76 L 666.50 727.50 L 666.50 486.50 Z M 694.00 661.00 C 692.01 659.01 692.00 657.67 692.00 465.15 C 692.00 278.63 692.07 271.25 693.83 269.65 C 696.44 267.29 700.58 267.57 702.44 270.22 C 703.84 272.22 704.00 292.41 704.00 465.72 C 704.00 657.67 703.99 659.01 702.00 661.00 C 700.90 662.10 699.10 663.00 698.00 663.00 C 696.90 663.00 695.10 662.10 694.00 661.00 Z M 321.56 648.78 C 320.16 646.79 320.00 629.08 320.00 479.50 C 320.00 329.92 320.16 312.21 321.56 310.22 C 323.23 307.83 326.87 307.32 330.07 309.04 C 331.97 310.05 332.00 313.01 332.00 478.88 C 332.00 641.15 331.93 647.75 330.17 649.35 C 327.56 651.71 323.42 651.43 321.56 648.78 Z M 322.44 285.58 C 320.62 284.25 320.48 282.56 320.20 258.48 C 319.83 226.21 320.28 223.59 327.45 216.42 C 330.78 213.09 334.11 210.78 336.59 210.10 C 339.23 209.36 363.63 209.01 411.69 209.01 L 482.89 209.00 L 484.44 211.22 C 486.54 214.21 486.40 216.60 484.00 219.00 C 482.04 220.96 480.67 221.00 410.90 221.00 L 339.80 221.00 L 336.54 224.26 C 333.52 227.28 333.22 228.17 332.55 236.29 C 332.14 241.11 331.97 253.86 332.16 264.61 C 332.48 283.02 332.39 284.24 330.56 285.58 C 328.08 287.39 324.92 287.39 322.44 285.58 Z M 694.22 249.44 C 692.21 248.03 692.00 247.05 692.00 238.89 C 692.00 229.05 690.78 225.40 686.59 222.65 C 684.30 221.15 675.92 221.00 593.04 221.00 C 503.33 221.00 501.97 220.97 500.00 219.00 C 497.60 216.60 497.46 214.21 499.56 211.22 L 501.11 209.00 L 593.24 209.00 C 684.56 209.00 685.41 209.02 689.67 211.08 C 695.43 213.87 701.49 220.92 702.88 226.45 C 703.50 228.89 704.00 234.31 704.00 238.49 C 704.00 245.23 703.72 246.37 701.55 248.55 C 698.69 251.41 697.27 251.58 694.22 249.44 Z M 482.56 509.78 C 481.22 507.87 481.00 502.73 481.00 473.78 C 481.00 441.33 481.08 439.92 483.00 438.00 C 485.50 435.50 489.17 435.43 491.35 437.83 C 492.82 439.46 493.00 443.46 493.00 474.17 C 493.00 506.34 492.88 508.80 491.17 510.35 C 488.56 512.71 484.42 512.43 482.56 509.78 Z M 534.28 555.98 C 533.06 555.49 531.81 554.05 531.50 552.79 C 531.20 551.53 531.07 532.07 531.22 509.54 L 531.50 468.58 L 534.20 467.06 C 536.70 465.66 537.12 465.70 539.70 467.63 L 542.50 469.72 L 542.78 510.11 C 542.93 532.32 542.83 551.44 542.55 552.58 C 542.16 554.17 537.94 557.32 536.70 556.94 C 536.59 556.90 535.50 556.47 534.28 555.98 Z" stroke-linecap="round"/>
</g>
</g>
</g>

  </svg>