<svg xmlns="http://www.w3.org/2000/svg" xmlns:xlink="http://www.w3.org/1999/xlink" width="418px" height="499px" viewBox="0 0 418.4850780254778 500">
    <g id="8509ac49-4f82-409d-ba73-6c902c73433e">
<g style="">
		<g id="8509ac49-4f82-409d-ba73-6c902c73433e-child-0">
<path style="stroke: rgb(193,193,193); stroke-width: 0; stroke-dasharray: none; stroke-linecap: butt; stroke-dashoffset: 0; stroke-linejoin: miter; stroke-miterlimit: 4; fill: rgb(0,0,0); fill-rule: nonzero; opacity: 1;" transform="matrix(0.796178 0 0 0.796178 209.242449 249.999892) matrix(1 0 0 1 0 0)  translate(-512.191371, -512)" d="M 253.75 824.92 C 252.79 824.36 251.30 822.54 250.44 820.88 C 248.43 817.00 249.34 812.66 252.71 810.01 C 255.03 808.19 256.75 808.00 271.18 808.00 C 291.24 808.00 294.00 809.09 294.00 817.00 C 294.00 824.91 291.22 826.01 271.30 825.97 C 262.44 825.95 254.73 825.49 253.75 824.92 Z M 317.30 824.50 C 314.38 822.45 312.67 817.01 313.91 813.74 C 316.12 807.92 315.42 808.00 363.72 808.00 C 403.40 808.00 408.00 807.84 408.00 806.42 C 408.00 805.55 406.16 796.89 403.92 787.17 C 401.67 777.45 396.52 754.71 392.47 736.64 C 388.42 718.56 384.89 703.55 384.62 703.28 C 384.35 703.01 380.76 702.42 376.64 701.95 C 354.85 699.51 338.98 679.37 342.77 658.96 C 345.47 644.44 354.70 633.96 369.47 628.64 C 371.46 627.93 392.29 627.37 429.86 627.03 L 487.22 626.50 L 475.43 615.67 C 465.15 606.22 463.31 604.92 461.07 605.48 C 459.66 605.84 448.83 606.38 437.00 606.67 C 418.19 607.15 413.98 606.96 403.35 605.15 C 369.09 599.31 338.96 583.33 314.87 558.24 C 294.80 537.32 281.54 512.38 274.34 482.00 C 270.92 467.56 270.04 442.36 272.40 426.34 C 274.45 412.43 275.53 409.29 278.86 407.58 C 287.57 403.12 319.34 400.67 339.07 402.95 C 381.78 407.88 420.82 429.28 447.69 462.50 C 462.44 480.72 473.70 506.36 477.99 531.45 C 480.29 544.90 480.69 567.33 478.89 582.54 L 477.79 591.91 L 489.51 603.21 C 495.96 609.42 501.63 614.65 502.12 614.83 C 502.62 615.02 503.00 586.46 503.00 548.20 L 503.00 481.24 L 497.52 477.10 C 494.50 474.83 487.69 468.81 482.38 463.73 C 417.88 402.08 409.99 312.47 462.77 241.09 C 477.04 221.79 504.46 198.00 512.42 198.00 C 518.67 198.00 543.12 218.58 557.00 235.51 C 577.64 260.71 590.40 289.75 594.56 320.98 C 600.19 363.27 588.45 405.98 561.23 442.20 C 554.12 451.65 531.60 474.35 524.72 479.00 L 521.01 481.50 L 521.01 548.25 C 521.00 586.94 521.38 615.00 521.90 615.00 C 522.39 615.00 527.98 609.94 534.31 603.75 L 545.83 592.50 L 544.98 585.00 C 543.35 570.71 543.84 545.15 545.97 532.67 C 554.02 485.61 581.89 446.18 623.79 422.60 C 642.66 411.98 662.78 405.42 684.02 402.95 C 703.40 400.70 736.73 403.22 745.16 407.58 C 748.55 409.33 750.31 414.70 752.05 428.50 C 753.74 441.88 752.74 467.58 750.06 480.16 C 745.73 500.43 736.48 522.06 724.69 539.49 C 717.26 550.46 697.75 570.17 686.22 578.37 C 656.52 599.45 616.73 610.17 579.50 607.12 C 572.35 606.54 565.07 605.77 563.32 605.42 C 560.34 604.82 559.46 605.44 548.66 615.89 L 537.17 627.00 L 592.48 627.00 C 644.80 627.00 648.14 627.11 654.21 628.98 C 666.95 632.92 677.05 643.05 680.56 655.43 C 686.54 676.49 670.36 699.48 647.87 701.88 C 644.08 702.29 640.60 703.04 640.12 703.56 C 639.38 704.38 614.91 805.26 614.98 807.25 C 614.99 807.66 630.72 808.00 649.94 808.00 L 684.89 808.00 L 687.67 810.39 C 691.64 813.81 691.64 820.19 687.67 823.61 L 684.89 826.00 L 502.17 826.00 C 341.20 826.00 319.19 825.82 317.30 824.50 Z M 597.36 800.00 C 610.97 745.11 620.51 703.40 619.58 702.77 C 618.99 702.36 570.18 702.02 511.12 702.02 L 403.74 702.00 L 404.31 705.25 C 405.05 709.45 426.89 805.10 427.49 806.76 C 427.85 807.75 445.22 807.96 511.72 807.76 L 595.50 807.50 L 597.36 800.00 Z M 651.51 682.14 C 656.08 680.06 661.67 674.17 662.61 670.44 C 662.95 669.05 663.04 665.49 662.79 662.53 C 662.26 656.06 658.81 650.96 652.96 647.98 C 649.09 646.00 647.36 645.98 510.61 646.24 L 372.19 646.50 L 368.34 649.61 C 362.87 654.03 360.71 658.20 360.71 664.36 C 360.71 670.16 362.45 674.20 366.66 678.19 C 373.08 684.28 363.85 683.92 512.00 683.94 C 640.95 683.96 647.69 683.87 651.51 682.14 Z M 445.82 588.13 C 446.78 587.52 444.27 584.58 436.67 577.40 C 410.56 552.72 357.37 500.43 356.19 498.28 C 355.17 496.42 355.13 495.13 356.02 492.45 C 357.46 488.07 360.43 486.00 365.25 486.00 C 369.47 486.00 365.24 482.14 431.90 546.75 C 446.80 561.19 459.44 573.00 459.99 573.00 C 461.63 573.00 461.22 543.80 459.44 533.50 C 449.87 478.19 405.76 434.39 348.10 422.92 C 337.09 420.73 312.38 419.40 306.60 420.68 L 302.69 421.55 L 323.76 441.91 C 335.34 453.10 345.00 463.22 345.22 464.38 C 345.87 467.77 344.15 472.78 341.76 474.46 C 340.55 475.30 337.84 476.00 335.73 476.00 C 332.12 476.00 330.78 474.90 311.21 455.95 L 290.50 435.91 L 290.21 448.20 C 289.05 497.49 315.79 544.76 359.14 570.08 C 373.51 578.48 391.53 584.72 409.50 587.55 C 418.64 588.98 443.84 589.39 445.82 588.13 Z M 623.20 586.06 C 649.54 580.41 672.21 568.51 690.86 550.53 C 715.74 526.56 729.42 498.44 733.95 462.03 C 735.17 452.15 735.31 439.03 734.20 437.29 C 733.39 436.02 724.13 444.81 627.62 538.49 C 593.89 571.22 577.53 587.74 578.32 588.30 C 580.59 589.88 612.88 588.27 623.20 586.06 Z M 574.00 564.55 C 586.39 552.94 677.97 464.18 700.26 442.17 C 711.68 430.90 720.75 421.42 720.42 421.09 C 719.01 419.68 686.27 420.71 677.00 422.46 C 629.54 431.43 589.98 463.21 572.60 506.32 C 565.36 524.28 561.36 548.54 562.71 566.34 C 563.38 575.22 562.46 575.36 574.00 564.55 Z M 533.65 445.69 C 554.65 423.84 566.73 401.83 574.08 372.00 C 576.13 363.68 576.43 360.02 576.46 342.50 C 576.50 325.10 576.20 321.13 574.16 312.00 C 571.63 300.66 566.54 286.08 561.75 276.50 C 554.28 261.54 540.45 243.17 528.20 231.94 L 521.50 225.80 L 521.00 260.99 L 520.50 296.18 L 518.14 298.09 C 516.75 299.22 514.23 300.00 512.00 300.00 C 509.77 300.00 507.25 299.22 505.86 298.09 L 503.50 296.18 L 503.00 261.11 L 502.50 226.03 L 497.63 230.20 C 480.52 244.82 462.44 272.08 455.08 294.32 C 449.17 312.20 447.88 319.36 447.33 337.50 C 446.75 356.27 447.91 366.43 452.48 382.51 C 455.98 394.84 467.43 417.51 475.70 428.50 C 483.23 438.50 499.81 456.00 501.75 456.00 C 502.74 456.00 503.00 442.34 503.00 391.06 L 503.00 326.11 L 505.39 323.33 C 508.81 319.36 515.19 319.36 518.61 323.33 L 521.00 326.11 L 521.00 391.56 C 521.00 428.96 521.38 457.00 521.89 457.00 C 522.37 457.00 527.67 451.91 533.65 445.69 Z M 714.86 824.48 C 711.11 822.45 709.66 817.76 711.44 813.50 C 712.20 811.66 713.74 809.67 714.85 809.08 C 716.15 808.39 726.05 808.00 742.48 808.00 C 773.38 808.00 775.00 808.46 775.00 817.16 C 775.00 819.14 774.01 821.15 772.08 823.08 L 769.15 826.00 L 743.33 825.96 C 722.83 825.93 716.95 825.62 714.86 824.48 Z" stroke-linecap="round"/>
</g>
</g>
</g>

  </svg>