<svg xmlns="http://www.w3.org/2000/svg" xmlns:xlink="http://www.w3.org/1999/xlink" width="368px" height="501px" viewBox="0 0 367.6039056247962 499.99999999999994">
    <g id="dcdf0832-b8f2-4f34-9a0d-e00c11b36014">
<g style="">
		<g id="dcdf0832-b8f2-4f34-9a0d-e00c11b36014-child-0">
<path style="stroke: rgb(193,193,193); stroke-width: 0; stroke-dasharray: none; stroke-linecap: butt; stroke-dashoffset: 0; stroke-linejoin: miter; stroke-miterlimit: 4; fill: rgb(0,0,0); fill-rule: nonzero; opacity: 1;" transform="matrix(0.738902 0 0 0.738902 183.801876 249.999896) matrix(1 0 0 1 0 0)  translate(-511.749995, -511.576744)" d="M 476.05 847.79 C 468.77 842.84 468.53 842.01 468.19 820.43 L 467.88 801.00 L 370.34 801.00 C 282.14 801.00 272.47 800.84 269.36 799.37 C 264.80 797.20 263.00 793.42 263.00 786.01 C 263.00 776.01 262.86 776.20 296.11 739.95 C 347.72 683.65 346.94 684.55 344.63 683.85 C 343.46 683.49 334.02 683.15 323.65 683.10 C 297.94 682.96 295.20 681.57 294.24 668.08 C 293.36 655.80 293.45 655.69 354.93 588.94 C 381.92 559.64 386.00 555.13 386.00 554.64 C 386.00 554.35 377.48 553.98 367.07 553.81 C 346.39 553.47 345.50 553.23 340.61 546.68 C 337.58 542.62 337.17 532.54 339.83 527.34 C 340.95 525.14 357.31 506.53 376.18 485.98 C 395.06 465.43 414.62 444.09 419.66 438.56 L 428.81 428.50 L 416.66 427.91 C 402.97 427.25 400.45 426.51 396.66 422.01 C 394.32 419.23 394.00 417.99 394.01 411.67 C 394.01 405.68 394.47 403.72 396.76 399.77 C 398.27 397.17 413.00 380.32 429.50 362.33 C 446.00 344.34 463.71 324.90 468.86 319.14 L 478.23 308.66 L 474.75 306.88 C 468.72 303.78 468.00 300.81 468.00 278.82 L 468.00 259.44 L 461.89 253.47 C 458.54 250.19 453.09 244.39 449.78 240.60 L 443.78 233.69 L 444.24 228.18 C 444.95 219.53 447.07 218.19 468.16 212.97 L 485.61 208.65 L 493.42 193.32 C 501.63 177.17 504.02 174.36 510.40 173.32 C 514.32 172.69 520.72 175.74 522.98 179.33 C 523.74 180.52 527.39 187.57 531.10 195.00 L 537.85 208.50 L 553.18 212.36 C 573.11 217.39 576.66 218.94 578.53 223.43 C 580.31 227.68 580.36 231.73 578.67 234.77 C 577.98 236.02 572.59 242.17 566.70 248.44 L 556.00 259.85 L 556.00 278.61 C 556.00 295.47 555.79 297.80 553.95 301.60 C 552.54 304.51 550.87 306.24 548.58 307.16 L 545.26 308.50 L 560.28 325.00 C 568.55 334.08 586.15 353.34 599.40 367.80 C 612.71 382.32 624.73 396.37 626.25 399.17 C 629.51 405.16 630.01 414.08 627.39 419.58 C 624.52 425.64 620.15 427.40 606.62 427.99 L 594.74 428.50 L 602.62 437.04 C 614.33 449.73 659.03 498.74 671.37 512.41 C 684.48 526.95 685.44 528.63 685.26 536.74 C 685.10 544.09 683.08 548.16 678.00 551.32 C 674.83 553.29 672.77 553.55 656.32 554.00 L 638.15 554.50 L 651.32 569.03 C 658.57 577.03 678.15 598.63 694.83 617.03 C 711.51 635.44 726.02 652.17 727.08 654.21 C 729.64 659.16 729.73 671.03 727.25 676.00 C 724.10 682.30 721.21 683.00 698.25 683.00 C 687.11 683.00 678.00 683.40 678.00 683.88 C 678.00 684.36 694.99 703.55 715.75 726.51 C 736.51 749.47 755.08 770.49 757.00 773.23 C 760.22 777.79 760.50 778.78 760.50 785.39 C 760.50 790.68 760.01 793.33 758.67 795.38 C 754.85 801.21 758.72 801.00 653.03 801.00 L 556.00 801.00 L 556.00 818.79 C 556.00 835.26 555.83 836.90 553.75 840.98 C 549.30 849.68 550.34 849.46 512.63 849.79 C 479.44 850.07 479.40 850.07 476.05 847.79 Z M 533.00 814.00 L 533.00 801.00 L 512.00 801.00 L 491.00 801.00 L 491.00 814.00 L 491.00 827.00 L 512.00 827.00 L 533.00 827.00 L 533.00 814.00 Z M 729.40 775.84 C 728.36 774.66 708.44 752.72 685.14 727.09 C 661.85 701.47 642.33 679.52 641.77 678.33 C 640.41 675.43 641.55 669.84 644.19 666.48 C 648.18 661.42 650.76 661.00 678.02 661.00 C 699.07 661.00 702.97 660.78 702.30 659.62 C 701.41 658.08 631.04 580.57 607.40 555.07 C 605.14 552.64 597.12 555.26 587.28 561.65 C 527.75 600.30 472.32 621.22 414.14 626.97 C 389.28 629.44 382.28 628.01 379.89 620.01 C 378.85 616.56 378.91 615.41 380.29 612.51 C 383.01 606.81 385.28 606.00 401.15 604.98 C 460.42 601.21 516.03 581.38 574.50 543.18 C 593.75 530.61 590.32 531.45 620.50 531.79 C 634.80 531.94 648.87 531.80 651.78 531.46 L 657.05 530.85 L 654.39 527.67 C 652.00 524.84 581.09 447.10 575.37 441.05 L 573.06 438.60 L 569.28 441.83 C 543.98 463.40 520.39 477.77 495.00 487.05 C 475.67 494.12 443.80 500.42 436.57 498.61 C 435.01 498.22 432.45 496.61 430.87 495.03 C 425.51 489.67 427.61 479.93 434.72 477.20 C 436.25 476.61 442.23 475.61 448.00 474.98 C 453.77 474.35 464.53 472.30 471.90 470.41 C 505.70 461.76 535.46 443.95 562.63 416.10 L 572.98 405.50 L 587.38 405.00 L 601.79 404.50 L 587.23 388.50 C 535.16 331.26 512.77 307.00 512.05 307.00 C 511.59 307.00 503.88 314.99 494.91 324.75 C 448.23 375.57 426.98 398.82 424.53 401.75 L 421.82 405.00 L 438.51 405.00 C 456.34 405.00 460.39 405.87 463.53 410.35 C 465.30 412.87 465.40 420.65 463.71 423.68 C 463.05 424.88 457.75 430.96 451.93 437.18 C 446.12 443.41 436.24 454.12 429.97 461.00 C 423.70 467.88 408.63 484.30 396.47 497.50 C 366.76 529.77 366.00 530.62 366.00 531.45 C 366.00 531.85 375.11 531.93 386.25 531.62 C 397.39 531.30 408.26 531.46 410.41 531.96 C 419.28 534.01 423.26 542.85 419.08 551.18 C 417.83 553.68 396.53 577.68 368.66 608.00 L 320.41 660.50 L 346.95 661.00 C 365.46 661.35 374.16 661.88 375.67 662.74 C 379.83 665.12 382.00 668.99 382.00 674.01 C 382.00 679.13 382.45 678.52 361.47 701.74 L 355.82 707.98 L 358.66 709.09 C 362.96 710.76 378.91 714.73 389.27 716.70 C 396.57 718.09 403.82 718.46 424.00 718.46 C 447.39 718.45 450.80 718.22 465.25 715.68 C 481.64 712.80 503.36 707.21 518.09 702.09 C 526.83 699.06 529.43 698.99 533.65 701.71 C 538.56 704.88 539.22 714.01 534.86 718.65 C 530.91 722.85 494.13 733.60 468.92 737.91 C 441.03 742.69 407.86 743.16 385.00 739.12 C 371.37 736.71 354.44 732.05 346.49 728.54 C 343.35 727.15 340.39 726.26 339.92 726.55 C 339.01 727.11 296.55 773.22 294.13 776.27 C 292.83 777.91 304.33 778.00 512.03 778.00 L 731.31 778.00 L 729.40 775.84 Z M 499.64 274.25 C 509.95 267.89 513.70 267.81 523.70 273.75 C 527.63 276.09 531.39 278.00 532.04 278.00 C 532.91 278.00 533.16 274.94 532.96 266.75 C 532.54 249.41 532.19 250.62 540.00 242.57 C 543.85 238.60 547.00 235.09 547.00 234.77 C 547.00 234.45 541.82 232.99 535.49 231.52 C 522.35 228.46 522.09 228.25 515.50 215.06 L 511.78 207.62 L 506.74 217.42 C 501.01 228.56 501.06 228.52 486.24 232.00 C 481.16 233.19 477.00 234.43 477.00 234.76 C 477.00 235.08 480.15 238.60 484.00 242.57 L 491.00 249.79 L 491.00 264.39 C 491.00 272.43 491.21 279.00 491.47 279.00 C 491.73 279.00 495.41 276.86 499.64 274.25 Z M 556.88 703.50 C 554.42 702.16 551.00 696.64 551.00 694.00 C 551.00 690.00 554.66 685.79 562.35 680.94 C 580.29 669.62 598.00 655.87 612.00 642.37 C 620.50 634.17 623.38 632.68 628.07 634.02 C 634.68 635.92 638.10 642.15 636.00 648.50 C 633.85 655.02 604.44 680.55 583.00 694.52 C 566.52 705.25 562.60 706.60 556.88 703.50 Z" stroke-linecap="round"/>
</g>
</g>
</g>

  </svg>