<svg xmlns="http://www.w3.org/2000/svg" xmlns:xlink="http://www.w3.org/1999/xlink" width="389px" height="500px" viewBox="0 0 388.8778775809088 500.0000000000002">
    <g id="683eec54-17f5-4de2-ba19-651a6f403d37">
<g style="">
		<g id="683eec54-17f5-4de2-ba19-651a6f403d37-child-0">
<path style="stroke: rgb(193,193,193); stroke-width: 0; stroke-dasharray: none; stroke-linecap: butt; stroke-dashoffset: 0; stroke-linejoin: miter; stroke-miterlimit: 4; fill: rgb(0,0,0); fill-rule: nonzero; opacity: 1;" transform="matrix(0.777867 0 0 0.777867 194.439016 250.000101) matrix(1 0 0 1 0 0)  translate(-512.010395, -512.391832)" d="M 338.00 833.13 C 330.31 832.34 327.57 830.99 324.95 826.69 C 320.93 820.10 323.58 810.85 330.42 807.61 C 333.07 806.35 337.12 806.00 349.15 806.01 C 362.50 806.01 364.87 806.26 367.36 807.90 C 376.38 813.85 376.07 826.74 366.79 831.65 C 363.13 833.58 349.39 834.29 338.00 833.13 Z M 406.02 832.99 C 404.04 832.51 401.12 830.62 399.27 828.59 C 396.53 825.61 396.00 824.25 396.00 820.26 C 396.01 814.95 398.52 809.91 402.20 807.81 C 403.93 806.83 413.11 806.38 439.00 806.00 L 473.50 805.50 L 473.76 748.56 L 474.02 691.62 L 464.76 700.60 C 422.69 741.43 369.55 759.66 325.50 748.37 C 316.84 746.16 303.84 739.81 295.91 733.94 C 280.56 722.55 269.32 705.96 264.02 686.85 C 259.20 669.45 263.11 660.18 276.82 656.49 C 318.68 645.20 352.02 626.37 386.12 594.73 C 391.41 589.82 397.31 583.93 399.23 581.63 L 402.73 577.44 L 394.11 579.26 C 381.03 582.01 359.37 581.27 348.50 577.69 C 336.75 573.82 328.64 568.65 318.41 558.51 C 304.48 544.71 295.49 527.16 294.28 511.46 C 293.34 499.21 297.52 493.99 311.50 489.94 C 339.09 481.96 367.53 466.70 392.50 446.49 C 397.45 442.49 406.60 434.14 412.83 427.95 L 424.17 416.68 L 416.01 414.33 C 392.96 407.67 375.63 393.32 364.52 371.69 C 359.11 361.14 358.53 355.09 362.27 348.02 C 364.23 344.31 366.10 342.85 375.72 337.48 C 397.71 325.21 416.13 311.08 435.00 292.02 C 458.86 267.90 479.64 238.18 494.03 207.59 C 500.20 194.46 503.94 191.00 511.98 191.00 C 520.56 191.00 523.58 194.07 532.43 211.80 C 549.03 245.07 568.45 271.62 595.13 297.51 C 610.36 312.28 623.73 322.70 638.99 331.69 C 644.77 335.10 651.87 339.30 654.77 341.02 C 661.32 344.91 664.00 349.66 664.00 357.40 C 664.00 367.90 651.89 387.24 638.23 398.57 C 630.38 405.08 616.20 412.30 607.15 414.40 C 603.65 415.21 600.62 416.05 600.40 416.27 C 599.76 416.90 624.80 441.00 633.00 447.65 C 657.41 467.42 686.08 482.37 715.26 490.54 C 721.56 492.30 726.26 495.68 728.54 500.07 C 731.80 506.39 729.63 519.53 722.94 533.84 C 712.76 555.64 695.78 570.93 674.00 577.91 C 661.19 582.02 642.79 582.30 626.91 578.63 L 620.91 577.25 L 622.68 579.37 C 625.91 583.26 643.72 600.00 652.17 607.09 C 664.90 617.77 688.60 633.21 703.29 640.39 C 718.08 647.62 726.47 650.77 742.39 655.11 C 748.39 656.74 754.52 658.94 756.02 660.02 C 762.55 664.66 763.77 675.28 759.38 689.20 C 749.57 720.32 727.10 741.33 695.22 749.21 C 683.88 752.00 661.82 752.21 648.73 749.65 C 616.62 743.35 584.94 725.76 557.75 699.14 L 550.00 691.55 L 550.00 748.77 L 550.00 806.00 L 584.05 806.00 C 621.66 806.00 622.25 806.09 626.04 812.30 C 630.04 818.85 627.56 828.01 620.79 831.70 C 617.69 833.40 611.56 833.51 513.50 833.66 C 456.30 833.74 407.93 833.44 406.02 832.99 Z M 521.99 727.00 C 522.00 654.25 522.13 648.25 523.75 645.07 C 526.18 640.31 530.01 637.80 535.68 637.27 C 542.05 636.68 545.77 639.21 552.52 648.75 C 581.00 688.98 614.76 713.67 651.98 721.50 C 662.53 723.71 681.78 723.48 691.40 721.02 C 708.46 716.66 720.40 706.97 728.39 691.00 C 730.95 685.89 732.92 681.60 732.77 681.47 C 732.62 681.33 726.00 679.07 718.06 676.44 C 679.07 663.50 640.11 637.66 605.29 601.64 C 585.24 580.89 563.85 552.64 561.97 544.42 C 560.81 539.31 562.24 534.03 565.75 530.52 C 571.57 524.69 578.06 524.43 586.56 529.66 C 604.96 541.00 608.70 543.10 615.59 545.97 C 628.06 551.16 637.30 553.19 649.00 553.29 C 660.87 553.39 667.18 551.88 676.00 546.83 C 683.43 542.58 691.96 533.51 696.27 525.28 C 701.72 514.87 701.96 515.45 690.50 511.58 C 647.09 496.92 602.78 464.84 570.37 424.60 C 559.57 411.18 557.93 405.97 562.01 397.97 C 565.03 392.06 569.84 390.00 580.71 389.98 C 601.91 389.94 618.58 382.46 628.52 368.52 C 630.98 365.07 632.98 361.85 632.95 361.37 C 632.93 360.89 628.36 357.84 622.81 354.58 C 583.93 331.78 542.99 288.51 517.00 242.75 C 514.58 238.49 512.31 235.00 511.95 235.00 C 511.59 235.00 508.93 239.16 506.05 244.25 C 480.62 289.17 440.51 331.23 399.43 356.04 C 394.79 358.84 391.00 361.50 391.00 361.96 C 391.00 362.41 392.96 365.44 395.36 368.70 C 405.52 382.51 422.28 389.92 443.50 390.00 C 450.94 390.03 453.17 390.42 456.40 392.27 C 463.26 396.20 465.71 403.98 462.49 411.68 C 458.42 421.41 428.80 453.13 409.00 468.96 C 386.03 487.32 357.77 503.37 334.30 511.37 L 323.11 515.18 L 325.60 520.84 C 332.67 536.89 345.62 548.33 361.00 552.11 C 368.87 554.04 383.91 553.58 393.26 551.12 C 403.09 548.53 415.04 543.37 424.30 537.71 C 428.26 535.29 434.17 531.66 437.44 529.65 C 444.48 525.32 449.31 524.92 455.11 528.18 C 459.26 530.52 463.00 536.66 463.00 541.16 C 463.00 545.25 457.67 554.71 448.45 566.96 C 409.24 619.13 356.44 659.70 306.00 676.42 C 298.02 679.06 291.39 681.32 291.26 681.44 C 291.13 681.55 292.82 685.36 295.01 689.90 C 304.14 708.78 321.28 720.42 343.72 722.97 C 362.12 725.06 382.79 720.74 403.50 710.48 C 428.87 697.92 451.35 677.61 471.40 649.15 C 474.63 644.56 478.68 639.95 480.39 638.90 C 487.13 634.79 496.53 637.68 500.28 645.02 C 501.94 648.28 502.03 653.44 501.78 726.70 L 501.50 804.91 L 505.00 805.30 C 506.92 805.52 511.53 805.65 515.24 805.60 L 521.99 805.50 L 521.99 727.00 Z M 661.28 833.08 C 649.85 830.20 646.28 818.26 654.41 810.13 L 658.03 806.50 L 674.44 806.18 C 692.83 805.83 695.50 806.49 699.04 812.30 C 703.08 818.93 700.36 828.53 693.46 831.98 C 690.10 833.66 666.76 834.46 661.28 833.08 Z" stroke-linecap="round"/>
</g>
</g>
</g>

  </svg>