<svg xmlns="http://www.w3.org/2000/svg" xmlns:xlink="http://www.w3.org/1999/xlink" width="500px" height="332px" viewBox="0 0 499.9999999999998 331.6846886347687">
    <g id="4aeaecb1-204d-48b0-953b-a885f7f82d28">
<g style="">
		<g id="4aeaecb1-204d-48b0-953b-a885f7f82d28-child-0">
<path style="stroke: rgb(193,193,193); stroke-width: 0; stroke-dasharray: none; stroke-linecap: butt; stroke-dashoffset: 0; stroke-linejoin: miter; stroke-miterlimit: 4; fill: rgb(0,0,0); fill-rule: nonzero; opacity: 1;" transform="matrix(0.728989 0 0 0.728989 249.999909 165.842285) matrix(1 0 0 1 0 0)  translate(-511.936446, -512.440138)" d="M 211.33 738.21 C 202.26 734.97 196.14 729.07 191.86 719.44 C 189.99 715.24 189.59 712.17 189.21 698.95 L 188.75 683.41 L 185.50 681.28 C 181.15 678.43 175.55 671.45 172.77 665.42 C 170.89 661.34 170.50 658.78 170.50 650.48 C 170.50 641.20 170.74 639.97 173.73 633.89 C 175.73 629.83 179.02 625.38 182.35 622.23 L 187.73 617.14 L 183.81 613.32 C 179.80 609.41 173.00 597.19 173.00 593.89 C 173.00 592.88 172.10 590.57 171.00 588.77 C 169.03 585.54 169.01 583.65 169.00 446.93 C 169.00 293.20 168.60 302.33 175.67 294.07 C 186.36 281.59 206.89 281.97 216.71 294.84 C 223.10 303.23 223.00 301.77 223.00 382.31 L 223.00 455.26 L 227.25 451.59 C 243.49 437.56 256.45 430.05 274.75 424.05 C 299.33 415.99 283.22 416.50 511.50 416.50 C 703.89 416.50 715.07 416.60 725.41 418.34 C 753.66 423.09 774.86 432.60 794.05 449.11 L 800.93 455.03 L 801.23 380.77 C 801.57 297.36 801.23 301.13 809.03 293.09 C 814.35 287.61 818.34 285.78 826.25 285.21 C 837.76 284.39 846.43 289.20 851.81 299.41 L 854.50 304.50 L 854.76 444.99 C 855.02 583.56 855.00 585.51 853.05 588.14 C 851.96 589.62 850.54 593.00 849.89 595.66 C 848.27 602.26 844.63 609.30 840.43 613.95 L 836.93 617.82 L 842.46 623.05 C 845.59 626.01 849.19 630.72 850.75 633.89 C 853.24 638.98 853.50 640.52 853.50 650.50 C 853.50 660.51 853.25 662.01 850.72 667.17 C 848.97 670.72 845.53 675.08 841.47 678.88 L 835.00 684.93 L 835.00 698.93 C 835.00 710.79 834.67 713.80 832.85 718.66 C 830.13 725.94 823.48 733.13 816.12 736.74 C 808.56 740.45 797.08 740.65 789.50 737.19 C 783.19 734.31 776.59 727.95 773.21 721.50 C 770.90 717.09 770.53 714.98 770.05 703.50 L 769.50 690.50 L 511.85 690.25 L 254.20 690.00 L 253.85 703.25 C 253.54 714.86 253.19 717.11 251.05 721.47 C 243.85 736.13 226.25 743.54 211.33 738.21 Z M 229.85 720.26 C 235.74 715.86 236.50 713.75 236.50 701.68 L 236.50 690.50 L 221.67 690.22 L 206.83 689.95 L 207.17 701.72 C 207.55 715.13 208.53 717.41 215.50 721.03 C 220.21 723.47 225.96 723.17 229.85 720.26 Z M 810.08 720.95 C 811.09 720.41 813.17 718.33 814.71 716.32 C 817.31 712.90 817.52 711.91 817.86 701.33 L 818.22 690.00 L 802.52 690.00 L 786.83 690.00 L 787.16 701.25 C 787.46 711.22 787.77 712.88 789.90 715.87 C 794.34 722.09 803.60 724.42 810.08 720.95 Z M 824.50 670.34 C 832.52 666.02 837.00 658.90 837.00 650.50 C 837.00 642.04 831.94 634.22 823.50 629.66 L 819.50 627.50 L 512.00 627.50 L 204.50 627.50 L 200.49 629.65 C 192.32 634.03 188.17 639.94 187.29 648.49 C 186.25 658.60 192.97 668.33 203.22 671.53 C 206.76 672.64 260.31 672.84 514.00 672.69 L 820.50 672.50 L 824.50 670.34 Z M 816.70 608.67 C 823.36 606.94 828.39 602.87 831.45 596.72 C 834.70 590.19 834.76 584.15 831.62 577.50 C 828.81 571.54 826.05 568.83 820.00 566.08 C 815.50 564.05 815.33 564.04 512.50 564.03 C 312.26 564.02 208.27 564.35 205.88 565.02 C 200.67 566.46 193.48 573.18 191.45 578.48 C 188.97 584.98 189.80 593.66 193.39 598.84 C 196.82 603.80 202.83 607.87 208.33 608.96 C 210.62 609.42 347.34 609.83 512.14 609.87 C 752.01 609.93 812.77 609.69 816.70 608.67 Z M 838.00 555.46 C 838.00 553.17 837.79 553.04 835.82 554.10 C 833.71 555.22 833.70 555.31 835.51 556.63 C 837.97 558.43 838.00 558.42 838.00 555.46 Z M 188.73 555.31 C 188.92 554.73 188.39 553.98 187.54 553.65 C 186.46 553.24 186.00 553.68 186.00 555.11 C 186.00 557.17 188.06 557.32 188.73 555.31 Z M 822.75 543.44 C 834.53 537.57 838.69 522.14 831.33 511.66 C 829.74 509.40 826.24 506.19 823.55 504.52 L 818.66 501.50 L 514.08 501.22 C 286.81 501.01 208.43 501.23 205.29 502.09 C 202.98 502.72 199.20 504.85 196.91 506.81 C 184.29 517.61 187.20 537.07 202.50 544.11 C 206.36 545.89 217.35 545.96 512.05 545.98 L 817.61 546.00 L 822.75 543.44 Z M 837.00 308.76 C 835.02 301.90 826.99 299.86 821.92 304.92 L 819.00 307.85 L 819.00 371.76 C 819.00 406.91 818.70 446.49 818.34 459.70 L 817.69 483.72 L 823.23 485.46 C 826.28 486.42 830.74 488.50 833.14 490.09 L 837.50 492.98 L 837.79 402.74 C 838.00 340.21 837.75 311.35 837.00 308.76 Z M 190.77 489.61 C 192.82 488.29 196.86 486.45 199.75 485.53 L 205.00 483.84 L 205.00 395.98 L 205.00 308.11 L 202.75 305.52 C 201.40 303.97 199.01 302.69 196.78 302.34 C 193.47 301.81 192.66 302.14 189.53 305.27 L 186.00 308.80 L 186.00 400.40 C 186.00 450.78 186.23 492.00 186.52 492.00 C 186.81 492.00 188.72 490.92 190.77 489.61 Z M 800.00 483.10 C 800.00 481.26 790.79 470.04 784.32 463.98 C 768.06 448.77 748.63 439.92 721.47 435.35 C 711.06 433.59 700.36 433.50 512.00 433.50 C 354.92 433.50 311.67 433.77 304.71 434.79 C 271.70 439.65 247.97 452.32 229.95 474.72 C 225.37 480.41 224.19 482.50 225.18 483.13 C 226.99 484.28 800.00 484.25 800.00 483.10 Z" stroke-linecap="round"/>
</g>
</g>
</g>

  </svg>