<svg xmlns="http://www.w3.org/2000/svg" xmlns:xlink="http://www.w3.org/1999/xlink" width="500px" height="424px" viewBox="0 0 499.9999999999998 424.0313551724135">
    <g id="6c2789ca-18cf-4b38-be60-c795414f3f59">
<g style="">
		<g id="6c2789ca-18cf-4b38-be60-c795414f3f59-child-0">
<path style="stroke: rgb(193,193,193); stroke-width: 0; stroke-dasharray: none; stroke-linecap: butt; stroke-dashoffset: 0; stroke-linejoin: miter; stroke-miterlimit: 4; fill: rgb(0,0,0); fill-rule: nonzero; opacity: 1;" transform="matrix(0.862069 0 0 0.862069 250.00001 212.015686) matrix(1 0 0 1 0 0)  translate(-512, -511.938186)" d="M 230.02 756.28 C 228.11 755.30 225.52 752.97 224.27 751.10 L 222.00 747.70 L 222.00 511.30 C 222.00 301.95 222.17 274.57 223.52 271.97 C 225.15 268.81 229.61 266.00 233.00 266.00 C 236.39 266.00 240.85 268.81 242.48 271.97 C 243.75 274.42 244.00 280.42 244.00 308.45 L 244.00 342.00 L 512.00 342.00 L 780.00 342.00 L 780.00 308.25 C 780.01 276.56 780.13 274.30 781.96 271.30 C 786.19 264.36 796.84 264.93 800.33 272.28 C 801.88 275.54 802.00 293.28 802.00 511.67 C 802.00 738.19 801.93 747.67 800.17 750.94 C 796.52 757.74 794.73 758.09 765.27 757.78 L 739.03 757.50 L 735.27 753.73 L 731.50 749.97 L 731.20 722.98 L 730.91 696.00 L 511.95 696.00 L 293.00 696.00 L 293.00 721.53 C 293.00 749.48 292.58 752.03 287.39 755.55 C 284.74 757.34 282.38 757.52 259.00 757.78 C 236.17 758.03 233.14 757.88 230.02 756.28 Z M 271.00 716.56 L 271.00 696.00 L 257.50 696.00 L 244.00 696.00 L 244.00 715.92 C 244.00 729.43 244.35 735.94 245.09 736.17 C 245.69 736.35 251.77 736.64 258.59 736.81 L 271.00 737.12 L 271.00 716.56 Z M 776.90 736.37 L 780.04 735.74 L 779.77 716.12 L 779.50 696.50 L 766.00 696.50 L 752.50 696.50 L 752.23 716.21 L 751.96 735.91 L 759.23 736.26 C 763.23 736.45 768.13 736.69 770.12 736.80 C 772.12 736.91 775.17 736.72 776.90 736.37 Z M 780.00 666.00 L 780.00 657.00 L 512.00 657.00 L 244.00 657.00 L 244.00 666.00 L 244.00 675.00 L 512.00 675.00 L 780.00 675.00 L 780.00 666.00 Z M 292.00 519.50 L 292.00 404.00 L 268.00 404.00 L 244.00 404.00 L 244.00 519.50 L 244.00 635.00 L 268.00 635.00 L 292.00 635.00 L 292.00 519.50 Z M 361.00 519.50 L 361.00 404.00 L 337.00 404.00 L 313.00 404.00 L 313.00 519.50 L 313.00 635.00 L 337.00 635.00 L 361.00 635.00 L 361.00 519.50 Z M 431.00 519.50 L 431.00 404.00 L 407.00 404.00 L 383.00 404.00 L 383.00 519.50 L 383.00 635.00 L 407.00 635.00 L 431.00 635.00 L 431.00 519.50 Z M 501.00 519.50 L 501.00 404.00 L 477.00 404.00 L 453.00 404.00 L 453.00 519.50 L 453.00 635.00 L 477.00 635.00 L 501.00 635.00 L 501.00 519.50 Z M 571.21 582.75 C 571.37 554.01 571.37 502.04 571.20 467.25 L 570.90 404.00 L 546.95 404.00 L 523.00 404.00 L 523.00 519.50 L 523.00 635.00 L 546.96 635.00 L 570.92 635.00 L 571.21 582.75 Z M 641.00 519.50 L 641.00 404.00 L 617.00 404.00 L 593.00 404.00 L 593.00 519.50 L 593.00 635.00 L 617.00 635.00 L 641.00 635.00 L 641.00 519.50 Z M 711.00 519.50 L 711.00 404.00 L 687.00 404.00 L 663.00 404.00 L 663.00 519.50 L 663.00 635.00 L 687.00 635.00 L 711.00 635.00 L 711.00 519.50 Z M 780.00 519.50 L 780.00 404.00 L 756.50 404.00 L 733.00 404.00 L 733.00 519.50 L 733.00 635.00 L 756.50 635.00 L 780.00 635.00 L 780.00 519.50 Z M 779.79 372.75 L 779.50 363.50 L 511.75 363.26 L 244.00 363.01 L 244.00 372.51 L 244.00 382.00 L 512.04 382.00 L 780.08 382.00 L 779.79 372.75 Z" stroke-linecap="round"/>
</g>
</g>
</g>

  </svg>