<svg xmlns="http://www.w3.org/2000/svg" xmlns:xlink="http://www.w3.org/1999/xlink" width="478px" height="500px" viewBox="0 0 478.0371092122789 500">
    <g id="46ec601b-9a4c-4992-b11e-4ce249201ca1">
<g style="">
		<g id="46ec601b-9a4c-4992-b11e-4ce249201ca1-child-0">
<path style="stroke: rgb(193,193,193); stroke-width: 0; stroke-dasharray: none; stroke-linecap: butt; stroke-dashoffset: 0; stroke-linejoin: miter; stroke-miterlimit: 4; fill: rgb(0,0,0); fill-rule: nonzero; opacity: 1;" transform="matrix(1.012188 0 0 1.012188 239.018507 249.99995) matrix(1 0 0 1 0 0)  translate(-512.846565, -512.040359)" d="M 281.92 756.73 C 275.14 752.16 274.94 743.34 281.51 738.17 C 284.23 736.03 284.82 736.00 321.63 736.00 C 342.19 736.00 359.00 735.66 359.00 735.25 C 359.00 734.84 356.58 733.24 353.62 731.69 C 346.30 727.87 335.92 719.13 330.48 712.22 C 324.98 705.23 318.73 692.74 316.35 684.00 C 313.93 675.10 313.90 655.91 316.30 647.00 C 317.26 643.42 320.16 636.22 322.73 631.00 C 326.64 623.06 328.90 620.00 336.46 612.40 C 346.19 602.60 353.55 597.86 366.13 593.28 C 372.91 590.81 374.74 590.60 389.14 590.55 L 404.78 590.50 L 411.14 578.50 C 414.64 571.90 417.50 565.92 417.50 565.22 C 417.50 564.51 413.66 562.23 408.96 560.15 C 388.59 551.12 370.63 538.59 355.35 522.71 C 335.88 502.51 322.59 477.81 316.47 450.50 C 314.34 441.00 313.42 411.91 314.90 400.83 C 322.16 346.31 363.02 296.31 416.50 276.48 C 458.50 260.90 503.47 261.26 543.09 277.49 C 573.30 289.86 574.91 292.59 563.66 312.36 C 560.17 318.49 548.85 338.58 538.49 357.00 C 528.14 375.42 514.35 399.87 507.84 411.32 C 501.33 422.77 496.00 432.34 496.00 432.57 C 496.00 432.81 533.47 433.00 579.27 433.00 L 662.54 433.00 L 673.18 414.25 C 679.03 403.94 686.86 389.88 690.57 383.00 C 702.40 361.11 707.44 354.94 717.00 350.63 C 723.69 347.62 734.01 346.39 739.72 347.92 C 754.55 351.92 750.50 372.44 735.23 370.72 C 732.78 370.45 729.34 370.62 727.57 371.11 C 721.97 372.65 724.54 368.60 689.03 432.00 C 662.27 479.79 650.64 496.41 629.87 516.55 C 613.64 532.27 599.72 542.45 580.48 552.63 C 574.71 555.68 570.00 558.31 570.00 558.47 C 570.00 558.87 588.41 587.95 590.22 590.40 C 591.53 592.18 592.04 592.22 598.56 590.97 C 607.78 589.21 622.84 589.42 631.50 591.43 C 635.35 592.32 642.78 595.15 648.00 597.72 C 656.08 601.69 658.93 603.81 667.09 611.94 C 675.30 620.13 677.35 622.87 681.34 631.00 C 687.92 644.42 689.47 651.04 689.42 665.50 C 689.36 679.58 687.75 686.69 681.92 698.58 C 674.99 712.71 663.50 724.65 649.52 732.23 L 643.50 735.50 L 692.83 736.00 L 742.17 736.50 L 745.08 739.77 C 748.46 743.54 749.08 750.01 746.44 753.78 C 742.60 759.27 749.16 759.00 617.50 759.00 C 510.76 759.00 495.54 758.81 492.97 757.48 C 486.21 753.99 485.13 743.95 490.95 738.75 L 494.03 736.00 L 539.02 736.00 C 563.76 736.00 583.98 735.66 583.95 735.25 C 583.92 734.84 581.27 733.22 578.05 731.65 C 560.95 723.29 545.46 703.69 540.50 684.14 C 538.37 675.76 537.58 662.91 538.76 655.75 L 539.70 650.00 L 526.10 649.76 C 513.48 649.55 464.75 650.05 464.30 650.41 C 464.19 650.50 464.58 653.83 465.18 657.82 C 467.38 672.66 462.74 691.81 453.46 706.17 C 447.48 715.45 437.25 725.48 429.19 730.00 C 418.09 736.23 417.71 735.93 436.85 735.97 C 456.43 736.00 458.77 736.73 461.01 743.52 C 462.55 748.19 461.53 752.11 457.89 755.61 L 454.87 758.50 L 370.11 758.77 L 285.34 759.03 L 281.92 756.73 Z M 401.76 716.49 C 419.59 712.29 434.73 698.33 440.01 681.22 C 442.72 672.46 442.72 658.54 440.01 649.78 C 436.46 638.27 427.50 626.95 416.50 620.06 C 401.09 610.41 377.86 610.36 362.75 619.94 C 346.51 630.25 337.81 645.89 337.69 665.00 C 337.61 680.27 342.24 691.55 352.90 702.00 C 360.70 709.63 367.14 713.34 377.19 715.98 C 386.06 718.30 393.44 718.46 401.76 716.49 Z M 625.76 716.49 C 660.26 708.36 677.43 668.80 659.58 638.58 C 649.12 620.87 626.87 609.99 607.25 612.99 C 598.10 614.39 592.73 616.47 584.80 621.68 C 574.65 628.36 567.30 638.50 563.61 650.93 C 561.30 658.72 561.48 673.10 563.99 681.22 C 571.81 706.53 599.92 722.59 625.76 716.49 Z M 553.49 620.45 C 555.60 617.39 560.35 612.08 564.07 608.65 L 570.81 602.40 L 563.39 590.95 C 559.30 584.65 554.28 576.66 552.23 573.18 C 549.26 568.14 548.10 566.96 546.50 567.34 C 528.29 571.65 520.49 573.26 511.85 574.49 C 497.99 576.46 470.30 576.43 457.50 574.42 C 452.00 573.56 445.92 572.63 444.00 572.34 L 440.50 571.82 L 433.75 584.77 C 430.04 591.89 427.00 597.98 427.00 598.31 C 427.00 598.64 429.14 600.37 431.75 602.16 C 438.38 606.70 445.47 613.48 450.69 620.25 L 455.12 626.00 L 502.39 626.00 L 549.67 626.00 L 553.49 620.45 Z M 510.00 551.87 C 514.12 551.33 521.41 549.98 526.18 548.87 L 534.86 546.87 L 530.74 540.85 C 527.74 536.48 526.64 533.89 526.71 531.39 C 526.96 522.44 537.22 516.64 544.44 521.37 C 545.91 522.34 549.39 526.70 552.17 531.08 L 557.22 539.03 L 571.11 531.84 C 591.89 521.09 611.03 505.99 626.12 488.44 C 633.56 479.79 649.00 458.49 649.00 456.87 C 649.00 456.38 597.11 456.00 529.90 456.00 L 410.80 456.00 L 407.40 452.60 C 404.57 449.77 404.00 448.47 404.00 444.82 C 404.00 442.39 404.73 439.41 405.63 438.12 C 408.75 433.66 412.43 433.00 434.06 433.00 L 454.19 433.00 L 444.85 425.28 C 432.76 415.29 379.15 369.88 367.54 359.79 C 362.61 355.50 358.07 352.00 357.45 352.00 C 355.74 352.00 346.52 370.34 343.11 380.51 C 338.86 393.21 337.00 405.23 337.00 420.07 L 337.00 432.87 L 354.44 433.19 L 371.87 433.50 L 374.92 436.43 C 378.71 440.05 379.65 444.50 377.66 449.27 C 375.24 455.07 372.24 456.00 355.94 456.00 L 341.78 456.00 L 342.43 458.57 C 344.06 465.06 351.35 479.85 357.55 489.21 C 370.81 509.24 391.47 526.73 415.03 537.86 C 430.88 545.35 428.95 545.75 435.51 533.52 C 441.60 522.17 443.99 520.00 450.42 520.00 C 455.04 520.00 460.69 524.83 461.57 529.54 C 462.10 532.34 461.43 534.35 457.60 541.36 C 455.07 546.01 453.00 550.04 453.00 550.32 C 453.00 551.03 459.69 552.08 470.36 553.02 C 480.48 553.92 498.47 553.40 510.00 551.87 Z M 457.48 383.50 C 454.97 371.40 449.75 346.21 445.90 327.53 C 442.04 308.84 438.70 293.37 438.48 293.14 C 437.73 292.40 419.82 299.07 412.01 302.99 C 407.82 305.10 400.37 309.53 395.45 312.84 C 386.58 318.80 372.00 331.36 372.00 333.03 C 372.00 333.51 380.44 340.99 390.75 349.65 C 401.06 358.32 418.05 372.64 428.50 381.49 C 438.95 390.33 450.65 400.23 454.50 403.49 C 460.42 408.50 461.54 409.11 461.78 407.46 C 461.93 406.38 460.00 395.60 457.48 383.50 Z M 499.99 379.00 C 507.31 366.08 516.99 348.98 521.52 341.00 C 532.90 320.94 543.00 302.83 543.00 302.48 C 543.00 302.32 539.71 300.82 535.69 299.15 C 525.64 294.96 512.33 291.22 501.04 289.40 C 491.05 287.79 463.24 287.29 462.02 288.69 C 461.63 289.13 465.92 311.77 471.56 339.00 C 484.05 399.34 485.16 404.27 486.02 403.28 C 486.39 402.85 492.68 391.92 499.99 379.00 Z M 376.66 700.61 C 365.33 695.84 360.24 691.01 355.19 680.24 C 352.86 675.27 352.50 673.22 352.50 665.00 C 352.50 656.63 352.84 654.75 355.40 649.22 C 359.12 641.16 367.64 633.07 375.72 629.91 C 382.86 627.12 395.13 626.89 402.00 629.40 C 409.47 632.15 416.68 637.77 420.98 644.21 C 426.03 651.78 427.44 656.60 427.33 666.00 C 427.22 676.28 424.37 683.40 417.34 691.00 C 409.62 699.34 403.17 702.27 391.50 702.72 C 383.71 703.02 381.72 702.74 376.66 700.61 Z M 395.80 677.60 C 404.51 673.10 406.09 662.30 399.04 655.54 C 394.97 651.64 387.07 650.91 382.19 653.97 C 376.43 657.58 374.43 665.61 377.75 671.78 C 381.23 678.25 389.44 680.89 395.80 677.60 Z M 602.95 701.61 C 591.36 697.15 584.33 690.95 579.59 681.00 C 576.80 675.14 576.50 673.56 576.51 665.00 C 576.52 656.81 576.89 654.71 579.19 649.78 C 588.44 629.97 611.79 621.77 631.10 631.55 C 658.95 645.67 658.48 685.86 630.30 699.64 C 625.57 701.95 623.08 702.47 615.56 702.70 C 609.68 702.88 605.25 702.49 602.95 701.61 Z M 623.02 675.48 C 629.36 669.40 629.13 660.95 622.45 655.09 C 616.33 649.72 606.63 651.28 602.47 658.32 C 600.19 662.18 600.15 669.05 602.39 672.47 C 607.03 679.55 617.22 681.04 623.02 675.48 Z" stroke-linecap="round"/>
</g>
</g>
</g>

  </svg>