<svg xmlns="http://www.w3.org/2000/svg" xmlns:xlink="http://www.w3.org/1999/xlink" width="500px" height="457px" viewBox="0 0 499.9999999999998 456.94985955406213">
    <g id="49e1b005-1ac1-4f87-98e0-91424a04afc8">
<g style="">
		<g id="49e1b005-1ac1-4f87-98e0-91424a04afc8-child-0">
<path style="stroke: rgb(193,193,193); stroke-width: 0; stroke-dasharray: none; stroke-linecap: butt; stroke-dashoffset: 0; stroke-linejoin: miter; stroke-miterlimit: 4; fill: rgb(0,0,0); fill-rule: nonzero; opacity: 1;" transform="matrix(0.73965 0 0 0.73965 249.999978 228.47491) matrix(1 0 0 1 0 0)  translate(-512.017144, -512.051983)" d="M 180.00 819.89 C 176.18 818.39 174.05 814.99 174.02 810.34 C 174.00 806.91 174.54 805.72 177.08 803.59 L 180.15 801.00 L 211.08 801.00 L 242.00 801.00 L 242.00 792.23 L 242.00 783.45 L 238.40 781.52 C 233.07 778.65 227.21 771.45 225.50 765.67 C 223.25 758.11 223.23 364.95 225.48 357.39 C 227.37 351.01 232.84 344.64 239.36 341.23 C 246.28 337.60 258.29 337.36 264.62 340.72 C 271.04 344.13 274.87 347.82 277.74 353.38 C 279.97 357.69 280.45 360.13 280.81 368.75 L 281.23 379.00 L 512.11 379.00 L 743.00 379.00 L 743.02 369.25 C 743.04 361.94 743.51 358.48 744.89 355.43 C 754.75 333.73 784.73 332.32 796.40 353.00 L 799.50 358.50 L 799.76 559.36 C 799.93 688.92 799.67 761.51 799.03 763.87 C 797.40 769.94 792.57 776.49 787.11 780.02 L 782.00 783.34 L 782.00 792.17 L 782.00 801.00 L 813.08 801.00 L 844.15 801.00 L 847.08 803.92 C 851.91 808.76 850.60 816.54 844.46 819.45 C 841.53 820.84 807.17 820.99 511.85 820.94 C 299.07 820.90 181.62 820.53 180.00 819.89 Z M 762.00 792.15 L 762.00 783.30 L 758.10 781.54 C 752.86 779.18 747.57 773.57 744.92 767.56 C 743.29 763.87 742.61 759.91 742.23 751.81 L 741.72 741.00 L 511.36 741.00 L 281.00 741.00 L 280.99 750.75 C 280.99 756.11 280.55 762.09 280.01 764.03 C 278.30 770.17 273.56 776.44 267.64 780.36 L 262.00 784.11 L 262.00 791.89 C 262.00 796.17 262.30 799.97 262.67 800.33 C 263.03 800.70 375.53 801.00 512.67 801.00 L 762.00 801.00 L 762.00 792.15 Z M 259.08 762.08 L 262.00 759.15 L 262.00 561.71 L 262.00 364.27 L 259.87 361.56 C 256.99 357.90 253.50 356.68 249.60 357.97 C 243.01 360.14 243.53 343.97 243.21 558.50 C 243.06 665.75 243.20 755.01 243.53 756.86 C 244.96 764.86 253.45 767.70 259.08 762.08 Z M 776.74 763.47 C 777.94 762.63 779.28 760.49 779.71 758.72 C 780.15 756.95 780.28 666.92 780.00 558.66 L 779.50 361.82 L 777.14 359.91 C 773.67 357.10 767.54 357.37 764.45 360.45 L 762.00 362.91 L 762.00 561.50 L 762.00 760.09 L 764.45 762.55 C 767.34 765.43 773.30 765.88 776.74 763.47 Z M 743.00 712.00 L 743.00 703.00 L 512.00 703.00 L 281.00 703.00 L 281.00 712.00 L 281.00 721.00 L 512.00 721.00 L 743.00 721.00 L 743.00 712.00 Z M 330.00 560.00 L 330.00 437.00 L 306.11 437.00 C 285.24 437.00 282.14 437.20 281.61 438.58 C 281.27 439.45 281.00 494.80 281.00 561.58 L 281.00 683.00 L 305.50 683.00 L 330.00 683.00 L 330.00 560.00 Z M 399.00 560.00 L 399.00 437.00 L 374.50 437.00 L 350.00 437.00 L 350.00 560.00 L 350.00 683.00 L 374.50 683.00 L 399.00 683.00 L 399.00 560.00 Z M 468.00 560.00 L 468.00 437.00 L 443.50 437.00 L 419.00 437.00 L 419.00 560.00 L 419.00 683.00 L 443.50 683.00 L 468.00 683.00 L 468.00 560.00 Z M 536.00 560.00 L 536.00 437.00 L 511.50 437.00 L 487.00 437.00 L 487.00 560.00 L 487.00 683.00 L 511.50 683.00 L 536.00 683.00 L 536.00 560.00 Z M 605.00 560.00 L 605.00 437.00 L 580.50 437.00 L 556.00 437.00 L 556.00 560.00 L 556.00 683.00 L 580.50 683.00 L 605.00 683.00 L 605.00 560.00 Z M 674.00 560.00 L 674.00 437.00 L 649.50 437.00 L 625.00 437.00 L 625.00 560.00 L 625.00 683.00 L 649.50 683.00 L 674.00 683.00 L 674.00 560.00 Z M 742.00 560.00 L 742.00 437.00 L 718.00 437.00 L 694.00 437.00 L 694.00 560.00 L 694.00 683.00 L 718.00 683.00 L 742.00 683.00 L 742.00 560.00 Z M 743.00 408.00 L 743.00 399.00 L 512.00 399.00 L 281.00 399.00 L 281.00 408.00 L 281.00 417.00 L 512.00 417.00 L 743.00 417.00 L 743.00 408.00 Z M 504.40 325.12 C 497.11 319.73 450.32 271.65 448.12 267.28 C 439.98 251.13 441.87 231.69 452.88 218.33 C 466.03 202.37 490.57 198.38 508.22 209.33 L 511.95 211.64 L 520.14 207.57 C 528.18 203.58 528.55 203.50 538.94 203.50 C 549.00 203.50 549.90 203.68 556.52 206.94 C 565.60 211.40 573.13 218.94 577.29 227.73 C 580.32 234.13 580.50 235.13 580.50 246.00 C 580.50 256.91 580.33 257.85 577.23 264.40 C 573.33 272.63 573.87 272.03 542.34 303.25 L 517.34 328.00 L 512.82 328.00 C 509.41 328.00 507.34 327.29 504.40 325.12 Z M 558.25 257.71 C 560.45 253.76 561.00 251.49 561.00 246.35 C 561.00 232.18 552.31 223.07 538.72 223.02 C 531.57 222.99 527.38 224.68 521.78 229.85 C 514.38 236.67 510.21 236.60 501.92 229.53 C 495.43 223.98 491.59 222.67 483.42 223.19 C 475.02 223.72 469.64 227.31 465.67 235.01 C 463.20 239.79 462.90 241.34 463.27 247.00 C 463.52 250.84 464.55 255.16 465.77 257.56 C 467.00 259.97 476.89 270.48 490.04 283.36 L 512.23 305.10 L 533.87 283.87 C 547.65 270.35 556.50 260.85 558.25 257.71 Z" stroke-linecap="round"/>
</g>
</g>
</g>

  </svg>