<svg xmlns="http://www.w3.org/2000/svg" xmlns:xlink="http://www.w3.org/1999/xlink" width="500px" height="311px" viewBox="0 0 500 310.9101473742128">
    <g id="4a897b10-d58a-4fff-a652-3e2cb789e8ed">
<g style="">
		<g id="4a897b10-d58a-4fff-a652-3e2cb789e8ed-child-0">
<path style="stroke: rgb(193,193,193); stroke-width: 0; stroke-dasharray: none; stroke-linecap: butt; stroke-dashoffset: 0; stroke-linejoin: miter; stroke-miterlimit: 4; fill: rgb(0,0,0); fill-rule: nonzero; opacity: 1;" transform="matrix(0.726703 0 0 0.726703 249.999963 155.45505) matrix(1 0 0 1 0 0)  translate(-512.019445, -512.081727)" d="M 171.40 722.60 C 168.55 719.75 168.00 718.48 168.00 714.73 C 168.00 709.17 170.71 705.45 175.80 704.04 C 177.83 703.47 186.36 703.01 194.75 703.01 L 210.00 703.00 L 210.00 532.09 C 210.00 367.60 210.07 360.95 211.88 355.14 C 217.42 337.32 237.01 325.50 255.36 328.89 C 268.35 331.29 280.51 341.03 285.10 352.72 C 287.09 357.77 287.43 360.76 287.78 376.25 L 288.19 394.00 L 291.99 394.00 C 297.50 394.00 310.77 391.32 319.73 388.40 C 338.37 382.31 359.41 369.70 375.50 354.96 C 410.53 322.88 438.89 307.95 479.19 300.36 C 492.32 297.89 524.93 297.39 539.00 299.44 C 568.25 303.71 591.53 312.56 616.00 328.72 C 626.41 335.59 633.03 340.88 651.01 356.71 C 675.29 378.09 702.09 390.70 729.25 393.53 L 736.00 394.23 L 736.00 380.25 C 736.00 358.31 738.67 349.24 747.81 340.10 C 759.88 328.02 777.69 324.88 792.85 332.15 C 799.97 335.56 809.21 345.34 812.09 352.50 L 814.50 358.50 L 814.77 530.75 L 815.03 703.00 L 830.55 703.00 C 847.29 703.00 851.40 703.88 854.37 708.12 C 857.81 713.03 855.64 722.48 850.53 724.81 C 848.53 725.72 810.37 726.00 690.35 726.00 L 532.80 726.00 L 529.40 722.60 C 526.66 719.86 526.00 718.42 526.00 715.18 C 526.00 710.10 529.66 705.47 534.81 704.03 C 537.21 703.37 572.98 703.01 637.25 703.01 L 736.00 703.00 L 736.00 691.00 L 736.00 679.00 L 512.00 679.00 L 288.00 679.00 L 288.00 691.00 L 288.00 703.00 L 388.10 703.00 C 478.67 703.00 488.53 703.16 491.64 704.63 C 498.80 708.03 500.07 717.87 494.05 723.25 L 490.97 726.00 L 332.88 726.00 L 174.80 726.00 L 171.40 722.60 Z M 264.00 533.47 C 264.00 392.09 263.77 363.40 262.63 360.72 C 257.51 348.71 240.32 348.47 234.94 360.33 C 233.10 364.37 233.04 369.81 233.02 533.75 L 233.00 703.00 L 248.50 703.00 L 264.00 703.00 L 264.00 533.47 Z M 790.76 532.07 C 790.50 361.20 790.50 361.15 788.44 358.39 C 784.63 353.28 781.28 351.50 775.50 351.50 C 769.48 351.50 766.01 353.46 762.25 358.99 L 760.00 362.30 L 760.00 532.65 L 760.00 703.00 L 775.51 703.00 L 791.02 703.00 L 790.76 532.07 Z M 317.00 534.65 L 317.00 413.29 L 309.25 414.57 C 304.99 415.27 298.46 416.14 294.75 416.50 L 288.00 417.16 L 288.00 536.58 L 288.00 656.00 L 302.50 656.00 L 317.00 656.00 L 317.00 534.65 Z M 369.80 522.25 C 370.04 448.96 370.00 389.00 369.70 389.00 C 369.40 389.00 365.53 391.25 361.09 394.00 C 356.65 396.76 350.09 400.45 346.51 402.22 L 340.00 405.43 L 340.00 530.74 L 340.00 656.05 L 354.67 655.78 L 369.35 655.50 L 369.80 522.25 Z M 422.00 501.38 L 422.00 346.77 L 419.25 348.55 C 414.08 351.89 404.93 359.17 398.96 364.69 L 393.00 370.22 L 393.00 513.11 L 393.00 656.00 L 407.50 656.00 L 422.00 656.00 L 422.00 501.38 Z M 475.00 490.39 L 475.00 324.78 L 471.25 325.46 C 467.13 326.22 455.65 329.95 449.75 332.44 C 446.70 333.73 446.01 334.54 446.03 336.76 C 446.04 338.27 445.99 386.08 445.91 443.00 C 445.83 499.92 445.82 571.14 445.88 601.25 L 446.00 656.00 L 460.50 656.00 L 475.00 656.00 L 475.00 490.39 Z M 526.46 650.75 C 526.44 648.14 526.32 572.88 526.21 483.50 L 526.00 321.00 L 512.00 321.00 L 498.00 321.00 L 498.00 488.53 L 498.00 656.05 L 512.25 655.78 L 526.50 655.50 L 526.46 650.75 Z M 579.00 495.12 L 579.00 334.25 L 574.25 332.22 C 569.03 329.99 553.10 325.00 551.20 325.00 C 550.27 325.00 550.00 362.57 550.00 490.50 L 550.00 656.00 L 564.50 656.00 L 579.00 656.00 L 579.00 495.12 Z M 632.00 513.66 L 632.00 371.32 L 625.75 365.33 C 622.31 362.04 615.67 356.51 611.00 353.05 L 602.50 346.76 L 602.24 500.13 C 602.10 584.48 602.20 654.06 602.46 654.75 C 602.81 655.67 606.76 656.00 617.47 656.00 L 632.00 656.00 L 632.00 513.66 Z M 683.75 530.77 L 683.50 405.54 L 679.00 403.14 C 673.60 400.27 662.76 393.89 658.25 390.93 L 655.00 388.80 L 655.00 522.40 L 655.00 656.00 L 669.50 656.00 L 684.01 656.00 L 683.75 530.77 Z M 736.00 536.56 L 736.00 417.12 L 731.75 416.62 C 724.40 415.74 709.66 413.88 708.56 413.69 C 707.50 413.50 706.41 652.00 707.46 654.75 C 707.81 655.67 711.66 656.00 721.97 656.00 L 736.00 656.00 L 736.00 536.56 Z" stroke-linecap="round"/>
</g>
</g>
</g>

  </svg>