<svg xmlns="http://www.w3.org/2000/svg" xmlns:xlink="http://www.w3.org/1999/xlink" width="500px" height="424px" viewBox="0 0 500 423.8422703108472">
    <g id="cb4edb20-2dfb-401e-9460-807db1691372">
<g style="">
		<g id="cb4edb20-2dfb-401e-9460-807db1691372-child-0">
<path style="stroke: rgb(193,193,193); stroke-width: 0; stroke-dasharray: none; stroke-linecap: butt; stroke-dashoffset: 0; stroke-linejoin: miter; stroke-miterlimit: 4; fill: rgb(0,0,0); fill-rule: nonzero; opacity: 1;" transform="matrix(0.83209 0 0 0.83209 249.999852 211.921009) matrix(1 0 0 1 0 0)  translate(-512.551909, -512.185202)" d="M 221.26 766.03 C 213.12 764.09 209.61 755.43 214.03 748.19 C 217.32 742.78 221.16 741.81 237.72 742.18 L 252.16 742.50 L 255.58 746.24 C 258.40 749.31 259.00 750.75 259.00 754.41 C 259.00 759.93 255.52 764.48 250.19 765.97 C 245.97 767.14 226.11 767.18 221.26 766.03 Z M 288.30 766.30 C 287.09 766.07 284.72 764.31 283.05 762.40 C 278.62 757.35 278.73 751.36 283.36 746.31 C 286.37 743.02 287.33 742.60 292.76 742.21 L 298.80 741.77 L 293.33 734.69 C 287.15 726.70 279.93 712.48 277.49 703.50 C 274.98 694.25 274.41 675.14 276.37 665.66 C 281.62 640.28 298.64 618.53 322.00 607.35 C 327.23 604.85 332.56 602.29 333.86 601.65 C 335.38 600.91 342.45 590.20 353.61 571.74 C 363.18 555.92 371.00 542.79 371.00 542.57 C 371.00 542.34 368.64 541.39 365.75 540.46 C 345.14 533.78 330.13 516.76 326.97 496.50 C 322.61 468.60 341.88 440.97 369.80 435.11 C 373.05 434.43 387.44 434.00 407.09 434.00 L 439.08 434.00 L 438.79 392.75 L 438.50 351.50 L 435.71 345.82 C 432.68 339.66 428.34 335.29 421.72 331.76 C 417.52 329.51 417.23 329.50 361.00 328.97 C 298.30 328.38 300.73 328.64 290.97 321.48 C 277.85 311.85 273.16 292.41 280.39 277.64 C 283.84 270.58 292.24 262.85 299.75 259.82 L 305.50 257.50 L 364.50 257.50 C 422.60 257.50 423.64 257.53 432.44 259.78 C 469.97 269.33 498.09 298.56 507.68 338.00 C 508.96 343.26 509.35 353.01 509.71 389.25 L 510.16 434.00 L 595.03 434.00 C 652.38 434.00 681.62 434.35 685.20 435.09 C 688.12 435.69 694.33 438.01 699.00 440.24 C 720.53 450.52 732.97 473.59 729.20 496.25 C 726.49 512.54 714.91 528.77 700.99 535.78 C 690.78 540.92 685.29 541.97 668.64 541.99 C 655.39 542.00 653.85 542.17 654.40 543.61 C 654.75 544.50 662.67 557.97 672.02 573.54 C 688.03 600.20 689.24 601.92 692.76 603.05 C 699.63 605.25 713.43 612.90 719.72 618.00 C 732.00 627.95 742.50 644.23 747.18 660.57 C 749.06 667.14 749.44 670.81 749.38 682.00 C 749.32 693.69 748.95 696.70 746.60 704.45 C 743.12 715.96 737.37 726.95 730.45 735.34 L 724.96 742.00 L 728.23 742.01 C 734.54 742.02 740.19 747.60 740.36 753.99 C 740.48 758.52 738.60 762.35 735.08 764.74 C 732.64 766.40 720.53 766.51 511.50 766.62 C 389.95 766.68 289.51 766.54 288.30 766.30 Z M 602.55 735.34 C 584.89 713.93 579.04 684.58 587.04 657.55 L 589.14 650.50 L 560.79 602.50 C 545.19 576.10 530.88 551.91 528.99 548.75 L 525.53 543.00 L 511.98 543.00 L 498.42 543.00 L 495.38 548.25 C 493.71 551.14 479.42 575.40 463.63 602.17 L 434.92 650.83 L 436.94 656.81 C 441.85 671.41 442.07 688.65 437.53 704.30 C 433.85 716.98 428.97 725.93 419.17 737.92 L 415.83 742.00 L 511.94 742.00 L 608.04 742.00 L 602.55 735.34 Z M 369.50 739.50 C 380.47 737.19 390.17 731.87 398.44 723.62 C 430.54 691.60 416.41 638.13 372.50 625.45 C 365.27 623.36 352.52 623.10 345.00 624.89 C 323.98 629.91 306.42 647.38 301.53 668.13 C 299.75 675.68 299.57 686.83 301.11 694.20 C 304.05 708.31 314.33 723.36 326.35 731.14 C 340.00 739.98 354.15 742.72 369.50 739.50 Z M 680.40 739.02 C 691.26 736.25 699.36 731.62 707.60 723.50 C 735.89 695.60 728.45 648.06 693.00 630.19 C 671.48 619.34 647.95 621.94 628.77 637.29 C 619.18 644.97 610.69 661.17 608.78 675.44 C 606.14 695.21 615.11 716.40 631.27 728.55 C 639.30 734.58 643.62 736.73 652.35 739.01 C 661.69 741.46 670.85 741.47 680.40 739.02 Z M 433.87 603.75 C 441.06 591.51 452.05 572.95 458.30 562.50 L 469.66 543.50 L 455.08 542.88 C 433.40 541.96 401.68 541.92 400.26 542.82 C 398.93 543.66 366.01 598.29 366.51 598.82 C 366.68 599.00 370.09 599.83 374.10 600.65 C 389.11 603.76 402.69 610.66 414.00 620.92 C 417.02 623.67 419.79 625.93 420.15 625.96 C 420.50 625.98 426.68 615.99 433.87 603.75 Z M 610.86 620.84 C 621.73 610.89 632.21 605.35 647.60 601.45 C 652.97 600.09 657.46 598.87 657.59 598.74 C 657.72 598.61 650.46 586.12 641.45 571.00 C 625.30 543.88 625.02 543.49 621.29 542.81 C 615.88 541.82 555.00 541.83 555.00 542.82 C 555.00 543.28 560.47 552.84 567.15 564.07 C 573.83 575.31 584.22 592.83 590.25 603.00 C 603.35 625.14 603.88 626.00 604.63 626.00 C 604.96 626.00 607.76 623.68 610.86 620.84 Z M 687.50 515.20 C 693.84 512.28 698.46 507.86 701.82 501.50 C 704.04 497.30 704.46 495.22 704.46 488.50 C 704.46 481.78 704.04 479.70 701.82 475.50 C 698.68 469.55 694.15 465.08 688.00 461.86 L 683.50 459.50 L 527.50 459.50 L 371.50 459.50 L 367.39 461.70 C 365.13 462.91 361.22 466.19 358.71 468.98 C 343.31 486.11 352.34 512.11 375.50 517.33 C 376.60 517.58 446.12 517.72 530.00 517.64 L 682.50 517.50 L 687.50 515.20 Z M 485.44 392.00 C 485.37 352.76 485.25 350.02 483.18 341.63 C 476.09 313.02 455.81 291.95 427.50 283.80 C 419.59 281.53 418.88 281.50 365.50 281.50 C 306.68 281.50 306.33 281.53 303.45 287.09 C 301.07 291.70 301.60 296.53 304.92 300.23 L 307.83 303.50 L 363.67 304.03 C 418.05 304.55 419.65 304.62 425.34 306.76 C 442.40 313.18 454.26 324.65 460.25 340.54 C 462.44 346.33 462.51 347.70 462.77 389.00 C 462.91 412.38 463.24 432.08 463.50 432.78 C 463.85 433.75 466.67 434.00 474.73 433.78 L 485.50 433.50 L 485.44 392.00 Z M 772.50 766.33 C 766.15 764.95 763.00 760.86 763.00 754.01 C 763.00 748.97 765.39 745.15 769.67 743.36 C 774.33 741.42 800.81 741.47 805.51 743.44 C 809.57 745.14 812.99 750.24 813.00 754.60 C 813.00 758.92 809.14 764.26 804.97 765.69 C 801.67 766.83 777.00 767.31 772.50 766.33 Z M 348.95 713.70 C 325.25 706.99 317.48 676.52 335.00 659.00 C 347.74 646.26 368.09 646.23 380.72 658.93 C 387.39 665.64 390.37 672.74 390.36 681.89 C 390.34 690.64 388.15 696.67 382.45 703.62 C 375.32 712.32 360.19 716.88 348.95 713.70 Z M 363.09 688.13 C 365.77 685.96 366.26 680.22 363.99 677.49 C 360.19 672.91 353.17 673.77 350.96 679.09 C 347.90 686.48 356.87 693.16 363.09 688.13 Z M 656.31 713.20 C 649.03 710.60 643.63 706.77 640.19 701.78 C 631.19 688.69 632.10 671.78 642.43 660.29 C 647.62 654.52 653.93 651.18 662.34 649.74 C 667.81 648.80 669.43 648.94 675.87 650.89 C 682.07 652.78 684.08 653.99 688.97 658.81 C 696.69 666.41 699.38 673.33 698.76 684.00 C 698.04 696.42 691.77 706.03 680.72 711.66 C 673.77 715.19 663.68 715.83 656.31 713.20 Z M 671.37 687.93 C 674.67 685.33 674.98 679.98 672.00 677.00 C 669.13 674.13 662.63 674.26 660.56 677.22 C 658.26 680.51 658.62 684.71 661.45 687.55 C 664.45 690.55 667.87 690.68 671.37 687.93 Z" stroke-linecap="round"/>
</g>
</g>
</g>

  </svg>