<svg xmlns="http://www.w3.org/2000/svg" xmlns:xlink="http://www.w3.org/1999/xlink" width="2583px" height="2229px" viewBox="0 0 2583.4749672376493 2229.8326143051872">
    <g id="e9784b62-e375-4bee-9b1c-ada71c187529">
<g style="">
		<g id="e9784b62-e375-4bee-9b1c-ada71c187529-child-0">
<path style="stroke: rgb(193,193,193); stroke-width: 0; stroke-dasharray: none; stroke-linecap: butt; stroke-dashoffset: 0; stroke-linejoin: miter; stroke-miterlimit: 4; fill: rgb(0,0,0); fill-rule: nonzero; opacity: 1;" transform="matrix(4.230882 0 0 4.230882 1291.73749 1114.916313) matrix(1 0 0 1 0 0)  translate(-511.688368, -512.01865)" d="M 221.83 775.11 C 213.45 774.58 211.81 774.18 209.59 772.09 C 204.55 767.34 205.57 759.29 211.73 755.26 C 214.21 753.63 217.29 753.32 233.58 753.02 C 234.17 753.01 236.12 747.71 237.91 741.25 C 254.98 679.56 304.63 502.37 336.55 389.22 L 343.96 362.94 L 339.99 337.72 C 337.80 323.85 336.01 312.19 336.01 311.82 C 336.00 311.45 326.21 310.99 314.25 310.82 C 293.46 310.51 292.28 310.39 287.50 308.02 C 263.42 296.11 262.95 263.52 286.69 251.83 L 293.46 248.50 L 511.98 248.50 L 730.50 248.50 L 736.00 251.11 C 747.66 256.64 754.46 267.09 754.49 279.52 C 754.51 291.95 747.78 302.43 736.03 308.22 C 731.85 310.28 729.84 310.48 709.92 310.81 L 688.35 311.16 L 684.38 336.99 L 680.41 362.82 L 687.09 386.66 C 690.76 399.77 695.88 418.15 698.46 427.50 C 701.05 436.85 708.27 462.73 714.51 485.00 C 729.75 539.41 755.87 633.27 766.54 672.00 C 771.32 689.33 777.59 712.05 780.49 722.50 C 783.38 732.95 786.33 744.09 787.03 747.25 L 788.32 753.00 L 797.14 753.00 C 811.20 753.00 817.00 756.43 817.00 764.74 C 817.00 768.92 815.08 772.35 811.74 774.14 C 810.13 775.00 736.56 775.34 520.54 775.50 C 361.57 775.62 227.15 775.44 221.83 775.11 Z M 765.00 752.05 C 765.00 751.00 746.10 681.34 740.02 660.00 C 737.90 652.58 732.71 633.90 728.48 618.50 C 724.25 603.10 716.07 573.62 710.30 553.00 C 704.53 532.38 697.86 508.52 695.48 500.00 C 693.10 491.48 688.44 474.80 685.14 462.94 C 678.15 437.84 673.13 420.80 672.58 420.25 C 671.92 419.59 671.27 423.77 663.56 477.50 C 659.46 506.10 654.64 539.36 652.84 551.40 L 649.57 573.31 L 651.80 574.78 C 655.04 576.94 660.78 585.12 662.56 590.14 C 663.41 592.56 664.10 597.79 664.11 601.92 C 664.11 611.80 660.17 620.24 652.83 626.04 C 650.07 628.22 647.47 630.00 647.03 630.00 C 646.60 630.00 646.02 635.29 645.75 641.75 C 645.44 649.06 644.60 655.44 643.51 658.63 C 641.24 665.34 635.59 672.75 629.90 676.50 C 627.40 678.15 623.92 681.55 622.18 684.06 C 613.33 696.80 594.37 711.92 576.50 720.50 C 555.34 730.65 541.50 733.92 516.50 734.68 C 501.07 735.15 496.74 734.93 486.17 733.12 C 465.37 729.57 447.34 722.35 429.19 710.31 C 419.81 704.08 407.37 692.31 401.13 683.75 C 398.82 680.59 396.48 678.00 395.93 678.00 C 395.37 678.00 392.74 675.97 390.09 673.48 C 382.00 665.92 378.00 654.47 378.00 638.90 C 378.00 631.92 377.77 630.95 375.86 629.92 C 371.56 627.63 364.76 620.46 362.20 615.54 C 359.94 611.21 359.56 609.23 359.53 601.50 C 359.50 593.65 359.85 591.78 362.27 586.86 C 363.79 583.76 367.02 579.39 369.43 577.17 L 373.83 573.12 L 363.48 500.81 C 350.86 412.60 351.89 419.06 350.84 421.53 C 350.39 422.61 342.84 449.15 334.07 480.50 C 325.31 511.85 312.44 557.75 305.49 582.50 C 298.54 607.25 285.22 654.95 275.89 688.50 C 266.57 722.05 258.70 750.29 258.40 751.25 C 257.89 752.91 270.40 753.00 511.43 753.00 C 671.09 753.00 765.00 752.65 765.00 752.05 Z M 537.23 710.94 C 549.38 708.48 558.93 705.10 570.48 699.17 C 578.87 694.86 593.05 685.06 595.96 681.55 C 597.12 680.15 588.81 680.00 511.87 680.04 L 426.50 680.08 L 431.00 684.19 C 437.87 690.46 451.44 698.98 461.48 703.32 C 484.90 713.45 511.64 716.14 537.23 710.94 Z M 414.96 655.75 C 416.35 653.58 438.24 617.86 448.21 601.50 C 454.98 590.40 456.02 589.50 462.11 589.50 C 466.55 589.50 467.52 589.89 470.08 592.77 C 473.96 597.11 474.00 602.03 470.19 608.05 C 461.68 621.51 440.00 657.00 440.00 657.46 C 440.00 657.76 472.40 658.00 512.00 658.00 C 551.60 658.00 584.00 657.77 584.00 657.49 C 584.00 657.20 576.58 644.94 567.51 630.24 C 549.02 600.27 548.50 598.83 553.92 592.77 C 556.48 589.89 557.45 589.50 561.89 589.50 C 565.61 589.50 567.47 590.03 568.94 591.50 C 570.89 593.45 579.72 607.54 598.57 638.81 C 603.65 647.23 608.59 655.00 609.56 656.06 C 612.33 659.13 617.31 658.61 620.41 654.92 C 622.81 652.07 623.00 651.13 623.00 642.10 L 623.00 632.36 L 618.18 630.18 C 607.50 625.35 606.60 624.18 576.63 576.36 L 560.88 551.22 L 551.69 556.03 C 536.32 564.07 530.23 565.50 511.50 565.47 C 496.05 565.45 495.18 565.34 486.00 562.17 C 480.77 560.36 473.63 557.09 470.13 554.90 C 466.62 552.71 463.37 551.05 462.91 551.21 C 462.45 551.37 453.06 566.35 442.05 584.50 C 420.15 620.58 416.01 625.73 405.34 630.16 L 399.88 632.42 L 400.57 641.46 C 401.54 654.16 403.79 657.90 410.51 657.97 C 412.56 657.99 413.98 657.28 414.96 655.75 Z M 395.40 610.61 C 401.90 607.89 404.01 600.63 399.96 594.94 C 393.69 586.13 379.61 592.04 381.35 602.74 C 382.03 606.93 383.57 608.90 387.50 610.61 C 391.31 612.27 391.41 612.27 395.40 610.61 Z M 639.25 608.18 C 644.40 603.40 642.42 594.33 635.62 591.49 C 625.56 587.28 616.93 600.10 624.50 608.00 C 628.92 612.61 634.42 612.68 639.25 608.18 Z M 430.75 560.44 C 437.89 548.86 444.27 538.36 444.94 537.12 C 446.00 535.13 445.66 534.12 442.13 528.68 C 431.60 512.48 428.49 501.75 428.58 482.00 C 428.64 469.23 428.96 466.45 431.33 458.71 C 437.75 437.70 449.52 421.96 467.33 410.56 C 475.04 405.64 480.80 403.24 491.50 400.50 L 500.50 398.20 L 500.79 358.85 C 500.96 337.21 500.81 317.59 500.48 315.25 L 499.88 311.00 L 429.44 311.00 C 360.36 311.00 359.00 311.04 359.00 312.94 C 359.00 314.01 360.55 325.37 362.45 338.19 C 366.91 368.27 367.63 373.24 382.48 476.50 C 389.37 524.35 395.26 564.74 395.58 566.25 C 395.95 567.99 396.81 569.00 397.92 569.00 C 401.18 569.00 412.04 575.16 414.75 578.55 C 416.22 580.40 417.50 581.82 417.60 581.70 C 417.69 581.59 423.61 572.02 430.75 560.44 Z M 613.98 574.01 C 616.42 572.40 620.57 570.53 623.21 569.85 C 625.84 569.17 628.00 568.26 628.00 567.81 C 628.00 567.37 631.58 542.59 635.95 512.75 C 640.32 482.91 648.65 426.10 654.45 386.50 C 660.25 346.89 665.00 313.70 665.00 312.75 C 665.00 311.10 660.87 311.00 593.99 311.00 L 522.98 311.00 L 523.24 354.60 L 523.50 398.20 L 532.57 400.50 C 557.67 406.84 580.03 426.18 589.57 449.78 C 600.03 475.69 597.22 505.09 582.05 528.33 L 577.21 535.74 L 591.76 558.49 C 605.91 580.60 606.36 581.17 607.93 579.09 C 608.82 577.91 611.54 575.63 613.98 574.01 Z M 526.90 542.46 C 537.43 539.98 546.51 534.61 555.50 525.56 C 574.95 505.97 579.21 479.18 566.87 454.00 C 554.67 429.09 526.39 415.65 498.50 421.50 C 475.24 426.39 456.02 446.35 451.48 470.34 C 448.75 484.79 450.30 495.88 457.02 509.89 C 464.44 525.37 480.47 538.49 496.79 542.45 C 504.46 544.31 519.04 544.31 526.90 542.46 Z M 727.53 287.81 C 735.03 284.39 734.46 273.52 726.62 270.64 C 724.30 269.79 668.82 269.63 509.66 270.00 L 295.83 270.50 L 293.41 273.31 C 289.53 277.82 290.82 284.67 296.11 287.60 C 299.45 289.46 723.47 289.65 727.53 287.81 Z" stroke-linecap="round"/>
</g>
</g>
</g>

  </svg>