<svg xmlns="http://www.w3.org/2000/svg" xmlns:xlink="http://www.w3.org/1999/xlink" width="507px" height="541px" viewBox="0 0 507.259768633417 541.016406562625">
    <g id="9dfad98c-9c72-4c04-842c-48b229bdd28e">
<g style="">
		<g id="9dfad98c-9c72-4c04-842c-48b229bdd28e-child-0">
<path style="stroke: rgb(193,193,193); stroke-width: 0; stroke-dasharray: none; stroke-linecap: butt; stroke-dashoffset: 0; stroke-linejoin: miter; stroke-miterlimit: 4; fill: rgb(0,0,0); fill-rule: nonzero; opacity: 1;" transform="matrix(0.880439 0 0 0.880439 253.629857 270.508174) matrix(1 0 0 1 0 0)  translate(-511.769594, -512.366866)" d="M 343.82 818.93 C 289.21 813.05 242.78 772.29 228.54 717.75 C 224.42 702.00 223.58 693.82 223.71 671.00 C 224.10 600.67 241.10 525.29 270.58 463.22 C 298.88 403.62 341.96 354.15 391.25 324.63 L 402.01 318.19 L 378.75 302.42 C 336.32 273.65 337.00 274.23 337.00 266.35 C 337.01 260.58 340.04 256.51 346.92 253.04 C 364.85 243.99 381.61 232.33 394.71 219.79 C 399.23 215.46 404.54 211.25 406.52 210.43 C 411.64 208.29 416.48 209.47 420.89 213.93 C 425.69 218.80 439.85 243.31 453.86 271.00 C 460.12 283.38 465.34 293.62 465.46 293.76 C 465.58 293.90 468.93 293.28 472.90 292.39 C 478.85 291.04 480.00 290.47 479.45 289.13 C 476.93 282.97 467.25 253.32 464.40 243.00 C 458.49 221.63 458.72 214.33 465.48 208.00 C 467.91 205.73 468.96 205.50 476.83 205.50 C 481.60 205.50 492.11 205.90 500.19 206.39 C 510.51 207.02 520.53 206.90 533.83 205.99 C 552.11 204.73 552.90 204.76 556.14 206.65 C 557.98 207.73 560.55 210.16 561.85 212.05 C 563.91 215.08 564.14 216.30 563.66 222.00 C 562.95 230.53 558.26 248.34 551.02 270.00 C 547.80 279.62 544.88 288.24 544.52 289.15 C 543.97 290.52 545.10 291.09 551.06 292.44 C 555.01 293.34 558.44 293.90 558.66 293.67 C 558.89 293.45 563.75 283.87 569.46 272.38 C 581.25 248.70 597.14 220.49 601.88 214.85 C 605.84 210.13 611.42 208.32 616.67 210.06 C 618.69 210.72 623.93 214.73 628.86 219.39 C 643.09 232.83 653.70 240.35 671.98 249.98 C 683.89 256.25 687.00 259.65 687.00 266.40 C 686.99 268.67 686.14 271.90 685.09 273.63 C 683.83 275.69 673.74 283.13 655.34 295.54 C 623.45 317.07 623.07 317.33 623.04 318.00 C 623.03 318.27 626.39 320.45 630.50 322.83 C 641.64 329.28 657.12 340.55 669.50 351.22 C 724.28 398.44 763.41 466.03 784.37 549.68 C 795.80 595.30 800.66 636.21 799.73 679.04 C 799.28 699.61 798.90 703.82 796.66 713.24 C 788.62 747.07 769.85 775.30 742.41 794.85 C 727.04 805.81 711.45 812.69 691.50 817.33 C 682.57 819.41 681.12 819.43 517.00 819.59 C 425.98 819.69 348.04 819.39 343.82 818.93 Z M 679.50 793.96 C 719.53 788.25 751.63 763.02 766.73 725.42 C 774.62 705.76 776.72 688.24 775.03 656.00 C 770.79 574.93 748.12 497.18 711.70 438.83 C 693.10 409.03 661.22 374.32 637.38 357.92 L 632.51 354.56 L 635.88 359.03 C 657.61 387.85 677.42 428.53 688.55 467.17 C 695.03 489.66 701.94 529.46 700.50 536.00 C 699.00 542.83 690.20 547.36 683.70 544.65 C 679.06 542.71 676.21 538.72 675.51 533.18 C 669.75 487.73 660.29 454.91 642.43 418.50 C 622.57 377.98 595.51 345.51 565.94 326.73 L 559.50 322.64 L 562.08 326.07 C 594.66 369.37 618.53 430.47 626.52 491.00 C 628.58 506.63 629.61 543.48 628.20 551.00 C 625.74 564.02 619.81 574.14 610.48 581.23 C 597.49 591.10 580.71 592.50 565.91 584.96 C 559.95 581.91 551.55 573.51 548.26 567.30 C 542.21 555.87 542.00 554.12 541.99 515.07 C 541.99 462.96 540.34 437.22 535.01 406.00 C 532.61 391.95 527.16 369.78 522.98 357.00 C 519.31 345.80 512.79 330.01 511.83 330.00 C 509.70 329.99 497.14 368.14 492.54 388.59 C 484.99 422.14 482.99 444.39 482.38 501.50 C 482.10 527.35 481.44 550.78 480.90 553.57 C 476.53 576.44 453.99 592.97 432.28 589.25 C 418.21 586.85 405.96 577.56 399.97 564.75 C 395.94 556.15 395.00 550.12 395.01 533.11 C 395.05 463.60 418.68 387.62 457.64 331.75 C 460.61 327.49 462.75 324.00 462.38 324.00 C 459.78 324.00 442.29 337.64 431.63 348.00 C 389.04 389.36 360.02 451.67 349.90 523.48 C 348.82 531.17 347.26 538.47 346.45 539.72 C 342.78 545.32 334.18 547.13 328.58 543.46 C 323.80 540.33 322.80 536.40 324.04 525.74 C 326.41 505.38 330.57 484.59 336.19 465.00 C 345.89 431.15 366.51 388.25 385.66 362.08 C 390.69 355.21 390.53 355.19 381.83 361.49 C 360.64 376.82 335.11 404.44 317.59 431.00 C 282.67 483.90 260.77 547.95 251.43 624.50 C 249.28 642.12 248.34 687.53 249.92 697.73 C 257.75 748.52 295.13 786.92 343.50 793.89 C 352.17 795.14 670.77 795.21 679.50 793.96 Z M 445.30 563.39 C 447.06 562.50 449.73 560.63 451.22 559.22 C 456.65 554.15 456.86 552.02 457.31 496.00 C 457.75 440.96 458.29 432.92 463.65 403.00 C 466.41 387.53 471.87 364.33 474.44 357.12 C 476.95 350.09 476.29 350.09 471.57 357.12 C 457.45 378.18 441.53 414.34 433.44 443.73 C 425.57 472.35 422.02 496.52 421.27 526.59 C 420.68 550.00 421.13 552.80 426.34 558.73 C 431.68 564.82 438.93 566.60 445.30 563.39 Z M 592.96 563.02 C 603.35 557.72 605.42 547.66 602.95 514.50 C 599.56 469.25 588.51 427.77 569.09 387.50 C 562.18 373.17 549.13 350.54 548.27 351.40 C 548.09 351.58 549.69 357.75 551.84 365.11 C 556.47 380.97 561.28 404.62 563.41 422.00 C 566.24 445.02 566.99 462.23 567.00 504.50 C 567.01 531.01 567.40 547.91 568.07 550.32 C 569.33 554.85 575.28 561.77 579.50 563.61 C 583.82 565.50 588.51 565.29 592.96 563.02 Z M 431.62 304.60 C 433.76 303.83 436.77 302.70 438.33 302.09 L 441.17 300.99 L 431.71 282.74 C 421.46 262.96 411.56 245.31 409.49 243.13 C 408.41 241.99 407.16 242.63 401.85 247.07 C 398.36 249.98 390.25 255.81 383.83 260.01 L 372.17 267.66 L 399.16 286.06 C 414.01 296.18 426.38 304.80 426.64 305.23 C 427.25 306.22 427.08 306.24 431.62 304.60 Z M 624.69 286.10 C 638.89 276.53 650.84 268.40 651.27 268.04 C 651.69 267.67 647.70 264.70 642.41 261.43 C 637.11 258.17 628.99 252.46 624.35 248.75 C 619.71 245.04 615.55 242.00 615.11 242.00 C 613.31 242.00 584.00 297.03 584.00 300.41 C 584.00 301.02 586.59 302.47 589.75 303.64 C 594.22 305.29 595.88 305.51 597.19 304.63 C 598.13 304.01 610.50 295.67 624.69 286.10 Z M 522.28 275.75 C 526.79 262.91 529.84 253.07 533.83 238.48 L 535.75 231.46 L 511.87 231.43 C 498.74 231.42 488.00 231.75 488.00 232.16 C 488.00 233.77 498.05 266.07 502.03 277.25 L 506.21 289.00 L 511.91 289.00 L 517.61 289.00 L 522.28 275.75 Z M 349.98 762.04 C 323.25 759.32 299.75 743.42 288.27 720.30 C 283.33 710.35 281.75 702.21 283.95 698.09 C 285.65 694.92 290.94 692.01 295.00 692.01 C 299.45 692.01 304.72 695.19 306.15 698.75 C 312.84 715.43 320.92 725.37 332.33 730.99 C 343.02 736.25 347.88 737.16 368.50 737.71 C 378.95 738.00 388.31 738.66 389.30 739.18 C 394.46 741.89 396.53 751.16 393.14 756.31 C 389.38 762.00 387.76 762.49 372.00 762.65 C 364.02 762.74 354.12 762.46 349.98 762.04 Z M 698.61 745.96 C 691.66 739.86 692.55 733.40 701.54 724.82 C 714.34 712.57 718.95 698.82 719.91 670.00 C 720.59 649.46 721.15 647.58 727.46 644.59 C 731.81 642.52 734.75 642.58 738.94 644.83 C 744.71 647.92 746.00 651.71 745.99 665.48 C 745.98 689.24 742.91 704.67 735.07 720.50 C 729.74 731.27 721.53 741.97 715.28 746.30 C 709.66 750.20 703.29 750.07 698.61 745.96 Z" stroke-linecap="round"/>
</g>
</g>
</g>

  </svg>