<svg xmlns="http://www.w3.org/2000/svg" xmlns:xlink="http://www.w3.org/1999/xlink" width="2242px" height="3466px" viewBox="0 0 2242.1175197548873 3466.6666666666715">
    <g id="e22c539c-c8a0-4a54-8030-6132b7a65ca7">
<g style="">
		<g id="e22c539c-c8a0-4a54-8030-6132b7a65ca7-child-0">
<path style="stroke: rgb(193,193,193); stroke-width: 0; stroke-dasharray: none; stroke-linecap: butt; stroke-dashoffset: 0; stroke-linejoin: miter; stroke-miterlimit: 4; fill: rgb(0,0,0); fill-rule: nonzero; opacity: 1;" transform="matrix(4.538608 0 0 4.538608 1121.05887 1733.333502) matrix(1 0 0 1 0 0)  translate(-511.995, -512.128946)" d="M 272.03 892.72 C 270.67 892.03 268.53 889.95 267.28 888.08 L 264.99 884.69 L 265.25 510.76 L 265.50 136.84 L 268.62 134.05 C 272.32 130.74 278.55 129.55 286.77 130.58 C 291.26 131.14 293.05 131.91 295.21 134.23 L 297.96 137.16 L 298.23 155.83 L 298.50 174.50 L 307.00 175.00 C 319.41 175.73 323.00 179.03 323.00 189.72 L 323.00 196.00 L 512.50 196.00 L 702.00 196.00 L 702.00 189.02 C 702.00 182.71 702.29 181.71 704.91 178.77 C 707.70 175.64 708.22 175.48 716.66 175.00 L 725.50 174.50 L 726.00 155.77 L 726.50 137.03 L 729.77 133.77 C 733.00 130.53 733.14 130.50 742.60 130.50 L 752.15 130.50 L 755.58 134.24 L 759.00 137.97 L 759.00 512.00 L 759.00 886.03 L 755.58 889.76 C 752.21 893.44 752.01 893.51 743.71 893.85 C 737.37 894.11 734.50 893.79 732.15 892.58 C 726.95 889.89 726.00 886.72 726.00 872.05 L 726.00 859.00 L 718.57 859.00 C 706.07 859.00 702.00 856.13 702.00 847.31 L 702.00 842.00 L 512.50 842.00 L 323.00 842.00 L 323.00 846.05 C 323.00 855.41 318.30 859.00 306.02 859.00 L 297.94 859.00 L 298.06 872.39 C 298.20 887.12 297.68 889.00 292.69 892.05 C 288.92 894.35 276.07 894.76 272.03 892.72 Z M 746.75 883.37 L 749.00 882.77 L 749.00 511.88 L 749.00 141.00 L 742.50 141.00 L 736.00 141.00 L 736.00 474.25 C 735.99 805.02 735.98 807.52 734.01 810.76 C 732.91 812.55 730.55 814.91 728.76 816.01 C 725.53 817.97 723.28 817.99 512.12 818.00 C 299.86 818.00 298.72 817.99 295.47 815.98 C 293.68 814.87 291.37 812.74 290.35 811.23 C 288.56 808.59 288.49 797.83 288.24 474.75 L 287.99 141.00 L 281.49 141.00 L 275.00 141.00 L 275.00 512.00 L 275.00 883.00 L 281.50 883.00 L 288.00 883.00 L 288.00 862.97 C 288.00 841.10 288.59 838.04 293.51 834.17 L 296.27 832.00 L 511.73 832.00 C 709.39 832.00 727.42 832.14 729.96 833.64 C 735.60 836.97 736.00 838.82 736.00 861.84 L 736.00 882.88 L 739.75 883.27 C 741.81 883.49 743.72 883.73 744.00 883.82 C 744.28 883.90 745.51 883.70 746.75 883.37 Z M 312.81 845.25 L 313.13 842.00 L 306.06 842.00 L 299.00 842.00 L 299.00 845.55 L 299.00 849.09 L 305.75 848.80 L 312.50 848.50 L 312.81 845.25 Z M 725.50 845.50 L 725.50 842.50 L 718.75 842.20 L 712.00 841.91 L 712.00 844.87 C 712.00 848.48 712.96 848.94 720.00 848.69 C 725.40 848.50 725.50 848.45 725.50 845.50 Z M 724.96 806.07 C 725.53 805.00 726.00 802.98 726.00 801.57 L 726.00 799.00 L 512.50 799.00 L 299.00 799.00 L 299.00 802.83 C 299.00 804.94 299.30 806.97 299.67 807.33 C 300.03 807.70 395.64 808.00 512.13 808.00 C 720.51 808.00 723.95 807.97 724.96 806.07 Z M 711.41 781.51 L 704.68 774.02 L 512.59 773.76 C 401.51 773.61 319.96 773.88 319.23 774.39 C 318.53 774.88 315.22 778.37 311.88 782.14 L 305.79 789.00 L 511.97 789.00 L 718.14 789.00 L 711.41 781.51 Z M 726.00 746.46 L 726.00 711.91 L 718.93 712.21 L 711.87 712.50 L 711.96 739.42 L 712.06 766.34 L 718.62 773.67 C 722.23 777.70 725.36 781.00 725.59 781.00 C 725.82 781.00 726.00 765.46 726.00 746.46 Z M 306.43 772.33 L 313.00 764.65 L 313.00 738.33 L 313.00 712.00 L 305.50 712.00 L 298.00 712.00 L 298.00 742.88 C 298.00 769.82 298.43 780.00 299.55 780.00 C 299.72 780.00 302.81 776.55 306.43 772.33 Z M 702.00 737.50 L 702.00 712.00 L 512.50 712.00 L 323.00 712.00 L 323.00 737.50 L 323.00 763.00 L 512.50 763.00 L 702.00 763.00 L 702.00 737.50 Z M 726.00 697.00 L 726.00 692.00 L 512.00 692.00 C 303.42 692.00 298.00 692.05 298.00 693.88 C 298.00 694.91 298.28 697.16 298.62 698.88 L 299.25 702.00 L 512.62 702.00 L 726.00 702.00 L 726.00 697.00 Z M 710.32 676.98 L 705.15 672.00 L 511.79 672.00 L 318.42 672.00 L 313.50 677.00 L 308.58 682.00 L 512.04 681.98 L 715.50 681.96 L 710.32 676.98 Z M 726.00 640.50 L 726.00 605.00 L 719.00 605.00 L 712.00 605.00 L 712.00 634.41 L 712.00 663.82 L 718.64 669.91 C 722.30 673.26 725.45 676.00 725.64 676.00 C 725.84 676.00 726.00 660.03 726.00 640.50 Z M 305.54 669.35 L 311.94 663.70 L 312.22 634.35 L 312.50 605.00 L 305.25 605.00 L 298.00 605.00 L 298.00 640.00 C 298.00 659.25 298.26 675.00 298.57 675.00 C 298.89 675.00 302.03 672.46 305.54 669.35 Z M 701.77 633.75 L 702.03 605.00 L 512.52 605.00 L 323.00 605.00 L 323.00 634.00 L 323.00 663.01 L 512.25 662.75 L 701.50 662.50 L 701.77 633.75 Z M 726.00 590.25 L 726.00 585.50 L 512.25 585.75 L 298.50 586.01 L 298.18 589.10 C 298.00 590.80 298.10 592.82 298.40 593.60 C 298.86 594.80 330.02 595.00 512.47 595.00 L 726.00 595.00 L 726.00 590.25 Z M 716.00 574.60 C 716.00 574.39 713.82 572.81 711.16 571.10 L 706.32 568.00 L 511.83 568.00 L 317.34 568.00 L 312.67 571.09 C 310.10 572.80 308.00 574.37 308.00 574.59 C 308.00 574.82 399.80 575.00 512.00 575.00 C 624.20 575.00 716.00 574.82 716.00 574.60 Z M 305.67 563.03 L 311.69 558.56 L 312.38 529.24 C 312.76 513.11 312.80 499.49 312.47 498.96 C 312.15 498.43 308.76 498.00 304.94 498.00 L 298.00 498.00 L 298.00 533.08 C 298.00 552.38 298.37 568.02 298.82 567.83 C 299.28 567.65 302.36 565.49 305.67 563.03 Z M 726.00 533.00 L 726.00 498.00 L 719.00 498.00 L 712.00 498.00 L 712.05 528.25 L 712.10 558.50 L 718.79 563.25 C 722.47 565.86 725.60 568.00 725.74 568.00 C 725.88 568.00 726.00 552.25 726.00 533.00 Z M 702.00 527.50 L 702.00 498.00 L 512.50 498.00 L 323.00 498.00 L 323.00 527.50 L 323.00 557.00 L 512.50 557.00 L 702.00 557.00 L 702.00 527.50 Z M 726.00 483.00 L 726.00 478.00 L 512.00 478.00 L 298.00 478.00 L 298.00 482.33 C 298.00 484.72 298.30 486.97 298.67 487.33 C 299.03 487.70 395.33 488.00 512.67 488.00 L 726.00 488.00 L 726.00 483.00 Z M 312.35 461.25 C 312.70 457.54 312.99 442.69 312.99 428.25 L 313.00 402.00 L 305.50 402.00 L 298.00 402.00 L 298.00 434.33 C 298.00 452.12 298.30 466.97 298.67 467.33 C 299.03 467.70 302.12 468.00 305.52 468.00 L 311.71 468.00 L 312.35 461.25 Z M 702.00 435.00 L 702.00 402.00 L 512.50 402.00 L 323.00 402.00 L 323.00 435.00 L 323.00 468.00 L 512.50 468.00 L 702.00 468.00 L 702.00 435.00 Z M 726.00 435.00 L 726.00 402.00 L 718.75 402.00 L 711.50 402.00 L 711.78 435.00 L 712.05 468.00 L 719.03 468.00 L 726.00 468.00 L 726.00 435.00 Z M 726.00 387.00 L 726.00 382.00 L 512.00 382.00 L 298.00 382.00 L 298.00 386.33 C 298.00 388.72 298.30 390.97 298.67 391.33 C 299.03 391.70 395.33 392.00 512.67 392.00 L 726.00 392.00 L 726.00 387.00 Z M 312.49 368.75 C 312.82 366.96 312.95 352.45 312.79 336.50 L 312.50 307.50 L 305.25 307.21 L 298.00 306.91 L 298.00 338.79 C 298.00 356.32 298.30 370.97 298.67 371.33 C 299.03 371.70 302.16 372.00 305.62 372.00 L 311.91 372.00 L 312.49 368.75 Z M 702.00 339.50 L 702.00 307.00 L 512.50 307.00 L 323.00 307.00 L 323.00 339.50 L 323.00 372.00 L 512.50 372.00 L 702.00 372.00 L 702.00 339.50 Z M 726.00 339.50 L 726.00 307.00 L 719.00 307.00 L 712.00 307.00 L 712.00 339.50 L 712.00 372.00 L 719.00 372.00 L 726.00 372.00 L 726.00 339.50 Z M 726.00 292.61 C 726.00 288.26 725.96 288.21 722.25 287.86 C 720.19 287.66 623.89 287.62 508.25 287.77 L 298.00 288.05 L 298.00 291.86 C 298.00 293.95 298.30 295.97 298.67 296.33 C 299.03 296.70 395.33 297.00 512.67 297.00 L 726.00 297.00 L 726.00 292.61 Z M 312.50 252.00 L 312.50 226.50 L 305.25 226.21 L 298.00 225.91 L 298.00 251.29 C 298.00 265.25 298.32 276.99 298.71 277.37 C 299.10 277.76 302.36 277.95 305.96 277.79 L 312.50 277.50 L 312.50 252.00 Z M 701.50 252.00 L 701.50 226.50 L 513.00 226.24 C 409.33 226.10 324.05 226.16 323.50 226.37 C 322.86 226.61 322.60 235.94 322.78 252.37 L 323.07 278.01 L 512.28 277.75 L 701.50 277.50 L 701.50 252.00 Z M 726.00 252.00 L 726.00 226.00 L 719.00 226.00 L 712.00 226.00 L 712.00 251.33 C 712.00 265.27 712.30 276.97 712.67 277.33 C 713.03 277.70 716.18 278.00 719.67 278.00 L 726.00 278.00 L 726.00 252.00 Z M 726.00 210.94 L 726.00 205.87 L 512.25 206.19 L 298.50 206.50 L 298.20 211.25 L 297.89 216.00 L 511.95 216.00 L 726.00 216.00 L 726.00 210.94 Z M 312.00 190.50 L 312.00 185.00 L 305.00 185.00 L 298.00 185.00 L 298.00 189.83 C 298.00 192.49 298.30 194.97 298.67 195.33 C 299.03 195.70 302.18 196.00 305.67 196.00 L 312.00 196.00 L 312.00 190.50 Z M 726.00 190.50 L 726.00 185.00 L 719.00 185.00 L 712.00 185.00 L 712.00 190.50 L 712.00 196.00 L 719.00 196.00 L 726.00 196.00 L 726.00 190.50 Z" stroke-linecap="round"/>
</g>
</g>
</g>

  </svg>