<svg xmlns="http://www.w3.org/2000/svg" xmlns:xlink="http://www.w3.org/1999/xlink" width="500px" height="97px" viewBox="0 0 500 96.83615130808971">
    <g id="c8aba7ce-d716-4d03-952e-13bec85d1d44">
<g style="">
		<g id="c8aba7ce-d716-4d03-952e-13bec85d1d44-child-0">
<path style="stroke: rgb(193,193,193); stroke-width: 0; stroke-dasharray: none; stroke-linecap: butt; stroke-dashoffset: 0; stroke-linejoin: miter; stroke-miterlimit: 4; fill: rgb(0,0,0); fill-rule: nonzero; opacity: 1;" transform="matrix(0.641299 0 0 0.641299 249.999994 48.418074) matrix(1 0 0 1 0 0)  translate(-512.10375, -543.5)" d="M 123.41 616.50 C 121.89 614.18 121.89 613.82 123.41 611.50 L 125.05 609.00 L 184.86 609.00 L 244.68 609.00 L 259.69 582.75 L 274.70 556.50 L 231.86 556.24 L 189.03 555.98 L 187.48 553.61 C 186.14 551.56 185.97 545.99 186.22 511.04 C 186.49 472.57 186.58 470.78 188.44 469.42 C 190.11 468.20 235.92 468.00 512.19 468.00 C 832.67 468.00 834.01 468.01 836.00 470.00 C 837.93 471.93 838.00 473.33 838.00 511.78 C 838.00 546.16 837.79 551.86 836.44 553.78 L 834.89 556.00 L 791.86 556.00 L 748.83 556.00 L 751.91 561.25 C 753.60 564.14 760.49 576.06 767.21 587.75 L 779.44 609.00 L 839.15 609.00 C 892.10 609.00 899.04 609.18 900.43 610.57 C 902.44 612.58 902.44 615.42 900.43 617.43 C 899.01 618.85 862.35 619.00 511.95 619.00 L 125.05 619.00 L 123.41 616.50 Z M 281.22 582.54 C 289.35 568.26 296.00 556.44 296.00 556.29 C 296.00 556.13 293.85 556.00 291.22 556.00 L 286.44 556.00 L 271.72 581.85 C 263.62 596.06 257.00 608.01 257.00 608.40 C 257.00 608.79 259.12 608.97 261.72 608.80 L 266.43 608.50 L 281.22 582.54 Z M 302.25 583.23 C 310.36 569.06 317.00 557.11 317.00 556.68 C 317.00 556.24 314.86 556.03 312.25 556.20 L 307.50 556.50 L 292.75 582.38 C 284.64 596.62 278.00 608.43 278.00 608.63 C 278.00 608.83 280.14 609.00 282.75 609.00 L 287.50 609.00 L 302.25 583.23 Z M 724.00 608.53 C 724.00 608.06 712.91 588.23 700.92 567.26 L 694.50 556.02 L 511.96 556.01 L 329.43 556.00 L 323.53 566.25 C 320.29 571.89 313.48 583.81 308.40 592.75 L 299.16 609.00 L 511.58 609.00 C 628.41 609.00 724.00 608.79 724.00 608.53 Z M 745.71 608.25 C 745.49 607.84 738.67 595.91 730.56 581.75 L 715.81 556.00 L 710.90 556.00 C 708.21 556.00 706.00 556.18 706.00 556.40 C 706.00 556.63 709.28 562.36 713.30 569.15 C 717.31 575.94 724.17 587.68 728.55 595.24 L 736.50 608.98 L 741.31 608.99 C 743.95 609.00 745.94 608.66 745.71 608.25 Z M 766.65 607.54 C 766.34 606.73 762.40 599.64 757.88 591.79 C 753.37 583.93 746.94 572.67 743.59 566.77 L 737.50 556.04 L 732.75 556.02 C 730.14 556.01 728.00 556.23 728.00 556.51 C 728.00 556.79 730.38 561.18 733.28 566.26 C 736.19 571.34 742.83 583.02 748.03 592.22 L 757.50 608.94 L 762.36 608.97 C 766.22 608.99 767.10 608.70 766.65 607.54 Z M 828.00 541.50 L 828.00 537.00 L 512.00 537.00 L 196.00 537.00 L 196.00 541.50 L 196.00 546.00 L 512.00 546.00 L 828.00 546.00 L 828.00 541.50 Z M 828.00 522.65 L 828.00 518.31 L 815.25 517.66 C 808.24 517.30 666.04 517.01 499.25 517.00 L 196.00 517.00 L 196.00 522.00 L 196.00 527.00 L 512.00 527.00 L 828.00 527.00 L 828.00 522.65 Z M 828.00 502.50 L 828.00 498.00 L 512.00 498.00 L 196.00 498.00 L 196.00 502.50 L 196.00 507.00 L 512.00 507.00 L 828.00 507.00 L 828.00 502.50 Z M 828.00 483.00 L 828.00 478.00 L 512.00 478.00 L 196.00 478.00 L 196.00 483.00 L 196.00 488.00 L 512.00 488.00 L 828.00 488.00 L 828.00 483.00 Z" stroke-linecap="round"/>
</g>
</g>
</g>

  </svg>