<svg xmlns="http://www.w3.org/2000/svg" xmlns:xlink="http://www.w3.org/1999/xlink" width="500px" height="293px" viewBox="0 0 500 293.4311226834393">
    <g id="f0d2849b-e5bd-47eb-9ddd-337245708931">
<g style="">
		<g id="f0d2849b-e5bd-47eb-9ddd-337245708931-child-0">
<path style="stroke: rgb(193,193,193); stroke-width: 0; stroke-dasharray: none; stroke-linecap: butt; stroke-dashoffset: 0; stroke-linejoin: miter; stroke-miterlimit: 4; fill: rgb(0,0,0); fill-rule: nonzero; opacity: 1;" transform="matrix(0.843969 0 0 0.843969 249.999882 146.715492) matrix(1 0 0 1 0 0)  translate(-511.780729, -510.869791)" d="M 264.42 684.03 C 263.27 683.57 261.14 681.76 259.67 680.02 L 257.00 676.85 L 257.00 655.37 C 257.00 625.66 257.46 625.00 278.02 625.00 L 289.10 625.00 L 288.94 588.88 L 288.78 552.76 L 291.75 549.79 C 296.94 544.60 305.34 545.99 308.45 552.55 C 309.76 555.29 310.00 561.26 310.00 590.30 L 310.00 624.81 L 319.43 625.15 C 329.81 625.54 333.62 627.24 335.43 632.32 C 336.78 636.11 335.02 641.92 331.80 644.31 C 329.28 646.18 327.46 646.32 303.80 646.40 L 278.50 646.50 L 278.21 655.25 L 277.92 664.00 L 512.00 664.00 L 746.08 664.00 L 745.79 655.25 L 745.50 646.50 L 722.50 646.86 C 697.23 647.25 692.41 646.60 689.05 642.34 C 685.50 637.82 686.84 630.70 691.90 627.26 C 694.22 625.69 697.85 625.47 725.74 625.20 C 769.73 624.77 767.26 622.92 766.80 656.04 L 766.50 677.97 L 763.23 681.23 L 759.96 684.50 L 513.23 684.69 C 377.53 684.79 265.56 684.50 264.42 684.03 Z M 223.50 647.65 C 214.56 643.56 212.81 632.71 220.10 626.57 C 222.49 624.56 224.24 624.00 228.18 624.00 C 232.53 624.00 233.64 624.44 236.52 627.32 C 240.74 631.54 241.80 636.51 239.51 641.34 C 236.56 647.56 229.44 650.36 223.50 647.65 Z M 790.42 647.10 C 782.33 643.43 780.91 633.89 787.48 627.32 C 790.17 624.63 791.58 624.00 794.95 624.00 C 803.16 624.00 808.00 628.48 808.00 636.09 C 808.00 641.56 805.38 645.53 800.36 647.62 C 796.15 649.38 795.35 649.34 790.42 647.10 Z M 362.28 646.37 C 361.07 646.10 358.93 644.51 357.53 642.86 C 352.47 636.84 355.18 628.15 362.80 626.04 C 365.26 625.36 415.63 625.01 512.85 625.01 C 646.24 625.00 659.50 625.14 662.64 626.63 C 670.16 630.20 671.04 640.12 664.23 644.58 C 662.00 646.04 647.80 646.23 513.14 646.54 C 431.39 646.72 363.50 646.65 362.28 646.37 Z M 335.62 608.89 C 334.03 608.46 331.67 607.10 330.37 605.88 C 328.19 603.83 328.00 602.87 328.00 593.88 C 328.00 576.08 332.15 552.34 338.57 533.43 C 342.48 521.92 350.98 504.37 357.46 494.43 C 360.56 489.68 362.96 485.42 362.80 484.97 C 362.63 484.52 352.74 474.90 340.81 463.58 C 320.98 444.78 318.81 442.40 315.57 435.76 C 308.46 421.23 308.47 407.10 315.59 392.00 C 318.64 385.53 320.94 382.71 332.31 371.47 C 350.41 353.59 360.06 348.78 377.93 348.73 C 396.26 348.69 407.68 354.06 425.94 371.32 C 445.47 389.78 446.00 390.40 446.00 394.51 C 446.00 402.03 440.22 407.53 433.64 406.27 C 431.73 405.91 425.74 400.92 415.64 391.29 C 407.31 383.35 398.30 375.57 395.62 374.01 C 389.91 370.70 379.61 368.49 374.26 369.44 C 363.45 371.34 361.23 372.74 348.41 385.77 C 341.64 392.65 335.30 399.91 334.34 401.89 C 333.36 403.90 332.41 408.64 332.19 412.58 C 331.52 424.71 332.94 426.85 356.23 448.71 L 376.26 467.50 L 381.73 468.02 C 386.35 468.46 387.67 469.06 390.21 471.91 C 394.32 476.51 393.71 481.34 388.21 487.87 C 382.18 495.02 372.34 510.40 366.96 521.10 C 356.68 541.53 350.69 564.73 349.22 589.78 C 348.50 601.99 348.09 604.36 346.40 606.04 C 343.79 608.65 339.19 609.87 335.62 608.89 Z M 681.37 608.20 C 680.21 608.03 678.21 606.79 676.95 605.45 C 674.90 603.27 674.62 601.83 674.31 592.25 C 673.31 561.03 666.93 536.77 653.41 512.79 C 629.86 471.04 590.89 442.36 543.34 431.78 C 530.04 428.83 498.29 428.56 484.50 431.30 C 462.97 435.57 443.66 443.37 425.04 455.33 C 418.38 459.60 413.62 462.00 411.78 462.00 C 402.06 462.00 397.58 451.59 404.25 444.53 C 411.54 436.83 438.32 422.87 458.00 416.52 C 476.00 410.71 486.24 408.99 506.64 408.32 C 525.05 407.71 540.75 409.08 553.57 412.39 L 558.50 413.66 L 579.68 393.33 L 600.86 373.00 L 606.18 373.04 C 609.11 373.05 612.46 373.62 613.64 374.29 C 615.98 375.61 663.31 420.43 685.15 442.00 C 697.89 454.59 698.93 455.90 700.53 461.43 C 702.48 468.17 702.10 475.98 699.57 480.87 C 696.33 487.13 688.36 488.57 683.30 483.81 C 681.33 481.96 681.00 480.66 681.00 474.72 L 681.00 467.78 L 674.75 461.53 C 671.31 458.09 658.15 445.46 645.50 433.45 C 632.85 421.45 619.01 408.23 614.75 404.08 L 606.99 396.54 L 594.51 408.99 L 582.02 421.45 L 592.74 426.83 C 606.33 433.64 615.10 439.28 626.76 448.72 C 655.56 472.02 678.27 506.14 688.44 541.41 L 690.77 549.50 L 717.64 550.00 C 744.37 550.50 744.52 550.52 749.56 553.17 C 755.36 556.23 761.47 562.55 763.77 567.86 C 766.21 573.49 765.93 584.48 763.20 590.10 C 760.16 596.36 754.59 601.76 748.00 604.85 C 742.90 607.23 741.29 607.44 726.00 607.72 C 716.92 607.88 703.65 608.12 696.50 608.26 C 689.35 608.39 682.54 608.36 681.37 608.20 Z M 742.37 583.93 C 745.82 581.21 745.85 577.14 742.42 573.92 C 739.87 571.53 739.58 571.50 717.42 571.20 L 695.00 570.89 L 695.01 576.20 C 695.04 586.82 693.12 586.00 717.98 586.00 C 738.47 586.00 739.88 585.88 742.37 583.93 Z M 504.00 605.41 C 502.62 605.17 498.80 604.49 495.50 603.90 C 468.77 599.13 444.63 577.05 436.01 549.50 C 432.90 539.58 432.23 523.93 434.43 513.06 C 436.73 501.70 438.66 497.91 443.31 495.64 C 446.72 493.97 447.51 493.92 450.81 495.16 C 453.38 496.12 455.05 497.65 456.30 500.19 C 458.02 503.69 458.02 504.12 456.34 510.18 C 453.65 519.92 453.88 536.63 456.82 545.19 C 461.65 559.23 473.39 572.43 486.63 578.72 C 509.16 589.42 534.78 585.12 552.49 567.66 C 572.35 548.07 575.38 518.69 559.93 495.58 C 554.05 486.80 548.03 481.33 539.00 476.59 C 518.88 466.03 498.42 467.04 479.39 479.54 C 475.65 481.99 471.45 484.00 470.05 484.00 C 463.81 483.99 458.02 477.04 459.46 471.29 C 461.72 462.28 484.22 451.03 504.45 448.78 C 551.58 443.55 593.37 483.13 590.70 530.46 C 588.36 571.72 556.64 603.21 515.22 605.39 C 510.43 605.65 505.38 605.66 504.00 605.41 Z M 501.75 566.91 C 490.94 564.37 479.80 555.40 474.78 545.21 C 471.70 538.95 471.50 537.90 471.50 527.97 C 471.50 517.76 471.63 517.14 475.27 509.76 C 479.69 500.83 485.15 495.53 494.89 490.73 C 501.03 487.71 502.14 487.50 512.00 487.50 C 521.84 487.50 522.96 487.71 529.02 490.70 C 536.12 494.21 543.89 501.25 547.57 507.52 C 552.80 516.45 554.14 529.21 551.00 540.18 C 549.24 546.33 542.26 555.70 536.22 560.03 C 526.64 566.89 513.11 569.59 501.75 566.91 Z M 520.91 545.04 C 535.32 537.69 535.27 517.80 520.82 510.60 C 514.88 507.64 509.60 507.30 504.23 509.55 C 484.46 517.81 490.31 546.80 511.79 546.96 C 515.14 546.99 518.49 546.28 520.91 545.04 Z M 697.21 517.52 C 693.77 514.63 692.63 510.36 694.14 506.03 C 694.92 503.78 697.01 501.92 701.97 499.02 C 713.69 492.17 718.75 484.36 719.71 471.62 C 720.31 463.70 718.53 455.55 714.69 448.68 C 712.80 445.30 637.09 371.83 628.28 364.82 C 620.20 358.40 607.13 356.29 595.99 359.60 C 591.32 360.98 588.96 362.80 578.06 373.38 C 559.12 391.77 557.57 393.00 553.40 393.00 C 545.97 393.00 540.60 383.80 544.29 377.39 C 544.95 376.22 552.29 368.73 560.60 360.73 C 576.67 345.24 582.17 341.57 593.72 338.57 C 607.22 335.07 625.24 337.69 636.95 344.86 C 642.71 348.39 677.31 380.76 713.72 416.68 C 728.85 431.61 731.17 434.34 734.37 441.00 C 739.19 451.04 741.00 458.70 740.99 468.96 C 740.97 484.67 735.76 497.39 725.03 507.96 C 713.65 519.17 703.36 522.70 697.21 517.52 Z" stroke-linecap="round"/>
</g>
</g>
</g>

  </svg>