<svg xmlns="http://www.w3.org/2000/svg" xmlns:xlink="http://www.w3.org/1999/xlink" width="453px" height="432px" viewBox="0 0 452.5614464850605 432.0539381303097">
    <g id="d827cb8f-ab37-43d5-b7f6-6af9aea0a122">
<g style="">
		<g id="d827cb8f-ab37-43d5-b7f6-6af9aea0a122-child-0">
<path style="stroke: rgb(193,193,193); stroke-width: 0; stroke-dasharray: none; stroke-linecap: butt; stroke-dashoffset: 0; stroke-linejoin: miter; stroke-miterlimit: 4; fill: rgb(0,0,0); fill-rule: nonzero; opacity: 1;" transform="matrix(0.714221 0 0 0.714221 226.280739 216.026984) matrix(1 0 0 1 0 0)  translate(-512.821737, -512.46518)" d="M 212.68 813.98 C 208.43 812.71 203.48 808.52 201.64 804.66 C 197.47 795.86 201.26 782.26 209.16 777.66 C 211.55 776.27 214.74 774.83 216.25 774.46 L 219.00 773.78 L 219.00 672.89 L 219.00 572.00 L 216.87 572.00 C 212.90 572.00 207.13 569.73 203.53 566.76 C 198.33 562.48 196.00 557.28 196.00 549.97 C 196.00 543.57 196.87 541.03 200.37 537.15 C 205.23 531.80 206.67 531.54 234.00 531.00 L 259.50 530.50 L 259.75 390.89 L 260.01 251.28 L 255.07 250.69 C 242.01 249.15 234.17 239.97 235.21 227.45 C 235.79 220.51 239.44 214.93 245.25 212.12 L 249.63 210.00 L 512.07 210.02 C 765.07 210.04 774.64 210.11 778.50 211.89 C 785.71 215.22 790.02 222.10 789.98 230.22 C 789.92 241.23 780.07 251.00 769.03 251.00 L 765.00 251.00 L 765.00 391.00 L 765.00 531.00 L 790.04 531.00 C 812.92 531.00 815.41 531.17 818.91 532.96 C 836.82 542.09 831.12 568.83 810.67 571.63 L 806.00 572.27 L 806.00 673.06 L 806.00 773.84 L 808.94 774.49 C 813.47 775.48 819.72 780.53 822.03 785.06 C 824.38 789.67 824.81 797.01 823.04 802.38 C 821.57 806.82 815.26 812.56 810.32 813.93 C 805.64 815.23 217.01 815.28 212.68 813.98 Z M 808.59 798.84 C 810.97 796.46 810.68 791.97 808.01 789.81 C 805.87 788.07 794.07 788.00 512.94 788.00 C 291.27 788.00 219.47 788.28 217.52 789.17 C 213.09 791.19 212.74 797.57 216.95 799.66 C 218.84 800.61 284.61 800.83 513.16 800.69 C 785.44 800.51 807.05 800.38 808.59 798.84 Z M 791.50 673.00 L 791.50 572.50 L 512.25 572.25 L 233.00 572.00 L 233.00 673.00 L 233.00 774.00 L 512.25 773.75 L 791.50 773.50 L 791.50 673.00 Z M 812.90 555.60 C 815.37 553.35 815.66 548.79 813.44 546.95 C 811.29 545.17 213.52 545.32 211.37 547.10 C 209.45 548.70 209.66 553.39 211.75 555.25 C 212.71 556.11 214.62 557.02 216.00 557.28 C 217.38 557.53 351.77 557.68 514.65 557.62 C 804.38 557.50 810.84 557.46 812.90 555.60 Z M 751.00 391.00 L 751.00 251.00 L 512.50 251.00 L 274.00 251.00 L 274.00 391.00 L 274.00 531.00 L 512.50 531.00 L 751.00 531.00 L 751.00 391.00 Z M 768.42 236.07 C 771.36 235.59 773.89 234.51 774.71 233.38 C 776.34 231.16 775.60 227.05 773.25 225.25 C 771.95 224.26 718.22 224.00 512.31 224.00 C 254.33 224.00 252.99 224.01 251.00 226.00 C 248.90 228.10 248.57 229.71 249.65 232.53 C 251.40 237.09 241.31 236.92 510.00 236.90 C 649.42 236.89 765.71 236.52 768.42 236.07 Z M 247.92 758.42 L 245.50 755.84 L 245.20 675.17 C 244.99 618.09 245.23 593.38 246.01 590.67 C 248.12 583.44 225.55 584.00 513.03 584.00 C 708.10 584.00 772.67 584.29 774.32 585.16 C 779.09 587.71 778.93 584.71 778.97 672.80 L 779.00 756.09 L 776.55 758.55 L 774.09 761.00 L 512.22 761.00 L 250.35 761.00 L 247.92 758.42 Z M 417.76 672.75 L 417.50 598.50 L 338.25 598.24 L 259.00 597.99 L 259.00 672.49 L 259.00 747.00 L 338.51 747.00 L 418.01 747.00 L 417.76 672.75 Z M 593.00 675.62 C 593.00 636.37 592.72 602.84 592.38 601.12 L 591.75 598.00 L 511.88 598.00 L 432.00 598.00 L 432.00 672.50 L 432.00 747.00 L 512.50 747.00 L 593.00 747.00 L 593.00 675.62 Z M 765.76 672.75 L 765.50 598.50 L 686.00 598.50 L 606.50 598.50 L 606.24 671.50 C 606.10 711.65 606.20 745.06 606.46 745.75 C 606.84 746.74 623.77 747.00 686.48 747.00 L 766.01 747.00 L 765.76 672.75 Z M 288.45 517.55 L 286.00 515.09 L 286.00 479.22 L 286.00 443.35 L 288.31 441.17 L 290.63 439.00 L 344.36 439.00 L 398.09 439.00 L 400.55 441.45 L 403.00 443.91 L 403.00 479.03 L 403.00 514.15 L 400.08 517.08 L 397.15 520.00 L 344.03 520.00 L 290.91 520.00 L 288.45 517.55 Z M 387.62 506.00 C 388.76 506.00 389.00 501.24 389.00 479.00 L 389.00 452.00 L 344.25 452.00 L 299.50 452.00 L 299.64 465.25 C 299.72 472.54 299.83 484.69 299.89 492.25 L 300.00 506.00 L 306.00 506.00 L 312.00 506.00 L 312.00 495.95 C 312.00 484.09 313.04 481.44 319.46 477.03 L 323.92 473.96 L 324.21 465.73 L 324.50 457.50 L 329.97 457.19 C 337.04 456.79 338.00 458.04 338.00 467.63 C 338.00 473.99 338.27 475.08 340.22 476.44 C 343.20 478.53 345.22 478.40 348.37 475.93 C 350.78 474.03 351.00 473.24 351.00 466.63 C 351.00 462.34 351.49 458.91 352.20 458.20 C 353.76 456.64 362.24 456.64 363.80 458.20 C 364.50 458.90 365.00 462.28 365.00 466.37 L 365.00 473.34 L 370.50 478.46 L 376.00 483.58 L 376.00 494.72 C 376.00 505.47 376.08 505.88 378.25 506.33 C 379.49 506.59 381.79 506.62 383.38 506.40 C 384.96 506.18 386.87 506.00 387.62 506.00 Z M 337.77 498.32 C 337.33 491.53 336.96 490.37 334.58 488.32 C 331.29 485.49 330.94 485.47 327.63 488.07 C 325.18 490.00 325.00 490.70 325.00 498.07 L 325.00 506.00 L 331.63 506.00 L 338.26 506.00 L 337.77 498.32 Z M 363.00 498.31 C 363.00 491.80 362.67 490.28 360.83 488.31 C 358.06 485.37 356.51 485.40 353.45 488.45 C 351.28 490.63 351.00 491.78 351.00 498.45 L 351.00 506.00 L 357.00 506.00 L 363.00 506.00 L 363.00 498.31 Z M 417.31 517.59 L 414.50 515.17 L 414.50 479.00 L 414.50 442.83 L 416.86 440.91 C 419.15 439.06 422.11 439.00 512.54 439.00 L 605.85 439.00 L 607.93 441.63 C 609.94 444.19 610.00 445.37 610.00 479.68 L 610.00 515.09 L 607.55 517.55 L 605.09 520.00 L 512.60 520.00 L 420.11 520.00 L 417.31 517.59 Z M 467.79 499.83 C 468.08 493.23 468.05 493.14 464.50 490.43 C 460.95 487.73 460.92 487.63 461.21 481.10 L 461.50 474.50 L 474.00 474.50 L 486.50 474.50 L 486.79 480.63 C 487.09 486.71 487.05 486.80 482.99 490.27 C 478.91 493.77 478.90 493.80 479.20 500.14 L 479.50 506.50 L 500.00 506.50 L 520.50 506.50 L 520.80 500.21 C 521.09 494.11 520.99 493.82 517.55 490.77 C 514.14 487.75 514.00 487.37 514.00 480.79 L 514.00 473.94 L 526.25 474.22 L 538.50 474.50 L 538.79 480.63 C 539.08 486.52 538.95 486.88 535.51 490.13 C 532.03 493.40 531.93 493.69 532.21 500.00 L 532.50 506.50 L 540.75 506.79 L 549.00 507.08 L 549.00 499.86 C 549.00 492.99 548.85 492.52 545.86 490.02 C 542.96 487.60 542.71 486.90 542.61 480.95 L 542.50 474.50 L 555.00 474.50 L 567.50 474.50 L 567.79 480.61 C 568.08 486.50 567.96 486.82 564.54 489.83 C 561.12 492.84 561.00 493.17 561.00 499.97 L 561.00 507.00 L 578.44 507.00 C 588.03 507.00 596.07 506.66 596.30 506.25 C 596.54 505.84 596.50 493.46 596.23 478.75 L 595.73 452.00 L 511.87 452.00 L 428.00 452.00 L 428.00 479.00 L 428.00 506.00 L 434.00 506.00 L 440.00 506.00 L 440.00 499.55 C 440.00 493.38 439.85 492.99 436.56 490.48 C 433.63 488.24 433.03 487.06 432.45 482.42 C 431.42 474.22 431.98 473.88 445.90 474.22 L 457.50 474.50 L 457.79 481.10 C 458.08 487.61 458.04 487.73 454.54 490.40 C 451.14 493.00 451.00 493.35 451.00 499.50 L 451.00 505.89 L 455.75 506.29 C 458.36 506.51 462.08 506.64 464.00 506.59 L 467.50 506.50 L 467.79 499.83 Z M 626.50 518.79 C 622.08 516.26 622.07 516.12 622.03 478.82 L 622.00 443.15 L 624.63 441.07 C 627.23 439.03 628.16 439.00 680.68 439.00 L 734.09 439.00 L 736.55 441.45 L 739.00 443.91 L 739.00 479.37 L 739.00 514.82 L 735.92 517.41 L 732.85 520.00 L 680.67 519.97 C 643.31 519.95 627.93 519.61 626.50 518.79 Z M 723.08 506.00 C 724.93 506.00 725.00 504.95 725.00 479.00 L 725.00 452.00 L 680.50 452.00 L 636.00 452.00 L 636.00 479.00 L 636.00 506.00 L 642.41 506.00 L 648.83 506.00 L 649.16 494.38 L 649.50 482.76 L 654.75 478.13 L 660.00 473.50 L 660.02 466.50 C 660.02 462.65 660.40 458.91 660.86 458.20 C 661.43 457.30 663.54 456.99 667.59 457.20 L 673.50 457.50 L 674.00 465.84 C 674.43 473.07 674.81 474.44 676.86 476.09 C 680.01 478.64 682.18 478.50 684.94 475.56 C 686.76 473.62 687.36 471.53 687.87 465.31 L 688.50 457.50 L 694.50 457.50 L 700.50 457.50 L 700.75 462.00 C 701.36 473.06 701.92 474.79 705.66 477.10 C 711.72 480.84 712.99 484.07 713.00 495.68 L 713.00 505.87 L 715.75 506.28 C 717.26 506.50 719.10 506.53 719.83 506.35 C 720.56 506.16 722.03 506.00 723.08 506.00 Z M 674.70 498.26 C 674.08 489.99 672.22 487.00 667.72 487.00 C 663.39 487.00 662.00 489.72 662.00 498.15 L 662.00 506.00 L 668.64 506.00 L 675.29 506.00 L 674.70 498.26 Z M 700.00 498.07 C 700.00 490.76 699.80 489.99 697.44 488.13 C 694.77 486.03 692.78 486.21 689.75 488.81 C 688.36 490.00 688.00 491.92 688.00 498.15 L 688.00 506.00 L 694.00 506.00 L 700.00 506.00 L 700.00 498.07 Z M 290.50 426.79 C 286.12 424.28 286.07 423.86 286.03 391.40 C 286.00 356.51 285.89 357.00 293.27 357.00 C 299.80 357.00 300.00 357.91 300.00 387.72 L 300.00 414.00 L 305.91 414.00 L 311.83 414.00 L 312.16 402.43 L 312.50 390.87 L 318.25 385.52 L 324.00 380.17 L 324.00 372.60 C 324.00 365.50 324.14 365.00 326.35 364.45 C 327.64 364.13 330.45 364.00 332.60 364.18 L 336.50 364.50 L 337.22 372.45 C 338.09 382.06 338.23 382.45 341.42 384.54 C 343.81 386.11 344.13 386.08 347.47 384.02 C 350.96 381.86 351.00 381.77 351.00 374.85 C 351.00 365.38 351.87 364.00 357.84 364.00 C 360.46 364.00 363.14 364.54 363.80 365.20 C 364.53 365.93 365.00 369.46 365.00 374.19 L 365.00 381.97 L 368.95 384.59 C 375.36 388.83 376.00 390.50 376.00 402.96 L 376.00 414.00 L 382.50 414.00 L 389.00 414.00 L 389.00 387.15 C 389.00 357.00 389.00 357.00 396.31 357.00 C 403.02 357.00 403.12 357.59 402.79 392.48 L 402.50 423.18 L 399.69 425.59 L 396.89 428.00 L 344.69 427.97 C 307.32 427.95 291.93 427.61 290.50 426.79 Z M 337.39 412.42 C 338.42 409.74 338.07 400.99 336.84 398.68 C 334.21 393.75 330.84 392.86 327.31 396.17 C 325.31 398.05 325.00 399.32 325.00 405.51 C 325.00 409.45 325.30 412.97 325.67 413.33 C 326.03 413.70 328.69 414.00 331.56 414.00 C 335.40 414.00 336.95 413.58 337.39 412.42 Z M 363.50 405.66 C 363.50 398.63 363.26 397.62 361.14 395.91 C 358.02 393.39 356.41 393.50 353.45 396.45 C 351.28 398.63 351.00 399.77 351.00 406.50 L 351.00 414.10 L 357.25 413.80 L 363.50 413.50 L 363.50 405.66 Z M 417.31 425.59 L 414.50 423.17 L 414.50 391.74 C 414.50 366.57 414.77 359.98 415.87 358.65 C 417.52 356.67 425.26 356.38 426.76 358.25 C 427.35 358.98 428.02 370.74 428.36 386.39 C 428.68 401.18 429.18 413.52 429.47 413.81 C 429.76 414.10 430.00 409.74 430.00 404.12 C 430.00 392.22 430.84 390.01 437.40 384.64 L 441.92 380.93 L 442.21 372.72 L 442.50 364.50 L 448.50 364.50 L 454.50 364.50 L 455.50 373.35 C 456.34 380.76 456.88 382.50 458.86 384.10 C 461.89 386.54 462.88 386.49 466.37 383.69 C 469.01 381.58 469.30 380.69 469.87 372.95 L 470.50 364.50 L 476.50 364.50 L 482.50 364.50 L 482.77 372.50 L 483.04 380.50 L 488.77 385.64 L 494.50 390.78 L 494.84 402.39 L 495.17 414.00 L 501.09 414.00 L 507.00 414.00 L 507.00 396.71 L 507.00 379.42 L 502.50 375.66 C 498.02 371.92 498.00 371.87 498.00 365.45 L 498.00 359.00 L 512.50 359.00 L 527.00 359.00 L 527.00 365.99 L 527.00 372.97 L 523.13 375.53 C 519.47 377.95 519.23 378.43 518.60 384.62 C 518.23 388.22 518.24 396.32 518.61 402.63 L 519.30 414.09 L 524.90 413.80 L 530.50 413.50 L 531.00 402.00 C 531.28 395.67 531.85 389.95 532.29 389.29 C 532.72 388.62 535.08 386.63 537.54 384.87 L 542.00 381.66 L 542.00 374.76 C 542.00 365.38 542.88 364.00 548.84 364.00 C 551.46 364.00 554.14 364.54 554.80 365.20 C 555.50 365.90 556.00 369.23 556.00 373.12 C 556.00 376.81 556.28 380.56 556.62 381.46 C 557.58 383.94 562.68 386.24 564.77 385.12 C 568.91 382.91 569.90 380.59 570.20 372.47 L 570.50 364.50 L 576.50 364.50 L 582.50 364.50 L 582.80 372.50 L 583.09 380.50 L 589.05 386.00 L 595.01 391.50 L 595.24 402.18 C 595.37 408.05 595.79 412.35 596.17 411.72 C 596.55 411.10 596.86 399.15 596.85 385.17 C 596.83 356.76 596.82 356.80 603.58 356.80 C 610.01 356.80 610.00 356.75 610.00 391.11 C 610.00 408.01 609.72 422.56 609.38 423.46 C 607.61 428.05 608.75 428.00 511.61 428.00 L 420.11 428.00 L 417.31 425.59 Z M 455.81 408.05 C 456.20 401.20 455.54 398.58 452.80 396.03 C 449.96 393.38 448.44 393.47 445.45 396.45 C 443.28 398.63 443.00 399.77 443.00 406.50 L 443.00 414.10 L 449.25 413.80 L 455.50 413.50 L 455.81 408.05 Z M 482.00 406.15 C 482.00 398.10 480.84 395.51 477.00 394.97 C 471.50 394.21 470.00 396.58 470.00 406.07 L 470.00 414.00 L 476.00 414.00 L 482.00 414.00 L 482.00 406.15 Z M 556.00 406.45 C 556.00 399.78 555.72 398.63 553.55 396.45 C 550.62 393.53 548.98 393.39 546.01 395.79 C 544.27 397.20 543.69 398.97 543.27 404.22 C 542.52 413.60 542.79 414.00 549.97 414.00 L 556.00 414.00 L 556.00 406.45 Z M 582.00 406.31 C 582.00 399.80 581.67 398.28 579.83 396.31 C 577.15 393.47 576.00 393.43 572.63 396.07 C 570.18 398.00 570.00 398.70 570.00 406.07 L 570.00 414.00 L 576.00 414.00 L 582.00 414.00 L 582.00 406.31 Z M 624.92 425.08 L 622.00 422.15 L 622.00 391.23 C 622.00 356.54 621.90 357.00 629.27 357.00 C 635.80 357.00 636.00 357.91 636.00 387.72 L 636.00 414.00 L 642.50 414.00 L 649.00 414.00 L 649.00 402.79 L 649.00 391.57 L 654.50 386.37 L 660.00 381.17 L 660.00 374.52 C 660.00 365.39 660.91 364.00 666.84 364.00 C 669.46 364.00 672.14 364.54 672.80 365.20 C 673.52 365.92 674.00 369.37 674.00 373.75 C 674.00 380.41 674.25 381.32 676.65 383.55 C 680.07 386.72 682.01 386.64 685.31 383.20 C 687.75 380.65 688.00 379.68 688.00 372.71 C 688.00 365.50 688.14 365.00 690.35 364.45 C 691.64 364.13 694.45 364.00 696.60 364.18 L 700.50 364.50 L 701.50 373.13 L 702.50 381.76 L 707.75 386.68 L 713.00 391.60 L 713.00 402.80 L 713.00 414.00 L 718.88 414.00 L 724.77 414.00 L 725.40 408.75 C 725.75 405.86 725.95 393.74 725.84 381.81 C 725.63 357.57 725.77 357.00 731.97 357.00 C 739.04 357.00 739.00 356.81 739.00 391.41 L 739.00 422.15 L 736.08 425.08 L 733.15 428.00 L 680.50 428.00 L 627.85 428.00 L 624.92 425.08 Z M 674.00 406.07 C 674.00 398.70 673.82 398.00 671.37 396.07 C 668.07 393.48 666.94 393.48 664.19 396.04 C 662.29 397.81 662.00 399.14 662.00 406.04 L 662.00 414.00 L 668.00 414.00 L 674.00 414.00 L 674.00 406.07 Z M 700.00 406.04 C 700.00 399.14 699.71 397.81 697.81 396.04 C 695.06 393.48 693.93 393.48 690.63 396.07 C 688.18 398.00 688.00 398.70 688.00 406.07 L 688.00 414.00 L 694.00 414.00 L 700.00 414.00 L 700.00 406.04 Z M 288.07 343.37 C 286.06 340.81 286.00 339.64 286.00 304.54 L 286.00 268.35 L 288.58 265.92 L 291.16 263.50 L 341.90 263.22 C 396.73 262.91 399.22 263.11 401.73 268.00 C 402.71 269.93 402.95 278.74 402.75 306.34 L 402.50 342.18 L 400.14 344.09 C 397.88 345.92 395.45 346.00 343.96 346.00 L 290.15 346.00 L 288.07 343.37 Z M 312.00 322.25 C 312.01 310.05 313.21 306.89 319.27 303.14 C 323.11 300.77 324.00 298.20 324.00 289.48 C 324.00 285.60 324.42 284.05 325.58 283.61 C 327.80 282.76 334.26 282.88 335.71 283.80 C 336.39 284.23 337.22 288.18 337.61 292.83 C 338.17 299.59 338.67 301.36 340.37 302.55 C 343.20 304.53 345.26 304.37 348.37 301.93 C 350.79 300.02 351.00 299.26 351.00 292.46 C 351.00 285.93 351.25 284.94 353.14 283.92 C 355.23 282.81 362.52 283.18 363.80 284.47 C 364.15 284.82 364.61 288.35 364.81 292.30 L 365.18 299.50 L 370.34 304.13 L 375.50 308.75 L 376.00 320.63 L 376.50 332.50 L 382.77 332.80 L 389.03 333.10 L 388.77 305.30 L 388.50 277.50 L 345.00 277.24 C 321.08 277.10 301.05 277.15 300.50 277.36 C 299.86 277.61 299.60 287.61 299.78 305.37 L 300.06 333.00 L 306.03 333.00 L 312.00 333.00 L 312.00 322.25 Z M 337.50 324.66 C 337.50 317.63 337.26 316.62 335.14 314.91 C 332.11 312.46 329.51 312.49 327.00 315.00 C 325.36 316.64 325.00 318.33 325.00 324.33 C 325.00 328.37 325.32 331.99 325.71 332.38 C 326.10 332.77 328.91 332.96 331.96 332.79 L 337.50 332.50 L 337.50 324.66 Z M 363.81 326.54 C 364.29 317.08 362.39 313.00 357.50 313.00 C 353.35 313.00 351.00 317.33 351.00 324.97 C 351.00 328.65 351.32 331.99 351.71 332.38 C 352.10 332.77 354.91 332.96 357.96 332.79 L 363.50 332.50 L 363.81 326.54 Z M 418.23 345.33 C 417.53 345.05 416.29 343.53 415.48 341.96 C 414.26 339.60 414.00 333.15 414.00 305.11 C 414.00 285.02 414.41 270.06 414.99 268.52 C 417.17 262.80 414.73 262.93 513.94 263.23 L 604.84 263.50 L 607.42 265.92 L 610.00 268.35 L 610.00 304.72 L 610.00 341.09 L 607.55 343.55 L 605.09 346.00 L 512.30 345.92 C 461.26 345.88 418.93 345.61 418.23 345.33 Z M 431.00 321.85 L 431.00 310.70 L 436.68 305.10 L 442.35 299.50 L 442.93 292.00 L 443.50 284.50 L 449.50 284.50 L 455.50 284.50 L 456.06 292.39 C 456.53 299.03 456.98 300.57 458.92 302.14 C 461.96 304.59 464.85 304.49 467.69 301.83 C 469.69 299.94 470.00 298.69 470.00 292.38 C 470.00 288.39 470.41 284.86 470.92 284.55 C 472.74 283.42 480.53 282.94 481.91 283.86 C 482.85 284.50 483.48 287.49 483.79 292.92 L 484.26 301.02 L 489.13 304.60 C 491.81 306.56 494.23 309.15 494.50 310.34 C 494.78 311.53 495.12 317.00 495.25 322.50 L 495.50 332.50 L 501.25 332.80 L 507.00 333.10 L 507.00 326.72 C 507.00 320.44 506.94 320.30 503.25 317.91 L 499.50 315.48 L 499.50 307.99 L 499.50 300.50 L 512.65 300.22 L 525.80 299.94 L 526.49 304.93 C 527.52 312.42 526.43 315.83 522.41 317.75 C 519.02 319.36 519.00 319.41 519.00 326.24 L 519.00 333.10 L 524.75 332.80 L 530.50 332.50 L 530.55 321.08 L 530.59 309.66 L 536.26 304.58 L 541.92 299.50 L 542.21 292.00 L 542.50 284.50 L 548.41 284.20 C 552.46 283.99 554.57 284.30 555.14 285.20 C 555.60 285.91 555.98 289.52 555.98 293.21 C 556.00 298.82 556.36 300.26 558.19 301.96 C 561.05 304.62 564.15 304.55 566.73 301.75 C 568.29 300.07 569.00 297.54 569.53 291.75 L 570.23 284.00 L 576.01 284.00 C 582.77 284.00 583.00 284.31 583.00 293.43 L 583.00 299.70 L 589.00 304.92 L 595.00 310.14 L 595.00 321.63 C 595.00 329.03 595.36 332.90 596.00 332.50 C 597.15 331.79 597.33 309.09 596.34 289.75 L 595.69 277.00 L 511.85 277.00 L 428.00 277.00 L 428.01 302.75 C 428.02 316.91 428.30 329.51 428.63 330.75 C 430.02 335.95 431.00 332.28 431.00 321.85 Z M 456.79 325.25 C 457.06 318.65 456.86 317.77 454.59 315.50 C 451.57 312.48 448.69 312.31 446.00 315.00 C 444.33 316.67 444.00 318.33 444.00 325.05 L 444.00 333.10 L 450.25 332.80 L 456.50 332.50 L 456.79 325.25 Z M 482.79 325.44 C 483.03 319.49 482.75 317.95 480.97 315.69 C 478.34 312.35 475.64 312.27 472.45 315.45 C 470.32 317.58 470.00 318.82 470.00 324.79 C 470.00 328.57 470.32 331.99 470.71 332.38 C 471.10 332.77 473.91 332.96 476.96 332.79 L 482.50 332.50 L 482.79 325.44 Z M 555.79 325.44 C 556.03 319.49 555.75 317.95 553.97 315.69 C 550.84 311.71 546.54 312.14 544.15 316.68 C 542.90 319.06 542.56 331.23 543.71 332.38 C 544.10 332.77 546.91 332.96 549.96 332.79 L 555.50 332.50 L 555.79 325.44 Z M 582.00 325.17 C 582.00 318.11 581.76 317.12 579.49 314.99 C 577.40 313.02 576.51 312.79 574.26 313.58 C 572.76 314.10 570.98 315.65 570.29 317.02 C 568.98 319.61 568.51 331.17 569.67 332.33 C 570.03 332.70 572.96 333.00 576.17 333.00 L 582.00 333.00 L 582.00 325.17 Z M 624.45 343.55 L 622.00 341.09 L 622.00 305.48 C 622.00 281.88 622.36 269.19 623.08 267.85 C 625.58 263.18 627.71 263.00 680.50 263.00 C 733.29 263.00 735.42 263.18 737.92 267.85 C 738.64 269.19 739.00 281.88 739.00 305.48 L 739.00 341.09 L 736.55 343.55 L 734.09 346.00 L 680.50 346.00 L 626.91 346.00 L 624.45 343.55 Z M 649.01 322.25 C 649.01 310.27 649.86 308.03 656.08 303.44 C 660.37 300.28 660.84 299.05 660.93 290.88 L 661.00 284.26 L 664.45 283.70 C 666.34 283.40 669.15 283.48 670.70 283.89 C 673.39 284.61 673.52 284.92 674.00 292.22 C 674.37 297.76 675.01 300.36 676.40 301.90 C 678.94 304.69 682.54 304.55 685.55 301.55 C 687.72 299.37 688.00 298.22 688.00 291.55 L 688.00 284.00 L 694.37 284.00 L 700.74 284.00 L 701.20 291.93 L 701.66 299.85 L 707.33 305.21 L 713.00 310.57 L 713.00 321.83 L 713.00 333.10 L 719.25 332.80 L 725.50 332.50 L 725.81 315.00 C 725.99 305.38 725.83 292.89 725.47 287.25 L 724.81 277.00 L 681.15 277.02 C 657.14 277.02 637.05 277.36 636.49 277.77 C 635.84 278.24 635.61 288.15 635.84 305.75 L 636.19 333.00 L 642.60 333.00 L 649.00 333.00 L 649.01 322.25 Z M 674.00 325.31 C 674.00 318.80 673.67 317.28 671.83 315.31 C 669.28 312.61 667.29 312.41 664.22 314.56 C 662.22 315.96 662.00 316.97 662.00 324.56 L 662.00 333.00 L 668.00 333.00 L 674.00 333.00 L 674.00 325.31 Z M 700.00 324.56 C 700.00 316.97 699.78 315.96 697.78 314.56 C 694.79 312.46 692.40 312.60 690.00 315.00 C 688.33 316.67 688.00 318.33 688.00 325.00 L 688.00 333.00 L 694.00 333.00 L 700.00 333.00 L 700.00 324.56 Z M 275.08 732.41 L 272.00 729.82 L 272.00 673.09 L 272.00 616.35 L 274.58 613.92 L 277.16 611.50 L 338.67 611.50 L 400.17 611.50 L 402.59 614.31 L 405.00 617.11 L 404.98 672.81 C 404.96 724.07 404.82 728.67 403.23 730.63 C 402.28 731.81 400.52 733.27 399.32 733.88 C 397.78 734.67 379.49 735.00 337.64 735.00 L 278.15 735.00 L 275.08 732.41 Z M 391.00 672.99 L 391.00 624.98 L 338.25 625.24 L 285.50 625.50 L 285.39 664.50 C 285.33 685.95 285.50 707.44 285.79 712.25 L 286.30 721.00 L 338.65 721.00 L 391.00 721.00 L 391.00 672.99 Z M 448.86 733.48 C 447.40 732.69 445.71 730.62 445.11 728.87 C 443.48 724.22 443.57 620.05 445.19 616.47 C 447.73 610.92 446.70 611.00 513.03 611.00 L 574.15 611.00 L 577.08 613.92 L 580.00 616.85 L 580.00 673.00 L 580.00 729.15 L 577.08 732.08 L 574.15 735.00 L 512.83 734.96 C 461.47 734.93 451.07 734.69 448.86 733.48 Z M 566.00 673.00 L 566.00 625.00 L 512.00 625.00 L 458.00 625.00 L 458.00 672.33 C 458.00 698.37 458.30 719.97 458.67 720.33 C 459.03 720.70 483.33 721.00 512.67 721.00 L 566.00 721.00 L 566.00 673.00 Z M 624.11 733.60 C 619.02 730.78 619.07 731.41 619.04 672.31 L 619.00 617.11 L 621.41 614.31 L 623.83 611.50 L 686.00 611.50 L 748.17 611.50 L 750.59 614.31 L 753.00 617.11 L 753.00 672.62 C 753.00 708.78 752.64 728.80 751.97 730.06 C 749.32 735.00 749.28 735.00 685.80 734.96 C 638.50 734.94 626.02 734.66 624.11 733.60 Z M 739.00 673.00 L 739.00 625.00 L 686.00 625.00 L 633.00 625.00 L 633.00 673.00 L 633.00 721.00 L 686.00 721.00 L 739.00 721.00 L 739.00 673.00 Z" stroke-linecap="round"/>
</g>
</g>
</g>

  </svg>