<svg xmlns="http://www.w3.org/2000/svg" xmlns:xlink="http://www.w3.org/1999/xlink" width="464px" height="499px" viewBox="0 0 464.4648401960783 500">
    <g id="3bdbf64f-9ddc-4ed2-807c-729abd83a47d">
<g style="">
		<g id="3bdbf64f-9ddc-4ed2-807c-729abd83a47d-child-0">
<path style="stroke: rgb(193,193,193); stroke-width: 0; stroke-dasharray: none; stroke-linecap: butt; stroke-dashoffset: 0; stroke-linejoin: miter; stroke-miterlimit: 4; fill: rgb(0,0,0); fill-rule: nonzero; opacity: 1;" transform="matrix(0.980392 0 0 0.980392 232.232383 249.99996) matrix(1 0 0 1 0 0)  translate(-524.137292, -512)" d="M 328.69 765.56 C 320.49 763.20 313.23 758.91 307.16 752.84 C 287.88 733.56 288.47 702.88 308.50 684.15 C 311.90 680.97 316.54 677.45 318.81 676.33 L 322.93 674.28 L 316.03 673.71 C 291.45 671.64 279.02 646.55 293.30 627.82 C 297.90 621.80 307.34 617.00 314.59 617.00 L 320.00 617.00 L 320.00 517.14 L 320.00 417.28 L 314.33 416.61 C 303.43 415.33 294.93 409.67 290.25 400.59 C 287.09 394.47 286.63 383.86 289.25 377.81 C 291.53 372.54 298.31 365.57 303.80 362.84 L 308.50 360.50 L 478.25 360.24 L 648.00 359.97 L 648.02 333.24 C 648.04 303.37 648.81 297.39 654.10 286.25 C 658.14 277.76 669.08 266.51 677.00 262.70 C 687.19 257.81 692.63 257.00 715.53 257.00 C 740.46 257.00 744.71 257.86 751.75 264.32 C 763.86 275.43 764.13 292.96 752.37 304.20 C 745.12 311.11 741.82 311.95 721.75 311.98 L 704.00 312.00 L 704.00 335.80 L 704.00 359.60 L 711.57 360.69 C 723.77 362.45 732.39 369.67 735.64 380.84 C 738.39 390.30 736.00 399.79 728.94 407.45 C 724.32 412.46 717.88 415.48 709.75 416.46 L 704.00 417.14 L 704.00 517.07 L 704.00 617.00 L 708.82 617.00 C 719.28 617.00 728.86 622.91 733.72 632.36 C 735.82 636.44 736.37 638.94 736.40 644.50 C 736.48 660.73 725.61 672.08 708.45 673.69 L 701.85 674.30 L 707.06 677.31 C 734.73 693.29 739.10 731.58 715.81 753.95 C 707.59 761.85 694.45 767.00 682.53 767.00 C 668.45 767.00 657.41 762.31 647.80 752.23 C 633.51 737.25 630.09 716.70 638.79 698.00 C 641.83 691.44 653.52 679.35 659.73 676.33 L 663.97 674.27 L 659.34 673.63 C 653.38 672.82 366.25 672.83 363.19 673.65 C 361.11 674.20 361.40 674.56 366.18 677.29 C 373.38 681.40 381.14 689.59 384.82 696.96 C 397.45 722.23 385.37 753.70 359.07 764.05 C 352.00 766.83 335.90 767.63 328.69 765.56 Z M 354.63 744.21 C 363.36 739.71 370.00 728.79 370.00 718.93 C 370.00 703.85 356.89 691.00 341.50 691.00 C 329.17 691.00 317.72 699.27 314.44 710.54 C 310.36 724.60 316.46 738.44 329.50 744.70 C 333.79 746.76 335.63 747.05 342.50 746.72 C 348.12 746.46 351.73 745.71 354.63 744.21 Z M 694.54 744.63 C 703.91 740.27 711.00 729.44 711.00 719.50 C 711.00 700.12 691.54 686.34 672.92 692.53 C 665.30 695.06 658.02 702.54 655.58 710.36 C 651.28 724.09 657.94 739.02 671.00 744.92 C 677.50 747.86 687.88 747.73 694.54 744.63 Z M 714.70 650.56 C 717.74 647.03 717.68 642.58 714.55 639.45 L 712.09 637.00 L 512.63 637.00 C 402.92 637.00 312.44 637.28 311.54 637.62 C 309.77 638.30 307.00 643.03 307.00 645.37 C 307.00 646.18 308.15 648.21 309.56 649.88 C 311.97 652.75 312.56 652.94 320.31 653.21 C 324.81 653.37 414.88 653.44 520.45 653.36 L 712.41 653.23 L 714.70 650.56 Z M 355.05 517.04 C 354.98 462.34 354.77 417.43 354.58 417.24 C 354.39 417.06 351.03 416.63 347.12 416.31 L 340.00 415.71 L 340.00 516.40 L 340.00 617.08 L 347.59 616.79 L 355.17 616.50 L 355.05 517.04 Z M 436.77 601.45 L 437.05 586.39 L 431.00 584.58 C 415.28 579.87 401.34 565.42 396.83 549.14 C 395.28 543.56 395.00 538.70 395.00 517.47 C 395.00 499.30 395.33 492.07 396.20 491.20 C 397.10 490.30 409.79 490.00 447.18 490.00 L 496.95 490.00 L 498.59 492.50 C 500.03 494.70 500.17 497.88 499.72 518.75 C 499.37 535.48 498.78 544.02 497.73 547.63 C 492.69 565.03 477.98 580.12 461.25 585.06 L 457.00 586.32 L 457.00 601.66 L 457.00 617.00 L 486.50 617.00 L 516.00 617.00 L 516.02 594.75 C 516.03 579.09 516.47 570.45 517.50 565.59 C 520.40 551.88 528.28 539.36 538.44 532.31 L 543.92 528.50 L 543.96 489.82 C 544.00 456.03 544.20 450.94 545.57 449.57 C 546.92 448.23 550.78 448.00 572.51 448.00 C 597.60 448.00 597.90 448.03 599.44 450.22 C 600.79 452.14 601.00 457.69 601.00 490.64 L 601.00 528.84 L 604.41 530.94 C 609.69 534.21 619.49 545.24 622.35 551.16 C 627.32 561.41 628.00 566.44 628.00 592.71 L 628.00 617.00 L 638.00 617.00 L 648.00 617.00 L 648.00 517.11 L 648.00 417.22 L 645.49 416.59 C 642.49 415.84 382.93 415.95 378.25 416.70 L 375.00 417.23 L 375.00 517.13 L 375.00 617.03 L 405.75 616.76 L 436.50 616.50 L 436.77 601.45 Z M 607.81 591.75 L 607.50 566.50 L 604.54 560.65 C 601.32 554.29 594.27 547.28 588.29 544.51 C 580.47 540.87 581.00 543.85 581.00 503.85 L 581.00 468.00 L 577.75 467.99 C 575.96 467.99 572.14 467.70 569.25 467.35 L 564.00 466.72 L 563.99 501.61 C 563.98 520.80 563.70 537.54 563.36 538.80 C 562.95 540.31 560.80 542.08 557.08 543.96 C 549.48 547.80 543.34 554.13 539.59 562.00 L 536.50 568.50 L 536.17 592.75 L 535.84 617.00 L 571.98 617.00 L 608.12 617.00 L 607.81 591.75 Z M 683.75 516.75 L 683.50 416.50 L 675.75 416.21 L 668.00 415.92 L 668.00 516.46 L 668.00 617.00 L 676.00 617.00 L 684.01 617.00 L 683.75 516.75 Z M 460.78 563.62 C 463.69 562.14 467.83 559.12 469.97 556.91 C 477.80 548.84 480.23 540.04 479.78 521.35 L 479.50 509.50 L 449.50 509.22 C 433.00 509.07 418.49 509.19 417.25 509.49 C 415.04 510.03 415.00 510.32 415.00 524.84 C 415.00 541.80 416.14 546.96 421.47 554.19 C 424.92 558.87 430.94 563.09 437.84 565.67 C 443.61 567.82 454.42 566.86 460.78 563.62 Z M 714.08 394.08 C 717.53 390.62 717.92 386.35 715.09 382.86 L 713.18 380.50 L 513.42 380.24 C 333.88 380.01 313.43 380.14 311.29 381.54 C 305.94 385.05 306.56 393.03 312.38 395.57 C 314.97 396.69 349.07 396.93 513.33 396.96 L 711.15 397.00 L 714.08 394.08 Z M 684.21 331.57 C 684.48 304.66 684.61 302.99 686.56 300.38 C 691.55 293.71 692.18 293.55 714.99 293.00 C 735.36 292.51 735.90 292.44 738.42 290.08 C 741.65 287.04 741.82 282.50 738.83 279.31 C 736.69 277.04 736.32 277.00 715.50 277.00 C 698.71 277.00 693.39 277.33 689.64 278.61 C 682.83 280.93 674.95 288.54 671.41 296.21 L 668.50 302.50 L 668.19 331.25 L 667.89 360.00 L 675.90 360.00 L 683.91 360.00 L 684.21 331.57 Z M 334.19 729.97 C 330.77 727.89 328.00 722.84 328.00 718.68 C 328.00 715.23 331.99 709.78 336.02 707.72 C 346.93 702.13 358.30 714.78 352.48 726.03 C 349.46 731.88 340.48 733.81 334.19 729.97 Z M 675.89 730.50 C 669.94 727.27 667.75 717.56 671.73 712.10 C 676.71 705.28 685.71 704.51 691.60 710.40 C 695.80 714.60 696.79 719.54 694.42 724.52 C 691.25 731.20 682.42 734.05 675.89 730.50 Z" stroke-linecap="round"/>
</g>
</g>
</g>

  </svg>