<svg xmlns="http://www.w3.org/2000/svg" xmlns:xlink="http://www.w3.org/1999/xlink" width="941px" height="1336px" viewBox="0 0 940.7206884723328 1336.096928781466">
    <g id="21b5b40f-1203-44b5-a2b1-372a0d43bc4c">
<g style="">
		<g id="21b5b40f-1203-44b5-a2b1-372a0d43bc4c-child-0">
<path style="stroke: rgb(193,193,193); stroke-width: 0; stroke-dasharray: none; stroke-linecap: butt; stroke-dashoffset: 0; stroke-linejoin: miter; stroke-miterlimit: 4; fill: rgb(0,0,0); fill-rule: nonzero; opacity: 1;" transform="matrix(1.748561 0 0 1.748561 470.36021 668.048274) matrix(1 0 0 1 0 0)  translate(-512.020012, -511.94397)" d="M 259.25 893.35 C 258.26 892.94 258.00 862.21 258.00 744.43 L 258.00 596.03 L 254.08 593.55 C 249.54 590.69 245.76 585.95 244.14 581.10 C 242.48 576.14 242.71 563.62 244.55 559.22 C 246.44 554.68 251.26 549.55 255.13 547.95 L 258.00 546.76 L 258.00 352.95 L 258.00 159.15 L 253.79 156.82 C 249.11 154.24 245.54 149.60 244.02 144.12 C 242.76 139.60 242.70 131.31 243.91 130.56 C 244.53 130.17 724.51 129.67 779.75 129.99 C 781.33 130.00 781.48 142.61 779.94 146.68 C 778.64 150.12 773.48 155.66 769.75 157.61 L 767.00 159.05 L 767.00 352.80 L 767.00 546.55 L 770.60 548.48 C 772.57 549.55 775.61 552.46 777.35 554.96 C 780.21 559.08 780.53 560.33 780.86 568.42 C 781.05 573.39 780.70 579.05 780.06 581.19 C 778.72 585.66 773.94 591.46 769.85 593.58 L 767.00 595.05 L 767.00 743.33 C 767.00 857.32 766.72 891.88 765.80 892.80 C 765.00 893.60 760.58 894.00 752.50 894.00 C 744.42 894.00 740.00 893.60 739.20 892.80 C 738.37 891.97 738.00 886.76 738.00 875.80 L 738.00 860.00 L 512.25 860.25 L 286.50 860.50 L 286.00 877.00 L 285.50 893.50 L 273.00 893.69 C 266.12 893.79 259.94 893.64 259.25 893.35 Z M 276.18 867.96 C 276.44 855.04 276.79 851.74 278.00 850.98 C 280.16 849.61 743.51 849.67 746.07 851.04 C 747.85 851.99 748.00 853.27 748.00 868.04 L 748.00 884.00 L 752.50 884.00 L 757.00 884.00 L 757.00 862.50 L 757.00 841.00 L 512.25 841.25 L 267.50 841.50 L 267.28 855.50 C 267.15 863.20 267.30 872.76 267.61 876.75 L 268.17 884.00 L 272.02 884.00 L 275.86 884.00 L 276.18 867.96 Z M 393.00 713.50 L 393.00 596.00 L 330.00 596.00 L 267.00 596.00 L 267.00 713.50 L 267.00 831.00 L 330.00 831.00 L 393.00 831.00 L 393.00 713.50 Z M 507.00 713.50 L 507.00 596.00 L 455.00 596.00 L 403.00 596.00 L 403.00 713.50 L 403.00 831.00 L 455.00 831.00 L 507.00 831.00 L 507.00 713.50 Z M 622.00 713.50 L 622.00 596.00 L 569.50 596.00 L 517.00 596.00 L 517.00 713.50 L 517.00 831.00 L 569.50 831.00 L 622.00 831.00 L 622.00 713.50 Z M 757.00 713.50 L 757.00 596.00 L 694.00 596.00 L 631.00 596.00 L 631.01 705.25 C 631.01 765.34 631.30 818.21 631.65 822.75 L 632.30 831.00 L 694.65 831.00 L 757.00 831.00 L 757.00 713.50 Z M 768.08 582.23 C 769.69 580.44 771.00 578.30 771.00 577.48 C 771.00 576.18 740.39 576.00 512.50 576.00 C 259.37 576.00 254.00 576.04 254.00 577.90 C 254.00 578.94 255.60 581.19 257.55 582.91 L 261.09 586.02 L 513.13 585.76 L 765.16 585.50 L 768.08 582.23 Z M 771.00 564.42 C 771.00 563.56 769.68 561.53 768.08 559.92 L 765.15 557.00 L 512.51 557.00 C 341.15 557.00 259.25 557.33 257.94 558.03 C 256.28 558.92 253.00 563.84 253.00 565.45 C 253.00 565.75 369.55 566.00 512.00 566.00 C 747.17 566.00 771.00 565.85 771.00 564.42 Z M 276.95 497.04 C 276.88 469.57 277.12 446.62 277.47 446.04 C 278.47 444.44 745.19 444.59 746.80 446.20 C 747.70 447.10 748.00 459.80 748.00 497.20 L 748.00 547.00 L 752.50 547.00 L 757.00 547.00 L 757.00 491.00 L 757.00 435.00 L 512.25 435.25 L 267.50 435.50 L 267.22 489.00 C 267.07 518.42 267.19 543.51 267.49 544.75 C 267.96 546.67 268.70 547.00 272.56 547.00 L 277.08 547.00 L 276.95 497.04 Z M 738.00 501.00 L 738.00 455.00 L 512.25 455.25 L 286.50 455.50 L 286.24 501.25 L 285.98 547.00 L 511.99 547.00 L 738.00 547.00 L 738.00 501.00 Z M 393.00 292.00 L 393.00 159.00 L 330.00 159.00 L 267.00 159.00 L 267.00 292.00 L 267.00 425.00 L 330.00 425.00 L 393.00 425.00 L 393.00 292.00 Z M 622.00 292.00 L 622.00 159.00 L 512.50 159.00 L 403.00 159.00 L 403.00 292.00 L 403.00 425.00 L 512.50 425.00 L 622.00 425.00 L 622.00 292.00 Z M 757.00 292.00 L 757.00 159.00 L 693.98 159.00 L 630.97 159.00 L 631.10 267.25 C 631.18 326.79 631.46 386.64 631.74 400.25 L 632.25 425.00 L 694.62 425.00 L 757.00 425.00 L 757.00 292.00 Z M 767.47 145.90 C 769.41 144.19 771.00 142.16 771.00 141.40 C 771.00 140.20 733.03 140.00 512.09 140.00 L 253.19 140.00 L 253.71 142.01 C 254.00 143.12 255.57 145.14 257.20 146.51 L 260.15 149.00 L 512.04 149.00 L 763.93 149.00 L 767.47 145.90 Z M 276.97 815.26 C 276.65 748.73 277.23 607.37 277.82 606.78 C 278.26 606.34 302.22 606.10 331.06 606.24 L 383.50 606.50 L 383.50 713.50 L 383.50 820.50 L 330.25 820.76 L 277.00 821.02 L 276.97 815.26 Z M 374.00 766.00 L 374.00 721.00 L 368.02 721.00 C 362.86 721.00 361.59 720.61 358.86 718.16 C 355.23 714.93 354.20 710.19 354.07 696.32 C 353.99 687.45 355.14 685.00 359.37 685.00 C 363.17 685.00 363.99 686.90 364.12 695.95 C 364.18 700.65 364.52 705.85 364.87 707.50 C 365.44 710.19 365.94 710.53 369.75 710.81 L 374.00 711.11 L 374.00 663.55 L 374.00 615.98 L 330.25 616.24 L 286.50 616.50 L 286.25 713.75 L 285.99 811.00 L 330.00 811.00 L 374.00 811.00 L 374.00 766.00 Z M 412.61 819.42 C 411.81 817.35 411.81 609.65 412.61 607.58 C 413.15 606.17 417.82 606.00 455.00 606.00 C 492.18 606.00 496.85 606.17 497.39 607.58 C 498.19 609.65 498.19 817.35 497.39 819.42 C 496.85 820.83 492.18 821.00 455.00 821.00 C 417.82 821.00 413.15 820.83 412.61 819.42 Z M 488.00 713.49 L 488.00 615.97 L 455.25 616.24 L 422.50 616.50 L 422.25 713.75 L 421.99 811.00 L 455.00 811.00 L 488.00 811.00 L 488.00 713.49 Z M 526.50 818.76 C 526.20 817.52 526.07 769.25 526.23 711.50 L 526.50 606.50 L 569.00 606.50 L 611.50 606.50 L 611.50 713.50 L 611.50 820.50 L 569.27 820.76 L 527.04 821.02 L 526.50 818.76 Z M 602.13 805.25 C 602.20 802.09 602.31 758.44 602.38 708.26 C 602.48 633.12 602.27 616.93 601.17 616.51 C 600.44 616.23 585.47 616.00 567.92 616.00 L 536.00 616.00 L 536.00 713.50 L 536.00 811.00 L 569.00 811.00 L 602.00 811.00 L 602.13 805.25 Z M 641.46 819.75 C 641.20 819.06 641.10 770.80 641.24 712.50 L 641.50 606.50 L 693.94 606.24 C 735.22 606.04 746.54 606.25 747.17 607.24 C 747.61 607.93 747.98 655.77 747.98 713.55 C 748.00 793.94 747.72 818.88 746.80 819.80 C 745.02 821.58 642.14 821.53 641.46 819.75 Z M 738.00 713.49 L 738.00 615.98 L 694.75 616.24 L 651.50 616.50 L 651.24 663.81 L 650.98 711.12 L 655.24 710.81 L 659.50 710.50 L 660.00 699.40 C 660.53 687.61 661.51 685.00 665.42 685.00 C 669.51 685.00 670.00 686.68 670.00 700.80 L 670.00 714.20 L 666.60 717.60 C 663.48 720.72 662.70 721.00 657.10 721.00 L 651.00 721.00 L 651.00 766.00 L 651.00 811.00 L 694.50 811.00 L 738.00 811.00 L 738.00 713.49 Z M 278.19 415.14 C 277.12 414.46 276.89 391.85 276.95 291.94 C 276.99 224.64 277.39 169.21 277.82 168.78 C 278.26 168.34 302.22 168.10 331.06 168.24 L 383.50 168.50 L 383.76 291.00 C 384.00 405.28 383.90 413.58 382.32 414.75 C 381.01 415.71 368.95 416.00 330.06 415.98 C 302.25 415.98 278.91 415.60 278.19 415.14 Z M 374.00 362.00 L 374.00 318.00 L 330.00 318.00 L 286.00 318.00 L 286.00 361.33 C 286.00 385.17 286.30 404.97 286.67 405.33 C 287.03 405.70 306.83 406.00 330.67 406.00 L 374.00 406.00 L 374.00 362.00 Z M 374.00 303.00 L 374.00 298.00 L 330.00 298.00 L 286.00 298.00 L 286.00 302.33 C 286.00 304.72 286.30 306.97 286.67 307.33 C 287.03 307.70 306.83 308.00 330.67 308.00 L 374.00 308.00 L 374.00 303.00 Z M 325.22 275.75 C 324.91 266.01 324.51 263.29 323.26 262.50 C 318.83 259.68 314.49 255.09 312.86 251.51 C 311.41 248.31 311.04 244.91 311.02 234.77 C 311.00 222.39 311.06 222.02 313.25 221.48 C 314.49 221.18 323.15 221.06 332.50 221.21 L 349.50 221.50 L 349.79 234.00 C 350.01 243.57 349.70 247.48 348.48 250.69 C 347.04 254.47 342.09 259.87 337.66 262.50 C 336.29 263.31 335.85 265.78 335.33 275.75 L 334.69 288.00 L 354.35 288.00 L 374.00 288.00 L 374.00 232.99 L 374.00 177.98 L 330.25 178.24 L 286.50 178.50 L 286.24 233.25 L 285.98 288.00 L 305.80 288.00 L 325.61 288.00 L 325.22 275.75 Z M 336.90 249.47 C 339.78 246.19 340.00 245.39 340.00 238.47 L 340.00 231.00 L 331.50 231.00 C 326.83 231.00 322.66 231.01 322.25 231.01 C 321.84 231.02 321.50 234.59 321.50 238.95 C 321.50 246.35 321.69 247.07 324.44 249.94 C 328.61 254.29 332.80 254.13 336.90 249.47 Z M 414.24 414.98 L 411.98 414.06 L 412.24 355.78 L 412.50 297.50 L 512.00 297.50 L 611.50 297.50 L 611.50 355.96 L 611.50 414.42 L 608.00 415.15 C 602.81 416.23 416.93 416.07 414.24 414.98 Z M 444.00 392.03 L 444.00 378.05 L 441.25 376.62 C 437.47 374.65 434.38 371.16 432.55 366.77 C 430.61 362.13 430.35 342.05 432.20 340.20 C 434.09 338.31 465.37 338.53 466.96 340.45 C 467.80 341.46 468.06 345.66 467.83 354.28 C 467.53 365.72 467.30 366.96 464.84 370.67 C 463.38 372.88 460.58 375.45 458.63 376.37 C 454.28 378.44 453.78 380.51 454.20 395.00 L 454.50 405.50 L 470.50 405.50 L 486.50 405.50 L 486.22 392.00 C 485.98 380.53 485.68 378.35 484.23 377.50 C 480.12 375.09 475.14 369.17 474.12 365.48 C 473.51 363.29 473.01 356.90 473.01 351.29 C 473.00 342.21 473.22 340.96 474.93 340.04 C 477.92 338.44 506.19 338.69 508.44 340.33 C 510.07 341.52 510.21 342.90 509.81 353.58 C 509.49 362.11 508.89 366.41 507.68 368.70 C 506.01 371.89 501.10 376.14 497.72 377.33 C 496.11 377.90 495.97 379.29 496.22 391.73 L 496.50 405.50 L 512.25 405.78 L 528.00 406.05 L 528.00 392.05 L 528.00 378.05 L 525.12 376.56 C 521.16 374.51 517.28 369.67 516.04 365.22 C 515.48 363.17 515.01 356.90 515.01 351.29 C 515.00 342.21 515.22 340.96 516.93 340.04 C 519.46 338.68 547.54 338.68 550.07 340.04 C 551.77 340.95 552.00 342.20 551.99 350.79 C 551.99 356.13 551.50 362.30 550.90 364.50 C 549.45 369.78 545.61 374.74 541.40 376.75 L 538.00 378.37 L 538.00 392.19 L 538.00 406.00 L 554.00 406.00 L 570.00 406.00 L 570.00 392.03 L 570.00 378.05 L 567.25 376.62 C 563.47 374.65 560.38 371.16 558.55 366.77 C 556.61 362.13 556.35 342.05 558.20 340.20 C 559.88 338.52 591.12 338.52 592.80 340.20 C 594.52 341.92 594.41 363.09 592.65 367.30 C 591.41 370.27 586.72 375.05 582.65 377.50 C 580.49 378.80 579.50 388.18 580.46 398.37 L 581.17 406.00 L 591.52 406.00 C 600.57 406.00 601.91 405.78 602.22 404.25 C 602.61 402.28 602.62 379.57 602.25 336.25 L 602.00 307.00 L 512.00 307.00 L 422.00 307.00 L 422.00 355.83 C 422.00 382.69 422.30 404.97 422.67 405.33 C 423.03 405.70 427.98 406.00 433.67 406.00 L 444.00 406.00 L 444.00 392.03 Z M 455.08 365.08 C 457.72 362.44 458.00 361.51 458.00 355.58 L 458.00 349.00 L 449.50 349.00 L 441.00 349.00 L 441.01 354.75 C 441.03 361.40 442.52 364.94 446.02 366.72 C 449.82 368.64 451.89 368.27 455.08 365.08 Z M 495.00 366.50 C 498.26 364.82 499.99 360.23 499.99 353.25 L 500.00 349.00 L 491.37 349.00 L 482.73 349.00 L 483.25 356.20 C 483.69 362.43 484.12 363.71 486.44 365.70 C 489.57 368.40 491.06 368.54 495.00 366.50 Z M 537.04 366.48 C 540.30 364.79 540.95 363.03 541.28 355.00 L 541.50 349.50 L 533.25 349.21 L 525.00 348.92 L 525.00 353.99 C 525.00 361.99 528.28 367.86 532.80 367.97 C 533.51 367.99 535.42 367.32 537.04 366.48 Z M 581.75 364.41 C 583.59 362.35 584.00 360.71 584.00 355.44 L 584.00 349.00 L 575.50 349.00 L 567.00 349.00 L 567.06 353.75 C 567.21 366.33 574.99 371.97 581.75 364.41 Z M 413.11 286.64 C 412.30 285.65 412.05 269.18 412.24 226.89 L 412.50 168.50 L 512.00 168.50 L 611.50 168.50 L 611.76 227.00 C 612.00 281.11 611.89 285.59 610.32 286.75 C 607.69 288.68 414.72 288.57 413.11 286.64 Z M 457.81 268.00 C 458.26 253.96 457.59 250.83 453.71 248.92 C 451.94 248.04 449.15 245.42 447.50 243.08 C 444.53 238.88 444.50 238.69 444.50 225.67 L 444.50 212.50 L 461.87 212.23 C 474.58 212.03 479.64 212.28 480.73 213.19 C 481.98 214.23 482.11 216.28 481.52 225.44 C 481.12 231.50 480.12 238.15 479.30 240.21 C 477.73 244.12 471.91 250.00 469.60 250.00 C 468.75 250.00 468.05 251.87 467.65 255.25 C 466.84 261.96 466.82 274.36 467.61 276.42 C 468.13 277.79 470.85 278.00 487.61 278.00 L 507.00 278.00 L 507.00 264.60 L 507.00 251.19 L 502.60 248.61 C 496.34 244.94 494.21 240.03 493.38 227.36 C 493.01 221.81 493.02 216.07 493.38 214.61 L 494.05 211.96 L 512.27 212.23 L 530.50 212.50 L 530.79 224.00 C 531.01 232.71 530.68 236.52 529.47 239.72 C 527.82 244.05 523.43 248.50 519.28 250.08 C 516.97 250.96 516.95 251.14 517.22 264.24 L 517.50 277.50 L 537.00 277.50 L 556.50 277.50 L 556.74 264.50 L 556.98 251.50 L 552.55 248.82 C 545.21 244.39 543.54 240.00 543.52 225.00 L 543.50 212.50 L 560.87 212.23 C 572.83 212.04 578.67 212.31 579.62 213.10 C 581.27 214.47 581.48 225.50 580.03 234.36 C 578.94 240.98 575.60 246.13 570.36 249.21 L 567.00 251.20 L 567.00 264.60 L 567.00 278.00 L 585.01 278.00 L 603.02 278.00 L 602.76 228.25 L 602.50 178.50 L 512.25 178.24 L 422.00 177.99 L 422.00 227.33 C 422.00 254.46 422.31 276.98 422.69 277.36 C 423.07 277.74 431.06 277.92 440.44 277.77 L 457.50 277.50 L 457.81 268.00 Z M 468.42 237.99 C 470.86 235.59 472.66 223.04 470.74 221.82 C 470.06 221.38 466.01 221.02 461.75 221.02 L 454.00 221.00 L 454.01 227.25 C 454.02 230.69 454.59 234.62 455.28 235.98 C 457.86 241.07 464.28 242.05 468.42 237.99 Z M 516.09 239.45 C 519.83 237.52 521.00 234.52 521.00 226.90 L 521.00 220.92 L 512.25 221.21 L 503.50 221.50 L 503.83 228.00 C 504.19 235.00 505.83 238.59 509.31 239.99 C 512.37 241.22 512.72 241.19 516.09 239.45 Z M 567.08 238.08 C 569.71 235.45 570.00 234.50 570.00 228.68 C 570.00 223.71 569.64 222.07 568.42 221.61 C 566.58 220.90 553.55 220.78 552.87 221.46 C 552.62 221.71 552.71 225.17 553.08 229.15 C 553.64 235.32 554.14 236.72 556.43 238.69 C 560.06 241.82 563.54 241.62 567.08 238.08 Z M 642.75 414.92 C 641.10 413.96 641.00 407.02 641.00 291.47 L 641.00 169.04 L 643.25 168.49 C 644.49 168.19 668.45 168.07 696.50 168.22 L 747.50 168.50 L 747.75 290.89 C 747.94 380.51 747.71 413.65 746.88 414.64 C 745.96 415.75 736.57 415.99 695.13 415.97 C 662.60 415.95 643.87 415.57 642.75 414.92 Z M 738.00 362.00 L 738.00 318.00 L 694.50 318.00 L 651.00 318.00 L 651.00 362.00 L 651.00 406.00 L 694.50 406.00 L 738.00 406.00 L 738.00 362.00 Z M 734.88 307.38 C 737.80 306.79 738.00 306.48 738.00 302.38 L 738.00 298.00 L 694.50 298.00 L 651.00 298.00 L 651.00 303.00 L 651.00 308.00 L 691.38 308.00 C 713.58 308.00 733.16 307.72 734.88 307.38 Z M 689.00 275.57 C 689.00 264.00 688.86 263.09 686.99 262.50 C 683.75 261.47 679.05 257.02 677.08 253.12 C 674.78 248.56 673.20 226.35 674.95 223.09 C 676.02 221.09 676.84 221.00 693.84 221.00 C 706.32 221.00 711.96 221.36 712.80 222.20 C 714.34 223.74 714.41 242.48 712.90 248.50 C 711.59 253.67 706.33 260.21 702.04 261.98 L 699.00 263.24 L 699.00 275.62 L 699.00 288.00 L 718.50 288.00 L 738.00 288.00 L 738.00 233.00 L 738.00 178.00 L 694.50 178.00 L 651.00 178.00 L 651.00 233.00 L 651.00 288.00 L 670.00 288.00 L 689.00 288.00 L 689.00 275.57 Z M 699.39 251.13 C 702.37 248.56 704.00 243.57 704.00 237.03 L 704.00 231.00 L 693.86 231.00 L 683.72 231.00 L 684.40 238.75 C 685.11 246.99 686.82 250.54 691.10 252.73 C 693.79 254.10 696.57 253.57 699.39 251.13 Z" stroke-linecap="round"/>
</g>
</g>
</g>

  </svg>