<svg xmlns="http://www.w3.org/2000/svg" xmlns:xlink="http://www.w3.org/1999/xlink" width="2033px" height="2584px" viewBox="0 0 2032.6676779017978 2583.4749672376493">
    <g id="82ad2eda-df4c-49c3-96a3-2af70bfd802f">
<g style="">
		<g id="82ad2eda-df4c-49c3-96a3-2af70bfd802f-child-0">
<path style="stroke: rgb(193,193,193); stroke-width: 0; stroke-dasharray: none; stroke-linecap: butt; stroke-dashoffset: 0; stroke-linejoin: miter; stroke-miterlimit: 4; fill: rgb(0,0,0); fill-rule: nonzero; opacity: 1;" transform="matrix(4.432871 0 0 4.432871 1016.333768 1291.737393) matrix(1 0 0 1 0 0)  translate(-512.406967, -512.468182)" d="M 333.02 802.98 C 328.36 801.88 325.00 797.84 325.00 793.34 C 325.00 790.65 325.81 788.99 328.40 786.40 L 331.80 783.00 L 348.69 783.00 L 365.59 783.00 L 387.45 722.75 C 399.48 689.61 415.77 644.72 423.65 623.00 C 431.54 601.28 437.99 583.21 438.00 582.85 C 438.00 582.49 435.19 580.76 431.75 578.99 C 422.10 574.03 407.38 563.91 398.06 555.82 C 374.92 535.76 356.38 507.92 346.39 478.25 L 342.61 467.00 L 319.05 466.98 C 296.47 466.97 295.34 466.87 291.52 464.71 C 289.32 463.46 286.52 460.68 285.26 458.48 C 283.05 454.63 282.98 453.79 283.24 433.50 C 283.49 413.33 283.59 412.37 285.83 409.23 C 290.29 402.98 292.12 402.55 316.91 402.00 L 339.32 401.50 L 341.23 392.00 C 343.89 378.83 349.14 363.51 355.47 350.42 C 375.02 310.06 411.66 276.96 452.99 262.32 L 460.79 259.55 L 461.16 249.03 C 461.49 239.46 461.80 238.00 464.62 233.00 C 466.77 229.17 469.17 226.59 472.52 224.50 L 477.34 221.50 L 508.42 221.17 C 543.69 220.79 547.59 221.25 553.78 226.55 C 560.17 232.02 562.18 237.26 562.40 249.08 L 562.60 259.09 L 575.05 264.09 C 599.70 273.99 618.92 286.93 637.59 306.20 C 659.97 329.31 677.06 361.47 682.67 391.00 C 683.55 395.67 684.43 400.06 684.61 400.75 C 684.86 401.70 690.07 402.00 706.40 402.00 C 728.65 402.00 731.69 402.44 735.85 406.32 C 740.55 410.69 741.09 413.12 741.55 431.81 C 742.11 454.67 741.09 458.85 733.62 464.44 C 731.05 466.36 729.12 466.53 705.90 467.00 L 680.93 467.50 L 676.99 479.29 C 666.29 511.23 644.88 541.26 618.20 561.78 C 609.09 568.78 596.03 577.14 588.94 580.50 L 585.39 582.19 L 593.76 605.34 C 598.36 618.08 608.81 646.95 616.98 669.50 C 632.65 712.72 656.81 779.63 657.52 781.75 C 657.83 782.68 662.14 783.00 674.52 783.00 C 692.62 783.00 695.63 783.71 697.81 788.47 C 700.81 795.06 697.64 801.38 690.50 803.03 C 685.51 804.18 337.92 804.13 333.02 802.98 Z M 501.14 781.75 C 501.34 781.06 501.37 759.23 501.22 733.24 L 500.94 685.98 L 461.76 686.24 L 422.57 686.50 L 405.78 732.50 C 396.55 757.80 388.72 779.51 388.39 780.75 L 387.78 783.00 L 444.28 783.00 C 488.63 783.00 500.86 782.73 501.14 781.75 Z M 636.00 782.64 C 636.00 782.44 633.78 776.25 631.06 768.89 C 628.34 761.52 620.68 740.46 614.04 722.08 C 607.39 703.70 601.46 688.06 600.86 687.33 C 599.98 686.27 591.98 686.00 560.88 686.00 L 522.00 686.00 L 522.00 734.50 L 522.00 783.00 L 579.00 783.00 C 610.35 783.00 636.00 782.84 636.00 782.64 Z M 501.00 632.67 L 501.00 599.35 L 491.25 598.08 C 485.89 597.38 476.41 595.51 470.18 593.91 C 463.96 592.31 458.49 591.00 458.03 591.00 C 457.57 591.00 456.52 592.91 455.69 595.25 C 454.12 599.73 431.62 661.25 430.46 664.25 C 429.83 665.90 431.89 666.00 465.39 666.00 L 501.00 666.00 L 501.00 632.67 Z M 592.99 664.75 C 592.98 664.06 589.60 654.28 585.47 643.00 C 581.34 631.72 575.38 615.41 572.23 606.75 C 565.99 589.60 566.29 589.93 559.04 592.49 C 554.40 594.12 536.76 597.52 527.75 598.51 L 522.00 599.14 L 522.00 632.57 L 522.00 666.00 L 557.50 666.00 C 585.24 666.00 593.00 665.73 592.99 664.75 Z M 540.50 575.97 C 600.35 563.46 646.77 519.10 661.34 460.50 C 664.11 449.32 666.00 436.35 666.00 428.41 L 666.00 423.14 L 660.75 422.53 C 657.86 422.19 588.67 422.05 507.00 422.21 L 358.50 422.50 L 358.70 432.61 C 359.06 450.37 365.40 474.89 374.14 492.28 C 397.39 538.55 442.75 570.82 494.50 577.93 C 505.25 579.41 528.87 578.40 540.50 575.97 Z M 338.64 443.25 C 338.30 441.19 338.02 435.79 338.01 431.25 L 338.00 423.00 L 320.50 423.00 L 303.00 423.00 L 303.00 435.00 L 303.00 447.00 L 321.13 447.00 L 339.26 447.00 L 338.64 443.25 Z M 721.00 435.06 L 721.00 423.12 L 716.56 422.46 C 711.76 421.74 687.46 422.18 686.70 423.00 C 686.45 423.27 686.04 428.79 685.80 435.25 L 685.37 447.00 L 703.19 447.00 L 721.00 447.00 L 721.00 435.06 Z M 664.00 401.06 C 664.00 398.52 660.62 386.09 657.41 376.85 C 637.18 318.64 586.37 278.88 524.53 272.89 C 469.91 267.59 413.42 295.32 383.39 342.17 C 373.46 357.67 364.58 379.16 361.55 395.06 L 360.23 402.00 L 512.12 402.00 C 606.01 402.00 664.00 401.64 664.00 401.06 Z M 511.50 252.50 C 520.30 252.50 530.71 252.86 534.63 253.30 L 541.77 254.10 L 542.16 250.73 C 542.38 248.87 542.30 246.26 541.98 244.93 L 541.41 242.50 L 511.95 242.50 L 482.50 242.50 L 482.20 248.28 L 481.90 254.07 L 488.70 253.28 C 492.44 252.85 502.70 252.50 511.50 252.50 Z M 479.00 556.11 C 449.73 547.58 423.10 529.36 405.76 506.00 C 397.84 495.35 395.64 490.75 396.43 486.55 C 397.66 479.95 406.15 475.87 412.05 479.03 C 413.10 479.59 416.41 483.75 419.39 488.28 C 426.42 498.93 434.17 507.39 444.27 515.47 C 453.63 522.96 470.64 531.97 481.21 535.03 C 494.45 538.86 496.96 540.02 498.52 543.04 C 500.41 546.70 500.39 549.34 498.43 553.13 C 497.08 555.74 491.74 559.13 489.28 558.94 C 488.85 558.91 484.23 557.63 479.00 556.11 Z M 393.67 381.96 C 389.46 378.64 389.25 374.19 392.96 366.28 C 397.52 356.53 407.69 341.72 415.98 332.76 C 424.22 323.86 438.86 312.48 443.18 311.61 C 447.61 310.73 452.69 313.29 454.65 317.39 C 457.31 322.96 455.69 326.56 447.96 332.30 C 433.52 343.03 420.37 358.31 413.05 372.87 C 408.56 381.81 406.12 384.00 400.68 384.00 C 397.75 384.00 395.40 383.31 393.67 381.96 Z M 475.01 315.26 C 473.10 314.29 470.94 312.38 470.23 311.00 C 467.82 306.36 470.20 299.57 475.15 296.92 C 476.08 296.42 481.65 295.34 487.53 294.52 C 497.36 293.14 498.52 293.15 501.74 294.68 C 506.42 296.90 508.55 301.79 506.96 306.62 C 505.39 311.39 502.18 313.15 492.42 314.59 C 487.81 315.28 482.79 316.10 481.27 316.43 C 479.55 316.80 477.18 316.36 475.01 315.26 Z" stroke-linecap="round"/>
</g>
</g>
</g>

  </svg>