<svg xmlns="http://www.w3.org/2000/svg" xmlns:xlink="http://www.w3.org/1999/xlink" width="955px" height="969px" viewBox="0 0 955.4287823678555 969.5346497515545">
    <g id="c20638fd-73e5-4e68-ae8d-4122db68fdc4">
<g style="">
		<g id="c20638fd-73e5-4e68-ae8d-4122db68fdc4-child-0">
<path style="stroke: rgb(193,193,193); stroke-width: 0; stroke-dasharray: none; stroke-linecap: butt; stroke-dashoffset: 0; stroke-linejoin: miter; stroke-miterlimit: 4; fill: rgb(0,0,0); fill-rule: nonzero; opacity: 1;" transform="matrix(1.551251 0 0 1.551251 477.714523 484.767458) matrix(1 0 0 1 0 0)  translate(-511.954369, -511.500831)" d="M 423.86 822.09 C 421.53 820.20 421.49 819.86 420.81 795.06 C 418.75 719.89 407.35 643.64 384.84 554.50 C 378.15 528.01 378.47 528.68 372.09 527.21 C 348.84 521.84 342.64 505.99 360.50 497.54 C 377.98 489.27 412.12 484.90 474.60 482.94 C 544.94 480.74 622.91 485.18 651.81 493.04 C 666.97 497.16 674.00 502.40 674.00 509.57 C 674.00 517.01 666.26 523.22 651.75 527.40 C 648.59 528.31 646.00 529.23 646.00 529.44 C 646.00 529.64 644.19 536.49 641.99 544.66 C 639.78 552.82 635.54 570.08 632.56 583.00 C 614.35 662.01 605.12 728.69 603.16 795.35 C 602.45 819.78 602.39 820.26 600.11 822.11 C 597.54 824.20 591.08 824.65 587.94 822.97 C 586.88 822.40 583.23 817.79 579.83 812.72 C 571.46 800.23 566.09 793.00 565.19 793.00 C 564.77 793.00 560.42 799.34 555.52 807.08 C 550.62 814.83 545.69 821.80 544.58 822.58 C 542.50 824.04 535.45 824.50 532.51 823.37 C 531.60 823.02 526.77 816.60 521.79 809.12 C 516.80 801.63 512.55 795.31 512.35 795.07 C 511.81 794.45 509.85 797.20 501.88 809.79 C 497.95 816.00 493.79 821.73 492.64 822.54 C 490.20 824.25 484.09 824.45 480.76 822.94 C 479.45 822.34 474.29 815.56 468.96 807.45 C 463.76 799.52 459.10 793.02 458.61 793.01 C 457.41 793.00 456.29 794.49 446.40 809.25 C 441.71 816.26 437.03 822.45 436.00 823.00 C 432.89 824.66 426.44 824.18 423.86 822.09 Z M 493.43 788.97 C 497.04 783.45 500.00 778.47 500.00 777.90 C 500.00 776.25 486.00 757.83 485.01 758.18 C 482.87 758.95 470.97 775.49 471.52 776.95 C 472.45 779.45 485.43 798.96 486.18 798.98 C 486.55 798.99 489.81 794.48 493.43 788.97 Z M 546.48 787.36 L 553.78 776.29 L 547.32 767.89 C 543.76 763.28 540.44 759.07 539.93 758.55 C 538.92 757.51 539.09 757.32 529.91 769.80 L 523.80 778.11 L 530.65 788.53 C 534.42 794.27 537.88 798.84 538.34 798.70 C 538.80 798.56 542.47 793.45 546.48 787.36 Z M 445.63 777.29 C 447.08 775.21 446.95 774.83 443.34 770.49 L 439.50 765.89 L 439.18 770.69 C 439.00 773.34 439.16 777.50 439.52 779.95 L 440.18 784.41 L 442.14 781.95 C 443.21 780.60 444.79 778.51 445.63 777.29 Z M 584.88 772.05 L 585.00 765.61 L 581.51 768.99 C 576.50 773.85 576.32 775.35 580.18 780.22 L 583.50 784.41 L 584.13 781.46 C 584.48 779.83 584.82 775.60 584.88 772.05 Z M 519.52 752.51 C 524.03 746.74 525.96 743.46 525.58 742.24 C 525.26 741.26 522.04 737.54 518.42 733.98 L 511.83 727.50 L 504.92 735.00 C 501.11 739.12 498.11 742.79 498.25 743.15 C 498.68 744.27 511.99 761.00 512.45 761.00 C 512.69 761.00 515.87 757.18 519.52 752.51 Z M 465.20 752.25 C 468.18 748.54 470.99 744.89 471.43 744.15 C 472.00 743.21 470.00 740.53 464.90 735.40 L 457.56 728.01 L 453.20 732.26 C 450.80 734.59 447.95 737.72 446.87 739.22 L 444.91 741.94 L 451.70 750.46 C 455.44 755.14 458.79 758.98 459.14 758.99 C 459.49 758.99 462.22 755.96 465.20 752.25 Z M 572.43 750.66 C 580.31 741.57 580.32 741.71 571.61 733.11 L 566.44 728.01 L 559.06 735.44 L 551.67 742.88 L 558.09 750.90 C 561.61 755.31 564.75 758.82 565.06 758.71 C 565.37 758.59 568.69 754.97 572.43 750.66 Z M 492.43 720.78 L 499.01 713.56 L 492.28 706.78 C 488.58 703.05 485.08 700.00 484.49 700.00 C 483.91 700.00 481.17 702.36 478.41 705.25 C 469.67 714.38 469.74 713.18 477.55 721.06 C 481.35 724.87 484.76 728.00 485.14 728.00 C 485.52 728.00 488.80 724.75 492.43 720.78 Z M 547.51 720.99 L 554.46 713.98 L 547.31 706.83 C 540.26 699.78 540.11 699.69 537.71 701.27 C 536.36 702.15 533.10 705.40 530.46 708.49 L 525.66 714.11 L 532.55 721.06 C 536.35 724.87 539.70 728.00 540.00 728.00 C 540.30 728.00 543.68 724.85 547.51 720.99 Z M 440.29 718.40 L 443.96 714.30 L 439.73 710.98 C 437.40 709.16 434.88 707.19 434.12 706.61 C 432.99 705.73 432.85 706.25 433.32 709.52 C 433.64 711.71 434.17 715.66 434.52 718.31 C 434.86 720.96 435.47 722.98 435.88 722.81 C 436.29 722.64 438.27 720.66 440.29 718.40 Z M 590.38 713.18 L 591.03 705.86 L 585.53 710.16 L 580.03 714.45 L 584.22 718.73 C 589.14 723.74 589.47 723.45 590.38 713.18 Z M 464.53 692.92 L 471.50 685.83 L 464.07 678.92 C 459.98 675.11 456.37 672.00 456.04 672.00 C 455.72 672.00 452.16 675.32 448.13 679.37 L 440.81 686.74 L 448.65 693.36 C 452.97 697.00 456.74 699.98 457.03 699.99 C 457.32 700.00 460.69 696.81 464.53 692.92 Z M 575.57 694.01 C 579.38 690.71 582.50 687.63 582.50 687.15 C 582.50 686.67 579.09 683.09 574.92 679.20 L 567.34 672.12 L 560.11 679.39 L 552.89 686.66 L 559.96 693.33 C 563.85 697.00 567.40 700.00 567.84 700.00 C 568.28 700.00 571.76 697.30 575.57 694.01 Z M 519.72 692.78 C 523.18 689.36 526.00 686.11 526.00 685.56 C 526.00 684.24 513.86 672.00 512.55 672.00 C 512.00 672.00 508.50 675.03 504.77 678.72 L 498.00 685.45 L 504.72 692.22 C 508.42 695.95 511.90 699.00 512.45 699.00 C 513.00 699.00 516.27 696.20 519.72 692.78 Z M 498.76 658.22 C 498.97 657.60 495.84 653.71 491.82 649.57 L 484.50 642.04 L 477.21 650.27 L 469.93 658.50 L 477.19 665.17 L 484.46 671.85 L 491.42 665.60 C 495.25 662.16 498.55 658.84 498.76 658.22 Z M 547.42 665.08 L 554.29 658.16 L 547.47 650.58 C 543.73 646.41 540.39 643.00 540.05 643.00 C 539.42 643.00 531.03 651.57 527.53 655.79 L 525.62 658.07 L 532.54 665.04 C 536.34 668.87 539.70 672.00 540.00 672.00 C 540.30 672.00 543.64 668.89 547.42 665.08 Z M 442.00 659.03 C 442.00 658.46 437.53 654.08 428.76 646.06 C 426.71 644.18 424.75 642.91 424.42 643.25 C 423.87 643.79 427.39 666.49 428.54 669.82 C 428.83 670.68 431.24 669.15 435.50 665.39 C 439.07 662.23 442.00 659.37 442.00 659.03 Z M 597.81 656.78 C 598.95 649.50 599.75 643.42 599.59 643.26 C 599.42 643.09 595.34 646.41 590.50 650.64 L 581.72 658.32 L 587.76 664.16 C 591.08 667.37 594.24 670.00 594.77 670.00 C 595.30 670.00 596.67 664.05 597.81 656.78 Z M 466.19 634.78 L 472.16 628.05 L 465.33 620.11 C 461.57 615.74 458.05 612.16 457.50 612.15 C 456.45 612.14 444.76 629.43 444.14 631.91 C 443.95 632.70 446.65 635.93 450.14 639.08 C 457.48 645.69 456.20 646.03 466.19 634.78 Z M 521.02 634.98 L 526.99 628.24 L 519.93 619.62 C 516.04 614.88 512.53 611.00 512.12 611.00 C 511.71 611.00 508.34 614.88 504.61 619.61 L 497.84 628.23 L 500.65 631.36 C 510.23 642.04 512.38 643.93 513.70 642.83 C 514.44 642.22 517.73 638.69 521.02 634.98 Z M 574.75 638.42 C 578.19 635.35 581.00 632.39 581.00 631.84 C 581.00 630.28 567.63 612.07 566.45 612.03 C 565.49 612.00 553.93 625.97 553.16 628.10 C 552.83 629.00 566.76 644.00 567.92 644.00 C 568.24 643.99 571.31 641.48 574.75 638.42 Z M 438.57 606.25 L 447.23 593.50 L 446.00 579.03 C 444.11 556.66 441.49 537.92 440.15 537.09 C 439.48 536.68 432.54 535.81 424.72 535.16 C 416.90 534.50 407.90 533.69 404.72 533.34 C 398.94 532.71 398.94 532.72 399.85 535.11 C 400.63 537.19 410.22 577.48 415.72 601.80 C 417.54 609.86 417.74 610.22 423.05 614.51 C 426.05 616.94 428.82 618.94 429.20 618.96 C 429.59 618.98 433.81 613.26 438.57 606.25 Z M 601.11 614.33 C 604.37 611.77 607.26 608.73 607.53 607.58 C 607.80 606.44 610.28 595.38 613.06 583.00 C 615.83 570.62 619.63 554.44 621.50 547.03 C 623.36 539.62 624.75 533.42 624.58 533.25 C 624.41 533.08 617.40 533.63 608.99 534.47 C 600.59 535.31 591.56 536.00 588.92 536.00 C 586.28 536.00 583.85 536.43 583.52 536.97 C 582.59 538.46 578.03 580.70 578.00 588.00 L 577.98 594.50 L 586.24 606.73 C 590.78 613.45 594.65 618.96 594.83 618.98 C 595.02 618.99 597.84 616.90 601.11 614.33 Z M 494.43 602.56 L 502.00 593.24 L 502.00 566.27 L 502.00 539.31 L 488.34 538.66 C 480.83 538.29 471.56 538.00 467.73 538.00 C 461.03 538.00 460.80 538.08 461.33 540.25 C 461.62 541.49 462.83 552.17 464.00 564.00 C 465.17 575.83 466.34 587.30 466.59 589.50 C 466.97 592.76 468.67 595.40 475.73 603.71 C 482.13 611.24 484.72 613.65 485.63 612.89 C 486.30 612.33 490.26 607.68 494.43 602.56 Z M 550.21 601.97 L 557.69 593.45 L 558.39 583.47 C 559.04 574.07 561.32 551.62 562.56 542.25 L 563.12 538.00 L 554.72 538.00 C 550.10 538.00 540.84 538.29 534.16 538.65 L 522.00 539.31 L 522.00 566.08 L 522.00 592.84 L 530.71 603.44 C 538.93 613.44 539.50 613.93 541.07 612.27 C 541.98 611.29 546.09 606.66 550.21 601.97 Z M 585.00 517.04 C 614.92 514.66 641.79 511.45 640.73 510.39 C 639.40 509.07 611.70 505.70 588.00 503.99 C 545.47 500.91 475.42 500.91 433.00 503.99 C 413.79 505.39 385.74 508.91 384.55 510.07 C 383.95 510.66 383.98 511.00 384.64 511.00 C 385.21 511.00 390.14 511.67 395.59 512.49 C 407.41 514.26 435.35 516.73 457.50 517.96 C 477.98 519.09 567.31 518.44 585.00 517.04 Z M 250.04 613.94 C 239.47 611.17 229.14 604.94 221.16 596.51 C 213.28 588.20 208.68 579.99 205.98 569.40 C 204.05 561.88 204.00 557.77 204.00 407.50 C 204.00 258.33 204.06 253.07 205.93 245.76 C 210.58 227.61 221.90 213.67 239.08 204.97 C 251.75 198.55 231.37 199.00 511.64 199.01 C 793.70 199.03 772.11 198.51 786.25 205.62 C 796.55 210.80 808.44 222.84 813.29 233.00 C 820.42 247.96 820.09 238.92 819.78 411.00 C 819.51 558.06 819.41 565.76 817.65 571.00 C 810.90 591.12 796.81 605.90 777.34 613.25 C 771.61 615.42 770.45 615.46 714.29 615.77 C 650.42 616.13 652.25 616.31 649.99 609.46 C 649.07 606.68 649.08 605.22 650.04 602.90 C 652.57 596.79 650.51 597.00 707.97 596.98 C 750.06 596.97 761.86 596.68 767.36 595.51 C 780.09 592.81 789.84 585.14 795.77 573.16 L 799.50 565.60 L 799.76 409.10 C 800.00 266.77 799.88 252.13 798.40 247.55 C 793.66 232.86 781.21 221.89 766.04 219.01 C 758.23 217.53 263.89 217.63 256.80 219.11 C 240.87 222.44 227.07 236.66 224.01 252.89 C 222.63 260.26 222.62 554.73 224.01 562.04 C 226.28 574.01 234.69 585.79 244.96 591.38 C 254.60 596.63 258.83 596.96 315.83 596.98 L 368.15 597.00 L 371.08 599.92 C 373.24 602.09 374.00 603.79 374.00 606.50 C 374.00 609.21 373.24 610.91 371.08 613.08 L 368.15 616.00 L 312.83 615.94 C 261.25 615.89 256.99 615.76 250.04 613.94 Z M 256.32 580.36 C 250.44 578.28 243.14 571.50 240.37 565.54 L 238.02 560.50 L 238.02 407.50 L 238.02 254.50 L 240.36 249.48 C 243.39 242.97 248.14 238.30 254.99 235.08 L 260.50 232.50 L 512.00 232.50 L 763.50 232.50 L 769.09 235.12 C 775.56 238.15 780.81 243.04 783.56 248.60 C 785.45 252.41 785.50 256.20 785.50 407.50 L 785.50 562.50 L 783.29 566.63 C 782.08 568.90 779.01 572.58 776.49 574.80 C 768.40 581.92 767.82 582.00 721.76 582.00 C 692.59 582.00 680.24 581.67 678.68 580.84 C 675.28 579.02 674.07 576.84 674.03 572.44 C 674.01 569.19 674.61 567.79 677.07 565.44 L 680.13 562.50 L 719.25 562.34 C 740.76 562.25 759.61 561.93 761.14 561.62 C 767.36 560.38 767.00 569.79 767.00 406.47 L 767.00 257.85 L 764.08 254.92 L 761.15 252.00 L 512.00 252.00 L 262.85 252.00 L 259.92 254.92 L 257.00 257.85 L 257.00 406.91 L 257.00 555.97 L 259.87 559.18 L 262.74 562.39 L 302.30 562.12 C 337.15 561.87 342.27 562.04 345.29 563.47 C 352.66 566.97 353.08 576.84 346.02 580.49 C 341.74 582.70 262.61 582.59 256.32 580.36 Z M 403.92 469.08 L 401.00 466.15 L 401.00 405.63 L 401.00 345.11 L 403.28 342.46 C 404.75 340.75 407.15 339.51 410.03 338.97 C 416.37 337.77 610.59 337.81 615.06 339.02 C 617.02 339.54 619.73 341.14 621.07 342.57 L 623.50 345.16 L 623.50 405.66 L 623.50 466.16 L 620.23 469.08 C 615.77 473.07 610.91 473.07 606.92 469.08 L 604.00 466.15 L 604.00 412.08 L 604.00 358.00 L 512.50 358.00 L 421.00 358.00 L 420.92 368.75 C 420.88 374.66 420.89 398.26 420.96 421.19 C 421.08 465.69 420.82 468.42 416.15 470.92 C 412.25 473.01 407.07 472.23 403.92 469.08 Z" stroke-linecap="round"/>
</g>
</g>
</g>

  </svg>