<svg xmlns="http://www.w3.org/2000/svg" xmlns:xlink="http://www.w3.org/1999/xlink" width="500px" height="400px" viewBox="0 0 500 399.5667217069233">
    <g id="a4958127-02d1-40d5-8858-2af5f1f32b92">
<g style="">
		<g id="a4958127-02d1-40d5-8858-2af5f1f32b92-child-0">
<path style="stroke: rgb(193,193,193); stroke-width: 0; stroke-dasharray: none; stroke-linecap: butt; stroke-dashoffset: 0; stroke-linejoin: miter; stroke-miterlimit: 4; fill: rgb(0,0,0); fill-rule: nonzero; opacity: 1;" transform="matrix(0.855199 0 0 0.855199 250.000041 199.783394) matrix(1 0 0 1 0 0)  translate(-511.569581, -512.350257)" d="M 288.39 745.02 C 287.23 744.55 285.27 742.89 284.04 741.33 C 281.06 737.55 281.74 731.48 285.49 728.25 C 288.05 726.05 288.66 726.00 312.06 726.00 L 336.00 726.00 L 336.00 709.59 L 336.00 693.18 L 328.72 689.19 C 307.86 677.74 288.30 657.81 276.01 635.50 C 268.15 621.22 268.62 622.75 241.06 521.89 C 229.78 480.60 227.59 473.59 224.55 469.07 C 220.13 462.50 218.61 456.98 219.47 450.53 C 221.82 432.71 238.44 421.50 255.25 426.38 C 258.32 427.28 273.13 433.46 288.16 440.13 C 319.38 453.97 331.53 458.73 345.00 462.37 C 368.65 468.77 356.42 468.34 526.25 468.72 L 681.00 469.06 L 681.00 402.74 C 681.00 331.16 680.97 330.77 675.60 320.23 C 674.28 317.63 670.79 313.12 667.85 310.20 C 651.79 294.29 627.57 294.30 611.66 310.21 C 603.11 318.77 599.00 329.98 599.00 344.76 C 599.00 350.49 598.70 351.46 596.08 354.08 C 592.04 358.11 586.96 358.11 582.92 354.08 C 580.11 351.26 580.00 350.81 580.00 341.74 C 580.00 313.18 595.92 290.13 621.67 281.38 C 628.12 279.19 631.27 278.73 639.50 278.74 C 667.97 278.81 691.06 297.10 698.44 325.43 C 699.75 330.44 699.98 341.60 700.01 400.12 L 700.05 468.92 L 741.28 469.21 L 782.50 469.50 L 788.22 472.31 C 808.99 482.51 809.16 510.84 788.52 521.61 C 784.46 523.74 782.74 525.29 782.03 527.50 C 781.50 529.15 775.46 549.64 768.61 573.03 C 755.69 617.11 754.13 621.79 748.91 632.25 C 737.44 655.19 713.25 680.25 692.35 690.84 L 688.20 692.94 L 687.84 706.72 C 687.64 714.30 687.65 721.74 687.85 723.25 L 688.23 726.00 L 712.19 726.00 L 736.15 726.00 L 739.08 728.92 C 742.23 732.07 743.01 737.25 740.92 741.15 C 738.20 746.24 749.46 746.00 511.78 745.94 C 390.08 745.90 289.55 745.49 288.39 745.02 Z M 374.00 684.08 L 374.00 642.15 L 376.49 639.20 C 379.50 635.62 383.37 634.71 387.79 636.55 C 393.38 638.89 394.00 641.95 394.00 666.97 L 394.00 689.00 L 511.95 689.00 L 629.90 689.00 L 630.20 665.08 C 630.49 641.61 630.54 641.11 632.83 638.68 C 635.74 635.58 639.58 634.80 643.62 636.49 C 650.15 639.21 650.00 638.08 650.00 684.22 L 650.00 726.00 L 659.00 726.00 L 668.00 726.00 L 668.00 683.45 L 668.00 640.91 L 670.41 638.50 C 673.82 635.09 677.51 634.40 681.66 636.38 C 686.89 638.87 688.02 642.66 687.74 656.85 C 687.61 663.44 687.80 669.13 688.17 669.50 C 689.79 671.12 708.64 655.48 715.99 646.42 C 723.03 637.74 731.31 624.22 734.99 615.37 C 737.67 608.93 761.00 529.63 761.00 526.96 C 761.00 526.42 681.34 525.92 565.25 525.73 C 387.16 525.44 368.57 525.26 359.20 523.72 C 333.86 519.57 317.11 514.18 279.31 498.03 C 265.18 492.00 253.40 487.26 253.15 487.52 C 252.89 487.77 255.03 496.65 257.90 507.24 C 260.77 517.83 267.17 541.58 272.11 560.00 C 277.05 578.42 282.46 597.78 284.13 603.00 C 290.72 623.61 299.95 639.12 313.91 653.08 C 321.14 660.31 333.48 670.00 335.45 670.00 C 335.75 670.00 336.01 664.04 336.01 656.75 C 336.03 641.65 336.74 639.37 342.25 636.67 C 345.40 635.13 346.54 635.02 349.51 636.00 C 356.00 638.15 356.00 638.12 356.00 684.45 L 356.00 726.00 L 365.00 726.00 L 374.00 726.00 L 374.00 684.08 Z M 630.00 717.00 L 630.00 707.99 L 511.75 708.25 L 393.50 708.50 L 393.15 710.95 C 392.96 712.29 393.11 716.23 393.48 719.70 L 394.16 726.00 L 512.08 726.00 L 630.00 726.00 L 630.00 717.00 Z M 780.93 503.56 C 785.49 499.20 784.92 492.74 779.73 489.77 C 777.95 488.76 735.61 488.38 571.50 487.93 C 344.21 487.30 362.95 487.86 339.00 481.03 C 321.94 476.17 309.93 471.33 258.00 448.34 C 248.79 444.27 244.83 444.08 241.34 447.57 C 239.20 449.71 238.86 450.76 239.35 453.76 C 239.67 455.75 240.74 458.17 241.72 459.14 C 243.99 461.39 301.51 486.66 317.94 492.63 C 340.09 500.68 357.36 504.38 380.00 505.93 C 386.33 506.37 478.43 506.67 584.68 506.61 L 777.87 506.50 L 780.93 503.56 Z M 543.92 451.08 C 541.00 448.15 541.00 448.15 541.00 435.50 C 541.00 422.85 541.00 422.85 543.92 419.92 C 546.09 417.76 547.79 417.00 550.50 417.00 C 553.21 417.00 554.91 417.76 557.08 419.92 C 560.00 422.85 560.00 422.85 560.00 435.50 C 560.00 448.15 560.00 448.15 557.08 451.08 C 554.91 453.24 553.21 454.00 550.50 454.00 C 547.79 454.00 546.09 453.24 543.92 451.08 Z M 593.92 451.08 C 591.00 448.15 591.00 448.15 591.00 435.50 C 591.00 422.85 591.00 422.85 593.92 419.92 C 596.09 417.76 597.79 417.00 600.50 417.00 C 603.21 417.00 604.91 417.76 607.08 419.92 C 610.00 422.85 610.00 422.85 610.00 435.50 C 610.00 448.15 610.00 448.15 607.08 451.08 C 604.91 453.24 603.21 454.00 600.50 454.00 C 597.79 454.00 596.09 453.24 593.92 451.08 Z M 643.59 450.92 C 641.11 447.97 641.00 447.34 641.00 435.35 C 641.00 422.86 641.00 422.84 643.92 419.92 C 647.99 415.86 653.04 415.89 657.16 420.00 L 660.16 423.01 L 659.83 436.09 C 659.50 449.02 659.47 449.21 656.69 451.59 C 652.49 455.20 646.95 454.92 643.59 450.92 Z M 723.92 451.08 C 721.00 448.15 721.00 448.15 721.00 435.50 C 721.00 422.85 721.00 422.85 723.92 419.92 C 726.09 417.76 727.79 417.00 730.50 417.00 C 733.21 417.00 734.91 417.76 737.08 419.92 C 740.00 422.85 740.00 422.85 740.00 435.50 C 740.00 448.15 740.00 448.15 737.08 451.08 C 734.91 453.24 733.21 454.00 730.50 454.00 C 727.79 454.00 726.09 453.24 723.92 451.08 Z" stroke-linecap="round"/>
</g>
</g>
</g>

  </svg>