<svg xmlns="http://www.w3.org/2000/svg" xmlns:xlink="http://www.w3.org/1999/xlink" width="484px" height="500px" viewBox="0 0 484.4347029380311 499.9999999999998">
    <g id="d1c90842-eb77-44d1-ac67-c3c04c669ac8">
<g style="">
		<g id="d1c90842-eb77-44d1-ac67-c3c04c669ac8-child-0">
<path style="stroke: rgb(193,193,193); stroke-width: 0; stroke-dasharray: none; stroke-linecap: butt; stroke-dashoffset: 0; stroke-linejoin: miter; stroke-miterlimit: 4; fill: rgb(0,0,0); fill-rule: nonzero; opacity: 1;" transform="matrix(1.171148 0 0 1.171148 242.217316 249.999963) matrix(1 0 0 1 0 0)  translate(-512.169291, -512.129569)" d="M 421.51 724.93 C 417.12 724.45 409.47 722.89 404.51 721.47 C 355.91 707.57 319.20 666.20 307.36 612.00 C 304.51 598.92 304.73 565.26 307.76 551.41 C 313.07 527.17 320.46 507.25 334.63 479.00 C 352.00 444.38 372.52 415.32 396.44 391.50 C 404.72 383.25 415.25 373.84 419.84 370.59 C 428.40 364.52 445.92 355.00 448.53 355.00 C 450.72 355.00 450.39 354.25 446.05 349.32 C 431.02 332.25 434.29 307.60 452.50 300.58 C 456.70 298.96 465.75 298.28 471.78 299.12 C 480.11 300.29 488.21 303.07 501.26 309.23 L 512.01 314.32 L 523.76 308.71 C 548.63 296.84 566.62 295.50 578.59 304.63 C 590.31 313.58 590.29 333.66 578.55 347.95 C 576.09 350.95 574.21 353.54 574.38 353.71 C 574.55 353.88 578.86 356.05 583.95 358.53 C 601.64 367.14 619.91 381.46 635.84 399.20 C 676.90 444.94 710.03 510.09 717.53 559.82 C 720.50 579.52 718.85 604.93 713.38 623.80 C 698.53 675.07 660.94 711.91 611.49 723.67 C 605.30 725.14 594.54 725.35 517.00 725.56 C 468.88 725.70 425.91 725.41 421.51 724.93 Z M 576.96 700.37 C 593.16 685.37 605.89 656.22 609.54 625.75 L 610.23 620.00 L 511.71 620.00 L 413.19 620.00 L 413.69 624.25 C 414.69 632.65 418.18 648.64 420.62 656.00 C 426.36 673.33 437.67 692.01 448.31 701.75 L 452.96 706.00 L 511.92 706.00 L 570.89 706.00 L 576.96 700.37 Z M 423.00 704.45 C 423.00 704.14 421.17 701.19 418.93 697.90 C 405.80 678.56 396.85 652.58 393.88 625.16 L 392.66 613.83 L 385.08 608.05 C 368.27 595.23 348.11 574.91 335.66 558.26 C 330.03 550.71 328.00 548.73 328.00 550.75 C 328.00 551.16 327.31 555.33 326.46 560.00 C 324.45 571.08 324.44 592.95 326.44 604.17 C 331.33 631.67 344.44 656.58 363.79 675.15 C 374.78 685.70 384.65 692.35 397.20 697.65 C 407.36 701.94 423.00 706.06 423.00 704.45 Z M 618.73 700.97 C 628.89 697.66 643.92 689.50 652.81 682.47 C 675.63 664.42 692.35 634.79 697.55 603.19 C 700.12 587.54 698.27 550.00 694.93 550.00 C 694.46 550.00 690.61 554.61 686.38 560.25 C 676.96 572.79 649.43 600.40 638.39 608.36 L 630.28 614.21 L 629.72 622.85 C 628.14 646.94 618.21 677.46 605.61 696.94 C 603.07 700.86 601.00 704.20 601.00 704.36 C 601.00 705.17 612.73 702.93 618.73 700.97 Z M 599.00 597.99 C 593.86 593.94 571.02 583.11 560.39 579.67 C 554.33 577.71 545.59 575.63 540.96 575.05 C 530.36 573.73 491.79 573.71 482.50 575.04 C 472.79 576.42 459.09 580.48 449.54 584.79 C 441.44 588.45 425.31 597.31 423.55 599.06 C 422.95 599.65 456.00 599.99 512.05 599.98 C 601.19 599.96 601.49 599.95 599.00 597.99 Z M 408.58 585.08 C 414.34 581.28 422.41 576.44 426.52 574.33 C 430.63 572.23 433.99 570.17 434.00 569.76 C 434.01 567.71 403.69 555.03 385.76 549.60 C 367.26 543.99 349.00 540.63 349.00 542.83 C 349.00 544.28 364.32 562.16 373.57 571.53 C 382.69 580.75 395.70 592.00 397.25 592.00 C 397.72 592.00 402.82 588.89 408.58 585.08 Z M 634.33 586.12 C 647.77 575.09 676.32 543.99 674.59 542.26 C 673.45 541.12 653.21 544.98 641.00 548.67 C 624.36 553.70 590.00 567.66 590.00 569.38 C 590.00 569.65 593.30 571.68 597.34 573.91 C 601.38 576.14 609.37 581.11 615.09 584.96 C 620.82 588.80 625.87 591.96 626.33 591.97 C 626.78 591.99 630.38 589.35 634.33 586.12 Z M 556.29 550.25 C 562.54 538.33 563.50 533.03 563.41 511.00 C 563.33 490.00 561.21 467.40 555.89 430.50 C 553.12 411.30 547.69 380.02 546.39 375.74 C 545.89 374.09 543.59 373.99 511.68 374.24 L 477.50 374.50 L 475.28 386.50 C 471.67 406.00 464.23 458.93 462.04 480.75 C 458.33 517.61 459.74 535.76 467.39 549.50 L 470.73 555.50 L 480.12 555.00 C 495.97 554.16 542.24 554.68 547.00 555.76 C 549.47 556.32 551.78 556.83 552.13 556.89 C 552.47 556.95 554.34 553.96 556.29 550.25 Z M 444.47 547.93 C 437.44 527.99 438.76 492.53 449.04 424.71 C 450.73 413.59 453.21 398.36 454.55 390.85 C 455.90 383.34 457.00 376.26 457.00 375.12 L 457.00 373.03 L 451.75 375.08 C 420.27 387.35 378.74 434.72 350.99 490.02 C 346.03 499.90 338.00 518.51 338.00 520.12 C 338.00 520.60 339.78 521.00 341.97 521.00 C 349.00 521.00 368.06 524.05 379.57 527.02 C 394.00 530.74 412.85 537.58 430.50 545.51 C 438.20 548.96 444.82 551.84 445.21 551.90 C 445.59 551.95 445.26 550.17 444.47 547.93 Z M 594.63 544.93 C 623.66 532.00 650.24 524.31 674.27 521.89 C 687.90 520.52 687.17 522.17 680.82 507.00 C 672.74 487.71 655.74 457.60 642.71 439.50 C 628.99 420.46 610.73 400.79 596.55 389.78 C 588.83 383.80 567.62 372.01 566.57 373.12 C 566.37 373.33 566.83 376.42 567.59 380.00 C 570.09 391.75 575.92 428.14 578.48 448.00 C 585.20 499.98 585.62 526.81 580.04 545.75 C 579.02 549.19 578.32 552.00 578.48 552.00 C 578.64 552.00 585.91 548.82 594.63 544.93 Z M 553.95 344.75 C 568.30 330.09 571.45 321.28 563.15 319.04 C 555.50 316.98 542.22 320.99 523.29 331.07 L 512.06 337.05 L 499.03 330.52 C 491.87 326.92 482.66 322.86 478.57 321.49 C 469.80 318.55 460.02 318.12 457.57 320.57 C 453.53 324.61 456.92 331.33 469.27 343.75 L 479.46 354.00 L 512.18 354.00 L 544.90 354.00 L 553.95 344.75 Z" stroke-linecap="round"/>
</g>
</g>
</g>

  </svg>