<svg xmlns="http://www.w3.org/2000/svg" xmlns:xlink="http://www.w3.org/1999/xlink" width="938px" height="638px" viewBox="0 0 938.4438136704621 638.0364618050926">
    <g id="ef993546-df60-4b20-830e-292c23f10c1c">
<g style="">
		<g id="ef993546-df60-4b20-830e-292c23f10c1c-child-0">
<path style="stroke: rgb(193,193,193); stroke-width: 0; stroke-dasharray: none; stroke-linecap: butt; stroke-dashoffset: 0; stroke-linejoin: miter; stroke-miterlimit: 4; fill: rgb(0,0,0); fill-rule: nonzero; opacity: 1;" transform="matrix(1.487671 0 0 1.487671 469.221993 319.01829) matrix(1 0 0 1 0 0)  translate(-511.907099, -511.540022)" d="M 241.50 724.38 C 233.08 719.82 230.00 714.12 230.00 703.10 L 230.00 695.12 L 225.25 694.50 C 213.00 692.90 204.76 687.31 199.81 677.27 L 196.50 670.54 L 196.50 644.02 C 196.50 618.27 196.57 617.36 198.83 612.77 C 200.11 610.17 203.34 606.08 206.01 603.68 L 210.87 599.31 L 211.23 561.41 C 211.58 524.92 211.68 523.26 213.89 517.00 C 217.01 508.17 221.23 500.43 226.28 494.27 C 230.63 488.97 241.69 479.56 245.72 477.72 C 247.29 477.00 248.00 475.82 248.00 473.91 C 248.00 472.39 249.44 467.40 251.20 462.82 L 254.40 454.50 L 254.95 401.50 L 255.50 348.50 L 258.18 341.17 C 264.29 324.43 275.69 311.19 290.06 304.15 C 305.93 296.37 287.08 296.95 514.57 297.24 L 718.50 297.50 L 725.81 300.17 C 744.27 306.92 759.09 321.74 765.85 340.24 L 768.50 347.50 L 768.79 400.00 L 769.07 452.50 L 771.95 459.50 C 773.53 463.35 775.14 468.66 775.53 471.30 C 776.18 475.69 776.67 476.37 781.37 479.39 C 794.19 487.65 804.00 499.89 809.44 514.46 L 812.44 522.50 L 812.79 560.91 L 813.13 599.31 L 817.93 603.63 C 826.30 611.15 826.80 613.33 827.17 644.01 C 827.49 670.11 827.46 670.58 825.12 675.77 C 820.50 685.98 808.76 694.00 798.42 694.00 L 794.19 694.00 L 793.85 703.42 C 793.53 712.01 793.23 713.21 790.46 717.16 C 785.39 724.37 781.41 725.96 768.45 725.98 C 757.97 726.00 757.15 725.85 752.85 723.12 C 745.94 718.74 743.71 714.35 743.18 704.08 C 742.94 699.33 742.24 695.17 741.62 694.77 C 741.00 694.36 636.93 694.02 510.34 694.02 L 280.19 694.00 L 279.84 703.91 C 279.52 713.23 279.32 714.04 276.44 717.60 C 270.50 724.93 269.15 725.47 256.18 725.75 C 246.94 725.95 243.87 725.67 241.50 724.38 Z M 258.00 699.39 C 258.00 695.18 257.88 695.00 255.00 695.00 C 252.12 695.00 252.00 695.17 252.00 699.43 C 252.00 702.83 252.41 703.94 253.75 704.24 C 257.04 704.97 258.00 703.88 258.00 699.39 Z M 771.80 699.87 C 772.09 695.39 772.00 695.23 769.04 694.79 C 765.19 694.23 765.00 694.45 765.00 699.50 C 765.00 704.42 765.58 705.19 768.96 704.80 C 771.22 704.53 771.53 703.99 771.80 699.87 Z M 803.08 669.41 L 805.50 666.82 L 805.21 644.66 C 804.99 627.56 804.61 622.19 803.56 621.13 C 802.41 619.98 756.17 619.78 511.94 619.83 C 252.42 619.88 221.52 620.05 220.15 621.43 C 218.84 622.73 218.65 626.33 218.84 645.23 L 219.07 667.50 L 221.59 669.75 L 224.11 672.00 L 512.38 672.00 L 800.65 672.00 L 803.08 669.41 Z M 790.76 562.75 C 790.34 524.09 790.14 522.87 782.73 511.81 C 777.81 504.47 768.85 497.29 760.32 493.85 L 754.50 491.50 L 511.45 491.50 L 268.40 491.50 L 260.45 495.43 C 246.28 502.42 236.78 514.68 234.08 529.43 C 233.46 532.86 233.00 548.37 233.00 566.18 L 233.00 597.00 L 512.07 597.00 L 791.14 597.00 L 790.76 562.75 Z M 751.00 467.46 C 751.00 467.16 750.14 465.25 749.09 463.21 C 746.43 458.06 739.71 451.58 734.16 448.82 L 729.50 446.50 L 635.00 446.50 L 540.50 446.50 L 534.00 449.63 C 530.42 451.35 524.16 455.29 520.07 458.38 C 515.99 461.47 512.34 464.00 511.97 464.00 C 511.60 464.00 509.77 462.90 507.90 461.56 C 495.90 452.95 490.13 449.52 484.83 447.87 C 479.15 446.10 473.90 446.00 387.38 446.00 C 287.54 446.00 293.46 445.67 284.66 451.74 C 280.73 454.46 275.77 460.84 274.03 465.42 L 273.05 468.00 L 512.02 468.00 C 643.46 468.00 751.00 467.76 751.00 467.46 Z M 518.57 432.50 C 528.26 426.66 539.99 423.00 548.99 423.00 L 552.71 423.00 L 551.28 417.75 C 550.35 414.31 550.02 409.62 550.33 404.15 C 551.35 385.79 563.46 371.24 581.68 366.50 C 586.40 365.27 596.18 365.00 636.62 365.00 C 681.42 365.00 686.34 365.16 691.66 366.82 C 707.12 371.65 718.45 384.55 720.95 400.18 C 721.89 406.10 721.44 412.52 719.53 420.04 C 718.90 422.53 719.03 422.60 726.78 423.73 C 731.11 424.36 737.27 426.03 740.46 427.44 C 743.64 428.85 746.42 430.00 746.62 430.00 C 747.48 430.00 746.92 357.85 746.02 353.12 C 743.63 340.49 734.83 329.49 722.06 323.19 L 714.60 319.50 L 515.55 319.19 C 365.76 318.96 315.14 319.18 311.00 320.06 C 294.69 323.55 281.04 337.54 278.00 353.89 C 277.45 356.85 277.00 375.16 277.00 394.58 L 277.00 429.89 L 282.25 427.58 C 288.24 424.93 296.45 423.00 301.66 423.00 C 305.03 423.00 305.18 422.86 304.53 420.27 C 301.28 407.30 301.96 398.59 307.03 388.29 C 312.37 377.44 322.10 369.68 334.50 366.36 C 341.72 364.43 435.27 364.43 442.50 366.36 C 450.15 368.40 455.84 371.71 461.57 377.43 C 472.18 388.05 476.14 402.29 472.62 417.25 L 471.26 423.00 L 474.88 423.02 C 483.85 423.06 501.98 429.17 508.50 434.35 C 511.30 436.57 512.02 436.44 518.57 432.50 Z M 443.01 420.75 C 448.35 417.11 450.33 413.67 450.74 407.26 C 451.19 400.30 449.27 396.06 443.66 391.57 L 439.82 388.50 L 389.34 388.22 L 338.87 387.95 L 334.84 390.21 C 322.32 397.24 323.04 416.71 336.00 421.88 C 337.54 422.49 357.97 422.90 389.10 422.94 L 439.70 423.00 L 443.01 420.75 Z M 688.93 421.54 C 692.84 419.51 696.72 414.65 698.10 410.05 C 700.36 402.51 697.03 394.86 689.58 390.49 L 685.03 387.83 L 635.98 387.95 C 609.01 388.02 585.91 388.46 584.66 388.94 C 580.93 390.36 575.82 395.18 574.36 398.67 C 570.93 406.89 573.57 415.77 580.92 420.73 L 584.30 423.00 L 635.20 423.00 C 677.93 423.00 686.55 422.77 688.93 421.54 Z" stroke-linecap="round"/>
</g>
</g>
</g>

  </svg>