<svg xmlns="http://www.w3.org/2000/svg" xmlns:xlink="http://www.w3.org/1999/xlink" width="500px" height="376px" viewBox="0 0 499.9999999999998 375.72857142924164">
    <g id="ba9973fb-46d2-4739-8279-fd3d770bf97a">
<g style="">
		<g id="ba9973fb-46d2-4739-8279-fd3d770bf97a-child-0">
<path style="stroke: rgb(193,193,193); stroke-width: 0; stroke-dasharray: none; stroke-linecap: butt; stroke-dashoffset: 0; stroke-linejoin: miter; stroke-miterlimit: 4; fill: rgb(0,0,0); fill-rule: nonzero; opacity: 1;" transform="matrix(0.869036 0 0 0.869036 249.999963 187.864258) matrix(1 0 0 1 0 0)  translate(-512.175036, -511.853908)" d="M 241.46 726.41 C 235.67 724.35 230.35 719.58 227.22 713.65 L 224.50 708.50 L 224.50 512.50 L 224.50 316.50 L 226.62 311.91 C 227.79 309.39 230.45 305.62 232.53 303.53 C 243.48 292.58 261.81 293.16 272.04 304.79 C 278.64 312.28 279.00 314.76 279.00 353.14 L 279.00 386.91 L 335.75 387.20 L 392.50 387.50 L 399.12 390.08 C 408.74 393.82 414.77 397.63 421.07 403.93 C 438.70 421.56 442.85 448.20 431.62 471.60 C 429.80 475.40 427.11 479.91 425.65 481.64 C 424.19 483.37 423.00 485.06 423.00 485.39 C 423.00 485.73 495.45 486.00 584.00 486.00 L 745.00 486.00 L 745.00 402.68 C 745.00 310.32 744.82 313.08 751.50 305.27 C 759.53 295.89 773.37 293.01 784.44 298.43 C 790.29 301.29 793.78 304.80 797.30 311.38 L 799.50 315.50 L 799.76 509.45 C 799.99 680.61 799.85 704.02 798.50 708.63 C 791.71 732.00 759.04 735.07 748.00 713.38 C 745.81 709.07 745.48 706.97 745.16 695.36 L 744.81 682.21 L 741.78 681.61 C 740.11 681.27 636.71 681.00 512.00 681.00 C 387.29 681.00 283.89 681.27 282.22 681.61 L 279.19 682.21 L 278.84 695.36 C 278.51 707.72 278.31 708.82 275.53 713.86 C 272.01 720.22 267.26 724.38 261.13 726.47 C 255.62 728.35 246.85 728.32 241.46 726.41 Z M 256.55 705.55 L 259.00 703.09 L 259.00 512.18 L 259.00 321.27 L 256.93 318.63 C 254.43 315.45 249.19 315.03 246.68 317.80 C 245.18 319.46 245.04 335.48 244.98 512.05 L 244.91 704.50 L 247.06 706.25 C 250.08 708.70 253.66 708.43 256.55 705.55 Z M 777.14 706.09 L 779.50 704.18 L 779.79 514.84 C 779.94 410.70 779.81 324.05 779.50 322.28 C 779.18 320.51 778.23 318.37 777.39 317.53 C 775.19 315.33 769.41 315.59 767.00 318.00 C 765.01 319.99 765.00 321.33 765.00 511.55 L 765.00 703.09 L 767.45 705.55 C 770.40 708.49 773.93 708.69 777.14 706.09 Z M 745.00 637.50 L 745.00 614.00 L 512.00 614.00 L 279.00 614.00 L 279.00 637.50 L 279.00 661.00 L 512.00 661.00 L 745.00 661.00 L 745.00 637.50 Z M 745.00 566.50 L 745.00 540.00 L 512.00 540.00 L 279.00 540.00 L 279.00 566.50 L 279.00 593.00 L 512.00 593.00 L 745.00 593.00 L 745.00 566.50 Z M 745.00 512.50 L 745.00 506.00 L 522.22 506.00 C 277.78 506.00 296.69 506.49 294.02 500.06 C 292.30 495.90 293.48 490.55 296.67 488.04 C 298.91 486.28 300.71 486.00 309.66 486.00 L 320.05 486.00 L 315.95 480.82 C 310.86 474.37 308.80 470.37 306.11 461.64 C 303.71 453.86 303.27 440.54 305.12 431.80 C 306.38 425.85 310.81 415.48 314.01 410.98 L 316.14 408.00 L 297.57 408.00 L 279.00 408.00 L 279.00 463.50 L 279.00 519.00 L 512.00 519.00 L 745.00 519.00 L 745.00 512.50 Z M 395.81 481.08 C 403.25 477.05 409.81 470.12 413.70 462.19 C 416.25 457.01 416.50 455.52 416.50 445.50 C 416.50 435.49 416.25 433.99 413.71 428.82 C 410.04 421.35 400.92 412.90 393.28 409.89 C 388.07 407.83 385.78 407.60 369.98 407.55 L 352.47 407.50 L 345.79 410.79 C 326.81 420.12 319.23 443.29 328.77 462.78 C 331.54 468.45 339.57 477.15 344.49 479.84 C 353.55 484.78 354.72 484.98 372.50 484.74 L 389.50 484.50 L 395.81 481.08 Z" stroke-linecap="round"/>
</g>
</g>
</g>

  </svg>