<svg xmlns="http://www.w3.org/2000/svg" xmlns:xlink="http://www.w3.org/1999/xlink" width="2583px" height="2379px" viewBox="0 0 2583.4749672376493 2379.603364563488">
    <g id="2a011550-4967-412e-8472-4e2b25a03be1">
<g style="">
		<g id="2a011550-4967-412e-8472-4e2b25a03be1-child-0">
<path style="stroke: rgb(193,193,193); stroke-width: 0; stroke-dasharray: none; stroke-linecap: butt; stroke-dashoffset: 0; stroke-linejoin: miter; stroke-miterlimit: 4; fill: rgb(0,0,0); fill-rule: nonzero; opacity: 1;" transform="matrix(4.680318 0 0 4.680318 1291.737559 1189.801751) matrix(1 0 0 1 0 0)  translate(-512.013545, -512.178514)" d="M 257.15 765.91 C 248.22 764.19 240.40 757.58 237.43 749.25 C 236.32 746.16 236.08 704.47 236.05 512.00 L 236.02 278.50 L 238.36 273.50 C 243.05 263.47 251.45 257.99 262.07 258.02 C 273.05 258.06 281.14 263.04 285.62 272.50 C 287.83 277.18 287.98 278.65 287.99 295.75 L 288.00 314.00 L 512.00 314.00 L 736.00 314.00 L 736.08 296.25 C 736.16 277.09 736.60 274.82 741.62 267.72 C 750.53 255.13 771.96 254.63 781.97 266.78 C 788.46 274.65 788.00 256.10 788.00 512.00 C 788.00 767.98 788.46 749.35 781.95 757.24 C 780.31 759.24 776.43 762.11 773.34 763.62 C 760.51 769.90 745.37 765.08 738.69 752.59 C 736.70 748.88 736.47 746.77 736.17 729.86 L 735.85 711.22 L 732.80 710.61 C 728.38 709.73 290.72 709.89 289.33 710.77 C 288.53 711.28 288.06 717.33 287.83 730.01 C 287.53 746.75 287.29 748.89 285.31 752.59 C 279.91 762.69 268.48 768.10 257.15 765.91 Z M 267.29 745.24 C 268.61 743.77 268.93 740.03 269.19 722.91 L 269.50 702.34 L 272.38 698.56 C 273.97 696.48 277.12 693.94 279.38 692.91 C 283.37 691.10 290.96 691.04 512.00 691.04 C 732.04 691.04 740.65 691.11 744.50 692.89 C 749.13 695.03 752.42 698.31 753.93 702.32 C 754.55 703.95 755.00 713.08 755.00 724.07 C 755.00 741.67 755.14 743.14 757.00 745.00 C 759.88 747.88 764.39 747.59 766.93 744.37 C 768.95 741.80 769.00 740.70 769.00 700.37 L 769.00 659.00 L 512.00 659.00 L 255.00 659.00 L 255.00 701.00 C 255.00 741.67 255.06 743.06 257.00 745.00 C 259.52 747.52 265.10 747.65 267.29 745.24 Z M 769.00 618.00 L 769.00 596.00 L 512.00 596.00 L 255.00 596.00 L 255.00 618.00 L 255.00 640.00 L 512.00 640.00 L 769.00 640.00 L 769.00 618.00 Z M 762.75 576.32 L 769.00 575.72 L 769.00 569.36 L 769.00 563.00 L 512.00 563.00 L 255.00 563.00 L 255.00 570.04 L 255.00 577.08 L 505.75 577.00 C 643.66 576.95 759.31 576.65 762.75 576.32 Z M 739.40 541.87 C 738.36 540.69 728.84 531.47 718.27 521.37 L 699.03 503.00 L 511.60 503.00 L 324.17 503.00 L 306.33 520.12 C 296.52 529.53 286.93 538.76 285.02 540.62 L 281.53 544.00 L 511.42 544.00 L 741.31 544.00 L 739.40 541.87 Z M 265.04 533.18 L 269.06 528.50 L 269.02 445.74 C 268.98 373.00 269.17 362.54 270.54 359.26 C 272.61 354.29 275.65 351.13 280.50 348.89 C 284.35 347.11 292.96 347.04 512.18 347.02 C 670.67 347.01 740.73 347.32 742.68 348.06 C 746.69 349.58 750.95 353.84 753.10 358.50 C 754.86 362.29 754.96 366.85 754.98 445.51 L 755.00 528.53 L 761.08 535.26 C 764.42 538.97 767.57 542.00 768.08 542.00 C 768.64 542.00 769.00 490.56 769.00 412.13 L 769.00 282.27 L 766.93 279.63 C 764.32 276.32 759.90 276.12 757.04 279.19 C 755.13 281.23 755.00 282.64 755.00 300.53 C 755.00 318.60 754.87 319.93 752.70 324.04 C 751.12 327.02 749.02 329.12 746.03 330.70 L 741.66 333.01 L 510.92 332.76 L 280.19 332.50 L 276.34 329.43 C 269.47 323.94 269.00 322.05 269.00 299.81 C 269.00 280.59 268.95 280.08 266.78 278.56 C 263.71 276.41 259.39 276.61 257.00 279.00 C 255.02 280.98 255.00 282.33 255.00 411.57 L 255.00 542.14 L 258.01 539.99 C 259.66 538.82 262.83 535.75 265.04 533.18 Z M 299.58 500.10 L 309.39 490.70 L 309.12 464.10 C 308.82 433.97 309.69 427.12 315.11 416.94 C 319.20 409.26 328.51 400.61 336.98 396.59 L 343.50 393.50 L 404.52 393.50 L 465.54 393.50 L 472.08 396.72 C 483.44 402.31 491.96 412.00 495.96 423.89 C 497.81 429.38 498.00 432.42 498.00 456.97 L 498.00 484.00 L 512.00 484.00 L 526.00 484.00 L 526.00 458.21 C 526.00 438.13 526.34 431.10 527.55 426.46 C 531.30 412.05 542.62 400.12 557.34 395.06 C 562.69 393.21 566.28 393.10 620.26 392.96 C 675.00 392.83 677.75 392.91 683.11 394.81 C 698.15 400.13 709.52 412.40 713.47 427.53 C 714.67 432.16 715.00 439.54 715.00 461.94 L 715.00 490.46 L 724.73 500.23 C 730.08 505.60 734.81 510.00 735.23 510.00 C 735.65 510.00 736.00 477.60 736.00 438.00 L 736.00 366.00 L 512.25 366.25 L 288.50 366.50 L 288.31 438.31 C 288.21 477.81 288.49 509.99 288.95 509.81 C 289.40 509.64 294.19 505.27 299.58 500.10 Z M 479.00 457.97 C 479.00 429.55 478.80 428.32 472.99 420.99 C 471.32 418.88 467.63 416.00 464.78 414.58 L 459.61 412.00 L 405.17 412.00 C 366.01 412.00 349.62 412.33 346.76 413.19 C 341.17 414.87 333.74 421.90 330.89 428.22 C 328.62 433.25 328.50 434.67 328.18 458.75 L 327.85 484.00 L 403.42 484.00 L 479.00 484.00 L 479.00 457.97 Z M 696.00 460.18 C 696.00 433.52 695.28 429.15 689.71 421.84 C 687.85 419.41 684.17 416.39 681.12 414.79 L 675.77 412.00 L 620.64 412.01 L 565.50 412.02 L 560.44 414.37 C 557.65 415.67 553.72 418.67 551.67 421.07 C 545.68 428.07 545.00 432.00 545.00 459.68 L 545.00 484.00 L 620.50 484.00 L 696.00 484.00 L 696.00 460.18 Z" stroke-linecap="round"/>
</g>
</g>
</g>

  </svg>