<svg xmlns="http://www.w3.org/2000/svg" xmlns:xlink="http://www.w3.org/1999/xlink" width="500px" height="341px" viewBox="0 0 499.9999999999998 341.30916149301623">
    <g id="9fa465ca-9b24-4f15-9a00-6d4e6b355828">
<g style="">
		<g id="9fa465ca-9b24-4f15-9a00-6d4e6b355828-child-0">
<path style="stroke: rgb(193,193,193); stroke-width: 0; stroke-dasharray: none; stroke-linecap: butt; stroke-dashoffset: 0; stroke-linejoin: miter; stroke-miterlimit: 4; fill: rgb(0,0,0); fill-rule: nonzero; opacity: 1;" transform="matrix(0.871015 0 0 0.871015 249.999869 170.654491) matrix(1 0 0 1 0 0)  translate(-511.821239, -512.924055)" d="M 254.73 707.91 C 241.87 704.88 230.22 692.74 226.54 678.54 C 224.24 669.65 224.21 428.87 226.51 415.38 C 233.81 372.59 263.41 337.38 304.00 323.20 C 322.60 316.71 312.93 317.00 511.10 317.00 C 633.57 317.00 693.31 317.34 698.57 318.07 C 741.28 324.01 779.10 355.20 792.92 395.87 C 798.66 412.76 798.35 405.48 798.70 533.50 C 799.01 644.69 798.93 651.70 797.27 654.93 C 796.29 656.81 794.23 659.29 792.68 660.43 C 790.05 662.36 788.29 662.52 766.30 662.80 L 742.73 663.10 L 743.27 669.03 C 743.88 675.75 746.31 680.36 751.19 684.01 C 753.94 686.08 755.62 686.50 761.12 686.50 C 767.51 686.50 767.89 686.36 772.34 682.25 C 776.38 678.53 777.53 678.00 781.55 678.00 C 785.30 678.00 786.69 678.54 789.08 680.92 C 791.46 683.31 792.00 684.70 792.00 688.45 C 792.00 692.45 791.46 693.63 787.87 697.52 C 785.51 700.08 780.92 703.39 777.14 705.25 C 771.17 708.19 769.67 708.50 761.50 708.50 C 753.22 708.50 751.87 708.21 745.49 705.07 C 732.25 698.55 723.69 686.33 721.64 671.02 L 720.58 663.08 L 677.36 662.79 C 635.32 662.51 634.07 662.44 631.32 660.41 C 626.92 657.15 625.53 653.51 626.92 648.86 C 629.25 641.10 624.65 641.56 705.46 641.00 L 777.50 640.50 L 777.40 623.50 L 777.29 606.50 L 512.15 606.25 L 247.00 606.00 L 246.99 621.25 C 246.98 629.64 246.70 637.51 246.37 638.75 L 245.77 641.00 L 420.93 641.00 C 615.52 641.00 600.62 640.46 603.64 647.67 C 605.54 652.23 604.68 655.98 600.89 659.61 L 597.87 662.50 L 450.65 663.00 L 303.43 663.50 L 303.17 668.50 C 302.66 678.12 298.28 688.57 291.85 695.54 C 281.91 706.33 267.87 711.01 254.73 707.91 Z M 271.63 685.08 C 277.41 681.56 280.37 676.50 280.83 669.38 L 281.23 663.00 L 263.84 663.00 L 246.45 663.00 L 247.01 669.25 C 247.32 672.69 248.08 676.40 248.70 677.50 C 250.04 679.88 254.70 684.29 257.50 685.84 C 260.71 687.60 268.15 687.21 271.63 685.08 Z M 777.00 567.50 L 777.00 550.00 L 645.02 550.00 L 513.03 550.00 L 509.77 547.08 C 506.96 544.58 506.50 543.50 506.50 539.50 C 506.50 535.50 506.96 534.42 509.77 531.92 L 513.03 529.00 L 630.02 529.00 C 694.36 529.00 747.00 528.63 747.00 528.17 C 747.00 527.14 736.28 518.40 728.98 513.48 C 721.15 508.20 710.82 503.16 701.00 499.83 C 683.13 493.76 691.04 494.00 510.98 494.00 C 328.76 494.00 339.49 493.64 320.38 500.47 C 315.24 502.30 308.10 505.45 304.51 507.46 C 297.01 511.65 283.88 521.36 279.56 525.91 L 276.63 529.00 L 377.71 529.00 L 478.79 529.00 L 481.89 531.90 C 484.51 534.35 485.00 535.54 485.00 539.48 C 485.00 543.31 484.47 544.68 482.08 547.08 L 479.15 550.00 L 363.12 550.00 L 247.09 550.00 L 246.80 567.09 C 246.63 576.48 246.69 584.36 246.92 584.59 C 247.15 584.81 366.51 585.00 512.17 585.00 L 777.00 585.00 L 777.00 567.50 Z M 279.51 498.15 C 295.97 486.51 315.08 478.23 334.50 474.31 C 342.98 472.60 353.21 472.50 512.00 472.50 L 680.50 472.50 L 690.69 474.76 C 721.89 481.67 747.20 496.25 769.34 520.09 L 776.74 528.05 L 777.32 517.28 C 777.63 511.35 777.76 487.38 777.60 464.00 C 777.27 416.73 776.80 412.34 770.51 397.68 C 765.89 386.89 761.61 380.03 754.00 371.19 C 741.81 357.04 724.90 346.60 705.50 341.25 L 695.50 338.50 L 511.50 338.50 L 327.50 338.50 L 317.81 341.18 C 300.96 345.83 287.31 353.69 275.28 365.66 C 262.22 378.65 252.15 396.98 248.59 414.22 C 247.25 420.69 247.00 430.38 247.00 474.92 L 247.00 527.92 L 258.76 516.21 C 265.23 509.77 274.57 501.64 279.51 498.15 Z M 289.06 464.62 C 287.20 464.00 284.75 462.23 283.59 460.67 C 281.66 458.07 281.50 456.58 281.56 441.67 C 281.63 423.18 282.90 416.82 288.81 405.55 C 293.70 396.23 304.33 385.59 313.50 380.83 C 326.71 373.97 328.33 373.71 360.97 373.24 C 380.96 372.95 391.64 373.17 394.17 373.93 C 402.12 376.32 404.60 385.05 399.08 391.23 L 396.17 394.50 L 363.83 395.00 C 327.83 395.56 328.36 395.47 318.44 402.96 C 312.09 407.75 307.57 414.42 304.98 422.81 C 303.40 427.90 303.00 432.10 303.00 443.36 C 302.99 455.69 302.74 457.92 301.01 460.75 C 299.92 462.54 298.91 464.00 298.76 464.00 C 298.61 464.00 297.12 464.39 295.46 464.87 C 293.54 465.42 291.19 465.33 289.06 464.62 Z M 726.31 464.10 C 724.56 463.00 722.70 461.30 722.17 460.30 C 721.64 459.31 721.05 450.84 720.85 441.48 C 720.50 424.63 720.47 424.39 717.27 417.89 C 713.32 409.87 705.27 401.95 697.25 398.20 L 691.50 395.50 L 610.46 395.00 C 519.56 394.44 525.26 394.95 522.92 387.14 C 521.53 382.49 522.92 378.85 527.32 375.59 C 530.13 373.51 530.56 373.50 610.82 373.50 L 691.50 373.50 L 699.71 376.28 C 715.25 381.54 729.02 393.18 735.94 406.89 C 741.51 417.92 742.45 422.90 742.47 441.73 L 742.50 458.95 L 739.45 462.01 C 735.47 466.00 730.58 466.77 726.31 464.10 Z M 429.01 393.25 C 422.22 389.84 421.11 383.03 426.42 377.24 L 429.84 373.50 L 459.17 373.18 C 490.38 372.84 493.99 373.23 497.91 377.40 C 502.31 382.09 500.25 390.47 493.90 393.74 C 492.16 394.63 483.43 394.97 462.00 394.98 C 435.89 395.00 432.10 394.80 429.01 393.25 Z" stroke-linecap="round"/>
</g>
</g>
</g>

  </svg>