<svg xmlns="http://www.w3.org/2000/svg" xmlns:xlink="http://www.w3.org/1999/xlink" width="500px" height="318px" viewBox="0 0 499.9999999999998 318.4330921484309">
    <g id="b25caed3-9418-43b8-a963-691c9f5df0fd">
<g style="">
		<g id="b25caed3-9418-43b8-a963-691c9f5df0fd-child-0">
<path style="stroke: rgb(193,193,193); stroke-width: 0; stroke-dasharray: none; stroke-linecap: butt; stroke-dashoffset: 0; stroke-linejoin: miter; stroke-miterlimit: 4; fill: rgb(0,0,0); fill-rule: nonzero; opacity: 1;" transform="matrix(0.951226 0 0 0.951226 249.999905 159.216486) matrix(1 0 0 1 0 0)  translate(-512.022233, -512.400292)" d="M 313.50 679.10 C 305.56 677.07 298.85 670.77 296.86 663.50 C 295.72 659.35 297.12 646.18 305.16 585.20 C 306.85 572.38 307.92 561.58 307.53 561.20 C 307.15 560.81 297.05 560.28 285.09 560.00 C 263.46 559.50 263.32 559.49 259.23 556.77 C 247.52 549.02 245.75 532.20 255.60 522.35 C 262.14 515.81 266.21 515.00 292.52 515.00 L 314.67 515.00 L 316.86 497.75 C 318.06 488.26 319.04 479.94 319.02 479.25 C 319.01 478.35 316.57 478.00 310.25 477.99 C 305.44 477.99 299.87 477.54 297.88 476.98 C 288.91 474.49 282.25 466.78 281.32 457.84 C 280.28 447.70 284.39 439.98 293.17 435.60 L 298.39 433.00 L 326.13 433.00 C 357.64 433.00 354.36 434.09 355.53 423.25 L 356.20 417.00 L 323.05 417.00 L 289.91 417.00 L 287.45 414.55 C 284.42 411.51 284.27 407.20 287.07 403.63 L 289.15 401.00 L 323.60 401.00 C 350.30 401.00 358.15 400.72 358.45 399.75 C 358.66 399.06 359.05 396.62 359.31 394.32 L 359.79 390.15 L 328.64 389.82 C 298.83 389.51 297.32 389.41 293.41 387.31 C 276.46 378.24 277.09 354.86 294.50 346.88 C 298.34 345.12 307.05 345.04 512.50 345.03 L 726.50 345.02 L 731.74 348.02 C 747.38 357.00 746.70 378.60 730.50 387.34 L 726.50 389.50 L 551.38 389.77 L 376.26 390.04 L 375.64 393.77 C 375.30 395.82 375.02 398.29 375.01 399.25 C 375.00 400.91 384.21 401.00 554.55 401.00 L 734.09 401.00 L 736.55 403.45 C 740.49 407.40 739.73 413.05 734.93 415.54 C 732.62 416.73 726.28 417.00 700.55 417.00 L 669.00 417.00 L 669.01 419.75 C 669.01 421.26 669.30 424.86 669.65 427.75 L 670.28 433.00 L 697.96 433.00 L 725.64 433.00 L 731.06 435.75 C 738.46 439.50 742.23 445.01 742.80 452.89 C 743.31 460.02 741.81 465.01 737.74 469.64 C 732.46 475.66 727.91 477.35 715.75 477.81 C 708.61 478.08 705.00 478.60 705.01 479.36 C 705.02 480.71 707.72 504.69 708.53 510.69 L 709.10 514.87 L 733.80 515.19 C 757.08 515.48 758.74 515.63 762.65 517.72 C 778.75 526.33 778.94 548.39 763.00 557.39 L 757.50 560.50 L 737.00 560.57 L 716.50 560.64 L 716.80 564.57 C 716.97 566.73 717.75 573.90 718.53 580.50 C 723.47 622.33 727.00 654.93 727.00 658.77 C 727.00 670.71 713.83 681.69 702.14 679.50 C 694.09 677.99 686.36 671.70 684.13 664.84 C 683.53 663.00 681.67 649.35 680.00 634.50 C 675.76 596.93 672.05 565.92 671.46 563.25 L 670.96 560.99 L 512.25 561.25 L 353.53 561.50 L 352.31 570.50 C 351.63 575.45 348.78 597.05 345.96 618.50 C 340.08 663.39 339.74 665.23 336.47 670.19 C 332.03 676.95 321.32 681.10 313.50 679.10 Z M 322.05 662.16 C 324.17 660.44 324.76 657.10 330.62 613.41 C 334.09 587.61 336.94 565.04 336.96 563.25 L 337.00 560.00 L 331.07 560.00 C 326.28 560.00 325.03 560.34 324.61 561.75 C 324.33 562.71 322.03 579.70 319.51 599.50 C 316.99 619.30 314.27 640.35 313.47 646.28 C 311.62 659.87 311.61 659.61 314.00 662.00 C 316.49 664.49 319.11 664.54 322.05 662.16 Z M 709.10 662.12 L 711.42 660.24 L 709.64 643.37 C 707.08 619.24 700.06 561.72 699.61 561.28 C 699.41 561.07 696.71 560.78 693.62 560.62 C 688.37 560.36 688.00 560.49 688.00 562.59 C 688.00 564.73 691.01 591.64 696.54 639.00 C 698.74 657.79 699.32 660.72 701.14 662.25 C 703.82 664.50 706.20 664.47 709.10 662.12 Z M 757.17 542.35 C 759.45 540.28 759.53 536.24 757.35 533.83 C 755.75 532.07 746.81 532.00 511.92 532.00 C 291.64 532.00 267.99 532.15 266.57 533.57 C 264.52 535.62 264.56 539.86 266.65 542.17 C 268.25 543.93 277.18 544.00 511.83 544.00 C 737.02 544.00 755.48 543.88 757.17 542.35 Z M 345.31 503.25 C 346.21 496.79 347.25 488.46 347.61 484.75 L 348.28 478.00 L 341.81 478.00 L 335.34 478.00 L 333.16 495.75 C 331.95 505.51 330.98 513.84 330.99 514.25 C 330.99 514.66 333.85 515.00 337.34 515.00 L 343.68 515.00 L 345.31 503.25 Z M 663.44 511.75 C 662.63 505.76 660.00 481.11 660.00 479.55 C 660.00 478.16 644.97 478.00 512.52 478.00 L 365.04 478.00 L 364.53 480.25 C 364.25 481.49 363.34 488.12 362.50 495.00 C 361.66 501.88 360.72 509.19 360.40 511.25 L 359.82 515.00 L 511.85 515.00 L 663.87 515.00 L 663.44 511.75 Z M 692.57 510.75 C 692.27 508.41 691.56 502.00 691.00 496.50 C 690.44 491.00 689.73 484.59 689.43 482.25 L 688.88 478.00 L 682.44 478.00 C 677.95 478.00 676.00 478.38 676.01 479.25 C 676.02 481.22 678.91 507.09 679.57 511.25 L 680.18 515.00 L 686.65 515.00 L 693.12 515.00 L 692.57 510.75 Z M 725.00 460.00 C 727.72 457.28 727.61 452.54 724.78 450.56 C 722.78 449.16 700.95 449.00 512.00 449.00 C 323.05 449.00 301.22 449.16 299.22 450.56 C 296.39 452.54 296.28 457.28 299.00 460.00 C 300.99 461.99 302.33 462.00 512.00 462.00 C 721.67 462.00 723.01 461.99 725.00 460.00 Z M 653.52 427.25 C 653.18 424.09 652.68 420.49 652.43 419.25 L 651.96 417.00 L 512.04 417.00 L 372.12 417.00 L 371.52 421.75 C 371.18 424.36 370.69 427.96 370.41 429.75 L 369.91 433.00 L 512.03 433.00 L 654.14 433.00 L 653.52 427.25 Z M 724.46 372.03 C 728.64 368.57 727.87 362.58 723.08 361.23 C 721.66 360.83 626.16 360.50 510.85 360.50 C 306.10 360.50 301.16 360.54 299.10 362.40 C 295.20 365.93 297.08 371.95 302.50 373.29 C 303.60 373.56 398.59 373.72 513.60 373.64 C 695.65 373.52 722.92 373.31 724.46 372.03 Z" stroke-linecap="round"/>
</g>
</g>
</g>

  </svg>