<svg xmlns="http://www.w3.org/2000/svg" xmlns:xlink="http://www.w3.org/1999/xlink" width="500px" height="302px" viewBox="0 0 500 302.42639987056606">
    <g id="1690b724-dcbe-4b8b-b7d3-f55058cd01a9">
<g style="">
		<g id="1690b724-dcbe-4b8b-b7d3-f55058cd01a9-child-0">
<path style="stroke: rgb(193,193,193); stroke-width: 0; stroke-dasharray: none; stroke-linecap: butt; stroke-dashoffset: 0; stroke-linejoin: miter; stroke-miterlimit: 4; fill: rgb(0,0,0); fill-rule: nonzero; opacity: 1;" transform="matrix(0.779453 0 0 0.779453 250.000135 151.213282) matrix(1 0 0 1 0 0)  translate(-512.250421, -512.007677)" d="M 292.50 703.63 C 266.35 698.01 245.18 686.28 226.90 667.29 C 222.25 662.45 216.31 655.51 213.70 651.85 C 204.06 638.32 196.28 619.88 192.87 602.50 C 191.06 593.28 191.06 565.72 192.87 556.50 C 200.72 516.53 226.14 482.82 261.50 465.49 C 280.34 456.26 292.86 453.12 314.00 452.32 C 330.59 451.70 341.09 453.10 356.21 457.96 C 361.27 459.59 365.50 460.83 365.61 460.71 C 365.88 460.43 389.03 416.60 396.97 401.34 L 403.29 389.19 L 397.11 370.84 C 393.70 360.75 390.24 350.63 389.41 348.33 L 387.90 344.17 L 371.20 343.83 C 356.80 343.55 354.11 343.24 351.70 341.60 C 348.00 339.10 346.00 335.03 346.00 330.03 C 346.00 326.80 346.70 325.21 349.42 322.24 L 352.85 318.50 L 401.17 318.19 C 445.68 317.91 449.76 318.03 452.83 319.64 C 461.92 324.44 461.01 338.59 451.36 342.62 C 449.01 343.60 443.32 344.00 431.57 344.00 L 415.07 344.00 L 422.79 366.50 L 430.50 388.99 L 529.72 389.00 L 628.94 389.00 L 619.47 361.11 C 614.26 345.78 610.00 331.94 610.00 330.36 C 610.01 328.79 610.89 326.06 611.96 324.30 C 615.87 317.88 614.79 318.00 669.20 318.01 C 722.65 318.02 723.97 318.14 734.00 323.60 C 745.54 329.88 754.33 340.64 757.50 352.38 C 759.86 361.08 759.20 375.18 756.05 383.32 C 750.96 396.49 738.62 407.93 725.05 412.05 C 719.05 413.88 716.13 414.10 702.01 413.82 L 685.84 413.50 L 682.42 409.76 C 679.56 406.64 679.00 405.28 679.00 401.40 C 679.00 397.35 679.49 396.27 682.88 392.88 L 686.76 389.00 L 699.72 389.00 C 718.41 389.00 725.31 386.44 730.49 377.60 C 735.55 368.97 734.69 358.98 728.26 351.87 C 721.02 343.85 721.94 344.00 679.04 344.00 C 658.12 344.00 641.00 344.14 641.00 344.30 C 641.00 344.47 648.70 367.31 658.11 395.05 C 667.53 422.80 675.94 447.64 676.81 450.26 C 677.95 453.69 678.82 454.89 679.94 454.56 C 686.16 452.75 700.03 451.78 711.95 452.33 C 743.24 453.76 770.53 465.42 793.55 487.22 C 813.44 506.04 826.57 530.65 831.51 558.32 C 834.10 572.82 833.20 595.67 829.49 610.00 C 823.45 633.28 813.98 649.92 797.00 667.09 C 780.86 683.41 764.98 693.47 745.10 699.97 C 723.04 707.18 696.22 707.98 673.50 702.11 C 623.15 689.11 585.58 646.02 579.03 593.77 C 575.31 564.12 583.72 531.34 601.40 506.60 C 612.14 491.56 630.16 475.80 646.00 467.59 C 650.12 465.46 653.61 463.62 653.75 463.52 C 654.44 463.00 643.61 433.12 642.90 433.56 C 642.44 433.85 634.06 442.71 624.28 453.26 C 614.50 463.81 594.77 484.83 580.43 499.97 C 566.08 515.11 545.64 536.72 535.00 548.00 C 524.35 559.28 509.87 574.46 502.81 581.75 L 489.98 595.00 L 467.53 595.00 L 445.09 595.00 L 444.46 598.75 C 438.07 636.62 415.62 669.20 382.37 688.87 C 372.46 694.73 360.27 699.70 348.50 702.68 C 340.19 704.78 335.54 705.27 321.00 705.60 C 305.45 705.95 302.27 705.73 292.50 703.63 Z M 342.52 678.18 C 372.27 670.38 396.26 651.22 409.76 624.50 C 412.59 618.88 417.62 604.32 418.46 599.25 L 419.18 595.00 L 366.54 595.00 C 309.33 595.00 310.60 595.12 306.09 589.39 C 304.62 587.51 304.00 585.29 304.00 581.83 C 304.00 577.43 305.55 573.99 318.94 548.71 C 353.77 482.94 352.95 484.60 351.30 483.31 C 350.46 482.65 345.66 481.10 340.64 479.86 C 327.27 476.56 306.36 476.73 292.99 480.26 C 256.96 489.75 228.96 517.99 219.38 554.50 C 215.79 568.16 215.55 588.09 218.82 601.34 C 223.69 621.06 231.17 634.82 244.80 649.15 C 259.39 664.48 279.59 675.64 299.56 679.41 C 310.89 681.54 331.98 680.94 342.52 678.18 Z M 725.50 679.11 C 756.46 672.68 782.45 653.17 796.40 625.87 C 806.75 605.63 810.23 583.99 806.53 562.88 C 800.80 530.13 780.29 502.69 750.29 487.63 C 734.62 479.77 711.93 475.71 695.48 477.83 C 690.65 478.46 686.50 479.16 686.26 479.40 C 686.02 479.64 693.29 501.97 702.41 529.01 C 712.98 560.33 719.00 579.64 719.00 582.21 C 719.00 585.55 718.34 586.89 715.12 590.12 C 711.77 593.47 710.62 594.00 706.77 594.00 C 703.80 594.00 701.16 593.24 698.90 591.74 C 695.61 589.56 694.96 587.87 678.66 539.24 C 668.12 507.79 661.34 489.00 660.54 489.00 C 658.69 489.00 645.57 497.75 638.17 503.93 C 624.88 515.01 611.66 535.85 607.04 553.00 C 601.19 574.76 603.16 599.48 612.43 620.43 C 619.07 635.46 634.14 653.59 647.53 662.67 C 654.03 667.09 664.88 672.73 672.00 675.39 C 686.72 680.90 709.30 682.47 725.50 679.11 Z M 420.00 566.69 C 420.00 562.98 416.00 548.21 413.00 540.84 C 408.37 529.46 401.27 519.16 391.05 508.99 C 382.43 500.41 376.64 495.94 375.63 497.08 C 375.43 497.31 370.76 506.05 365.25 516.50 C 359.75 526.95 351.37 542.80 346.62 551.72 C 341.88 560.65 338.00 568.18 338.00 568.47 C 338.00 568.76 356.45 569.00 379.00 569.00 L 420.00 569.00 L 420.00 566.69 Z M 464.58 567.34 C 464.22 566.42 458.59 550.11 452.04 531.09 C 433.75 477.87 417.38 430.86 415.85 427.15 L 414.48 423.80 L 401.74 447.78 C 394.73 460.97 389.01 472.15 389.03 472.63 C 389.05 473.11 391.63 475.37 394.78 477.65 C 420.96 496.65 438.82 525.68 444.47 558.38 C 445.31 563.27 446.00 567.65 446.00 568.13 C 446.00 568.61 450.32 569.00 455.61 569.00 C 464.16 569.00 465.14 568.82 464.58 567.34 Z M 513.60 533.46 C 565.59 478.87 623.31 417.31 623.83 415.90 C 624.03 415.37 586.47 415.00 532.08 415.00 C 481.44 415.00 440.00 415.37 440.00 415.82 C 440.00 416.72 483.41 542.89 488.51 556.83 C 488.78 557.57 489.38 558.02 489.85 557.83 C 490.32 557.65 501.01 546.68 513.60 533.46 Z" stroke-linecap="round"/>
</g>
</g>
</g>

  </svg>