<svg xmlns="http://www.w3.org/2000/svg" xmlns:xlink="http://www.w3.org/1999/xlink" width="500px" height="297px" viewBox="0 0 500.00000000000006 296.9745963381656">
    <g id="99b83b4d-8c6b-4533-9baa-e83234f00fe7">
<g style="">
		<g id="99b83b4d-8c6b-4533-9baa-e83234f00fe7-child-0">
<path style="stroke: rgb(193,193,193); stroke-width: 0; stroke-dasharray: none; stroke-linecap: butt; stroke-dashoffset: 0; stroke-linejoin: miter; stroke-miterlimit: 4; fill: rgb(0,0,0); fill-rule: nonzero; opacity: 1;" transform="matrix(0.699001 0 0 0.699001 249.999863 148.487217) matrix(1 0 0 1 0 0)  translate(-512.377396, -511.427761)" d="M 161.30 722.04 C 152.20 716.49 152.64 701.49 162.03 696.75 C 164.58 695.47 167.93 695.00 174.64 695.00 L 183.77 695.00 L 184.15 684.75 C 184.47 676.28 184.93 673.86 186.78 670.85 C 190.99 664.04 201.44 661.77 208.00 666.25 C 213.50 670.00 215.00 674.07 215.00 685.23 L 215.00 695.00 L 242.25 694.97 L 269.50 694.94 L 260.50 691.14 C 222.07 674.89 193.97 639.77 187.98 600.50 C 180.19 549.37 206.37 499.05 253.00 475.53 C 277.46 463.19 306.56 459.91 332.84 466.55 C 338.52 467.99 343.32 469.01 343.51 468.82 C 343.70 468.64 346.30 463.31 349.30 456.99 C 375.29 402.23 383.91 383.86 384.48 382.08 C 385.10 380.10 384.77 380.00 377.82 379.99 C 359.81 379.96 346.52 371.93 338.92 356.49 C 335.72 349.98 335.50 348.91 335.50 339.52 C 335.50 330.35 335.77 328.95 338.63 323.00 C 342.58 314.78 347.32 309.37 354.14 305.29 C 363.78 299.53 367.88 299.00 403.24 299.00 C 438.12 299.00 439.03 299.13 444.50 304.94 C 447.18 307.79 447.50 308.79 447.46 314.32 C 447.43 320.24 446.74 321.90 431.12 354.00 C 422.15 372.42 414.17 388.96 413.39 390.75 L 411.97 394.00 L 512.79 394.00 L 613.60 394.00 L 618.31 383.75 C 620.90 378.11 623.01 373.16 623.01 372.75 C 623.00 372.34 613.31 372.00 601.47 372.00 C 577.60 372.00 574.90 371.47 571.05 366.07 C 567.74 361.42 567.32 356.04 569.86 350.80 C 573.79 342.66 571.25 343.00 628.54 343.00 C 678.30 343.00 679.33 343.04 682.66 345.10 C 687.47 348.07 689.32 352.16 688.78 358.67 C 688.46 362.53 687.66 364.73 685.92 366.60 C 681.65 371.17 678.85 372.00 667.71 372.00 L 657.31 372.00 L 650.28 386.75 L 643.25 401.50 L 660.24 435.33 C 669.59 453.93 677.78 469.36 678.45 469.62 C 679.12 469.88 683.68 468.92 688.58 467.48 C 701.66 463.67 717.37 462.31 730.94 463.82 C 745.50 465.43 757.14 468.86 770.64 475.49 C 805.96 492.84 829.31 523.67 836.55 562.50 C 838.80 574.61 838.10 596.92 835.09 608.86 C 825.24 647.89 796.56 679.42 758.50 693.06 L 753.50 694.85 L 781.25 694.93 L 809.00 695.00 L 809.00 684.75 C 809.01 673.18 810.38 669.62 816.24 665.94 C 820.38 663.34 828.78 663.70 832.73 666.65 C 838.00 670.58 839.35 673.46 839.56 681.23 C 839.67 685.23 839.82 689.96 839.88 691.75 L 840.00 695.00 L 849.25 695.00 C 859.98 695.00 864.17 696.57 867.73 701.90 C 871.72 707.87 870.44 715.46 864.51 721.00 L 861.84 723.50 L 513.17 723.75 C 168.74 723.99 164.46 723.97 161.30 722.04 Z M 428.00 684.65 C 428.00 675.55 428.28 673.88 430.27 670.90 C 436.30 661.87 449.70 661.87 455.73 670.90 C 457.72 673.88 458.00 675.55 458.00 684.65 L 458.00 695.00 L 511.50 695.00 L 565.00 695.00 L 565.00 685.66 C 565.00 677.87 565.38 675.60 567.27 672.01 C 572.97 661.24 588.22 661.25 593.75 672.04 C 595.61 675.66 596.00 678.05 596.00 685.71 L 596.00 695.00 L 639.75 694.97 L 683.50 694.93 L 676.37 692.12 C 653.81 683.22 632.70 666.70 620.04 648.05 C 614.16 639.40 606.58 623.12 603.96 613.50 C 602.76 609.10 601.62 604.94 601.42 604.25 C 601.14 603.28 593.44 603.00 567.25 603.00 C 527.86 603.00 532.08 604.14 519.32 590.00 C 515.10 585.33 495.42 564.21 475.58 543.07 C 455.73 521.93 427.89 492.23 413.69 477.07 C 399.49 461.91 387.55 449.38 387.14 449.23 C 386.47 448.99 370.96 480.61 370.99 482.16 C 370.99 482.53 373.83 484.84 377.28 487.31 C 386.20 493.67 400.59 509.23 406.78 519.21 C 424.50 547.77 429.45 582.38 420.32 613.99 C 410.23 648.93 383.06 678.14 347.63 692.12 L 340.50 694.93 L 384.25 694.97 L 428.00 695.00 L 428.00 684.65 Z M 316.92 669.95 C 352.84 665.45 380.80 641.64 391.69 606.30 C 394.17 598.24 394.40 596.12 394.39 581.00 C 394.39 565.14 394.26 564.13 391.22 555.00 C 387.84 544.90 382.50 534.94 375.67 526.07 C 370.92 519.88 358.98 509.62 357.86 510.75 C 357.24 511.37 334.96 557.16 321.39 585.67 C 317.26 594.36 313.44 597.23 306.00 597.23 C 297.37 597.23 291.00 591.30 291.00 583.27 C 291.00 580.64 292.52 576.26 295.62 569.93 C 298.16 564.74 304.74 551.05 310.24 539.50 C 315.75 527.95 322.55 513.78 325.37 508.00 C 328.18 502.23 330.62 497.20 330.79 496.84 C 330.96 496.48 328.72 495.67 325.80 495.04 C 303.10 490.10 283.58 492.50 263.84 502.66 C 226.21 522.01 207.16 568.11 220.16 608.36 C 230.74 641.12 259.11 664.83 293.81 669.92 C 302.04 671.13 307.47 671.14 316.92 669.95 Z M 740.90 667.97 C 750.02 665.79 763.19 660.03 770.40 655.07 C 791.42 640.60 805.51 616.18 808.02 589.84 C 810.65 562.18 800.43 535.67 779.69 516.40 C 768.13 505.66 752.81 497.59 737.82 494.33 C 727.76 492.14 710.55 492.19 700.50 494.44 C 696.10 495.42 692.19 496.41 691.82 496.63 C 691.45 496.85 700.78 516.65 712.57 540.63 C 735.74 587.77 736.16 588.95 732.01 595.76 C 730.91 597.55 728.55 599.91 726.76 601.01 C 723.63 602.91 721.64 602.99 677.75 603.00 C 625.09 603.00 630.06 601.65 635.29 614.50 C 647.53 644.55 673.52 664.72 706.81 669.99 C 714.91 671.27 731.09 670.31 740.90 667.97 Z M 600.24 567.50 C 602.04 553.05 608.06 535.59 615.85 522.26 C 623.72 508.79 633.71 497.79 647.94 486.95 L 651.28 484.41 L 639.56 461.20 C 633.11 448.44 627.49 438.00 627.07 438.00 C 626.28 438.00 624.46 441.73 594.98 504.00 C 585.21 524.62 574.21 547.80 570.52 555.50 C 566.83 563.20 563.42 570.52 562.93 571.77 L 562.03 574.04 L 580.76 573.77 L 599.49 573.50 L 600.24 567.50 Z M 694.43 571.75 C 692.51 565.58 664.84 512.00 663.58 512.00 C 661.34 512.00 650.35 523.58 644.86 531.70 C 636.73 543.76 630.00 561.40 630.00 570.69 L 630.00 574.00 L 662.57 574.00 L 695.13 574.00 L 694.43 571.75 Z M 537.07 555.86 C 539.81 550.43 564.49 498.26 590.15 443.66 C 595.02 433.29 599.00 424.40 599.00 423.91 C 599.00 423.37 558.97 423.00 501.37 423.00 L 403.74 423.00 L 407.12 426.92 C 408.98 429.08 434.12 455.97 462.98 486.67 C 491.85 517.38 519.52 546.83 524.48 552.13 C 529.44 557.43 533.61 561.82 533.74 561.88 C 533.87 561.95 535.37 559.24 537.07 555.86 Z M 404.08 340.33 C 407.92 332.11 408.77 329.46 407.78 328.78 C 407.08 328.30 398.62 328.05 389.00 328.23 C 374.43 328.51 371.07 328.85 368.90 330.29 C 364.03 333.55 362.65 339.91 365.70 345.07 C 368.59 349.95 372.07 350.95 386.30 350.98 L 399.10 351.00 L 404.08 340.33 Z" stroke-linecap="round"/>
</g>
</g>
</g>

  </svg>