<svg xmlns="http://www.w3.org/2000/svg" xmlns:xlink="http://www.w3.org/1999/xlink" width="1429px" height="1865px" viewBox="0 0 1428.5663131082395 1864.9105499562393">
    <g id="8e9fb19d-6b34-4c99-a1ed-1541f406f4b3">
<g style="">
		<g id="8e9fb19d-6b34-4c99-a1ed-1541f406f4b3-child-0">
<path style="stroke: rgb(193,193,193); stroke-width: 0; stroke-dasharray: none; stroke-linecap: butt; stroke-dashoffset: 0; stroke-linejoin: miter; stroke-miterlimit: 4; fill: rgb(0,0,0); fill-rule: nonzero; opacity: 1;" transform="matrix(3.262532 0 0 3.262532 714.283161 932.455281) matrix(1 0 0 1 0 0)  translate(-511.93522, -512.449848)" d="M 314.50 797.94 C 304.60 797.63 296.36 797.30 296.20 797.19 C 296.03 797.09 295.25 795.44 294.45 793.53 C 293.29 790.76 293.00 783.92 293.00 759.46 L 293.00 728.85 L 295.92 725.92 C 298.67 723.17 299.33 723.00 306.92 723.00 L 315.00 723.00 L 315.00 627.15 C 315.00 561.38 315.34 530.33 316.07 528.22 C 318.34 521.72 327.24 519.80 332.92 524.59 L 336.00 527.18 L 336.00 625.09 L 336.00 723.00 L 362.00 723.00 L 388.00 723.00 L 388.00 670.96 C 388.00 613.22 387.77 615.22 394.59 612.97 C 399.01 611.51 403.15 612.46 406.12 615.63 L 408.50 618.16 L 408.78 670.58 L 409.05 723.00 L 436.01 723.00 L 462.97 723.00 L 463.24 625.10 C 463.49 530.53 463.56 527.14 465.40 525.11 C 468.24 521.97 473.57 520.79 477.50 522.44 C 484.47 525.35 484.00 517.90 484.00 625.72 L 484.00 723.00 L 512.00 723.00 L 540.00 723.00 L 540.00 627.07 C 540.00 569.70 540.38 530.14 540.94 528.66 C 543.67 521.48 552.67 519.52 558.08 524.92 L 561.00 527.85 L 561.00 625.42 L 561.00 723.00 L 587.89 723.00 L 614.77 723.00 L 615.16 708.90 L 615.55 694.79 L 618.79 691.90 C 623.33 687.84 629.01 687.85 633.08 691.92 L 636.00 694.85 L 636.12 708.17 C 636.18 715.50 636.18 721.84 636.12 722.25 C 636.05 722.66 647.70 723.00 662.00 723.00 L 688.00 723.00 L 688.00 626.45 C 688.00 542.29 688.19 529.53 689.51 526.98 C 691.44 523.25 693.83 522.00 699.01 522.00 C 702.26 522.00 703.79 522.63 706.08 524.92 L 709.00 527.85 L 709.00 625.32 L 709.00 722.79 L 717.47 723.15 C 724.68 723.45 726.28 723.84 728.22 725.78 C 730.48 728.04 730.50 728.29 730.79 759.50 C 731.10 793.54 730.73 796.39 725.73 797.44 C 722.48 798.13 335.77 798.60 314.50 797.94 Z M 710.00 761.00 L 710.00 744.00 L 512.00 744.00 L 314.00 744.00 L 314.00 761.00 L 314.00 778.00 L 512.00 778.00 L 710.00 778.00 L 710.00 761.00 Z M 621.39 668.02 C 615.23 665.53 612.77 655.10 617.05 649.66 C 623.59 641.35 637.45 646.38 637.45 657.06 C 637.45 665.86 629.49 671.29 621.39 668.02 Z M 619.08 622.41 L 616.00 619.82 L 616.00 573.83 L 616.00 527.85 L 618.92 524.92 C 622.78 521.07 628.51 520.88 632.78 524.46 L 635.70 526.93 L 636.23 570.88 C 636.52 595.06 636.53 615.99 636.27 617.39 C 634.86 624.74 625.20 627.56 619.08 622.41 Z M 393.39 592.02 C 389.38 590.40 387.00 586.13 387.02 580.62 C 387.06 572.95 391.03 569.00 398.71 569.00 C 403.45 569.00 406.78 571.22 408.61 575.60 C 410.42 579.94 410.36 582.43 408.37 586.64 C 405.80 592.06 399.27 594.40 393.39 592.02 Z M 390.64 545.36 C 388.30 543.02 388.00 541.95 388.00 535.80 C 388.00 527.84 388.90 525.62 392.98 523.51 C 397.86 520.99 401.77 521.57 405.60 525.40 C 408.67 528.47 409.00 529.36 409.00 534.47 C 409.00 543.81 405.60 547.94 397.89 547.98 C 394.22 548.00 392.73 547.46 390.64 545.36 Z M 317.45 507.55 C 314.49 504.58 314.29 499.75 316.48 484.31 C 320.23 457.98 330.30 429.93 343.81 408.19 C 359.98 382.18 384.47 357.60 409.14 342.62 C 429.27 330.40 454.30 320.76 476.39 316.73 L 489.28 314.37 L 484.00 310.50 C 466.24 297.46 460.25 273.25 469.78 253.00 C 472.76 246.66 481.64 236.88 487.58 233.40 C 504.37 223.56 525.35 224.54 540.31 235.86 C 551.99 244.71 557.88 255.38 558.77 269.36 C 559.84 286.19 552.79 301.62 539.69 311.11 C 536.00 313.78 535.93 313.94 538.16 314.41 C 539.45 314.68 545.22 315.85 551.00 317.01 C 632.32 333.39 696.64 401.94 707.54 483.86 C 709.69 500.00 709.50 504.59 706.55 507.55 L 704.09 510.00 L 512.00 510.00 L 319.91 510.00 L 317.45 507.55 Z M 388.73 475.79 C 391.27 448.30 398.84 420.14 409.51 398.44 C 416.11 385.01 428.33 366.35 437.48 355.74 C 444.83 347.21 444.64 347.13 432.10 353.45 C 393.91 372.68 362.15 408.65 346.60 450.27 C 342.99 459.94 338.73 476.30 337.56 485.00 L 336.95 489.50 L 362.23 489.29 L 387.50 489.08 L 388.73 475.79 Z M 442.75 489.01 L 463.00 489.00 L 463.00 470.20 C 463.00 427.22 468.81 388.09 479.99 355.75 C 482.60 348.19 484.55 342.00 484.32 342.00 C 484.08 342.00 480.65 344.41 476.70 347.36 C 469.46 352.76 455.85 366.05 449.94 373.50 C 434.25 393.27 421.60 419.33 414.97 445.50 C 412.10 456.86 409.00 477.74 409.00 485.74 L 409.00 490.29 L 415.75 489.65 C 419.46 489.30 431.61 489.01 442.75 489.01 Z M 515.62 489.00 L 540.00 489.00 L 539.98 471.75 C 539.95 429.52 535.14 394.24 525.36 364.50 C 521.34 352.26 513.64 335.00 512.21 335.00 C 510.74 335.00 504.13 350.29 499.43 364.56 C 494.52 379.48 489.88 400.78 487.58 419.00 C 484.83 440.82 482.94 487.61 484.74 489.41 C 485.15 489.82 486.78 489.89 488.37 489.58 C 489.95 489.26 502.22 489.00 515.62 489.00 Z M 594.24 489.00 L 615.18 489.00 L 614.51 480.25 C 610.21 423.82 584.51 373.85 545.25 345.61 C 542.36 343.53 540.00 342.02 540.00 342.24 C 540.00 342.47 541.10 345.37 542.45 348.69 C 546.23 357.98 551.65 377.16 554.41 391.00 C 558.41 411.05 560.07 429.48 560.70 460.88 L 561.29 490.25 L 567.29 489.63 C 570.59 489.28 582.72 489.00 594.24 489.00 Z M 686.52 488.81 C 686.90 488.43 686.21 483.03 684.98 476.81 C 675.83 430.40 649.25 390.84 609.10 363.86 C 600.18 357.87 582.34 348.00 580.43 348.00 C 580.09 348.00 582.83 351.26 586.51 355.24 C 600.45 370.29 615.81 396.77 623.44 418.88 C 629.97 437.81 633.16 453.25 635.03 475.00 C 635.62 481.88 636.25 487.95 636.43 488.50 C 636.79 489.64 685.39 489.94 686.52 488.81 Z M 523.59 296.39 C 539.18 288.99 542.82 267.84 530.69 255.16 C 523.88 248.04 514.34 245.60 504.53 248.45 C 494.26 251.43 486.00 262.38 486.00 273.00 C 486.00 283.06 494.20 294.41 503.64 297.43 C 509.62 299.34 518.33 298.88 523.59 296.39 Z" stroke-linecap="round"/>
</g>
</g>
</g>

  </svg>