<svg xmlns="http://www.w3.org/2000/svg" xmlns:xlink="http://www.w3.org/1999/xlink" width="399px" height="500px" viewBox="0 0 399.1092409677813 500">
    <g id="fd610dc2-f617-47ea-84cc-e58b92c12f76">
<g style="">
		<g id="fd610dc2-f617-47ea-84cc-e58b92c12f76-child-0">
<path style="stroke: rgb(193,193,193); stroke-width: 0; stroke-dasharray: none; stroke-linecap: butt; stroke-dashoffset: 0; stroke-linejoin: miter; stroke-miterlimit: 4; fill: rgb(0,0,0); fill-rule: nonzero; opacity: 1;" transform="matrix(1.018288 0 0 1.018288 199.554531 249.999887) matrix(1 0 0 1 0 0)  translate(-512.035433, -511.49)" d="M 326.91 754.67 C 317.21 749.55 313.26 737.51 318.19 728.06 C 320.80 723.04 323.82 720.51 329.56 718.54 L 333.50 717.19 L 333.74 511.84 L 333.98 306.50 L 328.02 303.73 C 320.04 300.01 316.49 294.37 316.52 285.40 C 316.54 277.29 319.75 272.25 327.23 268.59 L 332.55 265.98 L 513.69 266.24 L 694.83 266.50 L 699.16 269.51 C 712.99 279.13 709.61 300.68 693.58 305.11 L 690.00 306.09 L 689.83 363.80 C 689.28 546.78 689.23 685.66 689.72 700.75 C 690.25 717.62 690.31 718.00 692.44 718.00 C 693.63 718.00 696.75 719.36 699.36 721.01 C 712.39 729.28 710.29 749.38 695.77 755.45 C 692.47 756.83 672.23 757.00 511.69 757.00 L 331.31 757.00 L 326.91 754.67 Z M 690.92 742.54 C 695.93 739.95 695.61 733.94 690.37 731.95 C 688.82 731.36 620.52 731.00 510.89 731.00 L 333.91 731.00 L 331.45 733.45 C 328.31 736.60 328.37 737.52 331.92 741.08 L 334.85 744.00 L 511.47 744.00 C 664.36 744.00 688.48 743.80 690.92 742.54 Z M 386.78 717.25 C 380.98 705.93 380.27 698.89 384.04 690.13 C 386.53 684.34 393.22 677.77 398.61 675.82 L 402.00 674.60 L 402.00 663.37 C 402.00 654.84 402.35 651.79 403.47 650.68 C 405.54 648.60 426.17 647.78 466.34 648.18 L 499.18 648.50 L 501.09 650.86 C 502.68 652.82 503.00 654.86 503.00 662.99 C 503.00 673.80 503.11 673.95 510.55 673.99 C 515.07 674.01 523.51 678.61 527.44 683.20 C 534.34 691.26 536.05 703.62 531.50 712.58 C 530.13 715.29 529.01 717.50 529.00 717.50 C 529.00 717.50 555.89 717.38 588.75 717.23 C 621.61 717.08 649.06 716.97 649.75 716.98 C 650.73 717.00 651.00 708.24 651.00 676.50 L 651.00 636.00 L 512.52 636.00 L 374.04 636.00 L 373.77 676.58 C 373.62 698.91 373.69 717.36 373.92 717.58 C 374.67 718.34 387.17 718.02 386.78 717.25 Z M 675.75 511.75 L 676.00 306.00 L 670.00 306.00 L 664.00 306.00 L 664.00 511.33 C 664.00 624.27 664.32 716.99 664.71 717.38 C 665.10 717.77 667.69 717.96 670.46 717.79 L 675.50 717.50 L 675.75 511.75 Z M 360.00 511.50 L 360.00 306.00 L 354.00 306.00 L 348.00 306.00 L 348.00 511.50 L 348.00 717.00 L 354.00 717.00 L 360.00 717.00 L 360.00 511.50 Z M 511.98 715.25 C 516.02 713.22 519.68 708.20 520.57 703.49 C 521.54 698.29 518.09 691.59 513.12 689.06 C 509.19 687.06 507.63 687.00 457.77 687.00 C 409.76 687.00 406.25 687.12 402.98 688.85 C 391.64 694.88 392.85 711.03 405.00 715.88 C 406.54 716.49 426.94 716.90 458.00 716.94 C 504.16 716.99 508.80 716.85 511.98 715.25 Z M 489.00 667.50 L 489.00 662.00 L 452.00 662.00 L 415.00 662.00 L 415.00 667.50 L 415.00 673.00 L 452.00 673.00 L 489.00 673.00 L 489.00 667.50 Z M 651.00 616.00 L 651.00 610.00 L 512.50 610.00 L 374.00 610.00 L 374.00 616.00 L 374.00 622.00 L 512.50 622.00 L 651.00 622.00 L 651.00 616.00 Z M 423.08 550.94 C 422.89 508.43 422.96 506.27 424.78 504.02 C 427.35 500.85 432.62 500.81 435.16 503.94 C 436.89 506.08 437.00 508.98 437.00 551.11 L 437.00 596.00 L 440.05 596.00 L 443.10 596.00 L 442.80 542.25 L 442.50 488.50 L 429.75 488.22 L 417.00 487.94 L 417.00 542.03 L 417.00 596.13 L 420.14 595.81 L 423.28 595.50 L 423.08 550.94 Z M 506.00 595.51 C 506.00 595.24 503.59 590.63 500.65 585.26 C 497.71 579.89 492.29 569.76 488.60 562.75 C 484.91 555.74 481.69 550.00 481.44 550.00 C 481.20 550.00 481.00 560.35 481.00 573.00 L 481.00 596.00 L 493.50 596.00 C 500.38 596.00 506.00 595.78 506.00 595.51 Z M 651.00 542.00 L 651.00 488.00 L 566.00 488.00 L 481.00 488.00 L 481.00 497.03 L 481.00 506.05 L 488.02 502.42 C 498.64 496.93 495.11 492.50 524.86 548.60 C 535.39 568.46 544.00 585.16 544.00 585.72 C 544.00 587.64 539.81 592.05 536.16 593.98 C 532.50 595.91 532.57 595.91 591.75 595.96 L 651.00 596.00 L 651.00 542.00 Z M 403.00 561.50 L 403.00 533.00 L 388.50 533.00 L 374.00 533.00 L 374.00 561.50 L 374.00 590.00 L 388.50 590.00 L 403.00 590.00 L 403.00 561.50 Z M 467.76 543.75 L 467.50 499.50 L 462.00 499.50 L 456.50 499.50 L 456.24 543.75 L 455.98 588.00 L 462.00 588.00 L 468.02 588.00 L 467.76 543.75 Z M 522.66 585.46 C 525.05 584.06 526.99 582.60 526.98 582.21 C 526.96 581.26 494.54 520.03 492.79 517.62 C 491.46 515.79 491.31 515.80 487.28 517.86 C 485.00 519.02 482.92 520.32 482.65 520.75 C 482.39 521.18 484.97 526.70 488.39 533.02 C 491.81 539.33 499.73 554.29 506.00 566.25 C 512.26 578.21 517.60 588.00 517.86 588.00 C 518.11 588.00 520.28 586.86 522.66 585.46 Z M 403.00 512.50 L 403.00 506.00 L 388.50 506.00 L 374.00 506.00 L 374.00 512.50 L 374.00 519.00 L 388.50 519.00 L 403.00 519.00 L 403.00 512.50 Z M 403.00 490.00 C 403.00 488.09 402.33 488.00 388.50 488.00 C 374.67 488.00 374.00 488.09 374.00 490.00 C 374.00 491.91 374.67 492.00 388.50 492.00 C 402.33 492.00 403.00 491.91 403.00 490.00 Z M 651.00 468.00 L 651.00 462.00 L 512.50 462.00 L 374.00 462.00 L 374.00 468.00 L 374.00 474.00 L 512.50 474.00 L 651.00 474.00 L 651.00 468.00 Z M 404.00 390.00 L 404.00 332.00 L 389.00 332.00 L 374.00 332.00 L 374.00 390.00 L 374.00 448.00 L 389.00 448.00 L 404.00 448.00 L 404.00 390.00 Z M 429.00 397.50 L 429.00 347.00 L 423.50 347.00 L 418.00 347.00 L 418.00 397.50 L 418.00 448.00 L 423.50 448.00 L 429.00 448.00 L 429.00 397.50 Z M 464.04 442.75 C 461.97 436.88 445.80 393.04 444.13 388.75 C 443.53 387.24 442.81 386.00 442.52 386.00 C 442.24 386.00 442.00 399.95 442.00 417.00 L 442.00 448.00 L 453.95 448.00 L 465.89 448.00 L 464.04 442.75 Z M 546.20 444.70 C 544.44 442.89 543.00 440.61 543.00 439.65 C 543.00 438.68 550.71 423.40 560.14 405.70 C 569.57 387.99 580.43 367.55 584.27 360.28 C 588.52 352.23 592.00 346.82 593.16 346.45 C 594.34 346.07 598.04 347.39 603.03 349.95 L 611.00 354.06 L 611.00 340.48 C 611.00 327.40 611.09 326.82 613.45 324.45 C 615.87 322.04 616.16 322.00 633.45 322.00 L 651.00 322.00 L 651.00 314.00 L 651.00 306.00 L 512.50 306.00 L 374.00 306.00 L 374.00 312.50 L 374.00 319.00 L 393.50 319.00 C 411.67 319.00 413.14 319.14 415.00 321.00 C 416.10 322.10 417.08 324.24 417.17 325.75 C 417.27 327.26 417.39 329.40 417.44 330.50 C 417.54 332.36 418.28 332.51 427.96 332.61 C 437.97 332.72 438.45 332.83 440.49 335.39 L 442.61 338.05 L 449.94 335.02 C 458.78 331.38 460.31 331.30 462.72 334.38 C 463.75 335.68 471.05 353.57 478.94 374.13 C 486.82 394.68 495.02 415.94 497.14 421.36 C 499.26 426.78 501.00 432.22 501.00 433.45 C 501.00 436.53 498.75 438.31 488.41 443.44 L 479.50 447.86 L 514.45 447.93 L 549.39 448.00 L 546.20 444.70 Z M 610.37 421.25 C 610.04 406.54 609.70 394.41 609.61 394.31 C 609.43 394.10 586.64 436.56 583.07 443.75 L 580.96 448.00 L 595.97 448.00 L 610.97 448.00 L 610.37 421.25 Z M 651.00 413.00 L 651.00 378.00 L 637.50 378.00 L 624.00 378.00 L 624.00 413.00 L 624.00 448.00 L 637.50 448.00 L 651.00 448.00 L 651.00 413.00 Z M 571.86 435.42 C 573.70 432.16 581.97 416.91 590.22 401.51 C 598.47 386.12 605.85 372.63 606.61 371.54 C 608.76 368.47 608.36 367.70 603.03 364.71 L 598.06 361.92 L 593.48 371.03 C 589.03 379.90 583.96 389.45 567.16 420.63 C 562.67 428.96 559.00 436.18 559.00 436.69 C 559.00 437.87 566.18 442.05 567.50 441.64 C 568.05 441.47 570.01 438.67 571.86 435.42 Z M 484.34 427.81 C 484.25 426.46 478.12 409.64 470.73 390.43 C 463.33 371.22 456.73 353.81 456.06 351.75 C 455.39 349.69 454.47 348.00 454.01 348.00 C 453.54 348.00 451.13 348.87 448.64 349.94 L 444.12 351.88 L 449.63 366.19 C 452.66 374.06 459.36 391.63 464.53 405.24 C 469.69 418.84 474.39 430.86 474.97 431.94 C 476.00 433.87 476.10 433.87 480.26 432.08 C 483.70 430.60 484.47 429.79 484.34 427.81 Z M 651.00 357.47 L 651.00 350.94 L 637.75 351.22 L 624.50 351.50 L 624.20 357.75 L 623.90 364.00 L 637.45 364.00 L 651.00 364.00 L 651.00 357.47 Z M 639.25 336.26 C 636.36 336.06 631.64 336.06 628.75 336.26 C 625.86 336.46 628.22 336.63 634.00 336.63 C 639.78 336.63 642.14 336.46 639.25 336.26 Z M 692.21 290.75 C 694.93 288.61 695.21 285.54 692.94 282.66 L 690.85 280.00 L 512.26 280.00 C 347.47 280.00 333.52 280.13 331.83 281.65 C 329.27 283.97 329.48 288.52 332.22 290.44 C 334.21 291.84 352.97 292.00 512.53 292.00 C 653.49 292.00 690.95 291.74 692.21 290.75 Z M 409.63 706.93 C 406.66 704.59 406.15 700.55 408.42 697.44 C 409.77 695.59 411.52 695.49 444.93 695.21 L 480.02 694.93 L 482.51 697.42 C 485.66 700.57 485.67 703.42 482.55 706.55 L 480.09 709.00 L 446.18 709.00 C 413.39 709.00 412.18 708.93 409.63 706.93 Z M 496.00 707.00 C 491.65 702.65 495.24 695.00 501.64 695.00 C 505.30 695.00 509.00 698.59 509.00 702.14 C 509.00 707.95 500.23 711.23 496.00 707.00 Z M 387.00 582.28 C 382.28 580.58 382.00 579.48 382.02 563.10 C 382.02 554.52 382.36 547.00 382.77 546.40 C 383.77 544.90 387.52 543.00 389.48 543.00 C 390.37 543.00 392.20 544.10 393.55 545.45 C 395.93 547.84 396.00 548.32 396.00 562.84 C 396.00 575.63 395.75 578.07 394.25 579.80 C 392.29 582.06 389.27 583.10 387.00 582.28 Z M 384.63 436.93 C 381.19 434.22 381.11 429.79 384.45 426.45 C 387.54 423.37 391.01 423.32 393.83 426.31 C 396.90 429.59 396.70 434.31 393.37 436.93 C 391.92 438.07 389.95 439.00 389.00 439.00 C 388.05 439.00 386.08 438.07 384.63 436.93 Z M 384.63 414.93 L 382.00 412.85 L 382.00 381.15 C 382.00 354.07 382.23 349.12 383.56 347.22 C 385.59 344.32 391.20 344.20 394.00 347.00 C 395.92 348.92 396.00 350.33 396.00 380.55 L 396.00 412.09 L 393.55 414.55 C 390.55 417.54 388.10 417.65 384.63 414.93 Z M 632.00 438.00 C 630.12 436.12 630.00 434.67 630.00 414.50 C 630.00 394.33 630.12 392.88 632.00 391.00 C 634.70 388.30 639.13 388.44 641.83 391.31 C 643.92 393.54 644.00 394.43 644.00 415.26 C 644.00 436.47 643.96 436.92 641.78 438.44 C 638.71 440.59 634.39 440.39 632.00 438.00 Z" stroke-linecap="round"/>
</g>
</g>
</g>

  </svg>