<svg xmlns="http://www.w3.org/2000/svg" xmlns:xlink="http://www.w3.org/1999/xlink" width="2583px" height="1677px" viewBox="0 0 2583.4749672376493 1677.1093647171992">
    <g id="0c80c426-4a21-4df7-9f03-a7d75acdb993">
<g style="">
		<g id="0c80c426-4a21-4df7-9f03-a7d75acdb993-child-0">
<path style="stroke: rgb(193,193,193); stroke-width: 0; stroke-dasharray: none; stroke-linecap: butt; stroke-dashoffset: 0; stroke-linejoin: miter; stroke-miterlimit: 4; fill: rgb(0,0,0); fill-rule: nonzero; opacity: 1;" transform="matrix(4.036364 0 0 4.036364 1291.737389 838.554621) matrix(1 0 0 1 0 0)  translate(-512.025, -512.25)" d="M 193.65 718.17 C 192.16 716.52 192.00 711.36 192.00 664.78 C 192.00 615.51 192.08 613.12 193.91 610.86 L 195.82 608.50 L 512.00 608.50 L 828.18 608.50 L 830.09 610.86 C 831.92 613.12 832.00 615.51 832.00 664.96 C 832.00 713.81 831.90 716.78 830.17 718.35 C 828.56 719.81 824.89 720.00 798.83 720.00 C 771.50 720.00 769.19 719.86 767.65 718.17 C 766.24 716.61 766.00 713.64 766.00 697.67 L 766.00 679.00 L 512.00 679.00 L 258.00 679.00 L 258.00 697.85 C 258.00 714.83 257.82 716.85 256.17 718.35 C 254.56 719.81 250.89 720.00 224.83 720.00 C 197.50 720.00 195.19 719.86 193.65 718.17 Z M 237.19 680.91 C 237.49 662.23 237.55 661.78 239.86 659.91 C 242.17 658.04 247.96 658.00 511.92 658.00 C 743.07 658.00 781.90 658.20 783.56 659.42 C 785.33 660.71 785.54 662.51 786.00 680.17 L 786.50 699.50 L 799.00 699.50 L 811.50 699.50 L 811.50 664.50 L 811.50 629.50 L 512.41 629.25 L 213.31 629.00 L 212.61 663.51 C 212.22 682.50 212.18 698.48 212.51 699.02 C 212.85 699.57 218.29 700.00 225.00 700.00 L 236.88 700.00 L 237.19 680.91 Z M 215.88 583.70 C 208.04 581.02 202.91 577.33 198.63 571.31 C 191.97 561.94 192.09 563.09 192.04 504.39 L 192.00 451.28 L 209.15 424.89 C 218.59 410.38 232.00 389.73 238.95 379.00 C 284.09 309.41 281.35 313.00 293.57 307.28 L 299.50 304.50 L 512.50 304.50 L 725.50 304.50 L 731.03 307.22 C 739.68 311.46 744.75 316.54 752.82 328.98 C 756.92 335.32 766.46 349.95 774.01 361.50 C 781.57 373.05 797.72 397.98 809.90 416.91 L 832.05 451.31 L 831.77 505.91 L 831.50 560.50 L 829.20 565.16 C 825.52 572.64 819.60 578.58 812.22 582.21 L 805.54 585.50 L 514.02 585.73 L 222.50 585.96 L 215.88 583.70 Z M 803.93 563.25 C 805.81 562.29 808.29 560.23 809.43 558.68 C 811.43 555.95 811.50 554.68 811.50 521.18 L 811.50 486.50 L 512.25 486.25 L 213.00 486.00 L 212.82 517.75 C 212.60 555.82 212.59 555.62 215.21 559.30 C 219.51 565.33 198.06 564.92 512.00 564.96 C 784.73 564.99 800.69 564.90 803.93 563.25 Z M 811.26 460.75 C 810.83 457.39 806.31 449.67 789.73 424.00 C 778.19 406.12 768.53 390.94 768.27 390.25 C 767.91 389.31 763.18 389.00 749.36 389.00 C 729.54 389.00 725.70 388.27 722.63 383.88 C 720.57 380.94 720.53 375.12 722.55 372.23 C 725.24 368.39 728.13 367.54 740.20 367.01 L 751.89 366.50 L 742.52 351.50 C 729.26 330.28 728.53 329.31 724.08 327.04 C 720.09 325.01 719.47 325.00 511.79 325.02 L 303.50 325.03 L 299.52 327.29 C 296.30 329.11 293.48 332.78 284.75 346.52 C 278.82 355.86 273.51 364.29 272.95 365.25 C 271.98 366.91 276.45 367.00 361.00 367.00 C 457.52 367.00 454.89 366.85 458.52 372.39 C 461.27 376.59 460.70 381.76 457.08 385.38 L 453.96 388.50 L 355.57 388.77 L 257.18 389.04 L 248.92 401.77 C 244.38 408.77 234.44 424.04 226.83 435.70 C 214.83 454.10 213.00 457.44 213.00 460.95 L 213.00 465.00 L 512.40 465.00 L 811.81 465.00 L 811.26 460.75 Z M 244.31 534.54 C 237.46 531.55 236.28 522.47 242.11 517.56 L 245.15 515.00 L 287.63 515.00 C 333.69 515.00 334.35 515.07 336.81 520.47 C 339.42 526.22 337.57 531.62 331.99 534.51 C 327.87 536.63 249.20 536.66 244.31 534.54 Z M 418.01 534.26 C 411.21 530.82 410.05 523.75 415.40 518.40 L 418.80 515.00 L 463.95 515.00 C 513.61 515.00 513.51 514.99 516.02 521.04 C 517.78 525.30 516.32 530.70 512.68 533.40 C 509.93 535.45 508.75 535.51 465.68 535.76 C 425.13 536.01 421.21 535.88 418.01 534.26 Z M 494.21 387.49 C 488.38 384.96 486.62 376.59 490.88 371.61 C 494.89 366.93 493.35 367.00 590.50 367.00 C 690.79 367.00 687.29 366.79 690.43 372.87 C 692.41 376.70 692.41 379.30 690.43 383.13 C 687.29 389.21 690.87 389.00 589.78 388.96 C 512.08 388.93 496.98 388.70 494.21 387.49 Z" stroke-linecap="round"/>
</g>
</g>
</g>

  </svg>