<svg xmlns="http://www.w3.org/2000/svg" xmlns:xlink="http://www.w3.org/1999/xlink" width="706px" height="587px" viewBox="0 0 706.3740856844306 587.5719750857004">
    <g id="5423cbe8-a59e-4eb1-8758-bfe3c43062da">
<g style="">
		<g id="5423cbe8-a59e-4eb1-8758-bfe3c43062da-child-0">
<path style="stroke: rgb(193,193,193); stroke-width: 0; stroke-dasharray: none; stroke-linecap: butt; stroke-dashoffset: 0; stroke-linejoin: miter; stroke-miterlimit: 4; fill: rgb(0,0,0); fill-rule: nonzero; opacity: 1;" transform="matrix(1.060549 0 0 1.060549 353.187171 293.786095) matrix(1 0 0 1 0 0)  translate(-511.977036, -511.986779)" d="M 256.56 786.95 C 251.14 784.25 248.22 781.33 245.40 775.78 L 243.00 771.07 L 243.00 679.53 L 243.00 588.00 L 218.32 588.00 C 195.12 588.00 193.36 587.87 189.20 585.86 C 181.13 581.95 176.88 571.71 179.96 563.60 C 180.49 562.21 189.39 549.69 199.75 535.79 C 223.80 503.48 241.78 479.19 247.49 471.27 C 255.16 460.66 255.54 460.56 288.31 460.19 L 316.12 459.88 L 303.91 452.19 C 288.94 442.76 280.33 435.00 276.28 427.28 C 274.62 424.10 266.84 400.60 259.01 375.07 C 245.60 331.39 244.79 328.26 245.26 322.36 C 246.17 311.03 253.24 302.73 264.85 299.35 C 271.90 297.31 278.52 298.07 285.21 301.71 C 294.69 306.86 294.38 306.12 313.92 369.88 C 318.36 384.40 322.00 397.22 322.00 398.38 C 321.99 401.63 318.31 406.93 315.26 408.09 C 311.52 409.51 306.71 408.44 303.82 405.55 C 302.31 404.03 300.41 399.68 298.72 393.82 C 290.53 365.55 276.04 320.64 274.87 319.90 C 271.61 317.83 266.00 320.31 266.00 323.81 C 266.00 324.95 275.16 355.32 287.77 396.00 C 296.76 424.99 292.85 421.40 350.33 453.41 L 362.15 460.00 L 380.91 460.00 L 399.66 460.00 L 399.22 454.69 C 398.81 449.67 399.20 448.57 406.45 434.44 C 416.01 415.80 424.13 397.59 426.89 388.64 C 430.44 377.11 429.97 373.73 420.57 343.56 C 415.93 328.68 409.84 308.87 407.02 299.54 C 404.21 290.22 401.42 282.01 400.83 281.29 C 399.21 279.35 394.55 279.74 392.50 282.00 C 390.53 284.18 389.72 281.17 410.66 348.97 C 416.50 367.87 416.65 370.08 412.30 374.43 C 406.54 380.19 396.26 376.41 393.92 367.68 C 393.30 365.38 387.67 347.09 381.40 327.03 C 368.71 286.44 368.19 283.42 372.37 274.44 C 380.28 257.46 404.68 253.63 416.82 267.45 C 420.86 272.04 420.56 271.30 429.17 299.00 C 433.01 311.38 439.37 331.62 443.29 344.00 C 450.01 365.21 450.41 367.02 450.35 375.50 C 450.24 389.14 444.94 404.24 429.30 435.50 C 421.55 450.97 420.87 452.82 421.64 456.00 L 422.50 459.50 L 452.32 459.76 L 482.13 460.03 L 481.74 416.76 C 481.30 367.39 482.11 373.18 470.57 337.18 C 462.87 313.19 461.00 304.16 461.00 291.10 C 461.00 273.78 466.00 260.85 476.92 249.91 C 504.62 222.17 549.96 234.80 561.63 273.50 C 562.95 277.87 563.42 282.63 563.38 291.00 C 563.30 304.12 560.59 316.79 552.48 341.89 C 542.76 371.97 542.76 372.03 542.26 418.75 L 541.83 460.00 L 560.96 460.00 L 580.09 460.00 L 583.87 451.75 C 585.95 447.21 589.97 438.09 592.81 431.47 L 597.96 419.45 L 593.90 409.12 C 579.69 372.91 580.91 333.74 597.62 289.79 C 603.19 275.12 615.97 248.74 619.20 245.24 C 620.47 243.86 623.30 241.91 625.50 240.89 C 633.63 237.14 634.32 237.38 677.56 258.61 C 699.53 269.40 722.90 280.82 729.50 284.00 C 781.07 308.82 794.67 315.82 797.24 318.88 C 800.47 322.72 802.40 329.18 801.66 333.72 C 800.25 342.39 785.23 370.85 773.01 388.00 C 746.85 424.73 713.20 448.49 673.00 458.62 C 670.76 459.18 686.60 459.68 717.00 460.00 C 769.46 460.55 767.19 460.27 773.59 467.16 C 776.94 470.77 835.08 549.42 841.25 558.69 C 844.30 563.27 845.00 565.23 845.00 569.20 C 845.00 575.64 842.02 581.30 836.81 584.75 L 832.65 587.50 L 807.33 587.81 L 782.00 588.12 L 782.00 677.90 C 782.00 775.17 782.11 773.05 776.55 780.35 C 775.06 782.30 771.54 785.05 768.72 786.45 L 763.61 789.00 L 512.05 788.96 C 263.94 788.92 260.45 788.89 256.56 786.95 Z M 759.07 767.96 C 760.96 766.95 761.00 764.89 761.00 677.46 L 761.00 588.00 L 674.25 587.98 C 591.87 587.96 587.30 587.86 583.50 586.10 C 577.90 583.50 575.86 581.06 552.93 549.50 C 517.45 500.66 512.91 494.51 512.20 494.27 C 511.81 494.15 507.37 499.77 502.31 506.77 C 482.23 534.59 451.86 575.74 448.35 579.88 C 441.03 588.51 447.85 587.95 349.75 587.98 L 263.00 588.00 L 263.00 676.50 C 263.00 763.67 263.03 765.03 265.00 767.00 C 266.99 768.99 268.33 769.00 512.07 769.00 C 679.08 769.00 757.75 768.67 759.07 767.96 Z M 443.79 551.25 C 463.69 524.76 495.00 482.15 495.00 481.56 C 495.00 481.25 443.52 481.00 380.59 481.00 L 266.19 481.00 L 256.76 493.75 C 251.57 500.76 237.35 519.88 225.16 536.24 C 212.97 552.60 203.00 566.21 203.00 566.49 C 203.00 566.77 254.51 567.00 317.48 567.00 L 431.95 567.00 L 443.79 551.25 Z M 817.62 561.25 C 815.21 558.09 804.80 544.03 794.49 530.00 C 784.17 515.97 771.86 499.23 767.12 492.79 L 758.50 481.07 L 643.63 481.04 C 529.53 481.00 528.77 481.01 530.13 482.97 C 531.41 484.82 553.37 514.65 580.25 551.08 L 591.99 567.00 L 707.00 567.00 L 822.00 567.00 L 817.62 561.25 Z M 521.03 424.75 C 521.04 405.36 521.49 385.04 522.02 379.59 C 523.22 367.22 526.63 352.89 533.00 333.43 C 540.13 311.65 542.25 302.07 542.38 291.00 C 542.54 278.04 540.51 272.35 533.08 264.92 C 526.01 257.85 519.84 255.53 510.02 256.23 C 493.60 257.41 483.14 269.40 482.20 288.14 C 481.64 299.25 484.03 310.65 491.98 334.76 C 502.33 366.20 502.28 365.79 502.74 416.25 L 503.13 460.00 L 512.07 460.00 L 521.00 460.00 L 521.03 424.75 Z M 648.91 453.54 C 652.95 445.33 657.55 441.49 666.50 438.90 C 689.19 432.30 703.26 425.96 716.88 416.20 C 734.54 403.53 746.21 391.10 759.87 370.43 C 769.73 355.50 780.95 333.54 779.46 332.07 C 778.07 330.69 638.37 262.13 635.46 261.40 C 633.21 260.84 632.70 261.50 628.42 270.65 C 611.61 306.52 605.00 330.81 605.00 356.64 C 605.00 373.52 607.26 385.51 613.56 402.03 C 620.26 419.59 620.16 421.08 611.12 441.96 C 607.21 451.01 604.00 458.77 604.00 459.21 C 604.00 459.64 613.39 460.00 624.86 460.00 L 645.73 460.00 L 648.91 453.54 Z M 342.11 395.33 C 332.65 390.36 332.02 389.07 319.36 348.84 C 313.07 328.85 307.66 310.22 307.34 307.43 C 305.61 292.42 316.73 279.51 332.47 278.25 C 342.83 277.42 351.97 281.68 356.54 289.48 C 359.19 294.00 380.68 362.41 381.64 369.36 C 382.56 376.09 379.82 383.97 374.75 389.18 C 368.85 395.24 364.01 397.35 355.00 397.80 C 348.30 398.13 346.92 397.87 342.11 395.33 Z M 358.80 375.80 C 359.46 375.14 360.00 373.47 360.00 372.08 C 360.00 369.37 340.78 306.17 338.69 302.00 C 336.88 298.39 331.69 298.01 329.51 301.34 C 327.98 303.68 328.21 304.76 334.41 324.65 C 337.98 336.12 342.93 352.21 345.39 360.40 C 347.86 368.60 350.47 375.68 351.19 376.14 C 353.13 377.37 357.43 377.17 358.80 375.80 Z" stroke-linecap="round"/>
</g>
</g>
</g>

  </svg>