<svg xmlns="http://www.w3.org/2000/svg" xmlns:xlink="http://www.w3.org/1999/xlink" width="500px" height="406px" viewBox="0 0 499.9999999999998 406.187451271016">
    <g id="052df410-8221-47c8-ab4f-e166dc693b2f">
<g style="">
		<g id="052df410-8221-47c8-ab4f-e166dc693b2f-child-0">
<path style="stroke: rgb(193,193,193); stroke-width: 0; stroke-dasharray: none; stroke-linecap: butt; stroke-dashoffset: 0; stroke-linejoin: miter; stroke-miterlimit: 4; fill: rgb(0,0,0); fill-rule: nonzero; opacity: 1;" transform="matrix(0.870316 0 0 0.870316 250.000046 203.093763) matrix(1 0 0 1 0 0)  translate(-512.248759, -511.356348)" d="M 230.36 744.01 C 224.68 741.71 225.00 748.96 225.00 621.87 C 225.00 496.43 224.91 498.85 230.15 483.01 C 242.92 444.43 277.12 411.57 318.50 398.15 C 335.70 392.56 357.56 390.20 375.79 391.96 C 397.62 394.06 412.30 398.25 430.97 407.69 C 437.84 411.16 443.57 414.00 443.72 414.00 C 443.88 414.00 444.00 400.53 444.00 384.07 L 444.00 354.15 L 446.63 352.07 C 450.29 349.20 455.45 349.36 458.55 352.45 L 461.00 354.91 L 461.00 390.73 L 461.00 426.55 L 468.59 434.03 C 481.88 447.12 492.14 460.64 499.61 474.94 L 503.50 482.37 L 503.76 437.19 C 503.90 412.33 503.90 371.73 503.76 346.95 L 503.50 301.90 L 494.50 307.82 C 489.55 311.07 462.19 328.87 433.71 347.37 C 377.17 384.08 377.57 383.88 372.45 378.35 C 367.60 373.12 369.40 368.66 378.81 362.60 C 382.49 360.23 403.27 346.68 425.00 332.49 C 502.19 282.09 508.74 278.00 512.27 278.00 C 514.90 278.00 528.04 286.16 578.52 319.09 C 613.16 341.69 643.97 361.83 646.99 363.84 C 655.76 369.70 656.42 376.58 648.56 380.42 C 643.68 382.80 647.30 384.74 605.50 357.37 C 545.29 317.94 522.25 303.00 521.63 303.00 C 521.28 303.00 521.00 343.39 521.00 392.75 L 521.00 482.50 L 526.34 472.83 C 534.23 458.56 542.26 447.88 553.62 436.57 L 563.75 426.50 L 563.65 390.80 L 563.56 355.10 L 565.95 352.55 C 569.23 349.06 575.11 349.02 578.55 352.45 L 581.00 354.91 L 581.00 384.45 C 581.00 400.70 581.20 414.00 581.44 414.00 C 581.69 414.00 586.53 411.56 592.19 408.58 C 637.06 385.00 692.14 385.83 734.11 410.71 C 763.05 427.86 783.80 452.31 793.77 481.00 C 799.70 498.08 799.50 493.14 799.50 621.23 L 799.50 738.95 L 796.73 741.73 L 793.95 744.50 L 513.23 744.69 C 356.44 744.80 231.55 744.50 230.36 744.01 Z M 782.00 692.47 L 782.00 656.94 L 778.98 649.22 C 777.33 644.97 773.39 636.57 770.23 630.54 C 764.05 618.73 759.51 614.07 752.22 612.05 C 750.18 611.48 742.14 611.01 734.36 611.01 C 720.86 611.00 719.99 611.12 714.86 613.78 C 710.64 615.96 708.60 617.93 705.27 623.03 C 696.45 636.55 687.96 641.22 672.00 641.36 C 659.10 641.47 653.35 639.38 646.00 631.91 C 642.97 628.84 639.14 624.36 637.49 621.95 C 635.83 619.55 632.53 616.21 630.15 614.54 C 625.85 611.51 625.78 611.50 610.17 611.17 C 600.49 610.97 593.06 611.27 590.73 611.97 C 585.88 613.42 580.82 617.90 575.95 625.08 C 567.92 636.89 559.27 641.28 544.00 641.28 C 531.40 641.28 524.91 638.87 517.44 631.40 L 512.04 626.00 L 507.91 630.48 C 497.47 641.81 476.68 644.97 461.51 637.55 C 455.51 634.61 453.64 632.76 447.25 623.44 C 443.46 617.91 441.38 615.93 437.00 613.70 C 431.56 610.93 431.33 610.90 415.42 611.20 C 399.52 611.50 399.28 611.53 394.51 614.50 C 391.27 616.51 388.01 619.93 384.62 624.85 C 376.41 636.79 367.95 641.17 353.00 641.23 C 337.25 641.30 328.89 637.19 321.00 625.50 C 315.31 617.07 311.36 613.47 306.22 612.04 C 304.17 611.48 296.18 611.01 288.45 611.01 C 275.32 611.00 274.05 611.17 269.19 613.59 C 262.66 616.85 259.24 620.97 252.92 633.26 C 242.86 652.83 243.18 651.01 242.99 689.06 C 242.90 707.45 242.87 723.74 242.92 725.25 L 243.00 728.00 L 512.50 728.00 L 782.00 728.00 L 782.00 692.47 Z M 362.91 622.54 C 366.04 620.91 368.61 618.12 373.07 611.50 C 377.79 604.49 381.55 601.21 388.64 597.92 C 403.71 590.95 429.69 591.23 444.69 598.55 C 451.91 602.06 455.81 605.72 463.28 616.00 C 467.69 622.07 471.83 624.00 480.41 624.00 C 492.14 624.00 497.39 619.43 501.66 605.50 C 503.33 600.06 503.50 595.38 503.50 555.50 L 503.50 511.50 L 373.40 511.25 L 243.31 510.99 L 242.61 543.25 C 241.71 585.01 241.90 615.00 243.08 615.00 C 243.58 615.00 244.00 614.58 244.00 614.06 C 244.00 613.54 246.52 610.39 249.61 607.06 C 258.95 596.97 270.15 592.98 289.00 593.04 C 312.20 593.12 325.29 599.29 334.88 614.67 C 338.49 620.46 341.21 622.59 346.73 623.96 C 351.30 625.09 359.36 624.38 362.91 622.54 Z M 553.50 622.77 C 556.86 621.04 559.04 618.79 564.57 611.34 C 574.35 598.16 583.24 594.03 603.50 593.28 C 617.99 592.75 627.36 594.18 636.33 598.30 C 643.48 601.59 647.34 605.11 653.00 613.50 C 658.93 622.28 662.59 624.38 672.00 624.37 C 681.61 624.36 686.46 621.14 692.32 610.86 C 699.53 598.18 716.53 591.98 740.46 593.28 C 757.73 594.23 769.67 599.58 778.00 610.11 L 782.00 615.18 L 782.00 563.09 L 782.00 511.00 L 651.45 511.00 L 520.91 511.00 L 521.22 556.25 C 521.53 600.33 521.60 601.68 523.83 608.31 C 527.83 620.21 535.70 625.66 547.00 624.33 C 549.47 624.04 552.40 623.34 553.50 622.77 Z M 285.00 465.00 C 285.00 449.05 284.75 436.00 284.44 436.00 C 284.13 436.00 281.64 437.91 278.90 440.25 C 271.69 446.42 261.57 458.74 255.90 468.24 C 251.46 475.68 245.00 490.34 245.00 492.97 C 245.00 493.64 251.92 494.00 265.00 494.00 L 285.00 494.00 L 285.00 465.00 Z M 404.00 454.56 C 404.00 430.40 403.63 414.89 403.04 414.52 C 399.33 412.23 382.91 409.79 367.84 409.30 C 344.24 408.52 328.66 411.43 308.75 420.32 L 303.00 422.89 L 303.00 458.44 L 303.00 494.00 L 353.50 494.00 L 404.00 494.00 L 404.00 454.56 Z M 487.91 491.25 C 478.98 467.68 452.86 439.06 428.08 425.68 L 421.00 421.86 L 421.00 457.93 L 421.00 494.00 L 454.98 494.00 L 488.95 494.00 L 487.91 491.25 Z M 604.00 458.00 C 604.00 438.20 603.73 422.00 603.39 422.00 C 601.47 422.00 589.90 429.17 580.83 435.98 C 567.93 445.67 557.04 457.10 548.52 469.90 C 543.15 477.96 536.00 491.43 536.00 493.48 C 536.00 493.77 551.30 494.00 570.00 494.00 L 604.00 494.00 L 604.00 458.00 Z M 722.00 458.64 L 722.00 423.27 L 716.02 420.59 C 698.95 412.93 686.27 410.01 667.00 409.30 C 650.96 408.71 640.57 409.60 627.96 412.65 L 621.00 414.33 L 621.00 454.16 L 621.00 494.00 L 671.50 494.00 L 722.00 494.00 L 722.00 458.64 Z M 777.37 486.75 C 773.81 476.77 767.95 465.77 761.99 457.85 C 756.97 451.18 741.64 436.00 739.92 436.00 C 738.87 436.00 738.62 492.29 739.67 493.33 C 740.03 493.70 749.25 494.00 760.15 494.00 L 779.96 494.00 L 777.37 486.75 Z M 336.41 702.91 C 329.76 701.34 321.84 696.00 318.30 690.70 C 316.54 688.07 313.95 682.15 312.54 677.54 C 309.66 668.09 306.80 664.83 299.70 662.92 C 294.78 661.59 286.09 662.38 281.92 664.54 C 276.77 667.21 275.56 670.32 274.94 682.45 C 274.34 694.13 273.33 697.08 269.26 698.93 C 263.67 701.48 257.53 698.48 256.50 692.71 C 255.40 686.53 257.60 667.71 259.96 663.07 C 265.34 652.54 275.96 646.27 290.11 645.27 C 310.33 643.84 323.35 652.71 328.94 671.71 C 332.62 684.23 336.65 686.98 351.28 686.99 C 364.12 687.00 368.91 683.65 371.04 673.19 C 373.38 661.71 379.40 654.05 389.95 649.10 C 395.18 646.65 396.54 646.48 413.72 646.17 C 428.09 645.91 433.09 646.17 437.35 647.41 C 448.73 650.72 457.47 659.56 460.54 670.88 C 464.18 684.27 467.10 686.50 481.00 686.50 C 489.16 686.50 491.02 686.18 494.18 684.21 C 498.42 681.58 502.00 675.04 502.01 669.93 C 502.02 663.65 503.91 659.03 507.31 656.95 C 511.15 654.61 513.17 654.52 517.01 656.51 C 520.07 658.09 520.82 659.99 522.86 671.28 C 524.97 682.94 529.83 686.42 544.08 686.47 C 553.04 686.50 553.89 686.32 557.31 683.71 C 560.16 681.54 561.31 679.66 562.53 675.21 C 566.32 661.42 571.87 654.30 582.82 649.16 C 588.38 646.56 588.93 646.50 608.50 646.50 C 631.77 646.50 635.24 647.33 643.32 654.89 C 648.75 659.98 651.33 664.38 653.10 671.62 C 656.10 683.87 660.21 687.00 673.27 686.99 C 687.13 686.98 692.71 683.64 694.97 673.98 C 699.01 656.71 709.69 647.15 726.97 645.35 C 734.26 644.58 744.92 646.42 750.95 649.48 C 756.65 652.36 762.52 658.67 765.29 664.88 C 767.44 669.72 768.94 688.11 767.61 693.40 C 765.91 700.21 758.02 702.18 752.92 697.08 C 750.13 694.29 750.00 693.75 749.99 685.33 C 749.99 674.35 748.77 669.83 744.98 666.64 C 740.64 662.99 732.36 661.38 725.66 662.88 C 718.09 664.57 714.87 668.29 711.62 679.09 C 706.10 697.43 693.52 704.86 669.82 703.81 C 650.73 702.96 641.87 696.34 637.18 679.41 C 634.80 670.80 633.77 669.06 629.20 665.93 C 625.86 663.64 624.72 663.48 609.58 663.21 C 594.48 662.93 593.23 663.05 589.00 665.21 C 584.00 667.76 581.15 672.34 578.55 682.06 C 574.38 697.58 560.52 705.11 538.69 703.69 C 531.37 703.22 528.48 702.52 523.39 700.02 C 519.94 698.32 516.03 695.63 514.69 694.04 L 512.25 691.15 L 509.01 694.49 C 507.23 696.32 503.01 699.10 499.64 700.66 C 493.89 703.32 492.68 703.50 480.50 703.49 C 468.63 703.49 467.02 703.26 461.99 700.91 C 452.39 696.42 448.09 690.76 444.13 677.44 C 440.45 665.06 436.36 663.00 415.50 663.00 C 405.46 663.00 399.92 663.42 397.67 664.36 C 393.31 666.18 389.29 671.14 387.99 676.30 C 384.54 689.95 380.61 695.59 371.33 700.16 C 364.88 703.33 363.95 703.51 352.52 703.69 C 345.91 703.80 338.66 703.45 336.41 702.91 Z M 336.00 587.12 C 324.49 583.37 318.31 576.58 313.79 562.72 C 308.83 547.51 304.93 545.13 284.84 545.04 L 275.19 545.00 L 274.84 559.42 C 274.52 573.07 274.37 573.98 272.08 576.42 C 268.61 580.11 262.00 580.08 259.07 576.37 C 257.15 573.92 257.00 572.43 257.00 555.40 L 257.00 537.07 L 260.09 533.55 C 264.58 528.43 268.22 527.71 286.58 528.26 C 304.03 528.79 306.91 529.39 314.97 534.23 C 322.54 538.77 326.49 544.39 329.73 555.22 C 331.40 560.81 333.42 565.31 335.04 567.04 C 341.97 574.46 360.09 572.76 364.29 564.29 C 365.05 562.76 366.25 558.80 366.95 555.50 C 368.58 547.92 371.88 541.40 376.16 537.32 C 384.06 529.80 397.50 526.08 409.73 528.04 C 426.56 530.73 436.21 540.08 439.07 556.46 C 440.63 565.46 443.99 569.41 451.52 571.09 C 455.94 572.08 457.90 572.05 462.12 570.90 C 468.44 569.19 470.74 566.40 471.91 559.03 C 473.44 549.34 481.03 545.88 487.21 552.06 C 490.15 555.00 490.25 555.36 489.63 561.31 C 488.41 573.04 482.31 581.43 471.94 585.68 C 468.53 587.08 464.82 587.50 456.00 587.50 C 446.05 587.50 443.79 587.18 439.27 585.14 C 436.40 583.84 432.30 580.88 430.16 578.56 C 426.29 574.36 422.00 564.96 422.00 560.67 C 422.00 559.44 420.99 556.42 419.75 553.96 C 416.46 547.44 410.84 544.77 401.30 545.20 C 390.61 545.69 385.61 550.19 383.07 561.62 C 380.55 572.94 375.42 580.13 366.50 584.80 C 362.07 587.11 360.18 587.44 350.00 587.67 C 343.67 587.81 337.38 587.56 336.00 587.12 Z M 669.40 588.04 C 653.33 585.57 645.08 577.68 641.42 561.26 C 640.53 557.28 638.91 552.88 637.81 551.48 C 633.18 545.61 622.30 543.10 613.71 545.93 C 609.02 547.48 604.35 552.87 603.06 558.24 C 598.93 575.41 593.44 582.53 581.22 586.52 C 573.98 588.89 557.39 588.25 550.99 585.36 C 541.75 581.19 536.61 573.45 535.45 561.97 C 534.87 556.31 535.06 555.17 536.91 552.83 C 541.46 547.08 550.00 548.74 551.95 555.75 C 552.52 557.81 552.99 560.48 552.99 561.67 C 553.00 565.10 557.67 569.83 562.25 571.07 C 566.85 572.31 574.04 571.55 578.23 569.38 C 582.10 567.38 583.88 564.24 586.04 555.59 C 588.48 545.83 590.90 541.22 596.06 536.57 C 613.09 521.18 644.71 526.10 654.90 545.74 C 655.53 546.97 656.91 551.38 657.95 555.54 C 661.15 568.36 664.62 571.33 676.50 571.44 C 687.43 571.54 692.02 567.57 694.94 555.50 C 697.71 544.05 705.38 534.99 715.85 530.81 C 721.00 528.76 723.16 528.55 740.17 528.53 C 757.51 528.50 759.05 528.65 761.67 530.57 C 767.21 534.63 768.00 537.80 768.00 556.17 C 768.00 572.65 767.97 572.88 765.41 575.92 C 762.00 579.97 756.16 580.25 752.45 576.55 C 750.08 574.17 750.00 573.62 750.00 560.09 L 750.00 546.09 L 746.40 545.41 C 740.48 544.31 724.85 545.51 721.30 547.35 C 716.70 549.73 713.49 554.50 711.13 562.51 C 707.44 575.01 701.40 582.16 691.31 585.96 C 685.37 588.20 676.15 589.07 669.40 588.04 Z M 335.33 477.58 C 329.56 475.01 328.18 468.23 332.41 463.31 L 334.82 460.50 L 351.54 460.18 C 370.00 459.83 373.16 460.47 375.55 465.09 C 377.68 469.22 377.34 471.58 374.08 475.23 L 371.17 478.50 L 354.83 478.75 C 342.48 478.93 337.73 478.65 335.33 477.58 Z M 333.08 441.41 C 328.88 437.88 328.82 433.02 332.92 428.92 L 335.85 426.00 L 353.29 426.00 C 369.25 426.00 370.95 426.17 373.29 428.01 C 378.33 431.98 377.22 440.83 371.39 443.04 C 370.00 443.57 361.51 444.00 352.51 444.00 C 336.37 444.00 336.11 443.97 333.08 441.41 Z M 654.00 477.93 C 648.86 475.84 646.50 469.68 649.03 464.94 C 651.23 460.84 655.02 460.00 671.40 460.00 C 688.33 460.00 691.27 460.68 693.58 465.15 C 695.68 469.22 695.33 471.60 692.08 475.23 L 689.17 478.50 L 672.83 478.72 C 663.53 478.85 655.42 478.50 654.00 477.93 Z M 653.36 443.04 C 647.59 440.62 646.36 433.49 650.92 428.92 L 653.85 426.00 L 671.75 426.00 L 689.65 426.00 L 692.05 428.56 C 695.28 431.99 695.35 438.09 692.20 441.24 C 690.06 443.39 689.12 443.51 672.72 443.72 C 663.25 443.84 654.54 443.53 653.36 443.04 Z" stroke-linecap="round"/>
</g>
</g>
</g>

  </svg>