<svg xmlns="http://www.w3.org/2000/svg" xmlns:xlink="http://www.w3.org/1999/xlink" width="500px" height="278px" viewBox="0 0 499.9999999999998 277.5321452417911">
    <g id="cb24646e-7455-48a1-9ed9-b9368a9c975a">
<g style="">
		<g id="cb24646e-7455-48a1-9ed9-b9368a9c975a-child-0">
<path style="stroke: rgb(193,193,193); stroke-width: 0; stroke-dasharray: none; stroke-linecap: butt; stroke-dashoffset: 0; stroke-linejoin: miter; stroke-miterlimit: 4; fill: rgb(0,0,0); fill-rule: nonzero; opacity: 1;" transform="matrix(0.703734 0 0 0.703734 249.999951 138.766045) matrix(1 0 0 1 0 0)  translate(-511.777138, -512.779712)" d="M 161.83 708.47 C 158.18 706.49 156.47 701.14 158.01 696.48 C 159.90 690.75 162.56 690.00 180.96 690.00 L 197.03 690.00 L 196.76 657.39 L 196.50 624.77 L 191.00 623.06 C 172.61 617.35 160.20 602.56 157.00 582.52 C 153.99 563.66 165.74 541.23 183.02 532.84 C 194.66 527.19 196.70 527.01 247.64 526.93 C 293.87 526.85 294.43 526.83 289.49 525.07 C 275.11 519.95 261.63 510.56 250.69 498.04 L 245.85 492.50 L 231.67 491.97 C 218.83 491.50 216.92 491.18 211.28 488.60 C 203.66 485.11 195.98 477.33 192.20 469.25 C 189.86 464.27 189.50 462.23 189.50 454.00 C 189.50 446.24 189.92 443.60 191.77 439.58 C 198.74 424.47 212.50 416.00 230.09 416.00 C 234.44 416.00 238.00 415.58 238.00 415.07 C 238.00 412.63 250.67 395.60 256.65 390.00 C 267.23 380.11 282.13 371.42 293.25 368.65 C 295.87 367.99 296.00 367.68 296.00 361.95 C 296.00 349.95 299.52 348.00 321.22 348.00 C 334.78 348.01 336.87 348.23 339.81 350.03 C 343.96 352.56 346.37 358.05 345.74 363.58 L 345.28 367.72 L 350.89 369.48 C 356.90 371.37 365.98 375.70 372.34 379.72 L 376.26 382.19 L 382.31 375.34 C 410.00 344.04 444.25 324.44 483.50 317.43 C 495.52 315.29 524.59 314.94 536.00 316.81 C 578.35 323.74 612.19 342.43 641.10 374.84 L 647.65 382.18 L 653.85 378.18 C 659.10 374.78 675.18 368.00 677.98 368.00 C 678.46 368.00 678.64 365.64 678.37 362.75 C 677.98 358.62 678.31 356.82 679.89 354.30 C 683.56 348.48 686.19 347.83 704.56 348.18 L 720.97 348.50 L 724.18 351.72 C 727.01 354.54 727.45 355.73 727.81 361.39 L 728.22 367.84 L 733.31 369.51 C 753.66 376.16 775.95 394.58 784.26 411.62 L 786.28 415.75 L 796.00 416.21 C 804.17 416.61 806.77 417.17 812.29 419.76 C 821.09 423.87 827.27 429.77 831.25 437.86 C 834.20 443.85 834.50 445.28 834.46 453.48 C 834.44 460.50 833.92 463.79 832.11 468.33 C 829.13 475.84 820.64 484.60 812.50 488.57 C 806.87 491.32 805.63 491.52 792.34 491.82 L 778.17 492.14 L 772.90 498.21 C 763.15 509.41 745.09 521.67 732.51 525.61 C 729.16 526.66 736.30 526.88 775.70 526.93 C 805.94 526.98 824.81 527.40 828.20 528.10 C 842.70 531.12 856.18 541.87 862.72 555.62 C 866.13 562.80 866.50 564.40 866.84 573.62 C 867.42 589.10 863.98 598.72 854.07 609.39 C 848.38 615.51 841.06 620.28 833.39 622.87 L 827.50 624.86 L 827.24 657.43 L 826.97 690.00 L 842.94 690.00 C 860.35 690.00 863.26 690.66 865.58 695.15 C 868.41 700.64 867.01 705.91 862.02 708.49 C 859.43 709.83 819.66 710.00 511.80 709.96 C 210.42 709.93 164.15 709.73 161.83 708.47 Z M 232.20 665.42 L 232.50 640.83 L 235.77 637.92 C 239.52 634.57 244.22 634.07 247.88 636.63 C 252.43 639.81 253.00 643.27 253.00 667.47 L 253.00 690.00 L 261.00 690.00 L 269.00 690.00 L 269.00 657.50 L 269.00 625.00 L 242.50 625.00 L 216.00 625.00 L 216.00 656.83 C 216.00 674.34 216.30 688.97 216.67 689.33 C 217.03 689.70 220.61 690.00 224.62 690.00 L 231.90 690.00 L 232.20 665.42 Z M 735.50 657.50 L 735.50 625.50 L 512.25 625.25 L 289.00 625.00 L 289.00 657.50 L 289.00 690.00 L 512.25 689.75 L 735.50 689.50 L 735.50 657.50 Z M 771.00 666.45 C 771.00 640.86 771.43 638.49 776.47 636.19 C 780.97 634.15 784.88 634.73 788.08 637.92 L 791.00 640.85 L 791.00 665.42 L 791.00 690.00 L 799.00 690.00 L 807.00 690.00 L 807.00 657.50 L 807.00 625.00 L 781.00 625.00 L 755.00 625.00 L 755.00 656.83 C 755.00 674.34 755.30 688.97 755.67 689.33 C 756.03 689.70 759.63 690.00 763.67 690.00 L 771.00 690.00 L 771.00 666.45 Z M 830.29 602.73 C 841.27 597.70 847.34 588.37 847.37 576.50 C 847.40 564.64 841.73 555.47 831.18 550.29 L 825.50 547.50 L 513.53 547.24 C 166.02 546.96 195.43 546.35 186.72 554.02 C 173.88 565.32 173.03 584.14 184.80 596.33 C 189.35 601.05 194.92 604.01 200.84 604.86 C 203.31 605.21 344.74 605.43 515.12 605.35 L 824.90 605.19 L 830.29 602.73 Z M 426.00 518.15 L 426.00 509.29 L 404.36 508.76 L 382.73 508.22 L 377.11 512.48 C 370.98 517.13 361.33 522.28 353.50 525.07 C 348.54 526.84 348.82 526.85 387.25 526.93 L 426.00 527.00 L 426.00 518.15 Z M 479.00 518.00 L 479.00 509.00 L 462.50 509.00 L 446.00 509.00 L 446.00 518.00 L 446.00 527.00 L 462.50 527.00 L 479.00 527.00 L 479.00 518.00 Z M 525.92 518.00 L 525.74 509.00 L 511.87 509.00 L 498.00 509.00 L 498.00 518.00 L 498.00 527.00 L 512.05 527.00 L 526.10 527.00 L 525.92 518.00 Z M 578.00 518.00 L 578.00 509.00 L 561.50 509.00 L 545.00 509.00 L 545.00 518.00 L 545.00 527.00 L 561.50 527.00 L 578.00 527.00 L 578.00 518.00 Z M 669.50 525.07 C 661.77 522.31 653.08 517.66 646.49 512.75 L 640.50 508.28 L 619.25 508.77 L 598.00 509.27 L 598.00 518.13 L 598.00 527.00 L 636.25 526.93 C 674.20 526.85 674.46 526.84 669.50 525.07 Z M 345.30 506.74 C 349.60 505.33 355.55 502.70 358.52 500.90 L 363.94 497.62 L 358.58 492.00 C 352.95 486.10 348.95 479.25 347.09 472.32 L 345.97 468.17 L 333.90 467.83 C 322.09 467.51 321.77 467.44 319.41 464.69 C 316.83 461.69 316.20 456.36 318.02 452.96 C 319.87 449.50 323.26 448.51 334.99 448.00 L 346.47 447.50 L 347.06 444.00 C 347.39 442.08 347.99 439.49 348.39 438.25 L 349.13 436.00 L 300.18 436.00 L 251.23 436.00 L 250.63 438.25 C 247.34 450.52 255.10 473.27 267.00 486.25 C 276.80 496.95 288.75 504.13 303.24 508.04 C 314.03 510.95 334.43 510.32 345.30 506.74 Z M 725.28 506.75 C 755.12 496.94 777.43 466.36 773.56 440.56 L 772.88 436.00 L 723.82 436.00 L 674.77 436.00 L 675.39 438.75 C 675.73 440.26 676.29 442.96 676.64 444.75 L 677.26 448.00 L 689.21 448.00 C 701.08 448.00 701.17 448.02 704.08 450.92 C 707.91 454.76 708.13 460.58 704.59 464.69 C 702.25 467.42 701.84 467.51 689.97 468.00 L 677.77 468.50 L 676.02 474.16 C 673.81 481.30 670.87 486.12 664.71 492.68 L 659.85 497.85 L 662.17 499.37 C 666.57 502.24 675.73 506.02 683.11 508.01 C 694.02 510.95 714.37 510.34 725.28 506.75 Z M 634.55 487.91 C 641.46 486.63 644.65 485.12 649.55 480.83 C 652.89 477.89 657.00 471.39 657.00 469.04 C 657.00 468.32 611.55 468.00 511.50 468.00 C 431.48 468.00 366.00 468.36 366.00 468.80 C 366.00 469.25 367.27 471.62 368.83 474.07 C 373.55 481.51 380.40 486.39 388.33 487.96 C 394.92 489.26 627.48 489.21 634.55 487.91 Z M 234.76 471.54 C 234.90 471.41 234.38 469.50 233.60 467.28 C 231.29 460.73 229.77 448.26 230.51 441.89 L 231.20 436.00 L 227.57 436.00 C 223.50 436.00 217.56 438.20 214.65 440.79 C 211.87 443.25 209.04 449.93 209.04 454.00 C 209.04 462.32 215.72 470.26 224.14 471.93 C 227.76 472.65 233.74 472.43 234.76 471.54 Z M 801.61 471.52 C 812.57 468.27 817.82 456.80 813.09 446.40 C 810.38 440.43 803.04 436.00 795.85 436.00 L 793.00 436.00 L 793.00 446.29 C 793.00 452.66 792.38 458.85 791.38 462.54 C 788.36 473.66 788.27 473.00 792.70 473.00 C 794.87 473.00 798.87 472.34 801.61 471.52 Z M 657.00 447.05 C 657.00 444.14 651.14 428.17 646.99 419.75 C 625.73 376.64 586.53 346.89 538.46 337.37 C 524.89 334.68 498.01 334.88 483.48 337.78 C 442.96 345.85 410.49 367.74 386.87 402.88 C 377.36 417.04 371.80 428.57 367.65 442.75 L 366.11 448.00 L 511.55 448.00 C 602.57 448.00 657.00 447.65 657.00 447.05 Z M 360.56 408.10 C 363.89 401.88 364.76 399.41 363.96 398.45 C 361.92 395.99 346.48 389.04 338.59 387.02 C 327.91 384.29 312.17 384.27 301.61 386.97 C 287.79 390.51 273.19 399.76 264.90 410.24 L 260.75 415.50 L 305.62 416.00 C 330.31 416.27 351.76 416.49 353.30 416.48 C 355.78 416.46 356.61 415.50 360.56 408.10 Z M 762.81 415.52 C 763.73 414.60 753.89 404.09 747.90 399.58 C 739.99 393.64 731.01 389.41 720.80 386.83 C 713.86 385.07 710.62 384.83 700.04 385.28 C 686.23 385.85 680.40 387.27 669.50 392.67 C 658.10 398.32 658.17 398.16 663.22 407.79 L 667.50 415.95 L 709.00 416.29 C 749.83 416.63 761.88 416.46 762.81 415.52 Z M 203.79 586.32 C 199.93 585.69 196.00 580.65 196.00 576.35 C 196.00 573.81 196.81 572.04 198.92 569.92 L 201.85 567.00 L 226.35 567.00 L 250.85 567.00 L 253.92 569.59 C 258.10 573.11 258.31 579.42 254.36 583.36 C 252.91 584.81 250.78 586.00 249.61 586.01 C 248.45 586.02 238.27 586.19 227.00 586.39 C 215.73 586.60 205.28 586.57 203.79 586.32 Z M 348.25 585.78 C 344.38 584.74 342.05 581.20 342.02 576.34 C 342.00 572.91 342.54 571.72 345.08 569.59 L 348.15 567.00 L 419.63 567.00 C 499.43 567.00 495.94 566.70 498.04 573.76 C 499.39 578.30 498.18 582.18 494.69 584.47 C 492.57 585.85 483.95 586.07 421.62 586.27 C 382.76 586.40 349.74 586.17 348.25 585.78 Z M 532.37 585.81 C 524.40 583.67 522.72 574.15 529.37 568.77 C 531.34 567.17 536.81 567.04 603.83 567.02 L 676.15 567.00 L 679.08 569.92 C 685.00 575.84 681.52 586.03 673.60 585.98 C 671.90 585.97 640.00 586.08 602.73 586.23 C 565.45 586.38 533.79 586.19 532.37 585.81 Z M 713.11 584.44 C 707.71 579.90 708.25 571.74 714.22 567.56 C 718.55 564.52 727.57 566.46 729.97 570.94 C 730.54 572.00 731.00 574.73 731.00 577.01 C 731.00 585.99 720.26 590.45 713.11 584.44 Z M 766.33 586.19 C 765.13 586.02 762.99 584.72 761.58 583.30 C 757.85 579.58 758.00 573.85 761.92 569.92 L 764.85 567.00 L 792.35 567.00 L 819.85 567.00 L 822.81 569.50 C 826.64 572.72 827.49 576.17 825.48 580.40 C 822.85 585.95 821.10 586.28 793.50 586.39 C 779.75 586.45 767.52 586.36 766.33 586.19 Z M 400.19 432.50 C 393.75 427.09 394.88 423.47 408.31 406.32 C 418.19 393.70 421.18 391.79 427.16 394.30 C 431.40 396.07 432.96 397.97 433.65 402.21 C 434.11 405.04 433.58 406.39 430.39 410.55 C 428.30 413.27 424.38 418.42 421.69 422.00 C 413.44 432.95 411.11 435.00 406.88 435.00 C 404.37 435.00 402.19 434.19 400.19 432.50 Z M 599.12 419.25 C 594.28 414.67 578.41 396.65 577.17 394.32 C 573.65 387.73 578.39 380.00 585.94 380.00 C 590.77 380.00 592.17 381.19 606.43 397.37 C 615.45 407.61 616.00 408.50 616.00 412.67 C 616.00 418.83 612.80 422.00 606.56 422.00 C 602.99 422.00 601.42 421.42 599.12 419.25 Z M 448.42 387.11 C 438.90 381.31 443.22 367.00 454.50 367.00 C 462.94 367.00 468.10 374.78 464.58 382.20 C 461.56 388.56 454.38 390.75 448.42 387.11 Z M 539.50 377.28 C 531.88 375.13 527.83 374.68 513.00 374.32 C 503.38 374.08 494.24 373.40 492.71 372.81 C 486.26 370.30 484.87 361.98 490.04 356.81 L 493.08 353.77 L 512.79 354.22 C 530.05 354.61 533.92 355.01 543.97 357.47 C 552.96 359.67 556.03 360.88 558.22 363.06 C 562.00 366.84 562.01 371.85 558.25 376.02 C 554.55 380.12 550.56 380.39 539.50 377.28 Z" stroke-linecap="round"/>
</g>
</g>
</g>

  </svg>