<svg xmlns="http://www.w3.org/2000/svg" xmlns:xlink="http://www.w3.org/1999/xlink" width="482px" height="500px" viewBox="0 0 481.838007679181 500">
    <g id="ab9c7866-076d-4011-b772-faddff4284a1">
<g style="">
		<g id="ab9c7866-076d-4011-b772-faddff4284a1-child-0">
<path style="stroke: rgb(193,193,193); stroke-width: 0; stroke-dasharray: none; stroke-linecap: butt; stroke-dashoffset: 0; stroke-linejoin: miter; stroke-miterlimit: 4; fill: rgb(0,0,0); fill-rule: nonzero; opacity: 1;" transform="matrix(0.853242 0 0 0.853242 240.918913 249.999906) matrix(1 0 0 1 0 0)  translate(-512.260151, -513)" d="M 232.63 803.93 C 227.89 800.19 229.58 793.77 235.76 792.05 C 238.03 791.42 253.93 791.01 276.25 791.01 L 313.00 791.00 L 313.00 763.07 L 313.00 735.13 L 296.03 734.82 C 281.34 734.54 278.83 734.26 277.28 732.71 C 275.60 731.03 275.48 725.82 275.23 642.96 L 274.97 555.00 L 270.04 555.00 C 266.27 555.00 264.45 554.43 262.31 552.58 L 259.50 550.17 L 259.71 529.33 C 259.92 509.37 260.02 508.43 262.08 506.75 C 263.99 505.19 266.84 505.00 287.99 505.00 C 301.06 505.00 313.08 504.73 314.70 504.41 L 317.65 503.82 L 312.48 498.43 C 306.59 492.30 301.99 484.24 299.40 475.50 C 297.04 467.54 297.10 453.62 299.51 445.13 C 301.31 438.83 301.31 438.74 299.29 437.13 C 288.19 428.24 279.88 420.36 279.34 418.20 C 278.49 414.82 280.82 410.79 284.35 409.55 C 287.81 408.33 289.10 409.07 300.46 418.86 L 309.00 426.22 L 314.79 420.86 C 321.57 414.58 330.02 409.84 338.75 407.41 L 345.00 405.67 L 345.00 390.84 C 345.00 377.33 345.18 375.82 347.00 374.00 C 349.39 371.61 353.71 371.41 356.78 373.56 C 358.91 375.05 359.00 375.73 359.00 390.46 L 359.00 405.80 L 364.25 407.05 C 374.39 409.47 382.88 414.18 391.67 422.27 L 395.83 426.10 L 403.06 419.80 C 407.04 416.34 411.46 412.50 412.90 411.29 C 416.57 408.16 421.31 408.31 423.93 411.63 C 426.46 414.85 426.58 418.13 424.25 420.73 C 423.29 421.81 418.14 426.37 412.81 430.88 L 403.11 439.07 L 404.75 443.29 C 405.95 446.37 406.39 450.85 406.41 460.00 C 406.43 471.27 406.16 473.17 403.71 479.38 C 400.64 487.14 393.54 497.65 388.91 501.27 L 385.82 503.69 L 393.56 504.35 C 397.82 504.71 415.52 504.98 432.90 504.97 L 464.50 504.93 L 460.50 501.78 C 450.10 493.59 441.31 482.55 434.64 469.27 C 430.24 460.55 429.97 456.32 433.58 452.92 L 436.16 450.50 L 512.67 450.50 L 589.17 450.50 L 591.59 453.31 C 594.84 457.09 594.63 459.90 590.50 468.14 C 583.90 481.28 572.64 495.58 564.54 501.10 C 562.60 502.42 561.01 503.84 561.01 504.25 C 561.00 504.66 584.62 505.00 613.50 505.00 L 666.00 505.00 L 666.00 451.61 L 666.00 398.22 L 662.31 397.53 C 652.00 395.60 639.43 386.06 634.23 376.24 C 628.06 364.59 628.00 363.96 628.00 315.27 L 628.00 270.91 L 630.45 268.45 L 632.91 266.00 L 673.53 266.00 L 714.15 266.00 L 717.15 269.00 L 720.15 271.99 L 719.76 316.25 C 719.42 355.20 719.16 361.16 717.60 366.00 C 712.76 381.02 701.40 392.62 687.24 397.00 L 681.50 398.77 L 681.50 451.64 L 681.50 504.50 L 721.19 504.76 L 760.87 505.02 L 762.94 507.65 C 764.86 510.10 765.00 511.58 765.00 530.05 L 765.00 549.82 L 761.92 552.41 C 759.53 554.43 757.76 555.00 753.92 555.00 L 749.00 555.00 L 749.00 642.93 L 749.00 730.85 L 746.37 732.93 C 743.95 734.83 742.40 735.00 727.87 735.00 L 712.00 735.00 L 712.00 763.00 C 712.00 788.97 712.13 791.01 713.75 791.09 C 714.71 791.14 732.30 791.25 752.83 791.34 L 790.17 791.50 L 792.66 794.39 C 795.53 797.73 795.23 801.39 791.85 804.25 C 789.89 805.91 775.12 806.00 512.52 806.00 L 235.27 806.00 L 232.63 803.93 Z M 349.00 763.00 L 349.00 735.00 L 338.00 735.00 L 327.00 735.00 L 327.00 763.00 L 327.00 791.00 L 338.00 791.00 L 349.00 791.00 L 349.00 763.00 Z M 661.00 763.00 L 661.00 735.00 L 512.50 735.00 L 364.00 735.00 L 364.00 763.00 L 364.00 791.00 L 512.50 791.00 L 661.00 791.00 L 661.00 763.00 Z M 698.00 778.16 C 698.00 771.10 697.70 758.50 697.34 750.16 L 696.69 735.00 L 685.84 735.00 L 675.00 735.00 L 675.00 755.35 C 675.00 766.54 675.29 779.14 675.65 783.35 L 676.29 791.00 L 687.15 791.00 L 698.00 791.00 L 698.00 778.16 Z M 735.00 637.94 L 735.00 555.00 L 512.50 555.00 L 290.00 555.00 L 290.00 637.33 C 290.00 682.62 290.27 719.94 290.61 720.28 C 290.94 720.61 391.07 720.89 513.11 720.89 L 735.00 720.89 L 735.00 637.94 Z M 750.36 537.25 C 750.70 535.19 750.98 530.24 750.99 526.25 L 751.00 519.00 L 512.50 519.00 L 274.00 519.00 L 274.00 530.00 L 274.00 541.00 L 511.87 541.00 L 749.74 541.00 L 750.36 537.25 Z M 530.50 501.42 C 538.75 499.21 549.41 493.85 556.23 488.50 C 561.95 484.01 570.92 473.89 574.31 468.09 L 576.11 465.00 L 512.56 465.00 C 477.60 465.00 449.00 465.26 449.00 465.58 C 449.00 467.13 456.75 477.54 461.49 482.36 C 472.05 493.09 485.72 500.28 500.76 503.04 C 507.29 504.23 523.26 503.36 530.50 501.42 Z M 369.00 496.73 C 377.26 492.73 384.41 485.94 387.97 478.71 C 398.19 457.95 390.13 434.58 369.19 424.30 C 364.01 421.75 362.52 421.50 352.50 421.50 C 342.48 421.50 340.99 421.75 335.81 424.30 C 317.26 433.40 308.03 453.72 313.84 472.63 C 317.41 484.25 325.09 492.32 337.54 497.56 C 342.83 499.78 344.63 500.03 353.50 499.73 C 361.85 499.45 364.41 498.95 369.00 496.73 Z M 686.17 381.83 C 694.24 378.36 702.18 368.31 704.40 358.75 L 705.04 356.00 L 673.57 356.00 L 642.11 356.00 L 643.66 361.25 C 649.10 379.72 668.86 389.28 686.17 381.83 Z M 705.00 311.07 L 705.00 281.14 L 699.75 280.52 C 696.86 280.18 682.80 280.03 668.50 280.20 L 642.50 280.50 L 642.24 310.75 L 641.97 341.00 L 673.49 341.00 L 705.00 341.00 L 705.00 311.07 Z M 518.34 439.94 C 516.17 438.86 510.16 435.18 504.98 431.74 C 496.83 426.34 495.31 424.88 493.65 420.87 C 491.34 415.29 491.96 410.40 495.51 406.17 C 497.08 404.31 502.80 401.09 511.72 397.05 C 519.30 393.61 526.11 390.22 526.86 389.51 C 528.33 388.11 527.61 387.61 512.50 379.55 C 501.41 373.64 497.00 368.38 497.00 361.10 C 497.00 358.41 496.33 357.82 489.65 354.60 C 476.71 348.38 466.97 337.08 462.39 323.00 L 460.27 316.50 L 444.05 316.00 C 426.05 315.44 425.00 315.03 425.00 308.46 C 425.00 302.35 427.22 301.54 444.92 301.18 L 460.63 300.87 L 461.82 295.07 C 465.56 276.99 481.39 260.97 499.53 256.91 L 505.00 255.68 L 505.00 240.06 C 505.00 222.23 505.71 220.00 511.37 220.00 C 518.04 220.00 518.44 221.00 519.00 239.07 L 519.50 255.30 L 525.50 256.95 C 543.69 261.93 559.38 278.05 562.99 295.46 L 564.11 300.86 L 579.53 301.18 C 593.82 301.48 595.11 301.66 597.13 303.68 C 598.53 305.08 599.28 307.02 599.22 309.08 C 599.05 314.95 597.67 315.45 579.91 316.00 L 563.89 316.50 L 561.69 323.00 C 554.74 343.61 538.60 356.89 517.21 359.60 C 514.16 359.98 512.07 360.72 512.28 361.33 C 512.47 361.92 517.63 365.12 523.74 368.45 C 529.85 371.78 536.27 375.56 538.01 376.85 C 542.03 379.82 544.36 385.28 543.70 390.17 C 542.78 397.09 539.98 399.50 523.40 407.69 C 514.93 411.88 508.00 415.61 508.00 415.98 C 508.00 416.36 510.69 418.20 513.97 420.08 C 527.05 427.57 528.96 428.97 529.62 431.63 C 530.61 435.58 528.91 439.19 525.39 440.62 C 522.70 441.72 521.76 441.63 518.34 439.94 Z M 521.53 343.45 C 536.11 339.65 546.22 328.38 549.11 312.70 C 551.98 297.12 542.67 280.39 527.12 273.16 C 522.39 270.96 520.07 270.54 512.50 270.52 C 504.44 270.50 502.80 270.83 496.80 273.67 C 488.58 277.57 482.27 283.70 478.42 291.55 C 475.75 296.98 475.50 298.41 475.51 308.00 C 475.51 316.98 475.85 319.18 477.85 323.22 C 481.32 330.22 487.12 336.25 493.80 339.81 C 503.72 345.10 511.36 346.10 521.53 343.45 Z M 670.31 252.01 C 667.07 250.68 665.74 244.84 666.15 233.72 C 666.55 222.59 667.69 220.60 673.61 220.60 C 679.81 220.60 681.00 223.16 681.00 236.50 C 681.00 245.79 680.69 248.14 679.25 249.85 C 677.15 252.33 673.32 253.25 670.31 252.01 Z M 306.45 703.55 L 304.00 701.09 L 304.00 637.50 L 304.00 573.91 L 306.45 571.45 L 308.91 569.00 L 344.28 569.00 L 379.65 569.00 L 381.83 571.31 L 384.00 573.63 L 384.00 637.81 C 384.00 700.67 383.96 702.04 382.00 704.00 C 380.08 705.92 378.67 706.00 344.45 706.00 L 308.91 706.00 L 306.45 703.55 Z M 369.76 637.25 L 370.02 583.00 L 344.51 583.00 L 319.00 583.00 L 319.00 637.52 L 319.00 692.03 L 344.25 691.77 L 369.50 691.50 L 369.76 637.25 Z M 418.40 703.90 C 416.58 701.88 416.49 699.14 416.22 639.65 C 416.06 605.47 416.18 576.48 416.49 575.22 C 416.80 573.97 417.94 572.06 419.03 570.97 C 420.92 569.08 422.49 569.00 456.55 569.00 L 492.09 569.00 L 494.57 571.48 L 497.04 573.95 L 496.77 638.06 L 496.50 702.18 L 494.14 704.09 C 491.91 705.89 489.74 706.00 456.04 706.00 C 420.99 706.00 420.27 705.96 418.40 703.90 Z M 480.42 691.39 C 481.83 690.85 482.00 685.11 482.00 636.89 L 482.00 583.00 L 456.50 583.00 L 431.00 583.00 L 431.00 636.83 C 431.00 666.44 431.30 690.97 431.67 691.33 C 432.50 692.17 478.26 692.22 480.42 691.39 Z M 530.21 703.72 C 529.03 702.47 527.97 700.11 527.85 698.47 C 527.73 696.84 527.72 667.96 527.82 634.29 L 528.00 573.08 L 530.19 571.04 C 532.31 569.07 533.53 569.00 568.12 569.00 L 603.85 569.00 L 605.93 571.63 C 607.97 574.24 608.00 575.04 608.00 637.96 L 608.00 701.65 L 605.69 703.83 C 603.40 705.97 602.94 706.00 567.86 706.00 L 532.35 706.00 L 530.21 703.72 Z M 593.76 637.25 L 594.02 583.00 L 568.01 583.00 L 542.00 583.00 L 542.00 636.92 C 542.00 679.11 542.27 690.94 543.25 691.35 C 543.94 691.63 555.53 691.78 569.00 691.68 L 593.50 691.50 L 593.76 637.25 Z M 642.07 703.37 C 640.03 700.76 640.00 699.96 640.00 637.32 L 640.00 573.91 L 642.45 571.45 L 644.91 569.00 L 680.50 569.00 L 716.09 569.00 L 718.55 571.45 L 721.00 573.91 L 721.00 636.50 C 721.00 702.69 720.94 703.66 716.46 705.38 C 715.56 705.72 698.93 706.00 679.49 706.00 L 644.15 706.00 L 642.07 703.37 Z M 704.42 691.39 C 705.83 690.85 706.00 685.11 706.00 636.89 L 706.00 583.00 L 680.50 583.00 L 655.00 583.00 L 655.00 637.50 L 655.00 692.00 L 678.92 692.00 C 692.07 692.00 703.55 691.73 704.42 691.39 Z M 397.34 650.00 C 394.46 648.84 394.10 647.34 393.78 634.86 C 393.46 622.63 394.65 620.00 400.50 620.00 C 405.79 620.00 406.80 622.15 407.10 634.00 C 407.41 646.11 406.91 648.26 403.43 649.85 C 400.53 651.17 400.26 651.18 397.34 650.00 Z M 507.45 648.55 C 505.14 646.24 505.00 645.44 505.00 635.05 C 505.00 622.35 506.16 620.00 512.44 620.00 C 517.96 620.00 519.00 622.48 518.98 635.47 C 518.97 647.17 518.75 648.04 515.32 649.85 C 512.04 651.57 510.17 651.26 507.45 648.55 Z M 619.86 649.09 C 617.73 647.36 617.47 646.24 617.15 637.55 C 616.64 623.42 618.06 620.00 624.42 620.00 C 630.10 620.00 631.00 622.09 631.00 635.26 C 631.00 646.60 630.94 646.90 628.37 648.93 C 625.09 651.50 622.90 651.54 619.86 649.09 Z" stroke-linecap="round"/>
</g>
</g>
</g>

  </svg>