<svg xmlns="http://www.w3.org/2000/svg" xmlns:xlink="http://www.w3.org/1999/xlink" width="500px" height="453px" viewBox="0 0 499.9999999999998 452.5231345299078">
    <g id="d3e46730-24e5-47ff-959b-c4e7c2de6d0e">
<g style="">
		<g id="d3e46730-24e5-47ff-959b-c4e7c2de6d0e-child-0">
<path style="stroke: rgb(193,193,193); stroke-width: 0; stroke-dasharray: none; stroke-linecap: butt; stroke-dashoffset: 0; stroke-linejoin: miter; stroke-miterlimit: 4; fill: rgb(0,0,0); fill-rule: nonzero; opacity: 1;" transform="matrix(0.788794 0 0 0.788794 249.99993 226.261504) matrix(1 0 0 1 0 0)  translate(-511.924931, -512.00216)" d="M 210.00 797.69 C 205.15 796.15 197.72 788.44 196.22 783.38 C 195.27 780.19 195.00 719.74 195.00 512.31 C 195.00 213.40 194.32 239.57 202.27 231.85 C 207.05 227.22 215.18 224.45 221.22 225.42 C 229.90 226.81 238.85 234.19 240.93 241.68 C 241.60 244.10 241.99 261.19 241.99 288.24 L 242.00 330.98 L 452.75 331.24 L 663.50 331.50 L 669.21 334.31 C 672.41 335.88 676.68 339.10 678.91 341.64 C 684.96 348.51 686.34 353.92 686.14 369.97 C 686.05 377.41 686.25 385.36 686.59 387.64 L 687.19 391.78 L 715.35 391.64 L 743.50 391.50 L 744.01 371.50 C 744.46 353.38 744.72 351.11 746.71 347.38 C 752.62 336.31 759.88 331.88 773.25 331.20 L 782.00 330.76 L 782.01 287.13 L 782.02 243.50 L 784.40 238.38 C 789.23 228.02 801.02 222.83 812.14 226.16 C 817.16 227.66 823.48 233.12 826.28 238.36 L 828.50 242.50 L 828.80 508.00 C 828.96 654.03 828.81 775.86 828.48 778.74 C 825.88 800.76 796.67 806.28 784.69 787.02 C 782.57 783.61 782.48 782.36 782.00 747.00 L 781.50 710.50 L 511.75 710.25 L 242.00 710.00 L 241.99 745.25 C 241.98 780.19 241.96 780.54 239.62 785.50 C 236.81 791.46 234.05 794.17 228.00 796.92 C 223.04 799.17 215.66 799.48 210.00 797.69 Z M 222.30 779.22 C 223.71 777.66 223.95 772.63 224.20 738.64 L 224.50 699.84 L 228.24 696.42 L 231.98 692.99 L 511.97 693.24 L 791.96 693.50 L 795.23 696.77 L 798.50 700.04 L 799.00 739.10 C 799.48 776.30 799.59 778.23 801.44 779.58 C 804.00 781.45 807.47 781.38 809.43 779.43 C 810.85 778.01 811.00 752.38 811.00 512.26 C 811.00 266.52 810.88 246.52 809.35 244.83 C 807.36 242.64 804.11 242.47 801.44 244.42 C 799.56 245.80 799.49 248.08 799.00 323.67 C 798.61 384.32 798.22 401.99 797.22 403.74 C 794.72 408.11 791.14 409.00 776.05 409.00 L 762.00 409.00 L 762.00 414.50 L 762.00 420.00 L 775.55 420.00 C 790.26 420.00 793.08 420.74 796.91 425.61 L 799.00 428.27 L 799.00 550.50 L 799.00 672.73 L 796.91 675.39 C 792.14 681.45 814.89 681.00 510.63 681.00 L 232.15 681.00 L 229.09 678.43 C 227.41 677.01 225.56 674.20 224.97 672.18 C 224.24 669.64 224.00 631.15 224.20 548.33 L 224.50 428.16 L 227.00 425.45 C 232.36 419.64 217.51 420.00 451.97 420.00 L 668.00 420.00 L 668.00 414.50 L 668.00 409.00 L 450.75 408.99 C 278.97 408.97 232.98 408.71 231.03 407.72 C 229.67 407.03 227.53 404.95 226.28 403.09 L 224.00 399.70 L 224.00 323.18 C 224.00 253.38 223.85 246.50 222.35 244.83 C 220.29 242.55 217.23 242.48 214.83 244.65 C 213.07 246.25 213.00 255.89 213.00 512.61 C 213.00 765.16 213.09 778.95 214.75 779.92 C 217.43 781.48 220.52 781.19 222.30 779.22 Z M 668.00 637.54 L 668.00 611.08 L 634.91 610.79 L 601.82 610.50 L 599.41 607.69 C 596.79 604.64 596.38 601.46 598.11 597.66 C 600.35 592.74 601.91 592.53 636.12 592.52 L 668.00 592.50 L 668.00 515.25 L 668.00 438.00 L 455.00 438.00 L 242.00 438.00 L 242.00 514.84 L 242.00 591.69 L 259.75 592.33 C 269.51 592.69 344.15 592.72 425.61 592.39 C 560.53 591.85 573.99 591.94 576.83 593.41 C 581.74 595.95 583.48 601.36 580.92 606.15 C 578.22 611.19 585.10 611.00 407.53 611.00 L 242.00 611.00 L 242.00 636.83 C 242.00 651.04 242.30 662.97 242.67 663.33 C 243.03 663.70 338.88 664.00 455.67 664.00 L 668.00 664.00 L 668.00 637.54 Z M 740.25 663.09 L 744.00 663.00 L 744.00 655.98 L 744.00 648.97 L 715.25 649.23 L 686.50 649.50 L 686.21 656.17 C 685.96 661.82 686.17 662.89 687.63 663.17 C 689.07 663.45 727.73 663.39 740.25 663.09 Z M 781.00 657.16 C 781.00 653.40 781.30 641.47 781.66 630.66 L 782.32 611.00 L 772.16 611.00 L 762.00 611.00 L 762.00 637.50 L 762.00 664.00 L 771.50 664.00 L 781.00 664.00 L 781.00 657.16 Z M 744.00 621.00 L 744.00 611.00 L 715.00 611.00 L 686.00 611.00 L 686.00 621.00 L 686.00 631.00 L 715.00 631.00 L 744.00 631.00 L 744.00 621.00 Z M 743.77 571.11 L 744.04 550.00 L 715.27 550.00 L 686.50 550.00 L 686.50 570.97 C 686.50 588.47 686.74 591.99 687.95 592.22 C 688.74 592.38 701.57 592.44 716.45 592.36 L 743.50 592.21 L 743.77 571.11 Z M 781.26 522.75 C 781.13 484.66 781.02 450.01 781.01 445.75 L 781.00 438.00 L 771.50 438.00 L 762.00 438.00 L 762.00 515.00 L 762.00 592.00 L 771.75 592.00 L 781.50 592.00 L 781.26 522.75 Z M 744.00 510.98 L 744.00 490.97 L 715.35 491.23 L 686.69 491.50 L 686.56 511.25 L 686.42 531.00 L 715.21 531.00 L 744.00 531.00 L 744.00 510.98 Z M 744.00 455.50 L 744.00 438.00 L 715.16 438.00 L 686.33 438.00 L 686.09 455.50 L 685.86 473.00 L 714.93 473.00 L 744.00 473.00 L 744.00 455.50 Z M 743.80 414.75 L 743.50 409.50 L 715.00 409.50 L 686.50 409.50 L 686.20 414.75 L 685.90 420.00 L 715.00 420.00 L 744.10 420.00 L 743.80 414.75 Z M 668.00 374.00 C 668.00 354.80 667.65 353.42 661.99 350.49 C 659.45 349.18 633.62 349.00 450.55 349.00 L 242.00 349.00 L 242.00 369.92 C 242.00 385.73 242.30 390.95 243.25 391.30 C 243.94 391.56 339.79 391.72 456.25 391.66 L 668.00 391.56 L 668.00 374.00 Z M 781.52 388.75 C 781.82 387.51 781.94 378.17 781.78 368.00 L 781.50 349.50 L 776.10 349.19 C 773.12 349.02 769.39 349.42 767.80 350.08 C 762.70 352.19 762.00 355.09 762.00 373.95 L 762.00 391.00 L 771.48 391.00 C 780.48 391.00 780.99 390.89 781.52 388.75 Z M 260.91 319.91 C 258.94 317.94 258.84 316.95 259.18 303.16 C 259.50 290.06 259.79 288.02 261.91 284.00 C 266.96 274.43 274.01 268.15 282.18 265.95 C 284.36 265.36 299.68 264.90 318.24 264.85 C 353.79 264.76 354.87 264.91 363.51 271.12 C 368.74 274.87 372.37 279.83 375.05 286.88 C 376.62 291.02 377.00 294.55 377.00 304.94 C 377.00 323.89 383.61 322.00 317.37 322.00 C 263.55 322.00 262.98 321.98 260.91 319.91 Z M 359.27 298.16 C 359.01 291.86 356.55 287.35 351.82 284.50 C 348.74 282.64 346.42 282.48 319.27 282.19 C 291.90 281.91 289.75 282.02 285.55 283.88 C 282.91 285.04 280.27 287.16 279.15 289.00 C 277.17 292.26 275.47 301.34 276.53 303.04 C 276.91 303.66 292.26 303.93 318.32 303.76 L 359.50 303.50 L 359.27 298.16 Z M 260.91 580.91 C 258.94 578.94 258.84 577.96 259.19 564.16 C 259.52 551.10 259.83 548.95 262.00 544.50 C 265.10 538.13 272.09 531.13 278.50 527.97 L 283.50 525.50 L 317.50 525.50 L 351.50 525.50 L 357.15 528.15 C 364.34 531.52 370.48 537.66 373.85 544.85 C 376.23 549.96 376.52 551.86 376.83 564.61 L 377.18 578.71 L 374.46 580.86 C 371.75 582.99 371.43 583.00 317.37 583.00 C 263.55 583.00 262.98 582.98 260.91 580.91 Z M 359.00 559.90 C 359.00 553.01 356.65 548.46 351.53 545.47 L 347.32 543.00 L 317.90 543.00 C 285.23 543.00 283.87 543.24 279.39 549.80 C 277.27 552.89 275.39 562.21 276.52 564.03 C 276.89 564.63 292.77 565.00 318.06 565.00 L 359.00 565.00 L 359.00 559.90 Z" stroke-linecap="round"/>
</g>
</g>
</g>

  </svg>