<svg xmlns="http://www.w3.org/2000/svg" xmlns:xlink="http://www.w3.org/1999/xlink" width="2467px" height="2583px" viewBox="0 0 2467.350651265193 2583.4749672376493">
    <g id="c2af4539-6262-4b45-b6ca-15abe55377d7">
<g style="">
		<g id="c2af4539-6262-4b45-b6ca-15abe55377d7-child-0">
<path style="stroke: rgb(193,193,193); stroke-width: 0; stroke-dasharray: none; stroke-linecap: butt; stroke-dashoffset: 0; stroke-linejoin: miter; stroke-miterlimit: 4; fill: rgb(0,0,0); fill-rule: nonzero; opacity: 1;" transform="matrix(4.960176 0 0 4.960176 1233.675233 1291.737387) matrix(1 0 0 1 0 0)  translate(-511.774207, -512.527394)" d="M 281.07 771.83 C 259.34 765.59 256.75 735.33 277.06 724.97 L 281.00 722.96 L 281.00 511.59 L 281.00 300.22 L 278.69 299.64 C 273.97 298.45 268.25 293.22 265.48 287.54 C 263.08 282.65 262.80 281.09 263.22 275.21 C 263.93 265.20 268.20 258.61 276.68 254.40 C 280.39 252.55 286.93 252.49 510.47 252.24 C 765.67 251.96 746.03 251.45 753.39 258.59 C 759.20 264.23 760.47 267.45 760.49 276.58 C 760.50 283.83 760.19 285.16 757.47 289.58 C 755.36 293.01 752.71 295.53 748.72 297.89 L 743.00 301.28 L 743.00 512.11 L 743.00 722.95 L 745.99 724.49 C 750.76 726.96 755.94 731.98 758.29 736.41 C 759.94 739.54 760.46 742.26 760.48 748.00 C 760.50 754.42 760.10 756.18 757.73 760.22 C 756.20 762.81 753.41 766.11 751.52 767.55 C 743.95 773.33 758.37 773.01 511.59 772.91 C 365.81 772.85 283.27 772.47 281.07 771.83 Z M 738.50 757.03 C 743.59 755.85 746.00 752.89 746.00 747.81 C 746.00 744.76 745.33 743.17 743.08 740.92 L 740.15 738.00 L 512.00 738.00 L 283.85 738.00 L 280.92 740.92 C 275.37 746.48 278.26 756.13 285.83 757.29 C 291.62 758.18 734.65 757.92 738.50 757.03 Z M 314.00 513.00 C 314.00 397.50 314.00 302.66 314.00 302.25 C 314.00 301.84 310.06 301.50 305.25 301.50 L 296.50 301.50 L 296.24 511.00 C 296.10 626.22 296.20 721.06 296.46 721.75 C 296.79 722.62 299.56 723.00 305.47 723.00 L 314.00 723.00 L 314.00 513.00 Z M 694.76 676.25 L 695.02 630.00 L 512.01 630.00 L 329.00 630.00 L 329.00 675.93 C 329.00 718.83 329.12 721.88 330.75 722.31 C 331.71 722.55 413.95 722.70 513.50 722.63 L 694.50 722.50 L 694.76 676.25 Z M 728.50 512.00 L 728.50 301.50 L 719.25 301.41 L 710.00 301.31 L 710.00 512.19 L 710.00 723.08 L 719.25 722.79 L 728.50 722.50 L 728.50 512.00 Z M 695.00 567.50 L 695.00 520.99 L 512.25 521.25 L 329.50 521.50 L 329.24 567.75 L 328.98 614.00 L 511.99 614.00 L 695.00 614.00 L 695.00 567.50 Z M 695.00 404.00 L 695.00 302.00 L 512.00 302.00 L 329.00 302.00 L 329.00 404.00 L 329.00 506.00 L 512.00 506.00 L 695.00 506.00 L 695.00 404.00 Z M 742.48 284.42 C 747.72 280.99 747.70 272.00 742.46 268.57 C 740.31 267.16 717.32 267.00 511.79 267.02 C 296.86 267.04 283.37 267.15 281.25 268.78 C 278.81 270.65 277.21 275.21 277.77 278.67 C 277.96 279.87 279.28 282.01 280.70 283.42 L 283.27 286.00 L 511.67 286.00 C 718.26 286.00 740.30 285.85 742.48 284.42 Z M 388.82 701.60 C 382.26 699.84 377.21 695.64 374.40 689.62 C 372.44 685.41 372.02 682.90 372.03 675.50 C 372.05 665.17 373.71 660.45 379.13 655.30 C 385.46 649.29 387.20 649.00 416.22 649.02 C 439.61 649.04 442.94 649.25 446.50 650.89 C 451.76 653.31 455.32 656.76 458.10 662.12 C 461.38 668.45 461.50 683.63 458.31 689.59 C 455.26 695.29 449.95 699.64 443.83 701.46 C 437.12 703.45 396.08 703.56 388.82 701.60 Z M 442.72 685.04 C 445.36 682.59 446.39 678.06 445.56 672.52 C 444.38 664.69 443.90 664.54 418.18 664.20 C 405.75 664.03 394.53 664.15 393.26 664.47 C 388.60 665.64 387.00 668.47 387.00 675.55 C 387.00 681.16 387.35 682.44 389.45 684.55 L 391.91 687.00 L 416.27 687.00 C 439.06 687.00 440.76 686.87 442.72 685.04 Z M 581.72 701.91 C 576.60 700.70 573.03 698.73 569.80 695.34 C 565.31 690.61 564.00 686.07 564.00 675.24 C 564.00 665.93 564.17 665.13 567.25 660.00 C 569.76 655.82 571.73 653.95 575.86 651.79 L 581.23 649.00 L 607.65 649.00 C 636.81 649.00 638.54 649.29 644.87 655.30 C 650.36 660.51 651.95 665.14 651.98 675.93 C 652.00 686.97 650.10 692.12 644.16 697.03 C 637.84 702.26 633.22 703.01 608.07 702.90 C 595.66 702.84 583.80 702.40 581.72 701.91 Z M 634.69 684.83 C 636.66 682.97 637.00 681.66 637.00 675.94 C 637.00 670.82 636.55 668.66 635.09 666.86 C 633.19 664.51 633.04 664.50 608.99 664.20 C 581.90 663.86 581.14 664.02 578.98 670.57 C 577.43 675.25 578.47 681.81 581.22 684.74 C 583.32 686.97 583.70 687.00 607.86 687.00 C 631.65 687.00 632.44 686.94 634.69 684.83 Z M 387.56 593.51 C 382.26 591.62 379.09 589.14 375.50 584.07 C 372.74 580.17 372.47 579.05 372.16 569.96 C 371.85 561.16 372.08 559.50 374.29 554.68 C 376.96 548.85 381.61 544.62 387.75 542.43 C 392.71 540.66 436.97 540.46 443.80 542.18 C 450.77 543.93 458.37 551.82 459.88 558.86 C 463.48 575.65 457.84 589.14 445.46 593.36 C 438.93 595.58 393.72 595.70 387.56 593.51 Z M 440.45 578.58 C 444.65 576.83 446.00 574.41 446.00 568.63 C 446.00 556.65 443.83 555.80 414.43 556.20 L 392.04 556.50 L 389.29 559.26 C 386.84 561.70 386.55 562.70 386.67 568.07 C 386.82 574.41 388.39 577.37 392.50 579.05 C 393.60 579.50 404.08 579.90 415.78 579.94 C 431.99 579.98 437.87 579.66 440.45 578.58 Z M 579.79 593.81 C 575.21 592.59 567.81 586.22 565.63 581.63 C 563.42 576.98 563.38 560.43 565.55 555.22 C 567.52 550.50 571.40 546.41 576.50 543.66 C 580.23 541.65 582.15 541.48 605.00 541.17 C 633.23 540.78 637.78 541.41 643.78 546.55 C 650.17 552.02 652.00 556.87 652.00 568.36 C 652.00 576.05 651.59 578.88 650.03 581.93 C 647.52 586.86 641.11 592.35 636.14 593.84 C 631.35 595.27 585.21 595.25 579.79 593.81 Z M 632.97 578.25 C 636.86 576.29 638.34 572.17 637.37 566.00 C 635.85 556.29 635.02 556.00 608.18 556.00 C 585.28 556.00 581.76 556.62 579.47 561.06 C 577.78 564.33 577.55 570.69 578.99 574.48 C 580.80 579.23 584.45 579.92 608.00 579.96 C 626.53 579.99 629.98 579.76 632.97 578.25 Z M 365.64 485.38 C 359.21 483.39 351.92 476.16 349.67 469.54 C 348.18 465.18 348.00 458.00 348.01 404.07 C 348.01 365.93 348.39 342.14 349.03 339.82 C 350.94 332.95 356.00 326.80 362.43 323.52 L 368.36 320.50 L 426.43 320.50 C 484.05 320.50 484.53 320.52 488.50 322.66 C 493.82 325.54 498.43 330.49 500.92 336.00 C 502.90 340.37 502.96 342.26 502.93 403.50 C 502.92 452.20 502.62 467.32 501.63 470.09 C 499.62 475.71 495.48 480.42 489.75 483.59 L 484.50 486.50 L 427.50 486.70 C 379.11 486.86 369.77 486.67 365.64 485.38 Z M 479.50 471.03 C 481.71 470.52 484.51 468.94 485.75 467.50 L 488.00 464.89 L 488.00 403.37 L 488.00 341.85 L 485.08 338.92 L 482.15 336.00 L 426.00 336.00 L 369.85 336.00 L 366.92 338.92 L 364.00 341.85 L 364.00 403.74 L 364.00 465.63 L 366.75 468.22 C 368.26 469.64 370.40 471.02 371.50 471.29 C 375.27 472.19 475.49 471.95 479.50 471.03 Z M 539.36 485.91 C 533.25 484.14 526.72 478.78 523.79 473.14 L 521.00 467.77 L 521.01 404.14 L 521.02 340.50 L 523.35 335.50 C 526.42 328.92 532.54 323.51 539.12 321.56 C 546.77 319.29 649.04 319.23 656.65 321.49 C 663.85 323.63 669.49 328.10 672.73 334.24 L 675.50 339.50 L 675.50 404.00 L 675.50 468.50 L 672.75 473.18 C 669.22 479.19 664.15 483.32 657.81 485.37 C 653.39 486.80 646.01 486.99 597.64 486.91 C 567.31 486.86 541.09 486.41 539.36 485.91 Z M 656.34 469.70 C 657.85 468.71 659.52 466.76 660.04 465.38 C 660.61 463.89 661.00 438.77 661.00 403.39 C 661.00 338.84 661.07 339.72 655.53 337.19 C 653.60 336.31 638.30 336.00 597.38 336.00 L 541.85 336.00 L 538.92 338.92 L 536.00 341.85 L 536.00 403.29 C 536.00 463.84 536.03 464.77 538.06 467.35 C 539.20 468.80 541.56 470.40 543.31 470.91 C 545.16 471.46 569.02 471.78 600.05 471.68 C 649.77 471.51 653.79 471.37 656.34 469.70 Z" stroke-linecap="round"/>
</g>
</g>
</g>

  </svg>