<svg xmlns="http://www.w3.org/2000/svg" xmlns:xlink="http://www.w3.org/1999/xlink" width="500px" height="473px" viewBox="0 0 499.9999999999998 472.6614740717457">
    <g id="5d0f2dab-fb3d-424e-9417-880a70f34e28">
<g style="">
		<g id="5d0f2dab-fb3d-424e-9417-880a70f34e28-child-0">
<path style="stroke: rgb(193,193,193); stroke-width: 0; stroke-dasharray: none; stroke-linecap: butt; stroke-dashoffset: 0; stroke-linejoin: miter; stroke-miterlimit: 4; fill: rgb(0,0,0); fill-rule: nonzero; opacity: 1;" transform="matrix(0.828358 0 0 0.828358 250.000016 236.330752) matrix(1 0 0 1 0 0)  translate(-511.882985, -512.386377)" d="M 235.18 797.23 C 216.28 796.93 214.29 796.40 211.45 790.90 C 209.45 787.03 209.64 783.10 212.03 779.19 C 215.72 773.13 216.73 773.00 260.47 773.00 L 300.00 773.00 L 300.00 763.95 C 300.00 754.05 301.15 750.60 305.61 747.09 C 310.63 743.14 319.49 745.18 322.48 750.97 C 323.53 752.99 324.00 756.87 324.00 763.45 L 324.00 773.00 L 332.50 773.00 L 341.00 773.00 L 341.00 686.58 L 341.00 600.15 L 327.08 599.83 C 313.99 599.52 313.00 599.36 310.61 597.10 C 306.42 593.17 305.52 588.87 307.80 583.72 C 310.39 577.87 314.41 576.00 324.40 576.00 C 328.58 576.00 332.00 575.73 332.00 575.40 C 332.00 575.07 329.59 571.36 326.64 567.15 C 308.56 541.34 290.91 504.78 281.65 474.00 L 278.20 462.50 L 263.35 462.00 C 247.29 461.46 244.98 460.80 242.51 456.02 C 239.60 450.40 241.08 443.54 245.90 440.26 C 248.24 438.67 252.42 438.45 288.00 438.00 L 327.50 437.50 L 331.61 434.71 C 333.96 433.11 336.86 429.83 338.36 427.07 L 341.00 422.23 L 341.00 343.32 C 341.00 256.03 340.89 257.72 347.41 247.00 C 351.52 240.25 360.55 232.71 367.96 229.85 C 375.70 226.86 388.83 226.23 396.56 228.47 C 405.07 230.95 411.07 234.22 424.00 243.44 C 446.62 259.58 461.61 267.05 482.77 272.74 C 491.60 275.12 494.26 275.37 511.50 275.42 C 529.01 275.48 531.35 275.27 541.27 272.76 C 561.83 267.55 575.01 261.05 599.26 244.17 C 618.06 231.08 625.02 227.97 637.14 227.25 C 644.09 226.84 647.11 227.14 652.66 228.83 C 665.20 232.64 675.30 241.85 680.26 254.00 L 682.50 259.50 L 683.00 341.50 C 683.55 431.69 683.13 426.00 689.66 432.20 C 695.63 437.87 696.67 438.00 736.57 438.00 C 767.94 438.00 773.68 438.23 776.54 439.59 C 784.18 443.21 785.68 452.52 779.60 458.60 L 776.20 462.00 L 761.16 462.00 L 746.11 462.00 L 742.46 473.75 C 732.53 505.73 716.24 539.88 697.93 567.11 L 691.95 576.00 L 699.57 576.00 C 711.95 576.00 717.00 579.78 717.00 589.05 C 717.00 592.44 716.37 593.83 713.60 596.60 L 710.20 600.00 L 696.60 600.00 L 683.00 600.00 L 683.00 686.50 L 683.00 773.00 L 691.00 773.00 L 699.00 773.00 L 699.01 765.25 C 699.01 760.99 699.47 755.84 700.03 753.81 C 702.35 745.48 712.44 742.14 718.89 747.56 C 722.68 750.75 723.99 755.29 723.99 765.25 L 724.00 773.00 L 763.75 773.00 C 808.62 773.00 808.81 773.03 812.35 780.29 C 814.73 785.16 813.91 789.93 810.03 793.82 C 807.58 796.27 806.08 796.81 800.32 797.30 C 793.78 797.86 270.85 797.79 235.18 797.23 Z M 621.92 772.61 C 620.51 771.31 516.47 700.45 513.23 698.59 C 512.53 698.18 510.31 698.88 508.23 700.15 C 504.86 702.23 432.46 751.66 410.59 766.82 L 401.68 773.00 L 512.01 773.00 C 572.69 773.00 622.15 772.83 621.92 772.61 Z M 410.67 737.82 C 434.27 721.70 461.97 702.88 472.24 696.00 C 482.51 689.12 490.93 683.28 490.95 683.00 C 490.99 682.55 445.45 651.37 390.57 614.26 C 378.98 606.42 368.49 600.01 367.25 600.01 L 365.00 600.00 L 365.00 684.11 C 365.00 755.42 365.21 768.13 366.39 767.68 C 367.15 767.39 387.08 753.95 410.67 737.82 Z M 659.00 684.00 L 659.00 600.00 L 656.48 600.00 C 654.89 600.00 646.89 604.85 634.73 613.20 C 615.39 626.47 610.14 630.05 560.25 664.00 C 545.30 674.17 533.07 682.72 533.08 683.00 C 533.08 683.28 541.73 689.26 552.29 696.30 C 562.86 703.34 590.85 722.33 614.50 738.50 C 638.15 754.67 657.84 767.92 658.25 767.95 C 658.66 767.98 659.00 730.20 659.00 684.00 Z M 555.33 638.63 C 579.07 622.47 601.35 607.28 604.84 604.88 L 611.17 600.50 L 561.59 600.24 C 534.31 600.10 489.72 600.10 462.49 600.24 L 412.99 600.50 L 462.24 634.21 C 489.33 652.75 511.65 667.94 511.83 667.96 C 512.01 667.98 531.59 654.78 555.33 638.63 Z M 651.41 569.75 C 642.26 553.75 631.43 528.40 626.52 511.50 C 619.12 485.98 616.52 464.16 617.28 434.10 C 618.38 390.31 628.79 351.26 651.36 306.26 L 659.00 291.02 L 659.00 278.48 C 659.00 261.67 656.99 256.78 648.50 252.88 C 643.14 250.42 634.72 250.49 629.08 253.05 C 626.64 254.15 620.79 257.92 616.08 261.41 C 595.78 276.45 577.89 286.17 559.00 292.41 C 540.51 298.51 533.83 299.51 511.50 299.46 C 493.55 299.42 490.37 299.15 480.50 296.82 C 454.72 290.73 437.06 282.18 408.35 261.87 C 396.08 253.19 391.16 251.00 383.94 251.00 C 375.45 251.00 370.26 254.20 366.89 261.50 C 365.42 264.69 365.04 267.99 365.02 277.76 L 365.00 290.03 L 372.04 304.09 C 394.69 349.30 405.39 389.28 406.69 433.52 C 407.63 465.73 403.81 492.36 393.94 522.39 C 389.25 536.67 378.24 560.91 371.52 571.75 L 368.89 576.00 L 511.93 576.00 L 654.98 576.00 L 651.41 569.75 Z M 341.00 499.99 L 341.00 455.98 L 335.75 458.74 C 330.92 461.28 329.44 461.53 317.25 461.83 C 306.99 462.08 304.00 462.46 304.00 463.50 C 304.00 464.24 305.99 470.84 308.43 478.17 C 313.29 492.78 319.86 508.32 326.11 519.98 C 330.02 527.28 340.20 544.00 340.73 544.00 C 340.88 544.00 341.00 524.20 341.00 499.99 Z M 687.58 538.30 C 693.49 529.07 703.53 509.33 708.34 497.50 C 712.80 486.55 720.00 465.42 720.00 463.30 C 720.00 462.57 715.55 462.07 706.75 461.82 C 694.66 461.47 693.04 461.20 688.25 458.70 L 683.00 455.97 L 683.00 499.98 C 683.00 524.19 683.21 544.00 683.47 544.00 C 683.73 544.00 685.58 541.44 687.58 538.30 Z M 373.53 506.89 C 386.82 460.74 386.07 411.84 371.38 367.00 C 364.69 346.60 365.16 341.06 365.16 440.00 L 365.16 529.50 L 367.67 524.00 C 369.06 520.97 371.69 513.27 373.53 506.89 Z M 658.76 394.67 L 658.50 350.50 L 654.75 361.00 C 649.93 374.51 646.62 387.20 643.80 402.92 C 641.85 413.81 641.54 418.93 641.54 441.00 C 641.54 463.20 641.84 468.16 643.84 479.31 C 646.63 494.88 651.01 510.80 655.30 520.94 L 658.50 528.50 L 658.76 483.67 C 658.90 459.02 658.90 418.97 658.76 394.67 Z" stroke-linecap="round"/>
</g>
</g>
</g>

  </svg>