<svg xmlns="http://www.w3.org/2000/svg" xmlns:xlink="http://www.w3.org/1999/xlink" width="354px" height="500px" viewBox="0 0 354.18032227967865 500">
    <g id="ea4cac32-60e8-4c20-9bdf-c00ccb8d54f4">
<g style="">
		<g id="ea4cac32-60e8-4c20-9bdf-c00ccb8d54f4-child-0">
<path style="stroke: rgb(193,193,193); stroke-width: 0; stroke-dasharray: none; stroke-linecap: butt; stroke-dashoffset: 0; stroke-linejoin: miter; stroke-miterlimit: 4; fill: rgb(0,0,0); fill-rule: nonzero; opacity: 1;" transform="matrix(0.918282 0 0 0.918282 177.090233 250.000102) matrix(1 0 0 1 0 0)  translate(-480.095075, -512.598396)" d="M 318.90 783.16 C 297.81 776.18 284.40 754.51 287.76 732.82 C 289.10 724.11 293.81 714.28 299.44 708.40 C 303.36 704.31 304.02 704.00 308.81 704.00 C 313.10 704.00 314.52 704.49 317.23 706.92 C 320.15 709.52 320.50 710.41 320.50 715.17 C 320.50 719.79 320.00 721.15 316.75 725.40 C 314.68 728.10 312.48 731.99 311.87 734.05 C 309.13 743.19 314.32 754.05 323.60 758.59 C 331.21 762.31 338.77 761.71 348.33 756.63 C 355.91 752.61 357.52 752.35 362.45 754.42 C 366.84 756.25 369.25 760.02 369.18 764.94 C 369.08 771.99 364.73 776.17 351.84 781.57 C 343.23 785.18 327.33 785.95 318.90 783.16 Z M 381.89 741.24 C 380.46 740.28 370.34 730.91 359.39 720.42 C 348.45 709.92 337.39 699.42 334.80 697.09 C 327.26 690.27 326.18 683.08 331.87 677.62 C 336.38 673.30 340.70 672.56 345.72 675.25 C 348.04 676.49 358.74 685.97 369.51 696.32 C 380.27 706.67 389.46 715.00 389.93 714.82 C 390.40 714.64 392.92 712.51 395.54 710.09 L 400.31 705.68 L 395.90 701.68 C 384.32 691.18 362.70 669.25 361.90 667.18 C 360.58 663.80 360.86 648.85 362.29 646.46 C 362.95 645.34 398.38 609.72 441.02 567.30 C 523.49 485.25 521.11 487.38 528.16 489.52 C 534.59 491.46 538.43 499.13 535.97 505.07 C 535.25 506.81 502.49 540.07 459.60 582.60 L 384.50 657.09 L 405.85 677.79 C 426.61 697.94 427.20 698.62 427.71 703.08 C 428.05 706.14 427.71 708.64 426.69 710.58 C 425.85 712.19 418.45 720.14 410.26 728.25 L 395.35 743.00 L 389.92 742.99 C 386.44 742.99 383.57 742.36 381.89 741.24 Z M 442.45 682.45 C 438.01 680.26 435.65 675.72 436.30 670.65 C 436.80 666.68 440.82 662.53 528.30 575.50 C 607.37 496.84 620.52 483.35 625.26 476.00 C 636.12 459.14 642.83 443.15 646.66 425.00 C 649.15 413.23 649.17 385.84 646.70 374.27 C 636.15 324.83 600.99 285.54 553.50 270.15 C 540.33 265.88 527.65 264.00 512.07 264.00 C 495.62 264.01 482.91 265.95 469.16 270.55 C 449.54 277.11 433.71 286.72 418.00 301.61 C 413.88 305.51 409.52 309.23 408.32 309.86 C 402.83 312.73 394.95 309.52 392.38 303.37 C 389.41 296.27 392.41 291.58 408.50 278.15 C 430.13 260.09 453.56 248.40 479.31 242.80 C 493.34 239.75 528.87 239.49 542.00 242.35 C 593.08 253.47 634.18 284.89 656.55 329.91 C 683.52 384.19 676.91 447.02 638.97 497.00 C 633.21 504.59 457.76 680.45 453.70 682.71 C 450.71 684.37 446.13 684.26 442.45 682.45 Z M 551.39 479.02 C 547.63 477.50 545.00 473.10 545.00 468.35 C 545.00 464.16 545.47 463.47 555.03 453.32 C 571.71 435.62 577.77 424.49 580.09 407.23 C 584.49 374.54 561.65 342.18 528.00 333.44 C 519.46 331.23 504.45 331.18 496.00 333.35 C 474.35 338.89 456.02 355.09 447.74 376.00 C 444.23 384.87 443.00 392.42 443.00 405.13 C 443.00 423.42 439.46 433.50 429.55 443.41 C 411.97 460.98 383.74 460.90 366.06 443.22 C 354.71 431.87 352.00 423.32 352.00 398.85 C 352.00 377.94 353.58 368.07 360.10 348.36 C 363.57 337.85 365.03 334.81 368.06 331.75 C 371.08 328.70 372.48 328.00 375.63 328.01 C 379.95 328.01 384.70 330.68 386.65 334.19 C 388.67 337.83 388.23 342.27 385.07 350.17 C 377.88 368.14 376.73 373.94 376.24 394.82 C 375.71 417.32 376.39 420.34 383.45 426.85 C 391.75 434.50 402.80 434.91 411.31 427.89 C 417.25 423.00 418.28 419.44 419.12 401.00 C 419.67 389.04 420.46 382.45 421.99 377.07 C 431.60 343.33 458.44 317.64 492.76 309.33 C 503.13 306.82 521.28 307.10 532.50 309.93 C 560.62 317.03 583.84 335.74 595.95 361.06 C 602.44 374.65 604.28 383.13 604.28 399.50 C 604.28 416.16 602.40 424.54 595.52 438.50 C 589.88 449.95 583.71 458.02 571.23 470.25 C 562.01 479.28 560.99 480.00 557.39 479.94 C 555.25 479.90 552.55 479.49 551.39 479.02 Z" stroke-linecap="round"/>
</g>
</g>
</g>

  </svg>