<svg xmlns="http://www.w3.org/2000/svg" xmlns:xlink="http://www.w3.org/1999/xlink" width="500px" height="428px" viewBox="0 0 499.99978893502396 428.3506570101031">
    <g id="53e276f1-6149-4ae1-804f-49f4da0f1889">
<g style="">
		<g id="53e276f1-6149-4ae1-804f-49f4da0f1889-child-0">
<path style="stroke: rgb(193,193,193); stroke-width: 0; stroke-dasharray: none; stroke-linecap: butt; stroke-dashoffset: 0; stroke-linejoin: miter; stroke-miterlimit: 4; fill: rgb(0,0,0); fill-rule: nonzero; opacity: 1;" transform="matrix(0.758677 0 0 0.758677 249.999894 214.175329) matrix(1 0 0 1 0 0)  translate(-511.946652, -511.670899)" d="M 190.50 793.05 C 187.73 791.90 184.35 788.07 183.03 784.58 C 181.79 781.30 182.50 776.70 184.78 773.21 C 187.84 768.54 190.54 768.00 210.93 768.00 L 229.96 768.00 L 230.23 703.92 L 230.50 639.85 L 234.24 636.42 C 237.47 633.46 238.65 633.00 243.10 633.00 C 247.73 633.00 248.62 633.38 252.12 636.88 L 256.00 640.76 L 256.00 704.38 L 256.00 768.00 L 433.10 768.00 C 595.24 768.00 610.43 768.14 612.96 769.64 C 619.02 773.21 621.09 783.07 616.91 788.39 C 612.16 794.42 628.29 794.01 400.80 793.94 C 286.23 793.90 191.60 793.50 190.50 793.05 Z M 667.30 792.05 C 659.84 787.48 658.89 777.24 665.39 771.28 L 668.97 768.00 L 718.49 768.00 L 768.00 768.00 L 768.00 753.65 C 768.00 740.36 768.17 739.04 770.28 735.90 C 771.75 733.71 774.07 731.98 776.78 731.03 C 780.49 729.74 781.50 729.74 785.16 731.03 C 792.47 733.61 793.43 735.97 794.00 752.82 L 794.50 767.50 L 814.00 768.00 C 834.32 768.52 836.45 768.96 839.20 773.21 C 842.90 778.92 842.02 785.69 836.94 790.56 L 833.87 793.50 L 752.18 793.76 C 672.55 794.01 670.42 793.96 667.30 792.05 Z M 771.88 691.12 L 768.00 687.24 L 768.00 609.62 C 768.00 566.93 767.78 532.00 767.51 532.00 C 767.23 532.00 764.20 534.28 760.76 537.07 C 753.54 542.92 741.37 549.09 732.00 551.64 C 727.32 552.91 721.86 553.41 712.50 553.40 C 700.48 553.38 698.78 553.14 690.00 550.14 C 684.78 548.36 677.39 545.06 673.60 542.81 C 665.71 538.15 652.70 526.14 649.00 520.12 C 647.62 517.88 646.28 516.04 646.00 516.03 C 645.72 516.01 644.29 517.92 642.80 520.25 C 639.03 526.19 628.77 535.96 620.65 541.34 C 612.15 546.98 599.75 551.55 588.54 553.17 C 572.76 555.45 553.40 551.25 538.79 542.37 C 531.27 537.80 519.07 526.41 515.28 520.40 C 513.75 517.98 512.28 516.01 512.00 516.03 C 511.73 516.04 509.98 518.29 508.12 521.03 C 500.38 532.44 483.81 544.76 470.00 549.37 C 445.86 557.44 423.78 554.50 402.33 540.36 C 394.51 535.21 383.66 524.62 380.20 518.77 C 379.30 517.24 378.31 516.00 378.00 516.00 C 377.69 516.00 376.62 517.38 375.62 519.06 C 372.33 524.63 361.87 534.95 354.52 539.86 C 325.23 559.45 289.38 557.94 262.25 535.97 L 256.00 530.91 L 256.00 557.20 C 255.99 581.82 255.86 583.71 253.97 586.81 C 248.83 595.26 235.14 594.36 231.36 585.33 C 229.30 580.39 229.41 485.20 231.50 468.34 C 236.00 431.96 247.62 398.76 266.75 367.62 C 296.33 319.45 335.57 283.55 385.50 258.95 C 468.88 217.88 567.45 219.67 648.48 263.74 C 674.45 277.87 692.58 291.46 714.10 312.93 C 737.35 336.12 751.78 355.69 766.14 383.50 C 778.86 408.14 785.93 428.62 791.16 456.00 C 793.32 467.32 793.36 469.22 793.74 576.50 C 794.11 679.13 794.03 685.69 792.37 688.83 C 790.13 693.05 786.36 695.00 780.43 695.00 C 776.34 695.00 775.28 694.52 771.88 691.12 Z M 322.77 525.49 C 335.10 522.59 345.86 515.26 353.47 504.60 C 358.28 497.85 362.28 489.10 363.39 482.87 C 363.97 479.68 363.77 479.17 361.77 478.64 C 358.47 477.75 259.20 477.86 258.68 478.75 C 257.85 480.15 261.01 490.47 264.26 497.00 C 266.29 501.06 270.13 506.17 274.50 510.62 C 288.11 524.46 305.03 529.68 322.77 525.49 Z M 457.46 525.47 C 469.95 522.21 481.60 513.61 489.37 501.89 C 493.22 496.10 497.94 484.21 497.98 480.24 L 498.00 477.97 L 446.25 478.02 C 417.79 478.05 393.86 478.46 393.08 478.95 C 391.88 479.69 392.01 480.88 393.90 486.66 C 397.22 496.76 401.52 503.66 409.43 511.52 C 422.75 524.75 440.46 529.90 457.46 525.47 Z M 591.46 525.47 C 604.25 522.14 614.97 514.31 622.82 502.57 C 627.70 495.29 632.00 484.81 632.00 480.24 L 632.00 477.87 L 579.75 478.07 C 551.01 478.17 527.21 478.43 526.85 478.63 C 526.48 478.83 526.86 481.59 527.67 484.75 C 532.72 504.27 548.13 520.41 566.57 525.47 C 573.30 527.32 584.37 527.32 591.46 525.47 Z M 725.46 525.47 C 738.25 522.14 748.97 514.31 756.82 502.57 C 761.67 495.32 766.00 484.82 766.00 480.30 L 766.00 477.98 L 713.25 478.24 L 660.50 478.50 L 660.81 481.00 C 662.63 495.91 675.53 514.02 689.50 521.28 C 699.95 526.72 714.27 528.38 725.46 525.47 Z M 364.48 445.25 C 365.65 432.90 368.12 416.63 370.51 405.50 C 380.91 357.04 406.81 306.94 438.37 274.19 L 447.50 264.72 L 443.50 265.45 C 435.91 266.84 416.11 273.87 403.27 279.73 C 360.71 299.15 323.18 331.30 296.14 371.50 C 279.97 395.55 266.94 424.85 261.57 449.25 L 260.96 452.00 L 312.40 452.00 L 363.84 452.00 L 364.48 445.25 Z M 498.24 357.00 C 498.38 304.75 498.12 262.00 497.65 262.00 C 496.00 262.00 479.38 273.37 471.78 279.69 C 457.37 291.70 441.42 310.50 429.88 329.09 C 423.17 339.91 411.17 364.70 406.48 377.43 C 399.34 396.85 393.25 425.37 391.68 446.75 L 391.29 452.00 L 444.64 452.00 L 497.98 452.00 L 498.24 357.00 Z M 632.52 444.75 C 627.80 394.72 610.73 349.29 582.39 311.34 C 569.51 294.09 544.59 271.38 530.94 264.47 L 526.00 261.97 L 526.00 356.98 L 526.00 452.00 L 579.60 452.00 L 633.20 452.00 L 632.52 444.75 Z M 762.41 449.25 C 747.83 385.29 700.26 323.36 639.46 289.19 C 622.31 279.55 592.67 267.58 580.59 265.42 L 576.68 264.72 L 584.49 272.61 C 623.76 312.28 653.06 376.15 658.06 433.00 C 658.67 439.88 659.37 446.96 659.63 448.75 L 660.09 452.00 L 711.56 452.00 L 763.04 452.00 L 762.41 449.25 Z" stroke-linecap="round"/>
</g>
</g>
</g>

  </svg>