<svg xmlns="http://www.w3.org/2000/svg" xmlns:xlink="http://www.w3.org/1999/xlink" width="500px" height="444px" viewBox="0 0 500 444.3560839707918">
    <g id="6c2b8d69-ee03-4238-bce0-94d18deee799">
<g style="">
		<g id="6c2b8d69-ee03-4238-bce0-94d18deee799-child-0">
<path style="stroke: rgb(193,193,193); stroke-width: 0; stroke-dasharray: none; stroke-linecap: butt; stroke-dashoffset: 0; stroke-linejoin: miter; stroke-miterlimit: 4; fill: rgb(0,0,0); fill-rule: nonzero; opacity: 1;" transform="matrix(0.799502 0 0 0.799502 249.999871 222.177928) matrix(1 0 0 1 0 0)  translate(-512.214259, -512.007523)" d="M 267.75 788.97 C 242.57 784.73 219.02 767.03 207.21 743.46 C 201.12 731.30 199.53 724.00 199.52 708.00 C 199.50 690.66 200.76 685.04 207.99 670.34 C 216.38 653.29 232.53 638.28 249.78 631.52 L 256.79 628.77 L 260.51 615.63 C 271.31 577.53 287.60 542.81 311.00 508.00 C 331.93 476.87 363.54 444.71 392.50 425.07 L 400.50 419.65 L 400.55 365.07 C 400.61 305.16 400.66 304.57 406.88 288.48 C 411.23 277.23 416.94 268.90 427.43 258.50 C 437.51 248.49 446.72 242.70 459.06 238.59 C 471.96 234.30 478.36 233.82 516.75 234.23 C 552.24 234.61 552.56 234.64 561.31 237.32 C 576.89 242.11 587.67 248.76 599.13 260.66 C 607.09 268.94 612.77 277.49 616.92 287.46 C 622.83 301.66 623.00 303.73 623.03 364.32 L 623.07 419.50 L 633.78 426.71 C 692.03 465.89 742.32 539.21 763.56 615.92 C 765.45 622.74 767.11 628.39 767.25 628.47 C 767.39 628.55 770.50 629.86 774.16 631.38 C 789.49 637.75 805.53 651.60 813.83 665.63 C 816.07 669.41 819.34 676.78 821.10 682.00 C 823.82 690.10 824.36 693.35 824.76 704.00 C 825.14 714.37 824.86 718.00 823.12 725.30 C 815.32 757.91 790.84 781.59 757.74 788.56 C 751.85 789.79 716.70 789.98 511.68 789.88 C 380.13 789.82 270.36 789.41 267.75 788.97 Z M 760.12 758.92 C 774.64 753.26 783.95 745.32 790.36 733.14 C 801.78 711.41 797.98 686.07 780.76 669.00 C 774.12 662.43 762.05 655.89 753.20 654.08 C 749.49 653.32 677.31 653.00 511.70 653.01 C 249.82 653.03 269.42 652.52 255.76 659.70 C 234.48 670.88 222.96 696.26 228.51 719.76 C 230.85 729.71 235.47 737.70 243.39 745.52 C 251.58 753.60 257.88 757.27 268.19 759.98 C 275.31 761.85 281.63 761.90 514.50 761.70 L 753.50 761.50 L 760.12 758.92 Z M 736.19 622.33 C 735.40 617.71 727.18 595.08 721.36 581.50 C 697.21 525.10 657.61 475.93 612.00 445.68 C 599.26 437.23 576.90 426.23 564.00 422.07 C 531.61 411.61 502.33 410.65 470.50 419.01 C 403.36 436.64 338.63 498.95 303.05 580.20 C 295.89 596.55 286.68 623.19 287.93 623.95 C 288.41 624.25 389.54 624.42 512.65 624.33 C 728.87 624.16 736.49 624.09 736.19 622.33 Z M 436.28 401.35 C 439.70 399.89 447.34 397.07 453.25 395.08 L 464.01 391.46 L 464.25 352.48 L 464.50 313.50 L 466.93 309.26 C 468.26 306.93 471.15 303.78 473.34 302.26 L 477.33 299.50 L 511.91 299.50 C 546.49 299.50 546.50 299.50 549.75 301.82 C 551.54 303.10 554.24 305.76 555.75 307.74 L 558.50 311.34 L 559.00 351.29 L 559.50 391.24 L 570.50 394.97 C 576.55 397.02 584.14 399.89 587.37 401.35 C 590.61 402.81 593.64 404.00 594.12 404.00 C 594.61 404.00 595.00 384.48 595.00 359.96 C 595.00 312.55 594.50 306.66 589.58 295.63 C 582.24 279.20 565.34 265.93 548.07 263.01 C 543.64 262.26 529.89 262.00 507.92 262.23 C 476.06 262.58 474.21 262.70 468.28 264.88 C 451.33 271.11 438.42 284.07 432.20 301.12 L 429.50 308.50 L 429.19 356.25 C 429.02 382.51 429.14 404.00 429.47 404.00 C 429.79 404.00 432.86 402.81 436.28 401.35 Z M 531.00 356.50 L 531.00 327.00 L 512.00 327.00 L 493.00 327.00 L 493.00 356.50 L 493.00 386.00 L 512.00 386.00 L 531.00 386.00 L 531.00 356.50 Z M 278.44 723.99 C 270.72 721.60 265.15 711.69 266.98 703.58 C 270.17 689.44 286.87 684.63 297.13 694.89 C 307.72 705.48 301.30 723.17 286.39 724.50 C 283.70 724.73 280.12 724.51 278.44 723.99 Z M 354.03 723.42 C 347.26 720.48 343.00 714.14 343.00 707.00 C 343.00 698.88 348.30 692.34 356.72 690.07 C 368.13 687.00 380.05 697.02 378.74 708.59 C 377.39 720.55 364.82 728.10 354.03 723.42 Z M 430.79 724.01 C 423.00 721.66 417.37 713.31 418.26 705.42 C 419.74 692.26 435.46 684.99 446.11 692.54 C 452.06 696.75 454.21 701.15 453.75 708.15 C 452.99 719.82 442.03 727.40 430.79 724.01 Z M 504.38 723.09 C 495.39 719.00 491.60 708.59 495.88 699.76 C 500.82 689.54 512.64 686.31 522.23 692.57 C 529.36 697.22 531.83 706.42 528.12 714.50 C 525.93 719.26 523.70 721.39 518.75 723.46 C 513.89 725.49 509.42 725.37 504.38 723.09 Z M 581.03 723.42 C 573.48 720.14 569.54 713.58 570.22 705.40 C 571.50 689.89 589.29 684.01 600.61 695.35 C 613.95 708.72 598.44 730.97 581.03 723.42 Z M 656.68 723.55 C 651.70 721.77 649.13 719.40 646.88 714.50 C 643.15 706.37 645.71 697.21 653.07 692.33 C 662.03 686.41 674.75 689.83 679.06 699.32 C 681.45 704.58 681.47 709.38 679.12 714.50 C 676.93 719.26 674.70 721.39 669.75 723.46 C 665.28 725.33 661.73 725.35 656.68 723.55 Z M 731.38 723.09 C 718.73 717.34 717.47 700.01 729.14 692.29 C 737.06 687.05 748.39 689.52 754.00 697.71 C 755.91 700.50 756.47 702.59 756.47 707.00 C 756.47 714.28 753.08 719.81 746.75 722.88 C 741.38 725.48 736.79 725.54 731.38 723.09 Z M 499.26 597.46 C 480.49 592.40 465.92 576.27 462.85 557.15 C 458.51 530.08 478.05 503.64 505.28 499.71 C 534.30 495.53 562.00 519.66 562.00 549.10 C 562.00 571.33 546.08 591.84 524.46 597.47 C 517.25 599.35 506.26 599.34 499.26 597.46 Z M 524.20 567.43 C 535.43 559.54 536.86 544.11 527.23 534.73 C 519.79 527.49 510.46 525.99 501.87 530.67 C 486.74 538.90 486.42 559.36 501.30 568.05 C 505.94 570.77 507.22 571.06 513.21 570.77 C 518.74 570.50 520.66 569.91 524.20 567.43 Z" stroke-linecap="round"/>
</g>
</g>
</g>

  </svg>