<svg xmlns="http://www.w3.org/2000/svg" xmlns:xlink="http://www.w3.org/1999/xlink" width="500px" height="418px" viewBox="0 0 499.9999999999998 418.3753579014133">
    <g id="97ea29f8-c05b-4935-a66e-43d1ecce92bf">
<g style="">
		<g id="97ea29f8-c05b-4935-a66e-43d1ecce92bf-child-0">
<path style="stroke: rgb(193,193,193); stroke-width: 0; stroke-dasharray: none; stroke-linecap: butt; stroke-dashoffset: 0; stroke-linejoin: miter; stroke-miterlimit: 4; fill: rgb(0,0,0); fill-rule: nonzero; opacity: 1;" transform="matrix(0.931087 0 0 0.931087 249.999872 209.187572) matrix(1 0 0 1 0 0)  translate(-497.486787, -512.170274)" d="M 377.07 735.51 C 363.54 732.45 348.06 722.84 339.49 712.19 C 330.11 700.53 324.00 683.59 324.00 669.21 C 324.00 657.69 328.51 642.96 334.97 633.39 C 336.64 630.92 338.00 628.75 338.00 628.56 C 338.00 628.37 336.24 627.51 334.08 626.65 C 328.97 624.60 323.34 619.60 321.08 615.09 C 320.09 613.12 317.60 606.10 315.55 599.50 C 311.48 586.40 292.51 527.26 271.42 461.88 C 264.04 438.99 258.00 419.14 258.00 417.78 C 258.00 411.08 262.39 404.05 269.00 400.16 C 273.00 397.80 274.74 397.47 284.75 397.15 C 290.94 396.95 296.00 396.50 296.00 396.14 C 296.00 395.79 293.33 387.40 290.06 377.50 C 286.80 367.60 281.38 350.84 278.02 340.25 C 271.87 320.87 270.08 317.46 265.52 316.50 C 264.41 316.26 258.10 315.93 251.50 315.75 C 237.98 315.38 234.25 314.11 230.96 308.70 C 227.36 302.80 228.76 295.34 234.49 290.00 C 237.14 287.52 237.33 287.50 255.35 287.50 L 273.55 287.50 L 280.19 290.77 C 288.02 294.63 295.65 302.42 299.29 310.25 C 300.63 313.14 307.50 333.84 314.54 356.25 L 327.36 397.00 L 536.24 397.00 C 691.57 397.00 746.30 397.30 749.73 398.16 C 758.29 400.32 765.97 410.05 765.99 418.77 C 766.00 420.02 762.66 431.27 758.58 443.77 C 754.50 456.27 744.41 487.42 736.16 513.00 C 699.42 626.85 703.30 615.75 698.59 620.47 C 696.26 622.80 692.26 625.50 689.70 626.48 L 685.04 628.26 L 687.52 631.20 C 691.36 635.77 696.92 648.15 698.52 655.69 C 703.09 677.23 696.07 701.04 680.62 716.47 C 667.52 729.54 653.27 735.94 635.50 736.74 C 622.34 737.33 613.20 735.38 601.07 729.39 C 575.19 716.61 560.50 687.66 565.42 659.15 C 567.02 649.88 571.56 638.23 576.01 631.99 L 578.14 629.00 L 512.13 629.00 L 446.12 629.00 L 450.06 635.49 C 452.23 639.05 455.22 645.47 456.71 649.74 C 459.09 656.57 459.41 659.00 459.41 670.00 C 459.41 681.07 459.09 683.42 456.64 690.50 C 449.43 711.32 434.22 726.50 413.49 733.58 C 403.61 736.95 387.29 737.82 377.07 735.51 Z M 407.41 704.67 C 422.83 697.61 430.96 683.92 429.70 667.16 C 428.62 652.98 419.19 639.99 406.25 634.86 C 397.52 631.40 384.53 631.55 376.75 635.20 C 368.70 638.97 360.90 646.65 357.37 654.28 C 354.85 659.75 354.50 661.65 354.50 670.00 C 354.50 678.14 354.87 680.29 357.10 685.05 C 361.84 695.14 370.30 702.65 380.91 706.17 C 388.68 708.75 399.89 708.11 407.41 704.67 Z M 647.65 704.56 C 655.29 701.06 659.28 697.91 663.13 692.31 C 673.08 677.85 672.65 659.59 662.05 646.18 C 645.04 624.67 610.04 628.63 598.04 653.42 C 587.87 674.43 599.48 700.33 621.93 706.70 C 629.01 708.71 640.72 707.73 647.65 704.56 Z M 683.56 580.00 C 687.01 569.28 697.32 537.10 706.48 508.50 C 715.64 479.90 725.30 449.86 727.94 441.75 L 732.75 427.00 L 512.37 427.00 C 391.17 427.00 292.00 427.28 292.00 427.61 C 292.00 428.23 311.91 491.00 327.49 539.50 C 332.09 553.80 338.18 572.92 341.03 582.00 C 343.89 591.08 346.42 598.84 346.67 599.25 C 346.92 599.67 421.41 599.89 512.21 599.75 L 677.30 599.50 L 683.56 580.00 Z M 399.30 559.04 C 392.60 554.95 390.67 543.93 395.62 538.04 C 401.04 531.60 393.35 532.00 512.30 532.00 L 620.70 532.00 L 624.10 534.27 C 633.03 540.24 633.03 552.76 624.10 558.73 L 620.70 561.00 L 511.60 561.00 C 405.16 560.99 402.42 560.95 399.30 559.04 Z M 384.24 492.01 C 375.39 486.61 374.57 475.40 382.49 468.00 L 385.16 465.50 L 511.42 465.24 L 637.67 464.98 L 641.09 467.26 C 650.03 473.24 650.04 485.76 641.10 491.73 L 637.70 494.00 L 512.60 494.00 C 389.53 493.99 387.45 493.96 384.24 492.01 Z" stroke-linecap="round"/>
</g>
</g>
</g>

  </svg>