<svg xmlns="http://www.w3.org/2000/svg" xmlns:xlink="http://www.w3.org/1999/xlink" width="861px" height="970px" viewBox="0 0 860.6659637987015 969.5346497515545">
    <g id="d2641fe1-cf81-4cb7-babb-dbd21ab9e9d5">
<g style="">
		<g id="d2641fe1-cf81-4cb7-babb-dbd21ab9e9d5-child-0">
<path style="stroke: rgb(193,193,193); stroke-width: 0; stroke-dasharray: none; stroke-linecap: butt; stroke-dashoffset: 0; stroke-linejoin: miter; stroke-miterlimit: 4; fill: rgb(0,0,0); fill-rule: nonzero; opacity: 1;" transform="matrix(1.494212 0 0 1.494212 430.333056 484.767408) matrix(1 0 0 1 0 0)  translate(-512, -529.55986)" d="M 342.24 852.01 C 340.45 850.91 338.09 848.55 336.99 846.76 C 335.14 843.72 335.01 841.68 335.00 815.90 C 335.00 788.86 335.05 788.23 337.27 784.90 C 341.98 777.85 340.68 778.00 397.25 778.00 L 448.00 778.00 L 448.00 676.50 L 448.00 575.00 L 340.75 575.00 C 234.94 574.99 233.46 574.97 230.19 572.97 C 224.17 569.31 224.00 568.02 224.00 527.28 C 224.01 492.56 224.12 490.32 225.96 487.30 C 230.04 480.60 222.76 481.00 340.95 481.00 L 448.00 481.00 L 448.00 404.65 L 448.00 328.29 L 440.35 327.65 C 436.14 327.29 412.85 327.00 388.60 327.00 C 347.22 326.99 344.31 326.88 341.42 325.11 C 334.96 321.18 335.00 321.53 335.00 266.25 L 335.00 216.30 L 337.25 212.99 C 338.49 211.17 340.77 208.74 342.32 207.59 L 345.15 205.50 L 510.66 205.24 C 672.61 204.99 676.27 205.02 680.56 206.92 C 683.20 208.09 685.75 210.19 686.97 212.18 C 688.93 215.40 688.99 217.07 689.00 265.78 C 689.00 321.30 689.01 321.19 682.81 324.97 C 679.64 326.91 677.85 326.99 641.41 327.00 C 620.46 327.00 597.17 327.29 589.66 327.66 L 576.00 328.31 L 576.00 360.66 L 576.00 393.00 L 683.25 393.00 C 789.06 393.01 790.54 393.03 793.81 395.03 C 799.81 398.68 800.00 400.08 800.00 439.72 C 799.99 473.66 799.89 475.67 798.01 478.76 C 796.91 480.55 794.55 482.91 792.76 484.01 C 789.65 485.90 787.65 485.99 748.75 486.00 L 708.00 486.00 L 708.00 534.48 L 708.00 582.96 L 710.75 583.57 C 725.90 586.92 740.66 596.43 749.93 608.79 C 757.06 618.29 761.31 627.34 761.80 634.05 C 762.16 638.91 761.89 639.98 759.57 642.73 C 756.18 646.77 751.32 648.45 747.40 646.96 C 742.85 645.23 741.24 643.22 738.99 636.48 C 735.25 625.23 726.02 615.00 714.29 609.11 C 709.01 606.46 707.31 606.45 706.48 609.07 C 706.12 610.21 704.40 612.01 702.66 613.07 C 696.88 616.59 689.10 615.03 686.40 609.81 C 684.58 606.29 683.33 606.30 676.18 609.91 C 665.06 615.52 656.48 625.22 652.01 637.23 C 649.35 644.35 646.20 647.00 640.38 647.00 C 634.27 647.00 629.99 643.12 629.31 636.97 C 628.00 625.12 642.40 603.58 658.94 592.66 C 663.97 589.33 674.74 584.94 681.25 583.55 L 684.00 582.96 L 684.00 534.48 L 684.00 486.00 L 630.00 486.00 L 576.00 486.00 L 576.00 632.00 L 576.00 778.00 L 626.75 778.00 C 683.32 778.00 682.02 777.85 686.73 784.90 C 688.95 788.23 689.00 788.86 689.00 815.90 C 688.99 841.68 688.86 843.72 687.01 846.76 C 685.91 848.55 683.55 850.91 681.76 852.01 C 678.54 853.97 676.38 853.99 512.00 853.99 C 347.62 853.99 345.46 853.97 342.24 852.01 Z M 666.00 816.50 L 666.00 802.00 L 511.86 802.00 L 357.72 802.00 L 358.36 808.15 C 358.71 811.53 359.00 818.05 359.00 822.65 L 359.00 831.00 L 512.50 831.00 L 666.00 831.00 L 666.00 816.50 Z M 552.00 552.50 L 552.00 327.00 L 526.25 327.00 C 512.09 327.01 494.09 327.30 486.25 327.66 L 472.00 328.31 L 472.00 404.66 L 472.00 481.00 L 498.75 481.00 C 523.82 481.01 525.71 481.13 528.81 483.03 C 534.96 486.78 535.12 488.01 534.80 529.33 C 534.52 563.91 534.37 566.70 532.60 569.30 C 528.90 574.76 527.46 575.00 498.55 575.00 L 472.00 575.00 L 472.00 676.50 L 472.00 778.00 L 512.00 778.00 L 552.00 778.00 L 552.00 552.50 Z M 511.00 528.00 L 511.00 504.00 L 379.50 504.00 L 248.00 504.00 L 248.00 528.00 L 248.00 552.00 L 379.50 552.00 L 511.00 552.00 L 511.00 528.00 Z M 594.00 439.50 L 594.00 416.00 L 585.00 416.00 L 576.00 416.00 L 576.00 439.50 L 576.00 463.00 L 585.00 463.00 L 594.00 463.00 L 594.00 439.50 Z M 776.00 439.50 L 776.00 416.00 L 697.00 416.00 L 618.00 416.00 L 618.00 439.50 L 618.00 463.00 L 697.00 463.00 L 776.00 463.00 L 776.00 439.50 Z M 666.00 266.50 L 666.00 229.00 L 512.50 229.00 L 359.00 229.00 L 359.00 266.50 L 359.00 304.00 L 512.50 304.00 L 666.00 304.00 L 666.00 266.50 Z M 681.50 726.50 C 667.33 723.57 650.72 712.91 641.95 701.11 C 636.87 694.28 631.51 683.03 630.11 676.28 C 629.04 671.07 629.20 669.54 631.31 665.16 C 633.81 659.97 633.42 660.00 696.43 660.00 L 754.97 660.00 L 758.05 662.75 C 762.27 666.52 762.88 671.75 760.15 680.67 C 754.14 700.31 737.39 717.31 717.17 724.28 C 706.69 727.89 692.52 728.77 681.50 726.50 Z M 703.57 703.92 C 712.72 702.25 721.09 697.65 727.71 690.63 L 733.50 684.50 L 723.85 683.64 C 718.44 683.15 701.81 683.15 685.97 683.64 L 657.74 684.50 L 662.26 689.50 C 667.99 695.84 676.49 700.97 684.92 703.17 C 692.79 705.22 695.75 705.34 703.57 703.92 Z M 305.42 538.58 C 300.89 536.61 298.00 532.43 298.00 527.85 C 298.00 524.83 298.76 523.15 301.42 520.24 L 304.85 516.50 L 378.27 516.50 C 458.32 516.50 455.55 516.30 458.59 522.16 C 461.54 527.89 459.81 534.51 454.43 538.05 C 451.60 539.92 449.03 539.99 380.00 539.95 C 322.41 539.93 307.90 539.66 305.42 538.58 Z M 379.00 287.72 C 373.90 285.17 372.88 281.05 373.20 264.33 C 373.49 249.85 373.61 249.04 375.93 246.58 C 377.26 245.16 379.73 243.64 381.43 243.21 C 383.12 242.78 405.36 242.60 430.85 242.81 L 477.19 243.20 L 480.35 246.02 L 483.50 248.83 L 483.82 264.33 C 484.08 276.98 483.85 280.40 482.55 282.90 C 479.37 289.05 479.79 289.00 428.30 288.99 C 392.90 288.97 380.89 288.67 379.00 287.72 Z M 545.30 287.06 C 540.68 284.22 539.78 280.02 540.17 263.17 L 540.50 248.83 L 543.77 245.92 L 547.03 243.00 L 592.27 242.84 C 642.87 242.66 640.48 242.60 644.30 244.15 C 649.20 246.13 650.00 249.27 650.00 266.43 L 650.00 281.97 L 647.08 285.23 L 644.17 288.50 L 596.33 288.76 C 550.29 289.01 548.38 288.95 545.30 287.06 Z" stroke-linecap="round"/>
</g>
</g>
</g>

  </svg>