<svg xmlns="http://www.w3.org/2000/svg" xmlns:xlink="http://www.w3.org/1999/xlink" width="2275px" height="1644px" viewBox="0 0 2274.6639261981272 1644.2276365568687">
    <g id="5aa82a5e-7e64-4dc9-ad39-b2cfba76549f">
<g style="">
		<g id="5aa82a5e-7e64-4dc9-ad39-b2cfba76549f-child-0">
<path style="stroke: rgb(193,193,193); stroke-width: 0; stroke-dasharray: none; stroke-linecap: butt; stroke-dashoffset: 0; stroke-linejoin: miter; stroke-miterlimit: 4; fill: rgb(0,0,0); fill-rule: nonzero; opacity: 1;" transform="matrix(3.543837 0 0 3.543837 1137.332087 822.113908) matrix(1 0 0 1 0 0)  translate(-512.06395, -511.98412)" d="M 202.48 742.61 C 198.40 740.83 193.33 734.86 192.00 730.27 C 191.23 727.61 191.00 689.27 191.20 600.17 L 191.50 473.85 L 195.24 470.42 C 199.50 466.51 204.31 465.89 208.96 468.64 C 213.29 471.20 215.00 475.01 215.01 482.15 C 215.02 488.37 215.14 488.67 221.32 497.00 C 247.17 531.88 287.93 559.52 329.00 570.01 C 351.23 575.69 339.90 575.32 505.00 575.74 C 615.80 576.01 660.10 575.81 667.00 574.97 C 705.91 570.26 741.39 555.14 770.50 530.85 C 781.08 522.02 793.38 509.22 802.49 497.55 L 809.00 489.21 L 809.00 482.09 C 809.00 475.45 809.22 474.73 812.25 471.42 C 816.46 466.83 821.93 465.91 826.81 468.97 C 833.36 473.07 833.00 465.40 832.99 602.22 C 832.99 684.62 832.64 727.75 831.96 730.22 C 830.62 735.01 826.75 739.58 821.91 742.04 C 818.13 743.97 813.86 744.00 511.79 743.96 C 260.91 743.93 204.95 743.68 202.48 742.61 Z M 809.00 624.25 C 809.00 571.31 808.84 528.00 808.65 528.00 C 808.45 528.00 803.96 532.39 798.66 537.75 L 789.03 547.50 L 789.01 615.30 C 789.00 675.74 788.82 683.45 787.38 686.30 C 785.10 690.82 782.09 693.89 777.79 696.10 C 774.17 697.95 767.64 698.00 511.99 698.00 C 272.77 698.00 249.62 697.86 246.70 696.39 C 242.53 694.28 238.24 690.26 236.16 686.50 C 234.67 683.80 234.47 676.61 234.20 615.08 L 233.89 546.66 L 224.70 537.84 C 219.64 532.99 215.39 529.02 215.25 529.01 C 215.11 529.01 215.00 572.09 215.00 624.75 L 215.00 720.50 L 512.00 720.50 L 809.00 720.50 L 809.00 624.25 Z M 764.42 674.39 C 765.83 673.85 766.00 668.11 766.00 619.89 C 766.00 590.25 765.62 566.00 765.15 566.00 C 764.68 566.00 759.92 568.52 754.56 571.59 C 734.68 583.01 711.05 591.58 685.15 596.76 L 671.50 599.48 L 517.50 599.79 C 380.00 600.06 362.11 599.92 350.50 598.46 C 322.04 594.90 291.83 584.72 268.00 570.68 L 258.50 565.08 L 258.24 618.79 C 258.10 648.33 258.20 673.06 258.46 673.75 C 258.84 674.75 310.25 675.00 510.89 675.00 C 649.46 675.00 763.55 674.73 764.42 674.39 Z M 350.16 553.42 C 312.20 547.89 276.71 529.32 249.27 500.62 C 229.58 480.03 215.52 454.76 208.54 427.41 C 203.10 406.12 204.12 395.48 212.26 388.51 C 217.81 383.76 221.20 383.01 237.17 383.01 L 250.83 383.00 L 251.17 361.25 C 251.49 341.07 251.68 339.20 253.74 335.33 C 255.97 331.15 259.11 328.43 264.30 326.20 C 266.15 325.40 273.59 325.00 286.40 325.00 C 304.84 325.00 305.86 325.10 309.09 327.28 C 316.95 332.58 316.95 341.42 309.09 346.72 C 305.93 348.85 304.68 349.00 290.35 349.00 L 275.00 349.00 L 275.00 420.93 L 275.00 492.87 L 283.75 499.43 L 292.50 506.00 L 293.00 444.18 L 293.50 382.35 L 296.18 378.30 C 297.93 375.66 300.70 373.33 304.13 371.62 C 308.92 369.24 310.46 369.00 321.20 369.00 L 333.00 369.00 L 333.00 331.66 C 333.00 294.51 333.01 294.29 335.32 289.92 C 337.06 286.64 338.98 284.83 342.94 282.76 L 348.23 280.00 L 511.36 280.02 C 667.47 280.04 674.67 280.12 678.54 281.88 C 683.47 284.12 687.57 288.81 688.96 293.78 C 689.52 295.83 689.99 303.69 689.99 311.25 L 690.00 325.00 L 723.54 325.00 C 754.77 325.00 757.34 325.13 760.88 326.94 C 765.86 329.48 770.63 334.99 771.94 339.72 C 772.52 341.80 772.99 352.34 772.99 363.14 L 773.00 382.79 L 788.25 383.18 C 804.74 383.61 807.12 384.25 812.14 389.66 C 818.62 396.64 819.54 401.63 817.05 416.18 C 813.00 439.91 801.99 466.06 788.30 484.50 C 779.39 496.49 761.71 513.92 750.00 522.26 C 731.74 535.25 705.33 546.77 681.50 552.14 C 671.63 554.36 670.43 554.40 586.56 554.74 C 522.97 555.00 500.90 554.79 498.78 553.91 C 494.28 552.05 492.00 548.38 492.03 543.12 C 492.07 538.12 493.42 535.68 497.73 532.84 C 500.35 531.11 504.82 531.01 582.25 531.01 L 664.00 531.00 L 664.00 484.50 L 664.00 438.00 L 511.49 438.00 L 358.98 438.00 L 359.24 484.25 L 359.50 530.50 L 410.10 531.00 C 464.09 531.53 461.88 531.32 466.23 536.46 C 468.43 539.06 468.55 546.77 466.44 549.78 C 462.77 555.02 462.94 555.01 409.30 554.89 C 373.04 554.81 356.96 554.42 350.16 553.42 Z M 335.23 478.93 C 335.06 449.95 335.34 431.46 335.98 429.08 C 337.47 423.54 340.96 418.95 345.50 416.59 C 348.78 414.88 351.71 414.44 361.75 414.17 L 374.00 413.84 L 374.00 403.40 L 374.00 392.97 L 345.75 393.23 L 317.50 393.50 L 317.24 456.54 L 316.99 519.59 L 324.74 522.20 C 329.01 523.64 333.17 524.86 334.00 524.91 C 335.32 524.99 335.47 519.37 335.23 478.93 Z M 698.00 522.21 L 705.50 519.43 L 705.76 456.21 L 706.01 393.00 L 566.44 393.00 C 465.61 393.00 426.26 392.69 424.68 391.88 C 418.91 388.93 417.06 380.53 420.98 375.03 C 425.56 368.59 415.37 369.00 571.93 369.00 C 698.17 369.00 714.48 369.17 717.78 370.55 C 721.71 372.19 726.39 376.16 728.34 379.50 C 729.17 380.94 729.64 399.06 730.00 443.89 L 730.50 506.28 L 739.74 499.39 L 748.98 492.50 L 748.99 420.75 L 749.00 349.00 L 573.50 349.00 L 398.00 349.00 L 398.00 381.48 L 398.00 413.97 L 535.75 414.23 C 673.26 414.50 673.51 414.50 677.50 416.59 C 679.70 417.74 682.85 420.59 684.50 422.92 L 687.50 427.17 L 687.78 476.09 C 687.99 513.82 688.33 525.00 689.28 524.99 C 689.95 524.99 693.88 523.73 698.00 522.21 Z M 251.03 434.95 L 251.13 407.50 L 240.56 407.22 L 230.00 406.93 L 230.00 409.72 C 230.01 413.94 234.47 429.72 238.46 439.60 C 241.76 447.80 249.98 463.36 250.64 462.69 C 250.81 462.53 250.98 450.04 251.03 434.95 Z M 780.99 449.50 C 786.39 438.30 790.17 427.02 792.30 415.74 C 794.00 406.74 794.37 407.04 781.25 407.01 L 773.00 407.00 L 773.03 435.25 C 773.07 467.53 772.65 466.78 780.99 449.50 Z M 374.82 353.75 C 374.62 342.42 374.89 337.86 375.90 336.00 C 377.60 332.84 381.89 328.18 384.50 326.66 C 385.98 325.80 422.51 325.37 526.00 325.00 L 665.50 324.50 L 665.78 314.25 L 666.07 304.00 L 511.53 304.00 L 357.00 304.00 L 357.00 336.50 L 357.00 369.00 L 366.05 369.00 L 375.10 369.00 L 374.82 353.75 Z M 391.48 508.13 C 383.13 504.34 382.63 493.18 390.57 487.95 C 393.42 486.07 396.36 486.01 495.30 486.01 C 605.42 486.00 600.62 485.77 604.44 491.22 C 606.74 494.50 606.44 501.18 603.83 504.49 C 599.32 510.22 603.62 510.00 495.28 509.98 C 400.82 509.96 395.29 509.86 391.48 508.13 Z M 350.37 648.81 C 339.74 645.97 338.48 631.32 348.46 626.59 C 351.47 625.16 367.76 625.00 511.43 625.00 C 682.84 625.00 674.86 624.76 679.50 629.97 C 680.98 631.63 681.50 633.62 681.50 637.69 C 681.50 642.61 681.17 643.46 678.23 646.08 C 676.44 647.69 673.96 649.00 672.73 649.01 C 519.97 649.43 352.31 649.33 350.37 648.81 Z" stroke-linecap="round"/>
</g>
</g>
</g>

  </svg>