<svg xmlns="http://www.w3.org/2000/svg" xmlns:xlink="http://www.w3.org/1999/xlink" width="500px" height="486px" viewBox="0 0 500.00000000000006 485.8259026295784">
    <g id="a24e4b61-16fe-430e-add2-befe10ffe033">
<g style="">
		<g id="a24e4b61-16fe-430e-add2-befe10ffe033-child-0">
<path style="stroke: rgb(193,193,193); stroke-width: 0; stroke-dasharray: none; stroke-linecap: butt; stroke-dashoffset: 0; stroke-linejoin: miter; stroke-miterlimit: 4; fill: rgb(0,0,0); fill-rule: nonzero; opacity: 1;" transform="matrix(1.095006 0 0 1.095006 250.000111 242.913059) matrix(1 0 0 1 0 0)  translate(-512.366921, -511.837195)" d="M 489.10 732.45 C 463.65 727.99 439.31 715.54 419.63 696.92 C 394.23 672.88 378.37 640.21 375.22 605.41 L 374.50 597.50 L 340.50 597.00 L 306.50 596.50 L 301.28 593.75 C 290.02 587.81 284.90 579.89 284.21 567.35 C 283.82 560.22 284.07 558.52 286.25 553.77 C 290.55 544.37 300.13 536.96 310.02 535.38 C 313.55 534.82 314.37 534.23 315.26 531.61 C 317.83 524.09 331.00 499.74 339.03 487.67 C 362.92 451.76 397.92 423.00 437.25 406.97 L 443.00 404.63 L 443.00 383.63 C 443.00 364.50 443.18 362.25 445.05 358.40 C 447.25 353.86 452.14 349.55 457.00 347.85 L 460.00 346.80 L 460.00 325.22 C 460.00 305.35 460.17 303.29 462.10 299.30 C 463.49 296.41 465.61 294.14 468.43 292.49 L 472.68 290.00 L 512.00 290.00 L 551.32 290.00 L 555.57 292.49 C 558.39 294.14 560.51 296.41 561.90 299.30 C 563.83 303.29 564.00 305.35 564.00 325.24 L 564.00 346.84 L 567.53 348.01 C 572.30 349.58 576.64 353.41 579.28 358.38 C 581.30 362.17 581.51 364.17 581.82 383.54 L 582.17 404.58 L 595.38 410.83 C 642.37 433.08 678.02 468.09 700.52 514.12 C 704.12 521.48 707.84 529.06 708.78 530.98 C 710.20 533.85 711.22 534.58 714.66 535.16 C 722.70 536.52 731.23 542.23 735.62 549.19 C 739.09 554.68 741.34 564.24 740.50 569.89 C 738.99 580.01 732.38 589.09 722.80 594.21 C 718.59 596.45 717.76 596.51 684.30 596.80 L 650.11 597.10 L 649.54 601.80 C 647.97 614.92 645.49 627.46 642.79 636.00 C 627.77 683.55 588.75 720.02 541.00 731.15 C 529.46 733.84 501.06 734.55 489.10 732.45 Z M 523.50 713.96 C 564.18 709.36 599.47 684.19 617.16 647.16 C 623.49 633.92 628.56 615.34 629.21 603.00 L 629.50 597.50 L 511.77 597.25 L 394.04 596.99 L 394.60 601.75 C 398.45 634.43 409.89 659.14 430.88 680.12 C 456.26 705.51 489.83 717.78 523.50 713.96 Z M 715.70 575.04 C 720.19 572.30 721.98 566.27 719.71 561.51 C 718.81 559.64 716.84 557.29 715.33 556.30 C 712.72 554.58 703.27 554.49 515.04 554.21 C 406.39 554.04 315.63 554.18 313.34 554.50 C 302.83 556.00 299.52 569.69 308.35 575.07 C 311.43 576.95 316.09 576.99 512.00 576.99 C 708.97 576.99 712.56 576.96 715.70 575.04 Z M 686.27 534.16 C 687.86 533.53 687.65 532.68 684.05 525.23 L 680.07 517.00 L 544.79 516.98 C 418.11 516.96 409.36 516.85 407.37 515.23 C 402.24 511.07 401.90 504.33 406.60 499.91 L 409.16 497.50 L 538.69 497.00 L 668.23 496.50 L 663.36 490.00 C 656.56 480.90 637.34 461.30 627.87 453.80 C 581.27 416.87 523.02 403.60 468.50 417.50 C 433.55 426.42 403.62 444.05 377.46 471.13 C 369.22 479.66 357.00 494.72 357.00 496.34 C 357.00 496.70 362.20 497.00 368.55 497.00 C 380.76 497.00 384.92 498.12 386.97 501.94 C 388.34 504.50 388.27 508.31 386.81 511.53 C 384.60 516.36 381.73 517.00 362.06 517.00 L 344.02 517.00 L 339.98 525.04 C 337.75 529.47 336.20 533.52 336.53 534.04 C 337.21 535.15 683.46 535.27 686.27 534.16 Z M 562.00 384.07 C 562.00 371.83 561.72 368.86 560.43 367.57 C 559.04 366.19 553.26 366.00 511.99 366.00 L 465.11 366.00 L 463.56 368.22 C 462.33 369.98 462.00 373.38 462.00 384.35 L 462.00 398.26 L 465.25 397.66 C 467.04 397.34 472.31 396.37 476.96 395.52 C 499.39 391.42 528.66 391.76 550.50 396.39 C 556.55 397.67 561.61 398.78 561.75 398.86 C 561.89 398.94 562.00 392.28 562.00 384.07 Z M 544.00 328.00 L 544.00 310.00 L 512.00 310.00 L 480.00 310.00 L 480.00 328.00 L 480.00 346.00 L 512.00 346.00 L 544.00 346.00 L 544.00 328.00 Z M 541.92 476.08 C 539.63 473.78 539.00 472.26 539.00 469.00 C 539.00 465.74 539.63 464.22 541.92 461.92 L 544.85 459.00 L 572.17 459.02 C 596.55 459.04 599.73 459.23 601.63 460.77 C 605.75 464.11 607.20 469.88 604.97 474.06 C 602.55 478.58 599.72 479.00 571.47 479.00 L 544.85 479.00 L 541.92 476.08 Z" stroke-linecap="round"/>
</g>
</g>
</g>

  </svg>