<svg xmlns="http://www.w3.org/2000/svg" xmlns:xlink="http://www.w3.org/1999/xlink" width="492px" height="500px" viewBox="0 0 492.42207168807454 500">
    <g id="9bce42cb-6ce6-48c4-807c-77fbfbe82936">
<g style="">
		<g id="9bce42cb-6ce6-48c4-807c-77fbfbe82936-child-0">
<path style="stroke: rgb(193,193,193); stroke-width: 0; stroke-dasharray: none; stroke-linecap: butt; stroke-dashoffset: 0; stroke-linejoin: miter; stroke-miterlimit: 4; fill: rgb(0,0,0); fill-rule: nonzero; opacity: 1;" transform="matrix(0.920655 0 0 0.920655 246.211141 250.000108) matrix(1 0 0 1 0 0)  translate(-511.979773, -512.076246)" d="M 503.93 782.69 C 494.33 779.98 487.41 774.41 482.70 765.62 L 480.50 761.50 L 480.23 677.25 C 480.08 630.91 479.63 593.00 479.24 593.00 C 478.85 593.00 453.54 617.93 423.01 648.40 C 384.34 686.99 366.13 704.49 363.00 706.07 C 356.19 709.51 344.37 709.90 336.53 706.94 C 328.49 703.91 321.11 696.86 317.45 688.72 C 315.17 683.67 314.64 681.07 314.64 674.89 C 314.63 661.40 312.95 663.42 376.15 601.00 L 432.34 545.50 L 350.90 545.00 L 269.46 544.50 L 262.81 541.23 C 250.96 535.39 244.59 525.18 244.55 511.95 C 244.53 505.42 244.97 503.51 247.81 497.74 C 251.37 490.50 256.38 485.53 263.86 481.81 L 268.50 479.50 L 350.33 479.00 L 432.16 478.50 L 376.55 423.63 C 345.97 393.45 319.85 366.90 318.52 364.63 C 312.23 353.89 314.03 337.25 322.57 327.10 C 331.82 316.11 349.90 311.89 362.19 317.85 C 365.15 319.30 384.15 337.40 423.00 375.82 L 479.50 431.69 L 480.00 347.10 L 480.50 262.50 L 482.79 258.21 C 484.05 255.85 486.91 252.09 489.14 249.86 C 504.19 234.81 530.20 238.49 540.53 257.14 L 543.50 262.50 L 543.77 347.25 C 543.92 393.86 544.37 432.00 544.76 432.00 C 545.15 432.00 570.68 406.84 601.49 376.10 C 639.34 338.32 658.96 319.44 662.00 317.86 C 665.74 315.91 668.01 315.51 675.50 315.51 C 686.28 315.51 691.37 317.46 698.84 324.44 C 705.90 331.05 709.46 339.27 709.48 349.00 C 709.51 362.61 712.25 359.28 649.26 422.22 L 592.50 478.95 L 674.00 479.22 L 755.50 479.50 L 760.84 482.31 C 767.67 485.91 773.89 492.15 776.97 498.50 C 778.95 502.58 779.40 505.06 779.41 512.00 C 779.42 519.25 779.02 521.34 776.65 526.21 C 773.56 532.60 767.38 538.59 760.22 542.16 L 755.50 544.50 L 673.89 544.77 L 592.27 545.05 L 648.22 600.77 C 680.01 632.42 705.33 658.44 706.84 661.00 C 709.19 664.98 709.50 666.55 709.50 674.52 C 709.50 682.70 709.19 684.17 706.21 690.23 C 702.62 697.51 697.61 702.48 690.14 706.18 C 683.43 709.49 668.52 709.52 662.00 706.23 C 658.90 704.67 639.89 686.55 601.00 648.12 L 544.50 592.27 L 544.00 676.89 L 543.50 761.50 L 540.55 766.82 C 538.93 769.74 536.03 773.52 534.10 775.22 C 526.20 782.15 513.32 785.35 503.93 782.69 Z M 519.23 759.08 L 522.50 756.16 L 522.77 668.33 L 523.03 580.50 L 512.52 580.50 L 502.00 580.50 L 502.00 668.33 L 502.00 756.15 L 504.92 759.08 C 509.00 763.15 514.67 763.16 519.23 759.08 Z M 353.32 685.90 C 354.52 685.29 381.65 658.69 413.61 626.79 L 471.72 568.79 L 463.66 560.85 L 455.60 552.91 L 411.05 597.35 C 386.55 621.80 360.28 647.79 352.67 655.11 C 335.41 671.72 334.30 673.61 337.63 680.64 C 340.28 686.22 347.73 688.72 353.32 685.90 Z M 684.73 683.47 C 687.98 680.22 688.21 679.59 687.73 675.33 C 687.22 670.76 686.75 670.26 635.36 618.80 C 606.84 590.24 580.04 563.73 575.81 559.88 L 568.12 552.90 L 560.08 560.86 L 552.04 568.82 L 576.02 592.16 C 589.20 605.00 616.10 631.59 635.78 651.25 L 671.56 687.00 L 676.38 687.00 C 680.56 687.00 681.67 686.53 684.73 683.47 Z M 527.28 556.92 C 543.95 551.35 555.95 537.43 559.06 520.07 C 562.48 500.94 552.20 480.43 534.37 470.78 C 503.18 453.91 465.00 476.48 465.00 511.79 C 465.00 525.11 468.93 534.81 478.42 544.85 C 487.64 554.60 497.86 558.86 512.28 558.95 C 518.63 558.99 522.79 558.42 527.28 556.92 Z M 443.50 512.00 L 443.50 501.00 L 359.20 501.00 C 266.67 501.00 270.74 500.74 267.52 506.97 C 265.60 510.67 265.60 513.32 267.51 517.02 C 270.70 523.19 266.43 522.92 359.00 522.96 L 443.50 523.00 L 443.50 512.00 Z M 755.08 519.23 C 758.39 515.53 758.84 511.53 756.48 506.97 C 753.26 500.74 757.33 501.00 664.80 501.00 L 580.50 501.00 L 580.50 512.02 L 580.50 523.03 L 666.33 522.77 L 752.16 522.50 L 755.08 519.23 Z M 464.60 463.05 L 472.42 455.61 L 412.96 396.82 C 348.07 332.67 350.44 334.64 343.05 338.60 C 338.73 340.91 335.51 346.86 336.45 350.79 C 336.89 352.62 356.40 372.64 396.30 412.20 C 428.86 444.48 455.79 470.81 456.14 470.70 C 456.50 470.59 460.30 467.15 464.60 463.05 Z M 628.64 411.75 C 685.95 354.57 688.03 352.37 688.01 348.78 C 687.99 341.65 679.67 335.47 672.84 337.51 C 671.55 337.89 643.88 364.77 611.35 397.24 L 552.20 456.28 L 556.53 460.03 C 558.92 462.09 562.30 465.41 564.04 467.39 C 565.78 469.38 567.67 471.00 568.23 471.00 C 568.80 471.00 595.98 444.34 628.64 411.75 Z M 523.00 357.80 C 523.00 265.40 523.10 267.29 517.88 263.63 C 514.05 260.95 508.33 261.52 504.92 264.92 L 502.00 267.85 L 502.00 355.76 L 502.00 443.67 L 512.50 443.67 L 523.00 443.67 L 523.00 357.80 Z" stroke-linecap="round"/>
</g>
</g>
</g>

  </svg>