<svg xmlns="http://www.w3.org/2000/svg" xmlns:xlink="http://www.w3.org/1999/xlink" width="970px" height="952px" viewBox="0 0 969.5346497515545 951.7217936948764">
    <g id="5ff63b9d-ae33-49e2-a290-a4e6baed2e96">
<g style="">
		<g id="5ff63b9d-ae33-49e2-a290-a4e6baed2e96-child-0">
<path style="stroke: rgb(193,193,193); stroke-width: 0; stroke-dasharray: none; stroke-linecap: butt; stroke-dashoffset: 0; stroke-linejoin: miter; stroke-miterlimit: 4; fill: rgb(0,0,0); fill-rule: nonzero; opacity: 1;" transform="matrix(1.516696 0 0 1.516696 484.767238 475.860811) matrix(1 0 0 1 0 0)  translate(-511.779431, -512.248313)" d="M 498.82 823.61 C 493.74 821.53 458.36 803.24 353.50 748.51 C 335.35 739.03 299.12 720.14 273.00 706.52 C 246.88 692.90 221.30 679.47 216.16 676.67 C 205.13 670.66 198.26 663.78 194.82 655.25 L 192.50 649.50 L 192.22 517.00 C 192.03 426.64 192.28 382.30 193.01 377.57 C 194.33 368.99 198.89 360.14 204.55 355.18 C 206.98 353.04 230.48 340.12 260.62 324.33 C 347.49 278.85 467.52 216.19 485.22 207.10 L 501.94 198.50 L 512.25 198.50 L 522.56 198.50 L 534.03 204.37 C 544.51 209.74 608.91 243.37 684.50 282.97 C 701.00 291.61 737.58 310.75 765.79 325.49 C 813.10 350.23 817.45 352.72 821.97 357.65 C 824.76 360.71 827.83 365.47 829.13 368.75 L 831.40 374.50 L 831.16 511.00 C 831.03 586.08 830.66 648.85 830.35 650.50 C 829.42 655.41 824.17 664.42 819.69 668.78 C 816.57 671.82 802.70 679.50 765.25 698.92 C 695.02 735.34 570.29 800.48 543.37 814.79 C 535.05 819.22 526.15 823.55 523.59 824.42 C 516.57 826.80 505.70 826.45 498.82 823.61 Z M 542.56 775.66 C 554.97 769.06 645.71 721.68 709.00 688.74 C 729.08 678.29 756.30 664.12 769.50 657.25 C 782.70 650.37 794.10 644.18 794.83 643.50 C 795.92 642.49 796.15 630.72 796.05 579.92 C 795.98 545.64 795.74 517.40 795.51 517.18 C 795.16 516.83 757.56 536.41 594.50 621.83 C 534.60 653.21 533.53 653.81 531.76 656.68 C 530.15 659.28 530.01 664.24 530.01 720.75 C 530.00 754.44 530.14 782.00 530.31 782.00 C 530.49 782.00 536.00 779.15 542.56 775.66 Z M 493.99 721.75 C 493.99 683.94 493.61 661.15 492.95 658.77 C 491.69 654.21 496.66 657.11 432.00 623.22 C 403.67 608.37 367.67 589.48 352.00 581.24 C 336.33 573.00 308.88 558.60 291.00 549.25 C 273.12 539.89 251.58 528.58 243.13 524.12 C 234.67 519.65 227.68 516.00 227.58 516.00 C 227.01 516.00 227.20 635.35 227.78 638.97 L 228.50 643.44 L 245.00 652.04 C 293.61 677.36 473.86 771.56 482.00 775.90 C 487.23 778.68 492.06 780.97 492.75 780.98 C 493.74 781.00 494.00 768.50 493.99 721.75 Z M 611.00 573.73 C 649.78 553.39 706.47 523.69 737.00 507.73 C 767.53 491.77 793.29 478.03 794.25 477.20 C 795.86 475.81 796.00 472.69 796.00 438.74 C 796.00 403.96 795.90 401.82 794.25 402.44 C 792.42 403.12 716.76 442.27 670.50 466.48 C 527.13 541.49 533.10 538.27 531.51 541.62 C 530.25 544.27 530.00 550.70 530.00 580.42 L 530.00 616.03 L 535.25 613.38 C 538.14 611.91 572.22 594.08 611.00 573.73 Z M 493.79 579.07 C 493.51 544.93 493.40 543.01 491.50 540.51 C 490.22 538.82 477.36 531.52 456.00 520.35 C 229.48 401.87 229.73 402.00 228.15 402.00 C 227.27 402.00 227.05 411.16 227.24 438.47 C 227.46 469.34 227.73 475.15 229.00 476.36 C 230.41 477.71 243.44 484.62 325.00 527.26 C 433.30 583.89 483.31 610.16 487.50 612.63 C 489.70 613.92 492.08 614.99 492.79 614.99 C 493.82 615.00 494.02 607.84 493.79 579.07 Z M 553.74 488.14 C 575.61 476.67 620.28 453.31 653.00 436.22 C 718.11 402.22 771.46 374.17 774.53 372.33 C 775.60 371.68 776.26 370.96 775.99 370.73 C 775.72 370.50 747.38 355.66 713.00 337.75 C 678.62 319.83 637.22 298.24 621.00 289.76 C 604.78 281.28 574.13 265.26 552.90 254.17 C 531.67 243.08 513.26 234.00 511.98 234.00 C 509.68 234.00 504.17 236.77 436.00 272.24 C 328.03 328.42 254.11 367.29 250.08 370.00 C 247.43 371.80 226.28 360.45 465.50 485.51 C 484.20 495.28 501.93 504.57 504.89 506.14 C 507.86 507.71 511.11 509.00 512.13 509.00 C 513.15 509.00 531.87 499.61 553.74 488.14 Z M 488.19 449.88 C 470.10 440.55 431.40 420.26 390.64 398.71 C 371.04 388.35 367.42 386.08 365.20 382.73 C 362.19 378.18 361.18 369.77 362.88 363.45 C 364.43 357.69 368.76 354.12 383.45 346.50 C 402.75 336.50 395.37 334.23 468.00 372.44 C 548.08 414.56 544.71 412.65 547.60 417.58 C 552.17 425.38 551.68 435.66 546.44 441.89 C 544.23 444.51 538.29 448.12 522.08 456.67 C 518.90 458.35 516.01 459.00 511.77 459.00 C 506.31 459.00 504.60 458.34 488.19 449.88 Z M 606.95 398.23 C 601.75 395.50 588.72 388.65 578.00 383.01 C 567.28 377.36 540.95 363.53 519.50 352.28 C 498.05 341.02 479.43 330.84 478.12 329.65 C 469.79 322.12 470.09 303.29 478.63 297.29 C 480.21 296.18 486.80 292.51 493.27 289.14 C 502.40 284.38 506.02 283.00 509.37 283.00 C 516.56 283.00 507.37 278.46 621.00 338.24 C 637.78 347.07 652.70 355.13 654.16 356.15 C 660.73 360.74 663.10 374.03 658.91 382.70 C 657.22 386.17 655.41 387.83 649.66 391.16 C 645.72 393.43 639.80 396.89 636.50 398.83 C 631.53 401.76 629.29 402.44 623.45 402.78 C 616.60 403.19 616.15 403.06 606.95 398.23 Z" stroke-linecap="round"/>
</g>
</g>
</g>

  </svg>