<svg xmlns="http://www.w3.org/2000/svg" xmlns:xlink="http://www.w3.org/1999/xlink" width="500px" height="487px" viewBox="0 0 499.9999999999998 487.27486006623235">
    <g id="8e16da21-bd23-4a96-b54a-43611892e5b7">
<g style="">
		<g id="8e16da21-bd23-4a96-b54a-43611892e5b7-child-0">
<path style="stroke: rgb(193,193,193); stroke-width: 0; stroke-dasharray: none; stroke-linecap: butt; stroke-dashoffset: 0; stroke-linejoin: miter; stroke-miterlimit: 4; fill: rgb(0,0,0); fill-rule: nonzero; opacity: 1;" transform="matrix(0.916296 0 0 0.916296 250.000046 243.637474) matrix(1 0 0 1 0 0)  translate(-512.162352, -512.053979)" d="M 252.35 777.05 C 246.38 776.65 243.65 776.00 242.16 774.65 C 237.64 770.55 238.70 762.24 244.09 759.45 C 248.21 757.32 263.31 757.48 267.05 759.69 C 274.90 764.33 272.27 775.71 263.00 777.21 C 261.62 777.43 256.83 777.36 252.35 777.05 Z M 301.42 776.92 C 297.35 775.74 295.05 773.05 294.33 768.65 C 293.82 765.49 294.18 764.62 297.27 761.53 L 300.80 758.00 L 313.75 758.00 L 326.71 758.00 L 341.71 705.25 L 356.72 652.50 L 349.84 649.11 C 337.42 642.99 328.28 630.62 326.06 616.91 C 325.48 613.39 325.01 595.99 325.01 578.25 C 325.00 547.84 324.90 546.00 323.20 546.00 C 322.21 546.00 317.82 544.27 313.45 542.16 C 277.71 524.87 270.53 480.23 299.18 453.35 C 309.39 443.77 320.75 439.51 336.00 439.56 C 347.65 439.60 355.41 441.66 364.27 447.08 C 366.89 448.69 369.25 450.00 369.52 450.00 C 369.78 450.00 370.00 424.88 370.00 394.18 C 370.00 358.17 370.39 336.26 371.09 332.43 C 373.99 316.66 383.12 300.56 396.87 286.97 C 426.18 258.01 475.03 242.85 526.44 246.77 C 553.18 248.81 572.60 253.86 594.50 264.46 C 609.57 271.75 620.61 279.62 630.55 290.13 C 643.10 303.40 651.29 319.46 653.94 336.00 C 654.57 339.92 654.99 363.81 654.99 396.24 L 655.00 449.98 L 659.75 447.07 C 668.77 441.55 676.32 439.59 688.50 439.59 C 701.63 439.59 708.73 441.68 719.22 448.65 C 734.33 458.69 742.94 474.77 742.99 493.04 C 743.04 515.62 727.35 536.71 704.33 544.99 L 698.17 547.21 L 698.18 582.53 C 698.18 611.51 697.90 618.81 696.63 623.18 C 693.11 635.25 682.69 646.40 671.11 650.47 C 669.00 651.21 667.61 652.31 667.77 653.12 C 667.93 653.88 674.50 677.67 682.38 706.00 L 696.71 757.50 L 710.11 758.03 C 717.47 758.31 724.30 758.93 725.29 759.40 C 727.50 760.45 730.00 765.12 730.00 768.23 C 730.00 769.51 729.27 771.60 728.37 772.88 C 724.58 778.29 736.57 778.01 512.28 777.91 C 393.33 777.86 303.18 777.44 301.42 776.92 Z M 384.80 707.74 C 392.66 680.11 399.35 656.49 399.66 655.25 C 400.23 653.02 400.15 653.00 389.10 653.00 C 378.50 653.00 377.91 653.11 376.99 655.25 C 376.15 657.17 350.41 747.44 348.47 755.25 L 347.78 758.00 L 359.14 757.99 L 370.50 757.99 L 384.80 707.74 Z M 631.51 755.07 C 631.16 753.45 624.71 729.94 617.18 702.82 L 603.49 653.50 L 512.36 653.24 C 426.21 653.00 421.21 653.09 420.73 654.74 C 420.45 655.71 414.07 678.10 406.56 704.50 C 399.05 730.90 392.50 753.74 392.00 755.25 L 391.10 758.00 L 511.63 758.00 L 632.16 758.00 L 631.51 755.07 Z M 675.60 756.25 C 675.30 755.29 672.16 743.92 668.60 731.00 C 657.38 690.20 647.09 653.76 646.67 653.34 C 646.45 653.11 641.32 653.06 635.28 653.22 L 624.29 653.50 L 626.56 661.50 C 627.82 665.90 634.08 688.62 640.49 712.00 C 646.90 735.38 652.36 755.29 652.64 756.25 C 653.07 757.79 654.54 758.00 664.63 758.00 C 675.12 758.00 676.09 757.85 675.60 756.25 Z M 666.71 630.60 C 672.25 627.54 676.42 622.50 678.02 616.92 C 679.55 611.61 679.23 591.12 677.53 585.43 C 675.78 579.55 671.88 575.01 665.89 571.90 L 661.50 569.62 L 511.50 569.66 C 362.26 569.70 361.48 569.71 357.50 571.75 C 352.90 574.11 350.02 577.03 347.37 582.00 C 345.78 584.98 345.50 587.78 345.50 601.00 C 345.50 614.21 345.78 617.02 347.36 620.00 C 351.15 627.10 356.84 631.58 364.00 633.10 C 365.92 633.50 433.65 633.76 514.50 633.66 L 661.50 633.48 L 666.71 630.60 Z M 681.84 485.66 C 684.98 482.33 688.24 481.66 692.53 483.45 C 698.28 485.85 699.14 489.30 698.80 508.58 C 698.62 518.30 698.88 525.00 699.43 525.00 C 702.13 525.00 709.36 520.32 713.47 515.93 C 720.42 508.50 722.48 503.27 722.49 493.00 C 722.50 485.88 722.07 483.58 719.85 478.85 C 716.48 471.66 710.34 465.52 703.15 462.15 C 698.35 459.90 696.15 459.50 688.50 459.50 C 680.87 459.50 678.66 459.90 674.00 462.11 C 667.00 465.44 661.44 471.00 658.11 478.00 L 655.50 483.50 L 655.20 516.60 L 654.90 549.71 L 660.50 550.29 C 663.57 550.60 668.88 552.16 672.29 553.75 L 678.50 556.64 L 679.00 522.40 C 679.50 488.18 679.50 488.16 681.84 485.66 Z M 351.34 553.44 C 354.41 552.04 359.76 550.57 363.21 550.19 L 369.50 549.50 L 369.79 522.00 C 370.18 484.42 368.74 477.55 358.52 468.12 C 351.24 461.41 346.15 459.51 335.50 459.51 C 324.72 459.51 319.63 461.46 312.16 468.44 C 298.67 481.06 297.92 501.94 310.45 515.81 C 314.00 519.74 321.72 525.00 323.93 525.00 C 324.65 525.00 325.00 519.56 325.00 508.47 C 325.00 486.37 326.43 483.00 335.85 483.00 C 339.06 483.00 340.32 483.59 342.41 486.08 L 345.00 489.15 L 345.00 522.58 C 345.00 540.96 345.17 556.00 345.38 556.00 C 345.59 556.00 348.27 554.85 351.34 553.44 Z M 634.78 442.75 L 634.50 335.50 L 632.18 329.00 C 625.25 309.57 610.34 294.13 587.37 282.61 C 532.54 255.13 451.97 262.44 413.30 298.40 C 400.08 310.70 393.17 322.66 390.42 338.00 C 389.35 343.95 389.06 366.44 389.03 447.08 C 389.02 502.95 389.30 548.97 389.67 549.33 C 390.03 549.70 445.40 550.00 512.69 550.00 L 635.05 550.00 L 634.78 442.75 Z M 760.26 776.93 C 756.03 776.05 754.34 774.57 753.02 770.56 C 751.68 766.50 752.85 763.05 756.56 760.13 C 758.87 758.32 760.60 758.00 768.18 758.00 C 780.70 758.00 785.00 760.54 785.00 767.92 C 785.00 769.85 783.97 772.12 782.20 774.10 C 779.54 777.08 778.99 777.25 771.45 777.43 C 767.08 777.53 762.04 777.31 760.26 776.93 Z M 508.16 611.00 L 460.83 610.50 L 458.41 607.69 C 455.07 603.81 455.21 599.06 458.78 595.23 L 461.56 592.26 L 509.03 591.81 C 535.14 591.56 558.03 591.70 559.90 592.11 C 565.07 593.25 567.50 596.25 567.50 601.50 C 567.50 606.96 564.90 609.95 559.36 610.86 C 557.24 611.21 534.20 611.28 508.16 611.00 Z M 414.45 525.55 L 412.00 523.09 L 412.00 483.63 L 412.00 444.18 L 415.08 441.59 C 419.33 438.01 423.99 438.13 428.23 441.92 L 431.50 444.83 L 431.80 480.67 C 431.97 500.38 431.82 518.01 431.48 519.86 C 430.52 525.10 426.97 528.00 421.50 528.00 C 417.96 528.00 416.35 527.44 414.45 525.55 Z M 414.45 414.35 L 412.00 411.71 L 412.00 377.94 L 412.00 344.18 L 415.08 341.59 C 420.07 337.39 427.73 338.65 430.57 344.15 C 432.73 348.32 432.66 407.83 430.49 412.02 C 428.57 415.74 426.17 417.00 421.02 417.00 C 417.85 417.00 416.34 416.39 414.45 414.35 Z M 588.91 334.24 C 566.22 318.96 561.64 316.86 534.93 309.57 C 527.98 307.67 525.55 305.14 525.55 299.82 C 525.55 296.54 526.15 295.26 528.79 292.90 C 530.95 290.96 533.11 290.00 535.27 290.00 C 538.96 290.01 554.60 293.98 563.50 297.18 C 582.27 303.92 601.63 316.92 603.31 323.91 C 604.17 327.43 601.60 332.64 598.13 334.43 C 594.24 336.45 592.11 336.40 588.91 334.24 Z" stroke-linecap="round"/>
</g>
</g>
</g>

  </svg>