<svg xmlns="http://www.w3.org/2000/svg" xmlns:xlink="http://www.w3.org/1999/xlink" width="500px" height="443px" viewBox="0 0 500 443.10280780477524">
    <g id="a0bf2500-43c5-4df7-a14e-e799cae8bc4a">
<g style="">
		<g id="a0bf2500-43c5-4df7-a14e-e799cae8bc4a-child-0">
<path style="stroke: rgb(193,193,193); stroke-width: 0; stroke-dasharray: none; stroke-linecap: butt; stroke-dashoffset: 0; stroke-linejoin: miter; stroke-miterlimit: 4; fill: rgb(0,0,0); fill-rule: nonzero; opacity: 1;" transform="matrix(0.951037 0 0 0.951037 249.999946 221.551356) matrix(1 0 0 1 0 0)  translate(-512.009731, -512.106965)" d="M 317.91 741.75 C 307.34 736.39 300.89 724.90 302.48 714.29 C 302.85 711.80 309.87 691.97 318.08 670.22 C 326.29 648.48 333.00 630.31 333.00 629.84 C 333.00 629.38 320.71 629.00 305.68 629.00 C 275.36 629.00 271.92 628.49 263.39 622.74 C 260.75 620.96 257.12 617.43 255.32 614.91 C 249.26 606.43 248.90 602.99 249.22 557.12 L 249.50 516.04 L 252.27 513.27 C 255.95 509.59 262.79 509.35 266.22 512.78 L 268.50 515.05 L 269.00 556.78 C 269.55 602.43 269.53 602.31 275.54 606.02 C 278.70 607.98 281.45 608.00 512.73 608.00 L 746.73 608.00 L 749.39 605.91 C 755.28 601.28 755.00 606.06 755.00 508.97 L 755.00 419.85 L 757.92 416.92 C 762.78 412.06 770.54 413.40 773.48 419.60 C 774.89 422.57 775.03 432.66 774.78 513.32 L 774.50 603.70 L 771.00 610.55 C 768.54 615.36 765.94 618.67 762.27 621.66 C 753.87 628.48 750.81 629.00 718.82 629.00 C 703.52 629.00 691.00 629.31 691.00 629.69 C 691.00 630.07 697.49 647.73 705.43 668.94 C 721.63 712.23 722.44 714.83 721.56 720.35 C 719.08 735.85 706.65 745.97 691.58 744.76 C 683.77 744.13 678.44 741.40 672.79 735.11 C 668.60 730.45 667.11 726.91 649.43 679.56 L 630.55 629.00 L 585.32 629.00 L 540.09 629.00 L 539.80 676.75 C 539.47 730.12 539.66 728.57 532.20 736.37 C 520.99 748.09 502.38 747.94 491.65 736.05 C 484.27 727.86 484.53 729.97 484.20 676.75 L 483.91 629.00 L 438.69 629.00 L 393.47 629.00 L 389.10 640.75 C 381.77 660.45 361.10 715.00 357.75 723.50 C 350.30 742.39 333.94 749.89 317.91 741.75 Z M 515.43 723.85 C 516.82 723.21 518.24 721.82 518.58 720.76 C 518.91 719.69 519.19 698.72 519.19 674.16 L 519.19 629.50 L 511.85 629.50 L 504.50 629.50 L 504.50 674.84 L 504.50 720.17 L 507.31 722.59 C 510.46 725.30 511.80 725.51 515.43 723.85 Z M 696.39 723.87 C 697.75 723.25 699.39 721.48 700.03 719.94 C 701.25 716.97 702.52 720.67 674.19 644.25 L 668.53 629.00 L 660.70 629.00 C 653.04 629.00 652.88 629.05 653.56 631.25 C 654.22 633.41 683.67 712.71 685.81 718.12 C 686.82 720.65 691.42 725.00 693.09 725.00 C 693.54 725.00 695.02 724.49 696.39 723.87 Z M 335.42 722.09 C 336.36 721.04 339.85 713.06 343.17 704.34 C 359.35 661.81 371.00 630.64 371.00 629.86 C 371.00 629.39 367.64 629.00 363.54 629.00 C 357.45 629.00 355.90 629.32 355.13 630.75 C 353.09 634.57 323.00 715.86 323.00 717.56 C 323.00 722.88 331.80 726.09 335.42 722.09 Z M 285.61 591.42 C 285.27 590.55 285.00 528.46 285.00 453.45 C 285.00 319.64 285.04 317.05 286.93 316.04 C 289.64 314.59 734.36 314.59 737.07 316.04 C 738.96 317.05 739.00 319.64 739.00 453.84 C 739.00 558.87 738.72 590.88 737.80 591.80 C 736.87 592.73 685.22 593.00 511.41 593.00 C 306.98 593.00 286.16 592.85 285.61 591.42 Z M 472.11 570.25 C 472.17 568.74 472.28 561.42 472.36 554.00 C 472.47 543.33 472.86 539.84 474.21 537.37 C 476.54 533.12 481.29 529.29 485.78 528.04 C 487.97 527.44 502.03 527.02 520.00 527.03 C 547.52 527.04 550.89 527.22 554.50 528.89 C 559.13 531.03 562.42 534.31 563.93 538.32 C 564.53 539.88 565.00 548.21 565.00 557.08 L 565.00 573.04 L 587.25 572.77 L 609.50 572.50 L 610.00 559.82 C 610.57 545.32 611.47 543.26 618.99 539.29 C 623.14 537.09 624.25 537.00 646.41 537.02 C 673.18 537.05 675.76 537.66 680.68 545.10 C 683.30 549.05 683.53 550.19 683.86 561.18 L 684.21 573.00 L 701.61 573.00 L 719.00 573.00 L 719.00 454.56 L 719.00 336.12 L 706.75 335.81 C 700.01 335.64 606.86 335.62 499.75 335.76 L 305.00 336.01 L 305.00 454.51 L 305.00 573.00 L 388.50 573.00 L 472.00 573.00 L 472.11 570.25 Z M 544.78 560.25 L 544.50 547.50 L 518.50 547.50 L 492.50 547.50 L 492.22 558.94 C 492.06 565.23 492.16 570.97 492.43 571.69 C 492.83 572.72 498.42 573.00 519.00 573.00 L 545.06 573.00 L 544.78 560.25 Z M 663.79 564.75 L 664.08 557.00 L 647.04 557.00 L 630.00 557.00 L 630.00 565.02 L 630.00 573.05 L 646.75 572.77 L 663.50 572.50 L 663.79 564.75 Z M 254.23 496.05 C 252.42 494.92 250.50 492.82 249.95 491.37 C 249.30 489.66 249.05 456.47 249.22 397.12 C 249.48 312.24 249.63 305.17 251.27 301.08 C 255.23 291.15 263.74 283.48 274.04 280.55 C 279.02 279.14 303.27 279.01 514.54 279.24 L 749.50 279.50 L 755.19 282.29 C 762.53 285.90 770.23 294.24 772.67 301.24 C 774.34 306.04 774.50 310.42 774.50 351.10 C 774.50 400.23 774.79 397.93 768.16 400.70 C 765.58 401.78 764.08 401.85 761.50 401.00 C 754.89 398.82 755.00 399.64 755.00 352.94 C 755.00 305.87 755.02 306.04 748.14 301.77 L 744.50 299.50 L 511.82 299.50 L 279.15 299.50 L 276.39 301.56 C 274.87 302.70 272.78 304.75 271.75 306.14 C 269.94 308.55 269.87 312.20 269.83 398.08 C 269.80 450.19 269.40 488.81 268.86 490.63 C 266.91 497.17 260.07 499.70 254.23 496.05 Z M 320.00 454.00 L 320.00 351.00 L 511.50 351.00 L 703.00 351.00 L 703.00 412.84 C 703.00 446.85 703.30 492.96 703.66 515.31 C 704.28 553.04 704.20 555.99 702.62 556.59 C 700.32 557.47 700.26 557.37 699.08 550.02 C 697.77 541.90 692.94 533.81 686.37 528.75 C 677.84 522.19 675.61 521.84 644.81 522.19 C 618.07 522.49 617.40 522.55 612.50 524.97 C 602.33 530.01 595.25 540.12 594.27 551.01 L 593.72 557.00 L 587.36 557.00 L 581.00 557.00 L 580.98 552.75 C 580.89 534.00 574.66 522.31 561.00 515.32 L 555.50 512.50 L 519.00 512.50 L 482.50 512.50 L 476.95 515.10 C 469.05 518.81 464.52 523.20 460.80 530.76 C 457.96 536.53 457.51 538.56 457.16 547.17 L 456.77 557.00 L 388.38 557.00 L 320.00 557.00 L 320.00 454.00 Z" stroke-linecap="round"/>
</g>
</g>
</g>

  </svg>