<svg xmlns="http://www.w3.org/2000/svg" xmlns:xlink="http://www.w3.org/1999/xlink" width="500px" height="481px" viewBox="0 0 499.9999999999998 481.2823675642463">
    <g id="726b27c4-1c88-4be1-810a-c8e4cff400a7">
<g style="">
		<g id="726b27c4-1c88-4be1-810a-c8e4cff400a7-child-0">
<path style="stroke: rgb(193,193,193); stroke-width: 0; stroke-dasharray: none; stroke-linecap: butt; stroke-dashoffset: 0; stroke-linejoin: miter; stroke-miterlimit: 4; fill: rgb(0,0,0); fill-rule: nonzero; opacity: 1;" transform="matrix(0.85321 0 0 0.85321 250.0001 240.64128) matrix(1 0 0 1 0 0)  translate(-512.14331, -512.542264)" d="M 492.50 793.49 C 449.27 786.48 412.10 759.39 392.89 720.91 C 388.59 712.28 383.81 698.19 381.95 688.61 L 380.80 682.73 L 373.16 683.30 C 339.70 685.83 306.26 666.75 291.13 636.48 C 287.08 628.39 282.00 612.76 282.00 608.39 C 282.00 606.03 281.88 606.00 271.75 605.98 C 252.58 605.95 240.70 601.61 230.50 590.91 C 223.88 583.97 220.24 576.57 219.37 568.29 C 218.83 563.13 219.11 561.44 221.25 556.77 C 225.76 546.92 231.91 544.00 248.15 544.00 L 259.00 544.00 L 259.00 497.18 C 259.00 444.86 259.06 444.32 265.77 435.51 C 268.41 432.04 271.53 429.51 276.03 427.17 C 282.23 423.94 282.87 423.82 291.55 424.19 C 302.15 424.64 307.16 426.97 313.83 434.54 C 321.03 442.73 321.00 442.44 321.00 496.18 L 321.00 544.00 L 333.18 544.00 C 343.50 544.00 346.03 544.32 349.69 546.09 C 368.20 555.05 364.29 582.99 342.51 597.45 C 334.01 603.09 327.14 605.10 314.20 605.73 L 302.90 606.28 L 303.56 609.39 C 308.46 632.70 324.94 651.66 346.85 659.19 C 352.43 661.11 355.59 661.48 366.45 661.49 L 379.41 661.50 L 381.20 650.63 C 383.60 636.04 386.25 627.44 392.01 615.50 C 397.72 603.68 403.14 595.43 415.01 580.50 C 442.53 545.87 456.34 514.36 463.19 470.56 C 464.88 459.74 465.32 451.06 465.73 419.89 L 466.23 382.28 L 461.26 381.80 C 450.99 380.81 440.85 373.29 436.25 363.24 C 429.54 348.59 435.87 331.68 451.00 323.83 C 454.90 321.81 457.38 321.43 469.50 321.00 L 483.50 320.50 L 483.78 306.13 L 484.06 291.76 L 481.06 287.09 C 479.41 284.52 477.37 280.46 476.53 278.08 C 474.29 271.75 474.55 260.27 477.08 253.50 C 479.85 246.12 488.33 236.97 495.82 233.29 C 500.94 230.77 502.53 230.50 512.00 230.50 C 521.48 230.50 523.05 230.77 528.22 233.31 C 541.06 239.61 548.19 250.47 548.83 264.73 C 549.25 274.02 547.91 279.17 543.00 287.15 L 539.95 292.12 L 540.22 306.31 L 540.50 320.50 L 555.00 321.00 C 568.63 321.47 569.79 321.67 574.27 324.30 C 585.20 330.73 590.29 338.98 590.39 350.47 C 590.44 356.62 589.99 358.58 587.18 364.29 C 582.22 374.37 573.57 380.67 563.25 381.74 L 557.73 382.31 L 558.30 417.90 C 558.74 445.71 559.32 456.78 560.91 468.50 C 567.09 513.84 579.79 542.60 611.78 583.76 C 632.33 610.19 639.65 625.69 643.51 650.93 C 644.30 656.11 645.53 660.72 646.23 661.16 C 648.96 662.90 665.11 662.46 673.50 660.42 C 695.61 655.05 715.24 634.89 720.40 612.25 L 721.82 606.00 L 714.66 605.99 C 697.36 605.97 685.84 601.86 675.60 592.02 C 661.23 578.22 658.78 559.75 669.99 549.63 C 675.03 545.07 679.22 544.01 692.18 544.01 L 702.86 544.00 L 703.18 495.75 C 703.50 447.86 703.52 447.46 705.80 442.50 C 708.54 436.52 714.99 429.62 720.50 426.75 C 723.15 425.37 727.08 424.51 732.13 424.21 C 742.99 423.56 748.86 425.70 756.06 432.91 C 765.21 442.07 765.00 440.57 765.00 496.18 L 765.00 544.00 L 776.75 544.02 C 790.47 544.05 794.39 545.34 800.19 551.78 C 808.92 561.46 805.84 579.32 793.28 591.88 C 783.17 601.99 771.68 606.00 752.84 606.00 C 743.49 606.00 743.02 606.10 742.55 608.25 C 739.80 620.97 738.09 626.08 733.33 635.78 C 728.76 645.13 726.41 648.56 719.65 655.70 C 701.87 674.53 681.36 683.41 655.95 683.29 L 643.40 683.22 L 641.63 691.83 C 631.35 741.79 589.17 782.34 536.93 792.49 C 525.00 794.81 503.62 795.29 492.50 793.49 Z M 527.57 772.93 C 572.12 766.73 608.88 734.70 619.96 692.42 C 627.52 663.58 623.00 637.03 606.27 611.86 L 601.71 605.00 L 512.43 605.00 L 423.15 605.00 L 420.01 608.75 C 415.45 614.22 406.31 633.25 403.80 642.50 C 400.64 654.15 400.62 679.00 403.75 690.50 C 408.30 707.20 414.16 718.78 424.84 732.21 C 435.43 745.52 447.69 755.12 464.14 762.95 C 484.50 772.66 505.63 775.98 527.57 772.93 Z M 323.88 583.44 C 331.90 581.06 340.00 572.82 340.00 567.05 C 340.00 565.01 339.74 565.00 289.89 565.00 L 239.78 565.00 L 240.47 567.75 C 242.19 574.65 248.24 580.54 256.70 583.56 C 262.58 585.65 316.74 585.56 323.88 583.44 Z M 767.88 583.44 C 775.90 581.06 784.00 572.82 784.00 567.05 C 784.00 565.01 783.74 565.00 734.00 565.00 C 677.37 565.00 681.28 564.32 686.88 573.15 C 689.85 577.83 694.58 581.37 700.88 583.62 C 706.58 585.66 760.90 585.51 767.88 583.44 Z M 501.75 483.25 L 501.50 382.50 L 494.37 382.21 L 487.24 381.92 L 486.70 419.21 C 486.13 458.50 485.34 467.71 480.55 491.35 C 474.44 521.53 462.39 550.11 445.38 574.75 L 439.00 584.00 L 470.50 584.00 L 502.01 584.00 L 501.75 483.25 Z M 584.65 583.25 C 584.39 582.84 580.73 577.33 576.51 571.00 C 560.87 547.54 549.30 519.73 543.62 491.89 C 539.13 469.84 537.85 454.89 537.28 417.25 L 536.74 382.00 L 529.87 382.00 L 523.00 382.00 L 523.00 483.00 L 523.00 584.00 L 554.06 584.00 C 571.14 584.00 584.91 583.66 584.65 583.25 Z M 300.00 496.95 L 300.00 449.91 L 297.55 447.45 C 294.13 444.04 287.25 444.02 283.31 447.41 L 280.50 449.83 L 280.22 496.91 L 279.94 544.00 L 289.97 544.00 L 300.00 544.00 L 300.00 496.95 Z M 744.00 497.58 C 744.00 472.05 743.72 450.44 743.38 449.54 C 741.94 445.80 733.25 443.73 728.85 446.08 C 724.23 448.55 724.00 451.03 724.00 498.97 L 724.00 544.00 L 734.00 544.00 L 744.00 544.00 L 744.00 497.58 Z M 564.88 359.37 C 570.57 355.38 570.73 347.08 565.18 343.32 C 562.70 341.64 558.99 341.48 516.50 341.18 C 491.20 341.01 468.08 341.16 465.12 341.52 C 458.22 342.36 455.00 345.29 455.00 350.73 C 455.00 355.01 457.14 358.71 460.36 360.01 C 461.54 360.48 485.01 360.90 512.53 360.94 C 557.23 360.99 562.80 360.83 564.88 359.37 Z M 519.00 302.59 L 519.00 284.19 L 522.61 279.87 C 527.08 274.52 528.00 272.17 528.00 266.08 C 528.00 254.69 515.97 247.64 504.62 252.39 C 496.70 255.70 493.55 267.14 498.32 275.29 C 499.73 277.69 501.59 280.24 502.44 280.95 C 503.75 282.04 504.00 285.24 504.00 300.96 C 504.00 311.25 504.30 319.97 504.67 320.33 C 505.03 320.70 508.41 321.00 512.17 321.00 L 519.00 321.00 L 519.00 302.59 Z M 505.87 747.32 C 499.99 743.67 498.08 734.71 502.09 729.61 C 504.65 726.36 509.03 724.00 512.50 724.00 C 518.73 724.00 524.99 730.31 525.00 736.60 C 525.00 740.30 521.41 745.98 517.97 747.72 C 514.55 749.45 509.01 749.26 505.87 747.32 Z M 453.72 702.64 C 446.95 700.73 438.73 694.73 434.63 688.68 C 424.76 674.13 426.47 656.43 438.95 643.95 C 456.05 626.86 484.26 631.46 495.72 653.22 C 498.22 657.97 498.50 659.49 498.50 668.50 C 498.50 677.98 498.32 678.83 495.10 684.77 C 488.78 696.42 478.40 703.06 465.55 703.65 C 461.61 703.84 456.39 703.39 453.72 702.64 Z M 469.98 681.25 C 477.45 677.50 480.19 668.28 475.90 661.34 C 473.23 657.02 468.98 654.83 463.24 654.83 C 449.27 654.83 444.59 674.51 456.98 681.14 C 461.34 683.47 465.49 683.50 469.98 681.25 Z M 549.30 702.20 C 539.31 698.63 532.23 692.11 527.74 682.33 C 526.00 678.55 525.52 675.65 525.51 669.00 C 525.50 658.45 528.39 651.52 535.95 643.95 C 553.05 626.86 581.34 631.59 592.82 653.45 C 595.14 657.87 595.47 659.68 595.49 668.00 C 595.50 676.22 595.14 678.26 592.83 683.20 C 589.41 690.50 582.43 697.46 575.22 700.76 C 567.63 704.23 556.69 704.84 549.30 702.20 Z M 569.46 679.60 C 575.83 674.74 576.64 665.04 571.16 659.17 C 565.38 652.98 555.76 653.09 550.22 659.40 C 545.95 664.27 545.31 669.07 548.19 674.77 C 552.44 683.22 561.90 685.37 569.46 679.60 Z" stroke-linecap="round"/>
</g>
</g>
</g>

  </svg>