<svg xmlns="http://www.w3.org/2000/svg" xmlns:xlink="http://www.w3.org/1999/xlink" width="500px" height="377px" viewBox="0 0 499.99999999999994 377.06975761159265">
    <g id="6bc7deee-3cc2-4bb6-87d5-590a884c4426">
<g style="">
		<g id="6bc7deee-3cc2-4bb6-87d5-590a884c4426-child-0">
<path style="stroke: rgb(193,193,193); stroke-width: 0; stroke-dasharray: none; stroke-linecap: butt; stroke-dashoffset: 0; stroke-linejoin: miter; stroke-miterlimit: 4; fill: rgb(0,0,0); fill-rule: nonzero; opacity: 1;" transform="matrix(0.666747 0 0 0.666747 250.000052 188.534918) matrix(1 0 0 1 0 0)  translate(-512.028895, -512.235519)" d="M 143.30 793.04 C 133.96 787.35 135.40 773.77 145.80 769.34 C 150.43 767.37 155.48 768.55 159.47 772.53 C 163.93 777.00 164.75 781.81 162.01 787.47 C 158.56 794.60 150.02 797.14 143.30 793.04 Z M 867.06 793.17 C 860.58 789.70 858.22 781.43 861.96 775.30 C 867.48 766.25 878.82 766.05 884.73 774.90 C 892.32 786.26 879.30 799.73 867.06 793.17 Z M 200.20 792.33 C 194.43 789.49 192.33 782.13 195.52 775.97 C 198.52 770.15 199.57 770.00 236.98 770.00 C 263.34 770.00 271.16 769.72 271.50 768.75 C 271.75 768.06 275.54 746.58 279.93 721.00 C 284.33 695.42 289.99 662.58 292.52 648.00 C 303.25 586.17 309.00 552.43 309.00 551.34 C 309.00 550.70 306.64 548.72 303.75 546.94 C 291.71 539.54 283.55 530.43 277.35 517.47 C 272.95 508.28 271.04 498.85 271.02 486.30 L 271.00 476.11 L 263.75 472.32 C 254.20 467.33 243.71 456.89 238.82 447.50 C 233.48 437.26 232.00 430.33 232.00 415.56 C 232.00 401.25 232.76 398.81 238.67 394.30 C 242.05 391.72 243.16 391.47 252.67 391.16 L 263.00 390.82 L 263.02 354.66 C 263.04 314.47 263.60 309.28 269.08 299.01 C 277.27 283.63 296.32 273.57 313.50 275.56 C 316.80 275.94 336.38 281.40 357.00 287.70 C 377.62 294.00 412.73 304.72 435.00 311.52 C 457.27 318.32 479.49 325.03 484.36 326.44 L 493.22 329.00 L 611.45 329.00 C 725.85 329.00 729.93 329.06 737.39 330.97 C 764.46 337.89 785.00 362.48 785.00 387.95 C 785.00 393.41 785.37 394.58 788.25 398.16 C 791.44 402.13 791.51 402.41 791.83 413.86 C 792.21 427.41 790.63 435.82 785.93 445.30 C 779.74 457.79 770.08 467.74 758.52 473.54 L 753.53 476.04 L 753.33 487.27 C 752.97 507.10 747.39 521.94 735.49 534.78 C 732.06 538.48 726.04 543.53 722.12 546.00 C 716.45 549.58 715.08 550.91 715.44 552.50 C 715.69 553.60 723.80 601.75 733.47 659.50 C 743.14 717.25 751.29 765.72 751.59 767.21 L 752.14 769.93 L 787.15 770.21 L 822.17 770.50 L 825.06 773.74 C 826.65 775.53 828.25 778.13 828.60 779.54 C 829.55 783.32 826.90 789.15 823.07 791.73 L 819.70 794.00 L 511.60 793.98 C 229.07 793.96 203.23 793.82 200.20 792.33 Z M 350.00 769.49 C 350.00 769.21 355.59 737.14 362.43 698.24 C 382.49 584.13 387.00 558.29 387.00 557.63 C 387.00 557.28 374.91 557.00 360.12 557.00 L 333.25 557.00 L 332.59 560.25 C 331.96 563.31 318.15 642.80 303.53 727.50 C 299.92 748.40 296.75 766.51 296.47 767.75 L 295.96 770.00 L 322.98 770.00 C 337.84 770.00 350.00 769.77 350.00 769.49 Z M 648.55 767.75 C 647.97 765.12 635.59 693.59 626.51 640.50 C 614.72 571.56 612.98 561.50 612.47 559.25 L 611.96 557.00 L 511.98 557.00 C 456.99 557.00 412.00 557.23 412.00 557.52 C 412.00 558.13 383.66 718.54 378.53 747.00 C 376.59 757.72 375.01 767.29 375.00 768.25 C 375.00 769.91 382.19 770.00 512.02 770.00 L 649.04 770.00 L 648.55 767.75 Z M 727.00 768.82 C 727.00 768.17 720.21 727.34 711.92 678.07 C 703.62 628.81 695.65 581.41 694.20 572.75 L 691.57 557.00 L 664.28 557.00 C 647.37 557.00 637.00 557.37 637.00 557.97 C 637.00 558.50 640.36 578.19 644.48 601.72 C 653.34 652.46 669.34 745.25 671.72 759.75 L 673.40 770.00 L 700.20 770.00 C 720.10 770.00 727.00 769.70 727.00 768.82 Z M 693.46 531.92 C 714.96 527.95 729.00 510.59 729.00 487.98 C 729.00 481.38 728.72 480.05 727.25 479.59 C 725.99 479.19 409.94 479.48 300.75 479.97 L 295.00 480.00 L 295.01 487.25 C 295.05 509.23 308.84 527.05 329.25 531.48 C 334.37 532.60 367.24 532.86 511.57 532.92 C 633.49 532.98 689.43 532.67 693.46 531.92 Z M 743.89 453.54 C 750.00 451.38 756.65 446.45 760.55 441.17 C 764.56 435.73 768.00 425.68 768.00 419.39 L 768.00 415.00 L 512.00 415.00 L 256.00 415.00 L 256.00 419.82 C 256.00 434.22 265.33 447.38 279.50 452.93 C 284.41 454.86 288.43 454.90 512.12 454.95 C 709.19 454.99 740.30 454.80 743.89 453.54 Z M 760.52 386.29 C 758.33 371.69 750.27 361.55 736.00 355.43 C 731.66 353.57 727.19 353.48 609.00 353.00 L 486.50 352.50 L 473.50 348.37 C 466.35 346.10 436.65 336.97 407.50 328.08 C 378.35 319.19 345.50 309.13 334.50 305.72 C 307.88 297.47 301.86 297.46 293.59 305.66 C 287.13 312.05 287.05 312.66 287.02 353.75 L 287.00 391.00 L 524.11 391.00 L 761.23 391.00 L 760.52 386.29 Z M 534.40 303.60 C 531.11 300.31 531.00 299.95 531.00 292.31 C 531.00 255.32 566.74 224.92 604.22 230.03 C 620.37 232.24 632.17 238.07 643.60 249.51 C 656.02 261.93 662.00 275.84 662.00 292.31 C 662.00 299.95 661.89 300.31 658.60 303.60 C 655.66 306.54 654.54 307.00 650.32 307.00 C 642.20 307.00 638.00 302.28 638.00 293.15 C 638.00 277.03 625.88 260.92 610.00 255.92 C 602.25 253.48 590.67 253.23 583.76 255.34 C 567.11 260.45 555.12 276.49 555.02 293.80 C 554.98 302.30 550.58 307.00 542.68 307.00 C 538.46 307.00 537.34 306.54 534.40 303.60 Z" stroke-linecap="round"/>
</g>
</g>
</g>

  </svg>