<svg xmlns="http://www.w3.org/2000/svg" xmlns:xlink="http://www.w3.org/1999/xlink" width="1925px" height="1715px" viewBox="0 0 1924.538464892606 1714.2443097200303">
    <g id="723fdb16-af70-4b85-b2c2-ddb08d955123">
<g style="">
		<g id="723fdb16-af70-4b85-b2c2-ddb08d955123-child-0">
<path style="stroke: rgb(193,193,193); stroke-width: 0; stroke-dasharray: none; stroke-linecap: butt; stroke-dashoffset: 0; stroke-linejoin: miter; stroke-miterlimit: 4; fill: rgb(0,0,0); fill-rule: nonzero; opacity: 1;" transform="matrix(3.007542 0 0 3.007542 962.269286 857.122202) matrix(1 0 0 1 0 0)  translate(-511.96281, -512.009066)" d="M 205.94 794.25 C 199.89 791.19 194.68 785.11 193.05 779.22 C 191.57 773.93 191.71 739.73 193.22 734.62 C 194.94 728.77 203.38 720.50 209.11 719.03 C 211.52 718.41 214.06 717.71 214.75 717.48 C 215.75 717.15 215.96 695.64 215.75 612.46 L 215.50 507.86 L 210.33 506.11 C 203.50 503.80 198.66 499.98 195.27 494.22 L 192.50 489.50 L 192.50 416.00 C 192.50 342.56 192.50 342.50 194.66 338.50 C 198.57 331.27 207.03 325.00 212.87 325.00 C 214.50 325.00 214.91 324.03 215.49 318.75 C 219.68 280.43 240.00 249.23 270.35 234.51 C 287.09 226.39 266.39 227.03 512.00 227.03 C 701.96 227.03 732.34 227.23 737.76 228.50 C 758.41 233.37 777.74 247.59 790.83 267.53 C 799.63 280.93 806.49 300.50 807.79 315.89 L 808.50 324.28 L 813.19 325.47 C 821.90 327.68 828.69 334.41 831.05 343.19 C 831.69 345.55 831.95 372.94 831.78 418.20 C 831.50 489.08 831.49 489.52 829.34 493.50 C 825.59 500.45 819.30 505.10 811.71 506.53 L 807.99 507.22 L 808.25 612.25 L 808.50 717.28 L 813.19 718.47 C 823.05 720.97 830.34 728.87 831.52 738.33 C 831.88 741.18 832.02 751.61 831.83 761.50 C 831.52 777.78 831.28 779.90 829.28 783.64 C 826.48 788.88 820.16 794.34 815.14 795.84 C 812.24 796.71 736.06 797.00 511.31 797.00 L 211.36 797.00 L 205.94 794.25 Z M 804.78 757.75 L 805.06 746.00 L 512.28 746.25 L 219.50 746.50 L 219.21 756.93 C 219.06 762.67 219.15 767.96 219.43 768.68 C 219.85 769.77 270.95 769.96 512.22 769.75 L 804.50 769.50 L 804.78 757.75 Z M 264.85 612.50 L 264.82 507.00 L 253.91 507.00 L 243.00 507.00 L 243.00 612.50 L 243.00 718.00 L 253.94 718.00 L 264.88 718.00 L 264.85 612.50 Z M 731.00 612.50 L 731.00 507.00 L 648.00 507.00 L 565.00 507.00 L 565.00 518.79 C 565.00 538.05 560.79 549.20 549.01 561.12 C 538.73 571.52 525.97 577.00 512.03 577.00 C 493.38 577.00 477.52 568.08 466.81 551.57 C 460.78 542.26 459.00 535.06 459.00 519.89 L 459.00 507.00 L 375.50 507.00 L 292.00 507.00 L 292.00 612.50 L 292.00 718.00 L 511.50 718.00 L 731.00 718.00 L 731.00 612.50 Z M 780.00 612.50 L 780.00 507.00 L 769.50 507.00 L 759.00 507.00 L 759.00 612.50 L 759.00 718.00 L 769.50 718.00 L 780.00 718.00 L 780.00 612.50 Z M 524.36 546.21 C 534.06 540.93 537.00 534.50 537.00 518.53 L 537.00 507.00 L 512.00 507.00 L 487.00 507.00 L 487.01 517.75 C 487.01 531.41 487.99 534.77 493.79 541.05 C 502.23 550.20 513.53 552.10 524.36 546.21 Z M 459.00 467.00 L 459.00 455.00 L 339.50 455.00 L 220.00 455.00 L 220.00 467.00 L 220.00 479.00 L 339.50 479.00 L 459.00 479.00 L 459.00 467.00 Z M 538.00 453.50 L 538.00 428.00 L 512.50 428.00 L 487.00 428.00 L 487.00 453.50 L 487.00 479.00 L 512.50 479.00 L 538.00 479.00 L 538.00 453.50 Z M 804.80 470.00 C 804.97 465.33 804.84 460.04 804.51 458.25 L 803.91 455.00 L 684.45 455.00 L 565.00 455.00 L 565.00 467.00 L 565.00 479.01 L 684.75 478.75 L 804.50 478.50 L 804.80 470.00 Z M 458.39 425.42 C 458.73 424.55 459.00 423.01 459.00 422.00 C 459.00 418.92 462.62 411.50 466.01 407.65 L 469.21 404.00 L 344.60 404.00 L 220.00 404.00 L 220.00 415.50 L 220.00 427.00 L 338.89 427.00 C 446.39 427.00 457.84 426.85 458.39 425.42 Z M 805.00 415.50 L 805.00 404.00 L 679.90 404.00 L 554.79 404.00 L 557.99 407.65 C 561.97 412.17 565.00 419.07 565.00 423.58 L 565.00 427.00 L 685.00 427.00 L 805.00 427.00 L 805.00 415.50 Z M 804.50 364.00 L 804.50 352.50 L 511.70 352.25 L 218.89 352.00 L 219.06 363.25 C 219.15 369.44 219.43 374.84 219.67 375.25 C 219.92 375.67 351.61 375.89 512.31 375.75 L 804.50 375.50 L 804.50 364.00 Z M 265.39 322.42 C 265.73 321.55 266.00 320.02 266.00 319.03 C 266.00 318.04 267.15 313.24 268.55 308.36 C 273.77 290.20 284.91 271.78 298.04 259.63 L 304.11 254.00 L 299.74 254.00 C 273.87 254.00 247.87 283.89 243.41 318.75 L 242.74 324.00 L 253.76 324.00 C 262.89 324.00 264.89 323.73 265.39 322.42 Z M 729.37 320.75 C 728.06 313.46 723.01 300.68 718.72 293.81 C 705.42 272.49 682.72 258.29 656.74 255.02 C 645.65 253.63 376.78 253.71 365.58 255.11 C 334.09 259.05 306.96 281.04 297.06 310.65 C 295.38 315.68 294.00 320.74 294.00 321.90 L 294.00 324.00 L 511.98 324.00 L 729.95 324.00 L 729.37 320.75 Z M 779.85 316.81 C 776.79 288.18 756.66 261.57 733.48 255.54 C 730.24 254.69 725.91 254.00 723.86 254.00 L 720.15 254.00 L 726.23 259.75 C 741.88 274.55 753.51 296.25 757.06 317.25 L 758.21 324.00 L 769.41 324.00 L 780.62 324.00 L 779.85 316.81 Z" stroke-linecap="round"/>
</g>
</g>
</g>

  </svg>