<svg xmlns="http://www.w3.org/2000/svg" xmlns:xlink="http://www.w3.org/1999/xlink" width="2057px" height="1945px" viewBox="0 0 2057.1207630413555 1944.9511831066889">
    <g id="73ebf1da-1e87-443c-9e62-14fd11edebae">
<g style="">
		<g id="73ebf1da-1e87-443c-9e62-14fd11edebae-child-0">
<path style="stroke: rgb(193,193,193); stroke-width: 0; stroke-dasharray: none; stroke-linecap: butt; stroke-dashoffset: 0; stroke-linejoin: miter; stroke-miterlimit: 4; fill: rgb(0,0,0); fill-rule: nonzero; opacity: 1;" transform="matrix(4.078289 0 0 4.078289 1028.560259 972.475475) matrix(1 0 0 1 0 0)  translate(-512.308182, -511.54817)" d="M 311.42 748.11 C 306.22 744.95 305.00 740.86 305.00 726.68 L 305.00 714.16 L 301.54 712.03 C 296.08 708.65 289.29 700.40 287.05 694.41 C 285.01 688.95 285.00 688.08 285.00 505.05 L 285.00 321.17 L 279.82 320.06 C 273.67 318.74 269.22 316.15 265.18 311.55 C 261.20 307.02 259.69 301.98 260.20 294.97 C 260.78 286.88 264.75 280.70 272.00 276.61 L 277.50 273.50 L 509.97 273.24 C 771.14 272.95 749.37 272.32 757.53 280.47 C 765.40 288.35 766.76 300.18 760.88 309.69 C 758.06 314.25 751.19 318.76 745.08 320.08 L 740.00 321.17 L 740.00 501.40 C 740.00 627.31 739.67 683.41 738.91 687.53 C 737.07 697.50 731.12 706.37 722.76 711.65 L 719.00 714.03 L 719.00 727.06 C 719.00 741.22 718.22 744.11 713.39 747.91 C 710.85 749.90 709.57 750.00 685.85 750.00 L 660.97 750.00 L 657.24 746.58 L 653.50 743.16 L 653.00 730.33 L 652.50 717.50 L 511.75 717.25 L 371.00 716.99 L 371.00 729.61 L 371.00 742.24 L 367.12 746.12 L 363.24 750.00 L 338.87 750.00 C 316.79 749.99 314.21 749.82 311.42 748.11 Z M 355.00 725.50 L 355.00 717.00 L 338.50 717.00 L 322.00 717.00 L 322.00 725.50 L 322.00 734.00 L 338.50 734.00 L 355.00 734.00 L 355.00 725.50 Z M 703.00 725.50 L 703.00 717.00 L 686.00 717.00 L 669.00 717.00 L 669.00 725.50 L 669.00 734.00 L 686.00 734.00 L 703.00 734.00 L 703.00 725.50 Z M 715.07 697.50 C 717.41 695.85 720.26 692.70 721.41 690.50 L 723.50 686.50 L 723.76 503.75 L 724.02 321.00 L 717.08 321.00 L 710.14 321.00 L 709.82 342.75 C 709.50 364.34 709.48 364.55 706.59 370.79 C 702.99 378.61 695.27 385.94 687.25 389.18 L 681.50 391.50 L 515.55 391.76 C 412.38 391.93 347.64 391.67 344.41 391.07 C 332.48 388.86 322.99 381.79 317.79 371.22 L 314.50 364.55 L 314.18 342.78 L 313.86 321.00 L 307.18 321.00 L 300.50 321.00 L 301.00 504.82 L 301.50 688.65 L 304.17 692.68 C 305.73 695.03 308.64 697.60 311.17 698.86 L 315.50 701.01 L 513.16 700.75 L 710.83 700.50 L 715.07 697.50 Z M 680.22 374.96 C 685.19 373.57 689.88 369.47 692.12 364.54 C 693.70 361.06 693.96 357.75 693.98 340.75 L 694.00 321.00 L 512.00 321.00 L 330.00 321.00 L 330.02 340.25 C 330.05 361.57 330.74 364.68 336.76 370.33 C 343.04 376.23 333.12 375.91 512.00 375.95 C 622.20 375.98 677.73 375.65 680.22 374.96 Z M 745.90 302.60 C 748.76 300.00 748.76 294.00 745.90 291.40 C 743.84 289.55 738.36 289.49 514.15 289.22 C 387.84 289.07 283.50 289.19 282.28 289.49 C 279.18 290.24 276.00 293.92 276.00 296.77 C 276.00 298.08 277.32 300.47 278.93 302.08 L 281.86 305.01 L 512.82 304.76 C 738.36 304.51 743.84 304.46 745.90 302.60 Z M 340.75 686.92 C 329.02 684.14 319.31 675.12 315.88 663.84 C 314.07 657.86 313.83 654.98 314.15 642.67 C 314.50 628.98 314.64 628.17 317.76 621.84 C 321.60 614.03 327.89 607.88 335.82 604.16 L 341.50 601.50 L 509.94 601.24 C 697.06 600.94 684.15 600.50 694.68 607.63 C 700.96 611.90 706.31 619.49 708.53 627.32 C 709.81 631.83 710.11 636.34 709.84 647.32 C 709.52 660.61 709.32 661.87 706.58 667.45 C 702.86 675.02 696.45 681.43 689.20 684.83 L 683.50 687.50 L 514.00 687.66 C 417.75 687.74 342.88 687.43 340.75 686.92 Z M 682.75 670.46 C 691.80 666.68 693.95 661.79 693.98 644.91 C 694.00 633.63 693.76 631.85 691.67 627.91 C 690.14 625.01 687.68 622.47 684.50 620.50 L 679.66 617.50 L 513.08 617.50 C 421.46 617.50 345.27 617.84 343.77 618.26 C 339.79 619.38 333.96 624.87 331.86 629.49 C 329.24 635.28 329.26 654.80 331.90 660.50 C 334.14 665.35 338.69 669.79 342.60 670.96 C 344.20 671.44 420.55 671.87 512.28 671.91 C 660.24 671.99 679.48 671.83 682.75 670.46 Z M 338.07 586.98 C 327.96 583.33 321.27 577.18 316.73 567.33 C 314.71 562.95 314.50 560.95 314.50 545.98 L 314.50 529.46 L 317.75 522.86 C 321.60 515.03 327.88 508.89 335.82 505.16 L 341.50 502.50 L 512.00 502.50 L 682.50 502.50 L 688.50 505.30 C 698.65 510.04 705.47 517.94 708.55 528.51 C 709.87 533.05 710.13 537.22 709.81 548.38 C 709.43 561.30 709.17 562.99 706.63 568.24 C 703.12 575.52 696.58 582.08 689.24 585.68 L 683.50 588.50 L 513.50 588.72 C 346.91 588.94 343.39 588.90 338.07 586.98 Z M 683.75 570.88 C 686.39 569.60 689.20 567.14 690.82 564.71 C 693.35 560.89 693.52 559.88 693.81 547.08 C 694.10 534.37 693.97 533.21 691.73 529.00 C 690.15 526.02 687.71 523.49 684.50 521.50 L 679.66 518.50 L 512.08 518.50 L 344.50 518.50 L 340.48 520.80 C 336.01 523.37 332.44 527.98 330.97 533.10 C 329.69 537.57 329.74 554.51 331.04 559.22 C 332.43 564.19 336.53 568.88 341.46 571.12 C 345.33 572.88 352.64 572.96 512.43 572.98 L 679.37 573.00 L 683.75 570.88 Z M 338.05 487.85 C 332.64 486.13 330.52 484.72 324.88 479.09 C 318.96 473.17 317.92 471.53 315.97 465.14 C 314.05 458.81 313.83 456.18 314.17 444.20 C 314.53 432.04 314.86 429.87 317.17 424.88 C 320.68 417.30 325.71 411.98 333.23 407.90 L 339.50 404.50 L 512.00 404.50 L 684.50 404.50 L 690.29 407.44 C 697.36 411.01 703.30 417.26 706.83 424.82 C 709.22 429.93 709.52 431.88 709.84 444.34 C 710.15 456.57 709.93 458.99 707.93 465.21 C 704.96 474.45 697.82 482.42 688.78 486.60 L 682.50 489.50 L 513.50 489.70 C 345.67 489.90 344.46 489.89 338.05 487.85 Z M 681.77 472.45 C 691.21 468.51 693.95 462.76 693.98 446.82 C 694.00 433.77 693.29 431.00 688.69 426.13 C 682.46 419.55 695.30 420.00 511.99 420.00 C 348.14 420.00 344.85 420.04 341.09 421.96 C 336.25 424.42 332.38 428.99 331.04 433.78 C 329.71 438.58 329.71 455.42 331.04 460.22 C 332.43 465.19 336.53 469.88 341.46 472.12 C 345.33 473.88 352.62 473.96 511.78 473.98 C 659.64 474.00 678.47 473.83 681.77 472.45 Z M 501.50 367.12 C 494.41 362.91 491.64 358.33 491.17 350.02 C 490.75 342.53 492.52 337.78 497.65 332.60 C 508.97 321.18 529.21 327.20 533.03 343.12 C 535.19 352.13 531.80 361.09 524.20 366.43 C 520.66 368.91 518.74 369.50 513.21 369.77 C 507.24 370.06 505.95 369.77 501.50 367.12 Z M 515.80 351.80 C 516.46 351.14 517.00 349.65 517.00 348.50 C 517.00 347.35 516.46 345.86 515.80 345.20 C 515.14 344.54 513.66 344.00 512.50 344.00 C 511.35 344.00 509.86 344.54 509.20 345.20 C 508.54 345.86 508.00 347.35 508.00 348.50 C 508.00 349.65 508.54 351.14 509.20 351.80 C 509.86 352.46 511.35 353.00 512.50 353.00 C 513.66 353.00 515.14 352.46 515.80 351.80 Z M 501.91 663.67 C 499.48 662.39 496.16 659.44 494.52 657.11 C 492.01 653.55 491.48 651.74 491.19 645.69 C 490.90 639.61 491.22 637.81 493.25 634.00 C 496.93 627.12 502.58 623.65 510.88 623.18 C 516.31 622.87 518.49 623.21 521.74 624.87 C 534.73 631.49 537.65 648.83 527.63 659.85 C 521.78 666.29 510.14 668.02 501.91 663.67 Z M 515.43 647.43 C 518.98 643.88 515.58 639.14 510.41 640.43 C 508.59 640.89 508.00 641.72 508.00 643.82 C 508.00 648.66 512.17 650.69 515.43 647.43 Z M 506.99 567.07 C 496.60 563.90 490.98 556.60 491.02 546.30 C 491.07 532.74 501.21 523.00 514.00 524.23 C 527.45 525.52 536.26 538.15 532.93 551.38 C 530.10 562.59 517.45 570.25 506.99 567.07 Z M 516.39 547.75 C 517.62 545.79 516.56 543.39 513.68 541.57 C 510.36 539.47 506.75 544.31 508.41 548.64 C 509.19 550.67 514.97 550.03 516.39 547.75 Z M 503.44 467.11 C 498.38 464.81 492.23 457.76 491.39 453.29 C 489.44 442.90 493.39 433.15 501.43 428.53 C 507.11 425.27 511.26 424.62 517.24 426.06 C 527.69 428.56 535.32 440.21 533.52 450.89 C 531.23 464.43 515.82 472.74 503.44 467.11 Z M 515.48 450.38 C 518.92 446.94 515.61 442.13 510.65 443.37 C 508.58 443.89 508.00 444.64 508.00 446.82 C 508.00 451.70 512.17 453.68 515.48 450.38 Z" stroke-linecap="round"/>
</g>
</g>
</g>

  </svg>