<svg xmlns="http://www.w3.org/2000/svg" xmlns:xlink="http://www.w3.org/1999/xlink" width="475px" height="500px" viewBox="0 0 474.9392060498751 500">
    <g id="e036ef0f-1717-4403-ac9b-4a4c6fe594c0">
<g style="">
		<g id="e036ef0f-1717-4403-ac9b-4a4c6fe594c0-child-0">
<path style="stroke: rgb(193,193,193); stroke-width: 0; stroke-dasharray: none; stroke-linecap: butt; stroke-dashoffset: 0; stroke-linejoin: miter; stroke-miterlimit: 4; fill: rgb(0,0,0); fill-rule: nonzero; opacity: 1;" transform="matrix(0.875633 0 0 0.875633 237.469522 249.999916) matrix(1 0 0 1 0 0)  translate(-512.697548, -511.604856)" d="M 294.08 795.25 C 289.16 792.73 286.75 787.75 287.35 781.35 L 287.84 776.19 L 284.17 775.51 C 278.62 774.48 267.97 768.51 261.69 762.92 C 254.58 756.58 246.89 745.11 243.86 736.33 L 241.50 729.50 L 241.50 524.00 L 241.50 318.50 L 244.16 309.00 C 252.87 277.89 274.44 251.36 302.50 237.24 C 310.10 233.41 323.67 229.18 333.57 227.55 C 342.55 226.07 360.14 225.94 517.00 226.21 L 690.50 226.51 L 698.50 228.77 C 721.96 235.40 737.87 244.71 753.03 260.67 C 765.68 273.98 775.75 291.87 780.04 308.65 C 783.97 324.04 784.11 331.97 783.78 532.50 C 783.48 711.81 783.33 726.92 781.75 732.00 C 775.50 752.21 760.86 768.21 742.50 774.90 L 736.50 777.08 L 736.79 782.29 C 737.15 788.71 734.54 793.46 729.51 795.56 C 724.57 797.63 686.43 797.63 681.49 795.56 C 676.43 793.45 673.89 788.74 674.16 782.00 L 674.39 776.50 L 511.86 776.25 L 349.33 775.99 L 349.73 781.25 C 350.21 787.71 347.87 792.53 342.94 795.17 C 339.95 796.78 336.96 797.00 318.52 797.00 C 300.48 797.00 297.02 796.75 294.08 795.25 Z M 739.60 747.95 C 744.89 745.39 751.50 738.31 754.34 732.18 L 756.50 727.50 L 756.76 562.75 L 757.02 398.00 L 512.00 398.00 L 266.98 398.00 L 267.24 562.75 L 267.50 727.50 L 270.32 733.00 C 273.84 739.86 278.19 744.49 284.00 747.54 L 288.50 749.91 L 511.93 749.95 C 735.18 750.00 735.37 750.00 739.60 747.95 Z M 757.00 349.09 C 757.00 325.21 756.02 317.37 751.55 305.51 C 746.32 291.65 733.72 275.37 722.00 267.35 C 713.97 261.85 702.85 256.85 693.19 254.40 L 683.74 252.00 L 512.12 252.02 C 325.74 252.04 334.91 251.77 320.41 257.57 C 309.95 261.76 302.47 266.56 294.25 274.37 C 285.24 282.93 279.12 291.27 274.60 301.16 C 268.49 314.52 267.77 318.95 267.26 346.25 L 266.80 371.00 L 511.90 371.00 L 757.00 371.00 L 757.00 349.09 Z M 316.06 459.17 C 312.13 457.07 309.00 451.89 309.00 447.50 C 309.00 443.11 312.13 437.93 316.06 435.83 C 319.21 434.14 322.76 434.00 363.28 434.00 C 410.64 434.00 409.79 433.91 415.00 439.49 C 417.02 441.65 417.50 443.19 417.50 447.50 C 417.50 451.81 417.02 453.36 415.00 455.55 C 410.01 460.96 409.60 461.00 362.77 461.00 C 322.74 461.00 319.21 460.86 316.06 459.17 Z M 464.21 459.01 C 454.79 454.73 454.70 440.85 464.06 435.83 C 467.22 434.14 470.78 434.00 511.98 434.00 C 554.37 434.01 556.65 434.10 559.70 435.96 C 565.90 439.74 567.87 448.42 563.97 454.81 C 560.24 460.93 559.64 461.00 511.78 460.98 C 471.06 460.96 468.25 460.84 464.21 459.01 Z M 614.02 459.25 C 609.69 457.07 606.00 451.70 606.00 447.59 C 606.00 443.12 609.11 437.95 613.06 435.83 C 616.21 434.14 619.76 434.00 660.33 434.00 C 699.24 434.00 704.60 434.19 707.72 435.67 C 714.62 438.94 717.11 448.03 712.97 454.81 C 709.24 460.93 708.63 461.00 660.78 461.00 C 621.57 461.00 617.17 460.83 614.02 459.25 Z M 315.30 334.04 C 307.84 329.49 306.89 319.24 313.39 313.28 L 316.97 310.00 L 362.74 310.01 C 397.33 310.03 409.10 310.33 410.97 311.28 C 412.33 311.97 414.47 314.05 415.72 315.91 C 419.83 322.01 418.02 330.19 411.70 334.04 C 408.65 335.90 406.37 335.99 363.50 335.99 C 320.63 335.99 318.35 335.90 315.30 334.04 Z M 463.30 334.04 C 455.84 329.49 454.89 319.24 461.39 313.28 L 464.97 310.00 L 502.74 309.75 C 556.66 309.39 556.14 309.38 559.68 311.47 C 563.90 313.96 566.00 317.97 566.00 323.52 C 566.00 327.66 565.53 328.71 562.12 332.12 L 558.24 336.00 L 512.37 336.00 C 468.64 335.99 466.35 335.90 463.30 334.04 Z M 612.30 334.04 C 604.84 329.49 603.89 319.24 610.39 313.28 L 613.97 310.00 L 642.24 309.83 C 664.97 309.70 689.75 309.75 705.37 309.97 C 706.39 309.99 708.98 311.75 711.12 313.88 C 714.64 317.40 715.00 318.25 715.00 323.00 C 715.00 327.75 714.64 328.60 711.12 332.12 L 707.24 336.00 L 661.37 336.00 C 617.64 335.99 615.35 335.90 612.30 334.04 Z" stroke-linecap="round"/>
</g>
</g>
</g>

  </svg>