<svg xmlns="http://www.w3.org/2000/svg" xmlns:xlink="http://www.w3.org/1999/xlink" width="354px" height="500px" viewBox="0 0 354.27079350703 500.0002380598339">
    <g id="0c18b2f6-5098-491b-a27c-c1ecf2f2ca24">
<g style="">
		<g id="0c18b2f6-5098-491b-a27c-c1ecf2f2ca24-child-0">
<path style="stroke: rgb(193,193,193); stroke-width: 0; stroke-dasharray: none; stroke-linecap: butt; stroke-dashoffset: 0; stroke-linejoin: miter; stroke-miterlimit: 4; fill: rgb(0,0,0); fill-rule: nonzero; opacity: 1;" transform="matrix(0.778906 0 0 0.778906 177.135397 250.000119) matrix(1 0 0 1 0 0)  translate(-512.293426, -512.461741)" d="M 387.00 832.95 C 371.78 832.16 362.89 827.54 355.96 816.82 C 351.38 809.73 351.69 810.67 339.44 766.50 C 329.85 731.92 329.68 731.45 325.54 727.00 C 309.21 709.48 298.62 692.02 291.60 671.00 C 281.90 641.97 282.71 614.42 293.95 591.42 L 299.00 581.07 L 299.00 453.76 C 299.00 372.10 299.37 323.49 300.03 318.20 C 305.91 271.32 336.74 228.09 379.56 206.68 C 390.92 201.00 403.36 196.62 416.31 193.76 C 426.45 191.51 426.94 191.50 512.00 191.50 C 606.60 191.50 602.12 191.23 623.98 198.18 C 672.32 213.55 709.34 253.51 721.76 303.74 L 724.42 314.50 L 724.74 447.50 L 725.06 580.50 L 730.03 590.50 C 738.28 607.06 741.04 622.58 739.13 641.51 C 735.97 672.60 722.53 701.87 700.31 726.00 C 697.01 729.58 694.00 733.85 693.61 735.50 C 689.87 751.26 672.16 809.68 669.72 814.31 C 665.86 821.63 658.57 828.24 651.20 831.11 L 645.50 833.33 L 521.50 833.42 C 453.30 833.46 392.77 833.25 387.00 832.95 Z M 644.98 810.15 C 646.88 809.13 649.21 807.22 650.17 805.90 C 651.56 803.96 662.72 767.93 665.38 756.75 L 666.04 753.99 L 661.18 756.99 C 648.12 765.02 628.07 772.93 608.94 777.60 L 597.50 780.39 L 518.00 780.77 C 460.73 781.05 435.98 780.82 429.50 779.97 C 409.54 777.36 384.86 769.11 367.51 759.25 C 362.57 756.44 358.38 754.29 358.20 754.46 C 357.60 755.06 372.24 803.50 373.62 805.47 C 374.38 806.56 376.69 808.47 378.75 809.72 L 382.50 811.99 L 512.02 811.99 C 636.16 812.00 641.67 811.92 644.98 810.15 Z M 602.12 757.20 C 619.99 753.14 640.32 745.04 653.50 736.73 C 693.88 711.28 718.00 671.95 718.00 631.55 C 718.00 613.25 712.50 598.31 702.33 589.02 C 694.89 582.22 687.89 579.72 677.50 580.17 C 667.88 580.59 662.06 583.10 655.51 589.65 C 649.84 595.32 646.08 603.38 642.08 618.47 C 640.33 625.06 637.51 633.28 635.81 636.74 C 629.65 649.26 615.48 661.60 599.83 668.09 C 590.48 671.96 577.98 674.98 571.27 674.99 C 566.24 675.00 565.97 675.14 564.10 678.75 C 563.04 680.81 559.91 685.01 557.16 688.07 L 552.16 693.64 L 551.83 707.07 C 551.46 722.29 550.38 725.62 543.68 732.32 C 536.62 739.38 532.83 740.45 513.50 740.82 C 498.28 741.12 495.92 740.94 491.00 739.10 C 483.76 736.39 479.09 732.41 475.47 725.86 C 472.68 720.79 472.49 719.76 472.16 707.00 L 471.80 693.50 L 467.06 688.48 C 464.46 685.72 461.27 681.62 459.97 679.36 C 457.62 675.29 457.55 675.26 450.52 674.66 C 430.20 672.94 406.90 661.44 395.94 647.70 C 389.80 640.01 386.61 632.98 381.99 616.92 C 377.09 599.95 374.29 594.35 367.74 588.46 C 361.35 582.71 353.97 580.00 344.71 580.00 C 331.08 580.00 319.28 588.21 312.60 602.36 C 307.66 612.79 306.49 618.77 306.58 633.00 C 306.83 671.32 329.01 708.24 367.08 733.73 C 381.46 743.36 395.87 749.94 412.63 754.54 C 431.71 759.78 433.59 759.87 516.00 759.62 C 590.62 759.39 592.74 759.33 602.12 757.20 Z M 525.97 718.25 C 529.79 716.32 530.75 714.09 530.90 706.72 L 531.00 701.93 L 525.75 702.72 C 518.93 703.73 504.85 703.72 498.50 702.69 L 493.50 701.88 L 493.83 708.34 C 494.31 717.76 495.75 718.83 508.52 719.25 C 514.01 719.43 519.40 719.67 520.50 719.79 C 521.60 719.90 524.06 719.21 525.97 718.25 Z M 528.18 679.92 C 544.29 675.25 552.03 661.96 545.95 649.40 C 542.20 641.65 533.40 636.74 520.31 635.10 C 496.46 632.11 477.67 640.94 476.24 655.81 C 475.60 662.54 477.45 667.50 482.47 672.52 C 491.87 681.92 510.73 684.97 528.18 679.92 Z M 454.63 652.25 C 454.35 651.29 452.92 645.10 451.45 638.50 C 449.98 631.90 444.63 607.96 439.57 585.29 L 430.35 544.08 L 424.65 538.61 C 416.97 531.22 414.01 524.45 408.53 501.70 C 403.49 480.78 403.09 475.16 405.98 465.81 C 411.86 446.76 430.08 434.18 450.27 435.22 C 461.27 435.79 468.46 438.68 475.83 445.51 C 485.30 454.27 486.01 456.10 496.03 497.50 C 498.57 508.00 498.30 515.28 495.11 522.49 L 493.00 527.25 L 502.12 569.88 C 507.13 593.32 511.55 612.85 511.95 613.28 C 512.69 614.09 513.74 609.44 524.54 557.93 L 530.94 527.36 L 529.09 522.43 C 525.29 512.36 525.47 509.46 531.46 484.67 C 539.10 453.00 543.24 446.04 558.82 438.66 C 565.06 435.71 566.22 435.50 576.50 435.50 C 586.81 435.50 587.92 435.70 594.29 438.72 C 611.92 447.07 622.87 466.01 620.03 483.26 C 618.37 493.35 610.84 521.55 608.28 527.28 C 606.57 531.12 603.79 534.83 600.05 538.30 L 594.39 543.53 L 590.72 559.51 C 582.60 594.88 572.99 636.99 571.16 645.25 L 569.22 654.00 L 572.00 654.00 C 576.24 654.00 591.84 649.21 597.43 646.19 C 604.31 642.47 613.08 634.12 616.28 628.23 C 617.75 625.53 620.51 617.47 622.41 610.34 C 624.31 603.20 626.96 594.92 628.29 591.93 C 633.78 579.63 645.26 568.17 657.32 562.94 L 662.97 560.50 L 662.98 470.71 C 663.00 381.17 662.99 380.91 660.88 376.71 C 655.39 365.82 640.74 349.62 628.00 340.35 C 609.26 326.72 588.09 318.44 559.00 313.35 C 540.93 310.20 505.04 309.04 483.92 310.93 C 427.25 316.01 385.75 338.40 363.99 375.63 L 360.00 382.47 L 360.00 470.98 L 360.01 559.50 L 368.09 563.31 C 374.36 566.26 377.92 568.84 383.94 574.81 C 393.42 584.20 397.64 592.26 402.11 609.50 C 403.82 616.10 406.51 624.05 408.08 627.17 C 413.93 638.74 426.52 647.68 443.00 651.95 C 452.77 654.48 455.29 654.54 454.63 652.25 Z M 562.49 587.00 C 567.99 562.36 570.29 550.26 569.57 549.77 C 568.98 549.36 567.23 549.02 565.67 549.02 C 564.11 549.01 559.92 547.83 556.35 546.40 C 552.78 544.98 549.75 543.96 549.61 544.15 C 549.35 544.52 536.13 605.95 534.97 612.22 C 534.28 615.92 534.29 615.94 538.92 617.47 C 541.47 618.32 545.79 620.53 548.53 622.39 C 551.57 624.45 553.66 625.32 553.92 624.63 C 554.16 624.01 558.01 607.08 562.49 587.00 Z M 475.89 621.97 C 478.60 620.30 482.88 618.24 485.40 617.38 C 489.29 616.05 489.91 615.48 489.48 613.66 C 488.32 608.73 475.84 550.24 475.31 547.20 C 474.85 544.63 474.36 544.05 473.11 544.60 C 467.64 547.00 461.06 548.94 458.31 548.97 C 456.55 548.99 454.87 549.40 454.57 549.89 C 454.27 550.38 457.12 564.89 460.90 582.14 C 464.69 599.39 468.32 616.09 468.96 619.25 C 469.61 622.41 470.33 625.00 470.56 625.00 C 470.78 625.00 473.19 623.64 475.89 621.97 Z M 331.50 560.65 L 339.50 558.22 L 340.00 437.86 L 340.50 317.50 L 343.31 308.50 C 354.94 271.27 382.56 244.36 419.50 234.27 L 429.50 231.54 L 507.50 231.21 C 590.67 230.86 594.67 231.04 609.48 235.71 C 638.19 244.76 660.87 264.32 673.99 291.36 C 679.69 303.10 682.54 312.83 683.97 325.50 C 684.60 331.06 684.99 377.38 684.99 446.75 C 685.00 556.59 685.04 559.00 686.91 559.00 C 688.68 559.00 698.15 561.77 702.29 563.50 C 704.00 564.21 704.06 559.08 703.72 441.87 C 703.33 309.10 703.59 315.44 697.87 298.03 C 690.18 274.62 673.49 251.96 652.46 236.40 C 636.91 224.88 618.99 217.33 599.15 213.94 C 588.60 212.14 582.46 212.00 511.58 212.00 C 427.78 212.00 426.37 212.08 407.00 218.21 C 370.44 229.77 339.07 260.59 327.04 296.78 C 320.19 317.40 320.64 307.79 320.27 442.38 C 319.95 558.97 320.01 564.23 321.72 563.67 C 322.70 563.34 327.10 561.99 331.50 560.65 Z M 464.83 525.40 C 471.83 521.91 475.23 517.32 475.78 510.61 C 476.39 503.32 467.28 468.54 463.46 463.53 C 458.51 457.04 449.71 454.56 440.62 457.09 C 434.97 458.66 427.75 466.24 426.02 472.42 C 424.71 477.10 424.83 478.06 428.47 492.92 C 433.89 514.98 434.72 517.51 437.73 521.09 C 443.76 528.25 455.39 530.10 464.83 525.40 Z M 579.51 526.14 C 587.47 522.52 589.19 519.30 594.46 498.15 C 599.94 476.17 599.97 472.77 594.68 465.75 C 590.62 460.34 582.35 456.00 576.14 456.00 C 569.99 456.00 563.46 459.35 560.30 464.12 C 557.32 468.63 549.00 501.45 549.00 508.72 C 549.00 522.31 566.25 532.16 579.51 526.14 Z M 386.96 321.13 C 410.11 305.66 435.14 296.44 468.00 291.30 C 484.78 288.67 539.22 288.72 556.50 291.37 C 598.74 297.86 630.11 311.94 656.47 336.23 L 664.07 343.23 L 663.44 334.86 C 661.52 309.38 650.75 287.41 632.66 272.15 C 621.39 262.63 609.66 257.01 594.56 253.90 C 586.19 252.17 579.86 252.03 511.93 252.01 C 464.88 252.00 436.23 252.38 432.43 253.05 C 392.46 260.13 363.22 292.78 361.26 332.50 L 360.72 343.50 L 369.11 335.48 C 373.72 331.06 381.76 324.61 386.96 321.13 Z" stroke-linecap="round"/>
</g>
</g>
</g>

  </svg>