<svg xmlns="http://www.w3.org/2000/svg" xmlns:xlink="http://www.w3.org/1999/xlink" width="409px" height="500px" viewBox="0 0 408.73633131682027 499.9999999999998">
    <g id="eb9f6986-54bb-43ee-aa9a-484a3311989f">
<g style="">
		<g id="eb9f6986-54bb-43ee-aa9a-484a3311989f-child-0">
<path style="stroke: rgb(193,193,193); stroke-width: 0; stroke-dasharray: none; stroke-linecap: butt; stroke-dashoffset: 0; stroke-linejoin: miter; stroke-miterlimit: 4; fill: rgb(0,0,0); fill-rule: nonzero; opacity: 1;" transform="matrix(0.809379 0 0 0.809379 204.368197 250.000039) matrix(1 0 0 1 0 0)  translate(-512, -511.888156)" d="M 501.63 819.58 C 496.18 817.57 490.92 813.07 488.00 807.91 C 485.60 803.67 485.48 802.66 485.00 781.50 L 484.50 759.50 L 480.00 759.25 C 429.33 756.46 375.43 748.84 346.86 740.42 C 345.40 739.99 345.18 741.84 344.80 757.72 C 344.34 776.84 343.71 779.64 338.55 785.77 C 331.18 794.51 317.31 797.58 306.86 792.79 C 300.46 789.86 295.38 785.04 292.87 779.52 C 291.24 775.93 291.04 772.44 291.02 747.00 L 291.00 718.50 L 286.25 715.50 C 277.10 709.73 267.28 699.34 263.23 691.16 C 259.67 683.95 259.50 683.14 259.50 673.55 C 259.50 665.22 259.89 662.66 261.76 658.59 C 278.47 622.37 354.31 596.44 462.63 589.92 C 489.13 588.32 562.15 589.23 584.00 591.42 C 652.69 598.33 709.17 613.67 739.05 633.53 C 748.79 640.01 757.43 649.09 761.27 656.90 C 764.26 662.97 764.50 664.21 764.50 673.48 C 764.50 682.63 764.23 684.07 761.37 690.10 C 757.60 698.06 747.42 709.22 738.96 714.67 L 733.02 718.50 L 733.00 746.50 C 732.98 773.71 732.91 774.64 730.65 779.51 C 726.18 789.10 716.84 794.96 706.00 794.96 C 695.42 794.96 686.61 789.72 681.69 780.50 C 679.78 776.92 679.51 774.56 679.18 758.21 C 678.85 741.76 678.64 739.98 677.15 740.44 C 671.74 742.12 648.45 747.26 636.50 749.41 C 611.60 753.89 581.66 757.19 553.25 758.59 L 539.00 759.30 L 539.00 779.47 C 539.00 795.24 538.65 800.66 537.42 804.29 C 535.62 809.56 529.78 815.90 524.24 818.60 C 519.35 820.99 506.90 821.53 501.63 819.58 Z M 515.93 801.54 C 517.48 800.73 519.04 799.35 519.38 798.46 C 519.72 797.56 520.00 788.55 520.00 778.42 L 520.00 760.00 L 511.50 760.00 L 503.00 760.00 L 503.01 777.75 C 503.03 796.80 503.59 799.47 508.02 801.72 C 511.23 803.34 512.49 803.31 515.93 801.54 Z M 323.37 773.93 L 326.00 771.85 L 326.00 753.01 L 326.00 734.17 L 318.25 731.21 L 310.50 728.25 L 309.69 732.86 C 309.24 735.40 309.01 745.06 309.19 754.33 L 309.50 771.18 L 312.31 773.59 C 315.75 776.55 319.87 776.67 323.37 773.93 Z M 712.41 772.92 L 715.00 769.85 L 715.00 748.85 C 715.00 732.54 714.72 727.93 713.75 728.19 C 713.06 728.37 709.24 729.62 705.25 730.96 L 698.00 733.39 L 698.00 752.38 C 698.00 770.50 698.10 771.48 700.17 773.69 C 703.50 777.23 709.08 776.88 712.41 772.92 Z M 557.52 739.99 C 646.33 734.37 716.40 714.99 739.84 689.56 C 745.06 683.89 747.00 679.55 747.00 673.50 C 747.00 667.16 744.93 662.84 739.13 657.03 C 705.60 623.50 588.69 602.05 472.00 608.02 C 376.37 612.90 300.72 634.07 281.10 661.42 C 278.18 665.49 277.51 667.39 277.18 672.51 C 276.71 679.87 278.07 683.02 284.86 690.29 C 303.57 710.32 352.43 726.66 419.93 735.46 C 430.14 736.79 445.25 738.36 453.50 738.95 C 461.75 739.54 470.52 740.16 473.00 740.33 C 484.39 741.14 543.19 740.90 557.52 739.99 Z M 535.14 576.92 C 524.73 574.88 514.85 566.02 511.38 555.62 C 509.16 548.96 509.89 538.06 512.97 532.00 C 514.22 529.53 520.41 522.26 526.72 515.86 C 539.51 502.86 539.41 503.20 532.40 497.05 L 528.72 493.82 L 520.61 501.71 C 516.15 506.05 498.41 523.53 481.20 540.55 C 463.98 557.57 448.46 572.24 446.70 573.14 C 441.98 575.55 432.27 577.30 427.60 576.57 C 415.16 574.66 407.09 568.99 401.96 558.58 C 398.27 551.07 397.75 542.44 400.47 533.84 C 402.04 528.90 404.27 526.42 430.59 500.31 L 459.02 472.11 L 458.76 432.81 L 458.50 393.50 L 440.94 410.72 C 420.02 431.24 416.44 433.41 403.50 433.46 C 393.97 433.51 386.60 430.60 380.31 424.31 C 374.09 418.09 371.62 411.94 371.56 402.50 C 371.47 388.95 372.23 387.91 408.31 352.05 L 439.50 321.04 L 508.50 321.03 L 577.50 321.02 L 602.19 296.15 C 630.82 267.31 631.90 266.56 645.00 266.53 C 655.07 266.52 660.35 268.52 667.41 275.02 C 677.60 284.42 680.51 298.89 674.74 311.50 C 672.33 316.77 667.83 321.61 637.84 351.25 L 603.69 385.00 L 584.34 385.00 L 565.00 385.00 L 565.00 410.15 L 565.00 435.30 L 589.36 459.90 C 604.74 475.44 614.56 486.16 616.01 489.00 C 619.45 495.72 619.84 505.78 616.96 513.50 C 614.88 519.09 612.90 521.29 588.27 545.50 C 573.72 559.80 560.16 572.37 558.15 573.42 C 554.21 575.50 544.75 578.03 541.50 577.87 C 540.40 577.82 537.54 577.40 535.14 576.92 Z M 436.71 556.25 C 438.46 555.29 458.22 536.28 480.61 514.00 C 503.01 491.73 522.49 472.72 523.91 471.76 C 529.42 468.04 531.22 468.98 545.88 483.25 C 559.99 496.98 562.74 500.92 561.54 505.69 C 561.11 507.40 554.72 514.66 544.92 524.58 C 529.16 540.53 529.00 540.74 529.04 545.10 C 529.08 550.38 530.63 553.46 534.57 556.05 C 537.88 558.24 544.93 558.64 548.32 556.84 C 549.52 556.20 561.17 545.33 574.22 532.70 C 598.68 509.00 600.86 506.20 599.55 500.25 C 599.15 498.42 590.10 488.55 572.47 470.73 L 546.00 443.95 L 546.00 408.93 C 546.00 370.93 546.17 369.61 551.47 367.19 C 553.24 366.39 560.93 366.00 575.03 366.00 L 595.97 366.00 L 626.95 335.25 C 653.94 308.46 658.02 304.02 658.57 300.79 C 660.26 290.92 648.58 281.69 640.25 286.32 C 639.01 287.01 626.38 299.14 612.18 313.29 C 597.97 327.43 585.94 339.01 585.43 339.02 C 584.92 339.03 553.79 339.15 516.26 339.27 L 448.01 339.50 L 420.00 367.50 C 390.24 397.24 388.87 399.04 390.99 405.47 C 392.26 409.31 396.84 413.67 400.58 414.61 C 407.28 416.29 409.12 414.97 434.29 390.43 C 460.50 364.86 462.10 363.77 469.61 366.24 C 471.99 367.03 474.29 368.78 475.71 370.90 L 478.00 374.30 L 478.03 427.40 L 478.06 480.50 L 448.58 509.50 C 428.52 529.23 418.88 539.40 418.43 541.30 C 417.49 545.21 418.57 550.87 420.71 553.26 C 424.79 557.85 431.53 559.10 436.71 556.25 Z M 497.50 310.13 C 479.38 304.93 464.20 289.55 459.36 271.50 C 457.51 264.59 457.63 249.61 459.60 242.93 C 467.76 215.15 497.43 197.60 524.54 204.52 C 539.80 208.42 554.49 219.94 560.85 233.00 C 564.22 239.92 566.97 250.92 566.97 257.50 C 566.97 281.08 548.62 304.42 525.36 310.42 C 517.46 312.45 505.14 312.33 497.50 310.13 Z M 524.12 291.27 C 538.75 286.30 548.75 271.07 547.76 255.28 C 546.91 241.78 539.82 231.50 527.03 225.22 C 522.19 222.84 520.31 222.50 512.00 222.50 C 503.65 222.50 501.82 222.83 496.88 225.26 C 481.70 232.71 473.38 250.14 477.42 266.04 C 482.66 286.69 503.86 298.15 524.12 291.27 Z M 470.50 727.95 C 430.55 724.72 394.01 717.38 372.21 708.22 C 328.88 690.02 325.30 659.10 364.25 639.50 C 386.38 628.37 418.18 621.35 464.50 617.40 C 488.10 615.38 552.62 615.96 573.52 618.38 C 637.83 625.82 675.85 640.59 685.22 661.77 C 687.86 667.72 687.35 676.63 684.01 683.29 C 673.57 704.08 631.79 719.81 569.00 726.59 C 551.92 728.43 487.45 729.33 470.50 727.95 Z M 538.00 709.99 C 601.95 706.73 647.76 695.70 664.67 679.49 C 670.62 673.79 670.64 670.22 664.74 664.58 C 633.59 634.73 491.20 624.13 404.00 645.15 C 373.50 652.51 353.15 664.50 355.47 673.75 C 357.03 679.94 369.24 687.90 386.50 693.97 C 422.20 706.53 481.93 712.84 538.00 709.99 Z" stroke-linecap="round"/>
</g>
</g>
</g>

  </svg>