<svg xmlns="http://www.w3.org/2000/svg" xmlns:xlink="http://www.w3.org/1999/xlink" width="2395px" height="3467px" viewBox="0 0 2394.675658458104 3466.666666666666">
    <g id="cd7d9da5-b185-4bee-858d-964b97cd4de9">
<g style="">
		<g id="cd7d9da5-b185-4bee-858d-964b97cd4de9-child-0">
<path style="stroke: rgb(193,193,193); stroke-width: 0; stroke-dasharray: none; stroke-linecap: butt; stroke-dashoffset: 0; stroke-linejoin: miter; stroke-miterlimit: 4; fill: rgb(0,0,0); fill-rule: nonzero; opacity: 1;" transform="matrix(5.40479 0 0 5.40479 1197.337789 1733.333275) matrix(1 0 0 1 0 0)  translate(-512.532713, -512.250192)" d="M 330.45 832.04 C 329.32 831.58 326.95 829.57 325.20 827.57 L 322.00 823.93 L 322.00 812.08 L 322.00 800.23 L 311.75 799.81 C 300.13 799.34 296.07 797.81 292.96 792.70 C 291.30 789.99 291.01 787.64 291.00 777.20 C 291.00 763.43 291.82 760.77 297.33 756.56 C 299.17 755.16 302.09 753.73 303.83 753.38 L 307.00 752.75 L 307.00 531.45 L 307.00 310.16 L 303.93 309.48 C 300.29 308.68 294.49 303.84 292.45 299.90 C 291.43 297.94 291.00 293.72 291.00 285.80 C 291.01 276.29 291.32 273.98 292.99 271.24 C 296.82 264.97 299.10 264.32 319.30 263.75 C 343.13 263.07 349.11 260.92 354.76 251.00 C 358.47 244.49 361.89 241.12 365.94 240.00 C 367.90 239.46 375.06 239.01 381.85 239.01 L 394.21 239.00 L 403.37 231.63 C 445.94 197.39 494.76 184.76 544.98 195.00 C 572.39 200.58 596.10 212.05 620.63 231.58 L 629.95 239.00 L 643.23 239.03 C 660.49 239.06 662.58 239.93 668.31 249.46 C 675.63 261.62 682.09 263.98 708.02 263.99 C 725.19 264.00 728.14 265.00 731.75 272.04 C 733.63 275.69 734.00 278.01 733.98 285.96 C 733.95 299.81 730.69 305.81 721.40 309.17 L 718.00 310.40 L 718.00 531.70 L 718.00 753.00 L 720.35 753.00 C 723.77 753.00 730.39 758.19 732.41 762.46 C 735.05 768.02 734.39 788.67 731.44 792.62 C 727.12 798.39 724.88 799.29 713.54 799.79 L 703.00 800.26 L 703.00 810.32 C 703.00 821.57 701.23 826.85 696.24 830.50 C 693.68 832.37 691.66 832.52 665.96 832.79 C 638.61 833.09 638.40 833.07 634.96 830.77 C 629.36 827.03 628.00 823.13 628.00 810.75 L 628.00 800.00 L 512.02 800.00 L 396.03 800.00 L 396.27 810.75 C 396.53 822.94 395.21 826.59 389.05 830.75 C 385.78 832.95 385.10 833.00 359.10 832.94 C 344.47 832.90 331.58 832.50 330.45 832.04 Z M 379.00 808.00 L 379.00 800.00 L 359.00 800.00 L 339.00 800.00 L 339.00 808.00 L 339.00 816.00 L 359.00 816.00 L 379.00 816.00 L 379.00 808.00 Z M 685.00 808.00 L 685.00 800.00 L 665.50 800.00 L 646.00 800.00 L 646.00 808.00 L 646.00 816.00 L 665.50 816.00 L 685.00 816.00 L 685.00 808.00 Z M 716.71 776.25 L 716.50 770.50 L 512.25 770.25 L 308.00 770.00 L 308.00 776.00 L 308.00 782.00 L 512.46 782.00 L 716.92 782.00 L 716.71 776.25 Z M 700.00 527.03 L 700.00 302.07 L 703.05 298.60 C 704.92 296.46 708.00 294.50 711.05 293.48 L 716.00 291.84 L 716.00 286.42 L 716.00 281.00 L 702.05 281.00 C 686.89 281.00 680.35 279.99 672.25 276.42 C 666.31 273.80 657.24 265.73 654.47 260.58 L 652.62 257.14 L 638.04 256.82 L 623.46 256.50 L 610.87 246.38 C 595.58 234.09 582.75 226.29 568.23 220.46 C 539.82 209.05 511.35 206.22 483.00 211.99 C 457.17 217.25 437.11 227.15 413.70 246.20 C 408.30 250.59 402.68 254.81 401.20 255.58 C 399.28 256.58 394.70 256.99 385.37 256.99 L 372.23 257.00 L 370.44 259.73 C 367.60 264.07 360.00 271.84 356.46 274.03 C 348.61 278.87 342.24 280.27 325.01 280.90 C 306.71 281.57 307.10 281.38 308.45 288.59 C 308.94 291.21 309.70 292.13 311.79 292.62 C 315.75 293.55 320.56 296.67 322.42 299.52 C 323.92 301.80 324.05 320.74 324.01 527.00 L 323.98 752.00 L 511.99 752.00 L 700.00 752.00 L 700.00 527.03 Z M 342.57 738.05 C 340.95 736.99 339.06 735.08 338.35 733.81 C 337.32 731.95 337.06 688.87 337.04 513.42 L 337.00 295.35 L 339.25 293.25 C 340.63 291.97 344.02 290.72 348.00 290.03 C 357.79 288.33 363.85 284.93 371.30 276.99 L 377.86 270.00 L 389.19 270.00 C 395.42 270.00 401.95 269.59 403.70 269.09 C 405.45 268.58 411.52 264.05 417.19 259.00 C 446.73 232.72 476.50 220.69 512.00 220.69 C 527.14 220.69 539.34 222.59 553.26 227.10 C 574.35 233.95 590.14 243.64 612.52 263.50 L 619.29 269.50 L 632.39 270.00 C 639.60 270.27 646.25 270.95 647.16 271.50 C 648.08 272.05 650.69 274.85 652.97 277.72 C 658.23 284.33 666.63 288.68 676.41 289.85 C 682.13 290.54 683.73 291.15 685.66 293.40 L 688.00 296.11 L 688.00 513.65 C 688.00 713.24 687.86 731.42 686.36 733.96 C 682.51 740.48 696.36 740.00 512.35 739.99 C 349.11 739.99 345.44 739.95 342.57 738.05 Z M 473.76 722.03 L 504.02 722.00 L 503.76 685.75 L 503.50 649.50 L 428.75 649.24 L 354.00 648.99 L 354.00 685.45 L 354.00 721.91 L 360.75 722.20 C 364.46 722.37 384.60 722.40 405.50 722.28 C 426.40 722.16 457.12 722.04 473.76 722.03 Z M 670.76 685.75 L 671.02 649.00 L 596.01 649.00 L 521.00 649.00 L 521.00 685.42 C 521.00 713.61 521.28 721.95 522.25 722.34 C 522.94 722.62 556.58 722.77 597.00 722.67 L 670.50 722.50 L 670.76 685.75 Z M 504.00 586.00 L 504.00 540.00 L 497.50 540.00 L 491.00 540.00 L 491.00 575.25 C 490.99 608.39 490.88 610.69 489.05 613.69 C 485.39 619.69 487.31 619.50 428.82 619.50 C 376.11 619.50 375.10 619.46 372.32 617.43 C 365.93 612.74 366.00 613.36 366.00 561.00 C 366.00 517.78 366.16 513.18 367.75 510.00 C 371.28 502.94 370.80 503.00 424.25 503.00 L 472.00 503.00 L 472.00 496.50 L 472.00 490.00 L 423.90 490.00 C 369.76 490.00 371.76 490.27 367.98 482.46 C 366.09 478.56 366.00 476.16 366.00 431.43 C 366.01 386.12 366.08 384.39 368.03 381.19 C 371.88 374.86 371.46 374.90 429.80 375.22 C 479.65 375.48 482.65 375.60 485.30 377.40 C 490.87 381.17 491.00 382.06 491.00 416.95 L 491.00 449.00 L 495.25 449.01 C 497.59 449.02 500.51 449.30 501.75 449.63 L 504.00 450.23 L 504.00 351.25 C 504.00 252.63 504.01 252.26 506.07 249.63 C 508.95 245.98 514.67 245.96 518.08 249.58 L 520.50 252.16 L 520.76 350.83 L 521.02 449.50 L 527.01 449.16 L 533.00 448.82 L 533.00 416.66 C 533.01 386.17 533.11 384.33 535.03 381.19 C 538.89 374.86 538.41 374.90 597.30 375.22 C 646.20 375.48 650.71 375.64 653.10 377.26 C 654.52 378.23 656.21 380.17 656.85 381.56 C 657.67 383.36 658.00 397.95 658.00 432.10 C 658.00 484.24 658.08 483.43 652.39 487.91 C 649.78 489.96 648.90 490.00 600.87 490.00 L 552.00 490.00 L 552.00 496.50 L 552.00 503.00 L 600.35 503.00 L 648.70 503.00 L 652.09 505.28 C 653.95 506.53 656.03 508.67 656.72 510.03 C 657.67 511.90 657.97 524.18 657.99 560.85 C 658.00 615.67 658.18 614.28 650.52 617.99 C 646.32 620.03 645.14 620.06 593.86 619.78 C 545.27 619.52 541.31 619.37 538.84 617.69 C 533.21 613.87 533.00 612.33 533.00 575.10 L 533.00 541.00 L 530.75 540.99 C 529.51 540.98 526.81 540.70 524.75 540.36 L 521.00 539.74 L 521.00 585.87 L 521.00 632.00 L 596.00 632.00 L 671.00 632.00 L 671.00 469.54 L 671.00 307.08 L 666.75 306.00 C 656.53 303.42 649.57 299.68 643.16 293.30 L 636.81 287.00 L 625.88 287.00 C 618.53 287.00 613.78 286.52 611.43 285.54 C 609.50 284.73 603.71 280.18 598.55 275.42 C 578.50 256.91 562.01 247.40 540.47 241.94 C 498.96 231.41 460.15 242.71 426.09 275.25 C 420.91 280.19 415.19 284.86 413.37 285.62 C 411.21 286.52 406.09 287.00 398.59 287.00 L 387.11 287.00 L 382.03 292.37 C 376.42 298.31 368.53 302.95 359.75 305.48 L 354.00 307.14 L 354.00 469.57 L 354.00 632.00 L 429.00 632.00 L 504.00 632.00 L 504.00 586.00 Z M 474.00 563.93 C 474.00 526.16 473.74 522.86 470.60 520.77 C 470.00 520.36 450.26 520.02 426.75 520.02 L 384.00 520.00 L 384.00 561.00 L 384.00 602.00 L 429.00 602.00 L 474.00 602.00 L 474.00 563.93 Z M 640.76 561.25 L 640.50 520.50 L 597.01 520.50 L 553.52 520.50 L 551.81 524.00 C 550.29 527.10 550.09 531.60 550.05 563.17 C 550.02 582.79 550.27 599.55 550.61 600.42 C 551.15 601.83 556.09 602.00 596.12 602.00 L 641.02 602.00 L 640.76 561.25 Z M 500.17 521.35 C 501.85 519.83 502.00 517.66 501.98 495.10 C 501.98 481.57 501.64 470.00 501.23 469.40 C 500.83 468.79 499.43 467.74 498.13 467.05 C 496.10 465.98 495.37 466.08 493.13 467.76 L 490.50 469.71 L 490.23 494.02 C 489.97 517.85 490.01 518.38 492.16 520.67 C 494.73 523.41 497.62 523.65 500.17 521.35 Z M 532.26 521.25 C 533.55 519.82 533.97 515.30 534.56 496.46 C 535.19 476.04 535.08 473.06 533.61 470.21 C 531.52 466.17 527.33 465.55 523.75 468.75 C 522.17 470.15 522.00 472.73 522.00 494.65 C 522.00 517.67 522.11 519.11 524.00 521.00 C 526.47 523.47 530.17 523.58 532.26 521.25 Z M 472.31 468.25 C 473.79 464.12 474.01 458.93 474.00 428.25 L 474.00 393.00 L 429.00 393.00 L 384.00 393.00 L 384.00 433.00 L 384.00 473.00 L 427.30 473.00 L 470.60 473.00 L 472.31 468.25 Z M 641.00 433.00 L 641.00 393.00 L 595.50 393.00 L 550.00 393.00 L 550.00 427.66 C 550.00 457.36 550.24 463.09 551.68 467.66 L 553.37 473.00 L 597.18 473.00 L 641.00 473.00 L 641.00 433.00 Z M 372.30 708.04 C 366.80 704.69 366.00 701.83 366.00 685.50 C 366.00 674.41 366.36 670.20 367.52 667.97 C 370.65 661.91 369.70 662.00 428.50 662.00 C 487.30 662.00 486.35 661.91 489.48 667.97 C 491.75 672.35 491.66 700.07 489.36 703.96 C 485.70 710.17 487.41 710.00 428.85 710.00 C 377.70 709.99 375.37 709.91 372.30 708.04 Z M 473.50 686.00 L 473.50 679.50 L 428.75 679.24 L 384.00 678.98 L 384.00 686.00 L 384.00 693.02 L 428.75 692.76 L 473.50 692.50 L 473.50 686.00 Z M 537.24 706.58 L 533.50 703.16 L 533.18 687.46 C 532.83 670.49 533.44 667.37 537.77 663.97 C 540.19 662.07 542.09 662.00 594.88 662.00 C 664.05 662.01 658.33 659.77 657.82 686.64 L 657.50 703.16 L 653.76 706.58 L 650.03 710.00 L 595.50 710.00 L 540.97 710.00 L 537.24 706.58 Z M 639.80 692.14 C 640.70 691.57 641.01 689.46 640.80 685.41 L 640.50 679.50 L 595.50 679.50 L 550.50 679.50 L 550.38 685.50 C 550.31 688.80 550.45 691.84 550.68 692.25 C 551.28 693.28 638.18 693.17 639.80 692.14 Z M 370.59 360.89 C 369.08 359.71 367.44 357.65 366.93 356.32 C 365.66 352.96 368.14 347.24 371.18 346.53 C 372.46 346.23 396.00 345.87 423.50 345.74 L 473.50 345.50 L 473.76 310.65 L 474.03 275.79 L 469.26 278.55 C 462.92 282.22 453.65 289.66 447.50 296.00 C 440.79 302.92 431.79 310.01 424.54 314.08 C 419.19 317.08 417.61 317.47 409.04 317.84 C 400.31 318.22 399.23 318.49 396.29 321.06 C 389.05 327.40 378.45 331.83 373.50 330.59 C 369.58 329.61 366.00 325.59 366.00 322.18 C 366.00 317.86 369.20 314.56 375.70 312.18 C 378.89 311.01 383.91 308.06 386.86 305.64 L 392.21 301.22 L 401.89 300.84 C 415.35 300.29 420.08 297.85 433.88 284.29 C 445.93 272.45 458.09 263.82 469.23 259.17 C 479.38 254.95 483.20 255.00 487.60 259.40 L 491.00 262.80 L 491.00 308.91 L 491.00 355.03 L 487.58 358.76 L 484.15 362.50 L 428.74 362.77 L 373.33 363.05 L 370.59 360.89 Z M 539.30 361.04 C 532.94 357.16 533.00 357.68 533.00 309.00 C 533.00 261.31 533.01 261.19 538.41 257.65 C 546.99 252.03 567.88 262.70 590.85 284.44 C 606.15 298.92 608.47 300.16 621.59 300.92 C 631.33 301.48 631.85 301.63 636.09 305.09 C 641.52 309.52 643.81 310.75 650.04 312.60 C 652.73 313.40 655.62 315.04 656.46 316.25 C 658.76 319.53 658.38 324.45 655.59 327.69 C 653.54 330.08 652.44 330.49 648.32 330.43 C 642.47 330.35 634.24 326.77 628.16 321.65 C 624.08 318.23 623.39 318.00 616.94 318.00 C 604.02 318.00 596.53 313.97 579.00 297.60 C 567.76 287.10 554.23 277.00 551.42 277.00 C 550.24 277.00 550.05 282.23 550.26 310.42 C 550.39 328.80 550.88 344.21 551.34 344.67 C 551.80 345.13 574.89 345.50 602.67 345.50 L 653.17 345.50 L 655.58 348.31 C 656.91 349.85 658.00 352.01 658.00 353.11 C 658.00 355.95 655.32 360.76 653.06 361.97 C 651.80 362.64 632.16 363.00 596.82 363.00 C 544.71 362.99 542.37 362.91 539.30 361.04 Z" stroke-linecap="round"/>
</g>
</g>
</g>

  </svg>