<svg xmlns="http://www.w3.org/2000/svg" xmlns:xlink="http://www.w3.org/1999/xlink" width="3467px" height="3109px" viewBox="0 0 3466.6666666666674 3108.229174107284">
    <g id="7bf3a921-186b-4fc1-b785-292cff61a3fe">
<g style="">
		<g id="7bf3a921-186b-4fc1-b785-292cff61a3fe-child-0">
<path style="stroke: rgb(193,193,193); stroke-width: 0; stroke-dasharray: none; stroke-linecap: butt; stroke-dashoffset: 0; stroke-linejoin: miter; stroke-miterlimit: 4; fill: rgb(0,0,0); fill-rule: nonzero; opacity: 1;" transform="matrix(5.977201 0 0 5.977201 1733.333264 1554.114525) matrix(1 0 0 1 0 0)  translate(-511.990794, -505.992929)" d="M 224.22 764.44 L 222.00 762.89 L 222.00 505.48 C 222.00 252.89 222.04 248.05 223.92 247.05 C 225.21 246.35 318.09 246.01 510.67 246.00 C 667.32 245.99 796.26 245.98 797.18 245.99 C 798.10 246.00 799.56 246.71 800.43 247.57 C 801.85 248.99 802.00 273.75 801.98 505.32 C 801.98 646.22 801.64 762.00 801.23 762.60 C 800.83 763.21 799.52 764.22 798.32 764.85 C 796.68 765.71 723.98 766.00 511.29 766.00 C 255.10 766.00 226.22 765.84 224.22 764.44 Z M 789.00 506.00 L 789.00 260.00 L 512.50 260.00 L 236.00 260.00 L 236.00 506.00 L 236.00 752.00 L 512.50 752.00 L 789.00 752.00 L 789.00 506.00 Z M 252.63 735.93 L 250.00 733.85 L 250.00 505.58 L 250.00 277.31 L 252.11 275.40 C 254.16 273.54 260.06 273.49 511.51 273.28 L 768.80 273.06 L 771.40 275.10 L 774.00 277.15 L 774.00 505.50 L 774.00 733.85 L 771.37 735.93 L 768.73 738.00 L 512.00 738.00 L 255.27 738.00 L 252.63 735.93 Z M 398.25 723.01 L 420.00 723.00 L 420.00 705.50 L 420.00 688.00 L 342.00 688.00 L 264.00 688.00 L 264.00 705.49 L 264.00 722.98 L 313.75 723.31 C 341.11 723.49 366.42 723.50 370.00 723.33 C 373.58 723.15 386.29 723.01 398.25 723.01 Z M 589.25 721.66 C 589.66 721.02 589.88 713.30 589.75 704.50 L 589.50 688.50 L 511.75 688.24 L 434.00 687.99 L 434.00 705.47 L 434.00 722.95 L 448.75 723.22 C 456.86 723.38 491.62 723.35 526.00 723.16 C 571.92 722.91 588.69 722.51 589.25 721.66 Z M 722.75 723.00 L 761.00 723.00 L 760.99 707.75 C 760.98 699.36 760.70 691.49 760.37 690.25 L 759.77 688.00 L 681.38 688.00 L 603.00 688.00 L 603.00 705.48 L 603.00 722.97 L 628.25 723.32 C 642.14 723.52 660.47 723.53 669.00 723.34 C 677.53 723.16 701.71 723.01 722.75 723.00 Z M 420.00 655.99 L 420.00 637.99 L 342.25 638.24 L 264.50 638.50 L 264.23 656.25 L 263.95 674.00 L 341.98 674.00 L 420.00 674.00 L 420.00 655.99 Z M 589.50 656.00 L 589.50 638.50 L 511.75 638.24 L 434.00 637.99 L 434.00 656.00 L 434.00 674.01 L 511.75 673.76 L 589.50 673.50 L 589.50 656.00 Z M 760.08 673.59 C 760.31 673.36 760.37 665.26 760.21 655.58 L 759.91 637.99 L 681.71 638.24 L 603.50 638.50 L 603.23 656.25 L 602.95 674.00 L 681.31 674.00 C 724.41 674.00 759.85 673.81 760.08 673.59 Z M 414.25 624.12 L 420.00 624.00 L 420.00 606.50 L 420.00 589.00 L 342.00 589.00 L 264.00 589.00 L 264.00 606.42 C 264.00 619.45 264.31 623.94 265.25 624.27 C 266.29 624.63 396.20 624.51 414.25 624.12 Z M 584.27 623.98 L 590.05 624.00 L 589.77 606.75 L 589.50 589.50 L 511.75 589.24 L 434.00 588.99 L 434.00 606.48 L 434.00 623.97 L 463.75 624.24 C 480.11 624.38 512.62 624.38 536.00 624.23 C 559.38 624.08 581.10 623.97 584.27 623.98 Z M 756.25 624.34 L 760.00 623.74 L 760.00 606.37 L 760.00 589.00 L 681.50 589.00 L 603.00 589.00 L 603.00 606.49 L 603.00 623.98 L 654.25 624.25 C 682.44 624.39 716.08 624.61 729.00 624.73 C 741.92 624.84 754.19 624.67 756.25 624.34 Z M 420.00 450.11 C 420.00 337.14 419.85 325.16 418.42 324.61 C 416.67 323.94 351.58 323.75 350.92 324.42 C 350.69 324.64 350.73 327.91 351.00 331.67 L 351.50 338.50 L 376.99 354.72 C 391.01 363.64 403.05 371.72 403.74 372.66 C 405.58 375.18 405.30 376.79 402.55 379.55 L 400.09 382.00 L 342.60 382.00 L 285.11 382.00 L 282.40 379.67 C 280.21 377.79 279.83 376.82 280.39 374.60 C 281.13 371.62 281.44 371.40 314.68 351.09 C 325.22 344.64 334.59 338.76 335.48 338.02 C 336.71 337.00 337.04 335.26 336.83 330.97 L 336.54 325.28 L 325.52 324.64 C 319.46 324.29 303.14 324.01 289.25 324.00 L 264.00 324.00 L 264.00 449.50 L 264.00 575.00 L 342.00 575.00 L 420.00 575.00 L 420.00 450.11 Z M 589.50 449.50 L 589.50 324.50 L 554.25 324.24 L 519.00 323.97 L 519.00 330.88 L 519.00 337.78 L 529.75 344.77 C 535.66 348.62 545.45 354.81 551.50 358.54 C 572.40 371.42 573.00 371.89 573.00 375.58 C 573.00 382.21 574.97 382.00 511.50 382.00 C 447.51 382.00 449.59 382.23 450.20 375.30 C 450.49 371.86 451.08 371.42 477.75 354.71 L 505.00 337.63 L 505.00 331.45 L 505.00 325.27 L 500.36 324.64 C 497.81 324.29 481.83 324.00 464.86 324.00 L 434.00 324.00 L 434.00 449.51 L 434.00 575.01 L 511.75 574.76 L 589.50 574.50 L 589.50 449.50 Z M 760.08 560.75 C 760.35 513.16 759.76 325.43 759.34 325.01 C 759.06 324.73 743.01 324.50 723.67 324.50 L 688.50 324.50 L 688.20 330.69 C 687.85 338.16 685.08 335.78 718.12 356.39 L 742.50 371.60 L 742.50 375.52 C 742.50 378.70 742.03 379.68 740.00 380.71 C 738.07 381.68 724.40 381.97 680.25 381.99 C 623.78 382.00 622.97 381.97 620.94 379.94 C 619.53 378.53 618.98 376.88 619.19 374.69 C 619.47 371.84 620.53 370.87 629.24 365.50 C 634.60 362.20 646.86 354.62 656.49 348.65 L 674.00 337.80 L 674.00 330.89 L 674.00 323.97 L 638.75 324.24 L 603.50 324.50 L 603.24 448.50 C 603.10 516.70 603.20 573.06 603.46 573.75 C 603.84 574.74 620.46 575.00 681.97 575.00 L 760.00 575.00 L 760.08 560.75 Z M 358.29 359.50 C 350.52 354.83 343.65 351.00 343.02 351.00 C 341.95 351.00 327.75 359.07 318.05 365.19 L 313.61 368.00 L 343.01 368.00 L 372.42 368.00 L 358.29 359.50 Z M 539.92 367.63 C 538.34 366.21 512.30 350.71 511.50 350.71 C 510.52 350.71 485.42 365.47 483.55 367.15 C 483.02 367.62 495.51 368.00 511.47 368.00 C 527.34 368.00 540.15 367.83 539.92 367.63 Z M 705.16 364.72 C 702.22 362.95 695.69 358.86 690.66 355.63 C 681.89 350.00 681.39 349.81 679.00 351.25 C 677.63 352.07 670.89 356.18 664.03 360.37 L 651.57 368.00 L 681.03 367.97 L 710.50 367.93 L 705.16 364.72 Z M 337.00 307.62 C 337.00 304.47 339.43 302.60 343.54 302.60 C 347.31 302.60 351.00 305.35 351.00 308.15 C 351.00 309.91 352.62 310.00 385.25 309.98 L 419.50 309.96 L 421.00 306.73 C 423.93 300.44 433.07 300.83 433.82 307.28 L 434.13 310.00 L 469.57 310.00 C 503.89 310.00 505.00 309.94 505.00 308.07 C 505.00 305.62 509.55 302.00 512.63 302.00 C 515.52 302.00 519.00 305.28 519.00 308.00 C 519.00 309.96 519.67 310.00 554.50 310.00 L 590.00 310.00 L 590.00 307.56 C 590.00 304.79 593.32 302.00 596.61 302.00 C 599.57 302.00 603.05 305.02 603.26 307.75 L 603.43 310.00 L 638.49 310.00 L 673.56 310.00 L 674.69 307.02 C 677.07 300.71 685.19 300.56 687.94 306.77 L 689.37 310.02 L 724.94 309.76 L 760.50 309.50 L 760.78 298.78 C 761.06 288.33 761.01 288.04 758.78 287.50 C 757.53 287.20 645.80 287.08 510.50 287.23 L 264.50 287.50 L 264.22 298.75 L 263.93 310.00 L 300.47 310.00 L 337.00 310.00 L 337.00 307.62 Z M 330.34 711.81 C 326.46 710.80 324.22 706.32 325.98 703.04 C 327.71 699.80 331.10 699.00 343.00 699.00 C 354.90 699.00 358.29 699.80 360.02 703.05 C 361.45 705.71 360.55 709.64 358.24 710.85 C 355.90 712.07 334.24 712.82 330.34 711.81 Z M 500.61 712.13 C 499.01 711.78 496.80 710.28 495.68 708.78 C 493.97 706.49 493.84 705.66 494.81 703.51 C 496.53 699.73 499.41 699.12 513.46 699.51 C 523.77 699.79 526.55 700.19 528.09 701.58 C 530.87 704.10 530.53 708.44 527.37 710.93 C 525.05 712.75 523.45 712.99 514.12 712.88 C 508.28 712.82 502.20 712.48 500.61 712.13 Z M 666.00 710.00 C 663.32 707.32 663.48 704.43 666.45 701.45 C 668.79 699.12 669.49 699.00 681.02 699.00 C 695.88 699.00 698.95 700.21 698.98 706.10 C 699.01 711.21 696.70 712.00 681.67 712.00 C 669.33 712.00 667.80 711.80 666.00 710.00 Z M 327.06 660.34 C 324.68 657.32 325.06 654.46 328.20 651.75 C 329.90 650.28 332.27 650.00 342.98 650.00 C 354.36 650.00 356.01 650.22 358.37 652.07 C 361.53 654.56 361.79 658.21 359.00 661.00 C 357.19 662.81 355.67 663.00 343.07 663.00 C 329.19 663.00 329.14 662.99 327.06 660.34 Z M 496.04 660.81 C 493.34 657.92 493.47 655.44 496.45 652.45 C 498.82 650.09 499.41 650.00 512.45 650.00 C 524.67 650.00 526.20 650.20 528.00 652.00 C 529.10 653.10 530.00 655.12 530.00 656.50 C 530.00 657.88 529.10 659.90 528.00 661.00 C 526.19 662.81 524.67 663.00 512.04 663.00 C 498.96 663.00 497.95 662.86 496.04 660.81 Z M 665.65 661.17 C 663.41 658.69 663.57 654.43 666.00 652.00 C 667.80 650.20 669.33 650.00 681.31 650.00 C 693.33 650.00 694.84 650.20 696.81 652.04 C 699.72 654.75 699.70 659.40 696.78 661.44 C 695.03 662.67 691.64 663.00 680.93 663.00 C 669.01 663.00 667.10 662.77 665.65 661.17 Z M 327.45 611.55 C 324.47 608.56 324.34 606.08 327.04 603.19 C 328.95 601.14 329.97 601.00 342.88 601.00 C 354.78 601.00 356.90 601.24 358.23 602.75 C 361.19 606.13 361.31 608.78 358.61 611.48 C 356.18 613.92 355.65 614.00 343.00 614.00 C 330.43 614.00 329.81 613.90 327.45 611.55 Z M 496.45 611.55 C 493.48 608.57 493.32 605.68 496.00 603.00 C 497.81 601.19 499.33 601.00 512.00 601.00 C 524.67 601.00 526.19 601.19 528.00 603.00 C 530.65 605.65 530.53 609.15 527.69 611.83 C 525.55 613.83 524.35 614.00 512.14 614.00 C 499.43 614.00 498.81 613.90 496.45 611.55 Z M 667.23 613.33 C 666.53 613.05 665.25 611.45 664.38 609.78 C 662.92 606.94 662.94 606.56 664.76 604.12 C 666.68 601.54 666.91 601.50 680.83 601.22 C 693.88 600.97 695.10 601.10 696.97 602.97 C 699.79 605.79 699.54 609.43 696.37 611.93 C 694.00 613.79 692.43 613.99 681.12 613.92 C 674.18 613.88 667.93 613.61 667.23 613.33 Z" stroke-linecap="round"/>
</g>
</g>
</g>

  </svg>