<svg xmlns="http://www.w3.org/2000/svg" xmlns:xlink="http://www.w3.org/1999/xlink" width="3314px" height="3467px" viewBox="0 0 3314.051714305202 3466.6666666666642">
    <g id="fe01f589-4a6d-4602-915e-42d77d2b9244">
<g style="">
		<g id="fe01f589-4a6d-4602-915e-42d77d2b9244-child-0">
<path style="stroke: rgb(193,193,193); stroke-width: 0; stroke-dasharray: none; stroke-linecap: butt; stroke-dashoffset: 0; stroke-linejoin: miter; stroke-miterlimit: 4; fill: rgb(0,0,0); fill-rule: nonzero; opacity: 1;" transform="matrix(4.988562 0 0 4.988562 1657.025696 1733.333166) matrix(1 0 0 1 0 0)  translate(-512.165, -511.538514)" d="M 182.07 856.37 C 180.93 854.92 180.00 852.95 180.00 852.00 C 180.00 851.05 180.93 849.08 182.07 847.63 L 184.15 845.00 L 209.07 845.00 C 232.67 845.00 234.11 845.11 236.00 847.00 C 238.57 849.57 238.56 854.03 235.96 856.81 C 233.97 858.95 233.35 859.00 209.03 859.00 L 184.15 859.00 L 182.07 856.37 Z M 254.00 857.00 C 252.77 855.77 252.00 853.67 252.00 851.56 C 252.00 844.61 246.44 845.00 345.22 845.00 L 434.00 845.00 L 434.00 829.00 C 434.00 814.33 434.17 812.83 436.00 811.00 C 437.90 809.10 439.33 809.00 465.00 809.00 L 492.00 809.00 L 492.00 555.50 L 492.00 302.00 L 447.43 302.00 L 402.86 302.00 L 403.18 304.11 C 403.44 305.85 406.99 307.57 423.72 314.05 C 451.81 324.92 456.88 327.44 458.46 331.34 C 459.16 333.08 460.24 339.67 460.87 346.00 C 461.93 356.67 464.48 381.66 474.94 484.00 C 477.17 505.73 479.24 525.12 479.55 527.10 C 480.02 530.03 479.63 531.28 477.47 533.85 C 475.01 536.78 474.38 537.00 468.41 537.00 C 464.89 537.00 462.01 537.34 462.01 537.75 C 462.02 538.16 463.36 550.42 465.00 565.00 C 466.64 579.58 467.98 592.08 467.99 592.80 C 467.99 593.51 466.90 595.20 465.55 596.55 L 463.09 599.00 L 395.50 599.00 L 327.91 599.00 L 325.45 596.55 C 322.41 593.50 322.41 593.62 325.50 564.81 C 326.87 551.99 328.00 540.49 328.00 539.25 C 328.00 537.19 327.54 537.00 322.45 537.00 C 317.90 537.00 316.47 536.56 314.45 534.55 C 313.10 533.20 312.00 531.28 312.01 530.30 C 312.01 529.31 316.69 484.28 322.40 430.23 C 329.60 362.08 333.20 331.46 334.14 330.31 C 335.94 328.13 345.63 323.69 367.53 315.05 C 388.84 306.64 388.23 306.95 388.63 304.33 C 388.90 302.57 388.27 302.17 384.33 301.63 C 381.80 301.28 378.27 301.00 376.50 301.00 C 374.31 301.00 372.39 300.11 370.53 298.25 C 368.08 295.81 367.84 294.99 368.34 290.75 C 368.77 287.13 368.58 286.00 367.54 286.00 C 365.65 286.00 361.00 280.26 361.00 277.92 C 361.00 274.84 364.59 272.00 368.48 272.00 C 371.51 272.00 372.21 271.50 373.94 268.13 C 377.84 260.46 387.33 254.69 396.00 254.68 C 401.76 254.68 406.29 256.44 411.33 260.64 L 414.15 263.00 L 452.33 262.97 L 490.50 262.94 L 487.00 259.82 C 480.45 253.98 446.60 222.55 430.30 207.19 C 417.19 194.82 413.94 191.22 413.43 188.50 C 412.63 184.20 413.42 183.09 424.55 173.06 C 433.71 164.80 436.31 163.36 440.25 164.35 C 441.49 164.67 453.24 175.18 466.37 187.71 C 479.49 200.25 490.63 210.65 491.12 210.83 C 491.61 211.02 492.00 202.15 492.00 190.77 C 492.00 174.76 492.30 169.97 493.42 168.44 C 494.67 166.72 496.49 166.44 509.67 165.97 C 520.09 165.61 525.47 165.81 527.75 166.67 C 529.54 167.35 531.09 168.03 531.20 168.20 C 531.31 168.36 531.65 178.22 531.95 190.11 L 532.50 211.71 L 557.78 187.86 C 588.06 159.29 585.76 160.25 597.69 171.10 C 610.07 182.36 611.00 183.54 611.00 187.85 C 611.00 192.07 610.26 192.83 571.00 228.71 C 561.92 237.00 550.00 248.13 544.50 253.44 L 534.50 263.10 L 591.40 262.64 C 628.87 262.34 649.07 262.53 650.55 263.20 C 654.61 265.05 655.17 267.70 654.83 283.25 C 654.53 296.64 654.32 298.04 652.32 300.17 C 650.94 301.64 649.87 304.47 649.43 307.80 C 648.49 314.88 645.55 318.96 639.19 322.00 C 634.28 324.34 633.97 324.71 634.23 327.84 L 634.50 331.18 L 657.50 340.43 C 688.45 352.89 689.13 353.28 690.38 359.50 C 691.13 363.23 698.00 428.34 706.03 507.84 C 711.71 564.16 712.01 568.34 710.51 570.63 C 708.42 573.81 705.15 575.00 698.50 575.00 L 693.13 575.00 L 693.57 578.25 C 695.03 588.97 699.00 627.37 699.00 630.78 C 699.00 633.99 698.44 635.29 696.37 636.93 C 693.76 638.98 692.99 639.00 627.43 639.00 C 586.56 639.00 560.14 638.62 558.55 638.02 C 553.55 636.12 553.41 634.16 556.38 606.72 C 557.88 592.85 559.36 580.04 559.67 578.25 L 560.22 575.00 L 553.57 575.00 C 547.83 575.00 546.57 574.66 544.45 572.55 C 541.66 569.75 541.44 567.01 542.98 554.47 C 543.53 550.09 546.68 521.08 549.99 490.00 C 562.55 372.12 564.14 358.57 565.68 356.16 C 567.47 353.34 573.94 350.24 600.40 339.54 L 620.50 331.40 L 621.00 322.98 C 621.46 315.23 621.70 314.45 624.00 313.29 C 625.38 312.60 627.87 312.02 629.55 312.01 C 633.48 312.00 635.00 310.40 635.00 306.30 L 635.00 303.00 L 626.02 303.00 L 617.04 303.00 L 615.06 306.87 C 613.12 310.69 607.77 316.00 605.87 316.00 C 603.92 316.00 599.22 313.03 598.60 311.39 C 598.24 310.46 598.85 307.97 599.96 305.85 L 601.97 302.00 L 566.98 302.00 L 532.00 302.00 L 532.00 555.50 L 532.00 809.00 L 559.43 809.00 L 586.85 809.00 L 588.93 811.63 C 590.82 814.04 591.00 815.60 591.00 829.63 L 591.00 845.00 L 679.33 845.00 L 767.65 845.00 L 769.83 847.31 C 772.65 850.32 772.59 854.10 769.69 856.83 L 767.37 859.00 L 511.69 859.00 C 257.33 859.00 255.99 858.99 254.00 857.00 Z M 576.00 834.00 L 576.00 823.00 L 512.00 823.00 L 448.00 823.00 L 448.00 834.00 L 448.00 845.00 L 512.00 845.00 L 576.00 845.00 L 576.00 834.00 Z M 518.00 494.59 L 518.00 180.18 L 512.00 179.84 L 506.00 179.50 L 506.00 494.25 L 506.00 809.00 L 512.00 809.00 L 518.00 809.00 L 518.00 494.59 Z M 621.00 504.12 L 621.00 383.24 L 614.75 381.65 C 611.31 380.78 601.53 377.41 593.00 374.16 C 584.47 370.91 577.39 368.34 577.25 368.46 C 576.80 368.84 572.30 409.21 564.53 482.50 C 560.39 521.55 556.74 555.19 556.42 557.25 L 555.82 561.00 L 567.80 561.00 L 579.77 561.00 L 580.37 556.75 C 580.69 554.41 583.89 525.72 587.48 493.00 C 591.06 460.27 594.35 432.16 594.78 430.52 C 596.32 424.68 604.18 423.29 607.45 428.28 C 608.76 430.29 608.66 432.60 606.52 449.52 C 604.00 469.51 597.27 527.42 594.34 554.50 C 592.18 574.34 591.75 575.00 581.06 575.00 C 572.71 575.00 573.84 572.30 571.04 599.00 C 569.91 609.72 568.75 619.96 568.45 621.75 L 567.91 625.00 L 594.45 625.00 L 621.00 625.00 L 621.00 504.12 Z M 684.50 621.25 C 683.76 615.91 680.00 578.67 680.00 576.67 C 680.00 575.29 678.93 575.00 673.95 575.00 C 667.42 575.00 662.47 573.10 661.61 570.26 C 661.31 569.29 659.47 554.33 657.51 537.00 C 651.92 487.56 647.99 453.46 646.51 441.50 C 645.34 432.10 645.34 430.18 646.54 428.33 C 649.19 424.23 655.90 424.07 658.03 428.05 C 658.62 429.16 662.22 457.30 666.03 490.59 C 669.83 523.87 673.24 553.33 673.60 556.05 L 674.26 561.00 L 686.07 561.00 L 697.87 561.00 L 697.42 557.75 C 697.17 555.96 695.38 538.75 693.44 519.50 C 684.85 434.08 678.04 368.70 677.68 368.35 C 677.47 368.13 669.46 370.94 659.90 374.59 C 650.33 378.24 640.78 381.74 638.68 382.36 C 636.57 382.99 634.88 383.84 634.93 384.25 C 634.97 384.66 635.00 439.00 635.00 505.00 L 635.00 625.00 L 660.01 625.00 L 685.02 625.00 L 684.50 621.25 Z M 388.98 471.75 L 388.96 358.50 L 376.73 354.37 C 370.00 352.09 360.34 348.75 355.25 346.94 C 350.17 345.14 345.80 343.87 345.54 344.12 C 345.29 344.38 343.50 359.65 341.58 378.05 C 329.38 494.58 327.00 517.87 327.00 520.53 L 327.00 523.50 L 338.46 523.19 L 349.93 522.88 L 350.47 519.69 C 350.77 517.94 353.27 495.58 356.03 470.00 C 364.00 396.02 363.75 397.93 365.62 395.87 C 369.57 391.51 377.44 395.06 377.20 401.10 C 377.08 404.39 367.61 491.51 364.40 519.00 C 362.39 536.15 361.72 537.00 350.13 537.00 L 342.38 537.00 L 340.15 557.25 C 338.93 568.39 337.68 579.19 337.37 581.25 L 336.82 585.00 L 362.91 585.00 L 389.00 585.00 L 388.98 471.75 Z M 452.89 578.75 C 452.47 575.31 451.39 565.53 450.49 557.00 C 448.18 535.12 449.08 537.00 440.81 537.00 C 434.54 537.00 433.57 536.73 431.08 534.24 C 428.60 531.75 428.25 530.54 427.62 521.99 C 426.78 510.78 417.53 424.94 415.60 410.50 C 414.84 404.79 414.62 399.56 415.09 398.31 C 416.74 393.88 423.38 392.55 426.52 396.03 C 428.46 398.17 428.45 398.05 437.53 484.50 C 439.50 503.20 441.32 519.51 441.57 520.75 C 442.02 522.93 442.42 523.00 453.52 523.00 C 459.83 523.00 465.00 522.68 465.00 522.30 C 465.00 518.33 447.29 345.46 446.72 343.90 C 446.60 343.56 439.30 345.95 430.50 349.19 C 421.70 352.44 411.91 355.82 408.75 356.71 L 403.00 358.33 L 403.00 471.66 L 403.00 585.00 L 428.33 585.00 L 453.66 585.00 L 452.89 578.75 Z M 647.94 364.73 C 654.23 362.54 660.76 360.16 662.44 359.45 L 665.50 358.16 L 663.00 357.17 C 661.62 356.63 653.14 353.24 644.14 349.64 L 627.78 343.10 L 610.14 350.14 C 600.44 354.02 591.89 357.53 591.14 357.94 C 589.51 358.85 614.09 367.71 621.52 368.89 C 629.09 370.10 635.39 369.10 647.94 364.73 Z M 418.75 338.80 C 427.14 335.96 434.00 333.33 434.00 332.96 C 434.00 332.59 425.79 329.25 415.75 325.52 C 398.69 319.20 397.24 318.83 393.45 319.82 C 388.73 321.06 357.71 333.07 358.18 333.47 C 359.27 334.41 382.55 342.42 387.50 343.56 C 395.97 345.50 401.38 344.68 418.75 338.80 Z M 492.00 282.50 L 492.00 277.00 L 455.20 277.00 L 418.41 277.00 L 418.17 280.75 C 418.04 282.81 417.70 285.29 417.40 286.25 C 416.90 287.90 419.12 288.00 454.43 288.00 L 492.00 288.00 L 492.00 282.50 Z M 610.98 285.53 C 616.68 279.45 626.85 278.56 636.05 283.33 L 641.00 285.90 L 641.00 281.45 L 641.00 277.00 L 586.50 277.00 L 532.00 277.00 L 532.00 282.50 L 532.00 288.00 L 570.33 288.00 L 608.65 288.00 L 610.98 285.53 Z M 402.66 283.59 C 405.37 277.91 404.27 277.00 394.69 277.00 L 386.32 277.00 L 385.09 280.75 C 384.42 282.81 383.64 285.06 383.35 285.75 C 382.96 286.70 385.04 287.00 391.93 287.00 L 401.03 287.00 L 402.66 283.59 Z M 484.19 223.00 C 479.81 218.88 467.63 207.48 457.13 197.68 L 438.04 179.85 L 434.04 183.18 C 431.84 185.00 430.03 186.98 430.02 187.57 C 430.01 188.16 437.31 195.41 446.25 203.68 C 455.19 211.96 469.02 224.84 477.00 232.33 L 491.50 245.93 L 491.82 238.21 L 492.15 230.50 L 484.19 223.00 Z M 586.27 195.57 L 595.03 187.64 L 592.27 184.74 C 586.65 178.84 587.65 178.32 567.22 197.71 C 556.91 207.49 544.77 218.92 540.24 223.10 L 532.00 230.69 L 532.00 238.41 L 532.00 246.13 L 554.75 224.81 C 567.26 213.09 581.45 199.93 586.27 195.57 Z M 788.00 857.00 C 785.20 854.20 785.32 848.59 788.22 846.56 C 790.09 845.25 794.45 845.00 815.57 845.00 C 839.47 845.00 840.78 845.10 842.51 847.01 C 843.51 848.12 844.33 850.36 844.33 852.00 C 844.33 853.64 843.51 855.88 842.51 856.99 C 840.78 858.90 839.47 859.00 815.35 859.00 C 791.33 859.00 789.89 858.89 788.00 857.00 Z" stroke-linecap="round"/>
</g>
</g>
</g>

  </svg>