<svg xmlns="http://www.w3.org/2000/svg" xmlns:xlink="http://www.w3.org/1999/xlink" width="487px" height="500px" viewBox="0 0 486.669780249687 500">
    <g id="08a2ee8a-af1e-4fb3-8865-73d16c8887ad">
<g style="">
		<g id="08a2ee8a-af1e-4fb3-8865-73d16c8887ad-child-0">
<path style="stroke: rgb(193,193,193); stroke-width: 0; stroke-dasharray: none; stroke-linecap: butt; stroke-dashoffset: 0; stroke-linejoin: miter; stroke-miterlimit: 4; fill: rgb(0,0,0); fill-rule: nonzero; opacity: 1;" transform="matrix(1.096548 0 0 1.096548 243.33483 249.999938) matrix(1 0 0 1 0 0)  translate(-512.090124, -537.98186)" d="M 394.00 764.88 C 390.77 763.59 387.18 760.21 385.40 756.80 C 383.47 753.07 383.58 738.77 385.61 731.93 C 388.84 721.03 396.49 711.92 407.12 706.34 L 412.50 703.51 L 442.05 703.01 C 474.71 702.45 474.95 702.40 479.05 695.70 C 480.96 692.58 481.00 690.36 480.76 606.42 L 480.50 520.34 L 477.87 516.89 C 474.59 512.60 471.78 511.16 455.50 505.47 C 429.78 496.48 398.93 479.34 377.50 462.15 C 366.73 453.51 350.45 437.59 340.87 426.33 C 324.88 407.54 307.24 377.30 298.61 353.89 C 290.01 330.55 288.29 320.44 292.09 315.61 C 296.84 309.58 280.27 310.00 513.07 310.00 L 726.24 310.00 L 730.12 313.88 C 733.48 317.24 734.00 318.37 734.00 322.27 C 734.00 331.27 725.48 356.09 715.52 376.11 C 702.39 402.51 688.77 421.36 667.55 442.50 C 651.66 458.34 638.62 468.91 621.87 479.54 C 603.14 491.41 579.67 502.32 559.84 508.37 C 552.72 510.54 550.62 511.68 547.65 514.97 C 545.67 517.16 543.70 520.20 543.28 521.72 C 542.85 523.25 542.50 562.38 542.50 608.68 C 542.50 692.14 542.52 692.88 544.56 695.62 C 545.70 697.13 547.87 699.30 549.38 700.44 C 551.98 702.38 553.83 702.53 581.35 703.00 L 610.55 703.50 L 617.13 706.74 C 625.33 710.78 632.08 717.82 636.31 726.78 C 639.29 733.08 639.49 734.20 639.50 744.67 C 639.50 757.37 638.53 759.66 631.41 763.73 L 627.50 765.97 L 512.00 765.92 C 437.71 765.89 395.61 765.52 394.00 764.88 Z M 618.49 741.75 C 618.13 740.51 617.60 738.60 617.30 737.50 C 616.37 734.00 612.01 729.04 608.19 727.13 C 604.96 725.51 601.06 725.20 576.98 724.71 C 551.75 724.19 548.97 723.96 543.48 721.91 C 535.25 718.84 526.19 709.80 523.14 701.64 L 520.95 695.79 L 521.22 606.14 L 521.50 516.50 L 524.16 510.82 C 527.31 504.11 533.75 496.81 539.52 493.43 C 541.80 492.10 549.25 489.03 556.08 486.61 C 574.14 480.21 577.99 478.58 592.18 471.37 C 629.46 452.41 660.83 424.18 683.38 389.29 C 692.04 375.90 705.58 346.52 708.53 334.75 L 709.22 332.00 L 511.63 332.00 L 314.04 332.00 L 317.51 341.59 C 342.90 411.73 395.12 461.84 469.00 486.95 C 488.44 493.55 497.77 501.95 501.57 516.24 C 503.71 524.27 503.67 692.39 501.52 699.61 C 498.57 709.54 490.47 718.09 480.16 722.15 C 474.90 724.22 472.61 724.40 447.50 724.72 C 432.65 724.90 419.50 725.28 418.27 725.54 C 415.42 726.16 409.30 731.52 407.57 734.90 C 406.84 736.33 405.93 738.96 405.54 740.75 L 404.84 744.00 L 511.99 744.00 L 619.13 744.00 L 618.49 741.75 Z M 496.50 464.01 C 443.93 458.35 396.19 426.01 374.89 381.63 C 368.01 367.29 368.69 359.22 377.24 353.99 C 380.46 352.02 382.18 352.00 513.18 352.25 L 645.87 352.50 L 648.91 355.41 C 655.23 361.47 655.26 367.31 649.03 380.66 C 629.71 422.02 586.23 454.33 539.03 462.40 C 527.35 464.39 507.17 465.16 496.50 464.01 Z M 538.37 439.91 C 551.38 437.28 558.23 434.92 571.55 428.50 C 591.65 418.80 610.06 402.89 621.79 385.07 C 625.21 379.89 628.00 375.33 628.00 374.94 C 628.00 374.56 622.94 373.97 616.75 373.63 C 601.08 372.78 395.00 373.18 395.00 374.06 C 395.00 376.17 407.71 393.61 414.47 400.79 C 445.70 433.93 493.47 449.01 538.37 439.91 Z" stroke-linecap="round"/>
</g>
</g>
</g>

  </svg>