<svg xmlns="http://www.w3.org/2000/svg" xmlns:xlink="http://www.w3.org/1999/xlink" width="500px" height="218px" viewBox="0 0 500 218.47909675772365">
    <g id="35a4d65e-3f8d-47e6-943c-a2ba2a4c78f2">
<g style="">
		<g id="35a4d65e-3f8d-47e6-943c-a2ba2a4c78f2-child-0">
<path style="stroke: rgb(193,193,193); stroke-width: 0; stroke-dasharray: none; stroke-linecap: butt; stroke-dashoffset: 0; stroke-linejoin: miter; stroke-miterlimit: 4; fill: rgb(0,0,0); fill-rule: nonzero; opacity: 1;" transform="matrix(0.731012 0 0 0.731012 250.000068 109.239578) matrix(1 0 0 1 0 0)  translate(-512.019502, -521.555469)" d="M 196.66 670.06 L 174.82 669.50 L 172.41 666.69 C 168.38 662.01 169.61 654.84 174.99 651.67 C 178.99 649.30 222.50 649.17 227.02 651.51 C 230.65 653.39 232.00 655.82 232.00 660.51 C 232.00 664.56 227.62 669.99 224.33 670.01 C 223.32 670.02 221.60 670.16 220.50 670.32 C 219.40 670.48 208.67 670.36 196.66 670.06 Z M 260.59 670.22 C 256.62 669.70 253.20 667.29 251.35 663.72 C 249.24 659.62 249.40 652.16 253.52 565.50 C 255.44 525.35 257.00 489.72 257.00 486.32 L 257.00 480.14 L 251.25 478.99 C 227.32 474.21 210.15 464.96 204.63 453.88 C 202.03 448.67 202.00 448.34 202.02 427.05 C 202.04 408.23 202.28 404.98 203.90 401.42 C 211.04 385.70 238.72 375.88 284.10 372.98 C 296.29 372.20 367.76 371.97 523.00 372.21 C 768.17 372.59 755.94 372.27 782.87 379.04 C 803.68 384.26 818.13 393.60 820.91 403.62 C 821.52 405.80 821.99 416.26 821.98 427.50 C 821.98 446.37 821.85 447.78 819.64 452.50 C 816.67 458.86 810.04 464.95 801.30 469.35 C 794.74 472.65 781.41 477.12 774.00 478.50 C 766.06 479.98 766.66 478.41 767.38 495.86 C 767.74 504.46 769.16 538.50 770.53 571.50 C 771.90 604.50 773.13 638.62 773.26 647.31 L 773.50 663.13 L 769.86 666.48 C 765.23 670.73 760.04 671.47 739.70 670.75 C 715.82 669.90 716.53 671.13 715.53 628.77 C 715.13 611.57 714.59 597.16 714.34 596.75 C 714.09 596.34 622.85 596.00 511.58 596.00 L 309.29 596.00 L 308.65 605.75 C 308.31 611.11 307.72 625.54 307.35 637.81 C 306.63 662.05 306.11 664.44 300.68 668.43 C 298.09 670.33 296.43 670.50 280.68 670.55 C 271.23 670.58 262.19 670.43 260.59 670.22 Z M 287.33 632.25 C 287.69 622.49 289.12 585.51 290.52 550.08 C 291.92 514.65 292.71 485.34 292.28 484.95 C 291.85 484.56 288.46 484.01 284.74 483.74 C 278.44 483.26 277.95 483.37 277.55 485.36 C 277.31 486.54 276.84 495.60 276.51 505.50 C 276.18 515.40 274.58 551.62 272.96 586.00 C 271.34 620.38 270.01 648.84 270.01 649.25 C 270.00 649.66 273.75 650.00 278.34 650.00 L 286.68 650.00 L 287.33 632.25 Z M 753.31 644.75 C 753.01 640.34 749.79 562.17 747.34 499.70 L 746.68 482.89 L 738.59 483.57 C 734.14 483.95 730.44 484.31 730.36 484.38 C 730.29 484.45 731.28 512.17 732.56 546.00 C 733.85 579.83 735.21 617.06 735.60 628.75 L 736.31 650.00 L 744.98 650.00 L 753.66 650.00 L 753.31 644.75 Z M 713.99 572.75 C 713.99 571.51 713.70 568.14 713.35 565.25 L 712.72 560.00 L 511.36 560.00 L 310.00 560.00 L 310.00 567.50 L 310.00 575.00 L 512.00 575.00 L 714.00 575.00 L 713.99 572.75 Z M 711.57 517.75 C 711.22 506.06 710.68 493.91 710.37 490.75 L 709.80 485.00 L 511.51 485.00 L 313.22 485.00 L 312.59 504.75 C 312.24 515.61 311.71 527.76 311.40 531.75 L 310.83 539.00 L 511.52 539.00 L 712.21 539.00 L 711.57 517.75 Z M 739.00 462.93 C 765.45 460.47 788.14 454.82 796.22 448.67 C 800.06 445.75 800.53 444.93 800.80 440.71 C 800.97 438.12 800.87 436.00 800.58 436.00 C 800.28 436.00 796.77 437.09 792.77 438.42 C 783.50 441.51 773.34 443.58 756.72 445.76 C 744.50 447.37 726.01 447.50 512.00 447.50 C 295.41 447.50 279.57 447.38 266.00 445.71 C 249.75 443.70 238.74 441.33 228.75 437.70 L 222.00 435.25 L 222.00 439.49 C 222.00 442.78 222.62 444.34 224.74 446.47 C 232.00 453.73 251.33 459.40 279.12 462.43 C 295.19 464.18 720.52 464.64 739.00 462.93 Z M 735.50 426.96 C 763.92 425.26 784.89 421.42 794.44 416.18 C 800.77 412.71 802.01 410.77 799.59 408.10 C 796.93 405.16 784.89 400.48 774.00 398.16 C 751.62 393.39 757.66 393.50 510.50 393.50 C 294.98 393.50 276.60 393.63 265.49 395.23 C 238.06 399.18 220.19 406.25 223.62 411.79 C 227.81 418.55 254.57 425.06 285.89 426.94 C 305.66 428.13 715.67 428.15 735.50 426.96 Z M 558.16 670.04 L 534.82 669.50 L 532.41 666.69 C 529.01 662.74 529.20 657.93 532.92 653.77 L 535.83 650.50 L 561.47 650.20 L 587.10 649.90 L 590.55 653.35 C 594.56 657.36 594.99 660.87 592.05 665.69 C 590.74 667.83 588.86 669.22 586.30 669.93 C 584.21 670.51 582.28 670.90 582.00 670.78 C 581.72 670.67 571.00 670.33 558.16 670.04 Z M 332.64 667.36 C 329.79 664.52 329.04 658.67 331.03 654.94 C 333.41 650.50 336.50 650.00 361.50 650.00 C 387.98 650.00 390.03 650.43 392.60 656.57 C 394.43 660.96 393.56 664.35 389.81 667.50 L 386.85 670.00 L 361.06 670.00 L 335.27 670.00 L 332.64 667.36 Z M 433.75 668.92 C 428.55 665.89 427.93 657.30 432.59 652.91 C 435.14 650.52 435.33 650.50 459.75 650.20 C 485.65 649.88 488.68 650.28 491.54 654.36 C 494.07 657.97 493.40 663.75 490.08 667.08 L 487.15 670.00 L 461.33 669.97 C 445.65 669.95 434.81 669.54 433.75 668.92 Z M 634.75 668.92 C 629.55 665.89 628.93 657.30 633.59 652.91 C 636.14 650.52 636.33 650.50 660.75 650.20 C 686.65 649.88 689.68 650.28 692.54 654.36 C 695.07 657.97 694.40 663.75 691.08 667.08 L 688.15 670.00 L 662.33 669.97 C 646.65 669.95 635.81 669.54 634.75 668.92 Z M 794.64 667.36 C 789.94 662.67 791.52 654.27 797.68 651.12 C 799.11 650.39 807.94 650.00 823.03 650.00 C 842.84 650.00 846.60 650.24 849.01 651.67 C 854.72 655.04 855.72 662.44 851.08 667.08 L 848.15 670.00 L 822.71 670.00 L 797.27 670.00 L 794.64 667.36 Z M 333.78 520.44 C 330.38 518.60 329.00 516.10 329.00 511.79 C 329.00 507.70 331.01 504.65 334.71 503.13 C 336.79 502.27 382.49 502.04 513.17 502.24 L 688.84 502.50 L 691.37 504.88 C 694.72 508.02 695.53 512.08 693.57 515.87 C 690.13 522.52 705.59 522.00 512.03 521.96 C 359.07 521.93 336.15 521.73 333.78 520.44 Z" stroke-linecap="round"/>
</g>
</g>
</g>

  </svg>