<svg xmlns="http://www.w3.org/2000/svg" xmlns:xlink="http://www.w3.org/1999/xlink" width="340px" height="500px" viewBox="0 0 340.0437088055797 500">
    <g id="e324be95-e13f-4210-bd6b-c3b53036a954">
<g style="">
		<g id="e324be95-e13f-4210-bd6b-c3b53036a954-child-0">
<path style="stroke: rgb(193,193,193); stroke-width: 0; stroke-dasharray: none; stroke-linecap: butt; stroke-dashoffset: 0; stroke-linejoin: miter; stroke-miterlimit: 4; fill: rgb(0,0,0); fill-rule: nonzero; opacity: 1;" transform="matrix(0.87184 0 0 0.87184 170.021936 250.00012) matrix(1 0 0 1 0 0)  translate(-512.120601, -512.25)" d="M 398.42 797.11 C 392.06 793.24 392.00 792.77 391.99 745.35 L 391.98 702.50 L 382.74 692.95 C 355.65 664.95 339.51 633.50 332.81 595.61 C 330.81 584.30 330.47 583.41 325.88 577.34 C 318.24 567.25 316.75 560.92 317.17 540.29 C 317.48 524.34 317.64 523.20 320.30 517.50 C 321.85 514.20 325.10 508.97 327.53 505.87 L 331.94 500.24 L 332.23 404.37 C 332.52 309.33 332.54 308.43 334.70 300.82 C 345.21 263.79 371.70 237.07 407.50 227.39 C 414.14 225.60 419.48 225.50 512.00 225.50 L 609.50 225.50 L 618.00 227.79 C 629.73 230.96 644.99 238.66 654.34 246.14 C 669.87 258.56 683.81 280.11 689.16 300.00 L 691.45 308.50 L 691.76 404.56 L 692.07 500.63 L 696.14 505.54 C 705.20 516.51 707.26 523.58 707.13 543.33 C 707.00 563.07 705.82 567.30 697.35 578.22 C 693.38 583.35 692.76 584.87 691.48 592.83 C 684.92 633.34 667.45 667.58 639.09 695.47 L 632.00 702.45 L 632.00 744.76 C 632.00 791.13 631.98 791.32 626.06 796.30 L 622.85 799.00 L 512.17 799.00 C 405.66 798.99 401.38 798.92 398.42 797.11 Z M 607.00 748.00 C 607.00 733.70 606.78 722.00 606.51 722.00 C 606.24 722.00 600.05 724.89 592.76 728.43 C 539.32 754.35 482.61 754.16 430.25 727.89 L 417.00 721.24 L 417.00 747.62 L 417.00 774.00 L 512.00 774.00 L 607.00 774.00 L 607.00 748.00 Z M 526.00 721.98 C 579.94 716.39 626.37 685.23 650.43 638.47 C 657.84 624.08 665.96 599.95 665.99 592.25 L 666.00 590.00 L 511.60 590.00 L 357.20 590.00 L 359.02 598.34 C 363.10 617.02 372.18 638.04 383.14 654.23 C 391.38 666.39 411.54 686.57 423.63 694.76 C 446.11 709.99 470.05 718.84 497.00 721.89 C 507.59 723.09 515.07 723.11 526.00 721.98 Z M 675.90 563.74 C 680.57 561.33 682.29 557.67 682.79 549.04 L 683.26 541.00 L 512.63 541.00 L 342.00 541.00 L 342.00 548.55 C 342.00 556.69 343.44 560.79 347.22 563.44 C 349.21 564.84 366.25 565.00 511.47 564.99 C 638.08 564.97 674.03 564.70 675.90 563.74 Z M 665.25 511.63 C 654.91 502.33 641.35 495.29 629.50 493.04 C 625.17 492.22 591.44 491.98 508.50 492.20 L 393.50 492.50 L 386.49 495.07 C 377.35 498.41 366.51 504.79 360.39 510.43 L 355.50 514.92 L 512.25 514.96 L 669.01 515.00 L 665.25 511.63 Z M 379.91 471.10 C 383.44 469.95 389.06 468.53 392.41 467.96 C 396.47 467.27 437.72 467.01 516.00 467.21 L 633.50 467.50 L 642.28 470.25 C 647.11 471.77 654.67 474.82 659.08 477.04 L 667.09 481.07 L 666.75 396.79 C 666.44 318.67 666.28 312.02 664.58 306.00 C 658.10 283.08 643.56 265.69 622.73 255.97 C 609.85 249.96 610.57 250.00 511.68 250.02 C 411.03 250.04 413.76 249.87 399.50 256.92 C 380.16 266.49 365.82 284.10 359.75 305.71 C 357.60 313.37 357.56 314.81 357.23 394.00 C 357.04 438.27 357.15 475.94 357.48 477.70 L 358.07 480.90 L 365.79 477.05 C 370.03 474.94 376.39 472.26 379.91 471.10 Z" stroke-linecap="round"/>
</g>
</g>
</g>

  </svg>