<svg xmlns="http://www.w3.org/2000/svg" xmlns:xlink="http://www.w3.org/1999/xlink" width="500px" height="450px" viewBox="0 0 500 449.7468861135528">
    <g id="9aa919ba-5aec-4dde-9333-fe3cb54ec1a8">
<g style="">
		<g id="9aa919ba-5aec-4dde-9333-fe3cb54ec1a8-child-0">
<path style="stroke: rgb(193,193,193); stroke-width: 0; stroke-dasharray: none; stroke-linecap: butt; stroke-dashoffset: 0; stroke-linejoin: miter; stroke-miterlimit: 4; fill: rgb(0,0,0); fill-rule: nonzero; opacity: 1;" transform="matrix(0.888834 0 0 0.888834 249.999994 224.873438) matrix(1 0 0 1 0 0)  translate(-511.58613, -511.99176)" d="M 401.50 762.65 C 395.91 760.04 389.56 753.59 387.34 748.27 C 385.41 743.66 385.48 733.47 387.46 728.73 C 389.58 723.69 395.43 717.35 400.43 714.69 C 403.97 712.81 406.46 712.49 419.69 712.18 L 434.87 711.82 L 441.72 690.66 L 448.56 669.50 L 359.03 668.98 C 269.59 668.46 269.49 668.46 262.85 666.22 C 248.79 661.48 237.84 650.37 232.95 635.86 L 230.81 629.50 L 230.41 473.00 C 230.18 386.23 230.40 311.22 230.90 304.65 C 231.70 293.95 232.15 292.09 235.48 285.34 C 239.73 276.75 247.08 268.85 254.62 264.78 C 266.06 258.60 248.43 259.00 512.00 259.00 C 777.06 259.00 758.23 258.55 769.75 265.15 C 777.73 269.71 784.34 276.88 788.69 285.68 L 792.50 293.40 L 792.78 460.95 C 792.99 581.21 792.76 629.77 791.96 633.00 C 788.25 648.05 776.57 660.55 760.95 666.17 C 754.53 668.47 754.25 668.49 704.90 668.49 C 650.88 668.50 651.37 668.55 648.41 662.84 C 646.26 658.66 646.71 655.36 649.92 651.77 L 652.83 648.50 L 703.67 648.00 C 761.07 647.44 758.21 647.83 766.04 639.34 C 772.00 632.87 772.88 629.96 773.64 614.07 L 774.31 600.00 L 512.65 600.00 L 251.00 600.00 L 251.01 613.75 C 251.02 626.05 251.27 628.03 253.35 632.50 C 255.77 637.69 262.13 644.21 266.80 646.29 C 268.86 647.21 311.73 647.62 447.67 648.00 L 625.84 648.50 L 628.33 650.84 C 631.51 653.83 632.38 657.32 630.99 661.52 C 628.81 668.13 627.35 668.47 600.00 668.75 C 586.53 668.88 575.44 668.99 575.37 669.00 C 575.30 669.00 578.30 678.56 582.03 690.25 L 588.82 711.50 L 604.16 712.00 C 619.05 712.49 619.66 712.59 624.97 715.60 C 642.59 725.59 642.92 750.80 625.58 761.47 L 620.66 764.50 L 513.58 764.75 L 406.50 764.99 L 401.50 762.65 Z M 616.17 743.35 C 618.25 741.47 618.62 736.02 616.80 734.20 C 615.88 733.28 591.21 733.00 511.84 733.00 C 410.27 733.00 408.05 733.04 407.04 734.93 C 405.45 737.90 405.80 740.80 408.00 743.00 C 409.97 744.97 411.33 745.00 512.17 745.00 C 605.84 745.00 614.49 744.86 616.17 743.35 Z M 566.74 710.75 C 566.48 710.06 563.47 700.72 560.04 690.00 C 556.62 679.28 553.52 670.20 553.16 669.82 C 552.80 669.45 534.07 669.03 511.55 668.89 L 470.60 668.63 L 463.86 689.56 C 460.16 701.08 457.10 710.84 457.06 711.25 C 457.03 711.66 481.80 712.00 512.11 712.00 C 555.78 712.00 567.12 711.74 566.74 710.75 Z M 773.77 439.75 L 773.50 300.50 L 770.50 294.50 C 768.55 290.61 765.99 287.37 763.21 285.28 C 754.22 278.53 773.24 279.00 511.50 279.00 C 303.95 279.00 273.73 279.19 269.33 280.50 C 262.57 282.50 255.88 288.53 253.01 295.19 L 250.75 300.46 L 250.54 439.73 L 250.33 579.00 L 512.18 579.00 L 774.03 579.00 L 773.77 439.75 Z M 493.50 633.84 C 487.34 630.45 486.16 623.10 490.92 617.77 L 493.83 614.50 L 510.67 614.22 C 526.13 613.96 527.77 614.10 530.77 615.97 C 536.91 619.78 537.70 626.50 532.60 631.60 L 529.20 635.00 L 512.35 634.97 C 502.03 634.95 494.72 634.51 493.50 633.84 Z M 276.89 564.62 C 271.18 562.58 267.34 559.34 265.07 554.65 L 262.98 550.32 L 263.24 428.25 L 263.50 306.17 L 266.51 301.89 C 268.33 299.30 271.48 296.60 274.48 295.05 L 279.45 292.50 L 512.55 292.50 L 745.66 292.50 L 750.58 295.50 C 754.27 297.76 756.18 299.86 758.25 303.93 L 761.00 309.36 L 761.00 429.56 C 761.00 559.86 761.28 553.17 755.59 559.31 C 754.17 560.84 751.09 562.96 748.75 564.03 C 744.59 565.92 739.63 565.96 512.50 565.93 C 325.47 565.92 279.80 565.66 276.89 564.62 Z M 741.00 429.50 L 741.00 313.00 L 512.00 313.00 L 283.00 313.00 L 283.00 429.50 L 283.00 546.00 L 512.00 546.00 L 741.00 546.00 L 741.00 429.50 Z" stroke-linecap="round"/>
</g>
</g>
</g>

  </svg>