<svg xmlns="http://www.w3.org/2000/svg" xmlns:xlink="http://www.w3.org/1999/xlink" width="500px" height="342px" viewBox="0 0 499.9999999999998 342.3235338688751">
    <g id="c74936f5-a63e-421e-8398-65d2ee1ffc05">
<g style="">
		<g id="c74936f5-a63e-421e-8398-65d2ee1ffc05-child-0">
<path style="stroke: rgb(193,193,193); stroke-width: 0; stroke-dasharray: none; stroke-linecap: butt; stroke-dashoffset: 0; stroke-linejoin: miter; stroke-miterlimit: 4; fill: rgb(0,0,0); fill-rule: nonzero; opacity: 1;" transform="matrix(0.614285 0 0 0.614285 249.999826 171.161648) matrix(1 0 0 1 0 0)  translate(-512.023066, -512.265435)" d="M 147.26 790.35 C 142.02 789.22 140.19 781.05 144.31 777.17 C 146.12 775.48 147.86 775.00 152.24 775.00 C 157.11 775.00 158.13 775.35 159.93 777.63 C 164.47 783.41 161.42 789.99 153.96 790.51 C 151.51 790.69 148.49 790.61 147.26 790.35 Z M 864.68 788.86 C 860.93 785.56 860.27 781.20 862.99 777.73 C 864.94 775.27 865.77 775.00 871.52 775.00 C 876.97 775.00 878.11 775.32 879.44 777.22 C 881.67 780.40 881.44 786.29 879.01 788.49 C 877.91 789.49 874.87 790.50 872.19 790.76 C 868.15 791.14 866.93 790.83 864.68 788.86 Z M 106.56 787.78 C 104.37 784.66 104.59 779.41 107.00 777.00 C 108.54 775.46 110.33 775.00 114.85 775.00 C 121.75 775.00 124.40 777.08 124.40 782.50 C 124.40 788.04 121.79 790.00 114.40 790.00 C 109.04 790.00 107.88 789.67 106.56 787.78 Z M 181.17 787.69 C 178.29 784.61 178.35 779.96 181.31 777.17 C 183.53 775.09 184.48 775.00 203.31 775.00 L 223.00 775.00 L 223.00 703.00 L 223.00 631.00 L 215.11 631.00 C 203.01 631.00 202.62 630.49 202.00 613.84 L 201.50 600.50 L 191.66 600.00 C 177.74 599.29 178.00 599.72 178.00 577.50 C 178.00 561.98 178.19 559.98 179.91 557.86 L 181.82 555.50 L 248.66 555.00 L 315.50 554.50 L 316.00 512.50 C 316.49 471.74 316.57 470.31 318.82 464.07 C 325.82 444.67 338.04 430.24 354.66 421.75 C 359.24 419.41 362.99 417.27 362.99 417.00 C 362.99 416.73 360.53 415.21 357.52 413.64 C 350.55 410.00 339.37 398.27 335.76 390.82 C 325.04 368.70 329.22 343.41 346.39 326.50 C 357.48 315.58 370.75 309.98 385.46 310.01 C 409.42 310.07 430.41 324.59 438.89 346.98 C 442.37 356.19 442.51 373.48 439.18 382.84 C 434.45 396.10 423.67 409.09 412.83 414.59 L 407.93 417.07 L 416.88 421.55 C 423.07 424.64 428.13 428.18 433.30 433.01 L 440.78 439.99 L 441.28 418.74 C 441.82 395.85 442.61 391.23 448.07 379.19 C 454.74 364.47 466.41 352.44 481.24 345.01 L 488.97 341.13 L 483.03 337.52 C 466.04 327.20 456.00 309.65 456.00 290.28 C 456.00 267.35 467.17 249.24 487.54 239.16 C 496.32 234.80 501.42 233.65 512.00 233.63 C 528.13 233.60 540.74 238.77 552.09 250.06 C 562.79 260.70 567.97 273.40 567.99 289.04 C 568.01 305.31 563.07 316.97 551.03 329.08 C 546.89 333.24 541.60 337.52 539.28 338.58 C 536.95 339.63 535.05 340.73 535.05 341.00 C 535.05 341.27 537.86 342.75 541.29 344.28 C 555.48 350.61 567.96 362.93 574.96 377.50 C 580.96 389.98 582.04 395.80 582.70 419.17 L 583.29 439.83 L 587.90 435.14 C 594.33 428.57 598.83 425.34 607.53 421.05 L 615.07 417.33 L 608.90 413.52 C 600.93 408.60 592.06 399.46 588.21 392.22 C 576.99 371.10 581.05 344.01 598.00 327.00 C 620.49 304.44 655.52 304.42 678.03 326.96 C 704.06 353.03 697.83 395.54 665.17 414.74 L 660.84 417.29 L 669.57 421.89 C 684.24 429.63 696.26 442.47 702.91 457.50 C 707.57 468.01 707.97 472.25 708.00 511.00 C 708.01 531.08 708.30 549.19 708.64 551.25 L 709.26 555.00 L 775.18 555.00 L 841.10 555.00 L 843.55 557.65 C 845.94 560.23 846.00 560.67 846.00 576.71 C 846.00 599.17 845.53 599.92 831.25 599.97 L 822.00 600.00 L 822.00 613.05 C 822.00 625.87 821.95 626.14 819.35 628.55 C 817.01 630.72 815.81 631.00 808.85 631.00 L 800.99 631.00 L 801.24 702.75 L 801.50 774.50 L 821.33 775.00 C 839.49 775.46 841.29 775.66 842.58 777.44 C 844.77 780.44 844.35 785.33 841.69 787.83 L 839.37 790.00 L 511.36 790.00 L 183.35 790.00 L 181.17 787.69 Z M 253.76 702.75 L 254.01 631.00 L 246.01 631.00 L 238.00 631.00 L 238.00 702.33 C 238.00 741.57 238.32 773.98 238.71 774.37 C 239.09 774.76 242.58 774.95 246.46 774.79 L 253.50 774.50 L 253.76 702.75 Z M 348.76 702.75 L 349.01 631.00 L 309.62 631.00 L 270.22 631.00 L 269.72 633.25 C 268.94 636.75 268.77 769.24 269.54 772.30 L 270.22 775.02 L 309.36 774.76 L 348.50 774.50 L 348.76 702.75 Z M 403.76 702.75 L 404.01 631.00 L 384.51 631.00 L 365.00 631.00 L 365.00 703.02 L 365.00 775.04 L 384.25 774.77 L 403.50 774.50 L 403.76 702.75 Z M 479.76 702.75 L 480.01 631.00 L 450.01 631.00 L 420.00 631.00 L 420.00 703.01 L 420.00 775.03 L 449.75 774.76 L 479.50 774.50 L 479.76 702.75 Z M 528.80 708.00 C 528.96 671.42 528.81 639.14 528.47 636.25 L 527.86 631.00 L 511.93 631.00 L 496.00 631.00 L 496.00 703.02 L 496.00 775.05 L 512.25 774.77 L 528.50 774.50 L 528.80 708.00 Z M 604.00 703.00 L 604.00 631.00 L 574.00 631.00 L 544.00 631.00 L 544.00 702.33 C 544.00 741.57 544.30 773.97 544.67 774.33 C 545.03 774.70 558.53 775.00 574.67 775.00 L 604.00 775.00 L 604.00 703.00 Z M 659.00 702.90 L 659.00 631.00 L 639.50 631.00 L 620.00 631.00 L 620.00 702.33 C 620.00 741.57 620.26 773.93 620.58 774.24 C 620.89 774.56 629.67 774.81 640.08 774.80 L 659.00 774.79 L 659.00 702.90 Z M 754.76 702.75 L 755.01 631.00 L 715.01 631.00 L 675.00 631.00 L 675.00 703.01 L 675.00 775.02 L 714.75 774.76 L 754.50 774.50 L 754.76 702.75 Z M 785.76 702.75 L 786.01 631.00 L 778.01 631.00 L 770.00 631.00 L 770.00 702.33 C 770.00 741.57 770.32 773.98 770.71 774.37 C 771.09 774.76 774.58 774.95 778.46 774.79 L 785.50 774.50 L 785.76 702.75 Z M 806.17 608.07 C 806.49 601.36 806.42 601.12 804.00 600.61 C 802.62 600.33 670.10 600.19 509.50 600.30 L 217.50 600.50 L 217.21 607.75 L 216.91 615.00 L 511.37 615.00 L 805.84 615.00 L 806.17 608.07 Z M 518.15 584.00 L 830.00 584.00 L 830.00 577.50 L 830.00 571.00 L 512.00 571.00 L 194.00 571.00 L 194.00 578.14 L 194.00 585.28 L 200.15 584.64 C 203.53 584.29 346.63 584.00 518.15 584.00 Z M 441.10 551.75 C 441.16 549.96 441.13 532.53 441.04 513.00 C 440.90 484.99 440.55 476.23 439.35 471.50 C 434.67 453.02 418.08 436.56 398.99 431.49 C 391.90 429.60 379.96 429.60 372.69 431.49 C 356.01 435.84 342.10 448.52 335.25 465.62 L 332.50 472.50 L 332.20 513.75 L 331.90 555.00 L 386.45 555.00 L 441.00 555.00 L 441.10 551.75 Z M 566.50 478.00 C 566.49 408.09 566.34 400.95 564.74 395.12 C 559.31 375.45 544.40 360.46 525.30 355.49 C 518.73 353.78 505.57 353.57 499.03 355.08 C 487.14 357.82 473.33 367.79 466.35 378.67 C 464.53 381.52 461.79 387.37 460.27 391.67 L 457.50 399.50 L 457.21 475.92 C 457.05 517.95 457.15 552.94 457.43 553.68 C 457.85 554.78 467.65 554.97 512.22 554.76 L 566.50 554.50 L 566.50 478.00 Z M 692.76 519.52 C 693.07 478.77 692.34 471.93 686.40 460.23 C 680.20 448.03 668.31 437.50 655.46 432.83 C 646.51 429.59 632.15 429.15 623.30 431.85 C 604.38 437.64 588.62 454.21 584.18 473.00 C 583.39 476.34 582.30 547.24 582.93 554.26 C 582.97 554.68 607.64 554.90 637.75 554.76 L 692.50 554.50 L 692.76 519.52 Z M 394.36 404.51 C 406.99 401.84 416.01 394.81 421.76 383.18 C 425.37 375.86 425.50 375.22 425.49 365.05 C 425.49 355.51 425.22 353.95 422.66 348.73 C 418.74 340.72 411.48 333.60 403.28 329.71 C 396.99 326.73 395.74 326.50 386.00 326.50 C 376.67 326.50 374.85 326.80 369.72 329.21 C 362.18 332.74 353.09 341.48 349.41 348.75 C 346.72 354.07 346.50 355.33 346.50 365.52 C 346.50 375.94 346.68 376.89 349.78 383.20 C 355.14 394.10 365.42 401.90 378.00 404.64 C 385.29 406.22 386.33 406.21 394.36 404.51 Z M 645.11 404.99 C 666.48 401.01 681.39 380.60 678.06 359.90 C 675.94 346.70 667.47 335.49 655.28 329.71 C 648.98 326.73 647.75 326.50 637.95 326.50 C 627.93 326.50 627.06 326.67 620.70 329.90 C 596.18 342.35 589.81 372.72 607.68 392.02 C 615.30 400.25 626.30 405.44 637.11 405.89 C 638.55 405.95 642.15 405.55 645.11 404.99 Z M 526.65 326.84 C 536.88 323.05 545.92 313.94 550.15 303.15 C 553.25 295.22 553.19 282.83 549.99 274.50 C 546.73 266.01 535.90 255.20 527.50 252.08 C 502.36 242.71 476.78 257.17 471.92 283.50 C 469.70 295.49 474.65 309.66 484.16 318.56 C 495.36 329.03 511.98 332.27 526.65 326.84 Z M 900.56 787.78 C 898.41 784.71 898.61 780.77 901.07 777.63 C 902.89 775.32 903.87 775.00 909.00 775.00 C 914.13 775.00 915.11 775.32 916.93 777.63 C 918.07 779.08 919.00 781.27 919.00 782.50 C 919.00 783.73 918.07 785.92 916.93 787.37 C 915.08 789.72 914.18 790.00 908.48 790.00 C 903.03 790.00 901.89 789.68 900.56 787.78 Z" stroke-linecap="round"/>
</g>
</g>
</g>

  </svg>