<svg xmlns="http://www.w3.org/2000/svg" xmlns:xlink="http://www.w3.org/1999/xlink" width="2100px" height="1316px" viewBox="0 0 2099.815193933743 1315.569421450873">
    <g id="ad2e144a-df78-4bff-a772-008c83648a21">
<g style="">
		<g id="ad2e144a-df78-4bff-a772-008c83648a21-child-0">
<path style="stroke: rgb(193,193,193); stroke-width: 0; stroke-dasharray: none; stroke-linecap: butt; stroke-dashoffset: 0; stroke-linejoin: miter; stroke-miterlimit: 4; fill: rgb(0,0,0); fill-rule: nonzero; opacity: 1;" transform="matrix(3.052633 0 0 3.052633 1049.907629 657.78473) matrix(1 0 0 1 0 0)  translate(-511.935098, -511.481105)" d="M 172.78 725.44 C 169.28 723.54 168.00 721.09 168.00 716.25 C 168.00 713.23 168.68 711.73 171.06 709.44 L 174.13 706.50 L 204.83 706.21 L 235.53 705.92 L 238.79 694.21 C 240.59 687.77 246.32 667.25 251.53 648.60 C 256.74 629.96 261.00 614.10 261.00 613.35 C 261.00 612.28 258.14 612.00 247.25 612.00 C 231.04 611.99 228.17 610.90 224.90 603.51 C 223.00 599.21 222.95 596.74 223.22 523.11 C 223.50 447.67 223.51 447.13 225.60 444.32 C 230.03 438.39 232.99 437.53 250.25 437.16 L 266.00 436.82 L 266.00 406.45 L 266.00 376.07 L 268.91 372.78 C 270.51 370.98 276.57 365.90 282.38 361.50 L 292.94 353.50 L 292.97 334.75 C 292.99 319.83 292.73 316.00 291.67 316.00 C 290.95 316.00 289.26 314.84 287.92 313.42 C 286.10 311.48 285.50 309.73 285.50 306.34 C 285.50 302.52 285.99 301.39 288.77 298.92 L 292.03 296.00 L 320.41 296.00 L 348.79 296.00 L 351.89 298.90 C 357.19 303.85 355.82 312.55 349.23 315.93 C 346.97 317.08 346.96 317.25 347.23 335.21 L 347.50 353.33 L 359.99 362.96 C 366.86 368.25 373.04 373.69 373.73 375.04 C 374.63 376.84 374.97 385.54 374.99 407.25 L 375.00 437.00 L 380.89 437.00 L 386.78 437.00 L 387.19 426.25 C 387.67 413.75 389.22 409.82 396.22 403.36 C 404.65 395.59 405.28 395.50 450.00 395.50 C 489.26 395.50 489.53 395.51 494.14 397.81 C 499.78 400.62 505.47 406.11 508.30 411.50 C 509.95 414.64 510.49 417.82 510.81 426.25 C 511.08 433.33 511.61 437.02 512.36 437.07 C 512.99 437.11 575.60 437.22 651.50 437.32 C 788.34 437.50 789.53 437.52 792.96 439.54 C 794.87 440.65 797.35 443.13 798.46 445.04 C 800.46 448.43 800.51 450.12 800.77 524.00 L 801.04 599.50 L 798.77 603.93 C 795.20 610.88 792.09 612.00 776.27 612.00 C 764.28 612.00 763.00 612.17 763.04 613.75 C 763.07 614.71 768.63 635.75 775.40 660.50 L 787.72 705.50 L 818.94 706.00 L 850.17 706.50 L 853.08 709.77 C 857.70 714.94 856.40 723.13 850.53 725.81 C 848.51 726.72 770.31 726.99 511.70 726.96 C 216.95 726.92 175.16 726.74 172.78 725.44 Z M 284.15 683.50 C 302.38 638.89 313.00 612.70 313.00 612.35 C 313.00 612.16 306.50 612.00 298.56 612.00 L 284.12 612.00 L 281.62 620.25 C 278.60 630.19 258.00 704.46 258.00 705.41 C 258.00 705.78 261.86 705.95 266.58 705.79 L 275.16 705.50 L 284.15 683.50 Z M 725.00 705.18 C 725.00 703.98 690.65 619.21 688.36 614.75 L 686.95 612.00 L 511.69 612.00 L 336.44 612.00 L 330.77 625.75 C 321.35 648.58 298.80 703.41 298.28 704.75 C 297.89 705.75 340.91 706.00 511.39 706.00 C 628.88 706.00 725.00 705.63 725.00 705.18 Z M 765.97 705.75 C 765.96 705.61 760.18 684.58 753.13 659.00 L 740.31 612.50 L 725.53 612.22 C 711.77 611.96 710.79 612.07 711.27 613.72 C 711.55 614.70 719.54 634.62 729.03 658.00 C 738.51 681.38 746.76 701.74 747.36 703.25 C 748.42 705.96 748.57 706.00 757.22 706.00 C 762.05 706.00 765.99 705.89 765.97 705.75 Z M 779.76 524.75 L 779.50 458.50 L 511.75 458.25 L 244.00 458.00 L 244.00 524.50 L 244.00 591.00 L 512.01 591.00 L 780.01 591.00 L 779.76 524.75 Z M 351.75 437.15 C 353.94 437.00 354.00 436.71 354.00 425.50 L 354.00 414.00 L 320.00 414.00 L 286.00 414.00 L 286.00 425.44 L 286.00 436.88 L 289.75 437.19 C 293.40 437.49 347.26 437.46 351.75 437.15 Z M 453.12 437.00 L 490.00 437.00 L 490.00 428.95 C 490.00 421.75 489.74 420.65 487.55 418.45 L 485.09 416.00 L 449.10 416.00 L 413.11 416.00 L 410.37 418.36 C 407.78 420.59 407.63 421.16 407.78 428.53 C 407.96 437.12 408.74 438.38 413.38 437.53 C 414.96 437.24 432.84 437.00 453.12 437.00 Z M 353.61 392.63 C 353.66 392.56 353.99 391.04 354.33 389.26 C 354.93 386.10 354.68 385.82 343.22 377.14 C 325.38 363.61 327.08 367.47 326.77 339.96 L 326.50 316.50 L 320.25 316.20 L 314.00 315.90 L 313.99 336.70 C 313.99 348.14 313.53 359.17 312.96 361.21 C 312.11 364.27 309.68 366.75 298.96 375.49 C 287.10 385.17 286.00 386.35 286.00 389.37 C 286.00 391.18 286.23 392.89 286.51 393.17 C 286.92 393.59 353.26 393.05 353.61 392.63 Z M 410.11 374.44 C 404.17 369.44 405.47 360.37 412.53 357.42 C 417.49 355.35 477.50 355.35 482.45 357.42 C 486.59 359.14 488.00 361.59 488.00 367.01 C 488.00 370.26 487.37 371.79 485.08 374.08 L 482.15 377.00 L 447.65 377.00 L 413.15 377.00 L 410.11 374.44 Z M 271.50 567.61 C 265.30 564.91 265.50 566.34 265.54 524.22 L 265.58 485.76 L 268.35 483.38 L 271.11 481.00 L 511.62 481.00 C 681.99 481.00 752.72 481.32 754.15 482.08 C 758.62 484.47 759.00 487.76 759.00 524.50 C 759.00 563.44 758.77 564.94 752.57 567.54 C 749.52 568.81 717.91 568.99 511.78 568.96 C 318.64 568.93 273.94 568.68 271.50 567.61 Z M 501.56 546.90 C 501.93 546.30 501.91 535.72 501.51 523.40 L 500.78 500.99 L 393.64 501.25 L 286.50 501.50 L 286.23 524.75 L 285.96 548.00 L 393.42 548.00 C 470.33 548.00 501.07 547.69 501.56 546.90 Z M 737.77 524.75 L 737.50 501.50 L 630.25 501.25 L 523.00 500.99 L 523.00 524.50 L 523.00 548.00 L 630.52 548.00 L 738.04 548.00 L 737.77 524.75 Z" stroke-linecap="round"/>
</g>
</g>
</g>

  </svg>