<svg xmlns="http://www.w3.org/2000/svg" xmlns:xlink="http://www.w3.org/1999/xlink" width="500px" height="491px" viewBox="0 0 500.0000000000002 491.32234358533924">
    <g id="6d4af104-9916-43ce-9b96-6056b558e93d">
<g style="">
		<g id="6d4af104-9916-43ce-9b96-6056b558e93d-child-0">
<path style="stroke: rgb(193,193,193); stroke-width: 0; stroke-dasharray: none; stroke-linecap: butt; stroke-dashoffset: 0; stroke-linejoin: miter; stroke-miterlimit: 4; fill: rgb(0,0,0); fill-rule: nonzero; opacity: 1;" transform="matrix(1.051775 0 0 1.051775 250.000017 245.661189) matrix(1 0 0 1 0 0)  translate(-511.817323, -512.068195)" d="M 328.76 744.98 C 306.84 741.24 286.70 724.76 278.98 704.24 C 273.80 690.47 273.95 696.69 274.24 508.00 C 274.49 343.84 274.62 332.11 276.27 326.50 C 282.83 304.15 299.57 287.06 321.50 280.34 C 327.23 278.58 335.69 278.50 511.50 278.50 C 664.17 278.50 696.44 278.73 701.00 279.87 C 717.27 283.94 735.09 298.24 742.34 313.05 C 750.10 328.92 749.50 312.37 749.50 511.50 C 749.50 680.46 749.41 689.83 747.68 696.00 C 741.06 719.70 724.79 736.61 701.66 743.84 C 697.00 745.30 678.91 745.47 515.00 745.62 C 415.17 745.71 331.37 745.42 328.76 744.98 Z M 698.19 722.02 C 710.52 718.22 719.94 709.18 725.23 696.10 L 727.50 690.50 L 727.50 548.00 L 727.50 405.50 L 511.74 405.25 L 295.97 405.00 L 296.24 548.30 L 296.50 691.60 L 300.19 699.05 C 306.03 710.84 314.53 718.44 326.00 722.13 C 331.17 723.79 342.23 723.90 511.64 723.95 C 688.36 724.00 691.91 723.96 698.19 722.02 Z M 728.00 371.50 L 728.00 359.00 L 512.00 359.00 L 296.00 359.00 L 296.00 371.50 L 296.00 384.00 L 512.00 384.00 L 728.00 384.00 L 728.00 371.50 Z M 727.50 333.75 C 726.25 327.63 721.13 318.05 716.41 313.00 C 713.34 309.73 709.03 306.64 704.14 304.23 L 696.60 300.50 L 514.09 300.24 C 312.73 299.95 326.17 299.55 315.83 306.14 C 310.16 309.74 303.83 316.44 301.18 321.65 C 299.62 324.71 296.00 335.22 296.00 336.68 C 296.00 336.86 393.24 337.00 512.08 337.00 L 728.16 337.00 L 727.50 333.75 Z M 349.26 648.98 C 346.54 647.88 343.01 642.36 343.00 639.20 C 343.00 637.94 343.68 635.58 344.52 633.97 C 347.82 627.58 336.09 628.00 512.00 628.00 C 652.08 628.00 672.46 628.19 674.99 629.49 C 681.67 632.95 683.09 640.63 678.08 646.23 L 675.16 649.50 L 513.33 649.69 C 418.36 649.80 350.57 649.51 349.26 648.98 Z M 346.40 596.60 C 340.82 591.02 342.02 583.11 349.01 579.49 C 351.54 578.19 371.86 578.00 511.48 578.00 C 683.59 578.00 675.62 577.76 679.37 583.12 C 681.29 585.86 681.48 590.85 679.81 594.53 C 677.16 600.33 687.23 600.00 511.45 600.00 L 349.80 600.00 L 346.40 596.60 Z M 347.11 548.44 C 341.03 543.32 342.33 533.43 349.48 530.44 C 354.79 528.23 670.70 528.27 674.99 530.49 C 680.61 533.40 682.56 539.48 679.81 545.53 C 677.16 551.33 687.22 551.00 511.63 551.00 L 350.15 551.00 L 347.11 548.44 Z M 363.59 499.57 C 356.00 496.39 351.42 492.67 346.77 485.92 C 339.67 475.60 338.39 463.07 343.14 450.36 C 346.15 442.28 355.22 433.21 363.50 429.99 C 371.62 426.82 389.68 426.03 399.05 428.43 C 427.45 435.71 436.98 470.86 416.18 491.66 C 413.61 494.23 409.03 497.50 406.00 498.92 C 400.94 501.29 399.27 501.52 385.00 501.77 C 370.44 502.03 369.14 501.89 363.59 499.57 Z M 398.66 478.40 C 403.94 474.46 405.50 471.34 405.50 464.68 C 405.50 457.46 403.14 453.24 397.62 450.62 C 392.66 448.27 374.80 448.35 370.02 450.75 C 364.62 453.46 362.00 458.18 362.00 465.19 C 362.00 470.62 362.29 471.39 365.77 475.12 C 370.41 480.09 373.66 480.97 386.22 480.67 C 394.19 480.47 396.44 480.07 398.66 478.40 Z M 455.11 499.60 C 451.99 497.87 450.08 494.32 450.04 490.15 C 450.01 487.65 450.86 485.94 453.40 483.40 L 456.80 480.00 L 512.27 480.00 C 566.36 480.00 567.79 480.05 570.29 482.02 C 573.37 484.44 575.33 489.82 574.44 493.40 C 574.08 494.83 572.45 497.13 570.81 498.50 L 567.85 501.00 L 512.67 500.96 C 468.80 500.94 457.01 500.66 455.11 499.60 Z M 603.12 499.37 C 601.84 498.47 600.14 496.18 599.35 494.28 C 597.55 489.98 598.91 485.00 602.71 482.02 C 605.16 480.08 606.70 480.00 639.20 480.00 C 662.22 480.00 673.83 480.36 675.32 481.12 C 679.09 483.04 680.95 486.25 680.98 490.83 C 681.00 494.29 680.42 495.74 678.08 498.08 L 675.15 501.00 L 640.30 501.00 C 609.69 501.00 605.16 500.80 603.12 499.37 Z" stroke-linecap="round"/>
</g>
</g>
</g>

  </svg>