<svg xmlns="http://www.w3.org/2000/svg" xmlns:xlink="http://www.w3.org/1999/xlink" width="500px" height="373px" viewBox="0 0 500 373.37021043819595">
    <g id="33ba5507-98a2-4678-982f-854bec0e5403">
<g style="">
		<g id="33ba5507-98a2-4678-982f-854bec0e5403-child-0">
<path style="stroke: rgb(193,193,193); stroke-width: 0; stroke-dasharray: none; stroke-linecap: butt; stroke-dashoffset: 0; stroke-linejoin: miter; stroke-miterlimit: 4; fill: rgb(0,0,0); fill-rule: nonzero; opacity: 1;" transform="matrix(0.781347 0 0 0.781347 250.000101 186.68518) matrix(1 0 0 1 0 0)  translate(-511.955025, -510.927366)" d="M 198.40 748.10 C 191.57 743.94 192.00 755.57 192.00 576.30 C 192.00 415.38 192.01 414.61 194.05 410.40 C 195.18 408.07 197.10 405.51 198.32 404.71 C 199.54 403.91 209.53 399.42 220.52 394.73 C 250.44 381.97 367.74 331.99 442.55 300.13 C 488.35 280.63 509.72 272.00 512.23 272.00 C 514.64 272.00 526.00 276.32 546.17 284.91 C 562.85 292.01 594.72 305.57 617.00 315.04 C 656.71 331.91 697.72 349.41 783.32 386.00 C 821.48 402.32 826.42 404.69 828.82 407.82 L 831.50 411.34 L 831.78 574.42 C 832.08 755.48 832.49 743.90 825.63 748.08 C 820.25 751.36 815.97 750.48 797.04 742.16 C 782.33 735.71 779.21 733.96 777.29 731.10 L 775.00 727.70 L 775.00 607.24 C 775.00 492.97 774.91 486.79 773.25 487.29 C 772.29 487.59 757.33 493.97 740.00 501.49 C 697.75 519.82 698.05 519.71 693.32 518.34 C 691.22 517.73 658.22 503.76 620.00 487.30 C 517.24 443.06 514.02 441.75 510.58 442.43 C 508.96 442.76 491.18 450.05 471.07 458.63 C 409.10 485.07 350.97 510.05 340.74 514.63 C 335.38 517.03 329.67 519.00 328.05 519.00 C 326.44 519.00 308.38 511.80 287.94 503.00 C 267.49 494.20 250.37 487.00 249.88 487.00 C 249.38 487.00 249.00 538.60 249.00 607.25 C 248.99 724.56 248.94 727.58 247.05 730.69 C 244.70 734.53 244.56 734.61 224.51 743.17 C 207.39 750.48 203.51 751.22 198.40 748.10 Z M 228.00 597.92 L 228.00 477.23 L 221.49 474.46 C 217.91 472.94 214.64 472.02 214.24 472.43 C 213.45 473.22 212.65 721.65 213.43 723.68 C 213.75 724.52 216.01 723.94 220.95 721.75 L 228.00 718.61 L 228.00 597.92 Z M 811.00 598.50 C 811.00 515.73 810.66 472.00 810.01 472.00 C 809.47 472.00 806.09 473.17 802.51 474.61 L 796.00 477.21 L 796.00 597.95 L 796.00 718.69 L 802.75 721.83 C 806.46 723.57 809.84 724.99 810.25 724.99 C 810.66 725.00 811.00 668.08 811.00 598.50 Z M 747.50 475.49 C 767.85 466.84 790.46 457.28 797.75 454.26 L 811.00 448.77 L 811.00 440.89 C 811.00 436.55 810.80 433.00 810.54 433.00 C 810.04 433.00 761.16 453.66 727.75 467.99 L 706.00 477.33 L 706.00 485.14 C 706.00 492.83 706.04 492.94 708.25 492.09 C 709.49 491.62 727.15 484.15 747.50 475.49 Z M 318.00 484.66 C 318.00 477.63 317.89 477.27 315.25 476.06 C 306.49 472.02 215.00 433.00 214.32 433.01 C 213.87 433.01 213.50 436.42 213.50 440.59 L 213.50 448.16 L 246.00 461.96 C 263.88 469.55 286.83 479.38 297.00 483.81 C 307.17 488.24 316.06 491.90 316.75 491.93 C 317.64 491.98 318.00 489.90 318.00 484.66 Z M 372.71 477.91 C 411.54 461.22 496.98 424.76 505.44 421.27 C 509.12 419.76 512.42 419.03 514.09 419.37 C 516.56 419.86 564.01 440.01 647.73 476.13 C 665.46 483.78 681.10 490.47 682.48 490.99 L 685.00 491.95 L 685.00 484.15 L 685.00 476.34 L 646.25 459.78 C 498.24 396.51 513.12 402.56 509.11 403.99 C 505.12 405.43 356.53 468.98 345.75 473.86 L 339.00 476.92 L 339.00 484.46 C 339.00 488.61 339.21 492.00 339.46 492.00 C 339.72 492.00 354.68 485.66 372.71 477.91 Z M 376.83 437.57 C 498.86 385.27 509.09 381.00 512.43 381.00 C 515.59 381.00 551.69 396.07 664.36 444.44 C 691.53 456.10 696.61 457.98 698.86 457.19 C 700.31 456.69 716.35 449.96 734.50 442.25 C 752.65 434.54 774.17 425.42 782.33 421.99 C 790.48 418.56 796.78 415.41 796.33 414.99 C 795.19 413.93 761.85 399.65 609.00 334.72 C 588.92 326.19 559.17 313.54 542.87 306.61 C 526.58 299.67 512.68 294.00 511.97 294.00 C 510.80 294.00 462.79 314.25 359.00 358.50 C 336.73 368.00 298.14 384.44 273.25 395.04 C 248.36 405.63 228.00 414.58 228.00 414.93 C 228.00 415.67 325.87 457.82 327.83 457.93 C 328.57 457.97 350.62 448.81 376.83 437.57 Z M 271.40 713.60 C 267.50 709.70 266.95 705.59 269.71 700.92 C 271.21 698.38 285.28 692.08 386.27 648.77 L 501.12 599.50 L 501.05 536.00 C 500.98 464.63 500.71 467.35 508.24 463.67 C 513.14 461.28 518.27 462.75 521.07 467.35 C 522.91 470.37 522.99 473.17 523.00 534.72 L 523.00 598.95 L 525.75 600.37 C 527.26 601.15 577.55 622.77 637.50 648.40 C 697.45 674.04 748.06 695.80 749.96 696.76 C 751.86 697.72 754.28 700.00 755.34 701.82 C 757.01 704.70 757.11 705.67 756.11 709.02 C 754.66 713.87 750.80 717.00 746.29 717.00 C 744.26 717.00 736.84 714.38 728.17 710.61 C 720.10 707.10 682.90 691.08 645.50 675.01 C 608.10 658.95 562.80 639.48 544.83 631.76 L 512.17 617.73 L 415.83 658.99 C 362.85 681.68 310.85 704.02 300.28 708.62 C 289.66 713.25 279.67 717.00 277.93 717.00 C 275.70 717.00 273.82 716.02 271.40 713.60 Z" stroke-linecap="round"/>
</g>
</g>
</g>

  </svg>