<svg xmlns="http://www.w3.org/2000/svg" xmlns:xlink="http://www.w3.org/1999/xlink" width="706px" height="368px" viewBox="0 0 706.3740856844304 368.31002154530825">
    <g id="fab3ac90-6c62-4065-9639-abbbb4725d3f">
<g style="">
		<g id="fab3ac90-6c62-4065-9639-abbbb4725d3f-child-0">
<path style="stroke: rgb(193,193,193); stroke-width: 0; stroke-dasharray: none; stroke-linecap: butt; stroke-dashoffset: 0; stroke-linejoin: miter; stroke-miterlimit: 4; fill: rgb(0,0,0); fill-rule: nonzero; opacity: 1;" transform="matrix(0.966535 0 0 0.966535 353.186864 184.154918) matrix(1 0 0 1 0 0)  translate(-511.934506, -512.468961)" d="M 274.31 701.54 C 272.56 700.77 270.48 698.88 269.68 697.33 C 268.89 695.77 265.45 681.91 262.05 666.51 C 258.64 651.12 255.72 638.39 255.56 638.23 C 255.40 638.06 252.56 637.50 249.25 636.96 C 233.67 634.45 220.37 625.84 211.63 612.61 C 206.64 605.04 204.55 598.11 198.95 570.50 C 196.17 556.75 192.51 538.70 190.83 530.40 L 187.77 515.29 L 182.13 513.54 C 159.00 506.36 143.75 483.38 146.94 460.48 C 149.88 439.31 164.39 422.97 185.13 417.45 C 193.63 415.19 218.98 415.53 226.00 418.00 C 229.02 419.06 231.78 419.95 232.13 419.97 C 232.48 419.99 232.99 412.69 233.26 403.75 C 233.65 391.19 234.25 385.84 235.91 380.17 C 242.71 356.92 258.59 338.46 280.38 328.49 C 295.06 321.78 291.33 322.00 388.63 322.00 C 466.67 322.00 477.25 322.18 482.07 323.61 C 490.96 326.25 498.51 330.61 505.45 337.11 L 512.00 343.23 L 518.55 337.11 C 522.15 333.74 527.66 329.69 530.80 328.10 C 543.17 321.86 538.65 322.12 635.25 321.98 C 720.35 321.85 723.77 321.91 731.06 323.83 C 753.66 329.78 772.72 345.37 782.97 366.31 C 789.13 378.90 790.24 384.19 790.74 403.59 L 791.19 420.68 L 797.64 418.34 C 803.30 416.29 805.89 416.00 818.65 416.00 C 835.15 416.00 842.04 417.33 851.46 422.33 C 862.12 427.99 870.35 437.49 875.02 449.50 C 876.93 454.42 877.35 457.38 877.35 466.00 C 877.35 477.25 875.60 483.78 870.23 492.50 C 864.58 501.67 854.64 509.29 843.49 513.00 C 839.67 514.27 836.89 515.81 836.59 516.82 C 836.31 517.74 832.44 535.60 827.99 556.50 C 823.54 577.40 818.99 597.29 817.89 600.69 C 811.99 618.86 795.87 632.82 776.37 636.67 L 768.35 638.25 L 762.05 666.37 C 758.58 681.84 755.09 695.77 754.30 697.33 C 751.89 702.08 747.92 703.00 729.78 703.00 C 711.97 703.00 708.21 702.07 705.38 697.00 C 704.61 695.62 700.89 681.67 697.12 666.00 L 690.26 637.50 L 512.47 637.50 L 334.68 637.50 L 326.73 667.00 C 322.36 683.22 318.05 697.35 317.14 698.39 C 313.80 702.23 309.77 703.00 293.28 702.96 C 282.11 702.93 276.57 702.52 274.31 701.54 Z M 305.69 660.50 C 308.59 649.50 310.97 639.71 310.98 638.75 C 311.00 637.15 309.55 637.00 294.39 637.00 L 277.78 637.00 L 278.33 639.25 C 278.63 640.49 280.73 649.83 283.00 660.00 C 285.27 670.17 287.32 679.08 287.55 679.80 C 287.85 680.72 289.77 681.01 294.20 680.80 L 300.42 680.50 L 305.69 660.50 Z M 741.31 659.75 C 743.92 648.06 746.04 638.16 746.02 637.75 C 746.01 637.34 738.52 637.00 729.38 637.00 L 712.77 637.00 L 713.36 639.25 C 713.69 640.49 716.09 650.39 718.70 661.25 L 723.44 681.00 L 730.01 681.00 L 736.58 681.00 L 741.31 659.75 Z M 780.50 613.02 C 786.74 609.93 792.94 603.82 795.77 597.97 C 796.96 595.50 800.63 580.52 803.97 564.50 C 815.15 510.93 815.87 507.90 818.51 503.40 C 821.31 498.61 826.90 494.85 833.99 492.98 C 844.45 490.22 851.50 484.04 854.50 475.00 C 858.92 461.68 852.59 447.40 839.36 440.89 C 835.07 438.78 832.84 438.46 820.43 438.16 C 807.41 437.85 805.99 437.99 801.43 440.14 C 794.91 443.20 788.43 449.83 785.32 456.61 C 783.71 460.13 779.27 478.59 772.94 508.13 C 766.66 537.43 762.17 556.14 760.58 559.61 C 755.11 571.55 742.69 580.84 729.26 583.04 C 720.88 584.42 548.97 584.30 541.48 582.91 C 530.44 580.87 519.81 573.57 514.22 564.19 L 512.25 560.89 L 509.68 565.28 C 504.51 574.11 494.38 580.84 483.04 582.99 C 475.84 584.36 301.20 584.36 293.89 582.99 C 281.14 580.62 268.63 570.98 263.37 559.50 C 261.90 556.28 258.81 544.15 255.92 530.25 C 240.51 456.00 240.70 456.69 233.51 448.28 C 231.52 445.96 227.26 442.79 223.82 441.07 C 217.94 438.13 217.15 438.00 205.02 438.00 C 188.69 438.00 184.52 439.33 176.84 447.01 C 171.11 452.73 168.00 459.41 168.00 466.00 C 168.00 471.35 171.02 478.75 175.11 483.39 C 179.81 488.73 182.43 490.27 191.63 493.11 C 198.78 495.32 205.50 500.89 207.76 506.50 C 209.03 509.63 225.00 585.90 225.00 588.82 C 225.00 594.77 234.86 608.17 242.11 612.06 C 249.37 615.97 242.89 615.88 514.00 615.69 L 775.50 615.50 L 780.50 613.02 Z M 481.48 560.88 C 486.84 559.40 492.50 553.56 494.01 547.96 C 496.44 539.00 491.75 528.61 483.62 524.91 C 479.69 523.13 475.19 523.04 387.57 523.02 C 295.90 523.00 295.62 523.01 291.25 525.12 C 279.77 530.68 277.77 546.57 287.39 555.89 C 293.84 562.15 289.90 561.91 388.00 561.95 C 450.34 561.98 478.71 561.65 481.48 560.88 Z M 731.61 559.51 C 745.23 552.72 746.96 534.79 734.80 526.36 L 730.67 523.50 L 637.68 523.23 C 545.70 522.97 544.65 522.99 540.46 525.02 C 529.39 530.38 526.48 545.70 534.78 554.96 C 541.33 562.26 536.22 561.91 636.55 561.96 L 726.61 562.00 L 731.61 559.51 Z M 523.59 509.59 C 526.12 507.65 530.74 505.04 533.85 503.79 L 539.50 501.50 L 632.50 501.20 C 698.51 500.98 727.24 501.22 731.50 502.02 C 734.80 502.64 740.31 504.68 743.75 506.56 C 747.19 508.43 750.00 509.78 750.00 509.56 C 750.00 508.72 759.14 468.27 760.63 462.50 C 761.48 459.20 763.71 453.17 765.59 449.11 L 769.00 441.72 L 769.00 417.07 C 769.00 389.31 768.38 385.32 762.27 373.70 C 755.41 360.64 742.18 350.15 726.50 345.34 C 720.87 343.61 715.18 343.50 635.00 343.50 L 549.50 343.50 L 543.27 346.38 C 536.03 349.72 529.02 356.66 525.72 363.74 C 523.56 368.37 523.49 369.69 523.00 412.55 C 522.44 462.00 522.62 460.84 515.15 463.07 C 511.95 464.03 510.70 463.95 507.88 462.62 C 501.35 459.52 501.55 460.94 501.00 412.50 C 500.50 368.84 500.48 368.46 498.16 363.78 C 494.41 356.25 488.60 350.42 481.22 346.79 L 474.54 343.50 L 388.52 343.50 L 302.50 343.50 L 295.17 345.90 C 277.92 351.55 264.41 364.83 257.78 382.68 C 255.81 387.97 255.58 390.86 255.23 414.25 L 254.85 439.99 L 257.80 446.25 C 259.43 449.69 261.51 454.73 262.44 457.46 C 263.92 461.83 271.73 496.13 273.55 506.25 C 274.27 510.25 275.07 510.82 276.89 508.63 C 277.52 507.88 280.83 505.96 284.26 504.38 L 290.50 501.50 L 388.00 501.50 L 485.50 501.50 L 491.25 503.82 C 497.48 506.34 506.59 513.98 510.07 519.62 L 512.24 523.12 L 515.61 518.11 C 517.46 515.36 521.06 511.52 523.59 509.59 Z" stroke-linecap="round"/>
</g>
</g>
</g>

  </svg>