<svg xmlns="http://www.w3.org/2000/svg" xmlns:xlink="http://www.w3.org/1999/xlink" width="500px" height="478px" viewBox="0 0 500 478.4494077454164">
    <g id="cd469902-80cb-4d46-b494-4b6b6f4a42b2">
<g style="">
		<g id="cd469902-80cb-4d46-b494-4b6b6f4a42b2-child-0">
<path style="stroke: rgb(193,193,193); stroke-width: 0; stroke-dasharray: none; stroke-linecap: butt; stroke-dashoffset: 0; stroke-linejoin: miter; stroke-miterlimit: 4; fill: rgb(0,0,0); fill-rule: nonzero; opacity: 1;" transform="matrix(0.745866 0 0 0.745866 250.000101 239.2248) matrix(1 0 0 1 0 0)  translate(-512.099021, -512.906762)" d="M 252.92 833.03 C 241.78 831.58 231.27 824.82 225.16 815.20 C 218.83 805.22 219.00 808.03 219.00 715.82 L 219.00 632.00 L 209.25 631.96 C 194.69 631.89 186.96 628.28 180.79 618.67 C 174.22 608.43 176.21 593.56 185.25 585.40 C 191.57 579.68 196.85 577.84 208.66 577.24 L 219.00 576.71 L 219.00 564.04 C 219.00 555.44 219.50 549.66 220.57 546.09 C 222.43 539.80 228.18 533.12 233.98 530.51 L 238.00 528.70 L 238.00 516.82 C 238.00 508.34 238.44 503.87 239.55 501.22 C 242.74 493.60 250.21 488.29 258.36 487.87 L 263.00 487.63 L 263.00 432.04 C 263.00 399.53 263.43 373.00 264.04 368.15 C 265.39 357.42 269.62 344.94 274.97 335.93 C 283.61 321.39 299.93 307.34 315.12 301.38 L 321.90 298.72 L 322.20 257.11 L 322.50 215.50 L 325.12 209.91 C 328.16 203.44 333.28 197.96 339.28 194.76 C 345.38 191.51 359.62 191.51 365.72 194.76 C 372.34 198.29 376.68 202.65 379.71 208.82 L 382.50 214.50 L 382.79 256.28 L 383.08 298.05 L 391.47 301.93 C 415.82 313.18 432.20 332.37 439.26 357.91 C 441.26 365.15 441.38 368.31 441.76 426.15 L 442.16 486.81 L 444.33 487.39 C 445.52 487.71 447.53 487.98 448.80 487.99 C 451.78 488.00 456.76 490.54 460.34 493.86 C 465.58 498.73 466.46 501.53 467.00 515.00 L 467.50 527.50 L 512.25 527.76 L 557.00 528.02 L 557.00 517.38 C 557.00 505.13 558.10 500.55 562.23 495.54 C 566.04 490.91 570.18 488.83 577.00 488.09 L 582.50 487.50 L 583.05 425.00 C 583.66 354.83 583.30 358.39 591.49 341.50 C 600.43 323.03 618.50 306.48 636.32 300.41 L 640.88 298.85 L 641.19 257.18 L 641.50 215.50 L 644.11 210.00 C 649.83 197.94 660.60 191.43 673.50 192.24 C 684.99 192.97 693.75 198.73 698.71 208.82 L 701.50 214.50 L 701.79 256.30 L 702.08 298.11 L 706.79 300.04 C 732.43 310.55 750.79 330.75 758.12 356.51 C 760.35 364.36 760.40 365.61 760.76 425.65 L 761.12 486.80 L 763.31 487.39 C 764.52 487.71 766.53 487.98 767.80 487.99 C 773.04 488.02 780.83 493.86 784.09 500.21 C 785.66 503.25 786.00 506.07 786.00 515.87 L 786.00 527.81 L 790.40 530.39 C 796.15 533.76 802.35 540.88 803.82 545.81 C 804.47 547.97 805.00 555.78 805.00 563.22 L 805.00 576.72 L 815.77 577.23 C 827.84 577.80 833.88 580.03 840.04 586.19 C 850.03 596.18 849.63 613.31 839.16 623.77 C 833.44 629.49 828.03 631.35 815.75 631.81 L 805.00 632.22 L 805.00 716.51 C 805.00 798.07 804.94 800.99 803.00 807.14 C 799.45 818.37 791.68 826.44 779.59 831.41 L 774.50 833.50 L 516.50 833.63 C 374.60 833.70 255.99 833.43 252.92 833.03 Z M 774.78 814.45 C 779.71 812.39 783.83 808.40 786.10 803.50 C 787.86 799.71 787.96 795.14 787.98 715.75 L 788.00 632.00 L 512.25 632.25 L 236.50 632.50 L 236.24 713.00 C 236.06 767.19 236.32 795.19 237.04 798.68 C 238.42 805.35 242.65 811.12 248.14 813.84 L 252.50 816.00 L 511.78 816.00 C 743.93 816.00 771.45 815.84 774.78 814.45 Z M 824.70 613.17 C 827.90 611.45 830.00 607.99 829.97 604.53 C 829.93 601.17 828.72 599.25 825.03 596.70 C 822.71 595.11 802.90 595.00 511.20 595.00 L 199.85 595.00 L 196.92 597.92 C 191.21 603.63 194.27 612.38 202.56 614.05 C 204.73 614.48 345.10 614.73 514.50 614.60 C 749.48 614.41 823.02 614.07 824.70 613.17 Z M 525.75 577.00 L 788.00 577.00 L 788.00 564.95 C 788.00 551.51 786.95 548.05 782.30 546.13 C 780.20 545.27 711.80 545.04 510.77 545.24 L 242.05 545.50 L 239.32 548.23 C 236.66 550.89 236.59 551.28 236.38 563.73 L 236.18 576.50 L 238.84 577.20 C 240.30 577.59 246.45 577.70 252.50 577.46 C 258.55 577.21 381.51 577.01 525.75 577.00 Z M 450.00 518.06 C 450.00 508.92 449.82 507.99 447.78 506.56 C 445.80 505.17 435.05 505.00 351.98 505.00 C 280.53 505.00 258.12 505.28 257.20 506.20 C 256.42 506.98 256.00 511.02 256.00 517.70 L 256.00 528.00 L 353.00 528.00 L 450.00 528.00 L 450.00 518.06 Z M 769.00 518.06 C 769.00 508.92 768.82 507.99 766.78 506.56 C 764.80 505.17 754.12 505.00 671.71 505.00 C 609.62 505.00 578.23 505.34 576.93 506.04 C 575.21 506.96 575.00 508.21 575.00 517.54 L 575.00 528.00 L 672.00 528.00 L 769.00 528.00 L 769.00 518.06 Z M 423.79 426.25 L 423.50 364.50 L 420.82 357.17 C 413.40 336.84 399.39 323.10 377.93 315.08 C 371.94 312.83 367.76 309.18 366.06 304.68 C 365.48 303.14 365.00 296.50 365.00 289.93 L 365.00 278.00 L 352.50 278.00 L 340.00 278.00 L 340.00 290.53 C 340.00 309.00 338.92 310.81 324.50 316.47 C 319.64 318.38 313.23 321.56 310.26 323.53 C 299.25 330.84 289.82 342.92 284.64 356.35 L 281.50 364.50 L 281.21 426.25 L 280.91 488.00 L 352.49 488.00 L 424.07 488.00 L 423.79 426.25 Z M 743.50 453.50 L 743.50 419.50 L 671.75 419.24 L 600.00 418.99 L 600.00 452.83 C 600.00 471.44 600.30 486.97 600.67 487.34 C 601.04 487.71 633.33 487.90 672.42 487.76 L 743.50 487.50 L 743.50 453.50 Z M 742.99 385.25 C 742.97 365.89 741.77 359.27 736.23 348.00 C 733.53 342.50 730.40 338.34 724.52 332.40 C 715.63 323.43 710.61 320.15 699.34 315.94 C 685.92 310.94 684.00 307.69 684.00 290.03 L 684.00 278.00 L 671.58 278.00 L 659.15 278.00 L 658.83 291.83 C 658.51 305.09 658.39 305.81 655.79 309.21 C 653.66 312.00 651.06 313.54 643.63 316.42 C 629.79 321.79 619.92 329.51 611.82 341.33 C 602.86 354.38 600.00 365.56 600.00 387.46 L 600.00 402.00 L 671.50 402.00 L 743.00 402.00 L 742.99 385.25 Z M 365.00 238.99 L 365.00 216.97 L 361.72 213.39 C 359.11 210.54 357.51 209.71 353.97 209.36 C 348.56 208.82 345.36 210.35 342.28 214.91 C 340.08 218.17 340.00 219.08 340.00 239.65 L 340.00 261.00 L 352.50 261.00 L 365.00 261.00 L 365.00 238.99 Z M 684.00 238.99 L 684.00 216.97 L 680.72 213.39 C 678.11 210.54 676.51 209.71 672.97 209.36 C 667.56 208.82 664.36 210.35 661.28 214.91 C 659.08 218.17 659.00 219.08 659.00 239.65 L 659.00 261.00 L 671.50 261.00 L 684.00 261.00 L 684.00 238.99 Z M 298.52 374.43 C 295.97 372.06 295.79 371.43 296.35 366.68 C 297.22 359.25 303.32 347.53 309.40 341.61 C 315.50 335.66 323.88 331.51 327.80 332.48 C 335.08 334.28 337.52 342.31 332.25 347.15 C 330.74 348.54 327.83 350.68 325.79 351.90 C 320.23 355.22 317.25 359.38 314.91 367.08 C 313.63 371.29 311.96 374.62 310.68 375.51 C 307.28 377.89 301.72 377.39 298.52 374.43 Z M 618.20 374.97 C 614.88 371.88 614.58 368.73 616.89 361.15 C 620.66 348.73 629.22 338.44 639.61 333.85 C 646.96 330.60 654.00 333.90 654.00 340.59 C 654.00 345.63 653.22 346.72 646.81 350.61 C 640.07 354.71 635.36 360.49 634.39 365.87 C 633.51 370.72 631.40 374.71 629.06 375.97 C 625.88 377.67 620.57 377.18 618.20 374.97 Z" stroke-linecap="round"/>
</g>
</g>
</g>

  </svg>