<svg xmlns="http://www.w3.org/2000/svg" xmlns:xlink="http://www.w3.org/1999/xlink" width="500px" height="446px" viewBox="0 0 499.9999999999999 446.13115901284124">
    <g id="13acf264-49ae-42f5-9356-6468af070dfb">
<g style="">
		<g id="13acf264-49ae-42f5-9356-6468af070dfb-child-0">
<path style="stroke: rgb(193,193,193); stroke-width: 0; stroke-dasharray: none; stroke-linecap: butt; stroke-dashoffset: 0; stroke-linejoin: miter; stroke-miterlimit: 4; fill: rgb(0,0,0); fill-rule: nonzero; opacity: 1;" transform="matrix(0.933816 0 0 0.933816 249.999896 223.065486) matrix(1 0 0 1 0 0)  translate(-512.218583, -511.855203)" d="M 284.82 749.42 C 278.65 747.52 269.68 739.35 267.50 733.65 C 266.61 731.30 265.74 726.03 265.58 721.94 C 265.42 717.85 265.22 631.00 265.14 528.94 L 265.00 343.37 L 261.54 341.72 C 256.25 339.20 250.13 333.17 247.17 327.56 C 244.67 322.83 244.50 321.66 244.50 309.50 C 244.50 298.33 244.80 295.85 246.64 291.88 C 249.71 285.24 255.32 279.48 261.84 276.28 L 267.50 273.50 L 510.69 273.24 L 753.88 272.98 L 759.66 275.15 C 767.54 278.09 774.93 285.53 777.94 293.53 C 779.89 298.73 780.13 300.99 779.83 311.00 C 779.53 320.71 779.09 323.27 777.03 327.48 C 774.09 333.50 767.19 340.44 762.46 342.15 L 759.00 343.40 L 759.00 534.52 C 759.00 745.57 759.44 731.20 752.64 740.12 C 750.78 742.55 746.84 745.88 743.88 747.52 L 738.50 750.50 L 514.00 750.68 C 320.72 750.84 288.85 750.67 284.82 749.42 Z M 734.80 726.80 C 735.72 725.88 736.00 681.98 736.00 535.30 L 736.00 345.00 L 625.65 345.00 L 515.30 345.00 L 511.90 342.72 C 507.31 339.63 505.11 333.60 507.10 329.54 C 507.87 327.97 509.77 325.74 511.32 324.59 C 514.14 322.50 514.38 322.50 634.03 322.00 C 773.02 321.42 756.92 323.16 756.97 308.75 C 757.00 301.31 756.70 299.70 755.00 298.00 C 753.01 296.01 751.67 296.00 512.00 296.00 C 272.33 296.00 270.99 296.01 269.00 298.00 C 267.30 299.70 267.00 301.33 267.00 308.83 C 267.00 316.74 267.24 317.87 269.30 319.81 L 271.60 321.97 L 375.28 322.24 L 478.96 322.50 L 482.23 325.77 C 484.95 328.48 485.50 329.79 485.50 333.50 C 485.50 337.21 484.95 338.52 482.23 341.23 L 478.96 344.50 L 383.48 344.76 L 288.00 345.03 L 288.00 367.50 L 288.00 389.98 L 420.58 390.24 L 553.16 390.50 L 556.08 393.77 C 560.33 398.52 560.15 403.78 555.58 408.76 L 552.15 412.50 L 420.08 412.76 L 288.00 413.02 L 288.00 568.58 C 288.00 673.89 288.33 724.76 289.04 726.07 C 290.05 727.97 293.61 728.00 511.84 728.00 C 682.99 728.00 733.87 727.73 734.80 726.80 Z M 328.00 699.41 C 323.48 697.45 319.31 693.46 316.91 688.79 C 315.06 685.20 315.00 681.28 315.00 570.51 C 315.00 476.15 315.24 455.37 316.36 452.72 C 318.17 448.43 322.60 444.13 327.50 441.88 C 331.33 440.12 339.06 440.04 512.07 440.02 L 692.64 440.00 L 698.07 442.75 C 702.14 444.82 704.24 446.73 706.50 450.42 L 709.50 455.34 L 709.78 541.90 C 709.98 605.94 709.75 629.19 708.89 631.26 C 705.91 638.46 696.71 640.40 690.77 635.08 L 687.50 632.16 L 687.00 547.33 L 686.50 462.50 L 512.00 462.50 L 337.50 462.50 L 337.25 570.25 L 336.99 678.00 L 512.00 678.00 L 687.00 678.00 L 687.00 673.55 C 687.00 665.16 690.89 661.00 698.73 661.00 C 706.02 661.00 710.00 666.20 709.99 675.70 C 709.99 678.89 709.49 683.30 708.88 685.50 C 707.41 690.81 699.81 698.41 694.50 699.88 C 691.64 700.67 639.29 700.98 511.00 700.96 C 352.86 700.93 331.08 700.74 328.00 699.41 Z M 410.13 551.96 C 399.96 549.87 391.03 542.71 386.70 533.18 C 383.58 526.31 383.71 513.34 386.97 506.63 C 390.40 499.57 397.80 492.59 404.54 490.07 C 410.12 487.98 410.63 487.97 513.82 488.24 L 617.50 488.50 L 622.47 490.95 C 635.61 497.41 643.08 512.03 640.23 525.65 C 637.35 539.35 628.19 549.17 615.68 551.96 C 603.74 554.63 594.37 546.24 598.43 536.52 C 600.18 532.33 603.16 530.41 609.22 529.55 C 612.61 529.07 614.52 528.16 615.97 526.31 C 618.19 523.49 618.64 518.06 616.92 514.85 C 614.29 509.93 615.79 510.00 512.68 510.00 C 444.72 510.00 415.36 510.33 413.12 511.11 C 405.70 513.70 405.07 524.92 412.15 528.58 C 414.46 529.77 427.23 530.00 492.02 530.00 C 546.84 530.00 569.76 530.32 571.32 531.12 C 575.15 533.08 576.96 536.24 576.96 541.00 C 576.96 545.85 575.20 548.84 571.00 551.13 C 568.96 552.25 554.45 552.53 491.50 552.68 C 449.04 552.78 412.54 552.46 410.13 551.96 Z M 603.32 421.62 C 594.41 418.70 586.58 411.78 582.84 403.50 C 579.68 396.50 579.67 384.52 582.81 377.58 C 586.41 369.62 591.32 364.46 598.76 360.80 C 604.69 357.88 606.38 357.50 613.48 357.54 C 619.59 357.57 622.69 358.12 626.50 359.84 C 632.77 362.67 639.37 369.00 642.83 375.50 C 645.17 379.90 645.49 381.63 645.49 390.00 C 645.49 398.35 645.17 400.11 642.83 404.54 C 639.57 410.73 632.41 417.49 626.18 420.25 C 620.34 422.84 609.11 423.51 603.32 421.62 Z M 619.48 398.42 C 622.39 396.52 624.34 391.18 623.44 387.60 C 623.08 386.17 621.39 383.82 619.69 382.39 C 617.06 380.18 615.91 379.86 612.08 380.29 C 606.21 380.96 603.00 384.44 603.00 390.13 C 603.00 395.82 607.22 400.00 612.96 400.00 C 615.22 400.00 618.16 399.29 619.48 398.42 Z M 672.93 421.63 C 657.90 417.58 648.59 405.38 648.69 389.89 C 648.77 376.50 655.53 365.77 667.24 360.43 C 672.46 358.05 674.82 357.58 681.50 357.58 C 688.31 357.59 690.36 358.02 695.29 360.48 C 709.65 367.64 716.54 382.53 712.61 397.90 C 710.59 405.76 706.90 411.36 700.58 416.13 C 692.54 422.21 682.49 424.21 672.93 421.63 Z M 684.34 400.06 C 691.52 397.33 693.48 388.33 688.08 382.92 C 679.15 373.99 665.32 386.51 673.14 396.45 C 676.38 400.57 679.96 401.73 684.34 400.06 Z" stroke-linecap="round"/>
</g>
</g>
</g>

  </svg>