<svg xmlns="http://www.w3.org/2000/svg" xmlns:xlink="http://www.w3.org/1999/xlink" width="3467px" height="2383px" viewBox="0 0 3466.666666666666 2382.9766417013407">
    <g id="6d88c000-7a21-4a66-882c-1eda0a375c98">
<g style="">
		<g id="6d88c000-7a21-4a66-882c-1eda0a375c98-child-0">
<path style="stroke: rgb(193,193,193); stroke-width: 0; stroke-dasharray: none; stroke-linecap: butt; stroke-dashoffset: 0; stroke-linejoin: miter; stroke-miterlimit: 4; fill: rgb(0,0,0); fill-rule: nonzero; opacity: 1;" transform="matrix(4.808137 0 0 4.808137 1733.333389 1191.488359) matrix(1 0 0 1 0 0)  translate(-511.5, -513.032434)" d="M 156.26 760.30 C 153.53 759.77 151.00 756.38 151.00 753.23 C 151.00 751.95 152.10 749.80 153.45 748.45 C 155.56 746.35 156.84 746.00 162.50 746.00 C 168.16 746.00 169.44 746.35 171.55 748.45 C 175.63 752.54 174.28 757.80 168.60 759.96 C 165.90 760.99 160.60 761.13 156.26 760.30 Z M 191.00 758.00 C 188.12 755.12 188.41 750.61 191.63 748.07 C 194.07 746.16 195.58 746.00 211.63 746.00 L 229.00 746.00 L 229.00 715.50 L 229.00 685.00 L 211.93 685.00 C 194.74 685.00 191.91 684.51 189.28 681.09 C 188.34 679.86 188.06 651.06 188.03 553.92 L 188.00 428.35 L 190.58 425.92 L 193.16 423.50 L 229.12 423.21 L 265.08 422.93 L 259.82 418.44 C 251.82 411.61 246.33 404.42 241.52 394.50 C 235.57 382.20 234.00 374.29 234.00 356.61 C 234.00 338.27 233.29 339.00 251.14 339.00 C 266.86 339.00 267.68 338.76 265.00 335.00 C 258.52 325.90 252.38 305.65 251.35 289.99 C 250.57 277.97 251.14 275.50 255.18 273.41 C 260.97 270.41 272.45 273.75 283.03 281.52 C 285.68 283.47 288.05 284.71 288.29 284.28 C 288.54 283.85 289.30 281.70 289.98 279.50 C 292.29 272.05 295.71 267.25 299.60 265.97 C 304.22 264.44 309.65 265.33 312.59 268.08 C 313.85 269.27 316.09 273.55 317.57 277.60 C 319.29 282.31 320.66 284.72 321.38 284.28 C 321.99 283.91 324.58 282.12 327.11 280.31 C 333.51 275.74 339.69 273.17 346.14 272.41 C 351.06 271.83 351.92 272.03 354.56 274.31 C 357.42 276.77 357.49 277.06 357.25 285.17 C 356.79 301.01 352.20 318.53 345.06 331.71 C 343.38 334.81 342.00 337.73 342.00 338.18 C 342.00 338.63 348.30 339.00 356.00 339.00 C 374.71 339.00 374.00 338.29 374.00 357.05 C 374.00 373.71 372.41 382.03 367.05 393.50 C 362.39 403.46 355.74 412.32 348.40 418.36 L 342.77 423.00 L 585.93 423.00 C 845.85 423.00 833.55 422.78 835.38 427.54 C 835.72 428.44 836.00 485.55 836.00 554.47 C 836.00 676.31 835.95 679.84 834.09 682.14 C 832.23 684.44 831.74 684.51 813.59 684.81 L 795.00 685.12 L 795.00 715.56 L 795.00 746.00 L 831.05 746.00 L 867.09 746.00 L 869.55 748.45 C 870.90 749.80 872.00 751.63 872.00 752.52 C 872.00 754.48 870.10 758.23 868.60 759.23 C 868.00 759.64 715.74 759.98 530.25 759.98 C 194.32 760.00 192.99 759.99 191.00 758.00 Z M 765.05 739.25 C 762.94 735.54 756.23 723.72 750.15 713.00 C 744.06 702.28 737.95 691.59 736.57 689.25 L 734.05 685.00 L 511.93 685.25 L 289.81 685.50 L 282.61 698.00 C 278.65 704.88 271.67 717.03 267.09 725.00 C 262.51 732.97 257.88 740.96 256.80 742.75 L 254.84 746.00 L 511.87 746.00 L 768.90 746.00 L 765.05 739.25 Z M 259.54 709.29 C 266.95 696.53 273.00 685.84 273.00 685.54 C 273.00 685.24 266.25 685.00 258.00 685.00 L 243.00 685.00 L 243.03 710.75 C 243.06 733.95 243.21 736.30 244.58 734.50 C 245.41 733.40 252.14 722.06 259.54 709.29 Z M 781.00 710.50 L 781.00 685.00 L 765.92 685.00 C 757.62 685.00 750.98 685.34 751.17 685.76 C 752.00 687.66 778.36 733.64 779.25 734.75 C 779.80 735.44 780.41 736.00 780.62 736.00 C 780.83 736.00 781.00 724.53 781.00 710.50 Z M 823.00 554.00 L 823.00 437.00 L 512.56 437.00 C 341.82 437.00 201.98 437.34 201.81 437.75 C 201.64 438.16 201.62 490.81 201.77 554.75 L 202.05 671.00 L 512.52 671.00 L 823.00 671.00 L 823.00 554.00 Z M 317.41 419.02 C 328.08 416.30 334.29 412.70 342.59 404.45 C 354.18 392.95 360.00 378.68 360.00 361.79 L 360.00 353.00 L 304.00 353.00 L 248.00 353.00 L 248.00 361.79 C 248.00 382.10 256.94 399.59 273.16 410.97 C 286.52 420.36 301.52 423.09 317.41 419.02 Z M 311.42 338.39 C 313.46 337.61 313.49 331.64 311.51 314.75 C 310.04 302.22 306.74 286.76 304.92 283.94 C 304.12 282.69 303.88 282.69 303.07 283.94 C 300.29 288.26 296.13 310.95 295.32 326.17 L 294.70 337.84 L 297.60 338.27 C 302.36 338.98 309.73 339.04 311.42 338.39 Z M 331.03 327.29 C 336.52 318.64 343.00 298.65 343.00 290.37 L 343.00 287.88 L 338.25 290.47 C 335.64 291.90 331.36 294.97 328.74 297.29 L 323.99 301.50 L 324.94 308.00 C 325.47 311.58 326.19 318.44 326.54 323.25 C 326.89 328.06 327.37 332.00 327.61 332.00 C 327.85 332.00 329.39 329.88 331.03 327.29 Z M 281.00 324.82 C 281.00 321.42 281.52 314.58 282.16 309.62 L 283.31 300.60 L 278.91 296.75 C 273.64 292.14 266.15 287.52 265.31 288.36 C 264.26 289.41 266.97 303.17 269.93 311.76 C 272.72 319.88 278.66 331.00 280.21 331.00 C 280.65 331.00 281.00 328.22 281.00 324.82 Z M 218.74 657.31 C 213.87 656.03 213.95 657.80 214.02 554.52 C 214.07 490.13 214.44 457.03 215.14 455.03 C 215.94 452.72 217.03 451.83 219.84 451.18 C 221.85 450.72 354.60 450.38 514.84 450.42 L 806.18 450.50 L 808.09 452.86 C 809.94 455.15 810.00 458.23 810.00 554.00 C 810.00 649.77 809.94 652.85 808.09 655.14 L 806.18 657.50 L 513.34 657.64 C 352.28 657.71 219.71 657.57 218.74 657.31 Z M 506.39 642.42 C 506.73 641.55 507.00 622.87 507.00 600.92 L 507.00 561.00 L 367.50 561.00 L 228.00 561.00 L 228.00 601.83 C 228.00 624.29 228.30 642.97 228.67 643.33 C 229.03 643.70 291.54 644.00 367.56 644.00 C 492.68 644.00 505.84 643.85 506.39 642.42 Z M 650.50 554.00 L 650.50 464.50 L 585.51 464.50 L 520.52 464.50 L 520.24 553.31 C 520.08 602.16 520.22 642.55 520.54 643.07 C 520.90 643.65 545.90 643.92 585.81 643.76 L 650.50 643.50 L 650.50 554.00 Z M 796.00 554.00 L 796.00 464.00 L 730.50 464.00 L 665.00 464.00 L 665.00 554.00 L 665.00 644.00 L 730.50 644.00 L 796.00 644.00 L 796.00 554.00 Z M 506.50 505.50 L 506.50 464.50 L 367.25 464.25 L 228.00 463.99 L 228.00 505.50 L 228.00 547.01 L 367.25 546.75 L 506.50 546.50 L 506.50 505.50 Z M 346.07 585.37 C 344.93 583.92 344.00 581.95 344.00 581.00 C 344.00 580.05 344.93 578.08 346.07 576.63 L 348.15 574.00 L 367.40 574.00 C 386.23 574.00 386.70 574.05 388.83 576.31 C 391.54 579.21 391.62 583.38 389.00 586.00 C 387.14 587.86 385.67 588.00 367.57 588.00 L 348.15 588.00 L 346.07 585.37 Z M 626.45 520.55 C 624.03 518.12 624.00 517.87 624.00 500.05 C 624.00 483.33 624.15 481.85 626.00 480.00 C 628.39 477.61 632.71 477.41 635.78 479.56 C 637.94 481.07 638.00 481.62 638.00 499.98 L 638.00 518.85 L 635.37 520.93 C 631.90 523.65 629.45 523.54 626.45 520.55 Z M 678.63 520.93 L 676.00 518.85 L 676.00 500.43 C 676.00 483.33 676.14 481.86 678.00 480.00 C 679.11 478.89 681.33 478.00 683.00 478.00 C 684.67 478.00 686.89 478.89 688.00 480.00 C 689.85 481.85 690.00 483.33 690.00 500.05 C 690.00 517.87 689.97 518.12 687.55 520.55 C 684.55 523.54 682.10 523.65 678.63 520.93 Z M 346.07 489.37 C 344.93 487.92 344.00 485.95 344.00 485.00 C 344.00 484.05 344.93 482.08 346.07 480.63 L 348.15 478.00 L 367.40 478.00 C 386.23 478.00 386.70 478.05 388.83 480.31 C 391.54 483.21 391.62 487.38 389.00 490.00 C 387.14 491.86 385.67 492.00 367.57 492.00 L 348.15 492.00 L 346.07 489.37 Z" stroke-linecap="round"/>
</g>
</g>
</g>

  </svg>