<svg xmlns="http://www.w3.org/2000/svg" xmlns:xlink="http://www.w3.org/1999/xlink" width="346px" height="500px" viewBox="0 0 346.27385103249384 500">
    <g id="597d46af-c324-419a-9ce7-f49dc4f5c837">
<g style="">
		<g id="597d46af-c324-419a-9ce7-f49dc4f5c837-child-0">
<path style="stroke: rgb(193,193,193); stroke-width: 0; stroke-dasharray: none; stroke-linecap: butt; stroke-dashoffset: 0; stroke-linejoin: miter; stroke-miterlimit: 4; fill: rgb(0,0,0); fill-rule: nonzero; opacity: 1;" transform="matrix(0.826512 0 0 0.826512 173.136958 250.000047) matrix(1 0 0 1 0 0)  translate(-512.271441, -512.394316)" d="M 377.73 813.97 C 364.73 810.69 355.07 801.36 351.44 788.57 C 344.46 763.98 366.68 739.50 391.76 744.13 C 406.83 746.92 418.14 758.09 421.03 773.03 C 424.02 788.55 415.36 804.83 400.47 811.64 C 394.41 814.42 383.80 815.51 377.73 813.97 Z M 391.28 792.63 C 396.69 790.32 399.28 786.68 399.73 780.76 C 400.42 771.49 394.57 765.00 385.52 765.00 C 370.34 765.02 366.40 786.47 380.45 792.59 C 384.40 794.31 387.31 794.32 391.28 792.63 Z M 628.93 813.70 C 618.56 810.76 610.81 804.08 606.10 794.05 C 603.87 789.29 603.50 787.14 603.50 779.00 C 603.50 770.62 603.83 768.83 606.29 763.81 C 612.27 751.65 624.99 743.73 638.50 743.78 C 648.89 743.81 656.00 746.83 663.59 754.41 C 671.89 762.71 674.36 769.17 673.76 781.00 C 673.24 791.28 670.66 797.39 664.02 804.06 C 655.03 813.08 640.67 817.03 628.93 813.70 Z M 644.98 792.25 C 650.54 789.46 653.26 784.55 652.76 778.24 C 651.37 760.99 626.49 760.53 624.35 777.71 C 623.70 782.87 627.33 789.74 631.98 792.18 C 636.36 794.47 640.52 794.49 644.98 792.25 Z M 374.50 729.71 C 367.55 726.38 363.87 723.01 360.98 717.35 L 358.50 712.50 L 358.23 622.97 L 357.97 533.45 L 352.73 530.30 C 340.36 522.86 329.32 510.99 322.46 497.77 C 314.07 481.61 314.54 486.01 308.39 366.00 C 301.81 237.62 301.69 233.25 304.65 226.84 C 312.91 208.98 337.86 204.39 352.02 218.14 C 358.97 224.88 360.23 229.05 361.00 247.75 C 361.37 256.69 361.86 264.11 362.08 264.25 C 362.31 264.39 378.30 264.36 397.62 264.19 L 432.74 263.88 L 433.36 258.69 C 433.70 255.84 433.99 249.64 433.99 244.93 C 434.01 230.90 438.05 221.01 446.03 215.48 C 458.55 206.80 474.42 208.41 484.82 219.40 C 493.11 228.17 493.47 230.49 491.56 262.75 C 488.11 321.03 484.00 393.46 482.01 431.00 C 479.83 472.09 478.76 480.51 474.24 491.84 C 468.98 505.04 456.51 520.17 443.67 528.91 C 437.62 533.04 425.88 538.50 419.73 540.05 L 415.04 541.23 L 414.77 626.86 L 414.50 712.50 L 412.29 716.63 C 407.03 726.47 399.32 731.16 387.50 731.72 C 380.64 732.05 378.79 731.76 374.50 729.71 Z M 392.00 708.00 C 393.59 706.41 394.00 704.67 394.00 699.55 L 394.00 693.09 L 390.71 692.47 C 388.89 692.13 385.63 692.00 383.46 692.18 L 379.50 692.50 L 379.50 699.83 C 379.50 705.93 379.83 707.40 381.44 708.58 C 384.27 710.65 389.64 710.36 392.00 708.00 Z M 394.00 663.00 L 394.00 655.00 L 386.50 655.00 L 379.00 655.00 L 379.00 663.00 L 379.00 671.00 L 386.50 671.00 L 394.00 671.00 L 394.00 663.00 Z M 394.00 588.50 L 394.00 543.00 L 391.75 542.99 C 390.51 542.99 387.14 542.70 384.25 542.35 L 379.00 541.72 L 379.00 587.86 L 379.00 634.00 L 386.50 634.00 L 394.00 634.00 L 394.00 588.50 Z M 411.76 519.90 C 414.37 519.28 420.33 516.96 425.00 514.74 C 441.43 506.96 453.74 491.32 457.39 473.60 C 458.20 469.70 459.37 456.15 460.00 443.50 C 460.63 430.85 462.66 394.40 464.51 362.50 C 466.37 330.60 468.68 289.04 469.66 270.14 L 471.44 235.78 L 468.66 233.39 C 465.18 230.39 461.56 230.34 458.67 233.25 C 456.18 235.74 456.66 229.02 447.49 392.00 C 443.10 470.06 442.98 471.32 439.15 479.49 C 431.46 495.92 415.44 506.00 397.00 506.00 C 378.37 506.00 362.70 496.29 354.47 479.64 C 350.11 470.81 350.18 471.62 346.00 384.50 C 338.86 235.81 338.90 236.60 337.41 234.27 C 334.61 229.91 327.62 230.42 324.63 235.20 C 323.87 236.42 324.06 246.73 325.29 271.20 C 326.23 290.07 328.83 342.40 331.05 387.50 C 335.53 478.24 335.58 478.66 342.84 491.14 C 351.67 506.32 369.35 518.20 387.40 521.07 C 393.46 522.03 405.15 521.47 411.76 519.90 Z M 406.50 483.13 C 412.40 480.44 416.79 476.34 419.50 471.01 C 421.76 466.53 422.01 464.22 423.97 428.39 C 429.79 322.48 431.01 300.88 431.58 293.75 L 432.21 286.00 L 397.60 286.00 L 363.00 286.00 L 363.00 289.74 C 363.00 291.79 364.36 320.93 366.02 354.49 C 371.87 472.56 371.43 466.05 373.74 470.50 C 379.98 482.49 395.11 488.33 406.50 483.13 Z M 627.32 730.42 C 621.94 728.44 614.52 721.88 611.71 716.63 L 609.50 712.50 L 609.23 626.86 L 608.96 541.23 L 604.27 540.05 C 601.69 539.40 596.35 537.38 592.42 535.56 C 573.65 526.89 559.50 512.96 551.13 494.94 C 545.12 482.00 544.15 475.76 541.98 436.15 C 540.90 416.54 539.58 392.40 539.03 382.50 C 530.38 225.79 530.63 233.38 533.84 226.86 C 536.74 220.96 542.02 215.66 547.90 212.77 C 551.59 210.95 554.19 210.50 561.00 210.50 C 568.66 210.50 570.04 210.81 575.00 213.60 C 584.82 219.14 589.99 228.74 590.01 241.43 C 590.01 244.77 590.30 251.21 590.65 255.75 L 591.30 264.00 L 627.03 264.00 L 662.76 264.00 L 663.16 248.16 C 663.56 232.72 663.65 232.16 666.79 225.77 C 671.59 216.03 679.09 211.01 689.99 210.24 C 697.96 209.67 703.13 210.99 709.45 215.17 C 715.10 218.92 719.35 225.12 721.02 232.06 C 722.32 237.49 722.46 233.90 716.50 349.00 C 714.60 385.58 712.59 424.50 712.03 435.50 C 709.95 476.13 709.22 480.94 703.10 494.44 C 696.99 507.92 684.86 521.64 672.09 529.53 L 666.00 533.28 L 666.00 591.97 L 666.00 650.65 L 663.69 652.83 C 661.51 654.87 660.41 655.00 645.69 655.00 L 630.00 655.00 L 630.00 663.00 L 630.00 671.00 L 645.83 671.00 C 667.21 671.00 666.00 669.65 665.99 693.56 C 665.98 710.24 665.82 711.85 663.65 716.51 C 661.22 721.72 656.28 726.76 650.74 729.66 C 646.24 732.01 632.83 732.45 627.32 730.42 Z M 643.17 708.35 C 644.60 707.05 645.00 705.21 645.00 699.85 L 645.00 693.00 L 640.50 692.81 C 629.74 692.36 630.75 691.80 630.29 698.54 C 629.95 703.58 630.23 705.02 632.01 707.29 C 634.53 710.49 640.21 711.03 643.17 708.35 Z M 645.00 587.86 L 645.00 541.72 L 639.75 542.35 C 636.86 542.70 633.49 542.99 632.25 542.99 L 630.00 543.00 L 630.00 588.50 L 630.00 634.00 L 637.50 634.00 L 645.00 634.00 L 645.00 587.86 Z M 643.50 519.33 C 658.82 515.50 676.40 501.45 682.83 487.90 C 688.93 475.04 688.08 486.66 699.81 254.50 C 700.26 245.56 700.23 237.33 699.74 235.84 C 698.03 230.63 689.51 229.61 686.65 234.27 C 685.62 235.94 684.48 253.07 682.05 303.00 C 676.14 424.42 673.36 470.04 671.56 474.96 C 663.12 498.16 636.55 511.41 613.09 504.11 C 598.25 499.49 584.93 485.88 581.16 471.48 C 580.58 469.29 579.63 458.05 579.04 446.50 C 578.45 434.95 577.08 408.85 576.00 388.50 C 574.93 368.15 572.92 329.45 571.55 302.50 C 567.79 228.54 568.43 235.85 565.46 233.25 C 564.04 232.01 561.77 231.00 560.40 231.00 C 557.51 231.00 553.00 235.09 553.00 237.70 C 553.00 238.69 555.23 281.80 557.96 333.50 C 560.70 385.20 563.43 437.36 564.03 449.41 C 565.30 474.52 567.03 482.10 574.00 492.87 C 588.90 515.93 615.95 526.23 643.50 519.33 Z M 635.21 483.45 C 641.20 481.40 647.30 476.08 649.97 470.55 C 651.89 466.59 652.28 462.98 653.56 437.31 C 654.35 421.46 655.44 399.95 655.99 389.50 C 659.79 317.19 661.00 293.03 661.00 289.75 L 661.00 286.00 L 626.49 286.00 L 591.99 286.00 L 592.59 294.25 C 592.92 298.79 595.11 339.17 597.45 384.00 C 602.08 472.80 601.75 469.97 608.30 476.87 C 615.21 484.15 625.65 486.70 635.21 483.45 Z" stroke-linecap="round"/>
</g>
</g>
</g>

  </svg>