<svg xmlns="http://www.w3.org/2000/svg" xmlns:xlink="http://www.w3.org/1999/xlink" width="3467px" height="2818px" viewBox="0 0 3466.6666666666674 2817.6735608137824">
    <g id="3e483d03-43ba-4e52-9d4c-24d776c9cf03">
<g style="">
		<g id="3e483d03-43ba-4e52-9d4c-24d776c9cf03-child-0">
<path style="stroke: rgb(193,193,193); stroke-width: 0; stroke-dasharray: none; stroke-linecap: butt; stroke-dashoffset: 0; stroke-linejoin: miter; stroke-miterlimit: 4; fill: rgb(0,0,0); fill-rule: nonzero; opacity: 1;" transform="matrix(5.247024 0 0 5.247024 1733.333196 1408.836669) matrix(1 0 0 1 0 0)  translate(-512.384037, -511.497956)" d="M 187.11 778.60 C 181.76 775.64 182.07 792.26 182.04 511.18 C 182.01 333.80 182.33 249.25 183.03 247.94 C 185.85 242.67 163.62 243.00 513.05 243.00 L 836.20 243.00 L 839.46 246.26 L 842.73 249.53 L 842.61 511.84 L 842.50 774.16 L 839.23 777.08 L 835.97 780.00 L 819.54 780.00 C 803.62 780.00 803.02 779.93 800.31 777.59 L 797.50 775.18 L 797.18 759.09 L 796.86 743.00 L 512.00 743.00 L 227.14 743.00 L 226.82 758.58 L 226.50 774.17 L 223.23 777.08 L 219.97 780.00 L 204.73 779.96 C 194.02 779.94 188.79 779.54 187.11 778.60 Z M 212.00 752.47 C 212.00 738.61 213.01 734.71 217.51 731.17 L 220.27 729.00 L 512.00 729.00 L 803.73 729.00 L 806.49 731.17 C 810.99 734.71 812.00 738.61 812.00 752.47 L 812.00 765.00 L 820.00 765.00 L 828.00 765.00 L 828.00 511.50 L 828.00 258.00 L 512.00 258.00 L 196.00 258.00 L 196.00 511.50 L 196.00 765.00 L 204.00 765.00 L 212.00 765.00 L 212.00 752.47 Z M 218.31 710.05 C 216.56 708.98 214.65 707.21 214.06 706.12 C 213.35 704.78 213.00 684.13 213.00 642.47 L 213.00 580.80 L 216.40 577.40 L 219.80 574.00 L 283.50 574.00 L 347.20 574.00 L 350.60 577.40 L 354.00 580.80 L 354.00 641.95 C 354.00 694.65 353.79 703.50 352.48 706.03 C 349.32 712.15 351.10 712.00 283.30 712.00 C 223.87 711.99 221.38 711.92 218.31 710.05 Z M 339.23 643.50 L 339.50 589.00 L 283.25 589.00 L 227.00 589.00 L 227.00 642.83 C 227.00 672.44 227.30 696.97 227.67 697.33 C 228.03 697.70 253.23 698.00 283.65 698.00 L 338.97 698.00 L 339.23 643.50 Z M 370.23 710.00 C 368.42 708.90 366.51 706.84 365.98 705.43 C 365.38 703.87 365.00 679.06 365.00 641.83 L 365.00 580.80 L 368.40 577.40 L 371.80 574.00 L 435.50 574.00 L 499.20 574.00 L 502.60 577.40 L 506.00 580.80 L 506.00 642.68 C 506.00 710.59 506.30 707.24 499.99 710.51 C 497.52 711.78 488.18 712.00 435.30 712.00 C 375.30 711.99 373.40 711.93 370.23 710.00 Z M 491.76 643.25 L 492.02 589.00 L 436.01 589.00 L 380.00 589.00 L 380.00 643.51 L 380.00 698.02 L 435.75 697.76 L 491.50 697.50 L 491.76 643.25 Z M 523.24 710.67 C 518.09 707.81 518.25 709.83 517.86 643.49 C 517.52 585.56 517.62 581.33 519.26 578.90 C 520.23 577.48 522.17 575.79 523.56 575.15 C 525.39 574.32 543.63 574.00 589.15 574.00 L 652.20 574.00 L 655.60 577.40 L 659.00 580.80 L 659.00 642.68 C 659.00 710.59 659.30 707.24 652.99 710.51 C 650.51 711.79 641.16 711.99 587.80 711.96 C 539.77 711.94 524.98 711.64 523.24 710.67 Z M 644.81 659.50 C 644.98 638.60 644.82 614.19 644.45 605.25 L 643.79 589.00 L 587.89 589.00 L 532.00 589.00 L 532.00 643.51 L 532.00 698.02 L 588.25 697.76 L 644.50 697.50 L 644.81 659.50 Z M 675.38 710.09 C 673.66 709.04 671.75 706.73 671.13 704.94 C 669.32 699.74 669.56 584.99 671.39 580.60 C 674.30 573.65 670.62 574.00 739.97 574.00 C 800.12 574.01 802.62 574.08 805.69 575.95 C 807.44 577.02 809.31 578.70 809.84 579.70 C 810.41 580.78 810.94 606.35 811.15 643.32 L 811.50 705.14 L 807.76 708.57 L 804.03 712.00 L 741.26 712.00 C 681.34 711.99 678.36 711.91 675.38 710.09 Z M 796.76 643.25 L 797.02 589.00 L 741.01 589.00 L 685.00 589.00 L 685.00 643.51 L 685.00 698.02 L 740.75 697.76 L 796.50 697.50 L 796.76 643.25 Z M 267.00 563.02 C 231.85 562.63 219.95 562.19 218.26 561.22 C 212.94 558.18 213.00 558.99 213.00 492.68 L 213.00 431.27 L 215.17 428.51 C 219.55 422.94 218.83 423.00 284.00 423.00 C 349.86 423.00 349.38 422.96 352.43 428.87 C 353.81 431.53 354.00 439.56 354.00 493.74 L 354.00 555.58 L 351.24 558.88 C 347.70 563.13 343.40 563.97 326.50 563.73 C 319.35 563.62 292.58 563.31 267.00 563.02 Z M 339.00 493.50 L 339.00 438.00 L 283.00 438.00 L 227.00 438.00 L 227.00 493.50 L 227.00 549.00 L 283.00 549.00 L 339.00 549.00 L 339.00 493.50 Z M 531.31 563.00 C 525.08 562.57 523.72 562.11 521.06 559.56 L 518.00 556.63 L 518.00 493.39 L 518.00 430.15 L 520.94 427.21 C 522.56 425.60 525.31 423.99 527.06 423.64 C 528.82 423.29 556.98 423.00 589.66 423.00 C 653.49 423.00 653.80 423.02 657.37 428.12 C 658.83 430.21 659.00 436.81 659.00 493.32 L 659.00 556.20 L 655.60 559.60 L 652.20 563.00 L 625.85 563.25 C 583.21 563.65 539.04 563.54 531.31 563.00 Z M 644.50 493.50 L 644.50 438.50 L 588.25 438.24 L 532.00 437.98 L 532.00 492.83 C 532.00 522.99 532.30 547.97 532.67 548.34 C 533.05 548.71 558.36 548.90 588.92 548.76 L 644.50 548.50 L 644.50 493.50 Z M 681.13 562.96 C 674.63 562.31 671.45 559.25 670.51 552.77 C 670.18 550.42 670.04 521.87 670.20 489.33 L 670.50 430.16 L 672.93 427.58 C 674.26 426.16 676.96 424.55 678.93 424.00 C 681.11 423.40 705.63 423.01 741.80 423.01 C 805.78 423.00 803.72 422.84 808.85 428.33 L 811.20 430.84 L 811.35 492.71 C 811.49 550.27 811.38 554.76 809.74 557.27 C 805.95 563.06 808.45 562.83 745.00 563.18 C 712.83 563.36 684.08 563.26 681.13 562.96 Z M 796.50 493.50 L 796.50 438.50 L 740.75 438.24 L 685.00 437.98 L 685.00 493.50 L 685.00 549.02 L 740.75 548.76 L 796.50 548.50 L 796.50 493.50 Z M 368.77 560.08 L 365.50 557.16 L 365.23 494.24 L 364.96 431.32 L 367.15 428.54 C 371.55 422.94 370.79 423.00 436.02 423.00 C 501.35 423.00 499.37 422.84 503.91 428.61 C 505.98 431.24 506.00 431.90 506.00 493.73 L 506.00 556.20 L 502.60 559.60 L 499.20 563.00 L 435.62 563.00 L 372.03 563.00 L 368.77 560.08 Z M 491.47 542.75 C 491.82 539.31 491.96 514.45 491.80 487.50 L 491.50 438.50 L 435.75 438.24 L 380.00 437.98 L 380.00 493.49 L 380.00 549.00 L 435.42 549.00 L 490.84 549.00 L 491.47 542.75 Z M 220.42 412.03 C 219.27 411.57 217.14 409.76 215.67 408.02 L 213.00 404.85 L 213.00 343.15 C 213.00 275.43 212.70 278.76 219.01 275.49 C 221.48 274.22 230.75 274.00 283.05 274.00 C 337.57 274.00 344.57 274.18 347.64 275.63 C 354.21 278.75 354.00 276.54 354.00 343.50 C 354.00 396.55 353.80 404.48 352.43 407.13 C 349.37 413.05 349.94 413.01 283.28 412.94 C 249.85 412.90 221.56 412.49 220.42 412.03 Z M 339.18 396.33 C 339.35 395.41 339.38 370.88 339.23 341.83 L 338.97 289.00 L 282.98 289.00 L 227.00 289.00 L 227.00 343.50 L 227.00 398.00 L 282.93 398.00 C 334.41 398.00 338.88 397.87 339.18 396.33 Z M 371.45 411.45 C 364.76 408.15 365.00 410.69 365.00 343.55 C 365.00 276.54 364.79 278.75 371.36 275.63 C 374.43 274.18 381.39 274.00 435.43 274.00 C 500.58 274.00 500.80 274.02 504.37 279.12 C 505.83 281.21 506.00 287.75 506.00 343.50 C 506.00 412.33 506.35 408.70 499.40 411.61 C 494.24 413.76 375.84 413.62 371.45 411.45 Z M 491.76 343.25 L 492.02 289.00 L 436.01 289.00 L 380.00 289.00 L 380.00 343.51 L 380.00 398.02 L 435.75 397.76 L 491.50 397.50 L 491.76 343.25 Z M 524.10 411.75 C 522.77 411.06 520.88 409.38 519.90 408.00 C 518.22 405.67 518.08 401.29 517.80 343.96 C 517.52 285.74 517.60 282.26 519.33 279.62 C 523.04 273.96 522.55 274.00 588.50 274.00 C 653.58 274.00 653.80 274.02 657.37 279.12 C 658.83 281.21 659.00 287.76 659.00 343.71 L 659.00 405.97 L 656.08 409.23 L 653.16 412.50 L 589.83 412.75 C 540.80 412.94 525.96 412.71 524.10 411.75 Z M 644.76 343.75 L 644.50 289.50 L 588.25 289.24 L 532.00 288.98 L 532.00 343.49 L 532.00 398.00 L 588.51 398.00 L 645.02 398.00 L 644.76 343.75 Z M 676.42 411.58 C 674.57 410.78 672.65 408.78 671.61 406.60 C 670.03 403.25 669.91 398.11 670.19 342.73 C 670.53 277.20 670.31 279.61 676.31 275.95 C 679.38 274.08 681.86 274.01 740.28 274.00 C 805.71 274.00 806.06 274.03 809.33 279.17 C 810.59 281.15 810.86 290.71 811.16 342.54 C 811.54 410.56 811.91 406.65 804.70 411.04 C 801.62 412.92 799.24 412.99 740.50 412.96 C 691.76 412.93 678.88 412.65 676.42 411.58 Z M 796.39 396.42 C 796.73 395.55 797.00 371.02 797.00 341.92 L 797.00 289.00 L 741.00 289.00 L 685.00 289.00 L 685.00 343.50 L 685.00 398.00 L 740.39 398.00 C 789.98 398.00 795.85 397.83 796.39 396.42 Z" stroke-linecap="round"/>
</g>
</g>
</g>

  </svg>