<svg xmlns="http://www.w3.org/2000/svg" xmlns:xlink="http://www.w3.org/1999/xlink" width="1918px" height="1992px" viewBox="0 0 1917.744707672627 1991.8588239550527">
    <g id="736bc515-8cf4-49c6-b447-30343c86a24b">
<g style="">
		<g id="736bc515-8cf4-49c6-b447-30343c86a24b-child-0">
<path style="stroke: rgb(193,193,193); stroke-width: 0; stroke-dasharray: none; stroke-linecap: butt; stroke-dashoffset: 0; stroke-linejoin: miter; stroke-miterlimit: 4; fill: rgb(0,0,0); fill-rule: nonzero; opacity: 1;" transform="matrix(4.115509 0 0 4.115509 958.872444 995.929506) matrix(1 0 0 1 0 0)  translate(-511.990001, -512.102625)" d="M 314.11 752.42 C 301.56 749.04 289.10 739.13 284.13 728.55 C 278.91 717.45 278.90 717.27 279.21 644.82 C 279.50 577.95 279.51 577.46 281.71 572.09 C 286.96 559.28 296.32 549.84 308.78 544.81 L 314.50 542.50 L 378.90 542.22 C 435.61 541.98 443.96 542.13 448.90 543.55 C 464.59 548.05 477.09 561.02 480.49 576.33 C 481.88 582.58 482.05 592.08 481.77 650.50 C 481.48 713.32 481.35 717.81 479.57 722.50 C 473.81 737.75 461.98 748.43 446.31 752.51 C 437.97 754.68 322.23 754.60 314.11 752.42 Z M 449.50 735.33 C 455.10 732.30 461.50 725.40 464.17 719.50 C 466.26 714.91 466.48 712.75 466.82 693.30 L 467.20 672.11 L 427.85 671.80 C 389.28 671.49 388.39 671.44 382.68 669.15 C 374.70 665.94 364.95 656.70 361.03 648.65 C 356.84 640.04 355.90 631.78 356.22 606.50 L 356.50 584.50 L 364.25 584.21 L 372.00 583.92 L 372.00 609.80 L 372.00 635.68 L 375.03 641.74 C 376.71 645.11 379.61 648.99 381.53 650.46 C 388.78 655.98 388.92 656.00 429.57 656.00 L 467.20 656.00 L 466.76 618.75 C 466.37 586.49 466.08 580.86 464.56 576.76 C 462.15 570.21 455.21 562.79 448.78 559.89 L 443.50 557.50 L 380.50 557.50 C 318.26 557.50 317.44 557.53 312.88 559.64 C 302.80 564.30 296.70 572.65 294.89 584.27 C 293.40 593.85 294.24 712.47 295.83 717.22 C 297.36 721.80 302.28 728.33 307.13 732.23 C 314.39 738.08 312.79 737.96 382.00 737.72 C 445.03 737.50 445.53 737.48 449.50 735.33 Z M 577.10 752.42 C 563.95 748.88 553.23 739.87 547.23 727.32 L 543.50 719.50 L 543.50 647.50 L 543.50 575.50 L 546.72 568.71 C 551.22 559.21 559.41 550.90 568.89 546.21 L 576.39 542.50 L 640.79 542.21 C 711.18 541.90 712.15 541.97 721.98 547.72 C 728.56 551.58 736.26 559.23 739.45 565.09 C 745.00 575.28 744.98 574.93 744.98 647.50 C 744.98 701.09 744.70 715.53 743.61 719.65 C 739.24 736.04 724.44 749.95 708.11 752.99 C 704.86 753.60 678.96 753.97 642.61 753.93 C 593.39 753.88 581.52 753.61 577.10 752.42 Z M 713.33 735.03 C 719.13 732.07 724.45 726.41 727.36 720.12 C 729.48 715.55 729.50 714.84 729.50 648.00 L 729.50 580.50 L 727.14 575.27 C 724.36 569.14 717.75 562.68 711.18 559.70 C 707.05 557.83 704.22 557.53 687.25 557.18 L 668.00 556.79 L 668.00 595.68 C 668.00 637.94 667.65 641.36 662.30 651.20 C 658.68 657.85 651.25 664.51 643.22 668.32 L 636.50 671.50 L 610.75 671.82 L 585.00 672.15 L 585.00 664.07 L 585.00 656.00 L 607.75 655.99 C 620.34 655.99 632.16 655.53 634.22 654.95 C 640.11 653.32 646.19 648.11 649.25 642.06 L 652.00 636.64 L 652.00 596.74 L 652.00 556.85 L 616.25 557.20 C 587.88 557.48 579.88 557.85 577.50 558.98 C 571.45 561.87 566.31 565.94 563.66 569.94 C 557.99 578.51 557.90 579.78 558.22 650.66 L 558.50 715.50 L 561.19 720.61 C 565.25 728.30 568.45 731.57 575.24 734.96 L 581.40 738.04 L 644.95 737.77 L 708.50 737.50 L 713.33 735.03 Z M 503.21 663.75 L 503.50 655.50 L 512.50 655.50 L 521.50 655.50 L 521.79 663.75 L 522.08 672.00 L 512.50 672.00 L 502.92 672.00 L 503.21 663.75 Z M 356.00 512.00 L 356.00 503.00 L 364.00 503.00 L 372.00 503.00 L 372.00 512.00 L 372.00 521.00 L 364.00 521.00 L 356.00 521.00 L 356.00 512.00 Z M 652.00 512.00 L 652.00 503.00 L 660.50 503.00 L 669.00 503.00 L 669.00 512.00 L 669.00 521.00 L 660.50 521.00 L 652.00 521.00 L 652.00 512.00 Z M 313.10 480.42 C 297.11 476.12 284.73 463.60 280.53 447.47 C 279.23 442.47 279.00 431.84 279.00 377.47 C 279.00 309.67 279.23 305.64 283.69 296.21 C 286.92 289.37 295.75 279.86 302.42 276.05 C 313.13 269.92 313.34 269.90 383.72 270.21 L 447.61 270.50 L 455.55 274.42 C 468.44 280.79 476.97 291.10 480.47 304.53 C 481.77 309.53 482.00 320.21 482.00 375.07 C 482.00 413.86 481.60 441.88 481.00 445.11 C 477.82 462.29 464.96 476.00 447.74 480.58 C 439.90 482.67 320.94 482.52 313.10 480.42 Z M 356.01 430.25 C 356.01 410.59 356.47 391.58 357.04 388.00 C 359.25 373.91 367.84 362.16 380.51 355.92 L 387.45 352.50 L 413.22 352.19 L 439.00 351.88 L 439.00 359.35 L 439.00 366.82 L 415.25 367.16 L 391.50 367.50 L 386.18 370.45 C 383.25 372.07 379.53 375.07 377.91 377.11 C 372.15 384.39 372.00 385.66 372.00 427.67 L 372.00 466.09 L 408.75 465.80 L 445.50 465.50 L 450.64 462.79 C 457.05 459.41 462.39 453.27 464.72 446.61 C 466.36 441.89 466.49 436.49 466.35 375.30 L 466.19 309.10 L 463.76 303.80 C 460.21 296.08 456.71 292.48 449.21 288.78 L 442.54 285.50 L 380.52 285.50 L 318.50 285.50 L 313.00 288.09 C 305.07 291.83 301.49 295.26 297.86 302.64 L 294.65 309.15 L 294.58 375.32 C 294.50 438.90 294.58 441.71 296.48 446.84 C 299.24 454.28 304.24 459.73 311.44 463.13 C 317.46 465.98 317.64 466.00 336.75 466.00 L 356.00 466.00 L 356.01 430.25 Z M 578.00 480.90 C 570.98 479.53 561.42 474.32 556.03 468.94 C 553.14 466.04 549.56 460.87 547.31 456.32 L 543.50 448.61 L 543.22 378.67 C 542.91 303.20 542.86 304.07 548.22 293.57 C 553.46 283.30 566.60 273.47 578.36 271.03 C 581.98 270.28 603.77 270.02 647.13 270.21 L 710.61 270.50 L 718.33 274.32 C 728.81 279.50 735.97 286.64 740.77 296.68 L 744.50 304.50 L 744.78 373.90 C 745.07 448.77 745.12 447.96 739.78 458.43 C 734.71 468.36 721.64 478.23 710.00 480.91 C 704.44 482.19 584.56 482.18 578.00 480.90 Z M 713.72 463.24 C 719.46 460.18 724.82 454.62 727.38 449.09 C 729.48 444.55 729.50 443.70 729.50 376.50 L 729.50 308.50 L 727.14 303.27 C 724.37 297.16 717.78 290.71 711.18 287.66 C 706.58 285.54 705.54 285.50 647.72 285.21 C 610.75 285.02 586.89 285.29 583.42 285.93 C 572.48 287.95 565.72 293.10 561.12 302.91 C 558.59 308.32 558.49 309.21 558.18 330.20 L 557.86 351.89 L 597.18 352.20 L 636.50 352.50 L 643.00 355.61 C 651.10 359.49 657.54 365.18 661.71 372.14 C 667.25 381.41 668.00 386.45 668.00 414.71 L 668.00 440.00 L 660.00 440.00 L 652.00 440.00 L 652.00 413.70 C 652.00 387.43 652.00 387.38 649.42 382.22 C 646.50 376.36 642.54 372.63 636.00 369.59 C 631.69 367.59 629.93 367.50 595.00 367.50 L 558.50 367.50 L 558.24 403.45 C 558.01 433.99 558.22 440.23 559.58 444.95 C 562.19 454.01 568.06 460.60 576.50 463.94 C 581.32 465.86 583.76 465.92 645.50 465.71 L 709.50 465.50 L 713.72 463.24 Z M 503.00 359.46 L 503.00 350.92 L 512.25 351.21 L 521.50 351.50 L 521.79 359.75 L 522.08 368.00 L 512.54 368.00 L 503.00 368.00 L 503.00 359.46 Z" stroke-linecap="round"/>
</g>
</g>
</g>

  </svg>