<svg xmlns="http://www.w3.org/2000/svg" xmlns:xlink="http://www.w3.org/1999/xlink" width="643px" height="706px" viewBox="0 0 643.388278784928 706.3740856844306">
    <g id="10b95047-fbd8-4210-9b18-7441bd1c43bd">
<g style="">
		<g id="10b95047-fbd8-4210-9b18-7441bd1c43bd-child-0">
<path style="stroke: rgb(193,193,193); stroke-width: 0; stroke-dasharray: none; stroke-linecap: butt; stroke-dashoffset: 0; stroke-linejoin: miter; stroke-miterlimit: 4; fill: rgb(0,0,0); fill-rule: nonzero; opacity: 1;" transform="matrix(1.25839 0 0 1.25839 321.694038 353.186931) matrix(1 0 0 1 0 0)  translate(-511.860621, -512.165717)" d="M 468.00 791.86 C 460.87 790.68 451.30 786.17 446.26 781.61 C 441.83 777.61 440.82 777.31 439.03 779.46 C 436.70 782.27 427.46 787.75 421.32 789.98 C 415.96 791.92 413.61 792.17 403.76 791.86 C 393.01 791.52 391.99 791.30 384.87 787.78 C 375.56 783.18 368.15 775.65 363.70 766.26 L 360.50 759.50 L 360.24 552.66 L 359.98 345.82 L 363.39 342.41 C 366.34 339.46 367.46 339.00 371.68 339.00 C 374.48 339.00 377.50 339.66 378.78 340.56 C 381.64 342.56 383.99 347.12 384.02 350.70 C 384.11 361.52 397.26 372.08 408.94 370.69 C 421.11 369.25 429.97 359.97 429.99 348.65 C 430.00 346.75 431.13 344.67 433.40 342.40 C 436.17 339.63 437.56 339.00 440.95 339.00 C 443.23 339.00 446.37 339.66 447.91 340.46 C 450.95 342.02 453.99 347.35 454.02 351.15 C 454.06 354.98 457.44 361.30 461.24 364.64 C 469.04 371.49 479.28 372.71 488.58 367.90 C 494.71 364.73 498.79 358.96 499.95 351.82 C 501.02 345.22 502.33 342.83 506.07 340.62 C 514.04 335.91 523.11 340.89 524.46 350.71 C 527.30 371.33 553.85 378.17 566.53 361.55 C 568.01 359.61 569.65 355.40 570.48 351.37 C 571.60 345.99 572.58 343.90 574.97 341.75 C 578.50 338.58 584.26 338.05 588.91 340.46 C 592.02 342.06 595.00 347.39 595.00 351.34 C 595.00 360.66 607.11 371.00 618.00 370.97 C 622.96 370.95 630.21 368.08 633.85 364.69 C 637.19 361.57 639.93 355.78 640.68 350.25 C 641.64 343.20 646.12 339.00 652.68 339.00 C 655.57 339.00 658.50 339.66 659.88 340.63 C 665.28 344.41 665.00 333.03 665.00 549.83 C 665.00 680.23 664.65 752.62 663.99 756.11 C 657.76 789.52 616.53 803.62 588.45 781.96 C 585.62 779.78 583.06 778.00 582.75 778.00 C 582.44 778.00 580.23 779.64 577.84 781.65 C 560.72 796.06 536.15 796.17 517.29 781.93 L 512.01 777.94 L 506.76 782.12 C 500.36 787.20 493.23 790.49 485.46 791.92 C 478.82 793.15 475.76 793.14 468.00 791.86 Z M 413.14 767.84 C 418.11 766.35 424.52 760.86 427.03 755.93 C 428.95 752.17 429.00 749.44 429.00 639.01 C 429.00 545.18 429.23 525.37 430.38 522.64 C 434.88 511.87 449.86 512.65 452.97 523.81 C 453.64 526.23 453.99 566.28 453.99 639.79 C 454.00 749.44 454.05 752.17 455.97 755.93 C 462.92 769.57 480.54 773.08 492.14 763.15 C 500.65 755.87 499.95 769.11 499.98 613.50 C 500.01 478.79 500.06 475.43 501.95 472.57 C 504.53 468.64 507.62 467.08 512.85 467.04 C 516.49 467.01 517.76 467.56 520.60 470.40 C 522.53 472.33 524.00 474.81 524.00 476.15 C 524.01 477.44 524.12 539.92 524.25 615.00 L 524.50 751.50 L 526.72 755.64 C 532.41 766.29 543.95 771.17 555.38 767.78 C 560.77 766.18 568.48 758.54 569.91 753.38 C 570.65 750.71 570.99 714.15 571.00 636.50 C 571.01 526.49 571.06 523.42 572.95 520.57 C 575.49 516.71 578.61 515.08 583.53 515.04 C 587.88 515.00 591.25 516.82 593.24 520.30 C 594.22 522.02 594.61 547.70 595.00 637.50 L 595.50 752.50 L 598.19 757.08 C 601.50 762.71 607.45 766.78 614.54 768.27 C 619.04 769.21 620.79 769.12 625.34 767.68 C 631.81 765.64 638.27 759.29 639.92 753.35 C 640.66 750.68 640.99 694.20 640.99 569.14 C 641.00 397.76 640.91 388.82 639.25 389.52 C 630.75 393.09 626.53 394.26 620.50 394.72 C 608.92 395.59 595.53 391.08 587.09 383.46 C 584.98 381.56 583.00 380.00 582.69 380.00 C 582.38 380.00 580.11 381.74 577.66 383.86 C 560.76 398.49 534.24 398.53 517.68 383.95 C 515.21 381.78 512.89 380.00 512.53 380.00 C 512.16 380.00 509.75 381.75 507.18 383.89 C 495.43 393.67 481.16 397.01 466.22 393.49 C 458.55 391.68 453.95 389.40 447.18 384.05 L 442.00 379.95 L 436.75 384.12 C 425.81 392.82 413.49 396.21 400.33 394.17 C 396.17 393.52 390.79 392.12 388.38 391.05 L 384.00 389.11 L 383.90 391.81 C 383.84 393.29 383.88 475.04 383.98 573.48 C 384.13 718.04 384.42 753.07 385.47 755.59 C 389.60 765.46 402.30 771.09 413.14 767.84 Z M 283.91 342.57 C 273.48 338.63 265.33 331.56 260.75 322.52 C 258.08 317.24 257.58 314.90 256.71 303.42 C 256.06 294.83 256.06 285.00 256.70 274.76 C 257.57 260.93 257.99 258.54 260.42 253.57 C 264.27 245.71 271.57 238.57 279.72 234.71 C 286.38 231.56 286.75 231.50 301.00 231.50 C 314.53 231.50 315.87 231.67 321.05 234.10 C 328.37 237.54 333.53 242.20 337.19 248.69 L 340.19 254.00 L 512.35 253.97 L 684.50 253.95 L 686.34 249.97 C 688.91 244.39 695.99 237.64 702.76 234.32 C 708.28 231.61 709.07 231.50 723.52 231.50 C 738.42 231.50 738.60 231.53 745.07 234.71 C 753.58 238.90 760.54 245.84 764.41 254.00 L 767.50 260.50 L 767.50 288.00 L 767.50 315.50 L 764.56 321.50 C 760.81 329.15 753.16 336.80 745.50 340.56 C 739.88 343.32 738.62 343.52 725.50 343.83 C 712.95 344.13 710.88 343.94 705.50 341.92 C 698.39 339.26 688.10 329.70 685.95 323.75 L 684.60 320.00 L 512.05 320.00 L 339.50 320.01 L 337.71 324.36 C 335.32 330.19 327.75 337.67 321.00 340.88 C 315.97 343.27 314.29 343.52 301.50 343.72 C 291.66 343.87 286.43 343.53 283.91 342.57 Z M 312.37 318.93 L 315.00 316.85 L 315.00 287.48 C 315.00 252.34 316.19 255.00 300.53 255.00 C 288.40 255.01 284.96 256.58 281.88 263.55 C 280.06 267.65 279.91 269.86 280.19 288.85 C 280.50 309.44 280.53 309.69 283.15 313.65 C 286.94 319.38 290.80 320.95 301.12 320.98 C 308.34 321.00 310.16 320.67 312.37 318.93 Z M 736.68 318.41 C 738.23 317.26 740.51 314.83 741.75 313.01 C 743.92 309.83 744.00 308.88 744.00 287.60 C 743.99 267.31 743.83 265.23 742.01 262.24 C 738.41 256.35 734.86 255.00 723.00 255.04 C 715.85 255.05 711.94 255.49 710.75 256.39 C 709.15 257.60 709.00 260.28 709.00 286.91 L 709.00 316.10 L 711.74 318.63 C 714.34 321.05 714.95 321.16 724.17 320.84 C 732.09 320.56 734.37 320.12 736.68 318.41 Z M 686.00 287.00 L 686.00 278.00 L 512.50 278.00 L 339.00 278.00 L 339.00 287.00 L 339.00 296.00 L 512.50 296.00 L 686.00 296.00 L 686.00 287.00 Z" stroke-linecap="round"/>
</g>
</g>
</g>

  </svg>