<svg xmlns="http://www.w3.org/2000/svg" xmlns:xlink="http://www.w3.org/1999/xlink" width="500px" height="316px" viewBox="0 0 499.9999999999998 315.91747412164545">
    <g id="117699fb-a061-42ff-b508-5964866c7a02">
<g style="">
		<g id="117699fb-a061-42ff-b508-5964866c7a02-child-0">
<path style="stroke: rgb(193,193,193); stroke-width: 0; stroke-dasharray: none; stroke-linecap: butt; stroke-dashoffset: 0; stroke-linejoin: miter; stroke-miterlimit: 4; fill: rgb(0,0,0); fill-rule: nonzero; opacity: 1;" transform="matrix(0.830967 0 0 0.830967 249.999941 157.9587) matrix(1 0 0 1 0 0)  translate(-512.028174, -509.59022)" d="M 288.50 698.67 C 282.88 696.82 280.41 695.36 275.83 691.23 C 269.54 685.55 266.78 679.09 266.09 668.50 L 265.50 659.50 L 258.74 658.75 C 251.16 657.92 242.12 654.57 234.87 649.91 C 224.34 643.16 214.58 628.93 212.03 616.62 C 211.30 613.14 211.05 574.45 211.23 495.50 L 211.50 379.50 L 213.88 374.23 C 216.87 367.61 225.23 359.79 231.64 357.61 C 234.24 356.72 239.31 356.00 242.93 356.00 C 251.57 356.00 259.90 359.81 265.72 366.41 C 272.74 374.40 273.00 376.04 273.00 412.68 C 273.00 430.46 273.27 445.00 273.61 445.00 C 273.94 445.00 275.07 443.91 276.12 442.57 C 279.38 438.43 289.93 432.08 297.23 429.86 C 302.97 428.12 305.94 427.83 314.01 428.21 C 322.62 428.63 324.70 429.11 331.15 432.20 C 352.23 442.30 362.52 462.71 358.66 486.75 L 357.81 492.00 L 511.67 492.00 L 665.52 492.00 L 665.51 477.71 L 665.50 463.42 L 669.36 455.60 C 678.03 438.03 693.86 428.04 713.07 428.01 C 725.49 427.99 734.25 431.38 745.55 440.58 L 751.00 445.02 L 751.01 412.26 L 751.02 379.50 L 753.57 374.00 C 756.96 366.69 761.23 362.36 768.50 358.88 C 773.42 356.52 775.81 356.00 781.81 356.00 C 794.01 356.00 803.85 362.10 809.76 373.31 L 812.50 378.50 L 812.77 494.77 C 813.06 623.13 813.28 618.06 806.78 630.26 C 798.44 645.92 782.06 657.12 765.00 658.84 L 758.50 659.50 L 757.92 668.50 C 757.03 682.21 751.35 691.22 740.16 696.72 C 735.40 699.06 733.22 699.50 726.50 699.50 C 719.77 699.50 717.60 699.06 712.82 696.71 C 702.06 691.43 696.12 681.53 695.24 667.41 L 694.72 659.00 L 512.00 659.00 L 329.28 659.00 L 328.75 667.56 C 327.57 686.36 316.13 698.70 299.00 699.63 C 295.30 699.83 290.77 699.42 288.50 698.67 Z M 305.08 681.73 C 310.94 677.78 313.00 673.65 313.00 665.85 L 313.00 659.00 L 297.56 659.00 C 288.06 659.00 281.87 659.40 281.48 660.03 C 280.21 662.09 282.22 674.03 284.37 677.18 C 288.95 683.88 298.70 686.02 305.08 681.73 Z M 734.40 681.73 C 739.84 678.61 742.00 674.08 742.00 665.77 L 742.00 659.00 L 726.39 659.00 L 710.79 659.00 L 711.15 666.93 C 711.42 672.95 712.00 675.52 713.54 677.58 C 718.29 683.95 727.38 685.76 734.40 681.73 Z M 774.18 640.34 C 786.19 634.64 794.30 624.61 796.89 612.20 C 798.48 604.63 798.45 387.65 796.87 382.90 C 793.38 372.46 781.41 368.01 772.98 374.02 C 766.09 378.92 766.55 371.56 766.00 484.00 L 765.50 585.50 L 762.71 591.19 C 759.11 598.52 750.78 606.19 743.46 608.93 L 737.92 611.00 L 512.00 611.00 L 286.08 611.00 L 280.54 608.93 C 273.28 606.21 265.23 598.79 261.45 591.34 L 258.50 585.50 L 258.00 484.00 L 257.50 382.50 L 255.21 378.82 C 252.21 373.99 245.26 370.53 240.21 371.35 C 233.83 372.39 228.57 377.64 226.96 384.58 C 225.65 390.20 225.74 602.79 227.05 610.86 C 229.58 626.48 241.04 638.84 256.50 642.62 C 260.38 643.57 318.13 643.80 514.50 643.67 L 767.50 643.50 L 774.18 640.34 Z M 735.04 594.90 C 742.40 593.32 748.36 587.42 749.88 580.20 C 751.62 571.96 751.36 560.35 749.42 559.61 C 748.55 559.27 641.29 559.00 511.06 559.00 L 274.29 559.00 L 273.66 565.77 C 272.08 582.80 277.51 592.54 290.00 595.06 C 296.15 596.30 729.24 596.14 735.04 594.90 Z M 750.77 525.25 C 750.92 515.21 750.88 507.00 750.69 507.00 C 750.49 507.00 748.35 508.86 745.92 511.13 C 743.49 513.40 737.71 517.10 733.07 519.34 C 725.45 523.03 723.74 523.46 715.38 523.83 C 707.99 524.15 704.73 523.81 699.19 522.13 C 692.12 519.98 682.43 514.22 678.08 509.58 L 675.65 507.00 L 512.00 507.00 L 348.35 507.00 L 345.92 509.58 C 338.01 518.01 323.76 524.00 311.60 524.00 C 298.97 524.00 289.50 520.60 279.54 512.49 L 274.00 507.98 L 273.83 519.74 C 273.74 526.21 273.60 533.97 273.52 537.00 C 273.44 540.03 273.54 542.84 273.75 543.25 C 273.95 543.67 381.31 543.89 512.31 543.75 L 750.50 543.50 L 750.77 525.25 Z M 324.14 506.09 C 331.50 502.59 336.60 497.56 340.19 490.26 C 343.03 484.50 343.47 482.56 343.47 476.00 C 343.47 469.45 343.03 467.50 340.22 461.79 C 334.39 449.95 324.20 443.62 311.01 443.64 C 301.81 443.66 296.11 445.94 289.24 452.37 C 281.60 459.52 279.50 464.61 279.50 476.00 C 279.50 483.91 279.89 486.29 281.81 490.19 C 285.82 498.33 293.83 505.11 303.00 508.12 C 307.45 509.59 319.14 508.47 324.14 506.09 Z M 726.58 505.96 C 732.98 502.87 739.54 496.19 742.55 489.71 C 745.96 482.39 745.99 470.67 742.62 463.43 C 732.57 441.86 706.34 436.66 689.98 453.02 C 675.77 467.23 677.87 491.63 694.28 502.82 C 704.03 509.48 716.76 510.71 726.58 505.96 Z M 646.99 376.25 C 646.43 375.29 644.94 372.49 643.67 370.03 C 641.85 366.48 640.16 364.94 635.44 362.51 C 630.68 360.07 629.44 358.93 629.19 356.77 C 628.90 354.33 629.49 353.80 635.38 351.13 C 641.42 348.39 642.10 347.74 644.99 342.03 C 647.73 336.58 648.40 335.91 650.73 336.19 C 652.83 336.44 654.01 337.73 656.44 342.44 C 659.11 347.62 660.25 348.76 665.50 351.44 C 670.42 353.95 671.50 354.95 671.50 357.00 C 671.50 359.05 670.41 360.06 665.50 362.58 C 660.13 365.34 659.18 366.32 656.50 371.83 C 653.91 377.16 653.13 378.00 650.76 378.00 C 649.20 378.00 647.57 377.24 646.99 376.25 Z M 704.70 360.24 C 703.68 360.01 701.88 357.53 700.53 354.47 C 698.43 349.72 697.48 348.76 692.15 346.08 C 688.85 344.41 685.85 342.56 685.48 341.97 C 683.84 339.32 686.12 336.41 692.31 333.22 C 697.91 330.34 698.97 329.32 701.09 324.72 C 703.21 320.13 703.86 319.50 706.49 319.50 C 709.01 319.50 709.78 320.14 711.34 323.50 C 713.90 329.01 716.22 331.29 722.01 334.00 C 729.67 337.59 729.87 341.74 722.50 344.55 C 717.38 346.51 713.69 350.10 711.55 355.21 C 709.89 359.20 707.58 360.90 704.70 360.24 Z" stroke-linecap="round"/>
</g>
</g>
</g>

  </svg>