<svg xmlns="http://www.w3.org/2000/svg" xmlns:xlink="http://www.w3.org/1999/xlink" width="500px" height="429px" viewBox="0 0 500 428.9282178558635">
    <g id="db1e6ac4-2be3-442d-ae2a-f0731c3274f0">
<g style="">
		<g id="db1e6ac4-2be3-442d-ae2a-f0731c3274f0-child-0">
<path style="stroke: rgb(193,193,193); stroke-width: 0; stroke-dasharray: none; stroke-linecap: butt; stroke-dashoffset: 0; stroke-linejoin: miter; stroke-miterlimit: 4; fill: rgb(0,0,0); fill-rule: nonzero; opacity: 1;" transform="matrix(0.980407 0 0 0.980407 249.999909 214.464031) matrix(1 0 0 1 0 0)  translate(-511.994314, -512.25)" d="M 387.44 727.93 L 384.50 724.86 L 384.82 707.18 C 385.16 688.12 385.73 685.81 390.62 683.96 C 392.00 683.43 401.99 683.00 412.82 683.00 L 432.50 682.99 L 437.30 665.75 C 439.94 656.26 442.07 648.16 442.05 647.75 C 442.02 647.34 409.24 647.00 369.21 647.00 C 291.57 647.00 290.71 646.95 281.10 642.05 C 270.70 636.74 260.63 623.23 258.11 611.20 C 257.33 607.47 257.00 565.48 257.00 469.16 C 257.00 320.29 256.74 327.36 262.59 315.82 C 266.33 308.43 274.67 300.53 282.73 296.71 L 289.50 293.50 L 512.05 293.50 L 734.60 293.50 L 742.14 297.23 C 753.90 303.03 762.24 313.15 765.45 325.46 C 766.81 330.71 767.00 347.90 766.99 469.46 C 766.98 617.53 767.16 611.84 761.99 622.53 C 759.12 628.44 750.90 637.39 745.33 640.65 C 742.91 642.07 738.20 644.08 734.88 645.12 C 729.18 646.89 724.49 647.00 654.84 647.00 C 584.85 647.00 580.89 647.09 581.40 648.75 C 581.69 649.71 583.77 657.03 586.02 665.00 C 588.27 672.97 590.34 680.29 590.62 681.25 C 591.09 682.84 592.94 683.00 611.00 683.00 C 621.93 683.00 632.00 683.43 633.38 683.96 C 638.37 685.85 639.35 689.00 639.82 704.55 C 640.33 721.46 639.82 724.90 636.34 728.39 L 633.73 731.00 L 512.05 731.00 L 390.37 731.00 L 387.44 727.93 Z M 621.00 707.00 L 621.00 702.00 L 512.50 702.00 L 404.00 702.00 L 404.00 707.00 L 404.00 712.00 L 512.50 712.00 L 621.00 712.00 L 621.00 707.00 Z M 466.41 677.75 C 470.97 661.40 474.11 650.29 474.60 648.70 C 475.11 647.08 474.55 646.93 468.87 647.20 L 462.58 647.50 L 457.82 664.00 C 455.20 673.08 453.04 681.06 453.03 681.75 C 453.01 682.61 454.85 683.00 458.97 683.00 L 464.94 683.00 L 466.41 677.75 Z M 538.53 680.25 C 538.18 678.74 536.00 670.75 533.67 662.50 L 529.45 647.50 L 512.11 647.50 L 494.77 647.50 L 490.55 662.50 C 488.23 670.75 486.02 678.74 485.65 680.25 L 484.96 683.00 L 512.06 683.00 L 539.16 683.00 L 538.53 680.25 Z M 570.52 681.75 C 570.30 681.06 568.26 673.75 566.01 665.50 C 563.75 657.25 561.67 649.71 561.38 648.75 C 560.64 646.25 550.00 646.16 550.00 648.65 C 550.00 650.17 555.74 672.11 558.14 679.75 C 559.13 682.93 559.28 683.00 565.05 683.00 C 569.31 683.00 570.82 682.66 570.52 681.75 Z M 729.03 627.01 C 739.82 624.01 746.87 615.53 747.76 604.46 L 748.27 598.00 L 512.14 598.00 L 276.00 598.00 L 276.01 602.25 C 276.01 608.93 277.70 613.37 282.13 618.41 C 286.14 622.96 289.96 625.53 294.99 627.07 C 298.84 628.24 724.82 628.18 729.03 627.01 Z M 747.50 454.19 L 747.50 329.50 L 745.18 324.78 C 743.84 322.07 741.08 318.76 738.68 316.99 C 729.95 310.56 745.61 310.96 509.46 311.24 L 294.50 311.50 L 289.31 314.24 C 286.46 315.74 282.98 318.47 281.58 320.30 C 275.72 327.99 276.00 321.19 276.00 455.56 L 276.00 578.87 L 278.75 579.18 C 280.26 579.36 386.35 579.36 514.50 579.19 L 747.50 578.88 L 747.50 454.19 Z M 291.40 564.60 L 288.00 561.20 L 288.00 538.05 C 288.00 512.53 288.44 510.30 293.89 508.05 C 297.56 506.53 302.17 507.43 304.65 510.16 C 306.29 511.97 306.54 514.37 306.81 531.10 L 307.12 550.00 L 511.81 549.75 L 716.50 549.50 L 716.75 445.75 L 717.01 342.00 L 700.46 342.00 C 682.13 342.00 679.18 341.27 677.08 336.20 C 675.56 332.53 676.48 328.84 679.66 325.84 C 682.09 323.56 682.69 323.49 703.56 323.20 C 721.77 322.94 725.48 323.14 728.42 324.53 C 735.62 327.95 735.08 318.55 735.39 444.80 C 735.68 565.86 735.79 562.93 730.88 566.37 C 728.75 567.86 710.56 568.00 511.68 568.00 L 294.80 568.00 L 291.40 564.60 Z M 294.50 480.05 C 293.40 479.60 291.60 478.24 290.50 477.01 C 288.54 474.83 288.50 473.38 288.50 402.48 L 288.50 330.16 L 290.94 327.56 C 292.28 326.14 294.98 324.50 296.94 323.94 C 299.33 323.25 357.25 323.01 473.67 323.21 L 646.84 323.50 L 649.42 325.92 C 653.31 329.58 653.08 335.91 648.92 339.41 L 645.85 342.00 L 476.42 342.00 L 307.00 342.00 L 307.00 407.45 C 307.00 454.27 306.68 473.62 305.86 475.40 C 305.24 476.78 303.25 478.60 301.46 479.45 C 297.82 481.18 297.35 481.22 294.50 480.05 Z M 323.30 452.50 C 319.95 450.15 318.98 445.42 319.25 432.76 C 319.49 421.46 319.60 420.94 322.25 418.29 C 326.14 414.40 332.24 414.42 335.61 418.33 C 337.88 420.97 338.00 421.81 338.00 434.63 L 338.00 448.15 L 335.08 451.08 C 331.76 454.40 326.85 454.99 323.30 452.50 Z M 323.78 402.50 C 315.04 397.58 318.77 384.00 328.85 384.00 C 334.92 384.00 339.00 387.83 339.00 393.53 C 339.00 399.36 335.95 402.96 330.50 403.58 C 327.99 403.86 325.48 403.46 323.78 402.50 Z M 413.36 403.01 C 410.05 401.68 408.00 397.98 408.00 393.37 C 408.00 389.92 408.54 388.72 411.08 386.59 C 421.21 378.06 434.42 391.73 425.08 401.08 C 422.03 404.12 417.83 404.81 413.36 403.01 Z M 353.45 400.55 C 351.65 398.74 351.00 397.01 351.00 394.00 C 351.00 390.99 351.65 389.26 353.45 387.45 C 355.87 385.03 356.15 385.00 373.53 385.00 L 391.15 385.00 L 394.20 388.05 C 396.83 390.68 397.17 391.60 396.66 394.80 C 396.31 397.01 395.02 399.41 393.48 400.75 C 391.00 402.90 390.10 403.00 373.40 403.00 C 356.16 403.00 355.87 402.96 353.45 400.55 Z M 327.26 372.09 C 320.89 370.45 318.17 366.03 320.05 360.34 C 322.29 353.57 312.52 354.00 463.87 354.00 L 600.85 354.00 L 603.92 356.59 C 608.04 360.05 608.22 365.50 604.36 369.36 L 601.73 372.00 L 520.11 372.02 C 475.23 372.04 414.20 372.24 384.50 372.48 C 354.80 372.72 329.04 372.54 327.26 372.09 Z" stroke-linecap="round"/>
</g>
</g>
</g>

  </svg>