<svg xmlns="http://www.w3.org/2000/svg" xmlns:xlink="http://www.w3.org/1999/xlink" width="633px" height="376px" viewBox="0 0 632.800685998508 375.65195007494185">
    <g id="3a3671c1-8df2-4912-941a-468bd8966d3b">
<g style="">
		<g id="3a3671c1-8df2-4912-941a-468bd8966d3b-child-0">
<path style="stroke: rgb(193,193,193); stroke-width: 0; stroke-dasharray: none; stroke-linecap: butt; stroke-dashoffset: 0; stroke-linejoin: miter; stroke-miterlimit: 4; fill: rgb(0,0,0); fill-rule: nonzero; opacity: 1;" transform="matrix(0.854964 0 0 0.854964 316.400175 187.825875) matrix(1 0 0 1 0 0)  translate(-512.125734, -527.688637)" d="M 211.34 746.94 C 198.54 744.46 189.00 733.14 189.00 720.44 C 189.00 718.13 190.11 705.05 191.47 691.37 C 192.82 677.69 195.08 653.90 196.49 638.50 C 197.89 623.10 200.38 596.55 202.01 579.50 C 206.44 533.31 210.62 488.87 213.46 458.00 C 214.84 442.88 216.24 428.59 216.55 426.25 L 217.12 422.00 L 189.53 422.00 C 159.95 422.00 158.32 421.77 151.53 416.59 C 149.83 415.30 147.13 411.82 145.51 408.87 C 142.70 403.71 142.56 402.89 142.18 387.99 C 141.68 368.96 142.31 366.94 150.12 362.31 C 153.08 360.55 174.84 347.61 198.48 333.56 L 241.46 308.00 L 511.98 308.01 L 782.50 308.01 L 795.50 315.78 C 802.65 320.04 823.58 332.47 842.00 343.39 C 860.42 354.31 877.01 364.81 878.85 366.72 L 882.20 370.19 L 881.84 386.84 C 881.52 401.85 881.26 403.97 879.16 408.25 C 876.36 413.94 870.45 419.25 865.14 420.84 C 862.62 421.59 851.95 422.00 834.63 422.00 L 808.00 422.00 L 808.00 425.86 C 808.00 427.98 808.67 436.42 809.48 444.61 C 810.30 452.80 813.44 486.50 816.46 519.50 C 819.48 552.50 824.92 610.55 828.55 648.50 C 832.25 687.18 834.94 719.80 834.65 722.73 C 833.32 736.60 821.38 747.39 807.50 747.25 C 800.16 747.17 795.21 745.16 789.55 739.94 C 782.00 732.98 781.35 730.30 777.98 692.29 C 769.90 601.27 761.47 516.14 760.42 515.08 C 760.19 514.85 760.00 515.37 760.00 516.23 C 760.00 521.55 747.85 644.85 747.02 647.92 C 744.95 655.62 738.15 662.63 729.94 665.52 C 712.78 671.58 694.00 658.48 694.00 640.47 C 694.00 638.17 695.13 623.89 696.51 608.74 L 699.01 581.18 L 619.26 501.62 L 539.50 422.05 L 511.45 422.02 L 483.40 422.00 L 404.07 501.49 L 324.74 580.99 L 327.56 611.97 C 330.33 642.37 330.35 643.05 328.59 648.62 C 325.31 659.03 314.55 667.00 303.76 667.00 C 292.70 667.00 283.82 661.51 279.15 651.81 C 276.36 646.01 275.95 643.72 274.06 623.50 C 269.36 573.21 264.90 527.09 264.15 521.00 L 263.35 514.50 L 262.72 519.00 C 262.37 521.47 261.61 528.45 261.04 534.50 C 260.46 540.55 257.31 573.62 254.02 608.00 C 250.74 642.38 246.91 682.88 245.51 698.00 C 243.93 715.06 242.34 727.19 241.33 729.94 C 236.97 741.75 223.61 749.32 211.34 746.94 Z M 221.36 724.75 C 222.13 723.51 223.04 719.58 223.38 716.00 C 223.71 712.42 225.78 690.15 227.97 666.50 C 232.22 620.52 244.38 493.79 248.50 452.44 C 251.88 418.57 252.32 422.00 244.55 422.00 L 238.09 422.00 L 237.55 425.25 C 237.26 427.04 235.65 442.67 233.98 460.00 C 232.31 477.33 230.06 500.50 228.98 511.50 C 227.90 522.50 224.54 557.83 221.50 590.00 C 218.46 622.17 214.41 664.71 212.49 684.52 C 210.57 704.34 209.00 721.01 209.00 721.59 C 209.00 722.16 209.92 723.61 211.04 724.81 C 213.86 727.84 219.45 727.80 221.36 724.75 Z M 813.16 724.00 C 814.99 721.54 814.93 720.52 810.05 669.00 C 807.32 640.12 804.17 606.83 803.06 595.00 C 801.95 583.17 799.21 554.15 796.97 530.50 C 794.74 506.85 791.80 475.58 790.44 461.00 C 789.09 446.42 787.69 431.69 787.35 428.25 L 786.72 422.00 L 779.80 422.00 L 772.88 422.00 L 773.45 426.25 C 774.07 430.83 776.33 454.59 783.49 531.50 C 786.00 558.45 789.81 599.17 791.96 622.00 C 794.10 644.83 797.11 676.91 798.64 693.29 C 801.01 718.63 801.71 723.38 803.30 725.10 C 805.85 727.83 810.71 727.29 813.16 724.00 Z M 307.87 644.64 L 310.08 642.28 L 306.57 605.39 C 304.64 585.10 301.68 553.42 299.98 535.00 C 298.28 516.58 295.23 483.73 293.19 462.00 L 289.49 422.50 L 282.74 422.20 C 276.39 421.93 276.00 422.03 276.00 424.09 C 276.00 425.29 277.57 442.75 279.49 462.89 C 281.41 483.02 285.24 523.80 288.00 553.50 C 296.55 645.42 296.16 641.94 298.26 644.60 C 300.72 647.73 304.95 647.74 307.87 644.64 Z M 725.75 644.59 C 727.19 642.76 727.94 639.18 728.82 629.84 C 729.46 623.05 732.47 590.50 735.52 557.50 C 738.57 524.50 742.62 481.83 744.53 462.67 C 746.44 443.51 748.00 426.53 748.00 424.92 L 748.00 422.00 L 741.00 422.00 C 734.77 422.00 734.00 422.21 734.00 423.91 C 734.00 426.66 727.04 503.12 720.03 577.35 C 716.72 612.47 714.30 641.72 714.66 642.35 C 717.61 647.58 722.61 648.58 725.75 644.59 Z M 444.77 422.21 L 435.53 421.92 L 378.28 479.71 C 323.94 534.56 321.03 537.68 321.01 541.11 C 321.01 543.10 321.29 546.85 321.65 549.46 L 322.30 554.20 L 388.16 488.35 L 454.01 422.50 L 444.77 422.21 Z M 702.93 543.65 L 703.00 536.79 L 645.29 479.40 L 587.58 422.00 L 578.79 422.00 C 573.95 422.00 570.00 422.12 570.00 422.27 C 570.00 422.41 599.58 452.11 635.74 488.25 C 687.52 540.01 701.63 553.60 702.17 552.24 C 702.55 551.28 702.89 547.42 702.93 543.65 Z M 709.98 468.00 C 711.65 447.92 713.28 429.36 713.60 426.75 L 714.19 422.00 L 665.34 422.00 L 616.50 422.01 L 661.00 466.47 L 705.50 510.94 L 706.22 507.72 C 706.61 505.95 708.30 488.08 709.98 468.00 Z M 368.00 461.30 L 407.50 422.04 L 358.75 422.02 C 318.43 422.00 310.00 422.23 310.00 423.35 C 310.00 425.06 316.73 497.66 317.55 504.81 L 318.16 510.12 L 323.33 505.34 C 326.17 502.71 346.27 482.89 368.00 461.30 Z M 859.37 400.72 C 860.74 399.71 861.05 398.27 860.81 393.97 L 860.50 388.50 L 511.75 388.25 L 163.00 388.00 L 163.00 393.43 C 163.00 397.03 163.53 399.39 164.57 400.43 C 165.99 401.85 198.91 402.00 511.88 402.00 C 791.27 402.00 857.95 401.75 859.37 400.72 Z M 810.37 348.25 L 777.50 328.50 L 512.00 328.50 L 246.50 328.50 L 223.00 342.61 C 210.07 350.37 195.23 359.25 190.00 362.35 L 180.50 367.99 L 511.87 368.00 L 843.24 368.00 L 810.37 348.25 Z" stroke-linecap="round"/>
</g>
</g>
</g>

  </svg>