<svg xmlns="http://www.w3.org/2000/svg" xmlns:xlink="http://www.w3.org/1999/xlink" width="500px" height="304px" viewBox="0 0 499.9999999999998 303.7324223593446">
    <g id="6d953052-1c9a-4fed-9e49-7d136961ebd7">
<g style="">
		<g id="6d953052-1c9a-4fed-9e49-7d136961ebd7-child-0">
<path style="stroke: rgb(193,193,193); stroke-width: 0; stroke-dasharray: none; stroke-linecap: butt; stroke-dashoffset: 0; stroke-linejoin: miter; stroke-miterlimit: 4; fill: rgb(0,0,0); fill-rule: nonzero; opacity: 1;" transform="matrix(0.678198 0 0 0.678198 250.000003 151.866213) matrix(1 0 0 1 0 0)  translate(-511.859439, -512.03557)" d="M 172.50 734.34 C 167.85 731.89 163.92 727.88 161.90 723.50 C 160.12 719.67 160.04 713.61 160.02 578.42 L 160.00 437.34 L 157.39 435.94 C 155.95 435.17 152.80 432.34 150.38 429.66 C 143.12 421.58 141.17 410.37 145.56 401.88 C 149.03 395.17 224.92 295.42 228.20 293.26 C 236.77 287.61 216.63 287.96 514.00 288.24 L 787.50 288.50 L 792.50 291.15 C 795.25 292.61 798.55 294.93 799.83 296.30 C 804.17 300.96 876.94 398.48 878.70 402.00 C 881.41 407.42 880.98 417.26 877.76 423.54 C 875.27 428.40 867.13 437.00 865.02 437.00 C 864.33 437.00 864.00 482.34 864.00 577.13 C 864.00 679.24 863.69 718.30 862.86 721.08 C 861.34 726.15 856.72 731.59 851.82 734.09 C 848.18 735.95 846.32 736.10 830.09 735.81 C 812.61 735.50 812.28 735.46 808.17 732.73 C 802.61 729.05 798.39 723.02 797.07 716.90 C 796.48 714.15 796.00 701.62 796.00 689.06 L 796.00 666.22 L 781.75 665.81 C 769.66 665.46 766.88 665.08 763.43 663.27 C 758.94 660.92 752.58 654.39 750.71 650.20 C 749.81 648.20 749.37 626.93 749.00 568.00 L 748.50 488.50 L 512.00 488.50 L 275.50 488.50 L 275.00 568.00 C 274.44 656.45 274.97 650.04 267.64 657.84 C 261.61 664.25 258.10 665.36 242.32 665.81 L 228.15 666.22 L 227.81 691.86 C 227.44 719.95 227.19 721.29 221.11 728.22 C 215.20 734.95 211.28 736.01 192.26 735.96 C 178.98 735.93 174.88 735.59 172.50 734.34 Z M 204.86 712.67 C 205.65 711.72 206.04 679.71 206.23 600.92 L 206.50 490.50 L 209.30 484.80 C 210.92 481.51 214.20 477.21 217.06 474.64 C 226.39 466.24 197.09 467.00 512.93 467.01 L 794.50 467.02 L 799.67 469.43 C 805.89 472.32 812.04 478.42 815.19 484.81 L 817.50 489.50 L 817.77 600.42 C 817.96 679.58 818.35 711.72 819.14 712.67 C 819.94 713.63 823.28 714.00 831.12 714.00 L 842.00 714.00 L 842.00 577.00 L 842.00 440.00 L 512.00 440.00 L 182.00 440.00 L 182.00 577.00 L 182.00 714.00 L 192.88 714.00 C 200.72 714.00 204.06 713.63 204.86 712.67 Z M 251.85 642.68 C 252.62 641.75 253.03 618.67 253.23 565.24 L 253.50 489.12 L 246.34 488.45 C 237.34 487.61 232.56 489.04 229.93 493.35 C 228.08 496.38 228.01 499.30 228.00 570.25 L 228.00 644.00 L 239.38 644.00 C 247.59 644.00 251.06 643.63 251.85 642.68 Z M 796.00 569.14 L 796.00 494.27 L 793.43 491.70 C 790.12 488.39 786.50 487.65 777.93 488.51 L 771.00 489.20 L 771.00 565.55 C 771.00 637.21 771.11 641.96 772.75 642.92 C 773.71 643.48 779.34 643.95 785.25 643.97 L 796.00 644.00 L 796.00 569.14 Z M 855.69 415.83 C 856.96 414.63 858.00 412.70 858.00 411.53 C 858.00 409.62 845.25 392.28 798.28 330.33 C 790.70 320.33 783.31 311.44 781.85 310.58 C 779.45 309.15 753.38 309.00 512.00 309.00 C 267.09 309.00 244.58 309.14 242.06 310.63 C 240.54 311.52 230.35 324.23 219.40 338.88 C 208.46 353.52 191.97 375.40 182.76 387.50 C 172.62 400.82 166.01 410.39 166.01 411.75 C 166.00 412.99 166.90 414.90 168.00 416.00 C 169.99 417.99 171.33 418.00 511.69 418.00 L 853.37 418.00 L 855.69 415.83 Z" stroke-linecap="round"/>
</g>
</g>
</g>

  </svg>