<svg xmlns="http://www.w3.org/2000/svg" xmlns:xlink="http://www.w3.org/1999/xlink" width="500px" height="370px" viewBox="0 0 499.9999999999998 370.1172573470801">
    <g id="b312ba8d-212c-4c69-ac1d-33f89cb0ca1c">
<g style="">
		<g id="b312ba8d-212c-4c69-ac1d-33f89cb0ca1c-child-0">
<path style="stroke: rgb(193,193,193); stroke-width: 0; stroke-dasharray: none; stroke-linecap: butt; stroke-dashoffset: 0; stroke-linejoin: miter; stroke-miterlimit: 4; fill: rgb(0,0,0); fill-rule: nonzero; opacity: 1;" transform="matrix(0.919064 0 0 0.919064 249.99996 185.058599) matrix(1 0 0 1 0 0)  translate(-512.104167, -494.382662)" d="M 255.11 694.50 C 252.69 693.75 248.98 691.44 246.87 689.37 C 239.57 682.25 239.84 685.48 240.27 608.96 C 240.60 550.20 240.89 539.08 242.36 530.50 C 253.45 465.54 280.28 413.18 324.64 369.97 C 339.53 355.45 350.09 346.82 365.50 336.57 C 421.39 299.39 490.67 285.32 559.99 297.07 C 598.92 303.66 638.44 320.80 671.38 345.37 C 724.94 385.32 763.23 443.61 777.54 506.97 C 783.35 532.72 783.31 532.07 783.73 608.02 L 784.12 678.54 L 781.27 684.01 C 779.17 688.02 777.12 690.27 773.53 692.48 L 768.66 695.50 L 514.08 695.69 C 300.50 695.85 258.79 695.65 255.11 694.50 Z M 501.00 576.53 L 501.00 479.05 L 497.75 479.62 C 465.87 485.16 438.01 511.05 429.52 543.00 C 428.38 547.27 427.53 555.85 427.04 568.00 C 426.62 578.26 425.75 587.84 425.08 589.50 C 423.38 593.73 419.18 597.94 414.50 600.10 C 410.72 601.85 406.39 601.96 336.25 601.98 L 262.00 602.00 L 262.00 638.00 L 262.00 674.00 L 381.50 674.00 L 501.00 674.00 L 501.00 576.53 Z M 761.74 607.75 C 761.30 534.69 761.24 533.93 754.51 507.00 C 749.88 488.49 744.95 475.25 735.90 457.00 C 715.50 415.86 685.38 381.41 648.00 356.48 C 603.90 327.06 556.50 313.56 503.50 315.33 C 466.69 316.57 437.39 323.86 404.50 339.98 C 355.24 364.13 314.26 405.34 289.07 456.07 C 271.23 491.99 262.00 530.38 262.00 568.61 L 262.00 580.00 L 292.00 580.00 L 322.00 580.00 L 322.00 568.96 C 322.00 495.34 363.21 427.46 427.50 395.20 C 441.39 388.22 451.51 384.35 464.72 380.94 C 525.67 365.23 591.61 381.40 637.83 423.41 C 668.94 451.68 688.94 486.45 697.60 527.34 C 699.76 537.54 700.26 543.06 700.71 561.66 C 701.01 573.86 700.95 585.45 700.58 587.44 C 699.75 591.84 695.00 597.45 689.88 600.06 C 686.32 601.88 683.76 602.00 649.79 601.98 C 616.75 601.96 613.14 601.79 609.46 600.12 C 605.21 598.19 600.53 593.36 598.74 589.06 C 598.16 587.65 597.34 577.95 596.92 567.50 C 596.06 545.87 595.03 540.97 588.46 527.35 C 580.08 509.96 566.65 496.40 549.50 488.00 C 540.03 483.37 529.76 480.00 525.11 480.00 L 523.00 480.00 L 523.00 577.00 L 523.00 674.00 L 642.57 674.00 L 762.14 674.00 L 761.74 607.75 Z M 404.02 569.25 C 404.08 538.25 413.93 512.45 434.00 490.74 C 455.07 467.96 480.97 456.78 512.50 456.88 C 543.32 456.97 568.30 467.78 589.63 490.24 C 610.29 512.00 619.96 537.65 619.99 570.75 L 620.00 580.00 L 649.45 580.00 L 678.89 580.00 L 679.20 575.25 C 679.36 572.64 679.21 564.20 678.85 556.50 C 676.40 503.91 647.97 454.52 603.00 424.75 C 554.56 392.68 493.30 388.23 441.24 413.00 C 382.55 440.94 344.00 502.80 344.00 569.05 L 344.00 580.00 L 374.00 580.00 L 404.00 580.00 L 404.02 569.25 Z" stroke-linecap="round"/>
</g>
</g>
</g>

  </svg>