<svg xmlns="http://www.w3.org/2000/svg" xmlns:xlink="http://www.w3.org/1999/xlink" width="337px" height="501px" viewBox="0 0 336.58207614607613 500">
    <g id="38942e7d-fe4a-468b-8818-f29a9240dfdd">
<g style="">
		<g id="38942e7d-fe4a-468b-8818-f29a9240dfdd-child-0">
<path style="stroke: rgb(193,193,193); stroke-width: 0; stroke-dasharray: none; stroke-linecap: butt; stroke-dashoffset: 0; stroke-linejoin: miter; stroke-miterlimit: 4; fill: rgb(0,0,0); fill-rule: nonzero; opacity: 1;" transform="matrix(0.777001 0 0 0.777001 168.291086 250.000072) matrix(1 0 0 1 0 0)  translate(-512.058593, -512.25)" d="M 317.88 832.68 C 309.05 829.38 301.36 822.30 297.72 814.12 C 293.64 804.97 293.88 802.15 308.92 681.11 C 316.66 618.74 323.00 566.99 323.00 566.11 C 323.00 565.22 320.99 563.43 318.53 562.12 C 312.43 558.89 304.45 550.21 301.20 543.25 C 298.78 538.10 298.50 536.36 298.50 526.50 C 298.50 516.22 298.71 515.06 301.67 508.80 C 305.61 500.50 311.90 494.08 320.17 489.94 C 323.65 488.19 326.62 486.66 326.77 486.52 C 327.08 486.26 332.60 443.09 346.00 336.00 C 351.03 295.83 355.97 260.20 357.07 256.10 C 365.55 224.76 389.67 201.30 422.58 192.37 C 429.09 190.61 434.47 190.50 512.50 190.50 L 595.50 190.50 L 604.14 193.21 C 615.88 196.90 622.92 200.13 631.13 205.59 C 647.93 216.75 660.97 234.21 666.93 253.50 C 668.48 258.50 671.95 284.23 679.06 343.50 C 684.53 389.15 690.65 440.08 692.66 456.68 L 696.30 486.86 L 698.83 487.49 C 703.07 488.56 709.97 493.07 714.86 497.97 C 732.98 516.11 729.20 547.13 707.13 561.41 C 701.88 564.82 701.17 565.64 701.58 567.91 C 702.05 570.50 707.20 613.61 721.54 735.00 C 726.31 775.33 728.96 801.31 728.62 804.33 C 727.38 815.36 719.92 825.88 709.76 830.96 C 704.59 833.55 702.54 834.00 696.09 834.00 C 682.84 834.00 672.01 827.11 666.38 815.10 C 664.93 812.02 663.67 809.40 663.57 809.28 C 663.47 809.16 661.39 810.06 658.95 811.28 C 652.40 814.55 642.24 814.35 635.46 810.81 C 629.14 807.51 622.81 800.73 620.66 794.94 C 619.70 792.34 615.70 764.18 611.01 727.00 C 606.61 692.08 601.63 652.92 599.95 640.00 C 598.26 627.08 596.62 614.36 596.30 611.74 L 595.72 606.99 L 512.11 607.24 L 428.50 607.50 L 424.80 635.50 C 422.76 650.90 417.68 689.83 413.51 722.00 C 409.33 754.17 405.47 783.36 404.92 786.85 C 403.15 798.17 397.59 806.14 388.00 811.12 C 381.72 814.38 370.41 814.45 364.05 811.28 C 361.61 810.06 359.55 809.16 359.48 809.28 C 359.41 809.40 358.58 811.60 357.63 814.17 C 355.32 820.38 349.42 826.91 342.87 830.48 C 338.48 832.86 336.09 833.44 329.51 833.71 C 324.46 833.91 320.16 833.53 317.88 832.68 Z M 331.52 809.56 C 333.72 808.64 335.52 806.91 336.47 804.81 C 337.84 801.76 345.00 749.48 359.52 636.50 C 362.55 612.85 365.56 592.21 366.19 590.63 C 368.67 584.44 378.17 581.99 383.49 586.17 C 388.77 590.32 389.17 593.03 386.94 609.64 C 385.84 617.81 382.02 647.00 378.45 674.50 C 374.87 702.00 370.38 736.25 368.47 750.61 C 364.22 782.60 364.19 783.91 367.64 787.36 C 372.26 791.98 380.18 790.19 381.41 784.25 C 381.73 782.74 385.82 751.58 390.51 715.00 C 404.14 608.65 404.96 602.72 406.60 598.27 C 408.48 593.14 415.35 586.81 420.81 585.18 C 426.99 583.32 599.89 583.51 604.35 585.37 C 608.96 587.30 614.79 592.65 616.92 596.91 C 619.17 601.39 618.13 594.20 629.97 687.50 C 635.49 730.95 640.53 770.71 641.18 775.85 C 642.61 787.04 644.38 790.00 649.67 790.00 C 652.33 790.00 653.91 789.23 656.10 786.89 C 657.69 785.19 659.00 783.05 659.00 782.14 C 658.99 781.24 658.12 773.75 657.05 765.50 C 655.98 757.25 652.39 729.12 649.07 703.00 C 645.75 676.88 641.22 642.00 639.00 625.50 C 636.78 609.00 635.23 594.28 635.55 592.79 C 635.88 591.30 637.70 588.71 639.61 587.04 C 645.67 581.71 655.38 583.62 658.06 590.66 C 658.56 591.98 660.34 603.96 662.02 617.28 C 663.70 630.60 666.83 655.00 668.99 671.50 C 671.15 688.00 675.88 724.45 679.51 752.50 C 686.52 806.75 686.57 806.98 692.37 809.82 C 695.72 811.46 701.25 809.91 703.50 806.70 C 705.95 803.19 706.97 813.37 689.56 666.50 C 688.19 654.95 685.03 628.55 682.54 607.84 C 680.04 587.12 678.00 569.69 678.00 569.09 C 678.00 567.40 347.06 567.56 346.58 569.25 C 346.39 569.94 344.83 582.42 343.12 597.00 C 341.41 611.58 334.99 663.91 328.85 713.30 L 317.69 803.10 L 319.69 805.80 C 321.54 808.29 325.43 810.95 327.28 810.99 C 327.71 810.99 329.62 810.35 331.52 809.56 Z M 694.42 541.60 C 706.86 534.31 705.19 515.17 691.68 510.06 C 689.91 509.39 677.20 509.00 657.40 509.00 C 623.22 509.00 621.30 508.74 617.17 503.49 C 614.34 499.90 614.31 494.15 617.09 490.61 C 621.27 485.30 622.94 485.00 648.45 485.00 C 661.40 485.00 672.00 484.62 672.00 484.15 C 672.00 483.68 670.67 472.54 669.04 459.40 C 667.42 446.25 663.58 414.35 660.52 388.50 C 647.41 277.80 645.87 265.76 644.11 260.09 C 638.16 240.98 623.09 225.47 603.00 217.76 L 594.50 214.50 L 512.50 214.50 C 430.59 214.50 430.49 214.50 423.50 216.72 C 403.89 222.93 386.91 239.79 380.92 259.00 C 379.57 263.34 374.44 300.85 365.48 372.00 C 358.10 430.58 351.80 479.96 351.49 481.75 L 350.91 485.00 L 467.05 485.00 C 572.48 485.00 583.52 485.15 586.64 486.63 C 592.84 489.57 595.03 498.16 590.91 503.39 C 586.22 509.35 594.33 509.00 459.11 509.00 C 373.95 509.00 334.25 509.33 332.32 510.06 C 320.78 514.42 317.36 529.33 325.81 538.37 C 331.34 544.28 319.27 543.92 512.41 543.96 L 690.32 544.00 L 694.42 541.60 Z M 383.40 458.60 C 379.01 454.21 379.01 454.09 383.97 416.55 C 386.15 400.02 389.99 370.30 392.50 350.50 C 395.01 330.70 397.58 313.21 398.21 311.63 C 399.67 307.93 404.51 305.01 409.17 305.00 C 413.31 305.00 418.56 308.71 420.08 312.72 C 421.09 315.36 403.72 452.79 401.97 456.06 C 400.03 459.69 395.86 462.00 391.27 462.00 C 387.52 462.00 386.25 461.45 383.40 458.60 Z M 409.31 280.11 C 407.56 279.01 405.65 277.21 405.06 276.12 C 399.25 265.26 417.01 245.04 435.80 241.11 C 444.06 239.38 476.43 239.65 479.96 241.48 C 489.56 246.44 489.22 258.50 479.36 262.62 C 476.98 263.62 471.01 264.01 457.78 264.02 C 436.38 264.05 433.23 264.91 428.22 272.15 C 421.75 281.50 415.64 284.07 409.31 280.11 Z" stroke-linecap="round"/>
</g>
</g>
</g>

  </svg>