<svg xmlns="http://www.w3.org/2000/svg" xmlns:xlink="http://www.w3.org/1999/xlink" width="447px" height="500px" viewBox="0 0 447.3159480847082 499.9999999999998">
    <g id="4ad45c48-e37f-468c-a439-4a9e63920a55">
<g style="">
		<g id="4ad45c48-e37f-468c-a439-4a9e63920a55-child-0">
<path style="stroke: rgb(193,193,193); stroke-width: 0; stroke-dasharray: none; stroke-linecap: butt; stroke-dashoffset: 0; stroke-linejoin: miter; stroke-miterlimit: 4; fill: rgb(0,0,0); fill-rule: nonzero; opacity: 1;" transform="matrix(0.865043 0 0 0.865043 223.657949 249.999972) matrix(1 0 0 1 0 0)  translate(-512.55125, -511.997058)" d="M 257.08 798.41 C 254.51 796.26 254.00 795.10 254.00 791.50 C 254.00 787.90 254.51 786.74 257.08 784.59 C 260.13 782.02 260.29 782.00 277.58 782.00 L 295.00 782.00 L 295.00 765.83 L 295.00 749.66 L 288.64 743.07 C 282.01 736.21 278.05 729.61 275.99 721.98 C 275.06 718.54 274.78 673.00 274.79 525.43 L 274.81 333.36 L 271.52 328.43 C 265.15 318.89 264.62 316.05 264.21 289.28 C 263.80 262.02 264.37 257.53 269.57 247.12 C 275.10 236.08 285.49 227.67 297.46 224.55 C 302.75 223.17 326.72 223.00 512.00 223.00 C 742.28 223.00 726.62 222.56 737.86 229.29 C 744.84 233.47 751.59 240.99 755.14 248.53 C 759.21 257.17 760.30 267.44 759.78 292.34 C 759.31 315.22 758.53 319.07 752.55 328.11 L 750.00 331.96 L 749.99 522.73 C 749.97 732.66 750.34 719.95 743.84 732.14 C 742.14 735.35 738.11 740.56 734.89 743.73 L 729.04 749.50 L 729.02 765.75 L 729.00 782.00 L 747.08 782.00 L 765.15 782.00 L 768.08 784.92 C 772.11 788.96 772.11 794.04 768.08 798.08 L 765.15 801.00 L 582.62 801.00 C 443.24 801.00 399.47 800.72 397.47 799.81 C 394.59 798.49 392.00 794.30 392.00 790.95 C 392.00 789.77 393.53 787.27 395.40 785.40 L 398.80 782.00 L 554.40 782.00 L 710.00 782.00 L 710.00 770.25 L 710.00 758.50 L 512.00 758.50 L 314.00 758.50 L 314.00 770.25 L 314.00 782.00 L 341.94 782.00 C 369.49 782.00 369.93 782.03 372.51 784.25 C 374.27 785.77 375.31 787.88 375.69 790.70 C 376.19 794.43 375.90 795.25 373.20 797.95 L 370.15 801.00 L 315.15 801.00 L 260.15 801.00 L 257.08 798.41 Z M 712.42 737.08 C 718.99 733.84 724.63 728.03 727.85 721.15 L 730.50 715.50 L 730.76 530.27 L 731.03 345.03 L 726.26 345.77 C 720.23 346.70 302.81 346.74 297.75 345.81 L 294.00 345.13 L 294.00 529.88 C 294.00 740.95 293.02 720.18 303.42 730.59 C 313.65 740.83 291.62 739.88 513.00 739.68 L 707.50 739.50 L 712.42 737.08 Z M 726.28 325.40 C 731.81 322.62 737.84 315.99 739.57 310.80 C 740.89 306.82 741.11 302.10 740.83 283.74 L 740.50 261.50 L 737.55 256.18 C 735.93 253.25 732.91 249.52 730.85 247.88 C 722.86 241.55 738.64 241.96 510.00 242.24 L 301.50 242.50 L 297.36 244.72 C 291.60 247.79 286.22 254.44 284.39 260.72 C 283.17 264.92 282.93 270.49 283.18 288.24 C 283.48 308.90 283.66 310.80 285.69 314.59 C 289.38 321.49 295.60 325.90 303.43 327.18 C 304.49 327.36 399.34 327.39 514.21 327.26 C 704.25 327.04 723.36 326.87 726.28 325.40 Z M 498.50 665.38 C 435.54 658.63 384.13 614.92 369.59 555.77 C 359.69 515.49 367.08 474.71 390.73 439.09 C 398.55 427.32 417.84 408.14 429.94 400.10 C 481.15 366.10 542.93 366.10 594.06 400.11 C 607.00 408.72 625.85 427.54 633.99 440.00 C 645.41 457.45 652.49 474.29 656.69 494.00 C 659.46 506.99 659.17 535.89 656.14 549.96 C 646.75 593.41 619.26 628.86 578.95 649.48 C 566.20 656.00 551.00 661.26 538.50 663.47 C 529.48 665.06 506.01 666.18 498.50 665.38 Z M 535.50 644.52 C 570.40 637.47 600.19 617.80 619.31 589.20 C 627.52 576.90 635.25 557.09 638.12 541.00 C 640.02 530.31 639.80 508.37 637.69 498.34 C 632.17 472.07 621.09 451.17 603.02 432.92 C 584.82 414.53 566.17 403.81 541.09 397.32 C 527.99 393.94 506.67 393.11 492.50 395.44 C 438.15 404.38 395.88 446.24 386.53 500.38 C 384.56 511.79 384.57 531.28 386.55 542.61 C 394.45 587.95 428.74 626.44 474.00 640.79 C 479.23 642.45 486.88 644.30 491.00 644.90 C 495.12 645.50 499.62 646.19 501.00 646.43 C 505.97 647.30 527.68 646.10 535.50 644.52 Z M 619.99 311.13 C 615.03 309.50 611.29 307.06 607.76 303.15 C 603.20 298.10 602.26 296.32 600.93 290.11 C 598.44 278.50 604.13 266.87 615.09 261.16 C 620.93 258.11 622.12 257.85 628.50 258.20 C 632.67 258.43 637.12 259.37 639.50 260.52 C 645.42 263.39 651.43 269.89 653.34 275.50 C 659.45 293.41 647.86 310.68 629.10 311.62 C 625.47 311.80 621.37 311.58 619.99 311.13 Z M 633.55 290.55 C 640.04 284.05 632.43 274.21 623.54 277.62 C 621.18 278.53 618.74 283.83 619.43 286.58 C 621.01 292.87 628.98 295.11 633.55 290.55 Z M 684.05 310.33 C 678.00 308.11 670.76 300.68 668.67 294.54 C 663.87 280.46 669.36 267.06 682.46 260.86 C 696.06 254.42 711.39 259.26 718.59 272.25 C 721.09 276.76 721.50 278.56 721.48 285.00 C 721.46 290.76 720.95 293.46 719.27 296.63 C 716.45 301.94 711.85 306.52 706.63 309.20 C 701.13 312.02 690.16 312.57 684.05 310.33 Z M 700.55 290.55 C 705.67 285.42 701.77 277.10 694.20 277.03 C 689.89 276.99 686.00 280.76 686.00 285.00 C 686.00 292.15 695.37 295.72 700.55 290.55 Z M 319.46 308.41 C 297.47 300.60 297.84 268.86 320.01 261.50 C 324.02 260.16 340.09 260.01 450.71 260.24 L 576.84 260.50 L 579.32 262.83 C 580.68 264.11 582.03 266.36 582.31 267.83 C 582.97 271.27 580.76 276.52 578.04 277.98 C 576.49 278.81 542.63 279.09 451.21 279.03 C 313.63 278.94 322.00 278.56 322.00 285.00 C 322.00 291.38 313.74 291.00 451.30 291.00 L 576.15 291.00 L 579.08 293.92 C 583.11 297.96 583.11 303.04 579.08 307.08 L 576.15 310.00 L 449.83 309.92 C 342.83 309.85 322.88 309.62 319.46 308.41 Z M 447.54 605.93 C 436.54 598.95 424.91 585.70 417.42 571.61 C 408.71 555.24 404.99 539.97 405.01 520.64 C 405.04 492.33 414.89 467.92 434.70 447.02 C 451.41 429.40 470.57 418.76 493.19 414.54 C 509.95 411.41 517.37 412.71 519.03 419.07 C 520.81 425.92 515.32 431.99 507.32 432.00 C 497.05 432.01 478.93 437.74 467.16 444.72 C 452.51 453.40 437.54 471.00 431.08 487.15 C 425.85 500.20 424.58 507.09 424.66 522.00 C 424.72 533.59 425.10 536.75 427.37 544.30 C 433.35 564.18 442.59 577.29 460.84 591.81 C 464.00 594.32 465.00 595.81 465.00 598.01 C 465.00 602.23 463.00 605.95 459.85 607.58 C 455.73 609.71 452.91 609.33 447.54 605.93 Z" stroke-linecap="round"/>
</g>
</g>
</g>

  </svg>