<svg xmlns="http://www.w3.org/2000/svg" xmlns:xlink="http://www.w3.org/1999/xlink" width="1477px" height="1499px" viewBox="0 0 1476.678139574532 1498.9030256529177">
    <g id="17209017-d5e8-4e31-aeae-cb6e481dcf71">
<g style="">
		<g id="17209017-d5e8-4e31-aeae-cb6e481dcf71-child-0">
<path style="stroke: rgb(193,193,193); stroke-width: 0; stroke-dasharray: none; stroke-linecap: butt; stroke-dashoffset: 0; stroke-linejoin: miter; stroke-miterlimit: 4; fill: rgb(0,0,0); fill-rule: nonzero; opacity: 1;" transform="matrix(3.003528 0 0 3.003528 738.339126 749.451569) matrix(1 0 0 1 0 0)  translate(-511.902153, -511.47625)" d="M 267.65 759.17 C 265.30 756.57 265.60 753.30 268.45 750.45 L 270.91 748.00 L 292.95 748.00 L 315.00 748.00 L 315.00 720.20 C 315.00 699.91 315.32 692.08 316.20 691.20 C 316.99 690.41 321.13 690.00 328.20 690.00 L 339.00 690.00 L 339.00 497.50 L 339.00 305.00 L 328.20 305.00 C 321.13 305.00 316.99 304.59 316.20 303.80 C 315.35 302.95 315.00 296.99 315.00 283.34 C 315.00 265.31 315.12 264.00 316.93 263.04 C 319.64 261.59 704.36 261.59 707.07 263.04 C 708.88 264.00 709.00 265.31 709.00 283.34 C 709.00 296.99 708.65 302.95 707.80 303.80 C 707.01 304.59 702.87 305.00 695.80 305.00 L 684.99 305.00 L 685.25 497.25 L 685.50 689.50 L 695.94 689.79 C 701.69 689.95 706.97 690.56 707.69 691.16 C 708.71 692.00 709.00 698.09 709.01 718.37 C 709.02 732.74 709.28 745.45 709.59 746.60 C 710.15 748.68 710.45 748.70 731.49 748.22 L 752.81 747.72 L 755.50 750.41 C 757.62 752.53 758.05 753.67 757.52 755.79 C 757.14 757.28 756.37 759.05 755.80 759.74 C 754.97 760.75 705.57 761.00 512.03 761.00 C 278.16 761.00 269.25 760.93 267.65 759.17 Z M 351.65 748.00 L 363.00 748.00 L 363.00 734.54 C 363.00 722.25 363.17 720.98 364.93 720.04 C 366.24 719.34 413.90 719.00 512.11 719.00 C 645.85 719.00 657.49 719.13 659.17 720.65 C 660.77 722.10 661.00 724.00 661.00 735.76 C 661.00 747.62 661.19 749.14 662.58 748.61 C 663.45 748.27 671.55 748.00 680.58 748.00 L 697.00 748.00 L 697.00 725.50 L 697.00 703.00 L 530.75 702.75 C 439.31 702.61 356.29 702.50 346.26 702.50 L 328.01 702.50 L 328.01 725.89 L 328.00 749.28 L 334.15 748.64 C 337.53 748.29 345.40 748.00 351.65 748.00 Z M 518.15 748.00 L 648.00 748.00 L 648.00 740.00 L 648.00 732.00 L 512.00 732.00 L 376.00 732.00 L 376.00 740.64 L 376.00 749.28 L 382.15 748.64 C 385.53 748.29 446.73 748.00 518.15 748.00 Z M 671.75 497.22 L 672.01 305.00 L 512.00 305.00 L 352.00 305.00 L 352.00 496.83 C 352.00 602.34 352.19 688.85 352.42 689.08 C 352.65 689.31 424.53 689.49 512.17 689.47 L 671.50 689.45 L 671.75 497.22 Z M 697.00 283.50 L 697.00 275.00 L 512.50 275.00 L 328.00 275.00 L 328.00 283.50 L 328.00 292.00 L 512.50 292.00 L 697.00 292.00 L 697.00 283.50 Z M 380.00 672.00 C 378.16 670.16 378.00 668.67 378.00 653.50 C 378.00 638.33 378.16 636.84 380.00 635.00 C 381.92 633.08 383.33 633.00 415.28 633.00 C 443.78 633.00 448.87 633.22 450.78 634.56 C 452.93 636.06 453.00 636.67 453.00 653.50 C 453.00 670.33 452.93 670.94 450.78 672.44 C 448.87 673.78 443.78 674.00 415.28 674.00 C 383.33 674.00 381.92 673.92 380.00 672.00 Z M 441.00 653.50 L 441.00 647.00 L 416.00 647.00 L 391.00 647.00 L 391.00 653.50 L 391.00 660.00 L 416.00 660.00 L 441.00 660.00 L 441.00 653.50 Z M 572.65 672.17 C 570.25 669.51 570.18 636.96 572.57 634.57 C 573.94 633.20 578.54 633.00 607.88 633.00 C 635.42 633.00 641.97 633.26 643.56 634.42 C 645.33 635.71 645.53 637.37 645.82 652.85 C 646.11 668.94 646.02 669.98 644.07 671.93 C 642.06 673.94 641.02 674.00 608.15 674.00 C 576.64 674.00 574.20 673.87 572.65 672.17 Z M 633.00 653.50 L 633.00 647.00 L 608.25 647.00 L 583.50 647.00 L 583.84 653.50 L 584.17 660.00 L 608.59 660.00 L 633.00 660.00 L 633.00 653.50 Z M 379.88 616.20 C 378.08 614.94 378.00 612.61 378.00 562.88 C 378.00 528.94 378.36 510.20 379.04 508.93 C 380.05 507.04 382.58 507.00 511.46 507.00 C 629.58 507.00 643.02 507.16 644.43 508.57 C 645.82 509.96 646.00 516.23 646.00 562.45 C 646.00 609.89 645.85 614.88 644.35 616.13 C 641.94 618.13 382.73 618.20 379.88 616.20 Z M 631.25 604.10 C 632.89 604.01 633.00 601.30 633.00 562.00 L 633.00 520.00 L 512.00 520.00 L 391.00 520.00 L 391.00 561.99 L 391.00 603.98 L 441.75 604.24 C 486.22 604.47 626.49 604.36 631.25 604.10 Z M 380.00 488.00 C 378.04 486.04 378.00 484.67 378.00 411.15 C 378.00 339.92 378.09 336.23 379.83 334.65 C 381.49 333.15 387.20 333.00 441.27 333.00 L 500.89 333.00 L 502.44 335.22 C 503.82 337.19 504.00 346.07 503.98 411.47 C 503.98 452.19 503.64 486.00 503.23 486.60 C 501.07 489.84 498.12 490.00 440.07 490.00 C 383.33 490.00 381.95 489.95 380.00 488.00 Z M 416.00 439.22 C 416.00 406.65 416.21 401.14 417.56 399.22 C 419.08 397.05 419.55 397.00 439.86 397.00 C 454.66 397.00 460.94 397.34 461.80 398.20 C 462.69 399.09 463.00 409.36 463.00 438.20 L 463.00 477.00 L 477.00 477.00 L 491.00 477.00 L 491.00 411.50 L 491.00 346.00 L 441.00 346.00 L 391.00 346.00 L 391.00 411.50 L 391.00 477.00 L 403.50 477.00 L 416.00 477.00 L 416.00 439.22 Z M 450.00 443.50 L 450.00 410.00 L 439.50 410.00 L 429.00 410.00 L 429.00 443.50 L 429.00 477.00 L 439.50 477.00 L 450.00 477.00 L 450.00 443.50 Z M 521.57 488.43 C 520.17 487.03 520.00 478.67 520.00 411.50 C 520.00 344.33 520.17 335.97 521.57 334.57 C 522.96 333.18 529.91 333.00 582.92 333.00 C 639.55 333.00 642.78 333.10 644.35 334.83 C 645.85 336.50 646.00 343.28 646.00 411.77 L 646.00 486.89 L 643.78 488.44 C 641.83 489.81 634.32 490.00 582.35 490.00 C 529.86 490.00 522.96 489.82 521.57 488.43 Z M 553.91 463.03 C 553.77 452.96 554.06 448.63 554.98 447.53 C 556.06 446.23 560.29 446.00 583.59 446.00 C 609.60 446.00 610.98 446.09 611.96 447.93 C 612.53 449.00 613.00 455.97 613.00 463.43 L 613.00 477.00 L 623.00 477.00 L 633.00 477.00 L 633.00 411.50 L 633.00 346.00 L 583.00 346.00 L 533.00 346.00 L 533.00 411.50 L 533.00 477.00 L 543.56 477.00 L 554.12 477.00 L 553.91 463.03 Z M 600.00 468.00 L 600.00 459.00 L 583.25 459.00 L 566.50 459.00 L 566.82 468.00 L 567.14 477.00 L 583.57 477.00 L 600.00 477.00 L 600.00 468.00 Z M 492.65 587.17 C 491.21 585.58 491.00 582.27 491.00 561.29 C 491.00 534.63 491.01 534.60 497.50 534.60 C 503.98 534.60 504.00 534.67 504.00 560.90 C 504.00 580.69 503.75 584.92 502.44 586.78 C 500.48 589.58 495.03 589.80 492.65 587.17 Z M 521.55 587.41 C 520.17 586.03 520.00 582.60 520.23 561.20 L 520.50 536.58 L 523.25 535.04 C 525.72 533.65 526.28 533.65 528.75 535.04 L 531.50 536.58 L 531.77 560.94 C 532.01 582.55 531.85 585.51 530.36 587.15 C 528.31 589.42 523.70 589.56 521.55 587.41 Z" stroke-linecap="round"/>
</g>
</g>
</g>

  </svg>