<svg xmlns="http://www.w3.org/2000/svg" xmlns:xlink="http://www.w3.org/1999/xlink" width="500px" height="472px" viewBox="0 0 499.9999999999998 471.50869573116506">
    <g id="956e867d-b9c8-496f-acf6-6f5c9fdac5c1">
<g style="">
		<g id="956e867d-b9c8-496f-acf6-6f5c9fdac5c1-child-0">
<path style="stroke: rgb(193,193,193); stroke-width: 0; stroke-dasharray: none; stroke-linecap: butt; stroke-dashoffset: 0; stroke-linejoin: miter; stroke-miterlimit: 4; fill: rgb(0,0,0); fill-rule: nonzero; opacity: 1;" transform="matrix(0.834697 0 0 0.834697 249.999936 235.754287) matrix(1 0 0 1 0 0)  translate(-512.509805, -511.557045)" d="M 215.95 791.44 C 212.24 787.49 212.60 781.64 216.79 777.90 C 220.00 775.03 220.16 775.00 232.52 775.00 L 245.00 775.00 L 245.00 625.50 C 245.00 543.28 244.74 476.00 244.42 476.00 C 244.10 476.00 239.56 479.38 234.34 483.50 C 223.67 491.92 221.08 492.62 216.08 488.41 C 213.54 486.28 213.00 485.09 213.00 481.61 C 213.00 476.71 213.59 476.07 232.50 460.38 C 239.10 454.90 267.90 430.71 296.50 406.62 C 325.10 382.54 356.35 356.23 365.96 348.17 C 375.56 340.10 392.23 326.08 403.02 317.00 C 460.58 268.56 500.69 235.14 504.70 232.25 C 509.43 228.84 513.06 228.25 516.63 230.29 C 518.46 231.33 542.03 250.92 589.94 291.23 L 601.50 300.96 L 602.00 276.02 C 602.47 252.57 602.62 250.99 604.50 249.57 C 606.49 248.07 622.50 247.55 654.00 247.96 C 665.95 248.12 667.63 248.45 668.94 250.88 C 669.47 251.87 669.97 274.23 670.11 302.94 C 670.25 330.62 670.61 354.68 670.93 356.42 C 671.42 359.14 678.41 365.36 720.50 400.51 C 747.45 423.02 778.78 449.20 790.13 458.69 C 801.48 468.18 811.04 476.67 811.38 477.55 C 813.78 483.81 809.11 491.00 802.64 491.00 C 799.77 491.00 797.52 489.69 790.32 483.82 C 785.47 479.88 780.94 476.22 780.25 475.70 C 779.25 474.95 779.00 504.94 779.00 624.88 L 779.00 775.00 L 791.94 775.00 C 803.93 775.00 805.08 775.17 807.51 777.25 C 809.23 778.74 810.31 780.88 810.67 783.55 C 811.12 786.94 810.77 788.12 808.52 790.80 L 805.82 794.00 L 512.09 794.00 L 218.35 794.00 L 215.95 791.44 Z M 449.26 712.25 C 449.58 657.36 449.83 648.81 451.29 644.00 C 458.04 621.65 475.66 604.03 496.73 598.57 C 504.56 596.54 519.47 596.55 527.36 598.59 C 543.44 602.74 559.81 615.46 567.16 629.52 C 574.76 644.06 574.40 640.20 574.77 711.26 L 575.10 775.01 L 667.30 774.76 L 759.50 774.50 L 759.72 616.50 L 759.93 458.50 L 732.72 435.85 C 701.64 409.99 639.10 357.73 590.00 316.60 C 571.58 301.17 546.68 280.32 534.68 270.27 C 522.68 260.22 512.40 252.00 511.84 252.00 C 510.85 252.00 488.67 270.33 432.45 317.60 C 384.27 358.10 340.74 394.64 302.50 426.68 L 264.50 458.52 L 264.25 616.76 L 263.99 775.00 L 356.44 775.00 L 448.89 775.00 L 449.26 712.25 Z M 554.78 712.25 L 554.50 649.50 L 552.21 643.83 C 547.36 631.83 536.14 621.88 523.66 618.51 C 514.24 615.96 502.43 616.74 494.71 620.42 C 487.42 623.90 478.22 632.34 474.74 638.75 C 469.07 649.15 469.00 650.13 469.00 715.21 L 469.00 775.00 L 512.03 775.00 L 555.06 775.00 L 554.78 712.25 Z M 651.00 304.00 L 651.00 267.00 L 635.98 267.00 L 620.97 267.00 L 621.23 292.23 L 621.50 317.46 L 635.50 329.22 C 643.20 335.69 649.84 340.99 650.25 340.99 C 650.66 341.00 651.00 324.35 651.00 304.00 Z M 293.36 725.02 C 287.89 722.78 288.00 724.06 288.00 665.33 L 288.00 611.11 L 290.26 608.49 L 292.51 605.86 L 347.88 605.72 L 403.24 605.58 L 405.62 608.35 L 408.00 611.11 L 408.00 665.50 L 408.00 719.89 L 405.59 722.69 L 403.17 725.50 L 349.34 725.70 C 319.73 725.81 294.54 725.50 293.36 725.02 Z M 338.49 696.75 C 338.86 691.66 339.01 685.03 338.83 682.00 L 338.50 676.50 L 323.25 676.22 L 308.00 675.95 L 308.00 690.97 L 308.00 706.00 L 322.91 706.00 L 337.81 706.00 L 338.49 696.75 Z M 388.00 691.00 L 388.00 676.00 L 373.00 676.00 L 358.00 676.00 L 358.00 691.00 L 358.00 706.00 L 373.00 706.00 L 388.00 706.00 L 388.00 691.00 Z M 338.00 640.50 L 338.00 625.00 L 323.00 625.00 L 308.00 625.00 L 308.00 640.50 L 308.00 656.00 L 323.00 656.00 L 338.00 656.00 L 338.00 640.50 Z M 388.08 655.59 C 388.31 655.36 388.36 648.38 388.20 640.09 L 387.90 625.00 L 372.95 625.00 L 358.00 625.00 L 358.00 640.50 L 358.00 656.00 L 372.83 656.00 C 380.99 656.00 387.85 655.81 388.08 655.59 Z M 620.36 724.84 C 619.19 724.27 617.73 722.70 617.11 721.35 C 616.34 719.65 616.00 702.34 616.00 664.45 C 616.00 612.58 616.09 609.91 617.87 608.13 C 620.63 605.37 631.40 604.93 684.78 605.36 C 727.50 605.71 731.20 605.87 733.03 607.52 C 734.95 609.26 735.00 610.82 735.00 665.50 C 735.00 721.35 734.99 721.70 732.90 723.60 C 730.89 725.41 728.34 725.51 676.65 725.70 C 640.54 725.83 621.79 725.54 620.36 724.84 Z M 666.00 691.00 L 666.00 676.00 L 651.00 676.00 L 636.00 676.00 L 636.00 691.00 L 636.00 706.00 L 651.00 706.00 L 666.00 706.00 L 666.00 691.00 Z M 716.00 691.00 L 716.00 676.00 L 700.50 676.00 L 685.00 676.00 L 685.00 689.42 C 685.00 696.80 685.27 703.55 685.61 704.42 C 686.12 705.76 688.45 706.00 701.11 706.00 L 716.00 706.00 L 716.00 691.00 Z M 665.50 640.50 L 665.50 625.50 L 650.75 625.22 L 636.00 624.95 L 636.00 640.50 L 636.00 656.05 L 650.75 655.78 L 665.50 655.50 L 665.50 640.50 Z M 716.00 640.47 L 716.00 624.95 L 700.75 625.22 L 685.50 625.50 L 685.22 639.45 C 685.07 647.13 685.17 653.99 685.44 654.70 C 685.82 655.69 689.57 656.00 700.97 656.00 L 716.00 656.00 L 716.00 640.47 Z M 624.32 556.25 L 573.13 555.98 L 571.07 553.36 C 569.04 550.78 569.00 549.79 569.00 496.42 L 569.00 442.11 L 571.41 439.31 L 573.83 436.50 L 626.66 436.21 C 655.72 436.06 680.52 436.18 681.78 436.49 C 683.03 436.80 684.94 437.94 686.03 439.03 C 687.94 440.94 688.00 442.55 687.97 496.25 C 687.94 541.17 687.68 551.83 686.58 553.29 C 685.16 555.16 679.60 557.17 677.01 556.76 C 676.18 556.63 652.47 556.40 624.32 556.25 Z M 619.00 522.00 L 619.00 507.00 L 612.25 506.99 C 608.54 506.99 601.79 506.70 597.25 506.35 L 589.00 505.70 L 589.00 521.35 L 589.00 537.00 L 604.00 537.00 L 619.00 537.00 L 619.00 522.00 Z M 669.00 522.12 L 669.00 507.25 L 665.88 506.62 C 664.16 506.28 657.41 506.00 650.88 506.00 L 639.00 506.00 L 639.00 521.50 L 639.00 537.00 L 654.00 537.00 L 669.00 537.00 L 669.00 522.12 Z M 619.00 471.50 L 619.00 456.00 L 604.00 456.00 L 589.00 456.00 L 589.00 471.50 L 589.00 487.00 L 604.00 487.00 L 619.00 487.00 L 619.00 471.50 Z M 668.50 471.50 L 668.50 456.50 L 653.75 456.22 L 639.00 455.95 L 639.00 471.50 L 639.00 487.05 L 653.75 486.78 L 668.50 486.50 L 668.50 471.50 Z M 337.86 554.09 L 335.50 552.18 L 335.23 497.17 L 334.95 442.17 L 337.39 439.33 L 339.83 436.50 L 395.00 436.50 L 450.17 436.50 L 452.59 439.31 L 455.00 442.11 L 455.00 496.60 L 455.00 551.09 L 452.55 553.55 L 450.09 556.00 L 395.16 556.00 C 342.56 556.00 340.12 555.92 337.86 554.09 Z M 385.00 522.05 L 385.00 507.09 L 381.75 506.50 C 379.96 506.17 373.33 506.04 367.00 506.20 L 355.50 506.50 L 355.22 521.75 L 354.95 537.00 L 369.97 537.00 L 385.00 537.00 L 385.00 522.05 Z M 435.00 521.50 L 435.00 506.00 L 420.00 506.00 L 405.00 506.00 L 405.00 521.50 L 405.00 537.00 L 420.00 537.00 L 435.00 537.00 L 435.00 521.50 Z M 385.00 471.50 L 385.00 456.00 L 370.00 456.00 L 355.00 456.00 L 355.00 470.83 C 355.00 478.99 355.30 485.97 355.67 486.33 C 356.03 486.70 362.78 487.00 370.67 487.00 L 385.00 487.00 L 385.00 471.50 Z M 435.00 471.50 L 435.00 456.00 L 420.00 456.00 L 405.00 456.00 L 405.00 471.50 L 405.00 487.00 L 420.00 487.00 L 435.00 487.00 L 435.00 471.50 Z" stroke-linecap="round"/>
</g>
</g>
</g>

  </svg>