<svg xmlns="http://www.w3.org/2000/svg" xmlns:xlink="http://www.w3.org/1999/xlink" width="689px" height="706px" viewBox="0 0 689.4372257622263 706.3740856844306">
    <g id="5be07d5b-0b56-42a9-9605-d3d094d25f5a">
<g style="">
		<g id="5be07d5b-0b56-42a9-9605-d3d094d25f5a-child-0">
<path style="stroke: rgb(193,193,193); stroke-width: 0; stroke-dasharray: none; stroke-linecap: butt; stroke-dashoffset: 0; stroke-linejoin: miter; stroke-miterlimit: 4; fill: rgb(0,0,0); fill-rule: nonzero; opacity: 1;" transform="matrix(1.223116 0 0 1.223116 344.71862 353.18705) matrix(1 0 0 1 0 0)  translate(-512.090688, -512.260061)" d="M 239.12 800.00 C 234.13 798.82 230.86 795.05 230.35 789.87 C 229.85 784.83 231.28 781.60 235.32 778.60 C 238.05 776.57 239.49 776.48 278.82 776.00 L 319.50 775.50 L 319.72 504.03 C 319.93 241.91 320.00 232.48 321.78 230.09 C 322.79 228.74 324.87 226.70 326.39 225.56 L 329.15 223.50 L 511.32 223.50 C 683.75 223.50 693.67 223.59 696.74 225.27 C 698.52 226.24 700.77 228.25 701.74 229.73 C 703.41 232.27 703.53 246.96 704.00 503.96 L 704.50 775.50 L 745.83 776.00 L 787.16 776.50 L 790.69 780.36 C 793.96 783.93 794.20 784.60 793.76 789.15 C 793.20 794.97 790.35 798.53 785.07 800.00 C 780.08 801.38 469.82 801.35 464.81 799.97 C 459.48 798.48 456.00 793.93 456.00 788.41 C 456.00 784.75 456.60 783.31 459.42 780.24 L 462.85 776.50 L 545.92 776.23 L 629.00 775.97 L 629.00 540.48 L 629.00 305.00 L 512.00 305.00 L 395.00 305.00 L 395.00 540.41 L 395.00 775.82 L 405.58 776.16 L 416.16 776.50 L 419.58 780.24 C 422.40 783.31 423.00 784.75 423.00 788.41 C 423.00 793.93 419.52 798.48 414.19 799.97 C 409.77 801.19 244.30 801.22 239.12 800.00 Z M 370.25 533.00 C 370.50 293.39 370.52 290.46 372.48 287.23 C 373.57 285.43 376.30 283.07 378.54 281.98 C 382.55 280.04 385.14 280.00 512.10 280.00 L 641.58 280.00 L 646.04 282.25 C 648.94 283.71 651.11 285.72 652.25 288.00 C 653.90 291.30 654.00 305.12 654.00 533.75 L 654.00 776.00 L 667.00 776.00 L 680.00 776.00 L 680.00 512.00 L 680.00 248.00 L 512.50 248.00 L 345.00 248.00 L 345.00 512.03 L 345.00 776.06 L 357.50 775.78 L 370.00 775.50 L 370.25 533.00 Z M 437.02 741.25 C 435.11 740.29 432.52 737.97 431.27 736.10 L 429.00 732.70 L 429.00 677.00 L 429.00 621.30 L 431.25 617.99 C 432.49 616.17 434.77 613.74 436.32 612.59 C 439.13 610.51 439.65 610.50 512.00 610.50 C 584.02 610.50 584.88 610.52 587.61 612.56 C 589.13 613.70 591.30 615.87 592.44 617.39 C 594.46 620.10 594.50 621.14 594.50 676.82 L 594.50 733.50 L 592.10 736.86 C 587.58 743.20 590.17 743.00 511.78 743.00 C 445.91 743.00 440.24 742.86 437.02 741.25 Z M 570.00 676.50 L 570.00 635.00 L 512.00 635.00 L 454.00 635.00 L 454.00 676.50 L 454.00 718.00 L 512.00 718.00 L 570.00 718.00 L 570.00 676.50 Z M 432.10 573.74 C 425.98 570.59 423.76 561.53 427.76 556.07 C 431.52 550.93 435.13 550.00 451.35 550.00 C 463.15 550.00 466.92 550.34 469.72 551.67 C 477.89 555.55 479.34 565.56 472.61 571.72 L 469.03 575.00 L 451.76 574.99 C 440.05 574.98 433.73 574.57 432.10 573.74 Z M 436.24 512.01 C 434.45 510.91 432.08 508.55 430.98 506.76 C 429.03 503.56 428.99 501.94 429.24 425.32 C 429.50 347.61 429.51 347.13 431.60 344.32 C 432.76 342.77 435.24 340.60 437.10 339.50 C 440.41 337.55 442.30 337.50 512.00 337.50 C 591.50 337.50 587.10 337.13 592.17 344.23 L 594.50 347.50 L 594.77 424.50 L 595.04 501.50 L 592.77 505.93 C 588.38 514.48 593.22 514.00 511.52 514.00 C 441.42 513.99 439.41 513.94 436.24 512.01 Z M 570.00 426.00 L 570.00 363.00 L 512.00 363.00 L 454.00 363.00 L 454.00 426.00 L 454.00 489.00 L 512.00 489.00 L 570.00 489.00 L 570.00 426.00 Z" stroke-linecap="round"/>
</g>
</g>
</g>

  </svg>