<svg xmlns="http://www.w3.org/2000/svg" xmlns:xlink="http://www.w3.org/1999/xlink" width="2057px" height="1966px" viewBox="0 0 2057.1207630413555 1966.1849965948159">
    <g id="986a1d02-0954-40c0-9b54-77606e1e83bb">
<g style="">
		<g id="986a1d02-0954-40c0-9b54-77606e1e83bb-child-0">
<path style="stroke: rgb(193,193,193); stroke-width: 0; stroke-dasharray: none; stroke-linecap: butt; stroke-dashoffset: 0; stroke-linejoin: miter; stroke-miterlimit: 4; fill: rgb(0,0,0); fill-rule: nonzero; opacity: 1;" transform="matrix(3.4076 0 0 3.4076 1028.560488 983.0926) matrix(1 0 0 1 0 0)  translate(-512.063731, -512.5)" d="M 214.32 799.81 C 213.12 799.23 211.59 797.42 210.91 795.79 C 209.20 791.66 210.71 787.92 215.01 785.67 C 218.22 783.99 220.90 783.88 248.72 784.28 C 265.35 784.52 279.13 784.54 279.35 784.32 C 279.57 784.10 277.34 774.37 274.40 762.71 L 269.05 741.50 L 269.03 598.75 L 269.00 456.00 L 266.47 456.00 C 262.75 456.00 257.32 453.47 256.08 451.15 C 255.44 449.95 255.00 442.84 255.00 433.68 C 255.00 419.95 255.21 417.96 256.91 415.86 L 258.82 413.50 L 289.66 413.00 L 320.50 412.50 L 320.84 410.00 C 321.02 408.62 322.11 406.49 323.26 405.25 C 325.24 403.11 326.09 403.00 340.09 403.00 C 348.20 403.00 355.55 402.73 356.42 402.39 C 357.83 401.85 358.00 397.18 358.00 360.00 C 358.00 322.82 357.83 318.15 356.42 317.61 C 355.55 317.27 343.60 317.00 329.87 317.00 L 304.91 317.00 L 302.45 314.55 C 301.10 313.20 300.00 311.26 300.00 310.24 C 300.00 306.56 330.10 227.53 332.18 225.75 C 334.03 224.16 337.20 224.00 366.44 224.00 C 398.57 224.00 398.66 224.01 400.69 226.25 C 401.81 227.49 409.07 246.58 416.92 268.91 C 429.83 305.67 431.00 309.58 429.93 312.18 C 429.27 313.75 428.24 315.37 427.62 315.77 C 427.00 316.17 414.80 316.73 400.50 317.00 L 374.50 317.50 L 374.50 360.00 L 374.50 402.50 L 391.20 402.77 C 407.86 403.05 407.90 403.05 409.95 405.66 C 411.08 407.09 412.00 409.05 412.00 410.01 C 412.00 411.16 413.06 411.96 415.12 412.38 C 416.84 412.72 449.24 413.00 487.12 413.00 L 556.00 413.00 L 556.00 400.64 C 556.00 388.61 556.07 388.20 558.64 385.64 L 561.27 383.00 L 582.29 383.00 C 602.23 383.00 603.23 382.91 601.77 381.25 C 596.36 375.10 593.03 363.65 593.01 351.20 C 593.00 342.66 593.20 341.71 595.45 339.45 L 597.91 337.00 L 632.82 337.00 L 667.73 337.00 L 670.36 339.64 C 672.72 342.00 673.00 343.02 672.98 349.39 C 672.97 353.30 672.33 359.48 671.56 363.13 C 670.17 369.67 666.01 379.26 664.02 380.49 C 660.76 382.50 664.71 383.00 683.89 383.00 C 710.86 383.00 709.31 382.01 710.00 399.66 L 710.50 412.50 L 737.84 413.00 C 771.93 413.62 769.00 411.65 769.00 433.96 C 769.00 449.29 768.93 449.78 766.55 452.35 C 764.59 454.47 763.18 455.00 759.55 455.00 L 755.00 455.00 L 755.00 597.20 L 755.00 739.39 L 750.07 759.45 C 747.36 770.48 745.00 780.62 744.82 782.00 L 744.50 784.50 L 776.00 784.50 C 809.83 784.50 811.17 784.69 813.05 789.63 C 814.54 793.55 814.21 794.94 811.08 798.08 L 808.15 801.00 L 512.33 800.93 C 307.29 800.89 215.83 800.54 214.32 799.81 Z M 299.98 782.75 C 300.84 780.68 310.00 745.76 310.00 744.53 C 310.00 744.24 304.82 744.00 298.48 744.00 C 287.05 744.00 286.97 744.02 287.49 746.25 C 291.49 763.37 296.15 782.77 296.50 783.75 C 297.19 785.72 298.95 785.21 299.98 782.75 Z M 706.50 783.80 C 706.64 783.63 704.49 774.61 701.73 763.75 L 696.72 744.00 L 511.90 744.00 L 327.08 744.00 L 326.11 747.75 C 325.58 749.81 323.31 758.62 321.06 767.33 C 318.82 776.04 317.21 783.53 317.49 783.99 C 317.94 784.72 705.87 784.53 706.50 783.80 Z M 727.38 783.25 C 727.66 782.29 729.73 773.85 731.97 764.50 C 734.21 755.15 736.29 746.71 736.59 745.75 C 737.09 744.15 736.12 744.00 725.57 744.00 C 719.21 744.00 714.00 744.35 714.00 744.77 C 714.00 745.41 719.01 765.49 723.10 781.25 C 724.12 785.16 726.49 786.27 727.38 783.25 Z M 738.00 686.11 C 738.00 649.74 737.82 645.15 736.42 644.61 C 735.55 644.27 633.85 644.00 510.42 644.00 L 286.00 644.00 L 286.00 685.50 L 286.00 727.00 L 512.00 727.00 L 738.00 727.00 L 738.00 686.11 Z M 738.00 586.50 L 738.00 545.00 L 512.00 545.00 L 286.00 545.00 L 286.00 586.50 L 286.00 628.00 L 512.00 628.00 L 738.00 628.00 L 738.00 586.50 Z M 445.66 528.00 L 504.00 528.00 L 504.00 492.14 L 504.00 456.29 L 487.75 455.60 C 469.69 454.83 290.88 454.96 287.89 455.74 C 286.08 456.21 286.00 457.77 286.00 492.10 L 286.00 527.97 L 321.75 528.32 C 341.41 528.51 364.21 528.52 372.41 528.34 C 380.61 528.15 413.57 528.00 445.66 528.00 Z M 723.66 528.00 L 738.00 528.00 L 738.00 491.38 L 738.00 454.75 L 639.25 455.38 C 584.94 455.73 535.89 456.01 530.25 456.01 L 520.00 456.00 L 520.00 491.99 L 520.00 527.99 L 596.75 528.32 C 638.96 528.51 681.56 528.51 691.41 528.33 C 701.26 528.15 715.77 528.00 723.66 528.00 Z M 753.00 434.00 L 753.00 429.00 L 512.50 429.00 L 272.00 429.00 L 272.00 434.00 L 272.00 439.00 L 512.50 439.00 L 753.00 439.00 L 753.00 434.00 Z M 692.75 412.07 C 693.61 412.02 694.00 409.99 694.00 405.50 L 694.00 399.00 L 633.50 399.00 L 573.00 399.00 L 573.00 405.49 L 573.00 411.98 L 614.25 412.26 C 648.24 412.50 687.09 412.41 692.75 412.07 Z M 642.51 376.95 C 650.09 373.04 656.00 363.57 656.00 355.32 L 656.00 353.00 L 633.00 353.00 L 610.00 353.00 L 610.00 355.82 C 610.00 360.20 612.75 367.25 616.01 371.19 C 622.22 378.74 634.06 381.30 642.51 376.95 Z M 409.97 299.75 C 409.95 299.06 405.29 285.45 399.59 269.50 L 389.25 240.50 L 366.31 240.23 L 343.38 239.96 L 332.53 269.23 C 326.56 285.33 321.48 299.06 321.23 299.75 C 320.88 300.74 330.14 301.00 365.39 301.00 C 400.43 301.00 409.99 300.73 409.97 299.75 Z M 341.99 708.13 C 330.93 704.50 324.67 696.09 324.77 685.00 C 324.86 675.31 328.92 668.60 337.24 664.38 C 348.63 658.61 362.39 662.36 368.75 672.98 C 371.50 677.58 372.00 679.38 372.00 684.74 C 372.00 694.93 367.98 701.88 359.57 706.20 C 355.28 708.41 345.96 709.43 341.99 708.13 Z M 352.04 691.48 C 360.03 687.35 353.72 675.07 345.53 678.81 C 340.14 681.26 340.01 689.25 345.32 691.81 C 348.28 693.24 348.67 693.22 352.04 691.48 Z M 669.50 708.12 C 661.83 706.11 655.23 700.25 653.00 693.49 C 650.97 687.36 652.11 677.97 655.54 672.46 C 661.92 662.23 675.53 658.69 686.72 664.36 C 703.91 673.07 703.85 697.32 686.62 706.18 C 682.31 708.39 674.09 709.33 669.50 708.12 Z M 681.25 689.85 C 683.70 686.95 683.43 683.34 680.55 680.45 C 675.19 675.10 666.89 679.66 668.52 687.07 C 669.76 692.72 677.40 694.39 681.25 689.85 Z M 342.50 610.11 C 333.73 607.84 326.78 600.84 324.88 592.37 C 320.26 571.71 342.75 555.52 360.68 566.61 C 372.16 573.70 375.47 588.90 368.00 600.19 C 362.99 607.75 351.15 612.36 342.50 610.11 Z M 353.06 592.16 C 358.06 588.10 354.62 580.00 347.89 580.00 C 341.84 580.00 338.84 587.30 343.04 591.81 C 345.54 594.50 349.97 594.65 353.06 592.16 Z M 664.01 607.32 C 656.26 603.34 652.72 598.00 652.18 589.44 C 651.27 575.18 659.47 564.92 673.04 563.31 C 682.78 562.15 692.54 567.41 697.25 576.36 C 700.65 582.81 700.30 592.37 696.42 598.64 C 694.79 601.28 691.51 604.80 689.15 606.47 C 685.42 609.08 683.81 609.54 677.17 609.81 C 670.37 610.10 668.88 609.82 664.01 607.32 Z M 680.69 591.83 C 683.59 589.10 683.65 585.32 680.83 582.31 C 677.72 579.01 672.78 579.19 670.02 582.71 C 664.61 589.58 674.28 597.84 680.69 591.83 Z M 337.49 510.14 C 328.38 506.00 322.68 494.38 324.80 484.26 C 327.25 472.53 336.52 464.98 348.45 465.02 C 355.98 465.05 361.31 467.37 366.13 472.71 C 370.79 477.89 372.32 482.65 371.82 490.49 C 370.98 503.61 361.71 512.02 348.14 511.98 C 343.89 511.96 340.05 511.30 337.49 510.14 Z M 352.11 494.94 C 356.96 492.35 356.69 484.61 351.69 482.51 C 343.78 479.19 337.51 487.60 343.45 493.55 C 346.09 496.18 348.94 496.64 352.11 494.94 Z M 664.42 509.62 C 656.02 505.70 651.99 498.88 652.02 488.63 C 652.07 474.79 661.80 465.00 675.50 465.00 C 695.61 465.00 706.69 487.60 694.45 503.65 C 688.36 511.64 674.62 514.36 664.42 509.62 Z M 680.55 493.55 C 684.57 489.52 683.47 484.26 678.14 482.06 C 672.26 479.62 666.64 485.30 668.94 491.35 C 670.85 496.37 676.63 497.46 680.55 493.55 Z" stroke-linecap="round"/>
</g>
</g>
</g>

  </svg>