<svg xmlns="http://www.w3.org/2000/svg" xmlns:xlink="http://www.w3.org/1999/xlink" width="1992px" height="1597px" viewBox="0 0 1991.8588239550531 1596.8341691365013">
    <g id="f4d406d6-5ae4-4352-bb4c-31747ac01ab0">
<g style="">
		<g id="f4d406d6-5ae4-4352-bb4c-31747ac01ab0-child-0">
<path style="stroke: rgb(193,193,193); stroke-width: 0; stroke-dasharray: none; stroke-linecap: butt; stroke-dashoffset: 0; stroke-linejoin: miter; stroke-miterlimit: 4; fill: rgb(0,0,0); fill-rule: nonzero; opacity: 1;" transform="matrix(2.770759 0 0 2.770759 995.929457 798.41712) matrix(1 0 0 1 0 0)  translate(-512.05717, -512.748172)" d="M 340.28 800.03 C 332.81 798.25 328.65 793.30 328.75 786.29 C 328.83 781.13 330.88 777.73 335.99 774.25 L 339.30 772.00 L 429.09 772.00 L 518.89 772.00 L 519.20 725.75 C 519.51 680.09 519.55 679.43 521.83 673.75 C 526.41 662.37 536.12 652.97 547.50 648.93 C 552.11 647.29 556.64 646.68 567.00 646.33 C 582.26 645.81 585.12 645.04 588.28 640.62 C 590.50 637.51 590.50 637.41 590.85 584.50 C 591.04 555.35 590.88 525.03 590.49 517.11 L 589.78 502.73 L 586.47 499.11 L 583.15 495.50 L 508.08 495.23 L 433.00 494.96 L 433.00 506.86 C 433.00 519.82 431.80 524.96 427.42 530.70 C 424.19 534.92 416.03 539.62 410.45 540.45 L 406.15 541.10 L 405.83 560.30 C 405.50 579.45 405.49 579.52 402.36 586.12 C 398.30 594.69 393.49 599.93 386.02 603.91 L 380.00 607.12 L 380.00 667.31 C 380.00 734.51 380.26 731.93 373.00 736.82 C 370.13 738.75 368.55 739.10 364.23 738.75 C 358.00 738.26 353.58 734.75 352.00 729.06 C 351.40 726.90 351.01 702.20 351.01 666.27 L 351.00 607.04 L 347.20 605.10 C 340.40 601.63 333.28 594.32 329.78 587.21 L 326.50 580.55 L 326.18 560.87 L 325.85 541.19 L 322.18 540.52 C 313.11 538.85 305.91 533.60 301.77 525.63 C 299.49 521.24 299.64 523.77 299.15 480.82 L 299.00 468.13 L 268.75 467.79 C 239.59 467.47 238.28 467.37 232.51 465.07 C 225.10 462.11 216.36 453.71 213.06 446.36 L 210.74 441.22 L 197.12 440.76 C 181.87 440.24 177.66 439.11 169.15 433.28 C 158.45 425.96 152.81 415.12 152.62 401.50 C 152.42 387.83 157.52 376.94 168.04 368.55 C 175.73 362.42 181.64 360.74 197.24 360.22 L 210.99 359.77 L 213.62 353.90 C 216.83 346.75 223.86 339.89 231.78 336.18 L 237.50 333.50 L 268.16 333.21 L 298.82 332.92 L 299.50 328.02 C 301.03 316.87 310.54 307.23 321.01 306.23 L 326.00 305.75 L 326.00 282.46 C 326.00 262.20 326.25 258.37 327.95 252.93 C 331.69 240.89 340.16 231.75 352.04 226.91 C 359.61 223.84 372.25 223.81 380.00 226.86 C 391.79 231.50 400.41 240.48 404.00 251.86 C 405.77 257.48 406.00 260.97 406.00 282.09 L 406.00 305.97 L 592.25 306.23 L 778.50 306.50 L 784.24 308.82 C 789.63 310.99 793.60 313.61 811.92 327.05 L 819.34 332.50 L 831.03 333.04 C 841.54 333.53 843.37 333.91 849.16 336.76 C 857.59 340.91 864.55 347.87 868.41 356.00 L 871.50 362.50 L 871.50 402.00 L 871.50 441.50 L 868.34 448.18 C 862.00 461.56 851.81 468.91 836.15 471.42 C 826.98 472.89 824.52 474.48 823.01 479.90 C 822.37 482.20 822.01 521.83 822.01 589.25 L 822.00 695.00 L 829.29 695.00 C 847.64 695.00 861.26 703.01 868.40 718.00 L 871.50 724.50 L 871.50 748.00 L 871.50 771.50 L 868.70 777.19 C 862.79 789.23 851.93 797.60 839.11 799.99 C 832.71 801.19 345.30 801.22 340.28 800.03 Z M 840.08 769.08 L 843.00 766.15 L 843.00 748.00 L 843.00 729.85 L 840.08 726.92 L 837.15 724.00 L 692.58 724.00 L 548.00 724.00 L 548.00 748.00 L 548.00 772.00 L 692.58 772.00 L 837.15 772.00 L 840.08 769.08 Z M 794.00 586.71 C 794.00 467.54 793.80 471.66 800.12 461.81 C 806.61 451.70 816.38 445.65 828.72 444.10 C 836.54 443.12 839.18 442.01 841.45 438.77 C 842.78 436.87 843.00 431.64 843.00 402.33 L 843.00 368.11 L 840.61 365.34 C 838.31 362.66 837.81 362.55 825.84 361.98 C 810.52 361.25 809.29 360.71 789.49 345.96 L 774.78 335.00 L 603.89 335.00 L 433.00 335.00 L 433.00 400.48 L 433.00 465.95 L 509.75 466.23 L 586.50 466.50 L 593.29 469.72 C 607.10 476.26 616.77 488.89 619.00 503.32 C 620.70 514.26 619.32 637.97 617.43 644.71 C 615.37 652.04 608.42 661.77 602.04 666.23 C 592.83 672.68 587.34 674.21 571.50 674.76 C 562.21 675.08 556.56 675.72 554.71 676.67 C 550.47 678.83 548.01 683.64 548.00 689.75 L 548.00 695.00 L 671.00 695.00 L 794.00 695.00 L 794.00 586.71 Z M 373.22 578.33 C 377.17 574.82 378.00 570.85 378.00 555.53 L 378.00 541.00 L 365.88 541.00 L 353.76 541.00 L 354.17 556.98 C 354.53 571.17 354.80 573.26 356.63 575.73 C 357.77 577.25 359.77 579.08 361.10 579.79 C 364.20 581.45 370.58 580.69 373.22 578.33 Z M 404.00 503.52 L 404.00 495.05 L 368.75 494.77 C 349.36 494.62 332.49 494.64 331.25 494.82 C 329.12 495.12 329.00 495.59 329.00 503.57 L 329.00 512.00 L 366.50 512.00 L 404.00 512.00 L 404.00 503.52 Z M 404.00 400.50 L 404.00 335.00 L 366.50 335.00 L 329.00 335.00 L 329.00 400.50 L 329.00 466.00 L 366.50 466.00 L 404.00 466.00 L 404.00 400.50 Z M 299.89 402.25 C 299.70 382.04 299.37 364.71 299.15 363.75 C 298.80 362.13 296.63 362.00 271.06 362.00 L 243.35 362.00 L 241.03 364.47 C 238.73 366.92 238.70 367.25 238.22 396.86 C 237.95 413.32 238.05 428.46 238.43 430.50 C 238.82 432.55 240.21 435.30 241.52 436.61 L 243.91 439.00 L 272.07 439.00 L 300.23 439.00 L 299.89 402.25 Z M 209.78 400.75 L 210.06 389.00 L 199.11 389.00 C 188.79 389.00 187.98 389.15 185.08 391.58 C 178.09 397.47 179.84 407.74 188.50 411.62 C 190.45 412.49 194.66 412.88 200.50 412.73 L 209.50 412.50 L 209.78 400.75 Z M 377.96 286.75 C 377.90 263.53 377.27 259.53 373.08 255.78 C 368.08 251.31 360.05 252.33 356.26 257.90 C 354.74 260.14 354.46 263.44 354.18 281.84 C 354.00 293.58 354.10 303.82 354.40 304.59 C 354.82 305.69 357.47 306.00 366.47 306.00 L 378.00 306.00 L 377.96 286.75 Z M 687.50 632.13 C 670.18 627.16 656.28 613.92 650.20 596.60 C 645.01 581.82 647.67 561.88 656.62 548.39 C 666.57 533.39 685.72 523.03 703.50 523.03 C 728.72 523.03 752.62 541.91 758.00 566.09 C 759.80 574.16 758.87 590.00 756.16 597.50 C 750.10 614.25 735.14 627.95 717.87 632.55 C 710.53 634.50 695.00 634.29 687.50 632.13 Z M 716.07 602.75 C 737.49 591.61 734.71 560.63 711.61 553.03 C 705.59 551.05 695.11 552.16 689.65 555.36 C 675.18 563.84 671.53 583.48 682.04 596.24 C 683.68 598.23 687.79 601.24 691.17 602.93 C 699.91 607.29 707.44 607.24 716.07 602.75 Z M 486.03 439.40 C 466.95 434.27 453.60 413.60 456.95 394.38 C 459.76 378.23 469.88 366.52 484.99 361.94 C 491.35 360.01 494.44 359.97 617.50 360.23 L 743.50 360.50 L 750.05 363.60 C 766.14 371.23 774.68 385.25 773.79 402.55 C 772.87 420.53 761.14 434.95 743.65 439.61 C 735.72 441.72 493.94 441.52 486.03 439.40 Z M 740.68 410.23 C 747.07 405.67 747.16 396.84 740.86 391.53 L 737.85 389.00 L 615.87 389.00 C 483.81 389.00 490.40 388.73 486.56 394.22 C 484.26 397.50 484.56 404.18 487.17 407.48 C 491.68 413.22 485.25 412.96 616.50 412.72 L 737.50 412.50 L 740.68 410.23 Z" stroke-linecap="round"/>
</g>
</g>
</g>

  </svg>