<svg xmlns="http://www.w3.org/2000/svg" xmlns:xlink="http://www.w3.org/1999/xlink" width="3048px" height="1981px" viewBox="0 0 3047.982792283106 1980.6768053889737">
    <g id="f1a56df1-a3b4-48dd-a392-d40cb08f4a9a">
<g style="">
		<g id="f1a56df1-a3b4-48dd-a392-d40cb08f4a9a-child-0">
<path style="stroke: rgb(193,193,193); stroke-width: 0; stroke-dasharray: none; stroke-linecap: butt; stroke-dashoffset: 0; stroke-linejoin: miter; stroke-miterlimit: 4; fill: rgb(0,0,0); fill-rule: nonzero; opacity: 1;" transform="matrix(4.240988 0 0 4.240988 1523.991423 990.33842) matrix(1 0 0 1 0 0)  translate(-512.338931, -516.484032)" d="M 155.92 747.08 C 152.19 743.35 152.01 738.90 155.45 735.45 C 157.45 733.46 158.91 733.00 163.27 733.00 L 168.63 733.00 L 176.07 724.67 C 185.09 714.55 229.96 665.61 240.39 654.50 L 247.91 646.50 L 247.95 559.28 L 248.00 472.06 L 250.58 466.28 C 254.38 457.79 285.63 382.84 286.35 380.50 C 286.88 378.76 285.83 378.05 278.24 375.00 C 229.19 355.31 199.18 325.33 209.18 306.01 C 212.18 300.21 218.40 295.59 226.79 292.92 C 236.45 289.85 258.11 289.18 275.68 291.42 C 286.96 292.86 314.25 298.53 319.03 300.43 C 320.20 300.90 321.13 299.39 323.03 293.90 C 326.81 282.97 332.25 280.09 338.08 285.92 C 341.62 289.47 341.65 290.12 338.54 298.69 C 337.18 302.42 336.40 305.73 336.79 306.05 C 337.18 306.37 341.92 308.34 347.32 310.43 C 378.02 322.33 404.98 341.22 412.30 355.95 C 415.37 362.15 415.95 370.80 413.64 376.31 C 407.93 389.99 384.59 396.98 354.50 394.03 C 342.05 392.81 322.79 389.36 310.25 386.09 C 306.26 385.05 302.76 384.59 302.46 385.06 C 302.17 385.53 293.51 405.85 283.22 430.21 L 264.50 474.50 L 264.24 560.37 L 263.98 646.23 L 267.67 650.37 C 269.70 652.64 287.53 672.16 307.29 693.75 L 343.22 733.00 L 348.61 733.00 L 354.00 733.00 L 354.00 681.00 L 354.00 629.00 L 323.15 629.00 C 293.62 629.00 292.23 628.92 290.51 627.01 C 288.80 625.12 288.72 620.98 288.92 548.26 C 289.11 479.61 289.30 471.32 290.73 469.75 C 294.69 465.37 319.50 460.02 345.50 457.92 C 361.64 456.63 394.03 457.15 409.50 458.96 C 422.04 460.43 439.37 463.78 446.50 466.12 C 454.86 468.87 457.00 471.52 457.00 479.17 C 457.00 484.48 457.22 485.17 458.75 484.70 C 459.71 484.41 464.40 482.80 469.17 481.14 C 496.29 471.66 526.61 471.77 555.25 481.44 L 568.00 485.74 L 568.00 478.91 C 568.00 470.34 569.37 468.87 580.48 465.48 C 611.98 455.90 671.91 454.33 710.00 462.09 C 722.12 464.57 731.34 467.61 733.32 469.80 C 734.69 471.32 734.90 480.47 735.08 548.27 C 735.28 620.92 735.19 625.13 733.49 627.01 C 731.77 628.91 730.35 629.00 700.85 629.00 L 670.00 629.00 L 670.00 681.00 L 670.00 733.00 L 675.39 733.00 L 680.78 733.00 L 705.13 706.25 C 718.53 691.54 736.47 672.08 745.00 663.00 L 760.50 646.50 L 760.00 560.50 L 759.50 474.50 L 747.67 447.00 C 741.16 431.88 733.21 413.20 730.00 405.50 C 726.79 397.80 723.47 389.87 722.62 387.88 L 721.08 384.26 L 707.79 387.51 C 680.13 394.28 650.74 396.38 635.00 392.71 C 625.09 390.40 616.31 385.47 612.50 380.07 C 609.80 376.25 609.50 375.07 609.50 368.16 C 609.50 358.28 612.01 353.12 621.50 343.51 C 633.13 331.74 651.53 320.61 674.50 311.45 C 681.10 308.82 686.85 306.37 687.27 306.01 C 687.69 305.66 686.80 301.93 685.29 297.73 L 682.54 290.09 L 684.62 287.29 C 687.44 283.51 691.01 282.35 694.89 283.95 C 697.44 285.01 698.42 286.48 700.71 292.61 C 702.22 296.68 704.00 300.00 704.67 300.00 C 705.33 300.00 711.27 298.68 717.86 297.07 C 739.30 291.84 749.81 290.53 770.50 290.51 C 787.35 290.50 790.29 290.75 796.50 292.71 C 805.07 295.41 810.79 299.02 814.04 303.77 C 816.05 306.70 816.50 308.57 816.47 313.93 C 816.43 325.86 808.75 336.81 791.22 349.98 C 780.52 358.01 760.86 368.79 745.50 375.05 C 741.10 376.84 737.33 378.45 737.11 378.63 C 736.68 378.98 749.69 410.51 765.63 447.73 L 776.00 471.96 L 776.00 558.95 L 776.00 645.94 L 808.25 681.15 C 825.99 700.51 843.88 720.10 848.00 724.68 L 855.50 733.00 L 861.16 733.00 C 866.29 733.00 867.07 733.30 869.50 736.18 C 872.75 740.04 872.36 744.31 868.45 747.75 L 865.89 750.00 L 512.37 750.00 L 158.85 750.00 L 155.92 747.08 Z M 247.23 713.25 C 247.50 690.56 247.56 671.01 247.36 671.00 C 247.14 671.00 206.22 715.69 198.14 724.75 L 190.79 733.00 L 218.89 733.00 L 247.00 733.00 L 247.23 713.25 Z M 318.40 730.79 C 314.79 726.60 277.62 685.48 270.82 678.15 L 264.00 670.80 L 264.00 701.90 L 264.00 733.00 L 292.15 733.00 L 320.31 733.00 L 318.40 730.79 Z M 405.75 717.16 C 410.84 708.46 415.00 700.88 415.00 700.30 C 415.00 699.72 414.32 698.68 413.49 697.99 C 412.66 697.30 409.58 693.54 406.64 689.62 C 395.01 674.13 387.27 657.47 382.97 638.70 L 380.73 628.90 L 375.62 629.20 L 370.50 629.50 L 370.24 681.25 L 369.98 733.00 L 383.24 732.99 L 396.50 732.97 L 405.75 717.16 Z M 451.59 728.00 C 446.68 725.25 439.39 720.52 435.37 717.50 C 431.35 714.47 427.85 712.00 427.59 712.00 C 427.05 712.00 416.00 731.46 416.00 732.40 C 416.00 732.73 426.01 733.00 438.25 733.00 L 460.50 733.00 L 451.59 728.00 Z M 608.00 732.40 C 608.00 731.34 596.91 712.00 596.31 712.00 C 595.99 712.00 592.52 714.45 588.61 717.44 C 584.70 720.44 577.22 725.15 572.00 727.92 L 562.50 732.96 L 585.25 732.98 C 597.76 732.99 608.00 732.73 608.00 732.40 Z M 653.76 681.25 L 653.50 629.50 L 648.53 629.50 L 643.56 629.50 L 640.89 640.00 C 635.17 662.43 625.36 681.63 612.17 696.23 L 608.80 699.97 L 618.08 716.48 L 627.37 733.00 L 640.69 733.00 L 654.02 733.00 L 653.76 681.25 Z M 759.97 701.75 L 759.94 670.50 L 757.34 673.50 C 755.90 675.15 747.48 684.38 738.61 694.00 C 729.74 703.62 718.04 716.34 712.62 722.25 L 702.75 733.00 L 731.38 733.00 L 760.00 733.00 L 759.97 701.75 Z M 818.85 717.25 C 794.89 690.80 776.69 671.00 776.34 671.00 C 776.15 671.00 776.00 684.95 776.00 702.00 L 776.00 733.00 L 804.56 733.00 L 833.12 733.00 L 818.85 717.25 Z M 539.31 722.61 C 560.37 717.18 577.02 707.75 592.46 692.50 C 607.85 677.30 617.85 660.92 623.35 641.90 C 627.32 628.20 628.30 619.56 627.75 603.32 C 627.10 584.28 624.33 573.20 616.05 556.50 C 603.96 532.12 586.77 514.63 563.50 503.07 C 545.58 494.16 532.04 491.00 511.80 491.00 C 479.50 491.00 451.84 502.75 429.77 525.84 C 408.40 548.21 397.63 573.21 396.32 603.50 C 394.88 636.96 406.89 667.92 430.48 691.53 C 448.10 709.16 468.20 719.65 493.59 724.46 C 505.55 726.73 526.69 725.87 539.31 722.61 Z M 379.39 602.42 C 380.73 581.76 385.25 565.25 394.63 546.87 C 401.47 533.45 409.32 522.93 420.92 511.60 C 425.94 506.71 429.92 502.60 429.77 502.48 C 429.62 502.35 425.00 502.85 419.50 503.59 C 386.46 508.00 337.01 506.85 311.98 501.08 C 309.52 500.51 306.94 500.04 306.25 500.02 C 305.26 500.01 305.00 511.95 305.00 556.50 L 305.00 613.00 L 341.85 613.00 L 378.71 613.00 L 379.39 602.42 Z M 719.00 582.50 L 719.00 552.00 L 675.89 552.00 C 635.21 552.00 632.83 552.10 633.57 553.75 C 635.96 559.10 641.08 575.58 642.51 582.50 C 643.41 586.90 644.41 595.56 644.73 601.75 L 645.30 613.00 L 682.15 613.00 L 719.00 613.00 L 719.00 582.50 Z M 719.00 517.50 C 719.00 504.15 718.70 500.01 717.75 500.02 C 717.06 500.04 714.48 500.51 712.02 501.08 C 703.20 503.11 686.35 505.06 669.07 506.05 C 647.12 507.31 613.81 505.58 597.50 502.34 C 594.86 501.81 595.82 503.11 605.50 513.14 C 611.55 519.41 618.08 526.88 620.00 529.74 L 623.50 534.95 L 671.25 534.97 L 719.00 535.00 L 719.00 517.50 Z M 413.00 487.56 C 426.30 485.63 437.81 483.12 438.49 482.02 C 439.30 480.70 422.71 477.17 407.36 475.39 C 388.00 473.15 340.55 473.96 324.50 476.81 C 311.82 479.06 304.57 480.90 305.33 481.66 C 307.39 483.72 329.41 487.53 350.00 489.38 C 359.92 490.28 402.89 489.04 413.00 487.56 Z M 692.00 487.62 C 703.99 485.94 717.11 483.15 718.32 482.02 C 718.78 481.60 716.08 480.52 712.32 479.62 C 678.94 471.66 624.73 471.66 591.68 479.61 C 587.92 480.51 585.22 481.62 585.68 482.06 C 587.41 483.77 609.07 487.40 629.50 489.41 C 638.23 490.27 682.04 489.02 692.00 487.62 Z M 389.25 376.00 C 396.01 373.90 400.00 370.71 400.00 367.42 C 400.00 366.19 398.27 362.99 396.15 360.31 C 379.14 338.78 333.25 318.02 282.50 308.87 C 265.89 305.87 239.07 305.62 231.00 308.38 C 227.98 309.42 224.94 310.71 224.25 311.25 C 218.91 315.48 230.55 329.78 249.50 342.27 C 262.02 350.53 290.23 363.76 293.19 362.77 C 293.77 362.58 296.38 357.07 298.99 350.53 C 301.69 343.75 304.70 337.85 305.98 336.82 C 309.08 334.31 312.64 334.54 315.55 337.45 C 319.48 341.39 319.28 343.42 313.54 357.66 C 310.51 365.20 309.53 368.69 310.34 369.13 C 314.27 371.27 344.31 376.81 360.50 378.39 C 368.04 379.13 383.27 377.86 389.25 376.00 Z M 679.00 376.37 C 690.29 374.90 705.46 371.91 711.63 369.93 L 714.75 368.93 L 709.77 356.30 C 704.93 344.06 704.83 343.58 706.32 340.46 C 708.42 336.04 712.71 334.60 717.12 336.83 C 720.01 338.29 721.03 340.02 725.32 350.75 C 728.20 357.95 730.78 363.00 731.57 363.00 C 733.72 363.00 754.70 353.60 764.00 348.47 C 784.78 337.00 801.00 322.24 801.00 314.79 C 801.00 312.32 800.34 311.60 796.62 309.95 C 775.21 300.48 718.42 309.32 673.72 329.08 C 648.62 340.17 626.51 356.84 624.46 366.20 C 623.84 369.02 624.15 369.76 626.91 372.07 C 634.70 378.57 651.34 379.95 679.00 376.37 Z" stroke-linecap="round"/>
</g>
</g>
</g>

  </svg>