<svg xmlns="http://www.w3.org/2000/svg" xmlns:xlink="http://www.w3.org/1999/xlink" width="2561px" height="3466px" viewBox="0 0 2561.447391922578 3466.666666666657">
    <g id="3b614152-f378-4ec3-a7bd-2b33b60968ef">
<g style="">
		<g id="3b614152-f378-4ec3-a7bd-2b33b60968ef-child-0">
<path style="stroke: rgb(193,193,193); stroke-width: 0; stroke-dasharray: none; stroke-linecap: butt; stroke-dashoffset: 0; stroke-linejoin: miter; stroke-miterlimit: 4; fill: rgb(0,0,0); fill-rule: nonzero; opacity: 1;" transform="matrix(4.458849 0 0 4.458849 1280.723748 1733.333404) matrix(1 0 0 1 0 0)  translate(-512.731917, -511.2599)" d="M 256.57 898.43 C 255.15 897.01 255.00 873.45 255.00 654.02 L 255.00 411.19 L 248.53 408.16 C 239.83 404.09 232.76 397.29 228.74 389.13 L 225.50 382.54 L 225.50 351.00 L 225.50 319.46 L 228.74 312.88 C 232.64 304.94 239.80 297.92 247.78 294.18 L 253.50 291.50 L 334.11 291.22 L 414.72 290.94 L 415.36 274.72 C 415.72 265.80 415.85 257.60 415.66 256.50 C 415.32 254.56 414.43 254.49 386.91 254.24 C 361.62 254.01 358.36 253.80 357.25 252.30 C 356.49 251.28 356.00 247.42 356.00 242.46 C 356.00 235.83 356.34 234.00 357.83 232.65 C 359.46 231.18 363.65 231.00 396.89 231.00 C 420.65 231.00 434.83 231.37 436.07 232.04 C 437.91 233.02 438.00 234.42 438.00 262.04 L 438.00 291.00 L 459.47 291.00 L 480.94 291.00 L 481.22 218.25 L 481.50 145.50 L 483.81 140.40 C 488.87 129.22 499.38 122.56 512.00 122.52 C 521.33 122.49 528.94 125.85 534.89 132.61 C 542.80 141.60 542.43 137.58 542.77 218.75 L 543.07 291.00 L 564.04 291.00 L 585.00 291.00 L 585.00 263.22 C 585.00 239.70 585.24 235.10 586.56 233.22 L 588.11 231.00 L 626.50 231.00 L 664.89 231.00 L 666.44 233.22 C 668.39 236.00 668.61 249.79 666.75 252.30 C 665.64 253.80 662.37 254.01 637.00 254.24 L 608.50 254.50 L 608.23 272.72 L 607.96 290.94 L 689.23 291.22 L 770.50 291.50 L 776.22 294.18 C 788.00 299.70 796.88 311.37 798.94 324.03 C 800.32 332.55 800.30 371.01 798.91 378.53 C 796.68 390.59 788.48 401.61 777.72 406.98 C 774.40 408.64 771.08 410.00 770.34 410.00 C 769.22 410.00 769.00 450.59 769.00 653.35 C 769.00 887.82 768.93 896.75 767.17 898.35 C 765.55 899.81 761.78 900.00 734.29 900.00 C 709.57 900.00 703.02 899.73 702.13 898.66 C 701.36 897.73 700.94 883.80 700.76 853.41 L 700.50 809.50 L 512.25 809.25 L 324.00 808.99 L 324.00 852.93 C 324.00 891.53 323.81 897.05 322.43 898.43 C 321.07 899.79 316.67 900.00 289.50 900.00 C 262.33 900.00 257.93 899.79 256.57 898.43 Z M 301.00 832.54 C 301.00 789.60 301.07 788.03 302.93 787.04 C 304.25 786.33 371.38 786.00 512.81 786.00 C 685.37 786.00 720.94 786.23 721.87 787.34 C 722.64 788.27 723.06 802.20 723.24 832.59 L 723.50 876.50 L 734.75 876.78 L 746.00 877.07 L 746.00 644.69 L 746.00 412.31 L 682.25 411.62 C 608.75 410.82 281.51 410.87 279.41 411.67 C 278.20 412.14 278.00 445.69 278.00 644.61 L 278.00 877.00 L 289.50 877.00 L 301.00 877.00 L 301.00 832.54 Z M 765.11 387.61 C 769.06 386.85 773.66 382.44 775.48 377.69 C 776.85 374.10 777.06 369.63 776.80 348.79 C 776.47 321.68 776.47 321.68 769.61 316.56 L 766.85 314.50 L 512.58 314.24 L 258.31 313.99 L 255.00 316.24 C 253.18 317.48 250.74 319.77 249.59 321.32 C 247.59 324.02 247.50 325.33 247.50 350.32 C 247.50 374.70 247.64 376.73 249.50 379.90 C 251.98 384.11 255.77 387.00 259.92 387.85 C 263.60 388.60 761.19 388.37 765.11 387.61 Z M 520.00 221.43 C 520.00 170.46 519.69 151.28 518.84 149.68 C 515.59 143.58 508.47 143.26 505.46 149.07 C 504.22 151.47 504.00 162.37 504.00 221.45 L 504.00 291.00 L 512.00 291.00 L 520.00 291.00 L 520.00 221.43 Z M 302.20 758.80 C 301.28 757.88 301.00 720.87 301.00 598.34 C 301.00 441.90 301.03 439.05 302.93 438.04 C 304.25 437.33 371.13 437.00 512.00 437.00 C 652.87 437.00 719.75 437.33 721.07 438.04 C 722.97 439.05 723.00 441.90 723.00 598.34 C 723.00 720.87 722.72 757.88 721.80 758.80 C 720.05 760.55 303.95 760.55 302.20 758.80 Z M 500.58 598.75 L 500.50 460.50 L 414.50 460.22 C 367.20 460.07 327.49 460.19 326.25 460.49 L 324.00 461.04 L 324.00 599.02 L 324.00 737.00 L 412.33 737.00 L 500.67 737.00 L 500.58 598.75 Z M 700.61 735.42 C 700.27 734.55 700.00 672.22 700.00 596.92 L 700.00 460.00 L 612.00 460.00 L 524.00 460.00 L 524.00 598.50 L 524.00 737.00 L 612.61 737.00 C 692.99 737.00 701.16 736.85 700.61 735.42 Z M 272.68 361.75 C 270.33 360.02 269.37 344.25 271.44 341.42 C 272.81 339.54 277.62 339.49 511.09 339.24 C 723.48 339.02 749.59 339.15 751.67 340.52 C 753.82 341.93 754.00 342.73 754.00 350.87 C 754.00 358.14 753.68 359.98 752.17 361.35 C 750.48 362.88 732.40 363.00 512.36 363.00 C 323.55 363.00 274.03 362.74 272.68 361.75 Z M 455.65 640.17 C 454.16 638.52 454.00 633.36 454.00 586.83 C 454.00 526.64 452.86 532.00 465.67 532.00 C 472.17 532.00 474.00 532.35 475.35 533.83 C 476.84 535.48 477.00 540.65 477.00 587.27 L 477.00 638.89 L 474.78 640.44 C 471.40 642.81 457.87 642.62 455.65 640.17 Z M 548.65 640.17 C 547.16 638.52 547.00 633.36 547.00 586.83 C 547.00 526.61 545.84 532.00 558.76 532.00 C 564.79 532.00 567.26 532.40 568.43 533.57 C 569.82 534.96 570.00 541.19 570.00 587.01 L 570.00 638.89 L 567.78 640.44 C 564.40 642.81 550.87 642.62 548.65 640.17 Z" stroke-linecap="round"/>
</g>
</g>
</g>

  </svg>