<svg xmlns="http://www.w3.org/2000/svg" xmlns:xlink="http://www.w3.org/1999/xlink" width="444px" height="501px" viewBox="0 0 443.5145146132693 500">
    <g id="c42e4481-7df8-4dbb-a0a9-b2ea91598966">
<g style="">
		<g id="c42e4481-7df8-4dbb-a0a9-b2ea91598966-child-0">
<path style="stroke: rgb(193,193,193); stroke-width: 0; stroke-dasharray: none; stroke-linecap: butt; stroke-dashoffset: 0; stroke-linejoin: miter; stroke-miterlimit: 4; fill: rgb(0,0,0); fill-rule: nonzero; opacity: 1;" transform="matrix(0.830897 0 0 0.830897 221.757154 249.999883) matrix(1 0 0 1 0 0)  translate(-511.988964, -512.005923)" d="M 290.00 811.89 C 275.43 809.55 259.10 797.38 251.76 783.39 C 244.42 769.39 244.95 791.42 245.24 508.79 L 245.50 254.50 L 247.81 248.11 C 250.74 239.98 255.36 232.80 261.59 226.65 C 267.33 220.99 272.73 217.64 281.88 214.08 L 288.50 211.50 L 482.50 211.20 C 613.25 211.00 677.65 211.23 680.04 211.93 C 691.02 215.11 692.90 229.30 683.00 234.25 C 679.70 235.89 668.19 236.00 485.45 236.00 L 291.39 236.00 L 286.21 238.58 C 283.36 240.01 279.25 243.18 277.09 245.64 C 270.31 253.34 269.79 256.03 269.26 286.25 L 268.80 313.00 L 512.00 313.00 L 755.21 313.00 L 754.75 286.25 C 754.24 256.38 753.72 253.54 747.36 246.11 C 741.69 239.48 736.19 236.83 726.24 235.92 C 716.14 235.00 713.12 233.25 711.16 227.18 C 709.97 223.48 710.02 222.63 711.66 219.33 C 714.33 213.95 717.97 211.70 724.80 211.21 C 737.13 210.32 752.53 216.61 762.44 226.60 C 770.33 234.55 774.52 241.72 777.01 251.55 C 779.01 259.46 779.02 261.71 778.76 514.51 L 778.50 769.50 L 775.90 776.18 C 768.71 794.65 753.84 807.60 735.29 811.53 C 729.49 812.75 696.76 812.95 512.00 812.87 C 392.64 812.81 293.03 812.37 290.00 811.89 Z M 738.59 784.81 C 746.96 780.40 751.84 773.81 753.88 764.20 C 754.69 760.38 755.00 700.15 755.00 548.45 L 755.00 338.00 L 512.50 338.00 L 270.00 338.00 L 269.82 511.75 C 269.73 607.31 269.61 700.58 269.57 719.00 C 269.49 757.90 269.99 766.11 272.79 771.56 C 276.34 778.50 283.83 784.88 290.99 787.07 C 292.37 787.49 392.50 787.76 513.50 787.67 L 733.50 787.50 L 738.59 784.81 Z M 600.87 287.32 C 595.50 283.98 593.34 275.84 596.28 270.03 C 601.00 260.70 615.86 260.86 620.33 270.28 C 622.38 274.60 622.43 277.04 620.56 281.51 C 617.78 288.17 607.25 291.27 600.87 287.32 Z M 648.30 287.04 C 644.61 284.79 642.00 280.34 642.00 276.28 C 642.00 269.60 648.71 263.00 655.50 263.00 C 662.04 263.00 669.00 269.58 669.00 275.77 C 669.00 285.97 657.13 292.43 648.30 287.04 Z M 694.89 287.50 C 684.04 281.60 687.81 264.68 700.30 263.27 C 706.63 262.56 711.36 265.05 714.00 270.50 C 716.19 275.02 716.04 277.88 713.34 283.23 C 710.68 288.53 700.93 290.78 694.89 287.50 Z M 307.03 286.72 C 304.09 285.23 300.00 279.47 300.00 276.82 C 300.00 273.12 302.93 268.01 306.19 266.03 C 309.37 264.09 311.14 264.01 351.80 264.00 C 397.54 264.00 397.82 264.03 401.35 269.41 C 402.26 270.80 403.00 273.76 403.00 276.00 C 403.00 280.76 400.83 284.52 396.90 286.55 C 393.07 288.53 310.92 288.69 307.03 286.72 Z M 497.50 747.36 C 466.98 743.88 448.11 738.60 425.45 727.22 C 341.24 684.91 299.49 589.41 326.07 499.94 C 348.62 424.03 415.08 369.02 493.86 361.05 C 571.20 353.22 647.25 394.79 684.47 465.24 C 715.37 523.72 712.89 596.73 678.05 654.42 C 651.28 698.74 604.71 731.83 552.88 743.37 C 535.37 747.27 511.70 748.98 497.50 747.36 Z M 539.15 721.05 C 566.18 716.41 588.60 707.12 610.50 691.47 C 648.34 664.45 672.61 624.92 679.57 579.00 C 681.39 566.97 681.62 542.35 680.01 531.00 C 673.36 484.02 645.72 439.97 606.55 413.92 C 554.59 379.37 491.88 374.96 437.87 402.06 C 418.89 411.59 405.73 421.33 390.50 437.13 C 368.15 460.31 354.21 486.36 346.36 519.58 C 343.70 530.85 343.55 532.76 343.56 554.50 C 343.56 574.51 343.85 578.82 345.78 587.65 C 350.44 609.01 359.20 629.74 370.89 647.15 C 397.70 687.03 440.00 714.21 486.50 721.41 C 500.38 723.56 525.54 723.39 539.15 721.05 Z M 489.50 703.48 C 465.01 699.52 441.73 689.69 421.39 674.71 C 417.60 671.92 409.77 664.88 403.98 659.07 C 348.27 603.09 345.94 516.61 398.50 454.98 C 419.34 430.53 449.86 412.61 483.00 405.36 C 495.19 402.69 528.81 402.69 541.00 405.36 C 600.13 418.30 646.45 463.40 659.94 521.16 C 669.15 560.60 661.34 602.57 638.30 637.44 C 629.58 650.65 610.20 670.08 597.00 678.86 C 580.07 690.11 561.71 697.85 541.78 702.14 C 529.30 704.83 502.13 705.52 489.50 703.48 Z M 523.17 679.99 C 544.81 677.93 563.90 671.14 582.42 658.91 C 600.76 646.80 615.78 630.07 624.97 611.50 C 633.79 593.69 637.73 578.88 638.67 560.00 C 640.71 519.05 622.15 479.72 588.52 453.73 C 576.88 444.74 556.98 434.87 543.72 431.52 C 492.99 418.70 441.68 437.19 410.35 479.59 C 394.06 501.62 385.73 526.90 385.64 554.50 C 385.54 588.20 397.76 617.63 422.00 642.05 C 446.62 666.86 472.78 678.33 510.50 680.86 C 511.60 680.94 517.30 680.54 523.17 679.99 Z M 408.24 570.57 L 404.50 567.14 L 404.60 556.82 C 405.01 514.98 431.56 474.36 470.12 456.59 C 480.23 451.93 488.44 449.67 492.51 450.44 C 499.99 451.84 504.13 460.98 500.48 468.04 C 499.04 470.82 492.61 475.00 489.78 475.00 C 486.68 475.00 467.93 485.34 461.91 490.37 C 450.59 499.84 440.81 513.13 435.43 526.35 C 431.59 535.80 430.02 542.99 429.09 555.36 C 427.96 570.55 425.53 574.00 415.94 574.00 C 412.81 574.00 411.18 573.27 408.24 570.57 Z M 574.10 501.88 C 560.89 487.92 549.30 480.09 534.07 474.85 C 523.39 471.18 519.38 463.81 523.96 456.30 C 526.22 452.59 530.69 449.99 534.70 450.03 C 538.76 450.08 553.53 455.93 562.41 461.02 C 577.91 469.88 598.91 489.75 600.52 497.07 C 602.16 504.55 596.04 512.00 588.26 512.00 C 583.74 512.00 583.52 511.85 574.10 501.88 Z" stroke-linecap="round"/>
</g>
</g>
</g>

  </svg>