<svg xmlns="http://www.w3.org/2000/svg" xmlns:xlink="http://www.w3.org/1999/xlink" width="3467px" height="3303px" viewBox="0 0 3466.666666666668 3302.720449603934">
    <g id="6cfe6c29-fc9e-4852-8d4a-334adac311e6">
<g style="">
		<g id="6cfe6c29-fc9e-4852-8d4a-334adac311e6-child-0">
<path style="stroke: rgb(193,193,193); stroke-width: 0; stroke-dasharray: none; stroke-linecap: butt; stroke-dashoffset: 0; stroke-linejoin: miter; stroke-miterlimit: 4; fill: rgb(0,0,0); fill-rule: nonzero; opacity: 1;" transform="matrix(4.756797 0 0 4.756797 1733.333459 1651.360344) matrix(1 0 0 1 0 0)  translate(-512.477957, -512.35511)" d="M 432.00 859.05 C 421.56 856.98 414.98 848.93 415.02 838.28 C 415.04 832.65 415.20 832.35 431.69 808.29 C 438.39 798.51 452.11 778.45 462.19 763.73 C 472.26 749.01 485.38 729.84 491.33 721.13 L 502.17 705.30 L 498.42 699.40 C 492.69 690.40 395.19 544.13 391.49 539.00 C 382.73 526.83 381.95 519.88 388.69 513.78 C 389.76 512.82 410.08 506.62 435.54 499.50 C 460.27 492.58 491.52 483.81 505.00 480.01 C 535.72 471.35 622.17 447.39 660.47 436.92 C 676.40 432.56 690.43 429.00 691.64 429.00 C 692.85 429.00 695.23 430.17 696.92 431.59 C 700.48 434.58 701.03 439.12 698.44 444.12 C 696.54 447.79 673.17 482.20 597.67 592.50 C 583.36 613.40 568.27 635.45 564.14 641.50 C 560.01 647.55 549.38 663.08 540.51 676.00 C 531.64 688.92 517.02 710.30 508.02 723.50 C 499.02 736.70 486.85 754.47 480.98 763.00 C 448.38 810.37 430.65 836.63 430.26 838.12 C 428.88 843.39 435.79 846.05 439.69 841.75 C 440.81 840.51 451.53 825.10 463.53 807.50 C 501.82 751.29 514.99 732.02 530.86 709.00 C 539.38 696.62 553.41 676.15 562.03 663.50 C 570.65 650.85 581.44 635.10 586.00 628.50 C 590.57 621.90 603.83 602.55 615.48 585.50 C 627.13 568.45 643.73 544.15 652.37 531.50 C 661.02 518.85 669.43 507.26 671.06 505.75 C 674.55 502.52 681.10 501.98 684.85 504.61 C 686.11 505.49 698.51 523.38 712.40 544.36 C 726.29 565.34 760.76 617.38 789.00 660.00 C 817.23 702.62 843.17 741.89 846.65 747.25 C 852.32 756.00 853.27 757.00 855.96 757.00 C 860.06 757.00 862.69 753.17 860.90 749.82 C 859.79 747.75 831.42 704.82 728.19 549.00 C 691.46 493.55 689.33 490.23 687.95 486.28 C 686.36 481.72 688.50 476.97 698.69 462.41 C 703.66 455.31 712.18 442.99 717.62 435.04 C 723.05 427.09 728.93 419.61 730.69 418.43 C 732.44 417.25 739.19 414.85 745.69 413.09 C 766.47 407.46 771.25 405.70 772.09 403.37 C 772.58 401.98 772.31 400.46 771.31 399.03 C 769.92 397.05 769.20 396.90 764.11 397.49 C 759.28 398.05 758.07 397.84 755.80 396.06 C 752.41 393.39 751.48 389.17 753.32 384.85 C 754.10 383.01 758.99 375.42 764.18 368.00 C 783.20 340.78 825.00 278.98 825.00 278.08 C 825.00 277.57 823.54 276.86 821.75 276.50 C 819.96 276.15 817.78 275.65 816.89 275.40 C 814.94 274.86 808.60 283.87 738.62 386.67 C 731.06 397.77 723.87 407.51 722.64 408.32 C 719.63 410.29 709.01 413.57 681.58 421.01 C 656.91 427.69 651.83 428.19 646.72 424.41 C 645.29 423.36 636.34 410.80 626.83 396.50 C 593.76 346.81 590.08 341.76 587.44 342.43 C 582.12 343.76 579.89 345.01 580.61 346.25 C 581.02 346.94 592.07 363.53 605.18 383.12 C 618.29 402.71 629.49 420.11 630.07 421.78 C 631.51 425.91 629.68 432.51 626.51 434.58 C 625.19 435.45 600.79 442.67 572.30 450.62 C 513.62 466.99 472.87 478.43 406.50 497.15 C 347.79 513.72 342.58 515.17 306.50 525.00 C 290.00 529.49 275.50 533.57 274.28 534.05 C 271.20 535.27 270.27 539.54 272.54 542.04 C 273.51 543.12 274.88 544.00 275.57 544.00 C 276.26 544.00 294.66 539.05 316.45 533.00 C 339.69 526.55 357.94 522.00 360.56 522.00 C 364.23 522.00 365.64 522.58 368.46 525.25 C 371.82 528.43 420.72 600.44 423.74 606.64 C 425.66 610.59 424.72 616.38 421.68 619.37 C 420.08 620.95 407.38 624.96 374.00 634.42 C 348.98 641.51 309.24 652.78 285.71 659.45 L 242.92 671.60 L 239.00 677.50 C 236.84 680.75 235.23 683.56 235.41 683.75 C 235.60 683.93 260.45 677.12 290.63 668.60 C 424.79 630.74 431.32 628.97 434.53 629.57 C 436.26 629.90 438.83 631.14 440.26 632.33 C 443.13 634.74 479.40 688.30 480.99 692.47 C 481.74 694.44 481.62 695.84 480.51 697.99 C 478.77 701.34 476.15 702.41 471.94 701.49 C 469.34 700.92 466.46 697.14 450.72 673.70 C 440.70 658.79 432.19 646.14 431.82 645.60 C 431.13 644.59 424.80 646.20 383.50 657.89 C 371.95 661.17 349.45 667.50 333.50 671.97 C 317.55 676.44 296.62 682.30 287.00 685.00 C 277.38 687.71 258.92 692.88 246.00 696.49 C 232.42 700.29 221.81 703.79 220.86 704.79 C 219.96 705.73 211.70 717.53 202.51 731.00 C 183.80 758.45 182.15 760.49 176.50 763.10 C 160.90 770.33 143.59 754.37 149.15 737.90 C 149.78 736.03 153.75 729.55 157.98 723.50 C 166.31 711.57 204.64 655.65 245.35 596.01 L 270.94 558.53 L 268.22 557.14 C 255.65 550.76 252.21 534.90 261.30 525.17 C 264.76 521.46 268.21 520.07 287.47 514.61 L 305.50 509.50 L 312.74 499.00 C 317.23 492.49 319.86 487.72 319.67 486.44 C 319.49 485.31 303.66 460.79 284.49 431.94 C 265.32 403.10 238.64 362.85 225.20 342.50 C 211.76 322.15 200.71 305.43 200.63 305.34 C 200.56 305.26 191.85 303.14 181.29 300.64 C 160.06 295.61 157.24 294.50 153.64 289.75 C 143.66 276.56 153.51 256.85 170.00 257.04 C 171.38 257.06 176.04 257.91 180.36 258.93 L 188.22 260.80 L 201.36 257.33 C 208.59 255.43 230.48 249.43 250.00 244.01 C 288.67 233.28 364.85 212.41 438.00 192.52 C 500.67 175.47 497.46 176.47 498.80 173.55 C 500.50 169.81 507.33 165.77 512.84 165.24 C 517.40 164.80 531.30 167.66 573.00 177.62 C 598.11 183.62 624.43 189.77 666.50 199.49 C 691.25 205.21 726.12 213.30 744.00 217.47 C 761.88 221.65 796.08 229.57 820.00 235.08 C 867.73 246.07 869.18 246.60 872.96 254.43 C 878.45 265.75 872.87 278.81 860.72 283.09 C 857.51 284.22 855.80 284.19 849.50 282.91 L 842.06 281.40 L 838.05 286.95 C 835.84 290.00 820.37 312.49 803.67 336.92 L 773.30 381.35 L 777.84 384.42 C 790.29 392.85 789.95 411.76 777.24 418.68 C 775.18 419.80 765.71 422.89 756.19 425.56 L 738.89 430.41 L 721.79 455.45 C 712.38 469.23 704.50 481.42 704.27 482.53 C 703.81 484.74 712.44 497.96 831.50 677.50 C 854.48 712.15 874.11 742.30 875.12 744.50 C 877.66 750.04 877.45 754.70 874.38 760.87 C 870.90 767.84 865.81 771.24 858.02 771.81 C 850.76 772.33 846.24 770.88 842.24 766.73 C 840.52 764.95 827.50 745.84 813.31 724.26 C 747.24 623.81 678.66 520.95 677.92 521.21 C 677.48 521.37 667.50 535.67 655.75 553.00 C 644.01 570.33 617.58 609.03 597.03 639.00 C 527.52 740.39 484.43 803.40 467.62 828.25 C 450.93 852.91 447.19 857.24 441.50 858.52 C 436.10 859.72 435.54 859.75 432.00 859.05 Z M 171.20 748.75 C 172.79 747.50 180.14 736.97 208.31 695.55 C 216.52 683.47 228.74 665.70 235.45 656.05 C 242.17 646.40 256.68 625.22 267.70 609.00 C 278.72 592.78 292.04 573.21 297.30 565.51 C 302.56 557.82 306.70 551.37 306.51 551.18 C 305.99 550.66 291.76 554.82 290.99 555.72 C 290.62 556.15 280.72 570.67 268.99 588.00 C 257.25 605.33 242.85 626.47 236.99 635.00 C 183.92 712.12 163.00 743.10 163.00 744.59 C 163.00 746.88 165.86 750.00 167.96 750.00 C 168.87 750.00 170.33 749.44 171.20 748.75 Z M 524.87 672.21 C 531.44 662.47 549.12 636.63 564.16 614.78 C 640.79 503.46 678.30 448.00 676.98 448.00 C 675.42 448.00 604.92 467.42 501.00 496.46 C 482.58 501.61 452.65 509.96 434.50 515.02 C 416.35 520.08 401.17 524.52 400.76 524.89 C 400.36 525.27 402.17 528.52 404.79 532.11 C 407.41 535.71 432.44 572.91 460.42 614.79 C 488.40 656.67 511.66 690.71 512.11 690.43 C 512.56 690.16 518.30 681.96 524.87 672.21 Z M 297.00 640.66 C 384.74 615.97 407.00 609.54 407.00 608.90 C 407.00 607.96 362.25 541.02 360.13 538.78 C 358.59 537.16 357.68 537.28 344.15 540.78 L 329.81 544.50 L 315.23 566.00 C 307.22 577.83 291.58 600.78 280.47 617.00 C 269.36 633.22 259.50 647.72 258.55 649.21 L 256.82 651.92 L 263.66 650.02 C 267.42 648.98 282.42 644.76 297.00 640.66 Z M 343.50 499.46 C 350.65 497.42 356.82 495.57 357.22 495.34 C 357.62 495.11 356.27 492.62 354.22 489.81 C 352.17 487.00 324.85 446.19 293.50 399.12 L 236.50 313.54 L 229.53 311.82 C 225.69 310.88 222.41 310.26 222.23 310.44 C 222.05 310.62 228.65 320.83 236.90 333.13 C 245.14 345.43 270.86 384.06 294.05 418.97 C 335.28 481.04 336.20 482.53 335.74 486.60 C 335.47 488.97 333.71 493.29 331.64 496.65 C 327.71 503.01 327.32 504.15 329.25 503.54 C 329.94 503.33 336.35 501.49 343.50 499.46 Z M 409.50 480.68 C 473.55 462.77 592.23 429.69 602.29 426.95 C 608.77 425.18 613.95 423.45 613.79 423.11 C 613.63 422.78 602.58 406.19 589.24 386.25 C 571.47 359.69 564.48 350.00 563.07 350.00 C 562.02 350.00 554.71 351.76 546.83 353.92 C 538.95 356.07 530.62 358.33 528.31 358.94 C 524.59 359.92 523.86 360.63 521.69 365.36 C 519.01 371.22 515.64 374.14 509.39 376.00 C 505.76 377.09 503.94 376.92 493.89 374.55 C 432.72 360.11 426.52 358.83 425.50 360.48 C 424.40 362.25 389.19 413.43 368.15 443.84 L 354.80 463.14 L 363.99 476.98 L 373.17 490.82 L 381.33 488.55 C 385.82 487.30 398.50 483.76 409.50 480.68 Z M 378.58 402.25 L 410.83 355.50 L 406.66 354.24 C 403.04 353.14 358.29 342.55 281.22 324.54 C 268.97 321.68 259.07 319.67 259.22 320.07 C 259.99 322.09 345.56 449.75 345.92 449.40 C 346.15 449.18 360.85 427.96 378.58 402.25 Z M 685.47 404.42 C 700.53 400.19 713.23 396.10 714.15 395.17 C 715.05 394.25 724.23 381.12 734.55 366.00 C 744.86 350.88 759.46 329.50 766.98 318.50 C 774.50 307.50 782.14 296.30 783.97 293.61 L 787.29 288.72 L 783.73 289.39 C 780.11 290.07 758.43 295.92 666.00 321.17 C 637.67 328.91 612.70 335.70 610.50 336.27 C 608.30 336.84 606.35 337.42 606.17 337.56 C 605.31 338.25 655.60 412.00 656.93 412.00 C 657.76 412.00 670.60 408.59 685.47 404.42 Z M 506.78 360.44 C 509.68 358.41 509.66 354.48 506.74 352.56 C 505.49 351.75 494.13 348.62 481.49 345.62 C 468.84 342.61 449.05 337.89 437.50 335.13 C 425.95 332.37 403.67 327.14 388.00 323.51 C 372.33 319.88 348.48 314.25 335.00 311.01 C 321.52 307.76 298.59 302.36 284.03 299.00 C 259.28 293.29 228.95 286.09 186.68 275.89 C 173.26 272.65 168.45 271.85 167.18 272.65 C 165.20 273.90 164.59 276.25 165.41 279.49 C 165.91 281.49 167.24 282.11 174.75 283.87 C 179.56 284.99 198.57 289.50 217.00 293.89 C 256.62 303.32 318.22 317.89 395.50 336.11 C 426.30 343.37 463.20 352.11 477.50 355.55 C 491.80 358.98 503.74 361.83 504.03 361.89 C 504.32 361.95 505.56 361.30 506.78 360.44 Z M 563.50 333.93 C 583.30 328.52 615.92 319.58 636.00 314.07 C 656.08 308.56 700.10 296.52 733.82 287.32 C 773.45 276.52 794.48 270.35 793.25 269.90 C 792.21 269.51 787.51 268.40 782.80 267.42 L 774.25 265.64 L 699.87 285.96 C 658.97 297.14 613.35 309.62 598.50 313.70 C 583.65 317.77 560.03 324.22 546.00 328.03 C 531.97 331.83 518.58 335.52 516.23 336.22 L 511.96 337.50 L 516.73 341.17 C 520.53 344.10 522.11 344.73 524.50 344.31 C 526.15 344.01 543.70 339.34 563.50 333.93 Z M 509.19 322.47 C 524.71 318.32 537.57 314.76 537.79 314.55 C 538.22 314.12 528.47 299.41 527.25 298.66 C 526.83 298.39 516.59 300.96 504.51 304.37 L 482.55 310.57 L 476.73 319.03 L 470.91 327.50 L 474.71 328.67 C 476.79 329.32 479.06 329.88 479.74 329.92 C 480.43 329.97 493.68 326.61 509.19 322.47 Z M 457.55 320.35 L 460.33 316.70 L 457.42 317.41 C 455.81 317.81 452.02 318.85 449.00 319.74 L 443.50 321.35 L 448.00 322.58 C 454.49 324.35 454.50 324.35 457.55 320.35 Z M 440.54 306.58 C 455.37 302.50 493.38 291.97 525.00 283.19 C 587.21 265.91 667.12 244.01 670.75 243.24 C 674.94 242.36 673.03 241.35 663.09 239.21 L 653.17 237.08 L 614.84 247.60 C 593.75 253.38 560.30 262.55 540.50 267.97 C 520.70 273.40 487.85 282.41 467.50 288.01 C 447.15 293.61 421.32 300.54 410.10 303.42 L 389.69 308.64 L 399.10 311.19 C 404.27 312.59 409.64 313.80 411.04 313.87 C 412.44 313.94 425.71 310.66 440.54 306.58 Z M 559.56 308.88 C 562.00 308.27 564.00 307.50 564.00 307.19 C 564.00 305.93 553.69 291.00 552.82 291.00 C 550.77 291.00 543.00 293.28 543.03 293.87 C 543.08 294.80 553.97 310.00 554.59 310.00 C 554.88 310.00 557.11 309.50 559.56 308.88 Z M 608.00 295.57 C 620.92 292.01 656.67 282.21 687.44 273.80 L 743.38 258.51 L 725.01 254.07 L 706.65 249.64 L 685.58 254.95 C 662.76 260.71 569.75 285.92 569.16 286.51 C 568.96 286.71 571.42 290.52 574.61 294.99 C 579.31 301.55 580.82 303.01 582.46 302.58 C 583.58 302.30 595.08 299.14 608.00 295.57 Z M 375.72 295.08 C 413.04 285.30 462.12 272.05 462.97 271.52 C 464.37 270.65 473.24 257.91 472.77 257.43 C 472.35 257.02 428.89 268.52 397.00 277.48 C 388.48 279.88 372.27 284.38 361.00 287.48 C 349.73 290.58 338.92 293.62 337.00 294.24 L 333.50 295.36 L 342.00 297.58 C 346.67 298.81 351.95 299.85 353.72 299.90 C 355.48 299.96 365.38 297.78 375.72 295.08 Z M 329.59 280.57 C 366.71 270.31 415.30 257.01 454.32 246.41 L 487.15 237.50 L 493.75 227.76 C 497.38 222.40 500.16 217.85 499.93 217.64 C 499.69 217.44 490.95 219.63 480.50 222.52 C 470.05 225.41 433.83 235.27 400.00 244.45 C 299.63 271.67 271.52 279.35 271.08 279.69 C 270.85 279.86 270.85 280.18 271.08 280.40 C 271.43 280.72 300.22 287.72 302.09 287.93 C 302.41 287.97 314.78 284.66 329.59 280.57 Z M 269.50 264.60 C 307.73 254.25 498.84 202.13 501.24 201.40 C 502.77 200.94 502.57 200.35 499.75 196.84 C 496.87 193.26 496.15 192.88 493.20 193.35 C 491.38 193.65 457.40 202.72 417.69 213.52 C 343.74 233.63 330.74 237.18 271.00 253.63 C 252.02 258.86 233.01 264.08 228.75 265.23 C 224.49 266.38 221.00 267.60 221.00 267.94 C 221.00 268.46 234.36 272.45 237.50 272.86 C 238.05 272.93 252.45 269.21 269.50 264.60 Z M 858.17 267.35 C 860.32 265.40 860.57 261.72 858.66 260.13 C 857.42 259.10 832.59 253.22 672.50 216.05 C 639.50 208.38 591.80 197.28 566.50 191.38 C 541.20 185.47 518.85 180.45 516.84 180.22 C 513.75 179.87 512.90 180.22 511.47 182.40 C 509.91 184.78 509.90 185.20 511.35 187.41 C 512.23 188.76 514.38 190.13 516.22 190.51 C 518.02 190.88 555.05 199.44 598.50 209.53 C 641.95 219.62 685.60 229.73 695.50 231.99 C 716.65 236.83 823.10 261.75 840.50 265.94 C 854.87 269.39 855.83 269.47 858.17 267.35 Z M 495.55 264.49 C 501.04 263.00 501.91 262.38 505.05 257.68 C 518.83 237.04 525.71 227.69 527.93 226.54 C 529.34 225.82 537.25 223.54 545.50 221.48 C 553.75 219.43 560.87 217.41 561.33 216.99 C 561.79 216.58 557.00 214.98 550.69 213.44 C 539.25 210.65 539.20 210.65 531.05 212.25 C 526.55 213.14 522.23 214.40 521.44 215.05 C 519.86 216.36 487.08 263.67 486.23 265.87 C 485.86 266.82 486.27 267.07 487.60 266.68 C 488.64 266.38 492.22 265.40 495.55 264.49 Z M 572.30 243.04 C 587.81 238.66 604.72 234.00 609.87 232.67 C 615.02 231.35 618.85 230.04 618.37 229.76 C 617.89 229.49 612.33 228.05 606.00 226.56 L 594.50 223.85 L 565.08 231.69 C 548.90 236.00 535.50 240.00 535.30 240.59 C 534.87 241.88 541.69 251.00 543.09 251.00 C 543.65 251.00 556.79 247.42 572.30 243.04 Z" stroke-linecap="round"/>
</g>
</g>
</g>

  </svg>