<svg xmlns="http://www.w3.org/2000/svg" xmlns:xlink="http://www.w3.org/1999/xlink" width="500px" height="414px" viewBox="0 0 499.9999999999998 413.5665229208157">
    <g id="886b822e-aa47-4b83-bbc6-b58baa2d8bc0">
<g style="">
		<g id="886b822e-aa47-4b83-bbc6-b58baa2d8bc0-child-0">
<path style="stroke: rgb(193,193,193); stroke-width: 0; stroke-dasharray: none; stroke-linecap: butt; stroke-dashoffset: 0; stroke-linejoin: miter; stroke-miterlimit: 4; fill: rgb(0,0,0); fill-rule: nonzero; opacity: 1;" transform="matrix(0.806663 0 0 0.806663 249.999889 206.78317) matrix(1 0 0 1 0 0)  translate(-512.081373, -512.343936)" d="M 306.75 767.94 C 296.67 765.50 286.02 756.68 281.71 747.22 C 280.00 743.44 279.49 740.07 279.18 730.38 L 278.80 718.25 L 270.69 715.58 C 259.56 711.91 252.87 707.86 244.02 699.40 C 235.34 691.11 230.09 682.86 226.24 671.50 L 223.53 663.50 L 223.21 606.67 L 222.89 549.84 L 218.52 544.47 C 207.91 531.44 202.94 518.18 202.24 501.00 C 201.29 477.48 209.09 458.43 226.29 442.35 C 239.46 430.02 255.21 423.33 273.46 422.30 L 283.76 421.71 L 289.36 402.61 C 292.45 392.10 298.15 372.48 302.03 359.00 C 312.50 322.72 320.56 307.30 338.41 289.38 C 351.39 276.36 365.84 267.35 383.31 261.39 C 399.15 255.98 398.77 256.00 512.72 256.00 C 614.31 256.00 618.55 256.07 628.02 258.00 C 663.60 265.26 693.05 288.53 709.54 322.45 C 714.00 331.62 717.05 340.94 727.46 377.20 C 734.36 401.24 740.00 421.08 740.00 421.30 C 740.00 421.52 744.61 421.98 750.25 422.32 C 765.38 423.25 775.97 426.65 788.02 434.44 C 809.76 448.51 822.00 471.04 822.00 497.00 C 822.00 514.90 816.93 529.87 806.07 544.00 L 801.07 550.50 L 801.02 605.00 C 800.96 665.49 800.78 667.56 794.58 680.31 C 786.14 697.68 769.70 711.46 751.32 716.57 L 745.16 718.28 L 744.83 730.39 C 744.54 741.00 744.17 743.20 741.85 748.15 C 738.35 755.61 732.31 761.48 724.15 765.35 L 717.50 768.50 L 683.00 768.50 L 648.50 768.50 L 642.28 765.63 C 634.94 762.24 626.93 754.30 623.73 747.25 C 622.02 743.49 621.49 740.06 621.18 730.75 L 620.79 719.00 L 512.02 719.00 L 403.25 719.00 L 402.77 730.75 C 402.40 739.80 401.80 743.60 400.16 747.29 C 397.04 754.32 389.10 762.22 381.72 765.63 L 375.50 768.50 L 343.00 768.67 C 325.12 768.77 308.81 768.44 306.75 767.94 Z M 371.55 737.55 C 373.74 735.35 374.00 734.25 374.00 727.05 L 374.00 719.00 L 341.00 719.00 L 308.00 719.00 L 308.00 727.51 L 308.00 736.03 L 311.25 738.01 C 314.28 739.86 316.35 739.99 341.80 740.00 L 369.09 740.00 L 371.55 737.55 Z M 713.55 737.55 C 715.74 735.35 716.00 734.25 716.00 727.05 L 716.00 719.00 L 683.00 719.00 L 650.00 719.00 L 650.00 726.58 C 650.00 733.62 650.21 734.36 652.92 737.08 L 655.85 740.00 L 683.47 740.00 L 711.09 740.00 L 713.55 737.55 Z M 745.89 687.85 C 752.54 686.05 761.26 679.71 765.42 673.67 C 771.95 664.21 772.00 663.71 772.00 613.73 C 772.00 571.33 771.90 568.82 770.25 569.47 C 765.93 571.17 753.11 573.00 745.66 572.98 C 738.50 572.95 735.66 572.59 726.50 570.53 C 724.59 570.10 724.51 570.52 724.82 580.29 C 725.99 616.96 701.77 648.72 665.59 657.98 C 657.83 659.96 654.99 660.00 512.09 659.98 C 351.54 659.96 359.98 660.29 345.50 653.59 C 315.41 639.69 297.51 610.81 299.40 579.19 C 299.92 570.40 299.85 569.91 298.07 570.48 C 286.97 574.00 268.55 573.55 254.21 569.41 L 251.92 568.75 L 252.21 615.12 L 252.50 661.50 L 255.38 667.73 C 260.45 678.72 272.36 687.41 284.36 688.87 C 287.19 689.22 391.20 689.40 515.50 689.27 C 686.54 689.10 742.57 688.75 745.89 687.85 Z M 653.99 630.97 C 668.02 629.15 682.61 619.84 689.06 608.60 C 690.67 605.79 691.99 603.16 691.99 602.75 C 692.00 602.34 647.43 602.00 592.96 602.00 C 495.73 602.00 493.85 601.96 489.98 599.99 C 485.26 597.58 483.00 593.63 483.00 587.80 C 483.01 582.52 485.77 577.72 490.21 575.30 C 493.31 573.61 499.46 573.48 594.73 573.23 L 695.96 572.96 L 693.91 567.73 C 688.13 552.99 677.12 542.66 660.96 536.83 L 654.50 534.50 L 516.00 534.22 C 422.07 534.03 375.25 534.28 370.50 535.00 C 354.87 537.37 339.79 548.30 333.25 562.00 C 331.54 565.58 329.85 569.51 329.50 570.75 L 328.87 573.00 L 387.18 573.00 C 440.71 573.00 445.79 573.15 448.98 574.75 C 459.36 579.97 459.81 595.54 449.72 600.33 C 446.56 601.83 440.36 602.00 389.10 602.00 C 357.69 602.00 332.00 602.24 332.00 602.54 C 332.00 604.76 337.24 612.40 342.07 617.23 C 349.42 624.58 359.95 629.81 369.67 630.94 C 379.77 632.12 644.96 632.14 653.99 630.97 Z M 288.89 542.94 C 296.52 541.18 304.30 536.72 310.62 530.49 C 328.86 512.48 329.76 485.05 312.74 466.41 C 303.14 455.90 291.90 451.00 277.38 451.00 C 251.32 451.00 231.00 471.39 231.00 497.53 C 231.00 517.81 246.05 537.21 266.00 542.64 C 271.54 544.15 283.00 544.30 288.89 542.94 Z M 760.29 541.99 C 773.32 537.97 783.45 528.84 789.71 515.47 C 792.28 509.97 792.50 508.55 792.50 497.50 C 792.50 486.46 792.28 485.02 789.71 479.54 C 781.20 461.36 765.32 451.00 745.98 451.00 C 732.23 451.00 720.54 456.15 711.52 466.19 C 694.85 484.73 695.49 512.61 712.99 530.14 C 718.72 535.88 727.99 541.32 734.75 542.92 C 741.68 544.55 753.38 544.13 760.29 541.99 Z M 670.79 498.25 C 670.86 483.66 673.07 474.56 679.69 461.73 C 685.30 450.83 696.75 438.59 706.57 433.00 L 712.63 429.54 L 708.77 416.52 C 706.64 409.36 700.89 389.75 695.98 372.95 C 686.18 339.37 685.42 337.23 680.24 328.50 C 667.90 307.74 649.12 293.17 626.45 286.78 L 618.50 284.54 L 518.50 284.21 C 450.32 283.99 415.48 284.23 409.00 284.98 C 385.31 287.71 364.24 300.24 349.23 320.50 C 341.96 330.32 338.51 338.44 331.14 363.09 C 313.98 420.54 312.00 427.28 312.00 428.36 C 312.00 428.99 314.97 431.30 318.60 433.50 C 328.80 439.68 340.08 452.21 345.49 463.34 C 351.45 475.64 353.35 483.89 353.40 497.75 C 353.42 503.94 353.46 509.00 353.47 509.00 C 353.49 509.00 356.65 508.33 360.50 507.52 C 366.51 506.24 388.04 506.04 512.50 506.09 C 648.73 506.13 657.89 506.24 664.00 507.93 C 667.58 508.91 670.55 509.78 670.62 509.86 C 670.69 509.94 670.76 504.71 670.79 498.25 Z" stroke-linecap="round"/>
</g>
</g>
</g>

  </svg>