<svg xmlns="http://www.w3.org/2000/svg" xmlns:xlink="http://www.w3.org/1999/xlink" width="500px" height="304px" viewBox="0 0 500.00000000000006 303.90450739207563">
    <g id="253cbf55-0180-454c-bf2c-cd49c180592a">
<g style="">
		<g id="253cbf55-0180-454c-bf2c-cd49c180592a-child-0">
<path style="stroke: rgb(193,193,193); stroke-width: 0; stroke-dasharray: none; stroke-linecap: butt; stroke-dashoffset: 0; stroke-linejoin: miter; stroke-miterlimit: 4; fill: rgb(0,0,0); fill-rule: nonzero; opacity: 1;" transform="matrix(0.591366 0 0 0.591366 249.999976 151.95224) matrix(1 0 0 1 0 0)  translate(-512.25, -512.020373)" d="M 145.67 767.37 C 120.40 761.95 101.14 744.67 92.31 719.50 L 89.50 711.50 L 89.50 512.50 L 89.50 313.50 L 92.31 305.50 C 96.41 293.81 102.27 284.52 110.93 276.00 C 119.73 267.34 128.18 262.08 139.50 258.22 L 147.50 255.50 L 508.50 255.23 C 914.23 254.92 877.43 254.21 894.97 262.68 C 903.06 266.59 905.76 268.59 913.51 276.38 C 923.90 286.83 929.75 296.78 933.03 309.62 C 934.96 317.15 935.00 321.64 935.00 512.50 C 935.00 703.48 934.96 707.85 933.03 715.39 C 927.95 735.26 913.87 752.12 894.50 761.51 C 877.63 769.70 913.19 769.01 511.29 768.92 C 200.06 768.85 151.59 768.64 145.67 767.37 Z M 185.40 734.61 C 192.28 731.73 192.00 734.17 192.00 677.03 L 192.00 625.50 L 187.44 623.08 C 184.52 621.53 182.01 619.17 180.44 616.49 L 178.00 612.32 L 178.00 546.18 L 178.00 480.04 L 175.75 479.49 C 174.51 479.19 162.02 479.06 148.00 479.22 L 122.50 479.50 L 122.23 588.00 C 122.05 659.56 122.31 698.82 123.00 703.32 C 125.50 719.73 137.69 732.26 153.78 734.97 C 162.08 736.37 181.72 736.14 185.40 734.61 Z M 278.08 732.23 L 281.00 728.97 L 280.94 677.23 L 280.88 625.50 L 275.77 623.00 C 271.88 621.09 270.10 619.44 268.33 616.09 L 266.00 611.69 L 266.00 546.00 L 266.00 480.31 L 253.84 479.65 C 247.16 479.29 238.16 479.00 233.84 479.00 L 226.00 479.00 L 226.00 544.26 C 226.00 584.03 225.62 610.85 225.02 612.94 C 223.77 617.29 218.63 622.64 214.32 624.06 L 211.00 625.16 L 211.00 676.94 C 211.00 728.33 211.02 728.75 213.14 731.45 C 214.31 732.94 216.23 734.56 217.39 735.04 C 218.55 735.52 232.03 735.82 247.33 735.71 L 275.17 735.50 L 278.08 732.23 Z M 367.08 732.23 L 370.00 728.97 L 369.95 677.23 L 369.91 625.50 L 364.70 623.00 C 361.61 621.51 358.59 619.12 357.25 617.10 L 355.00 613.70 L 355.00 546.90 L 355.00 480.09 L 351.75 479.50 C 349.96 479.18 340.85 479.04 331.50 479.21 L 314.50 479.50 L 314.00 547.00 C 313.62 598.79 313.21 615.01 312.24 616.71 C 310.72 619.36 305.38 623.50 302.25 624.45 L 300.00 625.13 L 300.00 677.38 L 300.00 729.63 L 302.75 732.22 C 304.26 733.64 306.40 735.03 307.50 735.31 C 308.60 735.59 321.80 735.74 336.83 735.66 L 364.17 735.50 L 367.08 732.23 Z M 452.47 734.58 C 459.10 731.81 459.00 732.68 459.00 676.61 L 459.00 626.13 L 453.78 623.31 C 450.91 621.77 447.53 618.97 446.28 617.10 L 444.00 613.70 L 444.00 546.99 L 444.00 480.28 L 424.38 479.56 C 413.59 479.16 404.38 479.22 403.90 479.70 C 403.43 480.17 402.92 510.70 402.77 547.53 L 402.50 614.50 L 400.11 617.69 C 398.79 619.44 395.74 621.91 393.32 623.19 C 390.91 624.46 388.70 626.41 388.41 627.53 C 388.13 628.64 388.03 651.90 388.20 679.20 L 388.50 728.84 L 391.00 731.53 C 392.38 733.01 394.40 734.59 395.50 735.05 C 396.60 735.50 409.10 735.90 423.28 735.94 C 443.42 735.99 449.81 735.69 452.47 734.58 Z M 540.99 734.51 C 547.24 731.27 547.00 733.56 547.00 676.86 L 547.00 625.16 L 543.55 624.02 C 539.23 622.59 534.43 617.22 533.06 612.28 C 532.38 609.82 532.01 586.01 532.01 544.30 L 532.00 480.09 L 528.75 479.50 C 526.96 479.18 518.08 479.04 509.00 479.21 L 492.50 479.50 L 492.00 546.50 L 491.50 613.50 L 489.18 617.23 C 487.64 619.70 485.19 621.73 481.93 623.23 L 477.00 625.49 L 477.00 677.02 C 477.00 733.96 476.75 731.68 483.38 734.56 C 488.13 736.63 536.97 736.58 540.99 734.51 Z M 629.40 734.61 C 636.28 731.73 636.00 734.18 635.95 677.03 L 635.91 625.50 L 630.72 623.00 C 620.93 618.29 621.57 623.37 621.00 546.50 L 620.50 479.50 L 600.50 479.50 L 580.50 479.50 L 580.45 546.00 C 580.40 606.58 580.25 612.78 578.70 615.70 C 576.70 619.47 571.62 623.56 567.75 624.53 L 565.00 625.22 L 565.00 675.71 C 565.00 731.56 564.97 731.25 571.32 734.39 C 575.75 736.57 624.27 736.75 629.40 734.61 Z M 718.47 734.58 C 725.10 731.81 725.00 732.73 725.00 676.16 L 725.00 625.22 L 722.25 624.53 C 720.74 624.15 718.04 622.73 716.25 621.37 C 709.71 616.40 710.00 619.82 710.00 546.65 L 710.00 480.20 L 697.75 479.52 C 691.01 479.15 681.90 478.99 677.50 479.17 L 669.50 479.50 L 669.00 547.18 C 668.43 624.41 669.23 618.16 659.25 623.00 L 654.09 625.50 L 654.05 676.30 C 654.00 732.47 653.92 731.75 660.31 734.54 C 664.98 736.57 713.62 736.60 718.47 734.58 Z M 806.40 734.61 C 813.28 731.73 813.00 734.17 813.00 677.03 L 813.00 625.50 L 808.86 623.50 C 806.58 622.40 803.32 619.77 801.61 617.65 L 798.50 613.80 L 798.60 546.88 L 798.71 479.97 L 796.60 479.45 C 795.45 479.16 786.40 479.06 776.50 479.22 L 758.50 479.50 L 757.98 547.00 C 757.69 584.12 757.35 614.61 757.23 614.75 C 757.10 614.88 755.40 616.77 753.43 618.94 C 751.47 621.11 748.31 623.40 746.40 624.03 L 742.93 625.18 L 743.22 677.01 L 743.50 728.84 L 746.00 731.53 C 747.38 733.01 749.40 734.59 750.50 735.05 C 751.60 735.50 763.88 735.90 777.78 735.94 C 797.26 735.99 803.83 735.68 806.40 734.61 Z M 871.08 734.99 C 878.97 733.49 884.81 730.29 891.09 724.05 C 894.91 720.25 897.44 716.59 899.09 712.49 L 901.50 706.50 L 901.77 593.25 L 902.04 480.00 L 874.52 480.00 L 847.00 480.00 L 846.99 544.25 C 846.99 586.00 846.62 609.82 845.94 612.28 C 844.57 617.22 839.77 622.59 835.45 624.02 L 832.00 625.16 L 832.00 676.86 C 832.00 733.97 831.75 731.68 838.38 734.56 C 842.16 736.21 863.19 736.48 871.08 734.99 Z M 901.79 382.75 C 901.50 320.18 901.48 319.44 899.30 314.12 C 894.64 302.75 887.22 295.25 876.25 290.82 L 870.50 288.50 L 513.50 288.50 C 215.38 288.50 155.63 288.72 151.19 289.86 C 139.94 292.76 129.17 302.83 124.70 314.67 C 122.53 320.41 122.50 321.43 122.20 381.90 C 122.03 415.67 122.13 443.90 122.42 444.65 C 122.85 445.78 186.13 446.00 512.51 446.00 L 902.08 446.00 L 901.79 382.75 Z M 198.37 383.08 C 193.08 379.86 192.00 377.42 192.00 368.68 C 192.00 359.22 193.62 355.84 199.54 352.98 C 203.32 351.15 205.78 351.00 231.58 351.00 C 262.28 351.00 263.88 351.28 268.45 357.40 C 271.38 361.32 271.83 373.21 269.23 377.92 C 265.48 384.74 264.07 385.00 231.02 385.00 C 203.72 384.99 201.26 384.85 198.37 383.08 Z M 309.27 383.52 C 304.08 381.26 302.01 376.79 302.00 367.83 C 302.00 360.94 302.28 359.82 304.70 356.94 C 310.04 350.60 298.30 351.00 480.50 351.00 C 662.70 351.00 650.96 350.60 656.30 356.94 C 658.72 359.82 659.00 360.94 659.00 367.83 C 658.99 376.91 656.90 381.31 651.51 383.56 C 646.40 385.69 314.18 385.65 309.27 383.52 Z M 696.30 383.04 C 691.32 380.00 690.05 377.24 689.80 368.90 C 689.54 360.07 691.44 355.83 696.98 352.86 C 699.97 351.26 702.78 351.00 716.77 351.00 C 731.13 351.00 733.55 351.24 737.02 353.01 C 742.47 355.79 744.00 359.26 744.00 368.82 C 744.00 375.33 743.63 377.20 741.91 379.39 C 737.91 384.47 735.55 385.00 716.80 385.00 C 701.42 384.99 699.15 384.78 696.30 383.04 Z M 783.27 383.52 C 778.22 381.32 776.01 376.75 776.01 368.50 C 776.01 360.70 777.87 356.44 782.65 353.30 C 784.96 351.79 788.07 351.45 801.93 351.16 C 820.89 350.77 824.46 351.48 828.91 356.55 C 831.80 359.84 832.00 360.58 831.99 367.78 C 831.97 376.64 830.83 379.52 826.09 382.72 C 822.87 384.89 821.82 385.00 804.60 384.96 C 791.33 384.93 785.64 384.55 783.27 383.52 Z" stroke-linecap="round"/>
</g>
</g>
</g>

  </svg>