<svg xmlns="http://www.w3.org/2000/svg" xmlns:xlink="http://www.w3.org/1999/xlink" width="500px" height="424px" viewBox="0 0 499.9999999999998 424.2615229714565">
    <g id="ea8a8a2c-4f25-405d-b3eb-a1137036b9d8">
<g style="">
		<g id="ea8a8a2c-4f25-405d-b3eb-a1137036b9d8-child-0">
<path style="stroke: rgb(193,193,193); stroke-width: 0; stroke-dasharray: none; stroke-linecap: butt; stroke-dashoffset: 0; stroke-linejoin: miter; stroke-miterlimit: 4; fill: rgb(0,0,0); fill-rule: nonzero; opacity: 1;" transform="matrix(0.815824 0 0 0.815824 250.000098 212.130845) matrix(1 0 0 1 0 0)  translate(-512.067691, -511.636107)" d="M 212.32 770.44 C 209.40 768.95 206.00 763.88 206.00 761.00 C 206.00 758.25 209.47 752.81 212.09 751.46 C 216.86 748.99 220.80 749.60 224.60 753.40 C 227.36 756.16 228.00 757.57 228.00 760.88 C 228.00 768.99 219.58 774.13 212.32 770.44 Z M 248.11 769.60 C 243.07 766.81 241.56 760.10 245.00 755.72 L 247.01 753.18 L 242.25 749.68 C 230.87 741.31 218.36 725.65 212.51 712.43 C 207.27 700.58 205.58 691.75 205.63 676.50 C 205.70 659.91 207.59 651.55 214.43 637.50 C 229.11 607.41 257.26 588.54 292.16 585.42 L 299.82 584.74 L 310.02 556.62 C 315.62 541.15 326.42 511.17 334.01 490.00 C 341.60 468.83 351.72 440.70 356.50 427.50 C 371.19 386.95 384.04 350.70 383.76 350.58 C 372.41 345.86 367.42 341.99 363.45 334.83 L 360.50 329.50 L 360.19 302.71 C 359.83 271.75 360.40 268.24 366.94 260.80 C 377.26 249.08 395.43 248.49 406.47 259.53 C 413.13 266.19 414.42 270.46 414.82 287.19 L 415.18 301.88 L 422.34 304.33 C 426.28 305.68 440.20 310.43 453.29 314.88 C 479.99 323.98 481.48 324.64 487.22 329.81 C 501.75 342.90 497.64 368.00 479.75 375.46 C 471.78 378.77 468.32 378.49 452.18 373.19 C 443.83 370.45 437.00 368.33 437.00 368.48 C 437.00 368.96 411.15 440.85 393.50 489.50 C 384.31 514.80 375.31 539.86 373.49 545.19 L 370.17 554.88 L 398.25 588.69 C 413.69 607.29 431.08 628.24 436.89 635.25 L 447.44 648.00 L 503.66 648.00 L 559.88 648.00 L 560.51 643.25 C 562.99 624.61 567.31 603.51 572.62 584.15 C 574.48 577.36 576.00 571.68 576.00 571.53 C 576.00 571.38 570.04 571.05 562.75 570.80 C 552.30 570.44 548.53 569.91 544.93 568.31 C 529.87 561.60 524.04 542.24 532.79 528.00 C 535.88 522.98 543.20 517.56 549.00 516.00 C 551.53 515.32 587.58 515.06 655.66 515.24 L 758.50 515.50 L 763.19 517.81 C 773.65 522.96 780.00 533.20 780.00 544.91 L 780.00 550.74 L 784.88 551.39 C 795.75 552.83 806.11 560.51 811.25 570.92 C 813.38 575.25 813.52 576.89 813.80 600.70 C 814.08 624.40 813.97 626.20 812.01 630.76 L 809.92 635.61 L 813.43 646.10 C 821.49 670.18 819.92 695.23 808.95 717.54 C 804.15 727.30 794.25 739.91 786.61 746.00 L 780.96 750.50 L 795.73 751.00 C 814.33 751.63 817.00 752.95 817.00 761.51 C 817.00 764.20 816.24 765.92 814.08 768.08 L 811.15 771.00 L 530.83 770.96 C 300.06 770.94 250.08 770.69 248.11 769.60 Z M 665.36 745.59 C 654.91 736.13 646.03 723.12 641.25 710.27 L 638.55 703.00 L 529.37 703.00 L 420.20 703.00 L 405.85 685.78 L 391.50 668.56 L 390.36 680.58 C 387.82 707.49 378.89 726.49 360.77 743.54 L 352.83 751.00 L 512.09 751.00 L 671.34 751.00 L 665.36 745.59 Z M 316.34 746.04 C 329.18 742.76 339.16 736.90 349.56 726.53 C 363.40 712.74 369.69 698.72 370.68 679.50 C 371.35 666.52 369.43 657.29 363.59 645.50 C 359.51 637.25 348.11 622.00 346.02 622.00 C 345.09 622.00 341.23 631.58 340.31 636.20 C 339.88 638.35 340.48 639.78 343.02 642.68 C 348.03 648.38 353.09 659.95 354.32 668.54 C 356.83 685.92 351.25 701.95 338.10 715.11 C 326.21 727.02 314.24 732.00 297.50 732.00 C 281.09 732.00 269.03 727.05 257.40 715.53 C 240.22 698.52 236.13 673.54 246.98 652.04 C 250.75 644.57 260.10 634.52 267.33 630.17 C 270.37 628.34 275.93 625.81 279.68 624.55 L 286.50 622.25 L 289.19 615.37 C 292.94 605.77 292.87 605.00 288.25 605.65 C 279.90 606.83 272.07 609.28 264.00 613.23 C 257.14 616.60 253.74 619.15 246.38 626.48 C 238.59 634.24 236.59 636.95 232.68 645.03 C 216.49 678.54 227.03 716.35 258.24 736.69 C 275.68 748.06 295.79 751.30 316.34 746.04 Z M 735.63 747.92 C 777.92 742.04 805.74 703.47 797.45 662.21 C 793.50 642.53 779.43 623.49 761.37 613.39 C 750.25 607.17 741.98 604.86 728.76 604.26 C 719.60 603.84 715.42 604.11 709.76 605.47 C 695.16 608.98 680.75 617.62 671.56 628.38 C 666.62 634.16 660.00 644.65 660.00 646.69 C 660.00 647.67 662.19 647.99 668.75 647.97 L 677.50 647.95 L 680.91 642.92 C 685.79 635.73 693.20 629.45 701.39 625.57 C 723.54 615.06 748.49 619.47 766.01 636.99 C 780.57 651.55 786.01 670.91 781.02 690.41 C 778.29 701.09 774.72 707.30 766.52 715.61 C 755.42 726.86 742.46 732.35 727.00 732.37 C 717.02 732.38 709.79 730.84 701.49 726.95 C 694.25 723.55 684.42 714.89 680.02 708.02 L 676.79 703.00 L 668.40 703.00 C 662.91 703.00 660.00 703.38 660.00 704.11 C 660.00 706.15 665.98 716.48 670.52 722.26 C 682.57 737.60 702.94 747.51 725.18 748.84 C 726.65 748.93 731.36 748.51 735.63 747.92 Z M 305.44 711.49 C 315.21 709.88 327.02 700.73 331.74 691.12 C 334.06 686.41 334.50 684.21 334.50 677.50 C 334.50 670.19 332.81 663.00 331.08 663.00 C 330.72 663.00 329.12 666.94 327.54 671.75 C 321.52 690.12 318.05 695.21 308.52 699.64 C 289.43 708.53 266.92 692.32 269.38 671.44 C 269.72 668.56 271.52 662.22 273.38 657.35 C 275.24 652.48 276.63 648.34 276.45 648.15 C 275.73 647.36 269.05 653.32 266.78 656.78 C 262.10 663.89 260.71 669.23 261.18 678.23 C 261.55 685.22 262.14 687.48 264.98 692.82 C 270.51 703.19 280.38 710.38 291.31 712.00 C 296.49 712.77 297.99 712.71 305.44 711.49 Z M 740.20 710.03 C 748.08 707.08 755.17 700.44 759.22 692.21 C 762.20 686.16 762.50 684.71 762.48 676.52 C 762.47 668.88 762.06 666.63 759.82 661.82 C 750.50 641.81 725.19 633.23 708.27 644.36 L 703.50 647.50 L 717.50 648.03 C 733.78 648.65 738.16 650.10 745.29 657.24 C 759.50 671.45 752.70 696.54 733.18 701.97 C 731.15 702.53 723.48 702.99 716.13 702.99 C 701.49 703.00 700.99 703.36 708.81 708.19 C 717.19 713.37 729.36 714.08 740.20 710.03 Z M 729.92 681.41 C 733.80 678.15 734.04 673.95 730.55 670.45 L 728.09 668.00 L 645.80 667.97 C 600.53 667.95 535.83 667.97 502.00 668.00 C 447.54 668.04 440.24 667.87 438.25 666.47 C 435.51 664.54 418.33 644.29 381.45 599.50 C 350.15 561.49 349.00 559.99 349.00 557.22 C 349.00 555.37 356.33 534.59 377.99 475.00 C 399.83 414.91 418.01 362.61 417.29 361.97 C 415.74 360.58 403.59 357.01 402.93 357.75 C 402.27 358.49 392.78 384.61 347.61 510.00 C 335.23 544.38 316.98 594.77 307.05 621.98 C 297.12 649.20 289.00 672.65 289.00 674.10 C 289.00 675.55 289.93 677.92 291.07 679.37 C 293.55 682.52 298.63 682.93 301.93 680.25 C 303.41 679.04 308.56 666.14 318.58 638.50 C 339.44 580.97 337.63 585.32 341.10 584.12 C 345.16 582.70 347.84 583.94 351.95 589.14 C 358.13 596.97 425.67 678.42 428.32 681.25 L 430.90 684.00 L 578.88 684.00 L 726.85 684.00 L 729.92 681.41 Z M 641.32 640.00 C 645.86 629.57 653.46 618.76 662.13 610.39 C 683.58 589.70 710.70 581.14 741.51 585.34 C 748.20 586.25 756.43 586.65 762.51 586.36 C 775.57 585.74 777.30 586.57 778.04 593.86 C 778.42 597.64 779.18 599.65 780.69 600.83 C 781.85 601.75 785.51 604.88 788.83 607.78 L 794.85 613.06 L 794.44 596.29 C 794.00 578.10 793.71 577.11 787.61 572.56 C 784.86 570.51 784.43 570.50 691.17 570.77 L 597.50 571.03 L 595.71 576.27 C 590.82 590.54 584.33 618.18 582.04 634.50 C 581.42 638.90 580.67 643.74 580.38 645.27 L 579.83 648.03 L 608.94 647.77 L 638.05 647.50 L 641.32 640.00 Z M 757.11 549.94 C 761.69 547.49 761.10 538.73 756.18 536.09 C 753.40 534.61 554.77 534.51 552.01 536.00 C 547.28 538.52 546.80 543.95 550.92 548.08 L 553.85 551.00 L 654.49 551.00 C 723.52 551.00 755.75 550.67 757.11 549.94 Z M 472.93 356.54 C 477.84 353.99 478.36 349.53 474.25 344.99 C 471.88 342.36 466.43 340.24 434.50 329.49 C 412.32 322.02 397.00 316.35 396.25 315.33 C 395.35 314.10 395.00 308.27 395.00 294.76 C 395.00 276.08 394.98 275.89 392.55 273.45 C 389.44 270.35 385.89 270.33 382.31 273.41 L 379.50 275.83 L 379.50 299.84 C 379.50 322.32 379.63 324.03 381.51 326.54 C 383.21 328.82 389.82 331.38 425.51 343.54 C 448.60 351.41 468.08 357.88 468.80 357.92 C 469.51 357.96 471.37 357.34 472.93 356.54 Z" stroke-linecap="round"/>
</g>
</g>
</g>

  </svg>