<svg xmlns="http://www.w3.org/2000/svg" xmlns:xlink="http://www.w3.org/1999/xlink" width="500px" height="301px" viewBox="0 0 499.9999999999998 301.3570052049286">
    <g id="12a4106d-153d-4f6e-a55b-19c9663e3c24">
<g style="">
		<g id="12a4106d-153d-4f6e-a55b-19c9663e3c24-child-0">
<path style="stroke: rgb(193,193,193); stroke-width: 0; stroke-dasharray: none; stroke-linecap: butt; stroke-dashoffset: 0; stroke-linejoin: miter; stroke-miterlimit: 4; fill: rgb(0,0,0); fill-rule: nonzero; opacity: 1;" transform="matrix(0.761089 0 0 0.761089 249.999952 150.678474) matrix(1 0 0 1 0 0)  translate(-512.476633, -511.98777)" d="M 188.78 708.44 C 185.43 706.62 184.00 704.10 184.00 700.00 C 184.00 695.82 185.46 693.33 188.98 691.51 C 191.44 690.24 198.16 690.00 231.76 690.00 L 271.62 690.00 L 274.03 686.75 C 289.69 665.65 315.00 631.01 315.00 630.70 C 315.00 630.47 308.36 630.03 300.25 629.71 C 283.23 629.05 276.97 627.63 265.00 621.75 C 258.26 618.43 254.73 615.81 247.94 609.03 C 238.14 599.27 233.12 590.70 229.97 578.39 C 228.07 570.93 228.00 566.86 228.00 454.88 C 228.00 339.32 228.00 339.06 230.12 333.41 C 232.61 326.76 237.55 320.94 243.80 317.27 C 249.73 313.80 261.33 312.95 268.85 315.45 C 275.63 317.70 283.17 324.61 286.70 331.80 L 289.50 337.50 L 289.81 374.30 L 290.11 411.11 L 293.76 407.91 C 299.36 402.99 305.52 400.65 313.00 400.60 C 320.36 400.55 314.92 398.31 373.50 425.50 C 393.30 434.69 423.00 448.41 439.50 455.99 C 456.00 463.57 474.00 471.96 479.50 474.64 L 489.50 479.50 L 591.50 480.00 L 693.50 480.50 L 700.32 483.73 C 709.19 487.93 717.06 495.86 719.91 503.49 C 721.56 507.90 722.00 511.37 722.00 519.93 L 722.00 530.79 L 718.45 533.91 L 714.90 537.02 L 596.70 536.76 L 478.50 536.50 L 426.50 512.33 C 397.90 499.04 357.40 480.25 336.50 470.58 C 315.60 460.91 296.59 451.66 294.25 450.02 L 290.00 447.04 L 290.00 476.60 L 290.00 506.15 L 287.08 509.08 C 284.78 511.37 283.26 512.00 280.00 512.00 C 276.74 512.00 275.22 511.37 272.92 509.08 L 270.00 506.15 L 270.00 424.83 C 270.00 333.44 270.40 338.40 262.69 334.64 C 259.30 332.98 258.48 332.93 255.30 334.14 C 253.33 334.89 250.77 336.77 249.61 338.32 L 247.50 341.15 L 247.22 451.32 C 247.04 524.43 247.30 563.79 247.99 568.31 C 250.84 586.84 263.35 601.10 282.35 607.48 L 289.85 610.00 L 511.38 610.00 C 669.24 610.00 734.42 609.68 738.20 608.89 C 754.73 605.45 768.04 593.82 774.22 577.42 C 776.43 571.57 776.46 570.86 776.48 519.36 C 776.50 468.61 776.45 467.15 774.50 464.97 C 771.29 461.36 766.87 459.92 762.63 461.09 C 755.51 463.06 755.57 462.75 754.96 506.45 C 754.35 549.94 754.33 550.09 747.24 559.42 C 742.31 565.91 733.77 570.61 724.46 571.95 C 714.76 573.36 308.86 573.36 300.00 571.96 C 283.00 569.27 271.53 557.47 270.24 541.35 C 269.74 535.22 269.82 534.98 273.27 531.53 C 277.02 527.78 278.85 527.35 283.78 529.07 C 287.87 530.50 289.60 533.38 290.21 539.80 C 290.81 546.05 294.30 550.43 299.94 552.00 C 302.23 552.64 378.27 552.99 513.50 552.99 C 711.46 553.00 723.70 552.90 726.93 551.25 C 728.81 550.29 731.29 548.23 732.43 546.68 C 734.42 543.97 734.52 542.29 735.03 504.68 C 735.48 471.96 735.83 464.79 737.19 461.20 C 740.60 452.12 747.13 445.50 755.70 442.44 C 760.87 440.60 770.65 440.66 776.27 442.58 C 782.34 444.64 789.43 451.00 792.80 457.38 L 795.50 462.50 L 795.50 519.50 L 795.50 576.50 L 792.82 583.83 C 789.03 594.21 784.50 601.40 776.94 609.05 C 769.59 616.49 759.70 622.75 750.00 626.12 C 744.50 628.03 740.88 628.44 726.50 628.78 C 717.15 628.99 709.11 629.55 708.64 630.00 C 708.16 630.45 717.76 644.03 729.96 660.16 L 752.15 689.50 L 761.18 690.02 C 769.81 690.52 770.32 690.68 773.10 693.78 C 777.55 698.77 776.62 705.60 771.09 708.45 C 768.41 709.84 738.13 710.00 479.80 709.96 C 227.32 709.92 191.16 709.74 188.78 708.44 Z M 726.83 689.18 C 726.65 688.73 716.60 675.28 704.50 659.30 L 682.50 630.25 L 677.50 629.63 C 674.75 629.29 597.99 629.01 506.92 629.01 L 341.34 629.00 L 337.95 633.75 C 336.09 636.36 326.11 649.84 315.78 663.70 C 305.45 677.56 297.00 689.15 297.00 689.45 C 297.00 689.75 393.79 690.00 512.08 690.00 C 630.38 690.00 727.02 689.63 726.83 689.18 Z M 702.38 514.25 C 701.12 509.01 698.87 505.87 694.25 502.94 L 689.61 500.00 L 588.89 500.00 C 492.57 500.00 487.98 499.92 483.83 498.12 C 479.88 496.41 426.27 471.75 346.50 434.95 C 326.28 425.62 314.32 420.64 312.12 420.62 C 309.66 420.61 308.10 421.35 306.37 423.36 C 300.95 429.65 304.29 433.99 320.15 441.22 C 325.84 443.82 364.92 461.90 407.00 481.41 L 483.50 516.86 L 593.27 516.93 L 703.04 517.00 L 702.38 514.25 Z M 801.36 709.01 C 795.78 706.76 794.18 698.23 798.41 693.31 L 800.82 690.50 L 817.44 690.18 L 834.06 689.86 L 837.53 693.33 C 843.06 698.86 841.71 706.51 834.78 708.93 C 831.15 710.19 804.46 710.26 801.36 709.01 Z" stroke-linecap="round"/>
</g>
</g>
</g>

  </svg>