<svg xmlns="http://www.w3.org/2000/svg" xmlns:xlink="http://www.w3.org/1999/xlink" width="500px" height="446px" viewBox="0 0 500 445.97085748116075">
    <g id="741e1cfb-f2f3-4ac1-b6df-1950557355df">
<g style="">
		<g id="741e1cfb-f2f3-4ac1-b6df-1950557355df-child-0">
<path style="stroke: rgb(193,193,193); stroke-width: 0; stroke-dasharray: none; stroke-linecap: butt; stroke-dashoffset: 0; stroke-linejoin: miter; stroke-miterlimit: 4; fill: rgb(0,0,0); fill-rule: nonzero; opacity: 1;" transform="matrix(0.89035 0 0 0.89035 250.000006 222.985434) matrix(1 0 0 1 0 0)  translate(-512.081555, -511.533059)" d="M 250.37 760.79 C 245.22 759.13 237.88 752.83 234.89 747.49 C 227.19 733.77 232.28 716.06 246.08 708.55 C 250.31 706.25 253.06 705.55 259.23 705.19 L 267.04 704.74 L 266.60 590.62 C 266.35 527.85 266.12 464.01 266.08 448.75 L 266.00 421.00 L 259.66 421.00 C 248.32 421.00 237.95 414.05 233.31 403.34 C 230.84 397.63 231.14 386.70 233.93 380.83 C 238.78 370.62 247.20 364.96 258.67 364.22 L 265.84 363.75 L 266.17 357.62 C 266.35 354.26 266.34 343.96 266.13 334.75 L 265.77 318.00 L 261.07 318.00 C 249.76 318.00 238.69 311.18 233.86 301.23 C 230.79 294.89 230.72 284.49 233.71 277.85 C 236.21 272.28 242.09 266.17 247.53 263.47 C 251.44 261.53 255.23 261.50 509.97 261.24 C 802.61 260.95 775.30 260.15 784.43 269.32 C 795.70 280.63 795.68 298.36 784.39 309.46 C 779.05 314.70 772.93 317.23 764.23 317.79 L 756.96 318.27 L 757.23 340.88 L 757.50 363.50 L 765.20 364.13 C 771.12 364.61 774.13 365.44 778.20 367.73 C 798.43 379.09 797.19 408.48 776.04 418.68 C 774.09 419.62 769.12 420.64 765.00 420.94 L 757.50 421.50 L 757.25 563.12 L 756.99 704.74 L 764.86 705.20 C 771.24 705.57 773.75 706.23 778.11 708.68 C 798.62 720.20 797.17 749.56 775.60 759.60 L 770.50 761.98 L 512.00 761.89 C 341.36 761.83 252.44 761.45 250.37 760.79 Z M 768.57 738.69 C 771.85 735.87 772.10 731.65 769.15 728.70 L 767.05 726.60 L 512.07 726.60 C 265.35 726.61 257.02 726.67 255.05 728.46 C 252.34 730.91 252.40 735.73 255.17 738.69 L 257.35 741.00 L 511.62 741.00 L 765.89 741.00 L 768.57 738.69 Z M 330.75 563.25 L 330.50 421.50 L 309.25 421.23 L 288.00 420.96 L 288.00 562.98 L 288.00 705.00 L 309.50 705.00 L 331.01 705.00 L 330.75 563.25 Z M 396.00 702.69 C 396.00 698.22 400.25 687.88 404.42 682.22 C 406.73 679.08 410.88 674.95 413.63 673.06 L 418.63 669.61 L 413.88 663.34 C 402.87 648.80 397.15 632.23 396.27 612.36 C 395.47 594.15 398.03 578.49 402.30 575.50 C 407.02 572.20 411.81 573.78 419.60 581.21 L 423.70 585.12 L 424.40 574.31 C 425.90 551.06 432.50 531.75 445.29 513.19 C 451.11 504.75 453.23 503.00 457.61 503.00 C 462.77 503.00 464.79 505.57 467.44 515.53 C 469.92 524.84 471.87 530.00 472.92 530.00 C 473.25 530.00 474.59 526.96 475.91 523.25 C 481.41 507.74 500.30 475.06 506.65 470.06 C 509.81 467.57 513.72 467.42 516.91 469.65 C 522.30 473.42 541.55 506.78 548.00 523.50 C 549.27 526.80 550.65 529.89 551.07 530.37 C 551.78 531.18 556.94 516.45 558.47 509.25 C 559.92 502.40 567.66 500.82 573.10 506.25 C 576.95 510.09 583.54 520.10 587.75 528.50 C 594.43 541.81 599.00 561.65 599.00 577.34 L 599.00 586.42 L 603.25 582.37 C 609.94 576.01 613.05 574.00 616.20 574.00 C 623.30 574.00 625.34 577.67 627.06 593.57 C 629.28 614.08 626.40 631.98 618.07 649.50 C 615.45 655.00 611.44 661.85 609.15 664.73 L 604.98 669.96 L 608.74 672.34 C 617.51 677.89 624.61 688.47 627.14 699.75 L 628.32 705.00 L 650.16 705.00 L 672.01 705.00 L 671.75 563.25 L 671.50 421.50 L 511.75 421.25 L 352.00 420.99 L 352.00 563.00 L 352.00 705.00 L 374.00 705.00 L 396.00 705.00 L 396.00 702.69 Z M 606.00 703.45 C 606.00 698.67 598.55 690.82 592.27 688.99 C 589.63 688.23 564.73 687.99 509.50 688.20 C 436.51 688.48 430.26 688.63 427.30 690.25 C 423.26 692.46 419.20 697.73 418.38 701.83 L 417.75 705.00 L 511.88 705.00 C 596.22 705.00 606.00 704.84 606.00 703.45 Z M 736.00 563.00 L 736.00 421.00 L 714.50 421.00 L 693.00 421.00 L 693.00 563.00 L 693.00 705.00 L 714.50 705.00 L 736.00 705.00 L 736.00 563.00 Z M 476.00 666.61 C 476.00 666.40 474.64 663.32 472.98 659.77 C 460.45 632.98 467.58 604.18 494.24 573.96 C 502.82 564.25 508.35 560.00 512.43 560.00 C 517.68 560.00 537.06 580.75 545.92 595.85 C 552.42 606.91 557.00 622.08 557.00 632.50 C 557.00 639.59 554.19 651.84 550.94 658.86 C 549.32 662.36 548.00 665.62 548.00 666.11 C 548.00 666.60 554.70 667.00 562.89 667.00 L 577.78 667.00 L 582.94 662.37 C 589.23 656.71 596.14 647.19 599.55 639.48 C 602.81 632.12 605.98 618.89 605.99 612.65 L 606.00 607.80 L 599.96 613.15 C 587.24 624.42 587.13 624.50 582.32 624.50 C 578.64 624.50 577.39 623.99 575.41 621.69 C 572.43 618.23 572.36 614.83 575.02 604.41 C 577.71 593.92 578.56 578.71 577.08 567.64 C 575.88 558.64 571.65 543.52 570.07 542.54 C 569.59 542.25 566.16 546.30 562.44 551.55 C 554.28 563.07 551.03 566.00 546.48 566.00 C 540.77 566.00 538.31 562.83 534.92 551.09 C 533.26 545.36 530.32 536.81 528.37 532.09 C 523.19 519.52 512.85 499.88 511.63 500.29 C 509.98 500.84 499.45 521.40 494.89 532.97 C 492.62 538.73 489.71 547.70 488.43 552.89 C 487.14 558.09 485.44 562.99 484.65 563.78 C 483.85 564.57 481.23 565.45 478.81 565.72 C 475.08 566.14 473.92 565.80 471.21 563.52 C 468.39 561.15 458.45 548.48 455.39 543.36 C 454.40 541.69 454.09 541.90 452.27 545.51 C 447.39 555.18 444.46 575.63 445.93 589.75 C 446.43 594.56 447.84 602.48 449.06 607.34 C 451.15 615.63 451.19 616.38 449.69 619.53 C 448.50 622.01 447.06 623.20 444.19 624.06 C 438.93 625.64 435.44 623.91 425.63 614.86 L 418.00 607.83 L 418.00 614.19 C 418.00 630.23 428.09 650.98 441.70 662.97 L 446.28 667.00 L 461.14 667.00 C 469.31 667.00 476.00 666.83 476.00 666.61 Z M 524.92 661.72 C 527.12 658.81 530.17 653.75 531.71 650.47 C 534.26 645.02 534.50 643.50 534.50 633.00 C 534.50 621.82 534.40 621.29 530.83 613.81 C 526.74 605.26 521.06 596.55 515.61 590.50 L 512.00 586.50 L 507.88 591.00 C 498.92 600.79 491.71 614.15 489.35 625.29 C 486.72 637.73 490.12 650.74 498.87 661.75 L 503.05 667.00 L 511.99 667.00 L 520.94 667.00 L 524.92 661.72 Z M 768.69 397.83 C 771.96 394.75 771.81 389.78 768.37 387.07 L 765.73 385.00 L 512.00 385.00 L 258.27 385.00 L 255.63 387.07 C 252.30 389.69 252.10 394.41 255.17 397.69 L 257.35 400.00 L 511.86 400.00 L 766.37 400.00 L 768.69 397.83 Z M 736.00 341.00 L 736.00 318.00 L 512.00 318.00 L 288.00 318.00 L 288.00 341.00 L 288.00 364.00 L 512.00 364.00 L 736.00 364.00 L 736.00 341.00 Z M 768.40 295.08 C 771.08 292.86 772.10 290.26 771.41 287.49 C 769.94 281.62 787.92 282.00 511.24 282.00 L 257.38 282.00 L 255.19 284.04 C 251.27 287.69 252.80 294.60 257.86 296.16 C 258.61 296.39 373.41 296.56 512.96 296.54 C 730.45 296.51 766.94 296.30 768.40 295.08 Z" stroke-linecap="round"/>
</g>
</g>
</g>

  </svg>