<svg xmlns="http://www.w3.org/2000/svg" xmlns:xlink="http://www.w3.org/1999/xlink" width="409px" height="500px" viewBox="0 0 409.0550685628219 500">
    <g id="12a32870-f79f-470e-8251-7fe0d2c4fa3d">
<g style="">
		<g id="12a32870-f79f-470e-8251-7fe0d2c4fa3d-child-0">
<path style="stroke: rgb(193,193,193); stroke-width: 0; stroke-dasharray: none; stroke-linecap: butt; stroke-dashoffset: 0; stroke-linejoin: miter; stroke-miterlimit: 4; fill: rgb(0,0,0); fill-rule: nonzero; opacity: 1;" transform="matrix(0.823079 0 0 0.823079 204.527523 249.999986) matrix(1 0 0 1 0 0)  translate(-511.990756, -512.237534)" d="M 371.55 813.89 C 359.49 809.74 350.24 801.30 344.78 789.45 C 341.52 782.38 341.51 765.10 344.76 757.00 C 350.74 742.12 365.41 731.78 382.77 730.20 L 390.50 729.50 L 390.46 724.75 C 390.44 722.14 390.32 715.28 390.21 709.50 L 390.00 699.00 L 384.25 698.99 C 366.06 698.94 344.92 687.76 332.62 671.69 C 323.05 659.20 319.00 647.59 319.00 632.69 C 319.00 625.30 319.35 623.32 321.08 620.89 C 323.83 617.03 327.96 615.00 333.07 615.00 C 336.58 615.00 337.85 615.61 341.12 618.88 C 344.70 622.46 345.00 623.20 345.00 628.33 C 345.00 644.90 352.47 658.24 366.34 666.43 C 377.91 673.26 372.11 673.00 511.76 673.00 C 597.85 673.00 639.51 672.66 643.57 671.92 C 657.31 669.41 669.69 660.16 675.27 648.25 C 677.58 643.30 678.40 639.82 678.94 632.60 C 679.48 625.47 680.15 622.60 681.80 620.28 C 686.48 613.71 696.10 613.26 701.69 619.36 C 705.76 623.81 706.60 628.37 705.26 639.00 C 703.42 653.64 698.46 664.58 688.65 675.59 C 676.51 689.23 656.14 699.00 639.84 699.00 L 634.00 699.00 L 634.00 714.35 L 634.00 729.70 L 642.20 730.34 C 667.57 732.29 686.53 755.73 682.11 779.69 C 679.05 796.33 668.57 808.47 652.51 814.00 C 646.79 815.96 644.23 816.00 512.09 815.97 C 379.14 815.93 377.43 815.91 371.55 813.89 Z M 648.18 787.21 C 652.43 784.57 656.01 778.02 655.98 772.93 C 655.96 768.05 652.15 761.93 647.48 759.29 L 643.50 757.03 L 512.21 757.02 C 383.57 757.00 380.84 757.04 377.06 758.97 C 364.18 765.54 366.63 784.67 380.91 789.05 C 382.34 789.49 442.23 789.77 514.00 789.67 L 644.50 789.50 L 648.18 787.21 Z M 607.00 714.50 L 607.00 699.00 L 512.00 699.00 L 417.00 699.00 L 417.00 714.50 L 417.00 730.00 L 512.00 730.00 L 607.00 730.00 L 607.00 714.50 Z M 382.35 637.92 C 358.61 633.89 337.73 613.00 333.93 589.49 C 332.96 583.44 332.40 582.01 331.21 582.47 C 330.38 582.79 326.51 583.31 322.60 583.62 C 298.19 585.58 274.60 569.52 265.86 545.00 C 263.65 538.80 263.54 537.20 263.52 510.50 L 263.50 482.50 L 266.27 474.67 C 270.91 461.56 278.39 451.74 289.26 444.53 C 297.46 439.08 305.07 436.74 316.21 436.22 L 325.91 435.77 L 326.25 355.64 C 326.63 264.92 326.12 270.90 335.01 252.50 C 344.79 232.25 361.81 217.78 384.00 210.84 L 391.50 208.50 L 513.00 208.50 L 634.50 208.50 L 642.50 211.31 C 655.31 215.80 664.52 221.54 674.09 231.00 C 686.91 243.66 694.10 257.51 696.93 275.00 C 697.60 279.15 697.99 309.47 697.99 358.75 L 698.00 436.00 L 705.29 436.00 C 729.11 436.00 751.00 452.30 758.28 475.46 C 760.35 482.04 760.50 484.34 760.48 510.50 C 760.46 537.20 760.35 538.80 758.14 545.00 C 753.10 559.14 742.16 571.85 729.81 577.91 C 718.74 583.35 703.69 585.22 693.46 582.43 C 691.60 581.93 691.29 582.57 690.14 589.46 C 686.65 610.21 670.08 629.06 649.00 636.28 L 642.50 638.50 L 515.00 638.65 C 444.88 638.73 385.18 638.40 382.35 637.92 Z M 641.58 610.53 C 651.95 607.45 659.74 599.01 662.73 587.60 C 664.19 582.06 664.26 580.26 663.22 575.33 C 661.70 568.05 657.68 561.50 652.16 557.29 C 643.42 550.63 650.79 550.94 509.94 551.23 L 382.50 551.50 L 376.69 554.35 C 367.21 559.01 360.00 570.30 360.00 580.50 C 360.00 592.64 369.74 606.07 381.72 610.47 C 387.54 612.61 634.39 612.67 641.58 610.53 Z M 330.00 554.92 C 336.47 552.01 342.65 545.54 345.01 539.24 C 346.79 534.48 347.00 531.44 347.00 510.14 C 347.00 481.86 346.45 479.32 338.57 471.43 C 324.72 457.59 302.41 461.07 293.52 478.46 L 290.50 484.36 L 290.50 509.93 L 290.50 535.50 L 293.31 541.22 C 296.51 547.75 302.37 553.25 308.39 555.38 C 314.56 557.57 324.61 557.36 330.00 554.92 Z M 717.76 554.43 C 723.71 551.46 728.40 546.52 731.39 540.05 C 733.36 535.80 733.50 533.82 733.50 510.00 C 733.50 481.20 733.07 479.14 725.48 471.55 C 710.66 456.73 686.40 461.94 679.08 481.51 C 676.99 487.10 676.89 488.68 677.19 511.95 C 677.50 536.44 677.51 536.51 680.21 541.64 C 683.41 547.70 689.64 553.35 695.39 555.38 C 702.27 557.82 711.76 557.42 717.76 554.43 Z M 382.00 525.06 C 387.49 523.83 636.77 523.64 642.00 524.87 C 643.92 525.32 646.51 526.02 647.75 526.41 L 650.00 527.13 L 650.01 505.82 C 650.04 475.60 652.50 466.93 664.75 453.90 L 671.00 447.26 L 670.99 363.38 C 670.98 272.25 671.12 274.82 665.33 263.13 C 661.83 256.07 650.17 244.13 643.46 240.73 C 633.93 235.90 627.64 234.68 612.00 234.58 L 597.50 234.50 L 596.84 248.00 C 596.12 262.68 594.64 269.48 589.67 281.01 C 578.85 306.08 556.71 324.81 530.50 331.07 C 522.88 332.89 519.59 333.14 509.00 332.69 C 494.36 332.06 487.77 330.45 475.50 324.53 C 458.82 316.47 444.32 301.78 435.99 284.50 C 429.69 271.43 427.98 264.31 427.29 248.25 L 426.72 235.00 L 411.11 235.02 C 393.93 235.04 387.49 236.49 378.00 242.48 C 366.61 249.67 356.80 263.76 354.10 276.80 C 353.35 280.39 353.00 308.59 353.00 364.46 L 353.00 446.82 L 358.33 452.28 C 364.38 458.48 368.20 464.55 371.24 472.80 C 373.11 477.86 373.39 481.22 373.76 502.79 C 374.14 524.83 374.34 527.03 375.84 526.58 C 376.75 526.30 379.52 525.62 382.00 525.06 Z M 526.46 304.47 C 536.02 301.98 543.84 297.25 552.15 288.93 C 564.38 276.69 569.96 262.75 569.99 244.38 L 570.00 235.26 L 566.25 234.64 C 561.40 233.84 457.67 233.81 455.58 234.61 C 454.29 235.10 454.00 236.99 454.00 244.90 C 454.00 262.90 459.57 276.56 471.99 289.03 C 483.93 301.00 495.15 305.80 511.54 305.93 C 516.67 305.97 523.12 305.34 526.46 304.47 Z" stroke-linecap="round"/>
</g>
</g>
</g>

  </svg>