<svg xmlns="http://www.w3.org/2000/svg" xmlns:xlink="http://www.w3.org/1999/xlink" width="446px" height="500px" viewBox="0 0 445.90227376685016 500">
    <g id="baf620d8-4404-42ae-a3f5-b21855a1625e">
<g style="">
		<g id="baf620d8-4404-42ae-a3f5-b21855a1625e-child-0">
<path style="stroke: rgb(193,193,193); stroke-width: 0; stroke-dasharray: none; stroke-linecap: butt; stroke-dashoffset: 0; stroke-linejoin: miter; stroke-miterlimit: 4; fill: rgb(0,0,0); fill-rule: nonzero; opacity: 1;" transform="matrix(0.732739 0 0 0.732739 222.951016 249.999865) matrix(1 0 0 1 0 0)  translate(-512.27071, -512.244407)" d="M 416.00 852.95 C 318.42 845.75 238.45 779.35 214.53 685.64 C 210.06 668.11 208.00 651.19 208.00 631.87 C 208.00 594.87 214.87 565.14 230.95 532.50 C 248.89 496.08 271.64 469.76 303.96 448.02 C 318.67 438.14 323.78 435.77 329.30 436.27 C 339.93 437.25 345.40 449.13 338.98 457.30 C 337.90 458.68 334.42 461.26 331.25 463.05 C 312.96 473.36 294.59 488.53 281.49 504.14 C 204.45 595.92 226.31 733.99 327.84 796.96 C 373.77 825.45 432.46 833.84 485.72 819.53 C 518.99 810.60 548.13 794.08 573.70 769.67 C 589.92 754.18 601.66 738.38 613.05 716.65 C 619.62 704.13 622.68 701.01 628.36 701.00 C 633.12 701.00 638.76 704.87 641.13 709.77 C 643.03 713.69 643.13 714.63 642.04 718.34 C 640.40 723.91 632.10 739.32 624.44 751.02 C 588.64 805.72 526.67 843.85 460.50 851.90 C 448.02 853.42 428.61 853.88 416.00 852.95 Z M 416.40 798.91 C 395.26 797.02 375.60 791.37 355.50 781.41 C 308.87 758.30 276.17 715.88 264.80 663.75 C 262.86 654.84 262.57 650.57 262.57 631.00 C 262.57 611.36 262.86 607.17 264.84 598.00 C 271.93 565.19 286.19 537.64 307.90 514.77 C 318.97 503.11 324.74 499.00 330.05 499.00 C 337.79 499.00 344.81 507.17 343.42 514.56 C 342.87 517.49 340.80 520.10 333.26 527.37 C 311.91 547.95 298.53 572.10 291.83 602.12 C 289.86 610.96 289.52 615.25 289.55 631.00 C 289.57 647.47 289.87 650.73 292.23 660.72 C 304.90 714.38 345.56 755.67 398.36 768.53 C 455.73 782.49 517.49 760.67 551.71 714.34 C 567.24 693.32 575.89 669.53 579.59 637.65 C 580.42 630.52 584.91 625.91 591.65 625.26 C 597.74 624.67 602.18 626.67 605.11 631.30 C 606.88 634.09 607.07 635.57 606.56 642.79 C 605.82 653.34 602.13 670.83 598.06 683.01 C 578.88 740.47 529.48 783.80 469.38 795.90 C 451.05 799.59 434.50 800.53 416.40 798.91 Z M 717.50 782.40 C 703.18 778.89 692.95 771.98 684.93 760.38 C 682.11 756.29 670.70 729.65 638.43 651.75 L 621.55 611.00 L 515.48 611.00 C 401.23 611.00 405.24 611.17 392.82 605.83 C 378.29 599.58 365.58 584.08 362.20 568.50 C 360.78 561.97 359.63 368.06 360.93 355.84 C 362.64 339.89 370.19 328.90 384.09 322.14 L 391.96 318.30 L 387.73 317.05 C 371.64 312.30 354.12 297.32 345.60 281.02 C 339.29 268.97 337.50 261.22 337.50 246.00 C 337.50 234.62 337.87 231.32 339.85 225.03 C 348.23 198.33 368.47 179.39 395.54 172.92 C 407.84 169.98 424.79 170.57 436.52 174.36 C 450.27 178.79 463.42 187.91 472.55 199.34 C 496.60 229.46 493.82 271.59 465.97 299.00 C 454.39 310.40 442.56 316.64 426.32 319.93 L 418.09 321.59 L 421.71 323.55 C 429.30 327.63 436.69 337.14 440.34 347.49 C 440.98 349.30 441.62 366.40 441.95 390.50 L 442.50 430.50 L 520.52 431.00 L 598.54 431.50 L 605.11 434.73 C 621.63 442.87 631.02 460.37 627.94 477.31 C 624.79 494.69 611.83 507.72 594.50 510.92 C 590.24 511.71 567.63 511.84 516.39 511.35 C 476.73 510.98 443.66 510.92 442.89 511.21 C 441.81 511.62 441.57 513.76 441.82 520.85 L 442.14 529.96 L 545.82 530.23 L 649.50 530.50 L 656.88 533.20 C 670.90 538.31 682.94 548.59 689.35 560.91 C 691.24 564.53 700.54 586.40 710.02 609.50 C 744.68 693.92 744.50 693.51 746.59 693.37 C 747.64 693.31 753.80 691.75 760.27 689.93 C 771.44 686.78 772.42 686.66 779.45 687.67 C 794.44 689.83 806.31 697.89 812.38 710.04 C 821.96 729.18 814.52 751.91 794.99 763.24 C 788.03 767.27 735.08 782.24 726.50 782.59 C 722.65 782.75 718.60 782.66 717.50 782.40 Z M 755.50 747.79 C 769.25 743.88 781.74 739.82 783.27 738.76 C 793.91 731.38 788.59 714.00 775.69 714.00 C 774.38 714.00 764.13 716.71 752.91 720.02 C 740.91 723.57 731.55 725.82 730.20 725.49 C 728.65 725.12 727.23 723.39 725.85 720.22 C 723.32 714.37 685.01 621.34 674.49 595.50 C 664.69 571.40 664.10 570.26 658.65 565.25 C 649.51 556.82 660.78 557.53 532.00 557.24 C 426.10 557.00 417.41 556.85 416.25 555.30 C 415.31 554.03 415.00 545.56 415.02 521.06 C 415.02 503.15 415.36 488.00 415.77 487.40 C 418.04 484.00 420.03 483.92 506.42 484.04 C 564.86 484.13 592.45 483.83 593.80 483.10 C 601.45 479.01 603.48 468.89 597.92 462.56 C 596.19 460.59 593.23 458.60 591.17 458.03 C 588.81 457.38 557.11 457.01 502.45 457.01 C 437.64 457.00 417.11 456.71 416.20 455.80 C 415.30 454.90 415.00 442.69 414.99 407.05 C 414.99 378.20 414.59 358.07 413.98 355.87 C 411.09 345.46 398.87 342.31 391.44 350.06 L 388.50 353.13 L 388.50 458.32 L 388.50 563.50 L 390.97 568.34 C 393.95 574.16 398.61 578.44 405.43 581.62 L 410.50 583.98 L 524.56 583.99 C 614.28 584.00 638.96 584.27 640.21 585.25 C 641.08 585.94 646.74 598.65 652.79 613.50 C 658.83 628.35 671.99 660.30 682.02 684.50 C 692.06 708.70 701.63 731.88 703.29 736.00 C 707.99 747.64 711.48 751.58 719.76 754.61 C 724.68 756.41 726.23 756.11 755.50 747.79 Z M 424.87 292.55 C 446.51 286.79 461.05 268.11 460.98 246.14 C 460.93 232.55 457.32 222.79 448.92 213.60 C 439.00 202.75 428.03 198.00 412.88 198.00 C 398.48 198.00 387.16 202.77 377.78 212.81 C 353.04 239.25 365.40 283.07 400.25 292.45 C 407.10 294.30 418.13 294.34 424.87 292.55 Z" stroke-linecap="round"/>
</g>
</g>
</g>

  </svg>