<svg xmlns="http://www.w3.org/2000/svg" xmlns:xlink="http://www.w3.org/1999/xlink" width="2344px" height="2583px" viewBox="0 0 2344.388326128049 2583.4749672376493">
    <g id="cc744c3d-7da8-493b-99cf-0bfc59a1c80c">
<g style="">
		<g id="cc744c3d-7da8-493b-99cf-0bfc59a1c80c-child-0">
<path style="stroke: rgb(193,193,193); stroke-width: 0; stroke-dasharray: none; stroke-linecap: butt; stroke-dashoffset: 0; stroke-linejoin: miter; stroke-miterlimit: 4; fill: rgb(0,0,0); fill-rule: nonzero; opacity: 1;" transform="matrix(5.209867 0 0 5.209867 1172.194116 1291.737433) matrix(1 0 0 1 0 0)  translate(-512.004982, -511.782874)" d="M 331.17 758.47 C 327.68 757.71 322.73 755.86 320.17 754.37 C 313.58 750.52 304.78 741.86 301.69 736.17 C 295.90 725.53 296.00 727.41 296.00 631.89 L 296.00 544.20 L 293.49 539.85 C 289.12 532.26 287.00 523.69 287.01 513.64 C 287.03 496.81 292.04 484.77 303.91 472.96 C 318.42 458.55 335.17 453.69 356.75 457.63 L 360.00 458.23 L 360.02 391.36 C 360.04 315.61 359.96 316.58 367.60 301.10 C 375.36 285.37 390.16 272.47 407.00 266.74 C 413.47 264.53 413.87 264.52 505.00 264.01 C 555.33 263.73 599.69 263.81 603.58 264.18 C 629.37 266.67 651.84 285.26 660.78 311.50 L 663.50 319.50 L 663.79 388.86 L 664.08 458.21 L 666.29 457.59 C 667.51 457.24 672.10 456.70 676.50 456.38 C 692.68 455.21 707.34 460.58 719.49 472.12 C 731.44 483.47 737.00 496.45 737.00 513.00 C 737.00 522.86 735.20 530.79 731.26 538.27 L 728.50 543.50 L 728.00 634.00 L 727.50 724.50 L 725.17 730.26 C 720.42 742.03 710.03 752.42 698.24 757.18 L 692.50 759.50 L 515.00 759.68 C 367.11 759.83 336.44 759.63 331.17 758.47 Z M 378.77 621.25 L 378.50 506.50 L 375.86 500.88 C 372.16 492.97 366.87 487.55 359.16 483.76 C 353.17 480.81 351.68 480.50 343.52 480.50 C 335.68 480.50 333.76 480.86 328.84 483.28 C 314.99 490.08 307.24 506.99 311.41 521.33 C 312.31 524.44 314.61 529.58 316.52 532.74 L 319.99 538.50 L 320.00 628.78 C 320.00 727.53 319.73 722.90 325.80 729.38 C 331.41 735.35 334.33 735.95 357.77 735.98 L 379.03 736.00 L 378.77 621.25 Z M 621.00 683.62 L 621.00 631.23 L 616.75 632.87 C 612.94 634.33 602.29 634.53 513.91 634.77 C 419.11 635.04 415.09 634.97 409.16 633.13 L 403.00 631.21 L 403.00 682.02 C 403.00 709.97 402.73 733.55 402.39 734.42 C 401.84 735.85 411.86 736.00 511.39 736.00 L 621.00 736.00 L 621.00 683.62 Z M 691.50 734.10 C 693.70 733.09 696.71 730.96 698.20 729.38 C 704.27 722.90 704.00 727.51 704.00 628.98 L 704.00 538.89 L 707.95 532.34 C 716.96 517.41 715.48 501.43 704.03 489.96 C 696.83 482.74 691.25 480.50 680.49 480.50 C 672.31 480.50 670.85 480.81 664.76 483.80 C 657.11 487.56 652.52 492.51 648.28 501.57 L 645.50 507.50 L 645.23 620.46 C 645.07 682.59 645.17 734.01 645.44 734.71 C 645.82 735.71 650.69 735.99 666.72 735.98 C 684.81 735.96 688.02 735.72 691.50 734.10 Z M 606.98 610.92 C 609.44 610.35 612.93 608.76 614.73 607.39 C 620.72 602.82 621.00 601.45 621.00 576.56 L 621.00 554.02 L 513.18 553.76 C 453.87 553.62 404.71 553.62 403.93 553.78 C 402.74 554.01 402.50 557.82 402.50 576.28 C 402.50 595.55 402.73 598.92 404.25 601.70 C 406.41 605.66 411.38 609.51 416.00 610.83 C 420.89 612.21 600.98 612.30 606.98 610.92 Z M 621.02 520.25 C 621.05 502.77 625.74 488.56 635.35 476.82 L 640.00 471.13 L 640.00 398.78 C 640.00 319.91 639.99 319.79 634.26 310.00 C 630.48 303.54 622.80 295.75 617.19 292.70 C 606.52 286.89 608.48 287.00 512.34 287.00 C 450.77 287.00 422.50 287.34 418.80 288.13 C 405.53 290.94 394.77 299.62 388.29 312.72 L 384.50 320.39 L 384.23 396.13 L 383.95 471.86 L 387.97 476.18 C 392.66 481.23 398.12 491.20 400.46 499.00 C 401.39 502.10 402.37 510.07 402.70 517.25 L 403.30 530.00 L 512.15 530.00 L 621.00 530.00 L 621.02 520.25 Z M 322.30 438.04 C 317.09 434.87 316.85 432.60 317.19 389.77 L 317.50 351.04 L 320.77 347.77 C 323.58 344.96 324.73 344.50 329.00 344.50 C 333.27 344.50 334.42 344.96 337.23 347.77 L 340.50 351.04 L 340.81 389.77 C 341.02 416.13 340.76 429.71 340.00 432.30 C 338.68 436.83 334.15 439.99 329.00 439.99 C 327.08 439.99 324.06 439.12 322.30 438.04 Z M 553.00 330.28 C 551.04 329.28 548.62 326.87 547.52 324.79 C 545.67 321.35 545.64 320.79 547.02 316.88 C 547.83 314.57 549.77 311.74 551.32 310.59 C 553.99 308.62 555.39 308.50 576.50 308.50 C 597.63 308.50 599.01 308.61 601.68 310.60 C 607.84 315.17 607.86 324.82 601.71 329.21 C 598.64 331.40 597.57 331.51 577.50 331.78 C 559.00 332.02 556.08 331.84 553.00 330.28 Z" stroke-linecap="round"/>
</g>
</g>
</g>

  </svg>