<svg xmlns="http://www.w3.org/2000/svg" xmlns:xlink="http://www.w3.org/1999/xlink" width="430px" height="500px" viewBox="0 0 430.27052421146595 500">
    <g id="f66a5401-e107-4314-860d-c17cf6734030">
<g style="">
		<g id="f66a5401-e107-4314-860d-c17cf6734030-child-0">
<path style="stroke: rgb(193,193,193); stroke-width: 0; stroke-dasharray: none; stroke-linecap: butt; stroke-dashoffset: 0; stroke-linejoin: miter; stroke-miterlimit: 4; fill: rgb(0,0,0); fill-rule: nonzero; opacity: 1;" transform="matrix(0.87302 0 0 0.87302 215.135288 250.00003) matrix(1 0 0 1 0 0)  translate(-512.426528, -512.372247)" d="M 286.17 797.52 C 273.77 793.64 266.00 782.73 266.00 769.19 C 266.00 763.53 266.54 761.24 269.06 756.20 C 274.58 745.16 281.92 740.82 296.15 740.20 L 305.80 739.78 L 301.94 732.62 C 299.82 728.69 297.59 723.16 296.98 720.35 C 295.99 715.74 295.57 715.16 292.76 714.60 C 287.97 713.64 280.23 708.20 277.14 703.62 C 272.84 697.25 271.58 693.17 271.65 685.85 C 271.73 677.30 275.20 669.75 281.70 664.03 C 287.88 658.59 293.72 657.00 307.54 657.00 L 318.71 657.00 L 319.28 650.20 C 319.71 645.04 321.10 640.52 325.04 631.45 C 327.89 624.88 332.14 615.00 334.49 609.50 C 336.84 604.00 341.93 592.26 345.79 583.42 L 352.82 567.33 L 351.90 548.42 C 351.40 538.01 350.55 521.03 350.02 510.68 L 349.06 491.87 L 352.96 470.68 C 355.11 459.03 359.18 437.12 362.02 422.00 C 364.85 406.88 368.27 388.51 369.61 381.20 C 372.38 366.14 373.88 361.72 378.77 354.24 C 387.97 340.17 404.83 333.06 421.01 336.43 C 424.88 337.24 430.29 339.12 433.02 340.61 C 437.90 343.26 451.18 355.02 477.92 380.37 C 487.20 389.17 491.82 392.90 492.92 392.49 C 493.79 392.16 508.03 384.28 524.56 374.98 C 562.78 353.47 564.69 352.59 573.00 352.66 C 588.84 352.78 600.72 364.32 601.78 380.60 C 602.62 393.50 596.88 402.32 581.05 412.47 C 573.21 417.50 572.97 418.11 575.08 427.94 C 576.43 434.25 579.58 437.01 585.38 436.98 C 593.33 436.93 592.15 439.21 617.72 375.00 C 624.61 357.67 631.13 342.26 632.20 340.75 C 637.08 333.82 650.79 328.14 659.32 329.52 C 669.16 331.11 677.36 336.92 681.77 345.41 C 683.88 349.46 684.43 351.93 684.46 357.50 C 684.50 364.23 683.97 365.80 670.75 398.25 C 663.19 416.81 657.00 432.90 657.00 434.00 C 657.00 436.02 662.49 453.62 681.49 512.50 C 687.17 530.10 693.67 550.35 695.93 557.50 L 700.04 570.50 L 708.65 575.50 C 730.86 588.38 747.98 611.30 755.21 637.82 C 758.25 648.98 758.22 673.13 755.15 684.41 C 749.96 703.49 742.80 716.12 729.50 729.64 L 719.50 739.81 L 728.50 740.21 C 739.12 740.70 744.90 742.90 750.68 748.68 C 752.82 750.82 755.43 754.35 756.48 756.53 C 759.16 762.07 759.65 772.51 757.54 778.89 C 755.30 785.62 748.47 793.09 741.78 796.11 L 736.50 798.50 L 513.50 798.69 C 328.31 798.84 289.77 798.65 286.17 797.52 Z M 733.39 775.87 C 736.32 774.53 738.45 770.00 737.52 767.06 C 735.82 761.70 748.97 762.00 512.50 762.00 C 274.63 762.00 289.06 761.65 287.61 767.41 C 286.83 770.54 288.59 774.49 291.36 775.83 C 294.53 777.36 730.03 777.40 733.39 775.87 Z M 587.01 732.39 C 582.63 728.20 577.37 722.58 575.32 719.89 L 571.59 715.00 L 445.29 715.00 C 324.25 715.00 319.00 715.07 319.00 716.80 C 319.00 720.32 324.25 729.07 328.40 732.47 C 330.72 734.37 334.61 736.83 337.06 737.94 C 341.44 739.93 343.34 739.96 468.24 739.98 L 594.98 740.00 L 587.01 732.39 Z M 678.00 736.95 C 691.41 733.22 702.27 726.73 713.04 716.00 C 721.14 707.94 723.30 705.06 727.31 697.00 C 733.55 684.46 736.00 674.46 735.99 661.59 C 735.98 637.68 725.51 615.34 707.47 600.69 C 699.42 594.16 683.44 586.50 673.79 584.56 C 648.74 579.50 624.08 586.28 605.36 603.37 C 589.25 618.08 580.70 637.01 579.58 660.48 C 579.02 672.20 577.91 674.87 572.54 677.41 C 569.54 678.84 555.33 679.00 433.55 679.00 L 297.91 679.00 L 295.45 681.45 C 292.22 684.69 292.36 687.51 295.92 691.08 L 298.85 694.00 L 438.96 694.00 C 555.58 694.00 579.62 694.23 582.36 695.38 C 584.29 696.18 587.23 698.97 589.49 702.13 C 603.75 722.10 623.31 734.91 645.83 739.05 C 653.03 740.37 669.58 739.29 678.00 736.95 Z M 376.83 639.50 C 380.91 630.15 390.75 607.42 398.70 589.00 C 406.64 570.58 413.35 555.02 413.61 554.44 C 413.87 553.84 408.52 551.29 401.29 548.56 C 394.25 545.91 385.42 542.45 381.65 540.87 C 377.88 539.29 374.59 538.00 374.34 538.00 C 374.09 538.00 373.97 545.99 374.07 555.75 L 374.24 573.50 L 370.01 583.00 C 348.11 632.23 341.00 649.39 341.00 653.08 L 341.00 657.05 L 355.21 656.78 L 369.42 656.50 L 376.83 639.50 Z M 425.75 651.25 C 424.36 647.14 423.92 643.64 424.19 639.00 C 424.58 632.60 428.92 620.89 446.82 578.00 C 449.00 572.78 450.49 568.20 450.14 567.84 C 449.22 566.89 436.89 562.00 435.42 562.00 C 434.74 562.00 432.75 565.49 430.99 569.75 C 427.42 578.40 394.04 655.07 393.33 656.25 C 393.09 656.66 400.71 657.00 410.29 657.00 L 427.69 657.00 L 425.75 651.25 Z M 466.95 654.75 C 468.74 653.51 470.82 651.38 471.58 650.00 C 472.33 648.62 481.74 625.76 492.48 599.18 C 513.55 547.01 513.93 545.70 510.01 538.02 C 508.91 535.87 506.55 533.01 504.76 531.65 C 502.97 530.29 487.77 523.95 471.00 517.55 C 424.79 499.93 422.22 498.86 419.88 496.37 C 415.78 492.01 416.22 487.01 423.52 455.00 L 430.25 425.50 L 420.41 416.20 C 409.19 405.59 407.01 402.72 407.01 398.50 C 407.00 391.42 414.89 385.40 421.26 387.63 C 422.63 388.11 435.49 399.75 449.84 413.50 C 474.89 437.51 479.00 440.86 483.57 440.95 C 484.70 440.98 491.45 437.69 498.57 433.64 C 534.80 413.03 563.31 396.91 570.25 393.11 C 578.85 388.39 580.26 386.64 579.81 381.21 C 579.55 378.06 578.95 377.23 575.82 375.70 C 572.16 373.91 572.10 373.92 566.99 376.50 C 562.15 378.96 540.48 391.08 510.04 408.36 C 497.73 415.34 496.09 416.00 491.04 416.00 C 484.12 415.99 482.47 414.98 468.88 402.36 C 463.04 396.94 450.77 385.52 441.60 377.00 C 432.43 368.48 423.33 360.65 421.38 359.61 C 417.01 357.28 408.61 357.11 404.48 359.27 C 401.15 361.00 396.83 365.36 395.11 368.71 C 393.63 371.59 391.97 379.75 380.98 438.50 C 370.89 492.36 370.51 496.56 374.86 505.00 C 379.89 514.77 385.29 518.69 403.00 525.42 C 431.52 536.27 464.74 549.36 468.18 551.10 C 473.19 553.64 475.00 556.56 475.00 562.09 C 475.00 565.76 471.97 574.17 460.50 602.35 C 452.52 621.93 446.00 639.29 446.00 640.91 C 446.00 645.05 447.67 649.01 450.81 652.35 C 455.68 657.52 461.67 658.41 466.95 654.75 Z M 558.27 649.50 C 562.40 611.70 591.66 576.79 628.36 565.86 C 632.29 564.70 635.82 563.45 636.22 563.10 C 636.61 562.75 630.42 542.22 622.45 517.48 C 614.49 492.74 606.77 468.53 605.31 463.68 C 603.22 456.74 602.31 454.97 601.07 455.38 C 600.21 455.67 596.80 456.87 593.50 458.06 C 576.77 464.05 558.04 452.59 553.76 433.73 L 552.47 428.06 L 523.72 444.43 C 506.04 454.51 493.04 461.27 489.95 462.01 C 479.01 464.64 468.66 461.07 456.53 450.50 C 452.31 446.82 448.72 443.96 448.56 444.15 C 447.70 445.12 439.88 480.24 440.28 481.28 C 440.54 481.96 442.49 483.13 444.62 483.89 C 456.92 488.29 509.06 508.51 512.00 510.03 C 517.45 512.83 523.96 518.89 527.56 524.53 C 532.46 532.18 534.33 539.72 533.74 549.41 C 533.21 558.22 534.19 555.53 511.27 611.00 C 495.38 649.44 493.00 655.34 493.00 656.22 C 493.00 656.67 507.51 656.91 525.25 656.76 L 557.50 656.50 L 558.27 649.50 Z M 674.00 561.35 C 674.00 560.66 653.56 496.98 641.41 459.82 C 637.34 447.35 634.00 435.76 634.00 434.07 C 634.00 432.38 640.53 414.69 648.50 394.76 C 656.47 374.83 663.00 357.77 663.00 356.84 C 663.00 354.58 658.32 351.00 655.37 351.00 C 654.06 351.00 652.15 351.85 651.12 352.88 C 650.09 353.91 642.87 370.90 635.08 390.63 C 627.29 410.36 620.48 427.53 619.96 428.80 C 619.43 430.06 619.00 432.07 619.00 433.25 C 619.00 435.04 628.35 464.34 656.89 552.00 L 659.66 560.50 L 663.58 561.11 C 669.25 561.99 674.00 562.10 674.00 561.35 Z M 425.50 330.51 C 417.19 328.68 411.52 326.03 404.50 320.72 C 391.11 310.57 384.00 296.11 384.00 279.00 C 384.00 263.96 389.18 251.55 399.88 241.00 C 410.21 230.81 421.74 226.03 436.04 226.01 C 460.90 225.97 482.82 243.15 488.46 267.10 C 493.81 289.79 482.45 314.20 461.41 325.23 C 448.85 331.81 438.35 333.35 425.50 330.51 Z M 447.66 307.85 C 454.93 305.14 462.06 298.54 465.12 291.71 C 468.59 283.99 468.40 272.45 464.70 265.28 C 459.69 255.59 452.03 250.05 440.80 247.97 C 420.47 244.21 401.71 263.83 405.98 284.38 C 410.09 304.18 429.01 314.83 447.66 307.85 Z M 642.22 722.98 C 630.52 719.92 621.59 714.68 612.47 705.55 C 603.33 696.40 599.16 689.05 596.00 676.59 C 584.27 630.22 626.13 588.05 672.88 599.13 C 675.42 599.74 681.30 602.03 685.94 604.24 C 692.72 607.45 695.99 609.85 702.52 616.37 C 715.22 629.07 721.00 642.77 721.00 660.16 C 721.00 671.98 719.65 677.80 714.29 689.00 C 701.45 715.84 670.56 730.41 642.22 722.98 Z M 665.20 702.87 C 682.62 699.18 696.21 684.72 698.96 666.97 C 702.79 642.18 682.86 619.15 657.46 619.02 C 641.38 618.95 626.97 628.31 619.80 643.50 C 616.72 650.03 616.50 651.20 616.50 661.00 C 616.50 671.02 616.67 671.84 620.12 679.00 C 625.91 690.99 636.32 699.65 648.50 702.61 C 655.00 704.19 658.72 704.25 665.20 702.87 Z" stroke-linecap="round"/>
</g>
</g>
</g>

  </svg>