<svg xmlns="http://www.w3.org/2000/svg" xmlns:xlink="http://www.w3.org/1999/xlink" width="500px" height="427px" viewBox="0 0 499.9999999999998 426.9764233189844">
    <g id="467897e2-a5ed-48f6-8e87-63e56d2fd77e">
<g style="">
		<g id="467897e2-a5ed-48f6-8e87-63e56d2fd77e-child-0">
<path style="stroke: rgb(193,193,193); stroke-width: 0; stroke-dasharray: none; stroke-linecap: butt; stroke-dashoffset: 0; stroke-linejoin: miter; stroke-miterlimit: 4; fill: rgb(0,0,0); fill-rule: nonzero; opacity: 1;" transform="matrix(0.83407 0 0 0.83407 250.000043 213.488248) matrix(1 0 0 1 0 0)  translate(-511.764914, -511.956269)" d="M 298.09 766.91 C 288.84 765.10 281.23 757.02 278.98 746.62 C 277.74 740.92 277.36 743.27 290.96 672.50 C 298.05 635.60 300.96 620.36 324.36 497.50 C 331.17 461.75 336.55 432.16 336.31 431.75 C 336.08 431.34 314.55 431.00 288.48 431.00 C 233.80 431.00 234.68 431.13 224.44 421.77 C 213.73 411.98 212.01 405.22 212.03 373.00 C 212.04 348.52 212.98 339.94 216.40 333.20 C 217.72 330.59 225.74 320.60 234.23 310.98 C 279.40 259.83 279.96 259.29 290.53 257.16 C 294.84 256.30 351.96 256.00 512.46 256.00 C 749.33 256.00 735.60 255.66 744.49 261.82 C 748.12 264.33 764.67 282.34 794.30 316.00 C 801.56 324.25 806.36 330.71 808.40 335.00 L 811.50 341.50 L 811.50 372.50 L 811.50 403.50 L 808.35 410.16 C 804.58 418.10 798.88 423.93 791.16 427.72 L 785.50 430.50 L 736.75 430.78 C 690.45 431.04 688.00 431.15 688.00 432.87 C 688.00 434.64 696.57 480.20 707.49 536.50 C 710.48 551.90 717.20 587.22 722.43 615.00 C 727.66 642.78 734.46 678.78 737.54 695.00 C 746.92 744.36 746.48 741.29 745.11 747.42 C 743.62 754.07 740.82 758.39 735.26 762.63 C 728.84 767.53 723.42 768.22 694.67 767.82 L 669.50 767.47 L 664.24 764.71 C 658.74 761.83 653.86 756.20 652.08 750.67 C 651.18 747.86 645.51 719.13 616.42 570.00 C 612.29 548.83 608.68 530.71 608.39 529.75 C 607.89 528.10 602.43 528.00 512.00 528.00 C 421.57 528.00 416.11 528.10 415.61 529.75 C 415.14 531.33 392.64 646.07 378.11 721.04 C 371.81 753.54 370.55 757.09 363.29 762.61 C 360.94 764.41 356.85 766.30 353.99 766.91 C 348.00 768.19 304.62 768.20 298.09 766.91 Z M 345.49 736.75 C 345.78 735.51 353.46 696.25 362.57 649.50 C 371.67 602.75 384.94 534.87 392.06 498.65 C 399.18 462.44 405.00 432.40 405.00 431.90 C 405.00 431.40 396.66 431.00 386.07 431.00 C 368.90 431.00 367.09 431.16 366.61 432.75 C 366.04 434.61 356.58 483.60 340.00 570.50 C 323.92 654.76 311.06 721.58 309.47 729.15 C 308.66 732.99 308.00 736.78 308.00 737.57 C 308.00 738.76 311.09 739.00 326.48 739.00 C 344.82 739.00 344.97 738.98 345.49 736.75 Z M 716.00 737.96 C 716.00 736.03 673.02 510.60 661.58 452.50 L 657.44 431.50 L 638.22 431.23 C 627.65 431.08 619.00 431.25 619.00 431.60 C 619.00 432.64 627.99 478.81 644.00 560.00 C 652.19 601.53 662.99 656.62 667.99 682.43 C 673.00 708.24 677.56 731.52 678.13 734.18 L 679.17 739.00 L 697.58 739.00 C 709.65 739.00 716.00 738.64 716.00 737.96 Z M 602.00 497.58 C 602.00 495.30 589.22 433.16 588.52 432.03 C 588.09 431.34 562.71 431.00 511.55 431.00 L 435.22 431.00 L 434.67 433.25 C 433.66 437.43 422.00 497.00 422.00 498.01 C 422.00 498.66 452.98 499.00 512.00 499.00 C 589.18 499.00 602.00 498.80 602.00 497.58 Z M 780.60 399.89 C 782.29 398.02 782.50 396.14 782.50 383.14 L 782.50 368.50 L 511.75 368.25 L 241.00 368.00 L 241.00 382.36 C 241.00 395.38 241.19 396.98 243.07 399.37 L 245.15 402.00 L 511.92 402.00 L 778.69 402.00 L 780.60 399.89 Z M 773.38 335.75 C 771.72 333.96 764.77 326.22 757.93 318.55 C 751.09 310.88 741.53 300.19 736.68 294.80 L 727.87 285.00 L 512.04 285.00 C 307.92 285.00 296.11 285.09 294.24 286.75 C 293.16 287.71 283.58 298.40 272.96 310.50 C 262.35 322.60 252.30 333.96 250.63 335.75 L 247.61 339.00 L 512.00 339.00 L 776.39 339.00 L 773.38 335.75 Z" stroke-linecap="round"/>
</g>
</g>
</g>

  </svg>