<svg xmlns="http://www.w3.org/2000/svg" xmlns:xlink="http://www.w3.org/1999/xlink" width="500px" height="445px" viewBox="0 0 499.9999999999998 444.8909192085735">
    <g id="f4362f30-5926-47a5-89f3-4c43a6f71237">
<g style="">
		<g id="f4362f30-5926-47a5-89f3-4c43a6f71237-child-0">
<path style="stroke: rgb(193,193,193); stroke-width: 0; stroke-dasharray: none; stroke-linecap: butt; stroke-dashoffset: 0; stroke-linejoin: miter; stroke-miterlimit: 4; fill: rgb(0,0,0); fill-rule: nonzero; opacity: 1;" transform="matrix(0.824402 0 0 0.824402 249.999906 222.445376) matrix(1 0 0 1 0 0)  translate(-512.25, -511.876642)" d="M 291.75 780.97 C 278.62 777.68 266.83 765.49 264.48 752.79 C 263.90 749.64 263.24 748.91 260.15 747.91 C 236.97 740.39 217.02 719.05 210.93 695.23 C 208.81 686.94 208.32 672.14 210.06 668.89 C 211.60 666.02 215.33 664.87 218.98 666.14 C 223.06 667.57 224.00 669.65 224.00 677.27 C 224.00 685.54 227.08 697.49 231.23 705.29 C 236.23 714.70 246.85 724.74 257.07 729.71 C 261.71 731.97 267.98 734.42 271.00 735.16 C 275.53 736.26 318.30 736.50 513.00 736.50 C 739.79 736.50 749.75 736.42 755.50 734.66 C 777.01 728.06 793.19 711.74 798.42 691.36 C 799.81 685.94 800.00 671.95 800.00 573.18 L 800.00 461.14 L 794.58 460.47 C 791.59 460.09 788.67 460.09 788.08 460.45 C 787.36 460.90 787.00 468.78 787.00 484.10 L 787.00 507.09 L 784.55 509.55 C 781.57 512.52 777.15 512.75 773.86 510.09 C 771.52 508.19 771.50 508.01 771.20 484.59 L 770.90 461.00 L 511.95 461.00 L 253.00 461.00 L 253.00 484.33 C 253.00 507.41 252.98 507.67 250.69 509.83 C 247.81 512.53 243.02 512.65 239.86 510.09 C 237.52 508.19 237.50 508.01 237.20 484.59 L 236.90 461.00 L 230.45 461.00 L 224.00 461.00 L 224.00 555.83 L 224.00 650.65 L 221.69 652.83 C 218.74 655.59 213.68 655.68 211.00 653.00 C 209.02 651.02 209.00 649.67 209.00 519.50 L 209.00 388.00 L 213.90 388.00 L 218.80 388.00 L 219.27 358.75 C 219.80 326.32 220.22 323.53 226.76 310.00 C 229.52 304.30 232.44 300.43 238.94 293.87 C 246.15 286.60 248.94 284.56 256.65 280.89 C 265.79 276.54 265.79 276.54 266.38 272.24 C 267.81 261.81 276.09 250.76 285.86 246.23 C 304.57 237.57 326.62 248.14 332.58 268.63 C 333.44 271.58 334.67 274.02 335.32 274.05 C 335.97 274.07 357.55 274.05 383.28 274.00 L 430.06 273.91 L 437.78 267.68 C 452.00 256.20 464.57 249.83 481.95 245.29 C 495.19 241.83 517.44 241.02 532.02 243.45 C 551.83 246.77 570.39 254.99 585.60 267.20 L 594.08 274.00 L 642.34 274.00 L 690.59 274.00 L 692.33 268.25 C 696.96 253.02 709.91 243.00 724.97 243.00 C 740.69 243.00 754.91 255.08 758.10 271.13 L 759.21 276.76 L 768.36 281.31 C 773.39 283.82 780.07 288.17 783.20 290.97 C 790.94 297.89 798.33 309.23 801.66 319.29 C 804.33 327.36 804.39 328.02 804.78 357.70 L 805.17 387.90 L 810.34 388.20 L 815.50 388.50 L 815.50 538.50 C 815.50 680.75 815.41 688.83 813.67 694.94 C 809.10 711.07 800.47 724.23 787.78 734.42 C 780.10 740.58 776.79 742.53 765.75 747.37 C 761.14 749.39 760.00 750.35 760.00 752.19 C 760.00 756.60 754.01 767.36 748.87 772.20 C 735.21 785.06 713.25 784.52 700.61 771.01 C 695.82 765.89 692.65 760.38 691.54 755.25 C 690.92 752.37 690.46 752.00 687.51 752.00 C 684.56 752.00 683.93 752.50 682.02 756.46 C 678.56 763.61 669.92 771.45 660.21 776.26 L 651.65 780.50 L 514.63 780.76 C 363.31 781.06 373.33 781.45 360.71 774.75 C 354.07 771.23 345.02 761.98 342.40 756.04 C 340.76 752.34 340.30 752.00 336.81 752.00 C 333.78 752.00 333.00 752.38 333.00 753.84 C 333.00 757.40 326.90 767.84 322.40 771.99 C 314.06 779.67 301.37 783.39 291.75 780.97 Z M 308.58 763.51 C 312.55 761.18 317.00 755.70 317.00 753.13 C 317.00 752.33 311.60 752.00 298.50 752.00 C 288.33 752.00 280.00 752.25 280.00 752.55 C 280.00 752.85 280.63 754.31 281.40 755.80 C 286.32 765.24 299.32 768.93 308.58 763.51 Z M 735.58 763.51 C 739.55 761.18 744.00 755.70 744.00 753.13 C 744.00 752.33 738.48 752.00 725.03 752.00 C 703.89 752.00 704.51 751.73 709.70 758.75 C 715.18 766.16 727.26 768.38 735.58 763.51 Z M 655.20 762.10 C 659.93 759.68 666.81 753.48 665.85 752.51 C 665.56 752.23 596.08 752.11 511.46 752.25 L 357.58 752.50 L 361.42 756.22 C 363.53 758.27 367.54 761.09 370.34 762.48 L 375.43 765.02 L 512.97 764.76 L 650.50 764.50 L 655.20 762.10 Z M 800.00 424.00 L 800.00 403.00 L 512.00 403.00 L 224.00 403.00 L 224.00 424.00 L 224.00 445.00 L 512.00 445.00 L 800.00 445.00 L 800.00 424.00 Z M 248.00 359.00 L 248.50 330.50 L 251.26 324.88 C 255.39 316.47 261.11 310.57 268.78 306.79 L 275.45 303.50 L 341.16 303.00 L 406.86 302.50 L 412.51 296.25 L 418.17 290.00 L 348.63 290.00 C 301.73 290.00 277.37 290.36 273.80 291.11 C 255.62 294.90 241.41 308.82 236.51 327.63 C 235.34 332.11 235.00 339.62 235.00 360.76 L 235.00 388.10 L 241.25 387.80 L 247.50 387.50 L 248.00 359.00 Z M 414.53 381.75 C 408.03 374.54 400.74 360.46 399.01 351.75 L 397.86 346.00 L 339.50 346.00 L 281.15 346.00 L 278.99 343.27 C 276.41 339.98 276.90 335.42 280.11 332.75 C 282.07 331.13 286.44 331.00 339.97 331.00 L 397.72 331.00 L 398.86 325.33 C 399.49 322.22 400.00 319.29 400.00 318.83 C 400.00 317.54 284.74 317.79 279.56 319.09 C 274.14 320.45 268.60 324.96 265.72 330.35 C 263.61 334.29 263.48 335.85 263.18 361.25 L 262.85 388.00 L 341.51 388.00 L 420.16 388.00 L 414.53 381.75 Z M 568.65 387.07 C 586.64 383.65 601.97 371.26 608.04 355.22 C 610.73 348.12 611.66 335.48 610.06 327.78 C 606.61 311.17 593.76 296.83 577.91 291.89 C 572.22 290.12 567.90 290.00 512.02 290.00 C 455.27 290.00 451.89 290.10 445.86 291.98 C 422.66 299.18 408.21 326.17 414.53 350.47 C 419.01 367.67 434.18 382.18 452.27 386.56 C 458.62 388.10 560.86 388.54 568.65 387.07 Z M 761.00 362.74 C 761.00 348.85 760.56 335.95 760.02 334.08 C 758.37 328.32 754.12 323.24 748.69 320.53 L 743.61 318.00 L 683.72 318.00 L 623.82 318.00 L 624.54 322.25 C 624.93 324.59 625.64 327.53 626.12 328.80 L 626.99 331.09 L 684.70 330.94 L 742.42 330.79 L 744.71 333.45 C 747.59 336.80 747.63 340.70 744.83 343.69 L 742.65 346.00 L 684.47 346.00 L 626.29 346.00 L 624.64 352.69 C 622.11 362.92 616.57 373.14 609.28 381.01 L 602.81 388.00 L 681.91 388.00 L 761.00 388.00 L 761.00 362.74 Z M 789.07 383.25 C 789.10 380.64 789.07 367.77 789.00 354.66 C 788.86 327.53 788.02 322.97 781.19 312.43 C 774.82 302.58 766.85 296.61 754.59 292.50 L 747.15 290.00 L 676.88 290.00 L 606.61 290.00 L 609.64 293.25 C 611.30 295.04 613.68 297.85 614.92 299.50 L 617.18 302.50 L 682.84 303.00 L 748.50 303.50 L 754.18 306.16 C 762.12 309.88 768.40 316.03 772.25 323.85 L 775.50 330.45 L 775.78 357.97 C 775.93 373.11 776.25 386.06 776.50 386.75 C 776.78 387.56 779.05 388.00 782.97 388.00 L 789.00 388.00 L 789.07 383.25 Z M 317.64 273.70 C 318.08 273.25 317.36 270.87 316.05 268.39 C 313.42 263.43 307.48 259.28 301.68 258.34 C 294.85 257.23 286.08 262.18 283.36 268.67 C 281.40 273.38 281.59 273.83 285.75 274.32 C 291.96 275.04 316.78 274.56 317.64 273.70 Z M 489.67 272.79 C 500.84 269.99 521.81 269.74 532.13 272.28 C 536.10 273.26 545.13 274.13 554.63 274.45 C 569.33 274.94 570.35 274.86 568.50 273.37 C 564.30 269.99 547.65 262.79 538.28 260.30 C 529.57 257.98 526.63 257.70 511.50 257.70 C 496.33 257.70 493.44 257.98 484.63 260.32 C 474.81 262.93 460.77 269.12 456.00 272.95 L 453.50 274.96 L 467.17 274.98 C 478.00 275.00 482.68 274.54 489.67 272.79 Z M 742.45 271.75 C 737.26 254.61 714.48 253.63 707.54 270.25 L 705.97 274.00 L 724.55 274.00 L 743.13 274.00 L 742.45 271.75 Z M 277.00 722.97 C 266.01 721.01 257.73 716.58 250.19 708.60 C 243.91 701.97 239.27 692.59 237.92 683.84 C 237.33 680.01 237.05 647.52 237.22 601.66 L 237.50 525.82 L 239.86 523.91 C 243.35 521.08 248.39 521.41 250.93 524.63 C 252.98 527.25 253.00 527.88 253.00 604.52 C 253.00 674.40 253.16 682.27 254.69 687.02 C 256.93 693.94 264.26 701.97 271.23 705.12 L 276.50 707.50 L 512.50 707.50 L 748.50 707.50 L 753.50 704.83 C 759.98 701.38 766.31 694.79 769.20 688.50 L 771.50 683.50 L 772.00 604.17 C 772.49 527.10 772.56 524.80 774.44 523.42 C 777.43 521.23 782.33 521.65 784.83 524.31 L 787.00 526.63 L 787.00 604.60 C 787.00 689.67 787.07 688.56 781.22 699.37 C 777.44 706.35 769.66 713.93 762.27 717.82 C 749.85 724.35 765.54 723.98 512.00 723.86 C 385.23 723.81 279.48 723.41 277.00 722.97 Z M 279.38 694.57 C 273.62 692.06 272.94 684.26 278.16 680.60 C 285.15 675.70 293.56 683.17 290.38 691.46 C 289.79 693.00 285.00 696.04 283.30 695.96 C 282.86 695.94 281.10 695.31 279.38 694.57 Z M 737.50 694.87 C 734.24 693.05 733.00 690.84 733.00 686.88 C 733.00 679.81 741.50 676.41 746.55 681.45 C 749.76 684.67 749.86 689.85 746.75 692.75 C 743.88 695.43 740.06 696.30 737.50 694.87 Z M 304.45 692.55 C 301.19 689.28 301.24 685.06 304.58 681.92 L 307.16 679.50 L 510.36 679.19 C 646.28 678.98 714.44 679.22 716.22 679.89 C 722.14 682.14 723.42 688.66 718.80 692.97 C 716.63 695.00 716.17 695.00 511.77 695.00 L 306.91 695.00 L 304.45 692.55 Z M 494.50 665.01 C 490.65 663.77 489.00 661.45 489.00 657.31 C 489.00 653.96 491.82 650.02 494.25 649.98 C 494.94 649.97 502.30 649.69 510.62 649.36 C 528.28 648.66 532.47 649.51 534.44 654.19 C 536.08 658.09 535.30 661.76 532.45 663.63 C 529.66 665.45 499.30 666.56 494.50 665.01 Z M 345.00 659.51 C 311.70 652.05 286.16 628.61 276.37 596.50 C 273.94 588.50 273.63 585.88 273.59 573.00 C 273.55 560.98 273.93 557.07 275.80 550.16 C 284.17 519.25 305.74 496.78 337.00 486.42 C 344.91 483.80 346.65 483.60 362.00 483.55 C 376.31 483.51 379.56 483.80 386.50 485.79 C 416.08 494.28 439.17 516.69 448.54 546.00 C 452.19 557.43 453.10 577.44 450.54 590.09 C 444.06 622.16 420.00 647.84 387.30 657.61 C 376.24 660.91 355.44 661.85 345.00 659.51 Z M 382.98 642.98 C 416.47 633.52 438.61 602.40 436.69 567.50 C 436.08 556.28 434.37 549.75 429.37 539.45 C 420.42 521.04 401.54 505.75 381.00 500.28 C 372.12 497.92 352.86 497.92 344.00 500.29 C 323.60 505.73 306.05 520.22 296.51 539.50 C 290.18 552.27 288.71 559.57 289.25 575.50 C 289.63 586.93 290.05 589.48 292.74 596.67 C 301.93 621.19 322.05 638.73 347.50 644.41 C 356.79 646.49 372.86 645.84 382.98 642.98 Z M 643.00 659.02 C 595.02 648.66 564.11 601.87 573.90 554.44 C 581.13 519.40 609.13 491.72 644.78 484.35 C 655.34 482.16 676.68 482.96 686.46 485.89 C 694.88 488.42 706.32 493.75 712.61 498.08 C 725.80 507.15 738.94 523.31 744.92 537.80 C 754.52 561.09 753.63 588.00 742.50 610.50 C 724.20 647.51 682.91 667.64 643.00 659.02 Z M 682.51 642.80 C 714.38 633.40 735.97 604.58 735.99 571.41 C 736.00 559.89 733.38 549.21 727.79 538.00 C 724.43 531.27 721.67 527.60 714.52 520.38 C 706.58 512.36 704.24 510.65 695.00 506.16 C 674.65 496.26 653.77 495.39 633.56 503.60 C 620.80 508.78 605.87 521.46 598.19 533.63 C 590.94 545.11 586.23 564.39 587.54 577.26 C 589.51 596.72 599.13 615.78 613.00 627.72 C 622.21 635.65 637.28 642.80 649.33 644.97 C 657.79 646.49 673.48 645.46 682.51 642.80 Z M 506.27 628.95 C 495.41 626.80 485.96 619.70 481.27 610.14 C 478.87 605.25 478.50 603.31 478.50 595.50 C 478.50 587.85 478.90 585.65 481.15 580.85 C 484.52 573.66 490.66 567.52 497.85 564.15 C 502.66 561.90 504.84 561.50 512.50 561.51 C 520.39 561.52 522.15 561.86 526.79 564.29 C 533.92 568.04 539.07 572.88 542.36 578.92 C 553.44 599.27 540.85 624.65 517.57 628.91 C 514.30 629.51 511.38 629.95 511.07 629.89 C 510.75 629.83 508.60 629.41 506.27 628.95 Z M 519.28 612.62 C 523.20 610.94 528.50 605.50 529.94 601.68 C 533.07 593.39 528.88 582.55 521.00 578.54 C 501.84 568.79 483.48 593.27 498.61 608.39 C 504.06 613.83 512.45 615.55 519.28 612.62 Z M 507.15 523.91 C 488.47 520.30 480.58 498.19 492.85 483.86 C 502.34 472.77 519.78 471.93 529.92 482.08 C 534.73 486.88 536.96 492.40 536.96 499.50 C 536.96 515.44 522.90 526.95 507.15 523.91 Z M 519.08 506.08 C 525.30 499.85 520.96 490.00 512.00 490.00 C 508.74 490.00 507.22 490.63 504.92 492.92 C 498.70 499.15 503.04 509.00 512.00 509.00 C 515.26 509.00 516.78 508.37 519.08 506.08 Z M 278.91 430.72 C 276.33 428.73 274.91 425.22 275.59 422.50 C 277.03 416.76 273.23 417.00 362.65 417.00 L 444.85 417.00 L 446.93 419.63 C 449.68 423.13 449.55 426.55 446.55 429.55 L 444.09 432.00 L 362.30 431.97 C 299.57 431.94 280.13 431.65 278.91 430.72 Z M 577.45 429.55 C 574.40 426.49 574.32 422.89 577.25 419.53 L 579.50 416.95 L 662.00 416.94 L 744.50 416.93 L 746.75 419.52 C 747.99 420.95 749.00 422.78 749.00 423.61 C 749.00 425.96 746.23 430.70 744.46 431.38 C 743.56 431.72 706.18 432.00 661.37 432.00 L 579.91 432.00 L 577.45 429.55 Z M 452.29 372.57 C 442.38 369.43 435.37 363.44 430.25 353.71 C 427.76 348.99 427.50 347.52 427.50 338.00 C 427.50 328.35 427.74 327.03 430.46 321.65 C 434.14 314.38 441.38 307.75 448.59 305.05 C 453.89 303.07 456.02 303.00 512.00 303.00 C 568.93 303.00 570.02 303.04 575.71 305.16 C 583.69 308.15 591.87 316.39 594.93 324.51 C 597.94 332.49 597.54 346.02 594.08 353.22 C 590.50 360.66 584.65 366.55 577.22 370.21 L 570.55 373.50 L 513.52 373.70 C 468.34 373.86 455.62 373.62 452.29 372.57 Z M 567.32 357.93 C 571.98 356.64 578.82 350.66 580.65 346.28 C 583.72 338.96 581.56 328.64 575.83 323.30 C 570.14 317.99 570.30 318.00 511.78 318.02 C 461.28 318.04 457.22 318.17 453.46 319.88 C 437.41 327.17 438.82 351.54 455.64 357.54 C 460.56 359.29 561.14 359.64 567.32 357.93 Z M 349.00 631.50 C 329.47 627.11 311.50 611.24 304.95 592.61 C 294.93 564.10 307.46 531.87 333.91 518.11 C 344.87 512.41 352.98 510.68 366.00 511.29 C 378.88 511.90 386.30 514.31 396.69 521.26 C 409.65 529.92 418.13 542.21 422.16 558.16 C 425.18 570.11 423.15 576.00 416.00 576.00 C 411.64 576.00 409.18 573.46 408.50 568.23 C 406.32 551.56 396.82 537.94 382.50 530.96 C 351.97 516.07 317.00 538.32 317.00 572.62 C 317.00 584.66 322.06 595.99 331.40 604.81 C 353.42 625.64 388.92 619.97 403.44 593.29 C 406.91 586.92 410.38 585.11 414.78 587.38 C 419.80 589.98 420.34 594.43 416.53 601.95 C 410.68 613.48 396.24 625.19 382.28 629.71 C 372.52 632.88 358.46 633.63 349.00 631.50 Z M 648.13 631.46 C 630.12 627.55 612.08 613.25 606.40 598.38 C 604.83 594.25 604.79 593.46 606.09 591.15 C 606.89 589.72 608.69 587.91 610.08 587.13 C 613.96 584.95 617.67 587.27 621.88 594.50 C 631.59 611.14 649.80 619.93 668.57 617.02 C 693.48 613.16 711.10 589.29 706.99 564.97 C 702.47 538.14 676.33 520.81 650.53 527.53 C 632.54 532.22 619.85 546.41 616.52 565.56 C 615.04 574.10 612.96 577.00 608.32 577.00 C 601.85 577.00 599.46 572.16 601.04 562.25 C 604.77 538.91 624.27 517.92 647.25 512.50 C 654.65 510.76 667.78 510.56 675.20 512.09 C 678.12 512.69 684.33 515.00 689.00 517.22 C 695.78 520.45 699.02 522.80 705.00 528.88 C 709.27 533.22 713.91 539.16 715.77 542.69 C 722.45 555.30 724.56 570.99 721.51 585.37 C 714.68 617.63 681.22 638.64 648.13 631.46 Z M 458.17 343.69 C 453.75 338.98 456.63 330.99 462.75 331.01 C 464.26 331.01 486.65 330.98 512.50 330.93 C 538.35 330.89 560.51 330.88 561.75 330.93 C 567.57 331.12 570.16 339.62 565.69 343.83 L 563.37 346.00 L 511.86 346.00 L 460.35 346.00 L 458.17 343.69 Z" stroke-linecap="round"/>
</g>
</g>
</g>

  </svg>