<svg xmlns="http://www.w3.org/2000/svg" xmlns:xlink="http://www.w3.org/1999/xlink" width="3467px" height="3369px" viewBox="0 0 3466.666666666668 3368.9104020671803">
    <g id="245cbde7-0c8a-47b7-996e-98d957ce27c7">
<g style="">
		<g id="245cbde7-0c8a-47b7-996e-98d957ce27c7-child-0">
<path style="stroke: rgb(193,193,193); stroke-width: 0; stroke-dasharray: none; stroke-linecap: butt; stroke-dashoffset: 0; stroke-linejoin: miter; stroke-miterlimit: 4; fill: rgb(0,0,0); fill-rule: nonzero; opacity: 1;" transform="matrix(5.374677 0 0 5.374677 1733.333332 1684.455201) matrix(1 0 0 1 0 0)  translate(-512.5, -512.405847)" d="M 787.32 825.25 L 772.13 824.95 L 769.57 821.90 C 767.07 818.93 767.00 818.45 767.00 804.42 L 767.00 790.00 L 512.50 790.00 L 258.00 790.00 L 258.00 803.03 C 258.00 816.98 256.85 821.94 253.15 823.92 C 251.90 824.59 243.51 825.00 230.99 825.00 L 210.85 825.00 L 207.92 822.08 L 205.00 819.15 L 205.00 719.70 L 205.00 620.26 L 201.00 619.62 C 198.70 619.25 195.64 617.76 193.78 616.09 C 190.77 613.40 190.52 612.70 190.16 605.58 C 189.58 594.00 192.55 589.18 201.25 587.59 L 205.00 586.91 L 205.00 424.45 L 205.00 262.00 L 201.22 262.00 C 194.05 262.00 190.00 256.78 190.00 247.52 C 190.00 244.45 190.64 240.41 191.42 238.53 C 194.23 231.81 192.25 232.00 259.45 232.00 L 320.00 232.00 L 320.00 220.47 C 320.00 207.69 321.15 203.45 325.33 200.70 C 327.76 199.11 340.29 199.00 512.56 199.00 L 697.20 199.00 L 700.60 202.40 L 704.00 205.80 L 704.00 218.90 L 704.00 232.00 L 765.87 232.00 C 825.86 232.00 827.81 232.06 830.23 233.97 C 834.02 236.95 835.28 241.06 834.83 248.99 C 834.33 257.86 831.69 261.10 824.28 261.95 L 819.50 262.50 L 819.40 420.00 C 819.34 506.62 819.52 579.86 819.79 582.75 C 820.26 587.77 820.41 588.00 823.19 588.00 C 830.89 588.00 835.00 593.57 835.00 604.02 C 835.00 613.80 831.89 618.07 824.14 618.97 L 819.50 619.50 L 819.50 719.04 C 819.50 811.94 819.38 818.75 817.76 821.24 C 815.88 824.12 810.44 826.13 805.50 825.77 C 803.85 825.65 795.67 825.42 787.32 825.25 Z M 246.00 802.00 L 246.00 790.00 L 231.00 790.00 L 216.00 790.00 L 216.00 801.33 C 216.00 807.57 216.30 812.97 216.67 813.33 C 217.03 813.70 223.78 814.00 231.67 814.00 L 246.00 814.00 L 246.00 802.00 Z M 808.00 802.00 L 808.00 790.00 L 793.00 790.00 L 778.00 790.00 L 778.00 802.00 L 778.00 814.00 L 793.00 814.00 L 808.00 814.00 L 808.00 802.00 Z M 353.00 699.00 L 353.00 620.00 L 284.50 620.00 L 216.00 620.00 L 216.00 699.00 L 216.00 778.00 L 284.50 778.00 L 353.00 778.00 L 353.00 699.00 Z M 507.00 720.50 L 507.00 663.00 L 435.50 663.00 L 364.00 663.00 L 364.00 720.50 L 364.00 778.00 L 435.50 778.00 L 507.00 778.00 L 507.00 720.50 Z M 661.00 720.50 L 661.00 663.00 L 589.50 663.00 L 518.00 663.00 L 518.00 720.50 L 518.00 778.00 L 589.50 778.00 L 661.00 778.00 L 661.00 720.50 Z M 808.00 699.00 L 808.00 620.00 L 740.00 620.00 L 672.00 620.00 L 672.00 699.00 L 672.00 778.00 L 740.00 778.00 L 808.00 778.00 L 808.00 699.00 Z M 661.00 635.66 L 661.00 620.31 L 646.75 619.66 C 628.51 618.82 371.28 618.79 367.12 619.62 L 364.00 620.25 L 364.00 635.62 L 364.00 651.00 L 512.50 651.00 L 661.00 651.00 L 661.00 635.66 Z M 823.00 603.50 L 823.00 599.00 L 512.00 599.00 L 201.00 599.00 L 201.00 603.50 L 201.00 608.00 L 512.00 608.00 L 823.00 608.00 L 823.00 603.50 Z M 358.95 502.10 C 358.80 406.68 358.36 412.95 365.46 409.59 C 368.46 408.16 383.38 408.00 512.65 408.00 C 655.17 408.01 656.53 408.03 659.81 410.03 C 666.31 413.99 666.07 410.30 665.77 503.27 L 665.50 587.50 L 678.50 587.28 C 685.65 587.16 691.84 587.05 692.25 587.03 C 692.66 587.01 693.00 531.20 693.00 463.00 L 693.00 339.00 L 512.50 339.00 L 332.00 339.00 L 332.00 463.50 L 332.00 588.00 L 345.54 588.00 L 359.08 588.00 L 358.95 502.10 Z M 320.24 478.25 C 320.38 418.44 320.38 341.03 320.24 306.24 L 319.97 242.98 L 260.74 243.24 L 201.50 243.50 L 201.50 247.00 C 201.50 250.36 201.67 250.52 205.76 251.07 C 208.54 251.44 211.04 252.62 213.01 254.51 L 216.00 257.37 L 216.00 422.19 L 216.00 587.00 L 267.99 587.00 L 319.98 587.00 L 320.24 478.25 Z M 444.77 585.00 C 445.94 583.12 447.10 583.00 463.60 583.00 C 479.54 583.00 481.42 582.82 483.67 581.04 C 486.15 579.09 485.99 579.09 436.15 578.79 C 387.20 578.51 386.08 578.46 383.32 576.41 C 381.77 575.25 379.96 572.78 379.30 570.91 C 377.61 566.07 377.62 440.02 379.32 435.00 C 380.12 432.61 381.61 430.95 384.00 429.75 C 387.28 428.12 395.47 428.00 511.85 428.00 C 620.30 428.00 636.60 428.19 639.36 429.50 C 645.79 432.55 645.47 428.94 645.78 502.25 C 646.08 575.28 646.26 572.81 640.27 576.74 C 637.83 578.34 633.14 578.54 588.05 579.00 C 540.51 579.48 538.60 579.57 540.97 581.25 C 543.10 582.75 545.88 583.00 560.73 583.00 C 576.78 583.00 578.14 583.14 579.73 585.00 C 581.38 586.93 582.68 587.00 615.77 587.00 L 650.09 587.00 L 652.55 584.55 L 655.00 582.09 L 655.00 501.60 C 655.00 454.21 654.63 420.89 654.09 420.55 C 653.44 420.16 383.03 419.59 371.25 419.96 C 370.26 419.99 370.00 437.08 370.00 501.94 L 370.00 583.89 L 372.22 585.44 C 374.13 586.78 379.34 587.00 408.98 587.00 C 442.44 587.00 443.56 586.94 444.77 585.00 Z M 526.81 583.02 L 523.50 579.04 L 512.00 579.04 L 500.50 579.04 L 497.19 583.02 L 493.89 587.00 L 512.00 587.00 L 530.11 587.00 L 526.81 583.02 Z M 808.00 423.97 C 808.00 287.79 808.23 260.39 809.38 257.64 C 810.93 253.92 816.00 251.00 820.90 251.00 C 823.77 251.00 824.00 250.74 824.00 247.56 C 824.00 244.28 823.81 244.10 819.75 243.52 C 817.41 243.19 790.53 243.05 760.00 243.21 L 704.50 243.50 L 704.25 415.25 L 703.99 587.00 L 756.00 587.00 L 808.00 587.00 L 808.00 423.97 Z M 635.00 503.50 L 635.00 440.00 L 511.85 440.00 L 388.70 440.00 L 389.35 449.15 C 389.71 454.19 390.00 482.76 390.00 512.65 L 390.00 567.00 L 512.50 567.00 L 635.00 567.00 L 635.00 503.50 Z M 507.00 269.00 L 507.00 210.00 L 419.57 210.00 L 332.14 210.00 L 331.82 212.25 C 331.64 213.49 331.62 240.04 331.77 271.25 L 332.03 328.00 L 419.52 328.00 L 507.00 328.00 L 507.00 269.00 Z M 693.00 269.00 L 693.00 210.00 L 605.50 210.00 L 518.00 210.00 L 518.00 269.00 L 518.00 328.00 L 605.50 328.00 L 693.00 328.00 L 693.00 269.00 Z M 233.28 769.30 C 230.31 768.72 226.22 763.69 225.49 759.72 C 225.17 757.95 225.04 729.13 225.20 695.67 L 225.50 634.83 L 228.77 631.92 L 232.03 629.00 L 284.59 629.00 L 337.15 629.00 L 340.08 631.92 L 343.00 634.85 L 343.00 698.87 L 343.00 762.89 L 340.75 765.50 C 339.51 766.94 336.71 768.52 334.50 769.03 C 330.64 769.92 237.78 770.17 233.28 769.30 Z M 332.00 699.00 L 332.00 640.00 L 284.50 640.00 L 237.00 640.00 L 237.00 699.00 L 237.00 758.00 L 284.50 758.00 L 332.00 758.00 L 332.00 699.00 Z M 380.31 768.93 C 378.56 768.40 376.20 766.80 375.06 765.35 C 373.05 762.80 373.00 761.65 373.00 720.47 L 373.00 678.21 L 375.90 675.11 L 378.80 672.00 L 435.15 672.02 C 487.03 672.04 491.67 672.18 493.63 673.77 C 497.91 677.24 498.00 678.21 498.00 720.53 C 498.00 756.18 497.80 761.53 496.38 763.93 C 492.99 769.68 495.01 769.48 437.00 769.69 C 405.50 769.80 382.19 769.49 380.31 768.93 Z M 487.00 742.00 L 487.00 726.00 L 435.50 726.00 L 384.00 726.00 L 384.00 742.00 L 384.00 758.00 L 435.50 758.00 L 487.00 758.00 L 487.00 742.00 Z M 442.15 714.00 L 487.00 714.00 L 487.00 698.50 L 487.00 683.00 L 435.50 683.00 L 384.00 683.00 L 384.00 698.33 C 384.00 706.77 384.34 714.01 384.75 714.44 C 385.16 714.86 388.15 714.94 391.40 714.61 C 394.64 714.27 417.48 714.00 442.15 714.00 Z M 534.42 768.92 C 532.72 768.43 530.47 767.08 529.42 765.91 C 527.60 763.90 527.49 761.57 527.22 721.03 L 526.94 678.28 L 529.87 675.14 L 532.80 672.00 L 588.89 672.00 L 644.97 672.00 L 648.23 674.92 L 651.50 677.83 L 651.78 719.22 L 652.06 760.61 L 649.75 764.06 C 648.41 766.04 645.96 768.01 643.97 768.69 C 639.78 770.13 539.32 770.35 534.42 768.92 Z M 640.27 720.50 L 640.09 683.50 L 589.04 683.24 L 538.00 682.98 L 538.00 720.50 L 538.00 758.02 L 589.23 757.76 L 640.45 757.50 L 640.27 720.50 Z M 689.39 769.31 C 688.23 769.08 685.98 767.54 684.39 765.88 L 681.50 762.87 L 681.23 700.20 C 681.03 654.37 681.27 636.77 682.12 634.72 C 684.56 628.81 682.68 629.00 740.30 629.00 L 793.15 629.00 L 796.08 631.92 L 799.00 634.85 L 799.00 698.79 C 799.00 761.69 798.97 762.77 796.95 765.33 C 795.83 766.76 793.24 768.39 791.20 768.96 C 787.66 769.94 694.24 770.27 689.39 769.31 Z M 788.00 699.00 L 788.00 640.00 L 740.00 640.00 L 692.00 640.00 L 692.00 698.33 C 692.00 730.42 692.30 756.97 692.67 757.33 C 693.03 757.70 714.63 758.00 740.67 758.00 L 788.00 758.00 L 788.00 699.00 Z M 233.39 578.31 C 232.23 578.08 229.98 576.54 228.39 574.88 L 225.50 571.86 L 225.65 524.41 C 225.81 471.44 225.60 473.08 232.75 470.98 C 235.27 470.23 247.75 469.97 270.83 470.18 L 305.17 470.50 L 308.08 473.77 L 311.00 477.03 L 311.00 523.77 C 310.99 568.29 310.90 570.65 309.05 573.69 C 307.74 575.83 305.86 577.22 303.30 577.93 C 299.69 578.94 238.26 579.27 233.39 578.31 Z M 300.00 524.62 L 300.00 482.25 L 297.25 481.79 C 292.27 480.94 267.05 480.81 251.89 481.54 L 237.00 482.26 L 237.00 524.63 L 237.00 567.00 L 268.50 567.00 L 300.00 567.00 L 300.00 524.62 Z M 228.92 458.08 C 225.45 454.60 225.70 458.72 225.90 409.67 C 226.07 368.42 226.07 368.46 231.85 366.06 C 233.77 365.27 245.16 365.01 269.88 365.21 L 305.17 365.50 L 308.08 368.77 L 311.00 372.03 L 311.00 412.47 C 311.00 441.69 310.67 453.63 309.81 455.53 C 307.39 460.84 306.12 461.00 267.47 461.00 L 231.85 461.00 L 228.92 458.08 Z M 300.00 413.62 L 300.00 377.23 L 280.25 376.64 C 269.39 376.32 255.32 376.15 249.00 376.28 L 237.50 376.50 L 237.24 413.25 L 236.98 450.00 L 268.49 450.00 L 300.00 450.00 L 300.00 413.62 Z M 228.77 353.08 L 225.50 350.16 L 225.50 304.60 L 225.50 259.04 L 228.77 255.77 L 232.05 252.50 L 267.89 252.64 C 292.51 252.74 304.39 253.14 305.85 253.92 C 310.89 256.62 311.00 257.69 311.00 304.50 C 311.00 351.01 310.86 352.40 306.06 354.97 C 304.84 355.62 290.89 356.00 268.08 356.00 L 232.03 356.00 L 228.77 353.08 Z M 300.00 304.50 L 300.00 264.00 L 268.50 264.00 L 237.00 264.00 L 237.00 304.50 L 237.00 345.00 L 268.50 345.00 L 300.00 345.00 L 300.00 304.50 Z M 720.38 577.56 C 713.78 574.69 714.00 576.51 714.00 524.21 C 714.00 492.21 714.35 476.21 715.08 474.85 C 717.46 470.41 720.88 470.00 755.72 470.01 C 775.35 470.01 790.00 470.43 792.25 471.05 C 799.10 472.95 799.00 472.17 799.00 524.73 C 799.00 576.65 799.24 574.75 792.40 577.61 C 787.62 579.60 724.98 579.57 720.38 577.56 Z M 788.00 524.50 C 788.00 501.12 787.66 481.98 787.25 481.97 C 786.84 481.95 772.78 481.87 756.00 481.80 L 725.50 481.67 L 725.24 524.34 L 724.98 567.00 L 756.49 567.00 L 788.00 567.00 L 788.00 524.50 Z M 719.50 459.84 C 713.91 456.76 714.05 457.96 714.02 413.15 L 714.00 371.80 L 717.40 368.40 L 720.80 365.00 L 756.50 365.00 L 792.20 365.00 L 795.60 368.40 L 799.00 371.80 L 798.98 413.15 C 798.95 458.13 799.10 456.92 793.32 459.88 C 790.30 461.42 722.31 461.38 719.50 459.84 Z M 788.00 413.50 C 788.00 379.41 787.88 377.00 786.25 376.99 C 785.29 376.98 771.22 376.93 755.00 376.89 L 725.50 376.80 L 725.24 413.40 L 724.98 450.00 L 756.49 450.00 L 788.00 450.00 L 788.00 413.50 Z M 717.08 352.92 L 714.00 349.85 L 714.00 304.35 L 714.00 258.85 L 716.92 255.92 L 719.85 253.00 L 742.17 252.77 C 778.55 252.39 789.34 252.50 792.28 253.30 C 793.83 253.72 795.93 255.48 797.03 257.28 C 798.90 260.35 798.99 262.52 799.00 304.30 C 799.00 351.03 798.87 352.40 794.06 354.97 C 792.84 355.62 778.91 356.00 756.14 356.00 L 720.15 356.00 L 717.08 352.92 Z M 788.00 304.50 L 788.00 264.00 L 756.50 264.00 L 725.00 264.00 L 725.00 304.50 L 725.00 345.00 L 756.50 345.00 L 788.00 345.00 L 788.00 304.50 Z M 345.78 317.45 C 340.63 314.64 340.63 314.64 340.86 268.65 C 341.10 222.29 341.06 222.66 346.56 220.15 C 348.40 219.32 368.58 219.00 420.15 219.00 L 491.20 219.00 L 494.60 222.40 L 498.00 225.80 L 498.00 268.88 L 498.00 311.97 L 495.08 315.23 L 492.16 318.50 L 420.33 318.72 C 358.31 318.91 348.13 318.74 345.78 317.45 Z M 487.00 268.50 L 487.00 230.00 L 419.50 230.00 L 352.00 230.00 L 352.00 268.50 L 352.00 307.00 L 419.50 307.00 L 487.00 307.00 L 487.00 268.50 Z M 533.39 318.02 C 532.23 317.55 530.31 315.94 529.14 314.45 C 527.03 311.77 527.00 311.14 527.00 268.77 L 527.00 225.80 L 530.40 222.40 L 533.80 219.00 L 604.95 219.00 C 682.18 219.00 680.25 218.86 682.81 224.47 C 683.67 226.37 684.00 238.55 684.00 268.60 C 684.00 303.74 683.77 310.55 682.48 313.03 C 679.29 319.21 681.91 319.01 605.30 318.94 C 566.91 318.90 534.55 318.49 533.39 318.02 Z M 673.00 268.50 L 673.00 230.00 L 605.50 230.00 L 538.00 230.00 L 538.00 268.50 L 538.00 307.00 L 605.50 307.00 L 673.00 307.00 L 673.00 268.50 Z M 311.49 715.62 C 309.75 714.34 309.62 712.92 309.88 696.87 C 310.17 678.22 310.77 676.00 315.50 676.00 C 320.08 676.00 320.77 678.37 321.04 695.00 C 321.18 703.53 321.23 711.26 321.15 712.18 C 320.78 716.40 315.26 718.37 311.49 715.62 Z M 431.50 748.79 C 426.64 746.01 425.64 741.00 429.07 736.63 C 431.86 733.10 437.10 733.01 440.55 736.45 C 444.54 740.45 443.53 746.06 438.32 748.84 C 435.61 750.28 434.07 750.27 431.50 748.79 Z M 429.45 704.55 C 424.49 699.59 428.01 691.00 435.00 691.00 C 442.17 691.00 445.87 700.60 440.37 704.93 C 436.80 707.73 432.49 707.58 429.45 704.55 Z M 587.35 729.23 C 581.73 728.33 579.45 719.48 583.91 715.87 C 586.98 713.39 592.45 713.45 595.00 716.00 C 597.14 718.14 597.64 722.94 596.02 725.96 C 594.89 728.07 590.48 729.74 587.35 729.23 Z M 704.65 715.17 C 703.25 713.62 703.00 710.75 703.00 696.23 C 703.00 679.68 703.07 679.06 705.22 677.56 C 708.21 675.46 710.60 675.60 713.00 678.00 C 714.84 679.84 715.00 681.33 715.00 696.28 C 715.00 709.39 714.70 712.99 713.44 714.78 C 711.52 717.52 706.97 717.73 704.65 715.17 Z M 413.91 281.13 C 410.49 278.36 410.71 272.51 414.36 269.37 C 417.89 266.33 421.45 266.36 424.55 269.45 C 427.66 272.56 427.87 278.13 425.00 281.00 C 422.45 283.55 416.98 283.61 413.91 281.13 Z M 599.91 281.13 C 595.36 277.44 597.63 269.06 603.58 267.57 C 606.40 266.86 611.46 269.15 612.38 271.54 C 615.50 279.68 606.59 286.53 599.91 281.13 Z" stroke-linecap="round"/>
</g>
</g>
</g>

  </svg>