<svg xmlns="http://www.w3.org/2000/svg" xmlns:xlink="http://www.w3.org/1999/xlink" width="979px" height="514px" viewBox="0 0 979.3669220441843 513.6957450891277">
    <g id="bd82b49d-9d84-44e0-a06f-71b7902e6e0d">
<g style="">
		<g id="bd82b49d-9d84-44e0-a06f-71b7902e6e0d-child-0">
<path style="stroke: rgb(193,193,193); stroke-width: 0; stroke-dasharray: none; stroke-linecap: butt; stroke-dashoffset: 0; stroke-linejoin: miter; stroke-miterlimit: 4; fill: rgb(0,0,0); fill-rule: nonzero; opacity: 1;" transform="matrix(1.327402 0 0 1.327402 489.683569 256.847929) matrix(1 0 0 1 0 0)  translate(-511.903745, -548.493283)" d="M 148.76 740.43 C 145.66 738.75 143.00 734.26 143.00 730.70 C 143.00 727.00 147.14 721.65 151.03 720.31 C 153.28 719.53 162.08 719.09 176.00 719.06 C 200.38 719.00 202.94 719.59 206.44 726.13 C 208.16 729.34 208.24 730.24 207.14 733.93 C 206.28 736.79 204.89 738.71 202.70 740.04 C 199.76 741.84 197.57 741.99 175.50 741.96 C 156.22 741.93 150.96 741.63 148.76 740.43 Z M 235.30 740.04 C 233.11 738.71 231.72 736.79 230.86 733.93 C 229.76 730.24 229.84 729.34 231.56 726.13 C 234.17 721.25 238.95 719.00 246.75 719.00 L 253.00 719.00 L 253.00 588.06 L 253.00 457.12 L 226.72 456.81 L 200.45 456.50 L 193.78 453.21 C 186.39 449.58 180.58 443.74 176.85 436.22 C 174.85 432.18 174.51 429.98 174.51 421.00 C 174.50 411.37 174.74 410.04 177.37 405.00 C 178.95 401.98 183.43 395.23 187.32 390.00 C 191.21 384.77 196.79 377.28 199.73 373.34 C 206.94 363.68 213.61 358.85 223.50 356.12 C 226.37 355.33 307.56 355.01 511.75 355.00 C 795.57 354.98 796.01 354.98 802.08 357.03 C 812.90 360.67 820.01 366.75 829.51 380.50 C 832.17 384.35 836.46 390.20 839.04 393.50 C 841.63 396.80 845.04 401.98 846.62 405.00 C 849.23 409.99 849.50 411.42 849.50 420.50 C 849.50 429.44 849.20 431.11 846.68 436.24 C 843.09 443.55 836.55 450.09 829.24 453.68 L 823.50 456.50 L 797.25 456.82 L 771.00 457.15 L 771.00 588.07 L 771.00 719.00 L 820.43 719.00 C 853.02 719.00 870.83 719.36 872.68 720.07 C 882.05 723.62 883.72 735.15 875.58 740.11 C 872.58 741.94 863.88 741.99 555.50 741.99 C 243.06 741.99 238.45 741.96 235.30 740.04 Z M 289.00 588.00 L 289.00 457.00 L 282.00 457.00 L 275.00 457.00 L 275.00 588.00 L 275.00 719.00 L 282.00 719.00 L 289.00 719.00 L 289.00 588.00 Z M 325.00 621.50 L 325.00 524.00 L 318.00 524.00 L 311.00 524.00 L 311.00 621.50 L 311.00 719.00 L 318.00 719.00 L 325.00 719.00 L 325.00 621.50 Z M 677.00 621.50 L 677.00 524.00 L 512.00 524.00 L 347.00 524.00 L 347.00 621.50 L 347.00 719.00 L 512.00 719.00 L 677.00 719.00 L 677.00 621.50 Z M 713.00 621.50 L 713.00 524.00 L 706.00 524.00 L 699.00 524.00 L 699.00 621.50 L 699.00 719.00 L 706.00 719.00 L 713.00 719.00 L 713.00 621.50 Z M 749.00 588.00 L 749.00 457.00 L 742.00 457.00 L 735.00 457.00 L 735.00 588.00 L 735.00 719.00 L 742.00 719.00 L 749.00 719.00 L 749.00 588.00 Z M 713.00 479.00 L 713.00 457.00 L 512.00 457.00 L 311.00 457.00 L 311.00 479.00 L 311.00 501.00 L 512.00 501.00 L 713.00 501.00 L 713.00 479.00 Z M 821.61 432.44 C 828.13 427.57 830.33 420.24 826.54 416.05 L 824.69 414.00 L 512.10 414.02 C 340.17 414.02 198.97 414.37 198.31 414.79 C 196.37 416.02 195.01 420.78 195.66 424.06 C 196.43 427.89 201.13 432.69 205.32 433.90 C 207.24 434.46 329.20 434.76 513.68 434.66 L 818.85 434.50 L 821.61 432.44 Z M 809.92 390.25 C 806.41 385.59 802.13 381.62 798.50 379.66 L 794.50 377.50 L 511.50 377.50 L 228.50 377.50 L 224.50 379.65 C 220.30 381.92 217.42 384.68 214.52 389.25 L 212.77 392.00 L 512.01 392.00 C 796.83 392.00 811.18 391.92 809.92 390.25 Z" stroke-linecap="round"/>
</g>
</g>
</g>

  </svg>