<svg xmlns="http://www.w3.org/2000/svg" xmlns:xlink="http://www.w3.org/1999/xlink" width="1992px" height="1579px" viewBox="0 0 1991.8588239550534 1579.3033861937383">
    <g id="55b42d48-5b20-4775-b6e0-331223d7971f">
<g style="">
		<g id="55b42d48-5b20-4775-b6e0-331223d7971f-child-0">
<path style="stroke: rgb(193,193,193); stroke-width: 0; stroke-dasharray: none; stroke-linecap: butt; stroke-dashoffset: 0; stroke-linejoin: miter; stroke-miterlimit: 4; fill: rgb(0,0,0); fill-rule: nonzero; opacity: 1;" transform="matrix(3.40584 0 0 3.40584 995.929519 789.651778) matrix(1 0 0 1 0 0)  translate(-512.027264, -512.127804)" d="M 282.03 742.89 C 277.67 741.15 273.04 736.99 270.99 732.98 C 268.49 728.08 268.49 725.68 271.02 686.00 C 272.13 668.67 274.15 636.95 275.51 615.50 C 276.88 594.05 278.00 574.36 278.00 571.75 L 278.00 567.00 L 274.18 567.00 C 260.78 567.00 250.00 556.66 250.00 543.80 L 250.00 538.23 L 244.25 537.53 C 228.73 535.64 219.70 526.65 219.61 513.00 C 219.54 503.05 223.50 496.73 232.71 492.11 C 236.71 490.11 238.40 490.00 265.96 490.00 L 295.00 490.00 L 295.01 463.75 C 295.01 448.93 295.46 435.89 296.03 433.81 C 297.33 429.16 301.76 425.39 306.97 424.51 L 311.00 423.82 L 311.00 410.05 C 311.00 396.50 311.04 396.23 313.64 393.64 C 317.15 390.12 322.76 390.03 326.69 393.41 C 329.50 395.82 329.50 395.83 329.82 410.46 L 330.15 425.10 L 335.82 424.80 L 341.50 424.50 L 341.78 410.36 C 342.05 396.62 342.13 396.14 344.66 393.61 C 348.42 389.85 354.14 389.98 358.08 393.92 L 361.00 396.85 L 361.00 410.30 L 361.00 423.74 L 364.75 424.35 C 373.36 425.73 376.00 430.46 376.00 444.47 L 376.00 454.00 L 380.75 454.00 C 386.72 454.00 391.80 456.51 394.73 460.90 C 396.80 463.99 397.00 465.45 397.00 477.18 L 397.00 490.06 L 410.25 489.78 L 423.50 489.50 L 424.00 444.17 L 424.50 398.84 L 428.24 395.42 L 431.97 392.00 L 512.00 392.00 L 592.03 392.00 L 595.76 395.42 L 599.50 398.84 L 600.00 444.17 L 600.50 489.50 L 616.25 489.78 L 632.00 490.05 L 632.00 485.47 C 632.00 475.39 636.27 467.03 643.34 463.28 C 645.11 462.34 649.96 461.37 654.40 461.05 L 662.31 460.50 L 667.04 449.50 C 669.65 443.45 676.81 427.02 682.96 413.00 C 689.11 398.98 694.36 387.00 694.63 386.39 C 695.09 385.31 687.58 380.30 649.50 356.26 L 631.50 344.90 L 631.00 363.70 C 630.68 375.75 630.06 383.26 629.28 384.62 C 627.55 387.65 621.40 390.33 617.82 389.61 C 614.80 389.01 549.74 346.75 544.73 342.13 C 538.98 336.85 538.87 326.61 544.50 322.18 C 546.67 320.47 571.70 310.18 588.56 304.07 C 594.33 301.98 594.68 301.66 595.81 297.44 C 597.62 290.66 604.92 283.63 612.40 281.47 C 619.51 279.42 625.04 279.97 631.83 283.42 C 637.47 286.27 642.28 291.37 644.11 296.42 C 645.26 299.61 648.57 302.01 675.45 319.19 C 691.98 329.76 709.38 340.95 714.11 344.07 C 718.85 347.18 724.46 350.05 726.57 350.45 C 731.87 351.44 736.92 354.21 740.64 358.16 C 745.88 363.74 747.45 367.73 747.45 375.50 C 747.45 382.87 746.23 386.23 741.13 392.98 C 739.68 394.90 737.77 398.27 736.89 400.48 C 736.00 402.69 730.28 416.02 724.19 430.10 C 718.10 444.18 712.84 456.80 712.50 458.13 C 711.92 460.45 712.08 460.55 715.99 460.17 C 721.45 459.65 728.65 461.54 733.25 464.70 C 739.05 468.68 741.34 473.22 741.96 481.96 L 742.50 489.50 L 765.50 490.00 C 788.50 490.50 788.50 490.50 793.27 493.31 C 805.10 500.26 808.07 516.19 799.61 527.29 C 795.21 533.07 789.11 536.24 781.05 536.94 L 774.50 537.50 L 773.83 543.60 C 772.94 551.60 771.07 555.87 766.46 560.35 C 762.49 564.20 755.27 567.00 749.32 567.00 C 746.22 567.00 746.00 567.22 746.00 570.37 C 746.00 572.22 747.60 601.58 749.55 635.62 C 751.50 669.65 753.19 705.21 753.30 714.64 L 753.50 731.78 L 750.40 735.64 C 745.66 741.56 740.68 743.96 733.14 743.98 C 725.02 744.00 718.15 740.54 713.80 734.21 C 711.19 730.41 710.43 727.59 707.90 712.18 C 706.31 702.45 704.79 693.94 704.53 693.25 C 704.16 692.26 664.64 692.00 511.55 692.00 L 319.04 692.00 L 318.53 694.25 C 318.25 695.49 316.88 703.03 315.48 711.00 C 314.09 718.97 312.49 726.85 311.94 728.49 C 308.79 737.87 300.17 744.04 290.36 743.94 C 287.14 743.90 283.39 743.43 282.03 742.89 Z M 293.79 723.53 C 294.86 722.18 296.04 718.75 296.42 715.91 C 296.79 713.07 299.31 698.54 302.01 683.63 C 308.06 650.16 322.00 569.58 322.00 568.09 C 322.00 567.36 317.78 567.00 309.15 567.00 L 296.31 567.00 L 295.65 580.25 C 294.90 595.23 290.71 664.07 288.48 697.95 C 286.53 727.54 286.48 726.00 289.43 726.00 C 290.82 726.00 292.68 724.95 293.79 723.53 Z M 736.00 721.73 C 736.00 717.60 732.57 653.04 729.50 599.50 C 728.68 585.20 728.01 572.04 728.01 570.25 L 728.00 567.00 L 714.88 567.00 L 701.75 567.00 L 702.40 570.25 C 704.20 579.21 727.00 716.66 727.00 718.54 C 727.00 721.77 730.73 726.00 733.57 726.00 C 735.76 726.00 736.00 725.58 736.00 721.73 Z M 701.43 672.25 C 700.90 669.81 684.93 575.36 684.27 570.75 L 683.74 567.00 L 512.12 567.00 L 340.50 567.01 L 331.63 618.62 C 326.75 647.00 322.53 671.07 322.26 672.11 C 321.78 673.96 326.02 674.00 511.79 674.00 C 692.24 674.00 701.79 673.91 701.43 672.25 Z M 753.00 547.71 C 754.98 546.72 755.56 545.57 755.81 542.23 L 756.11 538.00 L 511.56 538.00 L 267.00 538.00 L 267.00 540.57 C 267.00 544.04 268.68 546.93 271.32 547.99 C 272.55 548.49 377.09 548.89 512.00 548.92 C 701.76 548.96 751.01 548.71 753.00 547.71 Z M 785.00 517.00 C 786.10 515.90 787.00 514.33 787.00 513.50 C 787.00 512.67 786.10 511.10 785.00 510.00 C 783.01 508.01 781.67 508.00 512.19 508.00 C 297.04 508.00 241.06 508.26 239.83 509.25 C 237.23 511.34 237.00 513.73 239.13 516.44 L 241.15 519.00 L 512.07 519.00 C 781.67 519.00 783.01 518.99 785.00 517.00 Z M 378.50 480.99 L 378.50 472.50 L 346.00 472.50 L 313.50 472.50 L 313.21 480.74 L 312.92 488.97 L 344.21 489.26 C 361.42 489.42 376.17 489.53 377.00 489.51 C 378.21 489.48 378.50 487.85 378.50 480.99 Z M 582.00 450.00 L 582.00 410.00 L 512.00 410.00 L 442.00 410.00 L 442.00 450.00 L 442.00 490.00 L 512.00 490.00 L 582.00 490.00 L 582.00 450.00 Z M 724.00 485.20 C 724.00 483.11 723.46 480.86 722.80 480.20 C 721.08 478.48 652.92 478.48 651.20 480.20 C 650.54 480.86 650.00 483.11 650.00 485.20 L 650.00 489.00 L 687.00 489.00 L 724.00 489.00 L 724.00 485.20 Z M 691.75 459.75 C 692.97 458.21 717.00 402.53 717.00 401.24 C 717.00 400.37 709.08 397.50 708.56 398.18 C 707.25 399.90 682.29 459.66 682.64 460.23 C 683.42 461.49 690.67 461.10 691.75 459.75 Z M 357.00 448.50 L 357.00 443.00 L 335.50 443.00 L 314.00 443.00 L 314.00 448.50 L 314.00 454.00 L 335.50 454.00 L 357.00 454.00 L 357.00 448.50 Z M 728.53 380.66 C 732.00 375.69 728.48 369.00 722.40 369.00 C 714.73 369.00 712.17 379.49 719.12 382.41 C 722.98 384.03 726.64 383.35 728.53 380.66 Z M 613.66 354.75 C 613.30 348.56 613.01 340.57 613.00 337.00 L 613.00 330.50 L 608.67 328.20 C 606.29 326.94 602.85 324.54 601.03 322.88 L 597.72 319.86 L 581.61 326.04 C 572.75 329.44 564.92 332.53 564.22 332.92 C 563.42 333.35 572.24 339.66 587.72 349.73 C 601.35 358.59 612.91 365.88 613.40 365.92 C 613.93 365.97 614.03 361.27 613.66 354.75 Z M 701.74 362.52 L 703.98 359.06 L 698.12 355.08 C 688.41 348.49 641.76 319.00 641.04 319.00 C 639.50 319.00 634.67 325.06 635.56 325.88 C 637.08 327.29 698.21 366.00 698.89 365.99 C 699.22 365.98 700.51 364.42 701.74 362.52 Z M 624.69 309.83 C 630.74 304.14 624.16 295.21 616.33 298.50 C 611.49 300.54 610.48 305.76 614.17 309.69 C 616.96 312.65 621.61 312.71 624.69 309.83 Z M 509.40 466.89 C 502.52 464.96 498.44 457.19 501.02 450.96 C 504.42 442.75 513.92 440.36 520.43 446.08 C 530.26 454.70 521.92 470.43 509.40 466.89 Z" stroke-linecap="round"/>
</g>
</g>
</g>

  </svg>