<svg xmlns="http://www.w3.org/2000/svg" xmlns:xlink="http://www.w3.org/1999/xlink" width="500px" height="500px" viewBox="0 0 499.61773625770905 500">
    <g id="25f66cd8-99ee-4fdc-90e8-3ff8fa9b48e7">
<g style="">
		<g id="25f66cd8-99ee-4fdc-90e8-3ff8fa9b48e7-child-0">
<path style="stroke: rgb(193,193,193); stroke-width: 0; stroke-dasharray: none; stroke-linecap: butt; stroke-dashoffset: 0; stroke-linejoin: miter; stroke-miterlimit: 4; fill: rgb(0,0,0); fill-rule: nonzero; opacity: 1;" transform="matrix(0.86891 0 0 0.86891 249.808985 250.000117) matrix(1 0 0 1 0 0)  translate(-512.481986, -511.804127)" d="M 680.50 799.09 C 672.94 797.19 667.54 792.28 665.14 785.10 C 663.46 780.10 663.74 775.78 666.14 769.29 C 668.10 764.01 670.77 761.00 696.39 735.13 C 736.86 694.28 761.90 670.72 768.18 667.60 C 778.50 662.46 789.41 664.66 796.36 673.29 C 798.89 676.43 799.48 678.17 799.82 683.54 C 800.57 695.23 800.74 695.01 748.22 747.11 C 715.22 779.84 699.98 794.28 696.47 796.14 C 690.89 799.12 684.97 800.21 680.50 799.09 Z M 730.85 742.09 C 784.53 689.31 784.72 689.11 785.52 685.84 C 786.32 682.57 783.22 679.00 779.58 679.00 C 776.10 679.00 774.07 680.84 737.21 717.36 C 684.54 769.54 679.00 775.35 679.00 778.37 C 679.00 781.53 682.19 785.00 685.10 785.00 C 686.53 785.00 701.26 771.17 730.85 742.09 Z M 327.80 795.79 C 319.51 791.00 230.30 702.31 227.08 695.66 C 223.97 689.25 224.38 678.99 227.93 673.80 C 231.94 667.95 236.35 665.60 244.15 665.16 C 255.72 664.51 257.85 666.01 291.37 698.49 C 307.39 714.02 328.18 734.56 337.57 744.14 C 357.96 764.95 360.45 768.95 359.84 779.85 C 359.16 791.93 352.72 798.26 340.59 798.78 C 334.11 799.06 333.01 798.80 327.80 795.79 Z M 343.47 783.03 C 345.66 780.61 345.76 776.80 343.71 773.68 C 341.58 770.43 252.96 683.27 249.39 680.92 C 245.83 678.57 243.22 678.49 240.83 680.65 C 236.26 684.79 236.60 685.20 280.21 728.38 C 334.42 782.06 337.52 785.00 339.77 785.00 C 340.83 785.00 342.49 784.11 343.47 783.03 Z M 369.59 757.43 C 362.80 754.94 355.97 748.74 312.46 705.59 C 276.26 669.69 269.64 662.69 267.52 658.00 C 263.16 648.39 264.48 637.37 270.80 630.62 C 274.27 626.92 280.51 624.05 285.14 624.02 L 288.78 624.00 L 288.70 616.75 C 288.64 611.23 289.12 608.55 290.72 605.50 C 294.31 598.63 300.34 594.46 308.27 593.38 L 312.58 592.79 L 312.17 586.35 C 311.65 578.20 313.77 572.35 318.90 567.70 C 327.17 560.24 339.09 558.98 348.75 564.55 C 351.36 566.05 360.09 573.79 368.15 581.75 C 379.91 593.36 383.12 596.03 384.45 595.29 C 385.36 594.78 404.76 575.72 427.57 552.95 L 469.03 511.53 L 426.55 469.05 L 384.06 426.57 L 367.78 442.60 C 349.32 460.77 345.80 463.01 335.76 462.98 C 327.98 462.95 322.74 460.68 317.81 455.22 C 313.25 450.16 311.70 445.23 312.15 437.20 L 312.50 431.00 L 309.00 430.98 C 302.15 430.94 293.99 425.53 290.17 418.52 C 289.04 416.45 288.53 413.07 288.54 407.75 L 288.55 400.00 L 285.03 399.98 C 280.50 399.95 274.24 397.04 270.80 393.38 C 266.92 389.23 265.00 383.90 265.01 377.28 C 265.03 366.66 267.40 363.30 293.30 337.18 C 306.06 324.31 327.14 303.53 340.14 291.01 C 360.81 271.09 364.49 267.96 369.43 266.11 C 375.85 263.71 378.31 263.55 384.50 265.10 C 392.63 267.15 401.00 276.72 401.00 283.96 C 401.00 286.99 401.02 287.00 406.63 287.00 C 414.25 287.00 419.23 288.65 424.04 292.77 C 428.47 296.56 431.38 301.56 432.38 307.10 L 433.03 310.70 L 438.02 310.22 C 453.39 308.75 466.27 321.43 464.71 336.51 C 463.82 345.13 460.80 349.45 443.40 367.02 L 427.03 383.54 L 469.44 425.94 L 511.85 468.34 L 554.17 426.59 C 577.45 403.63 596.66 384.40 596.86 383.84 C 597.06 383.29 589.86 375.46 580.86 366.44 C 562.41 347.95 560.02 344.29 560.03 334.50 C 560.06 320.10 569.91 310.50 584.67 310.50 L 591.85 310.50 L 592.48 306.28 C 593.44 299.86 598.54 293.07 604.86 289.79 C 609.18 287.54 611.54 287.00 616.98 287.00 L 623.74 287.00 L 624.25 282.48 C 624.91 276.61 629.10 270.61 634.93 267.19 C 641.18 263.52 650.31 263.42 657.46 266.94 C 665.90 271.09 750.70 354.51 756.44 364.31 C 759.73 369.93 760.87 378.84 759.01 384.48 C 756.44 392.24 746.76 399.93 739.47 399.98 L 736.44 400.00 L 736.41 407.25 C 736.36 420.34 729.19 429.14 717.17 430.86 L 712.65 431.50 L 712.89 438.21 C 713.19 446.45 710.97 452.07 705.49 456.88 C 700.20 461.52 696.15 463.00 688.73 463.00 C 679.01 463.00 674.92 460.39 656.63 442.55 L 640.77 427.07 L 598.38 468.77 C 575.07 491.71 556.00 510.74 556.00 511.06 C 556.00 511.89 639.84 595.42 641.11 595.86 C 641.68 596.06 648.98 589.48 657.32 581.25 C 674.27 564.54 678.26 561.93 688.00 561.23 C 695.57 560.69 699.75 562.09 705.38 567.03 C 711.31 572.23 713.47 577.26 713.38 585.65 L 713.30 592.79 L 717.24 593.42 C 729.97 595.46 738.44 606.91 736.55 619.54 L 735.88 624.00 L 739.47 624.00 C 746.90 624.00 754.35 628.94 758.20 636.41 C 760.66 641.21 760.38 651.49 757.61 657.19 C 754.64 663.34 744.91 673.57 703.06 714.57 C 674.51 742.55 661.65 754.49 658.26 756.16 C 654.52 758.00 651.85 758.50 645.84 758.50 C 638.92 758.50 637.75 758.21 633.85 755.46 C 629.21 752.20 625.23 747.05 624.47 743.31 C 622.83 735.24 623.26 735.78 619.00 736.50 C 608.30 738.31 596.48 730.29 593.38 719.14 L 591.72 713.19 L 585.11 713.25 C 570.39 713.40 559.68 703.40 559.64 689.45 C 559.61 679.29 561.99 675.70 581.12 657.00 L 598.00 640.50 L 555.75 598.25 C 532.51 575.01 513.04 556.01 512.50 556.03 C 511.95 556.05 492.38 574.91 469.00 597.94 L 426.50 639.82 L 443.63 657.16 C 453.05 666.70 461.55 676.05 462.51 677.95 C 465.42 683.69 465.63 692.66 463.00 698.78 C 458.73 708.70 448.14 714.94 437.88 713.58 C 432.53 712.87 432.60 712.80 431.54 719.23 C 430.71 724.21 425.42 730.94 419.96 733.96 C 416.42 735.92 414.03 736.43 408.35 736.46 L 401.20 736.50 L 400.68 740.35 C 398.85 754.02 383.41 762.49 369.59 757.43 Z M 381.60 743.96 C 385.48 742.49 386.93 740.13 386.97 735.27 C 387.01 729.96 387.21 730.17 333.40 677.42 L 293.19 638.00 L 288.55 638.00 C 280.48 638.00 276.44 644.76 280.76 651.03 C 283.91 655.60 372.55 742.90 375.05 743.90 C 378.26 745.18 378.41 745.18 381.60 743.96 Z M 677.82 717.13 C 693.04 702.29 714.61 680.98 725.75 669.77 C 747.38 648.00 748.25 646.66 744.46 641.25 C 742.22 638.04 736.02 636.40 732.73 638.14 C 728.97 640.12 640.18 727.76 638.36 731.27 C 634.98 737.81 640.00 745.75 646.82 744.64 C 649.51 744.20 655.38 739.00 677.82 717.13 Z M 414.45 720.63 C 417.33 718.74 419.43 712.87 418.53 709.20 C 417.86 706.45 331.52 618.83 321.66 610.90 C 317.65 607.67 316.05 607.00 312.33 607.00 C 306.15 607.00 302.00 611.00 302.00 616.97 C 302.00 619.24 302.64 622.31 303.43 623.80 C 305.35 627.42 396.54 718.23 401.00 720.96 C 404.96 723.38 410.45 723.25 414.45 720.63 Z M 622.51 721.56 C 625.38 720.36 688.75 659.08 715.70 631.45 C 725.09 621.82 726.24 614.48 719.23 608.97 C 716.41 606.75 710.10 606.34 706.70 608.16 C 703.86 609.68 611.18 701.07 608.25 705.24 C 605.84 708.67 605.32 713.87 607.06 717.12 C 608.45 719.71 613.88 722.99 616.78 723.00 C 618.04 723.00 620.61 722.35 622.51 721.56 Z M 446.95 697.55 C 450.14 694.66 451.41 690.41 450.07 687.17 C 449.43 685.61 424.51 660.01 394.70 630.28 C 336.91 572.63 337.64 573.25 330.89 576.05 C 325.57 578.25 323.37 586.02 326.43 591.80 C 328.42 595.56 430.92 697.65 434.00 698.94 C 437.44 700.37 444.69 699.59 446.95 697.55 Z M 590.66 698.25 C 594.71 695.99 696.73 595.36 698.59 591.80 C 699.37 590.31 700.00 587.32 700.00 585.15 C 700.00 581.89 699.39 580.67 696.47 578.10 C 692.75 574.84 689.34 574.22 685.68 576.15 C 683.00 577.57 576.98 682.49 575.29 685.41 C 573.44 688.59 573.77 692.43 576.14 695.45 C 579.85 700.17 585.33 701.23 590.66 698.25 Z M 497.97 547.57 L 501.44 543.95 L 490.76 533.27 L 480.08 522.59 L 437.79 564.55 C 414.53 587.62 395.33 606.89 395.13 607.36 C 394.93 607.84 399.39 612.87 405.06 618.56 L 415.36 628.89 L 454.93 590.04 C 476.69 568.67 496.06 549.55 497.97 547.57 Z M 622.00 616.54 L 630.50 607.94 L 593.52 571.22 C 573.19 551.02 524.91 503.02 486.25 464.54 L 415.95 394.59 L 405.47 405.03 L 394.98 415.48 L 501.68 522.18 L 608.37 628.87 L 610.93 627.01 C 612.35 625.98 617.33 621.27 622.00 616.54 Z M 587.62 457.55 L 630.23 415.61 L 619.47 405.22 L 608.71 394.83 L 597.10 406.16 C 590.72 412.39 571.44 431.44 554.26 448.48 L 523.01 479.48 L 533.24 489.74 C 538.87 495.39 543.82 499.89 544.24 499.75 C 544.66 499.61 564.18 480.62 587.62 457.55 Z M 340.12 447.24 C 344.32 444.45 448.00 340.78 449.57 337.80 C 451.78 333.63 451.30 331.10 447.60 327.40 C 444.83 324.63 443.44 324.00 440.05 324.00 C 437.77 324.00 434.69 324.65 433.20 325.44 C 429.94 327.17 327.67 429.58 326.10 432.68 C 323.88 437.08 324.74 441.94 328.40 445.60 C 332.27 449.47 335.99 449.99 340.12 447.24 Z M 696.02 446.25 C 699.88 442.77 700.86 437.61 698.57 432.79 C 696.57 428.56 595.87 327.99 591.30 325.64 C 585.24 322.53 578.02 324.12 575.42 329.15 C 571.97 335.82 569.90 333.38 629.76 393.24 C 683.48 446.96 685.66 449.00 689.24 449.00 C 691.90 449.00 693.84 448.21 696.02 446.25 Z M 329.91 404.77 C 364.31 371.37 416.30 319.19 417.57 316.80 C 420.66 310.98 418.21 303.82 412.27 301.34 C 404.59 298.13 405.53 297.39 357.36 344.68 C 332.97 368.62 310.77 390.66 308.03 393.66 C 300.34 402.07 299.13 409.22 304.50 414.59 C 306.43 416.52 307.94 417.00 312.12 417.00 L 317.32 417.00 L 329.91 404.77 Z M 720.20 414.25 C 721.62 412.74 723.08 410.48 723.46 409.23 C 725.31 403.13 724.62 402.32 676.15 353.64 C 650.49 327.87 627.74 305.49 625.60 303.89 C 620.04 299.77 613.07 299.78 608.92 303.92 C 606.50 306.34 606.00 307.67 606.00 311.65 L 606.00 316.45 L 650.25 360.82 C 674.59 385.23 697.55 407.85 701.28 411.10 C 707.52 416.54 708.43 417.00 712.84 417.00 C 716.77 417.00 718.09 416.51 720.20 414.25 Z M 292.16 385.70 C 295.94 383.99 385.73 294.85 386.97 291.57 C 389.31 285.42 385.06 279.00 378.64 279.00 C 374.70 279.00 373.95 279.68 335.10 318.25 C 313.36 339.84 292.08 360.96 287.82 365.19 C 283.56 369.41 279.76 374.09 279.39 375.58 C 278.37 379.65 280.11 383.29 284.01 385.25 C 288.07 387.28 288.61 387.31 292.16 385.70 Z M 740.91 385.55 C 744.15 383.87 746.49 379.06 745.65 375.77 C 745.33 374.52 723.77 352.24 697.74 326.25 C 651.16 279.75 650.35 279.00 646.43 279.00 C 644.24 279.00 641.46 279.69 640.26 280.53 C 637.57 282.42 636.34 288.25 637.91 291.70 C 639.16 294.44 728.84 383.70 732.37 385.71 C 735.22 387.34 737.53 387.29 740.91 385.55 Z M 236.50 357.58 C 232.74 355.89 227.46 350.38 226.06 346.68 C 224.27 341.94 224.78 333.09 227.11 328.26 C 229.44 323.45 232.67 320.11 287.00 266.36 C 311.41 242.20 326.07 228.44 329.00 226.92 C 332.35 225.19 335.20 224.58 340.16 224.55 C 345.98 224.51 347.37 224.88 351.16 227.51 C 356.95 231.53 360.00 237.64 360.00 245.22 C 360.00 256.25 360.01 256.24 309.12 307.07 C 257.49 358.65 257.01 359.04 245.31 358.96 C 242.12 358.94 238.15 358.32 236.50 357.58 Z M 253.72 339.06 C 257.45 335.80 279.50 314.31 302.72 291.31 C 331.54 262.77 345.14 248.62 345.58 246.74 C 346.53 242.65 343.79 239.00 339.76 239.00 C 336.87 239.00 331.80 243.76 287.78 287.75 C 252.33 323.18 239.00 337.12 239.00 338.75 C 239.00 341.53 242.32 345.00 244.97 345.00 C 246.06 345.00 250.00 342.33 253.72 339.06 Z M 767.71 356.42 C 761.76 353.32 739.62 332.40 699.91 292.35 C 676.98 269.23 668.73 260.27 666.99 256.60 C 657.24 235.98 674.78 217.17 695.00 226.58 C 699.62 228.73 708.11 236.73 748.20 276.73 C 801.09 329.51 800.61 328.92 799.79 340.19 C 799.27 347.43 795.45 353.32 789.09 356.67 C 782.93 359.92 774.25 359.82 767.71 356.42 Z M 782.78 343.44 C 784.32 342.36 785.00 340.87 785.00 338.52 C 785.00 335.41 781.40 331.61 736.50 287.33 C 685.70 237.23 684.73 236.41 680.63 240.52 C 679.73 241.41 679.00 243.59 679.00 245.37 C 679.00 248.29 683.19 252.77 723.25 292.70 C 747.59 316.96 769.66 338.65 772.31 340.90 C 777.55 345.37 779.39 345.81 782.78 343.44 Z" stroke-linecap="round"/>
</g>
</g>
</g>

  </svg>