<svg xmlns="http://www.w3.org/2000/svg" xmlns:xlink="http://www.w3.org/1999/xlink" width="1992px" height="1732px" viewBox="0 0 1991.8588239550531 1731.536139770254">
    <g id="3473650f-2a09-4dc8-8287-552bd369ae70">
<g style="">
		<g id="3473650f-2a09-4dc8-8287-552bd369ae70-child-0">
<path style="stroke: rgb(193,193,193); stroke-width: 0; stroke-dasharray: none; stroke-linecap: butt; stroke-dashoffset: 0; stroke-linejoin: miter; stroke-miterlimit: 4; fill: rgb(0,0,0); fill-rule: nonzero; opacity: 1;" transform="matrix(3.279293 0 0 3.279293 995.929499 865.768145) matrix(1 0 0 1 0 0)  translate(-511.785937, -511.98939)" d="M 210.00 774.00 C 207.48 771.48 207.44 767.91 209.91 764.86 C 211.81 762.51 211.95 762.50 233.00 762.50 C 254.05 762.50 254.19 762.51 256.09 764.86 C 258.56 767.91 258.52 771.48 256.00 774.00 C 254.13 775.87 252.67 776.00 233.00 776.00 C 213.33 776.00 211.87 775.87 210.00 774.00 Z M 273.00 774.00 C 270.12 771.12 270.41 766.61 273.63 764.07 C 275.72 762.43 277.70 762.00 283.13 762.00 C 287.39 762.00 290.00 761.59 290.00 760.92 C 290.00 759.78 306.48 711.42 339.54 615.50 C 350.34 584.15 367.96 532.85 378.69 501.50 C 417.89 386.95 422.17 374.45 442.35 315.62 C 456.27 275.05 463.63 254.94 465.19 253.24 C 469.02 249.10 473.03 248.00 484.40 248.00 C 504.57 248.00 502.70 245.28 521.15 301.43 C 534.00 340.51 536.43 347.09 537.25 344.98 C 537.78 343.62 544.93 323.15 553.13 299.50 C 561.33 275.85 568.85 255.38 569.84 254.00 C 573.21 249.32 577.48 248.00 589.28 248.00 C 603.48 248.00 609.24 250.51 612.17 258.00 C 613.09 260.34 645.38 360.26 655.97 393.50 C 658.59 401.75 664.88 421.33 669.93 437.00 C 674.99 452.67 686.56 488.67 695.64 517.00 C 704.72 545.33 717.02 583.58 722.96 602.00 C 728.91 620.42 739.19 652.38 745.81 673.00 C 752.43 693.62 761.57 722.09 766.13 736.25 L 774.41 762.00 L 791.05 762.00 C 800.25 762.00 809.07 762.48 810.76 763.06 C 816.10 764.93 817.20 772.16 812.60 775.23 C 812.00 775.64 731.31 775.98 633.31 775.98 L 455.11 776.00 L 453.56 773.78 C 451.38 770.67 451.62 766.66 454.10 764.40 C 456.14 762.56 459.45 762.49 554.67 762.24 L 653.13 761.97 L 652.47 759.74 C 652.11 758.51 646.93 742.20 640.96 723.50 C 624.14 670.80 613.20 636.41 601.90 600.75 L 591.53 568.00 L 585.27 568.00 C 581.82 568.00 579.00 568.40 579.00 568.89 C 579.00 569.37 581.88 578.71 585.40 589.64 C 626.45 716.97 633.31 739.23 632.35 741.94 C 630.76 746.48 622.32 747.33 620.10 743.18 C 618.90 740.95 608.86 710.13 591.53 655.50 C 557.60 548.54 536.73 483.37 535.97 482.00 C 535.23 480.67 535.07 480.67 534.59 482.00 C 534.29 482.83 527.55 502.62 519.61 526.00 C 511.67 549.38 494.54 599.78 481.53 638.00 C 468.52 676.22 453.12 721.67 447.32 739.00 C 438.64 764.93 436.25 770.99 433.87 773.25 L 430.97 776.00 L 352.98 776.00 C 276.33 776.00 274.97 775.97 273.00 774.00 Z M 317.58 761.67 C 317.63 761.58 324.01 742.83 331.77 720.00 C 339.52 697.17 354.04 654.88 364.02 626.00 C 374.01 597.12 391.29 546.81 402.42 514.20 C 416.21 473.80 423.36 454.20 424.86 452.70 C 427.04 450.51 427.32 450.50 468.53 450.22 C 496.38 450.03 510.66 450.28 511.99 451.00 C 513.08 451.58 514.25 453.13 514.58 454.45 C 514.99 456.09 509.16 474.49 495.98 513.17 C 462.56 611.19 436.28 688.32 423.54 725.75 L 411.20 762.00 L 417.87 762.00 L 424.54 762.00 L 430.17 745.25 C 440.35 715.01 468.40 632.77 493.03 561.00 C 506.33 522.22 519.91 482.40 523.20 472.50 C 526.48 462.60 530.05 453.60 531.11 452.50 C 533.00 450.55 534.56 450.49 587.86 450.23 C 642.16 449.95 642.69 449.97 645.33 452.04 C 647.44 453.71 649.03 457.44 653.11 470.32 C 659.52 490.55 686.87 575.84 712.02 654.00 C 722.54 686.72 734.61 724.40 738.83 737.73 L 746.50 761.96 L 752.75 761.98 C 756.19 761.99 759.00 761.67 759.00 761.28 C 759.00 760.39 753.15 741.96 730.03 670.00 C 720.22 639.47 704.76 591.33 695.67 563.00 C 686.58 534.67 675.23 499.35 670.45 484.50 C 665.67 469.65 657.52 444.23 652.34 428.00 C 625.26 343.10 600.36 266.54 599.00 264.00 C 598.07 262.26 596.91 262.00 590.21 262.02 C 585.97 262.02 582.02 262.36 581.44 262.77 C 580.32 263.54 574.51 279.81 554.97 337.00 C 527.58 417.12 527.22 418.00 521.50 418.00 C 516.46 418.00 515.54 415.87 499.80 367.75 C 491.40 342.04 484.28 321.00 483.98 321.00 C 483.69 321.00 481.81 325.84 479.82 331.75 C 477.82 337.66 470.07 360.42 462.59 382.32 C 455.12 404.23 449.00 422.34 449.00 422.57 C 449.00 422.81 469.05 423.00 493.55 423.00 L 538.10 423.00 L 539.68 419.25 C 541.08 415.92 558.67 365.22 578.01 308.73 C 581.74 297.86 585.34 288.30 586.02 287.48 C 587.70 285.46 591.35 285.62 593.32 287.80 C 594.22 288.80 596.29 293.86 597.92 299.05 C 599.55 304.25 604.22 318.85 608.30 331.50 C 612.37 344.15 620.95 370.76 627.36 390.63 C 633.76 410.49 639.00 427.95 639.00 429.42 C 639.00 431.03 637.94 433.07 636.35 434.55 L 633.71 437.00 L 524.89 437.00 C 420.04 437.00 416.03 437.07 415.08 438.85 C 414.54 439.87 409.32 454.83 403.48 472.10 C 397.65 489.37 387.30 519.70 380.48 539.50 C 345.20 642.00 305.49 757.71 304.58 760.68 C 303.93 762.80 304.09 762.85 310.70 762.35 C 314.44 762.07 317.53 761.76 317.58 761.67 Z M 410.58 720.00 C 418.40 697.17 425.12 677.71 425.51 676.74 C 426.19 675.07 424.45 674.99 393.97 675.24 L 361.72 675.50 L 346.96 718.50 C 333.34 758.14 332.34 761.54 334.14 762.00 C 335.21 762.28 349.65 762.28 366.23 762.00 L 396.37 761.50 L 410.58 720.00 Z M 731.09 761.67 C 731.42 761.58 728.79 752.50 725.26 741.50 C 721.73 730.50 715.48 711.04 711.38 698.25 L 703.90 675.00 L 672.45 675.00 C 647.42 675.00 641.00 675.26 641.00 676.29 C 641.00 677.00 642.95 683.41 645.34 690.54 C 647.72 697.67 653.86 716.64 658.98 732.70 L 668.30 761.91 L 673.90 762.21 C 679.28 762.49 729.88 762.02 731.09 761.67 Z M 434.56 649.75 C 436.60 643.56 443.61 623.06 450.14 604.18 C 456.66 585.30 462.00 569.43 462.00 568.92 C 462.00 568.34 449.70 568.07 430.33 568.24 L 398.66 568.50 L 392.83 585.50 C 388.41 598.38 374.64 638.31 367.22 659.75 C 366.88 660.73 373.63 661.00 398.81 661.00 L 430.83 661.00 L 434.56 649.75 Z M 699.00 660.37 C 699.00 659.28 670.77 571.58 669.83 569.75 C 669.00 568.14 666.45 568.00 637.96 568.00 C 614.42 568.00 607.00 568.29 607.00 569.21 C 607.00 569.87 611.99 585.96 618.10 604.96 C 624.20 623.96 630.75 644.34 632.65 650.25 L 636.10 661.00 L 667.55 661.00 C 684.85 661.00 699.00 660.72 699.00 660.37 Z M 475.65 529.50 C 480.13 516.30 486.92 496.39 490.74 485.25 L 497.68 465.00 L 467.84 464.83 C 451.43 464.74 437.21 464.63 436.25 464.58 C 434.39 464.49 434.06 465.35 413.68 524.67 C 408.36 540.16 404.00 553.11 404.00 553.43 C 404.00 553.76 418.29 553.91 435.75 553.76 L 467.50 553.50 L 475.65 529.50 Z M 586.00 552.29 C 586.00 551.34 579.84 531.32 572.30 507.79 L 558.61 465.00 L 552.24 465.00 C 546.10 465.00 545.89 465.08 546.52 467.25 C 547.23 469.68 559.75 508.86 568.72 536.75 L 574.27 554.00 L 580.14 554.00 C 585.01 554.00 586.00 553.71 586.00 552.29 Z M 664.74 552.75 C 664.47 552.06 659.27 535.97 653.17 517.00 C 647.08 498.02 640.79 478.67 639.21 474.00 L 636.32 465.50 L 619.91 464.91 C 602.20 464.28 574.00 464.91 574.00 465.94 C 574.00 466.46 599.97 548.47 601.49 552.75 C 601.84 553.71 609.17 554.00 633.58 554.00 C 658.47 554.00 665.11 553.73 664.74 552.75 Z M 434.55 420.75 C 435.20 418.60 470.79 315.14 477.23 296.66 C 479.45 290.29 480.94 287.53 482.53 286.80 C 487.32 284.62 488.50 286.64 495.95 309.77 C 517.10 375.43 521.55 388.95 522.03 388.97 C 522.32 388.99 523.94 384.83 525.61 379.74 C 528.39 371.30 528.55 370.13 527.41 366.49 C 523.27 353.32 496.42 271.60 494.81 267.25 L 492.86 262.00 L 485.18 262.02 C 480.96 262.02 476.94 262.39 476.25 262.83 C 475.56 263.26 467.98 284.07 459.41 309.06 C 429.95 394.95 421.00 421.29 421.00 422.15 C 421.00 422.62 423.89 423.00 427.43 423.00 C 433.23 423.00 433.93 422.78 434.55 420.75 Z M 622.75 421.75 C 622.49 421.06 614.93 397.89 605.95 370.25 C 596.97 342.61 589.35 320.00 589.02 320.00 C 588.70 320.00 586.92 324.61 585.09 330.25 C 583.25 335.89 575.51 358.64 567.87 380.80 C 560.24 402.97 554.00 421.53 554.00 422.05 C 554.00 422.63 567.44 423.00 588.61 423.00 C 615.88 423.00 623.11 422.73 622.75 421.75 Z" stroke-linecap="round"/>
</g>
</g>
</g>

  </svg>