<svg xmlns="http://www.w3.org/2000/svg" xmlns:xlink="http://www.w3.org/1999/xlink" width="500px" height="366px" viewBox="0 0 499.9999999999998 365.6504060152597">
    <g id="95b42a83-2670-45a4-a367-97e9bb8df2b7">
<g style="">
		<g id="95b42a83-2670-45a4-a367-97e9bb8df2b7-child-0">
<path style="stroke: rgb(193,193,193); stroke-width: 0; stroke-dasharray: none; stroke-linecap: butt; stroke-dashoffset: 0; stroke-linejoin: miter; stroke-miterlimit: 4; fill: rgb(0,0,0); fill-rule: nonzero; opacity: 1;" transform="matrix(0.904786 0 0 0.904786 249.999968 182.82518) matrix(1 0 0 1 0 0)  translate(-511.721352, -512.935446)" d="M 238.33 712.61 C 234.67 709.46 234.41 703.15 237.80 699.76 C 240.04 697.52 240.34 697.50 276.28 697.00 L 312.50 696.50 L 312.78 681.82 L 313.05 667.13 L 296.10 666.82 C 279.75 666.51 279.06 666.41 276.58 664.08 L 274.00 661.65 L 274.00 639.88 C 274.00 618.32 274.02 618.09 276.41 615.31 L 278.82 612.50 L 295.92 612.18 L 313.02 611.87 L 312.76 558.18 L 312.50 504.50 L 295.16 504.00 C 272.22 503.34 274.00 505.61 274.00 477.00 C 274.00 448.39 272.22 450.66 295.16 450.00 L 312.50 449.50 L 312.76 409.18 L 313.02 368.86 L 326.31 352.18 C 333.61 343.01 343.56 330.42 348.42 324.22 C 353.28 318.01 358.07 312.50 359.06 311.97 C 360.06 311.43 362.33 311.00 364.11 311.00 C 368.10 311.00 367.99 310.88 393.47 343.49 L 413.00 368.48 L 413.00 385.08 C 413.00 394.21 413.30 412.55 413.66 425.84 L 414.32 450.00 L 437.66 450.00 L 461.00 450.00 L 461.00 410.22 C 461.00 374.41 461.17 370.20 462.70 367.97 C 465.71 363.61 502.23 317.62 505.36 314.25 C 509.39 309.93 514.46 309.74 518.16 313.75 C 520.51 316.29 550.20 353.69 558.41 364.45 L 562.00 369.15 L 562.00 409.58 L 562.00 450.00 L 586.00 450.00 L 610.00 450.00 L 610.00 410.14 L 610.00 370.28 L 612.30 366.89 C 615.12 362.74 651.25 317.58 654.82 313.75 C 658.35 309.95 663.64 309.95 667.21 313.75 C 668.63 315.26 679.06 328.20 690.38 342.50 L 710.96 368.50 L 711.23 409.00 L 711.50 449.50 L 728.84 450.00 C 751.78 450.66 750.00 448.39 750.00 477.00 C 750.00 505.61 751.78 503.34 728.84 504.00 L 711.50 504.50 L 711.24 558.18 L 710.98 611.87 L 727.91 612.18 C 744.25 612.49 744.94 612.59 747.42 614.92 L 750.00 617.35 L 750.00 639.59 L 750.00 661.82 L 746.92 664.41 C 743.89 666.97 743.63 667.00 727.40 667.00 L 710.95 667.00 L 711.22 681.75 L 711.50 696.50 L 747.84 697.00 L 784.18 697.50 L 786.09 699.86 C 788.94 703.39 788.61 709.12 785.36 712.36 L 782.73 715.00 L 511.92 715.00 L 241.11 715.00 L 238.33 712.61 Z M 394.08 696.59 C 394.31 696.36 394.36 689.61 394.20 681.59 L 393.90 667.00 L 362.95 667.00 L 332.00 667.00 L 332.00 682.00 L 332.00 697.00 L 362.83 697.00 C 379.79 697.00 393.85 696.81 394.08 696.59 Z M 461.08 696.59 C 461.31 696.36 461.36 689.62 461.20 681.62 L 460.90 667.07 L 437.45 666.78 L 414.00 666.50 L 414.00 681.75 L 414.00 697.00 L 437.33 697.00 C 450.17 697.00 460.85 696.81 461.08 696.59 Z M 543.00 682.00 L 543.00 667.00 L 512.11 667.00 C 483.61 667.00 481.16 667.14 480.54 668.75 C 479.83 670.59 479.97 694.96 480.70 696.25 C 480.93 696.66 495.04 697.00 512.06 697.00 L 543.00 697.00 L 543.00 682.00 Z M 610.00 682.00 L 610.00 667.00 L 586.00 667.00 L 562.00 667.00 L 562.00 682.00 L 562.00 697.00 L 586.00 697.00 L 610.00 697.00 L 610.00 682.00 Z M 692.00 682.00 L 692.00 667.00 L 660.50 667.00 L 629.00 667.00 L 629.00 681.33 C 629.00 689.22 629.30 695.97 629.67 696.33 C 630.03 696.70 644.21 697.00 661.17 697.00 L 692.00 697.00 L 692.00 682.00 Z M 731.00 639.50 L 731.00 632.00 L 678.75 631.90 C 621.16 631.80 313.09 631.82 300.75 631.93 L 293.00 632.00 L 293.00 639.50 L 293.00 647.00 L 512.00 647.00 L 731.00 647.00 L 731.00 639.50 Z M 394.76 558.25 L 394.50 504.50 L 363.25 504.24 L 332.00 503.97 L 332.00 557.99 L 332.00 612.00 L 363.51 612.00 L 395.02 612.00 L 394.76 558.25 Z M 461.00 557.98 L 461.00 503.96 L 437.25 504.23 L 413.50 504.50 L 413.53 510.75 C 413.55 514.19 413.66 538.38 413.78 564.50 L 414.00 612.00 L 437.50 612.00 L 461.00 612.00 L 461.00 557.98 Z M 543.00 557.99 L 543.00 503.97 L 511.75 504.24 L 480.50 504.50 L 480.20 552.00 C 480.04 578.12 480.18 602.31 480.53 605.75 L 481.16 612.00 L 512.08 612.00 L 543.00 612.00 L 543.00 557.99 Z M 610.00 558.00 L 610.00 504.00 L 586.00 504.00 L 562.00 504.00 L 562.00 558.00 L 562.00 612.00 L 586.00 612.00 L 610.00 612.00 L 610.00 558.00 Z M 692.00 558.00 L 692.00 504.00 L 660.50 504.00 L 629.00 504.00 L 629.00 558.00 L 629.00 612.00 L 660.50 612.00 L 692.00 612.00 L 692.00 558.00 Z M 731.00 477.00 L 731.00 469.00 L 512.00 469.00 L 293.00 469.00 L 293.00 477.00 L 293.00 485.00 L 512.00 485.00 L 731.00 485.00 L 731.00 477.00 Z M 394.76 413.33 L 395.02 377.17 L 379.76 357.92 C 371.37 347.33 364.00 338.50 363.39 338.30 C 362.79 338.09 355.47 346.70 347.14 357.41 L 332.00 376.90 L 332.00 413.46 L 332.00 450.03 L 363.25 449.76 L 394.50 449.50 L 394.76 413.33 Z M 543.00 413.25 L 543.00 376.50 L 527.90 357.20 C 519.60 346.58 512.29 338.06 511.65 338.26 C 510.47 338.64 485.31 370.13 481.91 375.50 C 480.21 378.18 480.01 380.55 480.00 397.59 C 480.00 408.09 480.30 424.18 480.66 433.34 L 481.31 450.00 L 512.16 450.00 L 543.00 450.00 L 543.00 413.25 Z M 691.99 413.25 L 691.97 376.50 L 676.91 357.50 C 668.62 347.05 661.48 338.37 661.04 338.21 C 660.60 338.05 653.21 346.77 644.62 357.59 L 629.00 377.26 L 629.00 413.63 L 629.00 450.00 L 660.50 450.00 L 692.00 450.00 L 691.99 413.25 Z" stroke-linecap="round"/>
</g>
</g>
</g>

  </svg>