<svg xmlns="http://www.w3.org/2000/svg" xmlns:xlink="http://www.w3.org/1999/xlink" width="3467px" height="3184px" viewBox="0 0 3466.666666666666 3183.765261345897">
    <g id="e2a221fc-9c95-4be9-9292-44b97fe78ec0">
<g style="">
		<g id="e2a221fc-9c95-4be9-9292-44b97fe78ec0-child-0">
<path style="stroke: rgb(193,193,193); stroke-width: 0; stroke-dasharray: none; stroke-linecap: butt; stroke-dashoffset: 0; stroke-linejoin: miter; stroke-miterlimit: 4; fill: rgb(0,0,0); fill-rule: nonzero; opacity: 1;" transform="matrix(5.521077 0 0 5.521077 1733.333396 1591.882687) matrix(1 0 0 1 0 0)  translate(-511.965862, -512.32499)" d="M 251.00 800.00 C 226.57 797.48 206.18 779.66 199.98 755.40 C 198.05 747.88 198.00 743.81 198.02 595.59 C 198.03 468.44 198.27 442.41 199.45 436.84 C 201.11 429.00 205.57 419.58 211.10 412.26 C 215.09 406.97 227.46 397.43 231.70 396.36 L 234.00 395.78 L 234.01 352.64 C 234.01 327.75 234.45 306.75 235.05 303.00 C 238.54 281.11 254.44 266.17 277.36 263.24 L 283.15 262.50 L 285.15 256.55 C 290.26 241.42 302.99 229.58 318.53 225.53 C 323.72 224.18 346.65 224.00 511.50 224.00 C 715.49 224.00 703.49 223.67 715.21 229.61 C 721.02 232.55 730.94 241.55 734.22 246.85 C 735.41 248.78 737.36 253.07 738.57 256.39 L 740.75 262.44 L 748.92 263.60 C 768.19 266.36 783.80 280.16 787.94 298.11 C 788.54 300.72 788.96 321.19 788.98 348.50 L 789.02 394.50 L 795.69 398.00 C 804.83 402.80 814.81 412.90 819.33 421.93 C 826.47 436.20 826.09 426.04 825.78 598.50 L 825.50 753.50 L 822.92 760.12 C 815.62 778.87 803.47 790.84 785.04 797.44 L 776.50 800.50 L 517.50 800.64 C 375.05 800.72 255.12 800.43 251.00 800.00 Z M 780.18 772.34 C 786.53 769.40 793.65 762.62 796.71 756.59 C 800.63 748.84 801.17 736.06 800.76 660.50 L 800.40 592.50 L 512.17 592.25 L 223.95 592.00 L 224.23 671.75 L 224.50 751.50 L 226.79 755.80 C 229.70 761.24 235.19 767.33 239.67 770.11 C 247.79 775.12 233.65 774.89 513.50 774.69 L 775.50 774.50 L 780.18 772.34 Z M 799.78 503.25 L 799.50 439.50 L 797.08 434.58 C 793.84 428.01 788.03 422.37 781.15 419.15 L 775.50 416.50 L 511.50 416.50 L 247.50 416.50 L 242.71 418.88 C 236.36 422.03 229.98 428.37 226.95 434.52 L 224.50 439.50 L 224.23 503.25 L 223.96 567.00 L 512.01 567.00 L 800.06 567.00 L 799.78 503.25 Z M 282.00 339.37 L 282.00 288.74 L 277.48 289.25 C 271.20 289.96 265.74 293.85 262.87 299.68 C 260.50 304.49 260.50 304.57 260.21 347.25 L 259.92 390.00 L 270.96 390.00 L 282.00 390.00 L 282.00 339.37 Z M 329.00 349.09 C 329.00 312.31 329.18 307.59 330.82 302.34 C 335.46 287.49 347.67 276.34 362.80 273.13 C 370.31 271.53 653.69 271.53 661.20 273.12 C 672.37 275.49 683.99 284.05 689.30 293.81 C 693.81 302.09 695.00 308.88 695.00 326.21 L 695.00 342.00 L 705.55 342.00 L 716.09 342.00 L 715.80 304.72 L 715.50 267.44 L 712.95 262.48 C 710.07 256.89 703.79 251.59 698.22 250.05 C 692.82 248.55 331.47 248.60 325.50 250.10 C 319.68 251.57 313.27 257.22 310.37 263.44 L 308.02 268.50 L 308.01 329.25 L 308.00 390.00 L 318.50 390.00 L 329.00 390.00 L 329.00 349.09 Z M 373.02 385.75 C 373.14 365.60 389.54 346.90 410.43 343.08 C 414.49 342.34 456.28 342.00 542.68 342.00 L 669.00 342.00 L 668.98 326.25 C 668.97 311.77 668.79 310.18 666.71 306.52 C 665.45 304.29 662.71 301.55 660.48 300.28 L 656.50 298.02 L 510.92 298.26 L 365.34 298.50 L 361.81 301.19 C 354.55 306.73 354.53 306.83 354.21 350.75 L 353.91 390.00 L 363.46 390.00 L 373.00 390.00 L 373.02 385.75 Z M 715.78 379.25 L 715.50 368.50 L 565.60 368.25 L 415.69 367.99 L 410.45 370.39 C 404.48 373.13 400.20 379.10 399.27 386.00 L 398.74 390.00 L 557.40 390.00 L 716.07 390.00 L 715.78 379.25 Z M 763.49 383.75 C 763.85 380.31 764.00 360.85 763.82 340.50 C 763.51 305.40 763.39 303.29 761.43 299.50 C 758.65 294.13 751.06 289.00 745.89 289.00 L 742.00 289.00 L 742.00 339.50 L 742.00 390.00 L 752.42 390.00 L 762.84 390.00 L 763.49 383.75 Z M 453.50 689.00 C 442.51 685.48 431.19 673.99 427.91 663.01 C 427.34 661.08 426.61 654.44 426.29 648.26 C 425.82 638.98 426.03 636.22 427.48 632.42 C 429.62 626.80 433.73 624.01 439.87 624.00 C 443.61 624.00 444.79 624.56 448.12 627.88 L 452.00 631.76 L 452.00 642.98 C 452.00 656.04 453.26 659.75 458.86 663.23 L 462.50 665.50 L 511.50 665.50 C 565.17 665.50 565.07 665.51 569.28 659.62 C 571.21 656.90 571.56 654.85 572.00 643.77 C 572.50 631.09 572.51 631.03 575.66 627.88 C 579.84 623.69 586.86 622.86 591.81 625.97 C 597.15 629.32 598.28 633.49 597.83 648.10 C 597.45 660.29 597.30 661.00 593.73 668.23 C 589.27 677.26 583.45 682.94 574.18 687.34 L 567.50 690.50 L 513.50 690.71 C 462.66 690.91 459.15 690.81 453.50 689.00 Z M 468.00 514.11 C 456.75 513.49 454.84 513.10 448.91 510.24 C 440.72 506.28 433.94 499.23 429.79 490.36 C 427.04 484.48 426.65 482.50 426.22 471.98 C 425.78 461.42 425.96 459.72 427.85 455.82 C 430.40 450.55 434.37 448.00 440.02 448.00 C 443.58 448.00 444.84 448.60 448.12 451.88 L 452.00 455.76 L 452.00 466.07 C 452.00 479.05 453.91 483.81 460.38 486.94 C 464.49 488.93 466.21 489.00 512.00 489.00 C 557.79 489.00 559.51 488.93 563.62 486.94 C 570.03 483.84 572.00 479.02 572.01 466.43 C 572.01 458.30 572.36 455.97 573.95 453.57 C 576.57 449.59 579.63 448.08 585.12 448.04 C 590.56 447.99 594.52 450.61 596.62 455.64 C 598.41 459.91 598.42 476.84 596.64 483.50 C 592.85 497.68 582.64 508.59 569.47 512.56 C 564.24 514.13 489.32 515.28 468.00 514.11 Z" stroke-linecap="round"/>
</g>
</g>
</g>

  </svg>