<svg xmlns="http://www.w3.org/2000/svg" xmlns:xlink="http://www.w3.org/1999/xlink" width="436px" height="500px" viewBox="0 0 435.81931813257825 500">
    <g id="55d4d473-810f-4cac-9e13-5293874dcd85">
<g style="">
		<g id="55d4d473-810f-4cac-9e13-5293874dcd85-child-0">
<path style="stroke: rgb(193,193,193); stroke-width: 0; stroke-dasharray: none; stroke-linecap: butt; stroke-dashoffset: 0; stroke-linejoin: miter; stroke-miterlimit: 4; fill: rgb(0,0,0); fill-rule: nonzero; opacity: 1;" transform="matrix(0.753744 0 0 0.753744 217.909747 250.0001) matrix(1 0 0 1 0 0)  translate(-511.966874, -511.677732)" d="M 484.00 842.87 C 398.57 839.95 329.32 824.06 291.08 798.60 C 279.59 790.95 271.81 782.89 267.84 774.50 L 265.00 768.50 L 265.00 742.22 C 265.00 722.28 265.33 715.15 266.36 712.67 C 267.63 709.63 271.33 705.91 275.50 703.46 C 277.08 702.54 276.02 700.40 265.29 682.96 C 252.94 662.90 249.54 658.70 239.46 651.00 C 232.52 645.69 226.54 637.57 224.48 630.62 C 222.32 623.35 222.33 562.60 224.48 555.43 C 227.95 543.91 240.59 532.81 262.50 522.05 C 284.21 511.39 304.52 504.92 336.50 498.48 C 345.30 496.70 352.41 494.82 352.31 494.29 C 352.20 493.77 351.63 487.83 351.05 481.09 C 348.05 446.55 359.33 402.30 382.18 359.00 C 395.66 333.46 414.44 302.53 418.03 299.98 C 424.45 295.40 433.06 296.60 437.73 302.71 C 440.80 306.74 440.84 307.46 439.26 331.00 C 438.72 338.98 438.50 347.23 438.76 349.35 L 439.24 353.19 L 444.87 342.57 C 451.36 330.32 459.30 318.89 471.64 304.00 C 491.35 280.22 498.59 265.01 500.47 243.44 C 501.37 233.17 499.22 220.18 494.55 207.67 C 489.64 194.50 489.55 193.82 491.83 188.65 C 494.10 183.51 499.57 180.00 505.30 180.00 C 514.83 180.00 538.44 197.72 553.10 215.87 C 561.45 226.21 571.08 244.89 574.04 256.50 C 579.41 277.57 578.95 296.89 572.41 325.00 C 564.08 360.81 563.83 362.19 563.68 374.00 C 563.51 388.10 565.26 394.15 571.36 400.51 C 578.20 407.63 585.18 407.82 591.93 401.07 C 598.43 394.57 602.81 383.47 604.58 369.00 C 605.14 364.47 605.90 362.87 608.93 359.84 C 616.91 351.85 624.13 353.77 635.71 366.95 C 657.15 391.32 669.22 419.12 673.08 453.00 C 674.13 462.24 674.04 471.07 672.68 492.35 L 672.50 495.20 L 688.74 498.52 C 714.30 503.76 736.15 510.46 756.93 519.44 C 777.25 528.21 793.43 540.89 798.38 551.91 L 801.07 557.91 L 800.79 594.20 L 800.50 630.50 L 798.04 635.32 C 794.48 642.29 789.59 647.59 780.72 654.09 C 773.29 659.53 772.36 660.67 762.33 676.66 C 756.51 685.92 750.48 695.52 748.92 698.00 L 746.09 702.49 L 748.80 703.87 C 752.93 705.97 756.11 709.16 757.63 712.72 C 759.31 716.66 759.59 764.34 757.97 770.18 C 756.27 776.29 749.12 785.86 741.60 792.07 C 699.55 826.82 598.37 846.78 484.00 842.87 Z M 563.00 815.93 C 612.20 812.66 658.87 803.65 690.35 791.35 C 711.07 783.26 727.57 772.60 731.67 764.67 C 733.55 761.03 734.66 741.73 733.33 735.70 L 732.50 731.91 L 728.85 736.79 C 714.38 756.17 667.79 773.56 608.00 781.90 C 582.90 785.40 559.53 787.07 527.00 787.68 C 411.48 789.88 318.60 768.80 293.97 734.80 L 291.25 731.05 L 290.64 734.77 C 289.83 739.63 289.85 752.05 290.66 759.00 C 291.26 764.14 291.74 764.93 297.91 771.00 C 308.37 781.28 329.41 791.27 357.83 799.45 C 409.10 814.20 490.55 820.74 563.00 815.93 Z M 575.00 759.57 C 608.29 756.21 632.86 752.06 656.00 745.90 C 686.09 737.89 708.00 726.39 708.00 718.61 C 708.00 715.07 709.51 712.23 720.21 695.65 C 725.12 688.04 728.93 681.59 728.66 681.33 C 728.40 681.07 724.45 682.03 719.88 683.48 C 636.02 709.97 496.98 717.46 386.00 701.47 C 356.21 697.18 334.55 692.51 309.14 684.90 C 301.79 682.69 295.60 681.07 295.39 681.28 C 295.17 681.49 299.06 688.08 304.02 695.92 C 314.61 712.66 316.00 715.21 316.00 717.95 C 316.00 721.37 322.63 727.58 330.78 731.81 C 361.05 747.49 408.51 757.19 475.50 761.38 C 490.61 762.32 560.27 761.06 575.00 759.57 Z M 578.00 682.04 C 649.00 676.23 707.16 663.60 743.65 646.05 C 758.02 639.14 765.94 633.96 771.75 627.65 L 776.00 623.04 L 776.00 593.56 L 776.00 564.07 L 772.91 560.55 C 764.11 550.53 742.18 539.83 712.38 531.04 C 699.25 527.16 671.54 521.00 667.23 521.00 C 665.53 521.00 664.27 522.76 661.03 529.68 C 658.79 534.45 657.31 538.65 657.73 539.00 C 658.15 539.35 664.35 540.67 671.50 541.92 C 710.49 548.77 745.90 561.75 759.50 574.18 C 766.38 580.46 768.00 583.87 768.00 592.02 C 768.00 599.15 766.56 602.35 761.21 607.19 C 730.68 634.78 614.23 654.78 496.50 652.66 C 397.25 650.88 319.91 637.94 274.50 615.52 C 267.35 611.99 258.69 606.83 255.25 604.05 L 249.00 599.01 L 249.00 610.85 C 249.00 622.37 249.08 622.81 251.94 626.75 C 261.25 639.62 297.87 656.09 340.00 666.37 C 375.29 674.98 416.41 680.40 469.00 683.37 C 482.20 684.12 564.94 683.11 578.00 682.04 Z M 562.52 626.00 C 596.85 623.86 632.06 619.99 659.00 615.41 C 686.67 610.70 720.95 601.11 734.31 594.34 L 739.36 591.78 L 736.93 589.91 C 732.78 586.71 711.22 578.06 698.57 574.52 C 684.65 570.62 667.18 566.88 651.71 564.49 L 640.91 562.82 L 633.10 570.28 C 613.93 588.60 590.63 600.39 561.36 606.59 C 544.22 610.22 537.93 609.53 533.19 603.52 C 527.75 596.60 530.16 588.24 539.53 581.56 C 554.36 570.97 566.28 543.92 570.51 511.25 L 571.19 506.00 L 567.66 506.00 C 562.38 506.00 550.84 503.36 544.02 500.59 C 534.40 496.68 526.11 491.14 517.47 482.86 L 509.45 475.15 L 505.74 482.35 C 500.79 491.97 493.66 500.10 481.01 510.58 C 468.83 520.66 466.49 523.52 464.32 530.97 C 462.42 537.50 462.99 550.48 465.55 559.00 C 467.52 565.55 472.86 576.48 477.13 582.69 C 481.67 589.29 482.53 593.33 480.51 598.62 C 478.65 603.50 474.64 606.86 469.76 607.65 C 466.25 608.22 454.17 605.45 442.00 601.30 C 424.57 595.35 405.35 583.66 391.48 570.58 L 383.52 563.07 L 373.25 564.51 C 340.38 569.13 305.33 579.17 289.28 588.58 C 284.99 591.09 284.79 591.38 286.52 592.64 C 287.54 593.38 292.99 595.80 298.63 598.00 C 332.68 611.32 385.61 620.71 453.33 625.47 C 475.69 627.03 540.86 627.35 562.52 626.00 Z M 267.69 571.25 C 285.02 559.15 325.89 545.57 359.27 540.84 C 364.09 540.15 367.91 539.29 367.77 538.91 C 364.56 530.67 359.19 521.07 357.77 521.04 C 354.53 520.97 326.54 526.95 313.85 530.42 C 290.10 536.93 270.07 545.58 258.37 554.38 C 250.69 560.15 248.33 563.44 250.16 565.82 C 256.15 573.63 259.34 576.91 260.34 576.29 C 260.98 575.90 264.28 573.63 267.69 571.25 Z M 590.19 569.41 C 615.10 556.81 635.35 531.85 643.41 503.78 C 650.08 480.57 649.32 452.96 641.35 429.00 C 638.71 421.05 630.16 403.11 627.12 399.13 L 625.31 396.76 L 620.99 404.63 C 615.29 415.04 606.29 424.02 597.33 428.27 C 591.10 431.21 589.66 431.50 581.00 431.47 C 572.39 431.45 570.89 431.15 564.93 428.26 C 548.23 420.15 538.36 402.86 537.24 379.75 C 536.55 365.60 538.06 355.27 544.60 329.22 C 552.57 297.53 553.65 283.54 549.46 266.26 C 547.23 257.07 540.17 242.76 534.32 235.57 C 528.44 228.35 526.90 227.58 527.66 232.28 C 528.52 237.58 526.17 256.18 523.42 265.80 C 518.74 282.23 508.56 300.29 494.01 318.00 C 471.31 345.63 463.15 360.50 458.59 382.50 C 455.91 395.47 455.59 407.67 457.52 423.51 C 459.17 437.12 459.18 438.39 457.66 441.58 C 453.61 450.09 441.31 451.53 434.74 444.26 C 429.67 438.66 413.00 377.55 413.00 364.55 C 413.00 362.66 412.60 360.87 412.12 360.57 C 411.00 359.88 396.40 389.12 391.05 402.74 C 374.81 444.07 372.46 480.54 383.99 512.14 C 392.88 536.48 412.11 558.46 434.35 569.67 C 438.12 571.57 441.39 572.94 441.61 572.72 C 441.84 572.50 441.36 570.44 440.55 568.15 C 436.56 556.83 435.56 537.21 438.40 526.00 C 441.95 512.04 448.39 503.32 464.83 490.22 C 475.16 481.99 481.72 473.90 485.11 465.22 C 486.94 460.56 487.46 456.73 487.93 444.50 C 488.33 434.04 488.93 428.85 489.92 427.37 C 493.71 421.66 503.40 420.01 509.12 424.09 C 511.26 425.61 513.57 429.11 516.23 434.89 C 527.00 458.19 541.43 473.04 558.28 478.15 C 564.32 479.99 566.80 480.20 575.98 479.68 C 588.90 478.94 592.19 480.16 595.83 487.07 C 597.97 491.14 598.11 492.31 597.56 501.57 C 596.25 523.57 589.80 551.34 581.61 570.23 L 579.99 573.95 L 582.43 573.03 C 583.78 572.51 587.27 570.89 590.19 569.41 Z" stroke-linecap="round"/>
</g>
</g>
</g>

  </svg>