<svg xmlns="http://www.w3.org/2000/svg" xmlns:xlink="http://www.w3.org/1999/xlink" width="500px" height="472px" viewBox="0 0 499.99999999999994 471.6308187575098">
    <g id="66f3d26b-b0d4-41e3-b17b-1a7deccb601b">
<g style="">
		<g id="66f3d26b-b0d4-41e3-b17b-1a7deccb601b-child-0">
<path style="stroke: rgb(193,193,193); stroke-width: 0; stroke-dasharray: none; stroke-linecap: butt; stroke-dashoffset: 0; stroke-linejoin: miter; stroke-miterlimit: 4; fill: rgb(0,0,0); fill-rule: nonzero; opacity: 1;" transform="matrix(0.740203 0 0 0.740203 249.999957 235.815369) matrix(1 0 0 1 0 0)  translate(-512.254872, -512.082023)" d="M 198.50 830.05 C 189.19 827.72 181.50 821.77 177.18 813.56 C 174.87 809.17 174.52 807.30 174.51 799.50 C 174.50 791.36 174.79 789.98 177.50 785.08 C 181.16 778.47 188.25 772.65 195.41 770.40 L 200.74 768.72 L 201.23 760.11 C 201.89 748.68 204.56 742.51 211.71 735.98 C 214.71 733.24 218.25 730.72 219.58 730.39 L 222.00 729.78 L 222.00 521.00 L 222.00 312.22 L 219.58 311.61 C 215.44 310.57 206.47 301.50 203.92 295.77 C 201.80 291.03 201.53 288.73 201.19 272.79 L 200.81 255.09 L 195.65 253.56 C 188.56 251.47 181.34 245.65 177.60 239.00 C 174.77 233.98 174.50 232.72 174.51 224.50 C 174.52 216.70 174.87 214.83 177.18 210.44 C 180.36 204.39 186.53 198.57 192.88 195.64 L 197.50 193.50 L 512.00 193.50 L 826.50 193.50 L 832.20 196.30 C 843.07 201.64 850.00 212.25 850.00 223.56 C 850.00 232.58 847.34 238.74 840.46 245.67 C 835.55 250.63 833.24 252.17 828.77 253.47 L 823.19 255.09 L 822.81 272.79 C 822.47 288.67 822.19 291.04 820.11 295.71 C 817.58 301.38 810.44 308.75 805.25 311.05 L 802.00 312.49 L 802.00 520.65 L 802.00 728.81 L 807.42 731.87 C 817.09 737.33 821.65 745.71 822.65 759.90 C 823.19 767.52 823.57 769.00 824.99 769.00 C 828.12 769.00 838.85 775.06 841.93 778.57 C 849.75 787.48 852.07 799.54 848.02 810.26 C 845.39 817.23 838.60 824.54 831.50 828.04 L 826.50 830.50 L 514.00 830.65 C 342.12 830.73 200.15 830.46 198.50 830.05 Z M 824.28 806.74 C 829.39 803.39 829.10 796.25 823.72 792.97 C 820.54 791.03 816.91 791.01 511.33 791.00 L 202.15 791.00 L 199.08 793.59 C 194.08 797.79 195.17 804.91 201.19 807.44 C 203.63 808.46 264.79 808.69 512.91 808.61 C 805.95 808.51 821.72 808.41 824.28 806.74 Z M 800.45 764.49 C 801.20 759.50 800.55 756.40 798.23 753.75 C 796.77 752.09 781.89 752.00 512.17 752.00 C 248.83 752.00 227.52 752.12 225.83 753.65 C 224.40 754.95 224.00 756.79 224.00 762.15 L 224.00 769.00 L 511.89 769.00 L 799.77 769.00 L 800.45 764.49 Z M 409.48 720.99 C 409.53 713.77 409.96 711.60 412.33 706.76 C 413.86 703.62 416.88 699.55 419.02 697.71 L 422.93 694.37 L 415.92 687.44 C 397.54 669.23 386.24 643.86 382.93 613.36 C 379.59 582.67 387.59 542.28 403.89 507.49 C 412.67 488.77 417.64 483.10 424.06 484.51 C 429.47 485.70 430.41 488.23 433.40 509.65 C 434.93 520.57 436.36 529.69 436.59 529.92 C 437.18 530.51 437.12 530.62 443.62 518.00 C 446.89 511.67 454.46 498.63 460.46 489.01 C 480.57 456.72 483.86 446.15 485.85 407.24 C 486.62 392.17 486.85 390.79 489.01 388.49 C 490.77 386.61 492.37 386.00 495.50 386.00 C 498.97 386.00 500.85 386.90 506.97 391.48 C 548.11 422.26 580.21 467.95 590.24 510.00 C 594.59 528.21 593.68 527.45 600.49 518.56 C 606.92 510.15 608.41 509.00 612.80 509.00 C 616.95 509.00 620.61 512.28 624.03 519.06 C 642.63 555.91 647.11 604.92 635.32 642.43 C 630.10 659.01 621.77 673.05 609.58 685.79 L 601.65 694.07 L 605.78 698.29 C 611.97 704.61 614.36 710.82 614.38 720.67 L 614.40 728.83 L 618.55 729.17 C 620.84 729.35 640.10 729.35 661.35 729.16 L 700.00 728.82 L 700.00 540.91 L 700.00 353.00 L 512.00 353.00 L 324.00 353.00 L 324.00 540.95 L 324.00 728.89 L 328.75 729.20 C 331.36 729.36 350.58 729.50 371.46 729.50 L 409.42 729.50 L 409.48 720.99 Z M 301.24 534.25 C 301.49 344.85 301.55 339.42 303.40 336.70 C 307.54 330.58 292.29 331.00 512.00 331.00 C 731.30 331.00 716.55 330.60 720.46 336.58 C 722.13 339.13 722.22 349.66 722.07 534.14 L 721.92 729.00 L 750.96 729.00 L 780.00 729.00 L 779.75 521.25 L 779.50 313.50 L 511.75 313.25 L 244.00 313.00 L 244.00 521.00 L 244.00 729.00 L 272.49 729.00 L 300.98 729.00 L 301.24 534.25 Z M 588.46 728.38 C 590.39 727.64 593.00 722.89 593.00 720.13 C 593.00 719.04 591.84 716.77 590.41 715.08 L 587.82 712.00 L 512.49 712.00 C 471.06 712.00 436.44 712.28 435.54 712.62 C 433.44 713.43 431.00 718.19 431.00 721.50 C 431.00 722.92 432.10 725.20 433.45 726.55 L 435.91 729.00 L 511.37 729.00 C 552.88 729.00 587.56 728.72 588.46 728.38 Z M 469.53 683.83 C 455.75 668.49 448.67 647.96 448.73 623.50 C 448.76 612.78 449.23 608.76 451.37 600.57 C 454.62 588.17 461.11 574.71 468.79 564.41 C 481.12 547.88 509.79 523.38 518.08 522.26 C 522.24 521.70 522.27 521.72 530.81 530.60 C 555.60 556.37 569.30 579.19 574.20 602.88 C 576.80 615.42 576.31 636.37 573.14 648.50 C 570.34 659.19 562.14 675.32 555.98 682.23 C 553.24 685.30 551.00 688.09 551.00 688.41 C 551.00 688.73 552.74 689.00 554.86 689.00 C 575.19 689.00 596.78 673.30 608.49 650.00 C 619.12 628.86 622.48 599.23 617.49 570.50 C 615.79 560.68 612.24 546.96 611.08 545.72 C 610.68 545.30 606.60 549.24 602.01 554.49 C 593.34 564.41 586.27 570.00 582.38 570.00 C 581.13 570.00 578.87 568.93 577.34 567.62 C 574.63 565.28 574.55 564.90 573.35 548.25 C 570.65 510.77 560.38 483.35 537.75 453.19 C 531.06 444.27 509.58 421.00 508.03 421.00 C 507.62 421.00 506.98 424.26 506.61 428.23 C 505.76 437.44 502.46 453.68 499.86 461.47 C 496.79 470.69 490.33 482.82 478.55 501.50 C 464.81 523.29 456.46 540.47 449.88 560.49 C 446.59 570.49 443.77 577.32 442.35 578.74 C 439.63 581.46 434.49 581.74 431.09 579.35 C 428.29 577.39 423.57 567.48 418.56 553.05 C 416.56 547.30 414.78 542.45 414.61 542.28 C 414.06 541.72 410.09 555.16 408.06 564.50 C 406.98 569.45 405.64 579.05 405.09 585.84 C 401.69 627.87 415.96 664.02 442.46 680.50 C 452.78 686.91 458.31 688.67 468.84 688.89 L 474.19 689.00 L 469.53 683.83 Z M 500.97 656.25 C 500.49 617.47 500.42 618.38 504.40 614.40 C 509.20 609.60 514.51 609.61 519.76 614.42 L 523.50 617.84 L 523.80 648.92 C 523.97 666.01 524.37 680.00 524.69 680.00 C 526.50 680.00 532.67 675.08 537.40 669.85 C 543.49 663.12 548.98 652.77 551.64 643.00 C 554.11 633.93 554.10 612.02 551.63 603.06 C 547.76 589.06 537.99 572.49 524.00 556.21 L 516.88 547.92 L 512.69 551.21 C 505.02 557.23 491.90 570.35 486.93 576.97 C 480.51 585.52 475.61 595.69 472.94 606.02 C 469.81 618.09 470.48 635.95 474.51 647.85 C 477.67 657.21 482.86 665.86 488.98 671.98 C 493.02 676.02 498.66 679.99 500.38 680.00 C 500.87 680.00 501.13 669.44 500.97 656.25 Z M 797.94 289.06 C 800.62 286.38 801.14 282.51 800.80 268.00 L 800.50 255.50 L 511.75 255.25 L 223.00 255.00 L 223.00 268.93 C 223.00 283.11 223.79 287.51 226.74 289.75 C 228.04 290.74 286.69 291.00 512.19 291.00 C 791.95 291.00 796.03 290.97 797.94 289.06 Z M 825.08 230.08 C 829.85 225.30 828.53 218.70 822.29 216.13 C 820.21 215.27 741.30 215.04 510.16 215.24 L 200.83 215.50 L 198.41 218.31 C 194.90 222.39 195.16 227.12 199.08 230.41 L 202.15 233.00 L 512.15 233.00 L 822.15 233.00 L 825.08 230.08 Z M 266.75 710.92 C 262.11 708.22 262.00 706.96 262.00 657.13 L 262.00 610.15 L 265.08 607.08 C 270.99 601.17 280.67 603.71 283.03 611.80 C 283.76 614.28 284.01 630.45 283.81 660.83 L 283.50 706.17 L 280.23 709.08 C 277.70 711.35 276.03 711.99 272.73 711.97 C 270.41 711.95 267.71 711.48 266.75 710.92 Z M 743.77 709.08 L 740.50 706.16 L 740.50 658.00 L 740.50 609.84 L 743.77 606.92 C 749.32 601.96 757.62 603.30 760.88 609.68 C 761.66 611.20 762.00 626.27 762.00 659.03 L 762.00 706.20 L 758.89 709.10 C 754.52 713.19 748.35 713.18 743.77 709.08 Z M 264.92 583.08 L 262.00 580.15 L 262.00 551.48 C 262.00 526.52 262.22 522.44 263.67 519.99 C 267.07 514.22 274.99 513.23 280.23 517.92 L 283.50 520.84 L 283.50 550.50 L 283.50 580.16 L 280.23 583.08 C 275.60 587.23 269.07 587.23 264.92 583.08 Z M 743.77 583.08 L 740.50 580.17 L 740.19 553.33 C 739.98 535.99 740.26 525.19 740.96 522.80 C 743.73 513.39 756.46 512.03 760.88 520.68 C 761.63 522.14 762.00 532.39 762.00 551.51 L 762.00 580.15 L 759.08 583.08 C 754.93 587.22 748.41 587.23 743.77 583.08 Z M 269.31 496.87 C 267.56 496.38 265.20 494.80 264.06 493.35 C 262.09 490.84 262.00 489.52 262.00 461.62 C 262.01 434.52 262.14 432.28 263.96 429.30 C 266.67 424.85 272.40 423.15 277.12 425.38 C 283.44 428.38 283.47 428.55 283.81 460.19 C 284.07 484.69 283.88 489.33 282.55 491.91 C 280.15 496.55 275.01 498.48 269.31 496.87 Z M 748.44 496.91 C 746.76 496.43 744.29 494.87 742.94 493.44 L 740.50 490.84 L 740.50 460.98 L 740.50 431.13 L 743.36 428.15 C 744.93 426.50 747.34 424.88 748.71 424.54 C 752.19 423.66 757.59 425.66 759.98 428.71 C 761.90 431.15 762.00 432.71 762.00 461.12 L 762.00 490.97 L 759.25 493.89 C 756.10 497.23 752.83 498.14 748.44 496.91 Z M 269.31 406.81 C 267.56 406.35 265.20 404.80 264.06 403.35 C 262.08 400.83 262.00 399.53 262.00 369.77 L 262.00 338.80 L 265.40 335.40 C 269.25 331.55 273.14 330.99 278.13 333.57 C 283.58 336.39 284.00 338.99 284.00 370.00 C 284.00 403.71 283.67 405.18 275.63 406.96 C 273.91 407.34 271.07 407.27 269.31 406.81 Z M 744.13 404.90 C 742.89 403.75 741.46 401.70 740.94 400.34 C 740.42 398.98 740.00 385.25 740.00 369.84 C 740.00 338.96 740.43 336.38 746.09 333.46 C 750.86 330.99 754.80 331.60 758.60 335.40 L 762.00 338.80 L 762.00 369.98 L 762.00 401.15 L 759.08 404.08 C 756.64 406.51 755.34 407.00 751.27 407.00 C 747.68 407.00 745.78 406.44 744.13 404.90 Z" stroke-linecap="round"/>
</g>
</g>
</g>

  </svg>