<svg xmlns="http://www.w3.org/2000/svg" xmlns:xlink="http://www.w3.org/1999/xlink" width="500px" height="496px" viewBox="0 0 499.9999999999998 495.55815381340335">
    <g id="1c4d3069-16a3-4406-8178-e08e108a7d6e">
<g style="">
		<g id="1c4d3069-16a3-4406-8178-e08e108a7d6e-child-0">
<path style="stroke: rgb(193,193,193); stroke-width: 0; stroke-dasharray: none; stroke-linecap: butt; stroke-dashoffset: 0; stroke-linejoin: miter; stroke-miterlimit: 4; fill: rgb(0,0,0); fill-rule: nonzero; opacity: 1;" transform="matrix(0.867603 0 0 0.867603 250.000102 247.779178) matrix(1 0 0 1 0 0)  translate(-512.150342, -512.062067)" d="M 235.00 797.14 C 229.97 795.86 226.00 791.49 226.00 787.23 C 226.00 783.97 228.60 779.30 231.26 777.78 C 233.01 776.78 251.52 776.39 315.80 776.00 L 398.11 775.50 L 382.76 767.78 C 328.21 740.32 281.97 694.77 255.05 642.00 C 233.77 600.28 224.00 559.56 224.00 512.64 C 224.00 465.08 236.26 417.63 259.18 376.50 C 318.92 269.27 433.02 212.43 554.32 229.45 C 671.06 245.84 767.90 336.23 794.04 453.20 C 804.16 498.50 801.93 550.86 787.94 596.19 C 778.00 628.39 759.37 663.29 737.67 690.31 C 711.77 722.57 674.55 751.85 635.51 770.68 L 625.53 775.50 L 708.85 776.00 L 792.16 776.50 L 795.08 779.77 C 799.57 784.79 798.68 791.94 793.10 795.74 C 790.63 797.41 776.40 797.51 514.00 797.64 C 361.92 797.71 236.38 797.48 235.00 797.14 Z M 539.58 774.94 C 552.38 773.70 575.77 769.18 588.39 765.51 C 630.21 753.36 671.03 729.07 702.58 697.56 C 738.95 661.24 763.87 614.96 773.96 565.00 C 783.71 516.72 779.65 465.91 762.49 421.50 C 747.54 382.81 727.09 351.85 697.38 322.94 C 675.96 302.10 656.08 288.06 629.50 275.01 C 610.46 265.67 598.05 260.98 580.50 256.51 C 555.92 250.24 538.05 248.02 511.99 248.01 C 464.92 247.99 426.04 257.69 384.50 279.82 C 348.96 298.75 312.53 332.48 288.81 368.41 C 246.16 433.02 233.91 511.61 255.01 585.21 C 277.82 664.80 341.01 731.67 420.68 760.55 C 440.99 767.91 463.02 772.96 483.47 774.95 C 495.69 776.13 527.31 776.13 539.58 774.94 Z M 407.07 715.95 C 386.07 710.44 362.82 693.47 349.94 674.21 C 344.50 666.09 340.58 655.07 339.52 645.00 C 338.22 632.54 343.24 617.69 352.17 607.54 C 355.32 603.97 393.86 574.25 437.68 541.60 L 445.87 535.50 L 436.68 534.86 C 431.63 534.51 405.67 534.17 379.00 534.10 C 326.58 533.97 325.42 533.86 314.13 528.39 C 306.47 524.67 295.25 513.31 291.24 505.21 C 286.23 495.11 284.66 485.97 285.28 470.63 C 285.94 454.57 288.86 443.01 295.94 428.50 C 305.97 407.93 318.27 396.09 334.43 391.46 C 338.93 390.16 342.79 389.87 350.43 390.23 C 365.26 390.94 367.29 391.92 408.00 418.03 C 450.90 445.54 471.19 458.14 471.73 457.61 C 472.06 457.27 471.79 455.31 471.13 453.25 C 465.56 435.90 442.50 358.11 441.42 353.00 C 439.50 343.99 439.66 336.64 441.98 327.60 C 446.40 310.29 456.59 298.13 473.47 289.98 C 478.99 287.32 487.10 284.34 491.50 283.35 C 501.94 281.00 521.58 281.00 531.88 283.35 C 564.42 290.76 583.97 312.59 583.97 341.50 C 583.97 351.01 583.20 353.91 566.01 409.62 C 557.75 436.41 551.15 458.48 551.35 458.68 C 551.55 458.88 562.01 452.45 574.60 444.40 C 628.82 409.73 651.68 395.58 657.40 393.12 C 662.90 390.76 664.72 390.51 676.00 390.52 C 686.57 390.54 689.35 390.88 694.00 392.76 C 719.44 403.02 739.56 439.35 739.27 474.50 C 739.16 487.03 736.75 497.98 732.27 506.28 C 727.95 514.29 718.98 523.24 711.16 527.35 C 698.48 534.01 698.97 533.96 635.35 534.02 C 603.81 534.04 578.01 534.39 578.02 534.78 C 578.03 535.18 579.88 536.80 582.12 538.38 C 601.03 551.77 667.62 603.28 671.81 607.76 C 687.90 625.00 689.01 648.70 674.85 672.76 C 669.98 681.04 654.08 696.75 643.83 703.40 C 628.26 713.50 615.06 718.00 601.00 718.00 C 590.96 718.00 582.86 716.11 575.08 711.96 C 562.40 705.19 554.78 695.78 548.18 678.75 C 544.05 668.11 533.66 640.96 520.51 606.50 C 516.31 595.50 512.55 586.16 512.14 585.76 C 511.74 585.35 503.40 606.27 493.61 632.26 C 483.83 658.24 474.03 683.25 471.84 687.84 C 464.77 702.65 450.89 713.66 435.20 716.90 C 427.29 718.54 415.44 718.14 407.07 715.95 Z M 435.22 694.39 C 440.91 692.54 449.32 685.26 452.13 679.74 C 453.25 677.55 462.46 653.88 472.60 627.13 C 482.74 600.38 491.47 577.47 492.02 576.20 C 493.75 572.16 493.15 571.38 485.39 567.54 C 480.35 565.05 475.28 561.41 470.43 556.80 C 465.60 552.22 462.64 550.09 461.79 550.59 C 459.53 551.94 417.38 583.63 392.00 603.09 C 377.95 613.86 366.62 623.28 365.44 625.18 C 360.99 632.37 359.64 638.80 361.03 646.25 C 364.10 662.72 380.00 680.12 401.50 690.54 C 415.09 697.13 423.74 698.12 435.22 694.39 Z M 616.57 693.51 C 630.67 688.20 647.35 675.41 655.38 663.73 C 665.11 649.59 665.71 633.63 656.88 623.60 C 653.35 619.59 635.16 605.43 582.52 565.71 L 560.54 549.12 L 555.78 554.45 C 550.42 560.47 542.63 565.98 535.39 568.88 C 532.45 570.06 530.63 571.37 530.83 572.17 C 531.88 576.43 569.79 675.67 571.99 679.94 C 575.64 686.99 584.74 693.71 593.73 695.97 C 599.46 697.42 608.90 696.40 616.57 693.51 Z M 523.76 550.15 C 546.86 542.96 557.69 516.22 546.21 494.74 C 542.81 488.36 534.30 480.50 527.25 477.21 C 522.29 474.89 520.20 474.52 512.00 474.51 C 503.39 474.50 501.87 474.80 495.80 477.67 C 487.27 481.71 480.71 488.27 476.67 496.80 C 473.80 502.86 473.50 504.40 473.50 513.00 C 473.50 521.60 473.80 523.14 476.67 529.20 C 485.23 547.25 504.92 556.02 523.76 550.15 Z M 452.17 505.76 C 452.96 497.76 454.95 491.47 459.03 484.06 C 460.68 481.07 461.68 478.32 461.26 477.94 C 458.75 475.65 362.07 414.64 358.65 413.17 C 353.38 410.91 344.73 410.60 339.13 412.46 C 328.25 416.07 316.81 430.45 311.01 447.80 C 300.31 479.78 308.00 505.70 329.95 511.64 C 333.35 512.56 349.30 512.83 393.00 512.69 L 451.50 512.50 L 452.17 505.76 Z M 698.12 510.36 C 712.32 503.80 719.04 489.99 717.70 470.18 C 715.96 444.59 703.00 420.76 686.90 413.53 C 681.41 411.07 679.86 410.81 673.92 411.30 C 670.19 411.62 665.42 412.77 663.24 413.88 C 659.34 415.87 614.11 444.50 579.71 466.75 C 569.93 473.08 562.07 478.54 562.26 478.88 C 568.39 490.00 572.00 501.19 572.00 509.09 L 572.00 513.07 L 632.75 512.79 C 692.39 512.51 693.58 512.46 698.12 510.36 Z M 504.17 452.91 C 510.68 451.90 523.52 452.73 528.04 454.46 C 529.18 454.89 530.77 450.90 535.26 436.26 C 538.43 425.94 545.78 402.20 551.60 383.50 C 561.22 352.57 562.18 348.77 562.24 341.46 C 562.35 327.11 555.83 316.98 541.98 309.99 C 519.44 298.61 488.45 301.41 472.32 316.27 C 464.12 323.84 460.36 335.01 462.17 346.51 C 462.63 349.48 468.61 370.50 475.44 393.21 C 493.48 453.17 494.14 455.16 495.79 454.53 C 496.56 454.23 500.33 453.50 504.17 452.91 Z" stroke-linecap="round"/>
</g>
</g>
</g>

  </svg>