<svg xmlns="http://www.w3.org/2000/svg" xmlns:xlink="http://www.w3.org/1999/xlink" width="3048px" height="2137px" viewBox="0 0 3047.982792283106 2137.0314171571936">
    <g id="40fa7d00-7b36-48b9-ba61-f32ddc61a311">
<g style="">
		<g id="40fa7d00-7b36-48b9-ba61-f32ddc61a311-child-0">
<path style="stroke: rgb(193,193,193); stroke-width: 0; stroke-dasharray: none; stroke-linecap: butt; stroke-dashoffset: 0; stroke-linejoin: miter; stroke-miterlimit: 4; fill: rgb(0,0,0); fill-rule: nonzero; opacity: 1;" transform="matrix(4.952546 0 0 4.952546 1523.991433 1068.515735) matrix(1 0 0 1 0 0)  translate(-512.218784, -512.198286)" d="M 236.00 726.40 C 224.04 723.20 213.30 713.97 207.60 702.00 C 204.69 695.90 204.50 694.79 204.50 684.00 C 204.50 673.19 204.69 672.11 207.61 666.00 C 212.26 656.28 217.73 650.72 227.33 645.97 C 233.76 642.79 237.06 641.79 242.80 641.31 C 248.68 640.82 249.99 640.41 249.53 639.22 C 247.60 634.18 246.81 627.92 247.21 620.90 C 247.61 614.02 248.25 611.75 251.65 605.10 L 255.62 597.32 L 250.89 592.18 C 234.47 574.32 236.10 547.40 254.60 531.12 C 263.67 523.14 273.67 520.00 290.05 520.00 L 300.00 520.00 L 300.00 426.09 C 300.00 336.73 300.09 331.88 301.89 326.09 C 305.61 314.17 313.08 305.57 324.07 300.59 C 332.10 296.96 340.68 295.68 348.25 297.00 C 369.28 300.65 384.00 318.57 384.00 340.53 L 384.00 344.78 L 389.15 343.27 C 397.07 340.95 408.96 341.92 416.50 345.51 C 431.25 352.53 441.00 368.70 441.00 386.13 L 441.00 391.16 L 444.25 390.33 C 446.04 389.87 451.10 389.50 455.50 389.50 C 459.90 389.50 464.96 389.87 466.75 390.33 L 470.00 391.16 L 470.00 362.79 C 470.00 331.95 470.61 327.17 475.70 317.81 C 477.15 315.15 480.73 310.71 483.66 307.94 C 504.39 288.33 537.33 294.63 550.15 320.64 L 553.50 327.45 L 553.80 359.33 L 554.10 391.21 L 556.30 390.52 C 561.61 388.88 573.85 388.76 578.41 390.32 L 583.00 391.88 L 583.00 385.65 C 583.00 368.21 592.23 352.82 606.93 345.78 C 616.43 341.23 628.99 340.71 638.25 344.50 C 639.76 345.12 640.00 344.61 640.00 340.74 C 640.00 318.44 654.76 300.55 676.11 296.96 C 691.37 294.39 707.96 301.70 716.77 314.89 C 724.20 326.01 724.00 322.96 724.00 427.45 L 724.00 520.00 L 734.79 520.00 C 752.18 520.00 762.14 523.57 771.95 533.33 C 781.62 542.95 786.22 556.93 784.03 569.99 C 782.59 578.54 777.98 587.86 772.45 593.39 L 767.99 597.85 L 770.96 602.68 C 777.33 613.01 778.52 625.65 774.40 639.25 C 773.95 640.73 774.54 641.00 778.22 641.00 C 784.65 641.00 793.78 643.65 799.86 647.29 C 806.85 651.47 812.53 657.92 816.35 666.00 C 818.90 671.40 819.49 674.03 819.82 681.53 C 820.16 689.24 819.85 691.62 817.72 697.74 C 813.01 711.31 802.27 721.98 789.30 725.99 C 782.84 727.98 780.54 728.00 512.14 727.93 C 277.20 727.88 240.77 727.67 236.00 726.40 Z M 783.47 698.72 C 794.52 692.46 795.13 678.34 784.68 670.59 L 781.85 668.50 L 514.30 668.24 C 334.85 668.07 245.51 668.32 242.97 669.01 C 232.12 671.93 227.58 685.59 234.66 694.01 C 236.08 695.70 238.88 697.94 240.87 698.99 C 244.42 700.87 250.29 700.91 512.00 700.94 L 779.50 700.97 L 783.47 698.72 Z M 739.60 639.09 C 749.62 634.54 752.36 622.34 745.26 613.90 C 739.94 607.57 757.06 608.00 510.68 608.00 L 285.30 608.00 L 281.92 610.27 C 272.20 616.82 271.21 628.18 279.66 636.19 C 281.22 637.67 283.62 639.33 285.00 639.88 C 286.63 640.53 365.52 640.89 511.50 640.91 C 727.86 640.95 735.64 640.89 739.60 639.09 Z M 748.00 578.45 C 758.44 572.31 759.44 557.73 749.88 550.91 L 746.50 548.50 L 511.82 548.50 L 277.15 548.50 L 274.39 550.56 C 262.63 559.34 265.79 575.70 280.04 579.84 C 282.32 580.50 361.89 580.79 514.00 580.67 L 744.50 580.50 L 748.00 578.45 Z M 356.84 427.72 C 356.46 338.07 356.39 335.35 354.47 332.08 C 348.69 322.19 336.48 321.60 330.27 330.90 L 328.00 334.30 L 328.00 427.15 L 328.00 520.00 L 342.62 520.00 L 357.24 520.00 L 356.84 427.72 Z M 412.77 449.57 C 412.50 380.21 412.47 379.10 410.44 376.38 C 403.56 367.18 393.44 367.18 386.56 376.38 C 384.53 379.10 384.50 380.21 384.23 449.57 L 383.96 520.00 L 398.50 520.00 L 413.04 520.00 L 412.77 449.57 Z M 470.00 473.95 C 470.00 423.50 470.15 424.83 463.96 419.62 C 460.04 416.32 452.19 415.98 447.42 418.89 C 441.01 422.79 441.00 422.88 441.00 473.90 L 441.00 520.00 L 455.50 520.00 L 470.00 520.00 L 470.00 473.95 Z M 526.43 436.25 C 526.35 390.19 526.22 348.06 526.14 342.63 L 526.00 332.76 L 522.25 329.01 C 517.24 324.01 511.76 322.97 505.73 325.89 C 503.37 327.03 500.57 329.42 499.48 331.23 C 497.55 334.41 497.49 336.89 497.19 424.00 C 497.02 473.23 497.15 514.96 497.48 516.75 L 498.09 520.00 L 512.33 520.00 L 526.57 520.00 L 526.43 436.25 Z M 583.00 473.75 C 582.99 429.36 582.91 427.37 581.01 424.24 C 575.30 414.88 561.91 414.75 556.53 424.00 C 554.58 427.36 554.49 429.34 554.21 473.75 L 553.92 520.00 L 568.46 520.00 L 583.00 520.00 L 583.00 473.75 Z M 639.78 450.25 C 639.51 382.53 639.44 380.40 637.50 377.18 C 631.84 367.78 618.44 367.30 612.96 376.30 C 611.07 379.39 611.01 381.84 611.00 449.75 L 611.00 520.00 L 625.53 520.00 L 640.05 520.00 L 639.78 450.25 Z M 696.76 427.05 C 696.47 334.80 696.45 334.08 694.39 331.30 C 687.44 321.92 675.46 321.70 669.77 330.86 L 667.50 334.50 L 667.23 427.25 L 666.96 520.00 L 682.01 520.00 L 697.06 520.00 L 696.76 427.05 Z" stroke-linecap="round"/>
</g>
</g>
</g>

  </svg>