<svg xmlns="http://www.w3.org/2000/svg" xmlns:xlink="http://www.w3.org/1999/xlink" width="483px" height="500px" viewBox="0 0 482.7876514325426 499.99999999999994">
    <g id="3d8a49c0-d24f-4d5a-bb8f-5b2a2131ae4d">
<g style="">
		<g id="3d8a49c0-d24f-4d5a-bb8f-5b2a2131ae4d-child-0">
<path style="stroke: rgb(193,193,193); stroke-width: 0; stroke-dasharray: none; stroke-linecap: butt; stroke-dashoffset: 0; stroke-linejoin: miter; stroke-miterlimit: 4; fill: rgb(0,0,0); fill-rule: nonzero; opacity: 1;" transform="matrix(1.072861 0 0 1.072861 241.393725 249.999896) matrix(1 0 0 1 0 0)  translate(-512, -512.031189)" d="M 290.00 743.71 L 287.50 742.44 L 287.24 690.85 C 286.96 634.48 286.73 636.75 292.68 636.75 C 298.02 636.75 298.00 636.56 298.00 687.19 L 298.00 734.00 L 335.48 734.00 L 372.95 734.00 L 374.55 736.43 C 376.36 739.20 375.36 742.20 372.04 743.98 C 369.06 745.57 293.20 745.32 290.00 743.71 Z M 408.00 743.71 C 406.41 742.91 405.38 741.44 405.18 739.67 C 404.48 733.64 397.64 734.00 512.00 734.00 C 626.36 734.00 619.52 733.64 618.82 739.67 C 618.62 741.44 617.59 742.91 616.00 743.71 C 614.04 744.70 591.57 744.97 512.00 744.97 C 432.43 744.97 409.96 744.70 408.00 743.71 Z M 651.99 743.69 C 650.40 742.90 649.38 741.44 649.18 739.67 C 648.51 733.91 647.87 734.00 688.62 734.00 L 726.00 734.00 L 726.00 687.00 C 726.00 641.33 726.06 639.94 728.00 638.00 C 729.10 636.90 730.67 636.00 731.50 636.00 C 732.33 636.00 733.90 636.90 735.00 638.00 C 736.95 639.95 737.00 641.33 737.00 690.50 C 737.00 737.97 736.89 741.11 735.18 742.82 C 733.49 744.51 730.60 744.64 693.92 744.78 C 664.38 744.89 653.86 744.61 651.99 743.69 Z M 315.75 715.92 C 314.09 714.95 314.00 704.19 314.00 512.15 C 314.00 355.79 314.27 309.13 315.20 308.20 C 316.13 307.27 361.12 307.00 511.63 307.00 C 687.78 307.00 707.01 307.15 708.43 308.57 C 709.85 309.99 710.00 329.88 710.00 512.54 C 710.00 711.61 709.97 714.95 708.07 715.96 C 705.39 717.40 318.21 717.35 315.75 715.92 Z M 507.00 662.00 L 507.00 618.00 L 480.66 618.00 C 466.17 618.00 448.81 618.30 442.07 618.66 L 429.83 619.32 L 456.91 646.41 C 484.59 674.10 485.97 675.89 482.43 679.43 C 478.92 682.94 477.10 681.54 449.02 653.75 L 421.50 626.50 L 421.23 653.44 C 421.00 676.75 420.75 680.62 419.33 682.19 C 417.19 684.56 414.49 684.49 412.00 682.00 C 410.10 680.10 410.00 678.63 409.96 653.25 L 409.91 626.50 L 370.96 665.85 C 349.53 687.50 332.00 705.38 332.00 705.60 C 332.00 705.82 371.38 706.00 419.50 706.00 L 507.00 706.00 L 507.00 662.00 Z M 692.00 705.53 C 692.00 705.28 674.47 687.39 653.04 665.78 L 614.08 626.50 L 614.04 653.25 C 614.00 678.64 613.90 680.10 612.00 682.00 C 609.59 684.41 608.16 684.50 605.22 682.44 C 603.02 680.90 603.00 680.68 603.00 653.20 L 603.00 625.51 L 575.24 653.26 C 553.46 675.03 546.94 681.00 544.94 681.00 C 541.62 681.00 540.00 679.28 540.00 675.74 C 540.00 673.32 544.26 668.66 567.53 645.63 L 595.05 618.37 L 556.28 618.44 L 517.50 618.50 L 517.18 633.00 C 517.00 640.97 517.16 660.66 517.54 676.75 L 518.23 706.00 L 605.11 706.00 C 652.90 706.00 692.00 705.79 692.00 705.53 Z M 364.50 657.17 L 403.50 617.92 L 375.83 618.15 C 345.79 618.40 345.00 618.27 345.00 613.00 C 345.00 607.75 346.06 607.54 375.16 607.00 L 402.02 606.50 L 374.51 579.01 C 346.32 550.84 344.68 548.72 348.20 545.20 C 351.71 541.69 353.82 543.34 382.24 571.74 L 410.00 599.49 L 410.00 558.74 L 410.00 518.00 L 367.00 518.00 L 324.00 518.00 L 324.01 603.75 C 324.02 674.72 324.39 699.54 325.39 696.74 C 325.45 696.57 343.05 678.76 364.50 657.17 Z M 699.54 519.25 C 699.17 518.28 689.64 518.00 656.53 518.00 L 614.00 518.00 L 614.00 558.74 L 614.00 599.49 L 641.76 571.74 C 661.06 552.45 670.17 544.00 671.69 544.00 C 674.66 544.00 677.17 546.76 676.80 549.62 C 676.61 551.17 667.02 561.49 649.04 579.49 L 621.58 607.00 L 648.07 607.00 C 670.42 607.00 674.90 607.24 676.78 608.56 C 679.27 610.30 679.81 615.08 677.72 616.82 C 676.91 617.49 666.72 618.04 650.20 618.29 C 635.78 618.51 623.76 618.91 623.48 619.18 C 623.21 619.46 640.20 637.15 661.24 658.50 L 699.50 697.32 L 699.76 608.91 C 699.90 560.28 699.80 519.94 699.54 519.25 Z M 507.00 562.50 L 507.00 518.00 L 464.00 518.00 L 421.00 518.00 L 421.00 558.50 C 421.00 580.78 421.15 599.00 421.32 599.00 C 421.50 599.00 433.77 586.83 448.57 571.96 C 463.38 557.09 476.53 544.66 477.79 544.34 C 480.77 543.59 484.00 546.48 484.00 549.90 C 484.01 551.85 481.93 554.50 475.69 560.50 C 471.11 564.90 458.88 577.16 448.51 587.75 L 429.66 607.00 L 468.33 607.00 L 507.00 607.00 L 507.00 562.50 Z M 567.23 579.71 C 543.05 555.47 540.00 552.06 540.00 549.24 C 540.00 545.96 542.11 544.00 545.64 544.00 C 546.63 544.00 559.73 556.28 575.21 571.73 L 603.00 599.45 L 603.00 558.73 L 603.00 518.00 L 560.00 518.00 L 517.00 518.00 L 517.00 562.50 L 517.00 607.00 L 555.73 607.00 L 594.45 607.00 L 567.23 579.71 Z M 410.23 465.78 L 409.96 424.56 L 382.22 452.28 C 361.23 473.26 353.90 480.00 352.07 480.00 C 349.27 480.00 346.00 477.38 346.00 475.14 C 346.00 474.28 358.70 460.85 374.23 445.29 L 402.45 417.00 L 375.95 417.00 C 353.58 417.00 349.10 416.76 347.22 415.44 C 344.59 413.60 344.35 410.38 346.65 407.83 C 348.18 406.14 350.44 406.00 375.74 406.00 L 403.16 406.00 L 364.33 366.51 C 342.97 344.79 325.10 327.01 324.61 327.01 C 324.08 327.00 323.88 364.47 324.11 417.00 L 324.50 507.00 L 367.50 507.00 L 410.50 507.00 L 410.23 465.78 Z M 507.00 462.00 L 507.00 417.00 L 468.27 417.00 L 429.55 417.00 L 457.27 444.79 C 472.52 460.08 485.00 473.35 485.00 474.29 C 485.00 476.72 481.41 480.00 478.75 480.00 C 477.19 480.01 472.64 476.09 463.90 467.25 C 456.98 460.24 444.49 447.78 436.15 439.57 L 421.00 424.64 L 421.00 465.82 L 421.00 507.00 L 464.00 507.00 L 507.00 507.00 L 507.00 462.00 Z M 603.00 465.90 L 603.00 424.79 L 599.25 428.08 C 597.19 429.90 584.81 441.97 571.74 454.91 C 558.66 467.85 547.25 478.84 546.38 479.33 C 544.01 480.65 540.16 478.50 539.39 475.43 C 538.79 473.01 541.08 470.43 566.61 444.89 L 594.49 417.00 L 555.74 417.00 L 517.00 417.00 L 517.00 462.00 L 517.00 507.00 L 560.00 507.00 L 603.00 507.00 L 603.00 465.90 Z M 700.00 416.75 L 700.00 326.51 L 660.49 366.00 L 620.99 405.50 L 648.18 405.77 C 677.62 406.05 679.00 406.32 679.00 411.60 C 679.00 416.61 676.74 417.00 648.05 417.00 L 621.55 417.00 L 649.77 445.29 C 665.30 460.85 678.00 474.03 678.00 474.57 C 678.00 477.15 674.74 480.00 671.79 480.00 C 669.07 480.00 665.47 476.72 641.40 452.25 L 614.09 424.50 L 613.80 465.75 L 613.50 507.00 L 656.75 507.00 L 700.00 507.00 L 700.00 416.75 Z M 507.00 362.00 L 507.00 318.00 L 419.27 318.00 L 331.53 318.00 L 367.02 353.75 C 386.53 373.41 404.19 391.01 406.25 392.87 L 410.00 396.23 L 410.00 370.34 C 410.00 348.52 410.25 344.10 411.56 342.22 C 413.40 339.59 416.62 339.35 419.17 341.65 C 420.86 343.18 421.00 345.44 421.00 370.90 L 421.00 398.49 L 448.76 370.74 C 477.45 342.06 479.60 340.41 482.95 344.44 C 485.96 348.07 483.86 350.72 456.00 378.54 L 428.50 405.99 L 467.75 406.00 L 507.00 406.00 L 507.00 362.00 Z M 594.00 405.24 C 594.00 404.83 581.85 392.34 567.00 377.50 C 545.33 355.84 540.00 349.99 540.00 347.88 C 540.00 346.43 540.56 344.81 541.25 344.28 C 545.44 341.03 545.46 341.04 573.95 369.46 C 589.13 384.61 601.87 397.00 602.27 397.00 C 602.67 397.00 603.00 385.00 603.00 370.33 C 603.00 346.91 603.20 343.43 604.65 341.83 C 605.57 340.82 607.31 340.00 608.53 340.00 C 613.18 340.00 613.47 341.58 614.00 370.16 L 614.50 397.01 L 654.00 357.51 L 693.49 318.00 L 605.25 318.00 L 517.00 318.00 L 517.00 361.33 C 517.00 385.17 517.30 404.97 517.67 405.33 C 518.60 406.26 594.00 406.17 594.00 405.24 Z M 730.00 605.24 C 725.89 603.96 726.00 608.23 726.00 445.81 L 726.00 290.00 L 689.19 290.00 C 648.93 290.00 648.54 289.95 649.16 284.47 C 649.77 279.16 650.81 279.03 694.10 279.01 C 731.19 279.00 733.79 279.12 735.35 280.83 C 736.87 282.51 737.00 295.14 737.00 442.14 C 737.00 568.23 736.74 601.94 735.75 603.17 C 734.22 605.06 732.00 605.86 730.00 605.24 Z M 288.04 603.07 C 287.33 601.76 287.00 549.65 287.00 441.59 L 287.00 282.05 L 289.34 280.51 C 291.42 279.15 309.59 279.01 453.92 279.24 C 613.21 279.50 616.19 279.54 617.58 281.44 C 619.43 283.98 619.38 286.48 617.43 288.43 C 616.01 289.84 600.08 290.00 456.93 290.00 L 298.00 290.00 L 298.00 445.28 C 298.00 584.20 297.84 600.79 296.44 602.78 C 294.45 605.63 289.50 605.80 288.04 603.07 Z" stroke-linecap="round"/>
</g>
</g>
</g>

  </svg>