<svg xmlns="http://www.w3.org/2000/svg" xmlns:xlink="http://www.w3.org/1999/xlink" width="413px" height="500px" viewBox="0 0 413.1985613450874 500">
    <g id="986acdda-277c-4f06-8c09-ad05169c64be">
<g style="">
		<g id="986acdda-277c-4f06-8c09-ad05169c64be-child-0">
<path style="stroke: rgb(193,193,193); stroke-width: 0; stroke-dasharray: none; stroke-linecap: butt; stroke-dashoffset: 0; stroke-linejoin: miter; stroke-miterlimit: 4; fill: rgb(0,0,0); fill-rule: nonzero; opacity: 1;" transform="matrix(0.843229 0 0 0.843229 206.59933 250.00006) matrix(1 0 0 1 0 0)  translate(-512.050879, -511.520562)" d="M 269.92 805.08 C 266.20 801.35 266.08 797.24 269.59 793.08 L 272.18 790.00 L 344.59 790.00 L 417.00 790.00 L 417.00 774.92 L 417.00 759.85 L 419.92 756.92 L 422.85 754.00 L 462.92 754.00 L 503.00 754.00 L 503.00 613.05 L 503.00 472.09 L 499.25 471.52 C 472.91 467.53 451.89 457.53 434.22 440.61 C 417.95 425.01 407.80 407.79 401.75 385.52 C 399.88 378.66 399.56 374.82 399.53 359.00 C 399.50 341.84 399.70 339.79 402.24 330.72 C 403.74 325.33 406.33 317.67 407.99 313.68 C 414.63 297.73 430.22 277.99 444.79 267.08 C 458.13 257.08 478.43 248.58 495.25 245.94 L 503.00 244.73 L 503.00 232.45 L 503.00 220.18 L 506.08 217.59 C 510.24 214.08 514.35 214.20 518.08 217.92 C 520.98 220.83 521.00 220.92 521.00 232.81 L 521.00 244.77 L 526.50 245.46 C 535.58 246.59 549.76 250.79 558.78 255.02 C 592.77 270.95 616.79 301.60 623.57 337.69 C 626.03 350.80 625.15 374.12 621.70 387.21 C 610.40 430.06 573.97 463.50 531.48 470.02 C 527.09 470.69 522.94 471.40 522.25 471.59 C 521.25 471.87 521.04 500.57 521.25 612.72 L 521.50 753.50 L 561.84 754.00 L 602.17 754.50 L 604.59 757.31 C 606.90 760.00 607.00 760.70 607.00 775.06 L 607.00 790.00 L 679.36 790.00 L 751.73 790.00 L 754.36 792.64 C 758.06 796.33 757.95 801.20 754.08 805.08 L 751.15 808.00 L 512.00 808.00 L 272.85 808.00 L 269.92 805.08 Z M 587.83 789.13 C 588.86 788.47 589.00 786.44 588.45 780.14 L 587.74 772.00 L 512.01 772.00 L 436.29 772.00 L 435.72 780.22 C 435.41 784.75 435.37 788.80 435.64 789.22 C 436.29 790.28 586.16 790.19 587.83 789.13 Z M 535.26 450.59 C 553.07 446.07 566.61 438.19 579.57 424.82 C 591.99 412.01 600.27 397.01 604.70 379.36 C 607.15 369.57 607.07 346.07 604.55 336.50 C 600.05 319.38 592.38 305.48 580.79 293.40 C 567.29 279.34 553.19 270.95 535.51 266.49 C 483.37 253.30 432.89 284.37 419.83 337.69 C 417.13 348.73 416.91 367.80 419.35 378.74 C 423.35 396.66 433.01 413.92 446.15 426.61 C 470.31 449.97 503.01 458.77 535.26 450.59 Z M 441.34 380.37 C 436.43 377.99 435.62 374.72 436.31 360.19 C 437.21 341.43 440.90 329.39 449.76 316.36 C 460.82 300.08 473.90 290.35 493.28 283.99 C 505.39 280.01 513.00 282.32 513.00 289.96 C 513.00 295.59 510.68 297.58 500.10 301.00 C 484.46 306.06 473.86 313.67 465.60 325.75 C 458.30 336.43 455.87 344.77 455.09 361.76 C 454.48 375.19 454.30 376.15 451.97 378.39 C 448.65 381.57 445.16 382.23 441.34 380.37 Z" stroke-linecap="round"/>
</g>
</g>
</g>

  </svg>