<svg xmlns="http://www.w3.org/2000/svg" xmlns:xlink="http://www.w3.org/1999/xlink" width="2583px" height="2294px" viewBox="0 0 2583.4749672376493 2294.748639047946">
    <g id="17ef647f-5a8f-4d18-a15f-e22e7af8fdfc">
<g style="">
		<g id="17ef647f-5a8f-4d18-a15f-e22e7af8fdfc-child-0">
<path style="stroke: rgb(193,193,193); stroke-width: 0; stroke-dasharray: none; stroke-linecap: butt; stroke-dashoffset: 0; stroke-linejoin: miter; stroke-miterlimit: 4; fill: rgb(0,0,0); fill-rule: nonzero; opacity: 1;" transform="matrix(5.115792 0 0 5.115792 1291.73748 1147.374316) matrix(1 0 0 1 0 0)  translate(-512, -511.578031)" d="M 343.00 734.57 C 331.38 731.34 321.94 723.33 316.69 712.24 C 313.76 706.04 313.50 704.70 313.52 695.50 C 313.56 677.22 309.02 682.85 386.77 604.88 C 445.48 546.01 454.08 537.01 453.19 535.38 C 452.62 534.35 443.69 525.19 433.33 515.03 C 422.97 504.88 394.67 476.88 370.43 452.81 C 323.46 406.18 322.49 405.03 319.88 392.89 C 318.24 385.22 319.34 377.47 323.44 367.84 C 324.08 366.33 322.25 366.14 303.32 365.74 C 289.89 365.46 281.20 364.84 278.83 364.01 C 272.66 361.83 265.74 355.88 262.50 349.97 L 259.50 344.50 L 259.50 327.00 C 259.50 309.96 259.57 309.37 262.16 304.50 C 265.59 298.07 271.19 292.70 277.50 289.80 L 282.50 287.50 L 507.50 287.32 C 650.94 287.21 734.86 287.50 739.00 288.13 C 749.63 289.74 757.74 295.81 762.20 305.50 C 764.31 310.08 764.50 311.89 764.50 327.07 C 764.50 343.53 764.48 343.68 761.48 349.54 C 759.45 353.52 756.87 356.65 753.58 359.13 C 745.93 364.92 740.37 366.00 718.24 366.00 L 699.11 366.00 L 701.07 370.42 C 705.85 381.24 705.51 392.48 700.06 403.50 C 697.49 408.68 688.37 418.20 633.28 473.23 L 569.48 536.95 L 637.05 604.73 C 715.21 683.12 710.50 677.29 710.50 695.50 C 710.50 705.52 710.25 707.01 707.70 712.19 C 696.96 734.07 670.89 742.27 650.02 730.34 C 647.29 728.77 619.14 701.44 578.75 661.14 L 512.00 594.53 L 444.75 661.66 C 401.87 704.47 376.05 729.52 373.50 730.79 C 363.43 735.80 352.36 737.17 343.00 734.57 Z M 363.00 712.92 C 364.92 711.92 437.44 640.10 524.14 553.31 C 653.20 424.10 681.99 394.80 683.00 391.63 C 684.84 385.86 683.82 378.76 680.52 374.44 C 676.63 369.34 672.74 368.00 661.80 368.00 L 652.53 368.00 L 494.70 525.75 C 407.89 612.51 336.24 684.69 335.46 686.15 C 333.26 690.29 332.65 696.39 334.01 700.65 C 338.11 713.43 351.26 718.99 363.00 712.92 Z M 680.00 713.47 C 689.13 708.73 693.23 697.62 689.39 688.03 C 688.17 684.97 671.94 668.30 621.17 617.98 L 554.56 551.95 L 540.53 566.02 L 526.50 580.09 L 592.33 645.57 C 628.53 681.59 659.26 711.78 660.60 712.66 C 665.77 716.04 674.34 716.40 680.00 713.47 Z M 434.14 430.93 L 370.78 368.00 L 361.04 368.00 C 350.09 368.00 346.63 369.46 342.27 375.92 C 339.76 379.64 339.17 387.61 341.03 392.68 C 341.62 394.29 369.38 422.59 405.78 458.67 L 469.50 521.84 L 483.50 507.84 L 497.50 493.85 L 434.14 430.93 Z M 569.00 422.50 L 625.49 366.00 L 512.00 366.00 L 398.51 366.00 L 455.00 422.50 C 486.07 453.58 511.72 479.00 512.00 479.00 C 512.28 479.00 537.93 453.58 569.00 422.50 Z M 737.20 344.96 C 743.80 343.13 745.00 340.41 745.00 327.32 C 745.00 319.39 744.56 315.06 743.58 313.15 C 740.45 307.10 756.85 307.52 513.65 307.24 C 358.80 307.06 289.59 307.30 286.85 308.04 C 280.48 309.75 279.01 313.23 279.01 326.50 C 279.01 339.29 280.56 343.24 286.21 344.87 C 290.92 346.23 732.32 346.32 737.20 344.96 Z" stroke-linecap="round"/>
</g>
</g>
</g>

  </svg>