<svg xmlns="http://www.w3.org/2000/svg" xmlns:xlink="http://www.w3.org/1999/xlink" width="399px" height="500px" viewBox="0 0 398.602507005457 500">
    <g id="8351dd6d-e977-4a82-86f5-9afc460307ac">
<g style="">
		<g id="8351dd6d-e977-4a82-86f5-9afc460307ac-child-0">
<path style="stroke: rgb(193,193,193); stroke-width: 0; stroke-dasharray: none; stroke-linecap: butt; stroke-dashoffset: 0; stroke-linejoin: miter; stroke-miterlimit: 4; fill: rgb(0,0,0); fill-rule: nonzero; opacity: 1;" transform="matrix(0.854121 0 0 0.854121 199.301273 250.000025) matrix(1 0 0 1 0 0)  translate(-512.619963, -511.227924)" d="M 522.46 802.41 C 516.34 800.23 511.25 795.46 505.42 786.42 C 502.52 781.92 484.52 753.32 465.44 722.87 C 446.36 692.41 429.40 665.54 427.75 663.15 C 424.86 658.94 424.70 658.86 423.02 660.65 C 422.06 661.67 415.51 671.05 408.46 681.50 C 365.38 745.37 361.56 750.26 352.37 753.39 C 346.34 755.44 336.68 755.45 330.68 753.41 C 324.31 751.24 316.72 744.16 313.30 737.20 C 310.93 732.38 310.50 730.26 310.52 723.50 C 310.54 713.74 310.82 713.16 326.85 689.72 C 333.32 680.25 350.00 655.53 363.90 634.79 L 389.18 597.07 L 365.47 557.95 C 352.43 536.44 341.36 517.41 340.86 515.67 C 340.37 513.93 337.25 500.80 333.94 486.50 C 330.62 472.20 325.26 449.48 322.01 436.00 C 318.77 422.52 313.64 401.15 310.62 388.50 C 307.59 375.85 299.19 340.75 291.94 310.50 C 280.33 262.02 278.84 254.82 279.37 249.78 C 280.47 239.21 286.16 230.45 295.14 225.47 C 299.97 222.79 301.39 222.50 309.50 222.50 C 317.61 222.50 319.03 222.79 323.86 225.47 C 329.86 228.79 335.40 234.69 337.20 239.68 C 338.16 242.34 338.95 243.00 341.13 243.00 C 342.64 243.00 370.56 240.52 403.18 237.48 C 435.81 234.45 468.12 231.46 475.00 230.85 C 486.55 229.82 487.73 229.53 490.50 226.94 C 492.15 225.40 495.98 222.88 499.00 221.35 C 503.71 218.97 505.72 218.56 513.00 218.53 C 520.16 218.51 522.40 218.92 527.18 221.16 C 534.32 224.51 540.86 230.49 544.32 236.84 C 546.19 240.28 549.54 252.57 555.43 277.63 C 560.07 297.36 571.77 346.72 581.43 387.32 C 591.10 427.91 599.00 461.79 599.00 462.59 C 599.00 464.95 602.18 465.72 629.50 470.02 C 700.59 481.19 723.44 485.18 727.20 487.10 C 736.38 491.79 743.27 501.28 744.60 511.10 C 745.38 516.77 742.92 525.85 739.16 531.25 C 737.39 533.79 724.17 544.00 699.85 561.61 L 663.20 588.15 L 671.76 601.83 C 701.71 649.67 743.51 718.05 744.61 721.00 C 745.33 722.92 745.93 727.53 745.96 731.24 C 746.04 744.28 739.79 754.52 728.29 760.18 C 722.61 762.98 720.61 763.44 714.57 763.39 C 702.28 763.27 694.38 758.26 686.62 745.66 C 684.19 741.72 671.54 721.17 658.50 700.00 C 621.72 640.29 612.75 625.91 612.48 626.22 C 612.00 626.75 571.37 686.55 557.14 707.66 L 542.88 728.82 L 552.85 744.70 C 563.80 762.16 565.52 766.63 564.63 775.22 C 563.47 786.39 556.89 795.90 546.82 800.93 C 541.62 803.53 539.60 803.99 533.59 803.92 C 529.69 803.88 524.68 803.20 522.46 802.41 Z M 538.17 777.35 C 540.85 774.93 540.42 771.05 536.85 765.45 C 535.13 762.73 523.27 743.85 510.50 723.50 C 497.74 703.15 481.78 677.72 475.03 667.00 C 468.28 656.28 459.94 643.00 456.49 637.50 C 453.04 632.00 449.76 625.83 449.20 623.80 C 448.09 619.72 448.95 614.25 451.26 610.73 C 452.52 608.81 476.15 590.82 505.71 569.27 C 510.77 565.58 513.69 562.85 512.88 562.58 C 512.12 562.33 508.32 561.62 504.44 561.01 L 497.38 559.88 L 482.94 570.58 C 444.69 598.92 449.29 596.00 442.97 596.00 C 436.32 596.00 432.17 593.69 427.67 587.48 C 426.08 585.29 418.53 573.15 410.89 560.51 C 398.46 539.93 397.00 537.04 397.00 532.98 C 397.00 525.70 401.89 521.00 409.47 521.00 C 413.44 521.00 435.16 524.42 501.06 535.43 L 545.62 542.88 L 589.56 536.98 C 685.01 524.16 714.08 520.03 715.97 519.01 C 719.32 517.22 720.37 514.22 718.60 511.51 C 717.75 510.21 716.21 508.88 715.18 508.56 C 714.15 508.23 701.65 509.53 687.40 511.46 C 673.16 513.38 635.54 518.42 603.81 522.66 L 546.13 530.37 L 485.81 520.64 C 452.64 515.29 415.99 509.44 404.37 507.65 C 382.84 504.32 379.49 503.25 376.59 498.74 C 375.80 497.51 370.13 475.35 364.00 449.50 C 357.86 423.65 351.52 397.11 349.92 390.53 C 348.31 383.94 347.00 376.69 347.00 374.41 C 347.00 369.64 349.50 365.83 353.72 364.18 C 356.18 363.22 384.56 360.39 494.16 350.21 C 511.45 348.61 525.05 347.77 526.77 348.22 C 532.53 349.71 534.54 353.07 537.89 366.78 C 550.55 418.52 564.00 477.00 564.00 480.27 C 564.00 483.38 563.31 484.89 560.70 487.50 C 557.82 490.38 556.53 490.88 550.45 491.48 C 527.19 493.77 497.66 497.00 497.38 497.29 C 497.19 497.47 507.93 499.37 521.24 501.50 L 545.43 505.37 L 563.97 503.13 C 591.22 499.83 619.07 496.03 622.50 495.14 C 624.78 494.55 620.89 493.73 606.27 491.72 C 586.49 489.00 582.37 487.77 579.81 483.80 C 579.00 482.54 576.02 471.60 573.20 459.50 C 570.37 447.40 562.40 413.88 555.49 385.00 C 548.57 356.12 538.43 313.65 532.96 290.61 C 527.49 267.57 522.45 248.04 521.76 247.20 C 521.06 246.37 519.06 245.09 517.30 244.35 C 513.37 242.71 510.04 243.76 507.66 247.39 C 504.41 252.35 502.87 252.69 469.00 255.93 C 342.47 268.00 330.58 269.02 327.47 267.99 C 322.95 266.50 319.24 262.16 317.24 256.03 C 315.05 249.30 311.28 246.10 307.56 247.79 C 306.18 248.42 304.80 249.96 304.50 251.22 C 304.18 252.50 308.73 273.59 314.91 299.50 C 320.95 324.80 334.64 382.11 345.33 426.86 L 364.78 508.23 L 387.95 546.62 C 400.68 567.74 411.97 586.93 413.03 589.26 C 415.64 595.01 415.54 601.55 412.75 606.87 C 411.51 609.24 398.35 629.00 383.50 650.80 C 332.28 725.97 334.80 722.07 335.51 724.91 C 336.49 728.81 337.91 730.00 341.57 730.00 C 345.35 730.00 345.20 730.21 384.99 671.50 C 396.18 655.00 407.58 638.21 410.33 634.19 C 415.87 626.09 418.89 624.00 425.05 624.00 C 433.83 624.00 428.68 616.72 495.50 723.50 C 514.09 753.20 529.79 777.83 530.40 778.23 C 532.32 779.51 536.28 779.06 538.17 777.35 Z M 719.43 736.43 C 722.30 733.56 721.25 729.51 715.12 719.81 C 709.69 711.21 645.76 607.40 638.29 595.06 C 634.17 588.25 633.83 582.04 637.29 576.90 C 638.54 575.03 646.40 568.57 654.74 562.54 C 663.09 556.51 669.75 551.42 669.55 551.22 C 669.35 551.01 663.85 551.65 657.34 552.63 C 646.93 554.19 644.98 554.80 641.21 557.67 C 633.59 563.48 624.39 564.35 617.13 559.93 C 614.12 558.10 613.14 558.01 606.34 558.96 C 602.22 559.53 598.69 560.00 598.48 560.00 C 598.27 560.00 598.75 561.56 599.55 563.47 C 601.60 568.38 601.35 572.90 598.75 577.89 C 597.51 580.27 579.82 606.80 559.42 636.86 C 539.03 666.91 522.00 692.09 521.58 692.81 C 521.10 693.63 522.19 696.22 524.46 699.64 L 528.11 705.14 L 531.06 701.08 C 532.68 698.85 542.92 683.85 553.83 667.76 C 564.73 651.67 579.61 629.72 586.89 619.00 C 594.17 608.28 601.88 597.81 604.02 595.75 C 607.37 592.53 608.57 592.00 612.51 592.00 C 615.03 592.00 618.44 592.69 620.08 593.54 C 623.66 595.39 623.10 594.53 665.61 663.75 C 684.10 693.86 701.04 721.42 703.24 725.00 C 710.10 736.11 711.80 738.00 714.98 738.00 C 716.56 738.00 718.56 737.29 719.43 736.43 Z M 532.76 631.50 C 546.48 611.15 561.37 589.14 565.85 582.58 C 570.33 576.03 574.00 569.92 574.00 569.02 C 574.00 568.12 573.44 566.64 572.75 565.73 C 571.59 564.19 570.72 564.18 560.55 565.68 L 549.60 567.29 L 514.44 593.62 C 495.11 608.10 478.73 620.62 478.04 621.45 C 477.00 622.70 479.26 626.85 491.65 646.42 C 499.82 659.33 506.79 669.58 507.15 669.20 C 507.51 668.81 519.04 651.85 532.76 631.50 Z M 453.56 561.25 C 458.17 558.09 461.96 555.24 461.97 554.92 C 461.99 554.60 456.71 553.55 450.25 552.60 C 443.79 551.64 437.46 550.61 436.18 550.30 C 434.08 549.80 434.37 550.59 439.15 558.37 C 442.07 563.12 444.61 567.00 444.81 567.00 C 445.01 567.00 448.95 564.41 453.56 561.25 Z M 444.50 477.03 C 467.60 474.86 496.85 472.14 509.50 470.99 C 540.11 468.21 537.13 469.21 535.30 462.25 C 534.47 459.09 529.38 437.91 523.99 415.18 C 518.61 392.46 514.01 373.67 513.77 373.44 C 513.54 373.21 491.56 375.05 464.92 377.54 C 389.59 384.57 375.72 385.94 375.23 386.44 C 374.98 386.69 376.61 394.68 378.85 404.20 C 381.09 413.71 385.89 434.10 389.50 449.50 C 397.65 484.18 396.61 481.00 399.82 480.99 C 401.29 480.99 421.40 479.21 444.50 477.03 Z M 343.76 349.43 C 339.75 347.26 338.72 344.55 333.55 322.50 C 330.98 311.50 328.22 300.28 327.43 297.57 C 325.32 290.29 325.61 288.18 329.25 284.58 L 332.50 281.36 L 355.50 279.15 C 461.60 268.95 503.95 265.17 506.05 265.70 C 509.77 266.65 512.95 269.00 514.46 271.92 C 516.16 275.20 527.00 321.26 527.00 325.18 C 527.00 328.47 524.61 332.61 521.84 334.09 C 520.81 334.64 506.36 336.40 489.73 338.00 C 417.99 344.92 352.13 351.00 349.42 350.96 C 347.82 350.94 345.27 350.25 343.76 349.43 Z M 430.90 318.92 C 467.53 315.57 497.76 312.54 498.08 312.17 C 498.40 311.80 497.57 306.89 496.24 301.25 C 494.28 292.95 493.48 291.00 492.02 291.00 C 487.94 291.00 355.68 303.98 355.24 304.43 C 354.79 304.88 358.77 322.60 359.70 324.25 C 360.33 325.38 359.47 325.44 430.90 318.92 Z" stroke-linecap="round"/>
</g>
</g>
</g>

  </svg>