<svg xmlns="http://www.w3.org/2000/svg" xmlns:xlink="http://www.w3.org/1999/xlink" width="500px" height="333px" viewBox="0 0 500.0000000000002 333.05652018528735">
    <g id="7ed54245-a95f-48a8-a205-979ea8c9c8fe">
<g style="">
		<g id="7ed54245-a95f-48a8-a205-979ea8c9c8fe-child-0">
<path style="stroke: rgb(193,193,193); stroke-width: 0; stroke-dasharray: none; stroke-linecap: butt; stroke-dashoffset: 0; stroke-linejoin: miter; stroke-miterlimit: 4; fill: rgb(0,0,0); fill-rule: nonzero; opacity: 1;" transform="matrix(0.769349 0 0 0.769349 250.000145 166.528356) matrix(1 0 0 1 0 0)  translate(-511.90851, -512.497958)" d="M 292.18 727.10 C 282.28 723.68 275.67 714.46 275.69 704.10 C 275.70 700.06 279.24 685.56 288.42 652.00 C 295.41 626.42 303.58 596.54 306.57 585.59 C 309.56 574.63 311.74 565.41 311.42 565.09 C 311.10 564.76 307.15 564.26 302.66 563.96 C 287.06 562.92 273.50 553.61 266.71 539.27 L 263.50 532.50 L 262.60 483.25 L 261.70 434.00 L 242.76 434.00 L 223.82 434.00 L 219.51 438.43 C 210.66 447.54 198.24 446.73 190.46 436.54 C 179.73 422.46 195.54 402.97 212.47 409.43 C 216.60 411.01 223.00 416.84 223.00 419.03 C 223.00 419.62 230.99 420.00 243.50 420.00 C 261.42 420.00 264.00 419.80 264.00 418.44 C 264.00 415.40 269.15 406.05 273.48 401.23 C 278.97 395.13 287.50 390.51 296.26 388.90 L 303.00 387.65 L 303.00 360.99 L 303.00 334.33 L 298.92 331.05 C 292.84 326.17 291.01 322.56 291.00 315.45 C 291.00 310.49 291.52 308.57 293.89 304.84 C 302.77 290.84 324.75 294.22 329.07 310.25 C 331.31 318.57 327.69 327.70 320.64 331.49 L 317.00 333.45 L 317.00 360.73 L 317.00 388.00 L 350.50 388.00 L 384.00 388.00 L 384.00 360.50 C 384.00 343.49 383.63 333.00 383.03 333.00 C 381.40 333.00 374.98 326.86 373.38 323.76 C 371.16 319.48 371.44 311.02 373.95 306.10 C 380.44 293.38 399.39 292.66 407.11 304.84 C 409.48 308.57 410.00 310.49 410.00 315.45 C 409.99 322.41 408.14 326.21 402.58 330.64 L 399.00 333.50 L 399.00 360.75 L 399.00 388.00 L 432.00 388.00 L 465.00 388.00 L 464.97 360.75 L 464.94 333.50 L 460.66 330.91 C 452.13 325.74 449.68 313.23 455.55 304.79 C 466.62 288.85 491.63 296.34 491.36 315.50 C 491.32 318.28 490.57 321.94 489.69 323.63 C 488.03 326.84 481.64 333.00 479.97 333.00 C 479.37 333.00 479.00 343.49 479.00 360.50 L 479.00 388.00 L 512.50 388.00 L 546.00 388.00 L 546.00 360.50 C 546.00 343.49 545.63 333.00 545.03 333.00 C 543.46 333.00 537.00 326.91 535.59 324.10 C 530.75 314.45 534.84 302.25 544.38 297.91 C 553.47 293.79 563.97 296.73 569.11 304.84 C 571.48 308.57 572.00 310.49 572.00 315.45 C 571.99 322.41 570.14 326.21 564.58 330.64 L 561.00 333.50 L 561.00 360.75 L 561.00 388.00 L 594.00 388.00 L 627.00 388.00 L 627.00 360.62 L 627.00 333.24 L 623.88 331.95 C 619.75 330.24 615.25 323.86 614.46 318.60 C 611.32 297.64 639.23 287.31 650.38 305.31 C 653.71 310.68 654.25 318.67 651.63 323.74 C 650.02 326.86 643.61 333.00 641.97 333.00 C 641.37 333.00 641.00 343.49 641.00 360.50 L 641.00 388.00 L 674.50 388.00 L 708.00 388.00 L 707.99 365.75 C 707.98 335.75 707.76 334.20 702.92 330.79 C 688.29 320.45 694.92 297.50 712.91 296.20 C 732.26 294.80 741.83 319.83 726.10 330.71 L 722.08 333.50 L 722.04 360.66 L 722.00 387.81 L 727.07 388.51 C 734.41 389.52 744.91 395.12 750.34 400.94 C 754.37 405.24 758.72 412.73 760.40 418.25 C 760.89 419.84 762.76 420.00 780.94 420.00 L 800.95 420.00 L 802.50 417.00 C 806.36 409.53 817.79 406.04 826.21 409.77 C 832.69 412.63 836.28 417.78 836.80 424.93 C 838.11 442.95 817.21 451.61 804.48 438.32 L 800.34 434.00 L 781.17 434.00 L 762.00 434.00 L 761.99 480.25 C 761.98 529.38 761.79 531.64 757.03 540.96 C 753.19 548.47 744.86 556.31 736.73 560.06 C 730.72 562.83 728.02 563.47 720.72 563.82 C 713.20 564.19 712.01 564.48 712.42 565.87 C 713.66 570.08 718.62 588.24 726.51 617.50 C 731.26 635.10 738.31 661.20 742.17 675.50 C 750.00 704.52 750.21 707.16 745.41 715.99 C 741.51 723.15 732.31 728.85 724.50 728.95 C 716.51 729.05 707.72 724.31 703.17 717.45 C 701.56 715.01 699.13 708.67 697.57 702.82 C 694.48 691.22 679.12 634.93 667.39 592.25 L 659.63 563.99 L 512.17 564.25 L 364.71 564.50 L 361.00 578.00 C 358.95 585.42 350.43 616.47 342.07 647.00 C 321.31 722.78 323.70 715.40 318.06 721.03 C 314.59 724.50 311.76 726.29 307.94 727.42 C 301.22 729.42 298.76 729.37 292.18 727.10 Z M 731.75 710.46 C 733.02 709.01 734.00 706.57 734.00 704.87 C 734.00 702.19 703.44 586.08 697.39 565.75 C 696.93 564.22 695.48 564.00 685.93 564.00 C 679.92 564.00 675.00 564.28 675.00 564.63 C 675.00 564.97 678.13 576.56 681.95 590.38 C 692.15 627.24 711.69 698.77 713.03 704.15 C 714.24 709.00 718.03 713.51 721.50 714.21 C 724.78 714.88 729.35 713.21 731.75 710.46 Z M 307.30 711.60 C 308.76 710.25 310.54 706.87 311.38 703.85 C 323.55 660.42 349.00 566.67 349.00 565.32 C 349.00 564.31 346.51 564.00 338.48 564.00 C 328.42 564.00 327.91 564.10 327.08 566.30 C 326.21 568.57 312.47 618.73 301.54 659.50 C 298.44 671.05 294.53 685.56 292.84 691.74 C 289.36 704.52 289.53 708.70 293.67 711.96 C 297.40 714.89 303.93 714.72 307.30 711.60 Z M 731.80 546.94 C 738.29 543.70 741.71 540.32 745.30 533.62 C 747.49 529.52 747.50 529.24 747.50 475.50 L 747.50 421.50 L 744.84 417.00 C 741.52 411.38 737.79 407.85 732.00 404.84 L 727.50 402.50 L 511.50 402.50 L 295.50 402.50 L 291.50 404.66 C 286.11 407.58 281.53 412.53 279.06 418.13 C 277.10 422.57 277.00 424.85 276.76 475.13 C 276.50 526.54 276.54 527.58 278.61 532.05 C 281.77 538.89 286.80 543.99 293.49 547.16 L 299.50 550.00 L 512.59 550.00 L 725.68 550.00 L 731.80 546.94 Z M 394.00 315.07 C 394.00 312.76 391.21 311.58 389.37 313.11 C 387.70 314.50 387.62 316.22 389.15 317.75 C 390.72 319.32 394.00 317.51 394.00 315.07 Z M 313.00 315.61 C 313.00 312.69 310.18 311.39 308.19 313.39 C 306.15 315.42 307.43 318.00 310.47 318.00 C 312.47 318.00 313.00 317.50 313.00 315.61 Z M 474.80 315.38 C 475.13 313.08 472.96 311.70 470.50 312.64 C 468.95 313.23 468.46 316.13 469.71 317.38 C 471.13 318.80 474.50 317.48 474.80 315.38 Z M 555.80 315.38 C 556.19 312.68 553.19 311.38 551.19 313.39 C 549.15 315.42 550.45 318.22 553.25 317.82 C 554.65 317.62 555.61 316.70 555.80 315.38 Z M 636.67 316.42 C 637.47 314.33 634.80 311.76 632.68 312.57 C 631.75 312.92 631.00 314.29 631.00 315.61 C 631.00 317.50 631.53 318.00 633.53 318.00 C 634.92 318.00 636.34 317.29 636.67 316.42 Z M 717.00 315.47 C 717.00 312.37 714.40 311.17 712.29 313.29 C 710.17 315.40 711.37 318.00 714.47 318.00 C 716.51 318.00 717.00 317.51 717.00 315.47 Z M 306.50 537.04 C 297.86 535.01 292.05 528.56 291.23 520.09 C 290.56 513.03 292.40 508.63 298.08 503.73 L 303.00 499.50 L 303.00 472.27 L 303.00 445.05 L 300.46 443.38 C 296.69 440.91 293.00 433.98 293.02 429.41 C 293.06 419.99 301.80 412.34 311.32 413.39 C 313.97 413.68 317.65 414.86 319.50 416.00 C 323.23 418.31 327.00 425.08 327.00 429.50 C 327.00 433.74 323.24 440.74 319.91 442.71 L 317.00 444.43 L 317.00 472.00 L 317.00 499.58 L 321.50 503.34 C 328.51 509.20 330.98 515.65 329.01 522.97 C 326.47 532.40 315.62 539.18 306.50 537.04 Z M 312.80 518.38 C 313.13 516.08 310.96 514.70 308.50 515.64 C 306.95 516.23 306.46 519.13 307.71 520.38 C 309.13 521.80 312.50 520.48 312.80 518.38 Z M 388.50 537.55 C 387.95 537.35 386.30 536.91 384.83 536.59 C 375.41 534.52 369.23 520.58 373.35 510.70 C 374.69 507.50 381.18 501.00 383.03 501.00 C 383.63 501.00 384.00 490.24 383.99 472.75 L 383.99 444.50 L 381.06 442.83 C 374.96 439.36 372.31 429.36 375.64 422.34 C 382.68 407.50 406.19 411.55 407.76 427.87 C 408.29 433.36 405.73 439.50 401.53 442.80 L 399.00 444.79 L 399.00 472.68 L 399.00 500.57 L 402.04 502.36 C 413.43 509.10 413.13 527.74 401.51 534.55 C 397.73 536.76 390.70 538.39 388.50 537.55 Z M 393.82 518.25 C 394.22 515.45 391.42 514.15 389.39 516.19 C 387.38 518.19 388.68 521.19 391.38 520.80 C 392.70 520.61 393.62 519.65 393.82 518.25 Z M 466.73 536.70 C 464.65 536.04 461.46 534.30 459.63 532.83 C 450.12 525.19 450.85 509.10 461.02 502.37 L 465.00 499.73 L 465.00 472.49 L 465.00 445.24 L 461.64 442.68 C 457.38 439.43 455.00 434.43 455.00 428.75 C 455.00 422.95 458.17 418.18 463.97 415.25 C 471.72 411.33 478.94 412.75 484.72 419.33 C 490.75 426.21 490.07 435.00 482.99 441.39 L 479.00 444.99 L 479.00 472.33 L 479.00 499.67 L 483.08 502.95 C 488.93 507.65 490.99 511.51 491.00 517.78 C 491.00 524.44 489.19 528.82 484.94 532.40 C 479.34 537.11 472.83 538.65 466.73 536.70 Z M 474.50 518.00 C 474.50 516.17 473.90 515.41 472.25 515.18 C 470.89 514.99 469.75 515.49 469.39 516.43 C 468.39 519.02 469.79 521.17 472.25 520.82 C 473.90 520.59 474.50 519.83 474.50 518.00 Z M 548.28 537.03 C 532.73 533.34 528.76 511.38 542.04 502.59 L 546.00 499.97 L 546.00 472.55 L 546.00 445.14 L 542.98 442.98 C 538.35 439.69 535.68 433.65 536.25 427.75 C 536.75 422.56 538.87 418.93 543.39 415.56 C 547.58 412.43 557.40 412.66 562.34 416.00 C 571.02 421.88 572.16 432.62 564.92 440.47 L 561.00 444.72 L 561.01 472.61 L 561.01 500.50 L 564.50 502.88 C 569.85 506.52 572.33 511.28 572.33 517.89 C 572.33 521.09 571.63 524.83 570.71 526.60 C 568.45 530.95 562.74 535.70 558.28 536.94 C 554.05 538.12 552.89 538.13 548.28 537.03 Z M 555.82 518.25 C 556.23 515.38 553.41 514.16 551.29 516.29 C 549.16 518.41 550.38 521.23 553.25 520.82 C 554.70 520.61 555.61 519.70 555.82 518.25 Z M 631.50 537.54 C 630.95 537.34 629.27 536.90 627.77 536.57 C 624.33 535.81 618.40 530.66 616.29 526.60 C 615.36 524.82 614.67 521.08 614.67 517.80 C 614.67 511.05 617.72 505.57 623.48 502.01 L 627.09 499.78 L 626.79 472.36 L 626.50 444.94 L 623.23 442.38 C 609.15 431.37 619.81 410.11 637.72 413.47 C 642.74 414.42 649.47 421.19 650.40 426.24 C 651.45 431.94 649.54 437.28 644.99 441.39 L 641.00 444.99 L 641.00 472.25 L 641.00 499.50 L 645.92 503.73 C 651.60 508.63 653.44 513.03 652.77 520.09 C 651.91 528.98 645.13 535.94 635.95 537.37 C 634.05 537.66 632.05 537.74 631.50 537.54 Z M 636.00 519.50 C 636.99 518.30 636.99 517.70 636.00 516.50 C 633.50 513.49 629.94 515.79 631.36 519.50 C 631.68 520.33 632.57 521.00 633.35 521.00 C 634.12 521.00 635.32 520.33 636.00 519.50 Z M 710.50 537.06 C 702.07 535.02 696.17 528.65 695.26 520.64 C 694.39 512.92 698.56 504.83 705.18 501.41 L 708.12 499.89 L 707.81 472.69 L 707.50 445.50 L 703.36 441.48 C 695.71 434.05 695.59 424.32 703.06 417.57 C 711.25 410.16 724.53 412.39 729.50 422.00 C 732.93 428.63 730.52 438.65 724.55 442.56 L 722.00 444.23 L 722.00 472.45 L 722.00 500.66 L 724.67 502.08 C 728.59 504.17 732.81 510.54 733.55 515.51 C 734.27 520.31 732.85 525.90 729.78 530.27 C 726.25 535.30 716.87 538.61 710.50 537.06 Z M 716.82 518.25 C 717.22 515.45 714.42 514.15 712.39 516.19 C 710.38 518.19 711.68 521.19 714.38 520.80 C 715.70 520.61 716.62 519.65 716.82 518.25 Z" stroke-linecap="round"/>
</g>
</g>
</g>

  </svg>