<svg xmlns="http://www.w3.org/2000/svg" xmlns:xlink="http://www.w3.org/1999/xlink" width="483px" height="500px" viewBox="0 0 483.3179830009863 500">
    <g id="c0bea39d-d5eb-4c65-8ae5-dcd72d260e89">
<g style="">
		<g id="c0bea39d-d5eb-4c65-8ae5-dcd72d260e89-child-0">
<path style="stroke: rgb(193,193,193); stroke-width: 0; stroke-dasharray: none; stroke-linecap: butt; stroke-dashoffset: 0; stroke-linejoin: miter; stroke-miterlimit: 4; fill: rgb(0,0,0); fill-rule: nonzero; opacity: 1;" transform="matrix(0.703549 0 0 0.703549 241.659064 250.000075) matrix(1 0 0 1 0 0)  translate(-511.985762, -512.941006)" d="M 346.89 867.88 C 333.50 866.79 323.09 859.49 317.13 847.00 C 314.83 842.19 314.49 840.19 314.44 831.13 L 314.39 820.75 L 306.94 818.03 C 268.26 803.86 235.00 773.86 216.01 736.01 C 211.37 726.78 206.30 713.36 204.00 704.26 C 203.13 700.82 202.42 699.92 200.21 699.49 C 191.81 697.87 188.04 696.59 183.98 693.98 C 177.59 689.89 174.53 686.39 171.31 679.50 C 168.97 674.49 168.50 672.17 168.50 665.48 C 168.50 658.42 168.90 656.65 171.80 650.76 C 175.12 644.02 180.05 639.00 186.62 635.66 C 193.80 632.03 200.58 631.86 338.00 632.04 C 411.98 632.13 474.19 632.16 476.25 632.11 L 480.00 632.00 L 480.00 610.55 L 480.00 589.09 L 476.25 588.48 C 432.25 581.37 398.72 566.03 372.83 541.19 C 360.65 529.50 351.57 517.64 345.10 505.00 C 338.50 492.08 337.48 488.68 339.04 484.90 C 341.67 478.54 328.30 479.00 512.17 479.00 L 679.89 479.00 L 682.69 481.41 C 686.81 484.96 686.42 490.29 681.27 500.59 C 673.30 516.54 663.59 529.53 650.40 541.87 C 625.46 565.20 590.72 581.35 551.25 587.97 L 544.00 589.18 L 544.00 610.59 L 544.00 632.00 L 546.75 632.13 C 548.26 632.20 612.72 632.31 690.00 632.38 L 830.50 632.50 L 836.05 635.10 C 843.96 638.81 848.48 643.20 852.23 650.81 C 855.11 656.67 855.50 658.41 855.47 665.48 C 855.45 672.01 854.95 674.56 852.80 679.20 C 847.86 689.85 838.01 697.43 827.35 698.79 L 821.77 699.50 L 819.44 707.59 C 811.55 734.93 797.96 758.07 778.03 778.08 C 758.34 797.84 739.32 810.10 714.00 819.34 L 709.50 820.98 L 709.50 831.26 C 709.50 840.85 709.28 841.99 706.24 848.17 C 702.38 856.01 697.01 861.17 688.62 865.09 L 682.50 867.95 L 518.50 868.22 C 428.30 868.38 351.07 868.22 346.89 867.88 Z M 677.19 843.97 C 684.70 841.88 688.42 833.21 684.09 827.86 L 682.18 825.50 L 513.02 825.24 L 343.86 824.98 L 340.81 828.04 C 338.19 830.66 337.84 831.61 338.34 834.69 C 339.04 839.02 342.29 842.72 346.44 843.93 C 350.90 845.23 672.53 845.26 677.19 843.97 Z M 697.09 798.84 C 742.97 786.19 777.42 754.48 792.88 710.67 C 794.60 705.81 796.00 701.20 796.00 700.42 C 796.00 699.20 756.70 699.00 512.00 699.00 C 355.80 699.00 228.00 699.37 228.00 699.81 C 228.00 702.14 234.26 718.58 237.96 726.00 C 258.13 766.33 298.26 796.14 338.87 800.98 C 342.52 801.41 422.45 801.70 516.50 801.62 L 687.50 801.48 L 697.09 798.84 Z M 829.08 672.23 C 833.07 667.77 833.07 662.91 829.08 658.92 L 826.15 656.00 L 512.00 656.00 L 197.85 656.00 L 194.92 658.92 C 189.41 664.44 191.71 672.61 199.50 675.15 C 200.60 675.51 342.05 675.74 513.83 675.65 L 826.16 675.50 L 829.08 672.23 Z M 521.00 611.50 L 521.00 591.00 L 512.00 591.00 L 503.00 591.00 L 503.00 611.50 L 503.00 632.00 L 512.00 632.00 L 521.00 632.00 L 521.00 611.50 Z M 541.70 564.46 C 579.84 559.49 610.56 545.97 634.75 523.49 C 639.22 519.34 644.97 513.16 647.53 509.75 C 652.12 503.64 652.15 503.55 649.83 502.93 C 647.29 502.25 373.07 502.59 372.39 503.27 C 371.49 504.17 382.18 516.96 389.90 524.22 C 412.28 545.28 441.50 558.40 478.50 564.00 C 494.19 566.38 525.25 566.61 541.70 564.46 Z M 304.42 613.03 C 303.27 612.57 301.14 610.76 299.67 609.02 L 297.00 605.85 L 297.01 541.17 C 297.02 471.57 297.01 471.79 302.35 461.29 C 307.27 451.59 316.76 442.85 326.75 438.82 L 332.50 436.50 L 406.00 436.00 L 479.50 435.50 L 479.76 403.27 L 480.03 371.05 L 474.76 368.40 C 452.62 357.28 433.30 332.46 426.51 306.39 C 424.33 298.00 424.56 296.24 428.40 292.40 L 431.80 289.00 L 511.68 289.00 C 599.54 289.00 594.20 288.62 597.55 295.09 C 599.35 298.59 598.87 302.28 595.25 312.50 C 586.56 337.08 570.29 357.19 550.74 367.54 L 543.97 371.12 L 544.24 403.31 L 544.50 435.50 L 615.50 435.70 C 694.89 435.91 693.78 435.82 704.78 442.94 C 711.65 447.39 718.64 454.94 721.86 461.42 C 726.54 470.81 726.98 474.62 726.99 505.80 C 727.00 538.17 726.78 539.51 720.82 542.59 C 714.13 546.05 705.98 542.35 703.98 534.94 C 703.43 532.87 703.04 519.58 703.10 504.77 C 703.21 480.53 703.05 477.91 701.27 473.89 C 698.92 468.59 692.68 462.74 687.38 460.87 C 681.63 458.84 342.40 458.83 336.66 460.86 C 332.00 462.51 326.86 466.88 323.79 471.82 L 321.50 475.50 L 321.00 540.50 C 320.52 602.90 320.42 605.62 318.55 608.39 C 315.47 612.93 309.24 614.98 304.42 613.03 Z M 520.50 406.55 L 520.50 377.60 L 511.75 377.47 L 503.00 377.35 L 503.00 406.01 C 503.00 421.77 503.26 434.93 503.59 435.25 C 503.91 435.57 507.84 435.76 512.34 435.67 L 520.50 435.50 L 520.50 406.55 Z M 526.36 351.41 C 536.28 348.86 545.71 343.32 553.50 335.50 C 559.98 328.99 568.00 317.25 568.00 314.27 C 568.00 313.26 556.56 313.00 511.43 313.00 L 454.86 313.00 L 458.68 320.24 C 466.32 334.71 482.67 347.79 497.64 351.42 C 505.61 353.34 518.88 353.34 526.36 351.41 Z M 709.76 612.49 C 704.71 609.65 704.00 606.71 704.00 588.50 C 704.00 569.55 704.76 566.84 710.73 564.34 C 715.77 562.23 720.19 563.31 723.92 567.57 L 727.00 571.07 L 727.00 588.55 L 727.00 606.03 L 723.75 609.58 C 719.89 613.79 714.19 614.98 709.76 612.49 Z M 389.76 414.43 C 383.88 411.24 384.00 412.68 384.00 346.65 C 384.00 289.19 384.10 285.89 385.99 279.78 C 391.13 263.12 404.66 250.79 421.80 247.13 C 424.98 246.45 437.66 246.00 453.50 246.00 L 479.90 246.00 L 480.20 213.25 L 480.50 180.50 L 483.25 175.28 C 489.34 163.73 499.19 157.67 511.98 157.60 C 521.36 157.56 528.84 160.70 535.41 167.46 C 543.57 175.85 544.00 178.22 544.00 214.54 L 544.00 246.00 L 570.25 246.02 C 599.94 246.04 606.66 246.94 615.79 252.17 C 625.77 257.87 633.08 266.62 637.31 277.89 C 639.28 283.15 639.43 285.84 639.77 320.88 C 640.03 347.47 639.80 359.06 638.99 361.03 C 636.18 367.82 629.14 370.58 622.59 367.47 C 616.03 364.36 616.00 364.17 615.98 324.30 C 615.96 290.43 615.85 288.26 613.92 284.00 C 611.38 278.40 608.64 275.42 603.50 272.65 C 599.51 270.51 599.30 270.50 515.00 270.19 C 456.00 269.97 428.96 270.21 425.38 270.98 C 419.28 272.30 412.96 277.29 409.72 283.36 C 407.51 287.47 407.50 287.90 407.00 348.60 C 406.46 414.88 406.77 411.52 400.87 414.57 C 397.36 416.38 393.27 416.34 389.76 414.43 Z M 520.79 216.58 L 520.50 187.16 L 518.08 184.58 C 514.74 181.03 509.26 181.03 505.92 184.58 L 503.50 187.16 L 503.21 216.58 L 502.91 246.00 L 512.00 246.00 L 521.09 246.00 L 520.79 216.58 Z M 621.31 414.11 C 616.89 411.33 616.00 409.17 616.00 401.21 C 616.00 395.31 616.35 393.91 618.38 391.73 C 624.42 385.21 635.35 386.80 638.64 394.67 C 641.28 400.99 639.74 409.31 635.18 413.37 C 632.02 416.18 625.19 416.55 621.31 414.11 Z M 276.50 743.33 C 268.28 741.54 264.60 733.54 268.52 725.97 C 271.65 719.91 270.75 720.00 328.99 720.00 C 376.61 720.00 382.33 720.17 384.59 721.65 C 392.15 726.61 391.61 738.59 383.64 742.37 C 380.58 743.82 374.50 743.99 329.35 743.88 C 301.38 743.82 277.60 743.57 276.50 743.33 Z M 496.50 743.34 C 487.24 741.23 483.43 733.87 487.52 725.97 C 490.66 719.90 489.60 720.00 549.50 720.00 C 609.40 720.00 608.34 719.90 611.48 725.97 C 614.08 730.98 613.45 735.54 609.58 739.76 L 606.15 743.50 L 552.33 743.65 C 522.72 743.73 497.60 743.60 496.50 743.34 Z" stroke-linecap="round"/>
</g>
</g>
</g>

  </svg>