<svg xmlns="http://www.w3.org/2000/svg" xmlns:xlink="http://www.w3.org/1999/xlink" width="500px" height="321px" viewBox="0 0 499.9999999999998 321.38109226059083">
    <g id="045a5ca8-6a19-40e1-a35f-a4237a0762db">
<g style="">
		<g id="045a5ca8-6a19-40e1-a35f-a4237a0762db-child-0">
<path style="stroke: rgb(193,193,193); stroke-width: 0; stroke-dasharray: none; stroke-linecap: butt; stroke-dashoffset: 0; stroke-linejoin: miter; stroke-miterlimit: 4; fill: rgb(0,0,0); fill-rule: nonzero; opacity: 1;" transform="matrix(0.727001 0 0 0.727001 250.000111 160.690617) matrix(1 0 0 1 0 0)  translate(-511.853033, -513.032182)" d="M 176.42 733.03 C 173.70 731.93 169.16 726.50 168.39 723.42 C 165.55 712.10 177.81 702.49 188.58 707.61 C 195.02 710.66 198.08 720.33 194.72 726.97 C 191.85 732.65 182.85 735.63 176.42 733.03 Z M 835.42 733.03 C 832.70 731.93 828.16 726.50 827.39 723.42 C 826.51 719.91 827.73 714.61 830.11 711.58 C 838.09 701.44 854.08 705.91 855.64 718.71 C 856.88 728.83 845.30 737.03 835.42 733.03 Z M 224.50 732.05 C 218.31 729.49 215.57 721.83 218.56 715.50 C 221.35 709.64 225.95 708.05 240.25 708.02 L 252.00 708.00 L 252.00 684.64 L 252.00 661.27 L 245.41 660.74 C 231.47 659.63 216.56 648.98 209.85 635.36 C 206.53 628.60 206.50 628.41 205.97 611.02 C 205.50 595.64 205.16 592.90 203.18 588.57 C 193.45 567.34 202.39 539.76 222.82 527.99 C 228.01 524.99 228.95 524.00 229.46 521.00 C 229.78 519.08 229.93 490.50 229.79 457.50 C 229.56 403.05 229.70 396.91 231.28 391.11 C 236.00 373.86 247.86 360.64 264.76 353.82 L 270.50 351.50 L 366.50 351.00 L 462.50 350.50 L 463.13 340.00 C 463.56 332.74 464.43 327.81 465.95 324.00 C 473.87 304.14 491.33 292.00 512.00 292.00 C 525.42 292.00 537.01 296.82 546.56 306.38 C 556.41 316.24 561.00 328.26 561.00 344.16 L 561.00 350.95 L 657.75 351.23 C 750.75 351.49 754.67 351.57 759.00 353.43 C 771.92 358.97 782.67 368.43 787.98 378.96 C 794.25 391.38 794.09 389.51 794.72 460.17 L 795.30 524.83 L 799.40 526.67 C 805.07 529.20 816.17 540.40 819.44 546.87 C 825.63 559.11 826.34 573.99 821.34 586.74 C 818.94 592.89 818.72 594.59 818.92 605.50 C 819.19 619.59 817.41 629.62 813.30 637.23 C 806.66 649.53 791.95 659.48 778.42 660.82 L 771.50 661.50 L 771.23 684.75 L 770.96 708.00 L 782.92 708.00 C 789.49 708.00 796.14 708.48 797.68 709.07 C 807.51 712.79 809.45 725.10 801.10 730.71 L 797.70 733.00 L 512.10 732.94 C 355.02 732.90 225.60 732.50 224.50 732.05 Z M 305.77 684.75 L 305.50 661.50 L 291.25 661.22 L 277.00 660.95 L 277.00 684.47 L 277.00 708.00 L 291.52 708.00 L 306.04 708.00 L 305.77 684.75 Z M 693.00 684.50 L 693.00 661.00 L 512.00 661.00 L 331.00 661.00 L 331.00 684.50 L 331.00 708.00 L 512.00 708.00 L 693.00 708.00 L 693.00 684.50 Z M 746.21 684.50 L 745.93 661.00 L 731.96 661.00 L 718.00 661.00 L 718.00 684.50 L 718.00 708.00 L 732.25 708.00 L 746.50 708.00 L 746.21 684.50 Z M 781.62 634.60 C 784.43 633.29 787.91 630.68 789.34 628.80 C 791.75 625.64 794.94 615.61 793.88 614.55 C 793.63 614.30 791.41 614.83 788.96 615.74 C 784.86 617.25 762.75 617.38 511.41 617.27 C 264.96 617.17 237.95 617.01 234.54 615.58 C 229.72 613.57 230.00 613.47 230.00 617.18 C 230.00 621.71 233.63 628.61 237.60 631.64 C 244.95 637.25 227.28 636.91 512.50 636.95 L 776.50 636.98 L 781.62 634.60 Z M 783.91 591.43 C 790.21 589.56 797.12 583.20 798.98 577.56 C 799.68 575.45 800.05 570.83 799.83 566.95 C 799.35 558.42 795.98 553.10 788.35 548.82 L 783.21 545.92 L 512.53 545.98 C 217.32 546.04 239.13 545.61 231.41 551.50 C 221.07 559.38 221.30 578.31 231.84 587.03 C 239.37 593.27 219.65 592.85 511.57 592.93 C 751.20 592.99 779.18 592.84 783.91 591.43 Z M 770.00 460.04 C 770.00 401.09 769.93 398.89 767.96 393.61 C 765.62 387.37 760.03 381.12 753.79 377.79 L 749.50 375.50 L 512.00 375.50 L 274.50 375.50 L 269.14 378.47 C 262.64 382.07 258.61 386.76 255.98 393.79 C 254.09 398.84 254.00 401.73 254.00 460.04 L 254.00 521.00 L 512.00 521.00 L 770.00 521.00 L 770.00 460.04 Z M 535.99 343.75 C 535.99 333.72 534.58 329.53 529.33 323.92 C 518.35 312.18 499.91 313.90 491.53 327.44 C 488.83 331.81 488.46 333.35 488.15 341.67 L 487.81 351.00 L 511.90 351.00 L 536.00 351.00 L 535.99 343.75 Z M 330.90 461.73 C 326.98 459.11 324.00 453.83 324.00 449.50 C 324.00 441.85 330.94 435.00 338.70 435.00 C 343.69 435.00 347.41 436.64 350.92 440.40 C 354.33 444.05 354.90 452.24 352.06 456.76 C 347.55 463.95 337.69 466.27 330.90 461.73 Z M 418.24 462.01 C 413.05 458.84 410.82 454.43 411.28 448.24 C 412.33 434.01 430.58 429.83 438.75 441.95 C 442.94 448.18 440.81 457.25 434.10 461.73 C 429.73 464.65 422.77 464.77 418.24 462.01 Z M 504.98 462.18 C 497.75 458.39 495.05 447.44 499.78 441.09 C 506.42 432.18 520.78 432.88 525.68 442.35 C 532.34 455.23 517.99 468.98 504.98 462.18 Z M 590.30 462.04 C 582.09 457.03 580.70 446.65 587.30 439.64 C 593.46 433.12 602.46 433.00 608.83 439.36 C 611.77 442.30 612.39 443.70 612.72 448.18 C 613.18 454.43 610.97 458.83 605.76 462.01 C 601.51 464.60 594.52 464.61 590.30 462.04 Z M 677.24 462.01 C 672.03 458.83 669.82 454.43 670.28 448.18 C 670.62 443.66 671.22 442.31 674.29 439.25 C 677.46 436.08 678.61 435.59 683.70 435.26 C 688.26 434.97 690.20 435.33 692.76 436.94 C 705.54 444.96 700.08 463.99 685.00 463.99 C 682.27 463.99 679.22 463.21 677.24 462.01 Z" stroke-linecap="round"/>
</g>
</g>
</g>

  </svg>