<svg xmlns="http://www.w3.org/2000/svg" xmlns:xlink="http://www.w3.org/1999/xlink" width="500px" height="375px" viewBox="0 0 499.9999999999998 375.4460306213282">
    <g id="a10e7dee-f715-48eb-8e11-1d48f82e1d25">
<g style="">
		<g id="a10e7dee-f715-48eb-8e11-1d48f82e1d25-child-0">
<path style="stroke: rgb(193,193,193); stroke-width: 0; stroke-dasharray: none; stroke-linecap: butt; stroke-dashoffset: 0; stroke-linejoin: miter; stroke-miterlimit: 4; fill: rgb(0,0,0); fill-rule: nonzero; opacity: 1;" transform="matrix(0.929563 0 0 0.929563 249.999981 187.723001) matrix(1 0 0 1 0 0)  translate(-512.056441, -534.947583)" d="M 310.59 735.35 C 307.05 734.27 304.09 732.25 299.94 728.10 C 295.17 723.33 293.83 721.19 292.09 715.57 C 290.04 708.92 290.00 707.18 290.00 627.55 L 290.00 546.32 L 284.48 545.08 C 270.38 541.93 254.79 530.10 248.78 517.98 C 243.39 507.14 242.86 502.70 243.19 471.75 L 243.50 443.50 L 246.16 438.46 C 247.63 435.68 253.05 426.01 258.21 416.96 C 263.38 407.90 273.21 390.38 280.05 378.00 C 294.33 352.21 300.23 345.07 312.05 339.28 C 325.20 332.84 321.67 333.03 428.30 333.01 C 531.14 333.00 529.61 332.93 531.38 337.54 C 532.87 341.42 532.01 345.85 529.37 347.93 C 526.74 349.99 526.35 350.00 429.55 350.00 C 322.55 350.00 326.88 349.76 316.78 356.17 C 309.79 360.61 307.26 364.00 297.04 382.60 C 291.93 391.89 281.62 410.30 274.13 423.50 L 260.50 447.50 L 260.53 455.50 C 260.55 462.16 261.00 464.34 263.19 468.54 C 266.21 474.32 272.83 480.80 279.15 484.18 L 283.50 486.50 L 512.00 486.50 L 740.50 486.50 L 745.47 484.05 C 755.95 478.90 763.11 468.50 763.82 457.39 C 764.32 449.61 764.53 450.07 742.54 410.50 C 732.77 392.90 723.26 375.76 721.42 372.41 C 717.62 365.48 711.53 358.98 705.57 355.49 C 696.37 350.10 694.92 350.00 624.74 350.00 L 559.91 350.00 L 557.45 347.55 C 554.01 344.10 554.19 339.65 557.92 335.92 L 560.85 333.00 L 626.17 333.02 C 698.93 333.04 700.11 333.13 711.79 339.55 C 726.03 347.38 730.29 352.55 745.49 380.50 C 750.88 390.40 759.79 406.37 765.30 415.99 C 770.80 425.60 776.59 436.18 778.15 439.49 L 781.00 445.50 L 780.99 473.50 C 780.98 503.85 780.52 507.39 775.32 517.87 C 771.72 525.13 761.18 535.67 753.50 539.70 C 750.20 541.44 744.47 543.61 740.78 544.54 L 734.07 546.23 L 733.77 629.36 C 733.44 724.85 734.11 718.04 724.06 728.09 C 717.04 735.12 710.83 737.47 701.11 736.78 C 689.91 735.97 681.84 730.48 676.78 720.22 L 673.50 713.55 L 673.19 688.71 L 672.87 663.87 L 669.69 664.68 C 667.93 665.13 663.58 665.47 660.00 665.43 C 651.38 665.35 644.46 662.27 638.48 655.87 C 630.20 647.02 630.56 649.64 630.00 595.00 L 629.50 546.50 L 512.00 546.50 L 394.50 546.50 L 394.00 595.00 C 393.52 641.96 393.43 643.65 391.35 648.15 C 385.26 661.32 370.45 668.04 354.83 664.72 L 351.15 663.94 L 350.83 688.72 C 350.51 713.11 350.46 713.59 347.85 719.16 C 341.09 733.58 326.07 740.11 310.59 735.35 Z M 327.68 717.47 C 328.94 716.65 330.77 714.76 331.74 713.28 C 333.39 710.76 333.50 705.24 333.50 628.54 L 333.50 546.50 L 320.91 546.22 L 308.33 545.94 L 307.66 585.14 C 306.82 634.68 306.82 703.30 307.66 708.37 C 308.38 712.70 313.48 718.55 317.21 719.32 C 320.51 720.00 325.04 719.20 327.68 717.47 Z M 708.36 718.62 C 710.18 717.86 712.64 716.00 713.83 714.49 L 716.00 711.73 L 716.00 628.87 L 716.00 546.00 L 703.00 546.00 L 690.00 546.00 L 690.00 627.03 C 690.00 713.29 689.93 712.01 694.75 716.31 C 696.67 718.02 700.95 719.72 703.78 719.91 C 704.49 719.96 706.55 719.38 708.36 718.62 Z M 369.68 647.06 C 377.18 643.65 377.00 645.03 377.00 592.55 L 377.00 546.00 L 364.00 546.00 L 351.00 546.00 L 351.00 593.37 C 351.00 640.42 351.01 640.75 353.17 643.48 C 355.47 646.41 360.20 648.91 363.50 648.94 C 364.60 648.95 367.38 648.10 369.68 647.06 Z M 665.36 647.62 C 667.18 646.86 669.64 645.00 670.83 643.49 C 672.99 640.75 673.00 640.44 673.00 593.37 L 673.00 546.00 L 659.97 546.00 L 646.94 546.00 L 647.22 592.93 C 647.49 638.59 647.56 639.93 649.57 642.68 C 651.79 645.70 657.37 649.00 660.28 649.00 C 661.26 649.00 663.55 648.38 665.36 647.62 Z M 742.15 526.22 C 753.49 521.63 762.23 510.26 763.66 498.23 L 764.28 492.98 L 758.39 496.52 C 755.15 498.48 749.64 500.96 746.14 502.04 C 739.91 503.96 735.56 504.00 512.50 504.00 C 289.44 504.00 285.09 503.96 278.86 502.04 C 275.36 500.96 269.86 498.48 266.63 496.54 C 263.40 494.59 260.53 493.00 260.25 493.00 C 259.08 493.00 261.29 503.89 263.41 508.55 C 267.60 517.77 275.24 524.40 285.29 527.55 C 288.73 528.63 330.14 528.84 513.00 528.69 L 736.50 528.50 L 742.15 526.22 Z M 306.22 460.56 C 297.20 457.68 291.99 450.89 293.50 444.00 C 295.09 436.76 305.15 435.97 310.50 442.66 C 311.21 443.55 316.44 443.99 328.67 444.20 C 345.27 444.49 345.93 444.58 348.42 446.92 C 351.79 450.10 351.86 454.89 348.59 458.69 L 346.18 461.50 L 328.34 461.71 C 315.49 461.87 309.30 461.55 306.22 460.56 Z M 377.08 459.41 C 371.37 454.61 373.81 445.03 380.75 444.98 C 382.26 444.97 442.66 444.98 514.96 445.00 L 646.42 445.04 L 648.71 447.20 C 652.23 450.50 651.87 456.09 647.92 459.41 L 644.85 462.00 L 512.50 462.00 L 380.15 462.00 L 377.08 459.41 Z M 678.00 460.71 C 671.76 457.55 671.78 448.89 678.02 445.75 C 680.86 444.32 684.20 444.00 696.25 444.00 C 707.41 444.00 710.99 443.70 710.94 442.75 C 710.91 442.06 704.46 429.80 696.59 415.50 C 680.01 385.33 682.06 387.15 664.39 387.06 C 653.75 387.00 653.16 386.89 650.64 384.36 C 647.18 380.91 647.07 375.84 650.37 372.53 C 653.37 369.54 659.39 368.59 671.36 369.23 C 683.03 369.85 689.47 372.48 695.28 379.02 C 701.56 386.09 728.22 437.11 728.71 443.00 C 729.36 450.86 723.20 458.46 714.12 460.98 C 708.76 462.47 681.07 462.26 678.00 460.71 Z M 361.32 424.01 C 356.12 421.88 355.52 413.17 360.32 409.60 C 363.03 407.58 364.45 407.49 396.82 407.17 C 415.34 406.98 432.92 407.13 435.88 407.50 C 445.26 408.68 448.95 415.46 443.59 421.69 L 441.17 424.50 L 402.34 424.70 C 380.98 424.82 362.52 424.50 361.32 424.01 Z M 471.92 422.08 C 468.27 418.42 468.02 413.89 471.29 410.62 C 473.48 408.43 474.45 408.30 494.95 407.67 C 529.63 406.59 545.60 406.81 549.45 408.42 C 555.67 411.01 556.87 417.28 552.08 422.08 L 549.15 425.00 L 512.00 425.00 L 474.85 425.00 L 471.92 422.08 Z M 583.32 423.99 C 578.12 421.90 577.52 413.17 582.32 409.60 C 585.08 407.55 586.11 407.50 623.37 407.50 C 658.19 407.50 661.83 407.66 664.28 409.26 C 669.39 412.61 669.10 419.75 663.72 423.03 C 660.67 424.89 658.58 424.99 623.00 424.93 C 602.38 424.90 584.52 424.48 583.32 423.99 Z M 314.32 422.03 C 311.56 420.87 310.00 418.00 310.00 414.06 C 310.00 411.31 318.84 394.17 326.67 381.74 C 329.61 377.08 336.02 372.34 341.33 370.91 C 347.28 369.31 381.73 369.07 385.67 370.60 C 391.59 372.90 393.14 381.17 388.37 384.93 C 385.90 386.86 384.43 387.00 366.12 387.01 C 352.54 387.02 345.76 387.41 344.09 388.26 C 342.53 389.06 338.79 394.75 333.59 404.22 C 329.14 412.32 324.82 419.62 323.99 420.45 C 322.03 422.40 317.10 423.20 314.32 422.03 Z M 416.59 383.92 C 415.17 382.23 414.00 379.79 414.00 378.50 C 414.00 377.21 415.17 374.77 416.59 373.08 L 419.18 370.00 L 450.50 370.00 L 481.82 370.00 L 484.41 373.08 C 487.24 376.44 487.63 378.95 485.84 382.32 C 483.40 386.89 483.09 386.93 450.34 386.97 L 419.18 387.00 L 416.59 383.92 Z M 541.35 384.63 C 536.01 380.03 538.66 371.64 545.91 370.15 C 547.64 369.79 565.06 369.73 584.62 370.00 L 620.18 370.50 L 622.09 372.86 C 624.81 376.23 624.57 381.52 621.55 384.55 L 619.09 387.00 L 581.60 387.00 L 544.11 387.00 L 541.35 384.63 Z" stroke-linecap="round"/>
</g>
</g>
</g>

  </svg>