<svg xmlns="http://www.w3.org/2000/svg" xmlns:xlink="http://www.w3.org/1999/xlink" width="500px" height="219px" viewBox="0 0 500 218.91257793029104">
    <g id="7e5dda72-7451-4413-b5a3-7047c9803ceb">
<g style="">
		<g id="7e5dda72-7451-4413-b5a3-7047c9803ceb-child-0">
<path style="stroke: rgb(193,193,193); stroke-width: 0; stroke-dasharray: none; stroke-linecap: butt; stroke-dashoffset: 0; stroke-linejoin: miter; stroke-miterlimit: 4; fill: rgb(0,0,0); fill-rule: nonzero; opacity: 1;" transform="matrix(0.86969 0 0 0.86969 249.999857 109.456227) matrix(1 0 0 1 0 0)  translate(-511.541415, -511.850819)" d="M 262.35 636.59 C 248.72 633.27 235.61 622.79 229.96 610.73 C 223.80 597.57 223.81 597.74 224.25 509.00 C 224.61 435.32 224.79 428.03 226.42 423.00 C 232.42 404.37 244.97 392.03 262.46 387.53 C 267.73 386.18 296.51 386.00 512.00 386.00 C 779.05 386.00 760.33 385.58 772.76 391.90 C 784.26 397.75 793.17 408.34 796.99 420.71 C 798.94 427.00 799.00 429.91 799.00 512.00 C 799.00 594.48 798.94 596.97 796.96 603.38 C 792.76 616.99 780.78 629.56 766.78 635.04 L 760.50 637.50 L 514.00 637.67 C 319.13 637.81 266.42 637.58 262.35 636.59 Z M 758.31 615.61 C 763.83 613.95 770.22 609.45 773.62 604.84 L 776.08 601.50 L 698.79 600.95 C 611.99 600.34 616.54 600.75 607.51 592.80 C 601.26 587.30 598.74 582.10 597.95 573.08 C 596.88 560.84 605.89 562.00 511.89 562.00 C 418.73 562.00 427.80 560.89 426.61 572.48 C 425.75 580.90 424.22 584.65 419.50 589.87 C 415.46 594.33 410.88 597.48 405.79 599.28 C 403.45 600.10 380.08 600.59 325.21 600.97 L 247.92 601.50 L 251.01 605.70 C 254.48 610.41 259.14 613.63 265.32 615.56 C 271.75 617.57 751.64 617.61 758.31 615.61 Z M 402.08 577.14 C 403.95 575.62 404.51 573.89 405.09 567.78 C 406.23 555.86 411.58 547.95 421.63 543.33 L 426.75 540.97 L 513.13 541.23 C 596.72 541.49 599.63 541.56 603.47 543.47 C 608.59 546.01 614.06 551.51 616.46 556.53 C 617.50 558.71 618.63 563.82 618.96 567.87 C 619.98 580.14 611.58 579.00 701.11 579.00 L 778.00 579.00 L 778.00 511.98 L 778.00 444.96 L 700.91 445.23 L 623.83 445.50 L 621.41 448.31 C 619.59 450.42 619.00 452.28 619.00 455.87 C 619.00 467.41 613.29 476.74 603.22 481.69 L 597.50 484.50 L 512.00 484.50 C 426.96 484.50 426.48 484.49 421.91 482.38 C 411.99 477.79 406.17 468.88 405.65 457.50 C 405.39 451.88 404.95 450.49 402.65 448.20 L 399.96 445.50 L 322.99 445.23 L 246.03 444.96 L 245.76 511.98 L 245.50 579.00 L 322.64 579.00 C 396.39 579.00 399.88 578.92 402.08 577.14 Z M 592.92 462.88 C 596.79 461.53 598.00 458.79 598.00 451.42 C 598.00 444.21 600.95 438.13 607.16 432.54 C 609.88 430.10 614.57 427.18 617.59 426.05 C 622.95 424.05 624.86 424.00 699.54 424.00 C 741.59 424.00 776.00 423.64 776.00 423.19 C 776.00 421.56 771.04 415.74 767.33 413.03 C 758.44 406.52 778.62 407.00 512.22 407.01 C 341.65 407.01 269.32 407.33 266.50 408.10 C 260.76 409.65 253.65 414.46 250.61 418.83 C 249.18 420.91 248.00 422.91 248.00 423.28 C 248.00 423.65 283.21 424.08 326.25 424.23 L 404.50 424.50 L 409.23 426.83 C 419.50 431.89 427.00 443.19 427.00 453.60 C 427.00 458.94 428.31 461.78 431.32 462.99 C 434.71 464.36 588.99 464.25 592.92 462.88 Z M 323.00 561.92 C 314.83 558.23 309.53 551.74 308.17 543.77 C 307.49 539.76 307.38 539.67 301.18 537.97 C 293.73 535.93 288.62 532.11 284.50 525.48 C 281.85 521.22 281.50 519.77 281.50 513.00 C 281.50 506.23 281.85 504.78 284.53 500.42 C 288.36 494.20 295.53 489.26 301.98 488.41 C 306.78 487.77 306.81 487.74 307.46 483.41 C 309.00 473.16 318.90 464.27 329.88 463.28 C 344.09 461.99 355.17 469.59 358.56 482.94 C 359.65 487.21 359.96 487.52 363.81 488.18 C 374.43 489.99 383.11 499.19 384.62 510.24 C 386.38 523.08 376.19 536.51 363.11 538.60 C 359.39 539.19 358.99 539.56 358.40 542.87 C 357.46 548.19 353.16 555.64 349.35 558.54 C 341.96 564.19 331.09 565.58 323.00 561.92 Z M 335.42 542.39 C 336.73 541.89 337.00 539.91 337.00 530.96 C 337.00 516.84 336.84 517.00 350.95 517.00 C 362.32 517.00 364.56 516.18 363.82 512.30 C 363.52 510.73 362.02 510.44 351.89 510.00 C 344.18 509.67 339.75 509.04 338.65 508.13 C 337.31 507.01 337.00 504.78 337.00 496.08 C 337.00 485.11 336.33 483.00 332.86 483.00 C 330.02 483.00 329.50 484.97 329.50 495.84 C 329.50 509.55 329.02 510.00 314.42 510.00 C 305.22 510.00 303.96 510.21 303.04 511.93 C 302.26 513.39 302.39 514.25 303.57 515.43 C 304.81 516.66 307.46 517.00 315.95 517.00 C 324.68 517.00 327.01 517.31 328.10 518.62 C 328.96 519.66 329.56 523.81 329.78 530.37 C 329.97 535.94 330.31 541.06 330.53 541.75 C 330.97 543.10 332.90 543.36 335.42 542.39 Z M 683.45 560.59 C 674.19 556.56 671.28 544.58 677.70 536.94 C 681.22 532.76 685.08 531.00 690.70 531.00 C 699.79 531.01 705.99 537.30 706.00 546.52 C 706.00 558.02 694.31 565.32 683.45 560.59 Z M 720.68 528.55 C 713.46 525.98 710.00 521.03 710.00 513.28 C 710.00 494.57 738.37 492.46 741.49 510.94 C 742.82 518.82 737.55 526.72 729.50 528.90 C 724.72 530.20 725.39 530.23 720.68 528.55 Z M 645.99 526.75 C 638.38 521.57 636.31 514.54 640.19 507.01 C 643.20 501.16 647.95 498.00 653.75 498.00 C 670.05 498.00 676.44 517.72 663.05 526.75 C 658.44 529.85 650.55 529.85 645.99 526.75 Z M 453.89 521.50 C 448.35 518.49 447.65 509.55 452.60 504.91 C 455.10 502.55 455.55 502.50 472.66 502.50 L 490.16 502.50 L 493.08 505.77 C 497.44 510.64 496.84 517.01 491.63 521.23 C 489.80 522.71 487.16 522.95 473.00 522.94 C 460.67 522.92 455.84 522.56 453.89 521.50 Z M 533.12 521.37 C 526.82 516.96 527.31 507.09 534.00 503.75 C 536.84 502.33 540.18 502.00 551.68 502.00 C 559.49 502.00 566.98 502.42 568.34 502.94 C 575.52 505.67 577.48 514.67 572.08 520.08 L 569.15 523.00 L 552.30 523.00 C 538.34 523.00 535.05 522.72 533.12 521.37 Z M 681.99 493.75 C 676.46 489.99 674.50 486.52 674.50 480.50 C 674.50 464.96 694.90 459.12 703.84 472.10 C 706.85 476.48 706.55 485.01 703.22 489.69 C 698.71 496.03 688.27 498.03 681.99 493.75 Z" stroke-linecap="round"/>
</g>
</g>
</g>

  </svg>