<svg xmlns="http://www.w3.org/2000/svg" xmlns:xlink="http://www.w3.org/1999/xlink" width="706px" height="558px" viewBox="0 0 706.3740856844306 558.6538173366629">
    <g id="6dbd49a3-d419-4ec3-b3e8-993e45448c80">
<g style="">
		<g id="6dbd49a3-d419-4ec3-b3e8-993e45448c80-child-0">
<path style="stroke: rgb(193,193,193); stroke-width: 0; stroke-dasharray: none; stroke-linecap: butt; stroke-dashoffset: 0; stroke-linejoin: miter; stroke-miterlimit: 4; fill: rgb(0,0,0); fill-rule: nonzero; opacity: 1;" transform="matrix(0.962384 0 0 0.962384 353.187125 279.326974) matrix(1 0 0 1 0 0)  translate(-512.019013, -511.736637)" d="M 150.32 800.38 C 146.35 798.43 144.68 794.23 146.16 789.97 C 148.12 784.36 150.14 784.00 179.45 784.00 L 206.00 784.00 L 206.00 611.00 C 206.00 515.85 205.71 438.00 205.35 438.00 C 204.61 438.00 191.52 444.99 178.88 452.13 C 169.21 457.60 165.41 458.17 161.61 454.75 C 160.23 453.51 155.93 447.00 152.05 440.27 C 144.41 427.02 143.50 423.18 146.94 418.81 C 148.00 417.45 161.17 409.66 176.19 401.49 C 191.21 393.32 220.15 377.56 240.50 366.47 C 319.94 323.19 359.08 302.00 458.00 248.74 C 476.42 238.82 495.10 228.70 499.50 226.26 C 511.54 219.57 511.32 219.56 528.07 228.53 C 585.69 259.41 699.28 320.78 795.50 373.00 C 818.05 385.24 844.83 399.77 855.00 405.28 C 877.76 417.61 876.63 416.90 877.93 419.74 C 880.05 424.40 879.06 427.65 871.65 440.34 C 862.69 455.69 862.61 455.80 858.45 456.58 C 855.57 457.12 853.05 456.10 840.30 449.22 C 832.16 444.83 823.59 440.28 821.25 439.10 L 817.00 436.96 L 817.00 610.48 L 817.00 784.00 L 845.08 784.00 L 873.15 784.00 L 876.08 786.92 C 880.68 791.52 879.77 797.52 874.02 800.49 C 871.43 801.83 830.40 802.00 512.30 801.98 C 188.26 801.96 153.19 801.80 150.32 800.38 Z M 288.98 621.31 L 288.93 458.62 L 291.49 456.06 L 294.04 453.50 L 429.27 453.00 C 503.65 452.73 601.78 452.73 647.34 453.00 L 730.17 453.50 L 732.59 456.31 L 735.00 459.11 L 735.00 621.56 L 735.00 784.00 L 767.50 784.00 L 800.01 784.00 L 799.75 605.79 L 799.50 427.58 L 788.50 421.48 C 782.45 418.13 762.65 407.37 744.50 397.56 C 726.35 387.75 706.78 377.14 701.00 373.99 C 680.60 362.84 618.08 329.03 585.00 311.25 C 519.18 275.88 513.48 272.88 512.00 272.78 C 511.17 272.72 500.38 278.09 488.00 284.70 C 431.57 314.85 358.41 354.21 328.00 370.76 C 318.38 376.00 298.12 387.02 283.00 395.25 C 267.88 403.48 248.41 414.10 239.75 418.85 L 224.00 427.50 L 224.00 605.75 L 224.00 784.00 L 256.52 784.00 L 289.03 784.00 L 288.98 621.31 Z M 718.00 627.00 L 718.00 470.00 L 512.00 470.00 L 306.00 470.00 L 306.00 627.00 L 306.00 784.00 L 512.00 784.00 L 718.00 784.00 L 718.00 627.00 Z M 225.50 406.76 C 244.75 396.31 272.65 381.12 287.50 373.01 C 329.08 350.30 444.52 288.03 490.30 263.62 L 512.10 251.99 L 532.30 262.83 C 565.74 280.78 653.54 328.17 684.75 345.12 C 700.84 353.85 727.39 368.26 743.75 377.14 C 760.11 386.02 791.14 402.89 812.70 414.64 C 834.27 426.39 852.49 436.00 853.20 435.99 C 854.39 435.99 859.59 428.18 858.83 427.56 C 858.36 427.17 839.59 416.92 818.00 405.25 C 798.78 394.87 746.21 366.29 709.00 346.00 C 681.34 330.92 647.94 312.89 590.00 281.79 C 564.42 268.06 536.38 253.00 527.68 248.31 L 511.86 239.79 L 505.68 243.05 C 502.28 244.84 494.33 249.11 488.00 252.54 C 481.67 255.97 458.50 268.45 436.50 280.27 C 367.12 317.55 326.56 339.47 270.50 370.02 C 255.10 378.41 232.82 390.54 221.00 396.98 C 209.18 403.41 192.52 412.51 184.00 417.19 C 175.48 421.87 167.48 426.24 166.23 426.90 L 163.97 428.09 L 166.98 432.47 L 169.99 436.84 L 180.24 431.31 C 185.89 428.26 206.25 417.22 225.50 406.76 Z M 321.45 769.55 C 319.76 767.85 319.00 765.98 319.00 763.50 C 319.00 761.02 319.76 759.15 321.45 757.45 L 323.91 755.00 L 512.00 755.00 L 700.09 755.00 L 702.55 757.45 C 705.88 760.79 705.88 766.21 702.55 769.55 L 700.09 772.00 L 512.00 772.00 L 323.91 772.00 L 321.45 769.55 Z M 323.50 741.85 C 318.39 739.05 317.26 731.98 321.31 728.17 L 323.63 726.00 L 511.68 726.00 L 699.73 726.00 L 702.37 728.07 C 704.31 729.60 705.00 731.06 705.00 733.64 C 705.00 738.38 703.63 740.58 699.87 741.89 C 695.40 743.46 326.35 743.41 323.50 741.85 Z M 321.17 710.69 C 318.85 708.22 318.29 703.19 319.98 700.04 C 320.52 699.03 322.38 697.71 324.13 697.11 C 328.45 695.60 693.81 695.54 699.24 697.05 C 703.49 698.23 705.00 700.38 705.00 705.26 C 705.00 707.51 704.22 709.38 702.69 710.83 L 700.37 713.00 L 511.86 713.00 L 323.35 713.00 L 321.17 710.69 Z M 321.45 681.55 C 319.76 679.85 319.00 677.98 319.00 675.50 C 319.00 673.02 319.76 671.15 321.45 669.45 L 323.91 667.00 L 511.82 667.00 L 699.73 667.00 L 702.37 669.07 C 704.49 670.74 705.00 671.99 705.00 675.50 C 705.00 679.01 704.49 680.26 702.37 681.93 L 699.73 684.00 L 511.82 684.00 L 323.91 684.00 L 321.45 681.55 Z M 324.09 653.91 C 320.75 652.57 319.07 650.06 319.03 646.33 C 318.99 641.82 319.85 640.13 323.07 638.46 C 325.52 637.19 350.46 637.00 510.70 637.01 C 638.17 637.01 696.69 637.34 699.33 638.07 C 707.13 640.24 707.56 651.21 699.96 653.86 C 695.75 655.33 327.76 655.38 324.09 653.91 Z M 321.45 622.55 C 319.76 620.85 319.00 618.98 319.00 616.50 C 319.00 614.02 319.76 612.15 321.45 610.45 L 323.91 608.00 L 512.00 608.00 L 700.09 608.00 L 702.55 610.45 C 706.06 613.97 705.98 620.09 702.37 622.93 L 699.73 625.00 L 511.82 625.00 L 323.91 625.00 L 321.45 622.55 Z M 323.32 595.00 C 318.50 593.05 317.45 585.46 321.45 581.45 L 323.91 579.00 L 511.82 579.00 L 699.73 579.00 L 702.37 581.07 C 705.64 583.65 706.00 589.55 703.09 593.14 L 701.18 595.50 L 513.34 595.69 C 406.30 595.80 324.56 595.50 323.32 595.00 Z M 327.00 566.27 C 319.30 565.35 316.15 557.02 321.58 551.92 L 324.16 549.50 L 512.00 549.50 L 699.84 549.50 L 702.42 551.92 C 704.28 553.67 704.99 555.35 704.97 557.92 C 704.92 562.79 702.90 565.10 697.80 566.08 C 693.58 566.90 333.85 567.08 327.00 566.27 Z M 321.45 534.55 C 318.43 531.52 318.19 526.23 320.91 522.86 L 322.82 520.50 L 511.45 520.24 L 700.08 519.98 L 702.54 522.45 C 706.06 525.97 705.98 532.08 702.37 534.93 L 699.73 537.00 L 511.82 537.00 L 323.91 537.00 L 321.45 534.55 Z M 324.26 507.30 C 318.89 506.26 317.17 497.74 321.45 493.45 L 323.91 491.00 L 508.70 490.80 C 610.34 490.69 695.04 490.68 696.93 490.79 C 703.17 491.14 706.76 497.24 704.38 503.46 C 702.56 508.20 710.70 508.01 512.30 507.86 C 410.11 507.79 325.49 507.53 324.26 507.30 Z" stroke-linecap="round"/>
</g>
</g>
</g>

  </svg>