<svg xmlns="http://www.w3.org/2000/svg" xmlns:xlink="http://www.w3.org/1999/xlink" width="970px" height="932px" viewBox="0 0 969.5346497515543 931.4301382917396">
    <g id="bcc8e93b-6532-4fc7-8009-e5d48fb70db6">
<g style="">
		<g id="bcc8e93b-6532-4fc7-8009-e5d48fb70db6-child-0">
<path style="stroke: rgb(193,193,193); stroke-width: 0; stroke-dasharray: none; stroke-linecap: butt; stroke-dashoffset: 0; stroke-linejoin: miter; stroke-miterlimit: 4; fill: rgb(0,0,0); fill-rule: nonzero; opacity: 1;" transform="matrix(1.328243 0 0 1.328243 484.767412 465.715153) matrix(1 0 0 1 0 0)  translate(-511.067805, -518.979631)" d="M 755.75 868.54 C 749.77 866.25 745.41 862.32 742.35 856.46 L 739.50 851.00 L 650.00 850.98 C 533.05 850.94 508.57 849.91 471.00 843.43 C 435.64 837.33 408.49 828.44 378.10 813.01 C 329.58 788.37 285.23 746.69 256.27 698.50 C 248.64 685.79 238.36 665.25 233.51 653.00 C 231.44 647.78 229.58 643.31 229.37 643.08 C 229.17 642.85 229.00 658.04 229.00 676.83 C 229.00 708.70 229.12 711.00 230.75 711.01 C 233.70 711.03 242.35 715.58 245.19 718.62 C 254.10 728.15 254.10 743.85 245.19 753.38 C 242.35 756.42 233.70 760.97 230.75 760.99 C 229.12 761.00 229.00 763.21 229.00 793.39 C 229.00 819.69 228.75 825.88 227.65 826.30 C 226.90 826.59 226.01 828.89 225.67 831.42 C 223.17 849.66 203.05 860.14 187.14 851.48 C 184.20 849.88 180.48 846.98 178.87 845.03 C 175.89 841.41 172.00 832.39 172.00 829.07 C 172.00 828.05 171.32 826.95 170.50 826.64 C 169.21 826.14 169.00 821.55 169.00 793.74 L 169.00 761.41 L 164.75 760.28 C 158.80 758.69 152.62 753.91 149.41 748.44 C 147.34 744.90 146.58 742.08 146.25 736.64 C 145.85 730.24 146.11 728.93 148.69 724.00 C 152.01 717.67 158.92 712.36 165.13 711.36 L 169.00 710.74 L 169.00 607.62 C 169.01 545.94 169.43 498.87 170.05 490.50 C 173.51 443.84 184.96 402.47 206.20 359.86 C 222.79 326.59 243.13 298.06 269.45 271.14 C 298.53 241.41 327.52 220.33 364.50 202.05 C 397.68 185.64 427.41 176.44 465.50 170.79 C 485.94 167.75 532.24 167.51 553.00 170.33 C 618.79 179.28 675.79 202.94 727.00 242.57 C 741.82 254.04 771.05 283.28 782.35 297.94 C 799.85 320.64 813.99 343.74 824.16 366.23 C 840.47 402.32 849.85 437.58 852.97 474.50 C 854.28 490.03 854.27 532.11 852.95 547.50 C 845.94 629.53 808.56 705.89 749.22 759.45 C 738.35 769.26 725.35 779.91 713.49 788.72 L 710.50 790.94 L 724.61 790.97 L 738.73 791.00 L 741.92 784.50 C 745.33 777.59 749.48 773.66 755.75 771.43 C 767.31 767.30 780.07 773.40 785.07 785.45 L 787.33 790.90 L 820.41 791.20 L 853.50 791.50 L 859.21 794.31 C 877.18 803.13 881.60 825.22 868.36 839.94 C 865.79 842.80 861.49 846.08 858.20 847.70 L 852.50 850.50 L 819.30 850.82 L 786.11 851.14 L 785.05 854.35 C 783.52 858.97 778.43 864.74 773.78 867.11 C 768.58 869.76 760.59 870.40 755.75 868.54 Z M 767.37 849.93 L 770.00 847.85 L 770.00 820.15 C 770.00 796.69 769.76 792.10 768.44 790.22 C 766.34 787.21 760.83 787.20 758.04 790.19 C 756.09 792.28 756.00 793.59 756.00 819.55 C 756.00 845.53 756.09 846.85 758.07 849.37 C 760.57 852.54 763.79 852.74 767.37 849.93 Z M 205.75 834.75 C 206.91 833.51 208.16 831.26 208.53 829.75 L 209.22 827.00 L 199.11 827.00 C 188.19 827.00 187.52 827.40 190.70 832.03 C 193.39 835.92 195.20 836.93 199.58 836.97 C 202.54 836.99 204.22 836.39 205.75 834.75 Z M 739.00 821.07 L 739.00 808.14 L 637.75 807.72 C 530.25 807.26 523.71 807.01 488.50 801.92 C 425.85 792.86 378.44 770.42 336.63 730.04 C 300.54 695.19 273.31 646.61 262.61 598.00 C 253.53 556.79 253.92 501.51 263.57 458.19 C 276.49 400.28 309.40 346.59 354.01 310.66 C 401.09 272.75 458.72 253.25 517.50 255.34 C 583.51 257.68 642.81 281.88 688.40 325.07 C 730.46 364.92 757.99 418.94 765.46 476.30 C 768.68 501.03 767.11 541.71 761.95 567.36 C 748.56 633.88 707.09 691.48 647.00 727.01 C 610.96 748.32 574.61 758.66 532.00 759.72 C 476.60 761.09 428.13 746.74 388.50 717.22 C 377.11 708.73 357.84 690.09 349.02 679.02 C 324.78 648.58 309.05 612.38 302.31 571.50 C 299.48 554.32 299.78 507.77 302.85 488.00 C 317.38 394.50 377.53 325.20 462.50 304.10 C 479.25 299.94 492.13 298.73 514.00 299.27 C 535.50 299.80 543.30 300.83 564.73 306.00 C 636.77 323.39 695.77 380.62 716.03 452.78 C 723.97 481.05 725.60 515.44 720.57 548.74 C 712.33 603.38 680.60 652.32 632.62 684.39 C 608.72 700.37 579.06 711.46 550.62 715.04 C 536.33 716.83 504.78 715.80 489.03 713.01 C 451.05 706.29 421.17 691.20 396.30 666.15 C 370.34 640.02 353.93 607.82 346.78 569.00 C 343.97 553.70 343.73 516.98 346.32 498.00 C 352.48 452.86 368.85 418.09 397.45 389.41 C 421.13 365.67 446.09 352.00 478.00 345.29 C 491.05 342.54 525.42 342.80 541.00 345.75 C 595.39 356.07 638.29 388.17 662.40 436.59 C 676.26 464.41 681.52 490.69 679.54 522.26 L 678.80 534.03 L 649.43 533.76 L 620.07 533.50 L 619.56 519.00 C 618.31 483.20 609.07 458.77 588.63 437.25 C 567.50 415.00 539.92 403.63 507.00 403.60 C 490.26 403.59 479.97 405.93 465.50 413.05 C 435.57 427.76 415.01 458.48 407.47 499.74 C 404.92 513.70 404.40 541.31 406.43 554.26 C 409.63 574.56 416.39 592.79 426.05 607.12 C 432.31 616.42 445.31 629.39 454.50 635.51 C 475.09 649.22 502.64 655.97 532.90 654.73 C 567.87 653.29 594.96 641.52 620.28 616.75 L 629.23 608.00 L 639.11 608.00 C 644.55 608.00 649.00 608.27 649.00 608.61 C 649.00 610.20 638.08 622.64 629.18 631.18 C 602.32 656.97 570.98 670.23 533.50 671.69 C 498.80 673.03 468.14 665.27 443.92 648.99 C 435.20 643.13 418.42 626.16 412.30 617.00 C 393.11 588.34 385.02 551.71 389.05 511.86 C 394.62 456.76 420.21 415.89 461.27 396.50 C 483.12 386.18 508.85 383.82 536.76 389.59 C 578.06 398.12 612.55 427.80 627.30 467.50 C 632.30 480.95 636.00 499.43 636.00 510.94 L 636.00 517.00 L 649.64 517.00 L 663.28 517.00 L 662.69 503.25 C 661.11 466.11 645.81 431.92 618.50 404.52 C 597.14 383.10 571.97 369.57 541.00 362.85 C 531.86 360.87 527.59 360.57 508.00 360.55 C 487.56 360.52 484.63 360.73 476.00 362.90 C 435.29 373.11 402.26 399.36 382.50 437.20 C 368.35 464.28 362.53 488.88 361.35 526.50 C 360.72 546.51 361.54 557.05 365.01 573.76 C 377.37 633.19 421.47 679.89 478.05 693.45 C 524.62 704.61 565.81 700.55 605.28 680.93 C 643.55 661.89 677.58 625.28 693.06 586.50 C 706.74 552.20 710.69 508.27 703.39 471.50 C 699.67 452.77 689.11 425.91 679.04 409.53 C 660.03 378.62 631.90 352.86 599.50 336.67 C 564.84 319.35 517.54 311.69 480.62 317.43 C 429.61 325.35 383.00 355.54 353.74 399.59 C 328.39 437.76 317.00 479.00 317.00 532.70 C 317.00 572.24 323.02 599.01 339.44 632.50 C 362.63 679.79 403.79 715.92 452.76 731.95 C 493.03 745.13 541.86 746.71 582.30 736.14 C 662.14 715.26 726.84 648.88 744.37 569.88 C 753.00 530.95 752.28 482.49 742.54 446.28 C 737.43 427.31 727.55 404.43 716.81 386.74 C 697.71 355.26 666.86 324.77 634.78 305.67 C 609.51 290.64 577.04 279.30 545.50 274.50 C 530.59 272.23 501.20 271.43 486.91 272.90 C 441.46 277.60 398.68 295.49 363.50 324.50 C 313.46 365.78 281.58 426.27 274.54 493.32 C 272.50 512.67 272.51 550.22 274.55 568.00 C 283.37 644.84 326.41 711.97 392.64 752.17 C 418.78 768.04 445.82 777.49 484.09 784.14 C 496.05 786.22 500.63 786.47 526.50 786.47 C 557.10 786.46 567.36 785.38 588.92 779.91 C 653.31 763.54 712.64 722.03 748.94 667.93 C 773.48 631.36 787.33 593.24 792.54 547.99 C 794.70 529.17 794.15 480.08 791.59 464.34 C 789.30 450.21 782.93 425.43 778.54 413.50 C 773.45 399.68 759.51 371.57 751.64 359.23 C 721.39 311.83 677.02 274.04 625.82 252.09 C 577.86 231.53 523.73 223.86 473.50 230.50 C 392.29 241.24 316.61 291.48 272.49 363.93 C 254.91 392.78 241.68 426.41 235.63 457.58 C 228.06 496.59 227.01 549.99 233.08 587.28 C 243.35 650.32 272.68 705.88 319.26 750.58 C 369.07 798.36 429.72 824.30 508.50 831.52 C 531.97 833.67 528.28 833.61 637.75 833.81 L 739.00 834.00 L 739.00 821.07 Z M 803.78 820.75 L 804.06 808.00 L 795.53 808.00 L 787.00 808.00 L 787.00 821.04 L 787.00 834.08 L 795.25 833.79 L 803.50 833.50 L 803.78 820.75 Z M 851.71 831.90 C 861.47 827.17 861.61 814.47 851.96 809.48 C 849.82 808.37 845.44 808.00 834.55 808.00 L 820.00 808.00 L 820.00 821.00 L 820.00 834.00 L 833.68 834.00 C 845.55 834.00 847.95 833.72 851.71 831.90 Z M 212.77 785.75 L 212.50 761.50 L 199.00 761.50 L 185.50 761.50 L 185.18 785.75 L 184.86 810.00 L 198.95 810.00 L 213.04 810.00 L 212.77 785.75 Z M 681.51 788.89 C 689.52 784.66 710.77 770.15 720.96 761.94 C 768.50 723.67 802.32 675.50 821.67 618.50 C 832.96 585.25 837.48 554.28 837.43 510.50 C 837.39 476.11 835.28 455.38 829.36 431.50 C 817.49 383.56 795.22 339.47 763.84 301.76 C 680.32 201.39 537.41 159.65 413.93 199.57 C 340.78 223.21 276.56 274.36 234.45 342.50 C 226.38 355.56 211.58 385.65 206.66 399.00 C 194.73 431.35 188.15 463.10 186.04 498.50 C 184.96 516.56 184.60 704.90 185.64 708.78 C 186.24 711.02 186.45 711.05 199.36 710.78 L 212.46 710.50 L 212.49 605.50 C 212.52 495.55 212.63 492.33 217.12 465.00 C 225.37 414.87 247.86 364.86 280.97 323.00 C 291.48 309.70 314.36 286.84 328.00 275.99 C 351.10 257.62 383.99 238.83 409.33 229.52 C 467.14 208.28 526.12 205.67 588.32 221.59 C 628.09 231.77 663.47 249.03 697.50 274.86 C 710.09 284.42 738.37 312.49 748.00 325.00 C 777.16 362.86 796.75 404.94 805.48 448.50 C 809.66 469.33 810.50 479.81 810.47 510.50 C 810.45 541.26 809.54 552.56 805.36 574.35 C 794.11 632.93 763.24 687.80 719.04 727.78 C 691.84 752.39 658.40 773.14 625.25 785.98 C 619.06 788.38 614.00 790.49 614.00 790.67 C 614.00 790.85 628.29 791.00 645.76 791.00 C 676.13 791.00 677.70 790.91 681.51 788.89 Z M 232.61 741.66 C 234.56 739.98 235.33 738.37 235.33 736.00 C 235.33 733.63 234.56 732.02 232.61 730.34 L 229.89 728.00 L 198.90 728.00 L 167.91 728.00 L 165.45 730.45 C 163.91 732.00 163.00 734.05 163.00 736.00 C 163.00 737.95 163.91 740.00 165.45 741.55 L 167.91 744.00 L 198.90 744.00 L 229.89 744.00 L 232.61 741.66 Z" stroke-linecap="round"/>
</g>
</g>
</g>

  </svg>