<svg xmlns="http://www.w3.org/2000/svg" xmlns:xlink="http://www.w3.org/1999/xlink" width="341px" height="500px" viewBox="0 0 340.6991192180117 500">
    <g id="b0f47ca8-17bc-40da-a9d5-123d0ecee30f">
<g style="">
		<g id="b0f47ca8-17bc-40da-a9d5-123d0ecee30f-child-0">
<path style="stroke: rgb(193,193,193); stroke-width: 0; stroke-dasharray: none; stroke-linecap: butt; stroke-dashoffset: 0; stroke-linejoin: miter; stroke-miterlimit: 4; fill: rgb(0,0,0); fill-rule: nonzero; opacity: 1;" transform="matrix(0.724962 0 0 0.724962 170.349673 250.000168) matrix(1 0 0 1 0 0)  translate(-512.002961, -511.845891)" d="M 343.47 855.56 C 323.46 852.43 306.01 842.94 294.34 828.86 C 289.13 822.57 281.71 808.02 279.36 799.50 C 277.29 791.99 276.13 744.83 277.88 739.02 C 281.92 725.52 299.85 712.67 323.50 706.32 C 333.41 703.66 333.88 703.63 373.25 703.24 C 395.11 703.02 413.00 702.61 413.00 702.33 C 413.00 702.05 409.13 697.70 404.41 692.66 C 371.57 657.64 350.95 614.76 343.48 566.00 C 341.25 551.38 340.44 518.33 341.92 502.39 C 343.74 482.95 347.35 463.28 353.42 439.73 C 359.78 415.05 363.22 397.78 365.45 379.29 C 367.96 358.42 368.98 329.61 368.00 307.03 C 367.08 285.82 367.38 283.42 371.34 280.13 C 373.99 277.94 379.48 277.66 383.40 279.52 C 393.21 284.18 414.97 317.37 425.33 343.51 C 428.39 351.21 433.97 369.27 436.46 379.50 C 437.16 382.38 437.39 382.11 442.05 373.00 C 452.64 352.30 461.81 325.43 466.24 302.12 C 468.16 292.03 468.45 287.07 468.47 264.50 C 468.50 235.61 467.51 225.85 461.34 194.69 C 459.34 184.58 458.09 175.79 458.45 174.36 C 459.49 170.20 463.43 167.00 467.52 167.00 C 472.16 167.00 473.88 167.95 483.15 175.66 C 517.68 204.33 548.81 253.12 563.49 301.55 C 571.78 328.88 574.78 351.75 575.93 396.47 C 576.83 431.18 577.45 435.18 582.71 440.44 C 591.67 449.40 603.14 433.93 608.98 405.00 C 610.04 399.78 611.60 389.05 612.47 381.16 C 613.33 373.27 614.49 365.95 615.05 364.91 C 618.06 359.27 626.40 358.09 631.13 362.62 C 638.50 369.69 656.65 403.44 664.43 424.57 C 677.74 460.71 683.09 490.04 683.12 527.00 C 683.14 550.61 681.18 568.18 676.34 588.00 C 666.88 626.73 646.27 664.70 619.35 692.99 C 614.76 697.81 611.00 702.04 611.00 702.38 C 611.00 702.72 626.64 703.01 645.75 703.02 C 664.86 703.03 683.65 703.49 687.50 704.03 C 707.70 706.91 726.84 714.98 736.99 724.91 C 746.72 734.43 746.95 735.33 746.98 763.68 C 747.00 789.99 746.16 796.74 741.34 808.85 C 737.25 819.11 731.63 827.20 722.86 835.45 C 713.73 844.04 701.92 850.50 688.50 854.26 L 680.50 856.50 L 516.00 856.66 C 388.03 856.79 349.72 856.54 343.47 855.56 Z M 680.50 831.50 C 696.06 828.23 709.87 818.49 716.28 806.27 C 719.87 799.42 723.00 789.35 723.00 784.64 L 723.00 782.07 L 718.42 784.04 C 712.39 786.62 700.44 789.59 690.50 790.98 C 684.77 791.78 632.67 792.01 507.00 791.76 C 313.75 791.39 328.54 791.86 309.23 785.42 C 305.23 784.09 301.69 783.00 301.37 783.00 C 300.27 783.00 302.17 792.42 304.56 798.74 C 310.74 815.18 324.06 826.60 342.23 831.07 C 349.05 832.74 359.49 832.86 511.50 832.91 C 650.33 832.96 674.50 832.76 680.50 831.50 Z M 698.50 765.74 C 708.18 762.93 719.13 756.96 721.72 753.10 C 724.82 748.48 724.60 746.67 720.38 742.00 C 716.06 737.22 707.63 733.01 696.00 729.83 L 687.50 727.50 L 511.00 727.50 L 334.50 727.50 L 325.68 730.27 C 320.83 731.79 315.07 733.95 312.88 735.06 C 307.44 737.84 301.33 743.53 300.58 746.53 C 298.69 754.05 310.79 762.31 329.65 766.38 C 335.56 767.65 360.81 767.83 514.50 767.67 C 680.67 767.50 692.90 767.38 698.50 765.74 Z M 564.34 697.66 C 588.22 672.95 598.74 611.47 587.49 562.24 L 585.83 554.98 L 576.31 565.00 C 559.85 582.31 541.81 594.00 531.57 594.00 C 527.64 594.00 526.34 593.49 523.79 590.94 C 520.88 588.03 520.76 587.60 521.29 581.69 C 521.60 578.29 522.65 570.78 523.63 565.00 C 526.10 550.47 526.11 517.42 523.65 504.00 C 521.09 490.04 517.54 477.23 513.01 465.64 C 506.82 449.81 507.73 449.97 498.37 463.17 C 458.59 519.26 433.95 580.08 434.03 622.00 C 434.04 631.65 436.53 648.30 439.48 658.50 C 440.90 663.45 444.55 672.59 447.58 678.81 C 452.01 687.91 454.36 691.39 459.53 696.56 L 465.96 703.00 L 512.57 703.00 L 559.17 703.00 L 564.34 697.66 Z M 414.89 660.06 C 406.77 627.04 408.83 597.03 421.91 558.03 C 435.48 517.55 457.48 477.28 489.69 433.93 C 495.24 426.47 501.21 419.16 502.96 417.68 C 507.41 413.94 512.20 414.05 516.13 417.97 C 520.34 422.19 533.03 449.02 538.37 465.00 C 547.41 492.08 550.41 511.49 549.86 539.35 L 549.49 557.72 L 551.67 556.30 C 554.51 554.43 565.07 542.19 575.32 528.87 C 579.82 523.03 584.69 517.52 586.15 516.62 C 589.23 514.74 593.25 514.53 596.17 516.09 C 601.77 519.09 611.72 551.43 615.06 577.50 C 615.69 582.45 616.20 594.83 616.19 605.00 C 616.17 625.53 614.65 638.31 609.98 657.45 C 608.38 664.02 607.17 669.51 607.31 669.64 C 607.82 670.15 617.74 657.55 623.74 648.77 C 631.97 636.74 642.91 614.43 647.91 599.50 C 652.63 585.36 656.40 567.21 658.08 550.50 C 659.56 535.79 658.72 503.70 656.50 489.50 C 652.60 464.62 645.56 440.23 637.16 422.54 L 632.43 412.58 L 630.15 421.04 C 628.90 425.69 625.65 434.11 622.93 439.74 C 614.25 457.68 602.46 467.11 588.60 467.19 C 574.47 467.27 563.82 459.89 557.53 445.66 C 553.34 436.19 552.18 425.94 551.62 393.50 C 550.98 356.51 548.49 336.77 541.35 312.11 C 532.64 281.99 515.80 249.09 497.09 225.66 C 493.65 221.35 490.71 217.98 490.55 218.16 C 490.39 218.35 490.92 222.77 491.73 228.00 C 494.00 242.73 493.98 282.43 491.68 297.00 C 488.17 319.33 482.57 339.20 472.67 364.50 C 468.10 376.18 442.14 429.55 437.01 437.81 C 434.19 442.35 428.96 444.47 424.34 442.95 C 419.27 441.27 417.01 436.99 416.99 429.00 C 416.93 399.77 409.67 366.51 398.11 342.48 L 393.30 332.50 L 392.60 346.00 C 390.75 381.60 387.79 400.83 378.01 441.00 C 374.19 456.67 370.19 474.90 369.12 481.50 C 358.83 545.00 369.04 600.90 399.44 647.50 C 403.76 654.12 416.64 671.00 417.37 671.00 C 417.48 671.00 416.37 666.08 414.89 660.06 Z" stroke-linecap="round"/>
</g>
</g>
</g>

  </svg>