<svg xmlns="http://www.w3.org/2000/svg" xmlns:xlink="http://www.w3.org/1999/xlink" width="500px" height="333px" viewBox="0 0 499.9999999999998 332.5404850988385">
    <g id="af7ae534-8abb-4800-ba4b-dfd083582096">
<g style="">
		<g id="af7ae534-8abb-4800-ba4b-dfd083582096-child-0">
<path style="stroke: rgb(193,193,193); stroke-width: 0; stroke-dasharray: none; stroke-linecap: butt; stroke-dashoffset: 0; stroke-linejoin: miter; stroke-miterlimit: 4; fill: rgb(0,0,0); fill-rule: nonzero; opacity: 1;" transform="matrix(0.771739 0 0 0.771739 250.000126 166.270326) matrix(1 0 0 1 0 0)  translate(-512.040873, -511.45891)" d="M 243.84 725.14 C 240.72 724.11 236.62 722.31 234.73 721.14 C 229.34 717.81 222.12 709.49 219.18 703.22 L 216.50 697.50 L 216.22 621.42 L 215.94 545.33 L 211.72 542.98 C 206.04 539.82 197.12 530.57 193.78 524.37 C 184.00 506.25 187.04 483.46 201.38 467.36 C 217.22 449.59 240.97 444.70 264.15 454.44 C 265.67 455.08 265.84 452.18 266.24 419.82 C 266.66 385.67 266.76 384.18 269.27 374.79 C 277.40 344.35 297.24 320.40 325.50 306.89 C 337.10 301.35 347.65 298.42 361.00 297.03 C 373.98 295.67 651.45 295.67 663.50 297.03 C 677.13 298.56 687.35 301.52 699.63 307.49 C 726.10 320.38 745.53 343.11 753.46 370.47 C 757.20 383.37 758.28 397.54 757.84 427.96 C 757.63 442.83 757.66 455.00 757.90 455.00 C 758.15 455.00 761.62 453.87 765.62 452.49 C 780.36 447.40 793.29 448.26 807.22 455.23 C 837.71 470.49 845.55 509.71 823.04 534.25 C 820.39 537.14 815.94 540.85 813.15 542.50 L 808.08 545.50 L 807.79 621.00 L 807.50 696.50 L 805.17 702.28 C 801.90 710.38 793.59 719.09 785.18 723.23 C 778.96 726.29 777.88 726.50 768.02 726.50 C 758.69 726.50 756.85 726.20 751.76 723.81 C 744.15 720.24 739.73 716.76 735.49 710.98 C 730.49 704.18 728.83 698.89 728.12 687.50 L 727.50 677.50 L 723.83 677.19 L 720.16 676.89 L 719.83 695.69 C 719.52 713.27 719.35 714.74 717.20 718.20 C 715.93 720.23 713.24 722.93 711.20 724.18 L 707.51 726.47 L 512.51 726.48 L 317.50 726.50 L 313.50 724.18 C 305.78 719.71 305.54 718.93 305.19 697.25 L 304.88 678.00 L 300.56 678.00 L 296.23 678.00 L 295.83 687.75 C 295.49 696.11 294.99 698.46 292.29 704.20 C 288.28 712.76 281.75 719.28 273.22 723.28 C 264.61 727.31 252.70 728.06 243.84 725.14 Z M 266.46 702.92 C 268.57 701.50 271.09 698.41 272.55 695.44 L 275.05 690.38 L 274.77 593.92 L 274.50 497.46 L 271.22 490.79 C 262.79 473.67 243.49 466.21 227.50 473.88 C 216.06 479.37 209.63 489.13 209.63 501.00 C 209.63 512.23 215.15 520.76 225.54 525.61 C 230.78 528.05 235.18 532.05 236.43 535.50 C 236.83 536.60 237.10 571.14 237.04 612.25 C 236.96 665.04 237.25 688.24 238.05 691.25 C 241.44 704.00 256.00 709.98 266.46 702.92 Z M 775.54 704.12 C 780.47 701.88 784.57 697.19 785.96 692.22 C 786.62 689.81 786.99 661.66 786.99 612.40 L 787.00 536.30 L 789.28 532.91 C 790.68 530.84 794.44 527.96 799.03 525.45 C 804.60 522.40 807.31 520.17 809.68 516.67 C 819.68 501.92 813.89 482.67 796.80 473.88 C 790.25 470.51 779.22 470.16 771.53 473.06 C 764.47 475.72 756.53 483.12 753.30 490.05 C 748.98 499.32 748.88 501.93 749.20 599.66 L 749.50 692.83 L 752.50 697.09 C 756.02 702.08 762.83 706.01 767.91 705.98 C 769.88 705.97 773.32 705.13 775.54 704.12 Z M 698.78 691.25 L 698.50 677.50 L 512.25 677.25 L 326.00 676.99 L 326.00 691.00 L 326.00 705.00 L 512.53 705.00 L 699.06 705.00 L 698.78 691.25 Z M 728.00 636.50 L 728.00 617.00 L 512.25 617.25 L 296.50 617.50 L 296.23 635.47 C 296.08 645.35 296.17 654.01 296.44 654.72 C 296.84 655.76 337.96 656.00 512.47 656.00 L 728.00 656.00 L 728.00 636.50 Z M 728.00 576.50 L 728.00 557.00 L 512.00 557.00 L 296.00 557.00 L 296.00 575.83 C 296.00 586.19 296.30 594.97 296.67 595.33 C 297.03 595.70 394.23 596.00 512.67 596.00 L 728.00 596.00 L 728.00 576.50 Z M 728.24 514.75 C 728.70 492.63 729.33 489.01 734.45 479.11 C 735.94 476.21 736.07 471.30 735.76 430.19 C 735.42 386.35 735.31 384.20 733.18 377.17 C 725.14 350.73 706.02 331.19 679.00 321.80 L 669.50 318.50 L 515.00 318.23 C 380.10 317.99 359.57 318.15 353.16 319.48 C 322.78 325.75 298.33 349.35 289.86 380.55 C 287.86 387.95 287.68 391.43 287.25 430.82 L 286.79 473.14 L 290.28 480.82 C 295.20 491.65 296.00 496.71 296.00 516.88 C 296.00 526.66 296.30 534.97 296.67 535.33 C 297.03 535.70 394.19 536.00 512.57 536.00 L 727.80 536.00 L 728.24 514.75 Z M 391.21 512.85 C 385.11 511.13 384.01 507.69 384.00 490.22 C 384.00 469.41 385.55 466.00 395.01 466.00 C 398.26 466.00 399.79 466.63 402.08 468.92 L 405.00 471.85 L 405.00 489.74 L 405.00 507.63 L 402.25 510.18 C 398.93 513.28 395.60 514.08 391.21 512.85 Z M 505.78 511.45 C 501.21 508.96 500.86 505.35 501.20 464.00 L 501.50 426.13 L 504.44 423.06 C 510.38 416.87 521.24 420.06 522.14 428.28 C 522.34 430.05 522.28 448.75 522.00 469.84 L 521.50 508.18 L 518.69 510.59 C 515.44 513.38 510.02 513.74 505.78 511.45 Z M 621.77 510.08 L 618.50 507.16 L 618.50 489.65 L 618.50 472.13 L 621.33 469.17 C 626.73 463.54 635.20 464.68 638.42 471.48 C 640.31 475.45 640.68 501.74 638.93 506.78 C 636.58 513.51 627.54 515.24 621.77 510.08 Z M 389.30 446.80 C 384.06 444.27 383.92 442.82 384.22 393.45 L 384.50 347.83 L 387.77 344.92 C 392.33 340.84 398.00 340.85 402.08 344.92 L 405.00 347.85 L 405.00 394.49 C 405.00 424.57 404.63 441.81 403.97 443.06 C 401.74 447.22 394.18 449.16 389.30 446.80 Z M 623.31 446.05 C 621.18 444.75 619.78 442.86 619.08 440.34 C 618.42 437.93 618.13 420.55 618.27 392.20 L 618.50 347.84 L 621.77 344.92 C 626.28 340.88 631.72 340.88 636.23 344.92 L 639.50 347.84 L 639.50 395.00 L 639.50 442.16 L 636.23 445.08 C 632.34 448.56 627.97 448.89 623.31 446.05 Z M 505.71 399.98 C 501.33 396.54 500.77 392.75 501.18 369.32 L 501.56 347.78 L 504.80 344.89 C 511.20 339.17 520.91 342.39 522.48 350.74 C 522.87 352.81 522.86 363.93 522.46 375.46 L 521.73 396.42 L 518.94 399.21 C 515.47 402.69 509.58 403.03 505.71 399.98 Z" stroke-linecap="round"/>
</g>
</g>
</g>

  </svg>