<svg xmlns="http://www.w3.org/2000/svg" xmlns:xlink="http://www.w3.org/1999/xlink" width="475px" height="500px" viewBox="0 0 474.7846249825834 500">
    <g id="3d363aba-5aab-4c2a-8cf5-b40086021355">
<g style="">
		<g id="3d363aba-5aab-4c2a-8cf5-b40086021355-child-0">
<path style="stroke: rgb(193,193,193); stroke-width: 0; stroke-dasharray: none; stroke-linecap: butt; stroke-dashoffset: 0; stroke-linejoin: miter; stroke-miterlimit: 4; fill: rgb(0,0,0); fill-rule: nonzero; opacity: 1;" transform="matrix(0.863959 0 0 0.863959 237.392437 250.00013) matrix(1 0 0 1 0 0)  translate(-512.227197, -512.538734)" d="M 244.00 800.25 C 238.97 797.73 236.36 792.08 237.89 786.98 C 240.60 777.93 250.74 774.98 257.58 781.25 C 264.19 787.31 262.62 797.17 254.51 800.56 C 250.04 802.43 248.25 802.37 244.00 800.25 Z M 293.11 798.44 C 289.21 795.16 288.24 790.41 290.48 785.67 C 293.36 779.62 296.04 779.00 319.29 779.00 L 339.77 779.00 L 340.15 768.74 C 340.48 760.03 340.95 757.62 343.30 752.83 C 346.49 746.30 352.06 740.88 358.79 737.74 C 361.38 736.53 363.69 735.41 363.93 735.26 C 364.16 735.11 363.18 733.75 361.74 732.24 C 360.30 730.73 357.98 727.03 356.57 724.00 L 354.02 718.50 L 354.02 683.50 L 354.02 648.50 L 356.57 643.00 C 357.97 639.97 360.98 635.59 363.27 633.25 L 367.42 629.00 L 359.92 629.00 C 351.03 629.00 342.19 626.89 336.07 623.30 C 326.97 617.97 319.01 607.18 316.05 596.17 C 315.05 592.47 309.00 542.40 309.00 537.86 C 309.00 536.44 307.13 536.17 294.75 535.83 C 282.03 535.48 279.90 535.16 274.95 532.87 C 251.57 522.04 245.80 493.15 263.47 475.47 C 270.49 468.46 277.50 465.60 288.75 465.16 C 293.84 464.97 298.00 464.51 298.00 464.14 C 298.00 463.77 293.91 426.80 288.92 381.99 C 278.77 290.90 278.61 287.75 283.43 273.50 C 291.01 251.05 308.67 233.83 332.50 225.62 C 338.37 223.60 340.51 223.55 434.00 223.24 C 495.70 223.04 531.84 223.29 536.12 223.96 C 552.81 226.53 568.30 234.39 580.60 246.50 C 593.25 258.97 601.04 274.21 603.96 292.21 C 604.60 296.14 604.99 331.12 604.99 385.33 C 605.00 433.09 605.34 472.00 605.75 471.79 C 606.16 471.58 609.20 470.08 612.50 468.45 L 618.50 465.50 L 682.50 465.50 L 746.50 465.50 L 752.19 468.29 C 759.52 471.89 767.19 480.22 769.93 487.54 C 775.64 502.80 769.65 521.30 756.25 529.81 C 748.08 535.00 742.66 536.00 722.82 536.00 L 705.00 536.00 L 705.00 543.91 L 705.00 551.82 L 708.89 552.48 C 715.17 553.54 724.59 558.54 729.41 563.36 C 734.77 568.72 738.35 575.46 739.95 583.25 C 744.10 603.32 729.32 623.96 707.88 628.02 C 705.04 628.56 695.09 629.00 685.76 629.00 L 668.80 629.00 L 673.82 634.49 C 682.04 643.48 682.14 644.16 681.80 685.15 C 681.51 719.38 681.43 720.63 679.30 724.62 C 678.09 726.88 675.94 730.11 674.53 731.78 L 671.96 734.84 L 677.38 737.32 C 684.01 740.35 689.86 746.04 693.08 752.58 C 695.35 757.19 695.52 758.73 695.81 776.87 C 696.11 795.76 696.07 796.30 693.89 798.62 L 691.65 801.00 L 493.90 801.00 L 296.15 801.00 L 293.11 798.44 Z M 672.08 776.08 C 674.55 773.60 675.00 772.37 675.00 767.98 C 675.00 763.42 674.59 762.39 671.60 759.40 L 668.20 756.00 L 518.68 756.00 L 369.15 756.00 L 366.14 758.53 C 360.15 763.58 359.69 771.88 365.15 776.47 L 368.15 779.00 L 518.65 779.00 L 669.15 779.00 L 672.08 776.08 Z M 621.02 729.67 C 616.58 723.49 615.00 717.24 615.00 705.84 L 615.00 696.00 L 518.00 696.00 L 421.00 696.00 L 421.00 705.82 C 421.00 717.20 419.34 723.85 415.00 729.84 L 411.99 734.00 L 518.06 734.00 L 624.12 734.00 L 621.02 729.67 Z M 395.75 718.44 L 399.00 715.03 L 399.00 683.41 L 399.00 651.80 L 395.60 648.40 C 392.65 645.45 391.55 645.00 387.23 645.00 C 381.16 645.00 377.51 647.52 375.96 652.80 C 375.25 655.21 374.98 666.68 375.19 685.68 C 375.49 713.47 375.60 714.99 377.59 717.68 C 380.09 721.04 385.34 723.11 389.50 722.38 C 391.15 722.09 393.96 720.32 395.75 718.44 Z M 654.81 720.97 C 660.83 717.31 661.14 715.25 660.80 682.15 C 660.46 648.47 660.46 648.49 652.42 645.42 C 648.53 643.93 647.56 643.90 644.36 645.11 C 642.35 645.88 639.77 647.77 638.61 649.32 C 636.59 652.02 636.49 653.43 636.21 682.00 C 635.88 715.31 636.19 717.32 642.19 720.97 C 646.40 723.54 650.60 723.54 654.81 720.97 Z M 615.18 660.75 C 615.61 645.38 617.26 640.40 624.26 633.25 L 628.42 629.00 L 517.73 629.00 L 407.05 629.00 L 411.30 633.25 C 418.70 640.66 420.36 645.44 420.81 660.75 L 421.20 674.00 L 518.00 674.00 L 614.80 674.00 L 615.18 660.75 Z M 708.80 605.60 C 713.09 603.38 717.81 597.53 718.57 593.49 C 720.01 585.80 715.97 578.25 708.62 574.91 C 704.65 573.11 698.22 573.04 527.96 573.02 L 351.42 573.00 L 346.97 575.25 C 340.70 578.42 338.00 582.86 338.00 590.00 C 338.00 599.39 343.85 605.93 353.29 607.09 C 356.16 607.44 436.67 607.59 532.20 607.42 C 684.23 607.14 706.26 606.92 708.80 605.60 Z M 338.79 555.51 C 341.52 554.14 345.49 552.66 347.62 552.22 L 351.50 551.42 L 351.79 543.71 L 352.08 536.00 L 341.40 536.00 L 330.72 536.00 L 331.42 544.75 C 332.09 553.12 332.86 558.00 333.53 558.00 C 333.70 558.00 336.07 556.88 338.79 555.51 Z M 583.76 426.76 C 584.04 287.98 584.21 291.92 577.39 278.05 C 572.49 268.06 560.41 255.82 550.95 251.24 C 537.76 244.86 540.93 245.03 437.86 245.01 C 347.25 245.00 344.00 245.06 337.78 246.99 C 324.51 251.09 312.78 261.37 306.52 274.39 C 300.28 287.40 300.27 289.01 306.06 341.82 C 308.88 367.49 313.07 405.60 315.36 426.50 L 319.52 464.50 L 366.01 465.00 L 412.50 465.50 L 417.50 467.96 C 425.08 471.68 433.22 480.32 435.93 487.51 C 437.80 492.47 438.12 494.96 437.79 502.00 C 437.45 509.29 436.92 511.39 434.05 516.77 C 430.06 524.25 424.76 529.28 417.12 532.86 C 411.78 535.37 410.57 535.52 392.75 535.83 L 374.00 536.16 L 374.00 543.41 C 374.00 547.40 374.19 550.85 374.42 551.08 C 374.65 551.31 421.78 551.39 479.17 551.26 L 583.50 551.02 L 583.76 426.76 Z M 682.79 543.79 L 683.08 536.08 L 650.79 535.79 L 618.50 535.50 L 612.50 532.55 C 609.20 530.92 606.16 529.42 605.75 529.21 C 604.82 528.74 604.75 550.41 605.68 551.35 C 606.05 551.72 623.49 551.91 644.43 551.76 L 682.50 551.50 L 682.79 543.79 Z M 408.99 512.73 C 419.49 507.17 419.49 493.49 408.98 487.85 C 405.73 486.11 402.02 486.00 345.73 486.00 C 280.63 486.00 281.30 485.94 277.27 491.64 C 271.50 499.81 275.22 511.15 284.60 513.96 C 286.20 514.44 313.87 514.87 346.09 514.91 L 404.69 515.00 L 408.99 512.73 Z M 740.17 513.97 C 744.75 512.70 749.52 507.39 750.42 502.55 C 751.26 498.07 748.39 491.53 744.24 488.50 C 741.58 486.56 739.69 486.49 683.01 486.23 C 640.74 486.03 623.76 486.27 621.76 487.10 C 620.24 487.73 617.59 489.84 615.89 491.78 C 613.02 495.05 612.81 495.76 613.21 501.16 C 613.55 505.92 614.17 507.56 616.53 510.03 C 618.12 511.69 620.79 513.45 622.46 513.94 C 626.83 515.21 735.60 515.24 740.17 513.97 Z M 728.00 799.72 C 724.58 798.01 721.82 792.29 722.58 788.50 C 722.92 786.85 724.50 784.15 726.11 782.50 L 729.03 779.50 L 753.19 779.20 C 770.17 778.99 778.19 779.25 780.20 780.08 C 784.46 781.85 787.00 785.64 787.00 790.23 C 787.00 793.41 786.32 794.88 783.60 797.60 L 780.20 801.00 L 755.35 800.99 C 737.51 800.97 729.80 800.62 728.00 799.72 Z M 381.39 439.02 C 373.28 435.74 372.83 423.13 380.68 419.12 C 383.44 417.71 423.79 417.59 427.43 418.98 C 430.41 420.11 433.99 425.47 434.00 428.80 C 434.00 432.37 431.26 436.81 428.03 438.48 C 425.67 439.70 421.03 439.99 404.30 439.94 C 392.86 439.90 382.55 439.49 381.39 439.02 Z M 480.50 439.05 C 474.93 436.74 472.11 430.06 474.40 424.57 C 477.02 418.32 479.23 417.86 504.47 418.20 C 526.54 418.50 526.88 418.53 529.41 420.91 C 534.54 425.74 533.62 434.43 527.58 438.11 C 524.82 439.80 522.35 439.99 503.50 439.93 C 491.95 439.90 481.60 439.50 480.50 439.05 Z M 380.50 360.84 C 376.77 358.79 375.04 355.66 375.05 351.00 C 375.06 346.22 376.01 344.44 379.97 341.70 C 382.11 340.23 385.31 340.00 403.77 340.00 C 420.88 340.00 425.68 340.30 428.03 341.52 C 431.19 343.15 434.00 347.61 434.00 351.00 C 434.00 354.39 431.19 358.85 428.03 360.48 C 425.67 361.70 420.93 361.99 403.80 361.97 C 390.25 361.95 381.77 361.54 380.50 360.84 Z M 478.35 360.07 C 474.17 357.53 472.40 352.34 474.03 347.42 C 476.28 340.59 478.57 340.01 503.00 340.01 C 522.44 340.01 524.80 340.19 527.65 341.93 C 531.83 344.47 533.60 349.66 531.97 354.58 C 529.72 361.41 527.43 361.99 503.00 361.99 C 483.56 361.99 481.20 361.81 478.35 360.07 Z" stroke-linecap="round"/>
</g>
</g>
</g>

  </svg>