<svg xmlns="http://www.w3.org/2000/svg" xmlns:xlink="http://www.w3.org/1999/xlink" width="1579px" height="2584px" viewBox="0 0 1578.9546731245302 2583.4749672376493">
    <g id="69fd3f66-09e1-4830-9540-46c9c428ec6f">
<g style="">
		<g id="69fd3f66-09e1-4830-9540-46c9c428ec6f-child-0">
<path style="stroke: rgb(193,193,193); stroke-width: 0; stroke-dasharray: none; stroke-linecap: butt; stroke-dashoffset: 0; stroke-linejoin: miter; stroke-miterlimit: 4; fill: rgb(0,0,0); fill-rule: nonzero; opacity: 1;" transform="matrix(3.818926 0 0 3.818926 789.477357 1291.737517) matrix(1 0 0 1 0 0)  translate(-512.106307, -511.546469)" d="M 483.67 847.99 C 469.58 845.43 450.76 839.13 437.82 832.62 C 383.89 805.52 350.15 754.93 345.02 693.50 C 343.68 677.41 343.65 427.13 344.99 420.06 C 347.03 409.32 352.86 401.83 362.85 397.15 C 368.48 394.51 368.58 394.50 396.75 394.19 L 425.00 393.89 L 425.00 322.98 L 425.00 252.08 L 379.75 251.79 L 334.50 251.50 L 328.78 248.82 C 312.76 241.31 302.88 222.96 305.93 206.39 C 309.07 189.38 321.60 177.22 339.39 173.94 C 346.84 172.56 347.78 172.72 383.50 181.60 C 404.42 186.80 415.64 190.10 420.56 192.49 C 429.56 196.86 437.85 205.34 442.28 214.71 L 445.50 221.50 L 445.78 307.75 L 446.05 394.00 L 464.28 394.00 L 482.50 394.00 L 482.23 332.75 C 482.09 298.75 482.38 268.51 482.90 264.78 C 484.76 251.30 492.98 239.53 504.32 234.10 C 509.48 231.62 515.28 230.37 539.50 226.49 C 572.04 221.28 575.19 221.25 584.95 226.13 C 603.97 235.64 608.96 260.40 595.04 276.22 C 592.89 278.65 588.30 282.19 584.82 284.07 L 578.50 287.50 L 541.25 287.81 L 504.00 288.11 L 504.00 341.06 L 504.00 394.00 L 555.96 394.00 L 607.92 394.00 L 608.21 351.75 L 608.50 309.50 L 611.76 302.83 C 615.40 295.40 622.26 288.51 629.51 284.99 C 632.43 283.58 642.25 281.44 657.74 278.85 C 686.79 273.98 692.48 274.01 701.95 279.06 C 725.27 291.48 724.22 323.90 700.12 335.74 L 694.50 338.50 L 662.00 339.00 L 629.50 339.50 L 629.23 366.66 L 628.97 393.81 L 643.23 394.18 C 656.37 394.52 657.91 394.76 662.61 397.22 C 669.33 400.73 676.41 408.70 678.55 415.16 C 680.77 421.83 680.13 431.88 677.11 437.79 C 674.18 443.53 668.51 449.04 662.46 452.04 L 657.50 454.50 L 511.75 454.76 L 366.00 455.03 L 366.02 570.26 C 366.03 638.63 366.44 689.36 367.02 695.00 C 370.80 731.47 384.35 760.39 409.47 785.55 C 422.02 798.12 432.48 805.83 446.67 812.96 C 482.38 830.89 519.72 833.80 556.59 821.52 C 603.52 805.89 640.55 766.54 653.08 719.00 C 657.92 700.60 658.00 698.60 658.00 589.46 C 658.00 476.85 657.68 482.77 663.97 479.52 C 667.68 477.60 670.32 477.60 674.03 479.52 C 680.45 482.84 680.12 476.24 679.72 593.78 C 679.31 710.16 679.57 704.77 673.43 726.50 C 656.24 787.37 606.73 833.64 544.34 847.14 C 529.80 850.28 498.74 850.72 483.67 847.99 Z M 655.42 431.08 C 658.94 427.77 659.00 421.91 655.55 418.45 L 653.09 416.00 L 512.77 416.00 C 357.63 416.00 369.32 415.48 367.02 422.44 C 365.54 426.93 367.77 431.69 371.77 432.57 C 373.27 432.90 374.84 433.25 375.25 433.34 C 375.66 433.43 438.29 433.50 514.42 433.50 L 652.84 433.50 L 655.42 431.08 Z M 693.92 313.92 C 699.36 308.49 697.60 300.40 690.32 297.36 C 687.19 296.05 685.07 296.24 665.70 299.51 C 654.04 301.48 642.90 303.51 640.95 304.03 C 636.27 305.27 630.00 312.08 630.00 315.93 C 630.00 316.67 639.56 317.00 660.42 317.00 L 690.85 317.00 L 693.92 313.92 Z M 577.92 262.57 C 585.60 255.22 580.59 244.00 569.63 244.00 C 563.70 244.00 516.70 252.05 513.36 253.64 C 509.35 255.54 507.48 257.60 505.51 262.32 L 503.94 266.07 L 539.41 265.79 L 574.87 265.50 L 577.92 262.57 Z M 423.72 226.96 C 423.09 222.24 419.40 217.03 413.85 213.01 C 410.66 210.70 404.41 208.80 380.88 203.02 C 364.91 199.10 349.69 195.63 347.06 195.32 C 340.63 194.56 335.85 196.32 331.62 201.00 C 323.56 209.93 326.47 224.13 337.38 229.09 C 341.19 230.81 344.63 230.96 382.88 230.98 L 424.26 231.00 L 423.72 226.96 Z M 481.57 805.40 C 466.28 801.21 450.64 793.88 438.50 785.23 C 417.56 770.29 399.40 746.12 391.54 722.72 C 389.50 716.63 389.24 714.71 390.07 711.72 C 391.42 706.81 395.21 704.00 400.45 704.00 C 406.04 704.00 408.93 707.15 412.96 717.67 C 419.52 734.81 433.06 753.29 447.34 764.60 C 459.56 774.28 480.81 784.01 495.32 786.57 C 506.40 788.53 509.49 801.59 500.03 806.48 C 496.07 808.53 492.13 808.30 481.57 805.40 Z M 487.50 765.12 C 473.19 759.96 462.38 753.23 452.12 743.11 C 441.22 732.37 432.37 717.71 427.79 702.82 L 425.54 695.50 L 425.24 590.76 C 424.90 473.96 424.47 481.37 431.77 478.32 C 436.79 476.22 442.35 477.89 445.04 482.30 C 446.94 485.42 446.99 488.17 447.01 587.00 C 447.03 674.02 447.25 689.41 448.54 694.91 C 453.72 716.90 472.28 737.03 493.85 744.08 C 504.42 747.53 508.31 752.50 505.97 759.59 C 503.61 766.75 497.27 768.65 487.50 765.12 Z M 610.33 745.32 C 607.09 744.66 603.13 740.22 602.42 736.44 C 601.93 733.83 602.59 731.43 605.44 725.43 C 607.44 721.21 610.16 714.01 611.49 709.44 C 613.88 701.18 617.00 682.98 617.00 677.26 C 617.00 670.52 624.84 665.65 631.34 668.37 C 637.30 670.86 638.37 673.60 637.73 684.79 C 636.45 707.36 626.78 738.86 619.75 743.41 C 617.04 745.16 613.28 745.92 610.33 745.32 Z M 391.39 679.02 C 390.23 678.55 388.31 676.93 387.12 675.43 L 384.97 672.69 L 385.24 578.37 L 385.50 484.05 L 388.05 481.49 C 393.09 476.45 401.39 477.30 405.00 483.23 C 406.95 486.44 406.99 488.31 407.00 579.53 C 407.00 681.78 407.40 675.19 400.99 678.51 C 397.80 680.15 394.61 680.32 391.39 679.02 Z" stroke-linecap="round"/>
</g>
</g>
</g>

  </svg>