<svg xmlns="http://www.w3.org/2000/svg" xmlns:xlink="http://www.w3.org/1999/xlink" width="1906px" height="2057px" viewBox="0 0 1906.050175346466 2057.1207630413555">
    <g id="0fe45587-6c99-4d20-a515-874a04d23f49">
<g style="">
		<g id="0fe45587-6c99-4d20-a515-874a04d23f49-child-0">
<path style="stroke: rgb(193,193,193); stroke-width: 0; stroke-dasharray: none; stroke-linecap: butt; stroke-dashoffset: 0; stroke-linejoin: miter; stroke-miterlimit: 4; fill: rgb(0,0,0); fill-rule: nonzero; opacity: 1;" transform="matrix(4.009215 0 0 4.009215 953.025172 1028.560472) matrix(1 0 0 1 0 0)  translate(-512.258448, -512.179083)" d="M 300.01 767.26 C 293.73 765.04 284.86 755.98 282.68 749.57 C 280.58 743.40 280.53 734.74 282.55 728.79 C 285.65 719.69 295.55 711.71 305.39 710.36 L 310.00 709.73 L 310.00 663.79 L 310.00 617.85 L 306.12 611.17 C 291.39 585.85 281.75 559.55 276.74 531.00 C 274.86 520.34 274.54 514.81 274.55 493.50 C 274.56 466.14 275.82 455.74 281.94 432.41 C 298.81 368.08 347.35 309.45 408.50 279.52 C 442.68 262.79 473.66 255.64 512.00 255.63 C 550.39 255.62 581.78 262.85 615.50 279.46 C 688.38 315.35 737.39 383.30 748.45 463.78 C 750.23 476.76 750.50 505.00 748.96 518.50 C 745.42 549.59 735.34 580.10 719.10 608.92 L 714.00 617.97 L 714.00 663.98 L 714.00 710.00 L 716.82 710.00 C 725.36 710.00 736.09 717.35 740.73 726.38 C 742.81 730.43 743.37 732.96 743.41 738.50 C 743.43 742.35 742.87 747.19 742.14 749.26 C 740.12 755.10 733.90 762.19 727.92 765.50 L 722.50 768.50 L 513.50 768.68 C 324.68 768.83 304.07 768.70 300.01 767.26 Z M 720.59 745.69 C 724.04 741.68 723.84 736.68 720.08 732.92 L 717.15 730.00 L 512.54 730.00 C 285.86 730.00 304.33 729.43 302.02 736.44 C 300.68 740.51 301.85 743.95 305.57 746.88 L 308.29 749.01 L 513.23 748.76 L 718.17 748.50 L 720.59 745.69 Z M 411.94 709.36 C 414.98 708.75 414.58 708.43 403.05 702.41 C 380.37 690.54 358.32 674.21 340.75 656.25 L 331.00 646.28 L 331.00 678.14 L 331.00 710.00 L 369.88 710.00 C 391.26 710.00 410.19 709.71 411.94 709.36 Z M 693.00 677.69 L 693.00 645.88 L 681.75 657.24 C 662.82 676.34 642.70 691.25 620.52 702.61 C 614.20 705.85 609.02 708.87 609.01 709.32 C 609.01 709.77 627.90 709.99 651.00 709.82 L 693.00 709.50 L 693.00 677.69 Z M 542.96 706.41 C 591.07 699.27 635.35 676.34 669.50 640.87 C 725.38 582.83 743.91 501.51 718.57 425.49 C 695.34 355.75 636.81 300.91 566.46 282.96 C 546.66 277.91 531.73 276.00 512.00 276.00 C 464.16 276.00 421.80 290.07 383.68 318.62 C 338.78 352.25 307.42 401.94 297.97 454.44 C 287.32 513.54 301.40 573.03 337.37 620.97 C 374.16 670.01 431.98 702.22 493.50 707.94 C 506.30 709.13 529.45 708.41 542.96 706.41 Z M 495.24 688.94 C 448.07 684.78 404.15 664.04 370.16 629.88 C 339.61 599.17 321.69 563.49 315.44 520.90 C 313.40 507.03 313.89 473.28 316.31 460.50 C 324.13 419.21 341.11 385.84 369.31 356.34 C 406.99 316.92 457.68 295.09 511.70 295.02 C 572.78 294.94 628.61 321.90 666.93 370.00 C 714.98 430.31 724.12 509.24 690.98 577.85 C 666.01 629.55 619.26 667.90 562.87 682.94 C 541.85 688.55 516.41 690.81 495.24 688.94 Z M 543.01 666.66 C 595.33 656.91 640.62 625.11 667.18 579.50 C 677.72 561.39 686.33 535.46 689.04 513.67 C 690.78 499.71 689.76 472.42 687.01 459.50 C 675.22 403.94 639.99 358.30 589.50 333.16 C 541.14 309.07 483.14 309.07 434.52 333.14 C 405.36 347.58 378.47 371.96 361.23 399.59 C 334.83 441.92 327.35 490.94 339.98 538.84 C 350.71 579.50 377.36 615.37 415.50 640.47 C 435.58 653.68 462.11 663.67 487.25 667.49 C 499.38 669.34 531.21 668.86 543.01 666.66 Z M 504.92 655.08 L 502.00 652.15 L 502.00 636.15 C 502.00 620.45 502.05 620.10 504.56 617.11 C 507.82 613.24 512.60 612.23 516.96 614.48 C 522.08 617.13 523.14 621.08 522.54 635.28 C 522.25 642.00 522.02 648.68 522.01 650.11 C 521.98 657.56 510.68 660.84 504.92 655.08 Z M 428.40 634.60 C 423.46 629.66 423.84 627.04 431.44 613.21 C 439.72 598.15 440.30 597.39 444.45 596.02 C 450.86 593.90 458.00 599.55 458.00 606.74 C 458.00 609.51 445.22 632.14 441.91 635.25 C 437.62 639.26 432.83 639.03 428.40 634.60 Z M 585.36 637.01 C 582.54 635.87 579.50 631.67 572.64 619.44 C 568.73 612.47 567.00 608.28 567.00 605.82 C 567.00 598.63 574.57 593.54 581.16 596.30 C 583.92 597.45 585.78 599.94 591.82 610.59 C 595.85 617.68 599.37 624.61 599.65 625.99 C 600.40 629.75 598.45 633.76 594.77 636.00 C 591.28 638.13 588.79 638.40 585.36 637.01 Z M 644.95 580.98 C 641.47 580.02 620.37 567.31 617.95 564.72 C 615.24 561.81 615.32 555.11 618.10 552.13 C 620.32 549.74 624.01 548.00 626.85 548.00 C 629.11 548.00 654.01 562.53 656.25 565.17 C 658.77 568.13 658.52 574.29 655.75 577.46 C 653.11 580.48 648.54 581.97 644.95 580.98 Z M 368.92 578.08 C 365.37 574.52 365.01 569.53 368.03 565.69 C 369.15 564.27 375.56 559.84 382.28 555.85 C 396.89 547.17 400.42 546.54 405.10 551.79 C 408.97 556.12 409.02 560.89 405.25 564.87 C 403.74 566.47 397.39 570.75 391.14 574.39 C 377.68 582.23 373.73 582.89 368.92 578.08 Z M 504.00 516.75 C 496.41 514.21 489.05 504.04 488.99 496.00 C 488.98 494.07 487.66 492.64 483.24 489.72 C 480.08 487.64 465.01 477.79 449.74 467.82 C 423.61 450.75 421.92 449.46 420.83 445.81 C 419.85 442.57 419.94 441.35 421.34 438.41 C 423.21 434.50 428.80 431.48 432.48 432.41 C 434.25 432.85 474.17 458.04 492.77 470.45 C 496.44 472.89 497.40 473.14 499.52 472.17 L 502.00 471.04 L 502.00 436.49 C 502.00 406.97 502.23 401.58 503.55 399.57 C 507.01 394.28 515.57 393.78 520.09 398.59 L 522.50 401.16 L 522.79 436.49 C 523.03 467.00 523.28 471.89 524.59 472.40 C 525.53 472.76 538.80 465.04 559.06 452.36 C 590.02 432.98 592.22 431.77 595.70 432.34 C 601.21 433.23 604.50 437.03 604.50 442.50 C 604.50 445.94 603.93 447.50 602.00 449.36 C 600.62 450.68 588.03 459.09 574.00 468.04 C 531.97 494.87 535.32 492.31 534.76 498.14 C 534.18 504.13 530.33 510.12 524.34 514.33 C 521.09 516.61 518.92 517.28 513.87 517.56 C 510.37 517.76 505.92 517.39 504.00 516.75 Z M 349.30 501.80 C 345.77 500.09 343.65 494.60 344.97 490.58 C 347.20 483.85 348.28 483.50 367.08 483.50 L 383.95 483.50 L 386.70 486.25 C 390.80 490.34 390.59 496.19 386.21 500.10 L 382.97 503.00 L 367.23 502.93 C 358.33 502.89 350.55 502.40 349.30 501.80 Z M 637.79 500.10 C 633.41 496.19 633.20 490.34 637.30 486.25 L 640.05 483.50 L 657.00 483.50 L 673.95 483.50 L 676.60 486.15 C 678.57 488.11 679.28 489.88 679.36 492.99 C 679.45 496.54 678.96 497.64 676.22 500.09 L 672.97 503.00 L 657.00 503.00 L 641.03 503.00 L 637.79 500.10 Z M 621.38 435.59 C 615.09 432.81 613.07 425.73 617.09 420.61 C 618.24 419.15 624.84 414.59 631.77 410.48 C 646.22 401.89 649.07 401.31 654.22 405.91 C 656.99 408.38 657.45 409.45 657.36 413.10 C 657.22 418.46 655.47 420.12 640.45 429.19 C 627.85 436.79 625.72 437.51 621.38 435.59 Z M 382.60 428.11 C 375.50 423.78 369.11 419.17 368.38 417.87 C 366.57 414.60 366.68 409.90 368.63 407.12 C 370.71 404.15 376.49 401.71 379.32 402.59 C 383.19 403.80 405.98 418.13 407.51 420.32 C 410.06 423.96 409.41 429.74 406.08 433.08 C 401.13 438.03 397.64 437.29 382.60 428.11 Z M 440.71 386.86 C 439.25 385.56 435.11 379.35 431.53 373.05 C 426.41 364.08 425.00 360.73 425.02 357.55 C 425.06 351.40 429.51 347.00 435.71 347.00 C 440.22 347.00 442.35 349.22 449.32 361.23 C 457.68 375.63 458.35 377.41 456.99 381.52 C 455.50 386.05 452.79 388.16 447.72 388.73 C 444.14 389.13 442.89 388.80 440.71 386.86 Z M 572.11 387.60 C 569.08 385.93 567.08 382.35 567.04 378.52 C 566.99 374.92 578.79 353.80 583.10 349.75 C 589.00 344.21 598.34 347.88 599.67 356.27 C 600.20 359.61 599.51 361.36 593.57 371.77 C 589.89 378.22 585.54 384.74 583.92 386.25 C 580.64 389.31 576.12 389.82 572.11 387.60 Z M 508.01 369.25 C 502.63 366.55 502.03 364.35 502.01 347.27 C 502.00 332.04 502.00 332.03 504.75 328.98 C 510.26 322.87 519.75 324.82 521.87 332.50 C 522.45 334.61 522.62 342.08 522.28 350.57 C 521.72 364.25 521.56 365.17 519.21 367.52 C 517.84 368.88 516.15 370.00 515.45 370.00 C 514.74 370.00 513.56 370.23 512.83 370.50 C 512.10 370.78 509.93 370.22 508.01 369.25 Z" stroke-linecap="round"/>
</g>
</g>
</g>

  </svg>