<svg xmlns="http://www.w3.org/2000/svg" xmlns:xlink="http://www.w3.org/1999/xlink" width="469px" height="500px" viewBox="0 0 469.42197224683764 500">
    <g id="243c07dc-00fe-4600-9c74-86a68a8f7800">
<g style="">
		<g id="243c07dc-00fe-4600-9c74-86a68a8f7800-child-0">
<path style="stroke: rgb(193,193,193); stroke-width: 0; stroke-dasharray: none; stroke-linecap: butt; stroke-dashoffset: 0; stroke-linejoin: miter; stroke-miterlimit: 4; fill: rgb(0,0,0); fill-rule: nonzero; opacity: 1;" transform="matrix(0.896119 0 0 0.896119 234.710909 249.999918) matrix(1 0 0 1 0 0)  translate(-512.005871, -512.013237)" d="M 306.50 789.73 C 292.52 784.01 287.68 766.99 296.90 755.95 L 299.59 752.73 L 297.30 748.19 C 295.02 743.71 295.00 743.28 295.00 706.35 L 295.00 669.04 L 291.06 667.03 C 285.01 663.95 279.00 654.79 279.00 648.67 C 279.00 646.48 278.49 646.23 272.83 645.64 C 261.97 644.51 254.32 638.35 251.44 628.44 C 250.16 624.05 249.92 618.73 250.18 600.26 C 250.53 575.60 250.82 574.14 256.77 567.78 L 259.31 565.06 L 258.41 539.78 C 257.17 505.33 257.46 494.44 259.94 482.27 C 269.20 436.86 301.14 400.73 344.50 386.63 C 351.43 384.37 376.65 378.61 440.03 364.78 L 455.57 361.39 L 487.97 337.45 C 505.79 324.28 530.53 305.99 542.94 296.81 C 611.76 245.89 622.27 238.43 628.80 235.88 C 636.48 232.88 655.22 232.05 663.17 234.36 C 669.61 236.23 676.25 241.62 679.16 247.32 C 683.35 255.52 681.50 267.88 674.97 275.29 C 672.26 278.38 622.37 316.30 610.78 324.09 C 610.01 324.61 628.80 355.79 667.98 419.00 C 674.97 430.27 686.45 448.95 693.51 460.50 C 700.56 472.05 711.23 489.43 717.21 499.12 L 728.09 516.74 L 737.80 517.21 C 748.44 517.73 753.39 519.54 758.14 524.66 C 763.75 530.72 764.45 533.32 764.83 549.86 L 765.18 565.22 L 768.51 569.59 C 773.48 576.09 774.22 581.27 773.84 606.58 L 773.50 628.66 L 770.47 633.57 C 766.31 640.29 760.46 644.01 751.93 645.35 L 745.07 646.43 L 744.00 651.47 C 742.56 658.21 739.00 663.33 733.52 666.54 L 729.00 669.19 L 728.99 706.85 C 728.98 744.41 728.97 744.51 726.65 748.56 L 724.33 752.63 L 727.06 755.90 C 735.62 766.15 732.06 782.30 719.92 788.35 C 710.81 792.89 701.48 791.53 694.63 784.68 C 686.44 776.48 685.81 763.16 693.23 755.26 C 695.36 752.99 695.36 752.98 693.43 749.24 C 691.65 745.79 691.46 742.52 691.00 707.51 L 690.50 669.53 L 685.88 667.34 C 679.87 664.48 675.33 658.90 673.21 651.75 L 671.50 646.00 L 624.75 646.00 L 578.00 646.00 L 578.00 648.53 C 578.00 655.12 572.03 663.15 564.54 666.63 C 560.54 668.50 557.79 668.98 551.25 668.99 L 543.00 669.00 L 543.00 710.41 L 543.00 751.82 L 553.42 752.16 C 563.11 752.48 564.13 752.71 568.08 755.50 C 573.58 759.39 576.45 764.94 576.36 771.50 C 576.27 777.66 574.22 781.85 569.33 785.88 C 563.23 790.91 559.89 791.18 509.00 790.82 C 463.05 790.50 462.45 790.47 458.31 788.26 C 447.49 782.48 444.14 769.63 450.99 760.17 C 455.29 754.23 460.85 752.00 471.32 752.00 L 480.00 752.00 L 480.00 710.50 L 480.00 669.00 L 472.87 669.00 C 468.94 669.00 463.99 668.48 461.86 667.84 C 454.36 665.59 447.35 657.60 445.54 649.25 L 444.84 646.00 L 398.44 646.00 L 352.04 646.00 L 351.43 648.75 C 349.27 658.49 345.31 664.09 338.41 667.14 L 334.31 668.96 L 333.66 682.64 C 333.30 690.16 333.00 707.11 333.00 720.30 C 333.00 742.93 332.88 744.53 330.82 748.64 L 328.65 753.00 L 330.71 755.25 C 334.84 759.76 336.24 763.95 335.82 770.54 C 335.08 782.13 327.01 790.19 315.63 790.69 C 312.26 790.83 308.15 790.40 306.50 789.73 Z M 319.37 774.93 C 323.01 772.06 323.01 766.94 319.37 764.07 C 313.93 759.80 307.00 762.86 307.00 769.54 C 307.00 776.27 313.86 779.26 319.37 774.93 Z M 560.55 774.55 C 563.43 771.66 563.59 770.31 561.35 767.83 C 559.79 766.11 556.93 766.00 512.04 766.00 C 476.32 766.00 464.10 766.30 463.20 767.20 C 461.21 769.19 461.77 773.73 464.22 775.44 C 466.16 776.80 472.41 777.00 512.27 777.00 L 558.09 777.00 L 560.55 774.55 Z M 714.97 775.03 C 720.08 769.92 717.61 762.78 710.54 762.18 C 703.06 761.55 699.23 769.33 704.45 774.55 C 707.47 777.56 712.22 777.78 714.97 775.03 Z M 505.00 710.50 L 505.00 669.00 L 499.50 669.00 L 494.00 669.00 L 494.00 710.50 L 494.00 752.00 L 499.50 752.00 L 505.00 752.00 L 505.00 710.50 Z M 530.00 710.50 L 530.00 669.00 L 524.50 669.00 L 519.00 669.00 L 519.00 710.50 L 519.00 752.00 L 524.50 752.00 L 530.00 752.00 L 530.00 710.50 Z M 318.76 742.44 C 319.76 742.14 319.97 734.30 319.76 705.78 L 319.50 669.50 L 314.25 669.20 L 309.00 668.90 L 309.00 706.35 L 309.00 743.81 L 313.25 743.32 C 315.59 743.05 318.07 742.66 318.76 742.44 Z M 715.84 717.70 C 716.02 704.39 715.86 687.97 715.48 681.20 L 714.79 668.90 L 709.65 669.20 L 704.50 669.50 L 704.22 704.00 C 704.07 722.97 704.18 739.49 704.48 740.69 C 704.90 742.45 705.85 742.95 709.25 743.19 C 711.59 743.36 713.95 743.14 714.50 742.70 C 715.10 742.22 715.63 732.22 715.84 717.70 Z M 335.10 652.22 C 340.62 646.04 340.50 646.00 315.50 646.00 C 294.73 646.00 293.00 646.13 293.02 647.75 C 293.06 650.64 296.43 654.13 300.07 655.04 C 301.96 655.51 309.96 655.80 317.85 655.68 L 332.19 655.47 L 335.10 652.22 Z M 725.26 655.11 C 727.04 655.00 730.99 649.58 731.00 647.25 C 731.00 646.29 725.84 646.00 708.50 646.00 C 693.46 646.00 686.00 646.35 686.00 647.05 C 686.00 649.86 689.26 654.01 692.03 654.72 C 694.42 655.34 717.16 655.61 725.26 655.11 Z M 560.06 653.97 C 561.72 653.08 565.00 648.16 565.00 646.55 C 565.00 646.25 541.15 646.00 512.00 646.00 C 453.81 646.00 456.35 645.70 461.59 651.92 L 464.18 655.00 L 511.15 655.00 C 541.46 655.00 558.81 654.63 560.06 653.97 Z M 753.99 630.51 C 759.76 627.52 760.00 626.45 760.00 604.21 C 760.00 582.36 759.96 582.17 754.35 575.57 L 751.00 571.64 L 751.00 555.97 C 751.00 547.08 750.52 538.92 749.89 537.12 C 747.59 530.52 766.74 531.00 508.05 531.00 L 273.00 531.00 L 273.00 550.38 L 273.00 569.77 L 268.50 576.34 L 264.00 582.91 L 264.00 603.73 C 264.00 621.35 264.25 624.91 265.63 626.88 C 269.36 632.21 255.20 631.92 512.30 631.96 C 722.26 632.00 751.45 631.82 753.99 630.51 Z M 289.57 514.59 C 291.26 513.44 303.63 504.28 317.07 494.24 C 351.06 468.83 437.61 404.70 479.50 373.89 C 498.75 359.73 541.95 327.87 575.50 303.10 L 636.50 258.06 L 645.50 258.04 C 657.61 258.03 658.46 258.77 651.83 263.58 C 646.32 267.59 572.40 322.16 556.50 333.97 C 534.37 350.41 489.42 383.52 477.00 392.53 C 467.80 399.21 382.69 462.24 337.75 495.65 C 322.49 506.99 310.00 516.44 310.00 516.64 C 310.00 516.84 313.94 517.00 318.75 517.00 L 327.50 517.00 L 358.65 493.75 C 400.62 462.42 505.18 385.04 540.00 359.55 C 550.17 352.09 567.05 339.66 577.50 331.91 C 587.95 324.16 611.15 307.06 629.06 293.91 C 646.97 280.76 662.85 268.72 664.35 267.16 C 669.65 261.62 668.77 252.88 662.51 249.01 C 659.80 247.33 657.53 247.00 648.81 247.00 C 632.61 247.00 636.04 245.14 591.00 278.28 C 581.92 284.96 559.20 301.72 540.50 315.52 C 521.80 329.32 495.25 348.89 481.50 359.00 C 467.75 369.11 444.58 386.22 430.00 397.03 C 400.32 419.02 371.80 440.11 314.50 482.43 C 293.05 498.28 274.23 512.42 272.67 513.87 L 269.85 516.50 L 275.17 517.05 C 282.17 517.77 285.83 517.14 289.57 514.59 Z M 681.20 513.75 C 680.12 511.96 666.19 489.12 650.25 463.00 C 598.75 378.63 580.00 348.50 578.98 348.50 C 578.44 348.50 570.90 353.72 562.24 360.10 C 530.12 383.76 461.76 434.16 439.00 450.97 C 407.34 474.35 352.73 515.04 351.55 516.12 C 351.01 516.63 421.53 517.00 516.88 517.00 L 683.16 517.00 L 681.20 513.75 Z M 707.43 509.43 C 704.96 505.26 699.42 496.15 695.10 489.18 C 690.79 482.21 679.27 463.45 669.51 447.50 C 659.74 431.55 646.46 409.95 640.00 399.50 C 633.53 389.05 622.06 370.38 614.50 358.00 C 606.95 345.62 600.32 334.94 599.77 334.26 C 599.01 333.32 597.88 333.66 594.91 335.76 C 592.78 337.27 591.03 338.90 591.02 339.39 C 591.00 340.39 599.27 354.08 632.50 408.00 C 645.21 428.62 665.43 461.59 677.44 481.25 L 699.27 517.00 L 705.58 517.00 L 711.90 517.00 L 707.43 509.43 Z M 287.50 485.38 C 299.48 476.83 362.51 430.22 407.30 396.79 C 417.64 389.07 425.96 382.63 425.80 382.47 C 425.25 381.93 355.14 397.78 348.34 399.98 C 320.00 409.14 295.94 430.28 282.90 457.50 C 277.71 468.34 273.37 482.03 272.34 490.79 C 271.57 497.31 270.01 497.87 287.50 485.38 Z M 275.00 603.73 L 275.00 586.46 L 279.00 581.62 C 283.46 576.23 283.38 576.68 283.46 554.50 L 283.50 542.50 L 511.75 542.25 L 740.00 542.00 L 740.00 558.96 L 740.00 575.92 L 744.50 581.45 L 749.00 586.97 L 749.00 603.99 L 749.00 621.00 L 512.00 621.00 L 275.00 621.00 L 275.00 603.73 Z M 687.25 606.04 L 736.00 606.00 L 735.98 600.75 C 735.97 596.14 735.39 594.65 731.22 588.58 C 724.98 579.48 724.00 579.25 724.00 586.86 C 724.00 591.95 723.66 593.13 721.78 594.44 C 718.95 596.42 716.05 596.42 713.22 594.44 C 711.35 593.13 711.00 591.95 711.00 586.94 L 711.00 581.00 L 706.25 581.00 L 701.50 581.00 L 701.84 585.95 C 702.14 590.23 701.82 591.27 699.53 593.56 C 697.36 595.73 696.28 596.11 693.70 595.59 C 688.89 594.63 687.78 592.92 687.86 586.61 L 687.92 581.00 L 683.46 581.00 L 679.00 581.00 L 679.00 586.43 C 679.00 594.25 674.51 597.79 668.32 594.83 C 665.73 593.59 665.48 592.97 665.20 587.24 L 664.90 581.00 L 660.45 581.00 L 656.00 581.00 L 656.00 586.31 C 656.00 593.24 654.36 595.45 649.22 595.45 C 643.37 595.45 642.00 593.83 642.00 586.88 L 642.00 581.00 L 637.50 581.00 L 633.00 581.00 L 633.00 586.88 C 633.00 593.83 631.63 595.45 625.78 595.45 C 620.64 595.45 619.00 593.24 619.00 586.31 L 619.00 581.00 L 614.50 581.00 L 610.00 581.00 L 610.00 586.88 C 610.00 593.83 608.63 595.45 602.78 595.45 C 597.64 595.45 596.00 593.24 596.00 586.31 L 596.00 581.00 L 591.55 581.00 L 587.10 581.00 L 586.80 587.24 C 586.52 592.97 586.27 593.59 583.68 594.83 C 577.49 597.79 573.00 594.25 573.00 586.43 L 573.00 581.00 L 568.51 581.00 L 564.02 581.00 L 564.26 586.59 C 564.47 591.41 564.18 592.44 562.14 594.09 C 559.14 596.52 555.86 596.52 552.86 594.09 C 550.87 592.48 550.51 591.29 550.55 586.59 L 550.61 581.00 L 546.30 581.00 L 542.00 581.00 L 542.00 586.05 C 542.00 590.13 541.51 591.58 539.43 593.66 C 537.38 595.71 536.25 596.10 533.78 595.61 C 528.86 594.62 528.00 593.33 528.00 586.88 L 528.00 581.00 L 523.25 581.00 L 518.50 581.00 L 518.83 586.34 C 519.08 590.31 518.74 592.12 517.51 593.34 C 515.07 595.78 511.52 596.36 508.32 594.83 C 505.73 593.59 505.48 592.97 505.20 587.24 L 504.90 581.00 L 500.45 581.00 L 496.00 581.00 L 496.00 586.07 C 496.00 592.17 494.87 594.57 491.60 595.39 C 488.90 596.06 483.97 594.56 482.79 592.69 C 482.37 592.03 482.02 589.14 482.02 586.25 L 482.00 581.00 L 477.55 581.00 L 473.10 581.00 L 472.80 587.22 C 472.54 592.70 472.20 593.60 469.93 594.87 C 467.04 596.49 463.01 595.87 460.57 593.43 C 459.53 592.39 459.00 590.03 459.00 586.43 L 459.00 581.00 L 454.50 581.00 L 450.00 581.00 L 450.00 586.94 C 450.00 591.95 449.65 593.13 447.78 594.44 C 444.75 596.57 441.77 596.40 438.63 593.93 C 436.37 592.14 436.00 591.10 436.00 586.43 L 436.00 581.00 L 431.50 581.00 L 427.00 581.00 L 427.00 586.88 C 427.00 593.33 426.14 594.62 421.22 595.61 C 418.75 596.10 417.62 595.71 415.57 593.66 C 413.49 591.58 413.00 590.13 413.00 586.05 L 413.00 581.00 L 408.55 581.00 L 404.09 581.00 L 404.68 585.92 C 405.19 590.28 404.97 591.12 402.67 593.42 C 399.74 596.35 396.46 596.71 393.22 594.44 C 391.35 593.13 391.00 591.95 391.00 586.94 L 391.00 581.00 L 386.50 581.00 L 382.00 581.00 L 382.00 586.31 C 382.00 593.24 380.36 595.45 375.22 595.45 C 369.37 595.45 368.00 593.83 368.00 586.88 L 368.00 581.00 L 363.50 581.00 L 359.00 581.00 L 359.00 586.88 C 359.00 593.77 357.62 595.45 352.00 595.45 C 346.38 595.45 345.00 593.77 345.00 586.88 L 345.00 581.00 L 340.50 581.00 L 336.00 581.00 L 336.00 586.07 C 336.00 588.85 335.55 591.97 335.01 592.98 C 333.07 596.61 325.28 596.37 322.77 592.60 C 322.36 592.00 322.02 589.14 322.02 586.25 L 322.00 581.00 L 317.55 581.00 L 313.10 581.00 L 312.80 587.22 C 312.54 592.70 312.20 593.60 309.93 594.87 C 307.04 596.49 303.01 595.87 300.57 593.43 C 299.52 592.38 299.00 590.01 299.00 586.27 C 299.00 580.79 298.96 580.72 297.04 582.46 C 295.96 583.44 293.26 587.03 291.04 590.44 C 287.78 595.44 287.00 597.54 287.00 601.31 L 287.00 605.98 L 346.25 606.24 C 378.84 606.38 457.92 606.41 522.00 606.29 C 586.08 606.17 660.44 606.06 687.25 606.04 Z M 726.00 561.50 L 726.00 556.00 L 511.50 556.00 L 297.00 556.00 L 297.00 561.50 L 297.00 567.00 L 511.50 567.00 L 726.00 567.00 L 726.00 561.50 Z" stroke-linecap="round"/>
</g>
</g>
</g>

  </svg>