<svg xmlns="http://www.w3.org/2000/svg" xmlns:xlink="http://www.w3.org/1999/xlink" width="242px" height="500px" viewBox="0 0 241.8846085621517 500.00000000000006">
    <g id="8405a714-efb2-4bdd-9797-57c771025683">
<g style="">
		<g id="8405a714-efb2-4bdd-9797-57c771025683-child-0">
<path style="stroke: rgb(193,193,193); stroke-width: 0; stroke-dasharray: none; stroke-linecap: butt; stroke-dashoffset: 0; stroke-linejoin: miter; stroke-miterlimit: 4; fill: rgb(0,0,0); fill-rule: nonzero; opacity: 1;" transform="matrix(0.72183 0 0 0.72183 120.942229 249.999844) matrix(1 0 0 1 0 0)  translate(-512.059289, -512.34172)" d="M 475.59 857.95 C 409.74 850.57 359.98 806.24 346.28 742.76 C 344.92 736.46 344.50 730.00 344.51 715.50 C 344.52 695.21 345.60 687.62 350.67 672.04 C 354.04 661.70 365.55 638.49 373.00 627.00 C 384.05 609.96 387.00 602.17 387.00 590.04 C 387.00 584.79 386.02 580.64 382.04 569.11 C 374.76 548.02 373.55 541.83 373.61 526.00 C 373.65 515.65 374.17 510.43 375.84 503.62 C 380.03 486.58 389.97 469.07 402.66 456.37 C 422.74 436.29 447.58 425.24 477.31 423.15 L 486.50 422.50 L 486.76 352.71 L 487.01 282.93 L 481.55 277.59 L 476.09 272.26 L 475.79 263.88 L 475.50 255.50 L 471.15 255.19 C 468.11 254.97 466.23 255.39 464.91 256.58 C 463.87 257.52 460.83 258.50 458.15 258.76 C 453.86 259.17 452.91 258.89 450.13 256.36 C 447.12 253.64 446.96 253.10 446.73 245.29 C 446.53 238.02 446.75 236.82 448.67 234.90 C 451.94 231.61 460.23 231.06 464.03 233.87 C 465.86 235.22 468.40 236.00 470.96 236.00 L 475.00 236.00 L 475.00 224.50 L 475.00 213.00 L 470.75 213.03 C 468.41 213.05 465.63 213.72 464.56 214.53 C 463.41 215.40 460.42 216.00 457.26 216.00 C 452.91 216.00 451.45 215.54 449.45 213.55 C 447.24 211.33 447.00 210.27 447.00 202.72 C 447.00 195.22 447.25 194.12 449.36 192.13 C 452.90 188.81 458.02 188.35 463.25 190.88 C 465.66 192.05 469.51 193.00 471.82 193.00 L 476.00 193.00 L 476.03 182.75 C 476.07 172.05 476.47 170.80 480.97 167.70 C 483.16 166.20 486.72 166.00 511.77 166.00 C 534.95 166.00 540.62 166.27 542.99 167.49 C 548.11 170.14 549.00 172.48 549.00 183.22 L 549.00 193.00 L 553.54 193.00 C 556.05 193.00 559.18 192.27 560.57 191.36 C 563.17 189.66 568.96 189.22 572.79 190.43 C 576.27 191.54 578.00 196.05 578.00 204.00 C 578.00 210.20 577.69 211.40 575.55 213.55 C 573.55 215.54 572.09 216.00 567.74 216.00 C 564.58 216.00 561.59 215.40 560.44 214.53 C 559.37 213.72 556.36 213.05 553.75 213.03 L 549.00 213.00 L 549.00 223.95 L 549.00 234.91 L 552.60 235.58 C 555.32 236.09 557.12 235.74 559.98 234.13 C 565.62 230.96 571.42 231.27 575.08 234.92 C 577.79 237.64 578.00 238.39 578.00 245.37 C 578.00 251.76 577.66 253.29 575.72 255.54 C 572.46 259.33 565.02 260.13 560.97 257.14 C 559.02 255.69 556.61 255.00 553.54 255.00 L 549.00 255.00 L 549.00 262.85 C 549.00 269.88 548.71 271.11 546.17 274.60 C 544.61 276.74 542.12 279.15 540.64 279.93 C 539.16 280.72 537.72 282.30 537.45 283.43 C 537.17 284.57 537.07 316.33 537.22 354.00 L 537.50 422.50 L 546.50 423.15 C 576.73 425.32 601.24 436.13 621.07 456.02 C 634.81 469.81 643.11 484.12 648.21 502.82 C 649.87 508.88 650.32 513.56 650.38 525.00 C 650.47 541.92 649.69 546.19 642.86 566.38 C 636.89 584.01 635.88 592.10 638.41 602.00 C 640.44 609.94 642.72 614.41 651.98 628.54 C 664.62 647.83 673.15 667.66 677.69 688.27 C 680.25 699.93 680.25 730.93 677.68 743.00 C 669.04 783.53 645.64 816.44 610.42 837.59 C 595.18 846.74 578.73 852.81 559.00 856.57 C 549.08 858.46 489.00 859.46 475.59 857.95 Z M 538.00 839.99 C 553.19 838.81 564.37 836.80 574.71 833.37 C 613.60 820.48 642.88 791.66 655.41 753.94 C 659.17 742.64 661.00 730.22 661.00 716.12 C 660.99 688.62 654.05 667.20 636.03 639.00 C 626.39 623.93 624.41 620.26 622.07 613.25 C 616.58 596.80 617.25 582.88 624.53 562.36 C 630.81 544.67 632.39 535.98 631.70 523.05 C 630.25 495.63 616.78 472.91 592.66 457.17 C 579.52 448.59 560.88 442.68 544.33 441.85 L 537.50 441.50 L 537.50 485.43 L 537.50 529.37 L 543.50 532.86 C 560.46 542.72 570.39 560.50 570.39 581.00 C 570.39 597.04 564.67 611.04 553.51 622.31 C 542.46 633.47 527.99 639.33 511.50 639.33 C 495.09 639.32 481.50 633.47 470.15 621.52 C 458.78 609.55 454.03 597.58 454.01 580.80 C 453.99 559.61 464.36 541.33 481.50 532.37 L 487.00 529.50 L 487.00 485.25 C 487.00 459.91 486.62 441.00 486.11 441.00 C 480.12 441.00 463.08 443.62 456.30 445.58 C 423.54 455.08 398.98 481.26 393.53 512.49 C 390.72 528.58 391.79 538.97 398.11 557.00 C 403.88 573.44 404.91 577.50 405.63 586.55 C 406.90 602.62 402.20 616.70 388.29 638.50 C 369.91 667.30 363.01 688.61 363.00 716.64 C 362.99 748.69 374.59 777.16 397.19 800.57 C 420.84 825.07 449.24 837.53 487.00 839.96 C 504.14 841.06 523.94 841.08 538.00 839.99 Z M 526.45 617.93 C 540.62 612.63 550.18 599.59 551.68 583.51 C 552.66 573.00 546.63 558.27 539.42 553.54 L 537.00 551.95 L 537.00 569.61 C 537.00 580.55 536.54 588.83 535.78 591.38 C 534.16 596.88 525.88 605.16 520.38 606.78 C 510.17 609.80 499.42 606.82 492.85 599.14 C 487.71 593.14 487.00 589.55 487.00 569.63 C 487.00 559.39 486.61 552.00 486.07 552.00 C 484.72 552.00 478.59 559.81 476.18 564.60 C 471.13 574.63 471.32 588.78 476.66 599.32 C 481.63 609.12 492.94 617.65 504.05 619.96 C 510.14 621.24 520.02 620.34 526.45 617.93 Z M 516.37 586.93 L 519.00 584.85 L 519.02 431.18 C 519.05 257.96 518.31 273.44 526.84 265.75 L 531.00 262.01 L 531.00 223.50 L 531.00 185.00 L 512.50 185.00 L 494.00 185.00 L 494.00 223.75 L 494.00 262.50 L 497.61 265.38 C 499.59 266.96 502.05 270.11 503.08 272.38 C 504.89 276.35 504.96 282.15 504.98 430.12 L 505.00 583.73 L 507.07 586.37 C 509.57 589.54 512.79 589.74 516.37 586.93 Z M 456.11 742.60 C 451.58 740.09 451.07 737.71 451.04 718.68 C 451.01 708.30 451.43 700.07 452.03 698.94 C 454.65 694.04 455.16 694.00 512.87 694.00 L 566.85 694.00 L 569.92 696.59 L 573.00 699.18 L 573.00 718.15 C 573.00 729.26 572.57 737.93 571.97 739.06 C 569.35 743.96 568.80 744.00 511.80 743.96 C 469.48 743.94 458.01 743.66 456.11 742.60 Z M 554.50 719.00 L 554.50 712.50 L 512.25 712.24 L 470.00 711.98 L 470.00 719.00 L 470.00 726.02 L 512.25 725.76 L 554.50 725.50 L 554.50 719.00 Z" stroke-linecap="round"/>
</g>
</g>
</g>

  </svg>