<svg xmlns="http://www.w3.org/2000/svg" xmlns:xlink="http://www.w3.org/1999/xlink" width="1686px" height="895px" viewBox="0 0 1686.4744098643555 895.648316066652">
    <g id="4d54846f-bd63-4d81-83be-d106cb2bf95d">
<g style="">
		<g id="4d54846f-bd63-4d81-83be-d106cb2bf95d-child-0">
<path style="stroke: rgb(193,193,193); stroke-width: 0; stroke-dasharray: none; stroke-linecap: butt; stroke-dashoffset: 0; stroke-linejoin: miter; stroke-miterlimit: 4; fill: rgb(0,0,0); fill-rule: nonzero; opacity: 1;" transform="matrix(2.360172 0 0 2.360172 843.237205 447.824158) matrix(1 0 0 1 0 0)  translate(-512.341528, -503.934625)" d="M 483.68 692.95 C 397.20 683.94 317.90 641.84 262.49 575.50 C 246.10 555.87 231.00 533.75 231.00 529.35 C 231.00 523.45 235.76 519.00 242.05 519.00 C 245.96 519.00 249.64 522.69 256.21 533.20 C 273.79 561.32 309.24 597.48 340.50 619.17 C 374.79 642.96 414.99 660.03 456.52 668.45 C 512.01 679.68 573.33 673.07 627.50 650.01 C 683.37 626.23 733.54 584.87 766.75 535.20 C 772.01 527.34 777.11 520.48 778.09 519.95 C 781.76 517.99 787.00 518.85 790.08 521.92 C 795.33 527.18 794.41 530.48 782.80 547.79 C 751.97 593.78 705.01 634.49 652.50 660.75 C 623.76 675.12 589.00 686.01 555.50 691.14 C 540.53 693.44 498.50 694.49 483.68 692.95 Z M 489.50 656.92 C 423.41 650.67 362.98 623.16 313.57 576.86 C 291.58 556.26 264.01 520.54 264.00 512.65 C 264.00 508.17 269.75 503.00 274.74 503.00 C 279.61 503.00 281.35 504.62 288.73 516.00 C 312.93 553.35 353.53 588.91 395.50 609.50 C 434.74 628.75 471.05 637.34 513.00 637.28 C 584.90 637.19 654.28 606.36 707.43 550.89 C 718.15 539.70 733.55 520.15 738.56 511.36 C 742.10 505.15 744.68 503.05 748.80 503.02 C 755.22 502.98 760.00 507.39 760.00 513.36 C 760.00 517.50 747.50 536.23 734.62 551.40 C 678.66 617.27 599.90 655.75 517.50 657.49 C 507.60 657.70 495.00 657.45 489.50 656.92 Z M 488.50 620.30 C 478.96 619.43 458.88 615.60 447.40 612.45 C 409.22 601.99 373.55 582.13 342.00 553.78 C 321.64 535.48 298.00 505.36 298.00 497.71 C 298.00 493.29 303.72 488.00 308.50 488.00 C 313.02 488.00 315.79 490.65 324.72 503.53 C 360.85 555.59 425.15 592.96 490.81 600.05 C 506.22 601.71 532.03 600.78 548.00 597.99 C 610.42 587.07 666.92 550.88 703.31 498.51 C 709.85 489.10 712.55 487.17 717.45 488.40 C 720.95 489.28 724.73 493.07 725.61 496.59 C 726.52 500.22 724.11 504.70 713.76 518.59 C 702.61 533.56 677.68 558.30 662.00 569.94 C 624.97 597.44 584.88 613.86 541.16 619.43 C 529.87 620.87 500.14 621.36 488.50 620.30 Z M 492.30 584.01 C 437.53 578.21 388.07 552.46 350.19 510.00 C 338.28 496.65 332.00 487.48 332.00 483.42 C 332.00 479.10 336.10 474.26 340.44 473.45 C 344.88 472.61 348.97 474.84 352.33 479.92 C 356.46 486.16 371.93 503.83 378.91 510.27 C 394.71 524.86 412.73 537.15 431.22 545.95 C 445.61 552.80 458.07 556.93 475.73 560.71 C 487.56 563.24 490.23 563.45 512.00 563.47 C 532.62 563.49 536.90 563.21 546.90 561.19 C 586.95 553.09 624.29 532.39 653.08 502.31 C 658.35 496.80 665.44 488.48 668.83 483.81 C 677.42 471.99 682.34 470.14 688.60 476.40 C 693.39 481.19 693.21 484.95 687.83 492.59 C 668.40 520.15 636.16 547.53 605.61 562.41 C 576.30 576.69 548.22 583.64 516.50 584.46 C 507.70 584.69 496.81 584.48 492.30 584.01 Z M 202.55 498.75 C 201.15 497.51 195.91 488.17 190.91 478.00 C 177.85 451.41 177.81 451.49 207.01 440.59 C 217.18 436.80 225.65 433.57 225.84 433.42 C 226.02 433.28 218.99 420.41 210.20 404.83 L 194.23 376.50 L 186.60 376.38 C 172.85 376.16 161.58 368.51 157.01 356.29 C 154.57 349.78 154.41 341.09 156.61 334.64 C 158.80 328.20 166.62 319.86 173.23 316.91 C 180.88 313.48 191.58 313.63 198.61 317.26 C 205.78 320.95 209.17 324.07 212.30 329.81 C 217.47 339.32 217.69 350.80 212.89 360.22 C 211.06 363.81 211.04 364.18 212.62 367.26 C 215.56 372.97 244.21 423.47 244.99 424.33 C 245.41 424.78 254.19 421.97 264.51 418.08 C 274.83 414.18 284.67 411.01 286.38 411.02 C 291.31 411.06 296.00 415.91 296.00 420.98 C 296.00 422.15 295.33 424.39 294.52 425.97 C 292.87 429.16 293.95 428.70 238.19 449.89 C 220.97 456.43 206.65 462.02 206.37 462.29 C 205.99 462.68 212.29 476.42 213.47 477.77 C 213.60 477.92 235.71 469.64 262.60 459.38 C 289.50 449.12 313.40 440.52 315.73 440.27 C 319.42 439.86 320.34 440.19 322.98 442.82 C 325.34 445.18 326.00 446.73 326.00 449.87 C 326.00 457.21 325.46 457.50 278.00 475.36 C 254.07 484.37 229.17 493.82 222.66 496.37 C 209.31 501.59 206.20 501.96 202.55 498.75 Z M 192.46 353.75 C 200.06 347.11 195.45 335.02 185.33 335.00 C 178.20 335.00 173.11 343.45 176.41 349.82 C 179.71 356.21 187.47 358.11 192.46 353.75 Z M 794.50 493.62 C 784.05 489.63 759.30 480.32 739.50 472.94 C 699.52 458.04 697.55 456.96 697.55 450.00 C 697.55 446.52 698.10 445.30 700.79 442.90 C 704.90 439.23 708.60 439.16 717.08 442.62 C 724.18 445.52 810.07 478.00 810.63 478.00 C 810.82 478.00 812.75 474.47 814.92 470.16 L 818.86 462.32 L 788.68 451.02 C 729.99 429.05 729.78 428.96 728.35 423.27 C 726.88 417.40 731.61 411.00 737.41 411.00 C 739.34 411.00 749.02 414.13 759.07 418.00 C 769.06 421.85 777.74 424.98 778.37 424.95 C 778.99 424.92 787.03 411.24 796.24 394.55 L 812.98 364.20 L 810.84 359.37 C 805.73 347.82 807.67 333.92 815.64 325.06 C 829.74 309.37 852.65 310.87 864.59 328.26 C 873.10 340.64 870.59 357.89 858.73 368.55 C 852.76 373.92 845.88 376.31 836.55 376.25 L 829.50 376.20 L 813.80 404.34 C 801.44 426.48 798.40 432.65 799.53 433.27 C 800.31 433.71 809.18 437.21 819.23 441.05 C 831.69 445.81 838.22 448.84 839.75 450.57 C 843.88 455.23 842.95 459.09 832.93 478.97 C 823.65 497.39 820.85 501.05 816.12 500.94 C 814.68 500.91 804.95 497.62 794.50 493.62 Z M 845.60 352.60 C 848.24 349.96 849.00 348.37 849.00 345.50 C 849.00 340.26 843.74 335.00 838.50 335.00 C 833.26 335.00 828.00 340.26 828.00 345.50 C 828.00 350.74 833.26 356.00 838.50 356.00 C 841.37 356.00 842.96 355.24 845.60 352.60 Z" stroke-linecap="round"/>
</g>
</g>
</g>

  </svg>