<svg xmlns="http://www.w3.org/2000/svg" xmlns:xlink="http://www.w3.org/1999/xlink" width="2041px" height="2057px" viewBox="0 0 2040.687988292938 2057.1207630413555">
    <g id="4101a47a-734d-47eb-b6a0-a83f84d4aa27">
<g style="">
		<g id="4101a47a-734d-47eb-b6a0-a83f84d4aa27-child-0">
<path style="stroke: rgb(193,193,193); stroke-width: 0; stroke-dasharray: none; stroke-linecap: butt; stroke-dashoffset: 0; stroke-linejoin: miter; stroke-miterlimit: 4; fill: rgb(0,0,0); fill-rule: nonzero; opacity: 1;" transform="matrix(3.619293 0 0 3.619293 1020.343931 1028.560318) matrix(1 0 0 1 0 0)  translate(-517.960756, -511.387776)" d="M 405.00 794.96 C 362.47 789.76 322.06 770.11 291.97 740.03 C 265.21 713.27 247.49 680.09 239.43 641.66 C 236.25 626.50 235.06 598.65 236.94 583.37 C 241.37 547.33 255.06 514.19 277.68 484.78 C 288.74 470.39 307.06 453.54 324.19 442.00 L 330.87 437.50 L 331.22 367.00 C 331.59 291.07 331.35 294.84 336.94 279.90 C 339.37 273.39 344.85 264.12 350.50 256.92 C 359.70 245.22 378.59 233.38 394.16 229.58 C 425.06 222.03 457.16 232.77 476.41 257.11 C 488.57 272.49 494.00 287.58 494.00 306.00 C 494.00 334.97 478.92 360.34 453.88 373.49 L 447.00 377.11 L 447.00 419.05 L 447.00 461.00 L 521.96 461.00 C 595.22 461.00 597.05 461.05 602.43 463.06 C 610.18 465.96 615.46 471.61 622.91 485.00 C 626.43 491.33 635.70 507.75 643.51 521.50 C 651.33 535.25 667.30 563.38 679.00 584.00 C 690.71 604.62 700.39 621.63 700.52 621.79 C 700.65 621.96 708.57 617.92 718.12 612.82 C 735.30 603.65 735.55 603.56 742.49 603.57 C 756.15 603.60 765.05 610.01 773.72 626.06 C 776.52 631.25 783.15 643.15 788.43 652.50 C 793.72 661.85 798.54 671.30 799.14 673.50 C 801.62 682.65 797.66 695.56 790.20 702.64 C 786.11 706.52 679.17 765.30 673.16 766.97 C 663.54 769.64 653.39 767.12 646.06 760.22 C 641.96 756.37 637.16 748.66 620.11 718.50 C 608.60 698.15 585.90 658.33 569.66 630.00 L 540.14 578.50 L 445.82 578.00 L 351.50 577.50 L 346.73 575.13 C 340.52 572.05 334.76 565.41 332.67 558.94 C 331.26 554.56 331.00 548.96 331.00 522.39 C 331.00 505.12 330.61 491.00 330.13 491.00 C 328.68 491.00 314.48 506.37 308.72 514.17 C 287.95 542.31 278.05 574.58 279.34 610.00 C 280.39 638.99 288.22 663.14 304.47 687.55 C 327.79 722.58 363.25 745.29 404.50 751.64 C 418.32 753.77 447.98 752.97 460.00 750.14 C 501.47 740.39 537.89 714.47 560.33 678.72 L 565.83 669.96 L 577.17 689.73 C 583.40 700.60 588.63 709.99 588.80 710.60 C 589.49 713.20 571.90 733.33 558.50 745.27 C 532.17 768.74 499.34 785.33 465.00 792.50 C 454.56 794.69 449.21 795.18 432.50 795.50 C 421.50 795.71 409.12 795.47 405.00 794.96 Z M 692.80 709.14 C 703.64 703.17 721.50 693.41 732.50 687.47 C 743.50 681.52 752.65 676.54 752.84 676.40 C 753.10 676.21 739.82 652.07 738.40 650.16 C 738.26 649.97 730.50 653.91 721.16 658.92 C 710.67 664.53 702.23 668.39 699.09 668.98 C 689.45 670.81 678.12 666.85 672.84 659.80 C 671.48 657.98 660.84 639.62 649.19 619.00 C 637.54 598.38 617.98 563.95 605.73 542.50 L 583.45 503.50 L 503.98 503.00 C 415.68 502.44 421.33 502.91 413.23 495.59 C 411.04 493.61 408.19 489.62 406.91 486.74 L 404.57 481.50 L 404.54 421.00 L 404.50 360.50 L 406.89 355.21 C 410.12 348.06 416.59 342.52 424.59 340.05 C 433.77 337.21 438.06 334.74 442.87 329.52 C 458.80 312.24 451.91 283.82 429.22 273.18 C 424.15 270.80 422.31 270.50 413.00 270.51 C 403.50 270.51 401.95 270.78 396.69 273.36 C 389.08 277.09 381.08 285.03 377.43 292.50 L 374.50 298.50 L 374.23 417.25 L 373.97 536.00 L 465.29 536.00 L 556.61 536.00 L 561.84 538.61 C 564.71 540.04 568.48 542.89 570.21 544.95 C 571.93 547.01 578.56 557.91 584.92 569.18 C 640.02 666.66 670.71 719.92 671.80 719.96 C 672.52 719.98 681.97 715.11 692.80 709.14 Z" stroke-linecap="round"/>
</g>
</g>
</g>

  </svg>