<svg xmlns="http://www.w3.org/2000/svg" xmlns:xlink="http://www.w3.org/1999/xlink" width="428px" height="499px" viewBox="0 0 428.478107632127 500">
    <g id="4e7a5f02-6962-4632-876d-bd5067e457e4">
<g style="">
		<g id="4e7a5f02-6962-4632-876d-bd5067e457e4-child-0">
<path style="stroke: rgb(193,193,193); stroke-width: 0; stroke-dasharray: none; stroke-linecap: butt; stroke-dashoffset: 0; stroke-linejoin: miter; stroke-miterlimit: 4; fill: rgb(0,0,0); fill-rule: nonzero; opacity: 1;" transform="matrix(0.956401 0 0 0.956401 214.239111 250.000067) matrix(1 0 0 1 0 0)  translate(-511.999986, -512.593299)" d="M 321.42 772.15 C 314.73 769.04 314.00 766.34 314.00 744.73 L 314.00 726.26 L 306.15 725.80 C 300.40 725.47 297.35 724.76 294.76 723.16 C 287.55 718.70 288.00 726.80 288.00 602.00 C 288.00 477.68 287.59 485.27 294.47 481.02 C 297.58 479.10 299.39 479.00 331.77 479.00 L 365.81 479.00 L 366.15 469.75 C 366.44 462.01 366.88 459.97 368.83 457.23 C 372.66 451.87 376.21 450.56 387.50 450.38 C 408.79 450.05 407.00 450.34 407.00 447.24 C 407.00 444.58 406.65 444.39 397.75 442.27 C 373.14 436.42 353.13 420.37 341.95 397.50 C 333.59 380.40 333.71 381.44 333.29 323.50 C 332.94 275.21 333.02 272.32 334.79 269.08 C 337.74 263.66 342.19 261.75 350.22 262.43 C 365.35 263.73 377.20 272.16 381.51 284.70 L 382.81 288.50 L 415.93 288.76 C 446.82 289.01 449.09 288.91 449.62 287.26 C 452.40 278.64 457.88 271.33 464.47 267.47 C 473.85 261.97 486.85 260.39 492.81 264.03 C 499.22 267.94 499.20 267.74 498.73 323.91 C 498.25 381.36 498.28 381.04 489.61 398.50 C 478.12 421.63 455.22 438.77 430.50 442.73 C 425.83 443.48 425.48 443.74 425.19 446.66 L 424.89 449.78 L 440.37 450.14 C 457.50 450.54 459.03 451.05 463.75 457.99 C 465.66 460.80 466.00 462.61 466.00 470.15 L 466.00 479.00 L 526.00 479.00 L 586.00 479.00 L 586.00 428.25 C 586.01 379.71 586.09 377.36 587.96 374.30 C 591.04 369.25 594.51 367.56 602.95 367.00 L 610.50 366.50 L 610.80 360.88 C 611.07 355.74 610.89 355.20 608.80 354.64 C 607.53 354.30 590.14 354.02 570.15 354.01 C 530.33 354.00 530.19 353.98 526.64 347.96 C 522.55 341.04 525.95 320.84 533.96 304.50 C 550.92 269.91 585.12 249.48 623.00 251.31 C 636.68 251.97 646.89 254.45 658.63 259.95 C 684.01 271.84 703.62 295.60 709.99 322.18 C 712.46 332.50 712.64 344.11 710.38 347.93 C 707.08 353.51 707.46 353.46 667.33 354.00 C 646.89 354.27 629.94 354.73 629.67 355.00 C 629.40 355.27 629.04 357.98 628.88 361.00 L 628.58 366.50 L 636.42 367.06 C 644.04 367.60 644.36 367.73 648.13 371.77 L 652.00 375.92 L 652.00 427.43 L 652.00 478.93 L 689.92 479.22 L 727.84 479.50 L 730.52 482.00 C 736.32 487.43 736.00 480.33 736.00 602.05 C 736.00 726.83 736.45 718.70 729.22 723.17 C 726.52 724.84 723.63 725.48 717.33 725.81 L 709.00 726.25 L 709.00 746.05 C 709.00 765.84 709.00 765.85 706.44 768.89 C 702.88 773.12 698.71 773.99 682.00 773.99 C 664.93 773.99 661.23 773.17 657.08 768.44 L 654.00 764.93 L 654.00 745.47 L 654.00 726.00 L 512.00 726.00 L 370.00 726.00 L 370.00 744.75 C 369.99 761.57 369.79 763.83 368.04 766.70 C 364.22 772.97 362.46 773.47 343.05 773.77 C 327.57 774.01 325.02 773.82 321.42 772.15 Z M 352.00 741.50 L 352.00 726.00 L 342.00 726.00 L 332.00 726.00 L 332.00 741.50 L 332.00 757.00 L 342.00 757.00 L 352.00 757.00 L 352.00 741.50 Z M 692.00 741.50 L 692.00 726.00 L 681.50 726.00 L 671.00 726.00 L 671.00 740.83 C 671.00 748.99 671.30 755.97 671.67 756.33 C 672.03 756.70 676.76 757.00 682.17 757.00 L 692.00 757.00 L 692.00 741.50 Z M 719.00 602.00 L 719.00 496.00 L 512.00 496.00 L 305.00 496.00 L 305.00 602.00 L 305.00 708.00 L 512.00 708.00 L 719.00 708.00 L 719.00 602.00 Z M 448.00 473.50 L 448.00 468.00 L 416.00 468.00 L 384.00 468.00 L 384.00 472.83 C 384.00 475.49 384.30 477.97 384.67 478.33 C 385.03 478.70 399.43 479.00 416.67 479.00 L 448.00 479.00 L 448.00 473.50 Z M 634.50 431.50 L 634.50 384.50 L 618.75 384.22 L 603.00 383.95 L 603.00 430.81 C 603.00 456.58 603.31 477.98 603.69 478.36 C 604.07 478.74 611.16 478.93 619.44 478.78 L 634.50 478.50 L 634.50 431.50 Z M 435.90 423.46 C 457.02 416.76 473.45 399.22 479.03 377.39 C 480.85 370.28 481.00 366.19 481.00 324.84 C 481.00 294.68 480.66 280.00 479.97 280.00 C 477.66 280.00 472.35 282.91 470.00 285.45 L 467.50 288.16 L 466.99 329.83 C 466.50 370.04 466.40 371.73 464.19 378.00 C 456.60 399.52 437.99 413.13 415.99 413.27 C 392.63 413.42 372.98 397.87 367.00 374.50 C 365.17 367.34 365.00 363.41 365.00 327.86 L 365.00 289.03 L 362.25 285.97 C 360.74 284.29 357.70 282.30 355.50 281.55 L 351.50 280.19 L 351.24 324.11 C 351.03 359.91 351.25 369.37 352.47 375.26 C 356.97 397.08 374.50 416.56 395.89 423.50 C 408.40 427.56 423.02 427.55 435.90 423.46 Z M 429.50 392.92 C 436.13 389.78 442.55 383.20 445.83 376.20 L 448.50 370.50 L 448.79 338.25 L 449.08 306.00 L 415.98 306.00 L 382.87 306.00 L 383.19 338.25 C 383.49 369.37 383.58 370.67 385.78 375.44 C 390.28 385.19 396.31 390.99 405.33 394.21 C 412.33 396.71 422.67 396.16 429.50 392.92 Z M 694.47 333.25 C 689.49 302.93 667.77 278.80 638.26 270.83 C 627.97 268.05 610.50 267.87 600.50 270.45 C 578.64 276.08 560.02 290.95 550.49 310.37 C 545.98 319.56 543.00 329.05 543.00 334.21 L 543.00 337.00 L 619.05 337.00 L 695.09 337.00 L 694.47 333.25 Z M 327.24 692.01 C 325.45 690.91 323.09 688.55 321.99 686.76 C 320.06 683.58 320.01 681.56 320.00 602.72 C 320.00 513.72 319.78 516.93 326.19 513.03 C 329.48 511.02 330.72 511.01 512.17 511.00 L 694.85 511.00 L 698.06 513.70 C 704.23 518.90 704.00 515.43 704.00 602.72 C 704.00 691.69 704.37 686.88 697.10 691.73 L 693.70 694.00 L 512.10 694.00 C 332.66 693.99 330.46 693.97 327.24 692.01 Z M 686.00 644.00 L 686.00 611.00 L 512.00 611.00 L 338.00 611.00 L 338.00 644.00 L 338.00 677.00 L 512.00 677.00 L 686.00 677.00 L 686.00 644.00 Z M 686.00 561.00 L 686.00 528.00 L 512.00 528.00 L 338.00 528.00 L 338.00 561.00 L 338.00 594.00 L 512.00 594.00 L 686.00 594.00 L 686.00 561.00 Z M 492.50 661.34 C 485.12 657.45 482.00 652.30 482.00 644.00 C 482.00 637.47 483.82 633.25 488.32 629.29 C 493.28 624.94 497.44 624.01 512.00 624.01 C 526.56 624.01 530.72 624.94 535.68 629.29 C 540.09 633.16 542.00 637.46 542.00 643.50 C 542.00 651.82 538.32 657.99 531.50 661.12 C 526.00 663.65 497.19 663.81 492.50 661.34 Z M 524.00 644.00 C 524.00 643.39 519.33 643.00 512.00 643.00 C 504.67 643.00 500.00 643.39 500.00 644.00 C 500.00 644.61 504.67 645.00 512.00 645.00 C 519.33 645.00 524.00 644.61 524.00 644.00 Z M 492.20 577.87 C 485.48 574.54 482.62 570.03 482.17 562.02 C 481.70 553.65 484.12 548.27 490.19 544.25 C 494.17 541.62 494.96 541.49 508.99 541.16 C 525.78 540.77 530.41 541.66 535.66 546.28 C 540.07 550.14 542.00 554.45 542.00 560.40 C 542.00 568.58 538.10 574.59 530.50 578.10 C 527.18 579.64 523.96 579.96 511.50 579.98 C 498.19 580.00 496.02 579.76 492.20 577.87 Z M 524.00 561.00 C 524.00 560.39 519.33 560.00 512.00 560.00 C 504.67 560.00 500.00 560.39 500.00 561.00 C 500.00 561.61 504.67 562.00 512.00 562.00 C 519.33 562.00 524.00 561.61 524.00 561.00 Z" stroke-linecap="round"/>
</g>
</g>
</g>

  </svg>