<svg xmlns="http://www.w3.org/2000/svg" xmlns:xlink="http://www.w3.org/1999/xlink" width="323px" height="499px" viewBox="0 0 323.39787937776 500.00006210512">
    <g id="9635602c-97d0-43a0-a3e9-e9adb66ecf66">
<g style="">
		<g id="9635602c-97d0-43a0-a3e9-e9adb66ecf66-child-0">
<path style="stroke: rgb(193,193,193); stroke-width: 0; stroke-dasharray: none; stroke-linecap: butt; stroke-dashoffset: 0; stroke-linejoin: miter; stroke-miterlimit: 4; fill: rgb(0,0,0); fill-rule: nonzero; opacity: 1;" transform="matrix(0.79504 0 0 0.79504 161.69894 250.000031) matrix(1 0 0 1 0 0)  translate(-512.476319, -512.115776)" d="M 352.93 825.69 C 339.18 821.81 329.00 809.39 329.00 796.51 C 329.00 794.80 332.13 769.11 335.95 739.44 C 358.24 566.35 360.94 544.71 360.36 543.78 C 360.10 543.35 358.13 543.00 355.99 543.00 C 345.16 543.00 326.71 533.54 319.22 524.15 C 310.85 513.67 308.69 505.75 309.15 487.33 C 309.48 474.30 309.68 473.12 312.60 466.95 C 314.31 463.35 317.23 458.66 319.10 456.53 C 323.61 451.38 332.43 445.77 339.51 443.54 L 345.24 441.74 L 344.57 436.12 C 344.20 433.03 339.66 394.27 334.48 350.00 C 329.30 305.73 323.95 260.27 322.60 249.00 C 319.86 226.15 320.09 222.29 324.68 213.84 C 332.69 199.13 351.30 193.44 366.68 201.02 C 374.36 204.80 380.27 211.65 382.48 219.34 C 383.75 223.77 390.11 276.00 395.53 326.50 C 396.42 334.75 397.34 342.13 397.59 342.89 C 397.87 343.75 399.69 341.94 402.27 338.23 C 417.05 317.06 435.93 300.54 457.24 290.16 C 475.80 281.12 491.21 277.65 512.50 277.71 C 556.03 277.82 593.91 298.84 621.78 338.35 C 625.51 343.64 625.96 343.97 626.40 341.85 C 626.68 340.56 628.75 323.30 631.02 303.50 C 641.14 215.09 641.02 215.70 649.30 207.17 C 656.13 200.12 662.01 197.80 672.83 197.88 C 687.06 197.99 698.87 207.52 702.54 221.86 C 703.99 227.52 703.81 229.62 696.02 295.59 C 691.61 332.94 685.98 380.24 683.50 400.69 C 681.03 421.15 679.00 438.77 679.00 439.86 C 679.00 441.28 679.92 442.04 682.25 442.54 C 693.27 444.93 706.92 455.99 711.56 466.29 C 717.57 479.64 717.24 501.91 710.83 515.00 C 703.42 530.15 683.69 543.00 667.85 543.00 C 665.80 543.00 663.89 543.36 663.62 543.80 C 663.35 544.25 664.19 552.69 665.50 562.58 C 667.32 576.38 679.88 676.91 694.33 793.36 C 695.37 801.74 691.15 811.93 683.93 818.45 C 677.55 824.21 671.85 826.35 663.00 826.30 C 653.82 826.26 647.41 823.73 641.17 817.69 C 633.57 810.35 632.25 806.48 629.01 782.18 C 625.17 753.32 618.00 697.69 618.00 696.75 C 618.00 696.34 570.30 696.00 512.00 696.00 C 419.92 696.00 406.00 696.19 406.00 697.45 C 406.00 698.25 402.86 722.42 399.02 751.16 C 392.94 796.62 391.70 804.09 389.50 808.60 C 386.51 814.70 379.60 821.40 373.52 824.09 C 367.84 826.61 358.68 827.32 352.93 825.69 Z M 366.44 804.85 C 371.97 802.33 371.66 803.87 380.96 732.50 C 383.18 715.45 385.23 700.12 385.51 698.44 C 386.01 695.46 385.85 695.32 380.26 693.59 C 377.09 692.61 372.14 690.54 369.25 689.00 C 364.00 686.19 363.99 686.19 363.50 688.34 C 363.24 689.53 361.19 704.90 358.97 722.50 C 356.74 740.10 353.81 762.72 352.46 772.77 C 349.19 797.06 349.23 799.38 352.92 803.08 C 356.14 806.30 361.67 807.02 366.44 804.85 Z M 669.85 803.47 C 671.50 802.08 673.15 799.61 673.51 797.98 C 674.18 794.91 661.26 688.12 660.05 686.74 C 659.68 686.33 656.94 687.30 653.94 688.91 C 650.95 690.52 646.22 692.57 643.43 693.47 C 638.82 694.96 638.40 695.35 638.72 697.81 C 638.92 699.29 641.93 722.61 645.41 749.64 C 650.00 785.29 652.18 799.42 653.36 801.10 C 657.17 806.54 664.89 807.65 669.85 803.47 Z M 632.46 674.92 C 643.06 672.96 656.00 665.54 656.00 661.42 C 656.00 659.63 648.27 653.02 644.14 651.26 C 632.61 646.38 637.98 646.60 519.00 646.24 C 403.01 645.89 392.98 646.17 382.67 650.02 C 375.96 652.53 369.40 657.16 368.49 660.04 C 367.07 664.52 379.20 672.67 390.51 674.82 C 397.80 676.22 624.97 676.31 632.46 674.92 Z M 378.80 629.86 C 381.71 628.81 386.11 627.67 388.58 627.33 C 391.04 627.00 393.33 626.27 393.67 625.73 C 394.16 624.94 404.98 547.57 405.00 544.75 C 405.00 544.34 399.60 544.00 393.00 544.00 C 383.79 544.00 381.00 544.30 381.00 545.31 C 381.00 547.04 371.19 626.68 370.52 630.36 C 370.09 632.77 370.27 633.10 371.75 632.49 C 372.71 632.09 375.88 630.91 378.80 629.86 Z M 653.64 629.75 C 653.32 627.96 650.79 608.08 648.02 585.57 C 645.24 563.06 642.77 544.44 642.53 544.20 C 642.29 543.96 637.13 543.53 631.05 543.24 L 620.00 542.72 L 620.00 545.36 C 620.00 546.82 622.03 564.25 624.50 584.11 C 626.97 603.97 629.00 621.51 629.00 623.09 C 629.00 625.42 629.52 626.07 631.75 626.53 C 638.16 627.84 646.71 630.23 649.50 631.49 C 653.91 633.47 654.28 633.32 653.64 629.75 Z M 608.98 624.25 C 608.92 619.90 599.17 544.84 598.59 544.25 C 597.85 543.52 426.77 543.91 426.02 544.65 C 425.57 545.10 415.16 620.63 415.05 624.25 C 415.00 625.90 420.27 626.00 512.00 626.00 C 603.72 626.00 609.00 625.90 608.98 624.25 Z M 677.50 519.70 C 685.03 516.18 689.58 511.90 692.61 505.50 C 695.23 499.97 696.00 490.34 693.75 491.34 C 685.47 494.98 679.22 497.20 674.93 498.01 C 671.65 498.64 611.20 499.00 511.07 499.00 C 338.23 499.00 347.95 499.31 335.13 493.45 C 332.18 492.10 329.53 491.00 329.24 491.00 C 328.96 491.00 328.97 493.74 329.27 497.09 C 330.26 507.95 337.14 516.07 349.14 520.54 L 355.50 522.91 L 513.50 522.71 L 671.50 522.50 L 677.50 519.70 Z M 677.23 476.33 C 683.90 473.81 689.27 470.25 688.44 468.91 C 687.58 467.51 680.18 463.91 674.50 462.12 C 670.07 460.73 652.31 460.52 517.50 460.24 C 418.62 460.04 362.56 460.29 357.08 460.95 C 348.00 462.05 336.00 466.80 336.00 469.29 C 336.00 470.06 338.19 471.88 340.88 473.34 C 351.47 479.10 343.80 478.86 514.50 478.67 L 671.50 478.50 L 677.23 476.33 Z M 387.67 434.25 C 387.02 428.17 381.95 384.11 374.47 319.50 C 371.98 298.05 368.58 268.58 366.91 254.00 C 365.24 239.43 363.37 226.21 362.76 224.63 C 359.71 216.71 346.26 215.73 342.43 223.15 C 340.44 226.98 340.53 228.39 344.98 265.50 C 347.15 283.65 352.66 330.34 357.22 369.25 L 365.50 440.00 L 376.89 440.00 L 388.28 440.00 L 387.67 434.25 Z M 615.00 439.24 C 615.00 438.83 616.57 425.70 618.49 410.06 L 621.98 381.64 L 616.95 371.10 C 599.63 334.85 572.34 310.68 538.10 301.28 C 529.52 298.93 526.74 298.64 512.00 298.65 C 497.29 298.65 494.42 298.94 485.50 301.32 C 452.74 310.07 425.93 333.45 408.47 368.50 L 401.99 381.50 L 405.03 408.50 C 406.71 423.35 408.30 436.51 408.56 437.75 L 409.04 440.00 L 512.02 440.00 C 568.66 440.00 615.00 439.66 615.00 439.24 Z M 661.23 416.50 C 673.56 313.25 683.00 231.75 683.00 228.59 C 683.00 225.61 682.27 224.07 679.60 221.40 C 672.75 214.55 662.12 218.00 660.63 227.55 C 659.87 232.38 655.65 267.96 644.51 363.50 C 639.83 403.65 635.81 437.30 635.59 438.28 C 635.20 439.92 636.08 440.04 646.82 439.78 L 658.48 439.50 L 661.23 416.50 Z" stroke-linecap="round"/>
</g>
</g>
</g>

  </svg>