<svg xmlns="http://www.w3.org/2000/svg" xmlns:xlink="http://www.w3.org/1999/xlink" width="3467px" height="2222px" viewBox="0 0 3466.666666666668 2221.480500000005">
    <g id="e8777d01-d1b7-4267-bca5-905db3e64b15">
<g style="">
		<g id="e8777d01-d1b7-4267-bca5-905db3e64b15-child-0">
<path style="stroke: rgb(193,193,193); stroke-width: 0; stroke-dasharray: none; stroke-linecap: butt; stroke-dashoffset: 0; stroke-linejoin: miter; stroke-miterlimit: 4; fill: rgb(0,0,0); fill-rule: nonzero; opacity: 1;" transform="matrix(4.761905 0 0 4.761905 1733.33342 1110.740306) matrix(1 0 0 1 0 0)  translate(-512, -511.744548)" d="M 168.27 743.35 C 162.60 741.34 154.50 733.87 151.19 727.61 L 148.50 722.50 L 148.23 610.02 C 147.94 486.44 147.63 493.07 154.04 485.10 L 157.22 481.15 L 154.57 477.68 C 149.12 470.53 148.00 464.88 148.00 444.47 C 148.00 434.25 148.49 422.65 149.08 418.69 C 155.67 374.86 179.59 335.39 215.97 308.30 C 228.25 299.16 250.81 288.09 265.03 284.24 C 287.52 278.15 272.32 278.50 512.50 278.50 C 760.67 278.50 739.94 277.88 764.21 285.99 C 788.35 294.06 807.23 305.47 825.28 322.91 C 847.06 343.95 861.51 367.58 869.94 395.97 C 874.31 410.66 876.00 424.13 876.00 444.20 C 876.00 463.52 875.12 468.27 870.05 476.26 L 867.03 481.02 L 870.47 485.53 C 872.37 488.02 874.38 491.72 874.95 493.77 C 875.64 496.24 875.99 535.00 875.99 608.21 C 876.00 717.09 875.97 719.02 873.97 724.36 C 871.14 731.91 864.91 738.66 857.54 742.14 L 851.50 745.00 L 512.00 744.92 C 213.29 744.85 171.99 744.66 168.27 743.35 Z M 840.00 686.07 C 840.00 664.21 839.91 663.11 838.05 662.52 C 836.98 662.18 829.21 662.00 820.80 662.14 C 804.32 662.39 802.22 662.06 797.25 658.33 C 787.21 650.81 788.94 633.59 800.30 628.10 C 804.20 626.21 806.41 626.00 822.32 626.00 L 840.00 626.00 L 840.00 597.00 L 840.00 568.00 L 822.47 568.00 C 802.76 568.00 800.35 567.44 795.28 561.66 C 790.96 556.74 789.61 551.44 791.13 545.39 C 792.59 539.61 798.27 533.57 803.69 532.07 C 805.78 531.49 814.81 531.01 823.75 531.01 L 840.00 531.00 L 840.00 516.00 L 840.00 501.00 L 705.50 501.00 L 571.00 501.00 L 571.00 528.82 C 571.00 544.48 570.53 559.23 569.92 562.57 C 566.75 579.92 553.82 594.24 537.54 598.46 C 529.11 600.64 494.85 600.63 486.46 598.45 C 474.68 595.38 464.41 587.15 458.71 576.21 C 453.50 566.21 453.00 562.12 453.00 529.95 L 453.00 501.00 L 318.50 501.00 L 184.00 501.00 L 184.00 516.00 L 184.00 531.00 L 201.32 531.00 C 218.23 531.00 218.77 531.06 224.07 533.75 C 230.71 537.11 233.96 542.18 233.98 549.18 C 234.01 557.53 230.78 562.75 223.50 566.11 C 220.09 567.68 216.86 567.96 201.75 567.98 L 184.00 568.00 L 184.00 596.94 L 184.00 625.88 L 203.41 626.19 L 222.82 626.50 L 226.66 629.57 C 231.65 633.56 234.00 638.31 234.00 644.41 C 234.00 650.76 230.57 656.75 225.21 659.76 C 221.48 661.86 220.04 662.00 202.61 662.00 L 184.00 662.00 L 184.00 685.50 L 184.00 709.00 L 512.00 709.00 L 840.00 709.00 L 840.00 686.07 Z M 532.08 560.23 L 535.00 556.97 L 535.00 529.61 L 535.00 502.25 L 531.88 501.62 C 530.16 501.28 519.81 501.00 508.88 501.00 L 489.00 501.00 L 489.00 528.45 C 489.00 546.77 489.38 556.73 490.13 558.39 C 492.33 563.21 495.96 564.05 513.33 563.76 L 529.17 563.50 L 532.08 560.23 Z M 453.00 449.05 C 453.00 440.28 453.50 430.71 454.11 427.80 C 457.67 410.87 471.59 396.59 488.00 393.01 C 491.66 392.21 500.87 391.93 515.50 392.15 L 537.50 392.50 L 544.00 395.59 C 552.42 399.58 560.85 407.36 564.81 414.79 C 569.64 423.85 570.97 431.28 570.99 449.25 L 571.00 465.00 L 702.07 465.00 C 799.79 465.00 833.69 464.70 835.32 463.84 C 839.40 461.66 839.94 459.92 839.97 448.75 L 840.00 438.00 L 821.96 438.00 C 805.96 438.00 803.48 437.78 800.04 436.02 C 787.20 429.47 787.38 410.48 800.33 403.81 C 804.03 401.90 805.94 401.68 817.38 401.86 C 835.32 402.13 834.62 402.62 830.40 392.76 C 820.18 368.89 803.76 349.26 781.50 334.30 C 763.68 322.33 742.62 315.61 718.95 314.34 L 707.30 313.71 L 706.71 317.60 C 706.39 319.75 706.33 346.18 706.58 376.34 C 706.90 414.94 706.70 432.41 705.91 435.33 C 703.39 444.69 696.61 449.50 686.93 448.80 C 680.13 448.31 675.30 445.15 672.39 439.31 C 670.61 435.72 670.48 432.01 670.22 375.25 L 669.94 315.00 L 515.47 314.80 C 430.51 314.69 359.31 314.58 357.25 314.55 L 353.50 314.50 L 353.86 372.50 C 354.23 433.41 354.07 436.29 349.81 442.26 C 344.71 449.42 331.89 451.21 324.74 445.75 C 322.84 444.30 320.43 441.40 319.39 439.31 C 317.61 435.73 317.49 432.24 317.33 380.50 C 317.24 350.25 317.12 322.91 317.08 319.75 L 317.00 314.00 L 310.25 314.02 C 301.16 314.05 284.18 316.44 275.00 318.99 C 270.88 320.14 262.53 323.50 256.45 326.46 C 230.71 338.98 210.00 359.65 197.28 385.50 C 191.04 398.17 190.43 400.02 192.09 401.09 C 192.87 401.59 199.58 401.93 207.01 401.85 C 221.76 401.69 224.12 402.30 229.19 407.66 C 237.01 415.93 235.25 429.84 225.66 435.46 C 221.43 437.94 220.85 438.00 202.66 438.00 L 184.00 438.00 L 184.00 448.91 L 184.00 459.82 L 187.08 462.41 L 190.15 465.00 L 321.58 465.00 L 453.00 465.00 L 453.00 449.05 Z M 535.00 450.02 L 535.00 435.03 L 532.08 431.77 L 529.16 428.50 L 512.00 428.50 L 494.84 428.50 L 491.92 431.77 L 489.00 435.03 L 489.00 450.02 L 489.00 465.00 L 512.00 465.00 L 535.00 465.00 L 535.00 450.02 Z" stroke-linecap="round"/>
</g>
</g>
</g>

  </svg>