<svg xmlns="http://www.w3.org/2000/svg" xmlns:xlink="http://www.w3.org/1999/xlink" width="500px" height="385px" viewBox="0 0 500 384.91503327059536">
    <g id="eb68d0b4-a95b-42d7-aaa7-ee175f97ec36">
<g style="">
		<g id="eb68d0b4-a95b-42d7-aaa7-ee175f97ec36-child-0">
<path style="stroke: rgb(193,193,193); stroke-width: 0; stroke-dasharray: none; stroke-linecap: butt; stroke-dashoffset: 0; stroke-linejoin: miter; stroke-miterlimit: 4; fill: rgb(0,0,0); fill-rule: nonzero; opacity: 1;" transform="matrix(0.811908 0 0 0.811908 249.999985 192.457505) matrix(1 0 0 1 0 0)  translate(-512.033998, -512.673489)" d="M 280.18 748.93 C 259.43 744.85 245.00 726.86 245.00 705.08 C 245.00 695.38 246.92 688.84 252.03 681.20 L 256.04 675.19 L 255.77 652.05 L 255.50 628.91 L 248.85 626.59 C 238.36 622.92 231.13 618.27 222.41 609.57 C 216.77 603.95 213.35 599.52 211.12 594.95 C 204.08 580.53 204.60 591.96 204.22 443.00 C 203.96 343.20 204.18 307.08 205.04 303.00 C 207.47 291.55 214.26 283.06 224.87 278.20 C 229.34 276.15 232.04 275.63 238.15 275.63 C 244.75 275.63 246.71 276.07 252.34 278.85 C 260.04 282.64 266.97 289.82 269.64 296.76 C 271.26 301.00 271.51 306.16 271.98 345.91 L 272.50 390.31 L 314.50 416.21 C 337.60 430.45 363.94 446.58 373.02 452.05 L 389.55 462.00 L 449.04 462.00 L 508.53 462.00 L 509.76 456.75 C 514.41 436.87 531.84 419.08 551.09 414.54 C 560.65 412.29 686.39 412.30 695.95 414.55 C 717.11 419.54 733.51 435.99 739.00 457.75 L 740.08 462.00 L 746.49 462.00 L 752.91 462.00 L 753.20 425.25 L 753.50 388.50 L 756.12 382.91 C 761.43 371.60 771.67 364.88 784.67 364.18 C 797.23 363.50 808.35 369.31 814.67 379.86 C 820.13 388.96 820.19 390.18 819.82 488.00 L 819.48 577.50 L 817.15 584.50 C 810.26 605.24 794.73 620.55 774.00 627.06 L 768.50 628.78 L 768.72 652.32 L 768.94 675.86 L 772.35 681.20 C 781.17 694.99 781.95 711.31 774.48 726.04 C 766.40 741.98 746.30 752.20 729.03 749.16 C 705.75 745.06 690.85 726.30 692.23 702.82 C 692.94 690.71 695.70 684.37 704.12 675.51 L 711.00 668.27 L 711.00 649.13 L 711.00 630.00 L 512.50 630.00 L 314.00 630.00 L 314.00 649.54 L 314.00 669.09 L 319.55 674.77 C 322.62 677.92 326.53 683.36 328.30 686.96 C 331.36 693.19 331.50 693.99 331.50 705.48 C 331.50 717.05 331.38 717.75 328.19 724.26 C 319.25 742.55 299.45 752.72 280.18 748.93 Z M 300.79 729.94 C 327.12 716.79 316.20 677.20 286.79 679.19 C 279.34 679.69 274.56 681.79 269.46 686.82 C 258.98 697.15 258.52 713.07 268.39 723.82 C 277.15 733.37 289.34 735.67 300.79 729.94 Z M 747.74 729.97 C 757.08 725.30 763.00 715.68 763.00 705.15 C 763.00 698.96 758.24 689.17 753.24 685.04 C 746.44 679.44 735.76 677.51 726.62 680.22 C 720.24 682.12 711.59 691.12 709.59 697.93 C 708.72 700.92 708.00 704.55 708.00 706.00 C 708.00 711.29 711.02 718.75 715.01 723.27 C 723.80 733.25 736.12 735.78 747.74 729.97 Z M 752.00 647.50 L 752.00 630.00 L 739.50 630.00 L 727.00 630.00 L 727.00 646.00 L 727.00 662.00 L 735.25 662.08 C 741.83 662.14 747.48 663.10 751.75 664.90 C 751.89 664.95 752.00 657.12 752.00 647.50 Z M 288.25 662.50 L 297.00 662.50 L 297.00 646.25 L 297.00 630.00 L 284.50 630.00 L 272.00 630.00 L 272.00 647.11 L 272.00 664.22 L 275.75 663.36 C 277.81 662.89 283.44 662.50 288.25 662.50 Z M 767.47 611.47 C 783.97 607.17 797.23 593.99 801.64 577.50 C 803.62 570.10 803.63 395.44 801.65 390.70 C 798.08 382.16 788.10 378.09 779.77 381.78 C 772.94 384.80 770.82 388.57 769.87 399.38 C 769.42 404.40 769.07 444.85 769.07 489.28 L 769.09 570.07 L 766.89 573.15 C 765.69 574.85 762.85 577.07 760.60 578.09 C 756.64 579.89 748.30 579.96 512.00 579.96 C 271.97 579.96 267.42 579.92 263.22 578.01 C 259.95 576.53 258.47 575.05 256.99 571.78 C 255.09 567.61 255.04 564.09 255.02 436.72 C 255.00 329.18 254.76 305.36 253.65 302.70 C 249.29 292.27 235.79 288.85 227.54 296.10 C 220.49 302.29 220.91 292.57 221.22 442.50 L 221.50 577.50 L 224.24 583.36 C 230.42 596.55 240.61 605.94 253.77 610.58 L 260.50 612.96 L 511.04 612.98 C 732.95 613.00 762.25 612.82 767.47 611.47 Z M 752.77 545.75 L 753.05 529.00 L 562.47 529.00 C 387.57 529.00 371.64 528.86 368.70 527.35 C 366.94 526.45 346.60 513.92 323.50 499.52 C 300.40 485.12 279.36 472.09 276.75 470.57 L 272.00 467.81 L 272.00 515.41 L 272.00 563.00 L 512.25 562.75 L 752.50 562.50 L 752.77 545.75 Z M 522.60 509.75 C 514.73 498.99 509.08 487.12 509.02 481.25 L 509.00 479.00 L 446.67 479.00 L 384.33 479.00 L 376.42 474.14 C 372.06 471.47 354.10 460.38 336.50 449.50 C 318.90 438.63 298.20 425.89 290.50 421.20 C 282.80 416.52 275.49 412.02 274.25 411.22 L 272.00 409.77 L 272.00 428.74 L 272.00 447.70 L 323.73 479.85 L 375.45 512.00 L 449.85 512.00 L 524.24 512.00 L 522.60 509.75 Z M 699.27 508.19 C 708.21 503.79 715.27 496.76 719.29 488.28 C 722.30 481.93 722.50 480.81 722.50 470.50 C 722.50 460.28 722.28 459.04 719.41 453.00 C 715.54 444.84 708.58 437.90 700.07 433.71 L 693.54 430.50 L 623.52 430.50 L 553.50 430.50 L 547.88 433.26 C 539.10 437.57 533.56 443.08 529.27 451.77 C 525.60 459.21 525.50 459.69 525.50 470.47 C 525.50 480.95 525.68 481.90 528.76 488.16 C 534.07 498.95 542.72 506.48 554.00 510.14 C 559.08 511.79 564.55 511.91 626.02 511.71 L 692.54 511.50 L 699.27 508.19 Z M 753.00 495.50 L 753.00 479.00 L 746.24 479.00 L 739.47 479.00 L 738.31 483.89 C 736.48 491.60 732.93 498.98 727.81 505.75 L 723.08 512.00 L 738.04 512.00 L 753.00 512.00 L 753.00 495.50 Z M 564.83 475.98 C 562.26 473.42 561.87 472.40 562.38 469.71 C 562.72 467.94 564.15 465.49 565.55 464.25 L 568.11 462.00 L 624.00 462.00 L 679.89 462.00 L 682.64 464.37 C 686.21 467.44 686.45 472.99 683.17 476.27 L 680.95 478.50 L 624.42 478.77 L 567.89 479.05 L 564.83 475.98 Z" stroke-linecap="round"/>
</g>
</g>
</g>

  </svg>