<svg xmlns="http://www.w3.org/2000/svg" xmlns:xlink="http://www.w3.org/1999/xlink" width="2400px" height="2583px" viewBox="0 0 2400.093555089734 2583.4749672376493">
    <g id="30b47413-7179-4fbf-9176-2952330b22d3">
<g style="">
		<g id="30b47413-7179-4fbf-9176-2952330b22d3-child-0">
<path style="stroke: rgb(193,193,193); stroke-width: 0; stroke-dasharray: none; stroke-linecap: butt; stroke-dashoffset: 0; stroke-linejoin: miter; stroke-miterlimit: 4; fill: rgb(0,0,0); fill-rule: nonzero; opacity: 1;" transform="matrix(4.634761 0 0 4.634761 1200.046795 1291.737502) matrix(1 0 0 1 0 0)  translate(-512.076876, -511.89338)" d="M 352.61 789.95 C 303.66 785.52 263.90 749.12 255.44 701.00 C 253.22 688.35 252.38 665.90 253.99 662.03 C 256.20 656.68 258.93 656.00 277.98 656.00 L 295.06 656.00 L 294.96 580.26 L 294.86 504.51 L 297.95 501.76 C 302.43 497.75 307.18 497.98 311.60 502.40 L 315.00 505.80 L 315.00 593.76 C 315.00 649.08 315.38 683.73 316.02 687.11 C 318.78 701.77 329.55 715.72 343.31 722.48 C 353.10 727.29 358.68 728.09 380.10 727.77 L 398.50 727.50 L 399.04 713.50 C 399.53 700.75 399.82 699.03 402.32 694.22 C 408.39 682.54 417.52 676.74 430.75 676.16 L 439.00 675.79 L 439.00 630.93 L 439.00 586.07 L 401.25 585.78 L 363.50 585.50 L 357.93 582.89 C 333.61 571.48 333.53 537.21 357.80 525.30 C 362.80 522.85 364.88 522.46 374.78 522.15 C 387.45 521.74 390.74 522.59 393.31 526.95 C 395.40 530.48 395.45 533.23 393.49 537.02 C 391.29 541.27 389.17 542.00 378.97 542.00 C 368.47 542.00 363.76 543.64 361.46 548.09 C 358.24 554.30 360.58 561.18 367.04 564.52 C 371.23 566.69 652.62 566.77 656.80 564.60 C 665.71 560.00 666.18 549.13 657.70 543.96 C 654.57 542.05 651.78 542.01 537.39 542.00 L 420.27 542.00 L 417.75 539.48 C 414.59 536.32 413.80 532.42 415.49 528.38 C 417.66 523.16 420.35 522.00 430.22 522.00 L 439.00 522.00 L 439.00 500.39 L 439.00 478.78 L 434.47 484.93 C 416.80 508.93 381.83 502.55 375.95 474.25 C 374.05 465.10 375.69 460.61 390.12 435.48 C 397.27 423.02 403.37 412.20 403.67 411.42 C 404.13 410.21 398.65 410.00 366.67 410.00 C 342.63 410.00 328.12 410.38 326.32 411.06 C 322.13 412.64 317.11 417.93 316.00 421.96 C 315.45 423.91 315.01 436.08 315.00 449.00 C 314.99 470.59 314.83 472.76 313.03 475.72 C 311.94 477.51 309.87 479.25 308.39 479.62 C 304.33 480.64 298.94 478.84 296.60 475.68 C 294.59 472.98 294.50 471.70 294.52 446.68 C 294.53 421.58 294.63 420.26 296.87 414.66 C 301.20 403.86 311.09 394.46 321.99 390.78 C 324.44 389.95 339.51 389.50 371.84 389.28 L 418.19 388.97 L 422.34 386.54 C 428.09 383.18 442.90 377.58 452.53 375.12 C 462.52 372.57 478.93 370.58 483.25 371.39 C 485.46 371.80 490.61 375.56 499.29 383.09 C 510.55 392.85 512.28 394.02 513.74 392.84 C 514.66 392.10 519.93 387.52 525.45 382.65 C 538.78 370.91 539.43 370.61 549.42 371.47 C 567.32 373.00 582.16 377.03 597.79 384.59 L 607.08 389.08 L 650.29 389.03 C 697.31 388.96 700.15 389.23 710.21 394.71 C 719.60 399.82 726.82 410.16 728.91 421.47 C 729.61 425.25 730.00 446.50 730.00 480.72 C 730.00 537.56 729.85 539.40 725.15 541.92 C 720.01 544.67 712.74 542.45 710.12 537.32 C 709.33 535.78 709.00 518.51 709.00 479.53 C 709.00 418.70 709.10 419.79 703.09 414.73 C 697.63 410.14 695.02 409.89 655.93 410.20 L 619.36 410.50 L 630.77 430.00 C 646.82 457.44 648.29 460.72 648.29 468.95 C 648.29 489.33 628.41 504.33 608.91 498.66 C 599.58 495.95 594.55 491.88 586.48 480.50 C 585.24 478.75 585.06 481.19 585.03 500.20 L 585.00 521.91 L 622.75 522.21 L 660.50 522.50 L 666.20 525.30 C 669.50 526.92 673.79 530.20 676.38 533.08 C 690.50 548.78 684.81 574.26 665.18 583.34 C 660.69 585.41 659.00 585.51 622.75 585.79 L 585.00 586.09 L 585.00 630.94 L 585.00 675.79 L 593.25 676.16 C 599.44 676.43 602.74 677.13 606.47 678.96 C 612.81 682.06 618.93 688.18 622.05 694.53 C 624.23 698.96 624.54 701.06 624.84 713.75 L 625.19 728.00 L 644.34 727.99 C 665.99 727.97 672.65 726.88 682.41 721.75 C 689.77 717.88 699.53 708.35 703.23 701.43 C 708.38 691.76 709.00 687.03 709.00 657.21 L 709.00 629.85 L 711.87 626.97 C 715.73 623.12 719.35 622.32 723.66 624.38 C 728.75 626.80 730.00 630.76 730.00 644.47 L 730.00 656.00 L 747.42 656.00 C 764.71 656.00 764.87 656.02 767.92 658.59 L 771.00 661.18 L 771.00 674.84 C 770.99 697.00 767.70 712.55 759.43 729.50 C 744.93 759.22 717.66 780.35 683.50 788.32 C 674.58 790.40 673.15 790.42 518.00 790.58 C 431.92 790.68 357.50 790.39 352.61 789.95 Z M 683.50 767.24 C 723.04 756.10 748.36 724.12 750.21 683.00 L 750.50 676.50 L 740.43 676.22 L 730.37 675.93 L 729.16 685.00 C 725.70 710.98 711.98 729.92 688.50 741.10 C 673.23 748.37 682.57 748.00 512.13 748.00 C 347.54 748.00 351.27 748.11 338.84 742.89 C 326.93 737.89 313.40 726.94 306.42 716.67 C 299.64 706.68 295.81 695.78 294.51 682.75 L 293.84 676.00 L 283.92 676.00 L 274.00 676.00 L 274.00 681.25 C 274.01 689.64 276.75 704.26 279.98 713.10 C 290.02 740.61 314.71 761.81 344.00 768.06 C 352.03 769.78 361.35 769.87 514.00 769.69 L 675.50 769.50 L 683.50 767.24 Z M 604.57 723.41 C 605.68 715.98 604.53 705.20 602.31 702.16 C 597.94 696.20 596.63 696.00 560.86 696.00 C 530.22 696.00 528.08 695.88 525.86 694.09 L 523.50 692.18 L 523.00 659.84 L 522.50 627.50 L 512.30 627.22 L 502.10 626.93 L 501.80 659.05 L 501.50 691.18 L 498.69 693.59 L 495.89 696.00 L 463.41 696.00 C 428.30 696.00 426.30 696.26 422.28 701.37 C 419.62 704.75 418.68 711.37 419.54 720.60 L 420.23 728.00 L 512.06 728.00 L 603.88 728.00 L 604.57 723.41 Z M 481.00 645.02 L 481.00 614.03 L 483.92 610.77 L 486.84 607.50 L 512.00 607.50 L 537.16 607.50 L 540.08 610.77 L 543.00 614.03 L 543.00 645.02 L 543.00 676.00 L 553.50 676.00 L 564.00 676.00 L 564.00 631.00 L 564.00 586.00 L 512.00 586.00 L 460.00 586.00 L 460.00 631.00 L 460.00 676.00 L 470.50 676.00 L 481.00 676.00 L 481.00 645.02 Z M 564.00 480.47 C 564.00 433.72 564.08 433.12 570.57 430.41 C 575.19 428.47 579.35 429.35 582.05 432.83 C 583.20 434.30 589.28 444.27 595.57 455.00 C 601.86 465.73 608.36 475.74 610.02 477.25 C 615.03 481.82 623.29 480.21 626.48 474.03 C 629.34 468.51 629.28 468.35 617.18 447.50 C 590.13 400.90 592.98 404.49 578.74 398.97 C 569.83 395.52 561.11 393.38 552.50 392.51 L 546.50 391.91 L 532.15 404.47 C 524.26 411.38 516.98 417.48 515.97 418.02 C 511.13 420.61 508.95 419.41 492.99 405.39 L 477.50 391.78 L 471.38 392.40 C 459.96 393.57 439.70 400.02 433.23 404.55 C 432.01 405.40 427.80 411.59 423.88 418.30 C 419.95 425.01 412.25 438.12 406.77 447.44 C 401.29 456.76 396.58 465.80 396.30 467.54 C 395.29 473.79 400.98 480.01 407.70 479.99 C 413.41 479.98 415.75 477.17 428.94 454.50 C 439.91 435.66 442.26 432.24 445.37 430.67 C 448.38 429.15 449.56 429.03 452.37 429.96 C 459.81 432.41 459.47 430.17 459.78 478.60 L 460.06 522.00 L 512.03 522.00 L 564.00 522.00 L 564.00 480.47 Z M 712.52 601.61 C 709.36 598.45 708.76 594.62 709.16 580.23 C 709.54 566.82 710.31 565.04 716.63 562.96 C 719.43 562.03 720.65 562.15 723.75 563.67 C 729.23 566.35 729.97 568.69 729.99 583.30 C 730.01 600.60 728.20 604.00 719.02 604.00 C 716.02 604.00 714.26 603.35 712.52 601.61 Z M 503.38 354.05 C 496.28 352.94 486.44 349.53 480.50 346.10 C 468.66 339.28 458.35 326.41 453.94 312.95 C 450.74 303.19 450.47 285.58 453.38 277.00 C 460.99 254.56 477.80 239.11 499.63 234.49 C 529.96 228.07 560.50 245.92 570.63 276.00 C 573.44 284.37 573.25 303.12 570.24 312.68 C 566.11 325.81 555.38 339.23 543.50 346.12 C 532.59 352.45 515.19 355.88 503.38 354.05 Z M 529.28 330.25 C 560.29 315.73 560.24 272.53 529.19 257.30 C 524.01 254.76 522.51 254.51 512.50 254.50 C 502.21 254.50 501.06 254.71 494.80 257.67 C 486.27 261.71 479.71 268.27 475.67 276.80 C 472.74 283.00 472.50 284.28 472.50 294.00 C 472.50 303.72 472.74 305.00 475.67 311.20 C 482.88 326.42 496.03 334.24 513.50 333.70 C 521.18 333.47 523.50 332.96 529.28 330.25 Z" stroke-linecap="round"/>
</g>
</g>
</g>

  </svg>