<svg xmlns="http://www.w3.org/2000/svg" xmlns:xlink="http://www.w3.org/1999/xlink" width="310px" height="500px" viewBox="0 0 310.1846100047492 500">
    <g id="5656a244-34a8-4081-8120-6eb677f28bd8">
<g style="">
		<g id="5656a244-34a8-4081-8120-6eb677f28bd8-child-0">
<path style="stroke: rgb(193,193,193); stroke-width: 0; stroke-dasharray: none; stroke-linecap: butt; stroke-dashoffset: 0; stroke-linejoin: miter; stroke-miterlimit: 4; fill: rgb(0,0,0); fill-rule: nonzero; opacity: 1;" transform="matrix(0.796404 0 0 0.796404 155.092367 250.0001) matrix(1 0 0 1 0 0)  translate(-511.759181, -512.029016)" d="M 354.31 824.09 C 336.81 819.08 322.29 803.31 318.44 785.12 C 317.29 779.68 317.03 759.74 317.02 673.32 C 317.01 601.20 317.34 567.25 318.07 565.32 C 321.83 555.38 334.38 553.38 340.72 561.70 L 343.50 565.34 L 343.73 672.88 L 343.95 780.42 L 346.73 785.96 C 349.81 792.12 355.80 797.30 361.78 798.95 C 364.26 799.65 414.15 799.99 512.00 799.99 C 609.85 799.99 659.74 799.65 662.22 798.95 C 668.11 797.32 674.19 792.11 677.25 786.06 L 680.00 780.64 L 680.00 630.82 L 680.00 481.00 L 616.75 480.99 C 573.50 480.99 552.24 480.64 549.50 479.88 C 543.13 478.11 537.63 471.83 535.14 463.50 C 531.42 451.02 523.41 444.62 511.55 444.63 C 499.84 444.65 492.30 450.70 488.75 462.93 C 486.02 472.32 480.96 478.02 473.75 479.83 C 470.46 480.66 450.95 481.00 406.63 481.00 L 344.15 481.00 L 343.83 505.80 C 343.54 527.45 343.28 530.93 341.74 533.28 C 339.07 537.35 335.35 539.33 330.38 539.33 C 325.10 539.33 321.29 536.91 318.75 531.93 C 317.14 528.78 317.00 523.64 317.02 468.00 C 317.04 400.77 317.16 399.22 323.49 386.36 C 329.19 374.77 338.89 366.11 352.26 360.67 C 357.00 358.74 359.97 358.49 383.50 358.02 L 409.50 357.50 L 410.06 341.50 C 410.50 329.08 411.14 323.71 412.92 317.50 C 421.78 286.54 445.06 260.32 474.18 248.51 C 486.69 243.43 497.27 241.53 512.50 241.62 C 532.22 241.74 549.01 246.39 565.12 256.20 C 576.46 263.10 592.80 279.57 599.15 290.50 C 609.68 308.62 613.00 320.40 613.73 342.25 L 614.26 358.00 L 638.45 358.00 C 657.66 358.00 663.76 358.33 668.07 359.60 C 685.84 364.81 699.03 378.12 704.66 396.50 C 706.42 402.23 706.50 410.90 706.50 592.50 L 706.50 782.50 L 704.23 789.71 C 698.93 806.56 684.79 819.96 667.53 824.45 C 662.28 825.82 643.94 825.99 511.04 825.93 C 370.09 825.86 360.11 825.74 354.31 824.09 Z M 463.63 453.25 C 471.77 428.14 498.05 413.45 523.91 419.54 C 539.98 423.33 553.82 435.90 559.93 452.26 L 560.96 455.02 L 620.64 454.76 L 680.32 454.50 L 680.10 429.50 C 679.90 407.02 679.68 404.05 677.89 400.00 C 675.23 394.00 670.58 389.27 664.50 386.39 L 659.50 384.02 L 512.62 384.01 C 404.01 384.00 364.72 384.30 361.86 385.16 C 356.81 386.67 350.68 391.99 347.24 397.83 L 344.50 402.50 L 344.19 428.75 L 343.88 455.00 L 403.47 455.00 C 459.34 455.00 463.10 454.89 463.63 453.25 Z M 587.50 352.97 C 588.81 343.46 586.44 326.71 582.28 316.00 C 574.27 295.43 556.79 278.74 535.50 271.33 C 528.08 268.75 526.37 268.55 512.00 268.55 C 497.63 268.55 495.92 268.75 488.50 271.33 C 464.00 279.85 445.28 300.11 438.45 325.50 C 436.77 331.72 435.27 353.67 436.33 356.43 C 436.87 357.84 444.68 358.00 511.87 358.00 L 586.81 358.00 L 587.50 352.97 Z M 370.12 779.84 C 367.28 778.43 364.73 776.07 362.87 773.14 L 360.00 768.61 L 360.00 640.76 C 360.00 517.29 360.06 512.79 361.89 509.21 C 364.05 504.98 366.16 502.92 370.66 500.64 C 373.50 499.20 387.45 499.04 511.86 498.98 C 648.42 498.91 649.94 498.93 653.85 500.93 C 658.58 503.34 661.62 506.97 663.05 511.89 C 663.76 514.34 664.00 556.32 663.80 642.66 L 663.50 769.81 L 660.44 773.59 C 658.76 775.67 656.14 778.30 654.62 779.44 C 651.86 781.50 651.55 781.50 513.18 781.75 L 374.50 782.01 L 370.12 779.84 Z M 638.00 640.50 L 638.00 525.00 L 512.00 525.00 L 386.00 525.00 L 386.00 640.50 L 386.00 756.00 L 512.00 756.00 L 638.00 756.00 L 638.00 640.50 Z M 375.32 332.06 C 367.54 328.53 366.27 321.82 370.47 306.50 C 383.24 259.93 416.36 223.53 461.41 206.57 C 486.98 196.95 521.98 195.40 549.95 202.65 C 589.34 212.86 623.14 240.44 642.38 278.09 C 648.72 290.47 654.87 308.70 655.65 317.39 C 656.13 322.70 655.89 323.96 653.83 327.00 C 649.30 333.68 641.67 335.45 635.30 331.28 C 632.00 329.11 630.53 325.93 628.06 315.54 C 619.24 278.37 592.57 247.30 556.97 232.70 C 541.13 226.20 531.84 224.54 511.50 224.56 C 496.40 224.58 492.10 224.93 484.83 226.75 C 455.73 234.04 430.41 251.46 413.78 275.62 C 406.95 285.54 399.24 302.69 396.12 314.88 C 393.04 326.90 391.04 330.17 385.28 332.63 C 381.15 334.39 380.35 334.34 375.32 332.06 Z M 503.00 678.89 C 484.65 675.95 466.68 659.10 462.56 640.96 C 455.08 608.09 479.01 577.91 512.46 578.02 C 526.62 578.07 537.80 582.78 548.00 592.99 C 565.13 610.14 567.75 635.69 554.52 656.51 C 547.48 667.58 533.20 676.86 520.00 678.96 C 512.62 680.12 510.69 680.12 503.00 678.89 Z M 524.59 649.45 C 531.40 645.24 535.30 638.66 535.82 630.49 C 536.33 622.55 534.94 618.35 529.93 612.66 C 519.98 601.35 500.73 602.12 492.39 614.16 C 489.02 619.03 486.94 626.81 487.70 631.73 C 488.44 636.50 492.10 643.85 495.15 646.69 C 502.72 653.74 515.69 654.95 524.59 649.45 Z" stroke-linecap="round"/>
</g>
</g>
</g>

  </svg>