<svg xmlns="http://www.w3.org/2000/svg" xmlns:xlink="http://www.w3.org/1999/xlink" width="2965px" height="3467px" viewBox="0 0 2964.504343970042 3466.666666666657">
    <g id="6a6f6474-e671-4e02-84a0-b914ea668b50">
<g style="">
		<g id="6a6f6474-e671-4e02-84a0-b914ea668b50-child-0">
<path style="stroke: rgb(193,193,193); stroke-width: 0; stroke-dasharray: none; stroke-linecap: butt; stroke-dashoffset: 0; stroke-linejoin: miter; stroke-miterlimit: 4; fill: rgb(0,0,0); fill-rule: nonzero; opacity: 1;" transform="matrix(5.432132 0 0 5.432132 1482.252221 1733.333391) matrix(1 0 0 1 0 0)  translate(-512.09251, -511.911032)" d="M 266.00 829.88 C 263.11 828.72 259.33 825.38 257.66 822.50 C 256.81 821.04 256.37 793.67 256.00 720.58 L 255.50 620.67 L 252.50 619.71 C 235.92 614.39 234.51 592.12 250.31 584.95 C 253.72 583.40 256.88 583.04 267.25 583.02 L 280.00 583.00 L 280.00 406.47 C 280.00 266.12 279.74 229.86 278.75 229.55 C 278.06 229.34 276.27 228.90 274.77 228.57 C 267.07 226.88 261.45 217.27 262.19 207.05 C 262.68 200.31 265.05 196.79 270.72 194.37 C 275.67 192.26 749.46 192.33 754.51 194.44 C 759.52 196.53 762.00 201.20 761.97 208.50 C 761.94 218.62 756.96 226.21 748.53 228.99 L 745.00 230.16 L 745.00 406.58 L 745.00 583.00 L 757.03 583.00 C 769.84 583.00 774.27 584.07 778.87 588.30 C 782.09 591.26 784.96 597.71 784.96 602.00 C 784.96 609.49 778.64 618.04 772.04 619.49 L 769.04 620.15 L 768.77 719.83 C 768.50 817.66 768.46 819.56 766.49 822.93 C 765.38 824.82 762.51 827.39 760.08 828.68 L 755.69 831.00 L 512.09 830.94 C 352.73 830.90 267.64 830.53 266.00 829.88 Z M 380.76 770.71 L 381.02 724.93 L 378.13 727.06 C 376.04 728.61 373.83 729.18 370.10 729.15 L 364.96 729.11 L 365.03 763.31 L 365.10 797.50 L 362.50 799.75 C 359.90 801.99 359.73 802.00 325.37 802.00 L 290.85 802.00 L 287.92 799.08 L 285.00 796.15 L 285.00 718.08 C 285.00 641.33 285.03 639.97 287.00 638.00 C 288.93 636.07 290.33 636.00 324.81 636.00 C 354.14 636.00 360.97 636.26 362.56 637.42 C 364.39 638.76 364.53 640.64 365.00 672.11 L 365.50 705.38 L 370.20 705.46 C 373.62 705.53 375.55 706.17 377.31 707.82 L 379.72 710.09 L 380.35 706.29 C 380.70 704.21 380.98 683.94 380.99 661.25 L 381.00 620.00 L 325.55 620.00 L 270.10 620.00 L 269.80 717.25 C 269.63 772.14 269.88 815.05 270.38 815.76 C 271.07 816.75 282.88 816.96 325.88 816.76 L 380.50 816.50 L 380.76 770.71 Z M 505.75 718.25 L 506.01 620.00 L 450.50 620.00 L 395.00 620.00 L 395.03 665.25 C 395.05 695.99 395.38 709.95 396.06 708.78 C 397.32 706.63 404.08 704.73 407.46 705.58 L 410.00 706.22 L 410.00 673.11 C 410.00 641.33 410.08 639.92 412.00 638.00 C 413.93 636.07 415.33 636.00 450.00 636.00 C 484.67 636.00 486.07 636.07 488.00 638.00 C 489.10 639.10 490.01 640.79 490.03 641.75 C 490.04 642.71 490.05 678.15 490.05 720.50 L 490.05 797.50 L 487.47 799.75 C 484.90 801.99 484.72 802.00 450.89 802.00 C 415.25 802.00 412.23 801.66 410.62 797.46 C 410.28 796.56 410.00 780.90 410.00 762.64 L 410.00 729.45 L 406.25 729.78 C 403.92 729.98 401.08 729.37 398.75 728.16 L 395.00 726.22 L 395.00 771.62 L 395.00 817.02 L 450.25 816.76 L 505.50 816.50 L 505.75 718.25 Z M 630.00 771.48 L 630.00 725.95 L 627.38 727.67 C 625.81 728.70 622.81 729.38 619.88 729.38 L 615.00 729.38 L 615.00 763.10 L 615.00 796.82 L 611.92 799.41 L 608.85 802.00 L 574.48 802.00 C 540.26 802.00 540.10 801.99 537.55 799.75 L 534.99 797.50 L 534.91 718.53 L 534.82 639.56 L 537.02 637.78 C 539.04 636.15 542.16 636.00 574.66 636.00 L 610.09 636.00 L 612.55 638.45 L 615.00 640.91 L 615.00 673.58 L 615.00 706.25 L 617.88 705.67 C 621.65 704.92 627.68 706.62 628.94 708.79 C 629.62 709.95 629.95 695.82 629.97 665.24 L 630.00 619.98 L 574.75 620.24 L 519.50 620.50 L 519.52 633.25 C 519.53 640.26 519.64 684.47 519.77 731.50 L 520.00 817.00 L 575.00 817.00 L 630.00 817.00 L 630.00 771.48 Z M 753.80 815.80 C 754.72 814.88 755.00 791.64 755.00 717.30 L 755.00 620.00 L 699.50 620.00 L 644.00 620.00 L 644.00 665.03 L 644.00 710.06 L 646.95 707.88 C 648.89 706.44 651.46 705.66 654.45 705.60 L 659.00 705.50 L 659.00 673.38 C 659.00 642.41 659.07 641.18 661.07 638.63 L 663.15 636.00 L 699.07 636.00 C 733.67 636.00 735.07 636.07 737.00 638.00 C 738.97 639.97 739.00 641.33 739.00 718.55 L 739.00 797.09 L 736.55 799.55 L 734.09 802.00 L 699.30 801.97 C 673.52 801.94 664.09 801.62 662.91 800.72 C 659.21 797.88 659.00 795.77 659.00 762.07 L 659.00 729.00 L 654.13 729.00 C 650.73 729.00 648.48 728.38 646.63 726.93 L 644.00 724.85 L 644.00 770.93 L 644.00 817.00 L 698.30 817.00 C 739.20 817.00 752.90 816.70 753.80 815.80 Z M 351.00 718.50 L 351.00 650.00 L 325.00 650.00 L 299.00 650.00 L 299.00 718.50 L 299.00 787.00 L 325.00 787.00 L 351.00 787.00 L 351.00 718.50 Z M 476.19 722.00 C 476.30 686.25 476.41 655.54 476.44 653.75 L 476.50 650.50 L 450.25 650.23 L 424.00 649.97 L 424.00 718.48 L 424.00 787.00 L 450.00 787.00 L 476.00 787.00 L 476.19 722.00 Z M 601.00 718.50 L 601.00 650.00 L 574.50 650.00 L 548.00 650.00 L 548.00 718.50 L 548.00 787.00 L 574.50 787.00 L 601.00 787.00 L 601.00 718.50 Z M 725.76 718.75 L 725.50 650.50 L 699.25 650.23 L 673.00 649.97 L 673.00 718.48 L 673.00 787.00 L 699.51 787.00 L 726.01 787.00 L 725.76 718.75 Z M 769.07 604.96 C 771.25 603.80 771.60 601.00 769.80 599.20 C 768.87 598.27 710.10 598.00 511.37 598.00 C 256.66 598.00 254.13 598.02 253.51 599.96 C 253.17 601.04 253.38 602.84 253.98 603.96 L 255.07 606.00 L 511.10 606.00 C 685.68 606.00 767.75 605.67 769.07 604.96 Z M 304.21 579.25 C 304.32 577.19 304.44 552.33 304.46 524.00 L 304.50 472.50 L 306.87 467.68 C 309.59 462.17 314.35 458.59 321.00 457.07 C 323.98 456.39 388.54 456.04 512.57 456.02 C 718.60 456.00 706.16 455.62 712.86 462.16 C 719.83 468.98 719.47 465.58 719.78 527.25 L 720.06 583.00 L 725.53 583.00 L 731.00 583.00 L 731.00 515.50 L 731.00 448.00 L 512.50 448.00 L 294.00 448.00 L 294.00 515.50 L 294.00 583.00 L 299.00 583.00 L 304.00 583.00 L 304.21 579.25 Z M 706.00 529.07 L 706.00 475.15 L 703.37 473.07 L 700.73 471.00 L 511.82 471.00 L 322.91 471.00 L 320.45 473.45 L 318.00 475.91 L 318.00 527.87 C 318.00 556.45 318.27 580.55 318.61 581.42 C 319.16 582.85 337.18 583.00 512.61 583.00 L 706.00 583.00 L 706.00 529.07 Z M 505.50 387.95 L 505.50 342.41 L 502.02 344.76 C 499.50 346.47 497.44 347.04 494.52 346.83 L 490.50 346.54 L 490.00 381.23 C 489.54 412.81 489.34 416.09 487.71 417.72 C 486.03 419.40 481.14 419.50 400.04 419.50 L 314.16 419.50 L 311.58 417.08 L 309.00 414.65 L 309.00 332.02 C 309.00 262.24 309.22 249.08 310.42 247.44 C 311.80 245.55 314.15 245.49 396.17 245.00 C 442.55 244.73 482.06 244.81 483.97 245.20 C 485.88 245.58 488.02 246.68 488.72 247.64 C 489.70 248.98 490.00 257.89 490.00 286.07 L 490.00 322.75 L 495.67 323.22 C 499.99 323.58 501.77 324.23 503.17 325.96 C 504.99 328.21 505.00 328.18 505.18 321.36 C 505.29 317.59 505.40 295.49 505.43 272.25 L 505.50 230.00 L 399.75 230.00 L 294.00 230.00 L 294.00 331.82 L 294.00 433.64 L 399.75 433.57 L 505.50 433.50 L 505.50 387.95 Z M 731.00 331.85 L 731.00 230.00 L 625.00 230.00 L 519.00 230.00 L 519.12 276.25 C 519.18 301.69 519.58 323.85 520.00 325.50 C 520.42 327.15 520.82 327.91 520.88 327.20 C 521.04 325.45 527.13 323.00 531.31 323.00 L 534.68 323.00 L 534.20 290.14 C 533.68 253.58 534.03 248.68 537.34 246.51 C 539.23 245.27 552.19 245.05 625.53 244.97 L 711.49 244.87 L 713.75 247.49 L 716.00 250.11 L 715.97 332.31 C 715.94 395.34 715.65 414.87 714.72 416.09 C 711.72 419.99 711.57 420.00 626.69 420.00 C 581.35 420.00 542.80 419.71 541.02 419.35 C 538.89 418.93 537.14 417.65 535.89 415.60 C 534.10 412.69 533.99 410.48 534.24 379.85 L 534.50 347.21 L 529.72 346.75 C 526.69 346.46 524.10 345.50 522.65 344.14 C 521.40 342.96 520.08 342.00 519.72 342.00 C 518.59 342.00 518.85 432.78 519.99 433.16 C 520.55 433.35 568.26 433.54 626.01 433.60 L 731.00 433.70 L 731.00 331.85 Z M 392.00 372.50 L 392.00 340.00 L 357.00 340.00 L 322.00 340.00 L 322.00 371.83 C 322.00 389.34 322.30 403.97 322.67 404.33 C 323.03 404.70 338.78 405.00 357.67 405.00 L 392.00 405.00 L 392.00 372.50 Z M 476.00 372.50 L 476.00 340.00 L 441.00 340.00 L 406.00 340.00 L 406.00 372.50 L 406.00 405.00 L 441.00 405.00 L 476.00 405.00 L 476.00 372.50 Z M 618.00 372.50 L 618.00 340.00 L 583.00 340.00 L 548.00 340.00 L 548.00 372.50 L 548.00 405.00 L 583.00 405.00 L 618.00 405.00 L 618.00 372.50 Z M 702.00 372.50 L 702.00 340.00 L 667.00 340.00 L 632.00 340.00 L 632.00 372.50 L 632.00 405.00 L 667.00 405.00 L 702.00 405.00 L 702.00 372.50 Z M 392.00 292.50 L 392.00 259.00 L 357.00 259.00 L 322.00 259.00 L 322.01 290.25 C 322.02 307.44 322.30 322.51 322.63 323.75 L 323.23 326.00 L 357.62 326.00 L 392.00 326.00 L 392.00 292.50 Z M 476.00 292.50 L 476.00 259.00 L 441.00 259.00 L 406.00 259.00 L 406.00 292.50 L 406.00 326.00 L 441.00 326.00 L 476.00 326.00 L 476.00 292.50 Z M 618.00 292.50 L 618.00 259.00 L 583.00 259.00 L 548.00 259.00 L 548.00 291.83 C 548.00 309.89 548.30 324.97 548.67 325.33 C 549.03 325.70 564.78 326.00 583.67 326.00 L 618.00 326.00 L 618.00 292.50 Z M 702.00 292.50 L 702.00 259.00 L 667.00 259.00 L 632.00 259.00 L 632.00 292.50 L 632.00 326.00 L 667.00 326.00 L 702.00 326.00 L 702.00 292.50 Z M 747.66 212.06 C 748.33 210.71 748.65 209.25 748.38 208.81 C 748.11 208.36 641.71 208.00 511.94 208.00 L 276.00 208.00 L 276.00 210.30 C 276.00 211.57 276.54 213.14 277.20 213.80 C 278.13 214.73 331.23 214.95 512.42 214.75 L 746.44 214.50 L 747.66 212.06 Z" stroke-linecap="round"/>
</g>
</g>
</g>

  </svg>