<svg xmlns="http://www.w3.org/2000/svg" xmlns:xlink="http://www.w3.org/1999/xlink" width="500px" height="440px" viewBox="0 0 500.0000000000002 439.75773629526043">
    <g id="e672fc64-33a9-4bbb-b28e-df500d216b12">
<g style="">
		<g id="e672fc64-33a9-4bbb-b28e-df500d216b12-child-0">
<path style="stroke: rgb(193,193,193); stroke-width: 0; stroke-dasharray: none; stroke-linecap: butt; stroke-dashoffset: 0; stroke-linejoin: miter; stroke-miterlimit: 4; fill: rgb(0,0,0); fill-rule: nonzero; opacity: 1;" transform="matrix(0.893508 0 0 0.893508 250.000055 219.878916) matrix(1 0 0 1 0 0)  translate(-512.165711, -512.045)" d="M 318.62 756.89 C 312.42 755.43 303.33 750.09 298.91 745.29 C 293.50 739.42 288.95 729.51 288.28 722.14 C 287.80 716.88 287.43 716.10 284.62 714.46 C 279.39 711.41 268.08 699.89 263.40 692.85 C 252.49 676.45 250.82 668.73 250.23 632.33 L 249.78 604.15 L 247.06 603.02 C 245.56 602.40 242.61 600.23 240.51 598.20 C 227.52 585.64 231.08 564.30 247.40 556.86 L 250.00 555.68 L 250.00 482.37 L 250.00 409.05 L 246.75 407.41 C 242.17 405.11 237.19 400.19 234.69 395.50 C 231.40 389.33 231.64 378.96 235.21 372.89 C 238.09 367.99 242.69 363.59 247.85 360.80 L 251.00 359.09 L 251.00 345.21 C 251.00 329.34 252.79 320.34 258.05 309.86 C 266.79 292.41 279.10 280.41 296.33 272.51 C 310.32 266.10 311.57 266.00 376.49 266.00 L 435.09 266.00 L 437.55 268.45 C 442.32 273.23 440.11 282.01 433.78 283.47 C 432.52 283.76 405.40 284.12 373.50 284.27 C 316.28 284.53 315.41 284.56 308.79 286.79 C 299.85 289.81 288.06 297.85 282.33 304.83 C 276.96 311.38 271.73 322.09 270.04 330.00 C 269.38 333.09 269.00 340.76 269.18 347.50 L 269.50 359.50 L 275.50 359.50 L 281.50 359.50 L 282.09 345.50 C 282.70 330.95 283.74 326.53 288.44 318.52 C 292.09 312.29 301.25 304.25 308.74 300.70 L 315.50 297.50 L 508.50 297.19 C 652.17 296.96 702.91 297.18 707.00 298.05 C 719.79 300.75 732.28 311.00 738.26 323.71 C 741.30 330.17 741.48 331.20 741.84 344.76 C 742.27 360.90 742.01 360.46 751.08 359.82 L 755.50 359.50 L 755.78 348.84 C 756.14 335.53 754.30 326.28 749.29 316.13 C 743.05 303.49 730.26 292.42 715.32 286.72 L 709.50 284.50 L 585.33 284.00 L 461.16 283.50 L 458.58 281.08 C 454.95 277.66 454.99 271.84 458.67 268.43 L 461.34 265.96 L 586.92 266.23 L 712.50 266.50 L 721.26 269.63 C 741.02 276.70 756.55 290.22 765.63 308.25 C 771.09 319.10 773.11 328.33 773.73 345.27 L 774.27 360.04 L 777.65 361.64 C 782.66 364.02 789.50 372.13 790.99 377.47 C 792.56 383.08 791.81 390.50 789.13 395.75 C 786.76 400.40 780.04 406.70 776.53 407.58 L 774.00 408.22 L 774.00 482.00 L 774.00 555.78 L 776.61 556.44 C 780.62 557.44 789.36 566.81 790.78 571.62 C 794.37 583.76 789.60 595.91 778.93 601.80 L 774.03 604.50 L 773.98 630.50 C 773.93 658.77 773.03 666.71 768.59 678.40 C 763.70 691.30 754.94 702.86 743.57 711.41 C 736.48 716.75 736.00 717.35 736.00 720.90 C 736.00 726.04 732.80 734.98 728.96 740.56 C 724.64 746.84 715.23 753.54 707.30 755.99 C 701.13 757.89 698.06 758.00 648.60 758.00 C 592.04 758.00 589.64 757.80 580.50 752.44 C 578.12 751.05 574.30 747.88 572.01 745.40 C 568.12 741.17 563.03 732.05 563.01 729.25 C 563.00 728.27 552.12 728.00 511.97 728.00 C 464.23 728.00 460.90 728.11 460.42 729.75 C 457.39 740.04 449.05 749.64 439.00 754.41 L 432.50 757.50 L 408.24 757.81 L 383.98 758.13 L 380.99 755.14 C 377.42 751.58 376.98 746.49 379.91 742.86 C 381.79 740.53 382.12 740.49 405.16 740.00 C 425.39 739.57 428.95 739.25 431.90 737.65 C 435.31 735.79 441.00 730.24 441.00 728.78 C 441.00 728.35 414.34 727.98 381.75 727.96 C 338.42 727.93 320.55 727.58 315.25 726.65 C 311.26 725.95 308.00 725.54 308.00 725.74 C 308.00 726.97 311.18 731.83 313.15 733.63 C 318.87 738.83 321.45 739.42 340.00 739.82 C 354.52 740.12 357.82 740.47 359.36 741.84 C 362.31 744.46 363.20 747.86 361.95 751.66 C 360.09 757.28 357.36 758.01 338.80 757.90 C 329.83 757.84 320.75 757.39 318.62 756.89 Z M 702.29 738.61 C 707.48 737.05 711.62 734.13 714.22 730.18 C 716.73 726.37 716.45 725.67 712.75 726.52 C 710.96 726.93 680.70 727.54 645.50 727.88 L 581.50 728.50 L 586.06 733.05 C 588.57 735.55 592.17 738.10 594.06 738.70 C 599.61 740.47 696.38 740.39 702.29 738.61 Z M 714.18 706.63 C 725.09 702.95 730.69 699.44 739.02 691.06 C 747.69 682.34 751.25 676.27 754.02 665.41 C 755.75 658.67 756.00 654.31 756.00 631.34 L 756.00 605.00 L 749.00 605.00 L 742.00 605.00 L 742.00 632.34 C 742.00 657.17 741.81 660.23 739.98 665.59 C 735.36 679.10 724.28 689.91 710.46 694.39 C 705.86 695.88 688.54 696.00 510.46 695.76 L 315.50 695.50 L 308.71 692.28 C 301.15 688.70 291.40 680.07 287.62 673.61 C 282.57 664.98 282.00 660.72 282.00 631.82 L 282.00 605.00 L 275.50 605.00 L 269.00 605.00 L 269.00 632.29 C 269.00 662.42 269.52 666.17 275.28 677.97 C 283.04 693.83 302.88 707.23 321.50 709.19 C 323.15 709.36 410.53 709.41 515.68 709.30 L 706.85 709.10 L 714.18 706.63 Z M 709.50 675.34 C 714.82 672.46 719.43 667.51 721.92 662.00 C 723.80 657.85 723.96 655.48 723.98 631.25 L 724.00 605.00 L 511.94 605.00 L 299.88 605.00 L 300.19 631.75 L 300.50 658.50 L 303.45 663.82 C 306.73 669.74 311.90 674.33 317.68 676.46 C 320.92 677.66 350.61 677.84 513.50 677.68 L 705.50 677.50 L 709.50 675.34 Z M 770.90 584.60 C 773.79 581.97 773.73 576.62 770.78 574.56 C 768.78 573.16 742.62 573.00 512.41 573.00 L 256.27 573.00 L 253.63 575.07 C 250.09 577.86 250.09 582.14 253.64 584.93 L 256.28 587.01 L 512.54 586.76 C 762.94 586.51 768.84 586.46 770.90 584.60 Z M 281.50 482.00 L 281.50 409.50 L 275.33 409.50 L 269.17 409.50 L 268.95 468.50 C 268.83 500.95 268.79 533.71 268.87 541.30 L 269.00 555.10 L 275.25 554.80 L 281.50 554.50 L 281.50 482.00 Z M 724.00 528.06 C 724.00 512.80 723.60 500.87 723.08 500.55 C 720.86 499.18 712.87 498.81 710.11 499.95 C 706.74 501.35 705.39 504.27 704.62 511.81 C 703.09 526.80 689.64 537.91 674.44 536.73 C 663.80 535.91 655.31 530.79 650.26 522.18 C 647.89 518.14 647.51 516.30 647.23 507.53 C 646.84 495.29 646.49 493.49 643.97 490.97 C 642.43 489.43 640.64 489.00 635.80 489.00 L 629.61 489.00 L 621.05 497.95 C 610.65 508.82 605.87 511.32 595.50 511.32 C 582.97 511.32 575.07 506.48 566.56 493.55 C 559.60 482.98 558.22 482.00 550.33 482.00 C 545.20 482.00 543.62 482.42 541.31 484.41 L 538.50 486.82 L 537.99 508.16 C 537.41 532.11 536.95 534.05 530.23 540.77 C 521.40 549.60 505.94 550.39 495.65 542.54 C 493.82 541.15 491.01 537.64 489.41 534.75 C 486.50 529.51 486.50 529.47 486.21 509.50 C 486.04 498.08 485.44 488.30 484.82 486.70 C 483.36 482.99 478.68 480.71 472.50 480.71 C 466.54 480.71 462.78 482.48 458.00 487.52 C 450.57 495.37 441.50 499.00 429.35 499.00 C 420.77 499.00 414.91 497.21 406.06 491.88 C 399.71 488.05 399.49 488.00 389.46 488.00 C 383.87 488.00 377.77 487.48 375.90 486.84 C 370.21 484.90 364.69 480.53 360.80 474.87 C 354.37 465.53 347.01 463.34 340.77 468.92 L 337.50 471.83 L 337.00 499.67 C 336.57 523.78 336.26 527.93 334.73 530.74 C 331.90 535.93 327.00 540.96 322.62 543.19 C 317.81 545.65 307.45 546.70 303.09 545.18 L 300.00 544.10 L 300.00 549.55 L 300.00 555.00 L 512.00 555.00 L 724.00 555.00 L 724.00 528.06 Z M 755.76 482.25 L 755.50 409.50 L 749.00 409.50 L 742.50 409.50 L 742.38 481.50 C 742.31 521.10 742.45 553.84 742.69 554.25 C 742.92 554.66 746.02 555.00 749.57 555.00 L 756.01 555.00 L 755.76 482.25 Z M 517.93 526.37 C 519.87 523.90 520.00 522.45 520.00 503.85 C 520.00 485.70 520.18 483.59 522.12 479.48 C 529.23 464.34 549.53 458.57 566.43 466.89 C 573.54 470.39 577.22 474.21 581.62 482.67 C 585.79 490.68 590.89 493.81 597.69 492.53 C 600.35 492.03 603.23 489.83 609.36 483.63 C 619.61 473.26 624.49 470.77 635.73 470.18 C 643.47 469.78 644.48 469.96 650.41 472.88 C 661.42 478.30 665.00 485.26 665.00 501.23 L 665.00 511.20 L 668.40 514.60 C 672.90 519.10 678.48 519.35 683.00 515.25 C 685.60 512.89 686.16 511.47 686.92 505.25 C 688.87 489.35 698.73 481.07 715.75 481.02 L 724.00 481.00 L 724.00 445.62 L 724.00 410.23 L 721.75 409.63 C 720.51 409.30 625.11 409.02 509.75 409.01 L 300.00 409.00 L 300.00 465.37 C 300.00 520.61 300.04 521.78 302.04 524.33 C 306.12 529.51 315.15 528.35 317.91 522.29 C 318.60 520.79 319.00 511.08 319.00 496.07 C 319.00 468.35 319.70 464.77 326.65 457.04 C 333.94 448.94 344.49 445.73 354.99 448.42 C 362.78 450.41 368.94 454.65 373.99 461.48 C 376.17 464.44 378.53 467.22 379.23 467.68 C 379.93 468.13 385.53 468.73 391.67 469.00 L 402.84 469.50 L 413.35 474.92 C 423.05 479.93 424.37 480.34 430.36 480.25 C 438.03 480.13 439.69 479.36 447.17 472.48 C 456.20 464.16 460.50 462.50 473.00 462.50 C 484.56 462.51 488.24 463.76 495.53 470.16 C 502.85 476.58 503.44 478.90 504.00 503.15 C 504.45 522.62 504.69 525.01 506.40 526.90 C 509.26 530.05 515.24 529.78 517.93 526.37 Z M 771.00 389.00 C 773.72 386.28 773.61 381.54 770.78 379.56 C 768.78 378.16 742.55 378.00 511.61 378.00 C 273.92 378.00 254.52 378.12 252.83 379.65 C 250.42 381.84 250.50 386.50 253.00 389.00 C 254.99 390.99 256.33 391.00 512.00 391.00 C 767.67 391.00 769.01 390.99 771.00 389.00 Z M 723.50 347.00 C 723.50 335.01 723.38 334.28 720.53 329.14 C 716.86 322.51 711.99 318.39 705.57 316.47 C 698.13 314.25 325.87 314.25 318.43 316.47 C 312.00 318.39 307.13 322.52 303.49 329.14 C 300.82 334.00 300.51 335.56 300.16 345.75 C 299.96 351.93 300.05 357.68 300.36 358.51 C 300.88 359.85 324.48 359.99 512.22 359.76 L 723.50 359.50 L 723.50 347.00 Z" stroke-linecap="round"/>
</g>
</g>
</g>

  </svg>