<svg xmlns="http://www.w3.org/2000/svg" xmlns:xlink="http://www.w3.org/1999/xlink" width="500px" height="429px" viewBox="0 0 500 428.51426533002336">
    <g id="93a121df-ea14-427f-8436-204b2a7dc129">
<g style="">
		<g id="93a121df-ea14-427f-8436-204b2a7dc129-child-0">
<path style="stroke: rgb(193,193,193); stroke-width: 0; stroke-dasharray: none; stroke-linecap: butt; stroke-dashoffset: 0; stroke-linejoin: miter; stroke-miterlimit: 4; fill: rgb(0,0,0); fill-rule: nonzero; opacity: 1;" transform="matrix(0.85504 0 0 0.85504 249.999865 214.257017) matrix(1 0 0 1 0 0)  translate(-511.989796, -511.57726)" d="M 673.72 761.86 C 666.64 760.82 661.49 757.42 635.29 736.55 C 527.98 651.05 512.20 638.76 510.77 639.63 C 508.85 640.80 463.43 676.82 378.00 744.94 C 359.56 759.64 355.14 761.98 345.79 761.99 C 336.80 762.00 329.56 759.21 323.77 753.50 C 316.91 746.74 314.57 741.16 314.53 731.50 C 314.48 717.10 316.92 714.03 347.50 690.05 C 358.50 681.42 377.17 666.72 389.00 657.38 C 408.51 641.97 429.51 625.42 453.25 606.72 C 458.06 602.92 462.00 599.50 462.00 599.11 C 462.00 598.41 443.65 583.72 386.60 538.77 L 357.69 516.00 L 303.89 516.00 C 269.76 516.00 248.29 515.61 245.15 514.94 C 234.32 512.62 223.75 503.13 220.84 493.10 C 218.85 486.27 219.30 477.41 221.95 471.30 C 224.98 464.32 232.88 456.94 240.31 454.16 C 245.80 452.10 247.71 452.00 280.29 451.99 L 314.50 451.98 L 328.71 418.24 C 353.33 359.77 369.58 320.98 375.48 306.53 C 378.62 298.85 382.55 289.87 384.21 286.59 C 389.89 275.33 402.08 265.15 413.50 262.12 C 416.15 261.42 443.95 261.04 496.00 261.01 C 581.38 260.95 579.38 260.83 590.10 266.63 C 602.35 273.26 597.71 266.26 686.08 411.68 L 710.50 451.86 L 745.50 452.18 L 780.50 452.50 L 786.00 455.11 C 803.99 463.66 809.84 485.04 798.74 501.66 C 796.96 504.32 793.32 507.96 790.65 509.74 C 781.29 516.00 781.28 516.00 720.57 516.02 L 665.50 516.04 L 654.50 524.84 C 641.26 535.42 594.69 572.28 575.54 587.35 C 562.12 597.90 561.80 598.24 563.62 600.01 C 565.46 601.79 606.38 634.37 665.00 680.72 C 681.22 693.55 696.71 706.16 699.41 708.74 C 715.08 723.75 712.27 747.43 693.50 758.53 C 688.65 761.40 680.19 762.82 673.72 761.86 Z M 350.83 741.96 C 353.93 740.07 367.24 729.71 401.50 702.49 C 409.20 696.37 433.27 677.28 455.00 660.07 C 476.73 642.85 495.08 628.22 495.79 627.55 C 496.83 626.58 495.15 624.83 487.33 618.75 L 477.58 611.16 L 474.04 613.94 C 466.59 619.77 426.07 651.74 405.25 668.21 C 393.29 677.67 373.15 693.47 360.50 703.31 C 347.85 713.15 336.52 722.36 335.33 723.77 C 330.55 729.41 331.92 738.15 338.19 741.97 C 342.40 744.54 346.61 744.54 350.83 741.96 Z M 685.53 741.98 C 689.40 739.59 692.32 733.21 691.38 729.21 C 690.44 725.21 687.30 722.23 668.00 706.98 C 649.13 692.07 581.79 638.50 487.24 563.20 L 427.97 516.00 L 407.91 516.00 L 387.85 516.00 L 402.67 527.67 C 431.36 550.26 450.94 565.80 497.00 602.52 C 522.58 622.92 559.03 651.93 578.00 667.00 C 596.97 682.07 625.76 705.00 641.97 717.95 C 658.17 730.90 672.35 742.05 673.47 742.71 C 676.55 744.56 681.89 744.23 685.53 741.98 Z M 558.50 577.23 C 573.84 565.00 600.50 543.95 619.83 528.80 L 636.16 516.00 L 616.50 516.00 L 596.83 516.00 L 585.67 524.71 C 579.53 529.50 565.95 540.16 555.50 548.39 C 545.05 556.62 534.35 565.04 531.71 567.10 L 526.93 570.85 L 536.21 578.36 C 541.32 582.49 545.95 585.89 546.50 585.93 C 547.05 585.97 552.45 582.05 558.50 577.23 Z M 553.38 526.56 L 566.27 516.50 L 539.70 516.23 C 525.09 516.09 500.87 516.09 485.87 516.23 L 458.60 516.50 L 485.40 537.70 L 512.20 558.89 L 526.35 547.75 C 534.13 541.63 546.30 532.09 553.38 526.56 Z M 779.70 495.04 C 783.73 492.58 786.00 488.26 786.00 483.03 C 786.00 479.82 785.30 478.21 782.63 475.30 L 779.27 471.63 L 764.48 470.80 C 756.35 470.35 636.70 470.09 498.60 470.24 C 260.71 470.49 247.33 470.59 244.27 472.27 C 235.54 477.04 236.05 490.82 245.12 495.29 C 248.25 496.83 268.29 496.96 512.50 496.97 C 772.60 496.99 776.55 496.96 779.70 495.04 Z M 687.58 450.35 C 687.23 449.44 683.76 443.59 679.86 437.35 L 672.78 426.00 L 509.04 426.00 L 345.30 426.00 L 340.13 438.25 C 337.29 444.99 334.97 450.84 334.98 451.25 C 334.99 451.66 414.47 452.00 511.61 452.00 C 675.41 452.00 688.17 451.88 687.58 450.35 Z M 661.00 407.18 C 661.00 406.73 652.39 392.21 641.86 374.93 C 631.33 357.64 615.69 331.84 607.11 317.58 C 598.52 303.32 589.91 290.03 587.96 288.04 C 586.01 286.05 582.18 283.31 579.46 281.96 L 574.50 279.50 L 498.08 279.23 C 411.57 278.92 415.56 278.59 406.90 286.69 C 402.95 290.38 401.31 293.20 396.64 304.29 C 393.58 311.56 382.70 337.30 372.45 361.50 C 362.21 385.70 353.59 406.06 353.31 406.75 C 352.89 407.75 384.00 408.00 506.89 408.00 C 591.65 408.00 661.00 407.63 661.00 407.18 Z M 446.31 377.16 C 435.20 373.28 426.35 364.43 423.38 354.25 C 421.26 346.95 421.89 335.24 424.74 328.82 C 427.66 322.26 434.38 315.36 441.46 311.66 L 447.50 308.50 L 501.00 308.50 L 554.50 308.50 L 560.82 311.93 C 567.89 315.76 573.28 321.31 577.00 328.61 C 579.18 332.87 579.50 334.80 579.49 343.50 C 579.48 352.41 579.18 354.06 576.79 358.62 C 573.18 365.50 566.23 372.25 559.24 375.68 L 553.50 378.50 L 502.50 378.74 C 455.50 378.95 451.09 378.83 446.31 377.16 Z M 551.60 358.80 C 556.16 356.31 560.64 350.75 561.41 346.63 C 562.92 338.57 557.14 329.24 549.27 327.06 C 546.90 326.40 528.59 326.01 499.96 326.01 C 454.72 326.00 454.39 326.01 449.97 328.25 C 439.54 333.52 437.05 346.46 444.80 355.09 C 450.04 360.90 450.93 360.99 502.00 360.73 C 543.59 360.52 548.83 360.32 551.60 358.80 Z" stroke-linecap="round"/>
</g>
</g>
</g>

  </svg>