<svg xmlns="http://www.w3.org/2000/svg" xmlns:xlink="http://www.w3.org/1999/xlink" width="500px" height="448px" viewBox="0 0 500 447.74363978755576">
    <g id="0a637148-a190-4933-b6c3-5d5074ae6e21">
<g style="">
		<g id="0a637148-a190-4933-b6c3-5d5074ae6e21-child-0">
<path style="stroke: rgb(193,193,193); stroke-width: 0; stroke-dasharray: none; stroke-linecap: butt; stroke-dashoffset: 0; stroke-linejoin: miter; stroke-miterlimit: 4; fill: rgb(0,0,0); fill-rule: nonzero; opacity: 1;" transform="matrix(0.779027 0 0 0.779027 250.000047 223.871862) matrix(1 0 0 1 0 0)  translate(-511.933095, -512.51806)" d="M 283.50 798.87 C 247.66 795.47 220.25 786.13 206.60 772.68 C 195.83 762.07 191.05 748.88 191.02 729.71 C 191.01 724.32 191.72 716.45 192.59 712.21 C 194.20 704.37 199.15 692.41 203.02 686.97 C 205.13 684.02 205.15 683.39 204.90 645.76 L 204.65 607.54 L 200.45 602.39 C 194.66 595.28 192.50 589.19 192.50 580.00 C 192.50 573.87 192.99 571.50 195.21 567.00 C 204.29 548.54 231.84 535.64 273.07 530.53 C 282.49 529.36 296.01 529.00 329.82 529.00 L 374.20 529.00 L 377.60 532.40 C 380.19 534.99 381.00 536.65 381.00 539.35 C 381.00 543.98 379.32 547.55 376.10 549.74 C 373.73 551.34 369.10 551.55 324.50 552.07 C 272.05 552.67 269.59 552.88 248.00 558.56 C 236.60 561.56 223.56 567.79 219.14 572.35 C 214.97 576.66 214.20 581.37 216.95 585.77 C 222.68 594.93 245.40 603.52 272.97 606.95 C 278.69 607.66 356.49 607.99 511.97 607.98 C 705.05 607.96 744.23 607.73 753.14 606.54 C 780.40 602.92 800.57 595.21 806.74 586.06 C 810.28 580.81 809.74 577.37 804.62 572.46 C 797.40 565.54 783.75 559.97 762.50 555.28 L 750.50 552.63 L 668.00 552.07 C 578.50 551.45 583.07 551.77 579.62 545.93 C 576.47 540.60 578.52 533.34 583.97 530.52 C 588.38 528.24 733.25 528.26 750.70 530.54 C 767.54 532.75 775.86 534.59 789.48 539.11 C 804.09 543.96 812.68 548.63 820.25 555.83 C 828.34 563.53 831.50 570.33 831.50 580.00 C 831.50 589.26 829.33 595.28 823.37 602.60 L 819.00 607.97 L 819.00 645.50 L 819.00 683.02 L 823.44 691.26 C 829.12 701.79 831.93 711.92 832.67 724.50 C 833.64 741.15 830.61 754.73 823.51 765.42 C 814.39 779.16 794.29 789.38 765.41 794.98 C 739.17 800.07 743.24 799.99 510.00 799.85 C 390.38 799.79 288.45 799.34 283.50 798.87 Z M 739.14 775.99 C 760.55 773.90 782.45 768.32 792.87 762.30 C 804.23 755.74 808.84 748.16 809.76 734.57 L 810.30 726.50 L 804.78 732.10 C 792.43 744.61 774.18 752.17 743.00 757.68 C 734.35 759.21 714.44 759.40 520.00 759.74 C 366.78 760.02 302.97 759.81 294.00 759.00 C 259.82 755.91 235.35 747.58 220.74 734.05 L 213.71 727.54 L 214.20 735.19 C 215.76 759.50 234.47 770.15 286.50 776.34 C 294.21 777.26 729.59 776.92 739.14 775.99 Z M 735.50 735.63 C 768.87 730.96 786.88 722.56 793.14 708.73 C 795.40 703.73 795.51 702.36 795.81 677.12 L 796.12 650.74 L 791.58 653.40 C 779.09 660.72 756.16 666.83 733.00 669.01 C 725.03 669.77 654.77 670.01 504.00 669.79 L 286.50 669.49 L 274.00 667.17 C 260.03 664.58 244.23 659.66 235.11 655.05 C 231.78 653.37 228.82 652.00 228.53 652.00 C 228.24 652.00 228.00 662.10 228.00 674.45 C 228.00 697.42 228.80 704.64 232.05 711.07 C 238.93 724.67 265.18 734.41 301.81 736.93 C 308.24 737.38 405.52 737.67 518.00 737.59 C 709.66 737.45 723.32 737.33 735.50 735.63 Z M 723.50 646.98 C 747.65 645.24 763.77 641.67 777.50 635.01 C 784.93 631.41 796.14 622.87 795.00 621.69 C 794.72 621.41 790.45 622.27 785.50 623.61 C 780.55 624.94 771.10 627.03 764.50 628.25 L 752.50 630.47 L 517.50 630.76 C 257.26 631.09 268.54 631.34 241.93 624.67 C 234.82 622.88 229.00 621.74 229.00 622.13 C 229.00 623.60 238.16 630.81 243.96 633.90 C 256.84 640.77 277.00 645.64 298.00 646.97 C 316.32 648.13 707.37 648.14 723.50 646.98 Z M 256.50 590.16 C 252.37 587.63 251.00 585.75 250.35 581.74 C 249.63 577.36 252.05 572.54 255.98 570.51 C 258.60 569.16 287.09 569.02 512.94 569.24 L 766.96 569.50 L 770.11 572.64 C 775.78 578.31 773.91 587.47 766.45 590.58 C 763.56 591.79 726.23 592.00 511.28 592.00 C 268.85 591.99 259.39 591.92 256.50 590.16 Z M 419.35 551.11 C 408.05 550.43 405.94 549.37 403.96 543.38 C 402.49 538.92 404.17 533.72 407.98 531.02 C 410.48 529.23 412.37 529.00 424.39 529.00 C 437.79 529.00 438.01 529.04 441.05 531.75 C 446.45 536.58 445.96 544.79 440.00 549.13 C 436.84 551.42 432.11 551.88 419.35 551.11 Z M 474.00 550.27 C 471.87 549.19 469.77 547.00 468.62 544.65 C 466.10 539.49 467.63 533.81 472.30 530.96 C 475.32 529.12 477.59 529.01 512.73 529.00 L 549.97 529.00 L 553.02 531.75 C 558.46 536.66 558.02 545.71 552.15 549.70 C 549.74 551.34 546.24 551.52 513.50 551.77 C 480.68 552.02 477.19 551.89 474.00 550.27 Z M 361.09 486.67 C 359.22 486.03 356.75 484.23 355.59 482.68 C 353.55 479.92 353.49 478.73 353.19 433.68 C 352.98 401.94 353.24 386.31 354.00 383.70 C 355.95 377.03 364.25 374.01 371.03 377.52 C 377.03 380.62 377.00 380.35 376.99 431.70 C 376.97 481.59 376.97 481.58 372.00 485.06 C 368.48 487.52 365.05 488.03 361.09 486.67 Z M 420.44 486.91 C 418.76 486.43 416.29 484.87 414.94 483.44 L 412.50 480.84 L 412.22 432.92 C 411.92 380.22 411.87 380.67 417.97 377.52 C 424.21 374.29 431.57 376.46 434.37 382.36 C 435.81 385.39 435.99 391.17 435.94 431.15 C 435.90 463.59 435.55 477.47 434.69 479.91 C 432.69 485.62 426.56 488.63 420.44 486.91 Z M 596.50 486.47 C 594.30 485.68 592.40 485.02 592.28 485.02 C 592.15 485.01 591.36 483.67 590.53 482.05 C 589.22 479.53 589.00 472.17 589.00 431.07 L 589.00 383.03 L 591.81 379.89 C 594.09 377.33 595.59 376.65 599.78 376.25 C 604.65 375.78 605.16 375.96 608.48 379.28 L 612.00 382.80 L 612.00 431.98 L 612.00 481.15 L 609.08 484.08 C 607.47 485.68 605.48 487.00 604.66 487.00 C 603.84 487.00 602.56 487.21 601.83 487.46 C 601.10 487.71 598.70 487.27 596.50 486.47 Z M 655.09 486.68 C 653.22 486.03 650.75 484.23 649.59 482.68 C 647.54 479.90 647.50 479.00 647.50 432.08 C 647.50 380.04 647.47 380.36 653.16 377.41 C 658.96 374.42 666.69 376.57 669.48 381.97 C 670.78 384.47 671.00 391.90 671.00 432.37 L 671.00 479.85 L 668.46 482.87 C 666.16 485.60 664.71 486.40 660.00 487.51 C 659.17 487.71 656.97 487.34 655.09 486.68 Z M 476.11 485.60 C 471.07 482.81 471.07 482.90 471.04 431.15 L 471.00 382.80 L 474.40 379.40 C 477.28 376.52 478.50 376.00 482.41 376.00 C 486.27 376.00 487.64 376.56 490.76 379.42 L 494.50 382.84 L 494.81 426.67 C 494.98 450.78 494.83 472.94 494.47 475.92 C 493.55 483.52 490.03 487.01 483.33 486.96 C 480.67 486.95 477.42 486.33 476.11 485.60 Z M 533.40 483.60 L 530.00 480.20 L 530.00 431.62 L 530.00 383.03 L 532.81 379.89 C 535.09 377.33 536.59 376.65 540.78 376.25 C 545.65 375.78 546.16 375.96 549.48 379.28 L 553.00 382.80 L 553.00 431.98 L 553.00 481.15 L 550.08 484.08 C 547.60 486.55 546.37 487.00 541.98 487.00 C 537.42 487.00 536.39 486.59 533.40 483.60 Z M 295.62 344.97 C 285.77 342.00 283.79 330.57 290.51 315.37 C 309.54 272.35 376.31 237.92 461.00 227.45 C 478.91 225.24 525.30 224.39 544.72 225.92 C 613.95 231.37 671.88 251.42 708.35 282.53 C 725.81 297.43 737.03 316.12 737.25 330.66 C 737.35 337.45 735.85 340.74 731.28 343.74 C 728.73 345.41 717.15 345.51 513.54 345.67 C 394.46 345.76 297.21 345.45 295.62 344.97 Z M 711.00 321.61 C 711.00 319.27 702.72 308.86 695.33 301.92 C 676.53 284.26 643.72 268.22 607.40 258.95 C 575.32 250.75 549.46 247.69 512.50 247.69 C 459.55 247.70 417.27 255.24 378.12 271.64 C 346.60 284.84 323.65 302.40 312.60 321.75 C 312.03 322.75 352.08 323.00 511.44 323.00 C 681.14 323.00 711.00 322.79 711.00 321.61 Z" stroke-linecap="round"/>
</g>
</g>
</g>

  </svg>