<svg xmlns="http://www.w3.org/2000/svg" xmlns:xlink="http://www.w3.org/1999/xlink" width="500px" height="358px" viewBox="0 0 500.0000000000002 357.66700309689804">
    <g id="fbcef902-be84-498a-9a61-3a6c38391f93">
<g style="">
		<g id="fbcef902-be84-498a-9a61-3a6c38391f93-child-0">
<path style="stroke: rgb(193,193,193); stroke-width: 0; stroke-dasharray: none; stroke-linecap: butt; stroke-dashoffset: 0; stroke-linejoin: miter; stroke-miterlimit: 4; fill: rgb(0,0,0); fill-rule: nonzero; opacity: 1;" transform="matrix(0.758125 0 0 0.758125 249.999901 178.833431) matrix(1 0 0 1 0 0)  translate(-512.341707, -511.930392)" d="M 305.91 745.76 C 294.65 741.82 285.06 732.90 279.76 721.41 C 277.83 717.21 277.50 714.84 277.50 705.00 C 277.50 687.14 277.43 687.25 310.29 654.22 C 334.51 629.89 338.28 626.50 344.57 623.38 C 355.97 617.73 370.26 617.63 381.21 623.14 C 383.25 624.16 385.50 625.00 386.21 625.01 C 386.92 625.02 402.03 610.29 419.78 592.29 C 445.40 566.32 451.69 559.44 450.28 558.93 C 449.30 558.58 442.88 557.98 436.00 557.60 C 408.65 556.10 344.19 549.16 304.00 543.40 C 249.86 535.63 194.06 525.77 189.60 523.18 C 180.89 518.12 180.14 507.30 188.17 502.56 C 191.97 500.31 196.82 499.19 227.02 493.59 C 292.64 481.41 379.21 469.98 428.50 466.99 C 438.40 466.39 447.86 465.69 449.52 465.45 C 452.42 465.01 451.32 463.78 419.14 431.61 L 385.75 398.22 L 382.62 400.02 C 371.06 406.71 353.64 406.42 341.16 399.33 C 338.46 397.80 325.51 385.69 310.43 370.59 C 281.63 341.77 278.93 338.07 277.12 325.00 C 274.76 307.96 283.46 290.37 298.63 281.48 C 310.19 274.70 325.21 274.36 337.93 280.57 C 344.84 283.96 347.76 286.54 371.65 310.39 C 390.74 329.44 398.48 337.85 400.29 341.50 C 405.84 352.70 406.22 365.91 401.35 379.05 L 398.70 386.19 L 437.72 425.22 L 476.74 464.24 L 512.62 464.09 L 548.50 463.94 L 587.23 424.80 C 611.96 399.81 625.65 385.27 625.11 384.58 C 623.30 382.27 620.20 372.21 619.55 366.50 C 618.69 358.98 620.89 347.82 624.55 341.08 C 626.28 337.91 636.48 326.98 653.87 309.66 C 677.52 286.12 681.31 282.75 687.23 279.98 C 717.32 265.90 752.05 291.63 747.32 324.49 C 745.33 338.26 743.67 340.54 713.60 370.55 C 684.72 399.37 681.88 401.54 669.87 404.12 C 662.53 405.69 652.41 404.63 644.46 401.45 L 637.75 398.76 L 604.87 431.63 C 575.70 460.79 572.25 464.57 574.25 465.16 C 575.49 465.52 584.34 466.32 593.93 466.93 C 647.75 470.35 737.10 482.39 810.50 496.10 C 832.47 500.20 836.31 501.40 839.41 505.08 C 843.00 509.34 843.00 515.66 839.41 519.92 C 836.19 523.76 832.24 524.91 807.00 529.44 C 735.74 542.22 611.19 557.94 580.54 558.02 C 577.22 558.02 573.95 558.38 573.28 558.80 C 572.47 559.32 582.97 570.48 604.91 592.41 L 637.75 625.24 L 644.62 622.37 C 650.63 619.87 652.76 619.50 661.50 619.50 C 671.02 619.50 671.88 619.68 679.49 623.31 C 687.03 626.92 688.95 628.61 714.09 653.81 C 737.16 676.94 741.14 681.38 743.92 687.11 C 753.94 707.71 744.60 733.17 723.14 743.77 C 715.87 747.37 715.23 747.50 705.00 747.50 C 694.71 747.50 694.16 747.38 686.61 743.65 C 679.41 740.10 676.85 737.81 652.87 713.65 C 632.42 693.05 626.31 686.27 624.02 681.72 C 618.38 670.44 617.69 658.33 622.02 646.35 C 623.19 643.13 624.22 639.77 624.32 638.89 C 624.42 637.96 608.19 620.80 586.25 598.64 L 548.00 560.00 L 512.03 560.00 L 476.07 560.00 L 437.78 598.63 C 416.73 619.88 399.57 637.76 399.66 638.38 C 399.75 639.00 400.86 642.20 402.12 645.50 C 403.98 650.35 404.43 653.51 404.45 662.00 C 404.48 672.12 404.34 672.79 400.68 680.50 C 397.08 688.06 395.43 689.93 370.68 714.61 C 347.58 737.66 343.69 741.12 337.60 744.07 C 331.61 746.98 329.51 747.46 321.60 747.74 C 314.11 748.01 311.33 747.65 305.91 745.76 Z M 330.50 728.83 C 336.05 726.09 383.63 678.72 386.08 673.50 C 388.72 667.87 388.61 652.00 385.93 652.00 C 385.47 652.00 375.95 661.22 364.78 672.50 C 345.43 692.01 344.27 693.00 340.65 693.00 C 335.61 693.00 331.00 688.64 331.00 683.88 C 331.00 680.95 333.25 678.35 352.18 659.35 C 373.26 638.18 373.34 638.08 370.61 637.04 C 366.26 635.39 356.96 635.83 352.50 637.90 C 347.84 640.06 298.01 689.14 295.46 694.09 C 293.16 698.52 292.48 707.09 294.00 712.48 C 295.39 717.48 301.21 724.73 306.37 727.92 C 313.38 732.25 322.85 732.61 330.50 728.83 Z M 717.00 728.46 C 722.80 725.53 726.35 721.73 729.11 715.50 C 732.04 708.89 732.07 700.84 729.19 694.89 C 726.12 688.54 678.07 640.84 671.97 638.07 C 667.04 635.83 657.90 635.33 653.39 637.04 C 650.66 638.08 650.74 638.18 671.82 659.35 C 694.09 681.70 694.47 682.26 691.49 688.02 C 689.65 691.57 687.18 693.00 682.87 693.00 C 679.96 693.00 677.35 690.75 658.85 672.32 C 638.17 651.74 638.08 651.66 637.04 654.39 C 635.35 658.84 635.83 668.04 638.02 672.85 C 640.35 677.98 687.37 725.62 693.00 728.54 C 700.51 732.44 709.18 732.42 717.00 728.46 Z M 521.24 533.76 L 512.00 524.51 L 502.76 533.76 L 493.51 543.00 L 512.00 543.00 L 530.49 543.00 L 521.24 533.76 Z M 480.50 531.81 C 486.28 526.20 491.00 521.18 491.00 520.65 C 491.00 520.03 473.12 519.90 441.35 520.29 C 386.96 520.95 386.81 520.94 385.31 515.23 C 384.30 511.39 384.85 508.85 387.26 506.25 L 389.35 504.00 L 440.17 504.00 C 468.13 504.00 490.94 503.66 490.86 503.25 C 490.78 502.84 485.72 497.69 479.61 491.81 L 468.50 481.11 L 451.50 482.05 C 414.52 484.08 389.22 487.26 380.54 490.98 C 375.45 493.17 367.54 500.05 365.42 504.15 C 363.27 508.32 363.66 515.84 366.27 520.45 C 370.80 528.44 380.81 533.74 396.61 536.49 C 408.72 538.60 443.05 541.43 461.25 541.82 L 470.01 542.00 L 480.50 531.81 Z M 581.52 540.98 C 603.23 539.59 626.17 537.15 633.81 535.43 C 642.89 533.38 650.19 529.60 654.82 524.58 C 663.12 515.57 662.73 507.32 653.56 498.38 C 647.61 492.57 640.80 489.55 629.00 487.47 C 619.13 485.73 593.79 483.29 572.00 481.99 L 554.50 480.93 L 543.75 492.22 C 537.84 498.42 533.00 503.61 533.00 503.75 C 533.00 503.89 555.66 504.00 583.37 504.00 C 632.80 504.00 633.78 504.04 636.37 506.07 C 638.41 507.68 639.00 509.02 639.00 512.07 C 639.00 515.99 636.50 519.84 633.75 520.14 C 633.06 520.21 610.11 520.16 582.75 520.02 C 555.39 519.88 533.00 520.07 533.00 520.43 C 533.00 520.80 537.84 525.80 543.75 531.54 L 554.50 541.99 L 560.02 542.00 C 563.05 542.00 572.73 541.54 581.52 540.98 Z M 353.77 531.25 C 346.05 522.47 345.03 505.13 351.65 495.37 C 353.00 493.39 353.88 491.55 353.62 491.28 C 352.57 490.24 287.87 499.74 243.02 507.54 C 228.45 510.07 216.40 512.27 216.24 512.43 C 215.71 512.95 272.68 521.99 308.00 526.98 C 326.98 529.66 343.85 532.04 345.50 532.28 C 347.15 532.51 350.03 532.77 351.90 532.85 C 355.07 532.99 355.20 532.88 353.77 531.25 Z M 690.73 530.47 C 734.63 524.56 800.47 514.56 805.00 513.11 C 807.96 512.17 808.96 512.37 762.00 504.51 C 734.85 499.97 698.65 494.60 674.11 491.46 L 668.73 490.77 L 671.26 494.14 C 678.55 503.81 678.67 518.84 671.53 529.35 C 669.69 532.07 669.43 533.00 670.51 533.00 C 671.31 533.00 680.41 531.86 690.73 530.47 Z M 521.44 490.13 C 526.15 485.53 530.00 481.59 530.00 481.38 C 530.00 481.17 521.80 481.00 511.77 481.00 L 493.54 481.00 L 502.51 490.01 C 507.44 494.96 511.79 498.90 512.17 498.76 C 512.56 498.61 516.73 494.73 521.44 490.13 Z M 370.61 386.96 C 373.34 385.92 373.26 385.82 352.18 364.65 C 337.20 349.62 331.00 342.74 331.00 341.15 C 331.00 335.07 337.08 330.06 342.73 331.46 C 344.53 331.91 352.42 339.23 365.22 352.31 C 380.99 368.43 385.19 372.21 386.19 371.21 C 386.87 370.53 387.62 366.80 387.83 362.93 C 388.50 351.11 388.12 350.56 359.75 322.28 C 332.35 294.97 329.77 293.06 320.12 293.02 C 312.52 292.99 307.57 294.74 302.40 299.30 C 296.64 304.36 293.86 309.91 293.25 317.51 C 292.37 328.44 293.69 330.29 323.31 359.76 C 343.00 379.36 350.37 386.07 353.00 386.82 C 357.72 388.17 367.24 388.24 370.61 386.96 Z M 670.50 386.90 C 673.82 386.00 679.01 381.34 700.83 359.66 C 715.30 345.27 728.12 331.70 729.29 329.50 C 732.22 324.03 732.19 314.13 729.22 308.38 C 723.88 298.04 715.93 292.99 705.05 293.02 C 693.86 293.06 692.28 294.20 664.65 322.26 C 650.98 336.14 639.18 348.69 638.43 350.15 C 637.67 351.60 636.77 354.62 636.41 356.85 C 635.56 362.17 636.80 372.00 638.32 372.01 C 638.97 372.01 647.83 363.57 658.00 353.26 C 668.17 342.94 677.62 333.72 679.00 332.76 C 682.80 330.10 685.80 330.60 689.72 334.52 C 695.62 340.42 695.00 341.46 671.28 365.21 C 651.46 385.05 650.70 385.96 653.05 386.90 C 656.38 388.22 665.62 388.23 670.50 386.90 Z" stroke-linecap="round"/>
</g>
</g>
</g>

  </svg>