<svg xmlns="http://www.w3.org/2000/svg" xmlns:xlink="http://www.w3.org/1999/xlink" width="500px" height="341px" viewBox="0 0 499.9999999999998 340.5844338618367">
    <g id="96022479-679d-4963-ba8b-5f21a7bfab20">
<g style="">
		<g id="96022479-679d-4963-ba8b-5f21a7bfab20-child-0">
<path style="stroke: rgb(193,193,193); stroke-width: 0; stroke-dasharray: none; stroke-linecap: butt; stroke-dashoffset: 0; stroke-linejoin: miter; stroke-miterlimit: 4; fill: rgb(0,0,0); fill-rule: nonzero; opacity: 1;" transform="matrix(0.774233 0 0 0.774233 250.000109 170.292291) matrix(1 0 0 1 0 0)  translate(-512.01942, -512.04075)" d="M 197.03 730.72 C 193.55 728.96 190.00 723.29 190.00 719.50 C 190.00 715.71 193.55 710.04 197.03 708.28 C 198.87 707.35 208.90 707.03 236.46 707.01 L 273.42 707.00 L 265.34 702.03 C 240.38 686.67 223.13 660.69 218.96 632.16 L 217.78 624.04 L 210.98 618.56 C 202.80 611.94 194.98 600.75 191.87 591.21 C 190.03 585.55 189.62 581.51 189.24 565.42 C 188.75 544.49 189.67 535.62 193.46 524.72 C 202.30 499.31 226.02 477.12 252.00 469.96 C 254.48 469.28 260.55 468.20 265.50 467.57 L 274.50 466.43 L 275.01 436.47 C 275.58 402.57 275.96 400.58 283.98 389.15 C 295.45 372.80 315.10 366.08 334.22 371.99 C 342.90 374.67 349.77 379.41 367.50 394.96 C 384.11 409.53 390.68 413.41 405.02 417.11 C 413.01 419.17 416.44 419.33 464.00 419.92 C 512.67 420.52 514.71 420.63 520.35 422.73 C 536.20 428.65 547.28 440.95 550.96 456.70 L 552.18 461.90 L 557.26 459.90 C 573.37 453.55 589.21 440.50 602.80 422.38 C 612.74 409.13 617.63 405.28 628.75 401.95 L 633.00 400.68 L 633.00 377.84 C 633.00 365.28 632.89 354.93 632.75 354.84 C 632.61 354.76 620.35 354.42 605.50 354.09 C 578.73 353.49 578.46 353.46 573.44 350.82 C 562.79 345.22 556.63 335.18 556.59 323.34 C 556.53 309.23 565.79 297.14 579.44 293.51 C 584.77 292.09 592.92 291.93 647.00 292.20 L 708.50 292.50 L 713.77 294.88 C 720.66 297.99 728.26 306.27 730.54 313.12 C 734.36 324.62 730.62 337.66 721.05 346.27 C 713.02 353.48 710.43 354.00 682.32 354.00 L 658.00 354.00 L 658.00 376.88 L 658.00 399.77 L 665.75 400.45 C 685.21 402.18 708.02 408.65 727.72 418.02 C 749.94 428.59 767.09 441.08 785.19 459.85 C 808.24 483.76 824.41 513.02 831.68 543.99 C 835.03 558.26 835.97 580.63 833.61 590.00 C 830.11 603.95 822.23 615.75 811.00 623.88 C 806.72 626.99 806.54 627.33 804.75 636.18 C 800.63 656.57 792.11 672.09 776.57 687.50 C 770.46 693.55 764.00 698.88 760.21 701.00 C 756.77 702.92 753.17 705.05 752.22 705.72 C 750.86 706.68 758.29 706.94 788.26 706.97 L 826.03 707.00 L 829.58 710.25 C 836.18 716.30 835.08 726.84 827.47 730.45 C 824.53 731.84 792.15 732.00 511.85 731.99 C 264.00 731.97 198.99 731.71 197.03 730.72 Z M 657.98 702.59 C 644.25 694.48 632.44 682.81 623.50 668.50 C 616.29 656.97 613.50 648.80 609.39 627.25 L 608.96 625.00 L 511.61 625.00 L 414.26 625.00 L 413.57 631.10 C 411.33 650.89 400.44 672.78 385.52 687.52 C 379.23 693.72 375.25 696.71 361.35 705.69 C 359.91 706.62 393.74 706.90 512.48 706.94 L 665.46 707.00 L 657.98 702.59 Z M 335.48 688.53 C 343.41 686.38 352.01 682.45 357.79 678.34 C 390.30 655.23 399.12 613.75 378.85 579.23 C 377.01 576.09 371.89 569.90 367.48 565.49 C 346.99 544.99 317.09 538.69 289.87 549.13 C 275.59 554.60 260.98 567.19 252.72 581.13 C 240.72 601.38 239.87 627.69 250.49 649.50 C 260.75 670.54 278.32 684.19 302.00 689.51 C 310.06 691.32 327.00 690.82 335.48 688.53 Z M 728.50 687.98 C 760.67 677.84 780.99 650.67 781.22 617.50 C 781.31 605.06 779.29 596.26 773.77 585.00 C 768.05 573.33 754.26 559.35 742.47 553.27 C 712.22 537.66 679.37 542.47 655.96 565.94 C 646.72 575.20 642.06 582.73 637.94 595.02 C 628.77 622.39 636.38 651.28 658.04 671.33 C 667.85 680.42 682.31 687.58 695.76 690.03 C 703.81 691.50 720.68 690.44 728.50 687.98 Z M 612.98 590.85 C 620.96 563.25 640.56 540.39 666.53 528.39 C 693.84 515.77 725.70 516.48 752.39 530.29 C 776.40 542.71 793.37 562.19 801.57 586.74 C 804.66 595.98 805.72 596.22 808.43 588.26 C 810.45 582.32 810.48 568.01 808.49 556.62 C 801.51 516.56 775.27 477.62 738.98 453.44 C 712.68 435.92 687.44 427.42 658.43 426.30 C 639.82 425.59 632.36 426.38 629.87 429.34 C 628.87 430.53 625.02 435.33 621.31 440.00 C 599.06 468.09 568.79 486.73 538.68 490.91 C 533.38 491.65 488.96 492.00 400.99 492.00 C 263.94 492.00 265.78 491.94 253.14 496.44 C 236.96 502.19 222.42 517.33 216.90 534.17 C 214.70 540.89 214.50 543.12 214.50 561.00 C 214.50 580.42 214.51 580.52 217.35 586.31 C 218.92 589.51 220.46 591.87 220.78 591.56 C 221.09 591.24 223.00 586.97 225.03 582.06 C 252.09 516.45 333.27 498.25 383.87 546.44 C 397.94 559.84 407.22 575.76 412.01 594.75 L 413.08 599.00 L 511.85 599.00 L 610.63 599.00 L 612.98 590.85 Z M 526.15 463.02 C 525.71 458.49 523.95 455.25 519.84 451.31 C 513.73 445.48 514.65 445.58 460.50 444.91 C 414.66 444.35 409.79 444.13 401.94 442.23 C 381.05 437.20 371.17 431.60 348.50 411.96 C 330.02 395.94 323.90 393.07 314.90 396.17 C 309.76 397.94 306.09 401.02 303.15 406.00 L 300.50 410.50 L 300.19 437.33 C 299.96 456.94 300.20 464.53 301.07 465.58 C 302.08 466.81 318.18 466.97 414.38 466.75 L 526.50 466.50 L 526.15 463.02 Z M 705.00 327.00 C 707.65 324.35 707.55 320.50 704.78 318.56 C 702.83 317.19 695.39 317.00 644.11 317.00 C 591.12 317.00 585.49 317.15 583.83 318.65 C 581.43 320.83 581.50 324.50 584.00 327.00 C 585.95 328.95 587.33 329.00 644.50 329.00 C 701.67 329.00 703.05 328.95 705.00 327.00 Z M 306.28 671.56 C 280.05 666.62 260.97 643.64 261.01 617.04 C 261.04 602.16 266.46 589.42 277.42 578.52 C 310.87 545.24 368.17 566.56 371.73 613.60 C 372.91 629.22 367.10 644.04 355.08 656.10 C 341.69 669.52 324.45 674.98 306.28 671.56 Z M 329.80 643.94 C 339.71 638.99 344.97 631.07 345.77 619.88 C 346.71 606.90 340.06 595.99 327.90 590.54 C 322.48 588.11 320.81 587.81 314.54 588.22 C 305.55 588.79 299.29 591.78 293.47 598.24 C 280.24 612.96 285.14 635.47 303.46 644.14 C 312.17 648.26 321.29 648.19 329.80 643.94 Z M 700.40 672.03 C 668.76 667.23 647.05 637.20 653.41 607.00 C 655.57 596.73 660.06 588.07 667.20 580.44 C 674.21 572.95 681.85 568.02 691.21 564.95 C 699.32 562.28 703.60 562.83 708.52 567.15 C 711.51 569.78 712.00 570.83 712.00 574.65 C 712.00 582.32 708.36 586.90 700.99 588.49 C 687.96 591.31 678.03 603.44 678.01 616.57 C 678.00 625.72 680.42 631.57 686.93 638.07 C 693.53 644.68 699.27 647.00 709.02 647.00 C 725.48 647.00 737.97 634.26 737.99 617.45 C 738.00 608.99 734.78 601.47 729.32 597.20 C 720.02 589.93 721.10 578.42 731.45 574.47 C 738.23 571.88 742.40 573.41 749.32 581.06 C 758.07 590.73 763.97 605.22 763.97 617.00 C 763.96 624.02 761.31 634.89 757.91 641.81 C 754.30 649.18 745.04 659.49 737.95 664.03 C 728.29 670.23 711.76 673.75 700.40 672.03 Z" stroke-linecap="round"/>
</g>
</g>
</g>

  </svg>