<svg xmlns="http://www.w3.org/2000/svg" xmlns:xlink="http://www.w3.org/1999/xlink" width="409px" height="500px" viewBox="0 0 409.3033441787145 500">
    <g id="6c3793f1-1a44-40ab-9ab9-57cdcbaa8167">
<g style="">
		<g id="6c3793f1-1a44-40ab-9ab9-57cdcbaa8167-child-0">
<path style="stroke: rgb(193,193,193); stroke-width: 0; stroke-dasharray: none; stroke-linecap: butt; stroke-dashoffset: 0; stroke-linejoin: miter; stroke-miterlimit: 4; fill: rgb(0,0,0); fill-rule: nonzero; opacity: 1;" transform="matrix(0.836811 0 0 0.836811 204.651706 250.000041) matrix(1 0 0 1 0 0)  translate(-511.958307, -512.253292)" d="M 273.19 808.97 C 266.89 805.13 265.48 796.47 270.19 790.48 C 274.79 784.64 258.79 785.00 512.22 785.00 C 732.34 785.00 745.69 785.10 748.93 786.75 C 756.12 790.42 758.69 798.97 754.51 805.34 C 750.53 811.43 768.76 811.00 511.80 811.00 C 277.56 810.99 276.49 810.98 273.19 808.97 Z M 366.00 749.64 C 357.51 747.79 351.06 744.18 344.44 737.56 C 331.82 724.94 329.06 711.54 337.55 704.09 C 344.58 697.92 355.23 700.88 358.04 709.78 C 361.99 722.34 373.01 727.61 383.81 722.10 C 388.54 719.68 390.64 717.02 392.11 711.56 C 392.70 709.39 394.67 706.13 396.49 704.31 C 399.37 701.43 400.46 701.00 404.91 701.00 C 409.34 701.00 410.53 701.46 413.76 704.42 C 417.32 707.69 417.50 708.14 417.50 714.17 C 417.50 721.86 414.94 727.63 408.17 735.16 C 401.65 742.42 393.35 747.53 385.00 749.43 C 377.01 751.25 373.59 751.29 366.00 749.64 Z M 642.00 749.87 C 624.64 747.06 610.13 732.23 606.97 714.09 C 603.95 696.71 613.32 678.24 629.38 669.91 L 635.59 666.69 L 635.54 629.60 C 635.50 595.94 635.66 592.20 637.27 589.26 C 639.68 584.85 643.28 582.71 648.49 582.59 C 653.68 582.48 657.67 585.02 660.25 590.07 C 661.82 593.15 662.00 597.23 662.00 630.08 L 662.00 666.66 L 667.23 669.08 C 674.31 672.36 683.95 682.03 687.58 689.50 C 690.29 695.07 690.50 696.33 690.50 707.00 C 690.50 717.82 690.31 718.89 687.36 725.12 C 678.86 743.06 660.80 752.92 642.00 749.87 Z M 657.01 721.75 C 662.66 717.90 664.50 714.55 664.50 708.10 C 664.50 703.30 664.02 701.72 661.62 698.57 C 651.00 684.64 628.68 694.74 633.11 711.47 C 635.87 721.92 648.67 727.42 657.01 721.75 Z M 453.76 739.43 C 447.82 736.21 448.00 738.61 448.00 661.95 C 448.00 584.54 447.69 588.39 454.27 584.50 C 460.52 580.81 468.11 582.86 472.04 589.30 C 473.93 592.39 473.99 594.87 473.99 662.00 C 473.99 729.17 473.93 731.61 472.04 734.70 C 468.46 740.57 459.93 742.78 453.76 739.43 Z M 556.50 739.01 C 550.63 735.15 548.36 727.07 551.46 721.07 C 554.12 715.94 558.62 713.00 563.83 713.00 C 578.58 713.02 584.24 730.62 572.10 738.73 C 567.73 741.65 560.70 741.78 556.50 739.01 Z M 369.27 675.52 C 367.49 674.75 365.12 672.63 364.00 670.81 C 362.04 667.61 361.98 666.22 362.23 628.81 L 362.50 590.13 L 365.46 587.04 C 367.09 585.34 370.08 583.46 372.12 582.85 C 375.29 581.90 376.45 582.04 380.18 583.85 C 388.16 587.71 388.00 586.73 388.00 630.27 C 388.00 668.21 387.97 668.77 385.83 671.49 C 383.46 674.50 378.37 677.02 374.78 676.96 C 373.53 676.94 371.05 676.29 369.27 675.52 Z M 558.27 675.52 C 556.49 674.75 554.13 672.63 553.02 670.81 C 551.10 667.65 551.01 665.84 551.00 629.65 C 551.00 586.90 550.87 587.70 558.66 583.92 C 562.20 582.21 563.48 582.05 566.75 582.93 C 571.07 584.10 574.32 587.07 575.93 591.32 C 576.62 593.12 577.00 607.25 577.00 630.82 C 576.99 664.94 576.86 667.71 575.11 670.58 C 573.08 673.92 567.60 677.02 563.85 676.96 C 562.56 676.94 560.05 676.29 558.27 675.52 Z M 317.00 536.88 C 313.77 535.59 310.18 532.21 308.40 528.80 C 306.37 524.90 306.36 473.46 308.39 468.60 C 309.38 466.23 324.13 452.65 359.14 421.86 C 386.29 397.99 417.39 370.64 428.25 361.09 L 448.00 343.73 L 448.00 283.77 C 448.00 216.86 447.65 220.26 455.00 215.68 C 458.48 213.51 458.74 213.50 512.68 213.50 C 565.83 213.50 566.91 213.54 569.61 215.56 C 571.13 216.70 573.30 218.87 574.44 220.38 C 576.46 223.09 576.51 224.32 576.78 283.45 L 577.06 343.75 L 609.25 372.12 C 682.94 437.09 713.25 464.36 715.07 467.34 C 716.85 470.26 716.99 472.62 717.00 498.60 C 717.00 526.18 716.96 526.77 714.73 530.08 C 713.48 531.93 710.93 534.48 709.08 535.73 L 705.70 538.00 L 512.60 537.94 C 386.79 537.90 318.63 537.53 317.00 536.88 Z M 691.00 497.00 L 691.00 482.00 L 522.50 481.77 C 429.83 481.65 349.39 481.53 343.75 481.52 L 333.50 481.50 L 333.22 496.75 L 332.95 512.00 L 511.97 512.00 L 691.00 512.00 L 691.00 497.00 Z M 662.83 455.07 C 662.41 453.90 648.96 441.85 607.50 405.52 C 589.35 389.62 572.10 374.45 569.17 371.80 L 563.84 367.00 L 512.07 367.00 L 460.31 367.00 L 428.90 394.67 C 382.39 435.64 381.36 436.55 370.25 446.27 C 364.61 451.21 360.00 455.42 360.00 455.62 C 360.00 455.83 428.21 456.00 511.58 456.00 C 604.25 456.00 663.04 455.64 662.83 455.07 Z M 550.76 289.75 L 550.50 239.50 L 512.25 239.24 L 474.00 238.98 L 474.00 289.49 L 474.00 340.00 L 512.51 340.00 L 551.02 340.00 L 550.76 289.75 Z" stroke-linecap="round"/>
</g>
</g>
</g>

  </svg>