<svg xmlns="http://www.w3.org/2000/svg" xmlns:xlink="http://www.w3.org/1999/xlink" width="2382px" height="1433px" viewBox="0 0 2381.6705793997207 1433.1238181116787">
    <g id="89946bd0-dc43-498f-8b7a-6cfff2001113">
<g style="">
		<g id="89946bd0-dc43-498f-8b7a-6cfff2001113-child-0">
<path style="stroke: rgb(193,193,193); stroke-width: 0; stroke-dasharray: none; stroke-linecap: butt; stroke-dashoffset: 0; stroke-linejoin: miter; stroke-miterlimit: 4; fill: rgb(0,0,0); fill-rule: nonzero; opacity: 1;" transform="matrix(3.730066 0 0 3.730066 1190.835378 716.561962) matrix(1 0 0 1 0 0)  translate(-512.293676, -525.249141)" d="M 277.50 716.92 C 268.50 715.22 262.04 710.47 258.58 703.00 C 256.51 698.52 256.50 698.00 256.23 556.89 L 255.97 415.29 L 251.93 413.47 C 247.32 411.39 242.40 406.21 240.32 401.23 C 239.54 399.36 238.81 394.60 238.70 390.66 L 238.50 383.50 L 224.50 382.96 C 212.77 382.51 209.84 382.08 206.41 380.27 C 201.66 377.77 196.35 372.07 194.37 367.35 C 192.40 362.63 192.66 352.34 194.88 347.46 C 197.28 342.18 204.88 335.57 210.24 334.10 C 213.45 333.22 288.51 333.01 514.50 333.22 C 801.37 333.49 814.64 333.58 817.80 335.30 C 822.63 337.94 828.70 344.57 830.15 348.81 C 833.40 358.24 830.85 369.04 823.84 375.64 C 817.49 381.61 814.78 382.42 799.87 382.82 L 786.25 383.19 L 785.79 390.84 C 785.11 402.13 780.42 409.63 770.99 414.51 L 768.00 416.05 L 767.99 555.78 C 767.99 648.94 767.64 696.74 766.95 699.22 C 765.37 704.92 760.09 711.09 754.12 714.21 C 749.81 716.46 747.48 717.00 742.14 716.98 C 727.61 716.93 717.49 707.81 716.09 693.50 L 715.50 687.50 L 706.00 686.93 C 695.05 686.26 691.79 684.91 686.62 678.86 C 681.40 672.77 681.16 670.80 681.07 633.24 L 681.00 604.98 L 635.25 605.24 L 589.50 605.50 L 589.00 653.00 C 588.45 705.22 588.70 703.14 582.10 709.75 C 577.70 714.14 572.30 716.36 564.84 716.81 C 553.40 717.51 544.69 712.82 540.44 703.69 L 538.02 698.50 L 538.01 558.36 C 538.00 431.49 537.85 418.16 536.42 417.61 C 535.55 417.27 524.56 417.00 512.00 417.00 C 499.44 417.00 488.45 417.27 487.58 417.61 C 486.15 418.16 486.00 431.49 486.00 558.41 L 486.00 698.61 L 483.45 703.72 C 479.17 712.32 471.07 717.00 460.50 717.00 C 457.06 717.00 452.63 716.33 450.66 715.50 C 445.70 713.43 440.30 708.47 437.69 703.59 C 435.55 699.59 435.49 698.47 435.00 652.50 L 434.50 605.50 L 388.75 605.24 C 363.59 605.10 342.91 605.10 342.80 605.24 C 342.68 605.38 342.35 620.61 342.05 639.08 L 341.50 672.65 L 338.77 676.77 C 334.39 683.38 328.45 686.24 317.62 686.92 L 308.50 687.50 L 307.91 693.50 C 306.91 703.74 301.80 711.05 293.00 714.82 C 287.36 717.25 282.63 717.89 277.50 716.92 Z M 288.55 698.55 L 291.00 696.09 L 291.00 557.67 C 291.00 433.46 290.84 419.11 289.44 417.95 C 287.03 415.95 277.89 415.55 275.50 417.34 C 273.52 418.82 273.50 420.17 273.22 555.67 C 273.07 630.93 273.19 693.50 273.48 694.72 C 275.00 700.97 283.87 703.22 288.55 698.55 Z M 467.08 698.42 L 469.50 695.84 L 469.50 557.83 L 469.50 419.82 L 467.14 417.91 C 464.23 415.56 457.35 415.37 454.22 417.56 L 452.00 419.11 L 452.00 557.60 L 452.00 696.09 L 454.45 698.55 C 457.91 702.00 463.77 701.94 467.08 698.42 Z M 569.69 698.83 L 572.00 696.65 L 572.00 557.88 L 572.00 419.11 L 569.78 417.56 C 566.92 415.55 560.08 415.55 557.22 417.56 L 555.00 419.11 L 555.00 557.74 L 555.00 696.37 L 557.17 698.69 C 560.10 701.80 566.44 701.88 569.69 698.83 Z M 748.41 697.92 L 751.00 694.85 L 751.00 557.05 C 751.00 436.67 750.81 419.09 749.52 418.02 C 747.53 416.37 736.52 416.33 734.55 417.96 C 733.16 419.11 733.00 434.00 733.00 557.67 L 733.00 696.09 L 735.45 698.55 C 739.16 702.25 745.00 701.97 748.41 697.92 Z M 713.76 668.43 C 716.02 665.86 716.03 665.78 715.76 635.68 L 715.50 605.50 L 707.00 605.50 L 698.50 605.50 L 698.23 635.40 C 698.01 661.22 698.18 665.63 699.54 667.71 C 702.77 672.62 709.76 672.98 713.76 668.43 Z M 323.56 668.53 L 326.03 666.06 L 325.76 635.78 L 325.50 605.50 L 317.00 605.50 L 308.50 605.50 L 308.24 635.60 C 307.98 664.80 308.03 665.77 310.06 668.35 C 312.96 672.04 319.96 672.14 323.56 668.53 Z M 433.69 585.83 C 437.11 582.61 436.94 575.89 433.37 573.07 C 430.77 571.03 429.91 571.00 371.50 571.00 C 313.09 571.00 312.23 571.03 309.63 573.07 C 306.02 575.91 305.94 582.03 309.45 585.55 L 311.91 588.00 L 371.64 588.00 L 431.37 588.00 L 433.69 585.83 Z M 715.00 586.00 C 717.03 583.97 717.80 576.75 716.23 574.40 C 714.07 571.16 711.14 571.00 652.02 571.00 L 592.91 571.00 L 590.45 573.45 C 587.36 576.55 587.20 581.71 590.07 585.37 L 592.15 588.00 L 652.57 588.00 C 711.67 588.00 713.04 587.96 715.00 586.00 Z M 434.00 552.00 C 435.33 550.67 436.00 548.67 436.00 546.00 C 436.00 543.33 435.33 541.33 434.00 540.00 C 432.04 538.04 430.67 538.00 371.06 538.00 L 310.11 538.00 L 308.56 540.22 C 306.33 543.41 306.56 549.56 309.00 552.00 C 310.96 553.96 312.33 554.00 371.50 554.00 C 430.67 554.00 432.04 553.96 434.00 552.00 Z M 715.00 552.00 C 716.39 550.61 717.00 548.67 717.00 545.65 C 717.00 537.56 721.21 538.06 652.46 537.97 L 591.51 537.89 L 589.76 540.05 C 587.29 543.10 587.49 548.83 590.17 551.69 L 592.35 554.00 L 652.67 554.00 C 711.67 554.00 713.04 553.96 715.00 552.00 Z M 324.80 519.80 C 325.70 518.90 326.00 506.33 326.00 469.37 C 326.00 415.34 326.29 417.88 319.93 416.49 C 315.57 415.53 310.20 416.75 309.01 418.98 C 307.46 421.88 307.64 518.24 309.20 519.80 C 309.89 520.49 313.20 521.00 317.00 521.00 C 320.80 521.00 324.11 520.49 324.80 519.80 Z M 433.42 520.39 C 434.83 519.85 435.00 514.39 435.00 469.00 C 435.00 423.61 434.83 418.15 433.42 417.61 C 432.55 417.27 412.16 417.00 388.12 417.00 C 355.45 417.00 344.10 417.30 343.20 418.20 C 341.47 419.93 341.47 518.07 343.20 519.80 C 344.10 520.70 355.45 521.00 388.12 521.00 C 412.16 521.00 432.55 520.73 433.42 520.39 Z M 680.50 469.00 L 680.50 417.50 L 636.12 417.24 C 604.18 417.05 591.35 417.30 590.37 418.11 C 588.48 419.68 588.33 517.93 590.21 519.81 C 591.13 520.73 602.15 520.96 635.96 520.76 L 680.50 520.50 L 680.50 469.00 Z M 714.80 519.80 C 715.70 518.90 716.00 506.31 716.00 469.30 C 716.00 420.44 715.98 419.98 713.89 417.89 C 712.10 416.10 710.91 415.84 706.24 416.23 C 702.39 416.55 700.29 417.25 699.35 418.54 C 697.49 421.08 697.34 517.94 699.20 519.80 C 699.89 520.49 703.20 521.00 707.00 521.00 C 710.80 521.00 714.11 520.49 714.80 519.80 Z M 766.25 397.02 C 769.50 393.41 769.82 389.23 767.09 385.86 L 765.18 383.50 L 513.84 383.22 C 375.60 383.07 261.46 383.20 260.18 383.51 C 257.39 384.19 254.70 389.96 255.57 393.43 C 255.91 394.76 257.09 396.67 258.19 397.68 C 260.13 399.43 270.00 399.52 506.85 400.06 C 642.51 400.36 755.75 400.49 758.50 400.34 C 762.62 400.11 763.99 399.52 766.25 397.02 Z M 812.59 363.69 C 815.67 360.11 815.67 355.89 812.59 352.31 L 810.17 349.50 L 514.07 349.25 C 190.61 348.97 212.25 348.59 209.97 354.58 C 208.34 358.87 210.89 364.16 215.50 366.06 C 216.60 366.51 350.85 366.79 513.84 366.69 L 810.17 366.50 L 812.59 363.69 Z" stroke-linecap="round"/>
</g>
</g>
</g>

  </svg>