<svg xmlns="http://www.w3.org/2000/svg" xmlns:xlink="http://www.w3.org/1999/xlink" width="4287px" height="3614px" viewBox="0 0 4287.185984093569 3613.8779288993865">
    <g id="90c13af1-3408-4633-ae62-7fac420dc6d9">
<g style="">
		<g id="90c13af1-3408-4633-ae62-7fac420dc6d9-child-0">
<path style="stroke: rgb(193,193,193); stroke-width: 0; stroke-dasharray: none; stroke-linecap: butt; stroke-dashoffset: 0; stroke-linejoin: miter; stroke-miterlimit: 4; fill: rgb(0,0,0); fill-rule: nonzero; opacity: 1;" transform="matrix(6.87049 0 0 6.87049 2143.59288 1806.93887) matrix(1 0 0 1 0 0)  translate(-512, -512)" d="M 218.45 772.55 L 216.00 770.09 L 216.00 674.05 L 216.00 578.00 L 211.08 578.00 C 200.76 578.00 200.00 576.39 200.00 554.50 C 200.00 538.22 200.05 537.86 202.45 535.45 L 204.91 533.00 L 255.90 533.00 L 306.90 533.00 L 307.20 500.75 L 307.50 468.50 L 310.67 461.80 C 314.71 453.27 321.27 446.71 329.80 442.67 C 336.07 439.71 337.21 439.50 347.52 439.50 C 357.93 439.50 358.91 439.68 365.13 442.74 C 376.35 448.27 385.51 460.47 386.76 471.57 C 387.17 475.19 386.85 476.24 384.67 478.42 C 379.69 483.40 372.04 480.56 370.00 472.99 C 367.34 463.11 357.84 455.92 347.41 455.87 C 337.48 455.83 331.26 459.50 326.41 468.25 L 323.50 473.50 L 323.16 496.75 L 322.81 520.00 L 329.41 520.00 L 336.00 520.00 L 336.00 512.92 C 336.00 506.43 336.24 505.60 338.92 502.92 C 342.72 499.13 346.28 499.13 350.08 502.92 L 353.00 505.85 L 353.00 519.42 L 353.00 533.00 L 386.00 533.00 L 419.00 533.00 L 419.00 529.92 C 419.00 527.86 419.96 525.89 421.92 523.92 L 424.85 521.00 L 454.47 521.00 L 484.09 521.00 L 486.48 523.39 C 487.79 524.70 489.17 527.40 489.55 529.39 L 490.22 533.00 L 512.11 533.00 L 534.00 533.00 L 534.00 529.92 C 534.00 527.86 534.96 525.89 536.92 523.92 L 539.85 521.00 L 569.50 521.00 L 599.15 521.00 L 602.08 523.92 C 604.04 525.89 605.00 527.86 605.00 529.92 L 605.00 533.00 L 638.65 533.00 L 672.30 533.00 L 668.21 530.04 C 660.54 524.48 653.46 513.17 650.36 501.51 C 648.51 494.57 648.67 491.73 651.04 489.19 C 652.91 487.18 654.04 487.00 664.53 487.00 L 675.97 487.00 L 677.36 483.68 C 678.13 481.85 680.45 478.95 682.53 477.24 C 687.27 473.33 692.49 472.34 697.46 474.42 C 700.75 475.79 701.49 475.80 704.03 474.48 C 705.61 473.67 709.08 473.00 711.74 473.00 C 718.19 473.00 726.52 477.89 729.30 483.30 L 731.25 487.10 L 742.28 486.89 C 753.28 486.67 753.33 486.68 755.77 489.51 C 757.90 492.00 758.13 492.98 757.56 497.26 C 756.05 508.61 748.44 522.24 739.77 529.09 L 734.82 533.00 L 776.96 533.00 L 819.09 533.00 L 821.55 535.45 C 823.97 537.87 824.00 538.16 824.00 555.50 C 824.00 572.84 823.97 573.13 821.55 575.55 C 819.53 577.56 818.10 578.00 813.54 578.00 L 807.98 578.00 L 808.01 674.17 L 808.04 770.33 L 805.84 772.67 L 803.65 775.00 L 512.28 775.00 L 220.91 775.00 L 218.45 772.55 Z M 244.42 747.85 C 245.23 735.02 245.10 601.11 244.26 587.25 L 243.70 578.00 L 237.85 578.00 L 232.00 578.00 L 232.00 668.50 L 232.00 759.00 L 237.86 759.00 L 243.72 759.00 L 244.42 747.85 Z M 764.00 668.50 L 764.00 578.00 L 694.52 578.00 L 625.03 578.00 L 624.77 659.47 L 624.50 740.95 L 622.22 743.22 L 619.94 745.50 L 512.00 745.50 L 404.06 745.50 L 401.78 743.22 L 399.50 740.95 L 399.23 659.47 L 398.97 578.00 L 329.48 578.00 L 260.00 578.00 L 260.00 667.83 C 260.00 717.24 260.30 757.97 260.67 758.33 C 261.03 758.70 374.43 759.00 512.67 759.00 L 764.00 759.00 L 764.00 668.50 Z M 792.00 668.50 L 792.00 578.00 L 786.00 578.00 L 780.00 578.00 L 780.00 668.50 L 780.00 759.00 L 786.00 759.00 L 792.00 759.00 L 792.00 668.50 Z M 608.00 677.00 L 608.00 625.00 L 512.00 625.00 L 416.00 625.00 L 416.00 677.00 L 416.00 729.00 L 512.00 729.00 L 608.00 729.00 L 608.00 677.00 Z M 608.00 593.00 L 608.00 578.00 L 512.00 578.00 L 416.00 578.00 L 416.00 593.00 L 416.00 608.00 L 512.00 608.00 L 608.00 608.00 L 608.00 593.00 Z M 808.00 555.50 L 808.00 550.00 L 512.00 550.00 L 216.00 550.00 L 216.00 555.50 L 216.00 561.00 L 512.00 561.00 L 808.00 561.00 L 808.00 555.50 Z M 711.20 524.87 C 721.50 522.69 731.43 515.91 737.35 507.03 C 740.78 501.88 741.60 502.00 703.50 502.00 C 675.90 502.00 668.00 502.28 668.00 503.24 C 668.00 505.68 675.10 514.73 679.47 517.87 C 689.28 524.91 699.94 527.27 711.20 524.87 Z M 389.01 380.29 C 386.99 377.71 386.89 376.68 387.19 359.82 C 387.58 337.52 386.75 338.68 402.78 338.00 L 414.49 337.50 L 417.12 326.00 C 433.60 253.82 433.93 252.51 436.08 250.75 C 438.08 249.12 443.22 249.00 512.00 249.00 C 580.78 249.00 585.92 249.12 587.93 250.75 C 589.72 252.20 591.28 257.98 597.07 284.50 C 600.91 302.10 605.21 321.34 606.62 327.25 L 609.17 338.00 L 621.01 338.00 C 632.61 338.00 632.90 338.05 634.93 340.63 C 636.84 343.07 637.00 344.58 637.00 360.50 C 637.00 376.42 636.84 377.93 634.93 380.37 L 632.85 383.00 L 512.00 383.00 L 391.15 383.00 L 389.01 380.29 Z M 620.25 366.26 C 620.46 365.84 620.45 363.14 620.22 360.25 L 619.81 355.00 L 511.90 355.00 L 404.00 355.00 L 404.00 360.42 C 404.00 363.82 404.46 366.02 405.25 366.32 C 407.34 367.14 619.84 367.08 620.25 366.26 Z M 591.65 335.75 C 591.34 334.51 587.92 319.10 584.05 301.50 C 580.18 283.90 576.78 268.49 576.49 267.25 L 575.96 265.00 L 512.00 265.00 L 448.04 265.00 L 447.41 267.75 C 447.07 269.26 446.18 272.98 445.44 276.00 C 444.70 279.02 441.36 293.42 438.01 308.00 C 434.67 322.58 431.69 335.29 431.40 336.25 C 430.89 337.91 435.17 338.00 511.54 338.00 L 592.22 338.00 L 591.65 335.75 Z M 299.63 622.93 C 297.73 621.43 297.00 619.93 297.00 617.51 C 297.00 608.36 298.27 608.00 330.53 608.00 L 357.15 608.00 L 360.08 610.92 C 363.20 614.04 363.71 616.79 361.84 620.32 C 359.42 624.86 358.88 624.93 329.88 624.97 C 303.44 625.00 302.16 624.91 299.63 622.93 Z M 663.45 622.55 C 661.95 621.04 661.00 618.94 661.00 617.13 C 661.00 608.39 662.47 608.00 695.03 608.00 L 722.15 608.00 L 725.08 610.92 C 726.84 612.69 728.00 614.90 728.00 616.50 C 728.00 618.10 726.84 620.31 725.08 622.08 L 722.15 625.00 L 694.03 625.00 L 665.91 625.00 L 663.45 622.55 Z M 484.03 652.03 C 479.53 647.53 480.73 639.99 486.24 638.06 C 491.17 636.35 533.26 636.66 537.54 638.45 C 543.27 640.85 544.47 647.53 539.97 652.03 C 538.11 653.89 536.56 654.00 512.00 654.00 C 487.44 654.00 485.89 653.89 484.03 652.03 Z" stroke-linecap="round"/>
</g>
</g>
</g>

  </svg>