<svg xmlns="http://www.w3.org/2000/svg" xmlns:xlink="http://www.w3.org/1999/xlink" width="384px" height="500px" viewBox="0 0 383.9337781174955 500">
    <g id="3cf80004-5541-43e1-8b6f-a66e1be1b503">
<g style="">
		<g id="3cf80004-5541-43e1-8b6f-a66e1be1b503-child-0">
<path style="stroke: rgb(193,193,193); stroke-width: 0; stroke-dasharray: none; stroke-linecap: butt; stroke-dashoffset: 0; stroke-linejoin: miter; stroke-miterlimit: 4; fill: rgb(0,0,0); fill-rule: nonzero; opacity: 1;" transform="matrix(0.942418 0 0 0.942418 191.966972 250.000107) matrix(1 0 0 1 0 0)  translate(-512.196206, -524.387717)" d="M 332.34 788.97 C 323.13 787.12 315.07 780.83 310.78 772.13 L 308.50 767.50 L 308.50 587.00 L 308.50 406.50 L 310.89 401.22 C 313.84 394.69 321.45 387.63 328.07 385.28 L 332.93 383.56 L 333.22 333.53 C 333.50 283.56 333.50 283.49 335.81 278.86 C 339.53 271.37 344.50 266.37 351.77 262.79 L 358.46 259.50 L 509.48 259.23 C 658.91 258.97 660.57 258.98 667.21 261.00 C 675.69 263.57 684.52 271.27 688.12 279.24 L 690.50 284.50 L 690.79 334.19 L 691.09 383.87 L 694.79 385.08 C 699.82 386.72 706.20 391.21 709.92 395.71 C 716.45 403.64 716.05 390.36 715.76 588.54 L 715.50 768.50 L 712.53 773.86 C 709.31 779.68 703.81 784.72 697.50 787.65 C 693.66 789.43 686.54 789.51 515.00 789.65 C 416.83 789.73 334.63 789.43 332.34 788.97 Z M 694.55 770.00 C 699.39 765.53 700.00 762.56 700.00 743.53 L 700.00 726.00 L 512.00 726.00 L 324.00 726.00 L 324.00 744.05 C 324.00 763.87 324.41 765.64 330.05 770.39 L 333.17 773.02 L 512.51 772.76 L 691.84 772.50 L 694.55 770.00 Z M 700.00 601.50 L 700.00 493.00 L 512.00 493.00 L 324.00 493.00 L 324.00 601.50 L 324.00 710.00 L 512.00 710.00 L 700.00 710.00 L 700.00 601.50 Z M 700.00 444.40 C 700.00 408.28 699.75 406.65 693.58 402.89 C 690.60 401.07 684.88 401.01 512.30 401.00 C 378.21 401.00 333.46 401.29 331.52 402.17 C 330.11 402.82 327.95 404.95 326.73 406.92 C 324.56 410.40 324.49 411.43 324.20 442.39 C 324.03 459.93 324.13 474.89 324.42 475.64 C 324.85 476.78 355.38 477.00 512.47 477.00 L 700.00 477.00 L 700.00 444.40 Z M 369.78 379.55 C 370.67 376.21 371.90 374.46 374.72 372.55 L 378.46 370.00 L 408.28 370.00 C 439.83 370.00 441.13 370.17 445.37 374.86 C 446.40 375.99 447.54 378.40 447.91 380.21 L 448.58 383.50 L 512.29 383.76 L 576.00 384.01 L 576.00 381.76 C 576.01 378.42 579.48 373.32 582.99 371.51 C 585.64 370.14 590.24 369.96 616.47 370.21 L 646.87 370.50 L 649.95 373.45 C 651.65 375.08 653.49 378.11 654.05 380.20 L 655.08 384.00 L 665.07 384.00 L 675.05 384.00 L 674.78 369.25 L 674.50 354.50 L 511.75 354.25 L 349.00 353.99 L 349.00 369.00 L 349.00 384.00 L 358.79 384.00 L 368.59 384.00 L 369.78 379.55 Z M 527.72 337.00 L 675.13 337.00 L 674.81 312.75 C 674.46 285.66 674.22 284.56 667.33 279.30 L 663.66 276.50 L 513.58 276.22 C 431.04 276.07 362.50 276.19 361.27 276.49 C 358.00 277.28 351.91 282.98 350.35 286.70 C 349.35 289.11 349.00 295.95 349.00 313.40 L 349.00 336.86 L 351.25 337.37 C 352.49 337.64 359.53 337.68 366.91 337.44 C 374.28 337.20 446.65 337.00 527.72 337.00 Z M 373.38 673.56 C 371.66 672.82 368.96 670.51 367.38 668.43 L 364.50 664.66 L 364.22 607.58 L 363.95 550.50 L 366.22 546.01 C 369.94 538.68 372.98 537.31 387.25 536.53 C 393.99 536.17 455.30 536.01 523.50 536.18 L 647.50 536.50 L 651.28 538.85 C 653.36 540.14 655.95 542.94 657.03 545.06 C 658.92 548.77 659.00 551.19 659.00 606.07 C 659.00 662.44 658.97 663.28 656.88 667.00 C 655.72 669.07 653.07 671.72 651.00 672.88 L 647.23 675.00 L 511.86 674.96 C 400.08 674.93 375.96 674.69 373.38 673.56 Z M 643.00 605.50 L 643.00 553.00 L 512.12 553.00 L 381.23 553.00 L 380.77 555.40 C 380.52 556.72 380.53 580.35 380.80 607.90 L 381.28 658.00 L 512.14 658.00 L 643.00 658.00 L 643.00 605.50 Z M 374.45 520.55 C 371.09 517.18 371.14 512.16 374.58 508.92 L 377.16 506.50 L 512.17 506.50 L 647.17 506.50 L 649.59 509.31 C 652.77 513.01 652.69 517.04 649.36 520.36 L 646.73 523.00 L 511.82 523.00 L 376.91 523.00 L 374.45 520.55 Z M 373.34 462.86 C 360.60 460.64 353.04 451.38 353.04 438.00 C 353.04 430.42 355.14 425.01 359.96 420.20 C 364.61 415.54 368.53 413.81 375.70 413.23 C 389.88 412.09 401.27 421.43 402.70 435.38 C 404.41 452.13 389.87 465.75 373.34 462.86 Z M 381.40 445.61 C 388.76 442.53 387.69 432.51 379.69 429.66 C 376.74 428.61 371.48 431.43 370.07 434.83 C 368.28 439.15 369.78 443.07 374.06 445.25 C 378.17 447.34 377.35 447.30 381.40 445.61 Z M 639.71 462.62 C 624.50 458.40 616.61 440.41 623.82 426.38 C 630.01 414.35 645.47 409.44 657.81 415.59 C 676.02 424.67 676.35 450.46 658.37 460.19 C 652.25 463.50 645.89 464.33 639.71 462.62 Z M 652.08 444.08 C 657.77 438.38 654.37 430.00 646.36 430.00 C 641.29 430.00 638.00 433.14 638.00 437.98 C 638.00 446.16 646.37 449.79 652.08 444.08 Z M 437.46 460.63 C 428.38 456.41 423.66 448.64 423.69 438.00 C 423.74 423.26 434.00 413.15 449.00 413.05 C 460.03 412.99 469.49 420.11 472.63 430.85 C 476.19 442.99 469.59 456.67 457.70 461.79 C 452.95 463.84 443.14 463.28 437.46 460.63 Z M 454.75 443.41 C 459.56 438.02 455.83 430.00 448.50 430.00 C 441.62 430.00 437.71 437.29 441.61 442.85 C 444.92 447.58 450.80 447.83 454.75 443.41 Z M 566.00 461.89 C 556.94 458.31 551.14 450.62 550.27 441.02 C 549.55 433.08 551.38 426.99 556.10 421.63 C 567.90 408.22 589.17 410.97 597.62 427.00 C 598.93 429.49 599.47 432.67 599.48 438.00 C 599.50 444.39 599.10 446.19 596.77 450.14 C 593.69 455.38 589.05 459.65 584.28 461.65 C 580.58 463.20 569.69 463.34 566.00 461.89 Z M 577.60 445.96 C 581.36 444.53 582.93 442.16 582.97 437.82 C 583.01 433.32 579.39 430.00 574.45 430.00 C 569.92 430.00 565.56 435.06 566.42 439.34 C 567.12 442.85 568.67 444.92 571.47 446.05 C 574.21 447.16 574.46 447.16 577.60 445.96 Z M 457.87 322.13 C 452.38 318.65 449.62 313.43 449.59 306.46 C 449.57 300.16 452.11 295.57 457.88 291.51 L 462.17 288.50 L 509.83 288.21 C 563.36 287.89 562.91 287.84 569.36 294.98 C 577.24 303.70 574.28 318.32 563.61 323.38 C 560.61 324.80 554.30 325.00 511.29 325.00 L 462.39 325.00 L 457.87 322.13 Z M 450.26 639.80 C 446.33 638.77 443.59 634.16 444.48 630.11 C 444.88 628.28 452.21 620.25 466.34 606.18 C 485.93 586.67 487.88 585.00 491.11 585.00 C 496.89 585.00 501.59 591.25 499.37 596.01 C 497.99 598.98 457.51 639.63 455.40 640.17 C 454.35 640.44 452.04 640.27 450.26 639.80 Z M 493.76 638.02 C 490.68 635.61 489.89 632.10 491.57 628.33 C 492.97 625.18 532.18 585.94 535.81 584.06 C 538.84 582.49 543.60 583.60 545.50 586.30 C 546.32 587.48 547.00 589.98 547.00 591.86 C 547.00 594.90 545.44 596.87 532.76 609.89 C 524.93 617.92 514.82 627.99 510.29 632.25 C 501.29 640.73 498.46 641.72 493.76 638.02 Z M 540.50 638.79 C 537.34 636.98 536.07 634.77 536.03 631.02 C 536.00 627.78 537.96 625.58 564.27 599.27 C 589.42 574.12 592.89 571.00 595.71 571.00 C 600.46 571.00 604.40 574.82 604.40 579.43 C 604.40 582.94 602.96 584.57 575.91 611.56 C 546.30 641.13 545.56 641.69 540.50 638.79 Z" stroke-linecap="round"/>
</g>
</g>
</g>

  </svg>