<svg xmlns="http://www.w3.org/2000/svg" xmlns:xlink="http://www.w3.org/1999/xlink" width="1813px" height="2584px" viewBox="0 0 1812.6758308823764 2583.4749672376493">
    <g id="cac980a5-0130-41b2-be26-fc5cf9a2b221">
<g style="">
		<g id="cac980a5-0130-41b2-be26-fc5cf9a2b221-child-0">
<path style="stroke: rgb(193,193,193); stroke-width: 0; stroke-dasharray: none; stroke-linecap: butt; stroke-dashoffset: 0; stroke-linejoin: miter; stroke-miterlimit: 4; fill: rgb(0,0,0); fill-rule: nonzero; opacity: 1;" transform="matrix(4.473884 0 0 4.473884 906.337987 1291.737586) matrix(1 0 0 1 0 0)  translate(-512.216444, -512.138581)" d="M 341.99 800.12 C 330.09 796.23 321.40 786.29 318.86 773.66 C 317.78 768.27 319.38 758.40 333.56 683.19 C 335.46 673.12 340.37 646.80 344.48 624.69 C 348.59 602.59 352.58 581.26 353.35 577.29 C 354.12 573.33 354.51 569.84 354.21 569.54 C 353.91 569.24 351.56 569.00 348.99 569.00 C 335.44 569.00 320.06 558.64 313.76 545.27 C 300.28 516.61 321.36 486.00 354.59 486.00 L 363.00 486.00 L 363.00 369.61 C 363.00 255.59 363.04 253.08 365.02 246.66 C 367.59 238.35 374.60 230.32 382.81 226.30 C 387.61 223.95 389.76 223.51 396.50 223.52 C 406.36 223.54 412.11 226.02 419.60 233.48 C 427.06 240.92 429.00 246.82 429.00 262.04 L 429.00 274.00 L 511.90 274.00 L 594.80 274.00 L 595.17 261.25 C 595.49 250.03 595.85 247.82 598.16 242.85 C 607.68 222.44 633.27 217.00 650.14 231.82 C 652.09 233.53 655.22 237.76 657.09 241.21 L 660.50 247.50 L 660.77 366.62 L 661.04 485.74 L 671.77 486.24 C 684.57 486.82 690.92 488.95 699.07 495.36 C 721.15 512.75 719.77 545.99 696.29 562.14 C 690.41 566.19 681.80 569.00 675.26 569.00 C 669.88 569.00 669.84 569.02 670.40 571.75 C 671.12 575.25 684.60 648.40 689.98 678.00 C 692.23 690.38 696.80 715.12 700.14 733.00 C 707.22 770.90 707.32 774.08 701.79 784.20 C 695.40 795.87 684.81 801.61 671.13 800.79 C 662.20 800.25 655.22 797.19 649.46 791.26 C 642.50 784.12 641.23 780.11 634.94 745.56 C 622.17 675.30 620.01 663.68 619.69 663.35 C 619.50 663.17 571.03 663.01 511.98 662.99 L 404.61 662.96 L 394.26 719.73 C 386.91 759.99 383.22 777.99 381.57 781.62 C 378.47 788.41 373.29 793.98 366.80 797.51 C 362.32 799.95 360.18 800.45 353.00 800.67 C 348.33 800.82 343.37 800.57 341.99 800.12 Z M 359.50 776.75 C 363.57 772.94 361.93 780.54 379.43 684.50 C 385.74 649.85 392.96 610.47 395.45 597.00 C 397.95 583.53 400.00 571.71 400.00 570.75 C 400.00 569.18 398.77 569.00 388.07 569.00 L 376.14 569.00 L 375.09 574.25 C 373.79 580.74 362.91 639.21 351.51 701.00 C 346.79 726.58 342.00 752.20 340.86 757.94 C 339.15 766.58 339.00 769.05 339.95 772.24 C 341.40 777.07 345.85 779.99 351.76 780.00 C 355.20 780.00 356.70 779.37 359.50 776.75 Z M 681.60 776.60 C 684.10 774.10 685.00 772.32 685.00 769.88 C 685.00 762.98 649.08 570.74 647.61 569.77 C 646.05 568.73 625.23 568.81 624.59 569.86 C 624.30 570.33 625.59 578.99 627.47 589.11 C 642.57 670.62 648.79 704.38 654.50 735.91 C 658.13 755.94 661.56 773.18 662.12 774.22 C 663.79 777.35 669.16 779.99 673.85 780.00 C 677.47 780.00 678.77 779.43 681.60 776.60 Z M 615.42 638.25 C 615.09 636.19 614.05 630.67 613.12 626.00 L 611.42 617.50 L 512.28 617.25 C 418.49 617.00 413.11 617.09 412.63 618.75 C 412.36 619.71 411.41 624.33 410.53 629.00 C 409.65 633.67 408.71 638.51 408.44 639.75 L 407.96 642.00 L 511.99 642.00 L 616.02 642.00 L 615.42 638.25 Z M 608.00 595.64 C 608.00 594.06 602.86 570.53 602.42 570.09 C 602.11 569.77 561.38 569.52 511.92 569.51 C 432.82 569.50 421.93 569.68 421.55 571.00 C 421.31 571.83 420.41 576.55 419.53 581.50 C 418.66 586.45 417.70 591.74 417.39 593.25 L 416.84 596.00 L 512.42 596.00 C 564.99 596.00 608.00 595.84 608.00 595.64 Z M 679.28 547.94 C 684.07 546.61 689.53 541.84 692.16 536.68 C 693.77 533.53 694.12 531.30 693.81 526.35 C 693.32 518.73 689.69 512.82 683.50 509.59 L 679.50 507.50 L 514.00 507.21 C 396.75 507.00 347.40 507.23 344.73 508.00 C 342.66 508.60 339.33 510.53 337.33 512.29 C 327.25 521.13 327.85 535.11 338.70 544.35 C 344.25 549.07 338.27 548.91 512.00 548.95 C 623.14 548.98 676.71 548.65 679.28 547.94 Z M 408.41 369.50 C 408.31 240.58 408.78 249.02 401.64 245.63 C 397.13 243.49 394.21 243.58 390.30 245.96 C 383.58 250.06 384.00 241.81 384.00 369.98 L 384.00 486.06 L 396.25 485.78 L 408.50 485.50 L 408.41 369.50 Z M 595.00 454.50 L 595.00 423.00 L 512.00 423.00 L 429.00 423.00 L 429.00 454.50 L 429.00 486.00 L 512.00 486.00 L 595.00 486.00 L 595.00 454.50 Z M 640.00 369.08 L 640.00 252.15 L 637.52 249.21 C 632.34 243.05 624.70 242.57 619.43 248.08 L 616.50 251.13 L 616.24 368.57 L 615.98 486.00 L 627.99 486.00 L 640.00 486.00 L 640.00 369.08 Z M 595.00 348.49 L 595.00 294.99 L 512.25 295.24 L 429.50 295.50 L 429.24 348.75 L 428.98 402.00 L 511.99 402.00 L 595.00 402.00 L 595.00 348.49 Z" stroke-linecap="round"/>
</g>
</g>
</g>

  </svg>