<svg xmlns="http://www.w3.org/2000/svg" xmlns:xlink="http://www.w3.org/1999/xlink" width="494px" height="500px" viewBox="0 0 493.6120203997262 500">
    <g id="7aacc006-190e-4810-be62-5705b85c83c5">
<g style="">
		<g id="7aacc006-190e-4810-be62-5705b85c83c5-child-0">
<path style="stroke: rgb(193,193,193); stroke-width: 0; stroke-dasharray: none; stroke-linecap: butt; stroke-dashoffset: 0; stroke-linejoin: miter; stroke-miterlimit: 4; fill: rgb(0,0,0); fill-rule: nonzero; opacity: 1;" transform="matrix(0.879393 0 0 0.879393 246.805966 249.999956) matrix(1 0 0 1 0 0)  translate(-512.081214, -511.411786)" d="M 239.00 795.30 C 236.21 794.27 233.06 790.72 231.95 787.35 C 230.56 783.15 231.99 778.30 235.61 774.90 L 238.16 772.50 L 351.83 772.00 L 465.50 771.50 L 460.00 768.62 C 449.10 762.92 440.69 756.78 431.32 747.72 C 393.39 711.05 384.30 655.75 408.53 609.10 C 414.17 598.24 419.81 590.70 430.15 580.21 C 441.50 568.69 454.24 560.50 472.25 553.16 L 475.00 552.04 L 475.00 535.52 L 475.00 519.00 L 395.97 519.00 C 331.07 519.00 316.35 518.75 313.64 517.62 C 307.13 514.90 303.52 506.99 306.03 500.93 C 306.72 499.26 309.53 495.11 312.27 491.70 C 335.40 462.90 354.05 423.88 363.51 384.50 C 371.29 352.11 372.21 342.43 372.90 285.82 C 373.48 238.70 373.57 237.05 375.56 234.38 C 376.70 232.87 378.87 230.70 380.38 229.56 C 383.14 227.51 383.63 227.50 510.73 227.24 C 636.34 226.98 638.39 227.01 642.43 228.97 C 650.66 232.95 650.42 231.39 651.12 284.50 C 651.56 317.94 652.19 334.96 653.30 343.50 C 658.48 383.50 666.32 411.32 680.91 441.50 C 689.93 460.14 697.41 472.54 707.94 486.30 C 712.10 491.73 716.29 497.38 717.24 498.84 C 721.11 504.73 718.06 513.69 710.98 517.25 C 707.75 518.87 701.70 519.00 628.25 519.00 L 549.00 519.00 L 549.00 535.59 C 549.00 551.69 549.06 552.20 551.13 552.75 C 554.75 553.69 570.94 561.85 576.44 565.50 C 603.53 583.49 622.75 613.59 627.50 645.50 C 630.89 668.29 627.98 689.10 618.23 711.71 C 613.03 723.78 606.21 733.72 595.50 744.86 C 585.01 755.76 576.86 762.12 567.09 767.00 C 563.24 768.92 560.07 770.85 560.04 771.28 C 560.02 771.70 610.48 772.02 672.18 771.97 C 780.31 771.89 784.46 771.95 786.93 773.76 C 788.35 774.79 790.35 777.33 791.38 779.41 C 792.96 782.59 793.08 783.79 792.15 786.91 C 791.53 788.95 789.86 791.72 788.44 793.06 L 785.84 795.50 L 513.17 795.67 C 363.20 795.77 239.82 795.60 239.00 795.30 Z M 532.77 753.92 C 559.92 747.70 581.55 730.30 593.99 704.64 C 605.29 681.32 606.89 658.34 598.94 633.47 C 591.21 609.32 570.54 586.99 547.09 577.46 C 531.34 571.06 509.34 568.95 493.48 572.31 C 464.09 578.54 437.52 600.88 426.97 628.24 C 421.77 641.71 420.60 648.20 420.60 663.50 C 420.60 674.93 421.01 679.06 422.88 686.00 C 427.59 703.59 436.13 718.08 449.14 730.56 C 460.87 741.82 470.55 747.57 486.00 752.45 C 501.03 757.20 516.36 757.68 532.77 753.92 Z M 524.00 533.00 L 524.00 519.00 L 512.00 519.00 L 500.00 519.00 L 500.00 532.47 L 500.00 545.93 L 510.75 546.25 C 516.66 546.43 522.06 546.67 522.75 546.79 C 523.70 546.95 524.00 543.65 524.00 533.00 Z M 381.27 489.25 C 405.97 447.68 419.70 400.58 422.87 346.45 C 423.77 331.15 424.79 328.20 430.10 325.45 C 431.64 324.65 434.55 324.00 436.57 324.00 C 439.52 324.00 441.02 324.79 444.27 328.03 L 448.30 332.06 L 447.71 347.28 C 445.92 393.14 434.66 438.75 415.40 478.07 C 411.33 486.38 408.00 493.59 408.00 494.10 C 408.00 494.63 418.26 494.93 432.60 494.81 L 457.20 494.61 L 458.11 492.21 C 460.20 486.71 466.16 461.14 468.46 447.82 C 473.08 421.02 474.19 407.21 474.86 368.17 L 475.50 330.84 L 479.24 327.42 C 484.09 322.98 490.22 322.63 494.86 326.53 C 500.11 330.95 500.32 332.96 499.71 371.92 C 498.97 418.97 495.96 445.61 487.53 479.81 C 485.59 487.68 484.00 494.27 484.00 494.46 C 484.00 494.94 538.35 494.88 539.15 494.40 C 539.50 494.19 538.72 489.85 537.41 484.76 C 528.11 448.64 524.04 411.40 524.02 362.22 C 524.00 332.55 524.35 330.23 529.51 326.17 C 534.78 322.02 543.78 323.97 547.36 330.04 C 548.76 332.40 549.00 336.42 549.01 357.15 C 549.02 395.18 550.84 420.32 555.55 447.82 C 557.93 461.69 564.10 488.30 565.94 492.62 C 566.82 494.70 567.38 494.75 590.87 494.86 C 605.95 494.94 615.13 494.60 615.51 493.98 C 615.85 493.43 614.79 490.62 613.14 487.74 C 608.12 478.96 599.44 458.97 594.63 445.15 C 583.93 414.41 576.00 370.23 576.00 341.41 L 576.00 331.76 L 579.88 327.88 C 584.21 323.55 588.72 322.77 593.90 325.45 C 599.13 328.15 600.13 331.05 601.08 346.13 C 603.72 388.39 612.19 424.99 627.21 459.00 C 633.64 473.59 643.97 492.45 646.48 494.22 C 647.73 495.10 682.00 495.20 682.00 494.31 C 682.00 493.97 679.36 489.59 676.13 484.59 C 645.01 436.40 629.56 384.26 626.39 316.75 L 625.70 302.00 L 511.85 302.00 L 398.00 302.00 L 398.00 309.80 C 398.00 314.09 397.53 323.65 396.95 331.05 C 392.37 389.91 376.44 440.25 348.83 483.10 C 345.07 488.93 342.00 493.99 342.00 494.35 C 342.00 494.71 350.07 495.00 359.93 495.00 L 377.86 495.00 L 381.27 489.25 Z M 626.00 264.50 L 626.00 252.00 L 512.00 252.00 L 398.00 252.00 L 398.00 264.50 L 398.00 277.00 L 512.00 277.00 L 626.00 277.00 L 626.00 264.50 Z" stroke-linecap="round"/>
</g>
</g>
</g>

  </svg>