<svg xmlns="http://www.w3.org/2000/svg" xmlns:xlink="http://www.w3.org/1999/xlink" width="500px" height="451px" viewBox="0 0 500 450.9738944251372">
    <g id="b117a5b9-f4b7-44ca-9711-8bf166acb014">
<g style="">
		<g id="b117a5b9-f4b7-44ca-9711-8bf166acb014-child-0">
<path style="stroke: rgb(193,193,193); stroke-width: 0; stroke-dasharray: none; stroke-linecap: butt; stroke-dashoffset: 0; stroke-linejoin: miter; stroke-miterlimit: 4; fill: rgb(0,0,0); fill-rule: nonzero; opacity: 1;" transform="matrix(0.851367 0 0 0.851367 250.000053 225.486995) matrix(1 0 0 1 0 0)  translate(-511.817537, -511.896934)" d="M 344.50 775.14 C 324.46 769.33 305.19 751.32 299.12 732.74 C 297.25 727.01 291.44 694.34 264.49 538.00 C 249.60 451.64 251.12 459.01 248.19 458.99 C 245.57 458.98 236.20 454.33 231.86 450.89 C 226.60 446.73 222.58 440.65 219.96 432.92 C 213.89 415.04 223.80 394.07 241.75 386.82 C 247.44 384.52 247.97 384.50 295.00 384.20 L 342.50 383.91 L 346.31 372.03 C 361.36 325.18 395.39 285.50 439.08 263.86 C 491.54 237.89 555.58 242.26 604.90 275.17 C 638.70 297.73 664.69 332.41 677.71 372.29 L 681.50 383.92 L 729.00 384.21 C 776.13 384.50 776.55 384.52 782.28 386.83 C 790.39 390.11 798.91 398.24 802.60 406.22 C 805.17 411.78 805.50 413.58 805.46 422.00 C 805.43 430.39 805.09 432.20 802.53 437.48 C 800.94 440.77 797.47 445.62 794.83 448.27 C 790.23 452.87 779.37 459.00 775.82 459.00 C 774.89 459.00 773.89 459.79 773.60 460.75 C 772.99 462.73 764.83 507.98 756.60 555.00 C 722.78 748.25 725.70 734.16 716.62 747.81 C 709.09 759.15 698.21 767.78 683.78 773.85 L 677.50 776.50 L 514.00 776.69 C 361.38 776.86 350.10 776.76 344.50 775.14 Z M 675.10 751.45 C 681.04 749.50 687.51 745.34 692.30 740.41 C 697.25 735.32 702.71 724.08 703.91 716.50 C 706.21 701.98 747.14 469.43 748.57 462.75 L 749.16 460.00 L 512.01 460.00 C 286.62 460.00 274.89 460.09 275.40 461.75 C 276.03 463.80 284.15 509.91 297.00 584.50 C 322.58 732.87 320.75 723.03 324.07 729.78 C 329.75 741.34 342.67 751.12 354.51 752.81 C 357.16 753.19 429.34 753.38 514.91 753.23 C 650.80 753.00 671.08 752.78 675.10 751.45 Z M 773.93 434.25 C 783.77 429.23 784.40 416.48 775.10 410.27 L 771.70 408.00 L 512.10 408.00 C 256.55 408.01 252.45 408.04 249.30 409.96 C 245.37 412.35 243.07 415.74 242.38 420.14 C 241.66 424.73 245.46 431.70 250.01 434.14 C 253.35 435.94 262.10 436.00 511.98 436.00 C 756.13 436.00 770.69 435.90 773.93 434.25 Z M 654.62 380.87 C 653.61 375.81 647.13 360.12 642.47 351.48 C 635.48 338.51 626.24 326.30 614.50 314.51 C 601.70 301.65 589.69 293.11 573.73 285.52 C 553.76 276.02 539.44 272.34 518.50 271.31 C 462.81 268.59 412.14 298.00 382.11 350.49 C 377.73 358.14 370.92 373.84 368.54 381.75 L 367.87 384.00 L 511.56 384.00 L 655.25 384.00 L 654.62 380.87 Z M 645.69 702.99 C 641.89 701.84 639.93 700.08 638.43 696.48 C 637.36 693.92 637.91 685.95 642.03 643.98 C 644.71 616.77 648.29 580.11 649.99 562.51 C 653.41 527.28 653.77 525.87 660.32 522.65 C 665.48 520.11 669.98 521.07 673.92 525.57 C 676.43 528.42 677.00 529.94 677.00 533.80 C 677.00 537.97 672.65 583.86 664.38 667.00 C 662.93 681.58 661.16 694.93 660.45 696.67 C 658.32 701.93 651.62 704.80 645.69 702.99 Z M 366.13 700.46 C 364.47 699.06 362.86 697.14 362.57 696.21 C 361.88 694.01 347.00 538.06 347.00 532.99 C 347.00 528.25 350.59 523.62 355.53 521.99 C 362.48 519.70 370.24 524.95 371.36 532.72 C 371.66 534.80 375.16 571.88 379.13 615.13 C 387.03 701.24 386.97 698.41 380.91 701.55 C 376.33 703.91 369.65 703.42 366.13 700.46 Z M 433.55 699.75 C 429.76 695.95 429.98 698.16 427.52 641.50 C 426.70 622.80 425.31 590.89 424.43 570.58 C 423.54 550.27 423.09 532.29 423.43 530.62 C 424.24 526.54 428.61 522.16 432.61 521.41 C 437.19 520.55 442.58 522.61 445.12 526.17 C 447.66 529.73 447.23 523.90 450.58 600.00 C 451.97 631.62 453.48 665.60 453.94 675.50 C 454.88 695.73 454.32 698.75 449.13 701.43 C 447.46 702.30 444.01 703.00 441.45 703.00 C 437.54 703.00 436.29 702.48 433.55 699.75 Z M 505.11 701.60 C 499.91 698.72 500.07 701.51 500.04 612.70 C 500.00 521.81 499.74 525.74 505.97 522.52 C 511.87 519.46 519.55 521.62 522.65 527.19 C 523.66 529.01 523.94 546.79 523.96 611.80 C 524.00 700.73 524.18 697.66 518.78 701.44 C 516.07 703.34 508.40 703.43 505.11 701.60 Z M 572.40 699.60 C 569.71 696.91 569.00 695.40 569.00 692.35 C 569.00 688.24 574.28 581.22 576.04 549.62 C 576.74 536.90 577.56 529.81 578.54 527.93 C 581.59 522.03 588.46 519.70 594.45 522.54 C 599.43 524.91 601.00 528.42 601.00 537.20 C 600.99 552.41 592.96 695.21 592.01 696.99 C 589.94 700.85 585.92 703.00 580.77 703.00 C 576.45 703.00 575.35 702.55 572.40 699.60 Z" stroke-linecap="round"/>
</g>
</g>
</g>

  </svg>