<svg xmlns="http://www.w3.org/2000/svg" xmlns:xlink="http://www.w3.org/1999/xlink" width="500px" height="294px" viewBox="0 0 499.9999999999998 294.2002344162579">
    <g id="ee4e1e14-cda1-4eed-9d6c-a6ca2fd06e4f">
<g style="">
		<g id="ee4e1e14-cda1-4eed-9d6c-a6ca2fd06e4f-child-0">
<path style="stroke: rgb(193,193,193); stroke-width: 0; stroke-dasharray: none; stroke-linecap: butt; stroke-dashoffset: 0; stroke-linejoin: miter; stroke-miterlimit: 4; fill: rgb(0,0,0); fill-rule: nonzero; opacity: 1;" transform="matrix(0.713041 0 0 0.713041 249.999961 147.100095) matrix(1 0 0 1 0 0)  translate(-511.897129, -512.505416)" d="M 799.50 717.65 C 793.84 716.17 786.80 712.72 762.50 699.50 C 753.15 694.42 721.88 677.56 693.00 662.03 C 664.12 646.50 637.58 632.21 634.00 630.27 C 611.62 618.13 549.40 584.73 545.13 582.57 L 540.00 579.97 L 540.00 611.30 C 540.00 629.63 539.55 645.08 538.91 648.53 C 535.70 665.88 522.07 678.63 504.07 681.12 C 500.20 681.66 465.05 681.94 421.91 681.78 C 351.78 681.52 346.32 681.38 343.90 679.74 C 337.18 675.16 337.39 664.71 344.30 660.76 C 346.00 659.79 364.92 659.39 427.00 659.00 L 507.50 658.50 L 510.77 656.17 C 516.33 652.20 518.00 647.55 518.00 636.04 L 518.00 626.00 L 497.25 626.01 C 389.42 626.09 190.45 624.78 188.97 623.98 C 183.53 621.08 181.26 612.93 184.56 608.22 C 188.43 602.69 178.18 603.00 354.98 603.00 L 518.05 603.00 L 517.77 586.75 L 517.50 570.50 L 435.00 570.00 L 352.50 569.50 L 346.75 566.80 C 334.94 561.27 325.40 548.93 323.01 536.11 C 322.45 533.15 322.00 524.97 322.00 517.94 L 322.00 505.16 L 315.75 504.52 C 312.31 504.17 300.31 504.03 289.08 504.19 L 268.67 504.50 L 274.36 508.28 C 281.05 512.71 290.44 521.86 294.71 528.10 C 304.59 542.50 309.51 562.05 305.62 571.36 C 302.53 578.76 296.25 580.93 282.99 579.16 C 256.53 575.64 235.73 561.41 223.95 538.79 C 219.61 530.45 216.01 518.15 215.98 511.59 C 215.96 504.32 216.73 504.56 190.64 504.00 C 164.39 503.44 164.09 503.35 161.88 495.98 C 160.97 492.96 161.07 491.65 162.43 488.79 C 165.56 482.20 161.54 482.50 245.61 482.50 L 321.91 482.50 L 322.31 462.50 C 322.68 444.16 322.92 441.94 325.22 435.79 C 327.60 429.40 336.36 415.66 351.19 395.04 C 356.51 387.63 357.68 385.40 356.57 384.78 C 355.78 384.34 335.48 384.10 311.46 384.24 L 267.78 384.50 L 274.91 389.37 C 285.54 396.63 294.31 406.65 299.49 417.46 C 304.49 427.87 306.00 434.13 306.00 444.40 C 306.00 450.35 305.58 452.33 303.72 455.09 C 300.16 460.37 297.76 461.19 287.50 460.61 C 262.16 459.18 239.03 445.53 226.09 424.35 C 221.57 416.94 218.11 405.96 216.80 394.90 L 215.67 385.30 L 200.67 384.65 C 192.43 384.29 181.80 384.00 177.06 384.00 C 167.23 384.00 164.66 382.83 162.35 377.28 C 160.49 372.85 161.96 367.87 165.98 365.02 C 168.77 363.03 170.13 363.00 271.29 363.00 L 373.78 363.00 L 389.56 340.95 C 398.23 328.83 406.95 317.64 408.92 316.08 C 421.20 306.42 438.31 303.58 453.02 308.75 C 456.06 309.81 474.51 319.37 494.02 329.98 C 513.53 340.60 538.50 354.05 549.50 359.89 C 576.60 374.27 582.98 380.86 586.62 398.22 C 589.35 411.22 588.28 415.21 573.09 448.82 C 567.54 461.10 563.00 471.52 563.00 471.99 C 563.00 472.45 567.39 475.18 572.75 478.06 C 581.44 482.73 642.47 515.76 734.00 565.35 C 751.33 574.74 781.92 591.28 801.99 602.10 C 829.46 616.93 839.94 623.11 844.40 627.11 C 869.99 650.09 868.18 690.48 840.73 709.39 C 829.29 717.27 811.58 720.82 799.50 717.65 Z M 820.76 695.48 C 827.63 693.44 835.97 685.82 838.97 678.86 C 841.96 671.90 841.58 660.76 838.09 653.64 C 833.83 644.93 830.10 642.20 801.00 626.50 C 785.88 618.34 758.42 603.48 740.00 593.47 C 696.26 569.71 640.91 539.72 609.00 522.49 C 548.28 489.71 542.79 486.61 541.25 484.25 C 540.37 482.91 539.48 479.49 539.28 476.66 C 538.95 471.91 539.72 469.73 549.06 449.00 C 567.30 408.53 567.37 408.31 564.86 399.92 C 563.15 394.23 558.52 389.29 551.65 385.83 C 548.27 384.13 523.92 371.05 497.55 356.76 C 471.18 342.46 447.83 330.15 445.67 329.39 C 436.96 326.31 426.39 328.54 420.90 334.62 C 419.47 336.21 415.40 341.77 411.85 347.00 C 408.31 352.23 394.38 372.02 380.90 391.00 C 351.20 432.81 348.38 436.95 345.95 442.30 C 344.17 446.22 344.04 449.34 344.03 488.50 C 344.02 514.79 344.40 531.91 345.06 534.28 C 346.16 538.25 350.81 544.24 354.39 546.29 C 355.98 547.20 377.76 547.62 442.50 548.00 L 528.50 548.50 L 598.00 585.91 C 636.22 606.48 678.08 629.04 691.00 636.02 C 703.92 643.01 733.62 659.07 757.00 671.71 C 780.38 684.35 800.85 695.17 802.50 695.76 C 806.89 697.34 814.91 697.22 820.76 695.48 Z M 282.46 552.25 C 277.14 539.51 268.10 530.18 254.77 523.70 C 244.21 518.56 240.00 517.30 240.00 519.26 C 240.00 523.16 247.48 535.67 253.28 541.46 C 261.20 549.38 273.71 555.87 281.26 555.96 L 284.03 556.00 L 282.46 552.25 Z M 283.00 436.16 C 283.00 431.92 276.45 421.31 269.57 414.39 C 263.96 408.75 260.53 406.32 252.95 402.64 C 241.60 397.12 239.51 396.80 240.42 400.75 C 241.95 407.31 248.35 418.31 253.73 423.59 C 260.62 430.38 273.20 436.69 282.25 437.90 C 282.66 437.95 283.00 437.17 283.00 436.16 Z M 255.33 681.15 C 250.78 680.67 248.48 679.87 246.59 678.09 C 241.03 672.86 242.65 663.30 249.59 660.40 C 252.51 659.18 257.81 658.96 278.56 659.20 L 303.97 659.50 L 307.23 662.77 C 309.97 665.51 310.50 666.78 310.50 670.60 C 310.50 674.49 310.02 675.59 307.23 678.08 L 303.97 681.00 L 288.63 681.00 C 280.20 681.00 270.64 681.18 267.40 681.40 C 264.15 681.63 258.72 681.51 255.33 681.15 Z M 417.12 529.48 C 397.41 523.96 380.62 507.00 375.53 487.45 C 373.60 480.06 373.58 466.17 375.48 459.05 C 377.97 449.66 382.86 441.16 390.17 433.46 C 409.87 412.72 439.97 409.52 464.15 425.60 C 493.21 444.92 498.64 483.70 476.09 510.79 C 470.45 517.58 460.33 524.66 451.50 528.01 C 443.68 530.98 425.29 531.77 417.12 529.48 Z M 444.50 507.20 C 467.02 498.51 474.88 471.53 460.52 452.19 C 455.52 445.45 448.23 440.77 439.10 438.44 C 423.22 434.39 406.66 442.74 399.30 458.50 C 396.92 463.59 396.50 465.78 396.50 473.00 C 396.50 480.44 396.89 482.31 399.59 488.00 C 407.98 505.61 427.26 513.85 444.50 507.20 Z M 510.49 426.45 C 507.75 424.99 500.77 421.20 495.00 418.01 C 489.23 414.83 473.02 406.04 459.00 398.47 C 444.98 390.91 432.51 383.83 431.30 382.73 C 424.76 376.83 430.23 364.56 439.38 364.62 C 442.85 364.64 519.44 405.45 524.20 409.81 C 530.76 415.81 527.30 426.20 517.99 428.48 C 516.28 428.90 513.88 428.25 510.49 426.45 Z" stroke-linecap="round"/>
</g>
</g>
</g>

  </svg>