<svg xmlns="http://www.w3.org/2000/svg" xmlns:xlink="http://www.w3.org/1999/xlink" width="500px" height="423px" viewBox="0 0 499.9999999999998 422.734445693289">
    <g id="ac0b21da-3909-48a6-bdd6-e1aead9e9e42">
<g style="">
		<g id="ac0b21da-3909-48a6-bdd6-e1aead9e9e42-child-0">
<path style="stroke: rgb(193,193,193); stroke-width: 0; stroke-dasharray: none; stroke-linecap: butt; stroke-dashoffset: 0; stroke-linejoin: miter; stroke-miterlimit: 4; fill: rgb(0,0,0); fill-rule: nonzero; opacity: 1;" transform="matrix(0.821779 0 0 0.821779 249.999973 211.3672) matrix(1 0 0 1 0 0)  translate(-512.43482, -512.793136)" d="M 212.90 767.72 C 206.44 763.38 206.71 753.97 213.42 749.89 C 215.69 748.50 218.42 748.01 223.85 748.00 C 232.05 748.00 235.69 749.51 238.36 754.04 C 240.40 757.49 240.43 760.26 238.48 764.03 C 236.23 768.39 232.23 770.00 223.70 770.00 C 217.65 770.00 215.68 769.58 212.90 767.72 Z M 268.82 768.28 C 261.76 763.91 262.02 754.40 269.31 749.95 C 272.28 748.14 274.55 748.01 301.82 748.00 L 331.15 748.00 L 330.89 733.01 C 330.68 720.41 330.39 717.94 329.07 717.55 C 328.21 717.28 321.89 715.94 315.03 714.56 C 298.62 711.26 291.60 707.82 282.50 698.59 C 278.60 694.63 274.30 689.05 272.78 685.99 C 267.00 674.31 267.05 675.03 266.97 597.48 C 266.91 527.41 266.94 526.11 269.03 519.86 C 270.20 516.36 272.21 511.68 273.50 509.46 L 275.84 505.41 L 255.72 424.96 C 236.40 347.69 235.60 344.12 235.67 335.00 C 235.77 320.65 239.98 309.96 249.36 300.20 C 254.21 295.16 260.94 290.73 266.35 289.00 C 268.46 288.33 272.21 285.85 274.67 283.49 C 279.62 278.75 288.33 273.76 294.50 272.12 C 296.70 271.54 327.52 268.35 363.00 265.03 C 398.48 261.72 434.70 258.27 443.50 257.37 C 467.91 254.87 481.88 254.99 490.75 257.78 C 506.67 262.78 521.06 276.35 526.48 291.47 C 529.50 299.90 537.00 342.04 536.98 350.50 C 536.97 358.45 534.71 367.64 530.96 375.07 L 527.91 381.13 L 537.61 421.31 C 542.94 443.42 547.51 462.50 547.77 463.73 C 548.36 466.64 547.66 466.56 590.50 468.45 C 668.16 471.89 706.64 474.12 713.75 475.62 C 734.45 479.96 750.27 495.07 755.48 515.46 C 757.76 524.41 757.76 675.68 755.47 684.46 C 749.77 706.33 730.57 722.04 706.50 724.51 C 703.20 724.85 699.26 725.36 697.75 725.64 L 695.00 726.16 L 695.00 737.08 L 695.00 748.00 L 724.05 748.00 C 755.96 748.00 757.53 748.26 760.48 753.97 C 762.40 757.68 762.40 760.32 760.48 764.03 C 757.15 770.48 777.05 770.00 512.30 769.97 C 289.45 769.95 271.30 769.82 268.82 768.28 Z M 477.50 747.47 C 476.95 747.26 449.50 741.67 416.50 735.04 C 383.50 728.41 355.71 722.81 354.75 722.59 C 353.15 722.22 353.00 723.32 353.00 735.09 L 353.00 748.00 L 415.75 747.92 C 450.26 747.88 478.05 747.67 477.50 747.47 Z M 672.00 738.64 C 672.00 729.49 671.95 729.29 669.75 729.65 C 668.51 729.86 652.20 732.06 633.50 734.56 C 596.01 739.56 545.06 746.86 543.50 747.46 C 542.95 747.67 571.64 747.88 607.25 747.92 L 672.00 748.00 L 672.00 738.64 Z M 518.40 726.25 C 520.54 724.74 523.69 721.03 525.40 718.00 L 528.50 712.50 L 528.50 630.50 C 528.50 536.28 529.01 541.88 519.57 532.44 C 510.93 523.80 511.59 523.93 441.95 517.56 C 408.15 514.47 366.10 510.56 348.50 508.89 C 330.90 507.21 314.78 506.11 312.67 506.44 C 306.83 507.37 299.62 511.45 295.67 516.08 C 288.81 524.09 289.00 521.74 289.04 597.93 C 289.08 660.03 289.24 666.94 290.79 671.20 C 294.77 682.16 302.37 688.86 313.82 691.53 C 317.04 692.29 355.70 700.12 399.72 708.94 C 443.75 717.76 480.50 725.25 481.39 725.60 C 482.86 726.16 483.00 719.43 483.00 646.63 L 483.00 567.04 L 480.75 566.51 C 478.51 565.98 390.42 557.90 344.50 554.01 C 318.92 551.84 317.06 551.34 314.26 545.90 C 311.11 539.76 314.80 531.68 321.31 530.48 C 324.43 529.90 356.85 532.57 432.00 539.59 C 492.77 545.27 494.90 545.53 497.79 547.70 C 499.21 548.76 501.30 550.87 502.44 552.38 C 504.48 555.12 504.50 556.04 504.77 642.71 L 505.03 730.27 L 509.77 729.63 C 512.47 729.27 516.17 727.82 518.40 726.25 Z M 634.20 712.04 C 698.19 703.25 714.70 700.68 717.99 699.01 C 723.54 696.17 729.15 690.36 732.08 684.42 L 734.50 679.50 L 734.78 638.79 L 735.06 598.08 L 731.78 599.44 C 729.98 600.19 722.20 601.53 714.50 602.41 C 694.40 604.71 553.74 623.00 552.25 623.51 C 551.28 623.84 550.99 633.71 550.98 668.22 C 550.95 709.06 550.68 715.23 548.57 721.81 C 547.87 723.98 548.04 724.09 551.16 723.55 C 553.00 723.24 590.36 718.06 634.20 712.04 Z M 610.00 593.49 C 637.22 589.93 674.71 585.05 693.31 582.64 C 726.42 578.35 727.19 578.20 730.81 575.28 C 737.33 570.01 735.83 561.60 726.94 553.57 C 719.43 546.78 716.89 546.16 685.76 543.50 C 670.22 542.17 632.86 538.97 602.75 536.38 C 572.64 533.79 547.82 531.86 547.61 532.08 C 547.39 532.31 548.04 535.65 549.05 539.50 C 550.61 545.44 550.89 550.65 550.94 573.89 L 551.00 601.27 L 555.75 600.61 C 558.36 600.24 582.78 597.04 610.00 593.49 Z M 735.00 527.04 C 735.00 521.36 731.35 512.39 727.13 507.73 C 719.31 499.07 711.89 496.47 692.50 495.58 C 685.35 495.25 651.42 493.63 617.10 491.97 C 582.79 490.31 554.52 489.15 554.28 489.39 C 554.04 489.62 554.87 494.35 556.12 499.90 C 558.34 509.73 558.47 510.00 561.45 510.49 C 564.38 510.97 584.96 512.77 676.30 520.52 C 718.76 524.12 722.83 524.79 731.00 529.49 C 734.67 531.60 735.00 531.39 735.00 527.04 Z M 536.55 514.75 C 535.72 510.92 520.07 444.39 516.03 427.50 C 513.93 418.70 511.63 408.88 510.93 405.68 C 509.49 399.15 510.23 399.29 500.00 403.57 C 492.29 406.80 491.09 406.97 439.00 412.06 C 400.97 415.78 332.69 423.00 332.34 423.34 C 331.78 423.91 347.77 486.42 348.54 486.64 C 349.07 486.80 372.23 488.99 400.00 491.50 C 490.16 499.66 504.42 501.03 509.57 502.05 C 516.41 503.42 525.44 507.85 531.50 512.83 C 534.25 515.08 536.62 516.94 536.77 516.96 C 536.92 516.98 536.82 515.99 536.55 514.75 Z M 302.69 486.58 C 305.55 485.65 311.45 484.57 315.82 484.19 L 323.75 483.50 L 312.81 439.00 C 297.88 378.22 298.81 384.93 303.80 374.21 C 309.73 361.44 309.78 360.19 305.06 341.22 C 299.54 319.03 297.47 315.38 288.00 311.08 C 277.25 306.21 265.73 310.95 260.37 322.46 C 256.03 331.77 256.29 333.30 275.49 410.69 C 296.59 495.77 294.85 489.27 296.31 488.73 C 296.96 488.49 299.84 487.52 302.69 486.58 Z M 388.50 395.07 C 414.90 392.32 447.87 388.92 461.78 387.51 C 479.58 385.71 488.66 384.35 492.48 382.92 C 499.75 380.20 507.17 373.35 510.87 365.94 C 515.64 356.39 515.72 352.15 511.56 328.35 C 509.55 316.88 507.45 305.48 506.89 303.00 C 504.03 290.41 492.00 279.47 478.84 277.50 C 476.45 277.14 463.92 277.81 451.00 278.97 C 384.99 284.93 309.10 292.05 306.01 292.58 L 302.53 293.18 L 305.51 295.29 C 310.18 298.58 316.58 305.81 319.38 310.97 C 320.79 313.55 324.01 323.95 326.54 334.08 C 330.72 350.77 331.11 353.34 330.72 361.50 C 330.39 368.55 329.68 371.91 327.46 377.00 C 324.33 384.16 323.89 389.87 325.90 396.89 L 327.15 401.28 L 333.83 400.68 C 337.50 400.35 362.10 397.82 388.50 395.07 Z M 791.39 769.02 C 787.92 767.62 785.00 763.08 785.00 759.09 C 785.00 751.50 790.19 748.00 801.42 748.00 C 808.36 748.00 809.19 748.23 812.39 751.04 C 814.30 752.71 816.15 755.39 816.50 757.00 C 817.35 760.87 814.54 766.67 810.91 768.54 C 807.82 770.14 794.95 770.46 791.39 769.02 Z M 398.23 653.00 C 393.68 650.23 392.79 647.09 393.17 635.17 C 393.50 624.93 393.53 624.81 396.77 621.92 C 402.45 616.84 411.74 618.73 414.58 625.53 C 416.55 630.25 416.45 644.24 414.42 648.52 C 412.76 652.02 407.89 655.00 403.85 655.00 C 402.56 654.99 400.03 654.09 398.23 653.00 Z" stroke-linecap="round"/>
</g>
</g>
</g>

  </svg>