<svg xmlns="http://www.w3.org/2000/svg" xmlns:xlink="http://www.w3.org/1999/xlink" width="500px" height="395px" viewBox="0 0 499.9999999999998 394.76837999798727">
    <g id="2401f6ed-202f-4ccc-87f5-f68d04913dcf">
<g style="">
		<g id="2401f6ed-202f-4ccc-87f5-f68d04913dcf-child-0">
<path style="stroke: rgb(193,193,193); stroke-width: 0; stroke-dasharray: none; stroke-linecap: butt; stroke-dashoffset: 0; stroke-linejoin: miter; stroke-miterlimit: 4; fill: rgb(0,0,0); fill-rule: nonzero; opacity: 1;" transform="matrix(0.819794 0 0 0.819794 250.00011 197.384277) matrix(1 0 0 1 0 0)  translate(-512.054904, -512.194203)" d="M 227.88 751.68 C 222.18 749.55 217.32 746.20 213.55 741.79 C 206.44 733.49 206.95 752.15 207.24 510.47 L 207.50 292.50 L 209.76 288.28 C 213.30 281.65 217.66 277.31 223.81 274.30 C 231.37 270.61 242.05 270.45 249.24 273.92 C 255.46 276.93 261.68 283.06 264.35 288.84 C 266.43 293.36 266.51 294.87 266.80 338.75 L 267.09 384.00 L 278.63 384.00 L 290.17 384.00 L 286.71 379.25 C 279.46 369.30 276.79 361.52 276.83 350.51 C 276.91 332.20 290.08 317.61 309.78 314.04 C 330.18 310.34 369.22 326.71 388.33 346.96 C 391.82 350.66 395.74 355.90 397.06 358.59 C 400.11 364.86 400.85 375.02 398.65 380.29 L 397.10 384.00 L 512.16 384.00 C 621.34 384.00 627.18 383.91 626.50 382.25 C 623.16 374.09 623.50 366.59 627.57 358.26 C 636.78 339.43 671.02 318.49 699.78 314.09 C 713.68 311.96 728.15 316.31 737.15 325.31 C 751.05 339.21 751.25 360.55 737.65 378.26 C 735.64 380.88 734.00 383.24 734.00 383.51 C 734.00 383.78 739.38 384.00 745.96 384.00 L 757.92 384.00 L 758.21 337.75 C 758.49 292.50 758.55 291.41 760.67 287.50 C 770.75 268.88 796.06 265.90 809.97 281.70 C 817.57 290.34 817.00 271.64 817.00 512.64 C 817.00 728.31 816.99 728.94 814.95 734.41 C 813.47 738.35 811.40 741.27 807.58 744.75 C 798.82 752.76 787.56 755.05 776.79 751.02 C 769.37 748.24 764.64 743.97 761.07 736.83 L 758.00 730.68 L 758.00 631.84 L 758.00 533.00 L 584.00 533.00 L 410.00 533.00 L 410.00 629.05 C 410.00 711.39 409.79 725.50 408.54 727.93 C 406.91 731.08 405.20 732.00 401.00 732.00 C 393.08 732.00 392.00 729.25 392.00 709.05 L 392.00 693.00 L 361.00 693.00 L 330.00 693.00 L 330.00 708.93 C 330.00 717.70 329.55 726.05 329.01 727.48 C 328.42 729.03 326.58 730.70 324.51 731.56 C 321.46 732.84 320.56 732.84 317.58 731.60 C 315.70 730.81 313.67 729.26 313.08 728.15 C 312.33 726.74 312.00 696.83 312.00 629.57 L 312.00 533.00 L 289.53 533.00 L 267.06 533.00 L 266.78 631.75 L 266.50 730.50 L 263.71 736.18 C 260.66 742.40 256.24 746.81 249.72 750.15 C 244.46 752.85 233.13 753.64 227.88 751.68 Z M 242.09 734.45 C 243.74 733.60 245.97 731.46 247.04 729.70 C 248.96 726.55 248.99 722.99 249.00 512.65 C 249.00 319.47 248.85 298.48 247.41 295.46 C 245.38 291.17 241.61 288.73 237.02 288.73 C 232.31 288.73 229.36 290.36 226.95 294.31 C 225.04 297.44 225.01 301.36 225.02 512.00 C 225.03 681.58 225.29 727.02 226.28 728.97 C 227.88 732.14 233.60 736.00 236.70 736.00 C 238.02 736.00 240.45 735.30 242.09 734.45 Z M 792.39 734.48 C 794.15 733.65 796.33 731.71 797.24 730.17 C 798.77 727.59 798.91 710.34 799.11 512.14 C 799.32 299.24 799.30 296.88 797.35 294.20 C 796.26 292.72 793.71 290.67 791.67 289.66 C 788.37 288.02 787.51 287.96 783.73 289.16 C 780.27 290.26 779.09 291.31 777.24 294.98 L 774.98 299.46 L 775.24 513.52 C 775.49 718.84 775.57 727.70 777.33 730.37 C 779.18 733.21 784.00 735.89 787.35 735.96 C 788.37 735.98 790.64 735.32 792.39 734.48 Z M 392.00 657.00 L 392.00 639.00 L 361.00 639.00 L 330.00 639.00 L 330.00 657.00 L 330.00 675.00 L 361.00 675.00 L 392.00 675.00 L 392.00 657.00 Z M 392.00 603.50 L 392.00 586.00 L 361.00 586.00 L 330.00 586.00 L 330.00 603.50 L 330.00 621.00 L 361.00 621.00 L 392.00 621.00 L 392.00 603.50 Z M 392.00 550.50 L 392.00 533.00 L 361.00 533.00 L 330.00 533.00 L 330.00 550.50 L 330.00 568.00 L 361.00 568.00 L 392.00 568.00 L 392.00 550.50 Z M 312.00 502.00 L 312.00 489.00 L 289.50 489.00 L 267.00 489.00 L 267.00 502.00 L 267.00 515.00 L 289.50 515.00 L 312.00 515.00 L 312.00 502.00 Z M 392.00 502.00 L 392.00 489.00 L 361.00 489.00 L 330.00 489.00 L 330.00 502.00 L 330.00 515.00 L 361.00 515.00 L 392.00 515.00 L 392.00 502.00 Z M 757.78 501.75 L 758.06 489.00 L 584.03 489.00 L 410.00 489.00 L 410.00 502.00 L 410.00 515.01 L 583.75 514.75 L 757.50 514.50 L 757.78 501.75 Z M 758.00 458.50 L 758.00 446.00 L 512.50 446.00 L 267.00 446.00 L 267.00 458.50 L 267.00 471.00 L 512.50 471.00 L 758.00 471.00 L 758.00 458.50 Z M 757.50 415.00 L 757.50 402.50 L 512.25 402.25 L 267.00 402.00 L 267.00 415.00 L 267.00 428.00 L 512.25 427.75 L 757.50 427.50 L 757.50 415.00 Z M 375.41 381.73 C 377.61 380.48 380.15 377.89 381.22 375.83 C 382.83 372.71 382.95 371.53 382.02 368.08 C 379.04 357.00 354.26 340.41 330.31 333.47 C 316.87 329.58 308.70 330.32 301.72 336.08 C 290.71 345.16 291.71 359.15 304.31 372.26 C 307.18 375.25 312.00 379.11 315.02 380.84 L 320.50 383.98 L 346.00 383.97 C 370.55 383.97 371.65 383.88 375.41 381.73 Z M 707.93 381.81 C 714.24 378.78 724.47 368.34 727.50 361.84 C 730.17 356.09 730.74 349.10 728.94 344.32 C 726.25 337.20 716.27 331.03 707.44 331.01 C 689.45 330.98 656.86 347.67 645.29 362.84 C 641.02 368.44 640.83 373.45 644.70 378.06 C 649.39 383.62 651.07 383.92 678.43 383.96 C 702.08 384.00 703.61 383.89 707.93 381.81 Z" stroke-linecap="round"/>
</g>
</g>
</g>

  </svg>