<svg xmlns="http://www.w3.org/2000/svg" xmlns:xlink="http://www.w3.org/1999/xlink" width="500px" height="434px" viewBox="0 0 499.9999999999998 434.25338715138554">
    <g id="4f901b8f-ca8f-47dc-b4af-ebb6e8645188">
<g style="">
		<g id="4f901b8f-ca8f-47dc-b4af-ebb6e8645188-child-0">
<path style="stroke: rgb(193,193,193); stroke-width: 0; stroke-dasharray: none; stroke-linecap: butt; stroke-dashoffset: 0; stroke-linejoin: miter; stroke-miterlimit: 4; fill: rgb(0,0,0); fill-rule: nonzero; opacity: 1;" transform="matrix(0.867707 0 0 0.867707 249.999916 217.12662) matrix(1 0 0 1 0 0)  translate(-511.705591, -511.769657)" d="M 302.01 759.73 C 296.95 757.05 294.00 752.21 294.00 746.60 C 294.00 744.44 297.91 729.69 302.69 713.81 L 311.39 684.95 L 302.18 647.22 C 279.95 556.17 265.59 497.81 245.30 416.00 C 226.11 338.68 223.59 327.57 223.59 320.50 C 223.59 300.44 233.21 282.03 249.29 271.27 C 259.91 264.17 268.90 261.49 282.00 261.54 C 299.85 261.60 313.52 267.45 325.50 280.15 C 337.12 292.46 330.46 268.59 400.26 548.00 L 408.62 581.50 L 581.06 582.00 L 753.50 582.50 L 760.24 585.12 C 780.97 593.19 794.20 608.33 798.61 629.04 C 805.68 662.26 780.98 694.74 745.85 698.44 L 739.20 699.14 L 740.19 702.82 C 740.73 704.84 743.61 714.63 746.59 724.57 C 749.56 734.51 752.00 744.58 752.00 746.95 C 752.00 752.54 748.93 757.49 743.84 760.08 C 740.14 761.97 738.32 762.08 716.11 761.80 L 692.34 761.50 L 688.71 758.73 C 684.74 755.70 685.36 757.33 673.42 718.65 C 668.40 702.41 667.27 699.67 665.22 698.90 C 663.84 698.37 603.43 698.10 520.70 698.25 L 378.54 698.50 L 369.52 726.68 C 364.26 743.11 359.67 755.77 358.50 757.04 C 354.21 761.70 352.40 762.00 328.71 762.00 C 307.34 762.00 306.12 761.90 302.01 759.73 Z M 345.03 721.75 C 347.84 712.81 350.55 704.19 351.07 702.59 C 351.59 700.99 351.75 699.41 351.42 699.09 C 351.10 698.76 346.97 698.50 342.24 698.50 L 333.64 698.50 L 328.36 715.50 C 325.46 724.85 322.80 733.74 322.46 735.25 L 321.84 738.00 L 330.89 738.00 L 339.94 738.00 L 345.03 721.75 Z M 719.31 720.25 C 711.67 695.30 713.64 698.00 703.08 698.00 C 698.15 698.00 693.93 698.34 693.71 698.75 C 693.48 699.16 696.02 708.16 699.34 718.75 L 705.40 738.00 L 715.07 738.00 L 724.75 738.00 L 719.31 720.25 Z M 755.12 670.86 C 758.21 669.42 762.59 666.55 764.86 664.51 C 769.62 660.21 774.62 650.56 775.55 643.89 C 776.33 638.23 774.04 628.61 770.62 623.19 C 767.02 617.49 759.52 611.34 753.36 609.03 C 747.97 607.02 746.46 607.00 568.59 607.00 L 389.25 607.00 L 352.08 458.25 C 331.63 376.44 313.93 307.48 312.74 305.00 C 309.92 299.11 302.76 292.05 296.50 288.98 C 292.27 286.91 290.04 286.53 282.00 286.52 C 273.53 286.51 271.92 286.81 267.22 289.29 C 260.28 292.94 254.92 298.41 251.55 305.30 C 246.14 316.36 245.78 314.14 266.49 397.50 C 285.75 475.06 293.06 504.70 319.14 611.25 L 334.50 674.01 L 542.00 673.75 L 749.50 673.50 L 755.12 670.86 Z M 436.42 556.58 C 431.47 554.43 429.00 550.49 429.00 544.77 C 429.00 540.45 429.45 539.35 432.40 536.40 C 434.64 534.16 436.77 532.99 438.65 532.97 C 440.22 532.95 469.89 532.90 504.59 532.86 C 560.97 532.79 568.02 532.96 570.82 534.41 C 579.48 538.88 578.66 552.74 569.51 556.56 C 564.58 558.62 441.14 558.64 436.42 556.58 Z" stroke-linecap="round"/>
</g>
</g>
</g>

  </svg>