<svg xmlns="http://www.w3.org/2000/svg" xmlns:xlink="http://www.w3.org/1999/xlink" width="541px" height="366px" viewBox="0 0 541.016406562625 365.94663425746376">
    <g id="61df3f05-17c8-49b8-b4aa-63749db0749a">
<g style="">
		<g id="61df3f05-17c8-49b8-b4aa-63749db0749a-child-0">
<path style="stroke: rgb(193,193,193); stroke-width: 0; stroke-dasharray: none; stroke-linecap: butt; stroke-dashoffset: 0; stroke-linejoin: miter; stroke-miterlimit: 4; fill: rgb(0,0,0); fill-rule: nonzero; opacity: 1;" transform="matrix(0.815126 0 0 0.815126 270.508148 182.97328) matrix(1 0 0 1 0 0)  translate(-512.012329, -512.489373)" d="M 268.50 736.10 C 263.70 734.89 261.03 733.10 258.95 729.69 C 257.16 726.75 257.00 724.42 256.96 699.50 L 256.90 672.50 L 251.34 669.00 C 243.12 663.83 232.04 651.56 227.23 642.33 C 219.72 627.90 219.00 623.07 219.00 587.46 L 219.00 556.30 L 211.52 552.61 C 202.67 548.23 192.96 539.17 188.18 530.82 C 178.21 513.39 177.51 494.35 186.17 476.10 C 190.64 466.68 202.91 454.58 213.00 449.64 C 228.05 442.28 244.40 441.23 261.14 446.54 C 262.89 447.10 263.00 446.34 263.00 433.70 C 263.00 412.82 267.31 398.28 278.45 381.53 C 284.46 372.50 296.42 360.53 305.31 354.66 C 313.04 349.54 323.94 344.59 333.60 341.79 L 341.50 339.50 L 512.00 339.50 L 682.50 339.50 L 691.28 342.25 C 707.42 347.32 720.93 355.03 731.87 365.44 C 751.90 384.50 761.25 406.18 761.12 433.25 C 761.09 440.26 761.39 446.00 761.78 446.00 C 762.18 446.00 765.65 445.33 769.50 444.52 C 783.66 441.52 797.49 443.22 810.81 449.61 C 816.76 452.45 820.32 455.12 826.52 461.39 C 835.69 470.66 839.21 476.61 842.02 487.59 C 845.47 501.05 844.12 513.63 837.82 526.91 C 833.54 535.93 821.06 548.43 811.80 552.95 L 805.11 556.22 L 805.03 586.55 C 804.96 613.43 804.73 617.75 802.95 624.68 C 798.11 643.63 786.55 660.15 771.48 669.67 L 767.00 672.50 L 767.00 699.00 C 767.00 728.75 766.63 730.61 760.00 734.47 C 756.86 736.29 754.44 736.53 736.50 736.83 C 709.79 737.27 706.60 736.83 701.78 732.02 L 698.00 728.24 L 698.00 705.62 L 698.00 683.00 L 512.00 683.00 L 326.00 683.00 L 326.00 705.10 C 326.00 737.38 326.97 736.42 294.00 736.68 C 281.62 736.78 270.15 736.52 268.50 736.10 Z M 301.78 697.25 L 302.05 683.00 L 292.03 683.00 L 282.00 683.00 L 282.00 697.54 L 282.00 712.07 L 291.75 711.79 L 301.50 711.50 L 301.78 697.25 Z M 742.81 697.25 L 743.12 683.00 L 732.56 683.00 L 722.00 683.00 L 722.00 696.83 C 722.00 704.44 722.32 710.98 722.70 711.37 C 723.09 711.75 727.70 711.94 732.95 711.78 L 742.50 711.50 L 742.81 697.25 Z M 740.20 656.90 C 757.16 653.37 772.76 639.06 778.00 622.21 C 779.78 616.49 779.97 612.75 780.02 581.21 C 780.05 560.35 780.49 544.93 781.13 542.57 C 782.57 537.16 786.91 533.40 793.27 532.04 C 809.16 528.65 818.26 517.76 818.41 501.96 C 818.47 495.38 818.07 493.58 815.21 487.77 C 809.61 476.41 799.29 469.53 785.93 468.28 C 765.84 466.39 745.33 482.04 740.14 503.22 C 739.40 506.27 738.96 519.68 738.91 541.22 C 738.87 559.52 738.39 576.62 737.85 579.21 C 736.71 584.59 732.19 589.31 726.78 590.78 C 724.90 591.29 632.51 591.53 510.08 591.34 C 304.85 591.03 296.52 590.95 293.08 589.17 C 291.10 588.15 288.50 585.57 287.27 583.41 C 285.07 579.56 285.03 578.91 285.02 543.36 C 285.00 502.24 284.62 499.64 276.91 488.10 C 259.10 461.43 220.10 461.81 207.69 488.78 C 204.40 495.93 204.68 507.58 208.33 515.16 C 212.49 523.79 222.85 531.91 229.79 531.98 C 233.55 532.01 239.36 535.58 241.50 539.15 C 243.40 542.33 243.50 544.32 243.54 579.00 C 243.58 618.71 243.67 619.49 249.75 631.49 C 253.18 638.27 264.14 648.88 271.21 652.28 C 283.61 658.24 267.70 657.86 511.20 657.93 C 670.47 657.98 736.43 657.68 740.20 656.90 Z M 713.78 552.75 L 714.06 539.00 L 512.03 539.00 L 310.00 539.00 L 310.00 553.00 L 310.00 567.00 L 511.75 566.75 L 713.50 566.50 L 713.78 552.75 Z M 713.73 509.00 C 714.66 494.82 721.51 478.19 730.55 468.21 L 736.00 462.19 L 736.00 442.32 C 736.00 425.31 735.70 421.39 733.93 415.00 C 730.68 403.25 725.56 394.57 716.50 385.46 C 706.96 375.86 695.07 369.19 681.87 366.02 C 673.67 364.05 670.22 364.01 511.50 364.02 C 329.79 364.04 342.52 363.52 326.00 371.62 C 318.05 375.51 315.10 377.69 307.90 384.93 C 301.08 391.80 298.44 395.34 295.16 402.05 C 288.79 415.06 288.00 419.48 288.00 442.30 L 288.00 462.18 L 293.07 467.84 C 302.27 478.12 309.93 497.11 309.98 509.75 L 310.00 514.00 L 511.72 513.75 L 713.44 513.50 L 713.73 509.00 Z M 371.45 311.46 C 367.45 309.47 365.00 305.17 365.00 300.11 C 365.00 294.82 368.89 290.27 374.50 288.97 C 380.19 287.66 568.45 287.72 573.19 289.03 C 578.52 290.52 582.00 295.07 582.00 300.59 C 582.00 304.25 581.40 305.69 578.58 308.76 L 575.15 312.50 L 474.83 312.73 C 386.94 312.94 374.12 312.78 371.45 311.46 Z M 608.89 311.50 C 600.76 307.08 600.66 295.55 608.72 290.26 C 610.94 288.81 614.19 288.44 627.36 288.16 C 636.13 287.97 645.25 288.11 647.63 288.47 C 659.18 290.20 662.58 305.01 652.81 310.97 C 649.79 312.82 647.83 312.99 630.50 312.96 C 616.06 312.93 610.88 312.58 608.89 311.50 Z" stroke-linecap="round"/>
</g>
</g>
</g>

  </svg>