<svg xmlns="http://www.w3.org/2000/svg" xmlns:xlink="http://www.w3.org/1999/xlink" width="3467px" height="2106px" viewBox="0 0 3466.666666666666 2105.4202550404007">
    <g id="567631d7-057a-4f5b-a542-ec1ef4c42fbb">
<g style="">
		<g id="567631d7-057a-4f5b-a542-ec1ef4c42fbb-child-0">
<path style="stroke: rgb(193,193,193); stroke-width: 0; stroke-dasharray: none; stroke-linecap: butt; stroke-dashoffset: 0; stroke-linejoin: miter; stroke-miterlimit: 4; fill: rgb(0,0,0); fill-rule: nonzero; opacity: 1;" transform="matrix(4.691317 0 0 4.691317 1733.333323 1052.710121) matrix(1 0 0 1 0 0)  translate(-511.523087, -521.501535)" d="M 249.01 744.68 C 243.78 743.02 237.56 736.28 236.18 730.78 C 234.14 722.69 232.77 726.10 263.39 663.08 C 274.72 639.75 284.00 620.09 284.00 619.38 C 284.00 617.82 265.48 578.72 208.51 460.00 C 201.78 445.98 188.83 418.98 179.74 400.00 C 170.65 381.02 158.44 355.61 152.61 343.52 C 141.08 319.62 140.42 317.07 143.89 309.43 C 146.41 303.90 152.24 299.30 158.44 297.97 C 161.99 297.21 206.75 296.98 308.00 297.19 L 452.50 297.50 L 456.69 299.74 C 459.00 300.97 461.97 303.45 463.29 305.24 C 464.62 307.03 472.36 322.45 480.49 339.50 C 488.63 356.55 497.47 374.89 500.15 380.25 L 505.02 390.00 L 511.85 390.00 L 518.67 390.00 L 533.95 358.75 C 542.35 341.56 551.29 322.83 553.81 317.13 C 558.47 306.60 561.71 302.31 567.36 299.22 C 570.28 297.62 580.55 297.48 715.00 297.19 C 821.41 296.96 860.91 297.19 864.85 298.04 C 868.55 298.83 871.43 300.29 874.17 302.77 C 879.50 307.59 881.00 310.84 881.00 317.58 C 881.00 322.92 879.77 325.80 859.61 367.38 C 837.52 412.95 825.57 437.73 793.48 504.50 C 757.96 578.40 739.00 618.23 739.00 618.95 C 739.00 619.34 749.79 642.00 762.98 669.30 C 776.17 696.59 787.24 720.65 787.58 722.76 C 788.91 731.10 783.63 740.44 775.51 744.14 C 771.66 745.88 760.96 745.95 512.00 745.88 C 324.63 745.82 251.53 745.49 249.01 744.68 Z M 332.22 720.92 C 374.71 697.24 419.36 682.64 468.50 676.36 C 485.74 674.15 533.47 673.82 550.50 675.80 C 596.27 681.10 635.43 692.72 676.41 713.18 C 683.06 716.50 691.20 720.85 694.50 722.86 L 700.50 726.50 L 732.73 726.81 C 750.45 726.98 765.63 726.74 766.47 726.28 C 768.05 725.40 768.86 727.20 737.45 662.25 C 732.34 651.66 727.93 643.00 727.67 643.00 C 727.41 643.00 725.80 645.46 724.10 648.48 C 721.76 652.62 719.73 654.69 715.75 656.97 L 710.50 659.98 L 512.22 659.99 C 293.21 660.00 310.27 660.51 303.16 653.70 C 301.33 651.94 298.93 648.76 297.83 646.63 C 296.73 644.50 295.49 643.15 295.06 643.63 C 294.00 644.80 256.00 724.02 256.00 725.04 C 256.00 726.58 259.59 726.77 290.41 726.88 L 321.31 727.00 L 332.22 720.92 Z M 653.00 726.16 L 657.50 725.47 L 645.00 720.34 C 613.25 707.31 575.95 698.18 541.50 695.01 C 527.28 693.71 495.69 693.72 481.00 695.04 C 447.66 698.04 414.13 706.19 381.00 719.34 L 365.50 725.50 L 371.50 726.08 C 380.10 726.92 647.60 726.99 653.00 726.16 Z M 374.74 640.11 L 394.98 639.50 L 384.24 617.48 C 378.33 605.37 367.45 582.76 360.05 567.23 C 352.64 551.71 346.24 539.36 345.82 539.78 C 344.84 540.76 330.36 570.16 317.02 598.24 L 306.69 619.97 L 310.01 627.24 C 314.29 636.58 315.89 639.01 318.43 640.04 C 320.78 640.98 344.80 641.02 374.74 640.11 Z M 498.61 639.72 C 499.03 639.30 475.42 589.70 464.48 568.00 L 458.69 556.50 L 446.73 581.00 C 440.15 594.47 431.03 613.24 426.47 622.71 L 418.16 639.91 L 424.83 640.21 C 434.48 640.63 498.12 640.21 498.61 639.72 Z M 604.43 640.11 C 604.94 639.29 566.92 559.52 565.20 557.80 C 564.17 556.77 524.61 638.56 525.46 639.93 C 526.28 641.26 603.61 641.44 604.43 640.11 Z M 706.77 639.23 C 707.74 638.26 710.45 633.78 712.79 629.29 L 717.05 621.11 L 707.62 601.30 C 682.75 549.03 677.95 539.65 676.71 540.87 C 676.05 541.52 664.89 563.98 651.93 590.78 L 628.36 639.50 L 631.93 640.11 C 633.89 640.44 651.14 640.78 670.25 640.86 C 702.26 640.99 705.14 640.86 706.77 639.23 Z M 533.32 576.02 L 554.03 533.04 L 533.26 490.42 C 521.84 466.98 512.10 447.82 511.62 447.84 C 511.13 447.86 506.25 457.24 500.78 468.69 C 495.30 480.13 486.13 499.12 480.41 510.89 C 474.68 522.65 470.00 532.68 470.00 533.17 C 470.00 534.61 511.26 619.00 511.97 619.00 C 512.32 619.00 521.93 599.66 533.32 576.02 Z M 409.80 612.25 C 410.93 609.64 419.76 591.14 429.43 571.14 C 439.09 551.15 447.00 534.02 447.00 533.08 C 447.00 530.91 400.15 433.76 398.12 431.73 C 397.70 431.30 388.23 449.70 377.08 472.60 L 356.81 514.26 L 363.57 528.38 C 367.28 536.15 377.28 556.90 385.79 574.50 C 394.30 592.10 402.32 608.86 403.61 611.75 C 404.91 614.64 406.38 617.00 406.86 617.00 C 407.35 617.00 408.68 614.86 409.80 612.25 Z M 625.69 599.75 C 630.17 590.26 641.08 567.51 649.92 549.19 C 658.76 530.87 666.00 515.44 666.00 514.89 C 666.00 513.79 655.07 490.60 637.56 454.58 C 630.58 440.22 625.58 431.03 625.03 431.58 C 624.23 432.39 608.12 465.50 583.83 516.23 L 575.82 532.96 L 592.50 567.23 C 601.68 586.08 610.78 604.99 612.73 609.25 C 614.68 613.51 616.56 617.00 616.91 617.00 C 617.26 617.00 621.21 609.24 625.69 599.75 Z M 752.90 543.50 C 761.39 525.53 783.19 480.14 799.72 446.00 C 803.85 437.48 811.63 421.27 817.00 410.00 C 825.62 391.93 855.48 329.96 859.76 321.26 C 860.64 319.48 861.01 317.68 860.59 317.26 C 859.74 316.42 785.19 316.76 783.81 317.62 C 783.33 317.92 779.64 324.99 775.60 333.33 C 759.21 367.26 728.10 431.88 718.00 453.00 C 712.07 465.38 703.13 483.99 698.11 494.36 C 693.10 504.74 689.00 513.89 689.00 514.70 C 689.00 515.98 697.25 533.65 721.81 585.00 L 727.31 596.50 L 735.62 579.50 C 740.19 570.15 747.97 553.95 752.90 543.50 Z M 302.26 583.25 C 305.32 576.79 313.98 558.74 321.50 543.14 L 335.18 514.77 L 330.94 505.64 C 328.61 500.61 319.64 481.88 311.02 464.00 C 302.40 446.12 283.03 405.93 267.98 374.68 C 252.93 343.43 239.92 317.54 239.06 317.15 C 238.20 316.76 220.55 316.60 199.83 316.80 L 162.16 317.17 L 168.45 330.33 C 181.14 356.87 221.82 441.78 244.23 488.50 C 256.90 514.90 271.87 546.17 277.51 558.00 C 293.93 592.48 295.18 595.00 295.96 595.00 C 296.37 595.00 299.20 589.71 302.26 583.25 Z M 462.29 503.25 C 463.70 500.09 472.74 481.22 482.39 461.32 L 499.94 425.15 L 496.98 418.61 C 495.35 415.02 493.14 411.61 492.07 411.04 C 489.94 409.90 417.16 409.72 413.25 410.85 C 411.10 411.47 411.96 413.47 433.08 457.00 C 445.22 482.02 455.88 503.96 456.76 505.75 C 457.65 507.54 458.68 509.00 459.05 509.00 C 459.43 509.00 460.89 506.41 462.29 503.25 Z M 574.13 490.75 C 589.28 460.49 612.11 411.78 611.45 411.12 C 610.69 410.35 535.47 409.67 532.54 410.40 C 531.13 410.76 529.29 413.27 527.03 417.93 L 523.64 424.94 L 535.70 449.72 C 542.33 463.35 551.48 482.26 556.04 491.75 C 560.59 501.24 564.47 509.00 564.65 509.00 C 564.84 509.00 569.10 500.79 574.13 490.75 Z M 355.82 471.50 C 360.24 462.15 369.02 443.77 375.33 430.66 L 386.80 406.81 L 383.51 399.66 C 381.70 395.72 371.88 375.53 361.69 354.79 C 345.93 322.69 342.80 316.99 340.69 316.46 C 338.90 316.01 263.58 316.47 262.33 316.94 C 262.24 316.97 271.85 336.91 283.68 361.25 C 295.51 385.59 312.36 420.50 321.13 438.84 C 342.58 483.69 346.01 490.40 346.97 489.38 C 347.42 488.89 351.40 480.85 355.82 471.50 Z M 698.04 448.50 C 708.62 426.50 727.11 388.07 739.14 363.09 C 751.17 338.12 760.82 317.49 760.59 317.25 C 760.35 317.01 742.28 316.79 720.44 316.76 L 680.73 316.70 L 678.89 319.10 C 677.87 320.42 677.03 321.78 677.02 322.11 C 677.01 322.45 668.51 340.25 658.14 361.66 C 647.76 383.08 638.73 402.15 638.07 404.05 C 636.89 407.42 637.32 408.45 655.90 447.00 C 677.29 491.38 676.86 490.56 677.99 489.37 C 678.45 488.89 687.47 470.50 698.04 448.50 Z M 481.30 390.44 C 482.43 390.00 478.99 382.10 466.09 355.56 C 456.91 336.69 448.70 320.18 447.83 318.87 L 446.26 316.50 L 406.96 316.22 C 385.07 316.06 367.28 316.32 366.78 316.82 C 365.44 318.16 400.01 389.03 402.50 390.05 C 404.72 390.96 478.98 391.33 481.30 390.44 Z M 617.52 390.38 L 622.55 389.78 L 640.13 353.46 C 657.27 318.08 657.66 317.13 655.34 316.55 C 652.77 315.91 583.59 316.11 579.06 316.78 C 576.96 317.09 575.77 318.28 574.01 321.84 C 560.91 348.31 541.32 389.99 541.77 390.44 C 542.53 391.19 611.16 391.14 617.52 390.38 Z" stroke-linecap="round"/>
</g>
</g>
</g>

  </svg>