<svg xmlns="http://www.w3.org/2000/svg" xmlns:xlink="http://www.w3.org/1999/xlink" width="1045px" height="2056px" viewBox="0 0 1045.4212206408092 2057.1207630413555">
    <g id="7a5fd800-c319-4997-a59e-56cc3c8efbba">
<g style="">
		<g id="7a5fd800-c319-4997-a59e-56cc3c8efbba-child-0">
<path style="stroke: rgb(193,193,193); stroke-width: 0; stroke-dasharray: none; stroke-linecap: butt; stroke-dashoffset: 0; stroke-linejoin: miter; stroke-miterlimit: 4; fill: rgb(0,0,0); fill-rule: nonzero; opacity: 1;" transform="matrix(3.269001 0 0 3.269001 522.710646 1028.560452) matrix(1 0 0 1 0 0)  translate(-511.995924, -512.350605)" d="M 449.88 825.67 C 441.07 822.40 432.54 814.55 428.76 806.22 C 425.84 799.79 425.98 788.49 429.33 761.00 C 432.03 738.84 441.33 657.79 450.04 580.52 C 452.77 556.32 455.00 534.40 455.00 531.79 C 455.00 529.19 453.21 513.88 451.02 497.78 C 448.83 481.68 445.61 458.04 443.87 445.25 L 440.71 422.00 L 431.35 422.00 L 422.00 422.00 L 422.00 474.82 C 422.00 532.80 421.97 533.18 415.95 542.26 C 402.74 562.20 372.01 562.41 358.61 542.65 C 351.74 532.51 351.90 534.77 352.21 450.82 L 352.50 375.39 L 356.27 367.76 C 360.59 359.02 366.20 353.47 374.88 349.36 C 379.39 347.22 382.54 346.58 390.82 346.10 L 401.15 345.50 L 403.14 339.58 C 407.92 325.41 419.96 314.66 434.05 311.99 C 436.92 311.45 450.57 310.98 464.39 310.96 C 486.14 310.93 489.10 310.74 486.50 309.59 C 481.14 307.22 471.22 299.22 466.97 293.85 C 461.78 287.28 457.42 278.72 455.49 271.30 C 453.63 264.15 453.58 248.17 455.40 241.34 C 462.37 215.14 484.98 197.71 512.00 197.71 C 549.38 197.71 577.33 231.73 569.63 267.87 C 566.24 283.79 554.64 299.96 541.00 307.80 L 535.50 310.96 L 561.04 310.98 C 588.60 311.00 594.55 311.79 602.56 316.48 C 611.44 321.69 619.22 331.70 621.56 340.93 L 622.71 345.50 L 633.22 346.04 C 642.39 346.52 644.54 346.99 650.21 349.78 C 658.05 353.64 665.10 360.83 668.82 368.78 L 671.50 374.50 L 671.78 450.89 C 672.09 535.29 672.24 532.93 665.76 542.61 C 658.77 553.05 643.89 559.45 631.83 557.21 C 619.97 555.00 611.67 549.02 606.28 538.78 L 603.50 533.50 L 603.22 477.75 L 602.94 422.00 L 593.59 422.00 L 584.25 422.00 L 583.72 424.75 C 583.43 426.26 579.94 451.00 575.95 479.73 L 568.70 531.96 L 573.88 576.73 C 587.03 690.23 597.20 783.29 597.34 791.51 C 597.49 799.84 597.25 801.03 594.22 807.20 C 590.21 815.35 583.08 822.08 575.41 824.95 C 568.75 827.44 557.38 827.69 550.93 825.49 C 541.36 822.23 531.64 811.80 529.01 802.00 C 528.25 799.18 519.11 720.24 513.83 671.00 C 513.22 665.22 512.33 660.07 511.86 659.55 C 511.34 658.98 511.00 659.24 511.00 660.21 C 511.00 662.52 502.49 742.72 498.94 773.78 C 495.42 804.70 494.19 808.96 486.60 816.51 C 479.09 823.98 473.47 826.36 462.50 826.71 C 456.75 826.90 452.19 826.52 449.88 825.67 Z M 469.05 804.75 C 475.60 800.33 475.68 799.96 481.07 750.82 C 497.06 605.01 496.18 612.06 498.97 607.55 C 501.22 603.90 508.04 599.99 512.07 600.02 C 518.00 600.08 525.19 605.38 527.32 611.28 C 527.67 612.26 530.21 633.41 532.95 658.28 C 543.25 751.59 548.12 793.61 549.04 797.07 C 550.63 803.11 556.18 807.00 563.18 806.99 C 568.08 806.99 572.27 804.65 575.10 800.36 C 578.31 795.49 578.87 801.83 562.04 652.00 C 558.18 617.62 554.75 587.81 554.42 585.74 L 553.82 581.98 L 512.17 582.24 L 470.53 582.50 L 469.82 587.50 C 469.42 590.25 465.27 626.70 460.58 668.50 C 455.89 710.30 450.91 754.39 449.52 766.48 C 446.58 792.13 446.46 796.06 448.55 800.09 C 452.05 806.86 462.42 809.21 469.05 804.75 Z M 551.56 558.75 C 550.85 554.42 549.00 540.10 549.00 538.93 C 549.00 538.37 534.13 538.00 512.14 538.00 L 475.28 538.00 L 474.14 548.04 C 473.51 553.56 473.00 558.96 473.00 560.04 C 473.00 561.95 473.91 562.00 512.55 562.00 L 552.09 562.00 L 551.56 558.75 Z M 396.76 533.58 L 400.50 530.15 L 400.77 448.08 L 401.03 366.00 L 393.83 366.00 C 384.21 366.00 378.97 368.49 375.24 374.85 L 372.50 379.50 L 372.50 453.00 L 372.50 526.50 L 374.76 530.13 C 377.57 534.65 382.09 536.95 388.26 536.98 C 392.31 537.00 393.59 536.48 396.76 533.58 Z M 646.06 534.30 C 652.20 529.13 652.00 531.79 651.99 453.78 C 651.99 405.12 651.64 381.25 650.89 378.55 C 649.49 373.49 644.51 368.51 639.45 367.11 C 637.28 366.51 632.69 366.01 629.25 366.01 L 623.00 366.00 L 623.00 446.27 C 623.00 535.27 622.65 530.51 629.50 535.01 C 634.15 538.07 641.97 537.74 646.06 534.30 Z M 550.42 514.25 C 551.04 511.31 554.69 485.11 560.57 441.50 C 562.71 425.70 564.90 413.08 565.86 411.06 C 566.76 409.17 569.23 406.25 571.35 404.56 L 575.20 401.50 L 588.85 401.50 L 602.50 401.50 L 602.50 374.50 C 602.50 359.65 602.16 346.27 601.74 344.77 C 600.68 340.99 595.18 334.97 591.30 333.35 C 588.68 332.26 573.62 332.00 511.99 332.00 C 439.32 332.00 435.75 332.08 432.21 333.89 C 422.65 338.77 422.00 341.33 422.00 373.87 L 422.00 400.80 L 434.92 401.15 C 447.40 401.49 447.97 401.60 452.12 404.51 C 454.48 406.17 457.20 408.89 458.17 410.55 C 459.44 412.73 461.78 426.88 466.51 461.04 C 470.13 487.14 473.36 510.41 473.68 512.75 L 474.27 517.00 L 512.06 517.00 L 549.84 517.00 L 550.42 514.25 Z M 528.08 291.34 C 557.47 277.56 558.14 236.02 529.20 221.78 C 522.94 218.70 521.88 218.50 511.99 218.50 C 502.10 218.50 501.04 218.70 494.78 221.79 C 487.04 225.60 480.98 231.84 477.11 240.00 C 474.81 244.84 474.50 246.75 474.50 256.00 C 474.50 265.26 474.81 267.17 477.14 272.12 C 486.32 291.71 509.02 300.27 528.08 291.34 Z M 553.42 379.11 C 547.00 375.20 546.20 364.89 551.93 359.77 C 557.79 354.54 564.91 354.85 569.92 360.57 C 577.18 368.83 571.18 381.01 559.85 381.00 C 558.01 380.99 555.11 380.15 553.42 379.11 Z" stroke-linecap="round"/>
</g>
</g>
</g>

  </svg>