<svg xmlns="http://www.w3.org/2000/svg" xmlns:xlink="http://www.w3.org/1999/xlink" width="500px" height="273px" viewBox="0 0 499.9999999999999 272.9533946935153">
    <g id="cd5f7d8c-2738-43c7-b536-afdcf987e1bc">
<g style="">
		<g id="cd5f7d8c-2738-43c7-b536-afdcf987e1bc-child-0">
<path style="stroke: rgb(193,193,193); stroke-width: 0; stroke-dasharray: none; stroke-linecap: butt; stroke-dashoffset: 0; stroke-linejoin: miter; stroke-miterlimit: 4; fill: rgb(0,0,0); fill-rule: nonzero; opacity: 1;" transform="matrix(0.722218 0 0 0.722218 249.999955 136.476672) matrix(1 0 0 1 0 0)  translate(-512.231942, -512.281416)" d="M 233.87 699.50 C 227.00 697.29 219.92 692.12 216.26 686.65 C 210.04 677.35 210.00 676.92 210.00 620.29 C 210.00 572.27 209.89 568.90 208.25 568.35 C 207.29 568.02 202.81 566.01 198.29 563.87 C 183.52 556.87 171.75 542.50 167.59 526.36 C 165.59 518.63 165.57 505.44 167.54 497.10 C 172.30 476.90 188.87 460.28 209.51 455.00 C 216.45 453.22 220.61 453.00 246.71 453.00 L 276.10 453.00 L 271.67 446.75 C 261.12 431.87 256.86 418.85 256.88 401.50 C 256.91 372.72 271.71 347.33 296.55 333.44 C 316.52 322.27 339.48 320.41 362.50 328.11 C 373.31 331.72 378.76 334.68 403.39 350.28 C 434.58 370.03 443.34 373.78 460.59 374.72 C 479.86 375.77 493.24 370.77 523.00 351.40 C 554.13 331.13 564.91 326.25 583.75 323.89 C 608.89 320.75 635.31 330.57 653.04 349.62 C 655.54 352.30 663.61 362.97 670.97 373.33 C 684.80 392.77 689.09 397.39 696.92 401.25 C 701.39 403.44 702.52 403.51 742.50 404.04 C 786.81 404.62 786.49 404.58 796.55 410.48 C 809.32 417.96 816.35 434.34 812.72 448.16 L 811.24 453.82 L 815.87 454.99 C 822.73 456.72 832.96 462.43 839.28 468.06 C 846.80 474.76 852.44 483.51 855.57 493.34 C 864.43 521.08 851.82 550.96 825.83 563.84 C 821.21 566.13 816.65 568.00 815.71 568.00 C 814.12 568.00 814.00 571.57 814.00 619.89 C 814.00 669.05 813.89 672.13 811.99 678.30 C 808.16 690.68 797.11 699.41 783.67 700.67 C 771.08 701.84 786.59 711.16 583.41 580.36 L 567.31 570.00 L 511.85 570.00 L 456.39 570.00 L 411.95 598.64 C 387.50 614.40 358.95 632.76 348.50 639.45 C 338.05 646.14 314.13 661.61 295.33 673.82 C 276.54 686.04 259.09 696.96 256.55 698.08 C 250.46 700.77 239.89 701.43 233.87 699.50 Z M 787.01 677.95 C 787.84 677.53 789.42 676.19 790.51 674.98 C 792.42 672.86 792.50 671.30 792.50 634.64 C 792.50 613.66 792.32 590.54 792.10 583.25 L 791.69 570.00 L 781.34 570.00 L 771.00 570.00 L 771.00 621.78 C 771.00 678.93 770.79 677.04 777.29 678.87 C 780.48 679.77 784.13 679.42 787.01 677.95 Z M 250.37 676.93 L 253.00 674.85 L 253.00 622.43 L 253.00 570.00 L 242.50 570.00 L 232.00 570.00 L 232.00 621.58 L 232.00 673.15 L 234.92 676.08 C 237.37 678.52 238.66 679.00 242.79 679.00 C 246.27 679.00 248.51 678.39 250.37 676.93 Z M 297.00 646.98 C 306.08 641.15 327.00 627.66 343.50 617.01 C 360.00 606.36 382.27 592.04 393.00 585.20 C 403.73 578.35 413.39 572.13 414.47 571.37 C 416.15 570.20 405.96 570.00 345.72 570.00 L 275.00 570.00 L 275.00 615.61 L 275.00 661.23 L 277.75 659.42 C 279.26 658.42 287.92 652.82 297.00 646.98 Z M 748.67 570.34 C 748.48 570.14 716.80 570.10 678.28 570.24 L 608.24 570.50 L 626.37 582.15 C 636.34 588.56 661.83 605.00 683.00 618.68 C 704.17 632.36 727.58 647.42 735.00 652.14 L 748.50 660.74 L 748.76 615.71 C 748.90 590.95 748.86 570.53 748.67 570.34 Z M 813.50 545.92 C 821.40 542.96 829.91 534.83 833.51 526.79 C 838.66 515.33 837.89 502.17 831.49 492.00 C 828.55 487.33 821.21 480.68 815.85 477.82 L 811.50 475.50 L 512.00 475.50 L 212.50 475.50 L 208.07 477.86 C 200.96 481.65 193.58 489.33 190.37 496.28 C 187.88 501.67 187.50 503.70 187.50 511.50 C 187.50 519.32 187.88 521.32 190.40 526.78 C 194.03 534.64 202.68 542.97 210.22 545.87 C 215.48 547.89 216.54 547.90 511.71 547.95 L 807.92 548.00 L 813.50 545.92 Z M 786.91 449.59 C 794.56 442.25 792.93 432.06 783.32 427.12 C 781.81 426.35 769.04 426.00 742.28 426.00 C 699.00 426.00 697.08 425.78 684.85 419.35 C 676.28 414.85 667.24 405.91 657.84 392.63 C 637.49 363.87 631.89 357.82 619.78 351.45 C 603.96 343.14 583.21 342.97 565.38 351.00 C 562.02 352.51 551.22 358.91 541.38 365.20 C 531.55 371.50 520.80 378.25 517.50 380.21 C 496.29 392.81 477.99 397.93 458.60 396.70 C 438.79 395.44 423.46 388.98 390.49 367.99 C 378.96 360.66 366.37 353.21 362.51 351.44 C 333.57 338.18 303.34 346.11 286.93 371.28 C 276.28 387.61 275.23 409.34 284.27 426.39 C 290.05 437.28 302.86 447.65 315.45 451.60 C 318.69 452.62 366.11 452.84 551.68 452.69 L 783.87 452.50 L 786.91 449.59 Z" stroke-linecap="round"/>
</g>
</g>
</g>

  </svg>