<svg xmlns="http://www.w3.org/2000/svg" xmlns:xlink="http://www.w3.org/1999/xlink" width="500px" height="305px" viewBox="0 0 499.9999999999998 304.53562761381176">
    <g id="8b79674f-71f9-4295-a0ba-d06f781e17aa">
<g style="">
		<g id="8b79674f-71f9-4295-a0ba-d06f781e17aa-child-0">
<path style="stroke: rgb(193,193,193); stroke-width: 0; stroke-dasharray: none; stroke-linecap: butt; stroke-dashoffset: 0; stroke-linejoin: miter; stroke-miterlimit: 4; fill: rgb(0,0,0); fill-rule: nonzero; opacity: 1;" transform="matrix(0.893504 0 0 0.893504 249.999896 152.267751) matrix(1 0 0 1 0 0)  translate(-511.797176, -512.412899)" d="M 340.32 681.07 C 330.57 676.62 330.41 663.46 340.04 658.48 C 342.54 657.19 368.28 657.00 542.91 657.00 C 740.16 657.00 743.00 656.97 748.24 655.01 C 754.71 652.59 761.04 646.42 764.16 639.50 C 766.09 635.21 766.47 632.37 766.82 619.60 C 767.21 605.37 767.14 604.73 765.36 605.48 C 764.34 605.90 760.35 607.43 756.50 608.88 L 749.50 611.50 L 512.50 611.50 C 282.84 611.50 275.33 611.44 270.00 609.61 C 266.98 608.58 262.81 606.88 260.75 605.84 L 257.00 603.96 L 257.00 617.80 C 257.00 638.76 260.41 646.88 271.95 653.36 C 276.91 656.14 278.44 656.47 289.00 656.96 C 302.12 657.57 304.63 658.60 307.44 664.52 C 309.80 669.49 308.79 674.41 304.52 678.68 L 301.20 682.00 L 288.78 682.00 C 269.54 682.00 260.22 678.45 248.40 666.61 C 240.36 658.56 234.88 648.54 233.08 638.57 C 232.37 634.68 232.00 607.35 232.00 559.53 C 232.00 480.54 231.98 480.82 237.41 470.23 C 238.74 467.63 246.51 457.38 254.67 447.45 C 262.82 437.53 280.73 415.48 294.45 398.45 C 323.89 361.92 330.50 355.03 341.55 349.33 C 356.54 341.60 349.39 342.00 472.56 342.00 C 579.84 342.01 582.58 342.05 585.70 343.96 C 593.08 348.46 593.97 357.89 587.58 363.75 L 584.03 367.00 L 475.10 367.00 C 370.00 367.00 365.96 367.07 359.93 368.95 C 351.40 371.60 344.10 376.89 337.97 384.83 C 335.15 388.50 316.11 412.10 295.67 437.28 C 275.23 462.46 258.10 484.25 257.61 485.71 C 256.83 488.01 257.18 488.78 260.27 491.61 C 267.76 498.48 249.03 498.00 512.00 498.00 C 774.09 498.00 755.66 498.46 763.45 491.73 C 766.51 489.08 767.13 487.98 766.57 486.21 C 766.18 484.98 756.78 472.79 745.68 459.11 C 734.58 445.44 716.72 423.30 706.00 409.92 C 680.31 377.87 678.29 375.74 669.14 371.23 L 661.63 367.52 L 642.57 367.00 C 628.57 366.62 622.93 366.10 621.37 365.07 C 615.67 361.31 614.21 352.28 618.48 347.21 C 622.71 342.18 624.96 341.78 646.68 342.21 C 665.01 342.58 667.01 342.80 673.24 345.18 C 681.58 348.35 689.50 353.10 696.09 358.86 C 698.86 361.28 716.26 381.99 734.75 404.88 C 753.25 427.77 771.92 450.77 776.24 456.00 C 785.48 467.18 789.60 475.05 790.88 484.00 C 791.40 487.65 791.70 522.67 791.56 564.00 C 791.29 645.78 791.62 641.66 784.30 654.86 C 777.86 666.49 766.38 675.78 752.30 680.77 C 747.85 682.34 732.64 682.48 546.00 682.72 C 349.56 682.97 344.39 682.93 340.32 681.07 Z M 752.59 583.31 C 754.85 582.10 758.17 579.44 759.97 577.38 C 765.98 570.53 766.32 568.82 766.80 542.60 C 767.22 519.57 767.17 518.72 765.37 519.44 C 764.34 519.84 760.12 521.04 755.98 522.10 C 748.65 523.98 742.47 524.02 508.98 523.76 L 269.50 523.50 L 264.00 521.25 C 260.98 520.01 258.13 519.00 257.69 519.00 C 257.24 519.00 257.01 529.91 257.19 543.25 C 257.48 565.88 257.64 567.77 259.66 571.50 C 262.85 577.40 268.18 582.02 274.18 584.10 C 279.30 585.87 288.53 585.93 514.00 585.72 L 748.50 585.50 L 752.59 583.31 Z M 334.27 487.52 C 328.39 484.96 325.18 476.27 328.11 470.80 C 328.71 469.67 333.18 463.46 338.02 457.02 C 347.50 444.43 350.39 442.29 356.38 443.41 C 362.69 444.60 368.00 450.67 368.00 456.70 C 367.99 460.19 366.11 463.29 356.48 475.67 C 346.37 488.68 342.13 490.94 334.27 487.52 Z M 447.87 487.32 C 444.21 485.05 442.00 480.89 442.00 476.29 C 442.00 470.15 445.82 450.92 447.57 448.25 C 451.27 442.61 460.22 441.79 465.90 446.57 C 470.90 450.78 471.38 454.08 468.99 468.03 C 467.84 474.77 466.24 481.56 465.44 483.13 C 462.60 488.61 453.46 490.79 447.87 487.32 Z M 563.20 487.33 C 558.65 485.09 557.17 481.68 554.86 468.17 C 552.59 454.88 552.91 451.41 556.76 447.74 C 564.17 440.67 574.15 442.41 577.43 451.33 C 579.21 456.19 582.20 472.00 582.20 476.57 C 582.20 486.29 572.38 491.85 563.20 487.33 Z M 677.61 486.91 C 675.15 484.97 661.60 468.72 657.69 463.03 C 654.03 457.67 656.70 448.98 663.24 444.99 C 670.13 440.79 675.06 442.84 683.18 453.25 C 697.38 471.46 697.00 470.83 697.00 475.97 C 697.00 486.14 685.14 492.83 677.61 486.91 Z M 372.45 423.59 C 364.73 420.23 361.89 411.98 366.08 405.10 C 370.13 398.46 383.12 381.97 385.56 380.37 C 391.26 376.63 400.97 380.69 404.04 388.10 C 406.12 393.13 404.43 397.15 394.95 409.64 C 383.69 424.49 379.90 426.84 372.45 423.59 Z M 640.41 423.43 C 636.82 421.66 620.27 400.42 618.98 395.94 C 616.42 386.99 626.64 377.08 635.45 379.98 C 638.10 380.86 641.15 383.98 648.69 393.57 C 654.08 400.42 658.82 407.25 659.22 408.74 C 661.23 416.24 654.23 425.04 646.32 424.98 C 644.77 424.96 642.11 424.27 640.41 423.43 Z M 459.76 422.43 C 456.39 420.61 454.00 416.18 454.01 411.80 C 454.02 405.85 457.83 386.19 459.45 383.72 C 463.94 376.87 476.69 377.62 480.48 384.97 C 481.32 386.58 482.00 389.73 482.00 391.96 C 482.00 398.20 479.08 414.95 477.43 418.13 C 474.63 423.55 465.79 425.70 459.76 422.43 Z M 549.22 421.53 C 545.69 418.56 544.95 416.35 542.50 401.27 C 540.56 389.41 541.26 385.64 546.14 381.53 C 548.38 379.65 550.30 379.00 553.63 379.00 C 563.37 379.00 565.62 382.34 568.53 401.14 C 570.02 410.74 570.12 413.31 569.09 415.79 C 566.96 420.92 563.59 423.29 557.71 423.77 C 553.07 424.16 552.01 423.88 549.22 421.53 Z" stroke-linecap="round"/>
</g>
</g>
</g>

  </svg>