<svg xmlns="http://www.w3.org/2000/svg" xmlns:xlink="http://www.w3.org/1999/xlink" width="500px" height="310px" viewBox="0 0 499.9999999999998 309.9487285748155">
    <g id="68ab3da4-d3e0-473c-b866-281254721c57">
<g style="">
		<g id="68ab3da4-d3e0-473c-b866-281254721c57-child-0">
<path style="stroke: rgb(193,193,193); stroke-width: 0; stroke-dasharray: none; stroke-linecap: butt; stroke-dashoffset: 0; stroke-linejoin: miter; stroke-miterlimit: 4; fill: rgb(0,0,0); fill-rule: nonzero; opacity: 1;" transform="matrix(0.863457 0 0 0.863457 250.000061 154.974402) matrix(1 0 0 1 0 0)  translate(-511.981129, -511.459518)" d="M 267.50 690.05 C 266.40 689.59 264.38 688.01 263.00 686.53 C 260.53 683.87 260.50 683.62 260.19 663.53 L 259.89 643.23 L 253.69 642.82 C 241.45 642.01 231.18 635.17 225.80 624.24 C 223.05 618.66 222.56 616.57 222.59 610.58 C 222.62 602.21 225.25 595.39 230.56 589.94 L 234.03 586.39 L 230.48 582.25 C 219.98 569.98 219.75 553.33 229.93 541.73 L 233.14 538.07 L 230.02 533.52 C 225.54 527.02 224.00 522.78 224.00 516.99 C 224.00 511.03 226.57 505.38 230.97 501.68 C 234.57 498.65 246.92 490.57 287.00 465.00 L 316.50 446.18 L 317.00 406.34 C 317.49 367.56 317.56 366.35 319.82 360.75 C 325.49 346.72 338.76 335.81 353.48 333.09 C 361.24 331.65 474.58 331.59 482.11 333.02 C 490.85 334.68 499.48 339.32 506.05 345.89 L 512.00 351.84 L 517.95 345.89 C 524.52 339.32 533.15 334.68 541.89 333.02 C 545.17 332.40 570.53 332.00 606.93 332.00 C 657.27 332.00 667.50 332.24 672.46 333.53 C 686.17 337.10 697.40 346.28 703.30 358.74 L 706.50 365.50 L 706.80 406.01 L 707.10 446.51 L 714.30 450.94 C 734.73 463.50 791.88 500.55 794.37 502.85 C 798.26 506.43 800.00 510.89 799.99 517.22 C 799.98 522.92 796.55 531.70 792.75 535.76 L 790.63 538.02 L 793.71 541.26 C 799.32 547.17 801.39 552.58 801.45 561.50 C 801.51 570.53 799.62 575.58 793.54 582.68 L 790.09 586.71 L 793.14 589.61 C 804.29 600.19 804.31 619.47 793.18 632.14 C 788.06 637.97 778.89 642.24 770.30 642.79 L 763.00 643.26 L 763.00 663.50 C 763.00 691.79 763.49 691.31 735.15 690.81 L 717.03 690.50 L 713.77 687.23 L 710.50 683.97 L 710.19 664.12 L 709.89 644.28 L 703.19 643.65 C 699.51 643.30 610.44 643.01 505.25 643.01 L 314.00 643.00 L 313.85 645.75 C 313.76 647.26 313.65 656.22 313.60 665.67 C 313.51 681.44 313.33 683.06 311.40 685.67 C 307.78 690.57 305.90 690.97 287.00 690.92 C 277.38 690.90 268.60 690.50 267.50 690.05 Z M 297.00 659.50 L 297.00 644.00 L 287.00 644.00 L 277.00 644.00 L 277.00 659.50 L 277.00 675.00 L 287.00 675.00 L 297.00 675.00 L 297.00 659.50 Z M 746.78 659.25 L 747.05 644.00 L 737.03 644.00 L 727.00 644.00 L 727.00 659.54 L 727.00 675.07 L 736.75 674.79 L 746.50 674.50 L 746.78 659.25 Z M 773.45 625.89 C 787.33 622.04 789.63 603.44 777.03 597.01 C 773.10 595.01 771.67 595.00 511.79 595.01 L 250.50 595.01 L 246.70 597.31 C 236.51 603.48 236.26 615.81 246.16 623.28 C 248.00 624.66 250.40 626.01 251.50 626.28 C 252.60 626.55 369.60 626.82 511.50 626.88 C 696.03 626.96 770.63 626.68 773.45 625.89 Z M 775.93 576.54 C 788.05 570.27 788.46 553.24 776.63 547.63 C 773.49 546.14 751.11 546.00 511.35 546.00 C 251.83 546.01 249.47 546.03 246.24 547.99 C 236.14 554.15 236.50 568.70 246.92 575.73 L 250.30 578.00 L 511.70 578.00 C 739.25 578.00 773.47 577.81 775.93 576.54 Z M 780.12 525.00 C 781.68 523.07 783.23 520.10 783.57 518.39 C 784.19 515.32 784.07 515.22 766.35 503.76 C 756.53 497.42 736.36 484.52 721.52 475.11 L 694.53 458.00 L 512.22 458.00 C 352.05 458.00 329.55 458.18 327.00 459.50 C 323.75 461.18 254.80 505.04 245.67 511.23 C 238.97 515.78 238.83 516.98 244.11 524.66 L 247.10 529.00 L 512.19 528.75 L 777.28 528.50 L 780.12 525.00 Z M 503.81 406.75 C 503.50 371.67 503.49 371.48 501.05 366.53 C 498.11 360.54 491.96 354.18 486.50 351.48 C 482.66 349.58 479.95 349.49 420.00 349.21 C 374.16 349.00 356.35 349.23 353.20 350.10 C 347.60 351.65 341.70 355.98 338.39 360.99 C 333.64 368.17 333.03 373.58 333.02 409.25 L 333.00 442.00 L 418.56 442.00 L 504.12 442.00 L 503.81 406.75 Z M 690.82 406.25 C 690.52 372.44 690.39 370.26 688.41 366.00 C 685.26 359.22 681.57 355.44 674.80 352.06 L 668.68 349.00 L 606.71 349.00 C 563.54 349.00 543.59 349.34 540.96 350.13 C 535.12 351.88 528.05 357.88 524.60 364.00 L 521.50 369.50 L 521.20 405.75 L 520.91 442.00 L 606.02 442.00 L 691.14 442.00 L 690.82 406.25 Z M 301.40 500.61 C 297.92 499.05 297.00 497.36 297.00 492.49 C 297.00 490.07 297.73 488.57 299.63 487.07 C 302.13 485.11 303.51 485.00 325.96 485.00 L 349.65 485.00 L 352.03 487.53 C 355.15 490.85 355.22 496.22 352.17 499.27 C 350.02 501.43 349.23 501.51 327.22 501.75 C 309.60 501.94 303.80 501.68 301.40 500.61 Z M 436.50 501.30 C 430.14 499.72 427.89 492.02 432.45 487.45 L 434.91 485.00 L 512.00 485.00 L 589.09 485.00 L 591.55 487.45 C 594.72 490.63 594.74 495.03 591.59 498.69 L 589.17 501.50 L 513.84 501.65 C 472.40 501.73 437.60 501.57 436.50 501.30 Z M 674.40 500.61 C 670.92 499.05 670.00 497.36 670.00 492.49 C 670.00 490.07 670.73 488.57 672.63 487.07 C 675.13 485.11 676.50 485.00 699.18 485.00 L 723.09 485.00 L 725.55 487.45 C 728.72 490.63 728.74 495.03 725.59 498.69 L 723.18 501.50 L 700.34 501.75 C 682.61 501.94 676.81 501.68 674.40 500.61 Z M 394.36 417.01 C 391.55 415.88 389.00 412.16 389.00 409.20 C 389.00 407.91 390.32 405.53 391.92 403.92 L 394.85 401.00 L 419.23 401.00 C 442.35 401.00 443.74 401.11 445.80 403.03 C 450.36 407.27 449.47 413.94 443.97 416.72 C 441.08 418.18 397.89 418.43 394.36 417.01 Z M 463.92 388.08 C 459.00 383.16 460.09 375.56 466.15 372.42 C 470.40 370.23 475.22 371.28 478.44 375.11 C 486.46 384.64 472.74 396.90 463.92 388.08 Z M 580.14 415.46 C 575.29 411.39 576.02 405.18 581.68 402.16 C 584.63 400.60 627.92 400.55 631.34 402.11 C 636.22 404.33 637.30 410.38 633.59 414.69 L 631.18 417.50 L 607.22 417.80 L 583.27 418.10 L 580.14 415.46 Z M 652.30 389.80 C 651.09 389.22 649.36 387.18 648.46 385.27 C 647.01 382.22 646.98 381.35 648.19 378.15 C 650.91 370.96 659.18 369.09 664.55 374.45 C 672.77 382.68 662.98 394.96 652.30 389.80 Z" stroke-linecap="round"/>
</g>
</g>
</g>

  </svg>