<svg xmlns="http://www.w3.org/2000/svg" xmlns:xlink="http://www.w3.org/1999/xlink" width="241px" height="500px" viewBox="0 0 241.12491717519833 500">
    <g id="9bda9458-d179-4bce-8610-16807d91773d">
<g style="">
		<g id="9bda9458-d179-4bce-8610-16807d91773d-child-0">
<path style="stroke: rgb(193,193,193); stroke-width: 0; stroke-dasharray: none; stroke-linecap: butt; stroke-dashoffset: 0; stroke-linejoin: miter; stroke-miterlimit: 4; fill: rgb(0,0,0); fill-rule: nonzero; opacity: 1;" transform="matrix(0.758207 0 0 0.758207 120.562496 250.000076) matrix(1 0 0 1 0 0)  translate(-511.99, -512.27464)" d="M 369.08 839.41 C 366.55 837.29 366.00 836.08 365.99 832.66 C 365.99 830.37 365.70 825.50 365.36 821.84 C 364.73 815.25 364.69 815.16 361.42 814.55 C 359.49 814.19 357.05 812.66 355.55 810.88 L 352.98 807.82 L 353.24 549.66 L 353.50 291.50 L 356.25 281.50 C 359.61 269.24 369.91 248.12 377.20 238.51 C 394.97 215.08 421.72 196.58 449.43 188.55 C 468.13 183.13 473.76 182.59 512.00 182.55 C 551.99 182.52 559.46 183.40 580.15 190.60 C 626.29 206.66 659.92 243.43 668.93 287.66 C 670.99 297.77 671.00 298.92 671.00 551.96 C 671.00 777.17 670.83 806.43 669.48 809.03 C 667.98 811.94 663.45 815.00 660.64 815.00 C 659.48 815.00 659.11 817.13 658.84 825.58 C 658.50 836.10 658.48 836.19 655.23 839.08 L 651.97 842.00 L 634.38 842.00 L 616.80 842.00 L 613.40 838.60 L 610.00 835.20 L 610.00 825.10 L 610.00 815.00 L 512.00 815.00 L 414.00 815.00 L 413.99 822.75 C 413.99 832.45 412.66 837.33 409.33 839.95 C 406.94 841.84 405.34 842.00 389.44 842.00 C 372.30 842.00 372.13 841.98 369.08 839.41 Z M 395.00 820.45 L 395.00 814.90 L 389.25 815.20 L 383.50 815.50 L 383.50 820.00 C 383.50 824.91 384.50 825.62 391.75 825.88 L 395.00 826.00 L 395.00 820.45 Z M 639.17 825.49 C 640.10 825.13 640.40 823.48 640.15 819.99 L 639.81 815.00 L 633.90 815.00 L 628.00 815.00 L 628.00 819.83 C 628.00 822.49 628.30 824.97 628.67 825.33 C 629.45 826.12 637.23 826.23 639.17 825.49 Z M 653.78 552.50 C 653.98 380.64 653.74 304.96 652.98 299.00 C 651.33 286.11 649.37 279.55 643.59 267.50 C 627.17 233.30 596.42 210.03 557.03 202.01 C 548.28 200.22 543.28 200.00 512.22 200.00 C 485.73 200.00 475.19 200.36 468.71 201.49 C 421.75 209.68 384.66 243.35 372.31 289.00 C 370.66 295.11 370.53 310.61 370.26 545.48 C 370.10 682.97 370.18 796.04 370.45 796.74 C 370.84 797.76 398.76 797.96 512.22 797.75 L 653.50 797.50 L 653.78 552.50 Z M 386.92 781.08 L 384.00 778.15 L 384.00 540.76 C 384.00 379.25 384.34 301.47 385.05 297.43 C 392.93 252.96 431.15 218.92 478.82 213.93 C 495.08 212.23 547.27 213.25 557.00 215.46 C 575.30 219.62 595.50 230.13 608.67 242.34 C 624.14 256.69 635.82 277.81 638.94 297.07 C 639.65 301.41 639.99 380.75 639.99 540.83 L 640.00 778.15 L 637.08 781.08 L 634.15 784.00 L 512.00 784.00 L 389.85 784.00 L 386.92 781.08 Z M 621.76 531.25 L 621.50 295.50 L 619.15 289.01 C 611.02 266.58 595.74 249.88 573.95 239.61 C 556.09 231.18 543.45 229.52 503.50 230.31 C 474.59 230.88 468.76 231.66 456.36 236.56 C 430.50 246.79 410.33 268.74 403.98 293.56 C 402.03 301.19 402.00 305.19 402.00 534.16 L 402.00 767.00 L 512.01 767.00 L 622.02 767.00 L 621.76 531.25 Z M 472.50 722.82 C 469.25 718.96 469.64 714.69 473.55 711.25 C 476.11 709.01 476.20 709.00 512.13 709.00 L 548.15 709.00 L 551.08 711.92 C 554.70 715.55 554.80 718.89 551.41 722.92 L 548.82 726.00 L 512.00 726.00 L 475.18 726.00 L 472.50 722.82 Z M 504.00 696.04 C 487.23 695.70 473.40 695.33 473.28 695.21 C 472.20 694.19 470.00 688.66 470.00 686.97 C 470.00 685.80 471.32 683.53 472.92 681.92 L 475.85 679.00 L 512.00 679.00 L 548.15 679.00 L 551.08 681.92 C 554.80 685.64 554.81 689.06 551.12 693.19 C 547.67 697.05 549.30 696.95 504.00 696.04 Z M 477.50 666.17 C 469.89 663.62 467.78 657.07 472.92 651.92 L 475.85 649.00 L 511.87 649.00 L 547.89 649.00 L 550.64 651.37 C 554.45 654.64 554.46 659.99 550.68 663.78 L 547.96 666.50 L 513.73 666.67 C 494.90 666.76 478.60 666.54 477.50 666.17 Z M 422.31 554.05 C 420.56 552.98 418.65 551.21 418.06 550.12 C 417.36 548.79 417.00 532.33 417.00 500.79 C 417.00 448.29 416.76 450.25 423.60 447.39 C 428.27 445.44 453.77 445.46 458.45 447.42 C 465.32 450.29 465.12 448.59 465.03 501.02 C 464.98 531.63 464.59 548.90 463.91 550.16 C 463.34 551.23 461.44 552.98 459.69 554.05 C 456.89 555.75 454.59 555.99 441.00 555.99 C 427.41 555.99 425.11 555.75 422.31 554.05 Z M 447.76 501.25 L 447.50 463.50 L 441.00 463.50 L 434.50 463.50 L 434.24 501.25 L 433.98 539.00 L 441.00 539.00 L 448.02 539.00 L 447.76 501.25 Z M 502.33 375.30 L 475.15 374.97 L 472.58 371.91 C 469.20 367.89 469.30 364.54 472.92 360.92 L 475.85 358.00 L 512.00 358.00 L 548.15 358.00 L 551.08 360.92 C 554.79 364.64 554.81 368.06 551.13 372.18 C 548.30 375.35 548.11 375.40 538.88 375.52 C 533.72 375.59 517.27 375.49 502.33 375.30 Z M 475.24 344.51 C 469.51 342.01 468.39 335.46 472.92 330.92 L 475.85 328.00 L 512.00 328.00 L 548.15 328.00 L 551.08 330.92 C 554.24 334.09 554.67 336.44 552.81 340.53 C 550.40 345.81 548.98 346.00 512.30 345.96 C 485.42 345.93 477.83 345.63 475.24 344.51 Z M 475.42 314.58 C 469.55 312.02 468.63 304.01 473.75 299.98 C 476.16 298.09 477.88 298.00 512.08 298.00 C 547.79 298.00 547.90 298.01 550.45 300.25 C 551.85 301.49 553.28 303.95 553.62 305.73 C 554.15 308.50 553.74 309.46 550.72 312.48 L 547.20 316.00 L 512.85 315.96 C 486.40 315.93 477.79 315.61 475.42 314.58 Z" stroke-linecap="round"/>
</g>
</g>
</g>

  </svg>