<svg xmlns="http://www.w3.org/2000/svg" xmlns:xlink="http://www.w3.org/1999/xlink" width="500px" height="338px" viewBox="0 0 500 338.0660484547902">
    <g id="0517b981-ca88-4309-aaa8-8ac1b5fc5464">
<g style="">
		<g id="0517b981-ca88-4309-aaa8-8ac1b5fc5464-child-0">
<path style="stroke: rgb(193,193,193); stroke-width: 0; stroke-dasharray: none; stroke-linecap: butt; stroke-dashoffset: 0; stroke-linejoin: miter; stroke-miterlimit: 4; fill: rgb(0,0,0); fill-rule: nonzero; opacity: 1;" transform="matrix(0.781538 0 0 0.781538 250 169.033024) matrix(1 0 0 1 0 0)  translate(-511.976135, -511.401296)" d="M 255.00 726.49 C 231.01 721.56 210.30 705.75 200.01 684.50 C 191.91 667.77 192.59 682.58 192.25 515.00 C 191.90 345.48 191.39 357.10 199.98 339.50 C 208.34 322.35 219.97 310.73 236.59 302.87 C 253.57 294.85 227.38 295.59 507.96 295.26 C 782.95 294.94 767.39 294.62 783.48 300.87 C 807.34 310.13 826.79 333.53 830.97 358.00 C 831.76 362.62 831.99 408.25 831.79 515.50 L 831.50 666.50 L 828.37 675.26 C 824.28 686.68 820.06 693.58 811.58 702.71 C 801.19 713.88 789.65 721.02 774.46 725.64 C 768.77 727.38 756.84 727.47 515.00 727.64 C 306.97 727.79 260.33 727.59 255.00 726.49 Z M 766.20 702.89 C 775.88 700.88 783.89 696.30 792.11 688.10 C 800.00 680.23 803.63 674.37 806.39 665.07 C 807.84 660.18 808.00 644.86 808.00 512.03 C 808.00 349.59 808.35 359.07 801.85 346.88 C 794.89 333.81 778.67 322.30 764.00 320.02 C 755.10 318.64 270.16 318.66 260.50 320.04 C 240.47 322.90 222.32 339.83 217.54 360.09 C 216.23 365.65 216.03 385.67 216.01 511.20 C 216.00 612.36 216.33 657.50 217.10 661.20 C 221.01 680.09 237.38 697.38 256.11 702.42 C 260.75 703.67 296.45 703.88 511.20 703.93 C 689.87 703.98 762.41 703.69 766.20 702.89 Z M 728.76 648.00 C 709.37 644.60 693.99 631.92 687.94 614.34 C 676.77 581.87 701.56 548.00 736.50 548.00 C 776.34 548.00 800.33 591.86 778.70 625.17 C 768.01 641.64 747.07 651.21 728.76 648.00 Z M 745.24 622.81 C 750.89 621.12 758.47 613.96 760.67 608.22 C 763.47 600.93 762.93 592.32 759.26 585.78 C 753.75 575.97 744.93 571.35 733.45 572.26 C 726.39 572.82 722.41 574.65 717.39 579.68 C 704.42 592.65 708.55 614.44 725.43 622.11 C 730.15 624.25 739.34 624.58 745.24 622.81 Z M 276.51 646.82 C 265.10 644.65 251.34 635.15 245.25 625.24 C 243.64 622.63 241.24 617.80 239.91 614.50 L 237.50 608.50 L 237.22 516.50 C 237.02 454.62 237.28 422.23 238.00 417.56 C 239.59 407.28 244.09 398.69 251.92 391.00 C 255.55 387.42 261.00 383.28 264.02 381.78 C 276.35 375.67 265.74 376.00 448.16 376.00 C 566.03 376.00 616.45 376.32 620.20 377.11 C 637.99 380.81 654.02 396.11 657.94 413.11 C 659.34 419.20 659.32 603.90 657.91 610.00 C 655.01 622.61 644.10 636.72 632.99 642.22 C 620.63 648.34 631.36 648.01 448.54 647.89 C 347.52 647.82 279.53 647.40 276.51 646.82 Z M 618.50 622.34 C 621.38 621.36 625.07 618.99 627.53 616.53 C 635.39 608.66 635.00 614.15 635.00 511.02 L 635.00 419.39 L 632.41 414.19 C 630.99 411.34 628.17 407.63 626.16 405.97 C 618.53 399.66 628.61 400.00 448.57 400.01 C 339.99 400.01 283.26 400.36 280.82 401.03 C 274.53 402.78 267.75 408.05 264.78 413.50 L 262.05 418.50 L 262.03 511.50 L 262.02 604.50 L 264.38 609.57 C 267.18 615.59 272.79 620.53 279.00 622.46 C 282.77 623.63 310.19 623.87 448.57 623.93 C 599.71 623.99 614.05 623.86 618.50 622.34 Z M 703.04 524.75 C 690.27 518.21 693.53 500.21 707.82 498.30 C 715.28 497.30 722.08 502.64 723.60 510.72 C 724.56 515.81 720.87 522.40 715.62 524.94 C 710.23 527.55 708.45 527.53 703.04 524.75 Z M 756.46 525.12 C 747.20 520.91 745.26 509.80 752.53 502.53 C 758.69 496.37 768.00 496.82 773.91 503.55 C 779.74 510.19 777.36 520.71 769.02 525.15 C 764.66 527.46 761.60 527.46 756.46 525.12 Z M 731.50 476.37 C 720.73 474.25 717.76 473.39 712.96 470.97 C 701.98 465.44 692.65 454.80 688.03 442.50 C 684.79 433.89 684.72 420.05 687.88 410.73 C 692.34 397.56 702.19 386.37 714.37 380.61 C 721.64 377.16 727.03 376.05 736.57 376.02 C 750.33 375.98 760.89 380.22 771.30 389.97 C 801.19 417.92 785.73 468.32 745.04 475.58 C 737.40 476.95 735.10 477.08 731.50 476.37 Z M 745.36 450.97 C 752.87 448.16 759.31 441.17 761.59 433.36 C 766.70 415.84 751.82 398.42 733.38 400.30 C 726.75 400.98 721.30 403.82 716.58 409.04 C 711.55 414.61 710.00 418.67 710.01 426.22 C 710.03 440.89 721.57 452.66 736.21 452.93 C 738.25 452.97 742.37 452.09 745.36 450.97 Z M 309.29 599.56 C 298.69 596.23 289.62 587.94 286.00 578.28 C 283.99 572.90 283.95 571.31 284.22 510.14 L 284.50 447.50 L 287.28 442.22 C 291.14 434.90 297.01 429.37 304.85 425.65 L 311.50 422.50 L 445.41 422.23 C 594.55 421.93 586.44 421.58 596.96 428.77 C 603.56 433.27 609.35 440.66 611.16 446.90 C 612.21 450.52 612.50 464.61 612.50 513.00 L 612.50 574.50 L 609.83 580.20 C 606.42 587.46 599.46 594.42 592.20 597.83 L 586.50 600.50 L 450.00 600.69 C 339.10 600.84 312.71 600.63 309.29 599.56 Z M 584.60 573.60 L 588.00 570.20 L 588.00 512.18 L 588.00 454.15 L 585.44 451.11 C 584.03 449.43 581.21 447.60 579.19 447.03 C 576.76 446.36 531.63 446.01 447.22 446.01 C 305.99 446.00 314.02 445.64 310.03 452.19 C 308.07 455.41 308.01 457.10 308.00 511.35 C 308.00 572.33 307.94 571.64 313.76 575.25 C 316.30 576.82 326.01 576.95 448.85 576.97 L 581.20 577.00 L 584.60 573.60 Z" stroke-linecap="round"/>
</g>
</g>
</g>

  </svg>