<svg xmlns="http://www.w3.org/2000/svg" xmlns:xlink="http://www.w3.org/1999/xlink" width="500px" height="486px" viewBox="0 0 499.9999999999998 486.3627490000508">
    <g id="f8986e00-219b-4acb-82b2-bd0f9dbf8de9">
<g style="">
		<g id="f8986e00-219b-4acb-82b2-bd0f9dbf8de9-child-0">
<path style="stroke: rgb(193,193,193); stroke-width: 0; stroke-dasharray: none; stroke-linecap: butt; stroke-dashoffset: 0; stroke-linejoin: miter; stroke-miterlimit: 4; fill: rgb(0,0,0); fill-rule: nonzero; opacity: 1;" transform="matrix(0.853286 0 0 0.853286 249.999875 243.181252) matrix(1 0 0 1 0 0)  translate(-511.982101, -511.98741)" d="M 225.78 794.80 C 216.80 789.59 216.72 776.78 225.64 770.90 C 228.21 769.21 230.60 769.01 249.05 769.01 L 269.61 769.00 L 278.95 732.75 C 284.09 712.81 291.77 683.00 296.03 666.50 C 300.29 650.00 305.99 627.84 308.70 617.25 L 313.63 598.00 L 307.48 598.00 C 299.81 598.00 287.50 594.92 280.68 591.29 C 272.90 587.16 260.96 574.81 257.19 567.00 C 250.65 553.48 251.00 562.19 251.01 413.04 C 251.03 263.69 250.72 271.45 257.28 258.05 C 261.69 249.05 273.28 237.38 282.00 233.18 C 295.75 226.55 279.00 227.00 512.00 227.00 C 745.03 227.00 728.27 226.55 742.00 233.19 C 750.96 237.52 762.59 249.19 766.82 258.09 C 773.27 271.68 772.97 264.02 772.99 412.59 C 773.00 543.94 772.95 547.89 771.02 555.41 C 768.29 566.09 764.72 572.30 756.52 580.61 C 746.19 591.07 734.09 596.62 719.25 597.70 C 714.71 598.03 710.98 598.57 710.96 598.90 C 710.93 599.23 720.49 637.64 732.19 684.25 L 753.47 769.00 L 773.83 769.00 C 790.46 769.00 794.82 769.29 797.58 770.61 C 807.78 775.45 807.32 790.12 796.80 795.60 C 794.50 796.79 752.33 797.00 511.80 796.98 L 229.50 796.95 L 225.78 794.80 Z M 325.95 765.25 C 326.52 763.19 330.85 746.20 335.56 727.50 C 340.27 708.80 344.55 691.83 345.09 689.80 C 346.33 685.01 350.19 680.48 355.38 677.71 L 359.50 675.50 L 512.00 675.50 L 664.50 675.50 L 669.16 678.24 C 671.73 679.75 674.79 682.54 675.96 684.43 C 677.27 686.56 681.74 702.80 687.58 726.69 C 692.79 748.04 697.30 766.29 697.60 767.25 C 698.07 768.79 699.60 769.00 710.57 769.00 C 717.41 769.00 723.02 768.66 723.05 768.25 C 723.07 767.84 713.52 729.36 701.82 682.75 L 680.53 598.00 L 668.88 598.00 L 657.23 598.00 L 660.09 611.25 C 661.66 618.54 663.48 626.98 664.13 630.01 C 665.18 634.96 665.09 636.01 663.24 640.20 C 661.69 643.70 660.15 645.39 657.12 646.94 C 653.09 648.99 652.55 649.00 511.50 649.00 C 371.82 649.00 369.87 648.97 365.99 647.00 C 363.83 645.89 361.55 644.03 360.92 642.86 C 357.92 637.25 358.02 635.11 362.03 618.16 C 364.20 609.00 365.98 600.70 365.99 599.72 C 366.00 598.10 364.99 597.96 354.81 598.22 L 343.61 598.50 L 338.42 618.50 C 335.57 629.50 325.76 667.32 316.62 702.53 C 307.48 737.75 300.00 767.12 300.00 767.78 C 300.00 768.67 303.34 769.00 312.45 769.00 L 324.91 769.00 L 325.95 765.25 Z M 668.00 768.52 C 668.00 767.73 652.87 706.81 652.31 705.35 C 651.87 704.22 628.59 704.00 511.62 704.00 L 371.46 704.00 L 363.64 734.75 C 359.35 751.66 355.61 766.29 355.35 767.25 C 354.89 768.91 362.80 769.00 511.43 769.00 C 597.54 769.00 668.00 768.78 668.00 768.52 Z M 632.75 618.75 C 632.49 618.06 631.23 613.11 629.94 607.75 L 627.61 598.00 L 512.00 598.00 L 396.39 598.00 L 394.06 607.75 C 392.77 613.11 391.51 618.06 391.25 618.75 C 390.88 619.75 415.45 620.00 512.00 620.00 C 608.55 620.00 633.12 619.75 632.75 618.75 Z M 728.54 566.84 C 731.31 565.38 735.41 562.19 737.65 559.76 C 745.57 551.17 745.06 561.76 744.76 411.45 L 744.50 277.50 L 742.20 272.50 C 739.29 266.17 734.87 261.55 728.50 258.16 L 723.50 255.50 L 513.54 255.24 C 279.17 254.95 298.41 254.36 289.64 262.09 C 287.10 264.32 283.88 268.59 282.31 271.79 L 279.50 277.50 L 279.50 413.00 L 279.50 548.50 L 282.16 553.50 C 286.16 561.03 292.12 565.99 300.22 568.54 C 303.75 569.64 341.18 569.85 514.00 569.69 L 723.50 569.50 L 728.54 566.84 Z M 342.26 537.46 C 325.43 532.92 312.58 519.65 309.12 503.20 C 308.34 499.54 308.00 471.76 308.01 413.20 C 308.03 342.00 308.27 327.50 309.51 322.23 C 313.27 306.26 323.51 294.87 339.58 288.76 L 345.50 286.51 L 465.00 286.22 C 540.95 286.03 587.52 286.29 592.79 286.93 C 612.30 289.30 628.69 303.66 632.94 322.11 C 634.32 328.09 634.32 497.91 632.94 503.89 C 629.28 519.76 615.92 533.25 599.50 537.64 C 595.65 538.67 583.14 538.98 545.00 538.99 C 490.42 539.00 491.28 539.09 486.57 532.68 C 483.75 528.83 483.75 521.17 486.57 517.32 C 491.26 510.92 490.55 511.00 543.78 511.00 C 582.55 511.00 592.70 510.73 595.28 509.62 C 599.17 507.96 603.49 503.52 604.94 499.68 C 606.42 495.76 606.42 330.24 604.94 326.32 C 603.62 322.82 599.46 318.36 595.50 316.16 C 592.76 314.64 582.24 314.48 473.00 314.28 C 338.56 314.04 346.79 313.60 340.58 321.34 L 337.50 325.19 L 337.50 412.84 L 337.50 500.50 L 339.83 503.77 C 341.12 505.57 343.91 507.94 346.04 509.02 C 349.75 510.91 352.08 511.00 397.99 511.00 C 451.09 511.00 451.21 511.01 454.97 517.19 C 457.56 521.44 457.63 528.46 455.11 532.58 C 451.17 539.04 451.48 539.01 396.85 538.93 C 357.69 538.88 346.42 538.58 342.26 537.46 Z M 682.11 512.97 C 672.57 510.99 663.89 504.38 659.17 495.50 C 656.83 491.10 656.51 489.36 656.51 481.00 C 656.51 472.64 656.83 470.89 659.18 466.44 C 662.22 460.66 667.95 455.10 674.20 451.86 C 677.36 450.23 680.81 449.52 687.20 449.20 C 695.25 448.79 696.36 448.98 702.20 451.74 C 714.46 457.54 720.25 466.21 720.84 479.65 C 721.16 486.85 720.87 488.53 718.44 493.95 C 712.19 507.87 696.68 516.00 682.11 512.97 Z M 682.92 427.96 C 668.01 425.52 657.12 413.30 656.24 398.00 C 655.42 383.94 662.47 372.25 675.27 366.42 C 680.40 364.08 682.84 363.59 689.13 363.61 C 698.93 363.65 705.79 366.80 712.83 374.51 C 718.83 381.07 721.00 386.91 721.00 396.52 C 721.00 402.49 720.50 404.69 717.96 409.76 C 714.70 416.29 709.40 421.74 703.25 424.87 C 699.86 426.60 697.45 427.22 689.50 428.41 C 688.40 428.58 685.44 428.38 682.92 427.96 Z M 667.90 336.73 C 658.92 330.74 659.12 318.27 668.26 313.27 C 671.00 311.77 674.12 311.50 688.50 311.50 C 708.52 311.50 710.90 312.25 714.16 319.62 C 717.21 326.52 715.15 333.11 708.70 337.04 C 705.86 338.77 703.59 338.99 688.40 339.00 C 672.28 339.00 671.10 338.87 667.90 336.73 Z" stroke-linecap="round"/>
</g>
</g>
</g>

  </svg>