<svg xmlns="http://www.w3.org/2000/svg" xmlns:xlink="http://www.w3.org/1999/xlink" width="389px" height="500px" viewBox="0 0 388.81907049957397 500">
    <g id="4d443b98-578c-4c57-be4e-fbc66a4ed5f7">
<g style="">
		<g id="4d443b98-578c-4c57-be4e-fbc66a4ed5f7-child-0">
<path style="stroke: rgb(193,193,193); stroke-width: 0; stroke-dasharray: none; stroke-linecap: butt; stroke-dashoffset: 0; stroke-linejoin: miter; stroke-miterlimit: 4; fill: rgb(0,0,0); fill-rule: nonzero; opacity: 1;" transform="matrix(0.868869 0 0 0.868869 194.409439 249.999876) matrix(1 0 0 1 0 0)  translate(-512.25, -511.873452)" d="M 358.50 799.30 C 327.09 794.84 299.87 770.73 290.76 739.30 L 288.50 731.50 L 288.50 512.00 L 288.50 292.50 L 290.85 285.00 C 299.96 255.91 321.29 234.80 349.73 226.72 L 357.50 224.51 L 507.00 224.21 C 606.59 224.01 659.13 224.26 664.38 224.95 C 698.95 229.52 727.39 256.01 734.42 290.21 C 735.77 296.78 736.00 307.60 736.00 363.94 L 736.00 429.97 L 733.22 433.08 C 728.09 438.82 717.88 438.13 714.00 431.77 C 712.06 428.59 712.01 426.70 712.00 365.71 C 712.00 295.58 711.85 293.62 705.30 280.57 C 698.13 266.29 681.39 253.24 666.20 250.10 C 662.49 249.33 616.06 249.00 511.66 249.00 C 381.50 249.00 361.66 249.19 356.46 250.52 C 333.89 256.27 316.92 275.26 313.06 299.09 C 312.41 303.04 312.01 329.90 312.01 369.17 L 312.00 432.84 L 318.25 433.50 C 321.69 433.87 326.30 434.02 328.50 433.83 L 332.50 433.50 L 333.00 372.00 C 333.50 310.61 333.50 310.49 335.81 304.78 C 341.58 290.50 353.00 279.69 368.58 273.75 L 374.50 271.50 L 507.50 271.22 C 603.69 271.01 642.39 271.25 647.35 272.07 C 655.57 273.44 667.80 279.31 674.24 284.98 C 680.18 290.21 685.71 298.63 688.62 306.89 C 690.90 313.34 690.96 314.37 690.98 349.30 C 691.00 388.60 690.88 389.46 685.03 392.48 C 680.16 395.00 674.53 394.45 670.77 391.08 L 667.50 388.17 L 667.00 352.33 L 666.50 316.50 L 663.40 311.00 C 661.69 307.98 658.41 304.05 656.10 302.28 C 647.52 295.67 655.04 296.00 512.00 296.00 C 365.82 296.00 375.67 295.48 366.98 303.61 C 364.31 306.11 361.28 310.24 360.10 312.99 C 358.02 317.83 357.99 318.78 358.24 375.70 L 358.50 433.50 L 508.87 433.74 C 656.89 433.98 659.28 434.01 662.45 435.97 C 666.22 438.30 668.00 441.72 668.00 446.66 C 668.00 449.48 667.18 451.06 664.12 454.12 L 660.24 458.00 L 510.70 458.00 C 428.45 458.00 360.45 458.27 359.58 458.61 C 358.15 459.16 358.00 471.04 358.00 582.98 C 358.00 718.88 357.65 710.98 364.04 719.06 C 365.87 721.37 369.61 724.16 373.31 725.98 L 379.50 729.03 L 513.50 728.76 L 647.50 728.50 L 651.63 726.29 C 657.47 723.17 663.72 715.68 665.50 709.67 C 666.79 705.35 667.00 690.49 667.00 604.77 C 667.00 494.54 666.63 500.83 673.36 497.63 C 677.65 495.60 681.25 495.56 685.03 497.52 C 691.32 500.77 691.00 494.93 691.00 606.74 C 691.00 718.98 691.26 714.08 684.72 726.41 C 678.77 737.61 668.16 746.36 654.50 751.32 L 648.50 753.50 L 513.00 753.50 C 384.30 753.50 377.20 753.41 371.50 751.66 C 352.84 745.94 339.14 732.16 334.53 714.46 C 333.20 709.33 333.00 692.62 333.00 583.79 L 333.00 459.00 L 322.50 459.00 L 312.00 459.00 L 312.02 590.25 C 312.03 702.14 312.25 722.53 313.51 728.47 C 317.81 748.75 331.99 764.80 352.76 772.88 L 359.50 775.50 L 510.50 775.50 C 673.21 775.50 666.12 775.72 677.74 770.30 C 685.70 766.60 694.38 759.60 699.55 752.73 C 705.67 744.58 707.73 740.37 710.06 731.26 C 711.93 723.95 712.00 719.02 712.00 593.59 C 712.01 465.33 712.04 463.45 714.00 460.23 C 717.16 455.06 724.10 453.45 730.03 456.52 C 736.38 459.80 736.00 450.87 735.99 596.20 C 735.97 738.55 736.17 732.71 730.91 747.00 C 724.06 765.61 707.02 783.59 687.84 792.43 C 671.32 800.05 686.39 799.43 515.00 799.58 C 430.58 799.66 360.15 799.53 358.50 799.30 Z M 411.04 525.83 C 400.77 522.88 393.98 513.69 394.02 502.79 C 394.07 488.78 403.73 479.00 417.50 479.00 C 424.47 479.00 428.67 480.73 434.30 485.92 L 438.72 490.00 L 477.21 490.00 C 515.62 490.00 515.71 490.01 519.10 492.28 C 521.37 493.80 522.95 495.96 523.84 498.77 C 525.07 502.62 525.00 503.37 523.05 507.40 C 519.35 515.04 519.58 515.00 476.31 515.00 L 438.42 515.00 L 434.03 519.47 C 427.51 526.11 419.63 528.29 411.04 525.83 Z M 410.00 412.46 C 395.78 408.05 389.27 391.46 396.52 378.13 C 404.61 363.29 423.04 361.02 434.95 373.41 L 438.39 377.00 L 474.57 377.00 C 494.47 377.00 512.19 377.29 513.95 377.64 C 515.71 377.99 518.70 379.73 520.58 381.51 C 523.63 384.38 524.00 385.31 524.00 389.97 C 524.00 394.58 523.60 395.60 520.60 398.60 L 517.20 402.00 L 477.99 402.00 L 438.78 402.00 L 433.46 406.86 C 425.98 413.70 419.20 415.32 410.00 412.46 Z" stroke-linecap="round"/>
</g>
</g>
</g>

  </svg>