<svg xmlns="http://www.w3.org/2000/svg" xmlns:xlink="http://www.w3.org/1999/xlink" width="356px" height="501px" viewBox="0 0 355.61169595258923 500">
    <g id="83ef8854-7002-4365-b7cd-92545f3447ad">
<g style="">
		<g id="83ef8854-7002-4365-b7cd-92545f3447ad-child-0">
<path style="stroke: rgb(193,193,193); stroke-width: 0; stroke-dasharray: none; stroke-linecap: butt; stroke-dashoffset: 0; stroke-linejoin: miter; stroke-miterlimit: 4; fill: rgb(0,0,0); fill-rule: nonzero; opacity: 1;" transform="matrix(0.777581 0 0 0.777581 177.805796 249.999927) matrix(1 0 0 1 0 0)  translate(-512.238406, -512.431036)" d="M 394.35 832.58 C 381.59 829.48 369.21 819.48 363.68 807.78 C 352.97 785.15 362.77 758.17 385.68 747.23 L 393.50 743.50 L 437.76 743.21 L 482.02 742.92 L 481.76 694.27 L 481.50 645.62 L 472.00 643.92 C 425.80 635.65 383.78 613.73 350.46 580.50 C 315.98 546.11 295.61 507.86 286.29 460.00 C 283.88 447.61 283.66 444.33 283.58 420.00 C 283.52 398.22 283.83 391.72 285.36 383.50 C 294.41 334.64 314.34 295.38 347.49 261.12 C 384.85 222.52 432.75 198.63 485.97 192.05 C 505.72 189.61 539.70 191.27 559.50 195.64 C 618.54 208.67 670.03 243.94 703.30 294.16 C 720.71 320.45 732.65 350.41 738.08 381.50 C 740.76 396.78 741.76 427.19 740.08 442.02 C 731.16 520.64 685.82 586.32 615.79 622.06 C 594.69 632.83 573.26 640.18 552.00 643.94 L 542.50 645.62 L 542.24 694.27 L 541.98 742.92 L 586.29 743.21 L 630.61 743.50 L 638.11 747.21 C 647.56 751.88 655.81 760.24 660.16 769.54 C 664.23 778.23 665.18 790.73 662.52 800.56 C 659.36 812.26 650.61 823.13 640.05 828.47 C 628.75 834.20 633.29 834.01 511.54 833.91 C 425.58 833.85 398.30 833.54 394.35 832.58 Z M 625.18 812.97 C 627.20 812.41 631.01 810.50 633.64 808.72 C 648.84 798.48 647.10 774.62 630.50 765.66 C 626.61 763.56 625.26 763.49 579.50 763.00 C 533.37 762.51 532.44 762.46 529.00 760.32 C 521.66 755.75 522.00 758.98 522.00 693.56 C 522.00 640.78 522.16 634.68 523.65 632.41 C 526.14 628.61 529.38 627.38 543.10 625.07 C 566.12 621.18 584.44 615.28 604.50 605.29 C 699.28 558.08 743.62 449.86 708.93 350.36 C 704.46 337.52 694.21 316.99 686.65 305.73 C 647.93 248.02 586.45 213.49 518.50 211.29 C 468.29 209.66 420.81 225.61 381.50 257.30 C 372.19 264.80 355.38 281.66 347.88 291.00 C 295.83 355.88 288.55 448.54 329.84 521.00 C 355.11 565.36 398.12 600.65 446.17 616.44 C 458.95 620.64 482.26 626.00 487.75 626.00 C 492.04 626.00 498.55 629.73 500.41 633.27 C 501.96 636.22 502.08 641.47 501.80 694.68 C 501.51 751.63 501.46 752.91 499.44 755.62 C 498.30 757.13 496.13 759.30 494.62 760.44 C 491.94 762.43 490.36 762.52 444.68 763.00 C 410.63 763.36 396.74 763.84 394.76 764.72 C 393.25 765.39 390.01 767.79 387.56 770.05 C 376.58 780.17 376.93 797.79 388.31 807.53 C 396.05 814.16 390.24 813.85 511.50 813.92 C 583.50 813.97 622.77 813.64 625.18 812.97 Z M 494.50 606.34 C 481.03 604.74 474.01 603.50 464.50 601.05 C 402.86 585.13 352.32 538.13 332.51 478.32 C 325.21 456.28 322.43 436.08 323.33 411.50 C 325.07 363.46 344.72 319.88 380.14 285.46 C 397.19 268.90 408.65 260.70 429.14 250.43 C 469.76 230.06 518.80 225.53 563.22 238.05 C 623.47 255.03 673.69 303.66 691.94 362.69 C 708.91 417.58 700.75 475.78 669.53 522.50 C 638.40 569.11 587.97 599.87 532.79 605.93 C 523.77 606.92 501.40 607.16 494.50 606.34 Z M 528.14 585.94 C 603.09 578.30 663.97 522.73 677.63 449.50 C 680.49 434.19 680.28 402.44 677.21 387.27 C 665.17 327.59 621.96 278.87 564.00 259.62 C 485.98 233.71 400.85 268.91 362.12 343.11 C 337.44 390.37 337.05 445.59 361.04 493.50 C 369.35 510.08 378.33 522.33 393.00 537.06 C 407.45 551.58 421.60 561.60 440.00 570.35 C 468.20 583.76 497.94 589.02 528.14 585.94 Z M 499.50 566.40 C 463.05 562.71 432.05 548.19 406.94 523.07 C 385.61 501.73 372.14 477.03 365.82 447.69 C 362.68 433.10 362.67 405.94 365.80 391.40 C 368.78 377.59 372.32 367.34 378.21 355.50 C 398.91 313.87 435.99 284.56 480.18 274.91 C 506.78 269.10 534.70 270.74 560.21 279.62 C 611.37 297.43 647.91 340.16 658.66 394.75 C 660.97 406.50 660.99 431.11 658.69 443.72 C 648.81 497.95 610.59 541.82 557.88 559.44 C 552.17 561.35 543.45 563.61 538.51 564.47 C 529.48 566.05 506.97 567.16 499.50 566.40 Z M 533.38 544.49 C 560.20 539.82 583.37 527.78 602.54 508.56 C 636.64 474.38 648.56 425.64 633.85 380.56 C 618.83 334.53 578.55 300.47 530.78 293.41 C 516.89 291.36 496.62 292.00 484.00 294.88 C 436.42 305.75 399.80 341.70 387.35 389.78 C 383.93 402.99 383.08 425.12 385.43 439.46 C 394.07 492.02 436.56 534.92 489.50 544.55 C 499.40 546.35 522.91 546.32 533.38 544.49 Z M 439.50 456.84 C 435.94 454.88 434.05 451.64 434.02 447.45 C 434.00 443.43 434.40 443.00 471.60 405.95 C 492.29 385.35 509.75 368.05 510.42 367.50 C 511.08 366.95 517.26 360.99 524.15 354.25 C 535.46 343.19 537.03 342.00 540.26 342.00 C 547.04 342.00 553.07 350.29 550.18 355.64 C 548.78 358.24 451.47 455.17 448.74 456.69 C 445.97 458.23 442.14 458.29 439.50 456.84 Z M 416.92 413.08 C 413.74 409.89 413.07 405.15 415.29 401.50 C 415.95 400.40 433.62 382.54 454.54 361.82 C 479.11 337.49 493.55 323.90 495.31 323.46 C 501.22 321.97 507.93 327.80 508.04 334.50 C 508.08 337.15 503.40 342.13 468.37 376.75 L 428.65 416.00 L 424.25 416.00 C 420.72 416.00 419.27 415.42 416.92 413.08 Z" stroke-linecap="round"/>
</g>
</g>
</g>

  </svg>