<svg xmlns="http://www.w3.org/2000/svg" xmlns:xlink="http://www.w3.org/1999/xlink" width="500px" height="362px" viewBox="0 0 499.99999999999994 361.828944251804">
    <g id="092adcec-0595-443c-a7ab-23cc76d5c9ec">
<g style="">
		<g id="092adcec-0595-443c-a7ab-23cc76d5c9ec-child-0">
<path style="stroke: rgb(193,193,193); stroke-width: 0; stroke-dasharray: none; stroke-linecap: butt; stroke-dashoffset: 0; stroke-linejoin: miter; stroke-miterlimit: 4; fill: rgb(0,0,0); fill-rule: nonzero; opacity: 1;" transform="matrix(0.833496 0 0 0.833496 250.000003 180.914475) matrix(1 0 0 1 0 0)  translate(-511.941455, -511.945)" d="M 314.36 728.01 C 308.98 725.84 307.36 718.55 311.37 714.54 C 313.75 712.16 320.65 710.73 327.50 711.20 C 329.15 711.31 347.96 711.31 369.31 711.20 L 408.12 711.00 L 414.56 697.41 C 418.10 689.94 421.00 683.21 421.00 682.46 C 421.00 681.32 409.65 681.03 352.75 680.75 C 276.48 680.38 279.93 680.67 263.33 672.99 C 253.31 668.35 247.27 664.29 239.69 657.09 C 227.86 645.87 219.32 631.53 214.73 615.20 C 212.64 607.74 212.56 605.50 212.23 544.51 C 212.05 509.87 212.16 480.50 212.48 479.24 C 214.09 472.82 222.50 470.71 227.08 475.58 L 229.50 478.16 L 230.00 543.33 L 230.50 608.50 L 233.36 615.91 C 240.53 634.53 252.93 648.54 269.18 656.38 C 286.21 664.60 267.10 664.00 512.00 664.00 C 754.83 664.00 737.99 664.48 753.50 657.10 C 769.32 649.56 779.54 639.62 787.03 624.50 C 795.00 608.39 794.50 617.63 794.50 487.50 C 794.50 357.93 794.96 366.75 787.43 351.73 C 780.15 337.20 770.00 327.11 755.50 319.96 C 739.12 311.89 755.09 312.58 572.28 312.01 L 409.06 311.50 L 406.83 309.27 C 403.54 305.98 403.79 300.44 407.38 297.35 L 410.15 294.97 L 574.83 295.23 L 739.50 295.50 L 747.50 297.83 C 777.60 306.58 799.88 328.67 809.17 359.00 L 811.47 366.50 L 811.76 484.23 C 812.04 598.20 811.98 602.28 810.07 611.65 C 803.92 641.74 780.91 667.13 751.00 676.83 C 739.04 680.70 733.37 680.98 666.75 680.99 C 631.14 681.00 602.00 681.16 602.00 681.36 C 602.00 682.51 614.35 708.72 615.40 709.79 C 616.39 710.81 626.62 711.13 662.92 711.29 L 709.17 711.50 L 711.59 714.31 C 714.92 718.19 714.74 722.41 711.08 726.08 L 708.15 729.00 L 512.33 728.94 C 404.62 728.90 315.54 728.48 314.36 728.01 Z M 515.08 711.00 C 581.28 711.00 595.00 710.77 595.00 709.66 C 595.00 708.42 586.06 688.46 583.18 683.25 L 581.93 681.00 L 511.61 681.00 L 441.29 681.00 L 436.00 692.25 C 427.33 710.70 427.58 709.90 430.23 710.96 C 431.48 711.46 433.10 711.68 433.83 711.44 C 434.56 711.20 471.13 711.00 515.08 711.00 Z M 629.70 640.62 C 614.36 634.90 606.56 619.46 611.58 604.73 C 613.70 598.49 620.30 591.23 626.46 588.37 C 633.74 584.98 643.74 585.07 650.79 588.58 C 671.97 599.14 671.93 628.32 650.72 639.14 C 645.39 641.87 635.01 642.60 629.70 640.62 Z M 644.79 621.38 C 649.76 618.17 650.05 609.76 645.33 606.04 C 641.54 603.07 634.66 603.25 631.50 606.41 C 628.09 609.82 627.40 613.51 629.37 617.66 C 632.18 623.54 638.94 625.17 644.79 621.38 Z M 698.50 639.97 C 679.61 632.69 674.04 609.49 687.68 594.91 C 701.48 580.15 724.72 583.35 734.24 601.31 C 736.00 604.62 736.47 607.18 736.48 613.50 C 736.50 620.52 736.14 622.16 733.53 626.86 C 726.52 639.52 711.71 645.06 698.50 639.97 Z M 715.60 620.60 C 720.08 616.12 720.25 611.43 716.10 606.79 C 708.25 598.00 693.74 608.02 699.65 618.15 C 703.57 624.85 710.31 625.89 715.60 620.60 Z M 309.32 622.50 C 289.53 618.20 274.21 603.27 269.91 584.11 C 269.30 581.37 268.94 545.15 268.98 488.49 C 269.04 388.09 268.83 391.76 275.28 379.59 C 279.49 371.65 288.49 362.86 296.30 359.06 C 307.95 353.39 311.24 353.00 347.26 353.00 L 380.09 353.00 L 382.55 355.45 C 385.57 358.48 385.81 363.77 383.09 367.14 L 381.18 369.50 L 347.34 370.05 C 315.52 370.57 313.17 370.74 307.92 372.81 C 297.34 376.99 290.02 385.56 287.36 396.85 C 286.31 401.32 286.03 420.51 286.02 488.54 C 286.00 584.19 285.84 581.79 292.64 591.73 C 294.60 594.60 298.29 598.33 300.83 600.01 C 310.38 606.34 303.92 606.06 434.56 605.77 L 553.50 605.50 L 559.00 602.40 C 565.45 598.77 570.85 592.16 573.44 584.74 C 579.84 566.39 594.04 554.37 612.05 552.03 C 616.15 551.50 640.07 551.05 665.21 551.03 C 709.46 551.00 711.11 550.93 716.65 548.86 C 723.84 546.17 731.13 539.10 734.81 531.24 L 737.50 525.50 L 737.79 464.19 C 738.12 395.71 738.07 395.06 731.42 385.35 C 727.60 379.77 723.31 376.38 715.50 372.80 L 710.50 370.50 L 559.66 370.00 L 408.82 369.50 L 406.91 367.14 C 403.93 363.46 404.41 358.67 408.08 355.59 L 411.15 353.00 L 560.37 353.00 C 690.50 353.00 710.34 353.19 715.54 354.52 C 734.33 359.30 748.71 373.40 753.42 391.64 C 755.67 400.37 755.78 522.48 753.55 530.87 C 748.85 548.52 734.37 562.80 716.46 567.47 C 711.57 568.74 702.44 569.00 662.47 569.00 C 607.28 569.00 607.10 569.02 598.93 576.66 C 595.12 580.23 593.46 582.88 591.00 589.34 C 587.10 599.54 583.09 605.86 577.14 611.15 C 571.52 616.15 560.44 621.60 553.11 622.98 C 549.65 623.64 506.32 623.97 431.61 623.92 C 338.36 623.86 314.28 623.58 309.32 622.50 Z M 215.05 450.20 C 212.44 447.59 212.00 446.41 212.00 442.00 C 212.00 437.64 212.45 436.40 214.92 433.92 C 216.92 431.93 218.85 431.00 221.00 431.00 C 223.15 431.00 225.08 431.93 227.08 433.92 C 229.53 436.38 230.00 437.65 230.00 441.87 C 230.00 448.13 227.21 451.79 221.80 452.66 C 218.60 453.17 217.68 452.83 215.05 450.20 Z M 216.23 409.33 C 213.10 408.07 212.00 403.19 212.00 390.62 C 212.00 368.23 215.18 354.16 223.62 339.29 C 232.44 323.74 246.62 310.75 263.16 303.09 C 279.34 295.60 278.92 295.65 332.05 295.25 L 379.59 294.89 L 382.30 297.40 C 385.58 300.44 385.93 305.63 383.09 309.14 L 381.18 311.50 L 334.84 312.07 C 283.18 312.71 283.22 312.71 268.50 319.96 C 251.10 328.53 239.06 342.60 232.97 361.50 C 231.11 367.28 230.61 371.68 230.11 386.67 C 229.52 404.12 229.40 404.94 227.08 407.42 C 224.73 409.92 219.83 410.78 216.23 409.33 Z" stroke-linecap="round"/>
</g>
</g>
</g>

  </svg>