<svg xmlns="http://www.w3.org/2000/svg" xmlns:xlink="http://www.w3.org/1999/xlink" width="2583px" height="2473px" viewBox="0 0 2583.4749672376493 2473.6128640156016">
    <g id="71ce0e30-c8a7-445c-9314-515d3c66db7d">
<g style="">
		<g id="71ce0e30-c8a7-445c-9314-515d3c66db7d-child-0">
<path style="stroke: rgb(193,193,193); stroke-width: 0; stroke-dasharray: none; stroke-linecap: butt; stroke-dashoffset: 0; stroke-linejoin: miter; stroke-miterlimit: 4; fill: rgb(0,0,0); fill-rule: nonzero; opacity: 1;" transform="matrix(5.029903 0 0 5.029903 1291.737447 1236.806397) matrix(1 0 0 1 0 0)  translate(-512.028533, -511.894369)" d="M 387.78 756.45 C 384.28 754.54 383.00 752.08 383.00 747.25 C 383.00 744.24 383.68 742.73 386.01 740.49 C 388.90 737.72 389.54 737.57 400.76 737.03 L 412.50 736.47 L 433.00 722.94 C 444.27 715.50 464.19 702.51 477.25 694.07 L 501.00 678.73 L 501.00 640.44 L 501.00 602.14 L 396.75 601.77 C 293.03 601.40 292.47 601.39 286.75 599.25 C 269.39 592.77 258.52 579.09 255.88 560.41 C 254.89 553.41 254.96 551.99 256.42 549.15 C 258.77 544.62 263.48 542.01 269.33 542.00 L 274.16 542.00 L 273.83 431.75 L 273.50 321.50 L 276.31 315.79 C 279.75 308.78 286.38 302.75 293.64 300.03 C 298.51 298.21 301.40 298.00 321.54 298.00 L 344.00 298.00 L 344.00 287.45 C 344.00 275.62 345.02 272.55 350.13 268.90 C 354.25 265.97 363.85 265.37 382.22 266.90 C 417.43 269.84 445.77 283.13 469.00 307.62 C 485.90 325.43 495.70 343.88 501.61 369.00 C 503.21 375.78 503.41 384.43 503.73 459.25 L 504.09 542.00 L 512.04 542.00 L 520.00 542.00 L 520.00 463.18 C 520.00 395.47 520.23 383.02 521.60 374.93 C 529.62 327.76 561.56 290.21 607.77 273.64 C 619.63 269.38 633.69 267.00 650.92 266.32 C 665.91 265.73 666.98 265.81 671.33 267.92 C 678.54 271.41 680.00 274.67 680.00 287.30 L 680.00 297.87 L 704.25 298.19 C 727.39 298.49 728.70 298.61 732.85 300.82 C 739.46 304.35 745.51 310.46 748.14 316.27 L 750.50 321.50 L 750.77 431.75 L 751.03 542.00 L 755.07 542.00 C 760.40 542.00 764.31 544.15 767.05 548.57 C 769.17 552.01 769.23 552.61 768.15 560.35 C 766.54 571.88 761.86 581.03 753.63 588.73 C 750.12 592.02 745.22 595.68 742.76 596.88 C 732.11 602.03 732.16 602.03 623.50 601.90 L 522.50 601.78 L 522.24 639.86 L 521.98 677.93 L 529.54 682.72 C 533.69 685.35 543.94 692.02 552.30 697.54 C 560.66 703.06 577.59 714.20 589.92 722.29 L 612.34 737.00 L 622.27 737.00 C 634.04 737.00 638.04 738.46 640.49 743.62 C 642.53 747.91 641.79 751.91 638.37 755.12 L 635.84 757.50 L 513.17 757.72 C 406.28 757.91 390.15 757.74 387.78 756.45 Z M 501.00 724.00 C 501.01 716.58 501.31 708.74 501.67 706.58 C 502.23 703.21 502.09 702.75 500.67 703.30 C 497.89 704.36 449.03 736.45 449.01 737.22 C 449.01 737.62 460.70 737.84 474.99 737.72 L 500.99 737.50 L 501.00 724.00 Z M 574.92 737.25 C 574.88 736.84 563.07 728.74 548.67 719.27 L 522.50 702.03 L 522.23 719.19 C 522.02 732.25 522.26 736.55 523.23 737.16 C 524.83 738.18 575.03 738.27 574.92 737.25 Z M 735.54 577.48 C 740.51 574.41 747.00 567.01 747.00 564.42 C 747.00 563.20 714.51 563.00 512.00 563.00 C 315.39 563.00 277.00 563.22 277.00 564.35 C 277.00 566.43 282.45 573.47 286.05 576.03 C 293.28 581.18 281.23 580.94 513.58 580.71 L 730.66 580.50 L 735.54 577.48 Z M 311.00 445.90 C 311.00 338.95 310.56 345.73 317.81 340.19 C 321.08 337.70 322.16 337.48 332.70 337.16 L 344.07 336.83 L 343.79 327.66 L 343.50 318.50 L 321.67 318.50 L 299.83 318.50 L 296.92 321.77 L 294.00 325.03 L 294.00 433.52 L 294.00 542.00 L 302.50 542.00 L 311.00 542.00 L 311.00 445.90 Z M 483.72 461.75 C 483.28 375.57 483.35 376.72 477.95 361.00 C 475.07 352.62 469.78 342.05 464.74 334.62 C 459.75 327.27 448.68 315.54 442.61 311.18 C 438.70 308.38 438.00 308.15 437.98 309.69 C 437.95 311.96 435.21 315.40 432.22 316.93 C 430.62 317.75 420.24 318.08 396.97 318.03 L 364.00 317.96 L 364.00 327.48 L 364.00 337.00 L 394.92 337.00 L 425.85 337.00 L 428.85 339.53 C 432.62 342.70 433.57 346.71 431.64 351.33 C 428.82 358.07 429.38 358.00 378.05 358.00 L 332.00 358.00 L 332.00 450.00 L 332.00 542.00 L 408.06 542.00 L 484.12 542.00 L 483.72 461.75 Z M 692.00 450.00 L 692.00 358.00 L 645.75 358.00 C 601.67 357.99 599.35 357.90 596.30 356.04 C 591.88 353.35 590.13 347.58 592.41 343.18 C 595.49 337.21 596.76 337.00 629.95 337.00 L 660.00 337.00 L 660.00 327.50 L 660.00 318.00 L 626.53 318.00 L 593.07 318.00 L 589.53 314.90 C 587.59 313.19 586.00 310.92 586.00 309.86 C 586.00 307.10 583.85 308.47 574.67 317.04 C 556.44 334.06 545.28 355.54 541.44 381.00 C 540.30 388.60 540.01 405.61 540.01 466.25 L 540.00 542.00 L 616.00 542.00 L 692.00 542.00 L 692.00 450.00 Z M 730.07 535.25 C 730.58 486.07 729.68 325.27 728.88 323.78 C 728.33 322.74 726.44 321.02 724.69 319.95 C 721.80 318.19 719.53 318.01 700.75 318.00 L 680.00 318.00 L 680.00 327.50 L 680.00 337.00 L 690.85 337.00 C 702.74 337.00 705.84 338.16 710.41 344.32 C 712.49 347.14 712.50 347.49 712.76 444.57 L 713.03 542.00 L 721.51 542.00 L 730.00 542.00 L 730.07 535.25 Z M 418.38 296.98 C 416.38 294.98 399.35 289.86 390.00 288.45 C 384.77 287.66 376.79 287.01 372.25 287.01 L 364.00 287.00 L 364.00 292.50 L 364.00 298.00 L 391.70 298.00 C 410.56 298.00 419.07 297.67 418.38 296.98 Z M 660.00 292.50 L 660.00 287.00 L 650.63 287.00 C 639.48 287.00 626.73 289.08 615.91 292.65 C 600.72 297.67 601.53 297.93 632.25 297.97 L 660.00 298.00 L 660.00 292.50 Z M 373.21 516.52 C 369.58 513.47 368.55 509.01 370.43 504.50 C 372.96 498.46 375.13 498.00 401.02 498.00 C 416.07 498.00 424.89 498.39 426.32 499.12 C 430.09 501.04 431.95 504.25 431.98 508.83 C 432.00 512.29 431.42 513.74 429.08 516.08 L 426.15 519.00 L 401.15 519.00 L 376.15 519.00 L 373.21 516.52 Z M 373.36 478.30 C 357.70 477.96 357.15 477.88 354.72 475.45 C 351.58 472.31 350.80 468.41 352.51 464.33 C 355.12 458.07 356.53 457.75 383.41 457.21 C 412.00 456.64 416.23 457.08 420.16 461.01 C 424.30 465.14 424.20 471.48 419.94 475.56 L 416.87 478.50 L 403.19 478.57 C 395.66 478.61 382.24 478.49 373.36 478.30 Z M 375.31 437.07 C 368.87 433.10 368.09 426.71 373.40 421.40 L 376.80 418.00 L 413.50 418.00 C 445.94 418.00 450.52 418.19 453.01 419.67 C 458.70 423.03 459.65 430.12 455.08 435.23 L 452.17 438.50 L 415.33 438.77 C 380.23 439.02 378.35 438.94 375.31 437.07 Z M 374.42 397.58 C 370.56 395.90 367.60 390.10 368.50 385.98 C 369.31 382.30 374.31 378.01 377.83 377.98 C 379.30 377.97 388.15 377.78 397.50 377.56 C 406.85 377.33 416.16 377.58 418.20 378.10 C 428.13 380.65 428.92 394.42 419.34 398.06 C 415.36 399.57 378.08 399.18 374.42 397.58 Z M 596.11 517.60 C 591.31 514.94 589.80 509.22 592.52 503.97 C 595.39 498.42 597.54 498.00 623.37 498.00 L 646.85 498.00 L 649.89 500.56 C 655.23 505.05 654.99 513.81 649.43 517.45 C 646.21 519.56 599.88 519.69 596.11 517.60 Z M 631.16 478.03 L 605.82 477.50 L 603.41 474.69 C 598.22 468.66 601.43 459.83 609.50 457.97 C 611.70 457.46 624.18 457.04 637.23 457.02 C 664.47 457.00 667.65 457.63 670.49 463.62 C 672.49 467.85 671.80 471.90 668.54 474.96 C 666.39 476.98 659.89 479.22 657.50 478.76 C 656.95 478.65 645.10 478.33 631.16 478.03 Z M 571.50 437.42 C 566.43 434.78 564.36 429.48 566.44 424.48 C 569.20 417.89 568.48 418.00 609.65 418.00 L 646.85 418.00 L 649.89 420.56 C 655.60 425.36 654.64 434.07 648.03 437.48 C 643.60 439.78 575.91 439.72 571.50 437.42 Z M 602.93 396.73 C 597.19 392.86 596.53 385.38 601.50 380.41 C 603.91 378.00 603.93 378.00 626.81 378.00 C 649.63 378.00 649.72 378.01 652.31 380.41 C 657.49 385.21 656.91 392.80 651.07 396.73 C 647.84 398.91 646.86 399.00 627.00 399.00 C 607.14 399.00 606.16 398.91 602.93 396.73 Z" stroke-linecap="round"/>
</g>
</g>
</g>

  </svg>