<svg xmlns="http://www.w3.org/2000/svg" xmlns:xlink="http://www.w3.org/1999/xlink" width="3467px" height="3387px" viewBox="0 0 3466.666666666666 3386.945156691225">
    <g id="a839efc5-3faf-4ca8-bbb9-e2a135f44076">
<g style="">
		<g id="a839efc5-3faf-4ca8-bbb9-e2a135f44076-child-0">
<path style="stroke: rgb(193,193,193); stroke-width: 0; stroke-dasharray: none; stroke-linecap: butt; stroke-dashoffset: 0; stroke-linejoin: miter; stroke-miterlimit: 4; fill: rgb(0,0,0); fill-rule: nonzero; opacity: 1;" transform="matrix(6.694311 0 0 6.694311 1733.333379 1693.472623) matrix(1 0 0 1 0 0)  translate(-512.085192, -512.008252)" d="M 290.50 762.65 C 284.89 760.03 278.59 753.61 276.25 748.14 C 273.18 740.96 274.10 734.40 282.29 705.00 C 286.51 689.88 290.38 676.06 290.89 674.30 L 291.83 671.11 L 285.56 669.02 C 277.34 666.29 271.70 662.58 265.20 655.66 C 258.52 648.54 255.02 640.98 253.85 631.14 C 252.74 621.86 253.05 458.11 254.19 449.57 C 256.06 435.52 266.92 421.25 280.71 414.72 L 287.50 411.50 L 427.00 410.98 C 503.73 410.70 566.70 410.36 566.94 410.23 C 567.18 410.10 566.21 408.76 564.79 407.25 C 557.06 399.03 550.76 385.00 549.23 372.64 L 548.50 366.77 L 540.85 364.57 C 517.48 357.83 501.98 337.27 501.86 312.82 C 501.78 297.47 507.10 284.60 517.88 274.00 C 524.82 267.19 533.89 261.95 542.00 260.09 C 544.90 259.42 574.13 259.04 624.00 259.04 C 708.23 259.02 706.27 258.90 717.87 264.69 C 725.96 268.73 736.93 279.97 740.91 288.31 C 744.33 295.48 746.97 306.00 746.97 312.50 C 746.97 314.70 746.32 319.55 745.53 323.29 C 741.24 343.52 725.06 360.31 705.00 365.35 C 699.50 366.73 699.50 366.73 698.84 371.28 C 697.20 382.72 691.40 396.48 684.64 404.99 C 682.68 407.45 681.39 409.79 681.79 410.18 C 682.18 410.57 694.68 411.02 709.56 411.19 L 736.61 411.50 L 744.19 415.25 C 757.74 421.95 767.65 434.97 769.94 449.09 C 771.34 457.67 771.38 626.67 769.99 634.11 C 768.52 642.01 763.33 651.80 757.56 657.56 C 752.53 662.59 739.58 670.00 735.83 670.00 C 734.79 670.00 733.72 670.58 733.44 671.29 C 733.17 671.99 736.63 685.61 741.13 701.54 C 750.97 736.37 751.56 741.85 746.40 751.00 C 742.91 757.18 736.79 762.41 731.22 763.95 C 729.16 764.53 717.45 764.99 705.00 764.98 C 683.46 764.98 682.28 764.88 677.43 762.62 C 670.15 759.23 666.72 754.49 662.92 742.61 C 661.15 737.05 655.35 718.78 650.04 702.00 L 640.38 671.50 L 512.27 671.25 L 384.17 670.99 L 382.13 677.25 C 381.01 680.69 375.35 698.49 369.54 716.81 C 358.31 752.28 357.29 754.88 353.15 758.77 C 347.07 764.50 344.56 764.96 319.00 764.97 C 296.46 764.98 295.30 764.88 290.50 762.65 Z M 333.39 735.25 C 333.68 734.29 338.21 719.65 343.46 702.72 C 348.71 685.79 353.00 671.73 353.00 671.47 C 353.00 671.21 346.06 671.00 337.58 671.00 L 322.16 671.00 L 321.13 674.25 C 320.57 676.04 317.84 685.83 315.07 696.00 C 312.30 706.17 308.68 719.22 307.02 725.00 C 305.36 730.77 304.00 735.83 304.00 736.25 C 304.00 736.66 310.49 737.00 318.43 737.00 C 331.31 737.00 332.92 736.81 333.39 735.25 Z M 720.00 736.13 C 720.00 735.44 704.44 679.39 702.40 672.75 C 701.92 671.18 700.26 671.00 686.37 671.00 L 670.87 671.00 L 671.57 673.25 C 673.11 678.16 691.11 734.58 691.51 735.75 C 692.01 737.21 720.00 737.59 720.00 736.13 Z M 519.60 642.01 L 730.70 642.00 L 734.08 639.73 C 735.93 638.48 738.48 635.93 739.73 634.08 L 742.00 630.70 L 742.00 541.30 C 742.00 443.31 742.35 449.00 736.00 443.66 C 734.32 442.24 731.26 440.61 729.22 440.04 C 726.71 439.35 655.75 439.02 511.50 439.05 C 283.80 439.09 293.14 438.90 287.79 443.65 C 286.65 444.67 284.89 447.30 283.88 449.50 C 282.14 453.28 282.04 458.21 282.04 541.00 C 282.04 624.20 282.14 628.70 283.91 632.60 C 287.15 639.75 294.18 643.29 303.50 642.46 C 306.25 642.22 403.50 642.01 519.60 642.01 Z M 636.07 405.39 C 650.02 401.25 659.05 393.83 664.94 381.66 C 667.11 377.17 669.18 372.04 669.52 370.25 L 670.16 367.00 L 624.08 367.00 C 593.09 367.00 578.00 367.34 578.00 368.03 C 578.00 368.60 578.93 371.84 580.08 375.23 C 585.11 390.17 596.87 401.35 612.00 405.57 C 618.41 407.35 629.72 407.27 636.07 405.39 Z M 704.76 334.73 C 720.13 326.63 722.37 305.69 709.13 293.74 C 701.56 286.90 702.89 287.00 623.50 287.00 C 542.87 287.00 545.14 286.80 537.56 294.38 C 528.00 303.95 527.46 318.56 536.29 328.59 C 540.59 333.47 543.90 335.53 549.72 336.92 C 551.83 337.43 585.66 337.76 626.50 337.67 L 699.50 337.50 L 704.76 334.73 Z M 319.99 619.07 C 312.80 616.88 307.16 612.02 304.55 605.78 C 303.21 602.56 303.00 593.99 303.00 541.50 C 303.00 492.95 303.27 480.30 304.35 477.72 C 306.53 472.50 311.07 467.88 316.46 465.37 L 321.50 463.02 L 512.55 463.01 L 703.61 463.00 L 708.90 465.64 C 715.31 468.83 719.47 474.23 721.01 481.32 C 721.79 484.91 722.04 504.26 721.82 544.50 C 721.50 601.75 721.47 602.55 719.34 606.50 C 718.15 608.70 715.67 611.94 713.83 613.71 C 706.80 620.46 721.57 620.01 512.12 619.91 C 407.83 619.87 321.37 619.48 319.99 619.07 Z M 693.00 541.50 L 693.00 492.00 L 512.50 492.00 L 332.00 492.00 L 332.00 541.50 L 332.00 591.00 L 512.50 591.00 L 693.00 591.00 L 693.00 541.50 Z M 467.24 556.01 C 462.05 552.84 459.82 548.43 460.28 542.24 C 460.56 538.42 461.33 536.28 463.08 534.40 C 468.13 528.99 467.81 529.03 511.69 528.75 C 549.74 528.52 552.75 528.63 556.23 530.36 C 561.25 532.85 564.33 538.01 564.24 543.76 C 564.17 548.86 562.10 552.28 557.01 555.75 C 553.71 557.99 553.60 558.00 512.10 558.00 C 472.35 557.99 470.35 557.90 467.24 556.01 Z" stroke-linecap="round"/>
</g>
</g>
</g>

  </svg>