<svg xmlns="http://www.w3.org/2000/svg" xmlns:xlink="http://www.w3.org/1999/xlink" width="500px" height="250px" viewBox="0 0 499.9999999999998 249.91141707498724">
    <g id="ea7ab5e5-6c21-47b0-9f6a-e556ce146acd">
<g style="">
		<g id="ea7ab5e5-6c21-47b0-9f6a-e556ce146acd-child-0">
<path style="stroke: rgb(193,193,193); stroke-width: 0; stroke-dasharray: none; stroke-linecap: butt; stroke-dashoffset: 0; stroke-linejoin: miter; stroke-miterlimit: 4; fill: rgb(0,0,0); fill-rule: nonzero; opacity: 1;" transform="matrix(0.874107 0 0 0.874107 249.999866 124.955641) matrix(1 0 0 1 0 0)  translate(-512.072867, -512.09766)" d="M 228.59 651.92 C 225.80 648.61 225.35 645.51 227.11 641.66 C 228.63 638.31 232.02 637.00 239.11 637.00 C 246.43 637.00 248.73 638.12 250.60 642.58 C 251.84 645.54 251.84 646.46 250.60 649.42 C 248.69 653.99 246.43 655.00 238.15 655.00 C 231.59 655.00 231.02 654.82 228.59 651.92 Z M 270.91 653.74 C 266.52 650.31 265.86 644.43 269.41 640.31 C 271.65 637.70 272.45 637.47 280.41 637.15 L 289.00 636.79 L 289.02 563.15 C 289.04 493.83 289.15 489.27 290.88 485.50 C 291.89 483.30 293.67 480.65 294.84 479.62 L 296.95 477.73 L 294.57 474.91 C 289.46 468.82 288.82 465.05 289.17 442.85 L 289.50 422.39 L 293.39 414.52 C 304.38 392.29 331.51 377.46 372.40 371.32 C 382.15 369.86 397.88 369.61 502.00 369.26 C 583.60 368.98 625.12 369.21 635.34 369.98 C 663.44 372.10 684.25 377.31 702.46 386.79 C 709.45 390.43 713.44 393.43 720.04 400.00 C 733.69 413.59 735.94 419.87 735.98 444.57 C 736.00 461.96 734.96 467.74 730.66 473.98 L 728.27 477.46 L 731.05 480.98 C 732.58 482.92 734.32 486.30 734.91 488.50 C 735.63 491.18 735.99 516.23 735.99 564.64 L 736.00 636.79 L 744.10 637.16 C 751.50 637.49 752.40 637.76 754.60 640.32 C 757.80 644.04 757.77 648.88 754.52 652.38 L 752.05 655.05 L 699.27 654.78 L 646.50 654.50 L 641.66 652.03 C 638.99 650.67 635.45 648.00 633.78 646.10 C 628.05 639.57 627.59 637.38 627.19 614.75 L 626.83 594.00 L 511.91 594.00 L 397.00 594.00 L 397.00 613.63 C 397.00 625.64 396.55 634.77 395.84 637.14 C 394.33 642.19 389.01 648.32 383.17 651.76 L 378.50 654.50 L 325.50 654.74 C 284.59 654.92 272.14 654.69 270.91 653.74 Z M 336.00 603.66 L 336.50 569.82 L 338.86 567.91 C 342.07 565.31 348.37 565.37 351.03 568.03 C 352.15 569.15 353.33 571.40 353.66 573.03 L 354.25 576.00 L 512.62 576.00 L 671.00 576.00 L 671.00 573.17 C 671.00 566.60 680.41 563.21 685.46 567.96 L 687.97 570.32 L 688.24 603.91 L 688.50 637.50 L 703.00 637.50 L 717.50 637.50 L 717.76 588.14 L 718.02 538.78 L 715.26 539.52 C 713.74 539.93 710.70 540.63 708.50 541.09 C 703.28 542.16 319.58 542.21 315.00 541.13 C 313.08 540.68 310.49 539.98 309.25 539.59 L 307.00 538.87 L 307.00 588.46 L 307.00 638.05 L 321.25 637.78 L 335.50 637.50 L 336.00 603.66 Z M 373.45 636.58 C 375.31 635.81 377.33 634.26 377.92 633.15 C 378.58 631.92 379.00 624.14 379.00 613.21 L 379.00 595.29 L 372.25 594.65 C 368.54 594.30 362.91 594.01 359.75 594.01 L 354.00 594.00 L 354.00 615.33 C 354.00 627.07 354.30 636.97 354.67 637.33 C 355.91 638.58 370.03 638.01 373.45 636.58 Z M 670.35 631.25 C 670.70 627.54 670.99 617.90 670.99 609.84 L 671.00 595.19 L 661.75 594.50 C 656.66 594.13 650.92 593.97 649.00 594.16 L 645.50 594.50 L 645.23 612.65 L 644.96 630.79 L 647.51 633.83 C 650.45 637.33 651.73 637.68 662.11 637.86 L 669.71 638.00 L 670.35 631.25 Z M 709.77 522.45 C 717.35 519.28 718.00 517.97 718.00 505.78 C 718.00 495.30 717.90 494.81 715.35 492.45 L 712.71 490.00 L 512.03 490.00 L 311.35 490.00 L 309.18 492.31 C 307.28 494.33 306.98 495.92 306.76 505.21 C 306.51 515.30 306.62 515.94 309.00 518.53 C 314.26 524.26 301.50 523.92 511.78 523.96 C 684.94 524.00 706.47 523.83 709.77 522.45 Z M 706.36 470.77 C 708.61 470.10 712.15 467.85 714.23 465.77 L 718.00 462.00 L 718.00 450.50 L 718.00 439.00 L 512.00 439.00 L 306.00 439.00 L 306.00 449.05 C 306.00 459.70 306.88 462.69 311.16 466.70 C 317.12 472.26 304.27 471.92 511.38 471.96 C 659.30 471.99 703.19 471.72 706.36 470.77 Z M 714.00 419.77 C 714.00 419.09 711.04 415.71 707.43 412.25 C 695.35 400.70 676.68 393.39 649.00 389.39 C 637.66 387.75 625.96 387.55 522.50 387.22 C 446.60 386.97 403.15 387.22 392.50 387.94 C 358.04 390.30 339.36 395.53 322.35 407.60 C 316.97 411.41 310.00 418.63 310.00 420.39 C 310.00 420.73 400.90 421.00 512.00 421.00 C 671.30 421.00 714.00 420.74 714.00 419.77 Z M 775.45 652.55 C 773.01 650.10 772.20 645.24 773.62 641.54 C 774.64 638.88 779.55 637.00 785.50 637.00 C 791.45 637.00 796.36 638.88 797.38 641.54 C 798.80 645.24 797.99 650.10 795.55 652.55 C 793.37 654.72 792.23 655.00 785.50 655.00 C 778.77 655.00 777.63 654.72 775.45 652.55 Z" stroke-linecap="round"/>
</g>
</g>
</g>

  </svg>