<svg xmlns="http://www.w3.org/2000/svg" xmlns:xlink="http://www.w3.org/1999/xlink" width="500px" height="259px" viewBox="0 0 500 259.046915619278">
    <g id="3ac1eed1-92ed-4fd5-8a04-ee0c26c42032">
<g style="">
		<g id="3ac1eed1-92ed-4fd5-8a04-ee0c26c42032-child-0">
<path style="stroke: rgb(193,193,193); stroke-width: 0; stroke-dasharray: none; stroke-linecap: butt; stroke-dashoffset: 0; stroke-linejoin: miter; stroke-miterlimit: 4; fill: rgb(0,0,0); fill-rule: nonzero; opacity: 1;" transform="matrix(0.93657 0 0 0.93657 249.999982 129.523449) matrix(1 0 0 1 0 0)  translate(-511.931444, -512.477591)" d="M 259.50 648.71 C 253.40 645.79 247.50 639.46 246.07 634.32 C 245.39 631.86 245.01 612.58 245.01 580.20 L 245.00 529.91 L 247.45 527.45 C 250.76 524.15 256.77 524.06 259.80 527.29 C 261.93 529.55 261.95 530.00 262.22 579.18 C 262.49 626.35 262.59 628.90 264.40 630.90 C 266.82 633.57 271.39 633.61 274.00 631.00 C 275.90 629.10 276.00 627.67 276.00 603.04 C 276.00 578.87 276.15 576.68 278.16 571.29 C 280.99 563.73 288.69 556.07 296.70 552.84 L 302.50 550.50 L 512.50 550.50 L 722.50 550.50 L 728.27 553.20 C 736.01 556.83 743.25 564.40 746.01 571.74 C 747.98 576.97 748.22 579.86 748.59 603.42 C 748.94 625.76 749.23 629.60 750.66 631.17 C 752.87 633.62 757.25 633.49 759.60 630.90 C 761.43 628.87 761.50 626.23 761.50 559.15 C 761.50 520.84 761.16 488.30 760.75 486.83 C 759.62 482.81 755.08 477.94 750.54 475.88 C 746.67 474.12 739.31 474.04 577.88 474.02 L 409.27 474.00 L 406.38 476.20 C 404.80 477.41 400.12 481.39 396.00 485.04 C 381.18 498.16 375.77 501.99 369.15 504.03 C 351.84 509.38 329.56 503.40 315.90 489.74 C 294.03 467.87 299.63 431.15 326.88 417.74 C 333.12 414.67 334.05 414.50 344.48 414.53 C 354.64 414.56 356.09 414.81 363.00 417.78 C 371.61 421.48 378.47 426.66 397.08 443.50 L 410.33 455.50 L 580.92 456.00 L 751.50 456.50 L 757.22 459.18 C 764.43 462.56 772.42 469.98 775.85 476.48 L 778.50 481.50 L 778.79 555.50 C 779.00 609.37 778.77 630.64 777.92 633.71 C 777.29 636.02 775.19 639.75 773.27 641.99 C 761.79 655.41 741.03 653.09 733.10 637.50 C 730.60 632.59 730.54 631.99 730.03 604.95 C 729.43 573.72 729.34 573.37 721.50 569.90 C 717.27 568.03 712.26 567.99 510.16 568.24 L 303.15 568.50 L 300.32 570.56 C 298.77 571.69 296.49 574.60 295.25 577.02 C 293.09 581.24 293.00 582.46 293.00 606.74 C 293.00 634.71 292.67 636.61 286.70 642.84 C 279.32 650.54 268.28 652.92 259.50 648.71 Z M 368.05 485.12 C 372.79 482.06 392.29 465.43 392.80 464.02 C 393.23 462.83 367.71 440.85 361.57 437.13 C 358.76 435.43 353.49 433.30 349.86 432.41 C 343.75 430.90 342.85 430.90 337.56 432.44 C 319.92 437.57 314.22 460.74 327.02 475.29 C 334.46 483.73 344.01 487.91 356.05 487.96 C 362.71 488.00 364.14 487.66 368.05 485.12 Z M 301.38 536.59 C 291.24 534.12 282.90 527.33 278.61 518.05 C 276.56 513.63 276.49 511.84 276.00 454.17 C 275.52 396.90 275.43 394.79 273.56 393.42 C 270.75 391.37 266.60 391.68 264.40 394.10 C 262.59 396.10 262.48 398.90 262.00 450.45 C 261.60 493.31 261.22 505.03 260.18 506.28 C 256.87 510.27 246.67 508.56 245.50 503.82 C 245.18 502.54 245.05 476.75 245.21 446.50 C 245.50 391.90 245.52 391.47 247.72 387.36 C 258.70 366.81 288.02 371.22 292.94 394.16 C 293.62 397.33 294.00 419.15 293.98 454.79 C 293.96 516.41 293.54 512.33 300.39 517.44 L 303.15 519.50 L 512.00 519.50 L 720.85 519.50 L 723.61 517.44 C 728.64 513.68 730.36 510.44 730.57 504.26 C 730.69 501.09 730.83 497.69 730.89 496.70 C 730.95 495.72 732.10 493.80 733.45 492.45 C 736.73 489.17 741.91 489.16 745.69 492.42 C 748.39 494.74 748.50 495.20 748.44 503.67 C 748.35 515.27 745.92 521.01 737.94 528.39 C 727.04 538.48 751.27 537.48 514.50 537.67 C 351.24 537.80 305.40 537.57 301.38 536.59 Z" stroke-linecap="round"/>
</g>
</g>
</g>

  </svg>