<svg xmlns="http://www.w3.org/2000/svg" xmlns:xlink="http://www.w3.org/1999/xlink" width="500px" height="445px" viewBox="0 0 499.9999999999998 444.7122108288458">
    <g id="600ac0fa-c8a2-4239-af5b-6670907cbd85">
<g style="">
		<g id="600ac0fa-c8a2-4239-af5b-6670907cbd85-child-0">
<path style="stroke: rgb(193,193,193); stroke-width: 0; stroke-dasharray: none; stroke-linecap: butt; stroke-dashoffset: 0; stroke-linejoin: miter; stroke-miterlimit: 4; fill: rgb(0,0,0); fill-rule: nonzero; opacity: 1;" transform="matrix(0.836258 0 0 0.836258 250.000077 222.356174) matrix(1 0 0 1 0 0)  translate(-512.049106, -513.026378)" d="M 226.50 778.29 C 221.41 777.06 217.77 774.46 215.34 770.32 C 213.21 766.68 212.84 765.03 213.24 760.88 C 214.59 746.78 230.95 740.95 240.98 750.98 C 247.70 757.70 247.47 767.74 240.47 773.90 C 237.63 776.38 230.92 779.30 229.00 778.88 C 228.73 778.82 227.60 778.55 226.50 778.29 Z M 789.68 777.58 C 782.41 774.93 779.00 770.02 779.00 762.20 C 779.00 753.50 785.22 746.97 794.21 746.25 C 798.56 745.90 800.12 746.24 802.98 748.18 C 808.42 751.89 811.00 756.46 811.00 762.42 C 811.00 773.65 800.12 781.39 789.68 777.58 Z M 274.88 774.56 C 268.72 770.38 266.62 760.67 270.69 755.22 C 275.21 749.16 277.07 748.53 291.46 748.17 L 304.79 747.85 L 300.65 744.01 C 295.10 738.89 290.12 730.40 287.86 722.23 C 286.13 716.01 286.00 710.68 286.00 646.44 L 286.00 577.33 L 278.10 572.19 C 246.54 551.63 238.60 510.14 260.38 479.62 C 268.78 467.85 280.72 458.91 293.43 454.89 L 300.96 452.50 L 301.00 415.50 C 301.02 395.15 301.49 375.35 302.03 371.50 C 309.22 320.97 345.28 283.56 406.50 263.13 C 490.56 235.08 603.56 244.80 664.84 285.36 C 689.32 301.57 704.99 319.78 714.43 343.00 C 721.32 359.97 722.26 367.65 722.92 412.30 L 723.50 452.09 L 730.07 454.39 C 740.99 458.20 747.08 462.08 756.13 471.00 C 763.50 478.26 765.42 480.88 769.29 489.00 C 771.79 494.23 774.32 500.88 774.92 503.80 C 776.46 511.37 776.25 525.58 774.49 532.54 C 770.43 548.56 759.26 563.96 745.45 572.57 L 738.00 577.21 L 738.00 645.47 C 738.00 686.97 737.61 715.84 736.99 719.11 C 735.57 726.74 730.74 736.03 724.85 742.47 L 719.80 748.00 L 732.06 748.00 C 743.29 748.00 744.68 748.21 748.52 750.46 C 755.40 754.49 757.40 763.38 753.04 770.44 C 748.63 777.57 769.81 777.00 511.33 777.00 L 278.46 777.00 L 274.88 774.56 Z M 645.37 742.59 C 636.56 733.49 632.24 722.78 631.30 707.75 L 630.70 698.00 L 511.85 698.00 L 393.00 698.00 L 392.98 704.75 C 392.94 719.48 388.17 732.27 378.96 742.36 L 373.80 748.00 L 512.21 748.00 L 650.61 748.00 L 645.37 742.59 Z M 349.60 729.09 C 351.86 728.07 355.29 725.65 357.23 723.71 C 364.30 716.64 364.00 721.31 364.00 616.48 C 364.00 525.31 363.94 522.07 361.98 514.43 C 357.56 497.14 345.53 484.98 328.47 480.53 C 308.94 475.45 288.53 484.85 280.20 502.78 C 277.96 507.62 277.54 509.89 277.52 517.50 C 277.50 525.33 277.87 527.31 280.37 532.72 C 285.17 543.10 295.51 551.40 306.09 553.36 C 308.06 553.73 310.63 555.05 311.80 556.29 C 313.91 558.54 313.92 558.67 314.21 635.52 C 314.53 719.82 314.21 715.36 320.48 722.80 C 326.97 730.49 340.21 733.36 349.60 729.09 Z M 693.68 729.94 C 698.89 727.99 704.11 723.67 706.81 719.07 L 709.50 714.50 L 709.77 636.55 C 710.02 566.03 710.20 558.43 711.68 556.80 C 712.58 555.80 716.31 554.10 719.96 553.01 C 734.69 548.63 744.59 537.80 746.81 523.65 C 751.16 495.90 724.06 473.10 695.53 480.53 C 687.46 482.64 681.14 486.27 675.01 492.36 C 669.09 498.21 665.99 503.10 662.76 511.58 L 660.50 517.50 L 660.22 613.40 C 659.91 719.25 659.65 714.48 666.19 722.41 C 672.11 729.60 685.11 733.16 693.68 729.94 Z M 631.00 655.00 L 631.00 640.00 L 512.00 640.00 L 393.00 640.00 L 393.00 655.00 L 393.00 670.00 L 512.00 670.00 L 631.00 670.00 L 631.00 655.00 Z M 631.00 584.00 L 631.00 557.00 L 512.00 557.00 L 393.00 557.00 L 393.00 584.00 L 393.00 611.00 L 512.00 611.00 L 631.00 611.00 L 631.00 584.00 Z M 631.37 525.75 C 631.70 524.51 631.98 521.88 631.99 519.91 C 632.01 514.13 635.71 501.08 639.56 493.24 C 644.29 483.59 653.26 472.48 661.11 466.55 C 668.90 460.67 681.27 454.53 688.67 452.87 L 694.16 451.65 L 693.76 412.07 C 693.39 375.12 693.21 371.97 691.16 364.50 C 686.44 347.27 678.47 334.40 664.24 320.95 C 641.74 299.71 606.51 285.40 559.87 278.56 C 524.41 273.36 477.57 274.79 443.00 282.14 C 382.06 295.10 344.49 323.23 332.92 364.58 C 330.84 372.00 330.67 374.99 330.27 412.07 L 329.84 451.65 L 335.67 452.94 C 351.79 456.52 368.59 468.26 378.66 483.00 C 386.30 494.18 390.54 505.40 392.18 518.71 L 393.32 528.00 L 512.04 528.00 L 630.77 528.00 L 631.37 525.75 Z M 506.91 479.04 C 498.95 476.63 494.51 469.89 495.23 461.28 C 496.01 451.85 502.43 446.00 512.00 446.00 C 521.80 446.00 529.00 452.86 529.00 462.20 C 529.00 474.10 518.08 482.43 506.91 479.04 Z M 406.42 391.21 C 395.80 383.47 396.97 368.04 408.58 362.53 C 413.56 360.17 421.54 360.83 425.96 363.97 C 429.65 366.60 432.96 373.00 432.96 377.50 C 432.96 382.03 429.64 388.41 425.91 391.06 C 423.53 392.76 420.86 393.54 416.54 393.81 C 411.12 394.14 410.08 393.88 406.42 391.21 Z M 599.39 392.10 C 593.89 388.74 591.50 384.29 591.50 377.42 C 591.50 372.27 591.94 370.77 594.38 367.57 C 598.09 362.70 602.95 360.67 609.56 361.21 C 622.57 362.29 628.89 375.94 621.55 387.09 C 620.24 389.07 617.61 391.43 615.69 392.34 C 610.95 394.59 603.29 394.47 599.39 392.10 Z" stroke-linecap="round"/>
</g>
</g>
</g>

  </svg>