<svg xmlns="http://www.w3.org/2000/svg" xmlns:xlink="http://www.w3.org/1999/xlink" width="1992px" height="1691px" viewBox="0 0 1991.8588239550527 1690.8625438013105">
    <g id="97ba1d15-222d-4ced-9036-abdbfd31b528">
<g style="">
		<g id="97ba1d15-222d-4ced-9036-abdbfd31b528-child-0">
<path style="stroke: rgb(193,193,193); stroke-width: 0; stroke-dasharray: none; stroke-linecap: butt; stroke-dashoffset: 0; stroke-linejoin: miter; stroke-miterlimit: 4; fill: rgb(0,0,0); fill-rule: nonzero; opacity: 1;" transform="matrix(2.952754 0 0 2.952754 995.929338 845.431208) matrix(1 0 0 1 0 0)  translate(-512.384211, -525.555493)" d="M 464.00 810.94 C 424.61 808.01 388.60 801.76 363.50 793.48 C 343.59 786.92 327.63 776.39 325.18 768.20 C 323.71 763.31 323.65 748.79 325.07 743.68 C 326.40 738.90 331.71 732.95 339.15 727.90 C 344.38 724.35 344.95 723.59 345.69 719.25 C 346.94 711.91 346.39 698.19 344.56 691.00 C 343.65 687.42 340.49 679.54 337.55 673.48 C 333.11 664.35 331.63 662.19 328.85 660.84 C 323.10 658.05 317.15 653.18 314.38 649.00 C 312.27 645.81 311.60 643.33 311.11 636.87 L 310.50 628.74 L 296.99 620.62 C 268.53 603.52 251.64 590.54 233.46 571.84 C 220.12 558.10 215.36 552.21 205.62 537.34 C 193.46 518.78 182.55 492.67 177.93 471.12 C 175.27 458.74 174.21 430.83 175.94 418.97 C 179.67 393.46 190.90 370.96 208.10 354.53 C 212.44 350.38 216.00 346.37 216.00 345.63 C 216.00 343.08 226.82 322.99 231.82 316.25 C 242.05 302.47 258.03 288.98 273.49 281.07 C 291.24 271.99 308.80 267.83 330.65 267.50 L 345.81 267.28 L 352.65 262.76 C 385.42 241.10 431.50 233.76 474.00 243.41 C 485.20 245.96 496.87 250.24 506.29 255.24 L 512.08 258.32 L 522.79 253.19 C 568.55 231.28 634.35 235.76 672.76 263.41 L 678.01 267.20 L 693.76 267.47 C 715.81 267.84 728.93 270.71 746.89 279.09 C 773.36 291.43 794.63 313.17 805.71 339.21 C 808.60 345.99 810.30 348.46 815.08 352.79 C 828.18 364.67 840.53 385.46 845.42 403.84 C 856.34 444.93 845.89 496.18 817.97 538.50 C 808.40 553.01 800.73 562.38 788.65 574.36 C 771.79 591.08 748.70 608.18 724.25 622.07 L 713.00 628.46 L 713.00 633.79 C 713.00 646.04 709.00 652.73 697.76 659.31 C 691.39 663.04 691.14 663.34 686.60 673.00 C 680.24 686.52 677.99 695.86 678.06 708.41 C 678.13 721.91 679.03 724.01 686.99 729.30 C 690.57 731.68 694.84 735.54 696.49 737.89 C 699.23 741.79 699.53 743.01 699.85 751.68 C 700.04 756.91 699.89 763.22 699.52 765.70 C 696.45 786.21 641.84 804.35 564.67 810.50 C 544.50 812.11 483.33 812.37 464.00 810.94 Z M 545.00 795.98 C 600.79 793.13 648.14 784.10 672.80 771.60 C 681.17 767.36 684.00 764.41 684.00 759.91 C 684.00 757.76 683.74 756.00 683.43 756.00 C 683.12 756.00 681.43 757.07 679.68 758.39 C 667.88 767.24 637.10 776.59 603.56 781.49 C 522.59 793.34 420.82 787.95 366.38 768.94 C 356.70 765.55 345.84 760.05 342.19 756.67 L 339.87 754.53 L 340.19 759.52 C 340.49 764.33 340.69 764.63 346.00 768.19 C 375.43 787.95 462.98 800.18 545.00 795.98 Z M 572.00 769.55 C 607.58 766.26 644.46 759.11 645.74 755.27 C 646.46 753.13 621.39 747.32 599.50 744.55 C 537.63 736.70 448.81 738.26 401.30 748.04 C 388.52 750.67 380.78 752.94 379.08 754.56 C 377.86 755.72 378.04 756.06 380.35 756.94 C 394.87 762.46 433.26 768.31 472.50 770.97 C 491.16 772.24 552.37 771.36 572.00 769.55 Z M 364.85 745.75 C 373.25 724.60 374.66 701.82 368.73 682.89 C 366.47 675.69 366.44 675.65 361.48 673.91 C 354.08 671.31 353.98 671.38 356.54 677.75 C 363.98 696.30 363.73 719.68 355.90 738.08 C 354.23 742.00 353.13 745.47 353.46 745.79 C 354.29 746.62 361.36 750.79 362.13 750.91 C 362.48 750.96 363.71 748.64 364.85 745.75 Z M 665.80 748.54 C 671.31 745.55 671.24 745.81 668.09 738.86 C 660.33 721.75 660.11 698.55 667.53 678.13 C 668.84 674.53 669.78 671.45 669.63 671.29 C 669.47 671.14 666.63 671.93 663.31 673.05 L 657.27 675.09 L 655.63 681.30 C 649.56 704.15 650.86 724.32 659.87 747.25 C 661.10 750.39 662.02 750.59 665.80 748.54 Z M 400.50 732.62 C 431.38 726.74 461.41 724.56 512.00 724.55 C 564.09 724.53 596.33 727.06 627.25 733.59 C 633.83 734.98 639.40 735.94 639.62 735.71 C 639.85 735.49 639.67 733.55 639.22 731.40 C 638.22 726.57 637.22 726.19 616.00 722.63 C 556.64 712.66 465.00 712.63 407.50 722.56 C 387.91 725.94 386.14 726.52 385.41 729.79 C 385.08 731.28 384.59 733.33 384.31 734.35 C 383.92 735.78 384.22 736.07 385.65 735.65 C 386.67 735.35 393.35 733.98 400.50 732.62 Z M 404.00 707.08 C 433.66 701.88 465.57 699.70 512.00 699.69 C 562.58 699.68 599.13 702.67 632.60 709.55 L 635.69 710.19 L 636.36 700.84 C 636.73 695.70 637.68 689.05 638.48 686.05 C 639.27 683.05 639.75 680.42 639.53 680.20 C 639.32 679.98 634.94 680.75 629.82 681.91 C 560.81 697.49 473.17 697.74 396.50 682.58 C 389.90 681.27 384.42 680.27 384.33 680.35 C 384.24 680.44 384.83 682.98 385.64 686.00 C 386.44 689.03 387.38 695.69 387.70 700.82 C 388.27 709.65 388.41 710.11 390.40 709.62 C 391.56 709.33 397.67 708.19 404.00 707.08 Z M 569.00 675.64 C 589.28 673.53 602.76 671.46 622.85 667.41 C 659.69 659.97 693.71 647.12 696.44 639.61 C 696.95 638.20 697.09 636.76 696.76 636.42 C 696.42 636.08 690.37 638.03 683.32 640.75 C 638.77 657.95 586.06 667.21 524.50 668.67 C 457.56 670.26 388.43 659.72 340.00 640.56 C 333.67 638.05 328.16 636.00 327.75 636.00 C 326.03 636.00 327.18 640.28 329.54 642.63 C 335.65 648.74 363.50 659.02 391.50 665.50 C 409.69 669.71 439.85 674.26 460.50 675.92 C 468.20 676.54 476.30 677.21 478.50 677.42 C 488.59 678.36 555.46 677.05 569.00 675.64 Z M 571.58 650.08 C 643.20 642.38 696.09 624.32 745.24 590.75 C 759.19 581.22 762.68 577.82 751.18 584.95 C 701.64 615.67 642.34 633.85 566.00 641.69 C 543.01 644.05 481.40 644.04 458.00 641.67 C 404.75 636.27 362.61 626.50 323.39 610.47 C 309.01 604.59 283.24 591.59 273.00 585.04 C 260.47 577.02 267.11 582.83 282.00 592.90 C 333.92 628.02 391.53 645.75 474.00 651.98 C 494.00 653.49 549.96 652.40 571.58 650.08 Z M 546.50 626.99 C 607.04 623.46 655.16 612.71 703.40 591.93 C 722.40 583.75 734.73 577.00 753.50 564.52 C 805.65 529.83 831.14 491.36 833.68 443.57 C 835.23 414.34 826.48 388.52 808.50 369.31 L 801.50 361.82 L 794.00 364.52 C 784.43 367.96 768.88 375.68 760.23 381.30 C 737.58 395.99 714.58 420.66 700.05 445.83 C 696.48 452.02 691.00 463.25 691.00 464.39 C 691.00 464.58 694.04 463.89 697.75 462.86 C 712.97 458.63 721.84 457.61 743.50 457.59 C 759.05 457.58 767.10 458.02 774.50 459.32 C 788.37 461.73 800.73 465.64 803.61 468.52 C 808.12 473.03 805.51 481.00 799.52 481.00 C 798.15 481.00 793.23 479.90 788.58 478.55 C 775.45 474.75 761.05 473.00 742.80 473.00 C 718.70 473.00 701.12 476.47 681.28 485.16 C 654.03 497.08 627.82 522.67 616.49 548.39 L 613.90 554.28 L 621.20 547.52 C 639.23 530.81 657.66 521.51 680.71 517.49 C 690.74 515.74 707.66 515.56 718.57 517.07 C 733.84 519.20 754.16 526.71 760.48 532.57 C 765.30 537.04 762.73 546.00 756.63 546.00 C 755.33 546.00 750.05 544.01 744.88 541.57 C 712.62 526.33 674.19 528.61 646.18 547.42 C 639.04 552.23 628.99 561.10 629.01 562.59 C 629.02 563.09 631.59 565.08 634.72 567.00 C 641.35 571.07 656.53 585.19 658.61 589.22 C 661.41 594.63 657.77 600.00 651.29 600.00 C 648.54 600.00 646.95 598.87 641.29 592.92 C 629.12 580.14 614.38 572.16 596.07 568.45 C 583.31 565.87 563.22 566.77 552.50 570.42 C 541.73 574.07 533.24 578.96 526.01 585.65 L 520.00 591.22 L 520.00 601.79 C 520.00 611.28 519.78 612.61 517.83 614.69 C 515.27 617.41 510.51 617.75 507.22 615.44 C 505.15 613.99 505.00 613.13 505.00 602.72 L 505.00 591.55 L 498.90 585.75 C 492.25 579.42 479.12 572.39 468.50 569.48 C 459.14 566.91 437.21 566.37 426.91 568.46 C 409.96 571.88 396.47 579.27 383.69 592.14 C 376.95 598.91 375.40 600.00 372.44 600.00 C 365.14 600.00 362.86 593.26 367.83 586.40 C 371.74 581.00 383.41 570.47 389.71 566.67 C 392.59 564.92 394.96 563.01 394.97 562.40 C 395.01 561.09 385.47 552.72 378.67 548.09 C 349.71 528.35 304.96 526.18 275.38 543.07 C 269.13 546.64 266.65 546.74 263.45 543.55 C 258.19 538.29 261.66 532.37 273.34 526.68 C 289.64 518.72 307.12 515.43 328.42 516.29 C 358.20 517.49 382.10 527.59 404.25 548.33 C 406.86 550.78 409.00 552.26 409.00 551.61 C 409.00 549.28 402.12 536.34 397.17 529.37 C 375.72 499.12 341.77 479.34 302.14 474.00 C 282.27 471.32 253.63 473.27 235.42 478.55 C 230.77 479.90 225.85 481.00 224.48 481.00 C 218.95 481.00 216.02 473.63 219.75 469.09 C 221.98 466.36 232.92 462.68 247.27 459.81 C 256.71 457.93 261.84 457.56 279.50 457.53 C 292.79 457.51 303.25 457.99 308.00 458.84 C 315.61 460.20 329.48 463.48 332.50 464.64 C 334.67 465.47 325.77 447.59 318.24 436.00 C 297.15 403.54 265.12 377.45 231.03 364.97 L 223.56 362.23 L 220.26 364.75 C 215.48 368.40 207.73 378.50 203.04 387.19 C 194.69 402.67 191.00 418.23 191.00 437.98 C 191.00 476.33 204.67 505.99 236.63 537.02 C 266.79 566.29 303.85 587.74 353.50 604.69 C 405.74 622.52 478.69 630.94 546.50 626.99 Z M 537.07 559.55 C 550.81 553.04 558.10 551.65 579.31 551.51 L 598.12 551.38 L 601.42 543.19 C 603.24 538.69 607.04 531.37 609.86 526.93 C 612.69 522.49 615.00 518.46 615.00 517.97 C 615.00 516.52 606.79 512.15 599.22 509.57 C 571.81 500.25 538.85 505.57 523.91 521.73 L 520.00 525.96 L 520.00 547.98 L 520.00 570.00 L 524.82 566.54 C 527.47 564.63 532.98 561.49 537.07 559.55 Z M 499.30 520.19 C 493.88 515.33 483.65 510.16 474.00 507.41 C 464.86 504.81 440.28 504.76 431.00 507.33 C 424.65 509.09 410.43 515.50 409.48 517.03 C 409.22 517.45 411.45 521.68 414.43 526.43 C 417.41 531.18 421.31 538.77 423.09 543.28 L 426.33 551.50 L 444.41 551.52 C 460.15 551.53 463.60 551.83 470.96 553.84 C 481.78 556.79 489.79 560.18 497.42 565.04 L 503.50 568.90 L 503.80 546.70 L 504.09 524.50 L 499.30 520.19 Z M 528.41 498.92 C 537.80 493.38 556.63 489.02 571.18 489.01 C 586.39 488.99 605.22 493.58 616.89 500.14 C 621.31 502.63 622.16 502.85 621.58 501.36 C 620.34 498.10 617.17 477.76 616.07 466.00 C 610.27 403.46 627.04 334.68 660.13 285.23 C 662.81 281.23 665.00 277.80 665.00 277.60 C 665.00 276.75 652.04 268.90 646.89 266.63 C 639.38 263.31 626.49 259.49 615.50 257.32 C 601.76 254.61 571.99 254.88 558.25 257.83 C 545.73 260.53 533.05 265.02 525.87 269.31 L 520.50 272.52 L 520.24 335.26 L 519.98 398.01 L 524.88 394.49 C 532.02 389.36 545.23 383.52 555.32 381.02 C 565.26 378.56 584.03 377.20 597.34 377.98 C 605.20 378.44 606.40 378.77 608.17 380.96 C 610.44 383.76 610.08 388.15 607.33 391.18 C 605.91 392.76 603.99 393.00 593.07 393.00 C 579.04 393.00 566.57 394.28 557.50 396.65 C 547.28 399.32 533.85 406.49 526.59 413.14 L 520.00 419.18 L 520.00 461.70 L 520.00 504.23 L 522.66 502.48 C 524.13 501.52 526.72 499.92 528.41 498.92 Z M 420.17 494.44 C 435.47 489.22 452.01 487.87 469.00 490.46 C 479.94 492.12 486.84 494.33 496.00 499.10 C 499.58 500.96 502.84 502.64 503.25 502.83 C 503.66 503.01 504.00 484.01 504.00 460.61 L 504.00 418.04 L 497.43 412.62 C 481.25 399.28 465.08 394.15 436.50 393.30 C 416.64 392.70 415.00 392.14 415.00 385.98 C 415.00 383.26 415.67 381.33 417.11 379.89 C 419.16 377.84 419.85 377.79 439.86 378.28 C 460.70 378.79 466.71 379.70 479.54 384.31 C 484.29 386.02 496.12 392.01 500.75 395.06 L 504.00 397.20 L 504.00 334.54 L 504.00 271.88 L 493.75 266.99 C 466.39 253.93 431.40 251.43 397.07 260.07 C 385.75 262.93 369.02 270.21 362.38 275.18 L 359.26 277.52 L 366.23 288.01 C 374.13 299.91 386.08 323.73 391.47 338.33 C 399.59 360.34 405.42 386.33 407.97 411.86 C 410.64 438.64 408.23 477.60 402.49 500.21 L 401.80 502.91 L 407.33 499.92 C 410.36 498.28 416.14 495.81 420.17 494.44 Z M 390.45 480.35 C 394.99 449.53 394.06 414.27 387.92 384.00 C 380.71 348.51 363.88 309.70 345.68 286.62 L 342.63 282.74 L 328.06 283.27 C 305.49 284.09 288.18 289.36 271.55 300.45 C 255.63 311.07 242.76 325.33 235.52 340.39 C 231.59 348.55 231.48 349.00 233.25 349.01 C 233.94 349.01 239.46 351.16 245.52 353.78 C 292.54 374.12 332.67 416.66 350.55 465.14 C 353.18 472.26 353.68 472.93 357.94 475.00 C 363.49 477.69 376.86 486.41 382.99 491.33 C 388.38 495.66 388.14 496.01 390.45 480.35 Z M 639.49 493.01 C 641.90 490.35 656.92 480.12 664.89 475.71 C 671.23 472.20 671.31 472.10 674.52 463.81 C 689.33 425.49 716.27 391.75 750.04 369.21 C 758.73 363.41 776.62 354.28 785.77 350.98 C 792.84 348.43 792.79 348.63 788.25 339.50 C 777.87 318.64 756.67 299.42 734.72 290.95 C 720.73 285.56 711.03 283.77 695.00 283.63 L 680.50 283.50 L 673.69 293.50 C 658.79 315.37 643.85 350.79 637.63 379.00 C 632.40 402.74 631.51 411.64 631.51 440.50 C 631.50 466.12 632.12 474.58 635.11 489.75 C 636.25 495.53 636.82 495.96 639.49 493.01 Z" stroke-linecap="round"/>
</g>
</g>
</g>

  </svg>