<svg xmlns="http://www.w3.org/2000/svg" xmlns:xlink="http://www.w3.org/1999/xlink" width="467px" height="500px" viewBox="0 0 466.62698475423804 499.9999999999998">
    <g id="a159c8ff-7378-44b8-ab0b-1c809695028b">
<g style="">
		<g id="a159c8ff-7378-44b8-ab0b-1c809695028b-child-0">
<path style="stroke: rgb(193,193,193); stroke-width: 0; stroke-dasharray: none; stroke-linecap: butt; stroke-dashoffset: 0; stroke-linejoin: miter; stroke-miterlimit: 4; fill: rgb(0,0,0); fill-rule: nonzero; opacity: 1;" transform="matrix(0.836516 0 0 0.836516 233.313543 250.000054) matrix(1 0 0 1 0 0)  translate(-511.978029, -511.859897)" d="M 285.50 809.53 C 277.05 807.67 271.55 805.34 263.63 800.28 C 250.77 792.06 241.72 780.58 236.63 766.04 C 233.79 757.94 233.62 756.53 233.26 738.50 C 232.82 716.69 233.51 713.96 240.24 710.67 C 244.73 708.48 249.25 709.51 253.10 713.61 C 255.42 716.07 255.52 716.85 256.09 735.83 C 256.57 751.63 257.05 756.39 258.52 760.00 C 264.13 773.74 274.38 782.78 288.53 786.47 C 293.74 787.82 319.71 788.00 511.66 788.00 C 668.70 788.00 730.37 787.69 734.20 786.88 C 745.37 784.51 756.99 775.95 762.30 766.19 C 768.14 755.45 768.00 758.35 768.00 652.19 L 768.00 554.80 L 764.75 556.97 C 762.96 558.17 758.24 560.73 754.25 562.68 L 747.00 566.22 L 746.98 657.86 C 746.96 744.34 746.85 749.73 745.14 753.51 C 742.84 758.55 737.19 763.57 732.28 764.94 C 726.80 766.46 296.99 766.40 291.50 764.88 C 286.29 763.43 279.57 756.71 278.12 751.50 C 277.35 748.71 277.01 720.18 277.01 656.91 L 277.00 566.33 L 268.26 562.00 C 252.81 554.34 239.79 539.05 235.40 523.42 C 233.27 515.81 232.23 473.28 233.88 461.04 C 236.14 444.21 242.99 430.76 254.85 419.90 C 267.05 408.72 282.46 403.05 300.75 403.02 L 310.00 403.00 L 310.02 336.25 C 310.04 262.04 310.05 261.87 316.60 248.19 C 321.71 237.51 334.33 224.85 345.00 219.67 C 359.67 212.55 348.45 213.00 511.96 213.01 C 639.81 213.03 660.35 213.23 665.89 214.53 C 674.31 216.52 686.13 222.80 693.21 229.05 C 700.40 235.40 708.27 247.08 711.22 255.79 C 713.49 262.48 713.50 262.67 713.78 332.62 L 714.06 402.74 L 726.78 403.24 C 737.37 403.67 740.75 404.21 746.98 406.51 C 767.25 413.97 782.61 430.18 788.70 450.53 C 790.37 456.12 790.50 465.85 790.76 603.71 C 791.07 766.55 791.37 758.42 784.65 772.46 C 776.40 789.71 763.91 800.76 744.02 808.38 L 738.50 810.50 L 515.00 810.68 C 332.75 810.82 290.39 810.61 285.50 809.53 Z M 724.00 655.50 L 724.00 568.00 L 512.00 568.00 L 300.00 568.00 L 300.00 655.50 L 300.00 743.00 L 512.00 743.00 L 724.00 743.00 L 724.00 655.50 Z M 738.76 543.57 C 750.07 540.57 758.75 533.32 764.13 522.39 L 767.50 515.54 L 767.50 487.02 C 767.50 460.36 767.36 458.17 765.41 453.41 C 762.15 445.49 757.35 439.25 750.78 434.42 C 739.00 425.75 761.85 426.50 511.00 426.50 L 288.50 426.50 L 283.00 428.76 C 271.72 433.41 263.40 441.73 258.77 453.00 C 256.60 458.27 256.51 459.70 256.50 487.00 L 256.50 515.50 L 259.14 521.12 C 263.94 531.36 273.37 539.73 283.91 543.10 C 289.21 544.80 301.05 544.89 511.50 544.93 C 698.81 544.97 734.32 544.76 738.76 543.57 Z M 354.00 337.71 L 354.00 272.42 L 356.25 267.97 C 357.80 264.91 360.03 262.58 363.42 260.51 L 368.34 257.50 L 512.00 257.50 L 655.66 257.50 L 660.50 260.50 C 663.68 262.47 666.14 265.01 667.67 267.91 L 670.00 272.31 L 670.00 337.66 L 670.00 403.00 L 680.53 403.00 L 691.05 403.00 L 690.78 334.75 L 690.50 266.50 L 688.20 260.80 C 685.49 254.10 678.92 246.43 672.25 242.19 C 661.89 235.59 671.60 235.95 509.95 236.24 L 363.50 236.50 L 357.72 238.83 C 346.62 243.31 336.86 254.99 334.06 267.11 C 333.43 269.83 333.04 296.59 333.02 337.25 L 333.00 403.00 L 343.50 403.00 L 354.00 403.00 L 354.00 337.71 Z M 647.76 341.75 L 647.50 280.50 L 512.25 280.25 L 377.00 279.99 L 377.00 341.50 L 377.00 403.00 L 512.51 403.00 L 648.02 403.00 L 647.76 341.75 Z M 240.50 677.57 C 238.85 676.86 236.60 675.27 235.50 674.03 C 233.58 671.89 233.49 670.18 233.23 633.65 C 232.98 596.77 233.04 595.39 235.01 592.19 C 239.15 585.45 247.57 584.72 253.10 590.61 L 255.50 593.16 L 255.78 631.70 C 256.03 665.14 255.86 670.56 254.52 672.61 C 251.33 677.48 245.25 679.63 240.50 677.57 Z M 351.92 710.66 C 348.85 709.40 344.69 707.10 342.68 705.57 C 337.60 701.69 331.38 692.02 330.09 685.97 C 329.46 683.06 329.00 669.87 329.00 655.04 C 329.00 632.42 329.24 628.41 330.90 623.06 C 333.89 613.47 340.46 605.96 350.00 601.23 L 355.50 598.50 L 512.00 598.50 L 668.50 598.50 L 674.16 601.28 C 681.88 605.07 687.58 610.90 691.35 618.84 L 694.50 625.50 L 694.50 655.50 L 694.50 685.50 L 691.35 692.15 C 687.48 700.31 681.61 706.35 674.15 709.85 L 668.50 712.50 L 513.00 712.73 L 357.50 712.96 L 351.92 710.66 Z M 665.44 688.03 C 671.29 684.42 671.50 683.26 671.50 655.10 C 671.50 631.61 671.34 629.27 669.60 626.70 C 665.48 620.62 675.92 621.00 511.80 621.00 C 366.51 621.01 361.40 621.07 358.42 622.89 C 352.51 626.49 352.00 629.12 352.00 655.95 C 352.00 682.70 352.33 684.40 358.30 688.04 C 361.44 689.95 364.50 689.99 511.88 690.00 C 659.65 690.00 662.32 689.97 665.44 688.03 Z M 287.17 520.86 C 284.64 519.60 281.73 517.03 280.17 514.68 C 277.50 510.66 277.50 510.63 277.20 488.11 C 276.86 463.05 277.44 459.71 283.20 453.96 C 289.61 447.54 271.92 448.00 512.46 448.00 L 731.69 448.00 L 736.09 450.33 C 738.52 451.61 741.85 454.57 743.50 456.91 L 746.50 461.17 L 746.82 484.18 C 747.14 507.12 747.13 507.22 744.60 512.35 C 743.06 515.47 740.59 518.49 738.35 520.00 L 734.65 522.50 L 513.07 522.75 L 291.50 523.01 L 287.17 520.86 Z M 724.00 486.00 L 724.00 471.00 L 512.00 471.00 L 300.00 471.00 L 300.00 486.00 L 300.00 501.00 L 512.00 501.00 L 724.00 501.00 L 724.00 486.00 Z M 416.31 376.06 C 414.56 374.99 412.65 373.21 412.06 372.12 C 410.50 369.20 410.77 362.78 412.56 360.22 C 416.36 354.79 412.37 355.00 512.70 355.00 C 604.01 355.01 605.55 355.04 608.81 357.03 C 615.55 361.13 616.28 369.57 610.39 375.10 L 607.84 377.50 L 513.67 377.75 C 421.80 378.00 419.42 377.96 416.31 376.06 Z M 414.40 327.60 C 410.47 323.67 409.86 318.74 412.71 313.92 C 416.07 308.23 417.63 308.00 453.50 308.00 C 489.48 308.00 491.56 308.31 494.54 314.09 C 497.11 319.05 496.43 323.77 492.60 327.60 L 489.20 331.00 L 453.50 331.00 L 417.80 331.00 L 414.40 327.60 Z M 533.30 329.04 C 528.63 326.19 527.10 320.51 529.62 315.35 C 533.12 308.18 534.11 308.00 571.35 308.00 C 607.50 308.00 609.55 308.30 612.54 314.09 C 615.11 319.05 614.43 323.77 610.60 327.60 L 607.20 331.00 L 571.85 331.00 C 538.58 330.99 536.31 330.88 533.30 329.04 Z M 381.42 666.03 C 378.03 664.66 374.00 659.14 374.00 655.87 C 374.00 651.65 376.54 647.29 380.06 645.47 C 382.62 644.14 387.00 643.95 408.63 644.20 L 434.17 644.50 L 437.08 647.77 C 440.46 651.54 441.08 658.01 438.44 661.78 C 435.04 666.63 432.78 667.00 407.30 666.94 C 394.21 666.90 382.56 666.49 381.42 666.03 Z M 480.30 666.30 C 479.09 666.07 476.72 664.31 475.05 662.40 C 469.78 656.40 471.54 648.09 478.72 645.12 C 480.76 644.27 503.03 644.04 562.33 644.23 L 643.16 644.50 L 646.08 647.77 C 649.49 651.58 650.08 658.02 647.37 661.88 C 643.72 667.09 645.05 667.01 560.78 666.86 C 517.73 666.79 481.51 666.54 480.30 666.30 Z" stroke-linecap="round"/>
</g>
</g>
</g>

  </svg>