<svg xmlns="http://www.w3.org/2000/svg" xmlns:xlink="http://www.w3.org/1999/xlink" width="472px" height="500px" viewBox="0 0 472.3283132644979 500">
    <g id="5078972d-f77d-41fe-8ca9-d2c42cc9a177">
<g style="">
		<g id="5078972d-f77d-41fe-8ca9-d2c42cc9a177-child-0">
<path style="stroke: rgb(193,193,193); stroke-width: 0; stroke-dasharray: none; stroke-linecap: butt; stroke-dashoffset: 0; stroke-linejoin: miter; stroke-miterlimit: 4; fill: rgb(0,0,0); fill-rule: nonzero; opacity: 1;" transform="matrix(0.863917 0 0 0.863917 236.164221 250.000069) matrix(1 0 0 1 0 0)  translate(-511.835528, -512.460911)" d="M 297.35 800.58 C 283.78 797.29 272.70 788.24 266.25 775.19 L 262.50 767.59 L 262.60 751.54 C 262.67 740.38 264.26 719.53 267.84 683.00 C 275.47 605.02 284.00 516.08 284.00 514.56 C 284.00 513.72 281.41 512.63 277.05 511.65 C 251.87 505.96 235.34 483.40 238.97 459.65 C 241.76 441.38 253.36 427.56 271.58 420.82 C 277.14 418.76 279.53 418.60 311.25 418.23 L 345.00 417.84 L 345.00 358.51 C 345.00 293.55 345.16 291.29 350.90 276.41 C 359.35 254.51 378.07 236.30 400.56 228.11 C 414.85 222.90 416.14 222.85 516.50 223.21 C 601.94 223.51 609.98 223.68 615.44 225.30 C 631.58 230.11 641.28 235.55 652.33 246.00 C 664.08 257.11 671.59 269.12 676.19 284.17 C 678.40 291.38 678.44 292.54 678.76 354.75 L 679.08 418.00 L 709.79 418.02 C 743.05 418.04 749.63 418.75 758.69 423.34 C 775.59 431.91 785.21 447.20 785.20 465.50 C 785.20 479.77 778.82 493.43 768.25 501.80 C 762.84 506.08 752.75 510.72 746.07 511.99 C 743.09 512.55 740.44 513.22 740.19 513.48 C 739.93 513.74 740.47 521.27 741.38 530.22 C 743.49 550.84 752.62 646.01 758.02 703.50 C 763.51 762.11 763.47 764.60 756.66 777.47 C 747.74 794.33 727.70 804.41 709.35 801.27 C 695.18 798.84 681.47 788.83 675.13 776.26 C 670.96 767.99 670.43 765.16 668.04 738.00 C 666.90 725.08 665.70 712.59 665.37 710.25 L 664.77 706.00 L 511.93 706.00 L 359.09 706.00 L 358.60 709.25 C 358.33 711.04 357.39 720.60 356.51 730.50 C 354.00 758.88 353.08 765.78 351.06 771.09 C 342.63 793.28 319.53 805.96 297.35 800.58 Z M 314.58 769.39 C 320.98 766.36 322.14 762.92 324.17 741.10 C 327.66 703.69 334.98 626.28 338.95 585.00 C 341.14 562.17 343.39 538.65 343.94 532.72 C 344.50 526.80 344.68 519.93 344.34 517.47 L 343.73 513.00 L 329.60 513.00 L 315.47 513.00 L 309.12 579.75 C 299.98 675.76 299.29 683.06 295.99 718.79 C 294.34 736.55 293.00 752.97 293.00 755.29 C 293.01 767.10 304.12 774.36 314.58 769.39 Z M 726.57 766.77 C 730.17 762.84 732.17 757.23 731.43 753.13 C 731.16 751.68 730.05 741.05 728.96 729.50 C 716.25 595.08 711.78 548.16 710.51 535.50 C 709.68 527.25 709.00 518.81 709.00 516.75 L 709.00 513.00 L 694.50 513.00 L 680.00 513.00 L 680.00 522.39 C 680.00 527.55 681.59 548.36 683.53 568.64 C 687.33 608.40 695.77 699.55 699.03 736.00 C 701.26 760.95 702.30 764.74 707.95 768.66 C 710.97 770.76 712.38 771.07 717.39 770.74 C 722.65 770.39 723.65 769.96 726.57 766.77 Z M 661.98 673.75 C 661.97 673.06 661.30 666.42 660.50 659.00 C 659.70 651.58 659.03 645.16 659.02 644.75 C 659.01 644.34 592.85 644.00 512.00 644.00 C 431.15 644.00 364.99 644.34 364.97 644.75 C 364.95 645.16 364.29 651.80 363.49 659.50 C 362.69 667.20 362.03 673.84 362.02 674.25 C 362.01 674.66 429.50 675.00 512.00 675.00 C 631.34 675.00 662.00 674.74 661.98 673.75 Z M 655.55 608.75 C 654.96 604.32 653.00 584.45 653.00 582.89 C 653.00 582.37 594.22 582.00 512.06 582.00 L 371.12 582.00 L 370.57 586.25 C 369.75 592.45 368.00 609.67 368.00 611.46 C 368.00 612.84 383.03 613.00 512.06 613.00 L 656.12 613.00 L 655.55 608.75 Z M 649.49 547.25 C 649.08 545.19 648.47 487.48 648.13 419.00 L 647.50 294.50 L 645.33 289.22 C 639.08 273.98 627.31 262.35 612.46 256.75 L 606.50 254.50 L 515.00 254.19 C 448.29 253.96 422.01 254.19 418.00 255.04 C 400.94 258.64 385.96 271.85 378.90 289.50 L 376.50 295.50 L 375.87 419.50 C 375.53 487.70 374.92 545.19 374.52 547.25 L 373.78 551.00 L 512.00 551.00 L 650.22 551.00 L 649.49 547.25 Z M 345.00 465.50 L 345.00 449.00 L 313.66 449.00 C 282.87 449.00 282.24 449.04 277.96 451.30 C 273.04 453.90 268.99 460.30 269.02 465.41 C 269.07 471.81 274.08 479.05 280.00 481.28 C 280.83 481.59 295.79 481.88 313.25 481.92 L 345.00 482.00 L 345.00 465.50 Z M 746.22 479.76 C 751.20 476.96 754.00 471.72 754.00 465.19 C 754.00 459.17 751.12 454.48 745.47 451.28 C 741.59 449.08 740.79 449.03 710.25 449.02 L 679.00 449.00 L 679.00 465.50 L 679.00 482.00 L 710.61 482.00 C 741.51 482.00 742.32 481.95 746.22 479.76 Z M 412.02 516.31 C 410.11 515.31 407.52 512.97 406.27 511.10 L 404.00 507.70 L 404.00 435.10 C 404.00 367.98 404.14 362.24 405.75 359.02 C 411.19 348.19 427.40 348.17 433.15 358.98 C 434.90 362.28 435.00 366.31 435.00 434.50 C 435.00 502.69 434.90 506.72 433.15 509.98 C 430.44 515.04 426.88 517.27 420.79 517.72 C 417.03 518.00 414.49 517.59 412.02 516.31 Z M 469.22 516.34 C 467.41 515.45 464.94 513.32 463.72 511.61 L 461.50 508.50 L 461.24 403.42 L 460.97 298.34 L 463.24 295.01 C 467.08 289.36 470.45 287.50 476.82 287.50 C 483.35 287.50 487.87 290.04 490.77 295.33 C 492.38 298.28 492.50 305.71 492.50 403.00 L 492.50 507.50 L 490.23 511.14 C 486.24 517.57 476.57 519.96 469.22 516.34 Z M 538.99 515.75 C 537.17 514.51 534.74 512.23 533.59 510.68 C 531.50 507.85 531.50 507.82 531.50 403.18 C 531.50 305.72 531.62 298.28 533.23 295.33 C 538.73 285.28 552.59 284.36 559.62 293.57 L 562.50 297.34 L 562.50 402.60 C 562.50 507.83 562.50 507.85 560.41 510.68 C 556.86 515.46 552.22 518.00 547.00 518.00 C 543.77 518.00 541.26 517.30 538.99 515.75 Z M 597.02 516.25 C 595.11 515.29 592.52 512.97 591.27 511.10 L 589.00 507.70 L 589.00 434.58 L 589.00 361.46 L 591.53 357.74 C 598.14 348.01 612.38 348.68 618.45 359.00 C 620.47 362.45 620.50 363.44 620.25 434.91 C 620.02 502.63 619.88 507.51 618.20 510.40 C 614.05 517.51 604.67 520.09 597.02 516.25 Z" stroke-linecap="round"/>
</g>
</g>
</g>

  </svg>