<svg xmlns="http://www.w3.org/2000/svg" xmlns:xlink="http://www.w3.org/1999/xlink" width="500px" height="488px" viewBox="0 0 500 487.9819417945086">
    <g id="7882d672-2222-49aa-8e07-96a9129d4a99">
<g style="">
		<g id="7882d672-2222-49aa-8e07-96a9129d4a99-child-0">
<path style="stroke: rgb(193,193,193); stroke-width: 0; stroke-dasharray: none; stroke-linecap: butt; stroke-dashoffset: 0; stroke-linejoin: miter; stroke-miterlimit: 4; fill: rgb(0,0,0); fill-rule: nonzero; opacity: 1;" transform="matrix(0.737118 0 0 0.737118 249.999921 243.990894) matrix(1 0 0 1 0 0)  translate(-511.636815, -512.993439)" d="M 186.04 841.75 C 175.79 836.49 175.35 823.02 185.24 816.99 C 188.48 815.02 190.96 815.01 512.10 815.00 L 835.70 815.00 L 839.10 817.27 C 848.59 823.61 847.99 836.61 837.96 841.75 L 833.58 844.00 L 512.00 844.00 L 190.42 844.00 L 186.04 841.75 Z M 462.50 794.13 C 442.88 788.50 427.69 771.03 424.98 751.00 C 423.55 740.41 424.41 725.69 426.69 721.81 C 429.39 717.22 434.49 714.79 440.35 715.30 C 444.29 715.65 445.87 716.40 448.85 719.38 L 452.50 723.03 L 453.08 736.76 C 453.74 752.53 455.08 756.34 462.05 762.31 C 473.02 771.70 488.52 768.33 495.63 755.00 C 497.43 751.62 497.50 745.69 497.50 587.50 L 497.50 423.51 L 493.53 423.85 C 487.18 424.40 473.52 428.71 465.71 432.64 C 444.71 443.21 429.00 458.82 420.45 477.59 C 414.41 490.88 413.71 492.07 410.71 494.20 C 402.83 499.82 392.82 496.62 388.37 487.05 C 386.95 484.00 384.28 478.35 382.44 474.50 C 371.52 451.71 347.51 433.25 319.23 425.90 C 309.42 423.35 289.18 422.34 279.00 423.88 C 254.19 427.66 231.17 440.68 216.57 459.19 C 210.32 467.10 209.05 469.30 202.05 484.24 C 198.54 491.72 197.38 493.28 194.02 494.99 C 184.79 499.70 175.07 495.04 172.61 484.73 C 170.89 477.52 186.32 437.27 200.45 412.09 C 233.65 352.93 285.35 304.06 346.50 274.02 C 390.24 252.53 434.58 241.06 484.93 238.20 L 497.36 237.50 L 497.46 214.40 C 497.55 194.10 497.78 190.98 499.34 188.61 C 505.50 179.20 519.82 179.96 525.15 189.98 C 526.79 193.08 527.00 195.98 527.00 215.73 L 527.00 238.00 L 533.75 238.00 C 537.46 238.00 545.45 238.45 551.50 239.00 C 598.80 243.29 648.58 257.97 687.79 279.18 C 701.12 286.39 728.12 304.10 738.50 312.46 C 791.01 354.70 828.15 407.38 847.46 467.00 C 851.86 480.57 851.90 485.83 847.62 491.43 C 840.22 501.14 826.38 497.41 821.58 484.42 C 805.69 441.40 760.63 416.64 712.50 424.47 C 678.21 430.05 648.97 452.96 637.88 482.92 C 633.88 493.72 627.45 498.25 618.49 496.56 C 613.63 495.65 608.81 490.48 606.22 483.41 C 600.95 469.04 587.51 451.69 574.60 442.58 C 561.71 433.50 544.75 426.09 532.43 424.15 L 527.00 423.30 L 526.98 585.40 C 526.97 722.20 526.74 748.55 525.53 754.26 C 523.36 764.50 517.96 773.85 509.73 781.62 C 496.26 794.32 479.04 798.89 462.50 794.13 Z M 389.46 426.75 C 396.12 373.15 422.16 316.06 457.73 277.11 L 465.39 268.72 L 459.44 269.41 C 379.99 278.61 306.93 319.34 253.89 384.00 C 245.24 394.54 236.76 406.09 237.28 406.61 C 237.43 406.77 241.48 405.32 246.28 403.39 C 251.08 401.47 260.06 398.71 266.25 397.27 C 275.96 395.02 279.76 394.66 294.00 394.65 C 312.06 394.63 323.97 396.52 338.23 401.64 C 353.49 407.12 372.00 417.89 382.50 427.39 C 385.25 429.88 387.80 431.93 388.16 431.96 C 388.52 431.98 389.11 429.64 389.46 426.75 Z M 644.51 425.22 C 683.72 393.67 734.30 385.64 778.95 403.90 C 783.04 405.57 786.55 406.79 786.74 406.60 C 787.42 405.91 771.89 385.89 761.71 374.32 C 716.29 322.72 656.14 287.26 591.50 273.99 C 581.23 271.88 563.28 269.00 560.39 269.00 C 559.35 269.00 560.94 271.32 564.81 275.46 C 601.64 314.83 628.42 372.71 634.57 426.25 C 634.93 429.41 635.42 432.00 635.66 432.00 C 635.89 432.00 639.87 428.95 644.51 425.22 Z M 425.80 424.65 C 453.69 402.38 482.20 392.95 517.50 394.32 C 525.75 394.64 535.76 395.62 539.75 396.49 C 561.55 401.27 581.80 411.10 599.41 425.46 L 605.31 430.28 L 604.67 423.39 C 603.26 408.40 594.52 379.08 585.43 358.85 C 570.55 325.73 545.43 293.14 519.76 273.62 L 512.03 267.74 L 508.26 270.55 C 470.89 298.46 441.61 341.70 426.63 391.14 C 422.94 403.31 417.49 430.00 418.69 430.00 C 418.92 430.00 422.12 427.59 425.80 424.65 Z" stroke-linecap="round"/>
</g>
</g>
</g>

  </svg>