<svg xmlns="http://www.w3.org/2000/svg" xmlns:xlink="http://www.w3.org/1999/xlink" width="500px" height="365px" viewBox="0 0 499.9999999999998 364.8905318896531">
    <g id="12bdecbd-a183-4af5-a0e7-e8ce08f5f701">
<g style="">
		<g id="12bdecbd-a183-4af5-a0e7-e8ce08f5f701-child-0">
<path style="stroke: rgb(193,193,193); stroke-width: 0; stroke-dasharray: none; stroke-linecap: butt; stroke-dashoffset: 0; stroke-linejoin: miter; stroke-miterlimit: 4; fill: rgb(0,0,0); fill-rule: nonzero; opacity: 1;" transform="matrix(1.057715 0 0 1.057715 250.000019 182.44528) matrix(1 0 0 1 0 0)  translate(-512.248583, -511.509999)" d="M 279.35 680.55 L 275.89 677.09 L 276.23 628.80 C 276.56 581.31 276.60 580.39 278.87 574.00 C 283.44 561.17 287.96 553.97 297.47 544.46 C 304.55 537.37 308.34 534.48 315.00 531.07 C 319.67 528.67 323.56 526.67 323.64 526.61 C 323.72 526.55 322.96 523.35 321.95 519.50 C 319.42 509.87 319.45 496.48 322.01 486.41 C 325.28 473.60 342.12 427.97 344.35 425.88 C 347.65 422.81 353.29 423.37 356.41 427.08 C 357.83 428.77 359.00 430.96 359.00 431.95 C 359.00 432.95 354.76 445.41 349.59 459.66 C 336.54 495.56 335.32 502.60 339.62 517.09 L 341.07 521.96 L 347.28 521.34 C 350.70 521.00 353.58 520.67 353.68 520.60 C 353.77 520.53 353.00 518.01 351.96 514.99 C 350.81 511.66 350.05 506.69 350.03 502.35 C 350.00 494.15 350.58 492.31 367.88 446.03 C 373.94 429.83 378.70 416.37 378.46 416.12 C 378.21 415.88 370.47 415.09 361.26 414.38 C 320.95 411.23 287.92 407.05 282.88 404.44 C 281.38 403.66 279.22 401.72 278.08 400.11 C 276.16 397.41 276.00 395.82 276.00 379.17 C 276.00 361.19 276.01 361.15 278.62 358.04 C 282.60 353.31 285.94 352.06 300.30 349.94 C 348.74 342.79 420.93 339.02 509.50 339.02 C 601.37 339.01 677.14 342.90 724.26 350.03 C 738.11 352.12 740.94 353.18 745.50 357.98 L 748.50 361.13 L 748.50 378.99 C 748.50 395.59 748.35 397.05 746.40 399.68 C 745.24 401.23 742.92 403.31 741.23 404.29 C 737.85 406.27 720.37 409.04 693.50 411.85 C 684.15 412.83 676.59 414.05 676.69 414.57 C 676.79 415.08 681.19 426.94 686.46 440.91 C 699.90 476.55 702.87 485.61 703.98 494.36 C 705.04 502.68 704.11 513.12 701.58 521.45 C 700.75 524.18 700.17 526.47 700.29 526.55 C 700.40 526.63 703.39 528.15 706.93 529.93 C 723.26 538.12 734.12 548.92 741.95 564.77 C 748.50 578.00 749.14 585.20 748.33 636.50 L 747.67 678.50 L 744.62 681.35 C 741.58 684.19 741.53 684.20 730.54 683.81 C 721.68 683.49 718.68 682.98 715.37 681.25 C 710.04 678.45 703.67 671.19 702.18 666.19 C 701.37 663.51 701.00 651.33 701.00 627.82 C 701.00 587.85 700.68 585.78 693.39 577.98 C 690.86 575.28 686.67 572.22 683.71 570.91 C 678.51 568.60 678.39 568.60 622.64 568.19 L 566.77 567.78 L 567.18 578.64 C 567.54 588.08 567.97 590.24 570.43 595.18 C 574.17 602.70 579.14 607.70 590.28 615.18 C 608.67 627.51 619.50 640.69 624.69 657.07 L 627.43 665.73 L 636.37 666.37 C 641.29 666.71 653.96 667.00 664.54 667.00 C 686.19 667.00 687.57 667.40 688.63 674.06 C 689.09 676.95 688.70 678.21 686.51 680.81 L 683.82 684.00 L 637.86 684.00 C 588.56 684.00 589.08 684.05 584.39 678.85 C 583.22 677.56 581.07 674.41 579.60 671.85 C 575.27 664.31 569.65 658.66 559.78 651.92 C 544.20 641.27 535.78 632.22 528.08 617.82 C 521.66 605.84 518.00 589.83 518.00 573.78 L 518.00 568.00 L 512.15 568.00 L 506.31 568.00 L 505.67 579.75 C 504.02 610.32 490.68 634.02 465.98 650.23 C 455.58 657.06 448.28 664.20 444.54 671.21 C 442.98 674.12 440.77 677.56 439.61 678.85 C 434.93 684.05 435.40 684.00 386.61 684.00 L 341.11 684.00 L 338.33 681.61 C 334.59 678.39 334.36 671.75 337.88 668.89 C 340.05 667.14 342.24 667.00 368.07 667.00 L 395.92 667.00 L 397.00 662.75 C 398.73 655.89 402.98 646.34 407.23 639.77 C 412.57 631.50 420.52 624.07 432.46 616.20 C 444.60 608.19 450.40 602.54 453.54 595.70 C 456.16 589.95 458.30 578.26 457.82 572.33 L 457.50 568.50 L 401.50 568.50 C 346.41 568.50 345.42 568.53 340.88 570.64 C 334.26 573.70 328.60 579.21 325.88 585.26 C 323.57 590.39 323.51 591.28 323.01 628.00 C 322.61 657.47 322.20 666.04 321.11 668.00 C 317.78 673.97 313.57 678.06 307.80 680.94 C 302.27 683.70 300.77 684.00 292.24 684.00 C 282.81 684.00 282.80 684.00 279.35 680.55 Z M 430.21 660.00 C 435.68 650.94 441.65 645.17 455.11 635.93 C 477.15 620.81 486.33 604.83 487.70 579.25 L 488.31 567.90 L 481.91 568.20 L 475.50 568.50 L 474.91 580.50 C 474.40 590.96 473.91 593.47 471.14 600.08 C 466.52 611.07 460.34 618.16 447.47 627.23 C 433.29 637.22 426.55 643.20 422.33 649.55 C 418.44 655.42 414.67 664.65 415.57 666.11 C 415.90 666.65 418.45 666.96 421.23 666.80 L 426.29 666.50 L 430.21 660.00 Z M 608.00 664.63 C 608.00 661.01 601.60 649.10 596.59 643.40 C 594.13 640.60 586.66 634.57 580.00 630.00 C 557.22 614.38 549.43 601.43 548.74 578.00 L 548.46 568.50 L 542.48 568.50 L 536.50 568.50 L 536.19 573.47 C 535.73 580.76 537.76 594.24 540.42 601.58 C 545.64 615.97 554.41 626.48 570.00 637.06 C 580.89 644.44 590.16 653.43 594.50 660.80 C 597.51 665.91 598.69 666.61 604.75 666.86 C 607.54 666.98 608.00 666.66 608.00 664.63 Z M 730.98 629.25 C 730.96 587.40 730.45 582.51 724.85 571.00 C 720.30 561.63 708.96 550.66 698.63 545.65 L 690.75 541.82 L 685.88 546.61 L 681.02 551.41 L 686.87 553.53 C 699.52 558.11 709.14 566.43 714.56 577.50 L 717.50 583.50 L 718.00 621.67 L 718.50 659.84 L 721.00 662.53 C 723.65 665.38 726.37 666.83 729.25 666.94 C 730.89 667.00 731.00 664.57 730.98 629.25 Z M 301.46 664.43 C 305.65 661.69 306.00 658.56 306.01 623.10 C 306.02 597.84 306.36 588.22 307.39 584.35 C 310.77 571.67 319.65 561.45 332.73 555.21 L 340.50 551.50 L 492.50 550.98 C 636.22 550.49 644.80 550.36 650.00 548.64 C 669.86 542.04 682.83 528.14 686.07 509.98 C 688.28 497.62 687.60 495.19 664.02 431.75 L 657.79 415.00 L 654.15 415.12 C 652.14 415.18 649.29 415.52 647.81 415.87 L 645.13 416.50 L 650.92 432.00 C 667.91 477.45 673.09 491.99 673.97 496.73 C 676.77 511.79 667.56 527.69 651.74 535.11 L 644.50 538.50 L 492.00 539.00 L 339.50 539.50 L 332.88 542.08 C 322.81 546.00 317.13 549.68 310.00 556.92 C 303.19 563.83 298.39 571.75 295.43 581.00 C 293.90 585.77 293.61 591.77 293.24 626.25 L 292.82 666.00 L 295.95 666.00 C 297.66 666.00 300.15 665.30 301.46 664.43 Z M 487.58 513.35 C 486.40 500.27 480.65 480.95 461.75 426.50 L 459.32 419.50 L 440.41 418.86 C 430.01 418.51 416.16 418.06 409.62 417.86 L 397.74 417.50 L 392.79 430.50 C 377.11 471.64 368.03 496.34 367.47 499.31 C 366.10 506.59 371.52 516.57 378.48 519.61 C 380.85 520.64 393.03 520.93 434.89 520.96 L 488.28 521.00 L 487.58 513.35 Z M 518.75 510.75 C 520.31 496.95 523.34 485.76 534.79 451.50 C 540.13 435.55 544.64 421.94 544.82 421.25 C 545.08 420.27 538.04 420.00 512.07 420.00 C 493.88 420.00 479.00 420.12 479.00 420.27 C 479.00 420.42 483.07 432.68 488.04 447.52 C 501.49 487.66 505.98 505.11 506.00 517.25 L 506.00 521.00 L 511.80 521.00 L 517.60 521.00 L 518.75 510.75 Z M 642.32 519.93 C 646.89 518.66 653.28 513.14 655.00 508.99 C 657.62 502.69 655.91 496.04 642.69 461.00 C 635.74 442.58 629.19 425.25 628.12 422.50 C 626.20 417.54 626.15 417.50 621.84 417.58 C 601.08 417.97 565.95 419.41 565.14 419.91 C 564.59 420.25 558.73 436.72 552.11 456.52 C 540.55 491.09 536.00 508.16 536.00 516.91 L 536.00 521.00 L 587.25 520.99 C 620.30 520.99 639.86 520.61 642.32 519.93 Z M 587.00 400.99 C 620.79 399.81 643.79 398.53 669.00 396.45 C 688.49 394.84 728.94 390.15 730.24 389.35 C 730.66 389.09 731.00 386.20 731.00 382.92 C 731.00 377.26 730.89 376.99 728.75 377.45 C 720.66 379.22 691.83 382.49 667.00 384.46 C 567.67 392.32 427.92 391.46 335.50 382.43 C 321.15 381.02 301.64 378.55 295.70 377.37 L 292.90 376.82 L 293.20 383.16 L 293.50 389.50 L 302.50 390.71 C 339.41 395.65 390.85 399.35 450.50 401.33 C 473.25 402.09 562.14 401.87 587.00 400.99 Z M 609.50 370.01 C 643.76 368.52 692.45 365.12 691.62 364.29 C 690.38 363.05 636.04 359.57 593.50 358.01 C 558.79 356.73 466.47 356.73 431.00 358.01 C 385.64 359.65 338.48 362.56 334.56 363.98 C 330.02 365.62 398.09 369.65 460.00 371.40 C 481.85 372.02 585.58 371.06 609.50 370.01 Z" stroke-linecap="round"/>
</g>
</g>
</g>

  </svg>