<svg xmlns="http://www.w3.org/2000/svg" xmlns:xlink="http://www.w3.org/1999/xlink" width="500px" height="329px" viewBox="0 0 499.9999999999998 329.0711115477368">
    <g id="4a715b3d-52b8-477a-80f8-2d4081606c4e">
<g style="">
		<g id="4a715b3d-52b8-477a-80f8-2d4081606c4e-child-0">
<path style="stroke: rgb(193,193,193); stroke-width: 0; stroke-dasharray: none; stroke-linecap: butt; stroke-dashoffset: 0; stroke-linejoin: miter; stroke-miterlimit: 4; fill: rgb(0,0,0); fill-rule: nonzero; opacity: 1;" transform="matrix(0.732146 0 0 0.732146 250.000019 164.535568) matrix(1 0 0 1 0 0)  translate(-511.538026, -511.926083)" d="M 468.00 736.40 C 439.44 734.54 428.26 733.60 414.50 731.87 C 376.93 727.15 353.03 719.62 340.31 708.49 C 332.85 701.97 331.00 697.49 331.00 686.00 C 331.00 674.51 332.78 670.23 340.45 663.22 C 350.22 654.29 365.34 648.41 392.12 643.10 C 420.27 637.53 431.32 632.74 443.04 621.03 C 451.51 612.57 455.70 605.12 459.16 592.34 C 461.22 584.75 461.29 582.55 461.31 523.50 L 461.33 462.50 L 442.42 461.83 C 335.91 458.04 257.58 448.75 215.00 434.87 C 193.58 427.88 178.80 418.25 173.21 407.63 L 170.51 402.50 L 170.18 374.28 C 169.77 340.53 170.24 337.86 177.86 330.24 C 200.26 307.84 285.73 293.14 423.93 287.91 C 459.64 286.56 598.98 287.25 626.00 288.92 C 681.92 292.35 716.10 295.46 748.50 300.07 C 810.65 308.90 842.52 320.39 851.00 336.99 C 852.87 340.66 853.00 342.88 853.00 370.78 C 853.00 406.21 852.80 407.23 844.06 415.89 C 827.09 432.74 784.70 444.45 710.00 452.94 C 675.59 456.85 624.79 460.35 584.25 461.61 L 562.00 462.30 L 562.00 521.69 C 562.00 589.37 562.09 590.43 569.49 605.59 C 576.89 620.75 588.94 630.96 606.63 637.04 C 609.73 638.11 619.88 640.58 629.18 642.54 C 660.11 649.04 674.25 654.50 684.26 663.82 C 691.19 670.26 692.95 674.53 692.98 684.88 C 693.01 695.69 691.61 700.10 686.31 706.00 C 673.31 720.46 637.84 730.02 578.50 735.04 C 566.13 736.09 479.60 737.16 468.00 736.40 Z M 568.64 705.97 C 611.12 702.93 642.55 697.43 656.13 690.66 C 664.84 686.32 664.79 684.93 655.81 680.64 C 647.68 676.75 638.80 674.30 616.53 669.82 C 597.46 665.99 598.82 666.02 597.90 669.38 C 596.83 673.26 593.34 676.88 588.50 679.11 C 584.73 680.85 580.37 680.96 512.00 680.96 C 443.80 680.96 439.26 680.85 435.46 679.12 C 431.42 677.29 426.01 671.89 425.98 669.67 C 425.94 666.29 424.44 665.83 418.40 667.38 C 415.16 668.21 406.66 670.04 399.51 671.46 C 376.06 676.09 360.46 681.94 361.20 685.83 C 361.99 689.91 381.57 696.66 403.50 700.41 C 422.02 703.58 454.35 706.47 481.50 707.40 C 497.85 707.95 553.71 707.04 568.64 705.97 Z M 565.17 650.49 C 566.03 650.16 563.70 647.09 558.50 641.69 C 549.33 632.18 541.94 620.48 537.89 609.02 C 532.27 593.14 532.03 589.86 531.76 524.00 L 531.50 463.50 L 512.57 463.23 C 498.10 463.02 493.46 463.25 492.84 464.23 C 492.39 464.93 492.02 492.20 492.02 524.84 C 492.00 580.49 491.87 584.81 489.97 594.14 C 485.98 613.74 477.93 629.13 464.79 642.31 C 460.50 646.61 457.00 650.32 457.00 650.56 C 457.00 651.18 563.54 651.11 565.17 650.49 Z M 578.50 432.00 C 701.81 428.01 796.23 414.42 818.47 397.47 L 822.50 394.41 L 822.79 385.31 L 823.07 376.21 L 814.13 379.01 C 776.95 390.67 711.30 398.90 613.00 404.23 C 581.36 405.94 442.11 405.92 409.50 404.20 C 308.79 398.88 242.68 390.47 208.20 378.60 C 199.40 375.57 199.36 375.61 200.62 387.31 L 201.50 395.49 L 206.91 398.72 C 232.43 413.94 294.82 424.11 399.00 430.04 C 447.74 432.82 526.69 433.68 578.50 432.00 Z M 594.50 374.93 C 667.88 372.13 739.31 365.22 781.00 356.89 C 792.70 354.55 815.05 348.35 816.31 347.09 C 817.47 345.93 805.37 341.66 790.88 338.10 C 700.02 315.80 469.84 309.20 319.00 324.56 C 288.04 327.72 251.25 333.47 232.00 338.17 C 220.72 340.93 206.64 346.05 207.67 347.02 C 209.05 348.32 226.88 353.67 237.31 355.92 C 312.39 372.10 461.34 380.02 594.50 374.93 Z" stroke-linecap="round"/>
</g>
</g>
</g>

  </svg>