<svg xmlns="http://www.w3.org/2000/svg" xmlns:xlink="http://www.w3.org/1999/xlink" width="500px" height="392px" viewBox="0 0 500 392.47040533068525">
    <g id="ebd44270-f106-46bc-be4b-984bbdf387b7">
<g style="">
		<g id="ebd44270-f106-46bc-be4b-984bbdf387b7-child-0">
<path style="stroke: rgb(193,193,193); stroke-width: 0; stroke-dasharray: none; stroke-linecap: butt; stroke-dashoffset: 0; stroke-linejoin: miter; stroke-miterlimit: 4; fill: rgb(0,0,0); fill-rule: nonzero; opacity: 1;" transform="matrix(0.866748 0 0 0.866748 250.000029 196.235226) matrix(1 0 0 1 0 0)  translate(-512.434503, -512.529533)" d="M 318.73 737.96 C 312.62 736.93 301.80 733.44 296.57 730.81 C 284.45 724.70 271.16 712.18 263.98 700.09 C 255.20 685.30 254.64 682.20 246.03 600.00 C 243.75 578.28 241.71 559.94 241.48 559.25 C 241.24 558.54 239.42 558.00 237.28 558.00 C 235.20 557.99 232.06 557.11 230.30 556.04 C 224.04 552.23 224.00 551.93 224.00 511.43 L 224.00 474.76 L 227.82 470.94 C 230.92 467.85 232.64 466.98 236.82 466.43 C 240.94 465.88 242.00 465.36 242.00 463.90 C 242.00 461.15 249.69 390.61 252.55 367.13 C 256.38 335.64 261.05 324.65 277.42 308.50 C 287.56 298.50 294.22 294.14 306.33 289.58 L 314.50 286.50 L 508.00 286.20 C 648.90 285.99 703.13 286.21 707.50 287.04 C 736.39 292.48 763.13 318.15 768.92 346.00 C 769.91 350.73 774.35 389.79 780.73 449.75 L 782.46 466.00 L 785.41 466.00 C 789.52 466.00 796.47 469.57 798.67 472.80 C 800.35 475.27 800.52 478.50 800.77 511.00 C 801.02 543.35 800.89 546.81 799.27 549.98 C 796.91 554.63 791.69 558.00 786.87 558.00 C 783.70 558.00 782.96 558.39 782.56 560.25 C 782.30 561.49 779.36 587.47 776.02 618.00 C 772.68 648.53 769.29 676.31 768.49 679.74 C 763.15 702.55 744.76 723.61 722.01 732.99 C 706.50 739.39 719.98 739.01 512.30 738.88 C 408.46 738.82 321.35 738.40 318.73 737.96 Z M 705.00 719.46 C 714.13 717.35 718.52 715.47 726.13 710.41 C 737.28 703.00 745.99 691.58 749.85 679.33 C 751.84 672.99 756.01 638.43 761.47 583.00 C 762.31 574.47 763.27 565.32 763.61 562.66 L 764.21 557.83 L 742.36 558.16 C 718.42 558.53 716.41 559.00 714.15 564.80 C 713.57 566.28 712.14 576.05 710.98 586.50 C 706.13 630.09 703.21 650.73 701.27 655.11 C 699.09 660.05 694.37 665.19 689.64 667.78 C 686.71 669.39 674.98 669.52 513.71 669.76 L 340.92 670.02 L 335.92 667.87 C 329.46 665.09 323.42 658.27 321.50 651.59 C 320.09 646.67 317.63 627.73 312.87 585.12 C 310.69 565.65 310.47 564.62 307.85 562.00 L 305.10 559.26 L 282.99 558.52 C 270.83 558.12 260.64 558.03 260.34 558.33 C 259.85 558.82 266.58 623.81 270.97 661.00 C 273.11 679.07 275.48 686.02 282.97 696.18 C 288.94 704.28 296.13 710.17 305.57 714.68 C 319.23 721.20 307.17 720.83 512.00 720.91 C 674.70 720.96 699.33 720.78 705.00 719.46 Z M 358.75 512.25 L 358.50 372.50 L 351.82 372.21 C 345.70 371.94 344.86 372.15 342.00 374.71 C 338.47 377.86 339.49 371.85 332.09 433.06 C 328.01 466.85 327.30 469.63 321.29 475.65 C 314.29 482.64 311.42 483.45 292.25 483.83 L 275.00 484.17 L 275.00 512.58 L 275.00 541.00 L 290.87 541.00 C 308.82 541.00 312.71 541.88 319.57 547.50 C 326.79 553.42 327.84 556.88 331.06 585.27 C 332.63 599.15 334.83 617.90 335.96 626.94 C 337.08 635.99 338.00 643.94 338.00 644.62 C 338.00 645.29 339.17 647.23 340.59 648.92 C 343.08 651.88 343.48 652.00 351.09 652.00 L 359.01 652.00 L 358.75 512.25 Z M 394.00 512.00 L 394.00 372.00 L 385.50 372.00 L 377.00 372.00 L 377.00 512.00 L 377.00 652.00 L 385.50 652.00 L 394.00 652.00 L 394.00 512.00 Z M 430.00 511.96 L 430.00 371.92 L 421.25 372.21 L 412.50 372.50 L 412.19 498.00 C 412.03 567.03 412.18 629.91 412.55 637.75 L 413.21 652.00 L 421.60 652.00 L 430.00 652.00 L 430.00 511.96 Z M 467.00 512.00 L 467.00 372.00 L 458.00 372.00 L 449.00 372.00 L 449.00 512.00 L 449.00 652.00 L 458.00 652.00 L 467.00 652.00 L 467.00 512.00 Z M 502.75 512.25 L 502.50 372.50 L 493.75 372.21 L 485.00 371.92 L 485.00 511.96 L 485.00 652.00 L 494.00 652.00 L 503.01 652.00 L 502.75 512.25 Z M 538.75 512.25 L 538.50 372.50 L 529.75 372.21 L 521.00 371.92 L 521.00 511.96 L 521.00 652.00 L 530.00 652.00 L 539.01 652.00 L 538.75 512.25 Z M 575.00 512.00 L 575.00 372.00 L 566.00 372.00 L 557.00 372.00 L 557.00 512.00 L 557.00 652.00 L 566.00 652.00 L 575.00 652.00 L 575.00 512.00 Z M 611.00 512.00 L 611.00 372.00 L 602.50 372.00 L 594.00 372.00 L 594.00 512.00 L 594.00 652.00 L 602.50 652.00 L 611.00 652.00 L 611.00 512.00 Z M 647.00 512.00 L 647.00 372.00 L 638.50 372.00 L 630.00 372.00 L 630.00 512.00 L 630.00 652.00 L 638.50 652.00 L 647.00 652.00 L 647.00 512.00 Z M 682.80 649.97 C 684.00 648.86 685.20 646.94 685.47 645.72 C 686.16 642.62 689.35 617.31 693.00 586.06 C 696.50 556.05 697.71 552.31 705.82 546.56 C 712.68 541.69 715.26 541.16 732.25 541.08 L 748.00 541.00 L 748.00 512.58 L 748.00 484.17 L 731.25 483.83 C 715.08 483.51 714.34 483.41 709.83 480.76 C 704.29 477.50 698.49 471.02 696.96 466.37 C 696.35 464.53 693.46 443.79 690.53 420.30 L 685.20 377.57 L 682.08 374.78 C 679.31 372.30 678.21 372.00 671.98 372.00 L 665.00 372.00 L 665.00 512.00 L 665.00 652.00 L 672.81 652.00 C 679.28 652.00 681.00 651.65 682.80 649.97 Z M 257.00 512.50 L 257.00 484.00 L 249.50 484.00 L 242.00 484.00 L 242.00 512.50 L 242.00 541.00 L 249.50 541.00 L 257.00 541.00 L 257.00 512.50 Z M 782.26 513.27 C 782.58 498.02 782.62 485.19 782.36 484.77 C 782.10 484.35 778.31 484.00 773.94 484.00 L 766.00 484.00 L 766.00 511.83 C 766.00 527.14 766.30 539.97 766.67 540.33 C 767.03 540.70 770.56 541.00 774.51 541.00 L 781.69 541.00 L 782.26 513.27 Z M 306.87 463.46 C 308.53 462.06 310.13 460.14 310.42 459.21 C 310.71 458.27 312.32 445.80 313.99 431.50 C 319.00 388.72 321.05 374.71 322.93 370.45 C 325.46 364.69 330.05 359.84 335.66 356.97 L 340.50 354.50 L 511.00 354.23 C 664.26 353.98 681.92 354.11 685.67 355.53 C 692.61 358.15 697.56 362.41 700.38 368.18 C 703.01 373.55 704.33 382.50 711.55 443.45 C 713.51 460.00 713.96 461.40 718.23 464.00 C 721.23 465.83 723.28 465.99 742.75 466.00 C 754.44 466.00 764.00 465.66 764.00 465.25 C 764.00 464.84 763.33 458.20 762.51 450.50 C 761.70 442.80 760.34 429.75 759.49 421.50 C 755.22 379.99 751.80 351.95 750.39 347.00 C 745.43 329.58 729.63 313.31 711.13 306.55 C 705.53 304.51 704.32 304.50 514.50 304.24 C 379.10 304.05 321.96 304.29 318.21 305.07 C 299.62 308.91 281.33 325.64 274.48 345.07 C 272.93 349.45 269.60 375.97 263.53 432.28 C 261.59 450.30 260.00 465.26 260.00 465.53 C 260.00 465.79 269.87 466.00 281.92 466.00 L 303.85 466.00 L 306.87 463.46 Z M 319.76 703.06 C 307.82 699.23 296.07 688.85 290.98 677.62 C 287.93 670.89 286.70 662.84 282.06 619.00 C 280.92 608.28 279.52 595.36 278.93 590.31 C 278.18 583.78 278.18 580.53 278.94 579.11 C 281.81 573.74 289.39 572.30 293.43 576.34 C 296.12 579.03 295.54 575.24 301.09 626.50 C 304.64 659.31 305.54 665.27 307.69 670.14 C 310.53 676.58 314.54 680.81 321.00 684.16 L 325.50 686.50 L 512.00 686.50 L 698.50 686.50 L 702.62 684.30 C 709.09 680.84 712.89 677.15 715.68 671.64 C 718.41 666.25 719.37 659.57 725.53 602.68 C 726.89 590.13 728.47 579.00 729.03 577.95 C 730.43 575.33 733.23 574.00 737.35 574.00 C 740.00 574.00 741.43 574.73 743.41 577.08 C 744.84 578.77 746.00 580.68 745.99 581.33 C 745.98 581.97 743.76 602.51 741.04 626.96 L 736.10 671.42 L 732.55 678.60 C 727.82 688.17 720.02 695.89 710.20 700.75 L 702.60 704.50 L 514.05 704.70 C 333.36 704.90 325.26 704.83 319.76 703.06 Z M 282.34 449.11 C 280.60 448.02 278.91 446.29 278.58 445.24 C 277.98 443.36 284.73 380.59 287.56 361.66 C 289.50 348.67 292.62 342.36 301.48 333.42 C 309.21 325.63 316.26 321.62 325.06 319.99 C 328.76 319.31 392.30 319.06 515.06 319.23 C 695.85 319.49 699.61 319.54 705.00 321.48 C 717.61 326.00 729.40 337.43 733.91 349.50 C 735.32 353.27 736.85 362.37 738.49 376.82 C 739.84 388.75 742.09 408.29 743.47 420.26 C 744.86 432.22 746.00 442.72 746.00 443.58 C 746.00 444.45 744.68 446.47 743.08 448.08 C 738.74 452.41 731.61 451.88 729.01 447.03 C 728.45 445.96 726.62 432.81 724.96 417.80 C 720.10 373.84 718.08 358.77 716.44 354.33 C 714.60 349.35 707.59 342.59 701.47 339.88 C 697.17 337.98 693.05 337.94 511.90 337.98 C 333.11 338.03 326.58 338.09 322.49 339.90 C 316.41 342.59 310.55 348.28 308.22 353.76 C 306.33 358.21 302.56 386.06 297.57 432.38 C 296.38 443.52 295.87 445.58 293.84 447.61 C 290.50 450.95 286.20 451.51 282.34 449.11 Z" stroke-linecap="round"/>
</g>
</g>
</g>

  </svg>