<svg xmlns="http://www.w3.org/2000/svg" xmlns:xlink="http://www.w3.org/1999/xlink" width="3048px" height="2741px" viewBox="0 0 3047.9827922831055 2740.6048824866452">
    <g id="5f053519-0a2e-4f3c-bb0f-f15ad8691413">
<g style="">
		<g id="5f053519-0a2e-4f3c-bb0f-f15ad8691413-child-0">
<path style="stroke: rgb(193,193,193); stroke-width: 0; stroke-dasharray: none; stroke-linecap: butt; stroke-dashoffset: 0; stroke-linejoin: miter; stroke-miterlimit: 4; fill: rgb(0,0,0); fill-rule: nonzero; opacity: 1;" transform="matrix(4.917432 0 0 4.917432 1523.991495 1370.30253) matrix(1 0 0 1 0 0)  translate(-511.877401, -511.766903)" d="M 803.35 789.92 C 799.27 788.72 794.28 782.99 793.44 778.55 C 792.97 776.00 793.37 773.86 794.95 770.59 C 800.15 759.87 815.15 759.66 820.63 770.24 C 822.53 773.92 822.04 780.76 819.62 784.46 C 816.62 789.03 809.02 791.58 803.35 789.92 Z M 209.42 788.64 C 202.62 785.55 200.01 777.74 203.52 770.97 C 205.92 766.31 209.64 765.00 220.42 765.00 C 229.61 765.00 230.05 765.10 233.43 768.08 C 239.47 773.38 239.13 782.63 232.74 787.18 C 228.80 789.99 214.37 790.89 209.42 788.64 Z M 269.37 788.09 C 267.64 787.03 265.51 785.13 264.62 783.86 C 262.58 780.96 262.54 774.80 264.52 770.97 C 267.35 765.49 269.71 765.00 293.44 765.00 L 314.98 765.00 L 306.86 757.25 C 288.32 739.55 279.00 718.20 279.00 693.44 C 279.00 667.91 287.35 647.79 305.50 629.54 C 320.11 614.87 336.71 606.53 356.50 603.93 C 364.77 602.84 378.87 603.18 384.51 604.59 C 386.34 605.05 389.34 602.62 401.37 590.96 C 409.42 583.15 416.00 576.43 416.00 576.02 C 416.00 575.61 412.51 573.75 408.25 571.89 C 379.00 559.16 349.60 533.66 333.15 506.75 C 318.35 482.56 309.65 455.14 308.33 428.62 C 307.60 414.02 308.56 410.67 314.54 406.98 C 317.55 405.12 319.61 405.00 349.37 405.00 C 366.77 405.00 381.01 404.66 381.02 404.25 C 381.03 403.84 368.90 391.58 354.06 377.00 C 339.23 362.42 316.30 339.76 303.11 326.64 L 279.12 302.77 L 258.81 302.84 C 235.45 302.92 227.53 301.96 220.69 298.23 C 214.13 294.66 207.58 287.16 204.96 280.20 C 201.94 272.21 202.51 259.70 206.22 252.48 C 209.75 245.61 217.30 238.80 224.55 235.96 C 230.22 233.74 231.94 233.61 260.78 233.21 C 280.92 232.94 293.26 233.19 297.66 233.95 C 312.16 236.48 308.76 233.47 398.52 323.10 L 480.54 405.00 L 503.27 405.00 L 526.00 405.00 L 526.00 324.75 C 526.01 246.44 526.06 244.42 527.99 241.24 C 531.29 235.83 534.82 234.37 546.27 233.69 C 559.04 232.94 584.88 234.38 597.75 236.56 C 667.07 248.34 726.78 299.31 748.95 365.62 C 760.02 398.73 760.08 437.11 749.10 469.95 C 739.63 498.27 726.52 518.78 704.34 540.00 C 691.38 552.40 678.48 561.48 662.82 569.22 C 655.84 572.68 650.21 575.78 650.32 576.11 C 650.42 576.45 656.12 582.56 663.00 589.69 L 675.50 602.65 L 684.00 604.41 C 717.72 611.40 744.82 636.21 754.24 668.71 C 756.19 675.44 756.49 678.74 756.45 693.00 C 756.40 708.35 756.20 710.09 753.58 718.00 C 748.10 734.54 740.77 746.29 728.64 758.01 L 721.93 764.50 L 742.39 765.00 C 762.27 765.49 762.92 765.57 765.39 767.90 C 771.20 773.36 770.87 782.81 764.72 787.20 L 761.50 789.50 L 517.00 789.75 C 277.69 789.99 272.43 789.96 269.37 788.09 Z M 613.00 764.00 C 613.00 763.45 612.61 763.00 612.14 763.00 C 610.48 763.00 598.28 750.31 594.30 744.43 C 583.91 729.11 579.13 714.74 578.27 696.23 C 577.75 684.83 577.56 683.93 575.60 683.46 C 574.45 683.18 547.40 683.07 515.50 683.22 L 457.50 683.50 L 456.86 696.50 C 456.51 703.65 455.48 712.17 454.57 715.44 C 450.10 731.60 442.25 744.91 430.23 756.75 L 421.85 765.00 L 517.43 765.00 C 580.48 765.00 613.00 764.66 613.00 764.00 Z M 389.24 753.78 C 408.07 746.74 422.84 731.69 428.92 713.36 C 432.37 702.97 432.85 688.83 430.13 677.99 C 426.83 664.80 422.82 657.76 413.04 647.90 C 399.77 634.55 386.56 629.00 368.00 629.00 C 350.06 629.00 336.43 634.54 323.98 646.89 C 310.42 660.34 304.50 674.59 304.61 693.50 C 304.67 702.83 305.11 705.77 307.50 712.85 C 314.53 733.60 331.75 749.74 353.00 755.49 C 361.80 757.88 380.67 756.98 389.24 753.78 Z M 682.89 755.47 C 707.09 749.76 727.11 727.53 731.08 701.95 C 738.29 655.44 692.00 616.63 647.17 631.59 C 611.80 643.40 593.54 684.75 608.62 718.87 C 616.32 736.28 634.02 751.13 652.38 755.59 C 659.53 757.32 675.27 757.26 682.89 755.47 Z M 587.60 652.75 C 590.77 646.44 597.79 636.42 601.39 633.08 C 602.83 631.74 604.00 630.16 604.00 629.56 C 604.00 628.97 596.84 621.33 588.10 612.60 L 572.20 596.72 L 561.35 598.61 C 546.56 601.19 511.38 601.20 499.50 598.63 L 491.50 596.90 L 467.82 621.08 L 444.14 645.25 L 447.29 651.63 L 450.43 658.00 L 517.70 658.00 L 584.97 658.00 L 587.60 652.75 Z M 471.50 582.00 L 514.49 539.00 L 507.99 532.50 L 501.49 526.01 L 457.26 570.25 L 413.04 614.50 L 419.77 619.65 C 423.47 622.48 426.95 624.84 427.50 624.90 C 428.06 624.95 447.85 605.65 471.50 582.00 Z M 634.50 609.83 C 638.90 608.03 642.67 606.45 642.87 606.32 C 643.08 606.19 642.01 604.60 640.50 602.79 C 636.06 597.48 301.76 261.67 299.00 259.76 C 296.76 258.19 293.36 258.01 265.80 258.01 C 244.11 258.00 234.32 258.35 232.47 259.19 C 227.52 261.45 225.55 268.48 228.63 272.88 C 231.90 277.55 234.97 278.00 263.86 278.00 L 290.78 278.00 L 457.14 445.09 C 548.64 536.99 623.66 612.62 623.86 613.16 C 624.05 613.69 624.73 613.90 625.36 613.62 C 625.98 613.34 630.10 611.64 634.50 609.83 Z M 546.28 575.19 L 550.05 574.50 L 541.03 565.53 L 532.01 556.55 L 525.93 562.53 C 522.58 565.81 518.49 570.19 516.84 572.25 L 513.83 576.00 L 528.17 575.94 C 536.05 575.91 544.20 575.57 546.28 575.19 Z M 467.14 491.50 C 458.00 482.15 449.98 474.16 449.33 473.74 C 448.68 473.32 424.71 473.10 396.06 473.24 L 343.97 473.50 L 347.56 481.00 C 362.43 512.09 390.66 537.92 424.76 551.63 L 435.34 555.88 L 459.55 532.19 L 483.77 508.50 L 467.14 491.50 Z M 638.72 552.92 C 650.60 548.22 664.91 540.44 673.53 533.98 C 692.97 519.42 711.38 497.06 719.81 477.75 L 721.89 473.00 L 707.41 473.00 C 691.49 473.00 687.82 472.13 684.17 467.49 C 680.81 463.21 681.15 455.98 684.92 451.77 L 687.83 448.50 L 708.63 448.00 L 729.42 447.50 L 730.11 444.11 C 730.49 442.25 731.11 438.31 731.47 435.36 L 732.14 430.00 L 618.32 430.01 L 504.50 430.03 L 513.61 439.01 L 522.71 448.00 L 561.32 448.00 L 599.93 448.00 L 603.43 451.08 C 609.50 456.40 609.13 465.63 602.68 470.23 C 599.62 472.41 598.51 472.52 573.66 473.00 L 547.81 473.50 L 589.16 514.74 C 611.90 537.43 630.60 555.99 630.72 555.99 C 630.85 556.00 634.45 554.62 638.72 552.92 Z M 423.00 447.19 C 423.00 446.74 419.19 442.65 414.54 438.09 L 406.07 429.81 L 370.33 429.95 C 350.66 430.03 334.37 430.30 334.11 430.56 C 333.57 431.10 335.74 445.77 336.56 447.10 C 337.26 448.23 423.00 448.31 423.00 447.19 Z M 570.00 331.50 L 570.00 258.00 L 560.50 258.00 L 551.00 258.00 L 551.00 331.50 L 551.00 405.00 L 560.50 405.00 L 570.00 405.00 L 570.00 331.50 Z M 731.49 399.75 C 729.31 383.40 720.86 359.16 712.11 344.18 C 707.29 335.94 696.37 321.00 695.15 321.00 C 694.68 321.00 675.21 339.88 651.90 362.95 L 609.50 404.90 L 670.84 404.95 L 732.19 405.00 L 731.49 399.75 Z M 672.88 297.72 C 661.18 287.22 640.35 275.36 622.50 269.05 C 614.03 266.05 599.01 262.02 596.25 262.01 C 595.26 262.00 595.00 274.88 595.00 323.10 L 595.00 384.19 L 636.60 343.35 L 678.20 302.50 L 672.88 297.72 Z M 361.18 708.38 C 349.49 702.41 349.39 686.34 361.00 680.22 C 374.30 673.21 388.45 686.42 382.61 700.40 C 379.45 707.96 368.40 712.07 361.18 708.38 Z M 659.96 707.75 C 655.16 705.33 651.00 698.95 651.00 694.00 C 651.00 690.38 654.99 682.99 658.21 680.64 C 662.42 677.58 670.57 677.37 675.44 680.21 C 686.45 686.60 685.95 702.94 674.60 708.10 C 669.17 710.56 665.36 710.47 659.96 707.75 Z M 640.50 474.27 C 631.84 472.10 627.55 462.04 631.86 453.98 C 638.65 441.29 658.99 446.17 658.99 460.50 C 658.99 469.65 649.69 476.57 640.50 474.27 Z" stroke-linecap="round"/>
</g>
</g>
</g>

  </svg>