<svg xmlns="http://www.w3.org/2000/svg" xmlns:xlink="http://www.w3.org/1999/xlink" width="500px" height="295px" viewBox="0 0 499.9999999999998 294.57251582579374">
    <g id="10990fad-8933-413f-8afc-376f14172bb3">
<g style="">
		<g id="10990fad-8933-413f-8afc-376f14172bb3-child-0">
<path style="stroke: rgb(193,193,193); stroke-width: 0; stroke-dasharray: none; stroke-linecap: butt; stroke-dashoffset: 0; stroke-linejoin: miter; stroke-miterlimit: 4; fill: rgb(0,0,0); fill-rule: nonzero; opacity: 1;" transform="matrix(0.785791 0 0 0.785791 250.000146 147.286344) matrix(1 0 0 1 0 0)  translate(-512.150941, -573.544585)" d="M 250.50 759.33 C 243.26 755.51 239.51 749.19 240.26 742.07 C 240.55 739.33 248.58 718.21 260.37 689.17 C 271.17 662.59 280.00 640.45 280.00 639.98 C 280.00 639.51 267.96 638.98 253.25 638.81 L 226.50 638.50 L 219.00 634.87 C 202.99 627.12 194.00 613.01 194.00 595.64 C 194.00 582.07 200.49 568.18 210.33 560.69 C 221.76 551.99 228.72 551.07 277.60 551.80 C 295.27 552.06 311.40 551.96 313.43 551.58 C 316.63 550.98 317.39 550.27 319.15 546.19 C 323.68 535.72 348.00 475.54 348.00 474.80 C 348.00 474.36 338.89 473.99 327.75 473.98 C 298.68 473.96 291.18 472.01 280.23 461.65 C 273.86 455.63 270.48 450.21 267.88 441.88 C 262.22 423.67 270.54 402.24 287.14 392.29 C 298.42 385.53 282.57 385.95 514.57 386.24 L 724.50 386.50 L 730.00 388.74 C 741.42 393.40 750.87 403.05 755.21 414.46 C 758.40 422.87 758.36 436.98 755.13 445.22 C 750.31 457.48 741.51 466.26 729.11 471.19 C 723.98 473.23 721.47 473.45 699.75 473.79 C 686.69 473.99 676.00 474.27 676.00 474.40 C 676.00 474.53 682.96 491.93 691.46 513.07 L 706.93 551.50 L 750.21 551.61 C 781.13 551.69 794.79 552.07 798.00 552.95 C 833.81 562.76 842.09 611.15 811.44 631.50 C 801.19 638.30 797.21 639.00 768.79 639.00 C 745.42 639.00 743.80 639.12 744.31 640.75 C 744.61 641.71 753.70 664.33 764.50 691.00 C 782.89 736.43 784.11 739.83 783.73 744.76 C 783.43 748.72 782.59 750.95 780.35 753.76 C 774.60 760.95 774.31 761.00 739.00 760.98 C 708.25 760.97 707.41 760.91 703.59 758.73 C 701.40 757.48 698.92 754.96 697.94 753.00 C 696.99 751.08 686.41 724.97 674.44 695.00 C 662.46 665.03 652.18 640.17 651.58 639.77 C 650.99 639.36 588.12 639.02 511.87 639.02 C 402.14 639.00 373.04 639.26 372.28 640.25 C 371.74 640.94 365.64 655.67 358.71 673.00 C 331.70 740.51 325.96 754.39 324.26 756.30 C 320.34 760.70 317.77 761.00 284.78 760.96 C 258.21 760.93 253.05 760.68 250.50 759.33 Z M 328.15 690.00 C 339.07 662.78 348.00 640.15 348.00 639.73 C 348.00 639.31 338.21 639.08 326.25 639.23 L 304.50 639.50 L 284.28 689.00 C 273.15 716.22 264.04 738.85 264.03 739.27 C 264.01 739.69 273.97 739.92 286.15 739.77 L 308.31 739.50 L 328.15 690.00 Z M 760.00 739.55 C 760.00 738.42 720.69 641.35 719.78 640.25 C 718.36 638.52 677.00 638.44 677.00 640.17 C 677.00 641.47 713.38 732.88 715.63 737.25 L 717.05 740.00 L 738.53 740.00 C 750.34 740.00 760.00 739.80 760.00 739.55 Z M 796.45 615.00 C 808.75 608.79 812.46 594.40 804.73 582.93 C 802.00 578.88 797.07 575.39 792.12 574.02 C 786.68 572.51 235.41 572.63 230.90 574.14 C 223.32 576.67 218.50 581.93 216.43 589.92 C 213.32 601.89 220.62 614.06 232.59 616.89 C 234.93 617.44 347.60 617.75 514.00 617.65 L 791.50 617.50 L 796.45 615.00 Z M 400.63 513.14 C 409.08 492.04 416.00 474.60 416.00 474.39 C 416.00 474.17 406.21 474.00 394.25 474.00 L 372.50 474.00 L 370.39 479.25 C 369.24 482.14 362.15 499.45 354.64 517.72 C 347.14 535.99 341.00 551.19 341.00 551.49 C 341.00 551.79 350.96 551.92 363.13 551.77 L 385.25 551.50 L 400.63 513.14 Z M 614.30 551.25 C 614.53 550.84 607.74 533.29 599.22 512.25 L 583.73 474.00 L 511.95 474.00 L 440.18 474.00 L 437.16 481.75 C 435.50 486.01 428.49 503.40 421.57 520.39 C 414.66 537.38 409.00 551.44 409.00 551.64 C 409.00 552.37 613.90 551.98 614.30 551.25 Z M 682.67 550.61 C 682.77 550.54 679.98 543.55 676.47 535.08 C 672.96 526.60 665.96 509.39 660.91 496.83 L 651.73 474.00 L 629.76 474.00 C 612.59 474.00 607.89 474.27 608.27 475.25 C 608.54 475.94 615.13 492.37 622.91 511.76 C 630.69 531.15 637.48 548.12 637.99 549.48 L 638.92 551.93 L 660.71 551.33 C 672.70 551.00 682.58 550.67 682.67 550.61 Z M 726.16 448.49 C 728.99 446.53 731.48 443.58 733.32 439.99 C 738.72 429.47 735.67 417.78 725.81 411.26 L 721.65 408.50 L 513.57 408.23 C 280.61 407.92 300.33 407.29 293.51 415.26 C 287.69 422.06 286.41 430.90 290.08 438.98 C 292.82 445.03 294.62 446.87 300.50 449.64 L 305.50 451.99 L 513.66 451.74 L 721.83 451.50 L 726.16 448.49 Z" stroke-linecap="round"/>
</g>
</g>
</g>

  </svg>