<svg xmlns="http://www.w3.org/2000/svg" xmlns:xlink="http://www.w3.org/1999/xlink" width="500px" height="425px" viewBox="0 0 499.9999999999998 424.51353631109464">
    <g id="a2f36ce5-5dbe-4975-8896-ec4783c4e1ac">
<g style="">
		<g id="a2f36ce5-5dbe-4975-8896-ec4783c4e1ac-child-0">
<path style="stroke: rgb(193,193,193); stroke-width: 0; stroke-dasharray: none; stroke-linecap: butt; stroke-dashoffset: 0; stroke-linejoin: miter; stroke-miterlimit: 4; fill: rgb(0,0,0); fill-rule: nonzero; opacity: 1;" transform="matrix(0.859135 0 0 0.859135 250.00008 212.256836) matrix(1 0 0 1 0 0)  translate(-512.009551, -512.058769)" d="M 330.13 757.66 C 329.34 756.70 328.94 736.67 328.76 688.91 L 328.50 621.50 L 276.09 621.24 C 239.42 621.06 223.28 620.65 222.34 619.87 C 221.31 619.01 221.00 614.50 221.02 600.13 C 221.02 589.88 221.36 581.03 221.77 580.46 C 222.53 579.37 256.99 560.88 301.58 537.61 L 327.66 524.00 L 511.92 524.00 L 696.18 524.00 L 729.84 541.65 C 748.35 551.35 771.60 563.54 781.50 568.74 C 791.40 573.93 800.29 578.89 801.25 579.75 C 802.80 581.13 803.00 583.46 803.00 600.03 C 803.00 614.47 802.69 619.01 801.66 619.87 C 800.72 620.65 784.58 621.06 747.91 621.24 L 695.50 621.50 L 695.24 688.91 C 695.06 736.67 694.66 756.70 693.87 757.66 C 692.27 759.59 656.75 759.61 655.15 757.68 C 654.48 756.88 653.94 750.10 653.78 740.43 L 653.50 724.50 L 640.56 724.22 C 633.12 724.06 627.07 723.47 626.31 722.85 C 625.26 721.97 625.00 711.78 625.00 671.38 L 625.00 621.00 L 511.50 621.00 L 398.00 621.00 L 398.00 671.89 C 398.00 717.38 397.83 722.85 396.42 723.39 C 395.55 723.73 389.25 724.00 382.42 724.00 L 370.00 724.00 L 370.00 740.30 C 370.00 751.64 369.64 756.96 368.80 757.80 C 366.99 759.61 331.64 759.48 330.13 757.66 Z M 355.76 682.75 L 356.02 621.00 L 349.51 621.00 L 343.00 621.00 L 343.00 682.43 C 343.00 751.61 342.15 744.96 351.00 744.66 L 355.50 744.50 L 355.76 682.75 Z M 681.38 683.00 L 681.26 621.50 L 674.63 621.20 L 668.00 620.91 L 668.00 683.00 L 668.00 745.09 L 674.75 744.80 L 681.50 744.50 L 681.38 683.00 Z M 384.00 665.45 L 384.00 620.91 L 377.25 621.20 L 370.50 621.50 L 370.24 665.75 L 369.98 710.00 L 376.99 710.00 L 384.00 710.00 L 384.00 665.45 Z M 653.50 665.50 L 653.50 621.50 L 646.50 621.50 L 639.50 621.50 L 639.15 634.50 C 638.96 641.65 639.12 661.58 639.51 678.79 L 640.23 710.09 L 646.87 709.79 L 653.50 709.50 L 653.50 665.50 Z M 789.00 600.61 L 789.00 594.21 L 773.75 593.53 C 765.36 593.15 640.83 592.99 497.00 593.17 L 235.50 593.50 L 235.20 600.25 L 234.91 607.00 L 511.95 607.00 L 789.00 607.00 L 789.00 600.61 Z M 759.00 572.71 L 747.50 566.50 L 513.24 566.24 L 278.98 565.99 L 271.24 569.89 C 266.98 572.04 261.48 574.97 259.00 576.39 L 254.50 578.98 L 512.50 578.95 L 770.50 578.93 L 759.00 572.71 Z M 714.23 549.45 C 713.01 548.60 707.73 545.67 702.50 542.95 L 692.98 538.00 L 512.24 538.02 L 331.50 538.04 L 319.00 544.48 L 306.50 550.93 L 511.47 550.96 C 696.97 551.00 716.23 550.85 714.23 549.45 Z M 472.27 455.25 C 471.20 454.29 468.34 451.02 465.93 448.00 C 463.51 444.98 455.05 434.93 447.12 425.67 C 435.05 411.59 432.36 408.94 430.60 409.45 C 420.22 412.42 416.39 413.00 406.95 413.00 C 385.70 413.00 370.56 406.61 354.90 391.04 C 346.86 383.05 344.63 380.10 341.21 372.99 C 335.18 360.44 333.62 353.57 333.60 339.50 C 333.58 325.59 335.81 315.97 341.61 304.93 C 354.26 280.84 380.21 265.00 407.00 265.00 C 439.66 265.00 469.88 288.25 478.09 319.70 C 480.75 329.86 480.93 345.74 478.50 355.50 C 476.63 363.05 471.42 375.20 468.00 380.00 C 465.42 383.62 463.59 380.89 486.11 407.05 C 495.80 418.30 503.99 428.40 504.32 429.50 C 505.25 432.63 503.29 435.03 491.50 445.19 C 476.95 457.72 475.74 458.36 472.27 455.25 Z M 482.85 434.83 C 487.19 431.31 487.78 430.43 486.74 429.08 C 484.28 425.91 464.49 403.37 460.18 398.84 L 455.74 394.17 L 450.93 397.84 C 448.29 399.85 446.21 401.85 446.32 402.29 C 446.63 403.50 476.40 439.00 477.11 439.00 C 477.45 439.00 480.03 437.13 482.85 434.83 Z M 420.90 397.54 C 436.82 393.30 452.46 380.20 459.86 364.91 C 463.77 356.82 465.96 350.00 464.63 350.00 C 463.68 350.00 404.30 394.58 400.55 398.11 C 399.00 399.56 414.96 399.12 420.90 397.54 Z M 424.02 362.46 C 447.34 344.94 466.00 330.24 466.00 329.38 C 466.00 325.56 460.46 311.95 456.44 305.91 C 433.87 271.96 384.21 270.10 360.31 302.31 C 341.60 327.52 343.38 360.48 364.59 381.33 C 368.49 385.18 380.46 394.00 381.77 394.00 C 381.92 394.00 400.94 379.81 424.02 362.46 Z M 546.81 456.18 C 545.89 455.81 539.47 450.85 532.56 445.18 C 521.44 436.04 520.00 434.50 520.00 431.78 C 520.00 428.32 520.35 427.85 542.04 402.50 C 550.04 393.15 556.94 384.92 557.38 384.21 C 557.86 383.43 556.98 381.09 555.14 378.21 C 547.70 366.63 543.99 353.47 544.02 338.80 C 544.06 318.41 551.09 301.18 565.13 287.13 C 598.98 253.25 653.65 259.36 679.89 299.94 C 694.85 323.10 694.41 354.87 678.78 379.70 C 676.64 383.11 671.27 389.30 666.86 393.45 C 657.51 402.24 644.73 409.16 633.50 411.50 C 623.34 413.63 608.93 413.41 599.51 411.00 C 593.21 409.39 591.41 409.25 590.19 410.25 C 589.36 410.94 580.83 420.95 571.24 432.50 C 554.39 452.78 550.50 457.08 549.14 456.93 C 548.79 456.89 547.74 456.55 546.81 456.18 Z M 562.87 420.43 C 571.30 410.22 578.04 401.76 577.85 401.63 C 577.66 401.49 575.64 399.95 573.36 398.19 C 571.08 396.44 568.77 395.00 568.22 395.00 C 567.06 395.00 537.00 429.50 537.00 430.83 C 537.00 431.74 545.82 439.00 546.93 439.00 C 547.26 439.00 554.43 430.65 562.87 420.43 Z M 624.45 398.18 C 618.38 392.93 559.80 349.87 559.34 350.33 C 558.24 351.43 561.09 359.55 565.24 367.11 C 572.90 381.07 588.39 393.46 603.12 397.42 C 608.83 398.96 626.06 399.57 624.45 398.18 Z M 659.15 381.01 C 668.06 371.99 672.95 362.91 675.43 350.79 C 677.37 341.26 677.39 335.51 675.50 326.50 C 670.73 303.78 652.04 285.25 629.00 280.39 C 619.75 278.43 607.55 279.12 598.69 282.10 C 581.67 287.81 566.04 303.46 560.97 319.86 C 557.53 330.97 556.59 329.60 579.66 347.00 C 590.97 355.52 609.49 369.55 620.80 378.17 L 641.38 393.84 L 646.44 391.29 C 649.24 389.88 654.92 385.29 659.15 381.01 Z" stroke-linecap="round"/>
</g>
</g>
</g>

  </svg>