<svg xmlns="http://www.w3.org/2000/svg" xmlns:xlink="http://www.w3.org/1999/xlink" width="1961px" height="3048px" viewBox="0 0 1960.7014607053134 3047.9827922831055">
    <g id="b7aee3cc-3645-4aef-b8e3-8fbd4afe28b1">
<g style="">
		<g id="b7aee3cc-3645-4aef-b8e3-8fbd4afe28b1-child-0">
<path style="stroke: rgb(193,193,193); stroke-width: 0; stroke-dasharray: none; stroke-linecap: butt; stroke-dashoffset: 0; stroke-linejoin: miter; stroke-miterlimit: 4; fill: rgb(0,0,0); fill-rule: nonzero; opacity: 1;" transform="matrix(5.13499 0 0 5.13499 980.35077 1523.991458) matrix(1 0 0 1 0 0)  translate(-511.91469, -511.214328)" d="M 326.12 806.37 C 320.85 802.68 321.00 805.82 321.00 697.00 C 321.00 587.28 320.78 591.68 326.51 587.17 C 330.88 583.73 336.41 584.21 340.60 588.40 L 344.00 591.80 L 344.00 633.40 L 344.00 675.00 L 381.13 675.00 L 418.27 675.00 L 407.35 663.73 C 386.43 642.14 373.12 617.66 366.44 588.50 C 364.11 578.33 363.62 573.58 363.23 557.36 L 362.77 538.22 L 366.31 534.36 L 369.85 530.50 L 434.92 530.00 C 470.72 529.72 500.00 529.16 500.00 528.75 C 500.00 528.34 500.00 511.15 500.00 490.56 L 500.00 453.11 L 492.75 456.14 C 469.65 465.77 438.84 466.66 414.06 458.41 C 382.31 447.83 354.83 424.12 340.07 394.56 C 330.24 374.89 325.96 356.64 325.67 333.15 L 325.50 319.79 L 329.27 316.52 C 333.36 312.98 345.03 308.18 357.05 305.11 C 369.79 301.86 386.41 300.59 399.05 301.92 C 408.40 302.90 424.37 306.28 430.16 308.51 C 431.68 309.09 431.70 308.79 430.36 304.93 C 425.86 291.85 424.67 271.16 427.49 255.00 C 429.24 244.96 434.00 229.72 437.80 222.00 C 441.52 214.43 444.27 213.19 452.33 215.43 C 461.04 217.85 472.00 223.15 481.80 229.67 C 508.18 247.23 525.27 273.41 531.02 305.10 C 532.59 313.76 532.35 335.62 530.56 346.46 C 529.75 351.39 529.21 355.54 529.35 355.69 C 529.50 355.83 531.34 353.70 533.44 350.95 C 543.01 338.40 562.63 322.63 578.50 314.73 C 607.77 300.17 644.30 297.50 675.50 307.65 C 685.64 310.94 696.76 316.68 698.19 319.35 C 699.62 322.03 698.59 344.33 696.47 356.51 C 687.13 410.21 645.72 452.68 593.00 462.63 C 586.53 463.85 580.81 464.11 569.00 463.72 C 552.33 463.16 543.61 461.41 530.90 456.09 L 524.31 453.32 L 523.66 473.41 C 522.84 498.61 522.83 521.36 523.64 526.25 L 524.26 530.00 L 587.68 530.00 C 656.66 530.00 654.35 529.82 658.91 535.61 C 660.79 538.01 661.00 539.60 661.00 551.60 C 661.00 596.51 645.05 635.21 613.77 666.22 L 604.92 675.00 L 642.46 675.00 L 680.00 675.00 L 680.00 634.25 C 680.01 595.29 680.09 593.36 682.00 590.23 C 686.16 583.40 696.63 583.38 700.88 590.18 C 701.81 591.67 702.23 615.99 702.64 691.75 C 702.94 746.54 702.88 793.84 702.50 796.86 C 701.59 804.17 697.98 808.00 692.03 808.00 C 686.85 808.00 682.74 805.92 681.19 802.53 C 680.32 800.60 680.00 786.33 680.00 748.95 L 680.00 698.00 L 623.85 698.00 L 567.69 698.00 L 557.07 701.43 C 547.25 704.61 541.72 705.84 528.50 707.80 L 523.50 708.55 L 523.26 754.52 C 523.08 788.45 522.70 801.11 521.79 802.84 C 518.29 809.52 506.73 809.67 502.26 803.10 C 500.65 800.72 500.48 796.51 500.21 754.34 L 499.92 708.18 L 494.71 707.53 C 484.90 706.32 473.96 703.86 465.29 700.93 L 456.62 698.00 L 400.31 698.00 L 344.00 698.00 L 344.00 749.60 L 344.00 801.20 L 340.60 804.60 C 337.77 807.43 336.47 808.00 332.82 808.00 C 330.39 808.00 327.41 807.27 326.12 806.37 Z M 500.00 656.47 C 500.00 626.32 500.35 623.61 504.78 619.67 C 507.42 617.31 513.80 616.55 516.90 618.21 C 518.23 618.92 520.14 620.63 521.16 622.00 C 522.86 624.29 523.04 627.05 523.26 654.17 C 523.39 670.49 523.85 684.19 524.28 684.62 C 525.54 685.87 538.48 683.24 550.19 679.35 C 567.15 673.71 582.77 664.09 596.88 650.57 C 620.87 627.58 635.63 595.98 637.66 563.25 L 638.30 553.00 L 512.15 553.00 L 386.00 553.00 L 386.00 560.32 C 386.00 575.61 391.04 595.87 398.91 612.24 C 413.27 642.13 439.33 666.49 468.96 677.73 C 477.45 680.95 492.61 684.89 496.75 684.95 L 500.00 685.00 L 500.00 656.47 Z M 472.73 438.51 C 476.16 437.54 478.75 436.41 478.50 436.00 C 478.25 435.59 470.49 429.95 461.27 423.46 C 452.05 416.98 437.08 406.42 428.00 400.01 C 371.93 360.37 350.22 345.45 349.56 346.11 C 349.33 346.34 349.75 350.00 350.49 354.25 C 357.59 395.17 388.15 428.32 428.31 438.67 C 441.29 442.01 460.59 441.94 472.73 438.51 Z M 592.48 439.37 C 634.15 431.42 668.13 394.01 674.44 349.17 L 675.05 344.83 L 662.78 353.26 C 652.45 360.35 603.49 394.55 556.78 427.29 C 550.34 431.80 545.05 435.78 545.03 436.12 C 544.97 437.33 557.63 440.29 565.50 440.90 C 575.57 441.68 582.37 441.30 592.48 439.37 Z M 493.45 411.78 C 484.76 370.31 453.74 337.50 413.18 326.87 C 403.12 324.24 384.17 323.34 372.73 324.97 C 367.93 325.65 364.03 326.50 364.06 326.85 C 364.09 327.21 372.30 333.21 382.31 340.20 C 392.31 347.18 421.61 367.77 447.42 385.95 C 473.22 404.12 494.45 418.88 494.60 418.74 C 494.74 418.59 494.22 415.46 493.45 411.78 Z M 548.00 406.00 C 557.08 399.59 576.42 386.09 591.00 375.99 C 605.58 365.88 625.83 351.70 636.00 344.46 C 646.17 337.22 655.73 330.50 657.24 329.54 C 658.75 328.57 659.76 327.43 659.50 326.99 C 658.45 325.31 641.30 323.74 630.02 324.30 C 615.83 325.01 604.50 327.79 592.13 333.59 C 571.22 343.40 555.62 357.46 543.99 377.00 C 537.92 387.19 531.70 403.96 529.61 415.80 C 528.91 419.77 527.15 420.71 548.00 406.00 Z M 483.45 325.75 C 471.11 298.19 471.65 299.67 472.42 295.60 C 473.50 289.84 477.64 285.91 483.30 285.27 C 487.71 284.77 488.25 284.97 491.13 288.12 C 492.93 290.09 497.33 298.59 501.65 308.46 C 505.74 317.78 509.34 325.66 509.65 325.96 C 509.97 326.26 509.91 323.12 509.54 319.00 C 506.93 290.55 493.70 266.56 471.67 250.33 C 466.30 246.38 457.03 241.00 455.58 241.00 C 454.38 241.00 450.09 257.37 449.02 266.00 C 446.35 287.57 452.36 306.78 466.90 323.10 C 473.98 331.05 490.37 345.38 490.83 344.02 C 491.02 343.45 487.69 335.23 483.45 325.75 Z" stroke-linecap="round"/>
</g>
</g>
</g>

  </svg>