<svg xmlns="http://www.w3.org/2000/svg" xmlns:xlink="http://www.w3.org/1999/xlink" width="1686px" height="1101px" viewBox="0 0 1686.4747250948103 1101.0465063738116">
    <g id="b40f15d1-0ac3-43d9-ae9a-0c0e45335727">
<g style="">
		<g id="b40f15d1-0ac3-43d9-ae9a-0c0e45335727-child-0">
<path style="stroke: rgb(193,193,193); stroke-width: 0; stroke-dasharray: none; stroke-linecap: butt; stroke-dashoffset: 0; stroke-linejoin: miter; stroke-miterlimit: 4; fill: rgb(0,0,0); fill-rule: nonzero; opacity: 1;" transform="matrix(3.013204 0 0 3.013204 843.237475 550.523327) matrix(1 0 0 1 0 0)  translate(-512.08646, -511.703636)" d="M 242.50 694.23 C 235.73 693.78 234.30 693.14 232.98 689.95 C 231.86 687.24 231.94 686.55 233.70 684.19 C 234.80 682.71 236.78 681.36 238.10 681.18 C 244.79 680.30 247.79 678.92 248.84 676.24 C 249.43 674.73 254.63 655.05 260.40 632.50 C 283.69 541.44 292.74 506.24 305.26 458.00 C 312.47 430.23 318.40 405.48 318.44 403.00 L 318.50 398.50 L 312.03 397.79 C 300.63 396.53 294.00 389.70 294.00 379.22 C 294.00 372.94 295.61 369.42 300.43 365.20 C 304.27 361.83 306.26 361.33 318.88 360.64 C 324.30 360.34 327.76 359.66 328.70 358.73 C 329.49 357.94 331.16 353.29 332.41 348.40 C 336.40 332.76 339.81 329.01 350.10 329.00 C 360.06 329.00 364.54 333.88 367.50 347.98 C 369.41 357.08 370.90 359.53 375.06 360.36 C 380.70 361.49 646.12 361.09 650.23 359.95 C 653.63 359.01 654.10 358.44 655.42 353.71 C 656.21 350.84 657.17 346.97 657.54 345.11 C 658.65 339.58 660.64 335.69 663.98 332.50 C 666.90 329.72 667.68 329.50 674.49 329.50 C 680.95 329.50 682.16 329.80 684.51 332.00 C 688.32 335.56 689.74 338.73 692.09 348.91 C 693.22 353.84 694.76 358.38 695.49 359.00 C 696.23 359.61 701.38 360.25 706.92 360.41 C 716.03 360.69 717.47 361.00 721.67 363.61 C 737.07 373.17 730.91 395.85 712.36 397.88 C 708.97 398.25 706.33 399.10 705.76 400.01 C 705.10 401.06 707.73 412.81 714.49 439.01 C 724.47 477.72 742.21 547.39 762.47 627.50 C 768.86 652.80 774.57 674.72 775.16 676.22 C 776.29 679.12 777.02 679.48 784.00 680.54 C 786.47 680.91 789.29 681.91 790.25 682.76 C 792.52 684.77 792.49 689.18 790.19 692.02 L 788.37 694.26 L 517.44 694.38 C 368.42 694.45 244.70 694.38 242.50 694.23 Z M 272.42 679.44 C 274.24 677.61 274.52 676.66 284.43 638.00 C 288.59 621.78 294.70 597.96 298.00 585.07 C 301.48 571.52 304.75 560.83 305.75 559.72 C 310.43 554.55 310.89 554.50 350.00 554.50 C 385.84 554.50 386.56 554.54 390.00 556.69 C 391.92 557.90 394.05 559.79 394.73 560.89 C 395.40 562.00 402.49 588.69 410.48 620.20 C 425.77 680.51 425.94 681.00 431.41 681.00 C 434.32 681.00 436.00 679.17 435.98 676.05 C 435.97 674.65 429.48 647.85 421.56 616.50 C 413.64 585.15 400.35 532.50 392.02 499.50 C 374.81 431.27 367.21 402.28 365.86 399.75 C 365.04 398.21 363.22 398.00 350.49 398.00 C 336.59 398.00 335.99 398.09 334.56 400.26 C 333.15 402.42 325.15 432.62 300.85 527.50 C 270.86 644.65 263.01 675.60 263.00 676.68 C 262.99 680.43 269.52 682.34 272.42 679.44 Z M 407.78 679.44 C 409.21 678.44 410.00 676.85 410.00 674.97 C 410.00 672.54 390.21 592.23 385.43 575.27 C 384.58 572.26 383.15 569.61 382.04 569.02 C 380.86 568.39 368.54 568.00 349.68 568.00 C 322.14 568.00 319.02 568.17 317.11 569.75 C 315.40 571.16 312.43 581.73 301.75 624.32 L 288.50 677.14 L 290.86 679.07 C 293.13 680.93 295.39 681.00 349.39 681.00 C 398.61 681.00 405.83 680.81 407.78 679.44 Z M 569.42 679.60 C 573.48 677.90 572.78 679.94 582.53 641.50 C 586.71 625.00 595.47 590.80 602.00 565.50 C 624.06 480.00 643.00 404.35 643.00 401.77 C 643.00 400.36 642.29 398.94 641.42 398.61 C 640.55 398.27 623.26 398.00 602.99 398.00 C 570.83 398.00 565.94 398.20 564.57 399.57 C 563.17 400.97 563.00 409.65 563.00 480.01 L 563.00 558.87 L 568.57 564.35 L 574.14 569.83 L 573.82 586.17 C 573.52 601.43 573.32 602.87 570.83 608.20 C 567.42 615.46 560.46 622.42 553.20 625.83 L 547.50 628.50 L 513.39 628.79 C 480.58 629.06 479.05 628.99 473.54 626.93 C 464.94 623.71 458.15 617.68 454.00 609.55 L 450.50 602.71 L 450.16 586.29 L 449.83 569.87 L 455.41 564.46 L 461.00 559.04 L 461.00 480.35 C 461.00 408.53 460.86 401.50 459.35 399.83 C 457.80 398.12 455.24 398.00 419.81 398.00 C 386.89 398.00 381.86 398.20 381.36 399.52 C 380.65 401.35 382.15 407.56 404.52 495.50 C 414.17 533.45 428.39 589.46 436.11 619.96 C 443.83 650.46 450.60 676.25 451.14 677.26 C 451.69 678.28 453.11 679.51 454.32 679.99 C 455.52 680.48 481.15 680.90 511.28 680.94 C 556.14 680.99 566.67 680.75 569.42 679.60 Z M 596.97 679.03 C 598.06 677.94 599.24 675.80 599.60 674.28 C 603.83 656.20 628.45 562.25 629.33 560.81 C 629.97 559.75 632.08 557.90 634.00 556.69 C 637.40 554.56 638.49 554.49 672.00 554.20 C 696.00 553.98 707.77 554.24 710.66 555.05 C 719.26 557.45 718.64 555.77 734.92 620.04 C 746.05 663.94 750.14 678.63 751.54 679.65 C 754.38 681.73 757.77 681.28 759.53 678.59 C 761.03 676.31 760.12 672.27 742.05 600.84 C 702.71 445.35 692.70 406.60 690.50 401.34 L 689.10 398.00 L 674.57 398.00 C 660.60 398.00 659.99 398.09 658.60 400.25 C 657.81 401.49 650.34 429.27 642.00 462.00 C 633.67 494.73 623.03 536.35 618.36 554.50 C 593.30 651.99 588.00 673.14 588.00 675.74 C 588.00 681.01 593.12 682.88 596.97 679.03 Z M 731.35 680.06 C 732.71 679.54 734.12 678.20 734.47 677.08 C 734.86 675.87 730.40 656.27 723.50 628.77 C 708.58 569.37 709.09 571.18 706.63 569.46 C 704.92 568.26 699.12 568.00 673.95 568.00 C 643.48 568.00 643.34 568.01 641.32 570.25 C 639.90 571.81 636.81 582.11 631.18 604.00 C 624.18 631.23 615.62 665.41 613.60 674.23 C 613.14 676.23 613.51 677.51 614.98 678.98 C 616.96 680.96 618.19 681.00 672.93 681.00 C 705.54 681.00 729.90 680.61 731.35 680.06 Z M 544.70 614.50 C 551.23 612.56 557.18 606.87 559.36 600.46 C 560.44 597.29 561.00 592.31 561.00 585.88 C 561.00 576.92 560.82 575.98 558.78 574.56 C 555.84 572.50 554.41 572.59 552.00 575.00 C 550.29 576.71 550.00 578.33 550.00 586.13 C 550.00 597.08 548.10 601.14 541.60 604.10 C 537.95 605.75 534.70 605.96 511.96 605.98 C 487.42 606.00 486.25 605.91 482.04 603.75 C 475.86 600.58 474.00 596.58 474.00 586.49 C 474.00 577.95 472.75 574.69 469.10 573.74 C 468.01 573.45 466.15 573.90 464.96 574.74 C 462.91 576.17 462.82 576.89 463.15 587.88 C 463.47 598.42 463.76 599.94 466.25 604.18 C 469.26 609.30 473.28 612.62 478.89 614.62 C 484.47 616.62 537.90 616.52 544.70 614.50 Z M 534.69 591.51 C 536.59 590.17 536.85 588.89 537.16 579.40 L 537.50 568.78 L 543.26 563.64 L 549.03 558.50 L 549.01 479.82 C 549.00 409.64 548.83 400.97 547.43 399.57 C 546.06 398.20 541.40 398.00 511.46 398.00 C 478.48 398.00 477.03 398.08 476.04 399.93 C 475.35 401.22 475.00 428.17 475.00 480.38 L 475.00 558.89 L 479.97 563.17 C 486.07 568.42 486.76 570.16 487.26 581.39 C 487.58 588.61 488.00 590.53 489.52 591.64 C 492.35 593.71 531.70 593.60 534.69 591.51 Z M 715.17 382.35 C 717.50 380.24 717.50 377.76 715.17 375.65 C 713.47 374.12 698.24 374.01 511.46 374.25 L 309.58 374.50 L 308.07 377.18 C 306.70 379.63 306.73 380.04 308.44 381.93 L 310.31 384.00 L 511.83 384.00 C 697.94 384.00 713.48 383.87 715.17 382.35 Z M 355.60 358.60 C 355.90 357.82 355.32 354.11 354.31 350.35 C 352.68 344.25 352.21 343.50 350.03 343.50 C 347.43 343.50 346.12 346.44 344.53 355.80 L 343.82 360.00 L 349.44 360.00 C 353.35 360.00 355.23 359.57 355.60 358.60 Z M 680.00 357.18 C 680.00 353.28 677.28 344.47 675.65 343.12 C 673.49 341.33 671.23 344.77 669.66 352.26 C 668.89 355.93 668.50 359.17 668.80 359.46 C 669.09 359.76 671.73 360.00 674.67 360.00 C 679.85 360.00 680.00 359.92 680.00 357.18 Z M 317.39 543.02 C 314.53 541.87 311.00 537.21 311.01 534.62 C 311.01 533.45 312.38 527.33 314.04 521.00 C 315.71 514.67 322.71 487.90 329.58 461.50 C 343.13 409.53 343.33 409.00 350.00 409.00 C 355.69 409.00 357.58 412.16 361.98 429.00 C 376.33 484.00 388.00 531.16 388.00 534.14 C 388.00 537.98 385.35 541.54 381.34 543.06 C 378.27 544.23 320.29 544.19 317.39 543.02 Z M 371.44 529.67 C 372.79 528.68 373.13 527.46 372.77 524.92 C 372.18 520.77 353.54 448.56 352.05 444.63 C 350.46 440.45 348.70 441.92 346.74 449.08 C 340.24 472.71 327.00 524.74 327.00 526.62 C 327.00 527.88 327.79 529.36 328.75 529.92 C 331.53 531.54 369.19 531.32 371.44 529.67 Z M 642.00 542.91 C 638.47 541.50 636.05 538.03 636.02 534.35 C 636.00 531.60 656.10 451.77 664.05 423.00 C 667.23 411.50 669.08 409.00 674.42 409.00 C 678.59 409.00 681.64 411.92 683.04 417.25 C 683.66 419.59 685.21 425.33 686.49 430.00 C 687.78 434.67 694.35 460.01 701.09 486.29 C 714.37 538.02 714.26 537.24 708.68 541.40 C 705.97 543.42 704.62 543.51 675.18 543.71 C 656.50 543.83 643.52 543.52 642.00 542.91 Z M 695.07 529.96 C 697.43 528.70 697.60 524.42 695.56 517.43 C 694.77 514.72 690.26 497.42 685.53 479.00 C 675.17 438.66 676.17 442.00 674.47 442.00 C 672.76 442.00 672.66 442.34 660.50 489.42 L 650.70 527.34 L 652.96 529.17 C 654.97 530.80 657.29 531.00 674.18 531.00 C 685.33 531.00 693.93 530.57 695.07 529.96 Z" stroke-linecap="round"/>
</g>
</g>
</g>

  </svg>