<svg xmlns="http://www.w3.org/2000/svg" xmlns:xlink="http://www.w3.org/1999/xlink" width="970px" height="639px" viewBox="0 0 969.5346497515543 638.827304535967">
    <g id="88b6a927-870d-4abd-9027-3b91249b1611">
<g style="">
		<g id="88b6a927-870d-4abd-9027-3b91249b1611-child-0">
<path style="stroke: rgb(193,193,193); stroke-width: 0; stroke-dasharray: none; stroke-linecap: butt; stroke-dashoffset: 0; stroke-linejoin: miter; stroke-miterlimit: 4; fill: rgb(0,0,0); fill-rule: nonzero; opacity: 1;" transform="matrix(1.367947 0 0 1.367947 484.76748 319.413755) matrix(1 0 0 1 0 0)  translate(-512.480191, -512.128022)" d="M 645.00 745.13 C 635.77 742.08 628.63 736.07 624.30 727.72 C 621.13 721.60 621.13 721.64 620.75 662.50 L 620.50 624.50 L 599.00 620.29 C 571.57 614.93 423.25 586.18 378.01 577.46 C 342.41 570.60 335.53 568.61 326.33 562.51 L 321.16 559.09 L 280.33 568.58 C 257.87 573.80 235.11 579.07 229.75 580.28 L 220.00 582.48 L 220.00 603.13 C 220.00 628.17 218.78 633.69 211.44 641.85 C 204.93 649.09 197.82 652.34 188.59 652.28 C 176.09 652.20 166.76 646.10 160.81 634.14 L 158.50 629.50 L 158.24 477.72 C 157.95 309.88 157.50 321.52 164.30 318.50 C 166.06 317.71 186.62 312.57 210.00 307.07 C 233.38 301.58 270.05 292.94 291.50 287.88 C 327.41 279.41 331.33 278.67 341.00 278.63 C 364.21 278.54 380.95 288.38 397.15 311.65 C 403.89 321.34 421.36 346.53 473.34 421.50 C 498.46 457.73 500.63 460.60 504.33 462.35 C 506.19 463.24 518.01 465.97 530.61 468.43 C 576.17 477.32 730.30 507.03 783.00 517.07 C 805.83 521.42 826.75 525.49 829.50 526.13 C 845.42 529.79 858.90 542.22 864.32 558.25 C 866.34 564.21 866.45 566.76 866.78 613.35 C 867.00 645.04 866.74 664.72 866.04 669.35 C 863.87 683.68 855.12 695.92 842.78 701.88 C 838.44 703.97 827.68 706.91 808.00 711.36 C 792.33 714.91 770.12 719.98 758.66 722.62 L 737.81 727.42 L 734.16 725.46 C 724.56 720.32 725.59 706.86 735.80 704.02 C 739.49 703.00 786.30 692.27 816.36 685.56 C 825.20 683.59 833.74 681.09 835.64 679.91 C 837.52 678.75 840.06 675.93 841.28 673.65 C 843.43 669.63 843.51 668.42 843.80 635.25 C 844.14 595.98 845.39 599.83 833.25 602.67 L 826.00 604.37 L 825.99 627.93 C 825.98 650.75 825.90 651.67 823.56 656.69 C 820.69 662.87 815.08 667.33 808.23 668.89 C 805.63 669.48 777.29 676.05 745.26 683.48 C 713.22 690.92 686.40 697.00 685.65 697.00 C 684.60 697.00 684.16 699.67 683.78 708.41 C 683.33 718.40 682.90 720.62 680.26 726.25 C 674.86 737.81 665.35 744.70 653.70 745.52 C 650.29 745.76 646.38 745.58 645.00 745.13 Z M 658.11 720.04 L 661.07 717.09 L 660.78 663.29 L 660.50 609.50 L 657.70 603.80 C 654.28 596.83 646.71 589.78 640.24 587.54 C 636.36 586.19 544.46 567.82 477.00 554.90 C 468.48 553.26 445.75 548.81 426.50 545.01 C 407.25 541.21 384.30 536.69 375.50 534.98 C 347.34 529.50 345.72 528.27 322.33 494.50 C 317.37 487.35 304.59 468.94 293.91 453.58 C 283.23 438.23 263.91 410.33 250.96 391.58 C 224.82 353.74 221.71 350.40 208.72 346.07 C 199.60 343.04 180.96 339.95 180.41 341.39 C 180.17 342.00 180.10 405.80 180.24 483.17 L 180.50 623.84 L 182.92 626.42 C 186.16 629.86 191.74 629.97 194.85 626.66 L 197.05 624.32 L 197.28 498.57 L 197.50 372.83 L 200.30 370.42 C 206.47 365.11 212.91 366.88 218.11 375.33 C 221.06 380.12 246.68 417.16 289.82 479.00 C 322.84 526.34 328.90 534.65 333.39 538.80 C 341.77 546.51 345.06 547.55 386.38 555.49 C 407.35 559.53 442.05 566.27 463.50 570.47 C 484.95 574.68 518.92 581.26 539.00 585.09 C 608.14 598.28 632.51 603.22 635.17 604.60 C 636.64 605.35 638.89 607.44 640.17 609.23 L 642.50 612.50 L 643.01 664.50 C 643.29 693.10 643.91 717.30 644.38 718.28 C 645.46 720.52 649.77 722.91 652.83 722.96 C 654.11 722.98 656.48 721.68 658.11 720.04 Z M 703.00 669.55 C 711.53 667.57 737.40 661.56 760.50 656.21 L 802.50 646.48 L 802.77 628.13 L 803.05 609.77 L 799.46 610.44 C 797.49 610.81 774.42 616.06 748.19 622.11 C 721.96 628.15 696.79 633.84 692.25 634.75 L 684.00 636.39 L 684.00 655.26 C 684.00 672.76 684.13 674.10 685.75 673.64 C 686.71 673.37 694.47 671.53 703.00 669.55 Z M 727.72 602.95 C 751.68 597.42 787.22 589.33 806.70 584.97 C 826.19 580.61 842.51 576.80 842.99 576.51 C 844.57 575.53 842.80 565.55 840.18 560.65 C 837.42 555.51 831.87 551.03 826.00 549.20 C 824.08 548.60 816.20 546.93 808.50 545.49 C 800.80 544.06 769.08 537.98 738.00 531.98 C 673.39 519.52 595.16 504.44 538.59 493.56 C 496.08 485.39 492.38 484.22 484.74 476.58 C 480.88 472.72 442.24 417.85 391.41 344.04 C 381.01 328.94 370.70 314.81 368.50 312.64 C 366.30 310.47 361.58 307.32 358.00 305.63 C 352.59 303.09 349.99 302.51 342.50 302.21 C 333.92 301.86 331.24 302.37 284.50 313.34 C 257.55 319.66 233.05 325.45 230.06 326.21 L 224.63 327.59 L 229.28 330.32 C 236.65 334.64 245.62 343.59 252.95 353.94 C 256.68 359.20 268.92 376.77 280.17 393.00 C 312.25 439.29 343.74 484.60 351.16 495.15 C 355.09 500.74 359.47 505.75 361.56 507.04 C 365.85 509.69 384.76 513.52 581.50 551.59 C 613.95 557.88 643.20 563.95 646.50 565.09 C 654.77 567.94 665.25 575.22 670.72 581.91 C 676.79 589.32 681.97 600.35 682.70 607.40 C 683.02 610.48 683.48 613.00 683.72 613.00 C 683.97 613.00 703.77 608.48 727.72 602.95 Z M 267.00 547.93 C 285.98 543.55 302.08 539.75 302.78 539.50 C 303.63 539.19 302.11 536.34 298.28 531.04 C 294.55 525.88 292.00 523.22 291.09 523.55 C 290.31 523.83 274.00 527.74 254.84 532.24 L 220.00 540.41 L 220.00 549.62 L 220.00 558.82 L 226.25 557.36 C 229.69 556.56 248.02 552.31 267.00 547.93 Z M 264.00 506.45 C 270.88 504.92 276.84 503.38 277.26 503.03 C 277.67 502.68 274.73 497.69 270.71 491.94 C 266.70 486.20 254.47 468.67 243.54 453.00 C 232.60 437.33 222.84 423.43 221.83 422.12 C 220.05 419.79 220.00 421.02 220.00 468.22 L 220.00 516.72 L 235.75 512.97 C 244.41 510.91 257.12 507.97 264.00 506.45 Z" stroke-linecap="round"/>
</g>
</g>
</g>

  </svg>