<svg xmlns="http://www.w3.org/2000/svg" xmlns:xlink="http://www.w3.org/1999/xlink" width="500px" height="411px" viewBox="0 0 500 410.5954935225511">
    <g id="c333d215-27d6-475d-bcdd-b8660d4f2b8a">
<g style="">
		<g id="c333d215-27d6-475d-bcdd-b8660d4f2b8a-child-0">
<path style="stroke: rgb(193,193,193); stroke-width: 0; stroke-dasharray: none; stroke-linecap: butt; stroke-dashoffset: 0; stroke-linejoin: miter; stroke-miterlimit: 4; fill: rgb(0,0,0); fill-rule: nonzero; opacity: 1;" transform="matrix(0.703087 0 0 0.703087 250.000173 205.297889) matrix(1 0 0 1 0 0)  translate(-512.485018, -511.995)" d="M 204.31 802.05 C 202.56 800.98 200.65 799.21 200.06 798.12 C 198.25 794.74 198.80 788.53 201.17 785.51 C 205.10 780.51 207.96 780.00 231.97 780.00 L 254.00 780.00 L 254.00 718.61 L 254.00 657.23 L 229.75 656.76 C 202.45 656.23 198.13 655.39 186.14 648.28 C 173.08 640.53 160.58 623.14 157.99 609.11 C 157.45 606.15 156.98 590.85 156.96 575.11 L 156.91 546.50 L 196.21 507.67 C 254.57 449.99 287.88 417.65 290.33 416.29 C 291.69 415.53 297.03 415.06 304.60 415.04 C 315.59 415.00 317.02 415.21 320.10 417.29 C 326.82 421.81 327.65 429.72 321.96 435.04 C 318.57 438.20 315.30 439.00 305.67 439.00 L 298.60 439.00 L 265.04 472.25 C 246.58 490.54 220.80 516.05 207.74 528.95 C 194.68 541.85 184.00 552.54 184.00 552.70 C 184.00 552.87 189.04 553.00 195.19 553.00 L 206.39 553.00 L 216.94 542.80 C 222.75 537.18 241.68 518.61 259.00 501.52 C 309.34 451.88 306.96 454.00 312.30 454.00 C 320.65 454.00 326.69 462.04 323.70 469.16 C 322.91 471.03 315.51 479.13 306.90 487.53 C 257.86 535.42 241.46 551.56 241.17 552.24 C 240.98 552.66 362.85 553.00 511.99 553.00 L 783.15 553.00 L 781.30 550.75 C 780.28 549.51 763.45 532.64 743.89 513.25 L 708.33 478.00 L 595.24 478.00 L 482.15 478.00 L 479.09 475.43 C 474.66 471.70 473.28 466.33 475.52 461.60 C 478.87 454.55 470.28 455.00 600.50 455.00 L 718.09 455.00 L 767.77 504.00 L 817.46 553.00 L 829.48 552.95 L 841.50 552.91 L 812.00 523.90 C 795.78 507.95 769.60 482.32 753.84 466.95 L 725.18 439.00 L 699.84 438.83 C 685.90 438.74 633.33 438.75 583.00 438.85 C 532.67 438.95 489.06 438.76 486.08 438.42 C 476.71 437.37 471.75 429.54 475.48 421.67 C 478.87 414.55 469.94 414.99 607.65 415.05 C 702.03 415.08 732.14 415.38 734.18 416.30 C 738.00 418.01 864.67 542.78 866.49 546.62 C 868.57 551.01 868.59 595.79 866.51 607.46 C 863.34 625.24 850.76 642.07 834.50 650.26 C 823.80 655.65 820.17 656.24 794.25 656.75 L 770.00 657.23 L 770.00 718.56 L 770.00 779.90 L 793.93 780.20 C 816.38 780.48 818.03 780.63 820.68 782.59 C 822.23 783.74 824.15 786.53 824.95 788.80 C 826.26 792.50 826.24 793.28 824.72 796.47 C 823.79 798.42 821.56 800.91 819.76 802.00 C 816.52 803.98 814.20 803.99 512.00 803.99 C 212.25 803.99 207.45 803.96 204.31 802.05 Z M 675.66 769.75 C 659.57 747.15 645.20 726.31 643.41 723.00 C 641.75 719.94 641.50 717.16 641.42 701.00 C 641.38 690.83 641.26 676.76 641.17 669.75 L 641.00 657.00 L 512.00 657.00 L 383.00 657.00 L 383.00 688.05 C 383.00 714.74 382.77 719.55 381.37 722.30 C 379.70 725.60 365.50 746.25 351.74 765.41 C 347.42 771.41 343.45 777.15 342.91 778.16 C 341.96 779.94 347.27 780.00 512.44 780.00 L 682.95 780.00 L 675.66 769.75 Z M 320.00 711.04 L 320.00 657.08 L 299.00 656.79 L 278.00 656.50 L 278.00 710.75 L 278.00 765.00 L 299.00 765.00 L 320.00 765.00 L 320.00 711.04 Z M 746.86 711.00 L 746.50 657.00 L 725.10 657.00 L 703.70 657.00 L 704.35 667.66 C 704.71 673.52 705.00 697.82 705.00 721.66 L 705.00 765.00 L 726.11 765.00 L 747.21 765.00 L 746.86 711.00 Z M 681.00 696.50 L 681.00 657.00 L 673.00 657.00 L 665.00 657.00 L 665.00 685.12 L 665.00 713.24 L 672.64 724.62 C 676.85 730.88 680.45 736.00 680.64 736.00 C 680.84 736.00 681.00 718.22 681.00 696.50 Z M 351.75 724.61 L 359.00 714.24 L 359.00 685.62 L 359.00 657.00 L 351.50 657.00 L 344.00 657.00 L 343.81 691.25 C 343.71 710.09 343.56 727.64 343.48 730.25 C 343.40 732.86 343.59 735.00 343.92 734.99 C 344.24 734.99 347.76 730.32 351.75 724.61 Z M 824.22 629.21 C 831.62 625.57 837.44 619.72 841.13 612.22 C 843.19 608.02 843.49 605.76 843.81 591.75 L 844.18 576.00 L 836.09 576.00 L 828.00 576.00 L 827.99 587.75 C 827.99 601.14 827.04 605.61 823.26 610.10 C 817.91 616.46 842.30 616.00 511.37 616.00 L 208.68 616.00 L 204.43 613.51 C 197.52 609.46 196.00 605.08 196.00 589.18 L 196.00 576.00 L 188.00 576.00 L 180.00 576.00 L 180.00 588.45 C 180.00 604.08 181.16 609.52 186.09 616.90 C 190.69 623.78 195.22 627.49 202.92 630.66 L 208.50 632.96 L 513.02 632.73 L 817.54 632.50 L 824.22 629.21 Z M 805.00 584.50 L 805.00 576.00 L 512.50 576.00 L 220.00 576.00 L 220.00 578.35 C 220.00 579.65 219.71 583.47 219.36 586.85 L 218.72 593.00 L 511.86 593.00 L 805.00 593.00 L 805.00 584.50 Z M 609.03 534.74 C 605.85 533.11 602.00 527.39 602.00 524.30 C 602.00 521.10 604.47 516.49 607.22 514.56 C 609.15 513.21 614.90 513.00 650.29 513.00 C 678.40 513.00 691.81 513.35 693.32 514.12 C 697.21 516.11 698.95 519.23 698.98 524.23 C 699.00 528.07 698.45 529.59 696.08 532.23 L 693.17 535.50 L 652.33 535.75 C 620.92 535.95 610.93 535.71 609.03 534.74 Z M 355.42 534.03 C 354.27 533.57 352.14 531.76 350.67 530.02 L 348.00 526.85 L 348.00 377.87 C 348.00 213.69 347.56 224.83 354.18 221.41 C 358.01 219.43 364.25 220.03 367.22 222.67 C 372.19 227.10 372.00 220.85 372.00 377.50 C 372.00 538.83 372.39 528.96 365.81 532.97 C 362.34 535.09 358.91 535.44 355.42 534.03 Z M 395.42 534.03 C 394.27 533.57 392.14 531.76 390.67 530.02 L 388.00 526.85 L 388.00 377.87 C 388.00 249.41 388.20 228.51 389.46 226.09 C 391.00 223.11 396.35 220.00 399.95 220.00 C 403.39 220.00 407.93 222.84 410.04 226.30 C 411.95 229.44 411.99 232.48 412.00 377.80 C 412.00 540.73 412.40 530.19 406.03 533.48 C 402.83 535.14 398.68 535.35 395.42 534.03 Z M 435.10 533.79 C 433.77 533.08 431.75 531.23 430.60 529.68 L 428.50 526.85 L 428.24 378.92 C 427.95 215.90 427.57 226.06 434.19 222.03 C 438.14 219.62 442.04 219.45 446.03 221.52 C 452.09 224.65 451.71 215.30 452.28 375.22 C 452.57 455.92 452.43 523.60 451.97 525.63 C 450.78 530.89 447.16 534.13 441.87 534.65 C 439.37 534.90 436.47 534.53 435.10 533.79 Z M 505.11 532.80 C 499.37 529.73 496.74 525.06 497.28 518.88 C 498.59 503.85 517.98 499.77 525.21 513.00 C 529.96 521.69 523.61 533.34 513.41 534.65 C 510.52 535.02 508.36 534.54 505.11 532.80 Z" stroke-linecap="round"/>
</g>
</g>
</g>

  </svg>