<svg xmlns="http://www.w3.org/2000/svg" xmlns:xlink="http://www.w3.org/1999/xlink" width="500px" height="419px" viewBox="0 0 500 419.20792678304593">
    <g id="65bd14bd-0140-4a40-a6ee-877740887f99">
<g style="">
		<g id="65bd14bd-0140-4a40-a6ee-877740887f99-child-0">
<path style="stroke: rgb(193,193,193); stroke-width: 0; stroke-dasharray: none; stroke-linecap: butt; stroke-dashoffset: 0; stroke-linejoin: miter; stroke-miterlimit: 4; fill: rgb(0,0,0); fill-rule: nonzero; opacity: 1;" transform="matrix(1.115657 0 0 1.115657 250.000031 209.60399) matrix(1 0 0 1 0 0)  translate(-512.085565, -512.033703)" d="M 338.00 699.31 C 320.45 696.37 302.41 682.92 294.67 667.00 C 287.58 652.39 288.00 662.20 288.01 512.54 C 288.03 361.76 287.59 371.36 295.19 356.75 C 304.17 339.49 320.47 328.10 340.63 325.00 C 345.31 324.28 401.52 324.03 517.00 324.22 L 686.50 324.50 L 693.00 326.72 C 713.47 333.73 729.76 351.17 734.47 371.11 C 736.75 380.81 736.73 643.27 734.44 653.00 C 731.83 664.11 726.47 673.59 718.03 682.01 C 709.35 690.66 701.59 695.16 690.40 698.02 C 682.85 699.96 678.93 700.00 511.59 699.86 C 417.49 699.79 339.38 699.54 338.00 699.31 Z M 684.20 680.88 C 700.03 677.52 713.60 663.89 716.95 648.00 C 717.77 644.10 718.02 625.94 717.80 585.50 L 717.50 528.50 L 644.66 528.00 L 571.82 527.50 L 569.91 525.14 C 568.03 522.81 567.41 517.71 568.62 514.54 C 570.36 510.02 570.67 510.00 646.45 510.00 L 718.00 510.00 L 718.00 494.49 L 718.00 478.98 L 712.63 483.35 C 706.63 488.24 698.92 492.29 690.87 494.78 C 685.97 496.30 670.83 496.47 518.00 496.77 C 404.89 496.98 347.90 496.75 342.50 496.04 C 331.07 494.54 322.92 491.53 313.89 485.48 L 306.00 480.20 L 306.00 495.09 L 306.00 509.98 L 428.59 510.24 L 551.18 510.50 L 553.09 512.86 C 555.77 516.18 555.64 522.69 552.83 525.69 L 550.65 528.00 L 428.33 528.00 L 306.00 528.00 L 306.00 587.03 C 306.00 643.78 306.08 646.30 308.04 652.11 C 312.88 666.49 323.37 676.73 337.02 680.40 C 341.74 681.66 365.93 681.88 510.70 681.93 C 631.66 681.98 680.39 681.68 684.20 680.88 Z M 688.44 476.10 C 699.16 472.34 709.21 463.37 714.31 453.02 L 717.50 446.54 L 717.50 411.52 C 717.50 380.16 717.31 375.95 715.67 371.25 C 711.65 359.72 701.22 349.55 688.50 344.76 L 682.50 342.50 L 512.50 342.50 C 350.00 342.50 342.23 342.58 336.45 344.35 C 323.51 348.30 312.37 359.41 308.14 372.56 C 306.00 379.25 305.93 380.69 306.21 412.50 L 306.50 445.50 L 309.68 452.22 C 315.10 463.66 324.48 472.05 336.49 476.20 C 341.17 477.82 352.90 477.94 512.27 477.97 C 677.39 478.00 683.23 477.94 688.44 476.10 Z M 630.01 580.41 C 622.24 577.04 617.99 570.26 618.02 561.29 C 618.04 554.06 620.82 548.78 626.84 544.54 L 631.17 541.50 L 650.33 541.21 C 668.64 540.93 669.70 541.02 673.99 543.21 C 676.60 544.55 679.73 547.31 681.49 549.84 C 684.17 553.70 684.50 554.98 684.50 561.50 C 684.50 568.03 684.17 569.29 681.50 573.09 C 679.85 575.43 676.52 578.39 674.09 579.67 C 669.94 581.87 668.64 582.00 651.59 581.96 C 637.70 581.93 632.69 581.57 630.01 580.41 Z M 665.50 562.00 C 665.50 560.75 663.13 560.45 651.25 560.22 C 639.76 560.00 637.00 560.21 637.00 561.31 C 637.00 562.05 637.31 562.98 637.69 563.36 C 638.08 563.74 644.49 563.93 651.94 563.78 C 663.20 563.55 665.50 563.25 665.50 562.00 Z M 359.50 463.98 C 342.34 460.53 326.77 447.88 320.54 432.32 C 308.03 401.07 324.78 366.67 356.46 358.53 C 361.68 357.19 380.98 357.00 512.00 357.00 C 675.34 357.00 666.50 356.70 679.00 362.70 C 686.68 366.40 697.81 377.74 701.84 386.00 C 705.22 392.92 707.97 403.91 707.97 410.50 C 707.97 429.74 695.30 450.66 678.70 458.83 C 665.66 465.25 673.22 464.97 511.00 464.87 C 429.88 464.82 361.70 464.42 359.50 463.98 Z M 669.21 443.22 C 682.27 436.79 689.24 425.45 689.34 410.48 C 689.39 403.53 688.99 401.57 686.30 395.82 C 682.50 387.71 677.17 382.21 669.39 378.39 L 663.50 375.50 L 512.00 375.50 L 360.50 375.50 L 354.95 378.10 C 347.29 381.69 342.90 385.85 338.95 393.21 C 335.94 398.83 335.54 400.51 335.20 409.00 C 334.88 416.89 335.17 419.46 336.94 424.15 C 340.63 433.95 349.63 442.20 360.29 445.56 C 363.72 446.64 392.07 446.85 513.52 446.69 L 662.54 446.50 L 669.21 443.22 Z M 362.71 432.47 C 357.05 430.39 353.29 427.36 350.58 422.68 C 343.71 410.85 347.43 396.96 359.23 390.42 L 364.50 387.50 L 509.44 387.23 C 668.70 386.94 660.54 386.65 668.16 392.96 C 673.24 397.17 676.00 403.30 676.00 410.35 C 676.00 420.42 671.64 427.30 662.50 431.62 L 657.50 433.98 L 512.00 433.92 C 390.27 433.87 365.88 433.63 362.71 432.47 Z M 656.00 414.00 C 658.62 411.38 658.54 408.49 655.78 406.56 C 653.79 405.17 638.50 405.00 512.00 405.00 C 385.50 405.00 370.21 405.17 368.22 406.56 C 365.59 408.40 365.35 411.62 367.65 414.17 C 369.24 415.93 375.02 416.00 511.65 416.00 C 652.67 416.00 654.02 415.98 656.00 414.00 Z" stroke-linecap="round"/>
</g>
</g>
</g>

  </svg>