<svg xmlns="http://www.w3.org/2000/svg" xmlns:xlink="http://www.w3.org/1999/xlink" width="1353px" height="2583px" viewBox="0 0 1353.2486228008593 2583.4749672376493">
    <g id="8f92304e-f3ec-46aa-8878-7edc78f4b4af">
<g style="">
		<g id="8f92304e-f3ec-46aa-8878-7edc78f4b4af-child-0">
<path style="stroke: rgb(193,193,193); stroke-width: 0; stroke-dasharray: none; stroke-linecap: butt; stroke-dashoffset: 0; stroke-linejoin: miter; stroke-miterlimit: 4; fill: rgb(0,0,0); fill-rule: nonzero; opacity: 1;" transform="matrix(4.174439 0 0 4.174439 676.624381 1291.737618) matrix(1 0 0 1 0 0)  translate(-511.9125, -511.561863)" d="M 409.71 818.98 C 408.30 817.88 406.69 815.51 406.13 813.73 C 405.35 811.24 390.87 737.01 378.83 673.75 L 377.74 668.00 L 368.32 668.00 C 357.65 668.00 353.92 666.68 351.52 662.03 C 349.26 657.67 349.26 590.33 351.52 585.97 C 354.71 579.80 352.04 580.00 429.45 580.00 L 500.00 580.00 L 500.00 559.67 L 500.00 539.34 L 484.25 539.79 C 472.30 540.12 466.33 539.83 459.50 538.57 C 435.82 534.21 418.68 525.41 401.32 508.69 C 377.19 485.44 365.00 454.68 365.00 417.04 C 365.00 405.02 365.04 404.81 367.80 402.05 C 371.60 398.24 381.49 396.53 399.50 396.57 C 414.81 396.60 424.25 397.91 436.50 401.71 C 462.99 409.94 482.02 423.39 498.45 445.50 C 499.79 447.30 499.94 445.83 499.97 430.96 L 500.00 414.43 L 492.68 409.20 C 484.37 403.25 471.02 390.15 464.96 382.00 C 452.45 365.16 445.71 345.64 444.42 322.50 C 443.28 302.21 447.91 281.83 458.49 260.50 C 467.95 241.43 480.17 226.34 500.26 208.90 C 510.89 199.66 513.31 199.76 524.77 209.86 C 561.52 242.26 579.18 276.77 579.30 316.50 C 579.38 341.09 573.30 361.09 559.76 380.73 C 553.80 389.37 536.42 406.30 529.20 410.50 L 524.04 413.50 L 524.02 430.31 L 524.00 447.12 L 530.19 439.42 C 546.42 419.25 570.92 404.61 598.00 398.93 C 605.99 397.25 612.20 396.70 624.00 396.61 C 641.77 396.48 651.77 398.03 655.85 401.55 L 658.50 403.84 L 658.41 418.67 C 658.19 454.65 647.42 483.15 625.43 505.96 C 611.07 520.85 593.42 531.28 573.28 536.76 C 564.22 539.23 562.00 539.43 543.23 539.46 L 522.96 539.50 L 523.23 559.50 L 523.50 579.50 L 595.00 580.00 C 650.50 580.39 667.00 580.79 668.74 581.78 C 673.80 584.67 674.00 586.25 674.00 624.05 C 674.00 654.62 673.79 659.55 672.38 661.93 C 669.71 666.45 667.19 667.41 656.53 667.97 L 646.57 668.50 L 645.81 672.00 C 645.39 673.92 638.95 706.33 631.50 744.00 C 624.04 781.67 617.44 813.76 616.83 815.30 C 614.46 821.26 619.19 821.00 511.18 821.00 C 413.53 821.00 412.24 820.97 409.71 818.98 Z M 610.17 735.50 C 617.14 700.85 622.88 671.49 622.92 670.25 L 623.00 668.00 L 512.00 668.00 C 450.95 668.00 401.00 668.25 401.00 668.57 C 401.00 669.18 408.20 706.47 419.05 762.12 C 422.87 781.71 426.00 798.02 426.00 798.37 C 426.00 798.72 464.59 798.90 511.75 798.76 L 597.50 798.50 L 610.17 735.50 Z M 651.00 623.50 L 651.00 602.00 L 511.50 602.00 L 372.00 602.00 L 372.00 623.50 L 372.00 645.00 L 511.50 645.00 L 651.00 645.00 L 651.00 623.50 Z M 478.53 517.05 C 478.21 516.53 467.20 506.39 454.07 494.52 C 440.93 482.65 429.92 472.24 429.59 471.39 C 426.57 463.49 432.71 455.00 441.46 455.00 C 444.68 455.00 446.94 456.78 465.76 474.08 C 477.16 484.57 487.74 494.05 489.25 495.15 C 492.00 497.13 492.00 497.13 492.00 495.13 C 492.00 494.03 491.32 489.92 490.50 485.99 C 484.02 455.18 458.99 430.57 425.42 421.98 C 416.64 419.73 400.04 418.10 392.75 418.77 L 388.00 419.20 L 388.00 424.47 C 388.00 431.43 390.53 445.90 393.17 454.00 C 404.23 487.99 433.09 512.47 467.39 516.95 C 476.21 518.10 479.20 518.13 478.53 517.05 Z M 564.85 515.40 C 580.17 511.98 594.65 504.17 606.38 493.00 C 622.74 477.42 631.79 458.42 634.95 433.03 C 636.71 418.84 636.87 419.37 630.52 418.71 C 623.68 418.01 608.00 419.44 599.74 421.53 C 568.52 429.41 545.26 449.88 536.10 477.50 C 534.46 482.45 532.81 488.98 532.42 492.00 L 531.73 497.50 L 534.11 495.43 C 535.43 494.29 545.05 485.73 555.50 476.41 C 565.95 467.08 575.80 458.45 577.38 457.23 C 580.74 454.64 584.90 454.38 588.99 456.49 C 593.13 458.64 595.00 461.82 595.00 466.74 C 595.00 471.99 595.62 471.32 566.75 497.43 C 554.79 508.26 545.00 517.35 545.00 517.63 C 545.00 518.43 557.67 517.00 564.85 515.40 Z M 501.78 303.26 C 503.50 300.25 508.10 298.00 512.55 298.00 C 515.37 298.00 516.98 298.78 519.60 301.40 L 523.00 304.80 L 523.02 344.15 C 523.02 365.79 523.40 384.08 523.85 384.79 C 524.79 386.27 536.48 374.52 541.90 366.65 C 552.88 350.68 558.24 328.39 556.00 308.00 C 553.09 281.53 542.40 259.81 521.93 238.78 L 511.99 228.56 L 503.92 236.53 C 492.85 247.47 484.84 258.34 479.01 270.36 C 464.78 299.67 463.52 329.54 475.46 354.74 C 480.09 364.51 484.04 370.12 492.44 378.83 L 499.50 386.17 L 500.00 345.83 C 500.37 315.68 500.82 304.94 501.78 303.26 Z" stroke-linecap="round"/>
</g>
</g>
</g>

  </svg>