<svg xmlns="http://www.w3.org/2000/svg" xmlns:xlink="http://www.w3.org/1999/xlink" width="500px" height="494px" viewBox="0 0 499.9999999999998 494.0280547512339">
    <g id="eeeae087-3ffa-49b7-9c92-b86b3e8e54fb">
<g style="">
		<g id="eeeae087-3ffa-49b7-9c92-b86b3e8e54fb-child-0">
<path style="stroke: rgb(193,193,193); stroke-width: 0; stroke-dasharray: none; stroke-linecap: butt; stroke-dashoffset: 0; stroke-linejoin: miter; stroke-miterlimit: 4; fill: rgb(0,0,0); fill-rule: nonzero; opacity: 1;" transform="matrix(0.983283 0 0 0.983283 249.999895 247.013924) matrix(1 0 0 1 0 0)  translate(-512.250196, -511.712876)" d="M 411.69 761.50 C 392.59 756.25 377.85 740.29 374.44 721.17 C 373.43 715.52 373.06 702.54 373.03 671.83 L 373.00 630.17 L 340.75 629.78 C 308.95 629.40 308.39 629.35 300.50 626.72 C 280.49 620.03 265.15 603.64 259.98 583.40 C 258.11 576.12 258.00 572.15 258.00 513.00 C 258.00 453.89 258.11 449.88 259.97 442.61 C 265.21 422.13 279.20 406.70 299.17 399.38 C 301.55 398.51 307.10 397.26 311.50 396.60 L 319.50 395.40 L 320.00 374.45 C 320.50 353.55 320.51 353.48 323.60 347.00 C 328.11 337.52 334.66 330.77 343.65 326.33 C 350.68 322.85 351.85 322.60 362.46 322.19 L 373.78 321.76 L 374.23 312.13 C 375.37 287.59 389.32 269.44 412.50 262.34 C 418.14 260.61 424.05 260.50 511.00 260.50 C 611.72 260.50 608.27 260.32 621.00 266.28 C 625.53 268.39 629.63 271.47 634.52 276.41 C 644.94 286.93 649.63 298.17 650.22 314.00 L 650.50 321.50 L 661.00 322.12 C 676.11 323.01 684.63 326.62 693.19 335.77 C 702.63 345.86 704.96 354.43 704.98 379.11 L 705.00 395.72 L 711.38 396.38 C 719.34 397.19 728.82 400.23 736.00 404.27 C 744.60 409.12 755.02 420.16 759.33 429.00 C 766.68 444.09 766.50 442.02 766.50 513.50 C 766.50 572.56 766.36 578.00 764.66 584.00 C 758.34 606.40 740.07 623.91 718.16 628.55 C 713.28 629.59 703.44 629.97 681.25 629.98 L 651.00 630.00 L 650.99 673.75 C 650.97 709.24 650.69 718.71 649.46 723.91 C 645.26 741.74 631.40 756.02 613.07 761.40 C 608.25 762.82 596.79 762.99 512.07 762.91 C 436.15 762.84 415.51 762.55 411.69 761.50 Z M 611.50 738.20 C 618.04 735.19 622.69 730.68 625.61 724.50 L 627.98 719.50 L 627.99 660.72 C 628.00 609.82 627.79 601.44 626.45 598.22 C 624.49 593.52 620.56 589.36 615.76 586.89 C 612.14 585.03 608.97 584.98 510.18 585.24 L 408.34 585.50 L 404.77 588.22 C 402.81 589.72 400.15 593.10 398.85 595.72 L 396.50 600.50 L 396.22 657.89 C 395.90 722.79 395.84 722.13 403.10 730.38 C 407.49 735.36 412.54 738.44 418.73 739.92 C 420.85 740.43 462.80 740.75 514.50 740.66 L 606.50 740.50 L 611.50 738.20 Z M 373.52 602.25 C 374.65 593.81 376.85 587.54 380.83 581.38 C 385.45 574.24 391.45 569.08 399.57 565.28 L 405.50 562.50 L 511.00 562.50 L 616.50 562.50 L 622.22 564.81 C 638.17 571.25 649.00 585.29 650.73 601.75 L 651.28 607.00 L 681.53 607.00 C 708.90 607.00 712.40 606.81 718.14 605.02 C 725.81 602.62 733.16 597.21 737.67 590.63 C 744.17 581.17 744.09 582.21 743.78 510.87 L 743.50 446.46 L 740.25 439.86 C 734.50 428.19 724.48 421.16 710.50 419.01 C 705.63 418.27 643.58 418.02 507.00 418.22 L 310.50 418.50 L 304.75 420.82 C 292.90 425.61 284.72 435.04 281.51 447.64 C 280.15 452.95 279.98 462.13 280.22 515.64 L 280.50 577.50 L 282.80 583.20 C 287.02 593.63 298.39 603.25 309.62 605.89 C 311.75 606.39 326.86 606.84 343.19 606.90 L 372.88 607.00 L 373.52 602.25 Z M 373.77 370.25 L 373.50 345.50 L 366.00 345.18 C 356.28 344.78 352.04 346.11 347.68 350.94 C 342.77 356.36 342.01 360.10 342.01 378.75 L 342.00 395.00 L 358.02 395.00 L 374.03 395.00 L 373.77 370.25 Z M 627.82 350.73 L 627.50 306.45 L 624.19 299.72 C 620.11 291.44 614.61 286.92 605.75 284.56 C 600.10 283.05 590.81 282.92 508.50 283.20 L 417.50 283.50 L 412.73 285.87 C 410.11 287.17 406.20 290.24 404.05 292.68 C 396.94 300.76 396.89 301.15 396.35 350.75 L 395.87 395.00 L 512.00 395.00 L 628.13 395.00 L 627.82 350.73 Z M 682.00 377.70 C 682.00 361.25 681.88 360.15 679.51 355.45 C 675.42 347.32 666.19 343.16 655.25 344.50 L 650.00 345.14 L 650.00 370.07 L 650.00 395.00 L 666.00 395.00 L 682.00 395.00 L 682.00 377.70 Z M 507.66 719.01 L 447.83 718.50 L 445.46 715.75 C 440.32 709.78 441.83 700.73 448.48 697.58 C 453.36 695.26 571.52 695.18 575.99 697.49 C 580.00 699.57 582.00 702.79 582.00 707.18 C 582.00 714.32 578.33 718.32 571.00 719.13 C 569.08 719.35 540.57 719.29 507.66 719.01 Z M 449.00 673.25 C 446.83 672.16 444.78 670.02 443.59 667.58 C 441.85 664.03 441.81 663.30 443.09 659.67 C 443.86 657.48 445.77 654.74 447.32 653.59 C 450.10 651.53 451.05 651.50 511.11 651.22 C 564.42 650.98 572.48 651.13 575.33 652.49 C 584.01 656.61 584.20 669.30 575.64 673.37 C 572.57 674.82 565.67 675.00 512.35 675.00 C 457.37 675.00 452.21 674.85 449.00 673.25 Z M 448.31 628.05 C 444.21 625.55 443.00 623.18 443.00 617.64 C 443.00 613.96 443.55 612.60 446.08 610.08 L 449.15 607.00 L 512.18 607.00 L 575.20 607.00 L 578.60 610.40 C 581.18 612.98 582.00 614.65 582.00 617.33 C 582.00 622.58 580.44 625.76 576.77 628.00 C 573.60 629.93 571.71 629.99 512.50 629.99 C 453.86 629.99 451.38 629.92 448.31 628.05 Z M 330.80 542.07 C 320.29 538.71 312.42 531.43 307.20 520.24 C 304.93 515.36 304.53 513.14 304.52 505.50 C 304.51 497.46 304.85 495.79 307.67 489.82 C 311.90 480.88 317.76 474.73 325.86 470.75 C 332.05 467.71 333.14 467.50 342.98 467.50 C 352.60 467.51 353.99 467.75 359.23 470.41 C 367.28 474.48 373.57 480.88 377.33 488.81 C 380.23 494.94 380.50 496.34 380.50 505.50 C 380.50 514.63 380.23 516.07 377.39 522.00 C 368.88 539.80 349.63 548.09 330.80 542.07 Z M 351.17 519.38 C 358.26 515.79 361.07 504.90 356.79 497.58 C 353.65 492.20 346.99 488.68 341.14 489.31 C 327.77 490.75 321.92 508.38 331.83 517.35 C 336.70 521.76 344.80 522.61 351.17 519.38 Z M 670.50 542.66 C 654.94 537.50 644.62 524.84 643.32 509.29 C 640.24 472.51 685.07 452.57 710.00 479.62 C 716.38 486.54 719.39 493.90 719.83 503.69 C 720.85 526.25 705.51 542.91 683.00 543.69 C 677.83 543.87 672.93 543.46 670.50 542.66 Z M 688.73 520.04 C 698.75 515.49 700.87 502.01 692.78 494.34 C 686.01 487.93 676.90 487.91 670.23 494.30 C 662.31 501.88 664.53 515.61 674.40 520.10 C 679.62 522.46 683.42 522.45 688.73 520.04 Z M 484.33 535.18 C 477.48 532.77 472.64 528.94 468.51 522.66 C 460.17 510.00 461.70 494.10 472.30 483.17 C 480.68 474.52 480.78 474.50 512.00 474.50 L 539.50 474.50 L 544.82 477.45 C 550.76 480.74 554.88 484.99 558.24 491.28 C 560.13 494.81 560.49 497.06 560.49 505.00 C 560.49 513.39 560.17 515.10 557.79 519.63 C 554.37 526.13 550.13 530.36 543.63 533.79 C 538.50 536.50 538.48 536.50 514.00 536.75 C 492.46 536.97 488.87 536.78 484.33 535.18 Z M 536.41 510.92 C 539.38 507.40 539.63 505.11 537.49 500.99 C 535.18 496.52 531.08 495.81 509.66 496.18 L 490.82 496.50 L 488.41 499.31 C 485.16 503.09 485.18 508.27 488.45 511.55 C 490.91 514.00 490.92 514.00 512.37 514.00 L 533.82 514.00 L 536.41 510.92 Z M 422.00 516.91 C 418.01 515.27 415.06 511.93 413.95 507.80 C 411.75 499.65 418.32 492.00 427.52 492.00 C 430.50 492.00 432.00 492.77 435.12 495.88 C 438.44 499.21 439.00 500.39 439.00 504.13 C 438.99 508.80 436.36 514.20 433.29 515.85 C 430.25 517.47 424.65 518.00 422.00 516.91 Z M 592.27 516.52 C 586.19 513.87 583.19 505.13 586.28 499.03 C 588.12 495.39 593.72 492.00 597.90 492.00 C 608.56 492.01 614.81 505.15 607.79 512.77 C 605.31 515.47 600.13 518.02 597.28 517.96 C 596.30 517.94 594.05 517.29 592.27 516.52 Z M 431.33 372.90 C 422.19 370.25 420.08 357.58 427.90 352.26 C 430.32 350.62 435.98 350.48 510.29 350.22 C 565.10 350.03 591.33 350.28 594.08 351.02 C 601.91 353.13 604.63 363.03 599.08 369.23 C 596.27 372.39 595.83 372.52 586.33 373.15 C 571.06 374.16 434.92 373.94 431.33 372.90 Z M 426.40 324.60 C 422.57 320.77 421.89 316.05 424.46 311.09 C 427.68 304.84 425.62 305.00 504.15 305.00 C 573.95 305.01 575.57 305.05 578.81 307.03 C 583.39 309.82 585.55 315.21 584.07 320.15 C 583.46 322.21 581.78 324.82 580.34 325.95 C 577.76 327.98 576.86 328.00 503.77 328.00 L 429.80 328.00 L 426.40 324.60 Z" stroke-linecap="round"/>
</g>
</g>
</g>

  </svg>