<svg xmlns="http://www.w3.org/2000/svg" xmlns:xlink="http://www.w3.org/1999/xlink" width="970px" height="893px" viewBox="0 0 969.5346497515543 892.9861325677016">
    <g id="13348fe6-f027-485d-89b3-25e87286c27c">
<g style="">
		<g id="13348fe6-f027-485d-89b3-25e87286c27c-child-0">
<path style="stroke: rgb(193,193,193); stroke-width: 0; stroke-dasharray: none; stroke-linecap: butt; stroke-dashoffset: 0; stroke-linejoin: miter; stroke-miterlimit: 4; fill: rgb(0,0,0); fill-rule: nonzero; opacity: 1;" transform="matrix(1.321199 0 0 1.321199 484.76749 446.493219) matrix(1 0 0 1 0 0)  translate(-511.895863, -512.445471)" d="M 288.92 849.96 C 280.08 848.52 271.80 842.30 267.40 833.81 C 265.14 829.46 264.37 817.43 266.03 812.39 C 268.91 803.64 275.72 796.85 284.50 793.98 C 289.29 792.41 300.02 792.40 302.93 793.96 C 305.51 795.34 305.77 795.17 339.50 770.00 C 397.89 726.43 457.99 682.24 482.37 664.95 L 487.24 661.50 L 480.10 660.78 C 471.60 659.91 469.54 658.95 467.42 654.85 C 465.32 650.78 466.29 645.71 469.67 643.04 C 472.21 641.05 473.43 641.00 522.55 641.00 L 572.82 641.00 L 575.41 644.08 C 578.83 648.14 578.84 652.85 575.43 656.90 L 572.86 659.96 L 554.68 660.23 L 536.50 660.50 L 557.00 675.44 C 583.16 694.51 634.13 732.34 677.00 764.51 C 719.33 796.27 718.19 795.51 721.17 793.88 C 722.45 793.18 726.65 792.60 730.50 792.59 C 756.17 792.56 769.02 823.86 750.69 841.80 C 739.24 853.01 722.07 853.28 710.06 842.43 C 703.76 836.75 701.72 832.02 701.21 821.96 L 700.78 813.42 L 686.64 807.06 C 678.86 803.56 659.45 794.74 643.50 787.46 C 576.74 756.98 523.45 733.00 522.49 733.00 C 522.22 733.00 522.00 737.54 522.00 743.10 C 522.00 750.72 521.59 753.88 520.33 756.01 C 517.48 760.84 512.26 762.22 507.06 759.53 C 503.21 757.54 502.00 753.45 502.00 742.35 C 502.00 737.21 501.76 733.00 501.46 733.00 C 500.56 733.00 445.00 757.99 377.50 788.76 C 352.75 800.04 330.42 810.17 327.87 811.28 L 323.24 813.30 L 322.81 821.49 C 322.45 828.27 321.85 830.60 319.34 835.09 C 313.29 845.88 300.91 851.93 288.92 849.96 Z M 736.75 827.71 C 738.99 825.66 739.73 821.06 738.38 817.54 C 737.59 815.49 732.83 813.00 729.68 813.00 C 728.36 813.00 726.08 813.93 724.63 815.07 C 722.53 816.73 722.00 817.99 722.00 821.40 C 722.00 829.78 730.51 833.42 736.75 827.71 Z M 300.03 827.47 C 305.35 821.81 301.32 813.00 293.40 813.00 C 286.00 813.00 282.20 822.29 287.45 827.55 C 290.88 830.97 296.77 830.94 300.03 827.47 Z M 435.50 740.80 C 450.90 733.94 472.16 724.55 482.75 719.95 L 502.00 711.58 L 502.00 693.23 C 502.00 678.81 501.73 675.05 500.75 675.64 C 500.06 676.06 494.55 680.06 488.50 684.53 C 482.45 688.99 462.88 703.39 445.00 716.52 C 411.21 741.33 381.23 763.62 379.50 765.19 C 378.47 766.14 387.47 762.22 435.50 740.80 Z M 645.00 765.63 C 645.00 764.88 528.04 678.39 523.25 675.61 C 522.27 675.04 522.00 678.82 522.02 693.19 L 522.04 711.50 L 533.74 716.50 C 540.18 719.25 567.73 731.48 594.97 743.68 C 650.26 768.43 645.00 766.12 645.00 765.63 Z M 501.74 848.63 C 491.66 844.87 484.26 835.01 483.27 823.99 C 482.23 812.62 487.76 802.06 497.42 796.93 C 501.89 794.56 502.00 794.39 502.00 789.69 C 502.00 783.84 503.15 781.49 506.98 779.51 C 510.64 777.62 513.33 777.60 516.91 779.45 C 521.11 781.63 522.25 785.51 521.85 796.34 C 521.45 807.28 520.49 808.94 513.13 811.60 C 506.57 813.96 502.62 818.33 503.40 822.38 C 504.83 829.86 513.69 832.54 518.41 826.92 C 519.84 825.23 521.00 822.96 521.00 821.87 C 521.00 812.65 533.48 807.75 539.06 814.79 C 540.90 817.11 541.15 818.44 540.76 824.00 C 540.49 827.79 539.43 832.20 538.22 834.57 C 535.91 839.09 529.87 844.97 524.81 847.62 C 520.39 849.93 506.83 850.53 501.74 848.63 Z M 162.49 657.16 C 156.06 654.11 151.38 649.52 147.77 642.72 C 145.99 639.37 145.53 636.86 145.53 630.50 C 145.53 620.99 147.73 615.27 153.68 609.32 C 159.04 603.96 164.27 601.67 172.25 601.19 L 179.01 600.77 L 178.75 427.27 L 178.50 253.77 L 172.84 252.02 C 165.73 249.82 161.63 247.29 156.33 241.81 C 137.27 222.12 142.97 190.53 167.79 178.26 L 175.40 174.50 L 511.95 174.50 L 848.50 174.50 L 855.27 177.71 C 863.75 181.72 872.12 189.89 875.80 197.73 C 878.20 202.85 878.50 204.68 878.50 214.02 C 878.50 223.89 878.30 224.96 875.22 231.20 C 873.42 234.86 869.85 239.92 867.30 242.44 C 862.06 247.60 852.11 253.00 847.84 253.00 L 845.00 253.00 L 845.00 427.00 L 845.00 601.00 L 850.75 601.01 C 858.55 601.02 865.27 604.28 871.28 610.96 C 885.24 626.49 879.01 650.49 859.04 658.08 C 854.53 659.79 851.23 660.00 828.92 660.00 C 813.65 660.00 803.12 659.60 801.94 658.97 C 796.55 656.08 795.81 646.86 800.67 643.04 C 803.13 641.11 804.61 641.00 827.41 641.00 C 848.52 641.00 851.87 640.79 854.03 639.30 C 857.88 636.64 858.93 634.80 858.97 630.68 C 859.01 625.84 857.70 623.41 854.02 621.51 C 851.43 620.17 812.50 620.00 511.80 620.01 C 244.20 620.03 171.98 620.29 170.05 621.27 C 168.71 621.95 166.74 624.00 165.67 625.83 C 163.01 630.38 164.59 635.97 169.39 638.93 C 172.73 641.00 172.95 641.00 309.23 641.00 C 444.49 641.00 445.75 641.02 448.29 643.01 C 449.70 644.12 451.13 646.32 451.48 647.91 C 452.26 651.47 449.92 657.44 447.15 658.92 C 445.73 659.68 403.98 660.00 306.82 660.00 L 168.50 660.00 L 162.49 657.16 Z M 215.00 444.04 L 215.00 287.08 L 211.25 286.04 C 209.19 285.47 205.54 283.88 203.15 282.50 C 200.75 281.13 198.62 280.00 198.40 280.00 C 198.18 280.00 198.00 352.23 198.00 440.50 L 198.00 601.00 L 206.50 601.00 L 215.00 601.00 L 215.00 444.04 Z M 789.76 444.25 L 789.50 287.50 L 511.75 287.25 L 234.00 287.00 L 234.00 444.00 L 234.00 601.00 L 512.01 601.00 L 790.03 601.00 L 789.76 444.25 Z M 825.56 440.25 C 825.59 352.11 825.53 280.00 825.43 280.00 C 825.33 280.00 823.28 281.07 820.88 282.39 C 818.47 283.70 814.81 285.31 812.75 285.97 L 809.00 287.16 L 809.00 444.12 L 809.00 601.08 L 817.25 600.79 L 825.50 600.50 L 825.56 440.25 Z M 809.30 266.65 C 812.43 265.34 819.00 258.84 819.00 257.05 C 819.00 256.56 819.27 255.45 819.61 254.58 C 820.16 253.14 792.64 253.00 512.00 253.00 L 203.78 253.00 L 204.46 255.75 C 205.38 259.46 209.64 263.85 214.50 266.10 C 218.36 267.89 228.46 267.96 512.28 267.98 C 756.80 268.00 806.61 267.77 809.30 266.65 Z M 179.92 229.85 C 175.35 220.88 175.62 207.62 180.58 197.69 L 182.98 192.87 L 180.74 193.55 C 176.04 194.97 170.93 198.49 168.57 201.93 C 161.51 212.16 164.72 226.68 175.17 231.85 C 181.60 235.04 182.40 234.70 179.92 229.85 Z M 818.34 230.66 C 826.77 225.70 830.22 214.49 826.11 205.43 C 823.99 200.76 817.89 195.32 813.50 194.18 C 810.07 193.29 215.22 193.62 210.23 194.51 C 205.97 195.28 200.16 200.43 197.86 205.49 C 192.81 216.61 199.47 230.20 211.36 233.05 C 213.09 233.46 349.27 233.73 514.00 233.65 L 813.50 233.50 L 818.34 230.66 Z M 849.47 231.72 C 858.61 226.54 862.30 214.28 857.51 205.01 C 854.90 199.97 849.20 195.40 843.24 193.56 L 840.98 192.86 L 843.43 197.46 C 848.75 207.47 848.95 220.30 843.93 230.14 C 842.08 233.76 842.07 234.00 843.73 233.98 C 844.70 233.97 847.29 232.96 849.47 231.72 Z M 596.08 657.41 C 591.80 653.81 591.73 648.11 595.92 643.92 L 598.85 641.00 L 687.49 641.00 C 749.07 641.00 776.75 641.33 778.15 642.08 C 781.43 643.83 783.32 649.51 781.97 653.58 C 779.72 660.42 785.88 660.00 687.85 660.00 L 599.15 660.00 L 596.08 657.41 Z M 428.26 583.94 C 422.11 582.06 420.19 574.30 424.59 569.08 C 427.05 566.16 427.55 566.00 434.52 566.00 C 441.25 566.00 442.02 566.22 443.93 568.63 C 446.76 572.23 446.68 578.11 443.75 581.47 C 441.16 584.45 433.77 585.62 428.26 583.94 Z M 254.59 580.92 C 253.17 579.23 252.00 576.73 252.00 575.37 C 252.00 571.45 254.77 567.10 257.77 566.30 C 259.27 565.91 292.38 565.56 331.34 565.54 L 402.17 565.50 L 404.59 568.31 C 407.92 572.18 407.90 578.19 404.55 581.55 L 402.09 584.00 L 329.63 584.00 L 257.18 584.00 L 254.59 580.92 Z M 574.92 561.08 C 571.09 557.25 570.97 552.38 574.59 548.08 C 577.02 545.18 577.59 545.00 584.13 545.00 C 590.19 545.00 591.41 545.32 593.55 547.45 C 595.41 549.31 595.99 550.95 595.97 554.20 C 595.92 561.31 592.49 564.00 583.49 564.00 C 578.59 564.00 577.46 563.62 574.92 561.08 Z M 616.83 562.47 C 613.20 560.50 611.37 554.92 613.04 550.90 C 615.61 544.69 611.49 545.00 691.80 545.00 L 765.15 545.00 L 768.08 547.92 C 772.63 552.48 771.31 560.17 765.53 562.81 C 763.57 563.70 744.74 563.99 691.20 563.96 C 630.53 563.93 619.09 563.70 616.83 562.47 Z M 257.11 550.62 C 251.49 547.47 250.44 540.41 254.92 535.92 L 257.85 533.00 L 308.00 533.00 L 358.15 533.00 L 361.08 535.92 C 364.84 539.68 365.04 544.68 361.59 548.69 L 359.17 551.50 L 309.34 551.73 C 269.22 551.91 259.03 551.70 257.11 550.62 Z M 667.92 528.08 C 663.70 523.85 664.16 516.93 668.91 513.28 C 670.57 512.01 681.64 511.54 684.46 512.62 C 686.69 513.48 689.00 518.26 689.00 522.03 C 689.00 524.15 688.06 526.09 686.08 528.08 C 683.48 530.67 682.47 531.00 677.00 531.00 C 671.53 531.00 670.52 530.67 667.92 528.08 Z M 708.83 529.47 C 705.73 527.79 703.61 522.38 704.57 518.58 C 704.93 517.15 706.36 515.08 707.75 513.98 C 710.12 512.12 711.85 512.00 736.68 512.00 C 765.67 512.00 767.66 512.35 769.92 517.80 C 771.52 521.67 770.42 525.47 766.81 528.50 L 763.85 531.00 L 737.67 530.96 C 716.77 530.93 710.96 530.63 708.83 529.47 Z M 255.69 516.59 C 252.37 513.51 251.44 509.78 253.03 505.93 C 255.40 500.20 257.30 499.87 286.13 500.20 L 312.18 500.50 L 314.59 503.31 C 318.20 507.51 317.92 513.05 313.92 516.41 L 310.85 519.00 L 284.57 519.00 L 258.29 519.00 L 255.69 516.59 Z M 334.92 516.08 C 331.16 512.32 330.96 507.32 334.41 503.31 C 336.64 500.72 337.38 500.50 344.00 500.50 C 350.62 500.50 351.36 500.72 353.59 503.31 C 356.92 507.18 356.90 513.19 353.55 516.55 C 351.43 518.66 350.17 519.00 344.47 519.00 C 338.48 519.00 337.57 518.72 334.92 516.08 Z M 580.45 495.55 C 578.00 493.09 577.13 487.43 578.62 483.54 C 579.64 480.89 584.54 479.00 590.39 479.00 C 598.01 479.00 601.50 481.93 601.50 488.33 C 601.50 491.73 600.90 493.48 599.08 495.42 C 596.93 497.71 595.87 498.00 589.78 498.00 C 583.82 498.00 582.58 497.68 580.45 495.55 Z M 619.92 495.08 C 615.99 491.15 615.84 485.44 619.58 481.92 L 622.16 479.50 L 691.33 479.20 C 739.10 478.99 761.66 479.24 764.24 479.99 C 771.10 481.98 773.14 490.01 768.08 495.08 L 765.15 498.00 L 694.00 498.00 L 622.85 498.00 L 619.92 495.08 Z M 254.92 483.08 C 251.67 479.83 251.21 476.43 253.43 472.15 C 256.05 467.07 256.77 467.00 304.97 467.00 L 349.85 467.00 L 352.92 469.59 C 355.37 471.65 356.00 472.96 356.00 476.01 C 356.00 486.26 357.39 486.00 303.47 486.00 L 257.85 486.00 L 254.92 483.08 Z M 668.39 465.02 C 665.41 463.82 662.00 459.17 662.00 456.32 C 662.00 453.17 664.49 448.41 666.54 447.62 C 669.23 446.59 762.62 446.91 765.39 447.96 C 768.74 449.23 771.31 454.31 770.49 458.05 C 770.14 459.64 768.50 462.08 766.85 463.47 L 763.85 466.00 L 717.17 465.94 C 691.50 465.90 669.55 465.49 668.39 465.02 Z M 257.48 452.67 C 251.78 450.07 250.40 443.06 254.59 438.08 L 257.18 435.00 L 279.13 435.00 L 301.09 435.00 L 303.55 437.45 C 307.14 441.05 307.20 447.15 303.67 450.66 C 301.63 452.69 300.25 452.86 281.00 453.44 C 264.70 453.92 259.88 453.76 257.48 452.67 Z M 699.45 430.55 C 697.59 428.68 697.00 427.03 697.00 423.66 C 697.00 416.79 699.27 414.70 707.33 414.19 C 713.60 413.79 714.08 413.92 716.96 416.81 C 720.97 420.81 721.23 426.87 717.55 430.55 C 715.44 432.65 714.16 433.00 708.50 433.00 C 702.84 433.00 701.56 432.65 699.45 430.55 Z M 739.31 430.59 C 735.56 427.37 735.29 420.26 738.78 416.78 C 740.90 414.66 741.90 414.50 753.11 414.50 C 765.09 414.50 765.19 414.52 767.59 417.31 C 770.97 421.24 770.88 426.85 767.36 430.36 C 764.83 432.90 764.30 433.00 753.42 433.00 C 742.91 433.00 741.91 432.83 739.31 430.59 Z M 255.49 418.75 C 251.56 415.36 251.01 409.26 254.30 405.43 L 256.82 402.50 L 277.56 402.19 C 301.03 401.84 303.40 402.31 305.68 407.78 C 307.50 412.14 306.60 416.38 303.29 418.99 C 300.91 420.86 299.26 421.00 279.42 421.00 C 258.76 421.00 258.03 420.93 255.49 418.75 Z M 260.27 388.19 C 252.17 386.46 249.27 377.55 255.05 372.17 C 258.08 369.35 264.54 369.00 313.68 369.00 C 360.92 369.00 363.45 369.23 365.92 373.85 C 367.86 377.47 367.22 382.87 364.55 385.55 L 362.09 388.00 L 324.70 388.00 C 304.14 388.00 281.96 388.20 275.41 388.44 C 268.86 388.68 262.04 388.57 260.27 388.19 Z M 255.31 353.59 C 251.57 350.37 251.29 343.26 254.78 339.78 C 257.05 337.50 257.13 337.50 292.51 337.21 C 331.59 336.90 332.52 337.02 334.97 342.93 C 336.53 346.69 335.66 350.43 332.50 353.59 L 330.09 356.00 L 294.10 356.00 L 258.11 356.00 L 255.31 353.59 Z M 258.29 322.97 C 252.71 321.22 250.32 315.02 253.16 309.68 C 255.67 304.98 254.67 305.07 309.08 305.03 L 360.65 305.00 L 363.05 307.56 C 366.44 311.16 366.36 317.10 362.88 320.58 L 360.30 323.16 L 310.90 323.57 C 279.40 323.83 260.34 323.61 258.29 322.97 Z M 385.36 323.03 C 379.82 320.74 378.18 312.22 382.35 307.38 C 384.31 305.10 385.69 304.58 390.71 304.21 C 396.24 303.81 396.98 304.01 400.00 306.71 C 402.73 309.15 403.27 310.34 403.27 313.91 C 403.27 319.86 400.28 322.61 393.00 323.35 C 389.98 323.66 386.54 323.52 385.36 323.03 Z" stroke-linecap="round"/>
</g>
</g>
</g>

  </svg>