<svg xmlns="http://www.w3.org/2000/svg" xmlns:xlink="http://www.w3.org/1999/xlink" width="500px" height="261px" viewBox="0 0 499.9999999999998 261.3057535733487">
    <g id="feef2846-4747-42a1-a66c-ca10dc1c17d1">
<g style="">
		<g id="feef2846-4747-42a1-a66c-ca10dc1c17d1-child-0">
<path style="stroke: rgb(193,193,193); stroke-width: 0; stroke-dasharray: none; stroke-linecap: butt; stroke-dashoffset: 0; stroke-linejoin: miter; stroke-miterlimit: 4; fill: rgb(0,0,0); fill-rule: nonzero; opacity: 1;" transform="matrix(0.735405 0 0 0.735405 249.999861 130.652804) matrix(1 0 0 1 0 0)  translate(-512.061515, -512.161023)" d="M 223.50 688.66 C 216.34 686.28 211.54 683.28 206.83 678.25 C 197.21 667.96 197.11 667.36 196.97 618.50 C 196.91 595.95 196.59 565.69 196.27 551.25 L 195.68 525.00 L 191.56 522.59 C 185.62 519.11 178.28 510.84 175.23 504.22 C 173.24 499.87 172.51 496.44 172.19 489.90 C 171.50 475.66 175.41 465.63 185.35 456.23 C 191.46 450.45 196.59 447.60 204.68 445.50 C 212.10 443.56 217.85 443.68 226.50 445.95 C 230.35 446.96 233.65 447.65 233.83 447.48 C 234.01 447.31 234.26 433.75 234.38 417.34 C 234.63 384.07 235.05 380.95 241.01 368.50 C 248.00 353.88 261.32 342.33 277.50 336.86 L 284.50 334.50 L 379.50 334.50 L 474.50 334.50 L 481.24 337.12 C 491.41 341.08 498.52 345.78 505.53 353.20 L 511.86 359.89 L 519.68 352.08 C 527.65 344.12 534.06 340.15 545.00 336.39 C 550.24 334.59 554.96 334.50 645.00 334.50 C 734.74 334.50 739.78 334.59 745.00 336.37 C 766.67 343.75 782.22 359.71 787.53 380.00 C 788.98 385.52 789.21 391.18 789.08 417.38 L 788.93 448.25 L 791.21 447.53 C 801.54 444.29 804.00 443.89 811.00 444.33 C 829.55 445.50 845.73 457.93 850.62 474.77 C 853.09 483.24 852.17 496.83 848.64 504.19 C 845.18 511.42 838.66 518.65 832.15 522.50 L 827.08 525.50 L 826.79 594.50 C 826.50 663.12 826.49 663.53 824.31 668.25 C 821.03 675.34 813.03 683.25 805.72 686.63 C 800.33 689.12 798.30 689.50 790.50 689.50 C 782.82 689.50 780.66 689.11 775.76 686.81 C 763.39 681.01 755.07 668.84 754.20 655.25 C 753.80 648.96 753.49 647.99 752.11 648.57 C 746.43 650.94 740.24 652.17 731.34 652.70 L 721.18 653.29 L 720.84 667.57 C 720.45 683.95 719.35 686.73 712.59 688.44 C 708.11 689.58 702.90 687.26 701.12 683.36 C 700.46 681.93 700.00 675.10 700.00 666.95 L 700.00 653.00 L 512.00 653.00 L 324.00 653.00 L 324.00 667.05 C 324.00 682.45 323.14 685.70 318.53 687.81 C 313.80 689.96 310.09 689.29 306.40 685.60 L 303.00 682.20 L 303.00 667.60 L 303.00 653.00 L 295.66 653.00 C 289.41 653.00 277.52 650.77 271.89 648.53 C 270.51 647.99 270.20 648.98 269.79 655.19 C 268.91 668.64 260.83 680.51 248.41 686.59 C 241.72 689.86 230.05 690.83 223.50 688.66 Z M 242.00 667.13 C 243.38 666.13 245.51 663.83 246.75 662.01 C 248.83 658.95 249.00 657.61 249.00 643.82 C 249.00 629.43 248.91 628.76 246.13 623.22 C 241.14 613.29 241.00 611.24 241.00 546.63 C 241.00 480.50 241.05 481.16 234.97 473.78 C 228.59 466.04 215.40 462.72 206.22 466.55 C 194.56 471.41 188.90 484.97 194.08 495.66 C 196.82 501.33 200.77 504.50 207.53 506.46 C 211.81 507.71 213.52 508.81 215.03 511.29 C 216.93 514.40 216.99 516.77 217.00 585.23 C 217.00 663.16 216.88 661.65 223.16 666.11 C 229.10 670.34 236.99 670.77 242.00 667.13 Z M 798.03 667.75 C 800.97 666.27 803.26 664.14 804.73 661.50 L 806.97 657.50 L 806.99 586.00 C 807.01 503.54 806.31 509.51 816.36 506.58 C 823.08 504.63 827.18 501.33 829.92 495.66 C 833.85 487.56 831.85 477.92 824.87 471.30 C 820.26 466.92 815.16 465.00 808.15 465.00 C 796.43 465.00 786.63 473.15 784.09 485.03 C 783.37 488.35 783.00 510.65 782.99 549.80 C 782.98 614.29 782.94 614.84 777.54 624.74 C 774.91 629.58 774.86 630.01 775.18 644.59 C 775.55 661.68 776.47 664.04 784.24 667.89 C 789.67 670.58 792.49 670.55 798.03 667.75 Z M 742.47 629.92 C 749.15 627.43 757.27 619.92 759.96 613.77 C 760.99 611.42 762.15 606.39 762.55 602.59 C 763.23 596.08 763.16 595.73 761.38 596.47 C 760.35 596.90 757.25 598.21 754.50 599.38 L 749.50 601.50 L 512.50 601.50 L 275.50 601.50 L 270.50 599.38 C 267.75 598.21 264.64 596.90 263.60 596.46 C 261.82 595.72 261.73 596.08 262.22 602.15 C 263.31 615.79 271.13 626.06 283.88 630.62 C 286.80 631.66 331.10 631.92 512.21 631.96 L 736.92 632.00 L 742.47 629.92 Z M 750.98 577.75 C 765.63 568.92 764.12 549.02 748.24 541.69 L 743.50 539.50 L 512.50 539.50 C 291.11 539.50 281.30 539.58 276.76 541.33 C 267.91 544.74 261.96 554.89 263.49 563.95 C 264.40 569.35 269.37 575.75 274.91 578.67 L 279.31 581.00 L 512.45 581.00 L 745.59 581.00 L 750.98 577.75 Z M 275.68 520.50 C 280.61 519.21 297.00 519.00 391.24 519.00 L 501.05 519.00 L 500.78 451.23 L 500.50 383.46 L 497.26 376.87 C 491.67 365.52 480.88 357.44 468.04 355.01 C 460.98 353.67 297.68 353.65 289.50 354.99 C 276.06 357.19 264.79 365.89 258.68 378.78 L 255.50 385.50 L 255.20 425.29 L 254.89 465.08 L 257.40 470.38 C 260.99 477.96 261.98 485.97 261.99 507.27 L 262.00 526.04 L 265.97 524.02 C 268.15 522.90 272.52 521.32 275.68 520.50 Z M 763.19 501.75 C 763.50 477.78 763.53 477.42 766.30 470.79 L 769.11 464.08 L 768.80 424.79 L 768.50 385.50 L 765.40 378.95 C 760.18 367.94 752.71 361.07 741.23 356.70 C 735.53 354.53 735.08 354.52 649.00 354.21 C 588.81 354.00 560.54 354.24 556.06 355.01 C 538.53 358.04 525.88 370.89 522.98 388.61 C 522.43 391.94 522.01 421.56 522.01 456.75 L 522.00 519.00 L 632.79 519.00 C 751.61 519.00 750.42 518.95 758.50 523.97 C 760.15 524.99 761.81 525.87 762.19 525.92 C 762.56 525.96 763.01 515.09 763.19 501.75 Z" stroke-linecap="round"/>
</g>
</g>
</g>

  </svg>