<svg xmlns="http://www.w3.org/2000/svg" xmlns:xlink="http://www.w3.org/1999/xlink" width="3048px" height="2045px" viewBox="0 0 3047.9827922831055 2044.9569267791164">
    <g id="e0424dc6-f39c-47f2-a662-575a097f164a">
<g style="">
		<g id="e0424dc6-f39c-47f2-a662-575a097f164a-child-0">
<path style="stroke: rgb(193,193,193); stroke-width: 0; stroke-dasharray: none; stroke-linecap: butt; stroke-dashoffset: 0; stroke-linejoin: miter; stroke-miterlimit: 4; fill: rgb(0,0,0); fill-rule: nonzero; opacity: 1;" transform="matrix(4.95607 0 0 4.95607 1523.991525 1022.478549) matrix(1 0 0 1 0 0)  translate(-512, -511.691665)" d="M 462.31 716.05 C 460.56 714.98 458.65 713.21 458.06 712.12 C 457.33 710.74 457.00 669.63 457.00 578.57 L 457.00 447.00 L 404.58 447.00 L 352.16 447.00 L 351.83 464.75 C 351.51 482.19 351.45 482.61 348.42 489.00 C 336.86 513.40 305.02 519.12 286.10 500.19 C 276.59 490.69 274.00 482.28 274.00 460.95 L 274.00 447.00 L 256.25 446.98 C 246.49 446.96 236.57 446.51 234.21 445.96 C 222.67 443.30 212.92 435.64 207.78 425.21 C 204.73 419.02 204.50 417.83 204.50 408.52 C 204.50 399.74 204.83 397.79 207.18 392.78 C 210.92 384.80 217.94 377.65 225.87 373.74 L 232.45 370.50 L 253.22 370.18 L 274.00 369.86 L 274.00 356.56 C 274.00 349.25 274.46 340.85 275.02 337.89 C 278.92 317.18 299.76 302.27 319.64 305.94 C 331.83 308.19 343.52 317.23 348.68 328.40 C 351.38 334.25 351.51 335.23 351.83 352.25 L 352.16 370.00 L 402.33 370.00 C 450.29 370.01 452.64 370.09 455.70 371.96 C 462.10 375.86 464.09 383.05 460.62 389.77 C 457.34 396.10 458.30 396.00 402.55 396.00 L 352.00 396.00 L 352.00 408.50 L 352.00 421.00 L 512.00 421.00 L 672.00 421.00 L 672.00 408.50 L 672.00 396.00 L 578.63 396.00 L 485.27 396.00 L 482.51 393.83 C 479.57 391.52 477.00 386.43 477.00 382.93 C 477.00 379.29 480.07 374.12 483.47 372.02 C 486.68 370.03 488.24 370.00 579.29 370.00 L 671.83 370.00 L 672.21 352.75 C 672.53 337.88 672.89 334.74 674.79 329.96 C 677.98 321.93 685.63 313.80 693.78 309.79 C 700.06 306.70 701.12 306.50 710.98 306.50 C 720.60 306.50 722.02 306.75 727.50 309.44 C 735.17 313.20 742.82 320.85 746.56 328.50 C 749.41 334.34 749.50 334.98 749.82 352.17 L 750.16 369.83 L 771.33 370.18 L 792.50 370.53 L 798.85 373.83 C 806.68 377.90 813.00 384.26 816.69 391.78 C 819.23 396.95 819.50 398.52 819.50 408.02 C 819.50 417.89 819.30 418.96 816.23 425.19 C 812.15 433.47 804.26 440.96 796.25 444.15 C 791.06 446.21 788.52 446.47 770.33 446.79 L 750.16 447.15 L 749.83 464.85 C 749.50 482.50 749.49 482.57 746.26 489.13 C 734.12 513.77 701.54 519.01 682.93 499.33 C 680.16 496.40 676.68 491.42 675.20 488.25 C 672.64 482.80 672.48 481.58 672.17 464.75 L 671.84 447.00 L 619.42 447.00 L 567.00 447.00 L 567.00 578.05 C 567.00 722.00 567.38 713.20 561.03 716.48 C 558.53 717.78 551.23 718.00 511.80 718.00 C 467.72 717.99 465.35 717.90 462.31 716.05 Z M 541.00 569.50 L 541.00 447.00 L 512.00 447.00 L 483.00 447.00 L 483.00 569.50 L 483.00 692.00 L 512.00 692.00 L 541.00 692.00 L 541.00 569.50 Z M 716.58 484.10 C 724.31 480.59 724.00 483.77 724.00 409.07 C 724.00 337.31 724.09 338.58 718.49 334.17 C 715.21 331.59 708.35 331.25 704.09 333.46 C 697.87 336.67 698.00 335.05 698.00 408.95 C 698.00 481.41 697.88 479.73 703.24 483.24 C 707.92 486.30 711.26 486.52 716.58 484.10 Z M 322.60 481.60 L 326.00 478.20 L 326.00 409.35 C 325.99 343.32 325.91 340.37 324.08 337.37 C 321.39 332.94 314.47 330.36 309.61 331.96 C 307.66 332.61 304.93 334.49 303.53 336.14 L 301.00 339.15 L 300.90 383.83 C 300.84 408.40 300.60 437.27 300.36 448.00 C 299.80 473.69 300.26 477.46 304.50 481.70 C 307.46 484.66 308.38 485.00 313.50 485.00 C 318.65 485.00 319.53 484.67 322.60 481.60 Z M 274.00 408.50 L 274.00 396.00 L 256.65 396.00 C 240.24 396.00 239.11 396.12 235.91 398.28 C 231.80 401.05 230.03 404.31 230.01 409.17 C 230.00 413.16 233.64 418.50 237.42 420.03 C 238.56 420.49 247.26 420.90 256.75 420.94 L 274.00 421.00 L 274.00 408.50 Z M 788.03 419.48 C 791.71 417.58 794.01 413.24 793.96 408.30 C 793.92 403.60 792.24 400.46 788.43 397.95 C 785.81 396.22 783.61 396.01 767.75 396.01 L 750.00 396.00 L 750.00 408.50 L 750.00 421.00 L 767.55 421.00 C 781.28 421.00 785.74 420.67 788.03 419.48 Z" stroke-linecap="round"/>
</g>
</g>
</g>

  </svg>