<svg xmlns="http://www.w3.org/2000/svg" xmlns:xlink="http://www.w3.org/1999/xlink" width="403px" height="500px" viewBox="0 0 402.97598913302613 500">
    <g id="c243d3ea-228c-4ba7-9ea4-db18a1577616">
<g style="">
		<g id="c243d3ea-228c-4ba7-9ea4-db18a1577616-child-0">
<path style="stroke: rgb(193,193,193); stroke-width: 0; stroke-dasharray: none; stroke-linecap: butt; stroke-dashoffset: 0; stroke-linejoin: miter; stroke-miterlimit: 4; fill: rgb(0,0,0); fill-rule: nonzero; opacity: 1;" transform="matrix(0.859986 0 0 0.859986 201.488029 250.000043) matrix(1 0 0 1 0 0)  translate(-501.379114, -512.202456)" d="M 404.93 801.47 C 357.73 794.11 316.88 767.15 291.81 726.81 C 273.71 697.69 264.07 658.42 267.93 629.54 C 270.17 612.80 273.62 606.04 297.21 572.20 C 305.53 560.26 324.94 532.28 340.34 510.00 C 355.73 487.73 377.41 456.45 388.50 440.50 C 399.59 424.55 418.49 397.10 430.49 379.50 C 442.50 361.90 455.33 343.23 459.01 338.00 C 463.73 331.28 465.89 327.23 466.37 324.16 C 468.04 313.54 475.98 305.24 486.03 303.61 C 487.94 303.30 520.10 302.58 557.50 302.00 C 594.90 301.43 629.21 300.70 633.75 300.39 L 642.00 299.82 L 642.00 296.79 C 642.00 290.96 645.12 272.81 647.60 264.19 C 653.18 244.82 663.04 231.06 675.83 224.76 C 682.04 221.70 683.12 221.50 693.00 221.50 C 702.91 221.50 703.95 221.70 710.24 224.80 C 738.54 238.73 744.17 271.43 722.33 295.01 C 713.18 304.89 697.15 314.24 679.50 319.99 C 675.65 321.24 672.18 322.45 671.78 322.67 C 671.38 322.90 671.99 325.42 673.11 328.29 C 674.24 331.16 682.60 353.98 691.69 379.00 C 728.63 480.70 728.73 481.13 718.78 495.28 C 715.83 499.47 707.30 503.98 702.30 503.99 L 698.10 504.00 L 680.36 529.75 C 665.10 551.89 581.75 672.56 536.16 738.50 C 517.38 765.67 513.10 770.95 503.84 778.38 C 483.63 794.58 456.42 803.14 425.87 802.90 C 419.07 802.85 409.64 802.20 404.93 801.47 Z M 422.45 775.12 C 421.40 774.15 365.94 734.71 337.00 714.36 C 313.97 698.16 306.00 692.78 306.00 693.43 C 306.00 695.42 312.07 706.86 317.62 715.33 C 329.45 733.39 349.79 751.33 369.94 761.47 C 382.61 767.84 399.72 772.95 415.00 774.91 C 418.58 775.37 421.93 775.80 422.45 775.87 C 423.05 775.95 423.05 775.68 422.45 775.12 Z M 474.12 765.47 C 478.92 763.79 488.14 757.92 487.75 756.80 C 487.46 755.97 460.59 736.81 392.00 688.49 C 316.87 635.57 298.93 623.00 298.53 623.00 C 298.33 623.00 297.71 625.14 297.16 627.75 C 295.22 636.87 299.14 648.12 307.64 657.84 C 310.29 660.87 320.73 668.99 333.78 678.16 C 345.73 686.56 368.55 702.69 384.50 714.02 C 400.45 725.34 422.95 741.31 434.49 749.51 C 446.04 757.70 457.06 764.97 458.99 765.66 C 463.76 767.36 468.89 767.30 474.12 765.47 Z M 516.18 718.75 C 521.96 710.36 541.31 682.35 559.17 656.50 C 577.02 630.65 599.68 597.80 609.50 583.50 C 619.33 569.20 633.95 548.05 641.99 536.50 C 650.03 524.95 660.50 509.83 665.25 502.90 L 673.89 490.30 L 661.25 481.66 C 654.30 476.91 648.36 473.37 648.05 473.81 C 620.84 512.75 612.17 524.54 609.58 526.12 C 603.30 529.95 593.50 527.33 590.28 520.97 C 588.20 516.86 588.69 509.72 591.33 505.89 C 592.61 504.03 600.74 492.46 609.39 480.18 C 618.04 467.91 624.98 457.47 624.81 456.99 C 624.32 455.62 588.98 430.84 588.00 431.19 C 587.52 431.36 579.67 442.30 570.55 455.50 C 561.43 468.70 552.41 480.96 550.50 482.75 C 541.96 490.74 528.01 484.30 528.00 472.35 C 528.00 467.69 526.72 469.77 549.82 436.88 C 558.17 424.99 565.00 415.03 565.00 414.74 C 565.00 414.03 528.12 387.98 527.22 388.06 C 526.82 388.10 523.43 392.71 519.68 398.31 C 501.07 426.12 491.95 438.71 488.88 440.84 C 484.35 443.98 476.26 443.52 472.40 439.92 C 467.10 434.97 465.72 429.38 468.47 424.06 C 469.28 422.50 473.91 415.66 478.75 408.86 C 483.60 402.06 491.45 390.82 496.21 383.88 L 504.84 371.27 L 493.17 363.05 L 481.50 354.84 L 479.79 357.17 C 478.85 358.45 472.51 367.60 465.71 377.50 C 411.92 455.77 329.92 574.22 318.72 589.83 C 313.69 596.84 312.96 598.38 314.12 599.47 C 314.88 600.18 327.65 609.28 342.50 619.68 C 366.96 636.82 440.82 689.00 486.37 721.32 C 496.20 728.29 504.57 734.00 504.96 734.00 C 505.35 734.00 510.40 727.14 516.18 718.75 Z M 695.00 470.40 C 695.00 470.07 685.03 442.38 672.84 408.87 C 659.94 373.41 650.22 348.09 649.59 348.30 C 648.99 348.50 643.70 355.60 637.82 364.07 C 624.85 382.80 623.58 384.00 616.81 384.00 C 603.97 384.00 597.95 372.12 605.32 361.35 C 607.15 358.68 612.99 350.23 618.31 342.57 C 623.62 334.91 627.86 328.52 627.72 328.39 C 627.30 327.97 497.74 330.93 497.30 331.37 C 496.84 331.83 554.54 372.99 620.50 419.25 C 644.70 436.23 671.03 454.78 679.00 460.48 C 692.92 470.43 695.00 471.73 695.00 470.40 Z M 684.91 287.83 C 702.39 279.32 710.54 269.44 707.97 259.87 C 706.81 255.58 701.73 250.73 696.63 249.04 C 693.60 248.04 692.42 248.16 688.61 249.85 C 682.87 252.39 678.84 257.94 675.59 267.82 C 673.64 273.72 670.00 290.58 670.00 293.70 C 670.00 294.63 674.92 292.69 684.91 287.83 Z" stroke-linecap="round"/>
</g>
</g>
</g>

  </svg>