<svg xmlns="http://www.w3.org/2000/svg" xmlns:xlink="http://www.w3.org/1999/xlink" width="500px" height="435px" viewBox="0 0 499.9999999999998 434.54550548234624">
    <g id="9705e1df-3959-4104-8f2c-41ef73457df3">
<g style="">
		<g id="9705e1df-3959-4104-8f2c-41ef73457df3-child-0">
<path style="stroke: rgb(193,193,193); stroke-width: 0; stroke-dasharray: none; stroke-linecap: butt; stroke-dashoffset: 0; stroke-linejoin: miter; stroke-miterlimit: 4; fill: rgb(0,0,0); fill-rule: nonzero; opacity: 1;" transform="matrix(0.857681 0 0 0.857681 250.000015 217.272766) matrix(1 0 0 1 0 0)  translate(-513.443544, -511.475651)" d="M 278.79 763.02 C 257.78 757.68 240.28 743.64 229.99 723.86 C 213.98 693.09 222.58 653.02 249.82 631.41 C 257.52 625.31 271.99 618.27 280.50 616.50 C 289.56 614.60 306.99 614.54 311.28 616.38 C 315.20 618.06 320.50 623.50 321.94 627.32 C 323.89 632.48 323.12 640.35 319.50 652.29 C 317.58 658.64 316.00 664.39 316.00 665.07 C 316.00 665.75 317.06 667.70 318.36 669.41 C 328.44 682.66 328.41 697.76 318.28 709.04 C 311.91 716.12 305.65 718.98 296.50 718.98 C 287.35 718.98 281.09 716.12 274.72 709.04 C 266.76 700.18 264.97 688.64 269.85 677.61 C 272.44 671.75 279.79 664.63 285.49 662.45 C 290.29 660.62 289.92 661.38 295.65 641.68 C 296.13 640.02 295.73 639.92 291.34 640.57 C 262.69 644.84 242.79 671.93 248.43 698.99 C 250.66 709.68 254.33 716.49 261.93 724.01 C 272.29 734.28 283.35 739.01 296.96 738.99 C 330.76 738.93 355.35 703.53 342.61 673.26 C 338.94 664.54 339.13 659.92 343.34 655.33 C 346.24 652.17 347.39 651.63 352.22 651.23 C 357.43 650.80 358.01 650.98 361.42 654.14 C 366.02 658.39 369.51 668.10 371.17 681.24 C 372.20 689.38 372.13 692.23 370.71 700.89 C 365.91 730.12 346.75 752.40 318.50 761.62 C 307.40 765.24 289.94 765.86 278.79 763.02 Z M 710.50 763.57 C 697.92 760.68 686.60 755.16 675.50 746.50 C 667.47 740.24 665.53 736.90 666.24 730.57 C 667.14 722.58 674.79 716.93 681.94 718.98 C 683.54 719.44 687.80 722.32 691.41 725.38 C 702.70 734.97 713.40 739.20 726.33 739.20 C 735.88 739.20 741.15 737.97 749.44 733.78 C 756.75 730.09 766.83 720.24 770.30 713.40 C 775.88 702.39 777.49 688.14 774.47 676.53 C 768.98 655.49 748.43 640.00 725.97 640.00 C 714.51 640.00 700.73 645.47 692.12 653.44 C 686.60 658.55 684.03 660.00 680.47 660.00 C 672.74 660.00 666.06 651.88 667.48 644.22 C 668.33 639.65 674.99 632.90 685.14 626.34 C 693.87 620.69 701.26 617.65 711.21 615.59 C 728.15 612.09 743.65 614.19 760.00 622.19 C 769.14 626.66 771.67 628.50 779.59 636.41 C 787.24 644.07 789.40 647.00 793.33 655.00 C 799.87 668.32 801.45 675.02 801.45 689.50 C 801.45 703.96 799.88 710.65 793.35 724.00 C 789.40 732.10 787.37 734.83 779.60 742.50 C 769.21 752.77 762.70 756.94 750.26 761.30 C 742.61 763.97 739.92 764.40 729.00 764.66 C 720.91 764.85 714.38 764.47 710.50 763.57 Z M 713.50 716.61 C 699.03 709.75 692.58 692.30 699.19 677.91 C 702.72 670.24 706.18 666.56 713.20 663.06 C 718.32 660.50 720.49 660.00 726.50 660.00 C 732.51 660.00 734.68 660.50 739.80 663.06 C 746.80 666.56 750.28 670.24 753.78 677.86 C 755.91 682.48 756.18 684.27 755.79 690.86 C 755.09 702.76 749.90 710.90 739.80 715.94 C 731.68 720.00 721.21 720.27 713.50 716.61 Z M 427.81 706.60 C 413.91 701.69 407.19 696.36 388.31 675.24 C 379.61 665.52 366.99 651.54 360.26 644.17 C 352.41 635.57 347.70 629.56 347.10 627.38 C 345.21 620.55 349.66 613.02 356.74 611.06 C 362.25 609.54 365.95 610.84 370.59 615.91 C 375.32 621.09 397.05 645.39 413.36 663.75 C 422.59 674.16 425.20 676.46 430.83 679.24 L 437.46 682.50 L 544.48 683.00 C 630.31 683.40 651.96 683.76 653.80 684.81 C 659.58 688.11 661.64 696.80 658.04 702.70 C 653.96 709.40 661.32 709.00 542.30 708.98 L 434.50 708.96 L 427.81 706.60 Z M 456.25 669.90 C 448.98 668.68 439.86 664.80 433.85 660.39 C 429.33 657.07 399.17 624.98 358.12 579.82 C 350.21 571.12 343.42 564.00 343.04 564.00 C 342.66 564.00 340.87 569.29 339.06 575.75 C 337.26 582.21 335.19 588.62 334.48 590.00 C 330.95 596.76 321.95 602.00 313.89 602.00 C 306.34 602.00 276.59 590.98 269.46 585.54 C 261.61 579.55 259.33 571.13 261.55 556.35 C 264.05 539.66 282.61 466.78 285.46 462.43 C 287.83 458.81 293.14 455.22 298.02 453.94 C 301.98 452.90 304.79 453.19 322.37 456.47 C 333.29 458.50 342.58 459.79 343.00 459.33 C 343.43 458.87 345.12 453.33 346.77 447.00 C 348.41 440.67 357.97 405.58 368.01 369.00 C 390.52 286.95 389.47 291.05 388.39 290.06 C 387.90 289.61 374.90 288.06 359.50 286.60 C 319.70 282.85 322.06 283.26 318.35 279.55 C 312.57 273.77 312.92 265.77 319.21 260.48 C 323.08 257.22 324.58 257.25 367.20 261.40 C 406.04 265.17 408.70 265.85 414.04 273.22 C 419.43 280.66 419.29 281.88 408.12 322.15 C 402.58 342.14 391.06 383.92 382.52 415.00 C 373.97 446.08 366.24 473.20 365.32 475.29 C 363.15 480.25 357.15 485.57 352.00 487.12 C 348.31 488.22 345.80 487.96 328.68 484.68 C 318.13 482.65 308.81 481.00 307.98 481.00 C 306.81 481.00 304.29 489.57 297.18 517.75 C 292.09 537.96 287.65 556.83 287.33 559.67 L 286.74 564.84 L 292.62 567.79 C 301.33 572.16 310.95 575.45 311.98 574.40 C 312.47 573.91 314.97 565.18 317.54 555.00 C 322.78 534.24 323.46 532.56 328.43 528.20 C 333.10 524.09 337.61 523.30 342.80 525.66 C 346.74 527.46 350.10 531.06 434.62 624.16 C 445.45 636.10 448.99 639.34 453.71 641.66 L 459.50 644.50 L 535.58 644.78 C 595.30 645.00 612.50 644.78 615.56 643.78 C 618.90 642.68 620.00 641.50 623.27 635.50 C 642.30 600.51 671.76 579.03 708.50 573.35 C 721.01 571.41 740.80 572.11 753.20 574.92 C 771.72 579.12 800.36 592.92 803.62 599.23 C 807.24 606.23 802.98 615.81 795.29 617.93 C 791.02 619.11 788.32 618.24 778.50 612.58 C 768.39 606.74 757.14 602.39 745.56 599.82 C 738.14 598.18 734.15 597.90 723.50 598.31 C 716.26 598.58 707.84 599.52 704.50 600.43 C 678.76 607.39 659.21 623.30 645.52 648.42 C 639.93 658.67 635.30 663.41 627.00 667.39 L 620.50 670.50 L 541.00 670.64 C 497.27 670.72 459.14 670.39 456.25 669.90 Z" stroke-linecap="round"/>
</g>
</g>
</g>

  </svg>