<svg xmlns="http://www.w3.org/2000/svg" xmlns:xlink="http://www.w3.org/1999/xlink" width="500px" height="355px" viewBox="0 0 499.9999999999998 355.4168551423643">
    <g id="347a9895-cadc-491e-8fe2-9ee0ee9083eb">
<g style="">
		<g id="347a9895-cadc-491e-8fe2-9ee0ee9083eb-child-0">
<path style="stroke: rgb(193,193,193); stroke-width: 0; stroke-dasharray: none; stroke-linecap: butt; stroke-dashoffset: 0; stroke-linejoin: miter; stroke-miterlimit: 4; fill: rgb(0,0,0); fill-rule: nonzero; opacity: 1;" transform="matrix(0.710536 0 0 0.710536 249.999864 177.708331) matrix(1 0 0 1 0 0)  translate(-512.131671, -511.604613)" d="M 263.39 761.02 C 256.76 758.34 254.87 748.98 259.92 743.92 C 262.55 741.30 263.50 741.00 269.17 741.03 C 298.87 741.15 358.97 740.37 359.49 739.84 C 359.85 739.48 357.83 736.33 355.01 732.84 C 349.04 725.47 341.68 711.11 339.47 702.50 C 328.69 660.67 354.65 617.59 397.11 606.85 C 408.89 603.87 428.86 604.55 440.46 608.33 C 444.83 609.75 448.55 610.78 448.71 610.62 C 448.88 610.46 414.46 561.99 372.23 502.91 C 253.85 337.32 216.88 285.97 214.78 284.23 C 213.94 283.53 205.11 283.02 190.43 282.82 C 164.37 282.46 163.01 282.10 160.93 275.15 C 159.96 271.94 160.05 270.70 161.43 267.79 C 164.29 261.75 165.56 261.50 192.90 261.50 C 220.79 261.50 223.80 262.09 230.20 268.76 C 232.17 270.82 247.65 291.85 264.59 315.50 C 281.53 339.15 315.84 387.08 340.84 422.00 C 391.16 492.29 401.20 506.29 417.54 529.00 C 423.67 537.53 438.07 557.55 449.53 573.50 C 460.98 589.45 472.33 605.09 474.74 608.25 L 479.12 614.00 L 586.02 614.00 C 681.98 614.00 693.42 614.17 697.72 615.62 C 704.72 617.99 710.20 622.35 714.46 628.93 C 717.55 633.72 718.95 634.97 722.36 635.97 C 738.22 640.62 754.04 654.16 761.55 669.50 C 766.96 680.54 768.34 687.59 767.71 701.00 C 767.09 714.42 765.12 721.05 758.48 732.13 L 754.07 739.50 L 758.90 740.12 C 761.55 740.47 784.50 740.79 809.89 740.83 C 851.50 740.91 856.34 741.09 858.94 742.63 C 864.70 746.03 865.67 753.10 861.08 758.23 L 858.16 761.50 L 561.83 761.69 C 398.85 761.79 264.55 761.49 263.39 761.02 Z M 651.65 739.68 C 652.05 739.28 651.36 737.28 650.12 735.23 C 636.81 713.18 635.46 691.16 646.07 669.24 C 649.33 662.51 651.91 658.99 658.35 652.51 C 666.19 644.61 670.46 641.89 684.00 636.19 C 685.77 635.44 656.34 635.12 582.65 635.07 L 478.80 635.00 L 480.94 638.25 C 484.77 644.07 489.74 654.38 491.39 659.94 C 498.89 685.20 492.57 714.96 475.75 733.54 C 473.14 736.42 471.00 739.02 471.00 739.32 C 471.00 739.62 472.01 740.05 473.25 740.28 C 477.21 741.00 650.91 740.42 651.65 739.68 Z M 715.00 738.86 C 722.04 737.28 728.63 733.15 734.97 726.37 C 743.22 717.55 745.43 711.58 745.47 697.95 C 745.50 687.74 745.38 687.15 741.74 679.79 C 728.04 652.07 693.29 646.90 672.20 669.44 C 664.79 677.37 661.91 684.23 661.24 695.59 C 660.46 708.92 664.58 719.44 674.20 728.60 C 685.21 739.09 698.83 742.51 715.00 738.86 Z M 429.40 738.02 C 440.14 735.28 448.37 730.63 456.12 722.91 C 481.44 697.73 477.29 655.41 447.62 636.08 C 423.88 620.61 395.73 623.31 375.89 642.96 C 364.07 654.66 358.99 666.76 359.01 683.14 C 359.03 699.12 364.18 711.25 375.91 722.97 C 384.51 731.57 390.65 735.21 401.19 737.98 C 410.68 740.46 419.81 740.48 429.40 738.02 Z M 516.50 585.65 C 510.60 582.89 504.79 576.81 502.87 571.38 C 501.94 568.73 501.50 562.57 501.50 552.00 C 501.50 537.16 501.61 536.29 504.15 531.50 C 507.26 525.64 509.85 523.09 516.00 519.86 L 520.50 517.50 L 575.27 517.22 C 611.15 517.03 631.38 517.30 633.93 517.98 C 640.43 519.73 647.01 524.93 650.40 531.00 C 653.33 536.25 653.49 537.11 653.85 550.11 C 654.14 560.68 653.85 565.01 652.57 569.41 C 650.52 576.44 645.30 582.47 638.50 585.65 L 633.50 587.98 L 577.50 587.98 L 521.50 587.98 L 516.50 585.65 Z M 629.00 566.71 C 631.43 565.48 631.51 565.11 631.79 553.47 C 632.06 542.25 631.94 541.39 629.93 539.75 C 627.94 538.13 623.87 538.00 576.96 538.00 C 532.12 538.00 525.96 538.18 524.57 539.57 C 522.22 541.92 521.92 544.53 522.75 555.47 C 523.45 564.75 523.67 565.53 526.00 566.71 C 529.62 568.54 625.38 568.53 629.00 566.71 Z M 693.63 725.31 C 686.45 722.83 678.62 715.25 675.95 708.20 C 668.94 689.63 682.27 669.26 701.82 668.67 C 718.02 668.18 731.05 679.37 732.68 695.18 C 734.80 715.70 713.46 732.17 693.63 725.31 Z M 708.00 703.00 C 710.45 700.55 710.62 695.34 708.35 692.83 C 706.11 690.35 700.55 690.45 698.00 693.00 C 695.30 695.70 695.48 699.57 698.45 702.55 C 701.43 705.52 705.30 705.70 708.00 703.00 Z M 409.50 724.98 C 394.62 722.62 381.02 712.21 375.84 699.20 C 372.56 690.99 372.57 674.99 375.85 666.75 C 387.44 637.65 426.40 630.89 447.56 654.31 C 462.76 671.12 462.28 696.83 446.48 712.65 C 436.77 722.36 422.67 727.06 409.50 724.98 Z M 423.10 702.83 C 432.47 699.62 437.48 691.85 436.82 681.56 C 436.36 674.25 433.42 669.12 427.38 665.02 C 422.24 661.55 411.96 660.95 406.41 663.80 C 401.10 666.54 397.38 670.67 395.54 675.89 C 393.42 681.91 393.62 685.64 396.40 691.62 C 401.05 701.60 412.58 706.44 423.10 702.83 Z" stroke-linecap="round"/>
</g>
</g>
</g>

  </svg>