<svg xmlns="http://www.w3.org/2000/svg" xmlns:xlink="http://www.w3.org/1999/xlink" width="3003px" height="3467px" viewBox="0 0 3002.5504281997673 3466.666666666657">
    <g id="4c2cbced-0658-4b98-980b-db9d858925e1">
<g style="">
		<g id="4c2cbced-0658-4b98-980b-db9d858925e1-child-0">
<path style="stroke: rgb(193,193,193); stroke-width: 0; stroke-dasharray: none; stroke-linecap: butt; stroke-dashoffset: 0; stroke-linejoin: miter; stroke-miterlimit: 4; fill: rgb(0,0,0); fill-rule: nonzero; opacity: 1;" transform="matrix(5.584168 0 0 5.584168 1501.275129 1733.333236) matrix(1 0 0 1 0 0)  translate(-511.781044, -511.555033)" d="M 257.50 820.19 C 252.85 818.01 246.42 811.25 244.40 806.42 C 241.72 800.01 239.66 814.65 267.45 642.50 C 274.91 596.30 283.70 542.08 286.98 522.00 C 295.14 472.15 318.62 325.68 325.53 281.57 L 328.97 259.63 L 326.38 243.07 C 323.37 223.77 323.57 218.84 327.63 212.28 C 337.49 196.33 361.26 197.87 370.01 215.02 C 371.11 217.17 372.57 222.89 373.25 227.72 L 374.50 236.50 L 512.25 236.75 C 588.01 236.89 650.00 236.66 650.00 236.23 C 650.00 231.31 652.51 217.92 653.97 215.06 C 661.46 200.38 680.45 196.56 692.66 207.28 C 700.10 213.81 702.01 221.71 699.56 235.73 L 697.95 244.96 L 700.61 248.98 C 704.19 254.40 705.07 264.90 702.51 271.63 C 700.31 277.37 700.02 274.61 709.55 339.44 L 717.19 391.37 L 720.10 394.09 C 726.85 400.40 729.04 412.75 724.92 421.23 L 722.83 425.52 L 729.00 467.01 C 741.88 553.75 740.45 545.84 743.86 549.36 C 749.80 555.50 751.64 565.11 748.55 573.87 C 747.19 577.72 747.39 580.00 751.55 608.25 C 763.43 688.92 762.88 685.77 765.44 688.53 C 771.12 694.65 773.01 703.01 770.60 711.30 C 769.02 716.74 769.07 717.41 773.02 744.18 C 775.24 759.20 777.98 777.35 779.10 784.50 C 780.22 791.65 780.87 799.23 780.54 801.34 C 779.30 809.38 772.94 817.46 765.35 820.63 C 760.64 822.59 750.34 822.34 745.48 820.13 C 740.94 818.07 735.65 813.15 733.51 809.01 C 732.72 807.49 729.58 789.65 726.53 769.37 C 723.48 749.09 720.78 731.94 720.52 731.25 C 720.16 730.27 709.55 730.00 672.05 730.00 L 624.04 730.00 L 623.53 732.25 C 623.25 733.49 620.54 750.19 617.51 769.36 C 614.31 789.61 611.23 805.95 610.17 808.36 C 608.11 813.00 602.32 818.55 597.35 820.63 C 592.96 822.46 582.82 822.37 578.22 820.45 C 573.31 818.41 567.22 812.48 564.90 807.50 C 562.21 801.70 562.52 796.94 567.87 762.50 C 570.52 745.45 572.51 731.16 572.29 730.75 C 572.06 730.34 544.69 730.00 511.47 730.00 L 451.05 730.00 L 451.55 732.75 C 453.91 745.87 461.00 795.68 460.99 799.12 C 460.98 804.15 457.42 812.44 453.88 815.69 C 444.34 824.45 425.88 823.77 417.96 814.36 C 413.25 808.76 412.05 803.68 405.96 763.50 C 398.99 717.56 383.82 618.77 381.24 602.50 L 379.49 591.50 L 353.05 591.50 L 326.61 591.50 L 320.80 627.50 C 305.41 722.94 293.74 794.17 292.44 800.50 C 290.78 808.65 287.35 814.11 281.14 818.47 C 277.40 821.10 275.84 821.53 269.17 821.78 C 263.32 821.99 260.55 821.62 257.50 820.19 Z M 272.44 802.67 C 274.38 801.25 273.63 805.59 300.90 637.00 C 306.99 599.33 315.36 547.35 319.50 521.50 C 323.64 495.65 330.38 453.80 334.47 428.50 C 345.53 360.13 344.80 368.66 341.51 346.49 C 339.96 336.05 338.41 326.44 338.06 325.14 C 337.67 323.67 336.24 330.26 334.25 342.64 C 332.50 353.56 327.48 384.55 323.10 411.50 C 318.71 438.45 311.92 480.52 308.01 505.00 C 304.10 529.47 296.66 575.60 291.47 607.50 C 266.70 759.96 261.00 795.56 261.00 797.86 C 261.00 803.12 267.87 806.01 272.44 802.67 Z M 441.17 802.35 C 442.18 801.43 443.00 799.47 443.00 797.97 C 443.00 795.39 437.87 760.61 429.07 703.50 C 419.53 641.57 415.95 618.55 413.60 604.00 C 412.23 595.47 406.78 560.38 401.50 526.00 C 396.22 491.62 389.42 447.75 386.40 428.50 C 383.38 409.25 376.88 366.77 371.95 334.10 C 355.32 223.90 355.31 223.81 352.42 221.25 C 347.72 217.07 342.00 219.52 342.00 225.72 C 342.00 229.59 355.07 317.23 369.10 407.50 C 371.84 425.10 376.97 458.17 380.50 481.00 C 384.03 503.83 389.43 538.70 392.50 558.50 C 404.68 637.04 409.44 667.85 418.05 724.00 C 422.98 756.17 427.62 786.44 428.36 791.26 C 429.21 796.74 430.39 800.77 431.51 802.01 C 433.71 804.45 438.66 804.62 441.17 802.35 Z M 592.42 802.68 C 593.82 801.66 594.87 797.33 597.09 783.43 C 602.76 747.94 605.02 731.84 604.46 730.93 C 603.78 729.83 591.00 729.66 590.99 730.75 C 590.98 731.16 588.94 744.55 586.44 760.50 C 580.32 799.55 580.32 799.59 582.51 802.01 C 584.59 804.31 589.72 804.66 592.42 802.68 Z M 761.60 801.48 C 762.83 799.61 763.07 797.88 762.56 794.73 C 761.64 789.12 753.00 730.98 753.00 730.43 C 753.00 730.19 749.85 730.00 746.00 730.00 C 742.15 730.00 739.00 730.19 739.00 730.43 C 739.00 735.25 749.54 800.13 750.59 801.75 C 752.75 805.09 759.34 804.93 761.60 801.48 Z M 751.00 710.00 C 753.62 707.38 753.57 702.82 750.90 700.40 C 748.85 698.55 744.68 698.49 599.65 698.19 C 517.62 698.02 449.59 698.24 448.49 698.69 C 446.63 699.44 446.54 700.00 447.32 705.75 L 448.17 712.00 L 598.59 712.00 C 747.67 712.00 749.02 711.98 751.00 710.00 Z M 526.53 680.00 L 580.57 680.00 L 587.58 635.50 L 594.59 591.00 L 512.18 591.00 L 429.77 591.00 L 430.45 595.75 C 433.30 615.63 443.12 678.78 443.54 679.90 C 443.96 681.06 446.55 681.19 458.28 680.66 C 466.10 680.30 496.82 680.01 526.53 680.00 Z M 613.00 679.14 C 613.00 678.67 616.15 658.84 620.00 635.07 C 623.85 611.30 627.00 591.67 627.00 591.43 C 627.00 591.19 623.89 591.00 620.08 591.00 C 613.34 591.00 613.14 591.07 612.57 593.75 C 611.66 598.05 599.00 677.32 599.00 678.74 C 599.00 679.63 601.03 680.00 606.00 680.00 C 609.85 680.00 613.00 679.61 613.00 679.14 Z M 712.00 678.47 C 712.00 676.73 700.30 597.98 699.42 593.75 L 698.84 591.00 L 672.12 591.00 L 645.40 591.00 L 638.67 633.25 C 634.96 656.49 631.71 676.51 631.45 677.75 L 630.96 680.00 L 671.48 680.00 C 707.21 680.00 712.00 679.82 712.00 678.47 Z M 744.00 679.25 C 743.99 677.83 733.16 604.43 731.45 594.25 L 730.91 591.00 L 724.14 591.00 L 717.38 591.00 L 723.65 634.25 C 727.10 658.04 729.94 678.06 729.96 678.75 C 730.00 680.12 744.00 680.62 744.00 679.25 Z M 376.00 571.36 C 376.00 569.93 369.89 529.43 358.44 455.00 C 356.53 442.62 354.68 431.15 354.33 429.50 L 353.68 426.50 L 352.85 429.61 C 352.39 431.32 348.43 455.17 344.05 482.61 C 339.67 510.05 334.71 540.80 333.04 550.94 C 331.37 561.08 330.00 570.19 330.00 571.19 C 330.00 572.89 331.46 573.00 353.00 573.00 C 373.64 573.00 376.00 572.83 376.00 571.36 Z M 729.69 570.83 C 732.56 568.13 732.70 563.70 730.00 561.00 C 728.02 559.02 726.67 559.00 576.39 559.00 L 424.77 559.00 L 425.46 563.75 C 425.84 566.36 426.39 569.51 426.68 570.75 L 427.22 573.00 L 577.29 573.00 L 727.37 573.00 L 729.69 570.83 Z M 602.41 538.25 C 603.73 531.96 617.68 444.65 618.20 439.50 L 618.50 436.50 L 512.25 436.25 C 426.86 436.04 406.00 436.24 406.00 437.26 C 406.00 438.75 420.72 534.19 421.58 538.25 L 422.16 541.00 L 512.00 541.00 L 601.84 541.00 L 602.41 538.25 Z M 634.41 540.14 C 634.71 539.67 636.78 527.63 639.02 513.39 C 641.26 499.15 644.87 476.29 647.04 462.59 C 649.22 448.89 651.00 437.31 651.00 436.84 C 651.00 436.38 647.87 436.00 644.05 436.00 L 637.09 436.00 L 636.53 439.25 C 634.09 453.48 621.00 537.67 621.00 539.13 C 621.00 540.76 621.82 541.00 627.44 541.00 C 630.98 541.00 634.12 540.61 634.41 540.14 Z M 689.00 538.59 C 689.00 536.35 681.90 486.20 676.68 451.50 C 674.47 436.83 674.36 436.49 671.85 436.20 C 669.40 435.91 669.24 436.19 668.15 443.20 C 667.53 447.21 663.86 470.64 660.01 495.27 C 656.15 519.89 653.00 540.25 653.00 540.52 C 653.00 540.78 661.10 541.00 671.00 541.00 L 689.00 541.00 L 689.00 538.59 Z M 721.53 537.75 C 721.00 534.65 711.80 472.50 708.21 447.75 L 706.51 436.00 L 699.76 436.00 C 692.01 436.00 692.22 435.60 694.03 446.76 C 694.59 450.20 697.52 470.00 700.55 490.76 C 703.57 511.52 706.53 531.31 707.13 534.75 L 708.21 541.00 L 715.15 541.00 L 722.09 541.00 L 721.53 537.75 Z M 707.12 416.10 C 709.44 413.23 709.54 409.25 707.35 406.83 C 705.76 405.07 699.66 405.00 553.26 405.00 L 400.82 405.00 L 401.47 409.25 C 401.82 411.59 402.36 414.79 402.66 416.37 L 403.21 419.23 L 554.23 418.83 L 705.24 418.42 L 707.12 416.10 Z M 627.86 380.75 C 628.45 377.31 631.68 356.73 635.04 335.00 C 638.41 313.27 641.51 293.60 641.94 291.28 C 642.38 288.96 642.49 286.82 642.20 286.53 C 641.91 286.24 583.47 286.00 512.33 286.00 C 399.38 286.00 383.00 286.19 383.00 287.47 C 383.00 288.27 384.14 296.48 385.53 305.72 C 392.24 350.27 397.07 381.76 397.59 384.25 L 398.16 387.00 L 512.48 387.00 L 626.79 387.00 L 627.86 380.75 Z M 661.21 375.00 C 662.92 363.51 662.92 363.48 660.37 346.50 C 656.65 321.80 656.38 320.34 655.72 322.00 C 654.96 323.96 646.00 381.81 646.00 384.80 C 646.00 386.99 646.29 387.08 652.75 386.80 L 659.50 386.50 L 661.21 375.00 Z M 698.00 385.84 C 698.00 385.20 694.85 362.90 691.00 336.29 C 687.15 309.67 684.00 287.47 684.00 286.95 C 684.00 286.43 680.85 286.00 677.00 286.00 C 672.07 286.00 670.00 286.37 670.00 287.25 C 670.01 289.29 683.99 384.39 684.48 385.75 C 685.09 387.42 698.00 387.50 698.00 385.84 Z M 683.45 267.04 C 687.63 263.57 687.47 257.76 683.12 255.64 C 681.03 254.61 649.84 254.30 529.10 254.08 L 377.70 253.80 L 378.40 260.57 C 378.78 264.29 379.34 267.74 379.64 268.22 C 379.95 268.73 444.24 268.98 530.94 268.80 C 661.28 268.54 681.93 268.30 683.45 267.04 Z M 682.02 231.42 C 683.47 224.40 682.71 221.22 679.26 219.91 C 673.01 217.53 669.37 221.18 668.36 230.82 L 667.72 237.00 L 674.29 237.00 L 680.86 237.00 L 682.02 231.42 Z" stroke-linecap="round"/>
</g>
</g>
</g>

  </svg>