<svg xmlns="http://www.w3.org/2000/svg" xmlns:xlink="http://www.w3.org/1999/xlink" width="500px" height="440px" viewBox="0 0 500 440.44743504151074">
    <g id="93cb67ac-5682-4010-9837-160a5624a82e">
<g style="">
		<g id="93cb67ac-5682-4010-9837-160a5624a82e-child-0">
<path style="stroke: rgb(193,193,193); stroke-width: 0; stroke-dasharray: none; stroke-linecap: butt; stroke-dashoffset: 0; stroke-linejoin: miter; stroke-miterlimit: 4; fill: rgb(0,0,0); fill-rule: nonzero; opacity: 1;" transform="matrix(0.884987 0 0 0.884987 250.000047 220.223759) matrix(1 0 0 1 0 0)  translate(-513.490078, -512.090278)" d="M 275.27 759.89 C 270.60 758.54 264.43 752.24 263.12 747.50 C 262.51 745.30 262.01 740.53 262.01 736.90 L 262.00 730.30 L 252.84 729.65 C 245.60 729.14 242.76 728.46 239.33 726.46 C 232.52 722.46 231.00 718.45 231.00 704.44 C 231.00 690.78 232.23 687.20 238.29 683.19 C 241.75 680.90 243.53 680.51 252.03 680.17 L 261.81 679.78 L 262.23 676.88 C 262.46 675.29 262.43 673.77 262.16 673.49 C 261.89 673.22 257.65 673.00 252.73 673.00 C 242.21 673.00 238.05 671.44 234.44 666.12 L 232.00 662.54 L 232.00 626.72 C 232.00 586.95 231.92 587.45 238.67 582.30 C 242.05 579.72 243.16 579.47 252.67 579.16 L 263.00 578.82 L 263.00 511.36 C 263.00 438.03 262.75 441.42 268.66 435.80 C 273.19 431.50 278.02 430.00 287.22 430.02 C 299.10 430.05 306.90 434.27 309.94 442.32 C 310.64 444.18 311.00 463.65 311.00 499.95 L 311.00 554.77 L 317.18 552.27 C 325.19 549.03 332.82 548.41 340.99 550.33 C 344.57 551.16 347.67 551.66 347.89 551.44 C 348.12 551.22 347.75 547.76 347.08 543.77 C 345.15 532.33 344.62 511.65 345.91 498.52 C 352.73 428.98 397.59 368.29 462.76 340.42 C 486.03 330.47 503.31 327.02 533.56 326.30 L 556.62 325.76 L 584.43 298.87 C 608.64 275.47 613.16 271.54 619.37 268.48 C 633.52 261.52 649.26 261.50 663.70 268.43 C 669.96 271.43 674.36 275.56 718.78 320.19 C 745.34 346.87 768.18 370.20 769.53 372.05 C 776.01 380.83 778.58 396.66 775.59 409.39 C 769.80 433.97 745.74 454.00 722.00 454.00 C 717.99 454.00 716.91 454.32 717.31 455.37 C 718.80 459.25 722.05 471.38 723.37 478.00 C 729.94 510.86 727.39 545.11 715.96 577.50 C 711.68 589.60 708.37 596.70 701.69 608.00 L 696.07 617.50 L 716.79 618.05 C 733.89 618.50 738.28 618.93 742.00 620.47 C 749.09 623.42 756.10 628.27 761.16 633.71 C 769.96 643.18 773.00 652.15 773.00 668.68 L 773.00 680.00 L 777.25 680.02 C 784.89 680.06 792.51 684.93 794.93 691.32 C 795.52 692.86 795.99 699.16 795.98 705.32 C 795.97 715.07 795.68 717.01 793.70 720.50 C 789.81 727.37 784.60 729.14 765.75 729.97 C 765.34 729.99 764.99 733.49 764.98 737.75 C 764.94 749.90 760.27 757.44 751.22 759.96 C 746.36 761.30 279.94 761.24 275.27 759.89 Z M 746.00 736.00 L 746.00 730.00 L 513.50 730.00 L 281.00 730.00 L 281.00 736.00 L 281.00 742.00 L 513.50 742.00 L 746.00 742.00 L 746.00 736.00 Z M 778.00 705.00 L 778.00 699.00 L 513.50 699.00 L 249.00 699.00 L 249.00 705.00 L 249.00 711.00 L 513.50 711.00 L 778.00 711.00 L 778.00 705.00 Z M 293.00 564.50 L 293.00 449.00 L 287.00 449.00 L 281.00 449.00 L 281.00 564.50 L 281.00 680.00 L 287.00 680.00 L 293.00 680.00 L 293.00 564.50 Z M 323.20 657.08 C 323.49 634.65 323.55 634.10 325.83 631.68 C 328.61 628.72 332.27 627.85 336.19 629.22 C 341.48 631.06 342.00 633.65 342.00 657.95 L 342.00 680.00 L 533.00 680.00 L 724.00 680.00 L 724.00 673.50 L 724.00 667.00 L 698.75 666.98 C 684.86 666.96 671.53 666.50 669.11 665.94 C 661.24 664.13 654.11 659.88 648.03 653.37 C 640.12 644.92 637.64 638.49 637.64 626.50 C 637.64 615.22 639.82 609.22 647.49 599.50 C 658.79 585.17 660.05 583.32 663.88 575.50 C 673.31 556.28 678.00 536.04 678.00 514.65 C 677.99 492.76 673.68 474.17 664.07 454.50 C 640.52 406.34 594.91 376.49 541.50 374.30 C 517.74 373.33 496.71 377.67 475.50 387.92 C 460.22 395.31 448.02 403.99 436.01 416.02 C 410.85 441.22 397.15 471.58 394.50 508.00 C 393.24 525.25 397.76 551.58 404.94 568.89 C 408.75 578.08 408.77 580.38 405.08 584.08 C 400.06 589.10 393.48 587.84 390.12 581.22 C 386.80 574.65 380.07 553.37 378.29 543.79 C 375.62 529.44 375.88 498.76 378.77 485.44 C 382.01 470.57 385.35 461.01 392.41 446.50 C 413.36 403.41 452.68 371.78 499.37 360.46 C 533.93 352.08 573.13 356.20 605.71 371.65 C 643.46 389.55 674.93 425.23 688.38 465.40 C 694.07 482.41 695.41 491.71 695.43 514.50 C 695.45 532.73 695.15 536.89 693.16 546.00 C 690.14 559.84 686.92 569.30 681.03 581.69 C 675.48 593.36 672.02 598.68 663.68 608.42 C 660.43 612.22 657.14 616.82 656.38 618.63 C 652.31 628.36 657.59 641.17 667.72 646.14 C 672.40 648.44 673.12 648.49 701.07 648.49 L 729.64 648.50 L 733.86 651.29 C 740.66 655.79 741.99 658.88 742.00 670.25 L 742.00 680.00 L 748.63 680.00 L 755.26 680.00 L 754.80 669.25 C 754.28 657.00 752.50 651.77 746.60 645.25 C 744.61 643.04 740.62 640.17 737.74 638.87 C 732.63 636.56 731.74 636.50 702.52 636.34 L 672.55 636.18 L 669.77 633.07 C 665.23 627.99 665.89 624.19 672.55 616.95 C 688.22 599.90 701.21 571.72 706.18 544.02 C 708.94 528.59 709.12 501.91 706.56 487.50 C 697.92 438.92 671.86 399.20 630.46 371.48 C 611.51 358.79 589.97 350.48 564.00 345.84 C 552.42 343.77 517.99 344.08 505.62 346.36 C 459.95 354.80 417.93 382.73 391.84 422.00 C 371.22 453.04 360.65 493.50 363.94 528.83 C 365.27 543.13 367.93 556.50 371.55 567.13 C 374.69 576.36 374.68 580.04 371.51 583.80 C 366.34 589.95 360.52 588.60 352.43 579.37 C 345.53 571.52 339.20 568.00 331.98 568.00 C 324.02 568.00 317.71 571.96 313.65 579.50 C 311.55 583.41 311.49 584.54 311.21 631.75 L 310.93 680.00 L 316.91 680.00 L 322.90 680.00 L 323.20 657.08 Z M 262.50 626.00 L 262.50 598.00 L 256.25 598.00 L 250.00 598.00 L 250.00 626.00 L 250.00 654.00 L 256.25 654.00 L 262.50 654.00 L 262.50 626.00 Z M 733.00 433.07 C 736.03 431.92 740.63 429.40 743.24 427.48 C 757.06 417.31 762.96 397.03 755.67 384.75 C 754.28 382.41 731.62 359.07 705.32 332.87 C 660.50 288.23 657.16 285.13 652.13 283.50 C 644.80 281.12 633.20 281.79 627.06 284.95 C 624.62 286.20 615.62 294.06 607.06 302.41 C 598.50 310.75 588.65 320.26 585.18 323.53 L 578.85 329.49 L 584.68 331.23 C 587.88 332.19 591.27 332.98 592.22 332.99 C 593.16 332.99 602.70 324.45 613.42 314.00 C 634.60 293.35 632.83 294.43 644.50 294.97 C 647.25 295.10 649.96 295.50 650.53 295.85 C 651.10 296.21 672.81 317.93 698.78 344.11 C 745.96 391.69 746.00 391.73 746.00 395.91 C 746.00 401.50 742.65 405.00 737.30 405.00 C 733.62 405.00 732.02 403.52 688.00 359.50 C 662.97 334.47 642.16 313.69 641.75 313.33 C 641.34 312.96 634.71 318.90 627.02 326.52 L 613.03 340.38 L 623.07 345.63 C 658.57 364.22 685.80 391.22 706.31 428.18 C 708.35 431.85 710.80 435.09 711.76 435.38 C 715.34 436.44 727.69 435.10 733.00 433.07 Z M 515.50 621.52 C 511.65 620.81 505.74 619.50 502.36 618.62 C 496.94 617.19 486.42 617.00 413.24 617.00 C 331.06 617.00 330.24 616.98 327.66 614.95 C 324.11 612.15 323.02 607.29 323.34 595.72 C 323.59 586.63 323.80 585.75 326.28 583.27 C 330.19 579.35 335.34 579.57 339.13 583.82 C 341.61 586.60 342.00 587.84 342.00 593.02 L 342.00 599.00 L 404.25 598.98 L 466.50 598.95 L 460.76 593.73 C 452.13 585.86 449.00 581.40 449.00 576.95 C 449.00 573.97 449.64 572.64 452.08 570.59 C 457.15 566.32 460.18 567.04 466.79 574.09 C 479.02 587.13 493.87 596.27 511.50 601.61 C 519.56 604.05 522.06 604.34 535.50 604.35 C 552.44 604.37 560.00 602.83 573.39 596.65 C 621.13 574.59 640.96 519.52 617.51 474.13 C 600.19 440.59 562.82 420.50 526.00 424.94 C 492.89 428.92 464.29 450.51 451.70 481.00 C 447.37 491.47 445.85 498.73 445.31 511.50 C 444.90 521.25 445.20 525.41 446.91 533.68 C 449.20 544.78 448.85 547.59 444.84 550.40 C 441.98 552.41 438.74 552.43 434.97 550.49 C 430.08 547.95 427.00 534.45 427.00 515.47 C 427.00 490.83 433.54 470.24 447.22 451.78 C 475.18 414.08 522.39 397.74 566.48 410.52 C 603.58 421.27 632.46 450.85 642.62 488.50 C 645.02 497.37 645.32 500.25 645.30 514.00 C 645.28 527.39 644.93 530.82 642.71 539.17 C 632.85 576.46 607.25 604.06 570.16 617.38 C 555.17 622.77 531.80 624.54 515.50 621.52 Z M 525.32 592.06 C 494.99 587.25 470.84 567.05 461.27 538.50 C 458.81 531.17 458.59 529.16 458.57 514.50 C 458.55 499.53 458.73 497.98 461.34 490.50 C 469.94 465.88 488.53 447.87 513.50 439.99 C 524.27 436.59 542.91 436.08 554.00 438.88 C 570.28 443.00 582.21 450.13 594.30 462.99 C 613.99 483.91 619.84 512.53 610.07 540.13 C 606.23 551.00 601.70 558.15 592.62 567.70 C 577.65 583.44 560.73 591.23 538.93 592.42 C 534.29 592.67 528.17 592.51 525.32 592.06 Z M 555.43 571.20 C 570.38 565.72 583.06 554.53 589.78 540.89 C 594.82 530.66 596.14 525.06 596.11 514.00 C 596.06 495.66 587.86 479.08 573.51 468.29 C 561.13 458.98 549.83 455.04 535.46 455.01 C 497.82 454.95 469.34 490.18 477.11 527.20 C 481.26 546.94 497.75 564.89 517.79 571.47 C 524.64 573.72 526.84 573.97 537.50 573.69 C 546.75 573.44 550.86 572.87 555.43 571.20 Z M 521.80 560.07 C 501.85 553.69 488.96 536.01 489.02 515.14 C 489.07 501.30 492.73 491.64 501.55 482.12 C 510.93 471.99 525.66 466.18 538.93 467.38 C 547.54 468.16 557.26 471.50 560.97 474.97 C 566.31 479.96 564.58 487.90 557.62 490.37 C 556.51 490.76 553.04 489.94 549.12 488.35 C 536.43 483.19 524.40 485.30 515.24 494.27 C 504.33 504.95 504.33 524.14 515.24 534.68 C 521.49 540.71 526.95 543.07 536.67 543.96 C 545.85 544.80 548.45 546.24 549.51 551.05 C 550.22 554.26 548.77 557.69 545.63 560.23 C 542.68 562.62 529.51 562.53 521.80 560.07 Z M 532.36 531.06 C 527.53 529.89 522.96 526.11 520.91 521.60 C 518.56 516.44 518.56 513.56 520.90 508.42 C 524.40 500.70 532.63 496.67 540.23 498.95 C 548.79 501.52 552.98 506.79 552.99 515.02 C 553.00 519.23 552.42 521.39 550.56 524.12 C 546.85 529.59 538.87 532.63 532.36 531.06 Z M 568.50 523.84 C 562.26 520.41 561.03 512.24 565.92 506.77 C 568.41 503.98 569.51 503.50 573.40 503.50 C 577.04 503.50 578.51 504.05 580.73 506.27 C 583.03 508.57 583.50 509.91 583.50 514.10 C 583.50 518.56 583.11 519.52 580.23 522.08 C 576.75 525.19 572.20 525.88 568.50 523.84 Z" stroke-linecap="round"/>
</g>
</g>
</g>

  </svg>