<svg xmlns="http://www.w3.org/2000/svg" xmlns:xlink="http://www.w3.org/1999/xlink" width="541px" height="389px" viewBox="0 0 541.016406562625 388.6598464385754">
    <g id="6b19b496-e1a2-4a86-8304-d9d900650c1b">
<g style="">
		<g id="6b19b496-e1a2-4a86-8304-d9d900650c1b-child-0">
<path style="stroke: rgb(193,193,193); stroke-width: 0; stroke-dasharray: none; stroke-linecap: butt; stroke-dashoffset: 0; stroke-linejoin: miter; stroke-miterlimit: 4; fill: rgb(0,0,0); fill-rule: nonzero; opacity: 1;" transform="matrix(0.845338 0 0 0.845338 270.50816 194.329892) matrix(1 0 0 1 0 0)  translate(-512, -523.88425)" d="M 197.48 752.61 C 192.52 750.44 192.00 747.92 192.00 725.88 L 192.00 705.85 L 194.92 702.92 C 197.82 700.03 197.96 700.00 209.42 700.00 L 221.00 700.00 L 221.00 685.02 C 221.00 670.08 221.01 670.02 223.75 666.96 C 225.81 664.66 227.72 663.72 231.36 663.20 L 236.23 662.50 L 231.72 659.26 C 226.46 655.49 221.67 648.69 219.24 641.55 C 217.66 636.92 217.49 627.61 217.23 529.12 C 217.04 458.17 217.30 419.83 217.98 416.12 C 220.05 404.89 227.54 394.20 237.09 388.83 C 240.46 386.94 240.82 386.45 239.31 385.85 C 238.31 385.46 235.16 385.11 232.31 385.07 C 228.32 385.02 226.46 384.44 224.31 382.59 L 221.50 380.18 L 221.18 363.59 L 220.87 347.00 L 209.87 347.00 C 192.17 347.00 192.00 346.75 192.00 319.63 L 192.00 300.15 L 194.59 297.08 L 197.18 294.00 L 511.95 294.00 L 826.73 294.00 L 829.36 296.64 L 832.00 299.27 L 832.00 320.50 L 832.00 341.73 L 829.36 344.36 C 826.81 346.92 826.35 347.00 814.86 347.00 L 803.00 347.00 L 803.00 361.93 C 803.00 370.15 802.57 378.00 802.04 379.38 C 800.47 383.52 796.85 385.18 789.54 385.12 C 785.94 385.10 783.00 385.24 783.00 385.43 C 783.00 385.63 785.25 387.24 788.00 389.00 C 794.93 393.45 801.46 401.03 804.20 407.80 L 806.50 413.50 L 806.50 526.00 L 806.50 638.50 L 804.09 644.50 C 802.38 648.74 799.87 652.30 795.53 656.65 L 789.38 662.81 L 793.14 663.41 C 795.21 663.74 798.16 665.09 799.70 666.41 L 802.50 668.82 L 802.82 684.41 L 803.14 700.00 L 814.93 700.00 C 826.34 700.00 826.81 700.09 829.36 702.64 L 832.00 705.27 L 832.00 726.58 C 832.00 747.66 831.97 747.92 829.59 750.69 L 827.17 753.50 L 513.84 753.71 C 256.12 753.89 199.96 753.69 197.48 752.61 Z M 815.00 727.13 L 815.00 719.26 L 810.25 718.74 C 807.64 718.46 671.40 718.32 507.50 718.42 L 209.50 718.61 L 209.17 726.81 L 208.85 735.00 L 511.92 735.00 L 815.00 735.00 L 815.00 727.13 Z M 281.79 689.75 L 282.07 680.00 L 260.04 680.00 L 238.00 680.00 L 238.00 689.33 C 238.00 694.47 238.31 698.98 238.69 699.35 C 239.06 699.73 248.85 699.92 260.44 699.77 L 281.50 699.50 L 281.79 689.75 Z M 347.00 685.22 C 347.00 673.45 347.32 669.99 348.56 668.22 C 350.60 665.31 355.15 663.00 358.86 663.00 C 361.78 663.00 361.75 662.93 355.57 656.75 C 351.13 652.31 348.63 648.77 346.91 644.50 L 344.50 638.50 L 344.22 529.00 C 344.05 457.98 344.30 417.84 344.96 414.77 C 347.18 404.38 353.23 395.58 362.14 389.81 L 367.20 386.53 L 359.47 385.47 C 352.99 384.57 351.36 383.95 349.37 381.64 C 347.10 379.00 347.00 378.24 347.00 363.55 C 347.00 350.49 346.77 348.12 345.42 347.61 C 344.55 347.27 333.75 347.00 321.42 347.00 L 299.00 347.00 L 299.00 362.55 C 299.00 383.76 297.58 386.00 284.15 386.00 L 278.61 386.00 L 283.05 388.82 C 291.45 394.15 296.93 400.93 300.58 410.50 C 302.40 415.29 302.50 420.06 302.79 522.00 C 302.99 594.82 302.75 630.56 302.01 635.00 C 300.47 644.30 295.93 653.03 289.89 658.32 L 284.86 662.72 L 289.18 663.30 C 292.30 663.72 294.26 664.73 296.25 666.95 C 298.99 670.02 299.00 670.08 299.00 685.02 L 299.00 700.00 L 323.00 700.00 L 347.00 700.00 L 347.00 685.22 Z M 408.79 689.75 L 409.07 680.00 L 386.54 680.00 L 364.00 680.00 L 364.00 690.02 L 364.00 700.04 L 386.25 699.77 L 408.50 699.50 L 408.79 689.75 Z M 598.00 684.40 C 598.36 673.38 598.89 668.83 599.93 667.58 C 602.09 664.98 606.52 663.00 610.18 663.00 L 613.47 663.00 L 608.28 658.46 C 601.99 652.96 597.35 644.13 595.93 634.96 C 595.30 630.87 595.04 589.49 595.22 522.00 C 595.49 424.23 595.66 415.09 597.24 410.44 C 599.84 402.81 606.12 394.75 613.11 390.09 C 616.47 387.84 618.61 385.94 617.86 385.87 C 617.11 385.80 613.64 385.63 610.15 385.50 C 604.80 385.30 603.39 384.85 601.15 382.61 C 598.55 380.01 598.49 379.66 598.00 363.73 L 597.50 347.50 L 511.75 347.24 L 426.00 346.99 L 426.00 362.98 L 426.00 378.97 L 423.20 382.10 C 420.67 384.93 419.70 385.29 413.21 385.75 L 406.03 386.27 L 410.26 388.97 C 416.24 392.79 422.76 400.22 425.63 406.51 C 427.15 409.81 428.47 415.26 429.07 420.72 C 429.68 426.16 429.95 469.25 429.77 532.54 C 429.49 629.07 429.36 635.84 427.65 641.00 C 425.20 648.39 420.67 655.30 415.71 659.23 L 411.62 662.47 L 416.02 663.22 C 418.65 663.66 421.45 664.99 422.96 666.50 C 425.43 668.97 425.51 669.48 425.82 684.53 L 426.14 700.01 L 511.82 699.76 L 597.50 699.50 L 598.00 684.40 Z M 659.79 689.75 L 660.07 680.00 L 637.54 680.00 L 615.00 680.00 L 615.00 689.33 C 615.00 694.47 615.31 698.98 615.69 699.35 C 616.06 699.73 626.08 699.92 637.94 699.77 L 659.50 699.50 L 659.79 689.75 Z M 725.00 684.40 C 725.36 673.38 725.89 668.83 726.93 667.58 C 729.07 665.01 733.51 663.00 737.06 663.00 L 740.22 663.00 L 735.08 658.38 C 732.26 655.85 728.85 651.90 727.52 649.62 C 721.97 640.15 722.03 641.54 722.01 526.89 C 722.01 460.06 722.37 419.32 723.01 415.96 C 725.20 404.41 733.15 393.13 742.60 388.14 C 746.79 385.94 746.64 385.86 737.44 385.51 C 725.49 385.05 724.00 382.39 724.00 361.53 L 724.00 347.00 L 700.50 347.00 L 677.00 347.00 L 677.00 362.05 C 677.00 382.80 675.50 385.35 663.25 385.37 C 659.81 385.37 657.00 385.64 657.00 385.96 C 657.00 386.28 658.59 387.40 660.53 388.45 C 665.91 391.34 673.33 399.30 676.29 405.34 C 677.75 408.32 679.42 413.85 680.01 417.64 C 680.73 422.28 680.98 458.89 680.77 530.50 C 680.48 628.03 680.32 636.91 678.72 641.65 C 676.38 648.60 671.42 655.74 666.17 659.72 C 662.09 662.82 661.99 663.00 664.45 663.00 C 668.80 663.00 673.77 665.66 675.43 668.87 C 676.64 671.20 677.00 675.15 677.00 685.97 L 677.00 700.04 L 700.75 699.77 L 724.50 699.50 L 725.00 684.40 Z M 785.79 689.75 L 786.07 680.00 L 764.04 680.00 L 742.00 680.00 L 742.00 689.33 C 742.00 694.47 742.31 698.98 742.69 699.35 C 743.06 699.73 752.85 699.92 764.44 699.77 L 785.50 699.50 L 785.79 689.75 Z M 267.39 649.58 C 274.24 647.52 278.85 643.55 281.87 637.11 L 284.50 631.50 L 284.50 526.50 C 284.50 410.93 284.84 417.14 278.20 409.80 C 272.88 403.91 267.74 401.58 259.97 401.54 C 248.00 401.47 238.39 408.99 236.05 420.25 C 235.29 423.94 235.04 456.75 235.23 529.02 L 235.50 632.50 L 238.59 638.00 C 244.41 648.34 256.02 653.01 267.39 649.58 Z M 399.30 647.21 C 402.84 645.22 405.46 642.75 407.50 639.47 L 410.50 634.66 L 410.79 528.58 C 411.00 450.72 410.76 421.38 409.92 418.29 C 408.47 413.02 403.06 406.60 397.64 403.75 C 391.90 400.71 381.14 400.69 375.50 403.69 C 370.83 406.17 366.98 410.08 364.36 415.00 C 362.58 418.35 362.50 423.03 362.50 526.00 L 362.50 633.50 L 364.72 637.65 C 371.29 649.94 386.82 654.23 399.30 647.21 Z M 648.42 648.59 C 653.29 646.55 657.58 642.41 660.14 637.26 L 662.50 632.50 L 662.50 527.00 C 662.50 410.88 662.84 417.15 656.20 409.80 C 644.20 396.52 624.03 399.05 616.30 414.80 L 613.50 420.50 L 613.50 526.50 L 613.50 632.50 L 616.46 637.85 C 619.74 643.77 625.63 648.45 631.68 649.95 C 636.17 651.06 644.06 650.42 648.42 648.59 Z M 775.82 648.09 C 781.21 645.33 784.86 641.58 787.12 636.46 C 789.08 632.03 789.12 629.83 789.08 526.41 C 789.05 421.82 789.03 420.85 786.97 416.20 C 781.93 404.80 770.86 399.16 759.09 401.98 C 752.21 403.63 747.08 407.61 743.50 414.08 L 740.50 419.50 L 740.23 523.92 C 739.92 642.07 739.53 635.58 747.47 643.52 C 754.84 650.90 766.62 652.79 775.82 648.09 Z M 282.00 358.12 C 282.00 348.71 281.89 348.20 279.75 347.63 C 277.25 346.96 239.58 346.76 238.92 347.41 C 238.69 347.64 238.64 352.36 238.82 357.91 L 239.13 368.00 L 260.57 368.00 L 282.00 368.00 L 282.00 358.12 Z M 408.66 357.75 C 408.80 348.52 408.69 347.96 406.66 347.46 C 405.47 347.17 395.50 347.06 384.50 347.22 L 364.50 347.50 L 364.21 356.42 C 364.05 361.33 364.15 365.95 364.43 366.69 C 364.85 367.78 369.19 367.99 386.73 367.77 L 408.50 367.50 L 408.66 357.75 Z M 659.50 357.50 L 659.50 347.50 L 638.07 347.23 C 625.56 347.07 616.25 347.35 615.70 347.90 C 615.13 348.47 615.04 352.72 615.47 358.44 L 616.19 368.04 L 637.84 367.77 L 659.50 367.50 L 659.50 357.50 Z M 785.79 359.26 C 786.25 346.27 787.60 347.00 762.96 347.00 L 742.00 347.00 L 742.00 357.52 L 742.00 368.04 L 763.75 367.77 L 785.50 367.50 L 785.79 359.26 Z M 815.00 320.50 L 815.00 312.00 L 512.50 312.00 L 210.00 312.00 L 210.00 320.50 L 210.00 329.00 L 512.50 329.00 L 815.00 329.00 L 815.00 320.50 Z M 491.42 645.58 C 489.72 644.84 487.81 642.96 487.16 641.37 C 486.26 639.20 486.03 610.86 486.23 525.33 L 486.50 412.16 L 488.92 409.58 C 492.23 406.06 498.09 406.00 501.55 409.45 L 504.00 411.91 L 504.00 526.02 C 504.00 605.85 503.68 640.74 502.92 642.15 C 502.33 643.26 500.31 644.81 498.45 645.58 C 494.48 647.25 495.24 647.25 491.42 645.58 Z M 526.27 646.30 C 525.04 646.06 523.13 644.71 522.02 643.30 C 520.02 640.76 520.00 639.59 520.00 526.51 L 520.00 412.29 L 522.45 409.65 C 525.84 405.99 531.67 405.96 535.08 409.58 L 537.50 412.16 L 537.77 525.33 C 537.97 610.92 537.74 639.20 536.84 641.37 C 536.14 643.07 534.30 644.81 532.36 645.62 C 530.55 646.38 528.94 646.94 528.78 646.86 C 528.63 646.79 527.50 646.53 526.27 646.30 Z M 257.35 634.23 C 256.17 634.04 254.37 632.97 253.35 631.84 C 251.58 629.88 251.49 625.51 251.22 528.15 C 251.07 472.24 251.18 425.50 251.48 424.28 C 252.37 420.63 255.98 418.00 260.10 418.00 C 263.03 418.00 264.37 418.66 266.41 421.08 L 269.00 424.15 L 269.00 526.47 C 269.00 622.43 268.89 628.91 267.25 630.90 C 265.34 633.23 260.73 634.78 257.35 634.23 Z M 383.36 634.01 C 377.71 631.73 378.00 637.64 378.00 525.73 L 378.00 422.91 L 380.45 420.45 C 383.91 417.00 389.77 417.06 393.08 420.58 L 395.50 423.16 L 395.77 524.83 C 395.97 601.58 395.74 627.20 394.84 629.37 C 394.14 631.07 392.30 632.81 390.36 633.62 C 386.63 635.18 386.31 635.20 383.36 634.01 Z M 635.35 634.28 C 634.17 634.07 632.37 632.97 631.35 631.84 C 629.58 629.88 629.49 625.49 629.24 526.99 L 628.97 424.19 L 631.58 421.09 C 633.67 418.61 634.94 418.00 638.09 418.00 C 642.77 418.00 645.63 420.45 646.48 425.19 C 646.81 427.01 646.95 473.83 646.79 529.22 C 646.50 628.45 646.47 629.97 644.50 631.85 C 642.31 633.94 638.70 634.90 635.35 634.28 Z M 758.92 632.08 L 756.00 629.15 L 756.00 527.01 C 756.00 451.27 756.30 424.30 757.16 422.68 C 760.04 417.29 767.00 416.24 771.08 420.58 L 773.50 423.17 L 773.50 524.83 C 773.50 601.51 773.20 627.30 772.30 629.76 C 770.18 635.49 763.50 636.65 758.92 632.08 Z" stroke-linecap="round"/>
</g>
</g>
</g>

  </svg>