<svg xmlns="http://www.w3.org/2000/svg" xmlns:xlink="http://www.w3.org/1999/xlink" width="387px" height="500px" viewBox="0 0 387.04579434743437 500">
    <g id="8647a102-02e9-4a03-abcd-7197e20dfd75">
<g style="">
		<g id="8647a102-02e9-4a03-abcd-7197e20dfd75-child-0">
<path style="stroke: rgb(193,193,193); stroke-width: 0; stroke-dasharray: none; stroke-linecap: butt; stroke-dashoffset: 0; stroke-linejoin: miter; stroke-miterlimit: 4; fill: rgb(0,0,0); fill-rule: nonzero; opacity: 1;" transform="matrix(1.015517 0 0 1.015517 193.52299 250.00012) matrix(1 0 0 1 0 0)  translate(-512.065978, -511.719954)" d="M 359.31 756.54 C 352.99 753.79 353.00 753.88 353.00 704.00 C 353.00 654.52 352.99 654.61 358.97 651.52 C 364.46 648.68 371.03 650.34 374.35 655.41 C 375.82 657.66 376.00 662.91 376.00 704.24 C 376.00 755.59 376.23 753.75 369.40 756.61 C 365.29 758.32 363.39 758.31 359.31 756.54 Z M 432.19 755.97 C 426.08 752.25 426.00 751.61 426.00 704.00 C 426.00 658.35 426.14 656.80 430.78 652.67 C 433.70 650.07 439.99 649.43 443.70 651.35 C 449.94 654.57 450.00 655.11 450.00 704.45 C 450.00 753.86 450.07 753.32 443.64 756.37 C 439.10 758.52 436.21 758.42 432.19 755.97 Z M 507.50 757.05 C 506.40 756.59 504.38 755.01 503.00 753.53 L 500.50 750.84 L 500.22 705.38 C 499.98 666.06 500.15 659.49 501.49 656.67 C 504.36 650.61 511.80 648.29 518.03 651.52 C 524.01 654.61 524.00 654.55 524.00 703.70 C 523.99 746.87 523.92 748.62 521.97 751.81 C 518.99 756.70 512.42 759.08 507.50 757.05 Z M 581.00 756.29 C 574.02 752.72 574.00 752.59 574.01 705.00 C 574.01 679.95 574.42 661.03 575.00 658.93 C 577.03 651.62 585.18 647.98 591.82 651.41 C 598.04 654.62 598.00 654.32 597.99 703.70 C 597.97 751.44 597.96 751.50 593.00 755.14 C 589.19 757.94 585.00 758.34 581.00 756.29 Z M 654.32 756.44 C 647.93 753.18 647.91 753.05 648.22 702.46 L 648.50 656.84 L 652.24 653.42 C 659.49 646.78 669.15 650.17 671.05 660.03 C 671.52 662.49 671.93 683.08 671.96 705.78 C 672.00 749.55 671.84 751.21 667.22 755.33 C 664.34 757.90 658.21 758.42 654.32 756.44 Z M 343.95 630.64 C 335.40 628.33 328.17 622.35 323.84 614.00 C 321.89 610.26 321.50 607.98 321.50 600.50 C 321.50 592.29 321.77 591.02 324.60 586.00 C 326.38 582.84 329.72 578.96 332.46 576.86 C 341.65 569.86 340.03 570.00 410.07 570.00 C 454.00 570.00 473.64 569.67 475.34 568.89 C 476.68 568.28 478.28 566.82 478.90 565.64 C 479.70 564.10 480.08 524.92 480.26 426.00 L 480.50 288.50 L 482.78 283.91 C 485.75 277.95 492.23 271.46 498.50 268.16 C 502.77 265.91 504.74 265.53 512.00 265.54 C 518.98 265.55 521.39 265.99 525.50 268.00 C 531.86 271.12 537.93 277.17 541.05 283.53 L 543.50 288.50 L 544.00 427.21 C 544.47 558.65 544.59 566.02 546.28 567.71 C 547.95 569.38 552.44 569.53 614.28 570.00 L 680.50 570.50 L 685.00 572.86 C 691.14 576.07 696.65 581.52 699.82 587.50 C 703.35 594.17 703.59 606.06 700.35 613.12 C 697.31 619.74 691.69 625.51 685.16 628.72 L 679.50 631.50 L 514.00 631.69 C 385.46 631.83 347.48 631.60 343.95 630.64 Z M 676.84 607.40 C 682.29 603.58 681.20 595.31 674.96 593.14 C 672.66 592.33 652.83 592.00 607.51 592.00 L 543.32 592.00 L 537.22 588.95 C 530.38 585.53 525.72 580.79 522.61 574.05 C 520.50 569.51 520.50 569.20 520.00 430.29 C 519.53 299.03 519.40 290.97 517.74 289.31 C 515.13 286.70 508.59 286.97 505.76 289.80 L 503.50 292.06 L 503.00 431.78 C 502.53 562.67 502.39 571.72 500.74 575.04 C 497.62 581.29 493.12 585.78 486.83 588.93 L 480.68 592.00 L 415.79 592.00 C 344.76 592.00 345.85 591.91 344.31 597.77 C 343.23 601.88 343.84 604.26 346.61 606.75 L 349.11 609.00 L 511.83 609.00 C 659.42 609.00 674.77 608.85 676.84 607.40 Z" stroke-linecap="round"/>
</g>
</g>
</g>

  </svg>