<svg xmlns="http://www.w3.org/2000/svg" xmlns:xlink="http://www.w3.org/1999/xlink" width="2583px" height="1736px" viewBox="0 0 2583.4749672376493 1736.0335332718664">
    <g id="fc2dd8ed-97f8-4254-99d5-cf3167993950">
<g style="">
		<g id="fc2dd8ed-97f8-4254-99d5-cf3167993950-child-0">
<path style="stroke: rgb(193,193,193); stroke-width: 0; stroke-dasharray: none; stroke-linecap: butt; stroke-dashoffset: 0; stroke-linejoin: miter; stroke-miterlimit: 4; fill: rgb(0,0,0); fill-rule: nonzero; opacity: 1;" transform="matrix(4.321204 0 0 4.321204 1291.737363 868.016686) matrix(1 0 0 1 0 0)  translate(-512.071086, -512.057998)" d="M 302.51 711.82 C 285.41 708.56 270.74 694.21 267.13 677.20 C 266.39 673.75 266.00 657.11 266.00 629.50 L 266.00 587.09 L 262.25 586.49 C 242.79 583.35 227.09 572.13 218.93 555.53 C 214.11 545.73 212.61 538.16 213.30 527.00 C 213.95 516.42 216.66 508.51 222.67 499.68 C 235.97 480.12 260.81 470.86 284.81 476.52 C 290.71 477.91 302.31 482.96 304.45 485.06 C 304.97 485.58 305.72 486.00 306.10 486.00 C 306.49 486.00 306.99 472.61 307.21 456.25 C 307.59 428.48 307.77 426.07 309.89 420.00 C 311.13 416.42 313.48 411.42 315.11 408.87 C 317.95 404.41 326.08 396.09 330.75 392.87 L 333.00 391.31 L 331.00 383.50 C 323.30 353.39 338.96 323.47 367.09 314.54 C 374.24 312.27 376.63 312.09 407.59 311.44 C 454.48 310.45 463.37 311.93 478.31 323.14 C 488.57 330.84 495.36 340.76 498.55 352.72 C 500.79 361.11 500.53 375.79 497.99 384.88 L 495.92 392.26 L 498.21 393.78 C 499.47 394.61 503.02 397.89 506.11 401.07 L 511.71 406.84 L 519.87 398.83 L 528.02 390.82 L 525.97 384.17 C 523.57 376.39 523.14 362.25 525.08 354.50 C 530.23 333.88 546.02 318.20 567.00 312.89 C 571.23 311.82 581.30 311.50 610.50 311.51 L 648.50 311.52 L 656.50 314.24 C 674.90 320.48 688.71 334.95 693.51 353.01 C 695.62 360.91 695.41 375.09 693.05 384.06 C 691.23 391.00 691.21 391.54 692.80 392.42 C 696.36 394.41 705.43 403.71 708.59 408.61 C 710.40 411.43 712.90 416.60 714.14 420.11 C 716.24 426.08 716.41 428.52 716.79 456.82 C 717.17 484.91 717.32 487.02 718.85 485.66 C 721.76 483.07 732.40 478.13 738.50 476.54 C 746.08 474.57 760.90 474.56 768.45 476.53 C 788.22 481.68 805.03 498.31 809.46 517.09 C 816.93 548.77 796.48 580.26 764.63 586.12 L 758.00 587.35 L 758.00 629.12 C 758.00 656.00 757.60 672.79 756.89 676.20 C 755.02 685.08 751.13 692.02 744.08 699.08 C 737.02 706.13 730.08 710.02 721.20 711.89 C 714.39 713.32 310.03 713.26 302.51 711.82 Z M 309.16 666.95 C 309.34 654.27 309.27 617.24 309.00 584.67 L 308.50 525.45 L 305.23 518.80 C 301.17 510.56 293.26 503.06 285.25 499.83 C 280.65 497.98 277.60 497.51 270.00 497.51 C 261.63 497.50 259.83 497.83 254.84 500.28 C 247.38 503.94 241.41 509.88 238.18 516.84 C 232.46 529.17 235.76 545.91 245.69 555.07 C 250.69 559.68 259.15 563.98 263.25 563.99 L 266.00 564.00 L 266.00 552.50 C 266.00 543.22 265.73 541.00 264.58 541.00 C 262.13 541.00 257.18 536.08 256.49 532.98 C 254.93 525.86 260.36 519.16 268.43 518.26 C 275.18 517.49 281.51 521.33 285.36 528.50 C 287.48 532.45 287.51 533.30 288.00 603.50 C 288.45 667.28 288.67 674.81 290.17 677.50 C 294.11 684.61 299.92 688.61 308.16 689.90 C 308.52 689.95 308.97 679.63 309.16 666.95 Z M 692.00 658.98 L 692.00 627.97 L 687.25 630.37 C 676.00 636.07 676.98 636.00 608.53 636.00 C 539.74 636.00 539.27 635.97 528.61 630.22 C 525.84 628.72 520.87 624.97 517.57 621.88 L 511.57 616.27 L 505.90 621.94 C 499.92 627.92 490.71 633.14 483.00 634.91 C 480.15 635.57 455.37 635.96 415.50 635.96 C 344.80 635.98 347.35 636.21 331.75 628.22 C 331.34 628.01 331.00 641.82 331.00 658.92 L 331.00 690.00 L 511.50 690.00 L 692.00 690.00 L 692.00 658.98 Z M 724.50 686.75 C 728.16 684.85 731.15 681.65 733.63 677.00 C 735.39 673.71 735.53 669.36 736.00 603.00 C 736.49 533.31 736.52 532.45 738.64 528.50 C 744.49 517.59 756.61 514.63 763.72 522.39 C 766.43 525.35 767.00 526.77 767.00 530.56 C 767.00 534.30 766.46 535.69 764.08 538.08 C 762.47 539.68 760.44 541.00 759.58 541.00 C 758.23 541.00 758.00 542.74 758.00 553.02 L 758.00 565.04 L 760.75 564.37 C 773.77 561.19 781.77 554.74 786.64 543.50 C 787.82 540.80 788.40 536.75 788.44 531.00 C 788.49 523.82 788.09 521.63 785.85 516.85 C 782.48 509.66 776.34 503.52 769.15 500.15 C 764.22 497.84 762.23 497.50 753.48 497.50 C 744.20 497.50 742.97 497.74 736.87 500.74 C 728.94 504.64 721.92 511.80 718.18 519.78 L 715.50 525.50 L 715.23 607.65 L 714.96 689.80 L 718.23 689.06 C 720.03 688.65 722.85 687.61 724.50 686.75 Z M 481.97 611.93 C 491.52 607.60 496.82 601.27 498.97 591.64 C 501.19 581.69 496.27 569.13 488.00 563.64 C 480.67 558.77 480.62 558.76 414.62 558.71 C 345.48 558.65 349.09 558.31 341.04 565.58 C 334.36 571.62 332.52 576.02 332.52 586.00 C 332.52 592.80 332.96 595.30 334.68 598.50 C 337.57 603.87 343.52 609.45 349.00 611.92 C 353.37 613.90 355.31 613.96 415.50 613.96 C 475.65 613.96 477.63 613.90 481.97 611.93 Z M 673.21 612.45 C 686.65 607.86 694.60 592.45 690.60 578.70 C 688.37 571.03 683.59 565.11 676.96 561.79 L 671.50 559.07 L 608.50 558.86 C 551.03 558.67 545.15 558.80 541.55 560.35 C 532.46 564.29 527.06 570.98 524.92 580.95 C 522.17 593.75 530.28 608.12 542.75 612.57 C 545.72 613.63 559.17 613.92 607.57 613.96 C 660.26 613.99 669.27 613.79 673.21 612.45 Z M 413.40 537.22 C 487.43 536.93 488.00 536.96 496.81 542.08 C 498.63 543.13 500.33 544.00 500.59 544.00 C 500.85 544.00 500.94 518.91 500.78 488.25 C 500.51 433.53 500.46 432.41 498.34 427.82 C 495.94 422.63 489.04 414.64 484.63 411.93 C 481.78 410.19 481.72 410.20 477.02 413.58 C 470.76 418.08 462.65 421.59 455.46 422.92 C 447.95 424.31 382.67 424.34 374.14 422.95 C 367.00 421.80 357.42 417.76 350.51 413.01 C 346.00 409.90 345.85 409.87 343.26 411.57 C 338.96 414.38 334.95 419.16 332.40 424.50 L 330.02 429.50 L 330.01 468.59 C 330.00 490.09 330.29 515.80 330.65 525.72 L 331.31 543.75 L 337.90 540.63 L 344.50 537.50 L 413.40 537.22 Z M 530.63 540.25 L 536.50 537.50 L 605.50 537.21 C 677.36 536.90 678.78 536.97 687.21 541.16 C 689.25 542.17 691.16 543.00 691.46 543.00 C 691.76 543.00 692.00 539.96 692.00 536.25 C 692.01 532.54 692.61 525.67 693.36 521.00 C 694.39 514.49 694.60 502.80 694.25 471.00 C 693.84 433.64 693.61 429.08 691.97 425.28 C 689.98 420.70 681.85 411.41 679.05 410.52 C 677.99 410.18 674.79 411.66 670.78 414.35 C 667.18 416.76 661.37 419.79 657.87 421.07 C 651.69 423.33 650.36 423.41 613.32 423.76 C 590.84 423.98 572.95 423.72 569.82 423.14 C 562.08 421.71 554.05 418.48 547.13 414.01 L 541.05 410.08 L 536.86 413.29 C 531.93 417.07 526.49 424.64 524.99 429.82 C 522.92 436.91 522.42 543.00 524.45 543.00 C 524.61 543.00 527.39 541.76 530.63 540.25 Z M 449.88 400.95 C 461.43 399.08 469.19 393.43 474.20 383.24 C 477.15 377.25 477.50 375.64 477.50 368.00 C 477.50 360.36 477.15 358.75 474.21 352.77 C 470.63 345.50 465.63 340.53 458.14 336.81 C 453.58 334.54 452.88 334.50 415.88 334.22 C 379.61 333.94 378.05 334.01 372.58 336.06 C 365.66 338.64 357.47 346.32 353.97 353.50 C 350.61 360.39 350.42 375.16 353.61 382.05 C 358.01 391.58 366.60 398.41 376.97 400.64 C 384.00 402.16 440.97 402.40 449.88 400.95 Z M 644.88 400.95 C 656.43 399.08 664.19 393.43 669.20 383.24 C 672.21 377.13 672.50 375.75 672.46 367.52 C 672.42 360.47 671.94 357.47 670.25 353.78 C 667.23 347.17 661.09 340.88 654.29 337.44 L 648.50 334.50 L 610.88 334.22 C 574.61 333.94 573.05 334.01 567.58 336.06 C 560.66 338.64 552.47 346.32 548.97 353.50 C 546.95 357.66 546.54 360.02 546.52 367.52 C 546.50 375.75 546.79 377.14 549.83 383.31 C 554.70 393.20 563.30 399.35 575.00 401.31 C 580.46 402.22 638.88 401.92 644.88 400.95 Z M 361.83 521.35 C 360.36 520.40 358.67 518.57 358.08 517.27 C 357.39 515.75 357.00 504.33 357.00 485.40 C 357.00 453.39 357.28 451.56 362.47 449.19 C 369.18 446.14 376.10 449.09 377.96 455.80 C 379.29 460.58 379.31 510.33 377.99 515.10 C 377.44 517.08 376.11 519.50 375.03 520.47 C 372.23 523.01 365.14 523.48 361.83 521.35 Z M 454.77 520.08 L 451.50 517.16 L 451.50 485.50 L 451.50 453.84 L 454.77 450.92 C 459.55 446.65 465.02 446.82 469.60 451.40 L 473.00 454.80 L 473.00 485.50 L 473.00 516.20 L 469.60 519.60 C 465.02 524.18 459.55 524.35 454.77 520.08 Z M 556.11 521.66 C 551.26 518.86 551.07 517.53 551.04 485.70 C 551.00 453.35 551.26 451.57 556.47 449.19 C 560.15 447.52 565.14 447.71 567.88 449.63 C 572.55 452.90 573.00 455.98 572.99 484.72 C 572.99 512.24 572.42 517.41 569.03 520.47 C 566.48 522.78 559.20 523.45 556.11 521.66 Z M 648.77 520.08 L 645.50 517.16 L 645.50 485.50 L 645.50 453.84 L 648.77 450.92 C 653.55 446.65 659.02 446.82 663.60 451.40 L 667.00 454.80 L 667.00 485.50 L 667.00 516.20 L 663.60 519.60 C 659.02 524.18 653.55 524.35 648.77 520.08 Z" stroke-linecap="round"/>
</g>
</g>
</g>

  </svg>