<svg xmlns="http://www.w3.org/2000/svg" xmlns:xlink="http://www.w3.org/1999/xlink" width="500px" height="450px" viewBox="0 0 500 450.4063651768213">
    <g id="55e372f2-7f9a-494f-8607-5bdda2bf39d4">
<g style="">
		<g id="55e372f2-7f9a-494f-8607-5bdda2bf39d4-child-0">
<path style="stroke: rgb(193,193,193); stroke-width: 0; stroke-dasharray: none; stroke-linecap: butt; stroke-dashoffset: 0; stroke-linejoin: miter; stroke-miterlimit: 4; fill: rgb(0,0,0); fill-rule: nonzero; opacity: 1;" transform="matrix(0.888161 0 0 0.888161 249.999897 225.203089) matrix(1 0 0 1 0 0)  translate(-513.519618, -512.597172)" d="M 237.11 764.60 C 233.99 762.87 232.08 759.32 232.04 755.15 C 232.01 752.65 232.86 750.94 235.40 748.40 C 238.24 745.56 239.52 745.00 243.15 745.02 C 245.75 745.04 248.36 745.74 249.63 746.77 C 257.81 753.39 253.78 765.98 243.50 765.94 C 241.30 765.94 238.42 765.33 237.11 764.60 Z M 281.29 764.89 C 277.10 763.68 275.00 760.52 275.00 755.41 C 275.00 750.51 278.25 746.60 283.14 745.62 C 284.85 745.28 300.16 745.00 317.17 745.00 L 348.09 745.00 L 352.17 736.25 C 354.41 731.44 360.91 717.38 366.60 705.00 L 376.96 682.50 L 373.00 681.81 C 363.88 680.21 355.47 674.69 350.89 667.31 L 348.91 664.12 L 335.20 678.62 C 313.56 701.54 311.66 702.34 280.00 701.83 C 261.68 701.53 259.02 701.28 254.95 699.39 C 248.21 696.28 243.47 691.62 240.05 684.78 C 232.36 669.40 239.10 650.81 254.95 643.66 C 258.58 642.02 262.17 641.52 272.76 641.19 L 286.01 640.77 L 298.26 628.06 C 304.99 621.06 319.27 605.80 330.00 594.13 C 347.25 575.36 350.25 572.54 355.98 569.71 L 362.45 566.50 L 392.18 566.18 L 421.92 565.87 L 418.48 562.85 C 416.59 561.19 413.63 556.97 411.92 553.48 C 409.02 547.60 408.82 546.51 409.18 538.82 C 409.43 533.27 410.21 529.17 411.51 526.50 C 414.50 520.36 420.93 514.55 427.38 512.13 C 433.03 510.02 433.77 510.00 519.02 510.00 L 604.96 510.00 L 606.87 506.25 C 607.92 504.19 612.16 495.08 616.29 486.00 C 649.82 412.28 656.52 398.02 659.61 393.71 C 661.55 391.01 662.99 388.67 662.82 388.52 C 662.64 388.36 658.99 387.27 654.69 386.10 C 650.40 384.93 644.76 382.90 642.18 381.59 C 620.91 370.81 607.07 348.88 606.78 325.50 C 606.63 313.51 608.25 306.40 613.70 295.00 C 621.82 278.05 637.47 265.20 655.64 260.57 C 663.57 258.55 680.67 258.52 688.54 260.51 C 712.32 266.53 731.28 285.91 736.55 309.56 C 741.14 330.19 734.61 352.75 719.32 369.09 L 714.90 373.82 L 734.70 374.17 C 754.03 374.51 754.65 374.59 760.73 377.39 C 776.55 384.67 784.48 401.94 779.16 417.50 C 775.88 427.08 752.15 477.37 750.24 478.79 C 744.38 483.15 736.11 480.29 734.36 473.31 C 733.49 469.82 734.08 468.33 748.89 436.34 C 762.58 406.78 762.97 405.12 757.69 399.36 C 755.13 396.57 753.30 395.58 749.68 395.03 C 746.65 394.57 744.69 394.70 744.16 395.41 C 743.30 396.55 738.31 407.44 692.17 509.00 C 636.03 632.58 636.19 632.25 632.43 635.63 C 630.52 637.35 627.05 639.28 624.73 639.92 C 621.62 640.78 598.29 641.01 536.83 640.79 L 453.16 640.50 L 450.58 638.08 C 448.87 636.47 448.00 634.59 448.00 632.51 C 448.00 630.58 453.18 618.22 461.45 600.44 L 474.89 571.50 L 466.83 570.60 C 452.30 568.98 453.57 567.75 440.88 595.50 C 434.84 608.70 428.69 622.37 427.20 625.87 C 423.83 633.84 419.64 638.45 414.49 639.88 C 412.27 640.50 402.66 640.99 392.82 640.99 C 383.09 641.00 374.00 641.43 372.62 641.96 C 366.19 644.40 364.75 653.21 369.92 658.39 L 373.04 661.50 L 443.77 662.00 C 518.05 662.53 517.59 662.50 519.98 666.96 C 521.29 669.41 521.29 674.59 519.98 677.04 C 517.72 681.26 515.94 681.48 479.61 682.00 L 444.72 682.50 L 430.36 713.36 C 422.46 730.34 416.00 744.51 416.00 744.86 C 416.00 745.45 608.01 745.35 608.55 744.76 C 608.68 744.62 602.23 730.44 594.21 713.25 L 579.63 682.00 L 562.77 682.00 C 550.13 682.00 545.21 681.64 543.15 680.58 C 540.25 679.08 538.00 675.28 538.00 671.90 C 538.00 669.09 540.59 664.41 542.71 663.37 C 543.70 662.89 565.20 662.28 590.50 662.00 L 636.50 661.50 L 641.50 658.85 C 650.60 654.02 645.95 663.02 693.67 558.00 C 708.79 524.72 722.04 496.60 723.11 495.50 C 726.17 492.36 733.20 492.75 736.70 496.25 C 742.15 501.70 746.43 491.16 678.61 639.33 C 673.87 649.69 668.65 660.11 667.01 662.49 C 663.12 668.14 656.77 673.57 650.33 676.77 L 645.15 679.34 L 648.95 686.92 C 651.04 691.09 658.03 705.75 664.48 719.50 C 670.94 733.25 676.39 744.68 676.59 744.89 C 676.78 745.10 692.61 745.19 711.75 745.08 C 733.52 744.95 747.55 745.26 749.23 745.90 C 753.98 747.70 756.00 750.57 756.00 755.50 C 756.00 760.38 753.98 763.29 749.39 765.04 C 746.04 766.32 285.71 766.17 281.29 764.89 Z M 407.23 715.25 C 414.74 698.89 421.19 684.71 421.55 683.75 C 422.16 682.15 421.25 682.00 410.74 682.00 L 399.27 682.00 L 397.22 686.75 C 396.10 689.36 389.56 703.54 382.70 718.25 L 370.21 745.00 L 381.89 745.00 L 393.56 745.00 L 407.23 715.25 Z M 653.93 744.25 C 653.89 743.84 647.23 729.78 639.14 713.00 L 624.43 682.50 L 613.12 682.22 C 606.54 682.05 601.95 682.32 602.16 682.85 C 602.34 683.36 608.99 697.55 616.92 714.38 L 631.33 745.00 L 642.67 745.00 C 648.90 745.00 653.97 744.66 653.93 744.25 Z M 304.43 680.02 C 307.18 678.68 315.64 670.37 330.50 654.45 C 353.39 629.90 355.58 627.84 363.00 623.89 C 367.23 621.64 368.67 621.48 387.13 621.18 L 406.76 620.85 L 412.88 608.02 C 416.24 600.96 419.88 593.11 420.96 590.59 L 422.93 586.00 L 396.71 586.01 C 381.58 586.01 368.91 586.45 366.74 587.06 C 362.33 588.28 360.33 590.18 340.52 612.00 C 312.71 642.63 298.55 657.17 294.50 659.26 C 291.05 661.04 288.82 661.31 278.22 661.20 C 265.06 661.06 262.37 661.61 259.10 665.13 C 254.98 669.54 257.43 678.61 263.39 681.02 C 264.55 681.49 273.35 681.90 282.93 681.94 C 298.36 681.99 300.84 681.77 304.43 680.02 Z M 606.00 620.63 C 606.00 619.00 598.35 601.83 596.18 598.59 C 593.07 593.93 585.60 588.54 580.18 587.03 C 577.94 586.41 559.67 586.01 533.47 586.01 L 490.44 586.00 L 482.72 602.58 C 478.47 611.69 475.00 619.57 475.00 620.08 C 475.00 620.63 501.13 621.00 540.50 621.00 C 576.53 621.00 606.00 620.83 606.00 620.63 Z M 633.42 589.04 C 638.14 578.89 642.00 570.45 642.00 570.29 C 642.00 569.69 597.31 570.03 596.70 570.63 C 596.35 570.98 597.96 572.53 600.28 574.07 C 607.81 579.08 615.63 589.98 620.55 602.32 C 622.04 606.07 623.62 608.77 624.05 608.32 C 624.48 607.87 628.70 599.19 633.42 589.04 Z M 638.15 548.70 C 643.81 544.85 644.24 537.06 639.02 532.67 C 636.34 530.42 635.17 530.24 617.88 529.55 C 594.71 528.62 444.02 529.06 438.02 530.07 C 432.32 531.03 429.00 534.62 429.00 539.83 C 429.00 544.24 431.22 547.77 434.99 549.35 C 436.98 550.19 464.45 550.50 536.61 550.50 C 630.16 550.50 635.64 550.40 638.15 548.70 Z M 664.36 521.25 C 667.94 514.11 673.92 501.05 696.99 450.00 C 704.82 432.67 713.65 413.15 716.61 406.60 C 719.57 400.06 722.00 394.56 722.00 394.38 C 722.00 394.20 714.69 394.17 705.75 394.30 C 692.24 394.51 688.91 394.86 686.00 396.39 C 681.47 398.76 676.25 403.70 674.25 407.50 C 671.83 412.11 628.87 506.26 628.28 508.25 C 627.84 509.77 628.50 510.00 633.21 510.00 C 636.20 510.00 640.72 510.71 643.27 511.58 C 648.76 513.45 655.81 519.38 658.52 524.40 C 659.58 526.38 660.57 528.00 660.71 528.00 C 660.86 528.00 662.50 524.96 664.36 521.25 Z M 687.96 365.89 C 699.81 361.80 708.78 353.26 714.65 340.47 C 718.52 332.05 719.09 319.96 716.10 310.10 C 709.74 289.16 687.39 275.54 665.12 279.04 C 640.77 282.87 623.20 306.03 626.85 329.49 C 631.31 358.13 660.34 375.42 687.96 365.89 Z M 777.11 763.44 C 773.29 760.23 772.23 755.40 774.41 751.18 C 776.64 746.86 779.76 745.00 784.80 745.00 C 791.08 745.00 795.00 749.03 795.00 755.50 C 795.00 759.31 794.47 760.68 792.08 763.08 C 788.11 767.04 781.58 767.20 777.11 763.44 Z" stroke-linecap="round"/>
</g>
</g>
</g>

  </svg>