<svg xmlns="http://www.w3.org/2000/svg" xmlns:xlink="http://www.w3.org/1999/xlink" width="2057px" height="1278px" viewBox="0 0 2057.1207630413555 1277.8072106797108">
    <g id="dbee5759-91eb-474e-ba8d-f49e0954ab71">
<g style="">
		<g id="dbee5759-91eb-474e-ba8d-f49e0954ab71-child-0">
<path style="stroke: rgb(193,193,193); stroke-width: 0; stroke-dasharray: none; stroke-linecap: butt; stroke-dashoffset: 0; stroke-linejoin: miter; stroke-miterlimit: 4; fill: rgb(0,0,0); fill-rule: nonzero; opacity: 1;" transform="matrix(3.318403 0 0 3.318403 1028.560271 638.903536) matrix(1 0 0 1 0 0)  translate(-512.003632, -512.403742)" d="M 255.89 703.55 C 244.00 700.27 233.28 691.04 227.70 679.26 L 224.50 672.50 L 224.21 610.25 L 223.93 548.00 L 220.29 546.48 C 214.54 544.07 208.69 538.69 205.53 532.88 C 203.17 528.55 202.54 525.97 202.19 519.40 C 201.81 512.15 202.06 510.61 204.54 505.09 C 207.97 497.44 214.94 490.87 222.28 488.35 C 225.75 487.16 231.03 486.49 238.00 486.35 C 243.77 486.23 249.06 486.10 249.75 486.06 C 250.68 486.02 251.00 482.84 251.00 473.71 C 251.00 456.33 253.51 447.77 261.87 436.68 C 264.70 432.93 271.44 426.94 276.88 423.32 C 277.09 423.18 274.95 420.54 272.13 417.45 C 266.41 411.19 260.76 400.26 259.10 392.20 C 257.55 384.72 257.76 370.64 259.54 363.10 C 264.34 342.72 281.96 325.06 301.56 320.99 C 305.04 320.27 319.53 320.00 343.68 320.21 L 380.50 320.53 L 387.50 323.29 C 400.74 328.51 412.93 340.00 418.49 352.50 C 422.01 360.42 423.45 367.80 423.37 377.50 C 423.23 393.17 418.84 405.44 409.39 416.59 L 404.09 422.83 L 410.35 427.43 C 416.05 431.62 420.76 436.86 425.50 444.29 L 427.28 447.08 L 430.06 442.21 C 433.45 436.29 440.28 429.11 445.93 425.54 L 450.12 422.90 L 444.53 416.86 C 434.54 406.07 430.00 393.93 430.00 378.00 C 430.00 350.76 445.81 328.98 470.93 321.60 C 475.47 320.26 482.36 320.00 512.64 320.00 C 548.14 320.00 549.09 320.05 556.46 322.39 C 566.01 325.43 572.40 329.53 579.71 337.35 C 599.98 359.02 599.99 395.43 579.73 417.60 L 574.93 422.86 L 579.22 425.81 C 584.95 429.75 592.33 437.76 594.93 442.86 C 596.09 445.14 597.25 447.00 597.50 447.00 C 597.75 447.00 598.83 445.29 599.90 443.20 C 602.65 437.80 610.16 429.75 615.84 426.10 L 620.68 422.99 L 615.84 417.75 C 605.15 406.15 600.45 392.31 601.32 375.00 C 601.96 362.09 604.40 354.57 611.21 344.38 C 618.98 332.76 629.82 324.92 642.72 321.57 C 651.21 319.37 716.70 319.28 724.87 321.45 C 743.34 326.37 758.87 342.03 764.58 361.50 C 767.40 371.14 766.96 387.43 763.61 397.33 C 760.72 405.87 756.31 413.41 750.80 419.26 L 747.25 423.01 L 751.88 426.43 C 761.56 433.58 767.42 441.43 771.09 452.17 C 772.76 457.05 773.37 461.76 773.76 472.74 L 774.28 486.98 L 785.39 486.80 C 798.83 486.58 804.72 488.24 811.44 494.15 C 818.91 500.73 821.33 505.83 821.82 516.05 C 822.19 523.87 821.96 525.34 819.48 530.86 C 816.48 537.54 810.10 544.22 804.48 546.57 L 801.07 548.00 L 800.79 608.75 C 800.50 669.04 800.48 669.54 798.24 675.50 C 793.23 688.81 782.72 699.15 770.32 702.98 C 763.84 704.98 761.77 705.00 512.14 704.91 C 311.96 704.84 259.56 704.56 255.89 703.55 Z M 266.04 681.89 C 264.40 679.64 262.06 675.25 260.83 672.14 C 258.71 666.78 258.56 664.58 257.87 628.00 C 257.47 606.83 256.84 588.08 256.47 586.33 C 255.53 581.92 257.60 573.22 260.47 569.45 C 261.79 567.71 264.26 565.72 265.94 565.03 L 269.00 563.76 L 268.99 542.63 C 268.98 522.40 268.88 521.28 266.57 516.31 C 264.95 512.84 262.84 510.26 260.16 508.49 C 256.24 505.89 255.94 505.85 241.50 506.17 L 226.83 506.50 L 223.92 509.77 C 221.59 512.37 221.00 513.97 221.00 517.62 C 221.00 521.50 221.52 522.72 224.40 525.60 C 226.67 527.87 228.75 529.00 230.65 529.00 C 234.19 529.01 239.46 532.13 241.11 535.20 C 242.06 536.95 242.37 552.67 242.44 601.50 C 242.52 651.71 242.82 666.34 243.86 669.41 C 245.53 674.34 254.64 683.56 259.12 684.85 C 260.98 685.38 263.97 685.86 265.76 685.91 L 269.01 686.00 L 266.04 681.89 Z M 722.53 684.45 C 733.64 681.56 741.33 674.90 745.14 664.87 C 746.71 660.74 747.00 657.09 747.00 641.54 L 747.00 623.10 L 739.75 626.52 C 728.76 631.70 723.31 632.16 676.36 631.80 C 635.61 631.49 634.33 631.42 628.00 629.18 C 616.35 625.05 606.63 617.33 599.94 606.91 L 596.73 601.90 L 593.98 606.70 C 589.90 613.82 580.27 622.47 572.02 626.43 C 560.79 631.80 556.17 632.19 507.84 631.80 C 465.62 631.46 464.33 631.39 458.00 629.15 C 446.16 624.95 435.86 616.46 429.55 605.69 L 426.74 600.88 L 423.71 606.19 C 416.73 618.44 402.12 628.62 388.15 630.97 C 383.27 631.80 368.41 632.04 338.83 631.76 C 292.89 631.34 291.25 631.15 281.17 625.33 L 276.85 622.83 L 277.18 642.66 C 277.49 661.09 277.69 662.84 279.86 667.24 C 282.56 672.69 288.53 679.19 292.93 681.46 C 301.74 686.02 294.22 685.86 511.54 685.93 C 693.64 685.99 717.25 685.83 722.53 684.45 Z M 761.91 685.02 C 769.50 683.58 775.27 679.18 778.67 672.25 L 781.50 666.50 L 782.00 600.85 C 782.47 538.51 782.59 535.10 784.37 533.14 C 786.14 531.19 789.16 529.91 795.09 528.61 C 798.62 527.84 802.62 523.63 803.37 519.92 C 804.22 515.67 801.77 510.44 797.81 508.03 C 794.92 506.26 792.78 506.01 780.90 506.00 C 768.46 506.00 767.01 506.19 763.90 508.25 C 761.92 509.56 759.35 512.78 757.75 515.93 C 755.01 521.33 755.00 521.47 755.00 541.97 L 755.00 562.58 L 759.35 566.21 C 767.17 572.75 766.93 570.72 766.10 621.50 C 765.41 664.18 765.26 666.78 763.23 671.88 C 762.05 674.84 759.95 678.99 758.55 681.11 C 756.11 684.79 755.57 686.00 756.36 686.00 C 756.56 686.00 759.06 685.56 761.91 685.02 Z M 392.50 610.20 C 402.07 605.81 409.59 596.14 411.52 585.75 L 412.22 582.00 L 343.61 582.00 L 275.00 582.00 L 275.00 584.32 C 275.00 592.41 281.64 603.14 289.73 608.14 C 297.08 612.68 299.92 612.92 345.00 612.70 C 387.00 612.50 387.56 612.47 392.50 610.20 Z M 558.97 611.42 C 571.56 607.68 580.52 597.83 582.32 585.75 L 582.87 582.00 L 512.31 582.00 L 441.74 582.00 L 442.27 585.98 C 443.37 594.19 450.94 604.82 458.50 608.77 C 465.96 612.67 468.47 612.86 511.57 612.93 C 547.18 612.99 554.46 612.76 558.97 611.42 Z M 725.99 611.41 C 738.69 607.64 748.02 597.49 748.35 587.09 L 748.50 582.50 L 680.25 582.24 L 612.00 581.99 L 612.00 584.31 C 612.00 591.61 619.54 603.08 627.62 608.07 C 635.04 612.66 637.25 612.86 680.07 612.93 C 714.38 612.99 721.46 612.75 725.99 611.41 Z M 411.78 511.75 C 411.51 461.51 411.46 460.41 409.32 455.78 C 406.07 448.75 398.97 441.72 391.73 438.38 L 385.50 435.50 L 340.50 435.50 C 295.83 435.50 295.46 435.52 290.58 437.77 C 282.58 441.46 277.45 446.34 273.80 453.75 C 270.57 460.30 270.49 460.77 270.18 475.60 L 269.86 490.76 L 275.45 496.04 C 278.96 499.36 282.23 503.75 284.27 507.88 L 287.50 514.45 L 287.81 538.72 L 288.13 563.00 L 350.10 563.00 L 412.07 563.00 L 411.78 511.75 Z M 582.78 511.75 L 582.50 460.50 L 579.57 454.71 C 576.00 447.66 569.75 441.71 562.18 438.16 L 556.50 435.50 L 513.00 435.50 C 472.87 435.50 469.08 435.65 464.05 437.40 C 456.40 440.06 447.10 449.33 443.88 457.50 C 441.52 463.47 441.51 463.71 441.20 511.89 C 441.03 538.50 441.13 560.89 441.42 561.64 C 441.85 562.77 453.91 563.00 512.50 563.00 L 583.07 563.00 L 582.78 511.75 Z M 736.00 542.64 C 736.00 512.85 737.54 507.27 748.80 496.14 L 755.25 489.78 L 754.82 475.50 C 754.40 461.85 754.25 460.94 751.15 454.66 C 747.45 447.15 742.11 442.00 734.00 438.13 L 728.50 435.50 L 683.50 435.50 C 639.07 435.50 638.44 435.53 633.67 437.73 C 626.84 440.88 621.71 445.22 618.02 450.97 C 612.19 460.06 612.02 461.77 612.01 514.08 C 612.01 540.25 612.30 561.97 612.67 562.33 C 613.03 562.70 640.93 563.00 674.67 563.00 L 736.00 563.00 L 736.00 542.64 Z M 382.25 413.31 C 388.84 410.26 397.10 402.13 400.58 395.27 C 403.30 389.89 403.50 388.72 403.50 378.00 C 403.50 367.50 403.26 365.98 400.70 360.50 C 397.06 352.69 390.26 345.86 382.61 342.32 L 376.50 339.50 L 340.50 339.50 L 304.50 339.50 L 298.82 342.16 C 290.88 345.89 284.60 352.03 280.75 359.86 C 277.65 366.15 277.50 367.00 277.50 377.98 C 277.50 387.84 277.83 390.21 279.77 394.42 C 284.24 404.11 291.69 410.94 301.84 414.63 C 304.68 415.66 313.58 415.91 341.50 415.73 C 376.20 415.51 377.67 415.42 382.25 413.31 Z M 555.14 412.73 C 562.26 409.23 568.28 402.74 572.33 394.18 C 575.23 388.05 575.49 386.68 575.47 377.50 C 575.45 369.45 575.00 366.38 573.15 361.75 C 570.15 354.24 562.73 346.20 555.34 342.45 L 549.50 339.50 L 512.50 339.50 C 476.52 339.50 475.37 339.56 470.75 341.69 C 463.66 344.97 455.75 352.97 452.37 360.28 C 449.76 365.94 449.50 367.49 449.50 377.52 C 449.50 387.95 449.68 388.90 452.77 395.19 C 456.76 403.29 464.79 411.00 472.26 413.90 C 477.23 415.84 479.36 415.93 513.50 415.72 L 549.50 415.50 L 555.14 412.73 Z M 724.46 413.93 C 731.60 411.26 740.12 403.50 743.50 396.59 C 748.92 385.52 748.89 370.99 743.43 359.44 C 740.48 353.21 731.77 344.71 725.25 341.69 C 720.63 339.56 719.47 339.50 683.98 339.50 L 647.46 339.50 L 640.84 342.76 C 628.95 348.61 621.35 360.28 620.29 374.31 C 618.87 393.10 628.42 408.53 645.08 414.36 C 648.73 415.64 655.54 415.91 684.21 415.95 C 716.94 416.00 719.24 415.88 724.46 413.93 Z" stroke-linecap="round"/>
</g>
</g>
</g>

  </svg>