<svg xmlns="http://www.w3.org/2000/svg" xmlns:xlink="http://www.w3.org/1999/xlink" width="328px" height="499px" viewBox="0 0 328.4366863033215 500">
    <g id="7593e354-c251-44c9-8f62-a6f68d50e3c8">
<g style="">
		<g id="7593e354-c251-44c9-8f62-a6f68d50e3c8-child-0">
<path style="stroke: rgb(193,193,193); stroke-width: 0; stroke-dasharray: none; stroke-linecap: butt; stroke-dashoffset: 0; stroke-linejoin: miter; stroke-miterlimit: 4; fill: rgb(0,0,0); fill-rule: nonzero; opacity: 1;" transform="matrix(0.842306 0 0 0.842306 164.218317 249.999961) matrix(1 0 0 1 0 0)  translate(-512.067223, -511.887355)" d="M 375.00 807.53 C 350.58 802.61 328.81 783.56 321.09 760.36 C 317.52 749.60 316.90 741.72 317.21 710.73 L 317.50 681.04 L 320.77 677.77 C 323.46 675.07 324.81 674.50 328.41 674.50 C 331.38 674.50 333.52 675.15 335.03 676.50 C 339.69 680.66 340.00 683.01 340.00 714.79 C 340.00 739.18 340.29 745.63 341.60 750.07 C 346.61 767.13 358.98 779.45 376.11 784.43 C 381.08 785.88 394.96 786.01 514.64 785.77 L 647.65 785.50 L 656.12 781.30 C 667.00 775.91 674.54 768.26 679.78 757.29 L 683.50 749.50 L 683.76 590.75 L 684.02 432.00 L 512.01 432.00 L 340.00 432.00 L 340.00 538.03 C 340.00 652.22 340.16 648.67 334.88 652.37 C 331.02 655.08 324.58 654.49 320.77 651.08 L 317.50 648.16 L 317.23 464.83 C 316.93 264.77 316.69 274.11 322.51 259.78 C 328.83 244.22 342.42 229.72 357.46 222.50 C 374.17 214.47 364.81 214.90 515.00 215.22 L 648.50 215.50 L 656.50 218.22 C 668.05 222.16 676.39 227.40 685.59 236.50 C 694.64 245.45 699.87 253.89 703.77 265.83 C 705.84 272.17 706.36 276.09 706.77 288.43 C 707.33 305.56 706.46 308.60 700.16 311.59 C 696.98 313.10 696.13 313.14 692.57 311.90 C 690.07 311.02 687.71 309.22 686.28 307.10 C 684.22 304.03 684.00 302.55 684.00 291.53 C 684.00 277.99 682.72 272.12 677.74 262.71 C 673.97 255.58 664.86 246.97 656.78 242.89 C 644.83 236.86 649.29 237.04 511.30 237.02 C 422.97 237.01 383.51 237.33 379.80 238.11 C 370.32 240.08 362.09 244.72 354.43 252.41 C 350.55 256.31 346.34 261.64 345.09 264.26 C 340.04 274.82 340.02 275.03 340.01 344.75 L 340.00 410.00 L 512.00 410.00 L 684.00 410.00 L 684.01 395.25 C 684.01 387.14 684.47 378.83 685.04 376.80 C 686.45 371.71 690.17 369.00 695.73 369.00 C 699.48 369.00 700.75 369.55 703.62 372.42 L 707.03 375.83 L 706.74 562.67 C 706.47 740.09 706.36 749.80 704.63 755.50 C 697.14 780.18 679.94 797.67 654.60 806.37 C 648.54 808.45 647.62 808.46 515.00 808.65 C 408.44 808.80 380.19 808.57 375.00 807.53 Z M 374.77 566.08 L 371.50 563.17 L 371.22 522.56 C 371.02 494.68 371.29 480.63 372.07 477.73 C 373.60 472.00 380.21 465.69 386.30 464.16 C 389.45 463.36 405.88 463.00 438.79 463.00 L 486.70 463.00 L 490.07 465.27 C 491.94 466.53 494.05 469.16 494.83 471.20 C 496.08 474.50 496.03 475.27 494.36 478.69 C 490.75 486.07 491.34 486.00 439.75 486.00 L 394.00 486.00 L 394.00 523.05 C 394.00 562.83 393.88 563.87 388.78 567.44 C 385.01 570.08 378.54 569.46 374.77 566.08 Z M 383.49 376.14 C 378.45 373.84 373.43 368.19 372.06 363.28 C 371.48 361.20 371.01 351.02 371.01 340.65 C 371.00 325.55 371.31 321.14 372.58 318.48 C 374.12 315.22 379.05 312.00 382.50 312.00 C 385.95 312.00 390.88 315.22 392.42 318.48 C 393.67 321.10 394.00 325.40 394.00 338.90 L 394.00 356.00 L 440.57 356.00 C 472.89 356.00 487.80 356.34 489.32 357.12 C 493.09 359.05 494.95 362.25 494.98 366.85 C 495.00 370.48 494.44 371.76 491.60 374.60 L 488.20 378.00 L 437.85 377.98 C 391.31 377.96 387.20 377.82 383.49 376.14 Z" stroke-linecap="round"/>
</g>
</g>
</g>

  </svg>