<svg xmlns="http://www.w3.org/2000/svg" xmlns:xlink="http://www.w3.org/1999/xlink" width="500px" height="386px" viewBox="0 0 499.9999999999998 386.0771068490478">
    <g id="e06b37c2-ead3-41c3-a684-690aabbb95fc">
<g style="">
		<g id="e06b37c2-ead3-41c3-a684-690aabbb95fc-child-0">
<path style="stroke: rgb(193,193,193); stroke-width: 0; stroke-dasharray: none; stroke-linecap: butt; stroke-dashoffset: 0; stroke-linejoin: miter; stroke-miterlimit: 4; fill: rgb(0,0,0); fill-rule: nonzero; opacity: 1;" transform="matrix(0.772033 0 0 0.772033 250.000158 193.038676) matrix(1 0 0 1 0 0)  translate(-511.049944, -512.539409)" d="M 284.50 762.01 C 243.02 757.40 209.98 728.27 199.41 686.98 C 196.57 675.87 196.79 650.62 199.83 639.50 C 203.34 626.68 211.68 610.56 218.90 602.65 L 221.50 599.79 L 219.01 598.15 C 213.16 594.28 208.81 589.36 205.76 583.16 C 202.77 577.09 202.50 575.75 202.50 567.02 C 202.50 558.60 202.83 556.84 205.32 551.76 C 208.91 544.45 215.45 537.91 222.76 534.32 C 227.39 532.05 230.15 531.43 237.00 531.16 C 241.68 530.97 245.88 530.45 246.35 530.01 C 246.82 529.56 246.06 525.22 244.66 520.35 C 242.41 512.48 231.01 469.67 201.82 359.50 C 185.46 297.73 186.70 303.35 187.81 295.82 C 189.81 282.19 197.60 271.29 209.51 265.44 C 214.98 262.75 216.41 262.50 226.00 262.50 C 235.59 262.50 237.02 262.75 242.49 265.44 C 245.78 267.06 250.58 270.48 253.15 273.05 C 261.20 281.11 259.40 275.55 282.50 363.50 C 287.12 381.10 295.87 414.34 301.95 437.36 C 308.03 460.38 313.00 479.38 313.00 479.57 C 313.00 479.77 339.66 480.05 372.25 480.21 L 431.50 480.50 L 437.22 483.18 C 444.79 486.73 452.33 493.94 455.74 500.88 C 458.10 505.68 458.50 507.74 458.50 515.00 C 458.50 519.67 458.14 524.90 457.70 526.62 L 456.90 529.73 L 499.70 530.20 C 523.24 530.46 543.17 530.50 544.00 530.29 C 545.29 529.95 545.43 527.21 545.00 510.70 L 544.50 491.50 L 519.67 458.25 C 506.01 439.96 494.46 425.00 494.00 425.00 C 493.55 425.00 486.05 426.38 477.34 428.07 C 466.59 430.16 459.71 431.00 455.93 430.69 C 441.13 429.45 429.00 416.26 429.00 401.38 C 429.00 390.02 433.72 381.42 443.94 374.18 C 447.55 371.63 464.49 359.36 481.59 346.93 C 498.69 334.50 514.89 323.26 517.59 321.95 C 524.16 318.75 533.97 318.16 541.13 320.54 C 548.13 322.87 555.99 330.59 558.32 337.44 C 561.40 346.45 560.68 351.15 553.45 369.44 L 546.90 386.02 L 561.08 404.76 C 568.88 415.07 580.04 429.90 585.88 437.71 C 591.72 445.53 597.40 452.22 598.50 452.57 C 599.60 452.93 633.58 466.39 674.00 482.49 C 714.42 498.59 753.42 514.08 760.66 516.92 C 776.05 522.96 780.95 526.19 783.87 532.23 C 785.84 536.30 786.00 538.24 786.00 557.78 L 786.00 578.93 L 792.25 583.14 C 832.33 610.20 846.40 664.10 824.72 707.50 C 814.42 728.13 794.40 746.88 774.00 755.03 C 748.60 765.17 721.16 764.80 697.32 753.99 C 687.87 749.70 675.45 741.12 668.53 734.07 L 662.56 728.00 L 516.18 728.00 L 369.79 728.00 L 362.34 734.96 C 340.46 755.39 312.46 765.12 284.50 762.01 Z M 757.66 734.50 C 789.44 725.26 811.70 693.40 809.69 660.04 C 808.69 643.31 804.20 631.42 794.09 618.69 C 784.26 606.32 769.89 597.16 754.32 593.33 C 745.23 591.09 728.61 591.13 720.00 593.41 C 705.15 597.34 690.05 606.89 681.50 617.76 C 662.77 641.57 659.66 672.22 673.32 698.50 C 681.27 713.81 697.16 727.47 714.00 733.48 C 726.49 737.94 744.39 738.35 757.66 734.50 Z M 311.98 735.44 C 331.39 730.87 349.28 716.55 359.05 697.79 C 372.16 672.59 369.01 640.46 351.28 618.52 C 329.63 591.73 291.25 583.67 261.05 599.55 C 242.38 609.36 229.10 626.35 223.84 647.17 C 222.13 653.91 221.85 657.41 222.25 666.93 C 223.09 687.34 229.27 701.30 243.98 716.03 C 253.67 725.72 263.95 731.77 276.23 734.98 C 285.41 737.39 302.78 737.61 311.98 735.44 Z M 647.00 702.63 C 647.00 702.42 646.30 700.28 645.44 697.88 C 641.70 687.41 639.92 676.96 639.92 665.50 L 639.92 654.00 L 516.09 654.00 L 392.25 654.00 L 391.75 668.25 C 391.27 681.67 389.56 690.68 385.46 701.25 C 384.82 702.91 391.44 703.00 515.89 703.00 C 588.00 703.00 647.00 702.83 647.00 702.63 Z M 640.15 628.13 L 646.80 627.50 L 651.00 619.50 C 656.43 609.16 663.68 599.41 670.81 592.87 C 677.68 586.58 690.79 577.87 698.71 574.35 C 706.78 570.77 721.21 567.25 731.18 566.44 C 738.65 565.83 753.96 567.02 759.28 568.62 C 760.93 569.12 761.04 568.23 760.78 556.38 L 760.50 543.61 L 750.00 539.45 C 744.22 537.16 724.42 529.32 706.00 522.04 C 687.58 514.75 656.80 502.53 637.60 494.89 C 618.41 487.25 602.06 481.00 601.26 481.00 C 600.47 481.00 593.29 485.47 585.31 490.93 L 570.79 500.86 L 570.64 520.18 C 570.51 537.90 570.32 539.83 568.35 543.50 C 565.85 548.14 562.92 551.01 558.00 553.63 C 554.63 555.43 548.61 555.51 396.50 555.71 C 309.60 555.83 237.44 555.94 236.15 555.96 C 234.85 555.98 232.29 557.51 230.40 559.40 C 223.81 565.99 226.49 574.08 236.89 578.95 L 241.96 581.32 L 251.23 576.72 C 280.18 562.36 310.35 562.54 339.50 577.25 C 357.92 586.55 374.13 603.35 383.15 622.50 C 384.44 625.25 385.95 627.83 386.50 628.23 C 387.71 629.12 630.68 629.02 640.15 628.13 Z M 428.09 527.72 C 429.95 526.47 432.03 524.33 432.72 522.97 C 434.46 519.54 434.31 512.89 432.44 510.22 C 428.71 504.89 430.29 505.00 359.19 505.00 L 293.27 505.00 L 289.07 488.75 C 284.07 469.39 273.20 428.08 260.99 382.00 C 256.11 363.58 248.91 336.35 245.00 321.50 C 241.08 306.65 237.23 293.49 236.43 292.26 C 234.07 288.64 230.21 286.68 225.54 286.75 C 220.13 286.83 217.43 288.25 214.95 292.31 C 212.36 296.56 212.49 301.83 215.44 312.04 C 217.72 319.93 223.53 341.69 255.60 462.50 C 271.64 522.88 270.58 519.35 273.72 523.07 C 279.95 530.48 274.32 529.99 353.60 530.00 L 424.70 530.00 L 428.09 527.72 Z M 570.10 471.87 C 572.52 470.15 574.92 468.36 575.42 467.90 C 575.96 467.40 564.45 451.30 547.65 429.04 C 531.86 408.13 518.73 390.46 518.47 389.76 C 518.21 389.07 521.82 379.35 526.50 368.16 C 531.17 356.97 535.00 347.17 535.00 346.38 C 535.00 345.60 533.93 344.47 532.63 343.88 C 529.50 342.45 529.74 342.30 502.05 362.50 C 459.74 393.37 454.94 396.99 454.36 398.51 C 453.35 401.14 454.93 404.94 457.27 405.53 C 458.50 405.84 469.35 404.27 481.37 402.05 C 493.40 399.82 503.80 398.00 504.48 398.00 C 505.80 398.00 519.34 415.52 546.39 452.25 C 555.61 464.76 563.72 475.00 564.42 475.00 C 565.13 475.00 567.68 473.59 570.10 471.87 Z M 728.50 712.96 C 706.60 708.47 690.45 690.46 688.38 668.22 C 687.07 654.08 692.87 639.09 703.52 629.13 C 714.53 618.83 726.66 614.33 740.97 615.25 C 770.66 617.16 792.30 645.84 785.58 674.40 C 779.46 700.42 753.36 718.06 728.50 712.96 Z M 745.14 686.84 C 750.32 685.29 756.85 679.55 759.11 674.56 C 761.40 669.53 761.56 660.27 759.45 655.22 C 752.98 639.72 731.66 635.70 720.24 647.83 C 714.37 654.06 712.22 665.51 715.46 673.26 C 720.22 684.64 732.99 690.48 745.14 686.84 Z M 282.26 712.06 C 268.17 708.24 257.09 699.09 250.68 686.00 C 243.81 671.96 243.60 656.70 250.09 642.98 C 253.69 635.36 264.31 624.40 271.74 620.63 C 291.27 610.74 313.73 614.05 328.99 629.07 C 340.02 639.93 345.66 656.77 343.21 671.53 C 338.42 700.49 309.79 719.52 282.26 712.06 Z M 303.78 686.45 C 312.61 682.77 317.94 674.42 317.98 664.24 C 318.02 652.83 311.94 644.52 301.27 641.40 C 294.47 639.41 288.56 640.31 281.81 644.36 C 266.30 653.68 267.65 677.16 284.17 685.40 C 290.28 688.44 298.01 688.86 303.78 686.45 Z" stroke-linecap="round"/>
</g>
</g>
</g>

  </svg>