<svg xmlns="http://www.w3.org/2000/svg" xmlns:xlink="http://www.w3.org/1999/xlink" width="458px" height="500px" viewBox="0 0 458.26366630212806 500">
    <g id="c92ee051-32b0-413e-99d6-0593832d3a0a">
<g style="">
		<g id="c92ee051-32b0-413e-99d6-0593832d3a0a-child-0">
<path style="stroke: rgb(193,193,193); stroke-width: 0; stroke-dasharray: none; stroke-linecap: butt; stroke-dashoffset: 0; stroke-linejoin: miter; stroke-miterlimit: 4; fill: rgb(0,0,0); fill-rule: nonzero; opacity: 1;" transform="matrix(0.894736 0 0 0.894736 229.131904 250.000078) matrix(1 0 0 1 0 0)  translate(-512.58884, -511.412114)" d="M 484.50 789.90 C 423.00 785.32 364.67 769.27 310.00 741.88 C 273.82 723.75 264.68 717.21 259.32 705.61 C 256.82 700.19 256.50 698.36 256.50 689.50 C 256.50 680.53 256.79 678.90 259.35 673.70 C 266.92 658.27 285.77 648.44 301.46 651.73 C 307.51 653.00 307.43 652.97 339.17 669.32 C 351.63 675.74 362.54 681.00 363.41 681.00 C 364.39 681.00 366.71 677.56 369.58 671.84 C 372.11 666.80 381.34 648.99 390.09 632.26 L 406.01 601.83 L 402.55 597.78 C 397.21 591.55 394.12 584.56 377.90 542.00 C 352.83 476.26 338.03 437.68 310.76 367.00 C 277.28 280.23 278.02 282.35 278.01 272.91 C 277.98 249.75 295.55 232.00 318.50 232.00 C 330.64 232.00 340.83 236.67 349.70 246.29 C 355.35 252.42 355.88 253.60 370.97 293.50 C 378.25 312.75 391.75 348.30 400.98 372.50 C 410.21 396.70 420.18 422.91 423.13 430.75 C 426.08 438.58 429.03 445.00 429.69 445.00 C 430.34 445.00 456.89 439.35 488.69 432.44 C 603.32 407.55 598.40 408.39 610.47 411.53 C 618.60 413.65 625.30 417.52 631.40 423.61 C 644.60 436.81 647.32 456.19 638.45 473.81 C 636.61 477.46 635.26 480.60 635.45 480.78 C 635.63 480.97 639.48 480.42 644.00 479.56 C 654.24 477.62 659.73 477.61 667.91 479.54 C 682.32 482.94 695.47 493.09 701.65 505.61 C 704.92 512.22 705.35 514.04 705.78 522.82 C 706.13 530.23 705.83 534.08 704.54 538.56 C 699.16 557.20 683.77 571.00 663.37 575.47 C 659.04 576.42 655.16 577.51 654.75 577.90 C 654.33 578.29 661.00 596.58 669.56 618.55 C 678.13 640.52 686.57 662.27 688.32 666.87 C 690.07 671.47 692.00 675.44 692.61 675.67 C 693.22 675.91 699.75 673.27 707.11 669.80 L 720.50 663.50 L 731.00 663.51 C 740.56 663.51 741.98 663.76 746.84 666.32 C 763.31 674.97 771.90 693.12 767.56 710.06 C 763.84 724.60 757.84 730.68 737.50 740.53 C 678.96 768.89 622.03 784.52 557.50 789.97 C 543.63 791.14 500.59 791.10 484.50 789.90 Z M 558.50 762.93 C 601.70 759.20 650.16 747.78 690.12 731.94 C 706.53 725.43 735.38 711.88 737.82 709.54 C 740.68 706.80 741.94 701.58 740.79 697.21 C 739.79 693.43 735.01 690.01 730.72 690.00 C 729.20 690.00 720.87 693.31 712.22 697.36 C 664.21 719.85 621.11 732.23 569.00 738.50 C 550.42 740.73 508.37 741.56 489.00 740.08 C 424.55 735.15 368.41 717.94 308.91 684.89 C 296.50 677.99 292.14 677.33 287.11 681.56 C 283.24 684.82 282.24 689.59 284.44 694.23 C 286.24 698.02 296.99 704.56 323.23 717.84 C 393.91 753.62 478.54 769.84 558.50 762.93 Z M 548.81 712.95 C 574.34 711.12 598.40 707.19 625.00 700.50 C 638.97 696.99 662.45 689.70 664.89 688.11 C 666.02 687.38 664.77 683.36 658.27 666.85 C 653.86 655.66 644.91 632.67 638.38 615.78 C 629.77 593.50 626.06 585.04 624.91 585.03 C 623.41 585.00 609.66 587.95 499.00 612.03 C 448.62 622.99 446.05 623.28 434.64 619.39 C 431.94 618.47 429.48 618.14 429.03 618.63 C 428.16 619.56 394.32 684.55 392.19 689.38 C 391.50 690.96 391.05 692.38 391.21 692.52 C 392.02 693.25 412.54 699.38 422.78 701.96 C 463.02 712.07 507.26 715.93 548.81 712.95 Z M 513.00 581.06 C 595.98 563.01 614.40 558.98 615.18 558.72 C 615.80 558.52 600.91 518.58 599.81 517.48 C 599.56 517.23 582.74 520.63 562.43 525.04 C 487.61 541.28 479.03 543.00 472.72 543.00 C 455.88 543.00 438.24 533.71 428.65 519.78 C 426.60 516.80 421.89 506.49 418.08 496.65 C 414.31 486.88 411.02 478.69 410.78 478.44 C 410.38 478.04 386.95 482.90 386.17 483.55 C 386.00 483.70 389.45 493.20 393.84 504.66 C 398.24 516.12 405.97 536.30 411.02 549.50 C 421.75 577.53 421.91 577.86 427.29 583.70 C 433.37 590.29 440.73 593.76 449.00 593.91 C 451.48 593.96 480.27 588.17 513.00 581.06 Z M 664.00 546.92 C 676.65 541.57 682.33 528.52 676.90 517.30 C 673.75 510.79 664.24 505.00 656.70 505.00 C 654.01 505.00 628.95 509.85 628.19 510.52 C 627.93 510.74 639.78 542.14 642.96 549.66 L 643.87 551.81 L 652.69 549.90 C 657.53 548.84 662.62 547.50 664.00 546.92 Z M 533.50 503.45 C 562.65 497.10 587.25 491.69 588.16 491.42 C 589.66 490.97 589.59 490.33 587.41 484.98 C 586.09 481.71 585.00 477.41 585.00 475.42 C 585.00 468.05 589.91 462.06 597.28 460.44 C 599.29 460.00 601.66 460.57 605.27 462.36 C 609.20 464.30 610.74 464.63 611.77 463.77 C 614.21 461.75 616.00 457.18 616.00 453.00 C 616.00 445.36 611.51 440.20 602.87 437.89 C 597.82 436.54 605.21 435.10 501.56 457.61 C 467.49 465.00 439.41 471.26 439.17 471.50 C 438.65 472.02 447.40 495.75 450.07 501.07 C 454.62 510.16 465.98 516.45 476.00 515.44 C 478.48 515.19 504.35 509.80 533.50 503.45 Z M 389.33 454.55 C 395.28 453.25 400.32 452.01 400.52 451.81 C 400.73 451.61 391.21 426.03 379.37 394.97 C 367.53 363.91 353.65 327.48 348.52 314.00 C 327.75 259.48 329.40 262.95 323.12 260.30 C 315.95 257.26 308.25 261.09 305.93 268.84 C 304.76 272.74 304.95 273.52 310.34 287.21 C 318.36 307.60 366.35 432.33 371.33 445.73 C 374.12 453.24 376.00 456.96 377.00 456.95 C 377.83 456.94 383.37 455.86 389.33 454.55 Z" stroke-linecap="round"/>
</g>
</g>
</g>

  </svg>