<svg xmlns="http://www.w3.org/2000/svg" xmlns:xlink="http://www.w3.org/1999/xlink" width="2057px" height="1851px" viewBox="0 0 2057.1207630413555 1851.2845623392411">
    <g id="1d9d136c-818e-4633-9e0e-6957899eaadb">
<g style="">
		<g id="1d9d136c-818e-4633-9e0e-6957899eaadb-child-0">
<path style="stroke: rgb(193,193,193); stroke-width: 0; stroke-dasharray: none; stroke-linecap: butt; stroke-dashoffset: 0; stroke-linejoin: miter; stroke-miterlimit: 4; fill: rgb(0,0,0); fill-rule: nonzero; opacity: 1;" transform="matrix(3.050257 0 0 3.050257 1028.560507 925.642394) matrix(1 0 0 1 0 0)  translate(-511.67998, -512.283739)" d="M 492.00 815.33 C 406.34 811.57 327.38 788.48 255.50 746.16 C 231.90 732.27 192.71 705.89 185.81 699.27 C 177.65 691.41 172.94 677.20 174.93 666.43 C 178.80 645.51 195.90 631.98 216.95 633.20 C 225.83 633.72 227.09 634.34 250.16 649.47 C 258.52 654.95 265.50 659.00 265.68 658.47 C 265.95 657.67 302.66 583.43 318.58 551.50 C 321.08 546.47 323.71 539.32 324.53 535.30 C 326.29 526.69 326.82 530.91 315.47 462.15 C 310.81 433.91 306.99 410.06 306.98 409.15 C 306.94 404.52 306.09 404.62 281.52 412.06 L 257.75 419.25 L 250.62 418.12 C 221.17 413.42 198.61 382.58 205.36 356.25 C 207.41 348.24 210.11 342.97 215.98 335.50 C 218.58 332.20 232.50 313.14 246.93 293.15 L 273.15 256.80 L 272.85 235.79 L 272.55 214.79 L 275.89 211.81 L 279.23 208.82 L 303.86 209.22 C 326.49 209.58 329.48 209.83 340.50 212.40 C 414.39 229.57 474.08 293.98 489.56 373.25 L 491.27 382.00 L 561.39 382.01 C 637.28 382.03 637.32 382.03 649.63 387.55 C 660.65 392.48 659.50 392.59 663.72 386.21 C 668.75 378.60 680.01 367.34 687.86 362.05 C 702.47 352.22 716.52 347.92 734.00 347.92 C 748.49 347.92 757.90 350.18 771.50 356.94 C 793.29 367.77 809.97 387.53 817.15 411.03 C 819.42 418.43 819.44 419.09 819.74 483.50 C 820.03 547.46 820.01 548.55 818.00 551.81 C 815.72 555.50 810.75 558.01 805.78 557.97 C 801.12 557.94 790.39 554.08 783.56 549.99 C 770.43 542.12 756.68 526.26 749.52 510.73 C 743.42 497.52 742.83 493.90 742.13 466.00 C 741.52 441.25 741.43 440.37 739.00 436.00 C 735.93 430.47 729.73 426.99 723.04 427.03 C 717.25 427.07 699.42 433.96 699.68 436.06 C 699.77 436.85 700.98 440.20 702.35 443.50 C 705.98 452.22 708.00 463.50 708.00 475.00 C 708.00 486.44 706.23 496.25 701.68 510.00 C 697.67 522.13 697.39 533.40 700.89 542.00 C 703.42 548.22 756.92 657.00 758.15 658.42 C 758.60 658.94 766.81 654.14 777.22 647.27 C 787.27 640.63 797.24 634.65 799.38 633.98 C 801.68 633.25 806.55 632.94 811.42 633.19 C 826.26 633.97 839.15 642.43 845.60 655.62 C 847.75 660.02 848.47 663.14 848.81 669.61 C 849.59 684.43 844.28 695.01 831.31 704.48 C 819.09 713.40 787.40 734.33 773.00 742.98 C 754.70 753.97 717.12 772.45 697.00 780.34 C 632.39 805.68 558.72 818.26 492.00 815.33 Z M 564.00 786.59 C 652.88 776.01 723.62 748.03 805.41 691.06 C 813.39 685.51 820.61 679.97 821.46 678.76 C 825.19 673.42 822.04 663.67 815.58 660.61 C 809.18 657.57 807.74 658.16 785.49 673.04 C 725.67 713.05 678.62 734.72 620.65 748.97 C 583.23 758.17 555.13 761.38 512.00 761.38 C 468.42 761.38 440.14 758.08 401.00 748.43 C 366.43 739.90 341.87 730.89 308.50 714.52 C 282.44 701.73 271.61 695.37 239.53 674.04 C 214.82 657.62 213.26 657.00 206.91 661.28 C 202.83 664.03 201.03 667.31 201.03 672.00 C 201.03 679.04 202.07 679.99 233.00 700.91 C 310.32 753.22 384.87 780.25 473.00 787.93 C 489.32 789.35 548.07 788.48 564.00 786.59 Z M 542.00 734.98 C 586.52 731.91 628.63 722.37 670.75 705.83 C 679.14 702.53 685.99 699.76 685.99 699.67 C 685.98 699.58 673.64 674.97 658.57 645.00 C 643.51 615.03 629.71 588.75 627.92 586.62 C 626.11 584.46 622.18 581.57 619.08 580.12 L 613.50 577.50 L 511.50 577.50 L 409.50 577.50 L 404.24 579.88 C 401.35 581.18 397.64 583.78 396.00 585.66 C 392.21 589.97 337.57 698.99 338.68 700.02 C 340.17 701.42 362.24 709.71 378.12 714.83 C 430.77 731.82 487.23 738.76 542.00 734.98 Z M 342.79 630.64 C 370.48 575.08 371.22 573.73 377.43 567.60 C 384.33 560.81 394.41 555.21 404.00 552.85 C 408.44 551.76 429.28 551.50 512.50 551.50 C 609.65 551.50 615.84 551.60 621.50 553.34 C 631.03 556.26 638.97 560.99 646.10 568.00 C 652.64 574.42 653.05 575.17 680.29 629.50 C 695.45 659.75 708.47 685.32 709.22 686.32 C 710.50 688.04 711.28 687.76 722.54 681.48 C 729.12 677.82 734.86 674.48 735.29 674.07 C 735.72 673.66 726.11 653.34 713.93 628.91 C 701.74 604.48 688.40 577.53 684.27 569.00 C 670.37 540.29 668.88 526.38 677.00 501.50 C 684.42 478.77 683.56 462.77 673.87 443.07 C 670.63 436.49 667.93 432.84 661.61 426.51 C 649.26 414.14 635.43 407.77 620.52 407.59 L 612.50 407.50 L 611.86 425.00 C 611.32 439.87 610.83 443.85 608.56 451.45 C 601.04 476.68 584.92 495.88 561.50 507.51 C 547.41 514.50 537.19 516.99 522.50 516.99 C 481.44 516.99 446.61 488.56 436.46 446.76 C 435.62 443.28 434.66 433.05 434.32 423.75 L 433.70 407.00 L 429.27 407.00 C 425.75 407.00 424.27 406.42 422.02 404.18 C 419.67 401.83 419.08 400.18 418.50 394.43 C 416.80 377.38 413.44 365.74 405.53 349.45 C 391.31 320.15 366.58 297.54 337.22 286.97 C 333.39 285.59 329.97 283.56 328.47 281.78 C 326.01 278.86 326.00 278.73 326.00 257.54 C 326.00 232.54 327.75 235.03 310.25 235.01 L 299.00 235.00 L 299.00 249.03 C 299.00 259.03 298.58 264.06 297.55 266.54 C 296.33 269.46 264.14 314.73 239.91 347.60 C 230.77 360.00 229.64 362.38 230.37 367.67 C 232.01 379.68 244.70 392.00 255.42 392.00 C 257.50 392.00 272.48 387.68 288.70 382.41 C 311.39 375.03 318.96 372.96 321.47 373.43 C 324.95 374.08 327.41 376.26 328.33 379.50 C 328.90 381.51 350.29 512.45 351.46 521.13 C 352.32 527.49 350.37 542.06 347.52 550.50 C 346.22 554.35 332.23 583.51 316.43 615.30 C 295.21 658.00 288.00 673.40 288.82 674.22 C 290.72 676.12 312.44 687.97 313.50 687.69 C 314.05 687.54 327.23 661.87 342.79 630.64 Z M 793.79 465.50 L 793.47 422.50 L 790.86 415.76 C 782.97 395.37 767.08 380.64 747.44 375.53 C 729.63 370.89 710.63 375.93 696.66 389.00 C 688.40 396.72 681.19 407.50 682.70 409.85 C 684.16 412.11 686.16 411.79 696.00 407.66 C 707.57 402.82 715.09 401.00 723.60 401.00 C 740.48 401.00 754.58 409.44 762.01 424.00 C 766.44 432.68 767.16 437.45 767.96 463.50 C 768.64 485.76 768.97 489.20 770.99 494.86 C 773.89 503.01 781.43 514.27 788.20 520.57 L 793.50 525.50 L 793.80 517.00 C 793.97 512.33 793.96 489.15 793.79 465.50 Z M 542.98 487.71 C 557.78 482.42 571.94 470.01 578.57 456.51 C 584.20 445.04 586.11 435.48 585.78 420.41 L 585.50 407.50 L 523.25 407.24 L 461.00 406.98 L 461.00 420.83 C 461.00 444.22 466.31 459.08 479.47 472.50 C 487.31 480.48 494.78 485.15 505.38 488.66 C 511.53 490.69 514.07 490.97 524.00 490.70 C 533.40 490.44 536.86 489.90 542.98 487.71 Z M 464.00 380.75 C 463.99 375.64 452.88 339.54 450.61 337.28 C 450.39 337.06 446.39 338.94 441.72 341.47 L 433.23 346.06 L 437.00 356.78 C 439.07 362.68 441.32 370.20 441.99 373.50 C 442.66 376.80 443.38 380.06 443.58 380.75 C 443.83 381.64 446.80 382.00 453.97 382.00 C 461.33 382.00 464.00 381.67 464.00 380.75 Z M 429.45 318.43 C 433.58 316.47 437.18 314.52 437.44 314.10 C 438.46 312.45 422.52 291.59 414.20 283.67 L 411.22 280.84 L 405.61 287.78 C 402.52 291.60 400.00 295.00 400.00 295.34 C 400.00 295.67 403.87 300.57 408.59 306.22 C 413.31 311.87 417.91 317.73 418.81 319.25 C 419.70 320.76 420.77 322.00 421.18 322.00 C 421.59 322.00 425.31 320.39 429.45 318.43 Z M 381.13 276.08 C 381.88 275.02 384.44 271.89 386.80 269.13 L 391.11 264.10 L 386.30 260.55 C 381.77 257.20 354.71 243.00 352.86 243.00 C 352.39 243.00 352.00 247.89 352.00 253.86 L 352.00 264.73 L 356.25 266.36 C 358.59 267.26 364.33 270.22 369.00 272.94 C 373.67 275.66 378.01 277.91 378.63 277.94 C 379.25 277.98 380.37 277.14 381.13 276.08 Z M 286.50 331.14 C 281.35 327.96 279.69 325.34 279.28 319.73 C 277.87 300.77 305.77 298.42 307.69 317.34 C 308.83 328.60 295.96 336.98 286.50 331.14 Z" stroke-linecap="round"/>
</g>
</g>
</g>

  </svg>