<svg xmlns="http://www.w3.org/2000/svg" xmlns:xlink="http://www.w3.org/1999/xlink" width="500px" height="491px" viewBox="0 0 499.9999999999998 490.5478780488377">
    <g id="03eb38af-dc6b-41f8-8f76-a537f6fdb779">
<g style="">
		<g id="03eb38af-dc6b-41f8-8f76-a537f6fdb779-child-0">
<path style="stroke: rgb(193,193,193); stroke-width: 0; stroke-dasharray: none; stroke-linecap: butt; stroke-dashoffset: 0; stroke-linejoin: miter; stroke-miterlimit: 4; fill: rgb(0,0,0); fill-rule: nonzero; opacity: 1;" transform="matrix(0.987268 0 0 0.987268 250.000121 245.274058) matrix(1 0 0 1 0 0)  translate(-512.166298, -511.446788)" d="M 491.00 758.96 C 429.15 756.03 369.22 741.19 307.50 713.53 C 285.06 703.48 271.72 696.40 267.51 692.32 C 256.17 681.30 256.07 661.30 267.31 649.75 C 273.59 643.30 279.89 640.65 289.00 640.62 C 296.12 640.59 297.41 640.98 314.50 648.19 C 338.43 658.30 365.39 668.02 366.37 666.91 C 368.31 664.72 383.92 631.47 383.14 631.21 C 379.80 630.10 369.74 622.50 365.20 617.66 C 357.55 609.51 354.83 602.70 347.97 574.50 C 344.62 560.75 335.80 524.97 328.37 495.00 C 284.16 316.70 286.84 328.04 286.88 319.50 C 286.96 303.78 292.10 291.87 303.97 279.90 C 309.30 274.53 313.43 271.39 318.09 269.18 C 330.24 263.41 333.72 263.03 374.59 263.01 C 408.26 263.00 412.39 263.18 419.39 264.97 C 437.17 269.52 452.15 281.38 459.86 297.03 C 466.68 310.86 466.96 313.52 466.98 364.03 L 467.00 408.57 L 473.58 430.03 C 477.19 441.84 483.89 463.42 488.46 478.00 C 493.03 492.58 498.91 511.59 501.53 520.25 L 506.29 536.00 L 538.42 536.00 C 572.59 536.00 572.95 536.05 576.67 540.95 C 580.04 545.40 578.53 552.86 573.45 556.86 L 570.65 559.06 L 513.08 558.78 C 456.23 558.50 455.42 558.47 449.57 556.26 C 440.37 552.79 433.24 548.13 425.47 540.50 C 408.90 524.24 397.85 500.59 387.15 458.50 C 378.66 425.08 378.73 425.79 378.08 366.48 L 377.50 313.45 L 374.23 306.80 C 370.11 298.44 362.15 290.90 354.76 288.36 C 338.12 282.62 320.54 289.98 312.78 305.92 C 307.77 316.23 307.10 312.70 336.45 430.52 C 351.11 489.36 366.04 549.62 369.62 564.44 C 373.20 579.26 376.75 592.86 377.51 594.67 C 379.81 600.19 387.48 607.49 394.27 610.62 L 400.50 613.50 L 514.50 613.50 C 624.23 613.50 628.69 613.43 633.44 611.59 C 639.36 609.31 646.36 603.11 649.31 597.54 C 650.95 594.45 651.46 591.73 651.46 586.00 C 651.47 577.38 649.66 572.72 644.15 567.22 C 637.96 561.03 633.35 559.65 616.85 559.04 C 600.89 558.45 599.60 557.99 596.33 551.68 C 593.85 546.88 596.53 539.45 601.56 537.15 C 605.35 535.43 630.29 535.66 637.31 537.49 C 660.53 543.54 676.71 566.03 674.64 589.40 C 674.29 593.30 673.73 597.74 673.39 599.25 L 672.77 602.00 L 679.94 602.00 C 689.73 602.00 695.12 600.45 700.08 596.20 C 715.73 582.80 706.92 560.82 683.92 555.89 C 681.01 555.27 677.52 553.65 675.84 552.15 C 669.69 546.65 671.78 536.67 679.77 533.32 C 690.62 528.76 714.35 540.89 723.89 555.87 C 740.06 581.25 727.41 614.32 698.00 623.56 C 693.80 624.88 688.12 625.35 674.00 625.57 L 655.50 625.85 L 648.78 629.67 C 645.08 631.78 642.05 633.84 642.03 634.26 C 642.01 634.68 645.46 642.21 649.69 651.01 C 655.03 662.11 657.88 667.00 659.03 667.00 C 661.53 667.00 691.56 656.09 708.50 649.03 C 731.88 639.28 734.62 638.81 746.11 642.56 C 756.71 646.03 765.32 658.43 765.39 670.33 C 765.43 678.14 762.91 685.58 758.45 690.79 C 754.64 695.24 741.69 702.28 718.50 712.51 C 665.12 736.04 618.35 749.60 568.50 755.99 C 555.23 757.70 515.70 760.25 509.00 759.84 C 507.62 759.76 499.52 759.36 491.00 758.96 Z M 533.50 735.97 C 597.16 732.47 650.42 718.29 722.00 685.78 C 730.53 681.91 738.47 677.86 739.67 676.78 C 744.26 672.60 743.08 666.12 737.32 663.93 C 735.14 663.10 731.67 664.19 715.12 670.88 C 688.67 681.57 673.08 687.12 654.54 692.44 C 625.99 700.64 594.98 706.95 565.50 710.57 C 547.64 712.76 497.44 713.61 477.21 712.06 C 417.58 707.50 360.18 693.10 303.03 668.39 C 296.18 665.43 289.82 663.00 288.92 663.00 C 288.01 663.00 286.08 663.93 284.63 665.07 C 281.48 667.55 281.06 672.68 283.75 675.82 C 285.85 678.26 314.30 691.72 336.50 700.76 C 382.85 719.64 430.95 731.44 476.00 734.97 C 502.37 737.03 511.38 737.19 533.50 735.97 Z M 565.48 687.54 C 573.17 686.62 579.60 685.73 579.77 685.56 C 579.94 685.39 576.16 674.40 571.36 661.13 L 562.64 637.00 L 513.82 636.83 C 486.97 636.74 464.28 636.63 463.40 636.58 C 462.27 636.52 460.69 639.43 458.00 646.50 C 455.90 652.00 451.71 662.91 448.68 670.74 C 445.65 678.58 443.47 685.17 443.84 685.40 C 444.38 685.73 458.96 687.36 479.50 689.38 C 490.37 690.45 552.24 689.13 565.48 687.54 Z M 428.54 658.75 L 436.80 637.00 L 421.65 637.03 L 406.50 637.05 L 398.31 653.94 C 393.81 663.23 389.99 671.64 389.81 672.63 C 389.55 674.15 391.47 674.91 402.50 677.65 C 409.65 679.42 416.57 680.79 417.89 680.68 C 420.04 680.52 421.08 678.37 428.54 658.75 Z M 619.86 677.90 C 627.36 676.20 633.87 674.46 634.33 674.02 C 634.79 673.59 631.06 665.08 626.03 655.12 L 616.90 637.00 L 603.95 636.83 C 596.83 636.74 590.21 636.63 589.25 636.58 C 588.29 636.54 587.59 636.95 587.71 637.50 C 587.82 638.05 591.42 648.06 595.71 659.74 C 600.62 673.14 604.00 680.98 604.86 680.99 C 605.61 681.00 612.36 679.61 619.86 677.90 Z M 481.00 535.02 C 481.00 534.48 472.59 506.92 462.31 473.77 L 443.62 413.50 L 443.47 366.50 C 443.39 340.65 442.97 317.92 442.54 316.00 C 441.21 310.08 436.39 301.70 431.84 297.40 C 425.66 291.57 421.11 289.13 413.32 287.48 C 406.62 286.06 389.00 285.42 389.00 286.60 C 389.00 286.93 390.57 289.74 392.49 292.85 C 394.41 295.96 396.99 301.20 398.22 304.50 C 400.41 310.36 400.48 311.77 401.07 363.50 C 401.75 422.79 401.47 420.01 409.96 453.50 C 421.92 500.69 437.24 526.84 457.14 534.00 C 462.97 536.10 481.00 536.87 481.00 535.02 Z M 533.03 515.41 C 522.80 512.64 515.46 506.60 510.20 496.61 C 507.79 492.05 507.50 490.43 507.50 481.50 C 507.50 471.98 507.67 471.19 510.97 465.10 C 515.04 457.59 521.34 452.17 529.75 448.94 L 535.50 446.73 L 622.50 446.61 L 709.50 446.50 L 715.25 448.82 C 722.76 451.86 731.19 459.60 734.43 466.45 C 743.07 484.71 734.12 505.94 714.18 514.49 C 709.63 516.44 707.12 516.51 624.00 516.70 C 551.12 516.87 537.69 516.68 533.03 515.41 Z M 705.06 493.00 C 707.01 492.46 709.90 490.67 711.47 489.03 C 713.77 486.63 714.33 485.14 714.33 481.46 C 714.33 477.64 713.80 476.34 711.15 473.69 L 707.96 470.50 L 625.62 470.00 C 580.33 469.73 541.60 469.77 539.56 470.11 C 528.42 471.92 526.74 487.18 537.12 492.29 C 540.19 493.80 547.95 493.96 621.00 493.97 C 671.01 493.98 702.85 493.61 705.06 493.00 Z" stroke-linecap="round"/>
</g>
</g>
</g>

  </svg>