<svg xmlns="http://www.w3.org/2000/svg" xmlns:xlink="http://www.w3.org/1999/xlink" width="318px" height="500px" viewBox="0 0 318.3116124567034 499.9999999999998">
    <g id="7b7df5b9-4861-493f-8f65-4de07380ac1f">
<g style="">
		<g id="7b7df5b9-4861-493f-8f65-4de07380ac1f-child-0">
<path style="stroke: rgb(193,193,193); stroke-width: 0; stroke-dasharray: none; stroke-linecap: butt; stroke-dashoffset: 0; stroke-linejoin: miter; stroke-miterlimit: 4; fill: rgb(0,0,0); fill-rule: nonzero; opacity: 1;" transform="matrix(0.691411 0 0 0.691411 159.155776 249.999952) matrix(1 0 0 1 0 0)  translate(-512.310177, -512.579367)" d="M 312.82 871.62 C 301.37 866.91 294.33 858.71 291.34 846.60 C 288.51 835.13 291.69 823.63 300.26 814.33 C 306.63 807.42 297.41 811.83 420.00 757.08 C 435.67 750.08 454.68 741.69 462.23 738.43 L 475.96 732.50 L 475.98 717.84 L 476.00 703.18 L 451.75 702.76 C 429.48 702.37 426.68 702.12 417.50 699.69 C 389.73 692.34 365.44 673.02 352.62 648.08 C 345.47 634.18 346.64 639.08 315.53 493.00 C 311.49 474.02 302.47 431.95 295.49 399.50 C 283.62 344.36 282.82 339.94 283.22 332.00 C 283.57 325.01 284.19 322.43 286.72 317.48 C 290.48 310.12 298.15 302.76 305.78 299.18 C 310.79 296.83 312.74 296.50 321.50 296.50 C 330.52 296.50 332.09 296.79 337.50 299.43 C 345.39 303.28 353.98 312.03 356.79 319.09 C 357.98 322.07 365.96 357.80 374.53 398.50 C 383.10 439.20 395.12 496.12 401.25 525.00 C 413.69 583.62 414.27 588.50 410.09 599.25 C 406.99 607.24 399.53 615.12 391.19 619.23 C 385.31 622.12 383.59 622.50 376.29 622.50 C 366.83 622.50 367.13 621.79 372.01 632.64 C 380.02 650.44 396.28 665.97 414.80 673.50 C 428.63 679.12 427.71 679.08 537.08 678.78 L 637.66 678.50 L 641.30 675.72 C 645.94 672.18 647.58 666.92 645.76 661.36 L 644.49 657.50 L 545.97 657.00 L 447.46 656.50 L 440.81 653.23 C 432.42 649.10 424.99 641.22 421.95 633.25 C 418.90 625.23 418.90 613.61 421.94 605.72 C 426.59 593.64 438.77 584.24 452.74 581.96 C 460.93 580.61 701.60 580.71 709.91 582.06 C 723.05 584.19 734.55 592.53 739.80 603.73 C 742.17 608.80 742.50 610.72 742.50 619.50 C 742.50 628.39 742.19 630.12 739.75 635.11 C 736.30 642.13 727.82 650.26 720.25 653.80 C 714.69 656.41 713.77 656.52 692.71 657.00 L 670.92 657.50 L 670.67 666.50 C 670.47 674.13 669.99 676.38 667.55 681.27 C 663.96 688.44 655.81 696.26 648.25 699.80 L 642.50 702.50 L 595.22 702.79 L 547.95 703.07 L 548.22 717.63 L 548.50 732.18 L 554.45 734.69 C 560.74 737.34 666.62 784.86 697.91 799.08 C 719.23 808.76 724.96 813.10 729.98 823.33 C 738.83 841.39 731.81 861.16 713.00 871.12 C 709.13 873.17 707.11 873.50 698.50 873.50 C 689.77 873.50 687.78 873.16 682.85 870.85 C 675.42 867.37 669.50 861.30 665.77 853.32 C 661.59 844.38 661.46 834.04 665.43 825.38 C 666.91 822.15 669.07 818.49 670.24 817.24 C 671.65 815.74 672.04 814.64 671.38 813.98 C 670.84 813.44 660.74 808.67 648.95 803.39 C 585.15 774.83 552.12 760.17 550.18 759.56 L 548.00 758.87 L 548.00 799.30 C 548.00 822.46 547.57 842.01 546.99 845.08 C 544.86 856.30 538.72 864.73 528.83 870.02 C 523.27 873.00 521.41 873.46 513.50 873.80 C 505.97 874.13 503.52 873.82 498.51 871.93 C 490.45 868.90 482.24 860.75 478.91 852.49 C 476.51 846.52 476.50 846.33 476.20 802.75 C 476.04 778.69 475.71 759.00 475.46 759.00 C 475.00 759.00 420.04 783.34 379.52 801.48 C 366.33 807.39 354.50 812.62 353.22 813.11 L 350.90 813.99 L 353.90 817.74 C 363.76 830.05 364.00 847.93 354.48 859.90 C 344.21 872.82 327.31 877.57 312.82 871.62 Z M 333.60 846.60 C 336.29 843.91 337.00 842.40 337.00 839.35 C 336.99 830.99 329.97 825.53 322.42 828.03 C 313.63 830.93 312.57 843.99 320.76 848.43 C 325.53 851.02 329.79 850.41 333.60 846.60 Z M 517.77 848.00 C 523.70 844.39 524.55 836.09 519.51 831.05 C 515.94 827.49 508.32 827.41 504.60 830.91 C 499.18 835.99 500.64 845.64 507.26 848.51 C 511.70 850.44 513.94 850.33 517.77 848.00 Z M 706.25 846.05 C 710.78 840.98 709.54 832.36 703.85 829.42 C 694.34 824.51 684.04 833.44 688.06 843.13 C 691.09 850.46 700.90 852.03 706.25 846.05 Z M 511.50 803.53 C 514.80 803.53 518.74 803.91 520.26 804.38 L 523.02 805.22 L 522.76 754.36 L 522.50 703.50 L 511.50 703.50 L 500.50 703.50 L 500.24 754.36 L 499.98 805.22 L 502.74 804.38 C 504.26 803.91 508.20 803.53 511.50 803.53 Z M 712.14 631.23 C 715.89 628.91 719.00 623.84 719.00 620.07 C 719.00 616.76 716.53 611.75 713.55 609.00 L 710.84 606.50 L 582.39 606.24 C 440.39 605.95 450.09 605.52 445.96 612.30 C 441.04 620.37 445.71 630.66 455.39 633.09 C 457.10 633.52 514.75 633.78 583.50 633.68 L 708.50 633.49 L 712.14 631.23 Z M 380.72 597.33 C 386.04 594.80 388.20 590.66 387.67 584.00 C 387.43 580.97 379.96 544.30 371.08 502.50 C 362.19 460.70 353.36 418.96 351.44 409.74 C 341.51 361.87 333.94 328.56 332.50 326.36 C 330.35 323.08 325.15 320.01 321.72 320.00 C 315.01 319.99 308.61 325.10 307.49 331.35 C 307.13 333.36 309.27 345.39 313.40 364.50 C 328.84 435.93 334.47 462.17 339.98 488.50 C 343.21 503.90 349.51 533.38 353.99 554.00 C 361.26 587.50 362.41 591.80 364.81 594.35 C 369.45 599.27 374.59 600.24 380.72 597.33 Z M 435.91 522.10 C 424.76 518.54 416.13 510.27 411.94 499.15 C 408.83 490.89 409.46 477.66 413.36 469.70 C 417.04 462.18 423.56 455.84 431.76 451.80 L 438.46 448.50 L 523.50 448.50 L 608.54 448.50 L 615.20 451.78 C 642.26 465.10 645.19 500.77 620.59 517.42 C 610.56 524.21 613.55 524.01 523.07 523.95 C 447.55 523.90 441.09 523.76 435.91 522.10 Z M 606.02 497.99 C 613.35 494.25 615.51 484.13 610.30 477.94 C 605.11 471.78 608.39 472.00 523.28 472.00 C 436.43 472.00 441.15 471.62 436.18 479.00 C 431.86 485.41 434.63 494.45 442.07 498.25 C 445.25 499.87 451.23 500.00 523.79 500.00 C 600.24 500.00 602.17 499.95 606.02 497.99 Z M 339.50 281.97 C 317.60 278.94 298.23 265.47 289.15 246.94 C 283.13 234.66 281.72 227.99 282.21 214.08 C 282.53 204.84 283.14 201.03 285.23 195.19 C 294.62 168.93 320.09 151.00 348.00 151.00 C 366.41 151.00 381.29 157.31 395.12 170.98 C 404.66 180.41 409.61 188.99 412.44 201.02 C 414.61 210.20 414.43 224.00 412.02 233.40 C 404.00 264.78 371.69 286.42 339.50 281.97 Z M 361.20 255.93 C 368.80 253.37 374.38 249.59 380.32 242.99 C 387.13 235.41 389.44 228.73 389.47 216.48 C 389.50 207.06 389.29 206.04 386.08 199.51 C 381.52 190.25 374.91 183.81 365.25 179.21 C 357.95 175.74 356.95 175.53 348.00 175.60 C 340.62 175.65 337.30 176.16 333.14 177.86 C 317.47 184.28 307.64 197.34 306.27 213.57 C 303.80 242.74 333.15 265.38 361.20 255.93 Z" stroke-linecap="round"/>
</g>
</g>
</g>

  </svg>