<svg xmlns="http://www.w3.org/2000/svg" xmlns:xlink="http://www.w3.org/1999/xlink" width="2988px" height="3467px" viewBox="0 0 2987.6799773923995 3466.666666666657">
    <g id="60968e13-83d9-4998-802c-df48aa0ef136">
<g style="">
		<g id="60968e13-83d9-4998-802c-df48aa0ef136-child-0">
<path style="stroke: rgb(193,193,193); stroke-width: 0; stroke-dasharray: none; stroke-linecap: butt; stroke-dashoffset: 0; stroke-linejoin: miter; stroke-miterlimit: 4; fill: rgb(0,0,0); fill-rule: nonzero; opacity: 1;" transform="matrix(5.039261 0 0 5.039261 1493.840106 1733.333469) matrix(1 0 0 1 0 0)  translate(-512.440312, -511.965805)" d="M 281.50 851.93 C 273.80 849.77 258.05 845.47 246.50 842.38 C 234.95 839.29 224.30 836.07 222.84 835.22 C 221.38 834.37 219.25 832.00 218.09 829.95 L 216.00 826.23 L 216.00 512.18 C 216.00 292.16 216.32 197.29 217.07 195.32 C 218.42 191.73 221.83 188.05 224.86 186.88 C 230.73 184.61 295.04 168.00 297.95 168.00 C 300.31 168.00 302.13 168.93 304.60 171.40 L 308.00 174.80 L 308.00 186.24 C 308.00 204.92 309.11 219.00 310.58 219.00 C 312.52 219.00 312.95 216.42 312.76 205.95 C 312.56 195.14 314.12 191.00 319.60 187.80 C 323.49 185.53 388.91 168.00 393.49 168.00 C 395.92 168.00 397.95 168.88 400.23 170.92 L 403.50 173.83 L 403.80 196.92 C 403.97 209.61 404.28 220.00 404.49 220.00 C 404.70 220.00 406.07 219.54 407.55 218.98 C 409.54 218.22 410.96 218.33 413.11 219.41 L 416.00 220.85 L 416.01 200.17 C 416.01 188.80 416.47 177.83 417.04 175.80 C 418.31 171.23 422.22 168.00 426.48 168.00 C 430.98 168.00 496.44 185.49 500.32 187.73 C 502.07 188.74 504.29 191.13 505.25 193.03 C 506.90 196.31 507.00 213.62 506.99 512.00 C 506.99 822.96 506.96 827.55 505.04 830.70 C 503.97 832.45 502.06 834.55 500.80 835.36 C 497.08 837.74 427.31 856.29 424.62 855.62 C 420.46 854.57 417.85 851.63 416.95 846.96 C 416.47 844.51 416.07 831.59 416.04 818.25 C 416.00 795.80 415.54 791.70 413.44 795.10 C 412.76 796.20 409.00 795.92 405.75 794.53 C 404.11 793.83 404.00 795.45 404.00 820.64 C 403.99 845.15 403.83 847.77 402.11 850.58 C 401.08 852.27 398.80 854.26 397.04 854.99 C 394.12 856.19 392.45 855.93 378.17 852.03 C 369.55 849.68 352.93 845.17 341.23 842.01 C 328.48 838.57 319.12 835.52 317.88 834.39 C 313.42 830.36 312.65 827.21 312.19 811.36 C 311.82 798.07 311.56 796.24 310.13 796.45 C 308.69 796.66 308.44 799.64 308.00 822.59 C 307.46 850.52 307.22 851.80 302.02 854.49 C 298.10 856.51 297.60 856.45 281.50 851.93 Z M 298.80 845.80 C 300.32 844.28 300.54 180.40 299.02 178.00 C 298.20 176.70 295.88 177.07 281.79 180.75 C 239.69 191.75 227.57 195.11 226.33 196.14 C 224.42 197.73 224.34 825.21 226.25 826.78 C 226.94 827.35 241.90 831.73 259.50 836.51 C 277.10 841.30 292.62 845.58 294.00 846.02 C 297.47 847.14 297.46 847.14 298.80 845.80 Z M 395.19 831.92 C 395.95 816.05 395.95 280.41 395.19 216.75 C 394.73 178.45 394.64 177.00 392.80 177.00 C 391.75 177.00 384.05 178.83 375.70 181.08 C 367.34 183.32 352.93 187.13 343.69 189.55 C 334.44 191.97 325.66 194.53 324.19 195.24 L 321.50 196.53 L 321.25 510.57 C 321.05 760.78 321.25 824.95 322.25 826.26 C 323.05 827.32 334.97 831.02 355.50 836.57 C 373.10 841.33 388.62 845.59 390.00 846.02 C 391.38 846.46 392.95 846.71 393.50 846.58 C 394.07 846.44 394.80 840.12 395.19 831.92 Z M 458.00 838.56 C 473.67 834.34 488.85 830.22 491.73 829.42 C 494.75 828.57 497.38 827.15 497.98 826.04 C 499.08 823.98 499.48 202.39 498.38 198.29 C 497.62 195.46 494.72 194.42 468.00 187.46 C 456.17 184.38 442.69 180.76 438.04 179.43 C 433.39 178.09 428.55 177.00 427.29 177.00 L 425.00 177.00 L 425.00 511.33 C 425.00 695.22 425.33 845.99 425.72 846.39 C 426.12 846.79 427.14 846.92 427.97 846.68 C 428.81 846.44 442.33 842.79 458.00 838.56 Z M 411.00 742.61 C 412.38 742.63 414.17 742.95 415.00 743.33 C 416.33 743.94 416.48 725.68 416.32 581.76 C 416.22 492.52 416.10 385.62 416.07 344.21 C 416.00 270.10 415.97 268.95 414.07 269.96 C 411.60 271.28 407.31 271.30 406.50 270.00 C 406.16 269.45 405.46 269.00 404.94 269.00 C 404.36 269.00 404.00 358.79 404.00 506.57 L 404.00 744.13 L 406.25 743.35 C 407.49 742.92 409.62 742.59 411.00 742.61 Z M 312.66 544.99 C 312.74 436.37 312.56 330.51 312.26 309.75 C 311.73 273.87 311.61 272.00 309.85 272.00 C 308.05 272.00 308.00 278.89 308.00 506.83 C 308.00 635.99 308.32 741.98 308.70 742.37 C 309.09 742.75 310.10 742.93 310.95 742.77 C 312.34 742.50 312.52 722.42 312.66 544.99 Z M 561.50 846.48 C 542.80 841.32 526.01 836.39 524.20 835.54 C 522.00 834.50 520.25 832.57 518.97 829.74 C 517.08 825.58 517.04 819.27 517.02 511.72 C 517.00 248.10 517.22 197.42 518.37 194.72 C 521.27 187.91 522.67 187.33 559.71 177.38 C 578.85 172.24 596.01 168.02 597.85 168.02 C 600.34 168.00 602.07 168.87 604.60 171.40 L 608.00 174.80 L 608.00 197.40 C 608.00 218.31 608.47 222.28 610.56 218.90 C 611.25 217.78 616.11 218.09 619.25 219.45 C 620.89 220.16 621.00 218.79 621.00 198.15 C 621.00 183.18 621.38 175.25 622.19 173.47 C 623.63 170.33 627.77 168.00 631.93 168.00 C 635.57 168.00 701.32 185.60 705.24 187.63 C 710.24 190.21 712.00 195.51 712.00 207.96 C 712.00 218.33 712.12 219.00 714.00 219.00 C 715.94 219.00 716.00 218.33 716.00 198.40 C 716.00 175.70 716.59 172.86 721.92 169.71 C 723.51 168.77 726.04 168.00 727.55 168.00 C 729.87 168.00 751.76 173.61 791.14 184.29 C 801.19 187.01 804.29 188.79 806.73 193.26 C 808.41 196.34 808.51 212.21 808.77 510.32 C 809.02 818.00 808.99 824.23 807.11 828.49 C 806.05 830.88 803.97 833.63 802.48 834.60 C 800.19 836.11 753.98 849.44 732.94 854.66 C 725.39 856.54 722.30 855.68 718.59 850.68 C 716.62 848.02 716.48 846.41 716.20 821.93 C 715.92 796.98 715.83 796.00 713.95 796.00 C 712.10 796.00 712.00 796.79 712.00 811.05 C 712.00 832.15 710.80 834.01 694.00 838.86 C 656.08 849.80 631.55 856.06 628.91 855.48 C 627.34 855.14 624.92 853.50 623.53 851.85 L 621.00 848.85 L 621.00 820.92 C 621.00 795.22 620.58 790.64 618.50 794.00 C 617.63 795.40 610.65 795.25 609.20 793.80 C 608.27 792.87 608.00 798.66 608.00 819.85 C 608.00 850.16 607.76 851.46 601.64 854.37 C 599.75 855.26 597.59 855.97 596.85 855.93 C 596.11 855.90 580.20 851.64 561.50 846.48 Z M 598.75 511.74 L 599.00 177.00 L 596.71 177.00 C 595.45 177.00 590.61 178.08 585.96 179.41 C 581.31 180.74 566.92 184.62 554.00 188.03 C 541.08 191.45 529.49 194.87 528.25 195.64 L 526.00 197.05 L 526.00 511.94 L 526.00 826.83 L 530.25 828.39 C 532.59 829.24 544.62 832.64 557.00 835.94 C 569.38 839.24 583.10 843.03 587.50 844.38 C 591.90 845.72 596.17 846.74 597.00 846.65 C 598.33 846.49 598.53 808.41 598.75 511.74 Z M 635.01 845.96 C 636.93 845.39 652.45 841.10 669.50 836.43 C 692.86 830.04 700.93 827.44 702.25 825.86 C 703.91 823.89 704.00 807.42 704.00 510.96 C 704.00 233.69 703.83 197.97 702.49 196.64 C 700.68 194.82 703.67 195.74 669.00 186.41 C 632.65 176.63 632.50 176.59 630.60 177.32 C 629.14 177.88 629.00 206.60 629.00 511.27 C 629.00 831.26 629.12 847.00 631.46 847.00 C 631.49 847.00 633.09 846.53 635.01 845.96 Z M 760.00 838.09 C 776.78 833.60 792.53 829.14 795.00 828.18 L 799.50 826.43 L 799.75 512.37 C 800.00 204.93 799.96 198.28 798.10 196.59 C 795.93 194.63 734.40 177.70 729.00 177.58 L 725.50 177.50 L 725.24 511.00 C 725.10 694.42 725.22 845.11 725.51 845.86 C 725.79 846.61 726.81 847.01 727.76 846.74 C 728.72 846.47 743.22 842.58 760.00 838.09 Z M 614.50 742.62 C 616.15 742.62 618.29 742.98 619.25 743.42 C 620.91 744.17 621.00 732.54 621.00 506.61 C 621.00 358.80 620.64 269.00 620.06 269.00 C 619.54 269.00 618.84 269.45 618.50 270.00 C 617.70 271.30 611.30 271.30 610.50 270.00 C 610.16 269.45 609.46 269.00 608.94 269.00 C 608.36 269.00 608.00 358.80 608.00 506.61 C 608.00 732.54 608.09 744.17 609.75 743.42 C 610.71 742.98 612.85 742.62 614.50 742.62 Z M 716.00 507.00 C 716.00 272.67 715.99 272.00 714.00 272.00 C 712.01 272.00 712.00 272.67 712.00 507.00 C 712.00 741.33 712.01 742.00 714.00 742.00 C 715.99 742.00 716.00 741.33 716.00 507.00 Z M 260.50 823.57 C 252.25 821.23 244.23 818.70 242.68 817.96 C 236.71 815.11 237.00 821.27 237.00 698.97 L 237.00 586.85 L 239.92 583.92 C 241.53 582.32 243.67 581.00 244.67 581.01 C 246.87 581.02 276.14 587.57 280.79 589.10 C 287.46 591.29 287.03 583.10 287.05 708.19 C 287.05 770.61 286.77 822.44 286.41 823.38 C 285.59 825.51 280.82 828.03 277.80 827.92 C 276.53 827.87 268.75 825.92 260.50 823.57 Z M 278.00 708.04 L 278.00 598.08 L 274.25 597.09 C 268.80 595.65 247.88 591.00 246.87 591.00 C 246.38 591.00 246.00 639.26 246.00 699.94 C 246.00 783.60 246.28 809.05 247.20 809.62 C 248.80 810.61 274.03 817.82 276.25 817.92 C 277.91 818.00 278.00 812.13 278.00 708.04 Z M 268.50 573.43 C 265.20 572.66 258.24 571.07 253.03 569.89 C 245.17 568.12 242.99 567.19 240.28 564.48 L 237.00 561.20 L 237.00 433.62 L 237.00 306.03 L 239.75 303.03 C 242.09 300.47 244.94 299.36 258.94 295.51 C 277.88 290.31 281.70 289.99 284.83 293.31 L 287.00 295.63 L 287.00 432.68 L 287.00 569.73 L 284.36 572.36 C 281.32 575.41 277.93 575.64 268.50 573.43 Z M 277.70 300.37 C 277.37 300.03 258.47 305.12 250.75 307.62 L 246.00 309.16 L 246.00 433.61 C 246.00 532.25 246.26 558.16 247.25 558.53 C 247.94 558.79 255.02 560.52 263.00 562.37 L 277.50 565.74 L 277.75 433.21 C 277.89 360.31 277.87 300.54 277.70 300.37 Z M 239.45 283.55 L 237.00 281.09 L 237.00 246.12 L 237.00 211.15 L 239.48 208.21 C 242.51 204.60 243.81 204.07 262.00 199.03 C 278.83 194.36 281.83 194.12 284.76 197.25 C 286.81 199.44 286.87 200.45 287.10 235.00 C 287.36 273.80 287.40 273.51 281.54 276.43 C 277.29 278.55 248.88 286.00 245.06 286.00 C 243.05 286.00 241.02 285.11 239.45 283.55 Z M 262.65 272.37 C 270.27 270.38 276.84 268.44 277.26 268.06 C 277.68 267.68 277.91 253.17 277.76 235.81 L 277.50 204.25 L 262.82 208.52 C 254.75 210.87 247.66 213.09 247.07 213.45 C 246.35 213.90 246.00 224.10 246.00 245.06 C 246.00 270.95 246.23 276.00 247.40 276.00 C 248.18 276.00 255.04 274.37 262.65 272.37 Z M 357.16 823.94 C 349.27 821.78 341.26 819.27 339.36 818.37 C 332.60 815.16 333.00 822.72 333.00 699.11 L 333.00 587.11 L 335.30 584.44 C 337.11 582.33 338.47 581.77 341.62 581.81 C 346.97 581.89 376.90 588.91 379.74 590.76 C 380.98 591.56 382.46 593.86 383.04 595.86 C 383.76 598.34 384.00 635.09 383.80 711.34 L 383.50 823.17 L 380.69 825.59 C 376.94 828.82 374.27 828.63 357.16 823.94 Z M 374.99 713.19 C 374.99 655.61 374.70 606.17 374.36 603.33 L 373.74 598.16 L 360.12 594.99 C 352.63 593.25 345.49 591.59 344.25 591.30 L 342.00 590.78 L 342.00 699.83 C 342.00 785.99 342.26 809.05 343.25 809.67 C 345.26 810.94 373.43 818.79 374.25 818.32 C 374.66 818.08 375.00 770.77 374.99 713.19 Z M 372.00 575.18 C 364.59 574.13 339.62 567.80 337.58 566.46 C 336.27 565.60 334.70 563.69 334.09 562.20 C 333.28 560.25 333.04 524.14 333.24 432.27 L 333.50 305.05 L 336.00 302.56 C 338.41 300.17 352.74 295.51 369.59 291.65 C 377.83 289.76 381.43 291.15 382.95 296.82 C 383.69 299.57 383.94 342.22 383.76 435.32 L 383.50 569.84 L 381.17 572.32 C 378.70 574.95 376.08 575.76 372.00 575.18 Z M 374.73 433.52 C 374.86 360.94 374.63 301.23 374.22 300.82 C 373.80 300.40 366.50 301.96 357.98 304.28 L 342.50 308.50 L 342.50 433.50 L 342.50 558.50 L 357.00 562.17 C 364.98 564.19 372.17 565.76 373.00 565.66 C 374.32 565.49 374.53 549.95 374.73 433.52 Z M 335.64 283.36 L 333.00 280.73 L 333.00 246.27 C 333.00 215.58 333.19 211.49 334.71 208.92 C 336.86 205.28 339.72 203.96 354.00 200.02 C 360.33 198.27 366.80 196.43 368.40 195.92 C 373.57 194.28 378.47 194.80 380.75 197.25 C 382.80 199.44 382.86 200.49 383.11 235.00 C 383.38 273.82 383.43 273.48 377.54 276.44 C 373.85 278.28 344.13 286.00 340.71 286.00 C 339.37 286.00 337.09 284.81 335.64 283.36 Z M 358.33 272.33 C 366.13 270.32 372.93 268.29 373.46 267.83 C 374.25 267.13 374.41 205.08 373.63 204.30 C 373.18 203.85 344.44 212.33 343.25 213.26 C 341.58 214.57 341.42 276.00 343.08 276.00 C 343.68 276.00 350.54 274.35 358.33 272.33 Z M 439.45 825.55 L 437.00 823.09 L 437.00 710.00 C 437.00 587.29 436.75 592.80 442.40 590.23 C 443.80 589.59 452.59 587.22 461.93 584.96 C 477.04 581.30 479.22 581.00 481.68 582.18 C 483.20 582.90 485.01 584.62 485.71 586.00 C 486.70 587.97 486.97 612.00 486.99 699.35 C 487.00 821.92 487.36 815.19 480.67 818.34 C 475.78 820.65 448.74 828.00 445.12 828.00 C 443.04 828.00 441.04 827.13 439.45 825.55 Z M 460.00 814.99 C 466.33 813.27 472.96 811.41 474.75 810.85 L 478.00 809.84 L 478.00 700.42 C 478.00 613.51 477.74 591.02 476.75 591.08 C 476.06 591.13 468.98 592.81 461.00 594.83 L 446.50 598.50 L 446.25 708.72 C 446.04 796.74 446.24 818.86 447.25 818.53 C 447.94 818.31 453.67 816.71 460.00 814.99 Z M 442.36 575.01 C 441.18 574.53 439.49 573.11 438.61 571.85 C 437.15 569.77 437.00 556.80 437.00 433.00 C 437.00 309.41 437.15 296.23 438.60 294.16 C 441.69 289.76 443.80 289.76 461.61 294.21 C 478.57 298.44 483.51 300.66 485.72 305.03 C 486.70 306.97 486.97 334.78 486.99 433.80 C 487.00 569.58 487.20 564.22 482.13 566.93 C 480.28 567.92 447.10 576.06 445.40 575.94 C 444.90 575.90 443.54 575.48 442.36 575.01 Z M 460.69 563.00 C 467.73 561.35 474.51 559.56 475.75 559.02 L 478.00 558.04 L 478.00 433.56 C 478.00 316.01 477.90 309.02 476.25 308.16 C 475.29 307.66 468.88 305.82 462.00 304.07 C 455.12 302.31 448.71 300.65 447.75 300.37 C 446.09 299.89 446.00 306.67 446.00 432.93 C 446.00 514.94 446.36 566.00 446.94 566.00 C 447.45 566.00 453.64 564.65 460.69 563.00 Z M 460.44 281.37 C 444.56 277.48 442.18 276.63 439.75 273.97 L 437.00 270.97 L 437.00 235.16 L 437.00 199.35 L 439.25 197.32 C 440.49 196.21 442.27 195.03 443.22 194.69 C 444.16 194.36 452.90 196.29 462.64 198.98 C 477.63 203.13 480.81 204.35 483.42 206.96 L 486.50 210.04 L 486.79 244.64 C 487.10 282.54 487.08 282.73 481.25 284.76 C 478.94 285.57 474.86 284.90 460.44 281.37 Z M 478.00 245.12 C 478.00 221.63 477.70 214.00 476.75 213.23 C 476.06 212.67 469.65 210.57 462.50 208.55 C 455.35 206.53 448.71 204.65 447.75 204.37 C 446.11 203.90 446.00 205.86 446.00 235.91 L 446.00 267.96 L 448.75 268.65 C 450.26 269.03 456.90 270.80 463.50 272.60 C 470.10 274.39 476.06 275.89 476.75 275.93 C 477.72 275.98 478.00 269.20 478.00 245.12 Z M 559.02 823.50 C 545.08 819.59 543.21 818.81 540.27 815.60 L 537.00 812.03 L 537.00 699.47 L 537.00 586.91 L 539.45 584.45 C 541.14 582.77 543.02 582.00 545.47 582.00 C 549.44 582.00 579.35 588.58 582.13 590.07 C 587.25 592.81 587.00 586.66 587.00 709.27 L 587.00 823.09 L 584.55 825.55 C 581.13 828.96 577.47 828.67 559.02 823.50 Z M 577.25 598.86 C 576.67 598.27 548.12 591.00 546.40 591.00 C 546.18 591.00 546.00 639.99 546.00 699.88 C 546.00 785.77 546.26 808.97 547.25 809.76 C 547.94 810.32 555.03 812.56 563.00 814.74 L 577.50 818.71 L 577.75 709.16 C 577.89 648.91 577.67 599.27 577.25 598.86 Z M 560.84 572.01 C 551.68 569.90 543.24 567.67 542.10 567.05 C 536.77 564.20 537.00 570.31 537.00 433.50 C 537.00 295.39 536.68 302.85 542.67 300.08 C 545.31 298.87 569.57 292.06 576.68 290.55 C 580.25 289.79 585.36 291.89 586.38 294.54 C 587.54 297.58 587.09 568.96 585.92 571.15 C 585.06 572.75 579.07 576.27 577.78 575.93 C 577.63 575.88 570.00 574.12 560.84 572.01 Z M 578.00 433.00 C 578.00 359.85 577.79 300.00 577.53 300.00 C 576.61 300.00 550.87 307.10 548.45 308.02 L 546.00 308.95 L 546.00 433.42 C 546.00 531.91 546.26 558.04 547.25 558.66 C 548.48 559.42 574.30 565.78 576.75 565.93 C 577.74 565.98 578.00 538.77 578.00 433.00 Z M 541.78 284.44 C 540.28 283.63 538.59 282.10 538.03 281.05 C 537.38 279.85 537.00 266.42 537.00 245.05 L 537.00 210.97 L 540.25 207.50 C 543.12 204.44 545.31 203.53 559.00 199.64 C 567.53 197.22 575.74 194.95 577.26 194.60 C 580.40 193.87 585.42 196.04 586.38 198.54 C 586.72 199.44 587.00 216.09 587.00 235.57 L 587.00 270.97 L 584.25 273.95 C 581.84 276.56 579.26 277.49 563.44 281.46 C 553.51 283.96 545.19 285.98 544.94 285.96 C 544.70 285.94 543.27 285.25 541.78 284.44 Z M 558.92 272.93 C 565.29 271.24 572.19 269.42 574.25 268.89 L 578.00 267.92 L 578.00 235.89 C 578.00 205.86 577.89 203.90 576.25 204.38 C 575.29 204.67 568.65 206.55 561.50 208.57 C 554.35 210.59 547.94 212.69 547.25 213.24 C 546.30 214.01 546.00 221.62 546.00 245.12 C 546.00 262.11 546.30 276.00 546.67 276.00 C 547.03 276.00 552.55 274.62 558.92 272.93 Z M 643.92 825.08 L 641.00 822.15 L 641.00 709.53 C 641.00 587.96 640.78 592.93 646.16 590.28 C 649.16 588.80 649.61 588.68 667.78 584.58 C 685.21 580.65 687.76 580.86 690.42 586.47 C 691.83 589.44 692.00 601.56 692.00 699.43 C 692.00 818.50 692.22 813.85 686.53 817.57 C 683.39 819.63 653.83 828.00 649.72 828.00 C 647.88 828.00 645.80 826.95 643.92 825.08 Z M 667.52 814.10 C 675.00 811.96 681.31 810.02 681.53 809.80 C 682.01 809.33 682.29 591.95 681.81 591.48 C 681.41 591.08 652.14 597.80 650.89 598.57 C 650.38 598.88 650.00 646.01 650.00 708.56 C 650.00 816.47 650.03 818.00 651.95 818.00 C 653.03 818.00 660.03 816.25 667.52 814.10 Z M 647.39 575.04 C 646.23 574.56 644.31 572.94 643.14 571.45 L 641.00 568.73 L 641.01 433.12 C 641.03 325.80 641.29 296.98 642.29 295.00 C 645.04 289.58 647.15 289.54 666.67 294.52 C 676.48 297.03 685.62 299.89 687.00 300.88 C 688.38 301.88 690.04 304.22 690.69 306.09 C 692.47 311.16 692.49 558.46 690.72 561.97 C 688.47 566.41 683.78 568.50 668.40 571.88 C 648.84 576.19 649.81 576.05 647.39 575.04 Z M 668.25 561.99 C 676.11 560.18 682.02 558.33 682.04 557.66 C 682.52 545.29 681.75 309.36 681.23 308.87 C 680.83 308.49 674.42 306.54 667.00 304.53 C 659.58 302.52 652.71 300.65 651.75 300.37 C 650.09 299.89 650.00 306.64 650.00 432.27 C 650.00 505.09 650.30 564.97 650.68 565.34 C 651.05 565.72 652.06 565.83 652.93 565.59 C 653.79 565.35 660.69 563.73 668.25 561.99 Z M 665.73 282.02 C 647.38 277.31 645.22 276.42 642.89 272.58 C 641.15 269.73 641.01 267.01 641.00 235.82 C 641.00 216.29 641.41 201.05 641.98 199.56 C 642.51 198.15 644.43 196.30 646.23 195.45 C 649.36 193.98 650.25 194.13 667.33 198.87 C 677.13 201.60 686.08 204.65 687.21 205.66 C 691.70 209.66 692.00 212.12 692.00 245.50 C 692.00 279.04 691.57 282.56 687.15 284.92 C 684.19 286.50 682.02 286.21 665.73 282.02 Z M 682.22 245.25 C 682.46 228.34 682.32 214.10 681.90 213.62 C 681.23 212.84 652.72 204.05 650.75 204.01 C 650.34 204.01 650.00 218.39 650.00 235.97 L 650.00 267.94 L 655.25 269.41 C 671.61 273.99 678.68 275.83 680.13 275.91 C 681.60 275.99 681.81 272.91 682.22 245.25 Z M 739.92 825.08 L 737.00 822.15 L 737.00 709.53 C 737.00 588.12 736.80 592.78 742.02 589.99 C 744.65 588.58 774.25 581.97 778.67 581.80 C 781.20 581.71 782.85 582.39 784.81 584.36 L 787.50 587.05 L 787.50 700.00 L 787.50 812.96 L 784.50 815.95 C 782.01 818.42 778.67 819.71 765.00 823.46 C 755.92 825.95 747.23 827.99 745.67 827.99 C 743.87 828.00 741.78 826.94 739.92 825.08 Z M 763.31 814.10 C 770.91 811.96 777.43 809.90 777.81 809.52 C 778.61 808.72 778.77 591.98 777.98 591.48 C 777.34 591.09 748.35 597.67 746.96 598.52 C 746.35 598.90 746.00 639.41 746.00 708.56 C 746.00 812.12 746.09 818.00 747.75 817.99 C 748.71 817.99 755.72 816.23 763.31 814.10 Z M 739.68 572.03 L 736.98 568.82 L 737.24 432.02 C 737.49 299.08 737.55 295.15 739.40 293.10 C 742.22 290.00 747.26 290.40 764.48 295.12 C 782.44 300.04 784.24 300.89 786.38 305.38 C 787.88 308.55 788.00 319.66 787.76 435.51 L 787.50 562.16 L 784.35 564.97 C 781.88 567.18 778.35 568.47 767.85 570.99 C 760.51 572.76 751.77 574.44 748.44 574.72 C 742.58 575.23 742.29 575.14 739.68 572.03 Z M 764.00 561.91 C 771.42 560.16 777.86 558.23 778.30 557.62 C 779.43 556.05 778.55 310.13 777.41 309.07 C 776.91 308.60 770.42 306.57 763.00 304.55 C 755.58 302.53 748.71 300.65 747.75 300.37 C 746.09 299.89 746.00 306.64 746.00 432.27 C 746.00 505.09 746.30 564.97 746.68 565.34 C 747.05 565.72 748.06 565.81 748.93 565.55 C 749.79 565.29 756.58 563.65 764.00 561.91 Z M 760.00 281.63 C 751.47 279.31 743.49 276.85 742.26 276.17 C 737.23 273.40 737.00 271.63 737.00 235.50 C 737.00 195.95 737.21 194.99 745.83 195.00 C 749.71 195.01 779.67 203.55 782.64 205.50 C 787.82 208.89 788.10 211.21 787.79 247.65 L 787.50 281.18 L 784.69 283.59 C 780.91 286.84 778.35 286.64 760.00 281.63 Z M 778.22 251.50 C 778.34 238.02 778.45 223.97 778.47 220.26 L 778.50 213.53 L 764.50 209.32 C 756.80 207.00 749.49 205.08 748.25 205.05 L 746.00 205.00 L 746.00 236.47 L 746.00 267.94 L 751.25 269.42 C 767.31 273.94 774.69 275.86 776.25 275.93 C 777.87 275.99 778.02 274.11 778.22 251.50 Z" stroke-linecap="round"/>
</g>
</g>
</g>

  </svg>