<svg xmlns="http://www.w3.org/2000/svg" xmlns:xlink="http://www.w3.org/1999/xlink" width="500px" height="271px" viewBox="0 0 500 270.62962120548355">
    <g id="623675b7-3ba6-4639-84cb-6222d4a95e4e">
<g style="">
		<g id="623675b7-3ba6-4639-84cb-6222d4a95e4e-child-0">
<path style="stroke: rgb(193,193,193); stroke-width: 0; stroke-dasharray: none; stroke-linecap: butt; stroke-dashoffset: 0; stroke-linejoin: miter; stroke-miterlimit: 4; fill: rgb(0,0,0); fill-rule: nonzero; opacity: 1;" transform="matrix(0.674904 0 0 0.674904 250.000167 135.314901) matrix(1 0 0 1 0 0)  translate(-511.923301, -512.504965)" d="M 150.30 711.04 C 147.04 709.05 144.00 704.43 144.00 701.45 C 144.00 698.30 147.29 692.90 150.09 691.46 C 151.94 690.50 155.98 690.00 161.95 690.00 L 171.00 690.00 L 171.00 682.50 L 171.00 675.00 L 159.52 675.00 C 148.24 675.00 147.97 674.95 144.77 672.08 L 141.50 669.17 L 141.50 645.00 L 141.50 620.84 L 144.77 617.92 L 148.03 615.00 L 332.77 614.96 L 517.50 614.93 L 514.87 612.71 C 513.43 611.50 509.38 607.98 505.87 604.90 L 499.50 599.31 L 449.32 604.37 C 402.93 609.05 398.59 609.34 391.83 608.18 C 378.32 605.86 366.55 598.65 359.24 588.23 C 352.64 578.80 353.59 581.90 334.80 508.50 C 327.12 478.54 326.61 475.86 326.67 466.50 C 326.82 445.28 336.31 429.98 354.76 421.22 C 367.32 415.25 372.72 415.43 422.50 423.48 L 463.50 430.11 L 483.77 428.56 C 505.44 426.89 509.13 427.17 517.52 431.12 C 526.10 435.15 534.93 446.71 535.01 454.00 C 535.02 455.38 535.37 457.03 535.78 457.68 C 536.19 458.32 552.95 466.13 573.01 475.02 C 593.08 483.92 638.30 504.04 673.50 519.74 C 708.70 535.44 742.90 550.64 749.50 553.52 C 756.10 556.40 770.72 562.93 782.00 568.03 C 793.28 573.14 812.85 581.89 825.50 587.49 C 875.66 609.69 878.93 611.25 880.51 613.66 C 882.38 616.51 882.52 619.23 882.23 647.33 L 882.00 669.15 L 879.08 672.08 C 876.21 674.94 875.93 675.00 865.58 675.00 L 855.00 675.00 L 855.00 682.50 L 855.00 690.00 L 863.75 690.00 C 870.73 690.01 873.16 690.41 875.77 692.00 C 883.21 696.54 882.57 707.60 874.64 711.37 C 871.72 712.75 867.11 713.00 844.07 713.00 C 814.96 713.00 811.91 712.56 808.63 707.88 C 807.73 706.59 807.00 703.61 807.00 701.18 C 807.00 697.53 807.57 696.23 810.40 693.40 C 813.77 690.03 813.88 690.00 822.90 690.00 L 832.00 690.00 L 832.00 683.00 L 832.00 676.01 L 514.25 675.75 C 339.49 675.61 195.94 675.66 195.25 675.86 C 194.41 676.10 194.00 678.45 194.00 683.11 L 194.00 690.00 L 202.05 690.00 C 211.76 690.00 215.53 691.62 217.66 696.73 C 220.37 703.21 217.57 709.33 210.68 711.93 C 208.94 712.59 197.52 713.00 180.68 713.00 C 155.49 712.99 153.27 712.85 150.30 711.04 Z M 549.00 645.64 L 541.50 638.30 L 525.50 637.65 C 516.70 637.30 431.76 637.01 336.75 637.00 L 164.00 637.00 L 164.00 645.00 L 164.00 653.00 L 360.25 652.98 L 556.50 652.97 L 549.00 645.64 Z M 860.00 645.66 L 860.00 638.32 L 840.34 637.66 C 829.53 637.30 781.21 637.00 732.98 637.00 L 645.28 637.00 L 636.89 644.95 L 628.50 652.91 L 744.25 652.95 L 860.00 653.00 L 860.00 645.66 Z M 600.51 644.13 C 602.71 643.13 611.60 635.91 620.26 628.09 C 633.99 615.68 635.87 613.62 634.98 611.96 C 631.89 606.19 623.69 606.77 607.64 613.89 C 599.42 617.54 595.04 618.98 593.39 618.56 C 592.07 618.23 578.29 606.11 562.75 591.63 C 524.29 555.77 523.67 555.25 517.07 553.33 C 511.94 551.84 510.31 551.84 496.01 553.37 C 487.48 554.28 463.51 556.84 442.74 559.05 C 406.39 562.93 404.84 563.02 401.39 561.38 C 399.32 560.40 397.22 558.39 396.40 556.59 C 394.34 552.09 375.75 477.04 375.82 473.50 C 375.89 469.85 380.85 465.00 384.49 465.00 C 385.85 465.00 403.48 467.71 423.67 471.02 L 460.39 477.03 L 464.50 473.00 C 470.25 467.35 473.33 466.70 485.46 468.55 C 502.86 471.21 504.78 471.33 508.01 469.99 C 511.57 468.52 514.00 464.46 514.00 459.97 C 514.00 456.10 509.76 451.57 504.92 450.28 C 501.83 449.45 478.61 450.80 467.95 452.42 C 465.81 452.75 447.55 450.18 422.10 445.98 C 398.83 442.14 377.26 439.00 374.15 439.01 C 362.67 439.03 352.77 446.63 349.62 457.85 C 348.73 461.03 348.00 464.79 348.00 466.21 C 348.00 469.28 371.42 562.77 373.62 568.44 C 375.76 574.00 380.48 579.62 385.34 582.41 C 394.18 587.49 395.19 587.48 453.61 581.51 C 497.76 577.00 507.61 576.26 509.53 577.27 C 511.68 578.40 535.83 600.79 566.80 630.34 C 573.62 636.86 581.07 643.04 583.35 644.07 C 588.60 646.45 595.35 646.48 600.51 644.13 Z M 827.86 613.48 C 824.92 611.89 794.32 598.09 732.00 570.26 C 709.17 560.07 681.50 547.70 670.50 542.77 C 626.76 523.18 545.06 487.20 534.82 483.01 L 529.14 480.69 L 524.06 485.25 C 515.64 492.83 508.29 494.22 488.65 491.97 L 479.79 490.95 L 475.95 494.42 C 469.02 500.69 467.77 500.71 432.93 495.24 C 414.66 492.37 402.13 490.81 402.37 491.44 C 402.60 492.02 405.41 502.96 408.62 515.75 L 414.46 539.00 L 417.98 538.99 C 419.92 538.99 437.92 537.19 458.00 534.99 C 506.33 529.71 512.88 529.32 520.72 531.34 C 534.96 535.01 538.35 537.54 575.43 572.25 L 598.37 593.72 L 604.43 590.89 C 613.65 586.60 622.44 584.66 629.40 585.38 C 644.29 586.94 656.31 597.67 657.78 610.71 L 658.26 615.00 L 744.38 614.96 C 819.80 614.92 830.17 614.74 827.86 613.48 Z M 362.95 411.97 C 346.50 409.45 332.92 399.73 325.62 385.27 C 315.34 364.87 319.35 341.25 335.70 325.97 C 346.10 316.23 356.66 311.99 370.43 312.01 C 385.08 312.03 397.22 317.13 407.66 327.63 C 422.97 343.04 426.20 364.83 416.12 384.76 C 406.41 403.94 384.32 415.25 362.95 411.97 Z M 381.11 388.38 C 391.33 385.17 399.18 374.29 399.24 363.28 C 399.30 350.61 394.56 342.62 383.68 337.06 C 378.11 334.22 375.87 333.63 370.72 333.65 C 349.40 333.73 335.77 355.79 345.35 374.70 C 349.34 382.57 356.80 388.27 365.33 389.95 C 370.10 390.89 374.53 390.46 381.11 388.38 Z" stroke-linecap="round"/>
</g>
</g>
</g>

  </svg>