<svg xmlns="http://www.w3.org/2000/svg" xmlns:xlink="http://www.w3.org/1999/xlink" width="492px" height="500px" viewBox="0 0 492.0368587115097 500">
    <g id="a8dcbfa6-0324-4eef-aa4f-c775fc8ffe8f">
<g style="">
		<g id="a8dcbfa6-0324-4eef-aa4f-c775fc8ffe8f-child-0">
<path style="stroke: rgb(193,193,193); stroke-width: 0; stroke-dasharray: none; stroke-linecap: butt; stroke-dashoffset: 0; stroke-linejoin: miter; stroke-miterlimit: 4; fill: rgb(0,0,0); fill-rule: nonzero; opacity: 1;" transform="matrix(0.781298 0 0 0.781298 246.018366 249.999936) matrix(1 0 0 1 0 0)  translate(-512.25209, -511.980257)" d="M 242.26 830.97 C 241.02 830.48 239.11 828.59 238.01 826.78 C 236.19 823.80 236.01 821.74 236.00 804.25 L 236.00 785.00 L 220.75 785.00 C 207.48 784.99 205.09 784.74 202.35 783.07 C 198.02 780.43 196.40 775.38 198.37 770.65 C 200.79 764.87 203.74 764.00 220.95 764.00 L 236.00 764.00 L 236.00 752.50 L 236.00 741.00 L 220.13 741.00 C 205.74 741.00 204.03 740.81 201.71 738.98 C 197.78 735.90 196.49 730.88 198.51 726.62 C 201.18 720.99 204.61 720.00 221.40 720.00 L 236.00 720.00 L 236.00 708.50 L 236.00 697.00 L 220.75 697.00 C 207.48 696.99 205.09 696.74 202.35 695.07 C 198.02 692.43 196.40 687.38 198.37 682.65 C 200.79 676.87 203.74 676.00 220.95 676.00 L 236.00 676.00 L 236.00 664.43 L 236.00 652.87 L 225.61 653.56 C 211.50 654.51 204.66 653.56 200.83 650.14 C 196.01 645.83 196.76 637.63 202.31 633.96 C 203.93 632.89 208.63 632.42 220.25 632.17 L 236.00 631.82 L 236.00 621.00 L 236.00 610.18 L 220.02 609.84 L 204.03 609.50 L 200.79 606.25 C 194.49 599.95 197.44 591.13 206.59 588.91 C 208.77 588.39 216.14 588.25 223.25 588.61 L 236.00 589.26 L 236.00 577.63 L 236.00 566.00 L 220.95 566.00 C 203.86 566.00 200.78 565.11 198.43 559.50 C 196.55 554.99 197.58 550.53 201.21 547.48 C 204.07 545.07 204.58 545.00 220.08 545.00 L 236.00 545.00 L 236.00 533.57 L 236.00 522.13 L 219.41 521.82 L 202.82 521.50 L 200.41 518.69 C 197.01 514.74 197.06 508.21 200.51 504.76 C 203.80 501.48 206.60 501.00 222.62 501.00 L 236.00 501.00 L 236.00 489.50 L 236.00 478.00 L 220.02 478.00 L 204.03 478.00 L 200.79 475.10 C 198.13 472.73 197.55 471.47 197.55 468.10 C 197.55 464.80 198.18 463.35 200.79 460.75 L 204.03 457.50 L 220.02 457.16 L 236.00 456.82 L 236.00 445.91 L 236.00 435.00 L 221.47 435.00 C 204.23 435.00 200.74 434.00 198.41 428.43 C 196.43 423.71 197.35 419.72 201.15 416.53 C 204.09 414.06 204.51 414.00 220.08 414.00 L 236.00 414.00 L 236.00 402.50 L 236.00 391.00 L 220.75 390.99 C 203.50 390.97 201.43 390.38 198.67 384.75 C 197.12 381.57 197.02 380.47 198.02 377.43 C 200.14 371.01 203.22 370.01 220.75 370.00 L 236.00 370.00 L 236.00 358.50 L 236.00 347.00 L 220.08 347.00 C 204.58 347.00 204.07 346.93 201.21 344.52 C 197.53 341.43 196.50 336.87 198.50 332.63 C 201.14 327.08 202.94 326.54 220.25 326.17 L 236.00 325.82 L 236.00 314.91 L 236.00 304.00 L 221.40 304.00 C 202.89 304.00 200.26 302.97 197.60 294.69 C 196.80 292.20 199.31 286.60 202.12 284.63 C 204.03 283.29 207.25 283.00 220.22 283.00 L 236.00 283.00 L 236.00 271.50 L 236.00 260.00 L 219.92 260.00 L 203.85 260.00 L 200.92 257.08 C 198.58 254.73 198.00 253.28 198.00 249.76 C 198.00 246.17 198.56 244.84 201.06 242.44 L 204.13 239.50 L 220.06 239.18 L 236.00 238.86 L 236.00 220.33 C 236.00 205.25 236.30 201.16 237.63 198.36 C 239.34 194.76 243.41 192.00 247.00 192.00 C 249.90 192.00 254.58 194.56 255.61 196.71 C 256.08 197.70 256.70 205.93 256.98 215.00 L 257.50 231.50 L 512.25 231.75 L 767.00 232.00 L 767.00 216.97 C 767.00 200.74 767.91 196.58 772.12 193.63 C 776.71 190.41 784.52 192.45 786.81 197.47 C 787.60 199.22 788.00 206.59 788.00 219.55 L 788.00 239.00 L 804.10 239.00 L 820.20 239.00 L 823.60 242.40 C 827.23 246.03 827.96 249.79 825.91 254.29 C 823.68 259.19 820.51 260.00 803.60 260.00 L 788.00 260.00 L 788.00 271.50 L 788.00 283.00 L 804.58 283.00 L 821.15 283.00 L 824.08 285.92 C 828.15 290.00 828.16 295.67 824.08 300.23 L 821.17 303.50 L 804.58 303.82 L 788.00 304.13 L 788.00 315.00 L 788.00 325.87 L 804.44 326.18 L 820.87 326.50 L 823.94 329.44 C 829.07 334.36 827.76 342.59 821.32 345.88 C 819.98 346.56 813.06 347.00 803.57 347.00 L 788.00 347.00 L 788.00 358.43 L 788.00 369.87 L 804.58 370.18 L 821.17 370.50 L 824.08 373.77 C 828.25 378.44 828.09 383.11 823.60 387.60 L 820.20 391.00 L 804.10 391.00 L 788.00 391.00 L 788.00 402.50 L 788.00 414.00 L 804.58 414.00 L 821.15 414.00 L 824.08 416.92 C 828.15 421.00 828.16 426.67 824.08 431.23 L 821.17 434.50 L 804.58 434.82 L 788.00 435.13 L 788.00 446.00 L 788.00 456.87 L 804.58 457.18 L 821.17 457.50 L 824.08 460.77 C 827.18 464.23 827.96 469.33 825.97 473.06 C 823.77 477.16 819.98 478.00 803.55 478.00 L 788.00 478.00 L 788.00 489.50 L 788.00 501.00 L 803.05 501.00 C 814.45 501.00 818.80 501.36 820.99 502.49 C 827.90 506.07 829.05 513.15 823.60 518.60 L 820.20 522.00 L 804.10 522.00 L 788.00 522.00 L 788.00 533.50 L 788.00 545.00 L 804.58 545.00 L 821.15 545.00 L 824.08 547.92 C 828.15 552.00 828.16 557.67 824.08 562.23 L 821.17 565.50 L 804.55 565.82 L 787.94 566.14 L 788.22 577.18 L 788.50 588.22 L 801.71 588.06 C 808.98 587.98 816.72 588.39 818.91 588.98 C 827.06 591.17 829.83 600.33 824.08 606.08 C 820.79 609.37 820.72 609.38 802.00 609.45 L 788.50 609.50 L 788.22 620.68 L 787.94 631.86 L 804.55 632.18 L 821.17 632.50 L 824.08 635.77 C 828.44 640.64 827.84 647.01 822.63 651.23 C 820.81 652.70 818.14 652.96 804.25 652.98 L 788.00 653.00 L 788.00 664.50 L 788.00 676.00 L 803.55 676.00 C 819.98 676.00 823.77 676.84 825.97 680.94 C 827.96 684.67 827.18 689.77 824.08 693.23 L 821.17 696.50 L 804.58 696.82 L 788.00 697.13 L 788.00 708.57 L 788.00 720.00 L 804.10 720.00 L 820.20 720.00 L 823.60 723.40 C 826.24 726.04 827.00 727.63 827.00 730.50 C 827.00 733.37 826.24 734.96 823.60 737.60 L 820.20 741.00 L 804.10 741.00 L 788.00 741.00 L 788.00 752.50 L 788.00 764.00 L 803.55 764.00 C 819.98 764.00 823.77 764.84 825.97 768.94 C 828.55 773.76 826.18 781.68 821.53 783.81 C 819.86 784.57 813.30 785.00 803.45 785.00 L 788.00 785.00 L 788.00 805.10 L 788.00 825.20 L 784.60 828.60 C 779.25 833.95 772.16 832.79 768.75 825.99 C 767.36 823.21 767.00 819.89 767.00 809.75 L 767.00 797.00 L 512.25 797.25 L 257.50 797.50 L 257.00 812.34 C 256.50 827.10 256.48 827.19 253.69 829.59 C 250.76 832.11 246.40 832.64 242.26 830.97 Z M 767.00 514.00 L 767.00 252.00 L 512.00 252.00 L 257.00 252.00 L 257.00 514.00 L 257.00 776.00 L 512.00 776.00 L 767.00 776.00 L 767.00 514.00 Z M 287.31 751.05 C 285.56 749.98 283.65 748.21 283.06 747.12 C 282.32 745.73 282.00 675.56 282.00 514.47 L 282.00 283.80 L 285.40 280.40 L 288.80 277.00 L 511.45 277.00 C 756.21 277.00 738.16 276.53 741.48 282.97 C 742.83 285.56 743.00 312.23 743.00 515.47 L 743.00 745.03 L 739.58 748.76 L 736.15 752.50 L 513.33 752.75 C 294.07 753.00 290.45 752.97 287.31 751.05 Z M 723.00 674.00 L 723.00 616.00 L 710.50 616.00 L 698.00 616.00 L 698.00 634.60 C 698.00 649.74 697.70 653.84 696.37 656.64 C 693.13 663.45 703.80 663.00 547.05 663.00 L 405.00 663.00 L 405.00 675.00 L 405.00 687.00 L 544.10 687.00 C 698.60 687.00 688.13 686.53 691.49 693.62 C 693.51 697.88 692.22 702.90 688.29 705.98 C 685.75 707.99 684.67 708.00 511.82 708.00 C 322.67 708.00 333.84 708.34 331.19 702.53 C 328.38 696.35 331.35 689.83 337.79 688.04 C 339.83 687.47 351.06 687.01 362.75 687.01 L 384.00 687.00 L 384.00 675.62 C 384.00 664.66 383.92 664.21 381.75 663.63 C 380.51 663.30 369.32 663.02 356.88 663.01 C 335.48 663.00 334.13 662.89 331.61 660.91 C 325.68 656.24 326.00 663.02 326.00 543.05 L 326.00 433.00 L 314.00 433.00 L 302.00 433.00 L 302.00 582.50 L 302.00 732.00 L 512.50 732.00 L 723.00 732.00 L 723.00 674.00 Z M 520.75 642.03 L 677.00 642.00 L 677.00 492.00 L 677.00 342.00 L 512.00 342.00 L 347.00 342.00 L 347.00 491.93 C 347.00 633.85 347.09 641.88 348.75 642.37 C 349.71 642.65 353.65 642.69 357.50 642.47 C 361.35 642.24 434.81 642.04 520.75 642.03 Z M 722.75 446.75 L 723.01 298.00 L 564.00 298.00 L 405.00 298.00 L 405.00 309.50 L 405.00 321.00 L 546.03 321.00 C 701.28 321.00 691.97 320.62 695.97 327.19 C 697.97 330.47 697.99 331.87 698.00 462.70 L 698.00 594.90 L 703.25 595.28 C 706.14 595.49 711.65 595.63 715.50 595.58 L 722.50 595.50 L 722.75 446.75 Z M 326.00 371.25 C 326.01 332.14 326.09 330.37 328.03 327.19 C 331.49 321.51 334.18 321.00 360.47 321.00 L 384.00 321.00 L 384.00 309.50 L 384.00 298.00 L 343.00 298.00 L 302.00 298.00 L 302.00 354.33 C 302.00 385.32 302.30 410.97 302.67 411.33 C 303.03 411.70 308.43 412.00 314.67 412.00 L 326.00 412.00 L 326.00 371.25 Z M 378.27 617.52 C 376.49 616.75 374.13 614.63 373.02 612.81 C 371.01 609.53 371.00 608.42 371.25 491.27 L 371.50 373.04 L 374.77 369.77 L 378.04 366.50 L 510.77 366.24 C 637.94 365.99 643.64 366.06 646.92 367.82 C 648.81 368.83 651.17 371.19 652.19 373.08 C 653.95 376.35 654.01 381.52 653.76 493.54 C 653.47 623.87 654.04 613.85 646.67 617.35 C 643.50 618.86 631.91 619.00 512.35 618.96 C 402.26 618.93 380.99 618.70 378.27 617.52 Z M 633.00 492.50 L 633.00 387.00 L 512.50 387.00 L 392.00 387.00 L 392.00 492.50 L 392.00 598.00 L 512.50 598.00 L 633.00 598.00 L 633.00 492.50 Z M 424.54 573.27 C 423.46 573.00 421.59 572.12 420.38 571.33 C 415.49 568.12 415.46 567.68 416.00 489.67 L 416.50 416.83 L 419.77 413.92 L 423.03 411.00 L 511.57 411.00 C 608.75 411.00 604.25 410.72 607.48 416.97 C 608.80 419.51 609.00 429.53 609.00 492.20 C 608.99 562.95 608.95 564.57 606.97 567.81 C 603.05 574.25 606.81 574.01 512.28 573.88 C 465.10 573.82 425.62 573.54 424.54 573.27 Z M 588.00 492.50 L 588.00 432.00 L 512.50 432.00 L 437.00 432.00 L 437.00 492.50 L 437.00 553.00 L 512.50 553.00 L 588.00 553.00 L 588.00 492.50 Z" stroke-linecap="round"/>
</g>
</g>
</g>

  </svg>