<svg xmlns="http://www.w3.org/2000/svg" xmlns:xlink="http://www.w3.org/1999/xlink" width="500px" height="500px" viewBox="0 0 500.0000000000002 499.78868235342316">
    <g id="0f10929e-2717-48f6-b08a-ab6458afa8d9">
<g style="">
		<g id="0f10929e-2717-48f6-b08a-ab6458afa8d9-child-0">
<path style="stroke: rgb(193,193,193); stroke-width: 0; stroke-dasharray: none; stroke-linecap: butt; stroke-dashoffset: 0; stroke-linejoin: miter; stroke-miterlimit: 4; fill: rgb(0,0,0); fill-rule: nonzero; opacity: 1;" transform="matrix(0.780156 0 0 0.780156 250.000105 249.894445) matrix(1 0 0 1 0 0)  translate(-512.401681, -512.368395)" d="M 503.35 831.96 C 481.37 828.05 463.43 811.31 458.65 790.27 L 457.34 784.50 L 430.42 784.00 C 400.87 783.45 399.76 783.24 392.62 776.97 C 385.56 770.77 384.57 767.56 384.19 749.50 L 383.86 733.50 L 378.68 728.17 C 375.83 725.24 354.66 704.31 331.62 681.67 L 289.75 640.50 L 275.12 639.96 C 263.22 639.52 259.66 639.04 256.00 637.35 C 250.44 634.78 244.74 629.12 242.20 623.64 C 239.68 618.22 238.65 603.79 240.46 599.45 C 243.27 592.73 250.88 590.04 256.96 593.64 C 261.41 596.26 263.00 599.98 263.00 607.70 C 263.00 611.73 263.50 615.10 264.20 615.80 C 265.04 616.64 270.50 617.00 282.33 617.00 L 299.26 617.00 L 312.38 629.72 C 328.07 644.93 401.65 717.83 404.50 720.99 C 406.31 722.99 406.55 725.01 407.00 741.85 L 407.50 760.50 L 433.11 760.77 L 458.72 761.03 L 460.85 755.91 C 463.92 748.53 471.34 738.57 477.33 733.81 C 482.75 729.49 492.22 724.73 497.75 723.54 L 501.00 722.84 L 501.00 709.92 L 501.00 697.00 L 487.45 697.00 C 474.41 697.00 473.82 696.91 471.45 694.55 C 469.08 692.17 469.00 691.65 469.00 677.67 L 469.00 663.25 L 459.75 660.03 C 414.11 644.13 378.16 608.46 363.47 564.50 C 362.00 560.10 360.68 556.37 360.53 556.22 C 360.39 556.06 353.34 555.69 344.88 555.38 C 324.53 554.65 325.00 555.09 325.00 536.94 L 325.00 524.00 L 319.25 523.80 C 316.09 523.70 311.91 523.54 309.98 523.44 C 302.11 523.08 300.36 523.86 299.03 528.34 C 292.47 550.57 269.75 566.96 245.50 566.97 C 205.74 566.99 179.63 523.27 197.89 487.24 C 205.20 472.81 218.48 462.28 233.68 458.88 L 238.85 457.71 L 239.18 432.11 C 239.49 407.64 239.62 406.26 241.89 401.22 C 244.82 394.73 252.30 387.77 258.68 385.59 C 262.05 384.44 267.14 384.00 276.90 384.00 L 290.45 384.00 L 337.14 337.35 L 383.83 290.70 L 384.17 274.52 C 384.50 258.51 384.53 258.28 387.53 253.42 C 390.82 248.07 397.93 242.67 403.82 241.03 C 405.87 240.46 418.58 240.01 432.54 240.01 L 457.59 240.00 L 458.74 234.51 C 462.67 215.75 478.40 199.34 497.93 193.60 C 504.89 191.55 518.42 191.54 526.36 193.57 C 544.67 198.27 560.97 214.64 565.11 232.50 C 565.75 235.25 566.42 238.06 566.61 238.75 C 566.86 239.71 572.75 240.00 591.79 240.00 C 620.82 240.00 624.51 240.68 631.75 247.32 C 639.04 254.00 640.29 257.91 640.94 276.00 L 641.50 291.50 L 687.81 337.50 L 734.11 383.50 L 749.31 384.03 C 762.34 384.48 765.08 384.86 768.62 386.73 C 775.00 390.10 778.86 393.80 781.80 399.38 L 784.50 404.50 L 784.81 431.15 L 785.12 457.79 L 789.46 458.44 C 797.56 459.66 809.73 466.46 816.93 473.80 C 838.29 495.59 838.14 528.97 816.58 550.61 C 809.27 557.95 801.27 562.81 792.97 564.96 C 790.51 565.60 787.71 566.35 786.75 566.63 C 785.15 567.09 785.00 569.16 785.00 591.53 C 785.00 613.39 784.79 616.47 783.02 621.21 C 780.37 628.29 775.88 633.51 769.65 636.74 C 764.93 639.20 763.25 639.46 749.40 639.96 L 734.29 640.50 L 687.69 686.50 L 641.09 732.50 L 641.05 745.20 C 641.02 752.19 640.51 760.18 639.91 762.97 C 638.35 770.28 633.57 776.73 627.00 780.42 L 621.50 783.50 L 594.13 784.00 L 566.77 784.50 L 564.91 791.81 C 562.38 801.80 558.68 808.26 551.00 816.10 C 538.69 828.66 519.90 834.91 503.35 831.96 Z M 525.41 806.64 C 531.63 803.75 537.33 798.16 540.83 791.50 C 543.10 787.19 543.46 785.26 543.48 777.50 C 543.50 766.95 541.48 761.74 534.66 754.72 C 528.08 747.96 522.14 745.55 512.00 745.53 C 501.76 745.52 496.31 747.64 489.75 754.20 C 482.71 761.24 480.50 766.83 480.52 777.50 C 480.54 785.27 480.90 787.19 483.18 791.54 C 486.00 796.91 492.79 803.81 497.85 806.42 C 505.81 810.54 516.82 810.62 525.41 806.64 Z M 616.80 759.80 C 617.64 758.96 618.00 753.29 618.00 740.72 L 618.00 722.85 L 664.25 677.13 C 689.69 651.98 713.96 628.17 718.20 624.21 L 725.90 617.00 L 742.38 617.00 C 756.10 617.00 759.12 616.73 760.45 615.41 C 761.83 614.03 762.00 610.61 761.77 589.30 L 761.50 564.78 L 757.50 563.23 C 743.01 557.64 730.36 544.21 725.55 529.30 C 723.94 524.30 723.71 524.08 719.69 523.56 C 716.09 523.08 710.71 523.17 701.25 523.84 C 699.04 524.00 699.00 524.23 699.00 537.19 C 699.00 555.53 699.58 555.00 679.43 555.00 L 664.21 555.00 L 661.54 563.25 C 655.58 581.67 640.24 608.13 632.22 613.84 C 628.58 616.44 621.50 616.74 618.22 614.44 C 614.85 612.08 612.70 607.21 613.33 603.36 C 613.64 601.47 615.86 597.58 618.47 594.38 C 628.27 582.35 637.39 563.70 641.64 547.00 C 645.07 533.53 644.96 533.61 662.27 533.00 L 676.50 532.50 L 676.77 512.25 L 677.04 492.00 L 664.17 492.00 C 645.21 492.00 644.39 491.51 641.50 478.50 C 637.91 462.29 631.39 447.47 621.91 434.00 C 615.15 424.39 600.61 409.85 591.00 403.09 C 577.34 393.48 555.26 383.70 542.36 381.55 C 539.90 381.14 537.26 379.85 535.86 378.35 C 533.68 376.03 533.48 374.88 533.17 363.05 L 532.85 350.25 L 528.28 349.63 C 525.77 349.28 516.36 349.00 507.36 349.00 L 491.00 349.00 L 491.00 361.55 C 491.00 376.79 490.04 379.37 483.74 381.07 C 469.84 384.82 464.63 386.58 457.11 390.09 C 452.50 392.24 447.19 394.00 445.31 394.00 C 438.06 394.00 433.00 388.85 433.00 381.45 C 433.00 375.60 437.31 372.26 452.50 366.33 C 459.65 363.53 466.29 360.98 467.25 360.65 C 468.81 360.13 469.00 358.50 469.00 345.99 C 469.00 332.37 469.08 331.83 471.45 329.45 C 473.69 327.22 474.69 327.00 482.81 327.00 C 487.71 327.00 493.82 326.71 496.39 326.36 L 501.06 325.72 L 500.78 313.81 L 500.50 301.91 L 493.72 299.54 C 479.71 294.65 467.87 283.85 461.86 270.48 L 458.50 263.00 L 433.95 263.00 C 416.19 263.00 409.07 263.33 408.20 264.20 C 407.36 265.04 407.00 270.37 407.00 281.75 C 407.00 294.03 406.64 298.77 405.57 300.80 C 404.28 303.21 368.56 339.07 317.44 389.27 L 299.37 407.00 L 282.69 407.00 C 267.33 407.00 265.84 407.16 264.00 409.00 C 262.11 410.89 262.00 412.33 262.00 435.03 C 262.00 457.04 262.15 459.11 263.75 459.63 C 264.71 459.94 268.28 461.55 271.68 463.21 C 283.82 469.14 294.01 480.76 298.60 493.89 L 300.91 500.50 L 312.95 500.78 L 325.00 501.06 L 325.00 487.49 C 325.00 474.40 325.09 473.82 327.45 471.45 C 329.85 469.06 330.29 469.00 345.27 469.00 L 360.63 469.00 L 363.93 459.25 C 369.57 442.57 376.83 429.67 389.19 414.38 C 394.63 407.66 397.29 406.00 402.66 406.00 C 405.48 406.00 407.06 406.82 410.12 409.88 C 413.34 413.11 414.00 414.45 414.00 417.79 C 414.00 421.25 413.15 422.84 407.92 429.10 C 400.02 438.55 397.03 442.97 392.76 451.50 C 388.25 460.51 384.67 470.53 382.54 480.17 C 380.07 491.29 379.83 491.43 362.40 491.82 L 348.00 492.15 L 348.00 512.57 L 348.00 533.00 L 362.41 533.00 L 376.82 533.00 L 379.41 536.08 C 380.83 537.77 382.00 540.19 382.00 541.46 C 382.00 542.74 383.10 547.57 384.44 552.21 C 396.76 594.70 433.20 629.24 477.50 640.42 C 491.07 643.84 491.00 643.74 491.00 660.61 L 491.00 674.00 L 511.92 674.00 L 532.85 674.00 L 533.17 660.52 C 533.58 643.77 533.36 644.06 549.00 639.96 C 555.34 638.29 565.01 634.76 570.82 631.98 C 576.56 629.24 582.26 627.00 583.48 627.00 C 586.42 627.00 592.15 630.93 593.72 634.03 C 595.42 637.39 595.31 641.49 593.42 645.15 C 591.65 648.58 581.33 653.90 565.50 659.56 L 556.50 662.78 L 556.00 677.31 C 555.53 690.97 555.35 692.00 553.08 694.42 C 550.70 696.95 550.39 697.00 536.80 697.00 L 522.94 697.00 L 523.22 709.58 L 523.50 722.15 L 530.62 724.92 C 544.99 730.51 557.03 741.69 562.71 754.72 L 565.45 761.00 L 590.52 761.00 C 608.69 761.00 615.93 760.67 616.80 759.80 Z M 260.72 540.66 C 272.23 534.79 278.44 524.72 278.41 512.00 C 278.40 505.89 277.88 503.44 275.65 498.80 C 271.81 490.83 264.60 484.58 256.30 482.01 C 248.45 479.59 245.03 479.51 238.03 481.58 C 223.81 485.81 216.03 495.72 215.21 510.65 C 214.81 517.90 215.05 519.44 217.43 524.65 C 221.42 533.36 227.80 539.28 236.88 542.68 C 242.72 544.86 254.43 543.87 260.72 540.66 Z M 791.50 541.16 C 798.31 537.93 804.20 531.97 807.35 525.12 C 810.64 517.99 810.38 505.21 806.82 498.50 C 803.38 492.02 796.79 485.68 790.50 482.82 C 783.59 479.67 772.47 479.64 765.67 482.75 C 758.19 486.17 753.62 490.35 750.04 497.08 C 740.75 514.51 748.97 535.58 767.76 542.49 C 769.82 543.24 774.65 543.89 778.50 543.93 C 784.21 543.99 786.61 543.47 791.50 541.16 Z M 725.06 496.78 C 728.73 483.16 741.03 468.74 754.38 462.40 L 762.00 458.78 L 762.00 434.72 C 762.00 413.73 761.79 410.42 760.35 408.83 C 758.87 407.20 756.91 407.00 742.60 407.00 C 728.33 406.99 726.16 406.77 723.50 405.04 C 721.85 403.97 697.55 380.39 669.50 352.66 L 618.50 302.22 L 618.00 283.57 C 617.60 268.47 617.21 264.74 616.00 263.98 C 613.90 262.65 565.00 262.70 565.00 264.02 C 565.00 264.58 563.54 268.05 561.75 271.73 C 555.63 284.31 542.75 295.59 529.44 300.02 L 523.00 302.16 L 523.01 309.33 C 523.01 313.27 523.30 318.86 523.65 321.75 L 524.28 327.00 L 537.53 327.00 C 556.05 327.00 555.40 326.34 555.82 345.81 L 556.14 360.80 L 560.80 361.97 C 563.37 362.62 569.30 364.73 573.98 366.66 C 613.85 383.09 647.56 418.85 660.50 458.43 L 663.79 468.50 L 679.29 469.00 C 699.84 469.66 699.00 468.92 699.00 486.49 C 699.00 493.74 699.30 499.97 699.67 500.33 C 700.03 500.70 705.64 501.00 712.13 501.00 L 723.92 501.00 L 725.06 496.78 Z M 523.36 277.39 C 530.20 275.06 538.08 267.45 541.46 259.90 C 543.94 254.39 544.19 252.85 543.81 245.60 C 543.47 239.03 542.83 236.45 540.48 232.13 C 530.15 213.16 505.22 209.18 489.94 224.06 C 482.61 231.20 480.51 236.43 480.51 247.50 C 480.51 254.95 480.91 257.24 482.80 260.80 C 488.98 272.40 499.41 279.00 511.57 279.00 C 515.46 279.00 520.76 278.28 523.36 277.39 Z M 368.16 654.81 C 355.15 642.06 343.66 630.12 342.64 628.29 C 338.07 620.10 346.55 609.16 355.69 611.46 C 358.28 612.11 405.34 657.28 407.71 661.40 C 410.54 666.28 408.20 673.81 403.03 676.48 C 401.42 677.32 398.24 678.00 395.96 678.00 C 391.91 678.00 391.33 677.52 368.16 654.81 Z M 619.40 674.60 C 616.53 671.73 616.00 670.49 616.00 666.65 C 616.00 661.32 614.98 662.48 646.62 631.62 L 666.74 612.00 L 671.47 612.00 C 675.52 612.00 676.69 612.49 679.60 615.40 C 682.52 618.32 683.00 619.47 683.00 623.60 L 683.00 628.40 L 661.25 650.31 C 635.52 676.24 633.35 678.00 627.25 678.00 C 623.52 678.00 622.25 677.45 619.40 674.60 Z M 510.27 623.52 C 504.07 620.82 501.37 613.05 504.52 606.97 C 506.56 603.01 510.82 601.00 517.20 600.99 C 524.89 600.97 539.37 597.74 548.14 594.08 C 557.75 590.09 567.79 583.45 575.50 576.01 C 584.39 567.44 587.06 566.51 593.73 569.68 C 596.17 570.83 597.84 572.65 599.10 575.50 C 601.84 581.69 600.40 585.56 592.72 592.56 C 574.15 609.49 552.52 620.01 529.00 623.56 C 517.32 625.32 514.39 625.31 510.27 623.52 Z M 449.75 606.61 C 436.08 599.20 419.10 580.25 410.23 562.50 C 400.73 543.48 396.63 518.77 400.01 500.93 C 401.80 491.52 409.17 486.80 416.56 490.33 C 422.70 493.25 423.22 495.07 423.45 514.26 C 423.63 529.16 423.97 532.45 425.94 538.50 C 428.57 546.53 432.90 555.49 437.32 562.00 C 441.85 568.68 453.73 580.70 460.10 585.05 C 466.38 589.33 468.56 593.20 467.60 598.31 C 466.23 605.64 456.40 610.21 449.75 606.61 Z M 533.42 575.58 C 528.84 573.58 526.00 569.43 526.00 564.72 C 526.00 560.87 526.57 560.16 541.62 545.61 C 550.21 537.30 557.98 530.19 558.87 529.82 C 568.89 525.64 578.75 537.03 573.57 546.80 C 571.62 550.48 545.82 574.74 542.52 575.99 C 539.07 577.30 537.18 577.22 533.42 575.58 Z M 477.59 572.95 C 470.73 568.60 454.95 552.62 450.17 545.17 C 443.27 534.43 443.66 525.62 451.24 521.00 C 458.35 516.66 464.10 519.28 469.07 529.14 C 471.97 534.89 482.07 545.90 493.29 555.56 C 497.69 559.34 498.00 559.93 498.00 564.41 C 498.00 568.52 497.52 569.68 494.60 572.60 C 490.00 577.20 484.47 577.32 477.59 572.95 Z M 608.39 527.02 C 603.38 525.00 602.33 521.96 601.70 507.80 C 601.38 500.48 600.39 491.58 599.52 488.00 C 595.77 472.69 583.45 453.60 570.79 443.50 C 559.45 434.45 557.00 431.64 557.00 427.66 C 557.00 422.66 558.79 419.30 562.74 416.85 C 567.86 413.69 572.55 414.74 580.85 420.89 C 600.10 435.16 615.93 458.09 622.01 480.50 C 625.03 491.63 626.01 517.14 623.60 521.81 C 620.91 527.02 614.13 529.34 608.39 527.02 Z M 561.16 502.74 C 559.80 502.09 557.60 499.06 555.94 495.56 C 552.54 488.41 546.62 481.08 539.00 474.59 C 526.84 464.24 526.00 463.26 526.00 459.47 C 526.00 451.91 531.09 447.00 538.91 447.00 C 542.18 447.00 543.99 447.85 548.71 451.64 C 557.56 458.72 561.70 462.82 568.28 471.00 C 578.18 483.31 580.92 491.38 577.48 498.03 C 574.78 503.27 566.95 505.52 561.16 502.74 Z M 457.31 490.05 C 453.39 487.66 452.00 485.19 452.00 480.61 C 452.00 475.01 453.47 472.97 466.25 460.90 C 480.62 447.32 482.44 446.01 487.00 446.01 C 493.76 446.01 498.90 451.33 498.96 458.37 C 499.00 462.06 498.31 462.91 484.38 476.37 C 476.34 484.14 469.03 490.81 468.13 491.18 C 465.05 492.46 460.49 491.99 457.31 490.05 Z M 429.40 450.60 C 426.49 447.69 426.00 446.52 426.00 442.46 C 426.00 437.89 426.27 437.46 433.34 430.50 C 449.75 414.35 468.60 404.82 490.75 401.48 C 509.68 398.63 516.85 399.94 520.45 406.91 C 522.51 410.88 522.40 413.83 520.05 417.69 C 517.40 422.03 515.88 422.63 505.50 423.42 C 492.80 424.37 480.81 427.41 471.50 432.03 C 463.52 435.98 459.50 438.84 447.99 448.75 C 442.57 453.42 441.39 454.00 437.35 454.00 C 433.51 454.00 432.27 453.47 429.40 450.60 Z M 348.10 410.74 C 344.10 408.68 341.76 404.64 341.82 399.91 C 341.88 395.66 342.11 395.39 366.94 370.56 L 392.00 345.50 L 397.08 345.50 C 401.66 345.50 402.49 345.86 405.58 349.24 C 409.53 353.55 410.16 358.81 407.24 363.00 C 406.28 364.38 394.88 375.96 381.91 388.75 C 359.20 411.14 358.18 412.00 354.41 411.99 C 352.26 411.98 349.42 411.41 348.10 410.74 Z M 642.13 388.75 C 619.07 366.06 615.00 361.41 615.00 357.73 C 615.00 351.47 621.39 345.01 627.60 345.00 C 632.16 345.00 636.04 348.30 660.75 373.19 C 681.81 394.40 683.00 395.80 683.00 399.35 C 683.00 407.15 677.99 412.00 669.93 412.00 C 665.83 412.00 665.34 411.59 642.13 388.75 Z" stroke-linecap="round"/>
</g>
</g>
</g>

  </svg>