<svg xmlns="http://www.w3.org/2000/svg" xmlns:xlink="http://www.w3.org/1999/xlink" width="500px" height="462px" viewBox="0 0 499.9999999999998 462.28484950845854">
    <g id="ab8c8a21-20b2-49a6-bbf6-a6a7d31deb41">
<g style="">
		<g id="ab8c8a21-20b2-49a6-bbf6-a6a7d31deb41-child-0">
<path style="stroke: rgb(193,193,193); stroke-width: 0; stroke-dasharray: none; stroke-linecap: butt; stroke-dashoffset: 0; stroke-linejoin: miter; stroke-miterlimit: 4; fill: rgb(0,0,0); fill-rule: nonzero; opacity: 1;" transform="matrix(0.986287 0 0 0.986287 250.000091 231.142508) matrix(1 0 0 1 0 0)  translate(-512.476007, -512.3477)" d="M 347.58 745.45 C 328.78 741.69 311.09 728.04 302.22 710.44 C 296.64 699.38 295.91 694.80 295.29 667.25 L 294.73 642.00 L 285.11 641.99 C 273.84 641.99 269.23 640.91 264.90 637.26 C 259.19 632.46 259.00 631.15 259.00 596.37 C 259.00 564.71 259.00 564.67 261.40 560.58 C 262.81 558.17 265.60 555.46 268.15 554.01 C 271.90 551.88 274.04 551.49 283.75 551.16 L 295.00 550.78 L 295.00 512.03 L 295.00 473.28 L 283.57 472.77 C 273.67 472.34 271.56 471.93 267.81 469.73 C 265.30 468.26 262.54 465.52 261.24 463.21 C 259.05 459.32 259.00 458.50 259.00 427.50 C 259.00 396.50 259.05 395.68 261.24 391.79 C 262.49 389.56 265.29 386.74 267.58 385.40 C 271.26 383.24 272.84 383.00 283.21 383.00 L 294.74 383.00 L 295.27 358.25 C 295.86 330.32 296.51 326.62 303.18 313.00 C 308.89 301.34 319.41 290.86 331.19 285.09 C 346.76 277.47 333.13 278.00 512.00 278.00 C 691.05 278.00 677.21 277.45 692.99 285.18 C 708.48 292.76 721.77 308.74 726.53 325.50 C 727.86 330.18 728.34 337.17 728.72 357.25 L 729.22 383.00 L 740.65 383.00 C 754.15 383.00 758.35 384.56 762.75 391.19 L 765.50 395.35 L 765.82 425.07 C 766.16 457.02 765.75 460.77 761.35 465.99 C 755.99 472.36 755.41 472.47 723.40 472.83 C 691.70 473.19 684.66 472.50 679.49 468.56 C 673.09 463.68 672.54 461.14 672.18 435.00 C 671.80 406.48 672.81 394.49 675.95 390.07 C 679.94 384.47 684.41 383.00 697.46 383.00 L 709.00 383.00 L 709.00 360.21 C 709.00 328.85 706.94 321.79 694.39 310.04 C 687.60 303.70 680.44 299.85 672.20 298.11 C 668.44 297.32 621.83 297.00 511.16 297.00 C 339.27 297.00 349.25 296.64 338.15 303.29 C 331.57 307.23 323.02 316.27 320.04 322.42 C 315.66 331.47 315.02 336.23 315.01 360.25 L 315.00 383.00 L 327.05 383.00 C 335.48 383.00 339.91 383.42 341.80 384.41 C 345.43 386.30 349.63 390.87 350.94 394.32 C 351.60 396.08 352.00 408.72 352.00 428.33 C 352.00 463.67 351.95 463.90 344.12 469.46 C 340.15 472.27 339.38 472.43 327.48 472.83 L 315.00 473.24 L 315.00 512.12 L 315.00 551.00 L 324.75 551.01 C 340.08 551.01 346.59 553.69 350.09 561.40 C 351.78 565.12 351.96 568.44 351.98 597.00 C 352.00 632.77 351.95 633.04 344.16 638.47 C 340.00 641.38 339.34 641.51 327.41 641.85 L 315.00 642.21 L 315.00 664.89 C 315.00 682.17 315.37 689.00 316.55 693.54 C 320.32 707.99 331.39 719.64 346.58 725.13 L 352.50 727.27 L 487.00 727.38 C 560.97 727.45 633.68 727.28 648.56 727.00 L 675.61 726.50 L 683.20 722.75 C 695.44 716.70 704.96 704.82 707.94 691.89 C 708.50 689.47 708.96 677.26 708.98 664.75 L 709.00 642.00 L 699.25 641.99 C 693.89 641.99 687.83 641.52 685.78 640.96 C 681.43 639.75 676.49 635.86 674.57 632.13 C 672.55 628.20 671.88 611.28 672.74 585.50 C 673.46 563.63 673.61 562.34 675.83 559.23 C 677.12 557.43 680.04 554.95 682.33 553.73 C 686.40 551.56 687.31 551.50 719.00 551.50 C 750.02 551.50 751.68 551.60 755.50 553.59 C 757.70 554.74 760.85 557.59 762.50 559.92 L 765.50 564.17 L 765.85 593.33 C 766.24 626.52 765.71 630.95 760.71 635.79 C 755.58 640.76 751.37 642.00 739.63 642.00 L 729.20 642.00 L 728.73 667.25 C 728.22 694.33 727.50 699.09 722.30 709.45 C 713.81 726.35 701.29 737.40 683.50 743.68 L 675.50 746.50 L 515.00 746.67 C 381.91 746.80 353.32 746.59 347.58 745.45 Z M 295.00 596.50 L 295.00 571.00 L 286.50 571.00 L 278.00 571.00 L 278.00 596.50 L 278.00 622.00 L 286.50 622.00 L 295.00 622.00 L 295.00 596.50 Z M 332.00 596.50 L 332.00 571.00 L 323.50 571.00 L 315.00 571.00 L 315.00 596.50 L 315.00 622.00 L 323.50 622.00 L 332.00 622.00 L 332.00 596.50 Z M 709.00 596.50 L 709.00 571.00 L 700.50 571.00 L 692.00 571.00 L 692.00 596.50 L 692.00 622.00 L 700.50 622.00 L 709.00 622.00 L 709.00 596.50 Z M 746.00 596.50 L 746.00 571.00 L 737.50 571.00 L 729.00 571.00 L 729.00 596.50 L 729.00 622.00 L 737.50 622.00 L 746.00 622.00 L 746.00 596.50 Z M 295.00 428.00 L 295.00 402.00 L 286.50 402.00 L 278.00 402.00 L 278.00 427.33 C 278.00 441.27 278.30 452.97 278.67 453.33 C 279.03 453.70 282.86 454.00 287.17 454.00 L 295.00 454.00 L 295.00 428.00 Z M 332.00 428.00 L 332.00 402.00 L 323.50 402.00 L 315.00 402.00 L 315.00 428.00 L 315.00 454.00 L 323.50 454.00 L 332.00 454.00 L 332.00 428.00 Z M 745.77 427.75 L 746.03 402.00 L 737.52 402.00 L 729.00 402.00 L 729.00 427.33 C 729.00 441.27 729.32 452.98 729.71 453.37 C 730.09 453.76 733.81 453.95 737.96 453.79 L 745.50 453.50 L 745.77 427.75 Z M 709.00 427.50 L 709.00 402.00 L 700.50 402.00 L 692.00 402.00 L 692.00 427.50 L 692.00 453.00 L 700.50 453.00 L 709.00 453.00 L 709.00 427.50 Z M 351.31 697.87 C 346.89 696.63 344.00 692.63 344.00 687.77 C 344.00 684.59 344.68 683.12 347.40 680.40 C 350.19 677.61 351.56 677.00 355.00 677.00 C 358.44 677.00 359.81 677.61 362.60 680.40 C 367.25 685.05 367.29 689.68 362.75 694.42 C 359.09 698.24 355.97 699.18 351.31 697.87 Z M 666.00 697.90 C 659.42 695.22 656.52 688.75 659.41 683.18 C 661.62 678.90 664.75 677.00 669.59 677.00 C 682.99 677.00 684.22 695.61 671.00 698.39 C 669.62 698.68 667.38 698.46 666.00 697.90 Z M 389.92 694.08 C 387.76 691.91 387.00 690.21 387.00 687.50 C 387.00 684.79 387.76 683.09 389.92 680.92 L 392.85 678.00 L 512.00 678.00 L 631.15 678.00 L 634.08 680.92 C 638.11 684.96 638.11 690.04 634.08 694.08 L 631.15 697.00 L 512.00 697.00 L 392.85 697.00 L 389.92 694.08 Z M 500.25 613.96 C 473.28 610.60 449.02 597.26 432.44 576.68 C 424.37 566.66 415.83 549.70 412.97 538.00 C 410.35 527.27 409.36 508.05 410.91 498.00 C 414.45 475.03 425.24 454.51 442.25 438.38 C 475.60 406.75 524.61 401.37 564.83 424.91 C 597.64 444.12 617.90 483.71 614.12 521.25 C 609.48 567.22 577.53 603.17 533.02 612.49 C 524.06 614.36 508.96 615.04 500.25 613.96 Z M 533.28 592.08 C 556.17 586.15 575.08 570.76 585.58 549.50 C 592.08 536.33 594.27 527.05 594.32 512.50 C 594.37 497.72 592.63 490.21 585.98 476.50 C 577.41 458.83 566.17 447.59 548.50 439.02 C 534.74 432.35 527.33 430.64 512.00 430.62 C 496.46 430.61 488.96 432.33 475.41 439.03 C 446.35 453.39 428.62 483.82 430.31 516.45 C 431.02 530.24 432.75 536.77 439.14 549.77 C 450.28 572.43 471.94 588.59 497.73 593.49 C 507.66 595.37 522.91 594.77 533.28 592.08 Z M 716.39 523.35 C 715.23 523.10 712.99 521.55 711.41 519.91 C 705.83 514.08 708.50 504.98 716.63 502.10 C 720.16 500.85 720.98 500.90 724.33 502.49 C 731.55 505.91 733.13 513.75 727.75 519.52 C 724.52 522.98 720.71 524.27 716.39 523.35 Z M 347.40 344.60 C 344.68 341.88 344.00 340.41 344.00 337.23 C 344.00 332.57 346.55 328.84 351.02 326.99 C 357.97 324.11 365.99 329.92 366.00 337.85 C 366.00 342.98 360.56 348.00 355.00 348.00 C 351.56 348.00 350.19 347.39 347.40 344.60 Z M 663.22 346.44 C 657.27 342.27 656.75 334.53 662.08 329.43 C 670.46 321.39 684.09 330.66 679.62 341.36 C 678.88 343.14 677.10 345.36 675.67 346.30 C 672.42 348.43 666.16 348.50 663.22 346.44 Z M 389.45 343.55 C 386.81 340.90 386.14 335.48 388.03 331.94 C 390.78 326.81 385.96 327.00 512.00 327.00 C 614.49 327.00 629.46 327.19 632.02 328.51 C 637.63 331.41 638.70 337.83 634.41 342.92 L 631.82 346.00 L 511.87 346.00 L 391.91 346.00 L 389.45 343.55 Z M 503.50 549.12 C 478.25 542.50 466.82 513.47 481.07 492.13 C 488.10 481.61 499.16 475.76 512.00 475.77 C 527.02 475.79 538.62 482.94 545.50 496.42 C 549.25 503.76 549.49 504.77 549.39 512.38 C 549.25 523.00 546.52 530.18 539.85 537.47 C 532.73 545.27 524.32 549.25 514.19 549.62 C 509.96 549.78 505.15 549.56 503.50 549.12 Z M 520.94 527.53 C 525.75 525.04 528.38 520.36 528.80 513.54 C 529.12 508.47 528.80 506.95 526.84 504.09 C 523.21 498.80 519.71 496.72 513.58 496.22 C 508.94 495.83 507.38 496.17 503.54 498.42 C 498.38 501.45 495.00 506.98 495.00 512.40 C 495.00 525.51 509.03 533.69 520.94 527.53 Z" stroke-linecap="round"/>
</g>
</g>
</g>

  </svg>