<svg xmlns="http://www.w3.org/2000/svg" xmlns:xlink="http://www.w3.org/1999/xlink" width="500px" height="493px" viewBox="0 0 499.9999999999998 492.69107485970113">
    <g id="04a962b0-52e1-46cb-9ac3-55ec3d431e64">
<g style="">
		<g id="04a962b0-52e1-46cb-9ac3-55ec3d431e64-child-0">
<path style="stroke: rgb(193,193,193); stroke-width: 0; stroke-dasharray: none; stroke-linecap: butt; stroke-dashoffset: 0; stroke-linejoin: miter; stroke-miterlimit: 4; fill: rgb(0,0,0); fill-rule: nonzero; opacity: 1;" transform="matrix(0.957381 0 0 0.957381 250.000033 246.345571) matrix(1 0 0 1 0 0)  translate(-512.260805, -512.311948)" d="M 257.77 769.30 C 251.42 768.31 248.82 759.40 253.58 754.92 C 256.03 752.62 256.88 752.48 271.08 752.18 L 286.00 751.86 L 286.00 506.35 L 286.00 260.85 L 288.92 257.92 L 291.85 255.00 L 512.00 255.00 L 732.15 255.00 L 735.08 257.92 L 738.00 260.85 L 738.00 506.42 L 738.00 752.00 L 752.05 752.00 C 767.87 752.00 771.08 752.93 772.85 758.01 C 774.10 761.59 773.19 764.63 770.01 767.50 C 767.80 769.49 766.30 769.50 514.15 769.61 C 374.64 769.67 259.27 769.53 257.77 769.30 Z M 320.00 524.06 L 320.00 296.11 L 322.41 293.31 L 324.83 290.50 L 510.83 290.24 L 696.83 289.98 L 699.91 292.58 L 703.00 295.18 L 703.00 523.59 L 703.00 752.00 L 712.50 752.00 L 722.00 752.00 L 722.00 512.00 L 722.00 272.00 L 512.00 272.00 L 302.00 272.00 L 302.00 512.00 L 302.00 752.00 L 311.00 752.00 L 320.00 752.00 L 320.00 524.06 Z M 504.00 529.50 L 504.00 307.00 L 420.50 307.00 L 337.00 307.00 L 337.00 529.50 L 337.00 752.00 L 420.50 752.00 L 504.00 752.00 L 504.00 529.50 Z M 686.67 529.75 C 686.39 407.51 686.12 307.39 686.08 307.25 C 686.04 307.11 648.88 307.00 603.50 307.00 L 521.00 307.00 L 521.00 529.50 L 521.00 752.00 L 604.09 752.00 L 687.18 752.00 L 686.67 529.75 Z M 369.75 723.92 C 364.98 721.14 365.00 721.49 365.00 650.10 C 365.00 600.28 365.31 582.42 366.19 580.47 C 368.67 575.03 368.95 575.00 419.50 575.00 C 470.37 575.00 470.52 575.02 472.88 580.71 C 473.73 582.77 473.97 601.69 473.77 651.84 L 473.50 720.17 L 470.69 722.59 L 467.89 725.00 L 419.69 724.97 C 388.82 724.95 370.87 724.57 369.75 723.92 Z M 408.62 708.00 L 411.00 708.00 L 411.00 678.92 L 411.00 649.85 L 413.92 646.92 C 415.53 645.32 417.80 644.00 418.97 644.00 C 421.91 644.00 426.62 646.58 427.41 648.62 C 427.76 649.55 428.06 663.29 428.06 679.15 L 428.07 708.00 L 442.54 708.00 L 457.00 708.00 L 457.00 649.99 L 457.00 591.98 L 419.75 592.24 L 382.50 592.50 L 382.20 644.00 C 382.04 672.33 382.18 698.30 382.53 701.71 L 383.15 707.92 L 391.83 708.29 C 396.60 708.49 401.79 708.51 403.38 708.33 C 404.96 708.15 407.32 708.00 408.62 708.00 Z M 414.66 548.00 L 375.82 547.50 L 373.91 545.14 C 371.76 542.48 371.44 537.31 373.28 534.91 C 376.16 531.16 378.00 531.00 418.38 531.00 L 457.89 531.00 L 460.64 533.37 C 465.91 537.90 463.08 547.24 456.17 548.15 C 454.70 548.34 436.02 548.28 414.66 548.00 Z M 373.29 505.29 C 371.28 505.03 369.13 503.75 367.54 501.86 L 365.00 498.85 L 365.00 419.97 C 365.00 360.95 365.30 340.43 366.19 338.47 C 368.68 333.02 368.92 333.00 419.93 333.00 L 466.97 333.00 L 470.23 335.92 L 473.50 338.84 L 473.77 418.17 C 473.95 471.76 473.70 498.32 472.99 500.03 C 470.70 505.56 471.29 505.49 422.00 505.60 C 396.98 505.65 375.05 505.51 373.29 505.29 Z M 411.00 419.50 L 411.00 350.00 L 396.50 350.00 L 382.00 350.00 L 382.00 414.86 C 382.00 450.53 382.29 481.81 382.64 484.36 L 383.27 489.00 L 397.14 489.00 L 411.00 489.00 L 411.00 419.50 Z M 457.00 419.50 L 457.00 350.00 L 442.50 350.00 L 428.00 350.00 L 428.00 418.83 C 428.00 456.69 428.30 487.97 428.67 488.33 C 429.03 488.70 435.56 489.00 443.17 489.00 L 457.00 489.00 L 457.00 419.50 Z M 554.75 723.92 C 549.98 721.14 550.00 721.50 550.00 650.00 C 550.00 576.11 549.82 578.30 556.12 576.11 C 558.27 575.36 574.18 575.00 605.20 575.00 C 655.82 575.00 655.76 574.99 657.89 581.12 C 658.66 583.32 659.00 604.54 659.00 650.18 C 659.00 720.49 658.94 721.35 654.15 723.92 C 651.44 725.37 557.24 725.37 554.75 723.92 Z M 596.03 678.75 C 596.07 648.03 596.13 647.59 600.68 645.16 C 604.21 643.29 606.96 643.80 610.08 646.92 L 613.00 649.85 L 613.00 678.92 L 613.00 708.00 L 627.50 708.00 L 642.00 708.00 L 642.00 650.00 L 642.00 592.00 L 604.50 592.00 L 567.00 592.00 L 567.00 650.00 L 567.00 708.00 L 581.50 708.00 L 596.00 708.00 L 596.03 678.75 Z M 534.74 564.75 C 531.61 562.37 530.92 557.91 531.05 540.91 C 531.23 516.95 532.22 514.00 540.10 514.00 C 543.01 514.00 544.37 514.66 546.36 517.02 L 548.90 520.04 L 548.46 538.77 C 548.22 549.07 548.02 558.49 548.01 559.71 C 547.99 564.74 539.15 568.10 534.74 564.75 Z M 564.45 545.55 C 561.01 542.10 561.19 537.65 564.92 533.92 L 567.85 531.00 L 607.00 531.00 L 646.15 531.00 L 649.08 533.92 C 652.81 537.65 652.99 542.10 649.55 545.55 L 647.09 548.00 L 607.00 548.00 L 566.91 548.00 L 564.45 545.55 Z M 559.38 505.20 C 556.52 504.99 554.52 504.12 552.88 502.37 L 550.50 499.84 L 550.50 419.34 L 550.50 338.84 L 553.77 335.92 L 557.03 333.00 L 604.50 333.00 L 651.97 333.00 L 655.23 335.92 L 658.50 338.84 L 658.50 419.40 L 658.50 499.95 L 655.73 502.73 L 652.95 505.50 L 608.23 505.50 C 583.63 505.50 561.64 505.36 559.38 505.20 Z M 596.00 419.50 L 596.00 350.00 L 581.50 350.00 L 567.00 350.00 L 567.00 419.50 L 567.00 489.00 L 581.50 489.00 L 596.00 489.00 L 596.00 419.50 Z M 642.00 419.50 L 642.00 350.00 L 627.50 350.00 L 613.00 350.00 L 613.00 419.50 L 613.00 489.00 L 627.50 489.00 L 642.00 489.00 L 642.00 419.50 Z" stroke-linecap="round"/>
</g>
</g>
</g>

  </svg>