<svg xmlns="http://www.w3.org/2000/svg" xmlns:xlink="http://www.w3.org/1999/xlink" width="325px" height="500px" viewBox="0 0 325.13934443315844 500">
    <g id="e6a04940-759a-414f-972e-9d1d81bb042d">
<g style="">
		<g id="e6a04940-759a-414f-972e-9d1d81bb042d-child-0">
<path style="stroke: rgb(193,193,193); stroke-width: 0; stroke-dasharray: none; stroke-linecap: butt; stroke-dashoffset: 0; stroke-linejoin: miter; stroke-miterlimit: 4; fill: rgb(0,0,0); fill-rule: nonzero; opacity: 1;" transform="matrix(0.729215 0 0 0.729215 162.56974 250.000104) matrix(1 0 0 1 0 0)  translate(-512.061991, -512.146713)" d="M 296.27 853.52 C 294.49 852.75 292.12 850.63 291.00 848.81 C 289.06 845.67 288.97 844.19 289.23 819.67 L 289.50 793.84 L 293.24 790.42 L 296.97 787.00 L 324.96 787.00 L 352.95 787.00 L 353.23 693.15 L 353.50 599.30 L 357.00 592.45 C 361.48 583.68 368.31 577.91 377.59 575.05 C 383.52 573.21 386.85 573.00 409.61 573.00 L 435.00 573.00 L 435.00 551.89 C 435.00 533.32 434.82 530.86 433.46 531.38 C 432.62 531.70 429.38 532.71 426.27 533.61 C 410.10 538.31 391.78 529.42 384.16 513.18 L 381.50 507.50 L 381.22 429.35 C 380.90 342.05 380.83 343.09 387.70 329.13 C 392.96 318.45 404.63 306.75 415.00 301.77 C 429.49 294.81 428.36 294.89 515.50 295.21 L 593.50 295.50 L 600.83 298.18 C 620.01 305.18 633.51 318.51 640.16 337.00 L 642.50 343.50 L 642.50 425.52 L 642.50 507.54 L 639.25 514.14 C 630.21 532.51 609.97 539.62 590.25 531.36 C 589.27 530.95 589.00 535.44 589.00 551.92 L 589.00 573.00 L 614.39 573.00 C 637.15 573.00 640.48 573.21 646.41 575.05 C 655.69 577.91 662.52 583.68 667.00 592.45 L 670.50 599.30 L 670.77 693.15 L 671.04 787.00 L 698.57 787.00 C 728.82 787.00 730.55 787.29 733.48 792.97 C 734.72 795.36 735.00 800.53 735.00 821.05 C 735.00 842.95 734.78 846.56 733.29 849.08 C 729.53 855.45 746.15 855.00 512.35 854.96 C 331.86 854.93 299.01 854.71 296.27 853.52 Z M 716.78 821.25 L 717.05 806.00 L 512.03 806.00 L 307.00 806.00 L 307.00 820.83 C 307.00 828.99 307.30 835.97 307.67 836.34 C 308.04 836.70 400.17 836.89 512.42 836.75 L 716.50 836.50 L 716.78 821.25 Z M 444.36 782.25 C 442.36 779.64 439.91 775.62 438.92 773.31 C 435.45 765.24 433.92 750.98 435.94 745.66 C 438.59 738.68 446.00 736.85 451.08 741.92 C 453.78 744.63 454.00 745.40 454.00 752.24 C 454.00 765.21 458.62 773.74 468.27 778.64 C 472.56 780.81 474.37 781.15 480.04 780.83 C 489.07 780.32 495.07 776.65 499.39 769.00 L 502.50 763.50 L 503.00 631.16 L 503.50 498.82 L 505.86 496.91 C 509.44 494.01 515.50 494.36 518.54 497.63 L 520.98 500.27 L 521.24 631.88 C 521.49 758.83 521.57 763.64 523.40 767.32 C 527.73 776.05 535.68 780.96 545.50 780.96 C 552.74 780.96 558.06 778.72 563.19 773.52 C 570.57 766.05 569.99 782.59 570.62 563.50 C 571.18 367.14 571.19 366.49 573.22 364.30 C 576.03 361.27 580.20 360.53 583.86 362.43 C 585.52 363.29 587.24 364.55 587.69 365.24 C 588.13 365.93 588.72 397.85 589.00 436.18 C 589.49 504.92 589.53 505.89 591.59 508.68 C 594.43 512.50 599.49 515.81 603.71 516.61 C 611.76 518.11 621.70 511.54 623.94 503.22 C 624.75 500.22 624.99 477.33 624.79 423.26 C 624.52 352.12 624.39 347.20 622.63 342.50 C 618.02 330.18 608.25 320.49 595.78 315.88 L 589.50 313.56 L 518.04 313.23 C 473.50 313.03 443.43 313.28 438.24 313.92 C 422.47 315.85 409.97 324.51 403.61 337.94 L 400.50 344.50 L 400.21 422.50 C 400.05 465.40 400.18 501.97 400.51 503.76 C 400.83 505.56 402.75 508.75 404.80 510.90 C 412.86 519.37 425.22 518.37 432.41 508.68 C 434.47 505.89 434.51 504.91 435.00 436.34 L 435.50 366.83 L 438.77 363.92 C 442.44 360.64 444.77 360.31 449.01 362.51 C 450.96 363.51 452.28 365.25 453.01 367.76 C 453.77 370.38 454.00 408.92 453.80 496.84 L 453.50 622.17 L 450.69 624.59 C 445.65 628.93 438.24 627.00 436.07 620.78 C 435.48 619.09 435.00 611.92 435.00 604.85 L 435.00 592.00 L 408.65 592.00 C 382.96 592.00 382.21 592.06 378.95 594.25 C 377.11 595.49 374.76 597.95 373.73 599.72 C 371.94 602.78 371.83 607.28 371.29 693.39 C 370.98 743.13 371.00 784.55 371.33 785.42 C 371.87 786.82 376.21 787.00 409.96 787.00 L 447.99 787.00 L 444.36 782.25 Z M 652.50 695.00 C 652.50 605.30 652.46 603.43 650.50 600.10 C 649.40 598.24 647.23 595.76 645.68 594.60 C 643.00 592.61 641.50 592.49 615.96 592.20 L 589.05 591.91 L 588.78 678.70 C 588.50 765.26 588.49 765.51 586.32 770.81 C 585.12 773.74 582.29 778.58 580.03 781.58 L 575.92 787.02 L 614.21 786.76 L 652.50 786.50 L 652.50 695.00 Z M 498.64 277.48 C 481.14 273.06 466.79 260.08 459.97 242.50 C 456.58 233.77 456.51 216.38 459.81 206.81 C 466.33 187.96 481.72 174.69 502.04 170.41 C 529.78 164.57 558.14 182.61 565.43 210.72 C 569.64 226.96 565.37 245.50 554.16 259.67 C 549.43 265.66 538.48 273.22 530.32 276.14 C 522.65 278.88 506.83 279.54 498.64 277.48 Z M 522.07 259.41 C 539.02 254.46 550.42 237.90 548.64 220.85 C 547.36 208.57 539.39 197.05 528.28 191.43 C 522.98 188.74 521.63 188.50 512.00 188.51 C 502.98 188.51 500.83 188.85 496.72 190.88 C 481.65 198.34 472.96 214.94 476.01 230.43 C 477.57 238.39 480.22 243.47 485.85 249.33 C 495.69 259.55 508.95 263.25 522.07 259.41 Z" stroke-linecap="round"/>
</g>
</g>
</g>

  </svg>