<svg xmlns="http://www.w3.org/2000/svg" xmlns:xlink="http://www.w3.org/1999/xlink" width="2583px" height="2095px" viewBox="0 0 2583.47496723765 2095.2962254442473">
    <g id="f4ef36d5-69e0-4be6-aa41-27714dfdc548">
<g style="">
		<g id="f4ef36d5-69e0-4be6-aa41-27714dfdc548-child-0">
<path style="stroke: rgb(193,193,193); stroke-width: 0; stroke-dasharray: none; stroke-linecap: butt; stroke-dashoffset: 0; stroke-linejoin: miter; stroke-miterlimit: 4; fill: rgb(0,0,0); fill-rule: nonzero; opacity: 1;" transform="matrix(4.360658 0 0 4.360658 1291.737449 1047.648085) matrix(1 0 0 1 0 0)  translate(-512.324861, -511.75)" d="M 218.07 749.37 C 215.32 745.87 215.45 742.45 218.45 739.45 C 220.56 737.35 221.84 737.00 227.45 737.00 C 235.29 737.00 238.00 738.93 238.00 744.50 C 238.00 750.16 235.32 752.00 227.07 752.00 C 220.78 752.00 219.96 751.76 218.07 749.37 Z M 257.45 749.55 C 256.10 748.20 255.00 745.92 255.00 744.50 C 255.00 743.08 256.10 740.80 257.45 739.45 C 259.78 737.13 260.53 737.00 271.44 737.00 C 282.57 737.00 282.98 736.92 283.48 734.75 C 283.76 733.51 286.06 722.83 288.58 711.00 C 291.10 699.17 294.90 681.40 297.02 671.50 C 299.14 661.60 304.48 636.62 308.88 616.00 C 313.28 595.38 318.41 571.53 320.29 563.00 L 323.70 547.50 L 319.18 546.81 C 316.06 546.33 313.70 545.16 311.58 543.04 L 308.50 539.97 L 308.20 517.98 L 307.89 496.00 L 299.38 496.00 C 284.30 496.00 283.05 494.42 283.02 475.15 L 283.00 460.80 L 286.08 457.93 L 289.16 455.05 L 305.83 454.77 L 322.50 454.50 L 323.00 429.90 C 323.54 403.10 323.56 403.01 329.51 400.86 L 332.83 399.66 L 333.16 389.24 C 333.49 379.25 333.62 378.72 336.31 376.41 C 339.89 373.33 343.44 373.35 346.55 376.45 C 348.84 378.75 349.00 379.59 349.00 389.45 L 349.00 400.00 L 360.10 400.00 L 371.20 400.00 L 374.60 403.40 L 378.00 406.80 L 378.00 430.90 L 378.00 455.00 L 384.47 455.00 L 390.95 455.00 L 391.22 370.75 L 391.50 286.50 L 394.00 282.04 C 395.60 279.19 398.27 276.49 401.42 274.54 L 406.34 271.50 L 512.00 271.50 L 617.66 271.50 L 622.58 274.54 C 625.73 276.49 628.40 279.19 630.00 282.04 L 632.50 286.50 L 632.77 370.79 L 633.04 455.09 L 640.27 454.79 L 647.50 454.50 L 648.00 442.16 C 648.71 424.57 648.60 424.63 679.73 425.18 L 697.96 425.50 L 700.73 428.27 C 703.37 430.91 703.52 431.59 704.00 442.77 L 704.50 454.50 L 717.50 454.66 C 724.65 454.75 731.56 454.86 732.85 454.91 C 734.14 454.96 736.73 456.53 738.60 458.40 L 742.00 461.80 L 742.00 475.50 L 742.00 489.20 L 738.60 492.60 C 735.21 495.99 735.18 496.00 725.60 496.00 L 716.00 496.00 L 716.00 517.47 L 716.00 538.93 L 712.89 542.47 C 710.70 544.97 708.64 546.19 705.89 546.63 C 703.59 547.00 702.00 547.81 702.00 548.61 C 702.00 549.36 705.41 566.51 709.57 586.73 C 713.73 606.95 719.55 635.42 722.51 650.00 C 725.46 664.58 730.60 689.91 733.94 706.30 C 737.27 722.69 740.00 736.30 740.00 736.55 C 740.00 736.80 745.42 737.00 752.05 737.00 C 763.50 737.00 764.21 737.12 766.55 739.45 C 769.67 742.58 769.67 746.42 766.55 749.55 L 764.09 752.00 L 709.72 752.00 L 655.35 752.00 L 653.17 749.69 C 650.29 746.61 650.35 741.96 653.31 739.17 C 655.54 737.09 656.45 737.00 676.23 737.00 L 696.82 737.00 L 695.49 731.25 C 694.76 728.09 691.85 714.70 689.02 701.50 C 684.27 679.37 656.63 554.39 655.35 549.25 L 654.78 547.00 L 512.48 547.00 L 370.18 547.00 L 368.14 555.75 C 342.97 663.91 327.00 733.70 327.00 735.54 C 327.00 736.80 332.50 737.00 366.37 737.00 C 404.68 737.00 405.80 737.06 408.37 739.07 C 411.81 741.78 411.96 746.75 408.69 749.83 L 406.37 752.00 L 333.14 752.00 L 259.91 752.00 L 257.45 749.55 Z M 313.37 726.25 C 314.77 720.34 323.34 683.10 332.42 643.50 C 341.49 603.90 350.06 566.67 351.46 560.76 C 352.86 554.85 354.00 549.34 354.00 548.51 C 354.00 547.30 352.53 547.00 346.62 547.00 C 339.39 547.00 339.24 547.05 338.67 549.75 C 338.36 551.26 334.68 568.25 330.51 587.50 C 326.33 606.75 320.02 636.03 316.48 652.58 C 310.40 681.00 299.49 731.44 298.60 735.25 C 298.24 736.78 299.00 737.00 304.51 737.00 L 310.83 737.00 L 313.37 726.25 Z M 717.84 702.75 C 705.66 642.39 687.53 554.03 686.34 549.25 C 685.83 547.17 685.22 547.00 678.39 547.00 C 672.55 547.00 671.00 547.31 671.00 548.47 C 671.00 549.28 675.03 568.07 679.96 590.22 C 684.88 612.38 690.98 639.95 693.51 651.50 C 703.15 695.50 712.00 736.22 712.00 736.60 C 712.00 736.82 714.87 737.00 718.38 737.00 L 724.75 737.00 L 717.84 702.75 Z M 701.00 514.00 L 701.00 496.00 L 512.00 496.00 L 323.00 496.00 L 323.00 513.33 C 323.00 522.87 323.30 530.97 323.67 531.33 C 324.03 531.70 409.08 532.00 512.67 532.00 L 701.00 532.00 L 701.00 514.00 Z M 727.00 475.55 C 727.00 470.18 726.95 470.08 723.75 469.51 C 721.96 469.19 625.33 469.06 509.00 469.22 L 297.50 469.50 L 297.18 472.89 C 297.00 474.75 297.12 477.34 297.45 478.64 L 298.04 481.00 L 512.52 481.00 L 727.00 481.00 L 727.00 475.55 Z M 355.75 454.01 L 363.00 454.00 L 363.00 434.50 L 363.00 415.00 L 350.50 415.00 L 338.00 415.00 L 338.00 435.14 L 338.00 455.28 L 343.25 454.65 C 346.14 454.30 351.76 454.01 355.75 454.01 Z M 417.42 454.39 C 418.84 453.85 419.00 446.34 419.00 379.82 L 419.00 305.85 L 421.92 302.92 L 424.85 300.00 L 511.87 300.00 L 598.89 300.00 L 601.69 302.41 L 604.50 304.83 L 605.00 379.66 L 605.50 454.49 L 608.00 454.42 C 609.38 454.38 612.19 454.27 614.25 454.17 L 618.00 454.00 L 618.00 371.56 L 618.00 289.11 L 615.78 287.56 C 613.80 286.17 602.28 286.00 511.78 286.00 C 411.33 286.00 409.97 286.03 408.00 288.00 C 406.03 289.97 406.00 291.33 406.00 371.83 C 406.00 416.84 406.30 453.97 406.67 454.33 C 407.50 455.17 415.29 455.21 417.42 454.39 Z M 589.76 384.75 L 590.01 315.00 L 512.01 315.00 L 434.00 315.00 L 434.00 384.75 L 434.00 454.50 L 511.75 454.50 L 589.50 454.50 L 589.76 384.75 Z M 689.00 446.97 L 689.00 439.94 L 675.75 440.22 L 662.50 440.50 L 662.50 447.25 L 662.50 453.99 L 675.75 454.00 L 689.00 454.00 L 689.00 446.97 Z M 450.00 750.00 C 447.21 747.21 447.37 741.94 450.31 739.17 C 452.60 737.03 453.11 737.00 486.18 737.00 C 518.61 737.00 519.82 737.07 522.37 739.07 C 525.81 741.78 525.96 746.75 522.69 749.83 C 520.40 751.97 519.91 752.00 486.19 752.00 C 453.33 752.00 451.92 751.92 450.00 750.00 Z M 549.00 750.00 C 546.02 747.02 546.33 741.67 549.63 739.07 C 552.15 737.09 553.47 737.00 579.00 737.00 C 604.53 737.00 605.85 737.09 608.37 739.07 C 611.81 741.78 611.96 746.75 608.69 749.83 C 606.42 751.95 605.73 752.00 578.69 752.00 C 552.33 752.00 550.90 751.90 549.00 750.00 Z M 788.00 750.00 C 785.21 747.21 785.37 741.94 788.31 739.17 C 790.17 737.43 791.84 737.00 796.73 737.00 C 800.09 737.00 803.56 737.28 804.46 737.62 C 806.90 738.56 809.14 743.60 808.41 746.51 C 807.39 750.55 804.33 752.00 796.78 752.00 C 791.33 752.00 789.61 751.61 788.00 750.00 Z M 499.45 519.55 C 496.51 516.60 496.31 513.07 498.91 509.86 C 500.66 507.70 501.71 507.47 511.19 507.17 C 522.95 506.79 525.48 507.86 526.61 513.68 C 527.10 516.25 526.73 517.36 524.66 519.43 C 522.24 521.85 521.50 522.00 512.00 522.00 C 502.62 522.00 501.74 521.83 499.45 519.55 Z M 453.63 416.93 C 450.33 414.33 450.02 408.98 453.00 406.00 C 454.79 404.21 456.41 403.99 468.75 403.90 C 501.05 403.65 499.18 403.51 501.71 406.45 C 504.28 409.44 504.49 410.83 502.89 414.34 C 500.99 418.50 498.20 419.00 476.59 419.00 C 457.55 419.00 456.10 418.87 453.63 416.93 Z M 525.50 417.79 C 520.73 415.06 519.76 410.85 522.96 406.78 C 524.68 404.59 525.92 404.22 533.21 403.72 C 537.77 403.40 547.76 403.41 555.41 403.73 C 571.11 404.40 573.00 405.22 573.00 411.43 C 573.00 413.94 572.30 415.41 570.37 416.93 C 567.89 418.87 566.48 419.00 547.62 418.97 C 534.37 418.95 526.82 418.55 525.50 417.79 Z M 462.79 384.26 C 455.81 383.95 454.88 383.66 452.96 381.22 C 450.41 377.98 450.92 373.41 454.11 370.75 C 455.80 369.35 458.15 369.00 465.94 369.00 C 474.80 369.00 475.84 369.20 477.83 371.31 C 480.13 373.77 480.64 377.93 479.02 380.96 C 478.14 382.61 472.59 385.30 471.10 384.80 C 470.77 384.69 467.03 384.44 462.79 384.26 Z M 524.07 381.37 C 521.70 378.36 521.52 376.77 523.16 373.68 C 525.43 369.42 526.88 369.06 542.08 369.03 C 556.04 369.00 556.74 369.10 558.83 371.31 C 561.71 374.39 561.65 379.04 558.69 381.83 C 556.52 383.86 555.40 384.00 541.26 384.00 L 526.15 384.00 L 524.07 381.37 Z M 453.63 347.93 C 451.76 346.45 451.00 344.92 451.00 342.62 C 451.00 338.04 452.94 335.93 458.06 334.94 C 460.50 334.47 485.81 334.07 514.30 334.04 C 558.72 334.01 566.52 334.22 569.04 335.52 C 574.19 338.18 574.16 346.10 568.98 348.71 C 567.08 349.68 553.62 349.97 511.38 349.99 C 457.13 350.00 456.23 349.97 453.63 347.93 Z" stroke-linecap="round"/>
</g>
</g>
</g>

  </svg>