<svg xmlns="http://www.w3.org/2000/svg" xmlns:xlink="http://www.w3.org/1999/xlink" width="500px" height="187px" viewBox="0 0 499.9999999999998 186.97674331537286">
    <g id="64a67b6e-c210-4984-8234-536724df6d0b">
<g style="">
		<g id="64a67b6e-c210-4984-8234-536724df6d0b-child-0">
<path style="stroke: rgb(193,193,193); stroke-width: 0; stroke-dasharray: none; stroke-linecap: butt; stroke-dashoffset: 0; stroke-linejoin: miter; stroke-miterlimit: 4; fill: rgb(0,0,0); fill-rule: nonzero; opacity: 1;" transform="matrix(0.776098 0 0 0.776098 250.000016 93.488377) matrix(1 0 0 1 0 0)  translate(-512.624289, -511.546655)" d="M 219.33 631.22 C 218.64 630.78 218.03 627.24 217.86 622.62 C 217.64 616.61 217.21 614.66 216.03 614.31 C 206.37 611.38 197.85 604.45 193.30 595.81 L 190.50 590.50 L 190.50 531.00 L 190.50 471.50 L 193.93 465.17 C 199.42 455.04 208.26 448.84 219.90 446.93 C 226.45 445.86 235.49 447.19 241.10 450.05 L 244.80 451.94 L 245.17 435.22 C 245.51 419.43 245.69 418.17 248.32 412.50 C 251.93 404.70 258.73 397.86 266.39 394.32 L 272.50 391.50 L 336.45 391.21 C 398.42 390.94 400.62 390.99 407.13 392.97 C 412.28 394.54 415.15 396.20 419.43 400.11 L 425.00 405.20 L 430.46 400.21 C 440.39 391.13 436.55 391.57 509.95 391.23 C 572.49 390.94 574.61 390.99 581.15 392.98 C 586.24 394.52 589.17 396.20 593.14 399.85 L 598.39 404.68 L 604.34 399.88 C 615.23 391.11 611.06 391.57 683.00 391.21 C 739.74 390.92 747.16 391.06 752.74 392.55 C 764.44 395.67 774.14 405.01 777.52 416.39 C 778.54 419.83 779.00 426.07 779.00 436.63 L 779.00 451.89 L 784.75 449.22 C 789.55 446.98 791.90 446.54 799.00 446.53 C 806.44 446.52 808.31 446.91 814.00 449.61 C 821.55 453.19 827.95 459.20 831.07 465.65 C 834.51 472.74 835.04 483.38 834.63 536.93 C 834.21 592.30 834.23 592.19 827.10 601.63 C 823.37 606.58 814.93 612.43 809.50 613.84 C 806.52 614.61 806.50 614.68 806.00 623.06 L 805.50 631.50 L 798.00 631.50 L 790.50 631.50 L 790.21 623.25 L 789.92 615.00 L 771.96 615.00 L 754.00 615.00 L 754.00 622.38 C 754.00 631.57 753.37 632.19 744.34 631.80 L 737.50 631.50 L 737.21 623.25 L 736.92 615.00 L 511.96 615.00 L 287.00 615.00 L 287.00 622.89 C 287.00 629.17 286.68 630.91 285.42 631.39 C 282.62 632.47 272.44 632.04 271.20 630.80 C 270.49 630.09 270.00 626.64 270.00 622.30 L 270.00 615.00 L 252.00 615.00 L 234.00 615.00 L 234.00 622.89 C 234.00 629.17 233.68 630.91 232.42 631.39 C 230.20 632.25 220.74 632.12 219.33 631.22 Z M 809.04 596.98 C 811.22 595.87 814.24 593.09 815.75 590.80 L 818.50 586.65 L 818.80 533.07 C 819.01 496.25 818.76 478.32 818.01 475.73 C 813.26 459.44 789.51 457.33 781.59 472.50 C 779.61 476.28 779.47 478.46 779.00 512.50 L 778.50 548.50 L 775.71 554.19 C 772.29 561.14 763.89 569.09 757.29 571.62 C 752.86 573.32 747.74 573.48 690.00 573.79 C 645.78 574.03 625.75 573.79 621.50 572.97 C 614.15 571.57 607.41 568.03 602.50 563.00 L 598.80 559.21 L 595.29 563.10 C 593.36 565.23 588.81 568.45 585.16 570.24 L 578.54 573.50 L 512.00 573.50 L 445.46 573.50 L 438.77 570.21 C 434.97 568.34 430.66 565.25 428.78 563.05 L 425.47 559.19 L 420.64 564.06 C 417.65 567.08 413.68 569.79 410.16 571.21 L 404.50 573.50 L 337.98 573.50 L 271.46 573.50 L 264.77 570.21 C 257.14 566.45 252.02 561.16 248.13 553.00 L 245.50 547.50 L 245.00 512.00 C 244.42 471.12 244.41 471.04 235.48 465.50 C 231.44 462.99 229.62 462.50 224.38 462.52 C 219.06 462.53 217.49 462.98 213.90 465.52 C 211.58 467.16 208.74 470.30 207.59 472.50 C 205.54 476.41 205.50 477.67 205.50 531.00 C 205.50 593.10 205.18 590.62 213.87 596.13 L 218.39 599.00 L 511.74 599.00 C 804.06 599.00 805.09 598.99 809.04 596.98 Z M 406.04 555.70 C 411.61 552.75 415.38 546.24 414.68 540.78 C 413.96 535.23 410.31 530.04 405.60 527.90 C 401.74 526.15 397.76 526.04 338.00 526.04 L 274.50 526.03 L 270.59 528.27 C 264.50 531.75 262.50 535.15 262.50 542.00 C 262.50 549.08 264.60 552.47 271.02 555.75 L 275.42 558.00 L 338.55 558.00 L 401.69 558.00 L 406.04 555.70 Z M 578.98 555.75 C 585.40 552.47 587.50 549.08 587.50 542.00 C 587.50 534.92 585.40 531.53 578.98 528.25 L 574.58 526.00 L 512.00 526.00 L 449.42 526.00 L 444.96 528.25 C 440.16 530.67 436.00 537.05 436.00 542.00 C 436.00 546.95 440.16 553.33 444.96 555.75 L 449.42 558.00 L 512.00 558.00 L 574.58 558.00 L 578.98 555.75 Z M 753.03 555.75 C 764.38 550.02 765.21 536.40 754.68 528.59 C 751.89 526.53 751.01 526.50 687.68 526.23 L 623.50 525.95 L 619.00 528.23 C 614.16 530.67 610.00 537.04 610.00 542.00 C 610.00 546.95 614.16 553.33 618.96 555.75 L 623.42 558.00 L 686.00 558.00 L 748.58 558.00 L 753.03 555.75 Z M 590.01 422.05 C 588.49 416.38 584.99 411.91 580.05 409.30 L 575.61 406.96 L 510.98 407.23 L 446.35 407.50 L 442.30 410.18 C 439.75 411.87 437.36 414.66 435.87 417.68 L 433.50 422.50 L 433.20 469.25 C 433.04 494.96 433.11 516.00 433.35 516.00 C 433.60 516.00 436.21 514.88 439.15 513.51 L 444.50 511.02 L 512.07 511.01 L 579.64 511.00 L 585.07 513.75 L 590.50 516.50 L 590.76 471.14 C 590.92 442.95 590.64 424.37 590.01 422.05 Z M 685.89 511.02 C 751.09 511.04 753.66 511.11 757.86 513.02 C 760.26 514.11 762.62 515.00 763.11 515.00 C 764.44 515.00 764.24 426.43 762.90 421.50 C 761.37 415.90 757.45 411.11 752.62 408.91 C 748.74 407.15 744.87 407.04 685.41 407.02 L 622.31 407.00 L 617.91 409.33 C 615.48 410.61 612.15 413.57 610.50 415.91 L 607.50 420.17 L 607.22 468.44 L 606.95 516.72 L 612.61 513.86 L 618.28 511.00 L 685.89 511.02 Z M 338.42 511.01 L 406.50 511.02 L 411.85 513.51 C 414.79 514.88 417.40 516.00 417.64 516.00 C 417.88 516.00 417.95 494.96 417.79 469.25 C 417.51 423.58 417.45 422.41 415.35 418.50 C 412.65 413.48 409.51 410.53 404.77 408.55 C 401.56 407.21 392.69 407.00 338.35 407.00 C 276.48 407.00 275.57 407.03 271.25 409.12 C 268.61 410.40 265.80 412.86 264.18 415.30 L 261.50 419.35 L 261.22 467.55 L 260.94 515.76 L 265.64 513.38 L 270.34 511.00 L 338.42 511.01 Z" stroke-linecap="round"/>
</g>
</g>
</g>

  </svg>