<svg xmlns="http://www.w3.org/2000/svg" xmlns:xlink="http://www.w3.org/1999/xlink" width="358px" height="500px" viewBox="0 0 357.99790854037633 500">
    <g id="d6147a95-3341-4487-9086-36c63653578a">
<g style="">
		<g id="d6147a95-3341-4487-9086-36c63653578a-child-0">
<path style="stroke: rgb(193,193,193); stroke-width: 0; stroke-dasharray: none; stroke-linecap: butt; stroke-dashoffset: 0; stroke-linejoin: miter; stroke-miterlimit: 4; fill: rgb(0,0,0); fill-rule: nonzero; opacity: 1;" transform="matrix(1.046276 0 0 1.046276 178.99896 250.000008) matrix(1 0 0 1 0 0)  translate(-512.171806, -511.942695)" d="M 379.50 749.96 C 365.35 747.06 351.87 737.51 346.18 726.36 C 341.25 716.69 340.84 713.02 341.18 681.26 C 341.50 651.54 341.50 651.49 344.11 646.00 C 347.30 639.31 351.69 633.73 356.98 629.66 L 360.96 626.61 L 355.60 621.83 C 349.03 615.98 344.68 609.32 342.53 601.80 C 341.14 596.98 340.94 591.56 341.19 566.30 L 341.50 536.50 L 344.75 529.64 C 346.98 524.94 349.91 520.94 354.10 516.91 L 360.20 511.03 L 354.61 505.92 C 350.68 502.34 347.90 498.55 345.26 493.21 L 341.50 485.60 L 341.50 453.55 L 341.50 421.50 L 344.19 415.76 C 347.70 408.28 350.86 404.23 356.48 400.02 L 361.06 396.58 L 355.06 391.24 C 350.60 387.27 348.08 383.92 345.28 378.25 L 341.50 370.60 L 341.50 338.55 L 341.50 306.50 L 344.70 299.74 C 350.60 287.28 361.83 278.10 375.54 274.53 C 380.68 273.19 398.03 273.00 512.60 273.00 C 640.64 273.00 643.94 273.05 650.22 274.99 C 663.09 278.96 673.79 288.05 679.19 299.60 C 683.26 308.30 683.62 312.42 683.02 344.00 L 682.50 371.50 L 679.07 378.34 C 676.70 383.06 673.74 386.91 669.48 390.79 L 663.32 396.40 L 669.21 401.85 C 675.66 407.82 679.39 413.48 681.71 420.76 C 683.62 426.78 683.82 479.23 681.96 486.14 C 679.49 495.31 671.77 506.40 665.51 509.77 C 663.67 510.77 663.97 511.28 669.74 516.90 C 676.13 523.14 679.94 529.35 681.95 536.81 C 682.70 539.59 683.08 550.99 683.03 569.44 C 682.97 594.70 682.75 598.40 681.04 603.38 C 678.58 610.53 674.22 616.83 668.10 622.11 L 663.24 626.29 L 669.61 632.25 C 677.11 639.27 681.63 647.61 682.75 656.50 C 683.16 659.80 683.28 674.65 683.00 689.50 L 682.50 716.50 L 679.28 723.29 C 672.83 736.91 658.80 747.69 644.50 750.01 C 637.15 751.21 385.34 751.16 379.50 749.96 Z M 648.05 730.39 C 654.43 727.44 659.67 722.54 662.81 716.59 L 665.50 711.50 L 665.50 684.00 L 665.50 656.50 L 662.53 651.14 C 660.90 648.19 657.80 644.27 655.64 642.42 C 647.63 635.57 656.56 635.95 510.46 636.24 C 381.53 636.49 378.41 636.55 374.53 638.47 C 369.13 641.15 363.24 647.25 360.65 652.85 C 358.62 657.24 358.50 658.98 358.50 684.50 C 358.50 710.86 358.56 711.61 360.84 716.00 C 365.06 724.13 371.42 729.33 379.95 731.65 C 383.47 732.60 413.78 732.84 514.00 732.69 C 643.36 732.50 643.50 732.50 648.05 730.39 Z M 649.00 614.14 C 655.14 610.93 659.67 606.46 662.84 600.50 L 665.50 595.50 L 665.50 568.50 C 665.50 537.74 665.40 537.31 656.70 529.29 C 647.39 520.71 662.12 521.53 513.22 521.24 L 380.94 520.97 L 375.95 523.12 C 369.64 525.83 361.78 534.26 359.61 540.64 C 357.29 547.45 357.27 589.19 359.59 596.99 C 361.74 604.22 370.52 613.18 377.59 615.36 C 381.88 616.69 399.00 616.85 513.50 616.69 L 644.50 616.50 L 649.00 614.14 Z M 646.19 500.67 C 652.15 498.36 659.24 492.14 662.77 486.15 L 665.50 481.50 L 665.81 456.72 C 666.20 426.05 665.67 423.50 657.18 415.05 C 647.26 405.18 659.74 405.93 510.00 406.24 C 379.53 406.50 379.50 406.50 374.93 408.61 C 369.21 411.26 363.36 417.14 360.61 423.00 C 358.63 427.22 358.50 429.12 358.50 454.00 C 358.50 480.20 358.53 480.55 360.97 485.33 C 365.11 493.43 374.09 500.11 383.34 501.97 C 385.63 502.43 444.65 502.74 514.50 502.65 C 634.79 502.50 641.75 502.40 646.19 500.67 Z M 647.50 385.20 C 654.53 381.97 661.58 374.73 664.01 368.24 C 665.79 363.48 666.00 360.43 666.00 339.00 C 666.00 317.54 665.79 314.53 664.00 309.74 C 661.62 303.36 655.29 296.56 649.00 293.61 L 644.50 291.50 L 511.50 291.50 L 378.50 291.50 L 373.08 294.50 C 369.92 296.25 366.27 299.38 364.33 302.00 C 358.67 309.67 358.00 313.61 358.00 339.50 C 358.00 366.30 358.57 369.08 365.73 377.04 C 370.86 382.75 376.21 385.85 382.92 387.00 C 385.44 387.44 444.88 387.73 515.00 387.65 L 642.50 387.50 L 647.50 385.20 Z M 610.41 714.62 C 601.41 712.39 594.62 706.83 589.76 697.72 C 587.88 694.19 587.51 691.94 587.51 684.00 C 587.51 676.06 587.88 673.81 589.76 670.28 C 593.29 663.66 597.66 659.32 603.82 656.29 C 608.69 653.90 610.71 653.50 618.00 653.51 C 624.91 653.52 627.30 653.95 630.80 655.81 C 637.14 659.18 642.81 664.72 645.78 670.44 C 649.44 677.50 649.63 690.20 646.19 697.19 C 639.56 710.65 624.31 718.08 610.41 714.62 Z M 624.70 696.04 C 634.40 690.13 633.69 676.93 623.41 671.95 C 608.85 664.91 597.05 683.67 609.15 694.62 C 610.44 695.79 612.17 696.99 613.00 697.29 C 616.24 698.48 621.65 697.90 624.70 696.04 Z M 386.33 711.54 C 382.50 709.88 381.00 707.34 381.00 702.52 C 381.00 700.06 381.75 698.16 383.36 696.55 C 386.37 693.54 395.02 692.64 415.86 693.14 C 429.20 693.47 431.18 693.74 433.68 695.61 C 439.61 700.03 438.77 707.87 432.00 711.25 C 429.02 712.74 425.61 712.99 409.00 712.96 C 394.69 712.93 388.66 712.55 386.33 711.54 Z M 462.50 712.05 C 456.11 709.44 454.34 700.69 459.33 696.39 C 462.23 693.90 462.66 693.86 486.50 693.86 C 507.33 693.86 506.96 693.81 510.08 696.92 C 515.28 702.13 513.23 710.01 506.15 711.98 C 501.83 713.17 465.40 713.24 462.50 712.05 Z M 538.48 711.60 C 528.93 707.44 532.94 693.00 543.65 693.00 C 547.11 693.00 553.00 698.95 553.00 702.45 C 553.00 706.61 550.37 710.68 546.88 711.89 C 542.94 713.27 542.24 713.24 538.48 711.60 Z M 385.30 673.80 C 382.36 672.38 379.77 666.75 380.58 663.54 C 380.93 662.14 382.55 659.87 384.19 658.50 C 387.15 656.00 387.16 656.00 409.00 656.00 L 430.85 656.00 L 433.92 658.59 C 436.47 660.73 436.99 661.90 436.97 665.34 C 436.93 669.83 435.74 672.01 432.32 673.84 C 429.47 675.35 388.45 675.32 385.30 673.80 Z M 461.11 673.60 C 455.33 670.40 454.58 664.22 459.40 659.40 L 462.80 656.00 L 484.82 656.00 L 506.85 656.00 L 509.92 658.59 C 514.20 662.19 514.27 667.89 510.08 672.08 L 507.15 675.00 L 485.33 674.96 C 469.13 674.94 462.88 674.59 461.11 673.60 Z M 607.88 598.68 C 594.90 593.83 587.98 584.59 587.23 571.11 C 586.47 557.50 592.63 546.78 604.50 541.03 C 611.30 537.75 623.31 537.59 630.18 540.70 C 636.76 543.69 643.37 550.14 646.11 556.27 C 649.25 563.29 649.33 574.42 646.28 581.18 C 643.62 587.10 636.79 594.55 631.54 597.26 C 626.44 599.89 613.25 600.68 607.88 598.68 Z M 623.93 581.25 C 628.80 578.77 631.16 575.09 631.24 569.89 C 631.34 563.55 628.74 559.21 623.43 556.87 C 616.18 553.66 609.02 556.19 605.37 563.25 C 603.38 567.11 604.02 574.25 606.63 577.18 C 611.72 582.91 617.85 584.35 623.93 581.25 Z M 388.02 597.03 C 386.11 596.55 383.75 595.17 382.77 593.97 C 380.17 590.75 380.47 584.73 383.41 581.31 L 385.82 578.50 L 407.36 578.18 C 425.71 577.91 429.41 578.10 432.36 579.50 C 438.91 582.61 439.60 590.97 433.67 595.40 C 431.06 597.35 429.44 597.51 411.18 597.70 C 400.35 597.81 389.94 597.51 388.02 597.03 Z M 463.00 596.69 C 455.93 594.28 454.42 585.01 460.38 580.57 C 462.89 578.69 464.82 578.47 481.17 578.15 C 491.08 577.96 501.23 578.11 503.72 578.48 C 509.79 579.39 513.00 582.63 513.00 587.84 C 513.00 592.89 510.58 595.85 505.50 597.03 C 499.62 598.39 467.22 598.13 463.00 596.69 Z M 539.39 597.03 C 532.87 594.36 531.03 585.81 535.92 580.92 C 540.20 576.65 545.06 576.86 549.73 581.53 C 552.85 584.65 553.18 585.48 552.66 588.72 C 551.64 595.02 544.85 599.27 539.39 597.03 Z M 385.50 558.79 C 382.27 556.94 381.07 554.75 381.03 550.67 C 381.01 547.75 381.69 546.15 383.92 543.92 L 386.85 541.00 L 408.47 541.00 C 432.76 541.00 435.02 541.50 436.93 547.29 C 438.41 551.76 436.69 556.59 432.94 558.53 C 429.31 560.41 388.71 560.63 385.50 558.79 Z M 459.50 557.59 C 456.34 554.43 455.47 550.69 457.03 546.93 C 459.28 541.49 461.63 541.00 485.37 541.00 L 506.85 541.00 L 509.92 543.59 C 512.47 545.73 512.99 546.90 512.97 550.34 C 512.95 552.63 512.39 555.21 511.72 556.09 C 508.99 559.63 506.41 560.00 484.02 560.00 C 461.98 560.00 461.90 559.99 459.50 557.59 Z M 609.00 484.06 C 600.69 481.53 593.99 475.90 589.86 468.00 C 586.59 461.73 586.48 447.74 589.65 440.85 C 592.40 434.91 598.23 429.08 604.54 425.99 C 611.98 422.35 623.41 422.47 631.16 426.28 C 637.68 429.48 643.30 435.25 646.35 441.88 C 649.58 448.88 649.30 460.75 645.75 467.61 C 642.41 474.06 634.38 481.34 628.32 483.41 C 623.48 485.06 613.37 485.40 609.00 484.06 Z M 623.32 466.88 C 627.35 464.80 630.01 461.66 631.07 457.75 C 632.46 452.58 630.90 447.99 626.40 444.05 C 618.05 436.72 604.01 442.96 604.01 454.00 C 604.01 463.42 615.35 470.98 623.32 466.88 Z M 391.34 482.20 C 387.36 481.97 385.58 481.31 383.59 479.31 C 378.18 473.91 381.32 464.97 389.14 463.50 C 390.99 463.16 401.35 463.01 412.17 463.19 C 431.22 463.49 431.92 463.57 434.34 465.84 C 435.71 467.13 437.10 469.27 437.43 470.59 C 438.18 473.56 435.80 479.50 433.33 480.82 C 431.52 481.79 401.33 482.78 391.34 482.20 Z M 460.75 480.92 C 458.00 479.32 455.79 474.21 456.49 471.05 C 456.83 469.51 458.24 467.18 459.63 465.88 C 462.10 463.55 462.64 463.49 483.19 463.18 C 505.42 462.83 508.71 463.32 511.54 467.36 C 513.81 470.61 513.34 475.44 510.41 478.92 L 507.82 482.00 L 485.16 481.97 C 471.64 481.95 461.79 481.53 460.75 480.92 Z M 535.59 478.92 C 528.34 470.30 537.74 459.19 547.85 464.43 C 553.49 467.34 554.58 474.57 550.08 479.08 C 547.71 481.44 546.29 482.00 542.67 482.00 C 538.88 482.00 537.77 481.52 535.59 478.92 Z M 384.08 442.41 C 379.80 438.81 379.73 433.11 383.92 428.92 L 386.85 426.00 L 408.38 426.00 C 422.35 426.00 430.78 426.40 432.40 427.14 C 436.26 428.89 438.40 434.25 436.98 438.56 C 435.01 444.52 432.89 445.00 408.63 445.00 L 387.15 445.00 L 384.08 442.41 Z M 460.83 443.47 C 457.28 441.54 455.60 436.45 457.09 432.16 C 459.07 426.50 461.39 426.00 485.53 426.00 L 507.15 426.00 L 510.08 428.92 C 512.24 431.09 513.00 432.79 513.00 435.50 C 513.00 438.21 512.24 439.91 510.08 442.08 L 507.15 445.00 L 485.33 444.96 C 468.22 444.93 462.92 444.61 460.83 443.47 Z M 609.50 369.67 C 595.88 365.18 587.00 353.44 587.00 339.93 C 587.00 327.26 592.52 317.68 603.10 312.00 C 608.84 308.92 610.33 308.56 617.50 308.53 C 624.26 308.51 626.37 308.93 631.16 311.28 C 637.69 314.49 643.31 320.26 646.35 326.88 C 649.32 333.35 649.32 345.65 646.35 352.12 C 641.43 362.83 631.24 369.91 619.76 370.61 C 616.20 370.82 611.78 370.42 609.50 369.67 Z M 626.97 349.25 C 631.90 344.30 632.87 339.43 630.08 333.66 C 627.58 328.51 623.58 326.00 617.85 326.00 C 612.29 326.01 607.31 329.01 605.44 333.49 C 601.15 343.75 607.28 352.99 618.37 353.00 C 622.66 353.00 623.67 352.56 626.97 349.25 Z M 386.50 367.08 C 380.36 364.49 378.49 356.30 382.95 351.56 L 385.35 349.00 L 408.62 349.00 C 431.72 349.00 431.91 349.02 434.67 351.39 C 438.58 354.76 438.60 360.86 434.71 364.75 L 431.96 367.50 L 410.23 367.71 C 398.28 367.83 387.60 367.55 386.50 367.08 Z M 462.39 367.05 C 461.23 366.56 459.27 364.89 458.05 363.33 C 455.19 359.70 455.83 354.46 459.52 351.25 C 462.04 349.06 462.70 349.00 484.92 349.00 L 507.73 349.00 L 510.36 351.64 C 513.88 355.15 513.97 360.76 510.59 364.69 L 508.18 367.50 L 486.34 367.71 C 474.33 367.83 463.55 367.53 462.39 367.05 Z M 535.92 365.08 C 531.00 360.16 532.09 352.56 538.15 349.42 C 546.29 345.21 555.47 353.62 551.97 362.07 C 549.38 368.33 540.79 369.94 535.92 365.08 Z M 383.64 327.36 C 380.12 323.85 380.03 318.24 383.41 314.31 L 385.83 311.50 L 409.00 311.50 L 432.17 311.50 L 434.59 314.31 C 438.20 318.50 437.92 324.05 433.92 327.41 L 430.85 330.00 L 408.56 330.00 L 386.27 330.00 L 383.64 327.36 Z M 460.75 328.92 C 458.00 327.32 455.79 322.21 456.49 319.05 C 456.83 317.51 458.24 315.18 459.63 313.88 C 462.10 311.55 462.62 311.49 483.23 311.19 C 505.47 310.87 508.73 311.35 511.54 315.36 C 513.30 317.88 513.40 323.89 511.72 326.09 C 508.99 329.64 506.42 330.00 484.32 329.97 C 471.37 329.95 461.79 329.52 460.75 328.92 Z" stroke-linecap="round"/>
</g>
</g>
</g>

  </svg>