<svg xmlns="http://www.w3.org/2000/svg" xmlns:xlink="http://www.w3.org/1999/xlink" width="500px" height="383px" viewBox="0 0 500 382.71347856802686">
    <g id="aaee51c0-a581-46c7-8246-9fc985602339">
<g style="">
		<g id="aaee51c0-a581-46c7-8246-9fc985602339-child-0">
<path style="stroke: rgb(193,193,193); stroke-width: 0; stroke-dasharray: none; stroke-linecap: butt; stroke-dashoffset: 0; stroke-linejoin: miter; stroke-miterlimit: 4; fill: rgb(0,0,0); fill-rule: nonzero; opacity: 1;" transform="matrix(0.784902 0 0 0.784902 250.000097 191.356813) matrix(1 0 0 1 0 0)  translate(-512.489316, -511.182923)" d="M 238.22 753.74 C 233.76 752.32 226.36 745.63 223.90 740.81 C 222.59 738.25 221.68 733.92 221.30 728.39 L 220.70 719.92 L 214.87 715.83 C 194.59 701.60 188.09 673.54 199.74 650.53 C 203.13 643.84 213.22 633.99 220.13 630.62 C 231.20 625.24 233.30 625.02 275.75 625.01 L 315.00 625.00 L 315.00 608.62 L 315.00 592.23 L 304.88 591.83 C 294.96 591.43 294.71 591.36 291.88 588.19 C 286.75 582.46 288.52 573.41 295.22 571.07 C 296.91 570.48 302.06 570.00 306.65 570.00 L 315.00 570.00 L 315.00 563.15 L 315.00 556.30 L 301.25 555.62 C 293.69 555.24 284.62 554.26 281.10 553.44 C 268.09 550.43 257.17 542.19 251.59 531.17 C 249.13 526.32 233.92 467.59 229.01 444.00 C 224.97 424.55 225.26 408.91 230.10 385.00 C 238.08 345.68 257.81 322.93 291.22 314.52 C 311.61 309.40 344.26 308.67 361.00 312.97 C 371.61 315.70 384.57 321.69 391.11 326.90 C 393.85 329.08 399.39 334.64 403.42 339.25 C 413.00 350.20 418.18 354.63 425.50 358.09 C 434.22 362.21 442.42 364.11 451.50 364.12 C 457.94 364.12 508.50 358.63 616.00 346.25 L 622.50 345.50 L 623.00 331.95 C 623.55 316.99 624.40 314.56 630.30 310.96 C 632.99 309.32 635.37 309.01 645.25 309.00 L 657.00 309.00 L 657.00 292.45 C 657.00 273.60 657.77 270.83 663.67 268.36 C 668.23 266.46 671.98 267.32 675.61 271.11 L 678.50 274.13 L 678.81 291.56 L 679.13 309.00 L 690.33 309.00 C 708.89 309.00 712.00 311.95 712.12 329.63 C 712.22 345.94 711.94 345.27 720.57 349.37 C 735.06 356.25 749.64 369.01 757.11 381.34 L 760.50 386.94 L 771.25 386.97 L 782.00 387.00 L 782.00 380.37 C 782.00 372.29 784.33 367.89 790.21 364.89 C 793.77 363.08 795.70 362.89 807.44 363.17 C 820.24 363.49 820.78 363.59 824.44 366.38 C 831.19 371.54 831.00 369.54 831.00 434.82 L 831.00 493.70 L 828.73 497.08 C 827.48 498.93 824.93 501.48 823.08 502.73 C 820.00 504.80 818.57 505.00 806.75 505.00 C 792.19 505.00 788.52 503.94 784.73 498.63 C 782.95 496.13 782.40 493.69 782.00 486.50 L 781.50 477.50 L 776.00 477.50 L 770.50 477.50 L 770.25 590.50 L 769.99 703.50 L 774.75 707.00 C 790.40 718.52 787.47 744.29 769.56 752.63 L 764.50 754.98 L 503.00 754.89 C 322.95 754.82 240.48 754.47 238.22 753.74 Z M 761.17 732.35 C 763.56 730.18 763.61 726.01 761.25 725.96 C 760.29 725.94 643.29 725.83 501.25 725.71 L 243.00 725.50 L 243.00 728.55 C 243.00 730.23 243.54 732.14 244.20 732.80 C 245.13 733.73 303.84 734.00 502.37 734.00 C 740.08 734.00 759.48 733.88 761.17 732.35 Z M 748.77 558.25 L 748.50 412.50 L 745.70 405.50 C 741.82 395.78 735.90 387.07 728.43 380.08 C 720.41 372.58 711.96 367.85 700.50 364.45 C 683.96 359.55 682.33 359.67 516.71 378.53 C 485.48 382.09 455.73 385.00 450.59 385.00 C 438.61 385.00 424.99 381.63 413.78 375.90 C 406.57 372.21 403.63 369.77 391.00 356.98 C 378.09 343.91 371.43 338.00 369.60 338.00 C 369.27 338.00 368.99 367.81 368.98 404.25 C 368.96 474.99 368.75 478.61 363.96 488.14 C 358.75 498.52 350.84 506.49 340.34 511.95 L 336.18 514.11 L 336.34 524.24 L 336.50 534.37 L 342.82 534.11 C 356.19 533.57 367.11 529.01 374.36 520.95 C 379.55 515.17 383.18 508.13 388.38 493.75 C 394.36 477.22 397.79 471.25 406.00 462.97 C 417.90 450.98 429.65 445.98 446.00 445.94 C 458.84 445.91 534.99 456.40 545.22 459.61 C 565.53 465.97 579.23 476.87 587.44 493.18 C 591.78 501.82 593.45 511.69 592.65 524.00 C 591.90 535.53 591.80 535.92 576.92 584.26 C 570.37 605.57 565.00 623.46 565.00 624.01 C 565.00 624.62 571.12 625.00 581.10 625.00 L 597.20 625.00 L 600.60 628.40 C 605.70 633.50 604.91 640.26 598.77 644.00 C 595.53 645.97 593.64 645.99 417.93 646.00 C 221.85 646.00 234.64 645.58 225.80 652.32 C 223.08 654.40 220.32 657.89 218.26 661.88 C 211.51 674.92 214.94 689.06 227.09 698.27 C 234.99 704.26 215.60 703.85 493.77 703.93 L 749.03 704.00 L 748.77 558.25 Z M 553.76 587.50 C 570.45 532.73 571.39 529.06 571.45 518.48 C 571.50 510.27 571.21 508.86 568.26 502.87 C 564.38 494.99 557.64 488.36 549.18 484.09 C 537.83 478.36 534.31 477.70 468.50 469.06 C 444.03 465.85 439.58 466.01 430.45 470.48 C 424.47 473.41 417.20 480.73 413.94 487.11 C 412.71 489.52 409.94 496.43 407.79 502.46 C 401.53 520.02 396.74 528.39 387.95 537.15 C 376.26 548.79 364.15 553.89 344.25 555.57 L 336.00 556.26 L 336.00 589.96 C 336.00 608.50 336.30 623.97 336.67 624.34 C 337.04 624.71 383.50 624.89 439.91 624.75 L 542.48 624.50 L 553.76 587.50 Z M 315.00 433.38 L 315.00 331.77 L 309.25 332.45 C 280.16 335.86 263.36 348.96 254.44 375.16 C 248.16 393.63 245.61 418.42 248.45 433.50 C 250.29 443.33 267.16 511.68 269.56 519.09 C 271.37 524.64 274.85 528.15 281.50 531.13 C 285.52 532.93 289.13 533.50 300.00 534.02 C 307.42 534.38 313.84 534.74 314.25 534.84 C 314.66 534.93 315.00 489.27 315.00 433.38 Z M 346.02 475.21 C 347.91 469.07 348.00 465.76 348.00 400.51 L 348.00 332.23 L 345.75 331.63 C 344.51 331.30 341.81 331.02 339.75 331.01 L 336.00 331.00 L 336.00 408.42 C 336.00 451.00 336.30 486.63 336.68 487.60 C 337.80 490.54 343.70 482.72 346.02 475.21 Z M 810.00 434.00 L 810.00 384.00 L 806.00 384.00 L 802.00 384.00 L 802.00 433.33 C 802.00 460.47 802.30 482.97 802.67 483.33 C 803.03 483.70 804.83 484.00 806.67 484.00 L 810.00 484.00 L 810.00 434.00 Z M 781.00 432.00 L 781.00 408.00 L 774.87 408.00 L 768.74 408.00 L 769.36 411.75 C 769.70 413.81 769.98 424.61 769.99 435.75 L 770.00 456.00 L 775.50 456.00 L 781.00 456.00 L 781.00 432.00 Z M 677.25 340.50 L 691.00 340.50 L 691.00 335.39 L 691.00 330.28 L 667.75 330.39 L 644.50 330.50 L 644.20 336.37 L 643.89 342.25 L 653.70 341.37 C 659.09 340.89 669.69 340.50 677.25 340.50 Z M 274.11 677.10 C 268.70 672.05 269.93 663.68 276.55 660.55 C 281.38 658.25 416.56 658.21 420.99 660.49 C 427.68 663.95 429.17 671.98 424.08 677.08 L 421.15 680.00 L 349.18 680.00 L 277.21 680.00 L 274.11 677.10 Z M 659.19 631.98 C 648.96 629.29 642.88 625.68 635.55 617.91 C 616.16 597.35 616.00 567.97 635.18 547.47 C 655.73 525.50 690.80 526.16 711.23 548.90 C 736.87 577.45 721.79 623.53 683.90 632.46 C 675.45 634.45 668.10 634.31 659.19 631.98 Z M 683.50 610.91 C 687.13 609.56 690.78 607.13 693.95 603.95 C 713.01 584.90 699.58 552.77 672.50 552.65 C 648.26 552.53 633.57 579.98 647.43 599.48 C 655.92 611.42 670.12 615.92 683.50 610.91 Z M 658.50 490.13 C 632.26 482.59 616.49 456.44 622.12 429.80 C 626.39 409.63 643.40 393.51 664.15 389.96 C 690.18 385.51 715.78 402.41 722.47 428.46 C 725.49 440.20 724.08 451.29 718.02 463.62 C 711.49 476.92 699.42 486.83 685.31 490.51 C 677.82 492.46 666.02 492.29 658.50 490.13 Z M 682.02 469.31 C 688.98 467.06 696.99 459.73 700.08 452.77 C 705.07 441.56 702.44 427.76 693.69 419.20 C 687.45 413.09 681.10 410.58 672.00 410.64 C 663.09 410.70 657.21 413.09 650.92 419.20 C 644.67 425.26 642.52 430.83 642.51 441.00 C 642.50 448.66 642.80 450.04 645.60 455.00 C 652.84 467.86 668.03 473.82 682.02 469.31 Z" stroke-linecap="round"/>
</g>
</g>
</g>

  </svg>