<svg xmlns="http://www.w3.org/2000/svg" xmlns:xlink="http://www.w3.org/1999/xlink" width="500px" height="447px" viewBox="0 0 500 447.21525706340253">
    <g id="a2300fc8-1ce3-4448-9917-e8378ca4011b">
<g style="">
		<g id="a2300fc8-1ce3-4448-9917-e8378ca4011b-child-0">
<path style="stroke: rgb(193,193,193); stroke-width: 0; stroke-dasharray: none; stroke-linecap: butt; stroke-dashoffset: 0; stroke-linejoin: miter; stroke-miterlimit: 4; fill: rgb(0,0,0); fill-rule: nonzero; opacity: 1;" transform="matrix(0.901674 0 0 0.901674 250.000083 223.607703) matrix(1 0 0 1 0 0)  translate(-511.668491, -511.066487)" d="M 320.72 757.56 C 311.28 754.19 303.86 745.67 301.91 735.95 C 300.87 730.74 301.24 728.24 307.85 695.95 C 311.72 677.00 316.42 654.23 318.30 645.34 L 321.71 629.18 L 317.10 628.54 C 300.47 626.21 287.12 616.64 280.10 602.00 C 276.62 594.75 276.49 594.06 276.16 581.39 L 275.81 568.28 L 265.30 567.74 C 256.32 567.28 253.96 566.78 249.18 564.34 C 242.40 560.87 237.63 554.98 235.40 547.31 C 231.87 535.15 237.98 522.30 250.00 516.62 C 254.31 514.59 256.14 514.49 293.75 514.21 L 333.00 513.91 L 333.00 510.50 C 333.00 501.51 337.01 499.00 351.40 499.00 L 362.00 499.00 L 362.00 482.00 L 362.00 465.00 L 358.14 465.00 C 337.60 465.00 318.67 450.47 313.39 430.65 C 311.45 423.35 311.42 354.75 313.36 347.50 C 318.74 327.39 337.45 312.00 356.50 312.00 L 361.81 312.00 L 362.16 301.91 C 362.48 292.29 362.63 291.71 365.31 289.41 C 369.11 286.14 374.89 286.14 378.69 289.41 C 381.33 291.68 381.53 292.40 382.00 301.66 L 382.50 311.50 L 468.50 311.50 L 554.50 311.50 L 555.00 302.50 C 555.82 287.67 560.97 282.09 574.62 281.21 L 582.00 280.74 L 582.00 275.30 C 582.00 268.84 583.06 266.54 586.98 264.51 C 590.63 262.62 593.33 262.60 596.85 264.43 C 600.39 266.25 602.00 269.86 602.00 275.94 L 602.00 280.78 L 609.43 281.16 C 615.94 281.49 617.32 281.91 620.68 284.62 C 626.77 289.54 628.34 293.13 628.82 303.19 L 629.24 312.00 L 632.65 312.00 C 637.36 312.00 647.55 315.55 653.22 319.16 C 659.34 323.06 667.87 332.35 670.82 338.31 C 672.10 340.89 673.22 343.00 673.32 343.00 C 673.42 343.00 675.87 342.10 678.76 341.00 C 681.65 339.90 685.76 339.00 687.89 339.00 C 696.82 339.00 705.92 344.61 710.03 352.66 L 712.50 357.50 L 712.50 395.00 C 712.50 436.56 712.67 435.35 705.64 442.84 C 699.24 449.64 690.17 452.02 679.73 449.63 L 675.95 448.77 L 676.03 481.38 L 676.10 514.00 L 720.87 514.00 C 771.63 514.00 772.96 514.16 780.48 521.09 C 792.03 531.74 791.69 550.47 779.77 560.55 C 773.58 565.78 768.41 567.43 758.00 567.47 L 748.50 567.51 L 747.88 580.01 C 747.54 586.88 746.81 593.85 746.27 595.51 C 740.85 611.99 725.85 625.20 709.25 628.12 C 705.81 628.72 703.00 629.64 703.00 630.16 C 703.00 630.68 706.85 650.99 711.55 675.30 C 716.25 699.61 720.59 722.12 721.19 725.32 C 723.78 739.07 715.97 752.92 703.06 757.48 C 697.42 759.47 689.56 759.41 683.46 757.33 C 677.33 755.24 669.93 748.04 667.66 741.96 C 666.75 739.51 661.72 715.45 656.49 688.50 C 651.26 661.55 646.50 637.14 645.92 634.25 L 644.86 629.00 L 512.15 629.00 L 379.43 629.00 L 376.77 642.25 C 364.30 704.29 355.96 741.39 353.56 745.48 C 347.04 756.62 332.77 761.86 320.72 757.56 Z M 334.36 736.75 C 337.12 734.23 336.21 738.02 349.55 674.00 C 354.19 651.72 358.23 632.49 358.52 631.25 C 359.03 629.05 358.84 629.00 350.52 629.00 C 345.83 629.00 342.00 629.34 342.00 629.76 C 342.00 630.18 337.50 652.45 332.00 679.25 C 326.50 706.05 322.00 729.54 322.00 731.45 C 322.00 738.21 329.31 741.35 334.36 736.75 Z M 697.96 738.02 C 702.24 735.73 702.12 732.76 696.44 702.86 C 693.47 687.26 689.12 664.26 686.77 651.75 L 682.50 629.01 L 673.64 629.00 C 666.20 629.00 664.88 629.24 665.36 630.49 C 665.67 631.31 669.34 649.42 673.51 670.74 C 685.83 733.82 685.93 734.27 688.25 736.75 C 690.48 739.14 694.81 739.71 697.96 738.02 Z M 713.64 606.28 C 719.27 603.27 724.74 596.62 726.52 590.61 C 727.34 587.87 728.00 581.69 728.00 576.82 L 728.00 568.00 L 523.75 567.88 C 332.64 567.77 298.64 567.78 296.75 567.94 C 295.26 568.06 295.93 588.90 297.55 592.78 C 300.26 599.29 307.75 605.85 314.99 608.07 C 316.37 608.49 405.70 608.76 513.50 608.67 L 709.50 608.50 L 713.64 606.28 Z M 766.90 545.60 C 769.57 543.18 769.62 538.62 767.00 536.00 C 765.01 534.01 763.67 534.00 511.81 534.00 L 258.63 534.00 L 256.31 536.17 C 253.23 539.08 253.40 541.55 256.93 545.08 L 259.86 548.01 L 512.32 547.76 C 759.00 547.51 764.84 547.46 766.90 545.60 Z M 528.00 469.32 C 528.00 426.35 527.92 424.47 525.96 420.41 C 522.35 412.97 522.55 413.00 478.05 413.00 C 435.80 413.00 435.15 413.08 431.68 418.36 C 430.80 419.71 429.64 423.45 429.11 426.66 C 426.59 441.89 419.89 451.90 406.94 459.76 C 402.36 462.55 392.91 465.00 386.77 465.00 L 381.95 465.00 L 382.23 481.75 L 382.50 498.50 L 392.84 499.00 C 403.06 499.49 403.20 499.54 406.18 502.87 C 408.65 505.64 409.12 506.93 408.82 510.12 L 408.45 514.00 L 468.22 514.00 L 528.00 514.00 L 528.00 469.32 Z M 656.00 434.68 C 656.00 344.09 656.47 349.34 647.57 340.43 C 638.52 331.39 647.03 332.03 527.00 331.33 C 468.98 330.99 412.61 331.05 401.74 331.46 L 381.98 332.22 L 382.24 388.36 L 382.50 444.50 L 386.42 444.82 C 394.22 445.46 402.82 440.12 406.51 432.33 C 407.40 430.47 408.57 426.17 409.11 422.79 C 410.56 413.76 413.57 407.68 419.14 402.47 C 428.91 393.33 427.61 393.54 475.85 393.21 C 522.73 392.89 524.18 393.04 533.43 399.16 C 539.04 402.88 543.75 409.04 546.17 415.81 C 547.64 419.93 547.85 426.22 547.92 467.25 L 548.00 514.00 L 602.00 514.00 L 656.00 514.00 L 656.00 434.68 Z M 362.00 388.50 L 362.00 332.00 L 357.47 332.00 C 348.43 332.00 339.71 337.82 335.30 346.79 L 332.50 352.50 L 332.50 389.50 C 332.50 425.53 332.56 426.61 334.66 430.50 C 339.26 439.01 348.51 444.94 357.25 444.98 L 362.00 445.00 L 362.00 388.50 Z M 690.07 429.96 C 691.92 428.97 692.00 427.53 692.00 395.66 C 692.00 360.69 691.91 360.00 687.50 360.00 C 683.09 360.00 683.00 360.72 683.00 395.13 C 683.00 423.55 683.21 428.06 684.57 429.43 C 686.41 431.27 687.44 431.37 690.07 429.96 Z M 609.00 306.00 L 609.00 301.00 L 592.00 301.00 L 575.00 301.00 L 575.00 306.00 L 575.00 311.00 L 592.00 311.00 L 609.00 311.00 L 609.00 306.00 Z M 595.34 499.00 C 577.60 495.31 565.80 477.89 569.07 460.22 C 573.02 438.89 596.20 426.58 615.73 435.43 C 622.99 438.72 630.08 445.73 633.29 452.78 C 636.60 460.08 636.33 472.63 632.69 480.14 C 626.14 493.68 609.69 501.98 595.34 499.00 Z M 609.65 477.49 C 615.66 473.56 617.66 465.24 614.04 459.30 C 608.88 450.84 595.57 450.69 590.64 459.04 C 588.51 462.64 588.55 469.42 590.72 473.10 C 594.38 479.29 603.63 481.44 609.65 477.49 Z M 589.36 416.98 C 582.61 414.30 576.13 408.50 572.51 401.86 C 570.02 397.29 569.52 395.13 569.17 387.22 C 568.78 378.41 568.92 377.60 571.92 371.52 C 575.76 363.72 582.10 357.86 589.85 354.95 C 597.57 352.05 610.36 352.46 617.19 355.82 C 623.72 359.02 629.72 365.17 632.85 371.84 C 636.39 379.40 636.61 392.00 633.32 399.18 C 630.42 405.51 623.65 412.63 617.54 415.77 C 610.52 419.39 596.91 419.97 589.36 416.98 Z M 609.58 397.11 C 615.11 393.74 617.48 385.76 614.60 380.20 C 608.40 368.20 590.77 371.03 589.27 384.26 C 588.03 395.32 600.05 402.93 609.58 397.11 Z" stroke-linecap="round"/>
</g>
</g>
</g>

  </svg>