<svg xmlns="http://www.w3.org/2000/svg" xmlns:xlink="http://www.w3.org/1999/xlink" width="1602px" height="1337px" viewBox="0 0 1602.35794845514 1337.6920984588396">
    <g id="2d2cc797-6ea7-44a9-b571-dbf6eaf7b935">
<g style="">
		<g id="2d2cc797-6ea7-44a9-b571-dbf6eaf7b935-child-0">
<path style="stroke: rgb(193,193,193); stroke-width: 0; stroke-dasharray: none; stroke-linecap: butt; stroke-dashoffset: 0; stroke-linejoin: miter; stroke-miterlimit: 4; fill: rgb(0,0,0); fill-rule: nonzero; opacity: 1;" transform="matrix(2.271761 0 0 2.271761 801.178932 668.846014) matrix(1 0 0 1 0 0)  translate(-512.21867, -530.41742)" d="M 168.38 824.23 C 162.80 823.78 159.55 820.32 159.55 814.84 C 159.55 811.65 160.14 810.28 162.33 808.39 C 164.91 806.17 165.93 806.00 176.47 806.00 L 187.82 806.00 L 190.41 809.08 C 193.81 813.12 193.76 817.14 190.25 820.99 C 187.72 823.78 186.91 824.04 180.00 824.29 C 175.88 824.44 170.64 824.41 168.38 824.23 Z M 838.87 824.30 C 831.77 823.20 828.88 813.08 834.33 808.39 C 836.91 806.17 837.92 806.00 848.31 806.03 C 859.94 806.06 861.65 806.58 863.84 810.68 C 866.44 815.56 863.98 822.11 858.88 823.89 C 855.87 824.94 844.55 825.17 838.87 824.30 Z M 222.48 822.13 C 214.85 818.66 208.96 810.85 207.54 802.29 C 205.93 792.63 213.16 780.24 222.36 776.92 L 226.00 775.60 L 226.00 569.31 L 226.00 363.03 L 222.68 361.64 C 217.93 359.66 212.24 354.36 209.72 349.59 C 208.10 346.53 207.56 343.74 207.56 338.50 C 207.56 330.27 209.80 325.14 215.62 320.03 C 223.17 313.40 222.14 313.53 269.14 313.20 L 311.77 312.90 L 309.72 307.70 C 307.04 300.89 306.84 286.28 309.31 277.00 C 312.59 264.68 325.38 241.65 331.21 237.57 C 332.44 236.71 335.21 236.00 337.37 236.00 C 340.83 236.00 341.95 236.67 346.70 241.57 C 357.54 252.77 364.74 252.77 376.91 241.59 C 381.81 237.07 383.64 236.00 386.41 236.00 C 391.85 236.00 392.86 236.80 398.49 245.52 C 408.47 261.00 419.64 269.37 434.50 272.49 C 438.65 273.37 447.03 273.97 455.07 273.98 C 470.81 274.00 477.17 275.45 482.66 280.28 C 484.66 282.03 486.94 285.01 487.73 286.89 C 489.99 292.31 489.51 301.21 486.61 307.55 L 484.11 313.00 L 513.46 313.00 L 542.81 313.00 L 540.76 307.75 C 538.07 300.86 537.91 286.27 540.42 277.00 C 542.76 268.36 547.56 258.14 553.96 248.16 C 560.34 238.21 562.95 236.00 568.29 236.00 C 571.85 236.00 572.91 236.63 577.70 241.57 C 588.54 252.77 595.74 252.77 607.91 241.59 C 612.92 236.98 614.61 236.00 617.56 236.00 C 622.88 236.00 624.33 237.18 631.07 247.02 C 637.70 256.70 644.98 263.93 651.40 267.20 C 661.46 272.33 665.78 273.20 685.00 273.91 C 700.47 274.49 704.24 274.93 708.00 276.63 C 713.32 279.04 718.31 284.39 720.00 289.50 C 721.59 294.31 720.52 302.63 717.57 308.46 L 715.27 313.00 L 754.45 313.00 C 798.56 313.00 801.02 313.31 808.13 319.74 C 815.77 326.64 818.42 335.60 815.65 345.12 C 813.71 351.80 808.50 358.10 802.50 361.00 L 798.00 363.18 L 798.00 563.44 C 798.00 673.59 798.29 766.46 798.64 769.83 C 799.27 775.87 799.34 775.99 803.64 778.07 C 815.39 783.76 820.21 797.57 814.63 809.56 C 811.87 815.47 805.63 821.20 800.14 822.84 C 797.24 823.71 724.75 823.99 511.38 823.98 C 237.64 823.96 226.34 823.88 222.48 822.13 Z M 795.96 803.53 C 798.43 801.30 798.55 799.26 796.35 796.83 C 794.75 795.07 784.60 795.00 512.00 795.00 L 229.31 795.00 L 227.44 797.07 C 225.73 798.96 225.70 799.37 227.07 801.81 C 227.99 803.46 229.70 804.69 231.48 805.00 C 233.08 805.27 360.28 805.47 514.16 805.44 C 784.53 805.38 794.00 805.31 795.96 803.53 Z M 253.25 775.07 C 254.91 775.00 255.00 764.50 255.00 569.00 L 255.00 363.00 L 249.75 363.00 L 244.50 363.00 L 244.23 568.92 C 243.97 765.23 244.04 774.87 245.73 775.28 C 246.70 775.52 248.40 775.59 249.50 775.43 C 250.60 775.28 252.29 775.12 253.25 775.07 Z M 311.22 775.45 C 311.52 775.15 310.86 772.56 309.74 769.70 C 307.08 762.87 306.92 748.24 309.41 739.00 C 311.77 730.26 317.62 717.95 323.74 708.89 C 330.09 699.48 331.11 698.67 336.61 698.67 C 340.73 698.67 341.58 699.14 346.80 704.28 C 357.58 714.90 365.02 714.83 376.56 703.99 C 382.26 698.65 386.54 697.18 390.66 699.18 C 392.17 699.91 395.94 704.30 399.11 709.00 C 408.47 722.91 418.84 730.90 432.50 734.70 C 435.34 735.50 444.85 736.35 454.50 736.67 C 468.36 737.14 472.38 737.61 476.24 739.24 C 482.17 741.74 487.54 747.58 489.04 753.16 C 490.42 758.28 489.07 766.52 486.00 771.72 C 484.90 773.59 484.00 775.31 484.00 775.56 C 484.00 776.20 539.57 776.10 541.25 775.46 C 542.43 775.00 542.35 773.99 540.72 769.21 C 538.28 762.03 538.13 749.13 540.38 739.68 C 542.30 731.60 547.41 720.22 553.46 710.51 C 559.70 700.50 562.13 698.48 567.72 698.60 C 571.88 698.69 572.70 699.15 577.06 703.87 C 582.29 709.52 587.00 712.00 592.52 712.00 C 597.23 712.00 601.38 709.79 607.56 703.99 C 616.72 695.40 621.67 696.30 629.50 707.99 C 639.00 722.18 649.72 730.58 663.31 734.50 C 667.14 735.61 675.18 736.42 686.88 736.89 C 704.24 737.58 704.75 737.67 710.07 740.66 C 714.36 743.09 716.10 744.86 718.35 749.12 C 720.86 753.87 721.12 755.19 720.60 760.40 C 720.24 763.89 718.97 768.14 717.50 770.78 C 716.12 773.24 715.00 775.42 715.00 775.63 C 715.00 775.83 722.88 776.00 732.50 776.00 L 750.00 776.00 L 750.00 723.00 L 750.00 670.00 L 512.00 670.00 L 274.00 670.00 L 274.00 723.00 L 274.00 776.00 L 292.33 776.00 C 302.42 776.00 310.91 775.75 311.22 775.45 Z M 779.75 569.25 L 780.00 363.00 L 774.50 363.00 L 769.00 363.00 L 769.00 568.83 C 769.00 682.04 769.32 774.99 769.71 775.38 C 770.10 775.77 772.47 775.96 774.96 775.80 L 779.50 775.50 L 779.75 569.25 Z M 458.87 772.07 C 464.59 769.18 471.00 763.15 471.00 760.66 C 471.00 759.96 470.38 758.53 469.61 757.49 C 468.38 755.80 466.31 755.52 450.86 754.92 C 439.70 754.50 431.21 753.65 427.09 752.56 C 413.20 748.88 399.25 739.83 390.15 728.60 C 387.21 724.97 384.59 722.00 384.33 722.00 C 384.07 722.00 381.98 723.29 379.68 724.88 C 368.08 732.85 353.08 732.91 342.17 725.01 C 339.89 723.35 337.58 722.00 337.04 722.00 C 335.30 722.00 327.99 738.55 326.43 746.02 C 323.77 758.78 327.50 768.07 337.23 772.88 C 341.42 774.96 342.50 775.00 397.28 775.00 L 453.06 775.00 L 458.87 772.07 Z M 692.43 771.00 C 697.75 767.81 701.99 763.14 702.00 760.44 C 702.00 759.86 701.38 758.53 700.61 757.49 C 699.38 755.80 697.28 755.51 681.86 754.88 C 662.68 754.11 656.62 752.88 645.14 747.46 C 638.47 744.32 625.05 734.80 624.97 733.16 C 624.95 732.80 622.80 730.09 620.18 727.14 L 615.42 721.78 L 610.46 724.92 C 604.98 728.40 597.31 731.00 592.53 731.00 C 587.09 731.00 577.64 728.05 573.22 724.98 C 570.87 723.34 568.58 722.00 568.13 722.00 C 565.90 722.00 558.81 738.79 556.93 748.49 C 554.91 758.90 559.34 768.47 568.23 772.90 C 572.46 775.00 573.10 775.02 629.54 774.76 L 686.58 774.50 L 692.43 771.00 Z M 750.00 645.50 L 750.00 640.00 L 512.00 640.00 L 274.00 640.00 L 274.00 645.50 L 274.00 651.00 L 512.00 651.00 L 750.00 651.00 L 750.00 645.50 Z M 295.97 620.00 L 311.69 620.00 L 309.73 614.25 C 308.33 610.14 307.79 605.94 307.83 599.50 C 307.92 585.40 311.75 573.48 320.79 559.09 C 328.99 546.04 331.14 544.00 336.67 544.00 C 340.82 544.00 341.59 544.43 346.42 549.46 C 352.23 555.51 355.48 557.15 361.64 557.16 C 366.73 557.17 370.97 555.06 375.80 550.10 C 380.43 545.36 382.97 544.00 387.21 544.00 C 391.87 544.00 394.07 545.86 398.58 553.61 C 403.60 562.24 412.99 571.65 420.66 575.74 C 429.67 580.54 437.30 581.97 454.07 581.99 C 470.69 582.00 476.44 583.24 482.27 588.06 C 487.67 592.52 489.37 596.34 489.37 604.00 C 489.37 608.54 488.70 611.98 487.17 615.40 C 485.96 618.10 485.09 620.40 485.24 620.50 C 485.38 620.61 498.37 620.48 514.11 620.22 L 542.72 619.75 L 541.13 616.62 C 538.45 611.35 538.32 593.02 540.91 583.61 C 543.25 575.06 548.08 564.87 554.51 554.90 C 560.52 545.58 562.46 544.00 567.88 544.00 C 571.97 544.00 572.79 544.44 576.94 548.86 C 583.28 555.62 586.15 557.23 591.83 557.23 C 597.73 557.23 601.44 555.39 608.55 548.95 C 613.33 544.63 614.57 544.00 618.34 544.00 C 623.31 544.00 624.35 544.93 630.93 555.25 C 639.28 568.35 652.11 577.64 665.88 580.56 C 669.67 581.36 678.30 581.97 686.07 581.98 C 702.13 582.00 708.30 583.47 714.00 588.62 C 721.27 595.19 722.82 605.56 717.95 615.11 C 716.88 617.20 716.00 619.28 716.00 619.71 C 716.00 620.14 723.65 620.37 733.00 620.20 L 750.00 619.91 L 750.00 567.95 L 750.00 516.00 L 512.00 516.00 L 274.00 516.00 L 274.00 568.62 L 274.00 621.25 L 277.12 620.62 C 278.84 620.28 287.32 620.00 295.97 620.00 Z M 461.07 616.14 C 465.23 613.65 468.20 611.02 469.47 608.71 C 471.34 605.32 471.35 605.05 469.71 603.23 C 468.19 601.55 465.98 601.23 452.24 600.67 C 421.74 599.42 405.44 592.46 390.56 574.33 C 387.78 570.94 384.99 568.13 384.37 568.08 C 383.75 568.04 380.66 569.56 377.50 571.46 C 366.03 578.37 350.95 577.33 340.13 568.88 C 338.83 567.86 337.36 567.28 336.86 567.59 C 335.36 568.51 329.34 581.11 327.61 586.93 C 325.34 594.57 325.51 604.11 327.99 608.98 C 330.04 612.99 334.67 617.15 339.03 618.89 C 340.54 619.49 363.39 619.90 398.07 619.94 L 454.64 620.00 L 461.07 616.14 Z M 691.48 616.17 C 698.96 612.10 702.65 607.63 701.51 604.03 C 700.68 601.40 699.57 601.20 680.00 600.06 C 670.92 599.53 660.80 598.38 657.50 597.50 C 643.47 593.77 631.13 585.79 621.78 574.39 L 615.69 566.97 L 613.10 568.69 C 603.64 574.92 601.85 575.50 592.00 575.50 C 582.25 575.49 578.34 574.22 570.29 568.41 C 568.18 566.88 568.00 566.96 566.04 570.16 C 557.94 583.41 554.70 600.58 558.79 608.56 C 561.26 613.38 564.40 616.41 569.01 618.41 C 571.99 619.70 580.72 619.93 628.50 619.95 L 684.50 619.97 L 691.48 616.17 Z M 750.00 492.00 L 750.00 487.01 L 512.00 486.75 L 274.00 486.50 L 274.00 491.75 L 274.00 497.00 L 512.00 497.00 L 750.00 497.00 L 750.00 492.00 Z M 312.00 466.75 C 312.00 466.61 311.10 464.13 310.00 461.24 C 307.53 454.73 307.31 440.55 309.54 431.09 C 311.49 422.81 317.38 410.31 323.84 400.73 C 329.90 391.75 332.11 390.00 337.37 390.00 C 340.83 390.00 341.95 390.67 346.70 395.57 C 352.33 401.39 357.02 404.02 361.72 403.98 C 365.86 403.95 372.05 400.72 376.00 396.54 C 381.74 390.45 387.36 388.52 392.03 391.01 C 393.07 391.57 396.01 395.28 398.56 399.26 C 407.02 412.47 416.84 420.93 428.58 425.09 C 433.41 426.81 438.00 427.32 453.50 427.90 C 469.44 428.49 473.23 428.94 477.00 430.64 C 489.07 436.08 493.07 449.21 486.65 462.25 L 484.31 467.00 L 513.56 467.00 L 542.81 467.00 L 540.78 461.75 C 538.42 455.63 537.98 440.71 539.92 432.55 C 542.69 420.91 552.36 402.04 559.72 393.88 C 562.82 390.46 563.77 390.00 567.76 390.00 C 571.97 390.00 572.67 390.40 577.40 395.47 C 587.89 406.73 595.75 406.76 607.91 395.59 C 612.92 390.98 614.61 390.00 617.56 390.00 C 622.87 390.00 624.46 391.27 630.04 399.96 C 632.83 404.32 637.98 410.55 641.47 413.83 C 653.00 424.61 663.69 427.95 686.71 427.98 C 698.55 428.00 701.84 428.34 706.38 430.04 C 719.78 435.06 724.55 448.78 717.57 462.24 L 715.10 467.00 L 732.55 467.00 L 750.00 467.00 L 750.00 415.00 L 750.00 363.00 L 512.00 363.00 L 274.00 363.00 L 274.00 415.00 L 274.00 467.00 L 293.00 467.00 C 303.45 467.00 312.00 466.89 312.00 466.75 Z M 459.13 463.36 C 462.94 461.36 467.17 458.40 468.53 456.78 C 471.20 453.60 471.74 449.83 469.75 448.26 C 469.06 447.72 461.63 446.99 453.24 446.64 C 433.75 445.84 424.83 444.00 413.25 438.42 C 406.02 434.93 402.38 432.36 396.65 426.73 C 392.62 422.75 388.36 418.15 387.21 416.50 L 385.10 413.50 L 381.80 415.37 C 371.17 421.40 370.84 421.50 361.00 421.49 C 352.67 421.47 350.88 421.14 346.44 418.81 C 343.65 417.35 340.79 415.45 340.06 414.58 C 338.06 412.16 337.39 412.58 334.15 418.25 C 327.34 430.16 324.17 446.03 327.06 453.68 C 328.66 457.91 332.91 461.97 338.50 464.62 L 343.50 466.98 L 397.85 466.99 L 452.21 467.00 L 459.13 463.36 Z M 690.13 463.36 C 693.94 461.36 698.17 458.40 699.53 456.78 C 702.41 453.35 702.74 449.45 700.25 448.17 C 699.29 447.67 691.41 446.97 682.75 446.59 C 665.46 445.85 655.55 443.87 645.50 439.12 C 636.83 435.03 627.69 427.75 621.30 419.84 L 615.73 412.95 L 613.12 414.71 C 605.09 420.12 599.78 422.00 592.48 422.00 C 584.25 422.00 578.90 420.40 572.59 416.06 C 567.56 412.60 567.74 412.50 563.20 421.55 C 557.08 433.78 554.95 448.13 558.30 454.61 C 560.51 458.89 564.93 463.01 569.50 465.06 C 573.18 466.72 577.84 466.86 628.35 466.93 L 683.21 467.00 L 690.13 463.36 Z M 796.56 340.93 C 798.27 339.04 798.30 338.63 796.93 336.18 L 795.42 333.50 L 512.57 333.25 C 304.30 333.06 229.35 333.29 228.35 334.12 C 226.68 335.51 226.58 340.18 228.20 341.80 C 229.13 342.73 293.54 343.00 512.04 343.00 L 794.69 343.00 L 796.56 340.93 Z M 458.13 309.85 C 464.18 306.63 471.00 300.12 471.00 297.57 C 471.00 294.33 468.01 293.00 460.68 292.99 C 448.25 292.98 431.52 291.09 424.38 288.91 C 410.16 284.55 395.90 274.68 388.57 264.10 C 387.01 261.84 385.23 260.00 384.61 260.00 C 384.00 260.01 381.51 261.33 379.08 262.94 C 376.66 264.55 371.79 266.65 368.27 267.60 C 358.40 270.27 350.18 268.24 339.37 260.45 C 337.34 258.99 337.12 259.11 334.73 263.21 C 327.52 275.55 323.80 290.12 325.91 297.76 C 327.39 303.12 331.78 308.19 337.26 310.84 C 341.38 312.84 343.09 312.90 396.86 312.95 L 452.22 313.00 L 458.13 309.85 Z M 688.70 310.28 C 698.73 305.53 704.48 297.88 700.80 294.20 C 700.08 293.48 696.58 293.00 692.05 292.99 C 656.80 292.95 637.68 285.50 621.02 265.30 L 615.91 259.10 L 609.89 262.99 C 598.41 270.42 586.34 270.58 574.81 263.47 C 571.62 261.49 568.54 260.17 567.98 260.51 C 566.38 261.50 560.41 273.89 558.61 279.93 C 556.39 287.43 556.51 297.12 558.89 301.79 C 561.13 306.18 563.11 308.04 568.50 310.84 C 572.40 312.86 573.83 312.91 627.72 312.96 L 682.95 313.00 L 688.70 310.28 Z" stroke-linecap="round"/>
</g>
</g>
</g>

  </svg>