<svg xmlns="http://www.w3.org/2000/svg" xmlns:xlink="http://www.w3.org/1999/xlink" width="500px" height="375px" viewBox="0 0 500 374.51616383582177">
    <g id="c7a72190-1ac0-4360-8868-b93b8c5c11bb">
<g style="">
		<g id="c7a72190-1ac0-4360-8868-b93b8c5c11bb-child-0">
<path style="stroke: rgb(193,193,193); stroke-width: 0; stroke-dasharray: none; stroke-linecap: butt; stroke-dashoffset: 0; stroke-linejoin: miter; stroke-miterlimit: 4; fill: rgb(0,0,0); fill-rule: nonzero; opacity: 1;" transform="matrix(0.87096 0 0 0.87096 249.999985 187.258071) matrix(1 0 0 1 0 0)  translate(-512.039571, -510.998082)" d="M 230.50 724.84 C 226.85 722.83 225.05 719.65 225.02 715.17 C 225.00 711.71 225.58 710.26 227.92 707.92 L 230.85 705.00 L 264.59 705.00 L 298.34 705.00 L 291.36 697.75 C 287.52 693.76 283.71 689.51 282.88 688.30 C 281.41 686.15 280.86 686.09 256.11 685.80 L 230.83 685.50 L 227.92 682.23 L 225.00 678.97 L 225.00 639.55 C 225.00 616.36 225.40 599.07 225.98 597.57 C 228.56 590.77 238.16 589.33 243.25 594.98 L 246.00 598.03 L 246.00 631.52 L 246.00 665.00 L 258.37 665.00 L 270.73 665.00 L 268.81 658.25 C 266.26 649.32 265.33 630.45 266.94 620.47 C 271.95 589.39 294.74 561.34 324.23 549.97 C 374.89 530.43 430.83 559.62 445.15 613.07 C 448.88 627.00 448.06 651.33 443.46 663.25 C 442.82 664.90 445.56 665.00 492.39 665.00 L 542.00 665.00 L 542.00 645.09 L 542.00 625.19 L 532.96 617.07 C 493.90 582.01 460.01 557.51 429.12 542.01 C 390.50 522.62 355.68 514.00 315.95 514.00 L 298.00 514.00 L 298.00 524.57 C 298.00 535.49 297.27 538.28 293.63 541.23 C 291.26 543.15 284.91 543.55 281.94 541.97 C 277.71 539.70 277.00 536.13 277.00 517.07 L 277.00 499.03 L 279.92 495.77 L 282.85 492.50 L 310.17 492.55 C 338.03 492.59 345.56 493.23 364.78 497.17 C 370.43 498.33 375.31 499.02 375.62 498.71 C 375.93 498.40 375.49 495.75 374.64 492.82 C 372.81 486.53 366.92 480.20 360.00 477.08 C 355.73 475.15 353.53 475.04 316.45 475.02 L 277.39 475.00 L 272.17 477.60 C 266.62 480.37 263.18 484.12 260.29 490.55 C 258.72 494.03 258.48 498.55 258.19 528.72 L 257.86 562.94 L 254.85 565.47 C 250.56 569.08 245.07 568.93 240.77 565.08 L 237.50 562.17 L 237.20 530.83 C 237.02 510.95 237.32 497.07 238.03 492.85 C 240.94 475.56 252.87 461.71 269.72 456.08 C 275.61 454.11 278.08 454.00 316.22 454.01 C 359.92 454.02 362.08 454.24 372.15 459.63 C 386.57 467.34 395.52 481.64 397.51 500.12 L 398.11 505.73 L 408.31 509.48 C 421.82 514.45 445.96 526.11 459.00 533.95 C 484.89 549.54 509.74 568.37 547.14 600.77 L 562.99 614.50 L 563.00 646.85 L 563.00 679.20 L 559.60 682.60 L 556.20 686.00 L 493.60 686.00 C 455.50 686.00 431.00 686.37 431.00 686.93 C 431.00 687.45 427.35 691.72 422.89 696.43 L 414.78 705.00 L 485.64 705.02 C 551.27 705.04 556.66 705.17 558.63 706.77 C 564.11 711.21 564.51 717.69 559.60 722.60 L 556.20 726.00 L 394.35 725.97 C 278.58 725.95 231.93 725.63 230.50 724.84 Z M 378.00 701.09 C 388.24 697.58 397.77 691.40 406.55 682.59 C 420.06 669.00 426.00 654.47 426.00 634.98 C 426.00 622.40 424.41 615.41 419.06 604.50 C 410.42 586.89 395.11 574.17 374.96 567.84 C 365.34 564.82 347.78 564.60 338.56 567.38 C 301.67 578.49 279.93 616.23 289.51 652.50 C 295.69 675.94 315.45 695.63 339.22 702.04 C 349.40 704.78 368.60 704.32 378.00 701.09 Z M 599.26 724.97 C 598.02 724.48 596.09 722.59 594.96 720.78 C 592.18 716.34 592.94 711.39 596.98 707.75 L 600.03 705.00 L 632.91 705.00 L 665.79 705.00 L 674.03 690.45 C 678.56 682.44 683.07 674.90 684.04 673.70 C 685.82 671.50 685.89 671.50 729.87 671.20 C 767.01 670.95 774.35 671.13 776.71 672.37 C 778.85 673.49 781.78 678.27 789.25 692.80 C 799.17 712.10 800.49 716.36 797.97 721.06 C 795.25 726.15 798.21 726.00 696.30 725.94 C 642.45 725.90 600.53 725.48 599.26 724.97 Z M 771.00 704.47 C 771.00 704.18 769.64 701.26 767.99 697.97 L 764.97 692.00 L 731.12 692.00 L 697.28 692.00 L 694.14 697.89 C 692.41 701.13 691.00 704.05 691.00 704.39 C 691.00 704.73 709.00 705.00 731.00 705.00 C 753.00 705.00 771.00 704.76 771.00 704.47 Z M 669.00 667.53 C 667.62 666.76 637.84 636.97 602.80 601.32 C 567.77 565.67 531.68 529.10 522.60 520.06 L 506.11 503.63 L 501.21 508.21 C 493.68 515.25 490.76 516.47 481.50 516.47 C 475.21 516.47 472.65 516.00 469.50 514.30 C 467.18 513.05 435.67 482.23 394.37 440.82 C 316.33 362.56 319.54 366.28 319.54 354.00 C 319.54 343.83 321.46 340.84 339.34 323.25 C 348.68 314.06 357.50 306.27 360.05 304.97 C 362.82 303.56 367.01 302.52 371.13 302.22 C 376.73 301.82 378.63 302.14 383.25 304.26 C 386.27 305.64 390.54 308.40 392.74 310.39 C 394.94 312.37 397.10 314.00 397.55 314.00 C 397.99 314.00 401.60 310.85 405.57 307.00 C 409.54 303.15 414.75 299.11 417.15 298.02 C 423.05 295.34 432.96 295.32 438.43 297.97 C 444.29 300.81 558.99 415.90 562.05 422.00 C 565.17 428.24 565.78 438.10 563.48 445.12 C 562.08 449.41 560.22 451.97 554.28 457.77 C 550.19 461.76 546.99 465.44 547.17 465.95 C 547.35 466.45 583.31 503.01 627.09 547.18 C 670.86 591.36 707.20 628.48 707.84 629.68 C 709.44 632.70 709.30 640.54 707.57 643.80 C 706.03 646.71 688.09 664.67 684.03 667.36 C 680.99 669.38 672.49 669.47 669.00 667.53 Z M 685.93 637.22 C 686.63 636.80 672.70 623.00 671.56 623.00 C 671.02 623.00 668.64 624.90 666.28 627.22 L 661.98 631.43 L 669.21 638.71 L 676.44 645.99 L 680.95 641.74 C 683.43 639.41 685.67 637.37 685.93 637.22 Z M 652.47 611.03 L 656.35 607.06 L 650.92 601.30 C 647.94 598.13 619.76 569.66 588.30 538.02 L 531.10 480.50 L 527.02 484.48 C 524.78 486.67 523.07 488.97 523.22 489.60 C 523.62 491.23 646.29 614.92 647.55 614.97 C 648.12 614.98 650.34 613.21 652.47 611.03 Z M 512.00 469.48 C 541.90 441.08 545.00 437.83 545.00 434.77 C 545.00 433.25 528.16 415.68 488.25 375.56 C 457.04 344.18 430.64 318.01 429.60 317.39 C 426.66 315.66 424.79 316.65 417.91 323.59 L 411.54 330.02 L 462.18 380.76 C 501.55 420.22 512.95 432.20 513.46 434.65 C 515.09 442.51 507.81 449.41 500.44 446.98 C 497.97 446.17 480.60 429.26 436.20 384.43 C 384.48 332.23 374.92 323.00 372.54 323.00 C 370.28 323.00 366.88 325.77 355.11 337.22 C 345.62 346.46 340.38 352.30 340.17 353.87 C 339.89 355.92 350.66 367.14 408.67 425.23 C 446.53 463.15 478.40 494.55 479.50 495.01 C 480.60 495.47 482.38 495.60 483.45 495.30 C 484.53 494.99 497.37 483.37 512.00 469.48 Z M 342.00 683.11 C 332.92 680.18 327.84 677.05 320.89 670.10 C 310.55 659.76 306.00 648.86 306.00 634.42 C 306.00 596.86 346.26 572.40 379.98 589.49 C 386.10 592.59 397.29 602.93 400.55 608.50 C 406.86 619.26 409.06 632.19 406.59 644.00 C 402.68 662.67 390.78 676.36 373.00 682.66 C 364.70 685.60 350.33 685.81 342.00 683.11 Z M 370.89 660.46 C 380.15 655.42 385.11 647.26 385.79 635.96 C 386.37 626.05 383.87 619.91 376.50 613.17 C 365.25 602.90 350.24 602.42 338.17 611.96 C 320.11 626.24 325.39 654.30 347.70 662.62 C 353.85 664.91 364.55 663.92 370.89 660.46 Z" stroke-linecap="round"/>
</g>
</g>
</g>

  </svg>