<svg xmlns="http://www.w3.org/2000/svg" xmlns:xlink="http://www.w3.org/1999/xlink" width="258px" height="500px" viewBox="0 0 257.90397828813093 500">
    <g id="13ab1f87-7b10-4b11-adb9-dbf71f374b47">
<g style="">
		<g id="13ab1f87-7b10-4b11-adb9-dbf71f374b47-child-0">
<path style="stroke: rgb(193,193,193); stroke-width: 0; stroke-dasharray: none; stroke-linecap: butt; stroke-dashoffset: 0; stroke-linejoin: miter; stroke-miterlimit: 4; fill: rgb(0,0,0); fill-rule: nonzero; opacity: 1;" transform="matrix(0.802759 0 0 0.802759 128.95199 250.000003) matrix(1 0 0 1 0 0)  translate(-512.235997, -511.425972)" d="M 493.00 822.28 C 477.75 820.55 455.90 813.97 441.58 806.81 C 409.30 790.65 384.63 765.89 368.52 733.50 C 361.08 718.56 358.00 709.78 354.99 695.00 C 351.74 679.00 351.27 665.46 351.77 602.50 C 352.21 546.82 352.30 544.37 354.21 541.22 C 355.31 539.41 357.94 537.05 360.06 535.97 C 363.76 534.08 366.18 534.00 418.96 534.00 L 474.00 534.00 L 474.00 432.09 L 474.00 330.18 L 467.32 326.51 C 458.22 321.51 450.82 315.66 442.50 306.88 C 431.07 294.82 423.24 281.35 418.33 265.29 C 415.75 256.88 415.63 255.51 415.57 233.50 C 415.50 210.95 415.55 210.44 417.83 207.23 C 419.12 205.43 421.91 203.06 424.04 201.98 C 427.81 200.05 430.21 200.00 511.90 200.00 C 568.95 200.00 596.77 200.34 598.68 201.07 C 602.22 202.40 605.70 205.61 607.85 209.50 C 609.22 211.99 609.50 215.66 609.50 231.00 C 609.50 250.87 608.47 258.58 604.24 270.50 C 595.77 294.33 579.52 313.69 557.38 326.30 L 550.02 330.50 L 550.01 432.25 L 550.00 534.00 L 605.85 534.00 L 661.70 534.00 L 665.01 536.25 C 666.83 537.49 669.26 539.77 670.41 541.32 C 672.47 544.10 672.50 545.08 672.80 603.32 C 673.12 665.15 672.46 681.67 669.05 697.13 C 656.96 751.83 615.94 797.05 562.04 815.07 C 545.08 820.74 530.18 823.04 511.65 822.84 C 503.32 822.75 494.92 822.50 493.00 822.28 Z M 534.62 792.45 C 587.94 783.17 629.77 742.35 641.65 688.00 C 643.03 681.67 643.35 671.35 643.71 621.75 L 644.14 563.00 L 597.11 563.00 L 550.08 563.00 L 549.79 606.25 C 549.51 648.75 549.46 649.60 547.20 655.20 C 543.95 663.25 537.35 670.19 528.96 674.39 C 520.65 678.54 513.43 679.64 505.38 677.98 C 492.70 675.36 483.91 668.63 478.28 657.25 L 474.50 649.61 L 474.20 606.30 L 473.90 563.00 L 426.87 563.00 L 379.83 563.00 L 380.29 620.25 C 380.68 668.31 381.02 678.86 382.42 685.98 C 393.10 740.26 436.11 783.01 489.50 792.41 C 500.51 794.35 523.60 794.37 534.62 792.45 Z M 516.46 648.38 C 520.99 646.64 521.00 646.50 521.00 568.05 L 521.00 494.00 L 512.00 494.00 L 503.00 494.00 L 503.00 568.42 L 503.00 642.85 L 505.59 645.92 C 508.18 649.01 512.36 649.95 516.46 648.38 Z M 519.42 464.39 C 520.84 463.85 521.00 457.32 521.00 400.89 L 521.00 338.00 L 512.00 338.00 L 503.00 338.00 L 503.00 400.83 C 503.00 435.39 503.30 463.97 503.67 464.33 C 504.50 465.17 517.28 465.22 519.42 464.39 Z M 527.29 307.05 C 547.47 301.89 563.68 288.59 573.05 269.50 C 578.10 259.21 579.94 251.95 580.69 239.25 L 581.30 229.00 L 512.65 229.00 L 444.00 229.00 L 444.00 238.34 C 444.00 250.13 446.54 260.37 452.18 271.29 C 457.83 282.24 471.24 295.86 481.72 301.32 C 496.15 308.83 512.36 310.87 527.29 307.05 Z" stroke-linecap="round"/>
</g>
</g>
</g>

  </svg>