<svg xmlns="http://www.w3.org/2000/svg" xmlns:xlink="http://www.w3.org/1999/xlink" width="1886px" height="2583px" viewBox="0 0 1886.493946174457 2583.4749672376493">
    <g id="1ae9c847-7d2d-4fb5-a5f7-5d85543fbd53">
<g style="">
		<g id="1ae9c847-7d2d-4fb5-a5f7-5d85543fbd53-child-0">
<path style="stroke: rgb(193,193,193); stroke-width: 0; stroke-dasharray: none; stroke-linecap: butt; stroke-dashoffset: 0; stroke-linejoin: miter; stroke-miterlimit: 4; fill: rgb(0,0,0); fill-rule: nonzero; opacity: 1;" transform="matrix(5.065637 0 0 5.065637 943.246937 1291.737435) matrix(1 0 0 1 0 0)  translate(-511.795, -512)" d="M 328.03 765.23 L 325.84 763.45 L 325.71 512.10 L 325.59 260.75 L 327.90 258.88 C 330.15 257.06 335.69 257.00 511.94 257.00 L 693.65 257.00 L 695.83 259.31 L 698.00 261.63 L 698.00 512.14 L 698.00 762.65 L 695.69 764.83 L 693.37 767.00 L 511.80 767.00 C 339.48 767.00 330.11 766.91 328.03 765.23 Z M 686.00 747.00 L 686.00 739.00 L 512.00 739.00 L 338.00 739.00 L 338.00 747.00 L 338.00 755.00 L 512.00 755.00 L 686.00 755.00 L 686.00 747.00 Z M 506.00 497.50 L 506.00 269.00 L 422.00 269.00 L 338.00 269.00 L 338.00 497.50 L 338.00 726.00 L 422.00 726.00 L 506.00 726.00 L 506.00 497.50 Z M 685.75 497.75 L 685.50 269.50 L 602.00 269.50 L 518.50 269.50 L 518.25 497.75 L 518.00 726.00 L 602.00 726.00 L 686.00 726.00 L 685.75 497.75 Z M 441.00 709.60 C 418.73 703.42 395.78 697.07 390.02 695.50 C 383.27 693.65 378.73 691.82 377.27 690.36 L 375.00 688.09 L 375.00 508.48 C 375.00 387.97 375.34 328.24 376.02 326.96 C 377.59 324.04 379.23 323.42 406.80 315.40 C 465.70 298.26 480.92 294.00 483.23 294.00 C 484.56 294.00 486.63 295.04 487.83 296.31 L 490.00 298.63 L 490.00 507.36 L 490.00 716.09 L 487.55 718.55 C 486.20 719.90 484.28 720.96 483.30 720.92 C 482.31 720.87 463.27 715.78 441.00 709.60 Z M 478.00 507.50 C 478.00 397.77 477.65 308.00 477.23 308.00 C 475.92 308.00 462.92 311.71 426.00 322.62 C 406.48 328.39 389.71 333.34 388.75 333.62 C 387.09 334.11 387.00 343.28 387.00 508.03 L 387.00 681.92 L 391.25 683.05 C 396.85 684.52 425.94 692.63 454.00 700.53 C 466.38 704.01 476.84 706.89 477.25 706.93 C 477.66 706.97 478.00 617.22 478.00 507.50 Z M 536.57 718.66 L 534.00 716.09 L 534.00 507.68 L 534.00 299.27 L 536.07 296.63 C 537.52 294.80 539.09 294.00 541.26 294.00 C 544.01 294.00 636.19 320.35 643.28 323.17 C 644.82 323.77 646.95 325.40 648.03 326.77 C 649.97 329.23 650.00 331.81 650.00 507.68 C 650.00 709.31 650.82 690.88 641.74 693.41 C 638.86 694.21 623.22 698.54 607.00 703.03 C 590.78 707.51 570.58 713.17 562.12 715.60 C 540.88 721.70 539.74 721.84 536.57 718.66 Z M 581.00 697.57 C 597.78 692.89 617.12 687.53 624.00 685.67 L 636.50 682.29 L 636.75 508.18 L 637.01 334.07 L 628.75 331.59 C 602.22 323.64 548.12 308.00 547.15 308.00 C 546.29 308.00 546.00 356.37 546.01 500.75 C 546.01 606.76 546.30 696.55 546.65 700.27 C 547.18 705.85 547.58 706.96 548.90 706.56 C 549.78 706.30 564.22 702.25 581.00 697.57 Z M 419.54 677.50 C 404.25 673.05 402.00 671.74 402.00 667.31 C 402.00 664.36 405.34 661.00 408.25 661.01 C 412.00 661.03 440.22 669.89 442.17 671.66 C 444.52 673.78 444.52 678.22 442.17 680.35 C 439.50 682.77 436.15 682.35 419.54 677.50 Z M 452.63 538.93 L 450.00 536.85 L 450.00 511.00 L 450.00 485.15 L 452.63 483.07 C 455.95 480.47 458.44 480.44 461.00 483.00 C 462.90 484.90 463.00 486.33 463.00 510.93 L 463.00 536.85 L 460.37 538.93 C 458.92 540.07 457.18 541.00 456.50 541.00 C 455.82 541.00 454.08 540.07 452.63 538.93 Z M 403.65 353.17 C 401.44 350.72 401.56 346.71 403.92 344.58 C 405.84 342.83 434.33 334.00 438.02 334.00 C 440.72 334.00 444.00 337.48 444.00 340.35 C 444.00 344.25 440.83 345.96 425.06 350.58 C 408.16 355.52 406.02 355.78 403.65 353.17 Z M 582.63 680.93 C 578.85 677.95 579.45 672.23 583.72 670.52 C 586.97 669.23 615.48 661.01 616.75 661.00 C 619.02 661.00 622.00 664.95 622.00 667.98 C 622.00 669.96 621.25 671.44 619.75 672.42 C 618.03 673.54 587.54 683.00 585.64 683.00 C 585.44 683.00 584.08 682.07 582.63 680.93 Z M 565.35 540.00 C 564.17 539.53 562.85 538.56 562.41 537.85 C 561.97 537.15 561.47 525.18 561.29 511.26 L 560.96 485.95 L 563.43 483.48 C 566.46 480.45 570.06 480.30 572.60 483.10 C 574.36 485.06 574.50 487.04 574.50 511.07 C 574.50 532.75 574.26 537.16 573.00 538.36 C 570.90 540.36 567.88 541.01 565.35 540.00 Z M 599.00 350.59 C 591.58 348.29 584.49 346.06 583.25 345.64 C 578.58 344.04 579.49 335.67 584.46 334.42 C 587.62 333.63 616.34 341.71 619.68 344.32 C 624.38 348.02 621.52 355.12 615.42 354.89 C 613.81 354.82 606.42 352.89 599.00 350.59 Z" stroke-linecap="round"/>
</g>
</g>
</g>

  </svg>