<svg xmlns="http://www.w3.org/2000/svg" xmlns:xlink="http://www.w3.org/1999/xlink" width="500px" height="399px" viewBox="0 0 499.9999999999998 399.0874821222169">
    <g id="d6654444-dede-4f0e-899c-d5dbc6e5df0f">
<g style="">
		<g id="d6654444-dede-4f0e-899c-d5dbc6e5df0f-child-0">
<path style="stroke: rgb(193,193,193); stroke-width: 0; stroke-dasharray: none; stroke-linecap: butt; stroke-dashoffset: 0; stroke-linejoin: miter; stroke-miterlimit: 4; fill: rgb(0,0,0); fill-rule: nonzero; opacity: 1;" transform="matrix(0.808232 0 0 0.808232 250.000081 199.543806) matrix(1 0 0 1 0 0)  translate(-511.682773, -512.038327)" d="M 210.42 757.58 C 203.31 754.49 200.38 746.52 203.78 739.53 C 208.69 729.40 224.40 729.53 228.66 739.72 C 233.47 751.23 221.88 762.57 210.42 757.58 Z M 252.50 758.06 C 249.52 756.84 245.04 752.02 244.36 749.28 C 243.09 744.23 244.70 738.66 248.42 735.25 C 251.52 732.41 252.66 732.00 257.45 732.00 C 262.15 732.00 263.43 732.44 266.44 735.08 C 274.25 741.94 272.61 753.69 263.28 757.64 C 259.72 759.14 255.56 759.31 252.50 758.06 Z M 760.42 757.58 C 753.48 754.56 750.47 746.72 753.60 739.79 C 755.89 734.70 760.14 732.01 765.88 732.00 C 776.64 731.99 783.37 742.96 778.01 751.76 C 774.10 758.17 767.09 760.49 760.42 757.58 Z M 801.12 757.29 C 796.53 755.03 794.01 750.58 794.00 744.74 C 793.99 732.58 809.30 727.21 817.73 736.41 C 820.47 739.39 821.00 740.75 821.00 744.74 C 820.99 755.77 810.93 762.12 801.12 757.29 Z M 290.76 756.43 C 285.46 753.56 283.47 745.85 286.51 739.98 C 288.69 735.77 291.48 734.57 300.48 734.00 L 308.46 733.50 L 318.05 707.00 C 323.33 692.42 333.98 662.95 341.73 641.50 C 349.49 620.05 356.11 601.80 356.45 600.94 C 356.91 599.78 355.71 598.74 351.81 596.94 C 339.38 591.18 328.35 575.65 325.99 560.61 C 324.49 551.00 326.48 538.85 331.03 529.95 L 332.87 526.33 L 328.93 513.92 C 326.76 507.09 323.15 496.25 320.90 489.84 L 316.82 478.18 L 302.16 477.84 C 288.10 477.51 287.23 477.37 280.78 474.32 C 271.43 469.89 264.78 463.36 260.23 454.14 C 256.64 446.87 256.50 446.21 256.50 436.03 C 256.50 426.01 256.68 425.09 259.92 418.51 C 265.83 406.50 276.85 397.87 289.80 395.13 C 293.10 394.42 307.29 394.00 327.47 394.00 L 359.85 394.00 L 360.25 356.75 C 360.68 315.38 360.87 313.97 367.69 300.00 C 372.72 289.71 384.50 277.95 395.00 272.74 C 410.17 265.21 403.94 265.63 506.50 265.24 C 569.94 265.00 601.09 265.23 606.84 265.99 C 632.67 269.42 652.22 285.12 660.57 309.15 L 663.47 317.50 L 663.80 355.75 L 664.13 394.00 L 697.35 394.00 C 734.25 394.00 738.16 394.49 747.86 400.29 C 773.96 415.91 775.39 453.93 750.51 470.45 C 741.68 476.31 738.02 477.27 722.00 477.91 L 707.50 478.50 L 699.78 501.00 C 694.93 515.15 692.19 524.61 692.42 526.50 C 692.61 528.15 693.96 532.30 695.41 535.72 C 700.60 547.92 699.83 562.44 693.30 576.00 C 690.03 582.78 679.28 593.65 672.66 596.87 C 669.22 598.55 667.96 599.70 668.28 600.86 C 668.66 602.27 694.08 673.65 710.35 719.00 L 715.55 733.50 L 723.52 734.00 C 727.91 734.28 732.51 735.08 733.74 735.78 C 738.58 738.54 740.39 746.41 737.48 752.03 C 734.16 758.47 751.78 758.00 511.80 757.96 C 320.66 757.92 293.16 757.74 290.76 756.43 Z M 365.11 720.50 C 367.74 713.35 378.20 684.55 388.36 656.50 L 406.83 605.50 L 402.66 604.82 C 400.37 604.45 394.64 604.11 389.91 604.07 L 381.33 604.00 L 361.00 659.75 C 349.82 690.41 339.17 719.68 337.34 724.78 L 334.01 734.06 L 347.17 733.78 L 360.33 733.50 L 365.11 720.50 Z M 637.00 733.02 C 637.00 732.48 632.65 720.00 627.33 705.27 C 592.43 608.58 591.31 605.64 589.41 604.89 C 588.36 604.48 552.98 604.11 510.79 604.07 C 438.70 604.00 434.01 604.11 433.15 605.75 C 432.32 607.32 399.62 696.18 389.91 723.25 L 386.06 734.00 L 511.53 734.00 C 592.61 734.00 637.00 733.65 637.00 733.02 Z M 681.98 712.25 C 674.71 691.82 662.78 658.55 649.35 621.26 L 643.50 605.02 L 634.75 604.80 C 619.07 604.42 617.50 604.49 617.69 605.50 C 617.90 606.61 637.55 661.75 650.48 697.50 C 655.05 710.15 659.85 723.54 661.14 727.25 L 663.49 734.00 L 676.61 734.00 L 689.73 734.00 L 681.98 712.25 Z M 659.12 577.85 C 667.96 574.05 675.00 563.48 675.00 554.00 C 675.00 543.26 667.84 532.44 657.71 527.86 L 652.50 525.50 L 511.50 525.50 L 370.50 525.50 L 365.61 527.93 C 359.69 530.86 354.78 535.60 351.78 541.28 C 350.05 544.54 349.54 547.20 349.52 553.00 C 349.50 559.57 349.89 561.18 352.61 566.00 C 356.31 572.53 362.64 577.44 369.71 579.25 C 373.72 580.27 403.13 580.48 514.45 580.26 L 654.16 579.99 L 659.12 577.85 Z M 676.56 494.75 C 679.17 486.91 681.50 479.94 681.75 479.25 C 682.10 478.31 679.97 478.00 673.11 478.00 L 664.00 478.00 L 664.00 491.48 L 664.00 504.95 L 667.75 506.93 C 669.81 508.02 671.58 508.93 671.67 508.96 C 671.76 508.98 673.96 502.59 676.56 494.75 Z M 356.79 506.11 L 360.50 504.22 L 360.19 491.11 L 359.89 478.00 L 351.38 478.00 C 343.02 478.00 342.88 478.04 343.51 480.25 C 345.28 486.38 352.48 508.00 352.76 508.00 C 352.94 508.00 354.75 507.15 356.79 506.11 Z M 639.79 414.50 C 640.00 352.62 639.76 325.78 638.95 321.53 C 635.93 305.66 623.93 293.40 608.20 290.11 C 600.72 288.54 423.18 288.56 415.80 290.12 C 400.29 293.41 388.54 305.55 385.12 321.80 C 383.89 327.63 383.46 500.13 384.67 501.34 C 385.04 501.71 442.53 501.89 512.42 501.75 L 639.50 501.50 L 639.79 414.50 Z M 360.00 436.50 L 360.00 418.00 L 326.82 418.00 C 295.17 418.00 293.43 418.10 289.30 420.10 C 278.45 425.35 276.22 441.34 285.16 449.70 C 290.53 454.71 292.22 454.92 327.25 454.96 L 360.00 455.00 L 360.00 436.50 Z M 735.93 452.00 C 748.32 445.01 747.63 426.36 734.75 420.12 C 730.55 418.09 728.96 418.00 697.18 418.00 L 664.00 418.00 L 664.00 436.55 L 664.00 455.10 L 697.75 454.80 L 731.50 454.50 L 735.93 452.00 Z" stroke-linecap="round"/>
</g>
</g>
</g>

  </svg>