<svg xmlns="http://www.w3.org/2000/svg" xmlns:xlink="http://www.w3.org/1999/xlink" width="3467px" height="2926px" viewBox="0 0 3466.666666666665 2925.820653096387">
    <g id="a7200cac-7d95-428a-9cc5-67ca8a7adba5">
<g style="">
		<g id="a7200cac-7d95-428a-9cc5-67ca8a7adba5-child-0">
<path style="stroke: rgb(193,193,193); stroke-width: 0; stroke-dasharray: none; stroke-linecap: butt; stroke-dashoffset: 0; stroke-linejoin: miter; stroke-miterlimit: 4; fill: rgb(0,0,0); fill-rule: nonzero; opacity: 1;" transform="matrix(4.660225 0 0 4.660225 1733.333337 1462.91033) matrix(1 0 0 1 0 0)  translate(-511.951912, -512.995405)" d="M 434.33 825.12 C 421.44 820.34 412.08 810.24 407.34 796.00 C 405.62 790.82 405.48 783.19 405.01 666.08 L 404.50 541.67 L 396.00 538.90 C 391.33 537.38 376.25 532.67 362.50 528.44 C 348.75 524.21 324.23 516.60 308.00 511.53 C 291.77 506.47 278.17 502.50 277.77 502.71 C 277.36 502.92 277.02 550.92 277.01 609.37 C 276.98 726.00 277.25 720.63 270.90 733.21 C 269.18 736.61 265.37 741.74 262.45 744.59 C 245.79 760.85 221.04 760.80 204.87 744.46 C 198.50 738.02 195.63 733.43 192.73 725.00 L 190.50 718.50 L 190.00 536.56 L 189.50 354.62 L 176.38 350.47 C 161.27 345.70 157.79 343.79 151.59 336.89 C 142.51 326.79 140.02 317.65 140.01 294.41 C 140.00 278.51 141.02 273.74 145.98 266.53 C 149.70 261.12 158.83 254.78 165.20 253.18 C 167.57 252.59 184.12 250.04 202.00 247.51 C 219.88 244.99 294.35 234.40 367.50 223.99 C 440.65 213.57 510.62 203.64 523.00 201.90 C 544.17 198.94 546.72 198.79 566.00 199.32 C 590.76 200.01 596.05 200.78 612.64 206.05 C 619.71 208.30 662.62 221.32 708.00 234.99 C 851.34 278.18 857.37 280.03 863.62 282.93 C 871.70 286.68 877.31 291.90 880.72 298.84 C 883.37 304.23 883.52 305.31 883.83 321.15 C 884.21 340.20 882.98 347.25 877.84 355.24 C 870.85 366.14 861.73 371.21 844.49 373.80 L 832.50 375.59 L 832.00 561.05 L 831.50 746.50 L 829.11 752.50 C 823.98 765.36 816.36 773.94 805.46 779.12 C 788.79 787.05 772.55 784.34 758.96 771.38 C 752.60 765.31 748.86 759.11 746.35 750.43 C 744.79 745.02 744.60 734.38 744.24 628.63 L 743.85 512.77 L 739.68 513.44 C 733.26 514.47 631.26 528.76 624.80 529.53 L 619.10 530.22 L 618.80 603.36 L 618.50 676.50 L 616.17 683.00 C 611.51 696.03 603.83 704.73 592.00 710.39 C 586.07 713.23 584.63 713.50 575.50 713.50 C 566.73 713.50 564.79 713.17 559.75 710.80 C 552.30 707.31 544.06 699.46 540.15 692.13 C 534.08 680.75 534.03 680.03 534.01 608.25 L 534.00 543.00 L 531.75 542.99 C 530.51 542.99 520.62 544.20 509.77 545.69 L 490.05 548.39 L 489.77 669.44 L 489.50 790.50 L 486.83 797.38 C 481.73 810.50 474.50 818.58 463.23 823.77 C 455.47 827.34 442.01 827.97 434.33 825.12 Z M 452.89 795.37 C 454.17 794.47 456.06 791.88 457.09 789.62 C 458.88 785.67 458.96 780.53 458.98 664.43 C 459.00 529.14 458.52 538.24 466.17 529.54 C 468.39 527.03 472.19 523.80 474.63 522.37 C 479.49 519.52 473.16 520.54 571.00 506.95 C 598.78 503.09 654.84 495.23 695.59 489.47 C 736.34 483.71 770.93 479.00 772.46 479.00 C 779.20 479.00 787.00 487.04 787.00 494.00 C 787.00 498.39 783.01 504.94 778.90 507.28 L 775.02 509.50 L 775.01 624.93 L 775.00 740.37 L 777.14 744.78 C 779.61 749.89 784.05 752.99 788.90 753.00 C 793.87 753.00 799.45 746.89 800.97 739.79 C 801.80 735.93 802.02 686.62 801.80 557.50 L 801.50 380.51 L 797.50 380.82 C 792.25 381.23 774.83 383.80 774.60 384.19 C 774.50 384.36 774.59 394.30 774.81 406.28 L 775.20 428.06 L 778.85 429.93 C 786.54 433.88 789.73 440.30 787.79 447.94 C 786.49 453.04 781.21 459.18 776.33 461.25 C 774.09 462.21 745.75 466.66 708.00 471.99 C 672.53 477.00 607.48 486.24 563.44 492.52 C 499.71 501.62 482.68 503.75 479.91 502.99 C 474.93 501.61 467.69 496.77 464.65 492.79 C 459.44 485.96 459.00 482.96 459.00 454.37 L 459.00 428.00 L 452.25 427.99 C 448.54 427.99 443.14 427.70 440.25 427.35 L 435.00 426.72 L 434.99 451.11 C 434.98 474.61 434.89 475.68 432.63 480.56 C 429.71 486.82 423.59 492.18 416.88 494.35 C 408.39 497.09 409.27 497.28 365.00 483.50 C 353.73 479.99 324.92 471.03 301.00 463.59 C 234.01 442.77 235.25 443.28 231.10 434.71 C 225.92 424.00 231.11 412.76 242.59 409.87 L 247.00 408.76 L 247.00 390.38 C 247.00 380.27 246.81 372.00 246.58 372.00 C 246.35 372.00 241.06 370.41 234.83 368.47 C 228.60 366.52 222.71 364.69 221.75 364.40 C 220.09 363.89 220.00 372.55 220.00 536.49 C 220.00 663.01 220.31 710.33 221.15 713.67 C 222.71 719.89 228.53 726.00 232.89 726.00 C 238.08 726.00 241.56 723.53 244.40 717.83 L 247.00 712.61 L 246.96 603.05 L 246.92 493.50 L 243.75 491.50 C 238.75 488.35 236.00 483.49 236.00 477.79 C 236.00 470.16 239.69 464.70 245.99 463.00 C 250.31 461.84 245.61 460.54 314.50 481.95 C 343.10 490.84 377.52 501.52 391.00 505.69 C 404.48 509.85 417.17 514.11 419.22 515.14 C 424.62 517.86 429.80 522.71 432.31 527.41 L 434.50 531.50 L 435.00 659.00 C 435.47 779.31 435.60 786.69 437.30 789.79 C 440.72 796.06 448.12 798.70 452.89 795.37 Z M 582.49 680.83 C 588.11 676.41 588.00 677.90 588.00 603.44 L 588.00 534.82 L 584.25 535.39 C 582.19 535.70 576.79 536.47 572.25 537.09 L 564.00 538.23 L 564.00 605.15 C 564.00 659.75 564.25 672.67 565.38 675.36 C 567.32 680.00 571.49 683.00 576.00 683.00 C 578.31 683.00 580.78 682.18 582.49 680.83 Z M 526.97 467.47 C 578.44 460.31 707.14 442.07 711.00 441.39 C 714.39 440.79 714.42 440.75 712.06 439.85 C 710.71 439.34 686.19 431.88 657.56 423.27 L 605.50 407.63 L 550.50 415.42 C 520.25 419.71 494.26 423.45 492.75 423.73 L 490.00 424.25 L 490.00 448.12 L 490.00 472.00 L 492.22 472.00 C 493.45 472.00 509.09 469.96 526.97 467.47 Z M 405.41 442.75 C 405.05 431.06 404.47 421.24 404.12 420.92 C 403.78 420.60 400.79 419.55 397.47 418.58 C 391.62 416.87 391.05 416.88 378.47 418.91 C 371.34 420.06 352.00 423.04 335.50 425.52 C 300.38 430.80 299.99 430.87 302.01 431.95 C 302.83 432.38 322.62 438.67 346.00 445.93 C 369.38 453.18 391.65 460.18 395.50 461.48 C 407.13 465.40 406.18 467.21 405.41 442.75 Z M 743.74 388.41 C 743.43 388.10 681.47 396.68 679.66 397.28 C 679.14 397.45 683.62 399.08 689.61 400.89 C 695.60 402.70 710.17 407.18 722.00 410.85 L 743.50 417.52 L 743.78 403.12 C 743.93 395.20 743.91 388.58 743.74 388.41 Z M 324.00 396.95 C 325.08 396.79 318.68 394.61 299.06 388.45 C 287.82 384.93 278.46 382.21 278.25 382.41 C 277.58 383.09 276.70 400.79 277.27 402.26 C 277.81 403.67 282.83 403.10 324.00 396.95 Z M 512.22 390.99 C 557.46 384.41 728.92 360.17 809.50 348.95 C 829.30 346.19 846.59 343.39 847.91 342.72 C 851.39 340.96 853.99 336.13 854.00 331.42 C 854.00 329.17 853.78 327.11 853.51 326.84 C 852.93 326.26 866.01 324.41 646.00 356.12 L 470.50 381.41 L 451.00 381.38 C 439.54 381.36 429.23 380.85 426.00 380.14 C 422.98 379.47 408.35 375.15 393.50 370.53 C 378.65 365.90 324.88 349.45 274.00 333.96 C 223.12 318.47 179.48 305.17 177.00 304.41 C 170.40 302.38 170.21 302.46 170.69 307.25 C 171.36 313.92 172.96 316.94 176.89 318.92 C 178.88 319.91 195.57 325.33 214.00 330.96 C 243.48 339.97 340.89 369.94 401.50 388.66 C 428.55 397.01 432.63 397.79 449.72 397.91 C 462.36 397.99 469.27 397.22 512.22 390.99 Z M 569.07 337.04 C 704.59 317.64 819.26 301.05 820.40 300.69 C 820.90 300.53 818.20 299.46 814.40 298.31 C 791.14 291.26 731.46 273.16 720.50 269.83 C 713.35 267.65 687.25 259.81 662.50 252.39 C 637.75 244.97 610.97 236.92 603.00 234.50 C 589.98 230.54 586.82 229.97 572.00 228.93 C 562.92 228.30 552.12 228.07 548.00 228.44 C 537.42 229.37 484.32 236.77 376.00 252.41 C 218.94 275.09 196.97 278.37 197.75 279.03 C 198.16 279.39 211.55 283.60 227.50 288.40 C 265.43 299.82 366.83 330.78 403.00 341.99 C 418.67 346.85 432.62 351.03 434.00 351.28 C 435.38 351.52 442.83 351.79 450.57 351.86 C 463.76 351.99 471.15 351.07 569.07 337.04 Z" stroke-linecap="round"/>
</g>
</g>
</g>

  </svg>