<svg xmlns="http://www.w3.org/2000/svg" xmlns:xlink="http://www.w3.org/1999/xlink" width="500px" height="393px" viewBox="0 0 499.9999999999998 393.2699435705231">
    <g id="a9e30d63-d40d-4d08-9993-6e230f393c2e">
<g style="">
		<g id="a9e30d63-d40d-4d08-9993-6e230f393c2e-child-0">
<path style="stroke: rgb(193,193,193); stroke-width: 0; stroke-dasharray: none; stroke-linecap: butt; stroke-dashoffset: 0; stroke-linejoin: miter; stroke-miterlimit: 4; fill: rgb(0,0,0); fill-rule: nonzero; opacity: 1;" transform="matrix(0.727427 0 0 0.727427 250.00008 196.635035) matrix(1 0 0 1 0 0)  translate(-512.177207, -512.688993)" d="M 329.50 781.44 C 308.35 778.85 284.02 771.32 266.00 761.79 C 216.57 735.63 182.50 691.55 170.72 638.50 C 168.58 628.85 168.50 626.62 168.50 574.50 L 168.50 520.50 L 171.68 513.78 C 176.11 504.43 182.64 497.78 191.86 493.23 L 199.40 489.50 L 508.95 489.23 C 720.43 489.05 820.05 489.29 823.40 490.00 C 838.78 493.27 851.72 506.27 855.05 521.82 C 855.76 525.09 856.00 543.83 855.77 576.64 C 855.44 623.68 855.29 627.11 853.18 637.24 C 837.03 714.50 771.20 773.17 690.79 781.94 C 675.22 783.64 343.72 783.18 329.50 781.44 Z M 698.12 750.93 C 744.99 743.08 786.70 713.95 808.75 673.69 C 814.31 663.53 820.83 647.79 821.70 642.45 L 822.26 639.00 L 757.38 639.00 C 697.61 639.00 692.23 638.86 689.02 637.25 C 679.06 632.24 678.44 618.85 687.88 612.44 L 691.46 610.00 L 755.10 610.00 L 818.73 610.00 L 821.49 607.83 C 826.79 603.66 827.00 602.03 827.00 564.50 C 827.00 526.19 826.78 524.67 820.81 521.03 C 817.51 519.01 816.65 519.01 511.33 519.00 L 205.15 519.00 L 202.21 521.48 C 196.99 525.87 196.90 526.65 197.21 566.37 L 197.50 603.16 L 201.24 606.58 L 204.97 610.00 L 422.53 610.00 C 658.70 610.00 642.51 609.61 647.92 615.40 C 649.67 617.28 650.44 619.42 650.72 623.24 C 651.18 629.43 648.95 633.84 643.76 637.01 C 640.53 638.97 638.26 638.99 420.75 639.00 C 287.60 639.00 201.00 639.36 201.00 639.92 C 201.00 642.25 207.68 659.39 211.74 667.50 C 219.11 682.20 227.45 693.54 240.46 706.54 C 261.21 727.30 283.56 740.41 310.35 747.54 C 330.80 752.98 324.03 752.80 511.62 752.90 C 683.39 753.00 685.92 752.97 698.12 750.93 Z M 451.22 429.39 C 449.41 428.47 446.94 426.32 445.72 424.61 L 443.50 421.50 L 443.50 360.00 L 443.50 298.50 L 446.32 290.51 C 455.89 263.45 478.19 245.58 506.11 242.61 C 518.13 241.33 535.16 245.34 546.83 252.18 C 555.33 257.16 567.82 270.14 572.17 278.50 C 579.86 293.31 580.31 295.98 580.77 329.47 C 581.05 349.59 580.82 360.66 580.08 363.13 C 578.70 367.75 573.18 372.69 568.40 373.58 C 563.14 374.57 556.19 371.48 553.55 366.99 C 551.64 363.74 551.46 361.41 550.98 333.00 C 550.38 297.77 549.98 295.86 540.95 285.73 C 521.96 264.43 488.89 269.19 476.60 295.00 L 473.50 301.50 L 473.00 361.18 C 472.51 419.49 472.45 420.92 470.44 423.62 C 465.47 430.27 457.58 432.64 451.22 429.39 Z" stroke-linecap="round"/>
</g>
</g>
</g>

  </svg>