<svg xmlns="http://www.w3.org/2000/svg" xmlns:xlink="http://www.w3.org/1999/xlink" width="390px" height="500px" viewBox="0 0 390.02949170010254 499.9999999999998">
    <g id="a5fc280f-e5dd-41ab-96c1-3df84b6b8794">
<g style="">
		<g id="a5fc280f-e5dd-41ab-96c1-3df84b6b8794-child-0">
<path style="stroke: rgb(193,193,193); stroke-width: 0; stroke-dasharray: none; stroke-linecap: butt; stroke-dashoffset: 0; stroke-linejoin: miter; stroke-miterlimit: 4; fill: rgb(0,0,0); fill-rule: nonzero; opacity: 1;" transform="matrix(0.928601 0 0 0.928601 195.01474 249.999992) matrix(1 0 0 1 0 0)  translate(-511.940344, -512.689546)" d="M 329.84 780.08 C 326.72 779.08 322.61 777.31 320.71 776.13 C 316.65 773.62 310.35 766.97 307.31 762.00 C 301.36 752.24 300.44 737.25 305.18 726.95 C 306.55 723.95 327.89 694.44 352.59 661.36 C 377.29 628.28 410.33 584.04 426.00 563.04 C 441.67 542.04 455.28 523.20 456.22 521.18 C 458.19 516.98 458.52 509.85 456.89 506.80 C 456.28 505.66 450.97 498.38 445.09 490.62 C 439.20 482.85 420.13 457.15 402.70 433.50 C 385.28 409.85 357.48 372.27 340.94 350.00 C 324.39 327.73 309.52 307.48 307.89 305.00 C 296.98 288.43 301.51 263.75 317.73 251.38 C 328.08 243.48 344.21 241.19 356.25 245.90 C 366.00 249.71 370.37 254.19 389.12 279.61 C 398.81 292.75 427.36 331.40 452.56 365.50 C 477.76 399.60 498.99 428.70 499.73 430.18 C 502.99 436.67 495.56 444.68 488.70 442.07 C 487.11 441.47 481.79 435.26 474.75 425.80 C 446.49 387.78 368.77 282.39 362.57 273.67 C 356.02 264.46 351.63 261.66 343.01 261.17 C 335.29 260.73 331.70 262.12 325.77 267.79 C 318.98 274.30 317.00 287.47 321.83 293.98 C 322.86 295.36 332.85 308.88 344.02 324.00 C 355.19 339.12 373.86 364.33 385.51 380.00 C 407.37 409.42 457.78 477.92 461.94 483.86 C 467.02 491.12 476.37 491.67 482.86 485.10 C 484.86 483.07 497.28 466.80 510.47 448.95 C 523.65 431.10 539.42 409.75 545.52 401.50 C 551.61 393.25 558.27 384.18 560.32 381.34 C 564.10 376.10 568.51 373.54 571.78 374.69 C 575.73 376.08 578.00 379.28 578.00 383.42 C 577.99 387.03 576.77 389.16 567.28 402.00 C 552.20 422.42 495.44 499.04 465.07 539.97 C 433.13 583.04 417.97 603.49 404.27 622.00 C 398.37 629.97 377.36 658.10 357.59 684.50 C 337.81 710.90 321.06 734.08 320.36 736.00 C 318.68 740.62 318.71 742.65 320.51 748.71 C 323.11 757.46 333.05 765.00 342.00 765.00 C 346.84 765.00 353.67 761.95 358.95 757.45 C 363.19 753.83 364.89 753.00 368.08 753.00 C 372.91 753.00 376.00 755.75 376.00 760.05 C 376.00 764.33 373.87 767.97 369.12 771.78 C 357.40 781.20 342.91 784.26 329.84 780.08 Z M 672.62 780.95 C 666.78 779.48 657.73 774.33 653.71 770.19 C 651.74 768.16 641.12 754.35 630.09 739.50 C 612.92 716.38 610.04 711.99 610.02 708.94 C 609.98 703.01 615.51 698.91 621.51 700.41 C 623.10 700.81 626.08 703.86 629.69 708.77 C 632.81 713.02 641.65 725.05 649.32 735.50 C 656.99 745.95 664.44 755.78 665.88 757.34 C 669.03 760.76 674.29 763.59 679.21 764.51 C 687.29 766.03 698.38 759.97 702.65 751.71 C 704.94 747.28 705.49 739.10 703.77 734.99 C 702.97 733.07 694.82 721.41 685.65 709.09 C 671.81 690.46 669.00 686.11 669.00 683.29 C 669.00 675.58 678.83 671.98 684.17 677.75 C 685.57 679.26 693.94 690.27 702.76 702.21 C 721.44 727.47 722.43 729.62 721.83 743.46 C 721.48 751.38 720.96 753.64 718.19 759.26 C 714.01 767.76 705.29 775.99 697.28 779.01 C 690.71 781.49 678.56 782.44 672.62 780.95 Z M 335.80 747.95 C 330.98 743.13 332.00 740.51 345.68 722.63 C 352.18 714.13 367.96 693.08 380.75 675.84 C 393.53 658.60 412.55 633.03 423.01 619.00 C 433.47 604.97 456.31 574.22 473.76 550.65 C 491.22 527.08 516.10 493.55 529.04 476.15 C 541.99 458.74 561.06 433.02 571.42 419.00 C 581.77 404.98 591.34 392.49 592.68 391.25 C 598.94 385.46 608.88 391.88 606.61 400.25 C 606.27 401.49 595.08 417.15 581.75 435.06 C 568.41 452.98 542.42 488.00 524.00 512.90 C 505.58 537.80 469.80 585.98 444.50 619.97 C 419.20 653.96 387.35 696.83 373.72 715.24 C 359.02 735.08 347.91 749.18 346.42 749.85 C 342.22 751.77 339.05 751.20 335.80 747.95 Z M 677.93 749.56 C 675.40 748.15 643.76 706.31 640.61 700.21 C 638.37 695.89 638.59 693.64 641.59 690.08 C 644.50 686.62 649.05 685.95 652.63 688.45 C 654.38 689.68 683.95 728.76 689.24 736.84 C 691.63 740.47 691.44 744.39 688.75 747.45 C 685.99 750.59 681.37 751.49 677.93 749.56 Z M 383.50 741.85 C 380.27 740.08 379.00 737.85 379.04 734.06 C 379.07 731.07 381.32 727.49 393.11 711.70 C 401.99 699.81 408.09 692.53 409.72 691.92 C 413.76 690.38 418.91 692.54 420.54 696.45 C 421.29 698.23 421.62 700.77 421.28 702.09 C 420.52 705.05 395.77 738.25 392.27 741.01 C 389.45 743.22 386.52 743.50 383.50 741.85 Z M 597.00 687.80 C 591.48 686.84 588.53 684.75 584.00 678.58 C 582.08 675.96 567.95 656.87 552.61 636.16 C 537.28 615.45 524.28 597.52 523.74 596.32 C 522.44 593.48 523.48 589.56 526.20 587.03 C 528.93 584.48 535.00 584.34 537.83 586.75 C 538.96 587.71 552.33 605.38 567.55 626.00 C 582.77 646.62 596.34 664.70 597.72 666.17 C 602.29 671.05 603.22 670.86 628.94 659.57 C 642.08 653.80 653.94 648.80 655.31 648.46 C 661.35 646.94 667.36 654.31 665.04 660.40 C 663.90 663.40 660.22 665.30 629.00 679.04 C 609.43 687.65 604.25 689.07 597.00 687.80 Z M 428.36 683.03 C 422.59 680.65 421.36 673.49 425.92 668.92 C 431.68 663.17 440.00 666.63 440.00 674.78 C 440.00 680.87 433.78 685.27 428.36 683.03 Z M 445.51 653.60 C 441.04 649.13 441.95 645.84 451.09 633.46 C 460.91 620.16 487.76 584.02 509.02 555.50 C 517.62 543.95 540.12 513.58 559.01 488.00 C 608.10 421.55 619.73 406.22 621.93 405.04 C 627.37 402.12 633.69 405.10 634.60 411.00 C 635.27 415.43 636.65 413.39 599.06 463.73 C 582.32 486.16 568.01 506.27 567.26 508.43 C 565.14 514.49 566.45 519.01 572.84 527.85 C 579.39 536.90 608.49 576.12 627.73 601.82 C 645.64 625.73 646.54 627.26 645.40 631.85 C 644.13 636.98 638.72 639.96 634.12 638.05 C 632.37 637.33 629.96 635.33 628.76 633.62 C 620.74 622.18 562.22 543.89 559.75 541.30 C 553.91 535.17 547.73 536.20 540.00 544.61 C 537.53 547.30 519.53 571.06 500.00 597.42 C 453.90 659.64 457.35 655.43 452.21 655.81 C 448.83 656.05 447.54 655.63 445.51 653.60 Z M 604.35 651.04 C 602.10 650.10 601.38 649.16 564.79 599.67 C 545.40 573.43 542.00 568.31 542.00 565.37 C 542.00 557.61 551.00 554.21 556.89 559.75 C 558.50 561.26 572.49 579.71 587.97 600.75 C 607.44 627.20 616.29 640.02 616.67 642.32 C 617.65 648.38 610.33 653.56 604.35 651.04 Z M 466.65 466.75 C 465.29 465.51 454.77 451.67 443.27 436.00 C 417.55 400.96 350.18 309.78 340.94 297.50 C 333.39 287.48 332.18 284.40 334.02 279.94 C 335.52 276.32 337.72 275.00 342.24 275.00 C 346.12 275.00 348.43 277.17 357.14 289.00 C 378.31 317.75 455.20 421.97 466.69 437.50 C 474.42 447.95 481.04 457.45 481.40 458.62 C 482.19 461.19 480.54 465.87 478.21 467.64 C 475.42 469.76 469.44 469.30 466.65 466.75 Z M 631.00 387.60 C 616.08 381.03 583.20 363.97 582.64 362.50 C 582.29 361.59 582.00 359.11 582.00 356.99 C 582.00 352.51 585.50 349.00 589.98 349.00 C 591.47 349.00 602.77 353.99 615.09 360.10 C 629.24 367.10 638.74 371.24 640.87 371.30 C 645.17 371.43 645.95 370.55 666.95 341.92 C 676.00 329.59 687.81 313.56 693.20 306.30 C 698.60 299.04 703.46 291.93 704.00 290.49 C 706.01 285.22 705.19 277.86 701.98 272.26 C 694.32 258.91 675.43 257.00 666.22 268.64 C 662.96 272.76 632.69 313.91 622.65 327.88 C 616.02 337.09 612.66 339.34 607.63 337.89 C 603.24 336.64 601.55 334.49 601.55 330.20 C 601.55 326.84 604.32 322.66 626.94 291.96 C 640.90 273.01 653.71 256.01 655.41 254.19 C 659.55 249.75 669.09 245.20 676.84 243.95 C 693.40 241.28 710.64 250.40 718.26 265.87 C 721.11 271.65 721.54 273.62 721.84 282.10 C 722.34 296.23 721.12 298.64 697.42 330.62 C 663.69 376.10 656.60 385.32 653.70 387.43 C 649.28 390.64 638.10 390.73 631.00 387.60 Z M 631.00 351.00 C 629.68 349.68 629.00 347.67 629.00 345.07 C 629.00 341.76 630.05 339.75 635.61 332.46 C 639.25 327.70 649.63 313.61 658.68 301.15 C 667.72 288.69 676.05 277.71 677.17 276.75 C 682.46 272.24 691.00 276.45 691.00 283.57 C 691.00 286.73 688.75 290.26 674.18 309.86 C 664.93 322.31 654.95 335.88 652.01 340.00 C 643.51 351.92 642.29 353.00 637.31 353.00 C 634.33 353.00 632.38 352.38 631.00 351.00 Z" stroke-linecap="round"/>
</g>
</g>
</g>

  </svg>