<svg xmlns="http://www.w3.org/2000/svg" xmlns:xlink="http://www.w3.org/1999/xlink" width="500px" height="332px" viewBox="0 0 499.9999999999998 331.5853672997807">
    <g id="025aac1c-0117-4e61-a36d-7bf9ce40fd81">
<g style="">
		<g id="025aac1c-0117-4e61-a36d-7bf9ce40fd81-child-0">
<path style="stroke: rgb(193,193,193); stroke-width: 0; stroke-dasharray: none; stroke-linecap: butt; stroke-dashoffset: 0; stroke-linejoin: miter; stroke-miterlimit: 4; fill: rgb(0,0,0); fill-rule: nonzero; opacity: 1;" transform="matrix(1.028108 0 0 1.028108 249.999885 165.792607) matrix(1 0 0 1 0 0)  translate(-511.665004, -512.447875)" d="M 303.01 672.31 C 296.82 670.05 287.89 660.96 285.50 654.50 C 283.98 650.39 283.59 645.89 283.31 629.12 L 282.97 608.73 L 278.55 602.08 C 276.12 598.42 272.86 591.84 271.31 587.46 L 268.50 579.50 L 268.50 481.50 L 268.50 383.50 L 270.88 378.23 C 274.15 370.99 282.10 363.87 289.50 361.54 C 296.88 359.22 306.75 359.81 312.86 362.93 C 319.22 366.17 325.54 373.15 327.94 379.57 C 329.92 384.85 330.00 387.05 330.00 433.19 L 330.00 481.30 L 346.25 480.59 C 364.10 479.81 383.46 477.72 392.00 475.66 L 397.50 474.33 L 393.00 473.15 C 369.43 466.95 352.59 451.66 346.02 430.50 C 343.42 422.13 342.91 407.34 344.93 399.00 C 352.06 369.62 379.47 349.35 409.41 351.32 C 424.55 352.32 436.82 357.44 447.46 367.18 C 460.74 379.35 467.20 393.82 467.27 411.50 C 467.32 426.34 463.86 437.34 455.38 449.25 C 453.52 451.86 452.23 454.00 452.50 454.00 C 454.15 454.00 473.60 442.31 485.50 434.18 C 532.33 402.15 541.07 397.12 561.00 390.64 C 576.02 385.77 584.30 384.55 602.00 384.61 C 624.96 384.69 643.37 389.14 664.40 399.70 C 677.22 406.14 692.95 416.93 698.92 423.38 C 701.91 426.60 702.33 426.61 706.39 423.52 C 714.56 417.28 727.71 415.87 737.09 420.22 C 743.25 423.07 749.20 428.64 752.35 434.50 C 754.48 438.47 754.50 439.06 754.78 507.00 C 754.95 549.29 754.68 577.26 754.07 580.10 C 752.48 587.52 749.21 595.36 744.97 601.93 L 741.00 608.07 L 741.00 626.32 C 741.00 650.86 738.76 658.97 729.96 666.38 C 723.26 672.02 719.16 673.48 710.00 673.48 C 699.83 673.48 694.38 671.38 688.00 665.00 C 681.94 658.94 679.76 653.32 679.07 642.00 L 678.50 632.50 L 511.87 632.25 L 345.23 631.99 L 344.81 641.75 C 344.31 653.26 342.25 658.75 336.14 664.86 C 329.84 671.16 324.83 673.29 315.50 673.65 C 309.91 673.87 306.15 673.47 303.01 672.31 Z M 319.03 652.48 C 323.21 650.32 325.00 646.18 325.00 638.68 L 325.00 632.26 L 321.25 631.62 C 318.10 631.08 314.10 629.61 304.12 625.28 C 301.95 624.35 303.03 645.78 305.31 649.03 C 308.70 653.88 313.84 655.17 319.03 652.48 Z M 715.78 652.44 C 719.91 649.55 721.00 645.83 721.00 634.63 L 721.00 624.16 L 714.25 627.07 C 710.54 628.66 705.59 630.44 703.25 631.02 L 699.00 632.08 L 699.00 639.64 C 699.00 646.90 699.13 647.33 702.40 650.60 C 705.10 653.30 706.60 654.00 709.68 654.00 C 711.81 654.00 714.56 653.30 715.78 652.44 Z M 703.42 610.21 C 720.00 603.99 731.89 590.40 734.98 574.11 C 736.56 565.78 736.32 447.20 734.72 444.03 C 733.22 441.06 727.46 437.00 724.75 437.00 C 721.76 437.00 716.65 439.75 714.99 442.25 C 713.72 444.17 713.43 454.18 713.00 509.67 L 712.50 574.83 L 709.48 579.12 C 707.60 581.80 704.46 584.46 701.12 586.21 L 695.77 589.00 L 511.27 589.00 L 326.77 589.00 L 321.81 586.30 C 318.40 584.45 316.01 582.18 314.18 579.05 L 311.50 574.50 L 311.00 480.96 C 310.53 392.51 310.40 387.26 308.67 384.62 C 307.67 383.09 305.19 381.14 303.17 380.29 C 299.99 378.95 298.97 378.93 295.50 380.12 C 287.54 382.86 288.00 376.65 288.00 480.04 C 288.00 579.97 287.86 577.40 293.78 588.40 C 299.50 599.02 313.77 609.76 325.00 611.88 C 327.48 612.35 412.30 612.66 513.50 612.58 L 697.50 612.43 L 703.42 610.21 Z M 692.93 567.13 C 693.53 566.00 693.69 561.23 693.32 555.13 L 692.70 545.00 L 511.35 545.00 L 330.00 545.00 L 330.00 556.33 C 330.00 562.57 330.30 567.97 330.67 568.33 C 331.03 568.70 412.47 569.00 511.63 569.00 C 686.76 569.00 691.96 568.95 692.93 567.13 Z M 693.98 486.54 L 693.91 448.08 L 690.59 444.11 C 682.74 434.71 668.92 424.44 654.27 417.12 C 625.58 402.77 594.77 400.33 565.54 410.09 C 551.61 414.75 535.78 423.63 510.57 440.94 C 481.60 460.84 472.03 466.66 454.50 475.08 C 420.38 491.47 388.07 499.22 347.75 500.67 L 330.00 501.31 L 330.00 513.16 L 330.00 525.00 L 512.02 525.00 L 694.04 525.00 L 693.98 486.54 Z M 418.27 452.00 C 426.65 449.41 435.09 443.11 439.97 435.80 C 451.62 418.37 449.79 397.69 435.33 383.21 C 417.86 365.71 388.45 367.28 372.92 386.54 C 367.22 393.61 364.65 400.54 364.19 410.10 C 363.66 420.91 365.51 427.70 371.27 436.10 C 381.63 451.22 400.32 457.54 418.27 452.00 Z" stroke-linecap="round"/>
</g>
</g>
</g>

  </svg>