<svg xmlns="http://www.w3.org/2000/svg" xmlns:xlink="http://www.w3.org/1999/xlink" width="500px" height="489px" viewBox="0 0 499.9999999999998 489.1127586879327">
    <g id="6013aa78-59c5-445c-8996-39961dc499dd">
<g style="">
		<g id="6013aa78-59c5-445c-8996-39961dc499dd-child-0">
<path style="stroke: rgb(193,193,193); stroke-width: 0; stroke-dasharray: none; stroke-linecap: butt; stroke-dashoffset: 0; stroke-linejoin: miter; stroke-miterlimit: 4; fill: rgb(0,0,0); fill-rule: nonzero; opacity: 1;" transform="matrix(0.957854 0 0 0.957854 249.999962 244.556342) matrix(1 0 0 1 0 0)  translate(-512.00007, -512.316929)" d="M 258.28 767.30 C 257.07 767.06 254.93 765.51 253.53 763.86 L 251.00 760.85 L 251.00 739.36 C 251.00 726.53 251.42 717.09 252.03 715.94 C 254.16 711.96 258.13 711.00 272.45 711.00 L 286.00 711.00 L 286.00 487.08 L 286.00 263.15 L 288.59 260.08 L 291.18 257.00 L 511.67 257.00 L 732.15 257.00 L 735.08 259.92 L 738.00 262.85 L 738.00 486.92 L 738.00 711.00 L 751.45 711.00 C 773.26 711.00 773.00 710.65 773.00 739.93 L 773.00 760.97 L 770.08 764.23 L 767.16 767.50 L 513.83 767.62 C 374.50 767.68 259.50 767.54 258.28 767.30 Z M 753.00 739.00 L 753.00 731.00 L 512.00 731.00 L 271.00 731.00 L 271.00 738.83 C 271.00 743.14 271.19 746.85 271.42 747.08 C 271.65 747.31 380.10 747.39 512.42 747.25 L 753.00 746.99 L 753.00 739.00 Z M 322.00 505.40 L 322.00 299.80 L 325.40 296.40 L 328.80 293.00 L 511.82 293.00 L 694.85 293.00 L 697.92 295.59 L 701.00 298.17 L 701.25 504.34 L 701.50 710.50 L 709.75 710.79 L 718.00 711.08 L 718.00 494.04 L 718.00 277.00 L 512.00 277.00 L 306.00 277.00 L 306.00 494.00 L 306.00 711.00 L 314.00 711.00 L 322.00 711.00 L 322.00 505.40 Z M 682.00 512.00 L 682.00 313.00 L 512.00 313.00 L 342.00 313.00 L 342.00 512.00 L 342.00 711.00 L 512.00 711.00 L 682.00 711.00 L 682.00 512.00 Z M 362.40 691.60 L 359.00 688.20 L 359.00 635.62 L 359.00 583.03 L 361.92 579.77 L 364.83 576.50 L 412.12 576.21 C 463.10 575.90 463.90 575.97 466.55 581.09 C 468.69 585.23 468.71 685.72 466.57 689.85 C 463.94 694.95 463.39 695.00 412.85 695.00 L 365.80 695.00 L 362.40 691.60 Z M 448.00 656.00 L 448.00 637.00 L 439.40 637.00 C 430.95 637.00 430.74 636.94 427.40 633.60 C 422.87 629.07 422.70 624.15 426.92 619.92 C 429.72 617.12 430.22 617.00 438.92 617.00 L 448.00 617.00 L 448.00 607.00 L 448.00 597.00 L 413.50 597.00 L 379.00 597.00 L 379.00 606.38 C 379.00 617.27 378.67 616.96 390.33 616.99 C 396.59 617.00 397.40 617.25 400.20 620.05 C 402.90 622.75 403.19 623.57 402.69 627.30 C 402.29 630.29 401.24 632.29 399.05 634.25 C 396.20 636.79 395.33 637.00 387.48 637.00 L 379.00 637.00 L 379.00 656.00 L 379.00 675.00 L 413.50 675.00 L 448.00 675.00 L 448.00 656.00 Z M 489.66 693.87 C 484.83 691.06 485.00 697.42 485.00 517.53 L 485.00 349.00 L 432.00 349.00 L 379.00 349.00 L 379.00 431.55 L 379.00 514.10 L 376.47 516.44 C 375.09 517.72 372.95 518.97 371.72 519.20 C 368.39 519.84 363.58 518.30 361.42 515.91 C 359.56 513.86 359.49 510.93 359.23 424.81 L 358.97 335.83 L 362.38 332.42 L 365.80 329.00 L 431.45 329.00 C 501.78 329.00 501.31 328.97 503.97 333.94 C 504.67 335.24 505.00 393.27 505.00 512.51 L 505.00 689.15 L 502.08 692.08 C 499.85 694.31 498.25 694.99 495.33 694.97 C 493.22 694.95 490.67 694.46 489.66 693.87 Z M 525.92 692.08 L 523.00 689.15 L 523.00 512.13 L 523.00 335.11 L 525.41 332.31 L 527.83 329.50 L 594.00 329.50 L 660.17 329.50 L 662.59 332.31 L 665.00 335.11 L 665.00 512.47 L 665.00 689.82 L 661.92 692.41 L 658.85 695.00 L 593.85 695.00 L 528.85 695.00 L 525.92 692.08 Z M 645.75 512.25 L 645.50 349.50 L 594.25 349.24 L 543.00 348.98 L 543.00 511.99 L 543.00 675.00 L 594.50 675.00 L 646.01 675.00 L 645.75 512.25 Z M 362.92 557.08 C 360.56 554.71 360.00 553.29 360.00 549.67 C 360.00 545.88 360.48 544.77 363.08 542.59 L 366.15 540.00 L 413.93 540.00 L 461.71 540.00 L 464.31 542.41 C 469.07 546.82 469.07 553.18 464.31 557.59 L 461.71 560.00 L 413.78 560.00 L 365.85 560.00 L 362.92 557.08 Z M 406.71 516.44 L 404.16 513.88 L 403.80 444.69 C 403.53 392.71 403.74 374.71 404.64 372.33 C 407.53 364.67 418.79 364.83 422.47 372.59 C 423.86 375.50 424.01 383.99 423.77 445.03 L 423.50 514.17 L 420.69 516.59 C 416.72 520.01 410.21 519.94 406.71 516.44 Z M 451.30 517.50 C 446.80 514.34 446.72 512.86 447.51 440.34 C 448.33 364.99 447.95 368.94 454.50 367.15 C 459.07 365.90 463.78 367.59 466.03 371.29 C 467.93 374.39 467.99 376.75 468.00 442.28 C 468.00 514.63 467.95 515.35 463.15 517.92 C 460.24 519.48 453.80 519.25 451.30 517.50 Z" stroke-linecap="round"/>
</g>
</g>
</g>

  </svg>