<svg xmlns="http://www.w3.org/2000/svg" xmlns:xlink="http://www.w3.org/1999/xlink" width="500px" height="414px" viewBox="0 0 499.9999999999998 414.46444908075523">
    <g id="c9a1f10d-d794-483b-ac9b-1dfa2cc2c258">
<g style="">
		<g id="c9a1f10d-d794-483b-ac9b-1dfa2cc2c258-child-0">
<path style="stroke: rgb(193,193,193); stroke-width: 0; stroke-dasharray: none; stroke-linecap: butt; stroke-dashoffset: 0; stroke-linejoin: miter; stroke-miterlimit: 4; fill: rgb(0,0,0); fill-rule: nonzero; opacity: 1;" transform="matrix(0.784338 0 0 0.784338 249.999894 207.232136) matrix(1 0 0 1 0 0)  translate(-512.26, -513.166418)" d="M 795.31 776.51 C 791.99 775.09 789.00 770.59 789.00 767.00 C 789.00 761.40 793.91 757.00 800.15 757.00 C 804.11 757.00 810.00 762.65 810.00 766.45 C 810.00 774.32 802.39 779.53 795.31 776.51 Z M 217.92 774.08 C 208.90 765.06 222.11 751.33 231.89 759.56 C 239.49 765.96 235.26 776.93 225.17 776.98 C 221.71 777.00 220.26 776.42 217.92 774.08 Z M 271.78 775.44 C 266.46 772.55 265.36 766.02 269.41 761.31 C 271.61 758.75 272.56 758.46 280.16 758.00 L 288.50 757.50 L 288.75 655.25 L 289.01 553.00 L 280.52 553.00 C 270.20 553.00 264.87 551.14 262.02 546.53 C 260.26 543.69 260.00 541.56 260.00 530.20 L 260.00 517.14 L 238.75 516.82 C 218.25 516.51 217.31 516.41 212.00 513.89 C 205.19 510.66 199.81 505.47 196.24 498.69 C 193.86 494.15 193.52 492.36 193.52 484.50 C 193.52 476.62 193.86 474.85 196.26 470.28 C 199.97 463.23 205.08 458.35 212.39 454.89 L 218.50 452.00 L 240.25 452.00 C 253.20 452.00 262.00 451.62 262.00 451.06 C 262.00 450.54 261.10 448.60 260.01 446.74 C 256.62 440.99 253.94 431.84 253.32 423.82 C 252.77 416.86 252.50 416.09 250.40 415.56 C 249.12 415.24 245.82 412.73 243.07 409.98 C 229.76 396.67 233.50 374.77 250.51 366.45 C 255.36 364.08 257.10 363.78 265.92 363.84 L 275.87 363.91 L 279.89 356.58 C 282.10 352.56 286.10 346.84 288.77 343.88 C 293.56 338.57 293.62 338.44 292.72 334.07 C 291.36 327.43 293.40 315.85 297.45 307.29 C 311.11 278.43 349.97 272.49 373.69 295.64 L 378.96 300.78 L 385.23 298.16 C 390.69 295.88 392.92 295.54 402.50 295.52 C 412.89 295.50 413.89 295.68 420.47 298.80 C 424.31 300.62 428.97 303.27 430.83 304.69 C 433.57 306.78 434.38 307.00 435.09 305.88 C 435.58 305.12 435.98 303.91 435.98 303.18 C 435.99 302.46 437.52 298.58 439.38 294.56 C 448.24 275.37 462.37 261.24 481.56 252.38 C 491.15 247.95 495.87 247.87 499.41 252.08 C 504.71 258.37 502.39 262.78 490.72 268.58 C 464.72 281.53 454.02 297.90 449.57 331.56 C 449.08 335.32 449.42 336.08 454.07 341.56 C 456.84 344.83 460.90 351.07 463.09 355.44 L 467.08 363.38 L 473.79 363.63 C 486.44 364.11 494.92 369.06 499.65 378.72 C 503.25 386.08 503.43 395.23 500.10 402.16 C 497.52 407.53 491.06 414.32 486.87 416.05 C 484.19 417.17 484.00 417.61 484.00 422.91 C 484.00 430.29 481.64 439.19 477.95 445.73 C 476.33 448.61 475.00 451.20 475.00 451.48 C 475.00 452.21 539.71 452.11 544.15 451.37 L 547.80 450.77 L 545.94 447.61 C 541.04 439.32 540.64 436.72 540.06 409.61 C 539.54 385.44 539.37 383.64 537.58 382.61 C 532.93 379.93 527.50 374.11 525.35 369.50 C 520.60 359.32 523.08 345.93 531.13 338.30 C 537.19 332.55 543.14 330.58 554.99 330.41 L 565.49 330.26 L 568.96 320.05 L 572.44 309.84 L 569.05 303.31 C 561.23 288.22 548.06 275.60 532.79 268.54 C 528.57 266.59 524.41 263.99 523.55 262.77 C 521.27 259.52 521.65 255.56 524.59 252.08 C 528.44 247.50 532.72 247.86 544.24 253.77 C 559.83 261.75 571.07 271.71 580.04 285.50 C 587.16 296.44 585.69 295.80 592.96 291.10 C 602.29 285.07 610.38 282.79 622.50 282.76 C 633.48 282.73 641.11 284.69 650.51 289.95 L 655.53 292.75 L 660.51 289.86 C 668.75 285.10 677.39 282.82 687.50 282.75 C 704.48 282.64 716.73 287.71 729.11 299.97 C 736.98 307.76 740.99 314.20 744.05 324.00 L 745.77 329.50 L 756.33 330.11 C 768.84 330.83 775.81 333.63 781.42 340.18 C 791.96 352.49 789.18 372.02 775.66 380.59 L 771.07 383.50 L 771.04 406.54 C 771.00 431.36 770.26 436.60 765.51 445.98 C 764.13 448.71 763.00 451.14 763.00 451.40 C 763.00 451.66 773.24 452.01 785.75 452.18 C 807.23 452.48 808.74 452.63 812.80 454.79 C 824.47 461.03 831.00 471.40 831.00 483.71 C 831.00 497.17 824.23 508.27 812.50 514.03 C 807.78 516.34 806.28 516.51 785.62 516.99 L 763.75 517.50 L 763.93 528.73 C 764.24 547.91 760.10 553.00 744.17 553.00 L 736.27 553.00 L 735.58 567.25 C 734.80 583.45 734.90 749.78 735.70 754.75 L 736.22 758.00 L 743.69 758.00 C 750.61 758.00 751.37 758.21 754.08 760.92 C 757.84 764.68 758.04 769.68 754.59 773.69 L 752.17 776.50 L 513.34 776.71 C 303.93 776.90 274.16 776.74 271.78 775.44 Z M 339.00 672.47 L 339.00 586.95 L 323.25 587.22 L 307.50 587.50 L 307.24 671.50 C 307.10 717.70 307.20 756.06 307.46 756.75 C 307.81 757.68 311.96 758.00 323.47 758.00 L 339.00 758.00 L 339.00 672.47 Z M 665.76 672.75 L 665.50 587.50 L 511.75 587.25 L 358.00 586.99 L 358.00 672.50 L 358.00 758.00 L 512.01 758.00 L 666.01 758.00 L 665.76 672.75 Z M 716.50 672.50 L 716.50 587.50 L 701.00 587.50 L 685.50 587.50 L 685.24 671.50 C 685.10 717.70 685.20 756.07 685.47 756.78 C 685.84 757.75 689.56 757.99 701.23 757.78 L 716.50 757.50 L 716.50 672.50 Z M 716.00 561.00 L 716.00 553.00 L 511.66 553.00 L 307.33 553.00 L 307.11 559.04 C 306.99 562.37 307.17 565.97 307.51 567.04 C 308.13 568.98 310.48 569.00 512.07 569.00 L 716.00 569.00 L 716.00 561.00 Z M 744.79 525.75 L 744.50 517.50 L 511.59 517.50 L 278.68 517.50 L 278.25 524.30 C 278.02 528.05 278.08 531.76 278.38 532.55 C 278.86 533.81 309.62 534.00 512.01 534.00 L 745.08 534.00 L 744.79 525.75 Z M 804.96 496.52 C 814.54 491.57 815.49 479.00 806.73 473.20 L 802.65 470.50 L 514.21 470.24 C 326.01 470.08 224.49 470.33 222.08 470.98 C 216.71 472.42 212.88 476.88 212.26 482.41 C 211.59 488.32 213.38 492.51 217.88 495.56 L 221.46 498.00 L 511.78 498.00 C 766.14 498.00 802.45 497.82 804.96 496.52 Z M 448.52 449.13 C 457.21 445.18 463.85 434.86 465.48 422.75 L 466.12 418.00 L 368.92 418.00 L 271.72 418.00 L 272.25 423.86 C 273.23 434.63 279.63 444.63 288.29 448.91 C 292.45 450.97 293.47 451.00 368.50 450.98 C 439.94 450.96 444.74 450.85 448.52 449.13 Z M 737.78 448.42 C 743.28 445.68 747.93 440.63 750.74 434.34 C 752.17 431.16 752.51 426.57 752.79 407.50 L 753.11 384.50 L 750.05 382.79 C 744.38 379.63 743.69 371.96 748.71 368.01 C 750.66 366.48 752.77 366.00 757.55 366.00 C 763.33 366.00 764.03 365.76 766.41 362.92 C 770.45 358.12 769.54 353.36 764.02 350.51 C 761.47 349.19 747.74 349.00 655.61 349.00 C 594.14 349.00 549.12 349.38 547.72 349.92 C 543.72 351.44 542.00 353.87 542.00 358.00 C 542.00 360.97 542.60 362.33 544.63 363.93 C 547.25 365.99 547.79 366.00 632.71 366.00 L 718.15 366.00 L 721.08 368.92 C 723.07 370.92 724.00 372.85 724.00 375.00 C 724.00 377.15 723.07 379.08 721.08 381.08 L 718.15 384.00 L 644.83 384.22 C 568.65 384.45 561.38 384.50 559.17 384.81 C 558.09 384.96 557.90 389.36 558.19 407.75 C 558.51 429.11 558.68 430.79 560.84 435.17 C 563.80 441.17 569.24 446.75 574.42 449.10 C 578.28 450.86 582.69 450.96 655.55 450.98 L 732.61 451.00 L 737.78 448.42 Z M 480.25 397.02 C 481.64 395.92 483.06 393.90 483.41 392.51 C 484.14 389.60 481.89 384.56 479.46 383.62 C 478.56 383.28 428.66 383.00 368.55 383.00 C 259.51 383.00 259.26 383.00 256.63 385.07 C 253.10 387.86 253.01 393.10 256.45 396.55 L 258.91 399.00 L 368.32 399.00 C 475.93 399.00 477.77 398.97 480.25 397.02 Z M 306.00 363.12 C 306.00 362.64 305.33 361.68 304.50 361.00 C 303.30 360.01 302.70 360.01 301.50 361.00 C 299.18 362.93 299.71 364.00 303.00 364.00 C 304.65 364.00 306.00 363.61 306.00 363.12 Z M 423.51 361.25 C 430.43 354.41 432.73 339.64 428.36 329.99 C 420.31 312.17 395.33 308.15 382.06 322.55 C 376.58 328.50 374.74 333.17 374.61 341.50 C 374.52 347.29 374.99 349.49 377.31 354.23 C 382.05 363.87 382.40 364.00 403.00 364.00 L 420.73 364.00 L 423.51 361.25 Z M 446.00 363.00 C 446.00 362.45 445.55 362.00 445.00 362.00 C 444.45 362.00 444.00 362.45 444.00 363.00 C 444.00 363.55 444.45 364.00 445.00 364.00 C 445.55 364.00 446.00 363.55 446.00 363.00 Z M 352.50 353.27 L 356.50 351.20 L 356.62 341.35 C 356.74 331.09 358.68 323.49 362.95 316.59 L 364.93 313.37 L 361.93 309.73 C 357.33 304.15 347.53 299.75 339.70 299.75 C 328.92 299.75 318.89 305.82 313.68 315.50 C 310.77 320.91 310.59 334.75 313.37 340.00 C 317.01 346.88 323.91 352.80 330.99 355.12 C 335.52 356.61 348.15 355.52 352.50 353.27 Z M 725.46 327.75 C 722.84 318.96 714.82 310.01 705.38 305.34 C 692.51 298.98 678.87 299.65 667.59 307.21 C 664.89 309.02 661.51 311.29 660.09 312.24 C 656.13 314.91 653.18 314.38 647.26 309.91 C 638.07 302.97 633.84 301.50 623.00 301.50 C 614.78 301.50 612.73 301.86 607.78 304.18 C 598.05 308.74 589.51 318.22 586.56 327.75 L 585.87 330.00 L 656.00 330.00 L 726.13 330.00 L 725.46 327.75 Z M 474.45 313.35 C 471.48 310.15 471.14 304.22 473.75 301.20 C 475.96 298.65 491.85 287.00 493.12 287.00 C 496.26 287.00 501.20 290.25 502.41 293.11 C 504.64 298.43 503.18 300.86 493.01 308.75 C 482.25 317.09 478.73 317.97 474.45 313.35 Z M 399.18 353.92 C 386.62 351.30 386.38 332.48 398.86 329.03 C 407.33 326.69 415.00 332.62 415.00 341.50 C 415.00 350.30 408.05 355.76 399.18 353.92 Z M 333.50 339.52 C 326.56 335.86 324.52 329.68 327.94 322.63 C 334.05 310.01 352.00 314.13 352.00 328.15 C 352.00 332.27 351.49 333.59 348.72 336.61 C 344.76 340.93 338.46 342.13 333.50 339.52 Z" stroke-linecap="round"/>
</g>
</g>
</g>

  </svg>