<svg xmlns="http://www.w3.org/2000/svg" xmlns:xlink="http://www.w3.org/1999/xlink" width="499px" height="500px" viewBox="0 0 498.6606265795833 500">
    <g id="fca0c9ee-f7f4-43e3-9f02-a8b23b756988">
<g style="">
		<g id="fca0c9ee-f7f4-43e3-9f02-a8b23b756988-child-0">
<path style="stroke: rgb(193,193,193); stroke-width: 0; stroke-dasharray: none; stroke-linecap: butt; stroke-dashoffset: 0; stroke-linejoin: miter; stroke-miterlimit: 4; fill: rgb(0,0,0); fill-rule: nonzero; opacity: 1;" transform="matrix(0.937998 0 0 0.937998 249.330405 250.000092) matrix(1 0 0 1 0 0)  translate(-512.143955, -512.133451)" d="M 330.58 777.96 C 297.70 772.77 270.82 753.67 256.73 725.50 C 239.43 690.87 243.94 649.99 268.61 618.00 C 270.94 614.97 286.94 598.55 304.17 581.49 C 358.53 527.69 356.46 529.60 360.42 529.60 C 365.13 529.60 368.00 532.35 368.00 536.88 C 368.00 540.25 365.58 542.85 323.16 584.97 C 282.55 625.30 277.92 630.24 274.02 637.30 C 265.85 652.10 262.00 666.15 262.00 681.11 C 262.00 712.32 279.27 740.69 306.38 754.03 C 321.15 761.29 326.62 762.50 344.50 762.48 C 355.95 762.46 361.16 762.01 366.50 760.58 C 375.55 758.16 387.42 753.06 394.72 748.46 C 398.38 746.14 416.59 728.79 444.50 701.01 C 468.70 676.93 489.55 656.91 490.82 656.52 C 495.58 655.08 501.00 659.52 501.00 664.84 C 501.00 667.18 413.57 754.40 406.23 759.39 C 397.10 765.60 381.34 772.69 370.50 775.46 C 359.20 778.35 340.47 779.53 330.58 777.96 Z M 658.49 776.08 C 635.59 771.34 620.21 762.96 601.51 745.00 C 564.43 709.39 523.16 668.24 522.57 666.30 C 521.78 663.73 524.16 658.54 526.54 657.62 C 527.44 657.28 529.56 657.00 531.28 657.00 C 533.98 657.00 537.08 659.65 554.95 677.26 C 623.61 744.94 624.33 745.61 631.50 749.58 C 663.45 767.28 699.45 766.97 726.35 748.78 C 747.37 734.56 759.03 714.92 762.05 688.64 C 764.67 665.78 754.65 637.96 737.50 620.51 C 733.65 616.59 709.50 592.99 683.83 568.07 C 658.17 543.14 636.95 521.90 636.67 520.86 C 635.10 514.83 641.52 508.91 647.05 511.31 C 651.47 513.22 750.28 610.29 757.18 619.50 C 771.56 638.70 778.86 662.22 777.67 685.50 C 775.79 722.45 754.99 753.45 721.62 769.05 C 708.38 775.23 699.70 777.13 682.50 777.56 C 670.61 777.87 665.63 777.56 658.49 776.08 Z M 307.39 736.44 C 301.34 734.21 295.50 728.71 292.36 722.30 C 286.77 710.88 289.49 694.96 301.03 671.50 C 308.26 656.80 315.35 646.20 318.46 645.42 C 323.30 644.21 329.00 648.42 329.00 653.21 C 329.00 653.82 326.04 659.25 322.42 665.28 C 302.31 698.78 299.74 718.55 315.02 722.30 C 322.33 724.10 346.49 714.40 364.45 702.45 C 370.18 698.64 374.15 696.67 376.12 696.67 C 382.60 696.67 385.66 704.86 380.90 709.48 C 373.26 716.92 350.38 729.57 335.50 734.60 C 325.67 737.92 313.55 738.72 307.39 736.44 Z M 694.50 736.12 C 681.61 732.68 671.50 728.03 655.72 718.27 C 642.99 710.40 640.00 707.57 640.00 703.40 C 640.00 701.33 640.79 699.21 642.00 698.00 C 645.50 694.50 649.44 695.43 659.91 702.24 C 678.99 714.66 696.25 722.00 706.38 722.00 C 712.20 722.00 715.25 720.35 717.51 715.99 C 721.68 707.92 715.96 689.97 701.39 665.41 C 698.43 660.42 696.00 655.21 696.00 653.84 C 696.00 648.99 702.26 645.63 707.52 647.65 C 711.30 649.10 725.42 674.74 730.35 689.13 C 733.83 699.24 735.15 708.93 733.94 715.32 C 730.64 732.74 714.26 741.37 694.50 736.12 Z M 402.00 676.71 C 399.06 675.22 396.64 670.71 397.44 668.20 C 397.96 666.55 725.06 338.84 728.12 336.91 C 730.77 335.23 735.58 335.93 737.83 338.31 C 743.18 344.01 754.03 332.47 575.25 511.14 C 484.64 601.69 409.52 676.28 408.32 676.89 C 405.58 678.28 405.08 678.26 402.00 676.71 Z M 589.64 655.30 C 576.91 642.82 565.87 631.63 565.11 630.45 C 562.21 625.96 566.50 619.00 572.16 619.00 C 574.95 619.00 578.15 621.79 598.91 642.25 C 611.89 655.04 622.83 665.95 623.23 666.50 C 623.64 667.05 623.98 668.96 623.98 670.75 C 624.01 675.13 621.00 678.00 616.39 678.00 C 613.02 678.00 611.19 676.44 589.64 655.30 Z M 365.17 653.69 C 363.83 652.25 362.99 650.07 362.98 647.94 C 362.96 644.73 365.40 642.11 399.12 608.98 L 435.28 573.46 L 359.39 499.05 C 317.65 458.12 280.47 421.56 276.77 417.80 C 249.14 389.76 239.28 348.14 251.52 311.26 C 254.64 301.86 261.39 289.82 268.57 280.88 C 295.46 247.35 345.05 236.59 387.28 255.12 C 402.85 261.96 407.20 265.36 434.19 291.89 C 448.41 305.86 460.30 318.35 460.63 319.65 C 461.83 324.44 455.54 329.85 450.30 328.54 C 449.05 328.23 436.44 316.59 422.27 302.69 C 395.63 276.56 393.04 274.54 378.50 268.50 C 359.34 260.54 335.22 259.56 316.56 265.98 C 296.13 273.01 280.02 287.19 270.53 306.50 C 264.63 318.51 262.97 325.18 262.30 339.57 C 261.63 354.17 263.35 364.11 268.89 377.58 C 275.98 394.83 275.76 394.59 363.52 480.54 C 408.43 524.52 445.62 560.66 446.17 560.86 C 447.15 561.22 562.00 447.21 562.00 445.88 C 562.00 445.50 552.10 435.39 540.00 423.41 C 519.14 402.75 518.00 401.43 518.00 397.88 C 518.00 391.83 523.84 388.33 529.32 391.11 C 530.52 391.71 541.06 401.72 552.75 413.35 L 574.00 434.49 L 605.75 402.76 C 641.03 367.51 641.40 367.24 646.96 372.81 C 650.44 376.29 650.73 378.46 648.20 382.00 C 647.22 383.38 585.22 445.59 510.44 520.25 C 380.83 649.64 374.29 656.00 370.90 656.00 C 368.48 656.00 366.66 655.26 365.17 653.69 Z M 622.12 631.86 C 608.58 618.58 596.26 606.42 594.75 604.84 C 591.87 601.83 591.15 597.46 592.98 594.04 C 594.17 591.82 599.41 589.84 601.78 590.73 C 602.73 591.08 615.76 603.31 630.75 617.89 C 656.53 642.97 658.00 644.59 658.00 648.03 C 658.00 652.67 654.69 656.00 650.05 656.00 C 647.06 656.00 644.27 653.59 622.12 631.86 Z M 344.23 621.33 C 342.22 620.52 339.78 615.00 340.38 612.62 C 340.68 611.42 351.69 599.77 364.84 586.72 C 387.33 564.41 388.97 563.00 392.42 563.00 C 396.49 563.00 401.03 566.56 400.96 569.70 C 400.90 572.90 398.86 575.18 374.88 598.76 C 354.75 618.56 350.83 621.99 348.38 621.92 C 346.80 621.88 344.93 621.61 344.23 621.33 Z M 646.22 598.23 C 623.36 575.90 621.93 574.29 621.97 570.92 C 622.02 564.93 628.98 560.80 633.84 563.88 C 634.57 564.35 645.75 575.25 658.66 588.11 C 681.76 611.11 682.14 611.56 681.61 615.00 C 680.94 619.28 677.83 622.01 673.64 621.98 C 670.90 621.97 667.42 618.96 646.22 598.23 Z M 657.45 494.55 C 652.17 489.27 652.23 489.18 686.75 454.82 C 704.21 437.43 724.38 417.42 731.57 410.35 C 748.53 393.68 755.43 382.18 760.59 362.00 C 763.10 352.16 763.15 333.28 760.69 324.12 C 756.26 307.61 750.52 297.61 738.50 285.42 C 728.06 274.84 719.60 269.47 706.45 265.08 C 688.36 259.05 669.87 259.06 651.50 265.13 C 636.09 270.21 629.15 274.82 614.00 290.03 C 606.58 297.49 585.83 318.08 567.90 335.79 C 537.09 366.23 535.10 368.00 531.65 368.00 C 527.00 368.00 524.00 365.15 524.00 360.72 C 524.00 357.74 527.93 353.52 568.39 313.10 C 592.80 288.71 615.63 266.75 619.14 264.30 C 628.52 257.73 642.32 251.33 653.57 248.32 C 662.21 246.02 665.51 245.66 679.00 245.61 C 697.83 245.54 707.29 247.57 722.49 254.92 C 734.41 260.68 740.13 264.69 749.35 273.74 C 760.03 284.23 768.00 296.78 772.63 310.37 C 783.58 342.58 777.45 378.25 756.02 406.92 C 753.32 410.54 731.98 432.29 708.61 455.25 C 671.05 492.16 665.76 497.00 663.01 497.00 C 661.05 497.00 659.01 496.10 657.45 494.55 Z M 421.98 461.72 C 418.39 460.50 412.99 457.95 409.98 456.06 C 406.58 453.93 383.53 431.75 349.19 397.56 C 296.93 345.53 293.68 342.09 290.19 335.05 C 287.08 328.77 286.44 326.38 286.14 319.73 C 285.72 310.46 287.40 305.01 292.21 300.09 C 303.89 288.15 322.61 289.14 342.64 302.76 C 350.43 308.06 450.86 406.57 455.30 413.27 C 466.54 430.24 463.96 449.73 449.24 459.06 C 440.52 464.59 432.65 465.36 421.98 461.72 Z M 441.21 445.85 C 444.55 443.47 447.01 438.56 446.99 434.28 C 446.96 426.47 444.31 423.47 390.08 370.00 C 361.35 341.67 335.42 316.85 332.44 314.83 C 322.69 308.21 311.14 305.25 305.94 308.03 C 300.39 311.00 299.79 320.16 304.57 328.95 C 306.34 332.21 324.32 350.63 362.32 388.13 C 422.00 447.02 423.16 448.00 433.29 448.00 C 436.70 448.00 439.11 447.35 441.21 445.85 Z M 568.07 393.37 C 566.93 391.92 566.00 389.63 566.00 388.28 C 566.00 386.38 576.88 375.05 614.93 337.37 C 641.84 310.71 664.97 288.02 666.34 286.95 C 669.49 284.47 675.15 284.40 677.35 286.83 C 678.26 287.83 679.00 290.25 679.00 292.20 C 679.00 295.55 676.25 298.48 628.45 345.87 C 579.18 394.73 577.80 396.00 574.02 396.00 C 571.02 396.00 569.67 395.40 568.07 393.37 Z M 668.45 349.55 C 663.34 344.43 663.95 343.51 688.91 318.76 C 701.52 306.25 712.99 295.58 714.38 295.04 C 717.53 293.85 722.63 295.43 724.02 298.04 C 724.56 299.05 725.00 301.19 725.00 302.82 C 725.00 305.35 721.66 309.00 701.12 328.88 C 680.19 349.15 676.86 352.00 674.08 352.00 C 672.05 352.00 670.03 351.12 668.45 349.55 Z M 469.32 348.01 C 464.51 346.03 463.49 338.77 467.48 335.02 C 472.27 330.52 479.24 332.95 480.57 339.59 C 481.68 345.15 474.82 350.29 469.32 348.01 Z" stroke-linecap="round"/>
</g>
</g>
</g>

  </svg>