<svg xmlns="http://www.w3.org/2000/svg" xmlns:xlink="http://www.w3.org/1999/xlink" width="1865px" height="1530px" viewBox="0 0 1864.9105499562393 1530.4151595600968">
    <g id="eb629873-3502-48d9-8410-9cd3a6dc0760">
<g style="">
		<g id="eb629873-3502-48d9-8410-9cd3a6dc0760-child-0">
<path style="stroke: rgb(193,193,193); stroke-width: 0; stroke-dasharray: none; stroke-linecap: butt; stroke-dashoffset: 0; stroke-linejoin: miter; stroke-miterlimit: 4; fill: rgb(0,0,0); fill-rule: nonzero; opacity: 1;" transform="matrix(2.8397 0 0 2.8397 932.455379 765.207665) matrix(1 0 0 1 0 0)  translate(-513.046758, -512.467783)" d="M 231.36 781.05 C 215.61 777.29 213.14 754.62 227.69 747.39 C 230.90 745.80 234.30 745.45 249.29 745.17 L 267.09 744.84 L 263.74 741.13 C 255.64 732.17 248.48 718.92 244.36 705.29 C 242.01 697.53 241.70 694.79 241.69 682.00 C 241.67 664.46 243.49 656.51 250.94 641.50 C 262.53 618.17 283.89 600.76 308.71 594.40 C 322.53 590.86 338.56 590.85 352.30 594.39 C 415.85 610.74 441.94 686.71 401.46 737.51 L 395.88 744.50 L 433.69 745.00 C 469.57 745.47 471.70 745.61 475.50 747.59 C 481.60 750.77 485.29 756.66 485.29 763.21 C 485.29 771.84 480.70 777.98 472.10 780.86 C 468.21 782.17 236.80 782.34 231.36 781.05 Z M 344.54 734.45 C 357.49 731.07 371.09 720.58 377.87 708.72 C 381.80 701.86 385.00 689.63 384.99 681.59 C 384.91 652.13 360.85 627.88 331.50 627.68 C 310.46 627.54 291.61 638.94 282.78 657.12 C 277.90 667.20 276.64 673.40 277.25 684.38 C 277.86 695.23 280.36 702.61 286.69 712.22 C 293.78 722.99 304.87 730.98 317.57 734.47 C 324.34 736.33 337.36 736.32 344.54 734.45 Z M 533.00 780.83 C 521.96 777.69 516.70 765.39 521.98 755.04 C 525.66 747.83 532.07 745.00 544.73 745.00 L 553.16 745.00 L 548.08 739.30 C 538.72 728.80 528.33 711.21 524.07 698.67 L 522.31 693.50 L 488.41 693.00 C 451.87 692.46 451.40 692.39 446.37 686.85 C 442.82 682.92 442.04 680.53 440.99 670.31 C 439.24 653.43 433.62 637.14 424.38 622.20 C 418.02 611.91 400.04 593.95 389.70 587.55 C 356.21 566.84 317.32 564.61 283.50 581.45 C 270.27 588.03 261.98 594.15 251.66 604.96 C 234.58 622.84 224.33 644.83 220.60 671.61 C 219.33 680.68 218.67 682.84 216.20 685.90 C 209.49 694.21 198.30 695.08 190.51 687.90 C 185.06 682.88 183.92 678.71 185.11 668.09 C 188.00 642.21 199.44 612.64 213.80 593.93 L 219.50 586.50 L 220.05 559.00 C 220.60 531.57 220.61 531.48 223.58 523.46 C 227.40 513.18 234.48 502.54 242.13 495.62 C 251.22 487.39 266.13 480.15 277.49 478.45 C 281.57 477.84 281.99 477.54 281.40 475.63 C 281.04 474.46 278.81 467.42 276.46 460.00 C 270.21 440.32 247.47 367.60 245.19 360.00 L 243.24 353.50 L 220.87 352.97 C 196.99 352.40 195.16 352.03 190.30 346.83 C 187.44 343.77 185.00 337.87 185.00 334.00 C 185.00 326.75 191.36 319.06 199.06 316.98 C 201.83 316.24 216.98 316.00 246.32 316.24 C 293.52 316.63 294.28 316.72 307.75 322.99 C 314.77 326.25 309.88 321.73 389.86 398.95 C 418.65 426.75 442.62 449.65 443.11 449.83 C 443.61 450.02 444.00 443.15 444.00 434.23 L 444.00 418.30 L 446.90 414.30 C 451.41 408.07 460.50 405.34 467.68 408.07 C 471.69 409.58 474.97 412.87 477.11 417.50 C 478.78 421.11 478.96 424.56 479.01 453.00 L 479.07 484.50 L 494.28 498.71 L 509.50 512.92 L 510.00 386.21 C 510.48 264.77 510.58 259.34 512.38 255.72 C 514.78 250.89 520.89 245.65 525.86 244.16 C 528.53 243.36 542.75 243.00 571.75 243.00 L 613.77 243.00 L 619.12 245.79 C 623.01 247.83 625.29 249.92 627.48 253.47 L 630.50 258.34 L 631.00 371.71 L 631.50 485.08 L 646.00 471.89 C 653.97 464.63 665.98 453.61 672.68 447.40 C 685.62 435.41 688.21 434.07 695.58 435.45 C 697.56 435.82 700.64 437.54 702.47 439.31 C 704.29 441.06 717.69 462.75 732.25 487.50 C 746.80 512.25 767.84 548.03 778.99 567.00 C 790.14 585.97 806.68 614.03 815.73 629.34 C 840.09 670.54 841.45 674.06 841.41 695.50 C 841.40 705.82 840.94 710.10 839.19 716.29 C 831.70 742.76 811.56 765.08 785.80 775.47 C 769.24 782.14 772.01 782.01 648.12 781.91 C 577.41 781.85 535.22 781.46 533.00 780.83 Z M 771.17 742.94 C 784.28 738.52 795.57 728.32 801.77 715.28 C 805.05 708.36 805.49 706.49 805.84 697.90 C 806.37 684.64 804.97 680.62 792.68 659.95 C 786.97 650.35 771.82 624.72 759.01 603.00 C 699.53 502.11 688.09 483.00 687.19 483.00 C 685.93 483.00 582.11 577.91 574.94 585.61 C 566.88 594.27 559.47 608.98 555.87 623.47 C 553.01 635.00 552.29 658.40 554.39 671.21 C 559.35 701.36 576.80 724.98 603.48 737.65 C 618.91 744.98 617.24 744.84 695.28 744.93 C 763.16 745.00 765.23 744.94 771.17 742.94 Z M 517.00 649.25 C 517.01 632.96 521.14 612.58 527.54 597.27 C 529.56 592.45 531.27 587.53 531.35 586.35 C 531.51 584.09 532.64 585.21 461.00 516.59 C 442.02 498.41 400.85 458.78 369.50 428.52 C 338.15 398.27 307.77 368.97 302.00 363.42 C 292.29 354.08 291.13 353.27 286.59 352.66 C 283.88 352.29 281.45 352.21 281.18 352.48 C 280.91 352.75 283.95 363.44 287.92 376.24 C 307.97 440.72 320.91 483.25 322.05 488.34 C 324.16 497.77 320.60 506.08 312.67 510.22 C 309.26 512.00 306.05 512.52 295.00 513.07 C 279.19 513.86 272.74 515.84 265.66 522.07 C 258.85 528.06 255.70 535.32 255.18 546.17 C 254.95 551.03 254.96 555.00 255.22 555.00 C 255.47 555.00 260.10 552.75 265.51 550.00 C 276.72 544.29 292.37 538.96 305.50 536.39 C 318.99 533.75 344.15 534.00 358.00 536.91 C 388.62 543.35 412.05 555.92 433.56 577.43 C 454.51 598.38 467.54 621.50 473.48 648.25 L 475.20 656.00 L 496.10 656.00 L 517.00 656.00 L 517.00 649.25 Z M 575.46 536.00 L 595.93 517.50 L 595.96 428.75 L 596.00 340.00 L 571.00 340.00 L 546.00 340.00 L 546.00 444.09 L 546.00 548.17 L 549.25 551.46 C 551.04 553.26 553.06 554.69 553.75 554.62 C 554.44 554.55 564.21 546.17 575.46 536.00 Z M 596.00 291.00 L 596.00 279.00 L 571.00 279.00 L 546.00 279.00 L 546.00 291.00 L 546.00 303.00 L 571.00 303.00 L 596.00 303.00 L 596.00 291.00 Z M 325.54 701.53 C 321.93 700.56 319.45 699.00 316.37 695.74 C 310.91 689.96 309.34 684.55 310.98 677.19 C 314.71 660.51 335.37 655.41 346.74 668.36 C 357.47 680.58 350.28 699.77 334.00 702.31 C 332.08 702.62 328.27 702.26 325.54 701.53 Z M 707.50 719.33 C 703.09 717.01 701.01 714.94 698.89 710.79 C 694.02 701.24 699.07 688.57 708.99 685.49 C 710.36 685.06 717.45 684.79 724.74 684.89 C 732.03 684.99 738.00 684.77 738.00 684.40 C 738.00 684.03 734.25 677.38 729.66 669.61 C 662.57 556.13 660.64 552.75 660.20 547.44 C 659.36 537.21 665.65 529.94 676.01 529.19 C 683.02 528.69 688.60 531.32 692.39 536.93 C 697.94 545.14 775.88 677.89 780.49 686.98 C 786.41 698.66 781.55 711.57 768.85 717.91 L 762.68 721.00 L 736.59 720.96 C 714.76 720.93 710.01 720.66 707.50 719.33 Z" stroke-linecap="round"/>
</g>
</g>
</g>

  </svg>