<svg xmlns="http://www.w3.org/2000/svg" xmlns:xlink="http://www.w3.org/1999/xlink" width="500px" height="488px" viewBox="0 0 499.9999999999998 487.9831545016175">
    <g id="47a44158-dd3c-46a2-802b-c5cf31af335a">
<g style="">
		<g id="47a44158-dd3c-46a2-802b-c5cf31af335a-child-0">
<path style="stroke: rgb(193,193,193); stroke-width: 0; stroke-dasharray: none; stroke-linecap: butt; stroke-dashoffset: 0; stroke-linejoin: miter; stroke-miterlimit: 4; fill: rgb(0,0,0); fill-rule: nonzero; opacity: 1;" transform="matrix(0.915087 0 0 0.915087 250.000021 243.991598) matrix(1 0 0 1 0 0)  translate(-511.68082, -511.634579)" d="M 505.50 778.00 L 346.50 777.50 L 340.87 775.22 C 328.60 770.26 315.92 758.94 310.70 748.28 C 308.82 744.44 308.23 744.02 304.07 743.49 C 294.84 742.31 286.30 739.79 278.02 735.80 C 271.06 732.45 267.91 730.09 260.44 722.61 C 252.79 714.96 250.58 711.98 246.64 704.00 C 238.39 687.27 238.89 697.72 238.54 535.50 C 238.36 456.30 238.62 386.26 239.10 379.85 C 241.72 345.21 258.44 311.03 285.34 285.31 C 309.91 261.82 339.10 248.75 373.00 246.07 C 390.80 244.66 633.07 244.64 650.66 246.05 C 687.38 248.98 718.17 263.70 744.07 290.71 C 765.13 312.68 779.22 340.21 783.55 367.81 C 784.87 376.23 785.03 397.75 784.78 531.50 L 784.50 685.50 L 781.69 693.50 C 774.69 713.39 763.27 726.95 745.89 736.00 C 737.86 740.17 728.19 742.95 721.50 743.00 C 716.47 743.04 716.19 743.26 711.97 750.34 C 707.73 757.48 695.78 769.06 689.24 772.38 C 683.42 775.33 675.11 777.70 669.00 778.16 C 666.53 778.35 592.95 778.28 505.50 778.00 Z M 679.23 755.21 C 683.27 753.22 687.34 750.25 689.52 747.71 L 693.12 743.50 L 512.90 743.25 C 413.77 743.11 332.48 743.18 332.26 743.41 C 331.26 744.41 335.60 749.20 340.37 752.37 C 350.88 759.35 338.51 758.90 514.02 758.69 L 672.54 758.50 L 679.23 755.21 Z M 730.28 720.91 C 741.56 717.13 749.07 711.52 755.51 702.07 C 760.65 694.53 763.50 687.11 765.01 677.34 C 765.73 672.69 765.96 623.37 765.74 523.00 C 765.43 385.78 765.28 374.98 763.63 368.00 C 757.42 341.84 745.79 320.72 727.54 302.46 C 705.95 280.87 680.22 268.60 651.00 265.94 C 643.43 265.26 592.99 265.02 503.50 265.25 C 377.15 265.58 366.97 265.73 360.02 267.39 C 332.96 273.85 315.57 283.41 297.00 302.01 C 277.78 321.28 265.57 343.80 260.29 369.73 C 258.62 377.92 258.50 388.38 258.50 528.00 C 258.50 650.91 258.74 678.48 259.86 683.00 C 262.21 692.47 267.02 701.01 274.00 708.11 C 280.81 715.04 285.84 718.15 295.00 721.11 C 300.20 722.79 312.12 722.90 512.28 722.95 L 724.06 723.00 L 730.28 720.91 Z M 501.40 702.23 C 474.47 692.60 472.72 654.35 498.67 642.32 C 505.96 638.94 512.70 638.35 520.27 640.41 C 531.28 643.40 540.34 652.15 543.13 662.48 C 544.79 668.60 543.74 680.70 541.12 685.80 C 535.47 696.79 525.86 703.05 513.67 703.68 C 508.49 703.95 505.09 703.55 501.40 702.23 Z M 520.60 679.60 C 523.45 676.75 524.00 675.48 524.00 671.73 C 524.00 659.07 507.25 654.88 501.45 666.10 C 499.45 669.96 499.64 673.90 502.01 677.78 C 504.36 681.64 506.90 682.85 512.85 682.94 C 516.51 682.99 517.74 682.46 520.60 679.60 Z M 335.50 696.09 C 322.68 695.35 318.80 693.85 313.15 687.43 C 306.81 680.23 305.25 670.46 309.08 662.00 C 311.74 656.14 314.39 653.39 320.50 650.15 L 325.50 647.50 L 368.34 647.20 C 416.33 646.86 417.08 646.95 425.00 653.73 C 438.29 665.11 434.58 686.69 418.00 694.40 C 413.73 696.39 411.78 696.51 380.00 696.61 C 361.58 696.67 341.55 696.44 335.50 696.09 Z M 412.00 675.00 C 413.10 673.90 414.00 672.55 414.00 672.00 C 414.00 671.45 413.10 670.10 412.00 669.00 C 410.07 667.07 408.67 667.00 369.70 667.00 C 339.69 667.00 329.09 667.31 328.20 668.20 C 326.51 669.89 326.71 673.02 328.65 675.17 C 330.21 676.88 332.82 677.00 370.15 677.00 C 408.67 677.00 410.07 676.93 412.00 675.00 Z M 612.85 696.01 C 595.80 693.82 586.03 675.80 593.79 660.86 C 596.82 655.02 603.29 649.85 609.82 648.03 C 612.05 647.42 629.54 647.01 654.07 647.01 C 699.31 647.00 701.43 647.25 708.67 653.45 C 724.10 666.65 717.23 691.57 696.97 695.91 C 691.29 697.13 622.19 697.21 612.85 696.01 Z M 696.00 675.00 C 698.60 672.40 698.53 670.48 695.78 668.56 C 693.86 667.21 688.12 667.00 653.33 667.00 C 613.52 667.00 613.10 667.02 611.63 669.11 C 610.82 670.28 610.40 671.97 610.72 672.86 C 612.12 676.92 612.91 677.00 654.19 677.00 C 692.67 677.00 694.07 676.93 696.00 675.00 Z M 280.33 632.54 C 278.58 631.78 276.67 630.26 276.08 629.15 C 274.58 626.35 274.61 575.95 276.11 572.66 C 278.89 566.55 289.82 566.06 292.94 571.89 C 294.41 574.64 294.47 626.25 293.01 628.99 C 291.98 630.91 286.43 634.07 284.28 633.96 C 283.85 633.94 282.07 633.30 280.33 632.54 Z M 735.48 632.64 C 730.34 630.34 730.00 628.31 730.00 600.09 C 730.00 575.25 730.08 574.17 732.13 571.56 C 736.39 566.15 743.66 566.21 747.98 571.71 C 749.89 574.13 750.00 575.72 750.00 600.62 L 750.00 626.97 L 747.25 629.99 C 744.00 633.55 739.67 634.53 735.48 632.64 Z M 398.83 614.99 C 391.35 613.71 383.04 611.06 375.38 607.53 C 354.17 597.76 335.34 578.02 327.17 557.00 C 321.47 542.34 321.50 542.72 321.50 486.00 C 321.50 434.27 321.53 433.38 323.79 425.60 C 328.52 409.26 335.90 396.36 347.50 384.13 C 359.19 371.80 372.45 363.67 389.71 358.26 L 398.50 355.50 L 507.50 355.19 C 622.46 354.86 624.57 354.93 637.82 359.44 C 668.94 370.04 690.81 393.14 700.36 425.50 C 702.30 432.09 702.44 435.48 702.78 483.00 C 703.02 517.44 702.78 535.41 702.01 539.50 C 698.41 558.86 689.22 575.80 674.87 589.56 C 663.01 600.94 651.56 607.64 635.29 612.74 L 626.50 615.50 L 515.00 615.65 C 453.67 615.73 401.40 615.43 398.83 614.99 Z M 633.26 592.37 C 644.62 588.30 651.76 583.99 660.19 576.12 C 672.24 564.86 679.38 551.81 682.59 535.16 C 684.26 526.46 684.58 457.31 683.01 442.50 C 681.08 424.21 674.59 410.61 661.51 397.40 C 647.90 383.65 634.09 376.98 615.00 374.92 C 608.94 374.27 568.94 374.02 504.50 374.23 L 403.50 374.56 L 396.16 376.81 C 374.34 383.49 355.36 400.00 346.94 419.64 C 340.77 434.02 340.68 434.94 340.25 481.76 C 339.82 527.81 340.24 534.13 344.45 546.24 C 349.08 559.56 360.79 574.94 372.35 582.90 C 379.02 587.48 388.34 591.66 397.02 593.94 C 404.27 595.85 407.92 595.91 514.50 595.71 L 624.50 595.50 L 633.26 592.37 Z M 280.33 511.52 C 278.58 510.77 276.67 509.26 276.08 508.15 C 275.39 506.87 275.00 497.36 275.00 482.03 C 275.00 455.22 275.25 454.06 281.50 452.00 C 285.40 450.71 291.20 452.60 292.78 455.67 C 293.88 457.80 295.05 502.34 294.09 505.91 C 292.78 510.85 285.60 513.77 280.33 511.52 Z M 735.11 511.60 C 730.39 508.99 730.07 507.11 730.04 481.77 L 730.00 458.03 L 732.78 454.92 C 734.85 452.60 736.46 451.79 739.16 451.71 C 743.45 451.59 747.72 454.14 749.04 457.62 C 749.57 459.00 750.00 470.25 750.00 482.61 C 750.00 507.65 749.52 509.92 743.88 511.89 C 739.83 513.30 738.07 513.25 735.11 511.60 Z M 286.50 365.05 C 282.92 363.59 280.54 360.04 280.56 356.17 C 280.60 348.08 292.84 329.11 307.47 314.47 C 318.51 303.44 323.32 300.47 328.72 301.34 C 333.01 302.04 334.93 303.58 336.67 307.75 C 338.56 312.28 336.52 316.86 330.85 320.78 C 320.81 327.72 307.87 343.37 301.16 356.68 C 296.82 365.28 292.75 367.61 286.50 365.05 Z M 728.34 364.53 C 727.19 363.72 723.92 358.88 721.09 353.78 C 714.49 341.89 706.30 332.02 695.63 323.11 C 690.96 319.21 686.85 315.10 686.50 313.99 C 684.76 308.53 689.07 302.35 695.31 301.34 C 700.34 300.52 706.16 304.16 716.94 314.86 C 731.22 329.04 743.00 347.66 743.00 356.05 C 743.00 363.79 734.40 368.77 728.34 364.53 Z M 407.00 565.91 C 399.65 564.48 388.96 558.61 383.18 552.81 C 379.98 549.61 376.42 544.55 374.19 540.05 L 370.50 532.61 L 370.20 488.65 C 369.92 447.02 370.01 444.33 371.91 438.08 C 376.57 422.71 389.38 410.74 405.69 406.49 C 414.08 404.31 610.68 404.27 618.87 406.45 C 634.53 410.62 646.59 421.60 652.30 436.89 C 654.27 442.16 654.42 444.88 654.77 481.92 C 655.18 525.21 654.74 530.55 649.91 540.68 C 646.39 548.06 637.54 557.38 630.39 561.22 C 619.49 567.09 621.75 566.98 512.00 566.88 C 456.73 566.82 409.48 566.39 407.00 565.91 Z M 617.13 545.47 C 623.26 543.38 628.01 539.23 631.53 532.86 L 634.50 527.50 L 634.50 486.50 L 634.50 445.50 L 632.16 441.00 C 629.15 435.21 625.62 431.48 620.00 428.16 L 615.50 425.50 L 514.50 425.21 C 438.23 424.99 412.43 425.22 409.13 426.12 C 402.55 427.94 395.69 433.89 392.35 440.69 L 389.50 446.50 L 389.51 486.00 C 389.51 525.47 389.51 525.50 391.89 530.79 C 394.68 536.97 401.31 543.23 407.32 545.36 C 413.73 547.63 610.49 547.73 617.13 545.47 Z M 416.92 516.08 C 414.76 513.91 414.00 512.21 414.00 509.50 C 414.00 506.79 414.76 505.09 416.92 502.92 L 419.85 500.00 L 512.00 500.00 L 604.15 500.00 L 607.08 502.92 C 609.24 505.09 610.00 506.79 610.00 509.50 C 610.00 512.21 609.24 513.91 607.08 516.08 L 604.15 519.00 L 512.00 519.00 L 419.85 519.00 L 416.92 516.08 Z M 417.50 469.59 C 414.33 466.42 413.47 462.68 415.04 458.90 C 417.61 452.70 412.08 453.03 511.81 452.98 C 574.22 452.95 603.64 453.27 605.00 454.00 C 607.50 455.34 610.00 460.10 610.00 463.53 C 610.00 465.10 608.82 467.33 607.08 469.08 L 604.15 472.00 L 512.03 472.00 L 419.91 472.00 L 417.50 469.59 Z" stroke-linecap="round"/>
</g>
</g>
</g>

  </svg>