<svg xmlns="http://www.w3.org/2000/svg" xmlns:xlink="http://www.w3.org/1999/xlink" width="382px" height="501px" viewBox="0 0 381.59779955741215 499.9999999999998">
    <g id="d1213bc0-ab98-4a04-8ca3-83ee89cd98eb">
<g style="">
		<g id="d1213bc0-ab98-4a04-8ca3-83ee89cd98eb-child-0">
<path style="stroke: rgb(193,193,193); stroke-width: 0; stroke-dasharray: none; stroke-linecap: butt; stroke-dashoffset: 0; stroke-linejoin: miter; stroke-miterlimit: 4; fill: rgb(0,0,0); fill-rule: nonzero; opacity: 1;" transform="matrix(0.926208 0 0 0.926208 190.798848 249.999932) matrix(1 0 0 1 0 0)  translate(-512, -511.937506)" d="M 499.42 780.59 C 497.18 779.89 493.96 778.29 492.26 777.04 C 488.77 774.45 484.58 767.19 483.60 762.00 C 475.56 719.58 446.77 572.36 445.32 566.25 L 444.78 564.00 L 420.45 564.00 C 407.07 564.00 395.90 564.36 395.62 564.80 C 394.94 565.91 386.13 604.33 372.99 663.50 C 355.19 743.67 349.97 766.16 348.54 768.91 C 341.44 782.63 321.22 785.35 311.56 773.89 C 307.71 769.33 306.00 764.95 306.00 759.67 C 306.00 757.25 308.88 742.50 312.41 726.89 C 315.93 711.27 321.82 685.22 325.48 669.00 C 329.15 652.78 336.62 619.70 342.09 595.50 C 350.13 559.87 352.69 550.15 355.50 544.39 C 358.79 537.65 363.32 532.49 370.45 527.35 L 373.41 525.23 L 367.73 520.03 C 360.75 513.66 356.72 505.83 354.05 493.50 C 352.98 488.55 347.56 461.10 342.01 432.50 C 331.69 379.41 312.73 282.36 310.97 273.70 C 308.55 261.74 310.72 252.85 317.43 247.32 C 324.38 241.59 333.28 240.50 341.50 244.38 C 351.55 249.12 353.35 253.08 359.00 282.75 L 363.23 305.00 L 431.12 305.00 C 486.95 305.00 499.00 304.76 499.00 303.67 C 499.00 302.94 497.42 294.54 495.50 285.00 C 493.58 275.46 492.00 266.10 492.00 264.20 C 492.00 251.62 501.60 241.97 514.07 242.02 C 524.54 242.06 533.59 249.05 536.36 259.21 C 537.15 262.12 545.78 305.45 555.54 355.50 C 565.30 405.55 575.14 455.95 577.42 467.50 L 581.56 488.50 L 641.53 489.00 L 701.50 489.50 L 705.96 492.00 C 712.65 495.76 716.33 501.62 716.77 509.27 C 717.23 517.24 714.45 523.07 707.87 527.91 C 703.52 531.11 703.29 531.51 704.12 534.41 C 705.52 539.32 705.11 546.17 703.13 550.50 C 699.63 558.19 690.86 563.98 682.68 563.99 C 680.47 564.00 679.98 564.38 680.39 565.75 C 680.67 566.71 683.38 580.10 686.39 595.50 C 689.41 610.90 697.76 653.31 704.94 689.75 C 712.12 726.19 718.00 757.82 718.00 760.03 C 718.00 774.41 703.16 784.81 688.66 780.59 C 682.47 778.79 675.75 772.85 674.08 767.69 C 673.52 765.94 666.94 732.78 659.48 694.00 C 647.02 629.29 637.82 582.47 634.97 569.25 L 633.83 564.00 L 597.42 564.00 C 577.39 564.00 561.00 564.32 561.00 564.72 C 561.00 565.12 553.97 595.83 545.37 632.97 C 536.78 670.11 528.32 706.77 526.56 714.44 L 523.38 728.38 L 526.24 743.44 C 528.01 752.75 528.89 759.97 528.53 762.34 C 527.11 771.71 520.28 778.92 510.90 780.93 C 504.89 782.22 504.59 782.21 499.42 780.59 Z M 510.90 763.45 C 512.99 761.47 512.68 759.07 506.11 725.93 C 502.78 709.19 497.11 680.20 493.50 661.50 C 487.52 630.55 475.69 571.74 474.34 566.25 C 473.84 564.23 473.17 564.00 467.89 564.00 C 464.65 564.00 462.00 564.20 462.00 564.45 C 462.00 564.69 466.08 585.73 471.08 611.20 C 484.57 680.05 497.88 748.64 499.12 755.75 C 500.71 764.89 505.85 768.25 510.90 763.45 Z M 699.66 763.43 C 701.75 761.34 702.10 760.29 701.56 757.68 C 701.19 755.93 697.11 735.15 692.49 711.50 C 687.86 687.85 679.45 644.99 673.79 616.25 L 663.50 564.01 L 657.14 564.00 C 651.05 564.00 650.81 564.09 651.33 566.25 C 651.63 567.49 653.97 579.30 656.52 592.50 C 659.07 605.70 665.16 636.97 670.05 662.00 C 674.93 687.03 681.28 719.64 684.14 734.47 C 688.52 757.12 689.72 761.81 691.63 763.72 C 694.58 766.67 696.49 766.60 699.66 763.43 Z M 332.36 763.49 C 334.36 761.50 333.53 764.79 345.51 711.50 C 362.21 637.24 366.76 617.11 372.49 592.00 C 375.44 579.08 378.17 566.70 378.56 564.50 C 379.47 559.34 381.14 556.15 384.66 552.80 C 391.17 546.62 381.02 547.00 540.14 547.00 C 673.85 547.00 685.49 546.87 687.17 545.35 C 689.52 543.21 689.52 538.78 687.16 536.64 C 685.45 535.10 674.29 534.99 536.91 535.24 L 388.50 535.50 L 383.44 538.17 C 377.70 541.20 371.49 547.58 369.39 552.60 C 368.62 554.46 364.60 570.72 360.48 588.74 C 356.35 606.76 351.87 626.22 350.53 632.00 C 348.34 641.36 330.85 719.40 324.34 748.81 C 322.02 759.32 321.95 760.28 323.44 762.56 C 325.30 765.39 329.98 765.88 332.36 763.49 Z M 523.61 654.86 C 535.42 603.82 544.00 565.97 544.00 564.89 C 544.00 564.32 541.41 564.03 537.77 564.20 L 531.54 564.50 L 520.70 611.50 L 509.85 658.50 L 511.47 668.50 C 513.51 681.17 515.06 688.27 515.65 687.68 C 515.91 687.42 519.49 672.65 523.61 654.86 Z M 509.32 587.75 L 514.73 564.00 L 502.76 564.00 C 490.85 564.00 490.79 564.01 491.32 566.25 C 491.61 567.49 493.93 579.08 496.48 592.00 C 499.02 604.92 501.37 616.17 501.69 617.00 C 502.07 617.96 502.57 617.25 503.10 615.00 C 503.55 613.08 506.35 600.81 509.32 587.75 Z M 697.04 516.48 C 701.02 514.42 701.94 510.49 699.10 507.66 L 696.94 505.50 L 545.72 505.00 C 433.31 504.63 393.99 504.20 392.50 503.34 C 389.91 501.83 385.57 497.13 384.07 494.21 C 383.42 492.95 379.30 473.38 374.92 450.71 C 370.53 428.05 362.68 387.84 357.47 361.37 C 352.26 334.90 345.79 301.70 343.09 287.59 C 340.40 273.48 337.68 261.32 337.06 260.57 C 334.09 256.99 327.52 258.05 326.47 262.28 C 326.17 263.50 328.39 277.10 331.41 292.50 C 334.43 307.90 344.35 358.75 353.46 405.50 C 362.57 452.25 370.69 492.80 371.52 495.61 C 374.39 505.42 381.44 512.39 392.31 516.14 C 397.21 517.83 405.89 517.94 545.80 517.97 C 676.50 518.00 694.45 517.82 697.04 516.48 Z M 535.00 487.78 C 535.00 486.35 525.16 435.34 524.39 432.75 C 523.90 431.11 519.76 431.00 455.93 431.00 C 418.57 431.00 388.00 431.28 388.00 431.62 C 388.00 433.64 398.24 484.90 399.02 486.75 L 399.96 489.00 L 467.48 489.00 C 520.04 489.00 535.00 488.73 535.00 487.78 Z M 564.15 488.51 C 564.42 488.25 559.33 460.91 552.84 427.76 C 546.36 394.62 536.50 344.12 530.95 315.54 C 525.39 286.96 520.42 262.78 519.90 261.81 C 518.56 259.30 515.19 257.73 512.57 258.39 C 508.61 259.39 508.15 262.44 510.22 273.96 C 512.20 285.05 528.65 369.34 536.96 411.00 C 539.65 424.48 544.18 447.54 547.04 462.25 L 552.23 489.00 L 557.95 489.00 C 561.09 489.00 563.89 488.78 564.15 488.51 Z M 520.35 413.00 C 520.26 412.17 516.23 391.36 511.39 366.75 L 502.59 322.00 L 434.80 322.00 C 383.86 322.00 367.00 322.29 367.00 323.17 C 367.00 326.93 384.54 413.63 385.43 414.24 C 386.02 414.65 416.65 414.87 453.50 414.74 C 512.36 414.53 520.48 414.32 520.35 413.00 Z" stroke-linecap="round"/>
</g>
</g>
</g>

  </svg>