<svg xmlns="http://www.w3.org/2000/svg" xmlns:xlink="http://www.w3.org/1999/xlink" width="2583px" height="2460px" viewBox="0 0 2583.4749672376493 2460.062936186875">
    <g id="b417bcdb-d55d-4847-907d-0d6c9960b2a3">
<g style="">
		<g id="b417bcdb-d55d-4847-907d-0d6c9960b2a3-child-0">
<path style="stroke: rgb(193,193,193); stroke-width: 0; stroke-dasharray: none; stroke-linecap: butt; stroke-dashoffset: 0; stroke-linejoin: miter; stroke-miterlimit: 4; fill: rgb(0,0,0); fill-rule: nonzero; opacity: 1;" transform="matrix(3.838744 0 0 3.838744 1291.737356 1230.031346) matrix(1 0 0 1 0 0)  translate(-512.5, -512.554325)" d="M 182.31 831.54 C 178.91 830.06 176.00 825.56 176.00 821.80 C 176.01 818.47 179.59 813.11 182.57 811.98 C 184.19 811.36 235.18 811.00 321.07 811.00 L 457.00 811.00 L 457.00 774.02 L 457.00 737.03 L 459.92 733.77 L 462.84 730.50 L 523.42 730.23 L 584.00 729.95 L 584.00 691.93 C 584.00 659.89 584.24 653.44 585.52 650.97 C 588.68 644.86 587.07 645.00 652.95 645.00 L 713.00 645.00 L 713.00 605.90 L 713.00 566.80 L 716.40 563.40 L 719.80 560.00 L 781.00 560.00 L 842.20 560.00 L 845.60 563.40 L 849.00 566.80 L 849.00 695.77 L 849.00 824.73 L 846.83 827.49 C 842.18 833.40 866.59 833.00 511.78 832.96 C 236.01 832.93 185.01 832.71 182.31 831.54 Z M 828.00 696.55 L 828.00 582.09 L 824.75 581.51 C 822.96 581.19 801.96 581.05 778.08 581.21 L 734.66 581.50 L 734.79 619.00 C 734.94 660.90 734.76 662.36 729.00 665.27 C 725.84 666.87 722.11 667.04 690.50 666.98 C 671.25 666.94 644.36 666.93 630.75 666.95 L 606.00 667.00 L 606.00 705.05 C 606.00 737.10 605.76 743.56 604.48 746.03 C 601.33 752.14 602.83 752.00 538.05 752.00 L 479.00 752.00 L 479.00 781.50 L 479.00 811.00 L 653.50 811.00 L 828.00 811.00 L 828.00 696.55 Z M 346.69 769.91 C 337.82 768.61 324.92 763.78 316.79 758.71 C 277.59 734.28 267.30 681.29 294.44 643.59 C 306.04 627.48 322.33 616.87 342.18 612.52 C 349.29 610.96 349.95 610.59 351.02 607.66 C 351.66 605.92 357.49 588.97 363.98 570.00 C 370.47 551.03 378.30 528.26 381.39 519.40 C 384.47 510.55 387.00 502.85 387.00 502.29 C 387.00 501.73 384.37 500.31 381.17 499.14 C 368.51 494.53 357.05 484.56 351.61 473.45 C 348.54 467.18 346.02 458.63 312.60 341.00 C 279.47 224.43 281.66 232.77 282.25 225.43 C 283.27 212.78 292.32 199.88 303.71 194.84 C 310.88 191.67 322.87 191.21 330.27 193.83 C 338.03 196.56 344.95 201.82 349.52 208.46 C 353.50 214.24 352.63 211.32 384.54 326.75 L 392.35 355.00 L 478.92 355.01 C 574.93 355.03 572.24 354.86 585.07 361.61 C 598.29 368.55 609.13 382.66 612.05 396.74 C 613.96 405.94 612.80 417.70 609.22 425.34 L 606.21 431.77 L 612.53 435.80 C 616.08 438.06 620.42 441.95 622.42 444.66 C 626.37 450.01 630.00 460.19 630.00 465.90 C 630.00 471.94 627.14 481.17 623.62 486.50 C 621.80 489.25 620.13 491.87 619.91 492.33 C 619.68 492.78 621.86 493.98 624.74 495.00 C 650.13 503.94 666.41 528.42 664.63 555.00 C 664.00 564.37 662.41 570.41 658.49 578.21 C 650.77 593.57 639.99 602.86 623.00 608.77 C 616.67 610.98 613.78 611.39 604.50 611.39 C 595.08 611.39 592.35 610.99 585.54 608.63 C 560.25 599.87 544.74 578.09 544.86 551.50 C 544.93 535.07 550.16 522.11 561.51 510.30 L 568.52 503.00 L 489.51 503.00 L 410.50 503.00 L 403.59 523.25 C 399.79 534.39 391.34 558.76 384.82 577.40 C 378.30 596.05 373.09 611.37 373.23 611.46 C 373.38 611.55 378.04 613.09 383.60 614.88 C 406.27 622.17 424.95 639.46 433.24 660.80 C 455.79 718.87 408.17 778.90 346.69 769.91 Z M 371.25 747.54 C 382.67 745.11 390.50 740.70 399.53 731.60 C 414.92 716.08 420.27 697.10 415.02 676.60 C 408.35 650.48 385.68 633.00 358.50 633.00 C 342.51 633.00 329.58 638.32 318.40 649.50 C 307.12 660.78 301.64 674.19 301.64 690.50 C 301.64 706.78 307.08 720.12 318.34 731.40 C 332.77 745.87 351.77 751.66 371.25 747.54 Z M 612.20 588.88 C 623.89 586.40 632.99 579.31 638.51 568.40 C 641.29 562.91 641.50 561.73 641.50 551.50 C 641.50 541.40 641.27 540.05 638.68 535.00 C 633.63 525.16 625.14 518.31 614.53 515.55 C 607.23 513.65 606.00 513.62 606.00 515.37 C 606.00 516.12 608.49 525.54 611.53 536.31 C 615.19 549.23 616.85 556.75 616.42 558.44 C 615.37 562.65 610.52 566.00 605.48 566.00 C 598.31 566.00 596.64 563.72 591.97 547.50 C 586.23 527.59 583.97 521.00 582.89 521.00 C 580.84 521.00 573.16 529.95 570.41 535.56 C 567.79 540.92 567.50 542.48 567.50 551.50 C 567.50 560.40 567.82 562.18 570.37 567.72 C 575.28 578.34 585.87 586.70 597.27 588.95 C 603.39 590.15 606.24 590.14 612.20 588.88 Z M 601.36 478.40 C 609.95 472.56 610.02 460.27 601.50 455.00 C 598.25 452.99 596.81 452.96 499.62 452.73 L 401.04 452.50 L 398.10 449.50 C 395.69 447.04 394.32 443.45 390.48 429.50 C 387.90 420.15 377.78 383.92 367.99 349.00 C 358.19 314.08 346.20 271.33 341.35 254.01 C 334.04 227.97 332.02 221.95 329.66 219.27 C 324.05 212.88 314.32 212.48 308.40 218.40 C 302.86 223.94 303.00 225.75 311.02 254.10 C 347.19 381.98 369.52 459.08 371.47 462.91 C 375.12 470.04 382.75 476.46 391.00 479.34 C 394.97 480.72 407.41 480.91 496.52 480.95 L 597.54 481.00 L 601.36 478.40 Z M 577.00 428.92 C 586.51 424.61 590.42 418.24 590.47 407.00 C 590.49 401.17 589.99 398.47 588.22 394.87 C 585.22 388.78 580.08 383.61 573.69 380.24 L 568.50 377.50 L 483.68 377.23 C 402.89 376.97 398.88 377.04 399.36 378.73 C 399.65 379.70 402.85 391.30 406.47 404.50 C 410.10 417.70 413.27 429.06 413.50 429.75 C 413.85 430.74 430.68 431.00 493.22 430.98 C 570.86 430.96 572.59 430.91 577.00 428.92 Z M 348.03 729.40 C 337.37 726.53 327.10 717.71 322.16 707.18 C 319.81 702.16 319.50 700.28 319.50 690.98 C 319.50 681.15 319.71 680.04 322.73 673.89 C 326.68 665.87 334.72 657.96 342.75 654.20 C 347.85 651.80 349.69 651.50 359.00 651.50 C 368.30 651.50 370.15 651.81 375.22 654.18 C 390.69 661.43 399.96 677.06 398.70 693.74 C 396.78 719.16 372.78 736.05 348.03 729.40 Z M 366.40 706.61 C 371.90 704.31 375.36 698.80 375.80 691.63 C 376.12 686.46 375.81 684.96 373.81 682.02 C 368.98 674.92 361.63 671.94 353.97 674.01 C 342.73 677.03 337.77 690.43 344.30 700.11 C 349.25 707.46 358.13 710.06 366.40 706.61 Z" stroke-linecap="round"/>
</g>
</g>
</g>

  </svg>