<svg xmlns="http://www.w3.org/2000/svg" xmlns:xlink="http://www.w3.org/1999/xlink" width="363px" height="500px" viewBox="0 0 362.85798638143115 500">
    <g id="9581e5a5-a1a8-406d-a4e9-2f8599595e46">
<g style="">
		<g id="9581e5a5-a1a8-406d-a4e9-2f8599595e46-child-0">
<path style="stroke: rgb(193,193,193); stroke-width: 0; stroke-dasharray: none; stroke-linecap: butt; stroke-dashoffset: 0; stroke-linejoin: miter; stroke-miterlimit: 4; fill: rgb(0,0,0); fill-rule: nonzero; opacity: 1;" transform="matrix(0.78808 0 0 0.78808 181.429105 250.000153) matrix(1 0 0 1 0 0)  translate(-511.783392, -512.773128)" d="M 285.71 827.98 C 281.89 824.98 280.55 820.02 282.37 815.65 C 284.51 810.54 288.25 809.00 298.55 809.00 C 307.05 809.00 307.26 809.06 310.60 812.40 C 313.24 815.04 314.00 816.63 314.00 819.50 C 314.00 822.37 313.24 823.96 310.60 826.60 C 307.21 829.99 307.17 830.00 297.73 830.00 C 289.76 830.00 287.87 829.68 285.71 827.98 Z M 344.89 828.50 C 339.06 825.33 338.64 816.16 344.11 811.56 C 346.82 809.28 348.03 809.00 355.08 809.00 L 363.00 809.00 L 363.00 786.45 C 363.00 768.82 363.31 763.30 364.43 761.13 C 367.46 755.27 364.94 755.54 421.40 755.00 L 473.50 754.50 L 473.14 716.00 C 472.89 689.40 473.13 676.20 473.92 673.30 C 476.27 664.59 485.29 662.09 491.60 668.40 L 495.00 671.80 L 495.00 720.50 L 495.00 769.20 L 491.60 772.60 L 488.20 776.00 L 436.60 776.00 L 385.00 776.00 L 385.00 792.50 L 385.00 809.00 L 512.00 809.00 L 639.00 809.00 L 639.00 792.50 L 639.00 776.00 L 587.40 776.00 L 535.80 776.00 L 532.55 772.75 C 529.71 769.90 529.23 768.63 528.66 762.50 C 527.41 748.94 531.09 742.50 540.11 742.50 C 544.40 742.50 545.54 742.92 547.54 745.25 C 548.84 746.77 550.21 749.58 550.57 751.50 L 551.22 755.00 L 601.56 755.00 C 637.48 755.00 652.63 755.33 654.44 756.15 C 660.16 758.76 660.50 760.40 660.52 785.50 L 660.54 808.50 L 669.17 809.00 C 678.56 809.54 680.80 810.68 683.02 816.05 C 684.59 819.85 683.59 823.57 680.03 827.13 L 677.15 830.00 L 512.33 829.96 C 371.91 829.93 347.11 829.71 344.89 828.50 Z M 713.77 827.08 C 710.96 824.58 710.50 823.50 710.50 819.50 C 710.50 815.50 710.96 814.42 713.77 811.92 C 716.83 809.18 717.55 809.00 725.57 809.00 C 738.23 809.00 742.00 811.53 742.00 820.03 C 742.00 823.40 741.41 824.75 738.89 827.10 C 735.92 829.87 735.38 830.00 726.41 830.00 C 717.46 830.00 716.88 829.87 713.77 827.08 Z M 532.40 714.60 L 529.00 711.20 L 529.00 637.10 L 529.00 563.00 L 514.25 562.99 C 506.14 562.98 498.49 562.70 497.25 562.37 L 495.00 561.77 L 495.00 596.98 L 495.00 632.20 L 491.60 635.60 C 488.90 638.30 487.40 639.00 484.32 639.00 C 480.09 639.00 476.71 637.12 474.78 633.70 C 473.88 632.11 473.39 621.38 473.02 595.12 L 472.50 558.74 L 463.00 556.06 C 418.93 543.63 379.19 513.92 355.26 475.50 C 327.20 430.44 319.92 378.67 334.53 328.00 C 351.13 270.41 397.22 222.61 454.17 203.90 C 476.27 196.65 483.38 195.60 511.00 195.55 C 532.72 195.51 536.79 195.76 546.83 197.80 C 588.71 206.28 626.87 229.05 654.43 262.00 C 685.86 299.57 701.21 349.80 695.93 397.79 C 687.68 472.94 632.16 536.66 556.75 557.55 L 551.00 559.14 L 551.00 633.60 C 551.00 715.19 551.13 713.33 545.13 716.43 C 540.14 719.01 536.25 718.45 532.40 714.60 Z M 526.76 540.99 C 546.91 538.87 562.80 534.15 582.50 524.44 C 622.91 504.52 652.75 470.26 666.91 427.50 C 672.79 409.77 674.36 399.59 674.40 379.00 C 674.45 351.02 669.62 330.88 656.85 305.81 C 648.53 289.46 640.43 278.43 626.50 264.47 C 604.20 242.13 576.03 226.43 547.00 220.17 C 486.26 207.07 426.67 227.77 386.59 275.90 C 369.15 296.85 357.83 320.42 351.81 348.34 C 348.58 363.31 348.58 392.78 351.80 408.76 C 358.56 442.34 374.70 471.18 400.51 495.82 C 434.71 528.47 482.67 545.63 526.76 540.99 Z M 460.31 495.05 C 456.33 492.62 455.00 490.18 455.00 485.32 C 455.00 481.60 456.57 479.94 514.25 422.50 C 546.84 390.05 582.75 354.39 594.06 343.25 L 614.61 323.00 L 619.08 323.00 C 624.23 323.00 627.34 324.83 629.59 329.18 C 633.00 335.77 634.78 333.75 562.75 405.53 C 468.96 498.99 471.05 497.00 466.91 497.00 C 465.03 496.99 462.07 496.12 460.31 495.05 Z M 550.42 494.86 C 545.91 492.67 543.70 485.41 546.12 480.68 C 546.73 479.48 551.40 474.45 556.50 469.50 C 561.60 464.55 572.52 453.86 580.77 445.75 C 594.91 431.84 595.98 431.00 599.66 431.00 C 606.52 431.00 610.92 435.26 610.97 441.95 L 611.00 446.40 L 587.75 469.78 C 574.96 482.63 563.28 493.79 561.80 494.57 C 558.71 496.21 553.47 496.33 550.42 494.86 Z M 413.31 446.54 C 408.26 444.34 405.42 436.78 407.91 432.18 C 409.26 429.71 561.28 278.11 564.64 275.90 C 570.07 272.32 577.64 274.61 580.54 280.72 C 584.06 288.14 586.76 285.11 502.43 368.67 C 459.78 410.93 423.68 446.04 422.19 446.70 C 418.72 448.26 417.21 448.23 413.31 446.54 Z M 388.35 373.82 C 387.17 373.25 385.38 371.26 384.37 369.39 C 382.62 366.14 382.62 365.61 384.28 355.85 C 391.18 315.42 416.83 280.94 453.87 262.30 C 469.74 254.31 484.69 250.48 504.39 249.36 C 513.95 248.81 516.16 248.98 519.35 250.49 C 525.40 253.37 527.48 259.24 524.48 265.03 C 522.12 269.59 518.77 270.68 505.00 271.31 C 453.36 273.69 413.49 311.01 404.50 365.40 C 403.58 370.98 399.26 375.02 394.33 374.93 C 392.22 374.90 389.53 374.40 388.35 373.82 Z" stroke-linecap="round"/>
</g>
</g>
</g>

  </svg>