<svg xmlns="http://www.w3.org/2000/svg" xmlns:xlink="http://www.w3.org/1999/xlink" width="500px" height="356px" viewBox="0 0 500 355.69534960283863">
    <g id="a80e4fdd-8959-45c0-aa52-a831ab457602">
<g style="">
		<g id="a80e4fdd-8959-45c0-aa52-a831ab457602-child-0">
<path style="stroke: rgb(193,193,193); stroke-width: 0; stroke-dasharray: none; stroke-linecap: butt; stroke-dashoffset: 0; stroke-linejoin: miter; stroke-miterlimit: 4; fill: rgb(0,0,0); fill-rule: nonzero; opacity: 1;" transform="matrix(0.798816 0 0 0.798816 250.000119 177.847759) matrix(1 0 0 1 0 0)  translate(-512.036666, -512.139205)" d="M 204.11 733.61 C 198.86 730.69 197.39 722.97 201.25 718.50 C 204.26 715.01 209.61 713.97 220.75 714.70 C 225.84 715.03 230.00 714.98 230.00 714.59 C 230.00 714.19 225.95 708.21 221.00 701.28 C 215.67 693.83 212.00 687.72 212.00 686.30 C 212.00 680.00 218.28 674.57 224.23 675.70 C 226.86 676.21 231.34 680.55 237.43 688.52 L 240.37 692.36 L 242.11 688.25 C 244.09 683.59 246.40 682.00 251.21 682.00 C 255.41 682.00 258.83 684.35 260.52 688.40 C 261.78 691.42 260.98 697.90 257.49 712.75 L 256.96 715.00 L 272.48 715.00 L 288.00 715.00 L 288.01 653.25 C 288.01 619.29 288.12 567.20 288.26 537.50 L 288.50 483.50 L 279.32 483.00 C 263.75 482.15 262.14 479.66 262.06 456.22 C 261.99 439.15 262.73 436.09 267.94 431.70 L 271.15 429.00 L 366.47 429.00 L 461.79 429.00 L 462.14 417.07 C 462.45 406.93 462.81 404.73 464.56 402.38 C 468.25 397.45 471.59 395.66 477.99 395.19 L 484.00 394.76 L 484.00 386.92 L 484.00 379.07 L 437.25 378.79 L 390.50 378.50 L 384.82 375.71 C 378.13 372.43 373.69 367.70 370.10 360.05 C 367.56 354.63 367.50 354.03 367.53 334.00 C 367.57 313.61 367.58 313.47 370.43 307.24 C 373.64 300.19 378.93 294.85 385.88 291.64 L 390.50 289.50 L 512.50 289.50 L 634.50 289.50 L 639.62 292.20 C 642.44 293.69 646.57 296.98 648.80 299.51 C 655.31 306.91 656.00 310.25 656.00 334.43 L 656.00 355.50 L 653.16 361.51 C 650.12 367.93 645.54 372.60 638.72 376.24 C 634.54 378.48 634.10 378.50 587.31 378.79 L 540.11 379.07 L 539.48 383.32 C 539.13 385.65 539.02 389.12 539.23 391.03 C 539.62 394.49 539.63 394.50 545.61 395.00 C 552.38 395.57 556.20 397.64 559.04 402.30 C 560.68 404.99 560.99 407.37 561.00 417.25 L 561.00 429.00 L 613.91 429.00 L 666.81 429.00 L 667.16 414.75 C 667.47 401.97 667.76 400.00 669.97 395.67 C 675.24 385.35 684.99 379.53 697.00 379.56 C 705.65 379.57 711.52 381.89 717.43 387.63 C 724.30 394.30 725.43 397.78 725.99 414.00 L 726.50 428.50 L 740.00 429.00 C 760.70 429.77 761.00 430.15 761.00 455.95 C 761.00 476.00 760.36 478.73 755.03 481.48 C 753.12 482.47 749.29 483.00 744.05 483.00 L 736.00 483.00 L 736.00 599.00 L 736.00 715.00 L 751.35 715.00 L 766.70 715.00 L 764.86 704.25 C 762.37 689.74 762.45 688.40 765.92 684.92 C 768.08 682.76 769.80 682.00 772.49 682.00 C 777.55 682.00 779.88 683.51 781.96 688.16 L 783.75 692.16 L 789.13 685.12 C 795.01 677.41 799.46 674.50 803.92 675.48 C 809.18 676.64 813.78 683.85 812.08 688.25 C 811.60 689.49 808.35 694.55 804.85 699.50 C 794.40 714.29 794.71 713.69 797.30 714.37 C 798.51 714.69 802.42 714.69 806.00 714.36 C 818.14 713.26 825.00 717.13 825.00 725.08 C 825.00 727.66 824.22 729.79 822.59 731.69 L 820.17 734.50 L 513.34 734.72 C 259.89 734.90 206.08 734.70 204.11 733.61 Z M 323.00 610.95 C 323.00 498.38 322.77 503.38 328.22 499.56 C 330.22 498.16 349.02 498.00 511.18 498.00 C 649.17 498.00 692.53 498.28 694.53 499.19 C 700.20 501.78 700.00 498.21 700.00 595.26 L 700.00 684.63 L 697.05 687.45 C 692.93 691.40 687.07 691.40 682.95 687.45 L 680.00 684.63 L 680.00 601.31 L 680.00 518.00 L 512.00 518.00 L 344.00 518.00 L 344.00 616.50 L 344.00 715.00 L 512.00 715.00 L 680.00 715.00 L 680.00 710.95 C 680.00 705.15 683.36 702.00 689.53 702.00 C 695.58 702.00 700.00 705.97 700.00 711.42 L 700.00 715.00 L 707.50 715.00 L 715.00 715.00 L 715.00 599.00 L 715.00 483.00 L 512.00 483.00 L 309.00 483.00 L 309.00 599.00 L 309.00 715.00 L 316.00 715.00 L 323.00 715.00 L 323.00 610.95 Z M 741.00 456.00 L 741.00 449.00 L 512.00 449.00 L 283.00 449.00 L 283.00 456.00 L 283.00 463.00 L 512.00 463.00 L 741.00 463.00 L 741.00 456.00 Z M 541.00 422.00 L 541.00 415.00 L 512.00 415.00 L 483.00 415.00 L 483.00 422.00 L 483.00 429.00 L 512.00 429.00 L 541.00 429.00 L 541.00 422.00 Z M 706.00 417.13 C 706.00 406.70 705.75 404.96 703.96 402.67 C 699.68 397.24 690.35 398.67 688.11 405.12 C 686.92 408.53 686.56 427.23 687.67 428.33 C 688.03 428.70 692.31 429.00 697.17 429.00 L 706.00 429.00 L 706.00 417.13 Z M 519.00 381.95 C 519.00 367.78 519.78 364.89 524.61 361.09 C 527.23 359.03 528.07 359.00 577.68 359.00 C 631.55 359.00 632.36 358.93 634.97 354.06 C 635.57 352.94 636.00 344.45 636.00 333.75 L 636.00 315.37 L 632.93 312.44 L 629.87 309.50 L 513.68 309.22 C 449.78 309.07 396.45 309.20 395.16 309.51 C 393.88 309.82 391.74 311.25 390.41 312.69 C 388.04 315.25 388.00 315.60 388.02 333.90 C 388.05 353.88 388.35 355.15 393.68 357.88 C 395.21 358.66 410.91 359.00 445.48 359.00 C 499.91 359.00 499.37 358.94 502.48 364.97 C 503.62 367.17 504.00 371.29 504.00 381.45 L 504.00 395.00 L 511.50 395.00 L 519.00 395.00 L 519.00 381.95 Z M 484.16 344.03 L 408.83 343.50 L 406.41 340.69 C 403.83 337.69 403.20 332.36 405.03 328.94 C 407.72 323.92 406.32 324.00 488.50 324.00 C 554.87 324.00 565.49 324.20 568.02 325.51 C 576.78 330.04 573.56 343.33 563.50 344.21 C 561.30 344.41 525.60 344.32 484.16 344.03 Z M 594.39 344.07 C 591.19 342.70 588.00 338.08 588.00 334.82 C 588.00 330.76 590.36 326.61 593.47 325.19 C 597.31 323.45 612.44 323.66 616.02 325.51 C 621.90 328.55 622.86 335.88 618.08 341.23 C 615.22 344.44 614.99 344.50 605.83 344.73 C 600.70 344.86 595.55 344.56 594.39 344.07 Z" stroke-linecap="round"/>
</g>
</g>
</g>

  </svg>