<svg xmlns="http://www.w3.org/2000/svg" xmlns:xlink="http://www.w3.org/1999/xlink" width="500px" height="390px" viewBox="0 0 499.9999999999998 390.1421975937276">
    <g id="67f6de38-590c-478e-8c77-239d7b01f85b">
<g style="">
		<g id="67f6de38-590c-478e-8c77-239d7b01f85b-child-0">
<path style="stroke: rgb(193,193,193); stroke-width: 0; stroke-dasharray: none; stroke-linecap: butt; stroke-dashoffset: 0; stroke-linejoin: miter; stroke-miterlimit: 4; fill: rgb(0,0,0); fill-rule: nonzero; opacity: 1;" transform="matrix(1.016394 0 0 1.016394 249.99988 195.071005) matrix(1 0 0 1 0 0)  translate(-511.443309, -511.956999)" d="M 551.00 703.06 C 546.09 701.57 539.79 697.79 506.36 676.35 C 487.74 664.41 466.88 651.10 460.00 646.78 L 447.50 638.93 L 447.00 668.55 L 446.50 698.18 L 443.69 700.59 L 440.89 703.00 L 402.06 703.00 C 365.31 703.00 363.09 702.90 360.86 701.09 L 358.50 699.18 L 358.00 647.84 L 357.50 596.50 L 346.50 595.88 C 333.84 595.16 325.46 593.19 315.38 588.54 C 275.06 569.93 256.02 525.82 270.07 483.58 C 274.38 470.59 280.87 460.39 291.04 450.58 C 300.94 441.03 310.67 434.90 322.27 430.92 C 334.06 426.88 341.08 426.02 362.32 426.01 L 381.14 426.00 L 412.82 406.12 C 430.24 395.19 460.48 376.22 480.00 363.96 C 551.19 319.27 550.79 319.48 561.21 320.19 C 569.02 320.71 574.17 323.12 580.08 329.01 C 588.69 337.58 588.00 321.68 588.00 512.00 C 588.00 703.28 588.78 686.35 579.57 695.57 C 576.23 698.90 572.79 701.22 569.56 702.32 C 564.50 704.05 555.41 704.41 551.00 703.06 Z M 567.50 682.91 L 570.50 679.96 L 570.50 511.90 L 570.50 343.84 L 567.23 340.92 C 563.13 337.25 556.70 336.88 552.63 340.07 L 550.00 342.15 L 550.02 511.82 C 550.02 605.15 550.37 682.04 550.79 682.69 C 551.20 683.35 552.89 684.60 554.52 685.47 C 558.57 687.63 563.74 686.61 567.50 682.91 Z M 428.77 655.88 L 428.50 626.76 L 411.50 615.84 C 402.15 609.83 391.41 602.91 387.64 600.46 C 383.54 597.79 379.61 596.00 377.89 596.00 L 375.00 596.00 L 375.00 640.50 L 375.00 685.00 L 402.02 685.00 L 429.03 685.00 L 428.77 655.88 Z M 532.00 511.56 L 532.00 352.12 L 520.25 359.44 C 504.85 369.02 431.86 414.85 411.75 427.55 L 396.01 437.50 L 396.00 511.09 L 396.00 584.67 L 417.25 598.22 C 428.94 605.68 451.33 620.00 467.00 630.07 C 497.40 649.58 531.27 671.00 531.72 671.00 C 531.88 671.00 532.00 599.25 532.00 511.56 Z M 378.00 510.90 L 378.00 443.80 L 357.25 444.24 C 339.52 444.61 335.55 444.98 330.00 446.81 C 301.08 456.32 281.16 485.60 283.31 515.46 C 284.54 532.52 290.89 546.11 303.47 558.61 C 309.79 564.89 313.54 567.66 320.07 570.88 C 331.85 576.70 338.19 577.83 359.75 577.92 L 378.00 578.00 L 378.00 510.90 Z M 685.92 652.08 C 680.74 646.90 681.62 644.32 692.35 633.10 C 712.66 611.88 724.93 590.95 732.87 563.98 C 737.56 548.07 739.18 537.20 739.73 518.00 C 740.45 492.84 737.45 473.87 729.29 452.00 C 720.47 428.35 709.30 410.58 691.79 392.34 C 684.20 384.43 683.00 382.71 683.00 379.73 C 683.00 374.80 687.00 371.00 692.18 371.00 C 695.45 371.00 696.90 371.76 701.08 375.67 C 719.42 392.83 739.06 423.54 747.36 448.05 C 755.17 471.11 757.46 486.10 757.41 514.00 C 757.37 532.54 756.99 538.52 755.24 548.00 C 751.72 567.08 746.74 581.94 737.99 599.50 C 728.39 618.77 719.84 631.05 706.50 644.74 C 697.25 654.23 696.21 655.00 692.67 655.00 C 689.78 655.00 688.13 654.29 685.92 652.08 Z M 648.50 613.84 C 645.37 611.97 644.07 609.77 644.03 606.29 C 644.01 603.77 645.22 601.71 649.63 596.79 C 659.58 585.69 665.06 577.76 670.57 566.50 C 682.18 542.76 685.59 516.13 680.46 489.13 C 676.29 467.14 667.39 449.53 651.09 431.04 C 646.64 426.00 643.00 421.02 643.00 419.98 C 643.00 415.45 646.59 411.39 651.00 410.92 C 655.40 410.46 657.45 411.38 661.71 415.75 C 683.59 438.18 696.57 466.51 700.07 499.50 C 704.28 539.18 689.43 582.69 662.77 608.78 C 657.00 614.43 652.28 616.10 648.50 613.84 Z M 606.92 570.08 C 602.40 565.55 602.94 562.34 609.51 554.81 C 616.07 547.30 622.18 535.98 624.52 527.00 C 627.00 517.49 626.15 502.81 622.59 493.53 C 619.38 485.14 615.14 478.32 608.75 471.24 C 603.23 465.13 602.66 461.67 606.41 457.31 C 608.42 454.97 609.62 454.50 613.53 454.50 C 617.89 454.50 618.55 454.86 622.78 459.50 C 632.53 470.22 638.93 482.06 642.76 496.50 C 644.88 504.51 644.77 521.35 642.54 530.50 C 640.20 540.08 632.19 556.20 626.02 563.75 C 618.04 573.51 612.27 575.42 606.92 570.08 Z" stroke-linecap="round"/>
</g>
</g>
</g>

  </svg>