<svg xmlns="http://www.w3.org/2000/svg" xmlns:xlink="http://www.w3.org/1999/xlink" width="492px" height="500px" viewBox="0 0 492.2059395910835 500">
    <g id="f0fd5ca5-508c-4c66-9896-76c5f703f0e2">
<g style="">
		<g id="f0fd5ca5-508c-4c66-9896-76c5f703f0e2-child-0">
<path style="stroke: rgb(193,193,193); stroke-width: 0; stroke-dasharray: none; stroke-linecap: butt; stroke-dashoffset: 0; stroke-linejoin: miter; stroke-miterlimit: 4; fill: rgb(0,0,0); fill-rule: nonzero; opacity: 1;" transform="matrix(0.984433 0 0 0.984433 246.102871 249.9999) matrix(1 0 0 1 0 0)  translate(-512.000681, -511.97319)" d="M 306.00 765.31 C 284.32 761.68 266.08 743.49 263.04 722.44 C 261.46 711.48 261.76 666.81 263.47 658.73 C 265.32 650.00 269.92 641.44 276.03 635.37 L 280.88 630.55 L 275.12 624.52 C 268.40 617.50 264.51 609.90 263.06 600.91 C 261.68 592.45 261.70 547.99 263.08 540.43 C 264.58 532.26 269.17 523.03 274.79 516.95 L 279.50 511.84 L 274.65 506.82 C 268.79 500.75 264.25 491.45 262.89 482.71 C 262.27 478.76 262.02 456.76 262.23 426.37 C 262.61 371.87 262.40 373.95 268.83 361.33 C 271.67 355.76 280.01 346.85 285.91 343.06 C 295.06 337.19 300.94 335.72 317.84 335.08 L 333.18 334.50 L 333.44 317.50 C 333.74 297.99 335.21 291.62 341.81 281.42 C 349.29 269.84 362.53 261.18 376.00 259.04 C 380.22 258.38 428.31 258.02 513.00 258.02 C 654.98 258.04 651.13 257.89 662.82 263.61 C 670.31 267.28 680.01 276.67 683.97 284.09 C 689.11 293.74 690.13 298.81 690.72 317.75 L 691.25 335.00 L 703.88 335.01 C 711.59 335.02 718.99 335.62 722.91 336.54 C 742.17 341.08 757.83 357.74 760.94 377.00 C 762.32 385.56 762.36 476.85 760.98 484.11 C 759.51 491.84 755.04 500.69 749.50 506.81 L 744.70 512.13 L 749.17 516.81 C 754.68 522.58 756.58 525.60 759.27 532.85 C 761.17 537.97 761.41 541.12 761.77 566.36 C 762.02 584.13 761.76 596.62 761.05 600.86 C 759.52 609.94 754.99 618.82 748.67 625.10 L 743.40 630.35 L 747.62 634.57 C 752.91 639.86 756.61 645.68 759.28 652.89 C 761.15 657.96 761.39 661.27 761.76 687.25 C 762.25 720.40 761.56 726.60 756.22 737.32 C 751.76 746.27 742.68 755.62 734.39 759.81 C 721.22 766.45 737.22 766.01 512.36 765.86 C 400.24 765.79 307.38 765.54 306.00 765.31 Z M 719.19 737.82 C 724.83 736.13 731.49 729.88 733.67 724.23 C 735.28 720.06 735.50 716.23 735.50 692.00 C 735.50 660.36 735.05 658.07 727.54 651.15 C 719.17 643.43 736.36 644.00 512.00 644.00 C 289.29 644.00 304.86 643.52 297.00 650.62 C 294.86 652.55 292.08 656.24 290.81 658.81 C 288.61 663.27 288.48 664.74 288.17 688.73 C 287.96 705.13 288.25 715.89 289.00 719.50 C 290.54 726.89 295.07 732.77 301.94 736.25 L 307.36 739.00 L 511.31 739.00 C 664.74 739.00 716.24 738.71 719.19 737.82 Z M 720.52 615.13 C 725.79 612.74 730.82 607.62 733.41 602.01 C 735.37 597.79 735.50 595.77 735.50 570.50 C 735.50 546.09 735.32 543.16 733.64 540.00 C 731.04 535.11 726.22 530.21 721.50 527.66 L 717.50 525.50 L 514.50 525.22 C 371.34 525.02 310.20 525.26 307.11 526.02 C 300.54 527.64 294.84 532.06 291.46 538.15 L 288.50 543.50 L 288.56 570.10 C 288.61 593.02 288.86 597.34 290.38 601.32 C 292.41 606.65 300.06 614.09 305.17 615.73 C 307.48 616.47 371.19 616.82 512.50 616.88 C 708.03 616.95 716.67 616.88 720.52 615.13 Z M 720.35 496.63 C 725.05 494.66 730.76 489.36 733.31 484.59 C 735.48 480.54 735.50 480.06 735.50 430.00 C 735.50 379.78 735.49 379.48 733.28 375.36 C 730.48 370.12 724.16 364.66 719.14 363.16 C 716.26 362.30 663.24 362.00 511.38 362.01 L 307.50 362.02 L 302.46 364.37 C 297.06 366.88 292.67 371.36 290.10 377.00 C 288.70 380.06 288.51 386.72 288.57 430.50 C 288.63 476.62 288.77 480.79 290.44 484.28 C 292.65 488.88 299.76 495.31 304.22 496.74 C 306.47 497.46 371.96 497.83 512.28 497.90 C 683.94 497.98 717.60 497.78 720.35 496.63 Z M 664.00 319.12 C 664.00 301.92 663.36 298.96 658.33 292.98 C 656.82 291.18 653.31 288.66 650.54 287.37 L 645.50 285.02 L 512.00 285.03 C 379.78 285.04 378.46 285.06 374.00 287.08 C 368.40 289.62 365.41 292.36 362.66 297.50 C 360.77 301.04 360.48 303.43 360.17 318.25 L 359.83 335.00 L 511.92 335.00 L 664.00 335.00 L 664.00 319.12 Z M 464.20 713.33 C 455.73 709.15 455.63 695.60 464.04 690.64 C 466.49 689.19 471.97 689.00 512.15 689.00 C 555.36 689.01 557.65 689.10 560.70 690.96 C 569.41 696.27 568.85 709.00 559.72 713.33 C 556.59 714.81 551.24 715.00 511.85 714.98 C 472.94 714.96 467.10 714.76 464.20 713.33 Z M 466.62 585.97 C 457.83 583.33 454.56 571.57 460.72 564.76 C 465.01 560.02 465.24 560.00 512.22 560.00 C 553.23 560.00 556.79 560.14 559.94 561.83 C 567.04 565.64 569.09 576.02 563.87 581.69 C 559.02 586.94 558.41 587.01 512.28 586.91 C 488.75 586.87 468.20 586.44 466.62 585.97 Z M 659.84 468.14 C 652.11 465.59 648.00 462.88 642.13 456.45 C 635.32 449.00 632.72 441.99 632.67 431.00 C 632.65 424.48 633.17 421.15 634.90 416.72 C 641.01 401.13 655.62 391.00 672.01 391.00 C 702.73 391.00 722.01 422.47 707.74 449.31 C 704.00 456.35 696.43 463.42 689.00 466.81 C 681.51 470.23 668.05 470.85 659.84 468.14 Z M 681.41 441.63 C 687.88 436.70 688.52 427.93 682.87 421.50 C 672.78 410.01 654.47 420.26 658.86 434.93 C 661.68 444.34 673.33 447.80 681.41 441.63 Z M 442.03 431.71 C 435.45 429.41 432.04 420.39 435.17 413.52 C 435.82 412.11 437.95 409.95 439.92 408.73 L 443.50 406.50 L 510.27 406.22 C 554.55 406.03 578.35 406.29 580.93 406.98 C 586.49 408.48 591.00 413.90 591.00 419.08 C 591.00 424.03 588.99 428.10 585.30 430.60 C 582.63 432.42 579.44 432.51 514.00 432.71 C 462.61 432.86 444.63 432.61 442.03 431.71 Z" stroke-linecap="round"/>
</g>
</g>
</g>

  </svg>