<svg xmlns="http://www.w3.org/2000/svg" xmlns:xlink="http://www.w3.org/1999/xlink" width="500px" height="408px" viewBox="0 0 500.0000000000002 407.61771248569426">
    <g id="e7b822be-4bac-47ed-b75e-dc660bce34e7">
<g style="">
		<g id="e7b822be-4bac-47ed-b75e-dc660bce34e7-child-0">
<path style="stroke: rgb(193,193,193); stroke-width: 0; stroke-dasharray: none; stroke-linecap: butt; stroke-dashoffset: 0; stroke-linejoin: miter; stroke-miterlimit: 4; fill: rgb(0,0,0); fill-rule: nonzero; opacity: 1;" transform="matrix(0.799297 0 0 0.799297 250.000033 203.808883) matrix(1 0 0 1 0 0)  translate(-512.225108, -535.014828)" d="M 203.71 787.98 C 200.06 785.12 198.53 779.94 200.01 775.46 C 201.71 770.31 205.05 768.58 214.45 768.00 L 222.50 767.50 L 222.56 759.00 C 222.63 748.77 223.37 745.53 226.64 741.24 C 231.35 735.04 235.03 734.00 252.21 734.00 L 267.50 733.99 L 278.42 704.30 C 286.43 682.53 288.99 674.50 288.02 674.17 C 287.29 673.93 283.05 671.92 278.60 669.70 C 272.44 666.64 268.56 663.74 262.41 657.59 C 249.56 644.74 243.36 631.13 242.33 613.50 C 241.63 601.63 243.69 592.06 249.41 580.50 C 257.88 563.39 272.08 551.29 290.92 545.10 C 294.45 543.95 298.27 542.99 299.42 542.98 C 300.56 542.98 302.06 542.61 302.74 542.18 C 303.43 541.74 306.89 533.31 310.43 523.44 C 313.98 513.57 323.84 486.20 332.35 462.61 L 347.82 419.72 L 341.22 397.90 L 334.63 376.08 L 327.56 373.95 C 310.81 368.89 296.70 358.24 290.76 346.16 C 287.84 340.23 287.50 338.63 287.52 331.01 C 287.55 321.06 289.40 316.59 295.91 310.70 C 301.23 305.90 306.01 304.00 312.81 304.00 C 320.88 304.00 327.23 307.64 339.29 319.20 C 339.40 319.32 359.11 319.65 383.09 319.95 L 426.68 320.50 L 430.83 323.38 C 433.52 325.25 435.89 328.12 437.57 331.55 C 440.02 336.57 440.14 337.55 439.83 349.84 C 439.51 362.42 439.40 362.97 436.50 367.09 C 434.85 369.43 431.52 372.39 429.09 373.67 C 425.03 375.82 423.47 376.00 409.34 376.00 C 400.90 376.00 393.99 376.34 393.97 376.75 C 393.95 377.16 395.64 383.23 397.72 390.24 L 401.50 402.98 L 491.22 402.99 C 562.57 403.00 580.85 402.74 580.49 401.75 C 580.25 401.06 577.11 390.19 573.53 377.59 C 565.35 348.88 565.17 343.71 572.15 337.37 C 577.66 332.38 575.83 332.53 638.50 332.00 C 702.22 331.45 700.11 331.63 707.21 326.05 C 713.24 321.30 714.39 318.43 715.04 306.42 C 715.80 292.54 718.14 287.68 726.30 283.00 C 731.17 280.21 732.16 280.02 742.00 280.03 C 754.32 280.05 758.61 281.53 764.84 287.95 C 769.97 293.24 772.00 299.27 772.00 309.22 C 772.00 324.28 767.93 338.29 760.09 350.21 C 749.27 366.66 732.29 378.72 710.93 385.12 C 704.02 387.19 701.09 387.37 669.25 387.75 C 650.41 387.98 635.00 388.40 635.00 388.70 C 635.00 389.00 639.92 406.85 645.93 428.37 C 658.12 472.03 662.39 487.48 663.99 493.75 C 665.03 497.83 665.23 498.00 668.93 498.00 C 679.73 498.00 700.75 503.84 714.31 510.62 C 740.03 523.47 758.44 542.03 770.55 567.32 C 791.61 611.33 782.32 663.24 747.14 698.03 C 728.85 716.10 708.32 726.83 682.60 731.76 L 673.50 733.50 L 731.57 734.00 L 789.65 734.50 L 793.80 737.25 C 800.10 741.42 802.30 746.54 802.81 758.25 L 803.23 768.00 L 810.72 768.00 C 817.89 768.00 818.34 768.14 821.60 771.40 C 824.39 774.19 825.00 775.56 825.00 779.00 C 825.00 782.44 824.39 783.81 821.60 786.60 L 818.20 790.00 L 512.23 790.00 C 206.99 790.00 206.26 790.00 203.71 787.98 Z M 781.00 762.00 L 781.00 756.00 L 512.50 756.00 L 244.00 756.00 L 244.00 762.00 L 244.00 768.00 L 512.50 768.00 L 781.00 768.00 L 781.00 762.00 Z M 305.55 730.54 C 307.25 726.47 316.99 699.96 320.99 688.50 C 322.53 684.10 324.11 679.71 324.50 678.75 C 325.14 677.19 324.51 677.00 318.79 677.00 L 312.38 677.00 L 302.66 703.25 C 297.31 717.69 292.68 730.51 292.35 731.75 C 291.79 733.90 292.03 734.00 297.93 734.00 C 304.02 734.00 304.12 733.96 305.55 730.54 Z M 651.92 733.62 C 651.69 733.41 647.67 732.50 643.00 731.59 C 593.47 721.97 556.49 685.77 546.89 637.50 C 546.03 633.15 545.52 624.25 545.54 614.00 C 545.58 600.03 545.93 596.20 547.87 589.00 C 552.06 573.46 558.10 560.69 567.54 547.42 C 574.11 538.18 590.36 523.35 601.27 516.64 L 610.80 510.77 L 608.34 501.64 C 605.70 491.78 602.94 482.74 602.39 482.10 C 602.04 481.71 519.76 562.76 519.22 564.01 C 519.07 564.37 520.37 566.42 522.12 568.58 C 529.61 577.85 536.00 596.62 536.00 609.37 C 536.00 619.20 533.33 629.93 528.38 639.96 C 522.02 652.82 512.37 662.58 499.38 669.27 C 484.09 677.13 485.94 676.97 413.36 676.99 C 353.20 677.00 349.17 677.11 348.53 678.75 C 347.19 682.16 334.77 715.63 331.45 724.75 L 328.09 734.00 L 490.21 734.00 C 579.38 734.00 652.15 733.83 651.92 733.62 Z M 689.29 707.60 C 720.40 698.36 745.14 674.80 754.87 645.15 C 761.64 624.54 760.55 599.92 751.97 579.78 C 743.30 559.40 723.44 538.94 703.64 530.00 C 695.90 526.50 682.99 522.46 676.61 521.54 C 672.18 520.90 671.77 521.01 672.24 522.67 C 690.86 588.71 696.35 609.99 696.32 616.09 C 696.23 635.82 678.18 650.73 657.74 647.95 C 647.01 646.50 636.41 638.55 631.80 628.50 C 628.70 621.74 628.67 608.96 631.75 601.19 L 633.86 595.88 L 629.50 579.69 C 620.44 545.98 617.02 533.69 616.60 533.26 C 615.73 532.40 603.63 541.35 596.48 548.15 C 584.30 559.72 575.34 574.30 570.33 590.70 C 567.94 598.56 567.64 601.16 567.57 615.00 C 567.51 628.26 567.84 631.73 569.82 639.00 C 579.80 675.57 607.61 701.67 645.00 709.57 C 649.39 710.50 656.21 710.82 666.00 710.57 C 678.00 710.27 682.02 709.76 689.29 707.60 Z M 481.88 653.12 C 494.31 649.25 503.72 641.09 509.15 629.49 C 517.51 611.64 514.52 593.11 500.96 578.61 C 494.41 571.62 488.12 567.79 479.47 565.53 C 470.76 563.27 308.38 563.23 299.69 565.49 C 276.40 571.56 260.65 594.86 264.78 617.12 C 267.95 634.14 279.09 647.31 294.86 652.68 L 301.50 654.95 L 388.66 654.97 C 471.27 655.00 476.14 654.90 481.88 653.12 Z M 667.99 625.51 C 671.95 623.46 674.00 620.22 674.00 616.03 C 674.00 614.09 672.17 605.97 669.93 598.00 C 667.70 590.03 662.94 572.70 659.35 559.50 C 653.08 536.39 634.95 471.58 618.08 411.92 C 613.64 396.21 610.00 382.03 610.00 380.41 C 610.00 376.17 613.20 370.81 617.11 368.50 C 620.30 366.62 622.89 366.46 660.50 365.91 C 694.35 365.40 701.42 365.04 706.50 363.57 C 723.11 358.74 737.95 346.64 744.72 332.37 C 748.15 325.16 748.50 323.63 748.85 314.13 C 749.29 302.43 749.08 302.04 742.37 302.02 L 738.24 302.00 L 737.82 310.91 C 737.45 318.70 736.93 320.77 733.69 327.31 C 727.42 339.99 714.41 349.93 700.20 352.89 C 696.72 353.62 676.86 354.00 642.38 354.00 L 589.87 354.00 L 590.59 356.25 C 594.45 368.26 604.23 404.60 604.68 408.57 C 605.39 414.99 603.44 419.02 597.80 422.75 L 593.65 425.50 L 493.57 425.81 L 393.50 426.11 L 389.00 423.81 C 383.33 420.90 382.43 419.05 375.90 397.00 C 373.05 387.38 370.31 378.71 369.82 377.75 C 369.13 376.40 367.66 376.00 363.40 376.00 C 358.61 376.00 357.93 376.23 358.36 377.75 C 358.63 378.71 361.58 388.30 364.93 399.06 C 368.27 409.82 371.00 419.33 371.00 420.20 C 371.00 421.79 363.22 443.81 341.22 504.50 C 334.63 522.65 328.94 538.51 328.56 539.75 C 327.89 541.91 328.10 542.00 333.96 542.00 C 339.67 542.00 340.12 541.83 341.15 539.25 C 341.75 537.74 347.82 520.75 354.64 501.50 C 367.85 464.23 368.63 462.72 375.38 461.46 C 379.32 460.72 384.22 462.86 386.42 466.27 C 387.21 467.50 391.73 481.55 396.48 497.50 C 401.22 513.45 406.24 529.99 407.63 534.25 L 410.16 542.00 L 416.08 542.00 C 419.34 542.00 422.00 541.80 422.00 541.56 C 422.00 541.32 420.38 535.80 418.40 529.31 C 406.20 489.25 396.00 454.26 396.00 452.44 C 396.00 448.68 400.38 441.80 404.01 439.86 C 407.30 438.09 411.52 438.00 489.80 438.00 C 548.82 438.00 572.75 438.32 574.32 439.12 C 580.65 442.39 583.34 448.35 581.01 453.97 C 580.35 455.58 573.88 462.64 566.65 469.67 C 520.56 514.43 490.00 544.51 490.00 545.09 C 490.00 546.18 501.00 550.33 501.79 549.54 C 510.13 541.08 592.30 460.74 596.74 456.69 C 602.57 451.38 603.31 451.00 607.94 451.00 C 616.61 451.00 617.19 451.97 625.09 480.03 C 643.89 546.78 657.00 595.35 657.00 598.26 C 657.00 600.04 655.62 604.42 653.93 607.98 C 650.35 615.56 650.55 619.28 654.76 623.20 C 659.19 627.32 663.14 628.01 667.99 625.51 Z M 386.00 540.78 C 386.00 540.10 383.89 532.88 381.32 524.73 C 378.20 514.86 376.36 510.39 375.82 511.36 C 374.67 513.41 365.00 539.98 365.00 541.09 C 365.00 541.59 369.73 542.00 375.50 542.00 C 383.11 542.00 386.00 541.66 386.00 540.78 Z M 502.33 501.00 L 543.50 460.50 L 482.59 460.24 C 449.09 460.10 421.51 460.15 421.31 460.36 C 421.10 460.57 424.27 471.71 428.34 485.12 C 432.42 498.53 437.90 516.83 440.53 525.79 L 445.30 542.08 L 453.23 541.79 L 461.16 541.50 L 502.33 501.00 Z M 418.00 348.04 L 418.00 342.08 L 376.75 341.79 L 335.50 341.50 L 329.75 338.68 C 326.59 337.12 321.48 333.55 318.41 330.74 C 313.91 326.63 312.49 325.83 311.16 326.67 C 305.29 330.33 313.18 342.94 325.20 349.12 C 334.20 353.75 335.46 353.86 377.75 353.93 L 418.00 354.00 L 418.00 348.04 Z M 308.42 621.03 C 307.27 620.57 305.14 618.76 303.67 617.02 C 298.06 610.35 301.17 599.75 309.54 596.99 C 316.47 594.70 324.10 598.93 326.04 606.13 C 328.60 615.65 317.76 624.81 308.42 621.03 Z M 457.30 620.04 C 452.90 617.36 450.73 613.67 450.73 608.89 C 450.73 597.58 464.54 592.36 472.75 600.56 C 475.54 603.35 476.00 604.50 476.00 608.77 C 476.00 619.05 465.79 625.22 457.30 620.04 Z" stroke-linecap="round"/>
</g>
</g>
</g>

  </svg>