<svg xmlns="http://www.w3.org/2000/svg" xmlns:xlink="http://www.w3.org/1999/xlink" width="2803px" height="3048px" viewBox="0 0 2802.6204989775288 3047.9827922831055">
    <g id="cb9c504d-7b95-4395-bad0-e49b2d2a588c">
<g style="">
		<g id="cb9c504d-7b95-4395-bad0-e49b2d2a588c-child-0">
<path style="stroke: rgb(193,193,193); stroke-width: 0; stroke-dasharray: none; stroke-linecap: butt; stroke-dashoffset: 0; stroke-linejoin: miter; stroke-miterlimit: 4; fill: rgb(0,0,0); fill-rule: nonzero; opacity: 1;" transform="matrix(5.953208 0 0 5.953208 1401.310329 1523.991482) matrix(1 0 0 1 0 0)  translate(-511.997246, -511.995)" d="M 311.31 766.05 C 309.56 764.98 307.65 763.21 307.06 762.12 C 306.39 760.86 306.00 750.44 306.00 733.60 L 306.00 707.08 L 301.75 705.96 C 292.06 703.40 283.78 696.12 279.19 686.12 C 277.09 681.55 276.61 678.98 276.61 672.38 C 276.60 665.23 276.99 663.46 279.84 657.67 C 283.37 650.51 288.41 645.52 295.86 641.81 C 300.41 639.55 301.22 639.49 336.25 639.20 L 372.00 638.91 L 372.00 602.06 L 372.00 565.22 L 368.25 564.53 C 358.89 562.79 349.83 555.18 345.16 545.12 C 343.03 540.53 342.56 538.04 342.57 531.50 C 342.59 519.29 347.82 509.53 357.76 503.15 C 366.20 497.74 371.41 497.00 401.21 497.00 L 428.00 497.00 L 428.00 477.00 C 428.00 461.67 427.71 457.00 426.75 456.99 C 423.97 456.97 414.84 451.90 410.69 448.07 C 394.13 432.81 399.01 403.51 419.80 393.30 L 425.50 390.50 L 458.25 390.20 L 491.00 389.90 L 491.01 377.20 C 491.03 363.00 491.69 360.81 497.01 357.19 C 501.98 353.83 507.37 354.64 511.75 359.42 L 515.00 362.97 L 515.00 376.49 L 515.00 390.00 L 605.50 390.00 L 696.00 390.00 L 696.00 357.00 L 696.00 324.00 L 605.50 324.00 C 555.72 324.00 515.05 324.34 515.12 324.75 C 515.58 327.64 514.62 330.40 512.22 333.08 C 505.21 340.93 491.00 335.96 491.00 325.67 C 491.00 323.64 490.29 323.06 486.74 322.17 C 472.31 318.53 462.11 303.65 463.24 287.88 C 464.23 274.00 472.49 262.95 485.54 258.07 C 491.02 256.02 492.19 256.00 605.50 256.00 C 718.78 256.00 719.98 256.02 725.46 258.07 C 733.23 260.98 740.98 268.32 744.46 276.09 C 750.06 288.56 747.47 303.28 737.96 313.04 C 733.56 317.56 724.48 322.96 721.25 322.99 C 720.25 323.00 720.00 367.32 720.00 541.25 C 719.99 754.66 719.95 759.57 718.07 762.65 C 714.57 768.40 704.73 769.55 700.23 764.73 C 699.08 763.51 697.65 761.23 697.07 759.68 C 696.33 757.74 696.00 710.85 696.00 607.43 L 696.00 458.00 L 680.00 458.00 L 664.00 458.00 L 663.98 501.75 C 663.95 551.17 664.12 550.01 656.05 557.84 C 649.72 563.98 645.43 565.00 625.85 565.00 L 609.06 565.00 L 608.78 624.25 L 608.50 683.50 L 605.81 688.61 C 602.40 695.07 594.39 702.31 588.24 704.51 C 584.95 705.68 578.90 706.37 568.50 706.73 L 553.50 707.26 L 553.16 733.88 C 552.78 762.96 552.67 763.57 546.83 766.59 C 542.17 769.00 536.21 767.92 532.75 764.05 C 531.24 762.35 529.96 759.96 529.91 758.73 C 529.86 757.51 529.84 745.41 529.87 731.86 L 529.92 707.21 L 511.71 706.57 C 501.70 706.21 456.83 706.05 412.00 706.21 L 330.50 706.50 L 330.00 733.00 C 329.64 752.27 329.14 760.13 328.19 761.80 C 326.39 764.95 321.14 767.99 317.50 767.99 C 315.85 767.99 313.07 767.12 311.31 766.05 Z M 529.79 672.75 L 530.07 663.00 L 418.18 663.00 L 306.29 663.00 L 303.69 665.41 C 298.60 670.13 299.16 676.81 304.98 680.75 L 308.31 683.01 L 418.90 682.75 L 529.50 682.50 L 529.79 672.75 Z M 580.46 681.58 C 584.56 679.87 585.98 675.87 585.24 668.18 L 584.75 663.00 L 569.12 663.00 L 553.50 663.00 L 553.55 667.75 C 553.58 670.36 553.69 674.86 553.80 677.75 L 554.00 683.00 L 565.53 683.00 C 573.23 683.00 578.19 682.53 580.46 681.58 Z M 585.00 601.99 L 585.00 564.99 L 490.75 565.24 L 396.50 565.50 L 396.24 602.25 L 395.98 639.00 L 490.49 639.00 L 585.00 639.00 L 585.00 601.99 Z M 580.36 541.36 L 585.00 540.73 L 585.00 530.85 L 585.00 520.97 L 478.42 521.24 L 371.84 521.50 L 368.81 524.89 C 366.21 527.79 365.85 528.85 366.30 532.22 C 366.93 536.91 369.22 539.71 373.42 540.92 C 376.90 541.94 573.15 542.35 580.36 541.36 Z M 640.00 530.97 L 640.00 520.95 L 624.75 521.22 L 609.50 521.50 L 609.21 531.25 L 608.93 541.00 L 624.46 541.00 L 640.00 541.00 L 640.00 530.97 Z M 640.00 477.50 L 640.00 458.00 L 546.00 458.00 L 452.00 458.00 L 452.00 477.50 L 452.00 497.00 L 546.00 497.00 L 640.00 497.00 L 640.00 477.50 Z M 640.00 424.00 L 640.00 414.00 L 535.58 414.00 L 431.15 414.00 L 428.08 416.59 C 425.59 418.68 425.00 419.94 425.00 423.15 C 425.00 425.34 425.49 428.04 426.08 429.15 C 428.68 434.01 426.55 433.92 536.75 433.96 L 640.00 434.00 L 640.00 424.00 Z M 696.00 424.00 L 696.00 414.00 L 680.00 414.00 L 664.00 414.00 L 664.00 423.33 C 664.00 428.47 664.30 432.97 664.67 433.33 C 665.03 433.70 672.23 434.00 680.67 434.00 L 696.00 434.00 L 696.00 424.00 Z M 716.30 298.93 C 724.06 296.78 726.01 288.24 719.99 282.75 L 716.97 280.00 L 604.91 280.00 L 492.85 280.00 L 489.92 282.92 C 484.85 287.99 486.53 295.58 493.38 298.56 C 495.94 299.68 515.75 299.93 604.50 299.96 C 677.34 299.98 713.74 299.65 716.30 298.93 Z" stroke-linecap="round"/>
</g>
</g>
</g>

  </svg>