<svg xmlns="http://www.w3.org/2000/svg" xmlns:xlink="http://www.w3.org/1999/xlink" width="500px" height="469px" viewBox="0 0 499.9999999999998 469.2344671326505">
    <g id="61e3ecfb-3ca0-41c5-b69d-6488a84c63a9">
<g style="">
		<g id="61e3ecfb-3ca0-41c5-b69d-6488a84c63a9-child-0">
<path style="stroke: rgb(193,193,193); stroke-width: 0; stroke-dasharray: none; stroke-linecap: butt; stroke-dashoffset: 0; stroke-linejoin: miter; stroke-miterlimit: 4; fill: rgb(0,0,0); fill-rule: nonzero; opacity: 1;" transform="matrix(0.810574 0 0 0.810574 249.999936 234.617174) matrix(1 0 0 1 0 0)  translate(-511.576665, -511.528521)" d="M 210.27 799.52 C 203.64 796.63 201.07 787.67 205.03 781.19 C 208.47 775.53 211.22 775.00 236.97 775.00 L 260.00 775.00 L 260.00 766.54 C 260.00 749.10 268.46 737.70 283.27 735.17 L 287.50 734.44 L 288.00 493.47 L 288.50 252.50 L 291.61 246.00 C 297.30 234.12 306.13 226.65 318.35 223.39 C 339.21 217.84 362.47 230.52 368.75 250.87 C 370.12 255.31 370.49 260.21 370.49 274.00 C 370.49 290.34 370.34 291.74 368.27 295.08 C 367.05 297.05 364.89 299.18 363.48 299.83 C 357.49 302.56 348.78 300.08 345.85 294.80 C 345.01 293.29 344.39 286.32 344.03 274.50 C 343.58 259.03 343.23 256.11 341.60 253.70 C 335.71 245.00 320.80 245.75 315.86 254.98 C 314.06 258.36 314.00 266.21 314.00 496.23 L 314.00 734.00 L 327.50 734.00 L 341.00 734.00 L 341.00 723.18 C 341.00 705.53 344.95 697.16 355.81 691.81 L 360.50 689.50 L 513.00 689.50 L 665.50 689.50 L 670.75 692.41 C 680.94 698.06 684.00 705.04 684.00 722.66 L 684.00 734.00 L 694.38 734.00 C 700.08 734.00 706.16 734.28 707.88 734.62 L 711.00 735.25 L 711.00 695.62 L 711.00 656.00 L 660.97 656.00 C 618.07 656.00 610.41 655.78 607.23 654.45 C 602.49 652.47 599.35 649.52 596.65 644.50 C 594.58 640.65 594.49 639.17 594.20 603.79 L 593.91 567.08 L 542.62 566.79 L 491.34 566.50 L 486.50 563.50 C 483.32 561.53 480.86 558.99 479.33 556.09 C 477.01 551.71 477.00 551.49 477.00 514.84 L 477.00 478.00 L 424.00 478.00 L 371.00 478.00 L 371.00 554.00 L 371.00 630.00 L 437.03 630.00 C 508.68 630.00 507.42 629.91 511.83 635.51 C 513.36 637.46 513.99 639.63 513.96 642.88 C 513.92 648.37 512.41 651.43 508.43 654.05 C 505.60 655.92 503.00 655.99 434.50 655.99 C 388.02 655.99 362.20 655.63 359.72 654.94 C 354.65 653.53 349.12 648.49 346.61 643.00 C 344.56 638.52 344.55 637.92 344.71 486.82 C 344.89 319.70 344.45 330.89 350.97 327.52 C 355.34 325.26 362.18 325.56 365.49 328.17 C 370.58 332.18 371.00 334.73 371.00 361.91 L 371.00 386.88 L 375.50 387.55 C 384.90 388.96 391.80 386.28 394.06 380.34 C 394.60 378.92 395.00 356.05 395.00 326.39 C 395.00 269.91 394.93 270.64 400.97 267.52 C 407.46 264.16 416.27 266.75 419.48 272.97 C 420.88 275.67 421.03 282.45 420.78 330.76 L 420.50 385.50 L 417.70 391.50 C 414.15 399.11 408.15 405.31 400.50 409.29 C 394.98 412.16 393.56 412.44 382.75 412.81 L 371.00 413.21 L 371.00 432.61 L 371.00 452.00 L 428.25 452.01 C 464.55 452.01 486.86 452.39 489.22 453.04 C 494.19 454.43 498.88 458.53 501.12 463.46 C 502.79 467.14 502.96 470.76 502.98 504.25 L 503.00 541.00 L 554.34 541.00 L 605.69 541.00 L 610.09 543.33 C 612.52 544.61 615.85 547.57 617.50 549.91 L 620.50 554.17 L 620.79 592.05 L 621.09 629.93 L 671.29 630.21 L 721.50 630.50 L 725.96 633.00 C 728.41 634.38 731.78 637.45 733.46 639.83 L 736.50 644.17 L 736.79 688.93 L 737.08 733.69 L 742.92 735.32 C 750.93 737.54 756.80 742.27 760.46 749.41 C 763.03 754.44 763.49 756.58 763.83 765.07 L 764.23 774.90 L 788.69 775.20 L 813.16 775.50 L 816.58 779.24 C 819.51 782.43 820.00 783.68 820.00 787.91 C 820.00 793.47 817.16 797.86 812.27 799.89 C 810.23 800.73 778.94 800.96 693.82 800.76 C 578.25 800.50 578.14 800.50 575.32 798.41 C 573.77 797.26 571.84 794.45 571.03 792.16 C 569.74 788.50 569.74 787.49 571.03 783.78 C 571.98 781.07 573.71 778.75 575.90 777.28 C 579.20 775.06 579.95 775.00 603.65 775.00 L 628.00 775.00 L 628.00 766.18 C 628.00 760.82 628.61 755.56 629.55 752.79 C 632.73 743.47 642.81 735.52 652.96 734.32 L 658.00 733.72 L 658.00 724.36 L 658.00 715.00 L 512.50 715.00 L 367.00 715.00 L 367.00 724.39 L 367.00 733.77 L 371.73 734.48 C 377.80 735.39 383.01 738.08 387.60 742.67 C 393.19 748.26 395.25 753.93 395.79 765.25 L 396.27 775.00 L 412.49 775.00 C 427.71 775.00 428.91 775.14 432.09 777.28 C 438.18 781.39 439.78 788.57 435.97 794.81 C 432.01 801.32 437.87 801.00 320.28 800.96 C 230.86 800.93 212.97 800.69 210.27 799.52 Z M 370.00 767.49 L 370.00 759.98 L 327.75 760.24 L 285.50 760.50 L 285.21 767.75 L 284.91 775.00 L 327.46 775.00 L 370.00 775.00 L 370.00 767.49 Z M 738.42 767.50 L 738.50 760.50 L 696.00 760.50 L 653.50 760.50 L 653.21 767.76 L 652.91 775.02 L 695.63 774.76 L 738.34 774.50 L 738.42 767.50 Z M 467.03 799.74 C 459.70 797.11 456.79 787.58 461.28 780.91 C 464.50 776.13 467.36 775.03 476.60 775.01 C 486.58 775.00 490.67 777.19 492.97 783.78 C 494.26 787.49 494.26 788.50 492.97 792.16 C 490.74 798.48 487.36 800.44 478.18 800.74 C 473.92 800.88 468.96 800.43 467.03 799.74 Z M 524.01 799.98 C 518.92 798.78 515.00 793.96 515.00 788.89 C 515.00 778.57 520.38 774.60 533.59 775.15 C 541.51 775.48 542.14 775.68 545.23 778.77 C 548.18 781.72 548.50 782.61 548.50 787.91 C 548.50 794.53 546.79 797.31 541.28 799.64 C 537.79 801.12 529.56 801.28 524.01 799.98 Z M 540.28 652.48 C 536.86 649.06 536.78 648.80 537.18 642.46 C 537.53 637.01 538.04 635.50 540.32 633.22 C 542.77 630.77 543.87 630.47 551.38 630.15 C 563.99 629.63 569.00 633.29 569.00 643.00 C 569.00 652.43 564.32 656.00 551.95 656.00 C 543.96 656.00 543.73 655.93 540.28 652.48 Z" stroke-linecap="round"/>
</g>
</g>
</g>

  </svg>