<svg xmlns="http://www.w3.org/2000/svg" xmlns:xlink="http://www.w3.org/1999/xlink" width="2177px" height="1927px" viewBox="0 0 2176.581303375522 1926.8775435778816">
    <g id="bac44c60-1480-481d-b9d6-590bfaa715d8">
<g style="">
		<g id="bac44c60-1480-481d-b9d6-590bfaa715d8-child-0">
<path style="stroke: rgb(193,193,193); stroke-width: 0; stroke-dasharray: none; stroke-linecap: butt; stroke-dashoffset: 0; stroke-linejoin: miter; stroke-miterlimit: 4; fill: rgb(0,0,0); fill-rule: nonzero; opacity: 1;" transform="matrix(3.763433 0 0 3.763433 1088.290738 963.438848) matrix(1 0 0 1 0 0)  translate(-511.825, -512)" d="M 272.00 766.88 C 264.94 764.06 262.00 758.52 262.00 748.06 L 262.00 740.03 L 255.01 736.51 C 241.53 729.71 229.69 715.81 224.80 701.00 L 222.65 694.50 L 222.70 510.42 C 222.76 305.37 222.19 322.11 229.59 307.98 C 236.46 294.86 248.68 284.39 263.02 279.31 C 268.95 277.22 272.92 276.58 282.13 276.22 L 293.77 275.76 L 294.24 270.81 C 294.75 265.56 296.86 261.94 301.39 258.56 C 304.03 256.59 305.41 256.50 333.40 256.50 L 362.66 256.50 L 366.33 259.30 C 370.74 262.66 372.82 266.42 373.65 272.49 L 374.27 277.01 L 511.87 276.75 C 633.30 276.53 649.50 276.32 649.67 275.00 C 650.59 267.97 651.49 265.51 654.28 262.33 C 659.65 256.22 660.92 256.00 691.08 256.00 C 716.68 256.00 718.43 256.12 721.86 258.07 C 727.06 261.02 729.30 264.55 729.80 270.56 L 730.23 275.76 L 741.36 276.25 C 749.68 276.61 754.57 277.41 760.66 279.38 C 779.58 285.52 796.04 303.32 799.89 321.80 C 800.68 325.56 801.00 380.57 801.00 510.87 C 801.00 676.96 800.84 695.16 799.39 700.07 C 794.50 716.56 783.01 730.08 767.34 737.79 L 762.19 740.33 L 761.84 749.09 C 761.46 758.78 760.15 761.57 754.01 765.75 C 750.78 767.95 750.06 768.00 723.67 768.00 C 698.69 768.00 696.32 767.85 692.51 766.00 C 685.84 762.77 682.00 755.96 682.00 747.35 L 682.00 742.99 L 511.75 743.25 L 341.50 743.50 L 340.93 750.18 C 340.25 758.00 337.51 762.79 331.88 765.95 C 328.44 767.88 326.67 768.00 301.36 767.94 C 286.02 767.90 273.43 767.45 272.00 766.88 Z M 748.11 719.99 C 760.57 717.64 770.89 709.68 776.31 698.22 L 779.50 691.50 L 779.79 514.00 C 779.99 389.15 779.75 334.60 778.98 330.11 C 778.38 326.60 776.84 321.64 775.55 319.09 C 772.46 313.01 764.35 305.52 757.22 302.18 L 751.50 299.50 L 511.50 299.50 L 271.50 299.50 L 265.48 302.65 C 258.87 306.11 251.29 313.55 248.19 319.63 C 243.88 328.08 243.89 327.41 244.20 513.50 L 244.50 691.50 L 247.67 698.20 C 253.32 710.13 264.39 718.41 276.79 720.01 C 285.98 721.18 741.84 721.17 748.11 719.99 Z M 280.46 694.12 C 274.99 691.64 268.51 684.07 267.12 678.55 C 266.32 675.37 266.00 627.18 266.00 508.72 C 266.00 331.15 265.80 338.30 270.97 331.04 C 272.19 329.33 275.50 326.61 278.34 324.98 L 283.50 322.02 L 511.78 322.01 C 701.06 322.00 740.61 322.23 743.28 323.35 C 748.28 325.44 752.57 329.56 754.89 334.48 L 757.00 338.98 L 757.00 508.52 C 757.00 695.45 757.51 681.10 750.53 688.83 C 743.48 696.63 756.71 696.08 584.67 695.77 L 430.84 695.50 L 427.92 692.23 C 423.88 687.72 423.88 682.28 427.92 677.77 L 430.83 674.50 L 463.87 674.21 L 496.92 673.92 L 498.96 671.33 C 500.98 668.76 501.00 667.76 501.00 589.43 C 501.00 541.48 500.62 509.14 500.05 507.62 C 499.40 505.92 497.86 504.75 495.30 504.01 C 492.61 503.23 462.24 502.99 391.85 503.20 C 295.49 503.49 292.14 503.56 290.10 505.40 L 288.00 507.31 L 288.00 588.02 C 288.00 668.16 288.01 668.75 290.07 671.37 L 292.15 674.00 L 341.12 674.00 C 394.85 674.00 394.37 673.95 397.48 679.97 C 399.38 683.64 399.40 686.32 397.55 689.90 C 394.29 696.21 396.37 696.00 337.79 695.98 C 288.26 695.96 284.21 695.83 280.46 694.12 Z M 733.55 671.55 L 736.00 669.09 L 736.00 589.61 C 736.00 541.55 735.62 509.14 735.05 507.62 C 734.40 505.92 732.86 504.75 730.30 504.01 C 727.61 503.23 697.24 502.99 626.85 503.20 C 530.49 503.49 527.14 503.56 525.10 505.40 L 523.00 507.31 L 523.00 588.65 C 523.00 668.67 523.03 670.03 525.00 672.00 C 526.97 673.97 528.33 674.00 629.05 674.00 L 731.09 674.00 L 733.55 671.55 Z M 733.93 478.37 C 735.98 475.76 736.00 474.96 736.00 411.87 C 736.00 349.33 735.96 347.96 734.00 346.00 C 732.01 344.01 730.67 344.00 511.83 344.00 C 308.36 344.00 291.52 344.13 289.83 345.65 C 288.09 347.23 288.00 350.60 288.00 412.15 C 288.00 475.67 288.04 477.04 290.00 479.00 C 291.99 480.99 293.33 481.00 511.93 481.00 L 731.85 481.00 L 733.93 478.37 Z M 321.11 646.60 C 314.00 642.66 314.34 630.87 321.68 627.12 C 323.23 626.33 344.72 626.00 395.53 626.00 L 467.20 626.00 L 470.60 629.40 C 473.39 632.19 474.00 633.56 474.00 637.00 C 474.00 640.44 473.39 641.81 470.60 644.60 L 467.20 648.00 L 395.35 647.96 C 337.63 647.94 323.03 647.67 321.11 646.60 Z M 321.32 598.39 C 318.14 596.82 315.00 591.82 315.00 588.35 C 315.01 585.70 318.50 580.34 321.20 578.86 C 324.31 577.14 418.05 577.40 422.30 579.14 C 427.47 581.25 429.78 590.01 426.44 594.78 C 422.79 599.99 422.70 600.00 371.80 599.98 C 330.90 599.96 324.07 599.74 321.32 598.39 Z M 320.30 550.04 C 313.76 546.05 313.93 535.71 320.62 531.33 C 323.24 529.61 327.56 529.48 392.46 529.20 C 439.49 528.99 462.67 529.23 465.18 529.96 C 475.43 532.95 477.18 545.75 467.99 550.51 C 465.50 551.79 455.16 552.00 394.30 552.00 C 325.89 551.99 323.39 551.93 320.30 550.04 Z M 553.40 644.60 C 550.61 641.81 550.00 640.44 550.00 637.00 C 550.00 633.56 550.61 632.19 553.40 629.40 L 556.80 626.00 L 573.15 625.89 C 582.14 625.83 590.62 625.88 592.00 625.99 C 602.67 626.91 606.57 640.63 597.70 646.04 C 594.83 647.79 592.57 647.99 575.65 648.00 L 556.80 648.00 L 553.40 644.60 Z M 632.66 645.95 C 631.22 644.82 629.54 642.18 628.91 640.09 C 627.96 636.91 628.06 635.68 629.52 632.60 C 632.62 626.07 633.23 625.96 669.18 625.93 C 699.27 625.90 701.55 626.02 703.94 627.79 C 710.02 632.31 710.73 639.47 705.60 644.60 L 702.20 648.00 L 668.73 648.00 C 636.49 648.00 635.17 647.92 632.66 645.95 Z M 689.87 599.32 C 676.78 591.19 688.28 570.41 701.96 577.48 C 708.36 580.79 710.99 588.79 707.65 594.81 C 704.50 600.49 695.46 602.78 689.87 599.32 Z M 555.31 598.07 C 551.32 595.61 549.99 593.17 550.02 588.32 C 550.05 584.27 552.09 580.96 555.70 579.11 C 557.99 577.93 613.96 576.73 619.29 577.74 C 620.82 578.03 623.41 579.51 625.04 581.03 C 627.49 583.32 628.00 584.59 628.00 588.39 C 628.00 592.04 627.41 593.63 625.08 596.23 L 622.17 599.50 L 590.33 599.77 C 560.18 600.02 558.33 599.93 555.31 598.07 Z M 693.75 553.18 C 692.24 553.01 689.43 551.38 687.50 549.57 C 684.58 546.81 684.00 545.57 684.00 542.08 C 684.00 539.78 684.68 536.58 685.52 534.97 C 689.62 527.02 703.19 527.16 707.65 535.19 C 708.35 536.46 708.95 539.47 708.96 541.88 C 708.99 545.60 708.48 546.75 705.56 549.51 C 702.11 552.77 698.87 553.77 693.75 553.18 Z M 554.35 550.07 C 547.84 546.10 547.82 536.41 554.32 531.77 C 557.49 529.51 557.67 529.50 600.00 529.19 C 628.39 528.98 643.72 529.24 646.18 529.96 C 656.43 532.97 658.18 545.75 648.99 550.51 C 646.55 551.77 639.15 552.00 601.80 552.00 C 559.89 551.99 557.33 551.89 554.35 550.07 Z M 436.59 455.89 C 430.61 454.47 426.26 451.30 423.24 446.16 L 420.50 441.50 L 420.18 414.87 C 419.82 385.39 420.27 382.05 425.28 376.33 C 432.02 368.65 427.39 369.04 512.00 369.04 C 583.29 369.04 587.72 369.15 591.50 370.89 C 596.34 373.12 599.39 376.29 601.45 381.23 C 602.73 384.28 603.00 389.96 603.00 413.31 C 603.00 441.09 602.95 441.78 600.67 446.09 C 599.14 448.99 596.68 451.53 593.50 453.50 L 588.66 456.50 L 514.58 456.66 C 471.76 456.76 438.85 456.43 436.59 455.89 Z M 580.07 433.96 C 581.88 432.99 582.00 431.68 582.00 413.09 C 582.00 397.57 581.70 393.00 580.64 392.12 C 579.65 391.29 560.58 391.06 510.89 391.24 L 442.50 391.50 L 442.23 412.00 C 441.98 430.39 442.13 432.62 443.67 433.75 C 445.90 435.38 577.03 435.59 580.07 433.96 Z M 342.93 447.69 C 336.46 445.86 330.06 441.87 325.26 436.67 C 319.99 430.95 317.49 426.00 315.97 418.27 C 311.90 397.55 325.82 377.91 347.41 373.93 C 363.12 371.03 379.83 379.79 387.22 394.79 C 390.27 400.98 390.50 402.17 390.50 411.50 C 390.50 420.81 390.26 422.02 387.25 428.14 C 380.99 440.86 369.73 448.15 355.50 448.68 C 351.02 448.85 345.49 448.41 342.93 447.69 Z M 360.65 424.93 C 366.72 421.99 369.36 417.34 368.80 410.60 C 368.04 401.45 362.05 396.00 352.75 396.00 C 336.93 396.00 332.03 417.86 346.27 424.91 C 351.60 427.54 355.23 427.55 360.65 424.93 Z M 657.86 446.74 C 641.57 441.05 632.18 426.64 633.21 408.90 C 634.25 390.98 646.76 377.38 665.36 373.94 C 688.48 369.67 710.69 390.32 708.68 414.24 C 706.61 438.97 681.52 455.02 657.86 446.74 Z M 677.58 425.10 C 685.99 421.28 688.88 413.37 684.84 405.22 C 681.85 399.19 677.15 396.00 671.25 396.00 C 664.99 396.00 660.38 398.50 657.47 403.47 C 652.39 412.13 656.13 422.52 665.50 425.79 C 669.94 427.35 673.03 427.17 677.58 425.10 Z" stroke-linecap="round"/>
</g>
</g>
</g>

  </svg>