<svg xmlns="http://www.w3.org/2000/svg" xmlns:xlink="http://www.w3.org/1999/xlink" width="2583px" height="1682px" viewBox="0 0 2583.4749672376493 1682.6906254799828">
    <g id="0e3e2f8f-7df2-4b55-80b8-06faf63072fe">
<g style="">
		<g id="0e3e2f8f-7df2-4b55-80b8-06faf63072fe-child-0">
<path style="stroke: rgb(193,193,193); stroke-width: 0; stroke-dasharray: none; stroke-linecap: butt; stroke-dashoffset: 0; stroke-linejoin: miter; stroke-miterlimit: 4; fill: rgb(0,0,0); fill-rule: nonzero; opacity: 1;" transform="matrix(3.802691 0 0 3.802691 1291.737593 841.345384) matrix(1 0 0 1 0 0)  translate(-511.809609, -511.75)" d="M 215.27 731.46 C 197.09 726.56 180.91 711.28 174.78 693.21 L 172.50 686.50 L 172.22 515.00 C 171.97 362.44 172.11 342.72 173.51 336.40 C 178.10 315.54 193.07 299.19 213.50 292.72 L 220.50 290.50 L 512.00 290.50 C 791.96 290.50 803.74 290.57 809.45 292.34 C 828.71 298.28 843.17 312.08 849.10 330.17 L 851.50 337.50 L 851.50 512.00 L 851.50 686.50 L 849.17 693.00 C 842.34 712.01 829.50 724.87 811.70 730.52 L 803.90 733.00 L 512.20 732.93 C 264.73 732.88 219.71 732.65 215.27 731.46 Z M 809.12 708.86 C 812.21 707.42 816.53 704.61 818.72 702.63 C 822.93 698.83 828.40 689.52 829.36 684.50 C 830.25 679.88 830.87 445.98 830.14 388.50 C 829.50 337.74 829.49 337.48 827.17 332.77 C 823.46 325.24 816.91 318.69 809.80 315.41 L 803.50 312.50 L 512.00 312.50 L 220.50 312.50 L 215.67 314.73 C 208.99 317.81 203.72 322.20 200.06 327.72 C 193.70 337.32 194.08 325.78 193.94 512.31 L 193.80 682.50 L 195.90 688.05 C 197.05 691.10 199.34 695.43 200.99 697.67 C 204.82 702.89 213.59 708.93 219.72 710.58 C 223.58 711.62 280.40 711.84 514.00 711.69 L 803.50 711.50 L 809.12 708.86 Z M 223.49 694.14 C 218.45 691.84 213.43 686.19 212.06 681.28 C 210.71 676.40 210.69 638.65 212.04 633.78 C 213.43 628.81 217.53 624.12 222.46 621.88 C 226.00 620.27 229.31 620.04 249.00 620.04 C 274.08 620.04 277.00 620.64 282.25 626.89 C 286.30 631.70 286.99 635.89 286.99 655.75 L 287.00 674.00 L 511.93 674.00 L 736.85 674.00 L 737.18 653.75 C 737.54 630.69 738.02 629.04 745.88 623.51 L 750.17 620.50 L 775.41 620.50 L 800.65 620.50 L 804.70 623.18 C 807.15 624.80 809.60 627.61 810.88 630.25 C 812.85 634.32 813.00 636.24 813.00 657.35 C 813.00 675.59 812.70 680.79 811.45 683.77 C 809.39 688.71 806.34 691.88 801.50 694.11 C 797.64 695.89 787.47 695.96 512.50 695.96 C 238.97 695.96 227.34 695.88 223.49 694.14 Z M 265.00 657.68 L 265.00 641.37 L 249.00 641.52 C 240.20 641.61 233.00 641.98 233.00 642.34 C 233.00 642.70 233.00 649.97 233.00 658.50 L 233.00 674.00 L 249.00 674.00 L 265.00 674.00 L 265.00 657.68 Z M 791.00 657.50 L 791.00 641.00 L 775.00 641.00 L 759.00 641.00 L 759.00 657.50 L 759.00 674.00 L 775.00 674.00 L 791.00 674.00 L 791.00 657.50 Z M 502.50 669.88 C 473.52 666.14 449.20 644.64 441.97 616.38 C 439.33 606.06 439.34 591.92 441.98 581.57 C 448.70 555.30 468.71 535.53 495.41 528.78 C 506.54 525.96 523.12 526.62 534.50 530.34 C 564.65 540.18 584.05 566.86 584.14 598.60 C 584.17 611.04 582.20 619.66 576.71 631.00 C 571.13 642.54 557.22 656.71 546.00 662.29 C 532.83 668.83 516.49 671.68 502.50 669.88 Z M 523.27 647.53 C 552.32 641.37 569.64 610.52 559.91 582.25 C 557.09 574.05 553.93 569.19 547.29 562.86 C 514.82 531.89 462.02 554.27 462.02 599.00 C 462.02 613.17 467.11 624.94 477.56 634.98 C 489.67 646.61 506.20 651.15 523.27 647.53 Z M 318.00 619.95 C 300.02 617.74 278.97 609.19 264.38 598.17 C 240.53 580.17 225.63 553.93 222.00 523.53 C 218.95 497.98 227.41 468.07 243.83 446.35 C 271.62 409.60 320.57 394.24 363.83 408.69 C 397.03 419.79 424.07 446.57 434.33 478.50 C 438.68 492.04 439.48 497.65 439.36 513.50 C 439.23 530.17 437.12 540.77 431.12 554.88 C 420.36 580.17 397.31 602.33 370.69 612.99 C 355.31 619.15 334.20 621.93 318.00 619.95 Z M 345.00 597.94 C 374.64 593.19 400.03 572.87 411.98 544.35 C 421.04 522.74 419.80 495.58 408.76 473.50 C 396.69 449.35 372.70 431.44 345.53 426.29 C 334.93 424.27 317.28 425.04 307.18 427.94 C 277.56 436.46 253.61 460.78 245.57 490.50 C 243.25 499.07 242.45 516.28 243.94 525.51 C 247.00 544.49 254.90 559.75 268.69 573.30 C 276.47 580.94 281.55 584.61 291.00 589.42 C 307.48 597.79 326.86 600.85 345.00 597.94 Z M 680.50 619.98 C 621.77 612.41 579.15 560.02 584.99 502.59 C 587.56 477.35 597.36 456.07 614.85 437.76 C 637.69 413.86 667.52 401.73 699.50 403.36 C 750.91 405.97 793.80 444.84 802.04 496.28 C 803.73 506.86 802.77 527.13 800.10 537.33 C 792.98 564.43 777.04 586.91 754.22 602.03 C 742.41 609.85 732.65 614.19 719.18 617.61 C 708.37 620.35 691.44 621.39 680.50 619.98 Z M 708.00 597.94 C 724.99 595.22 742.34 586.38 755.00 574.00 C 772.49 556.90 781.07 536.48 781.10 511.90 C 781.12 487.90 772.88 467.85 756.03 450.95 C 739.98 434.84 721.32 426.48 698.77 425.29 C 672.56 423.90 650.13 432.61 631.48 451.42 C 601.62 481.52 597.65 529.32 622.23 562.50 C 635.96 581.03 654.66 592.98 677.00 597.50 C 685.04 599.12 699.36 599.33 708.00 597.94 Z M 474.50 484.06 C 468.56 481.55 465.97 474.17 469.02 468.47 C 471.88 463.12 472.83 463.00 512.55 463.00 C 547.69 463.00 549.31 463.08 552.02 465.02 C 556.00 467.85 557.51 472.85 555.69 477.16 C 554.91 479.00 553.27 481.40 552.03 482.50 C 549.89 484.41 548.22 484.51 513.15 484.70 C 492.99 484.82 475.60 484.53 474.50 484.06 Z M 443.46 438.87 C 438.72 437.81 432.68 433.14 430.23 428.66 C 428.81 426.06 428.51 422.78 428.51 410.00 C 428.50 393.40 429.05 391.07 434.17 386.30 C 439.95 380.90 438.45 381.00 512.22 381.02 C 576.30 381.04 580.75 381.16 584.54 382.88 C 589.64 385.20 593.62 389.89 595.08 395.30 C 596.77 401.56 595.85 424.64 593.75 428.60 C 591.43 432.97 585.72 437.71 581.28 438.94 C 576.54 440.25 449.31 440.19 443.46 438.87 Z M 574.00 410.50 L 574.00 403.00 L 512.00 403.00 L 450.00 403.00 L 450.00 410.50 L 450.00 418.00 L 512.00 418.00 L 574.00 418.00 L 574.00 410.50 Z M 225.50 403.10 C 218.82 401.42 213.83 396.63 212.04 390.22 C 210.69 385.35 210.71 347.60 212.06 342.72 C 213.43 337.81 218.45 332.16 223.49 329.86 C 227.34 328.12 239.00 328.04 512.59 328.02 L 797.69 328.00 L 802.09 330.33 C 804.52 331.61 807.85 334.57 809.50 336.91 L 812.50 341.17 L 812.50 366.41 L 812.50 391.65 L 809.84 395.67 C 804.98 403.02 802.85 403.50 775.50 403.50 C 752.60 403.50 751.31 403.40 747.33 401.27 C 738.60 396.60 737.01 391.47 737.01 367.87 L 737.00 350.24 L 728.75 349.65 C 722.40 349.20 400.13 349.39 304.32 349.91 L 287.15 350.00 L 286.82 370.25 C 286.46 393.31 285.98 394.96 278.12 400.49 L 273.83 403.50 L 251.17 403.68 C 238.70 403.78 227.15 403.52 225.50 403.10 Z M 265.00 366.05 L 265.00 350.10 L 249.00 349.80 L 233.00 349.50 L 233.00 365.75 L 233.00 382.00 L 249.00 382.00 L 265.00 382.00 L 265.00 366.05 Z M 791.79 368.00 C 792.21 348.15 793.93 350.00 774.98 350.00 L 759.00 350.00 L 759.00 366.02 L 759.00 382.05 L 775.25 381.77 L 791.50 381.50 L 791.79 368.00 Z M 622.91 396.72 C 616.91 392.67 615.22 385.43 618.89 379.42 C 620.88 376.16 626.34 373.00 630.00 373.00 C 633.66 373.00 639.12 376.16 641.11 379.42 C 648.06 390.81 633.99 404.18 622.91 396.72 Z M 503.00 632.48 C 486.98 628.06 475.95 612.63 477.25 596.43 C 478.23 584.27 485.11 573.93 496.23 567.90 C 502.11 564.71 503.09 564.50 512.00 564.50 C 520.54 564.50 522.09 564.80 527.34 567.46 C 534.87 571.27 542.20 579.26 545.03 586.75 C 548.07 594.83 547.50 606.41 543.67 614.25 C 536.53 628.84 518.74 636.81 503.00 632.48 Z M 519.86 608.47 C 528.97 600.80 523.93 587.00 512.00 587.00 C 503.49 587.00 497.86 594.30 500.11 602.44 C 502.37 610.60 513.34 613.95 519.86 608.47 Z M 315.50 582.46 C 311.65 581.64 303.84 578.68 298.14 575.89 C 289.38 571.60 286.51 569.54 279.49 562.52 C 272.71 555.74 270.36 552.52 266.60 544.86 C 260.45 532.34 258.66 524.91 258.66 512.00 C 258.66 499.12 260.45 491.66 266.54 479.26 C 274.65 462.75 289.80 449.79 308.50 443.37 C 315.68 440.90 317.89 440.62 330.00 440.61 C 341.97 440.61 344.40 440.91 351.50 443.28 C 388.90 455.76 409.91 493.06 400.47 530.23 C 399.60 533.68 397.01 540.33 394.73 545.00 C 391.43 551.74 388.80 555.28 382.03 562.10 C 372.56 571.65 365.07 576.33 352.50 580.56 C 342.43 583.95 326.29 584.78 315.50 582.46 Z M 343.54 560.45 C 365.15 554.82 381.05 534.17 380.99 511.80 C 380.88 474.68 340.38 450.59 306.74 467.63 C 303.86 469.09 298.54 473.26 294.92 476.89 C 267.44 504.43 279.89 550.11 317.69 560.50 C 324.34 562.33 336.41 562.30 343.54 560.45 Z M 679.00 582.57 C 657.43 578.00 639.61 564.47 629.57 545.04 C 620.09 526.67 618.88 507.35 626.00 487.83 C 634.81 463.69 655.12 446.13 679.67 441.44 C 705.16 436.56 728.92 444.45 747.23 463.86 C 762.44 479.98 769.19 504.68 764.50 527.00 C 759.09 552.71 738.23 574.57 712.50 581.49 C 704.17 583.73 687.09 584.28 679.00 582.57 Z M 705.97 560.92 C 722.59 557.09 736.93 543.69 742.01 527.22 C 744.69 518.57 744.70 505.46 742.04 496.86 C 732.93 467.39 698.57 453.45 670.16 467.69 C 652.34 476.62 640.81 499.12 643.88 518.99 C 646.98 539.10 662.58 556.42 681.62 560.89 C 686.98 562.15 700.57 562.16 705.97 560.92 Z M 320.10 545.49 C 310.37 542.46 302.57 535.12 297.97 524.68 C 294.63 517.11 294.97 505.79 298.77 497.72 C 302.21 490.40 307.75 484.56 315.16 480.46 C 320.03 477.76 321.34 477.50 330.00 477.50 C 338.15 477.50 340.28 477.87 345.00 480.10 C 356.95 485.74 365.10 498.06 365.28 510.75 C 365.50 527.37 355.84 541.00 340.61 545.52 C 334.51 547.34 325.97 547.32 320.10 545.49 Z M 335.51 523.56 C 341.86 520.91 344.68 513.15 341.52 507.04 C 338.12 500.46 330.59 498.09 323.97 501.52 C 315.63 505.83 316.45 519.68 325.27 523.52 C 329.42 525.32 331.28 525.33 335.51 523.56 Z M 683.50 545.66 C 676.81 543.45 673.65 541.40 668.65 536.05 C 661.35 528.25 659.50 523.40 659.50 512.00 C 659.50 504.35 659.93 501.58 661.68 497.78 C 664.73 491.17 672.24 483.52 678.88 480.26 C 683.83 477.83 685.63 477.50 694.00 477.52 C 701.91 477.53 704.29 477.92 708.22 479.86 C 715.73 483.57 721.57 489.39 725.21 496.78 C 728.15 502.75 728.50 504.36 728.50 512.00 C 728.50 519.64 728.15 521.25 725.21 527.22 C 721.55 534.66 715.64 540.52 708.22 544.07 C 702.42 546.84 689.57 547.67 683.50 545.66 Z M 698.36 523.62 C 703.38 521.53 706.00 517.56 706.00 512.09 C 706.00 504.48 701.16 500.00 692.95 500.00 C 689.58 500.00 688.17 500.63 685.46 503.34 C 683.62 505.18 681.81 507.92 681.43 509.43 C 680.43 513.39 682.60 519.58 685.78 521.83 C 690.35 525.08 693.73 525.56 698.36 523.62 Z" stroke-linecap="round"/>
</g>
</g>
</g>

  </svg>