<svg xmlns="http://www.w3.org/2000/svg" xmlns:xlink="http://www.w3.org/1999/xlink" width="455px" height="500px" viewBox="0 0 454.79834487805124 500">
    <g id="c7072075-16ae-4534-bf30-46a183ed1b50">
<g style="">
		<g id="c7072075-16ae-4534-bf30-46a183ed1b50-child-0">
<path style="stroke: rgb(193,193,193); stroke-width: 0; stroke-dasharray: none; stroke-linecap: butt; stroke-dashoffset: 0; stroke-linejoin: miter; stroke-miterlimit: 4; fill: rgb(0,0,0); fill-rule: nonzero; opacity: 1;" transform="matrix(0.990984 0 0 0.990984 227.399133 249.999956) matrix(1 0 0 1 0 0)  translate(-511.8823, -512.315709)" d="M 308.36 764.00 C 294.66 761.16 284.24 750.08 282.49 736.50 C 281.75 730.84 285.66 707.29 329.41 453.23 C 335.79 416.24 341.00 385.64 341.00 385.23 C 340.99 384.83 337.15 382.54 332.46 380.14 C 321.86 374.73 313.95 367.65 310.41 360.40 L 307.72 354.91 L 307.84 330.39 C 307.95 308.80 308.19 305.37 309.83 301.69 C 319.69 279.52 370.18 265.94 461.00 261.01 C 484.66 259.72 538.96 259.72 563.50 261.00 C 628.06 264.38 675.08 273.04 698.00 285.77 C 706.60 290.54 713.37 297.58 715.48 303.94 C 716.87 308.13 717.08 312.61 716.82 332.21 C 716.50 355.27 716.47 355.55 713.81 360.59 C 710.10 367.62 701.46 375.18 691.46 380.14 C 684.29 383.69 683.11 384.62 683.52 386.40 C 683.78 387.56 686.70 404.48 690.00 424.00 C 693.30 443.52 698.70 475.25 702.00 494.50 C 705.30 513.75 710.49 544.35 713.54 562.50 C 716.58 580.65 724.27 626.10 730.63 663.50 C 743.16 737.23 743.15 737.09 738.47 746.64 C 728.44 767.15 700.78 770.58 684.96 753.27 C 678.46 746.16 677.53 742.76 670.42 700.50 C 667.27 681.80 664.43 666.21 664.10 665.87 C 663.77 665.52 660.12 666.06 656.00 667.08 C 614.28 677.33 539.66 682.77 477.69 680.09 C 428.96 677.98 386.39 672.77 363.25 666.08 C 360.35 665.24 359.95 665.38 359.48 667.32 C 359.19 668.52 356.11 685.93 352.62 706.00 C 348.13 731.91 345.66 743.75 344.11 746.79 C 337.77 759.22 321.96 766.83 308.36 764.00 Z M 321.30 738.15 C 322.83 736.61 324.56 728.37 329.97 696.87 C 333.69 675.21 336.41 657.37 336.02 657.22 C 335.62 657.06 332.02 654.91 328.01 652.44 C 324.00 649.97 320.57 648.10 320.38 648.29 C 319.47 649.19 306.03 733.52 306.54 735.11 C 306.86 736.12 308.33 737.90 309.81 739.06 C 313.01 741.58 318.28 741.16 321.30 738.15 Z M 715.55 738.55 C 716.90 737.20 718.00 735.44 718.00 734.64 C 718.00 733.84 715.97 721.33 713.49 706.84 C 711.01 692.35 707.81 673.53 706.39 665.00 C 704.96 656.47 703.46 649.14 703.05 648.71 C 702.06 647.64 687.45 656.76 687.69 658.29 C 689.18 667.55 700.18 732.12 700.56 733.84 C 702.07 740.59 710.76 743.33 715.55 738.55 Z M 550.00 655.99 C 630.03 651.92 684.33 639.37 697.19 621.97 C 698.97 619.56 698.99 619.06 697.51 612.02 C 696.65 607.95 695.81 604.47 695.64 604.30 C 695.47 604.13 693.45 605.78 691.16 607.96 C 683.30 615.44 667.28 621.53 642.50 626.48 C 589.13 637.14 490.49 639.54 418.50 631.94 C 373.44 627.18 343.84 618.76 331.76 607.26 C 330.25 605.82 328.84 604.84 328.63 605.07 C 327.98 605.78 326.00 615.92 326.00 618.55 C 326.00 624.40 339.62 633.25 358.11 639.44 C 396.22 652.18 481.05 659.50 550.00 655.99 Z M 542.50 612.02 C 597.02 609.85 639.05 604.65 661.00 597.36 C 670.85 594.09 673.71 592.27 671.87 590.46 C 668.45 587.12 644.17 581.09 620.00 577.58 C 567.80 570.02 488.87 568.76 430.00 574.55 C 400.68 577.44 374.57 582.07 361.58 586.68 C 352.28 589.99 350.93 591.26 354.33 593.48 C 366.92 601.73 419.21 609.76 474.00 611.85 C 506.43 613.08 515.41 613.11 542.50 612.02 Z M 342.05 568.66 C 346.70 566.27 351.03 564.13 351.67 563.91 C 352.39 563.66 355.86 545.92 360.48 519.00 C 376.87 423.35 381.00 398.81 381.00 397.11 C 381.00 395.71 379.33 394.98 372.90 393.60 C 368.45 392.64 364.70 392.00 364.58 392.18 C 364.27 392.61 355.96 440.44 343.94 511.00 C 338.46 543.17 333.80 570.29 333.58 571.25 C 333.36 572.21 333.28 573.00 333.39 573.00 C 333.50 573.00 337.40 571.05 342.05 568.66 Z M 685.52 541.76 C 682.98 526.77 678.24 499.20 674.98 480.50 C 671.73 461.80 667.05 434.41 664.58 419.63 C 662.11 404.84 659.91 392.58 659.70 392.37 C 658.97 391.64 643.00 395.43 643.00 396.34 C 643.00 396.85 646.36 416.89 650.47 440.88 C 654.58 464.87 660.86 501.99 664.43 523.38 C 668.00 544.76 671.14 562.47 671.41 562.74 C 671.67 563.01 675.37 564.73 679.61 566.58 C 683.86 568.43 687.83 570.43 688.42 571.03 C 690.55 573.17 690.12 568.90 685.52 541.76 Z M 392.23 555.02 C 428.49 549.16 474.22 546.52 525.50 547.33 C 573.26 548.08 602.48 550.18 632.90 555.05 C 639.71 556.15 645.41 556.92 645.55 556.77 C 645.69 556.62 645.17 552.90 644.40 548.50 C 643.62 544.10 637.54 509.00 630.90 470.50 C 624.26 432.00 618.64 400.32 618.43 400.10 C 618.21 399.88 610.49 400.45 601.27 401.35 C 569.37 404.49 551.34 405.28 512.50 405.28 C 473.80 405.27 454.81 404.43 425.00 401.42 C 416.48 400.56 408.63 399.78 407.56 399.68 C 405.77 399.51 404.73 404.66 393.31 470.00 C 378.00 557.60 378.10 557.00 379.12 557.00 C 379.58 557.00 385.48 556.11 392.23 555.02 Z M 575.00 379.53 C 636.59 374.67 679.19 364.61 690.69 352.20 C 692.51 350.24 693.00 348.56 693.00 344.35 C 693.00 341.41 692.86 339.00 692.69 339.00 C 692.52 339.00 688.81 340.30 684.44 341.90 C 668.33 347.77 632.72 354.11 597.00 357.45 C 508.10 365.78 387.91 358.89 343.00 342.90 C 338.33 341.23 333.83 339.65 333.00 339.38 C 331.76 338.98 331.56 339.89 331.84 344.70 C 332.28 352.22 334.02 354.11 345.62 359.64 C 365.87 369.32 407.81 376.87 458.50 379.97 C 468.40 380.58 478.98 381.23 482.00 381.43 C 494.46 382.23 556.87 380.96 575.00 379.53 Z M 561.50 335.97 C 611.18 333.29 653.66 327.04 677.55 318.90 C 687.76 315.42 691.61 313.02 690.72 310.71 C 689.59 307.76 673.89 301.05 659.96 297.55 C 623.58 288.42 575.26 284.01 511.50 284.01 C 441.35 284.00 387.37 289.65 353.33 300.56 C 342.64 303.99 333.00 308.89 333.00 310.91 C 333.00 312.79 338.21 315.89 346.30 318.81 C 369.43 327.18 411.86 333.14 471.00 336.33 C 485.54 337.12 544.62 336.88 561.50 335.97 Z" stroke-linecap="round"/>
</g>
</g>
</g>

  </svg>