<svg xmlns="http://www.w3.org/2000/svg" xmlns:xlink="http://www.w3.org/1999/xlink" width="3467px" height="2762px" viewBox="0 0 3466.666666666668 2761.5586180086684">
    <g id="0906d69c-97cc-4f1f-90cd-5256caf034d9">
<g style="">
		<g id="0906d69c-97cc-4f1f-90cd-5256caf034d9-child-0">
<path style="stroke: rgb(193,193,193); stroke-width: 0; stroke-dasharray: none; stroke-linecap: butt; stroke-dashoffset: 0; stroke-linejoin: miter; stroke-miterlimit: 4; fill: rgb(0,0,0); fill-rule: nonzero; opacity: 1;" transform="matrix(6.192387 0 0 6.192387 1733.333452 1380.779404) matrix(1 0 0 1 0 0)  translate(-512.008094, -512.019847)" d="M 256.75 733.92 C 252.60 731.50 252.00 728.07 252.00 706.71 L 252.00 686.32 L 249.31 685.10 C 244.00 682.67 239.27 677.98 235.91 671.80 L 232.50 665.50 L 232.22 603.61 C 231.97 549.17 232.13 541.04 233.55 536.11 C 236.51 525.79 243.86 515.80 252.53 510.32 L 256.85 507.58 L 252.10 504.87 C 245.45 501.08 237.60 492.14 234.85 485.25 C 232.69 479.84 232.54 477.88 232.21 452.12 C 231.92 429.67 232.13 423.91 233.37 420.12 C 234.20 417.58 246.46 392.10 260.60 363.50 L 286.32 311.50 L 293.41 304.41 C 300.81 297.01 309.22 292.11 318.03 290.08 C 321.01 289.39 385.53 289.04 512.00 289.04 C 669.07 289.03 702.38 289.26 706.63 290.39 C 715.23 292.68 724.06 297.99 731.19 305.14 C 737.78 311.77 738.23 312.59 763.45 363.56 C 777.51 391.99 789.72 417.68 790.58 420.63 C 791.87 425.06 792.09 430.76 791.82 452.76 L 791.50 479.50 L 788.34 486.18 C 784.68 493.90 778.48 501.05 772.31 504.67 C 769.94 506.05 768.00 507.36 768.00 507.57 C 768.00 507.78 769.33 508.64 770.95 509.48 C 775.79 511.98 783.84 520.73 786.93 526.86 C 791.97 536.84 792.14 539.61 791.81 604.50 L 791.50 664.50 L 789.14 669.71 C 786.68 675.16 778.87 683.34 774.58 684.97 L 772.11 685.91 L 771.80 708.04 L 771.50 730.18 L 768.69 732.59 L 765.89 735.00 L 736.91 735.00 C 704.94 735.00 704.20 734.87 702.07 728.78 C 701.46 727.01 701.00 717.71 701.00 706.85 L 701.00 688.00 L 511.50 688.00 L 322.00 688.00 L 322.00 708.70 L 322.00 729.39 L 319.31 732.20 L 316.63 735.00 L 287.56 734.97 C 269.69 734.95 257.83 734.55 256.75 733.92 Z M 299.00 700.00 L 299.00 688.00 L 287.00 688.00 L 275.00 688.00 L 275.00 700.00 L 275.00 712.00 L 287.00 712.00 L 299.00 712.00 L 299.00 700.00 Z M 749.00 700.00 L 749.00 688.00 L 736.50 688.00 L 724.00 688.00 L 724.00 700.00 L 724.00 712.00 L 736.50 712.00 L 749.00 712.00 L 749.00 700.00 Z M 764.68 663.05 C 765.88 662.26 767.34 660.55 767.93 659.26 C 768.65 657.67 769.00 638.31 769.00 599.95 L 769.00 543.00 L 753.25 542.98 C 744.59 542.97 709.28 542.68 674.78 542.35 C 640.29 542.02 596.57 542.08 577.62 542.49 L 543.17 543.23 L 542.84 558.86 C 542.51 574.01 542.41 574.67 539.55 579.82 C 536.26 585.76 532.01 589.88 525.72 593.24 C 522.19 595.12 519.94 595.49 512.00 595.49 C 504.06 595.49 501.81 595.12 498.28 593.24 C 491.46 589.60 486.88 584.93 483.84 578.51 C 481.12 572.76 481.00 571.87 481.00 557.81 L 481.00 543.12 L 476.69 542.48 C 473.63 542.02 257.43 542.48 255.25 542.95 C 255.11 542.98 255.01 568.99 255.02 600.75 C 255.04 654.81 255.16 658.65 256.84 660.84 C 257.83 662.13 260.19 663.55 262.07 664.01 C 263.96 664.46 377.33 664.76 514.00 664.67 C 728.91 664.52 762.79 664.30 764.68 663.05 Z M 517.93 570.37 C 519.94 567.80 520.00 566.66 520.00 529.87 L 520.00 492.00 L 512.00 492.00 L 504.00 492.00 L 504.00 530.05 L 504.00 568.09 L 506.45 570.55 C 509.90 573.99 515.14 573.90 517.93 570.37 Z M 481.00 515.06 C 481.00 511.19 480.93 511.11 476.75 510.52 C 474.41 510.18 430.88 510.04 380.00 510.20 L 287.50 510.50 L 283.37 514.75 L 279.24 519.00 L 380.12 519.00 L 481.00 519.00 L 481.00 515.06 Z M 741.34 514.75 L 736.73 510.50 L 643.62 510.27 C 592.40 510.15 548.81 510.32 546.75 510.65 C 543.17 511.23 543.00 511.43 543.00 515.13 L 543.00 519.00 L 644.48 519.00 L 745.96 519.00 L 741.34 514.75 Z M 481.89 482.98 C 483.44 477.80 488.42 472.17 493.49 469.86 C 498.94 467.39 524.09 467.17 529.78 469.55 C 536.05 472.17 543.00 480.54 543.00 485.47 C 543.00 486.87 553.85 487.00 650.33 486.76 L 757.66 486.50 L 761.33 483.70 C 767.68 478.85 768.43 476.40 768.83 459.11 L 769.18 443.72 L 766.84 444.39 C 765.55 444.75 762.24 445.50 759.47 446.04 C 756.24 446.67 666.64 446.93 508.47 446.76 C 279.50 446.52 262.24 446.38 258.75 444.80 L 255.00 443.10 L 255.00 458.09 C 255.00 476.77 256.46 480.56 265.50 485.33 C 268.18 486.75 279.73 486.92 374.59 486.96 L 480.68 487.00 L 481.89 482.98 Z M 759.04 422.48 C 765.04 419.38 765.05 419.42 740.68 370.15 C 726.84 342.18 716.85 323.20 714.90 321.13 C 713.15 319.28 709.20 316.58 706.11 315.13 L 700.50 312.50 L 512.81 312.24 L 325.12 311.98 L 319.41 314.12 C 309.40 317.87 308.12 319.85 283.28 370.15 C 259.05 419.19 259.01 419.31 264.76 422.43 C 267.16 423.74 297.67 423.92 511.80 423.96 C 728.35 424.00 756.43 423.83 759.04 422.48 Z" stroke-linecap="round"/>
</g>
</g>
</g>

  </svg>