<svg xmlns="http://www.w3.org/2000/svg" xmlns:xlink="http://www.w3.org/1999/xlink" width="2057px" height="1667px" viewBox="0 0 2057.1207630413555 1667.5467536821914">
    <g id="05459b64-00b1-4f79-8567-bf915b9a4784">
<g style="">
		<g id="05459b64-00b1-4f79-8567-bf915b9a4784-child-0">
<path style="stroke: rgb(193,193,193); stroke-width: 0; stroke-dasharray: none; stroke-linecap: butt; stroke-dashoffset: 0; stroke-linejoin: miter; stroke-miterlimit: 4; fill: rgb(0,0,0); fill-rule: nonzero; opacity: 1;" transform="matrix(4.344219 0 0 4.344219 1028.560434 833.773419) matrix(1 0 0 1 0 0)  translate(-512.017756, -512.072885)" d="M 290.00 702.41 C 283.01 699.39 276.96 691.61 275.49 683.77 C 274.57 678.91 276.41 670.85 279.49 666.19 C 280.87 664.10 284.03 661.12 286.50 659.55 L 291.00 656.71 L 291.00 511.94 L 291.00 367.16 L 287.57 365.04 C 276.36 358.12 272.29 344.30 278.09 332.86 C 280.57 327.94 287.16 322.49 292.29 321.08 C 295.42 320.23 352.35 320.01 514.50 320.22 C 718.51 320.48 732.70 320.61 735.64 322.22 C 737.37 323.17 740.20 325.35 741.92 327.08 C 747.13 332.29 748.46 335.71 748.48 344.00 C 748.50 350.47 748.11 352.17 745.65 356.36 C 743.81 359.47 741.04 362.30 737.90 364.26 L 733.00 367.30 L 733.05 511.90 L 733.11 656.50 L 737.80 659.58 C 753.12 669.64 752.25 692.56 736.21 701.29 L 731.23 704.00 L 512.36 703.96 C 319.21 703.93 293.09 703.74 290.00 702.41 Z M 730.41 684.92 C 733.65 681.08 733.68 678.59 730.55 675.45 L 728.09 673.00 L 511.70 673.00 C 296.12 673.00 295.30 673.01 293.49 675.01 C 290.73 678.06 291.14 682.86 294.39 685.66 L 297.11 688.00 L 512.47 688.00 L 727.82 688.00 L 730.41 684.92 Z M 717.00 512.00 L 717.00 368.00 L 512.00 368.00 L 307.00 368.00 L 307.00 512.00 L 307.00 656.00 L 512.00 656.00 L 717.00 656.00 L 717.00 512.00 Z M 730.93 348.37 C 733.54 345.04 733.54 342.96 730.93 339.63 L 728.85 337.00 L 512.00 337.00 L 295.15 337.00 L 293.02 339.71 C 290.53 342.87 290.96 346.55 294.15 349.25 C 296.11 350.90 307.98 351.00 512.54 351.00 L 728.85 351.00 L 730.93 348.37 Z M 325.31 638.59 L 322.50 636.17 L 322.76 580.34 L 323.02 524.50 L 325.57 522.25 L 328.11 520.00 L 512.10 520.00 L 696.09 520.00 L 698.55 522.45 L 701.00 524.91 L 701.00 579.87 C 701.00 610.10 700.72 635.56 700.38 636.46 C 698.85 640.45 695.14 641.00 669.97 641.00 L 645.85 641.00 L 642.92 638.08 C 641.16 636.31 640.00 634.10 640.00 632.50 C 640.00 630.90 641.16 628.69 642.92 626.92 L 645.85 624.00 L 665.43 624.00 L 685.02 624.00 L 684.76 580.25 L 684.50 536.50 L 602.75 536.24 L 521.00 535.99 L 521.00 579.99 L 521.00 624.00 L 540.07 624.00 C 559.32 624.00 562.05 624.43 564.72 627.91 C 566.04 629.64 566.37 633.87 565.38 636.46 C 563.70 640.82 561.62 641.00 511.98 641.00 C 478.08 641.00 464.26 640.67 462.68 639.84 C 457.20 636.91 456.45 631.40 460.92 626.92 L 463.85 624.00 L 483.92 624.00 L 504.00 624.00 L 504.00 580.00 L 504.00 536.00 L 421.50 536.00 L 339.00 536.00 L 339.00 580.00 L 339.00 624.00 L 359.05 624.00 C 378.99 624.00 379.10 624.01 381.55 626.45 C 383.24 628.15 384.00 630.02 384.00 632.50 C 384.00 634.98 383.24 636.85 381.55 638.55 L 379.09 641.00 L 353.60 641.00 L 328.11 641.00 L 325.31 638.59 Z M 392.46 600.72 C 388.81 597.58 388.72 591.50 392.27 588.44 C 394.59 586.45 396.18 586.28 418.20 585.73 C 431.11 585.40 443.43 585.53 445.58 586.02 C 450.18 587.06 453.00 590.10 453.00 594.03 C 453.00 602.51 451.24 603.00 420.61 603.00 C 395.50 603.00 395.07 602.97 392.46 600.72 Z M 575.50 601.82 C 570.41 598.84 569.40 592.51 573.37 588.53 C 576.68 585.23 581.19 584.77 606.90 585.16 L 629.17 585.50 L 632.18 588.88 C 634.65 591.64 635.09 592.82 634.58 595.37 C 634.23 597.09 633.05 599.39 631.95 600.50 C 630.06 602.39 628.45 602.51 603.72 602.75 C 585.07 602.92 576.92 602.65 575.50 601.82 Z M 407.00 569.33 C 403.58 568.00 401.00 564.59 401.00 561.41 C 401.00 553.26 403.76 552.00 421.50 552.00 C 439.24 552.00 442.00 553.26 442.00 561.41 C 442.00 563.60 441.16 565.44 439.42 567.08 C 436.97 569.38 436.15 569.51 422.67 569.71 C 414.88 569.82 407.83 569.65 407.00 569.33 Z M 587.36 569.01 C 581.60 566.69 580.36 559.49 584.92 554.92 L 587.85 552.00 L 602.79 552.00 C 616.18 552.00 617.99 552.21 620.25 553.98 C 625.23 557.90 624.52 565.65 618.91 568.55 C 615.74 570.18 591.16 570.54 587.36 569.01 Z M 327.21 503.95 C 322.05 501.88 321.93 500.34 322.22 441.88 L 322.50 387.83 L 325.31 385.41 L 328.11 383.00 L 511.48 383.00 L 694.85 383.00 L 697.92 385.59 L 701.00 388.18 L 701.00 444.00 L 701.00 499.82 L 697.92 502.41 L 694.85 505.00 L 671.37 505.00 C 645.80 505.00 642.89 504.46 640.96 499.39 C 639.46 495.45 639.78 494.06 642.92 490.92 L 645.85 488.00 L 665.42 488.00 L 685.00 488.00 L 685.00 444.00 L 685.00 400.00 L 603.00 400.00 L 521.00 400.00 L 521.00 444.00 L 521.00 488.00 L 541.05 488.00 C 560.99 488.00 561.10 488.01 563.55 490.45 C 568.16 495.07 566.04 502.96 559.78 504.51 C 558.52 504.82 536.27 504.94 510.33 504.79 L 463.16 504.50 L 460.58 502.08 C 457.04 498.75 457.07 493.77 460.65 490.45 C 463.27 488.02 463.43 488.00 483.65 488.00 L 504.00 488.00 L 504.00 444.00 L 504.00 400.00 L 421.50 400.00 L 339.00 400.00 L 339.00 444.00 L 339.00 488.00 L 359.05 488.00 C 378.99 488.00 379.10 488.01 381.55 490.45 C 383.05 491.96 384.00 494.06 384.00 495.87 C 384.00 504.47 382.16 505.01 353.30 504.94 C 340.21 504.90 328.47 504.46 327.21 503.95 Z M 392.36 464.63 C 388.49 461.31 388.49 455.69 392.36 452.37 C 395.11 450.01 395.17 450.00 421.60 450.00 L 448.09 450.00 L 450.55 452.45 C 452.24 454.15 453.00 456.02 453.00 458.50 C 453.00 460.98 452.24 462.85 450.55 464.55 L 448.09 467.00 L 421.60 467.00 C 395.17 467.00 395.11 466.99 392.36 464.63 Z M 573.64 464.36 C 571.88 462.60 571.00 460.65 571.00 458.50 C 571.00 456.35 571.88 454.40 573.64 452.64 L 576.27 450.00 L 602.95 450.00 C 628.36 450.00 629.73 450.10 631.80 452.03 C 635.86 455.81 635.83 461.21 631.73 465.03 C 629.74 466.89 628.09 467.00 602.95 467.00 L 576.27 467.00 L 573.64 464.36 Z M 407.87 433.30 C 400.95 432.23 398.19 422.81 403.46 418.28 C 405.98 416.11 406.91 416.00 421.97 416.00 L 437.82 416.00 L 440.41 419.08 C 443.25 422.45 443.59 424.61 441.86 428.40 C 439.86 432.80 435.50 434.02 422.35 433.85 C 415.83 433.77 409.32 433.52 407.87 433.30 Z M 588.29 432.89 C 581.91 431.05 579.80 423.11 584.45 418.45 C 586.86 416.05 587.25 416.00 603.00 416.00 C 618.75 416.00 619.14 416.05 621.55 418.45 C 626.01 422.92 624.44 430.08 618.45 432.58 C 614.57 434.21 593.58 434.42 588.29 432.89 Z" stroke-linecap="round"/>
</g>
</g>
</g>

  </svg>