<svg xmlns="http://www.w3.org/2000/svg" xmlns:xlink="http://www.w3.org/1999/xlink" width="3467px" height="2472px" viewBox="0 0 3466.6666666666674 2471.6958909977257">
    <g id="0bb68297-18a0-476e-b9b0-e6d6a1a53f90">
<g style="">
		<g id="0bb68297-18a0-476e-b9b0-e6d6a1a53f90-child-0">
<path style="stroke: rgb(193,193,193); stroke-width: 0; stroke-dasharray: none; stroke-linecap: butt; stroke-dashoffset: 0; stroke-linejoin: miter; stroke-miterlimit: 4; fill: rgb(0,0,0); fill-rule: nonzero; opacity: 1;" transform="matrix(5.351559 0 0 5.351559 1733.333184 1235.847839) matrix(1 0 0 1 0 0)  translate(-511.940628, -512.067698)" d="M 196.00 742.29 C 193.54 741.38 190.84 738.66 189.76 736.00 C 189.10 734.36 188.82 687.31 188.94 598.50 C 189.14 449.91 188.64 461.02 195.30 456.96 C 198.43 455.05 201.48 455.01 337.50 455.01 C 473.52 455.01 476.57 455.05 479.70 456.96 C 485.30 460.37 485.77 462.00 486.22 479.50 C 486.60 494.40 486.81 495.85 489.27 500.62 C 493.93 509.68 502.36 514.94 512.28 514.98 C 519.33 515.00 523.48 513.37 528.96 508.42 C 536.46 501.64 537.37 498.78 537.97 479.95 C 538.56 461.51 539.17 459.57 545.33 456.65 C 548.50 455.14 560.66 455.00 686.93 455.00 C 837.45 455.00 829.80 454.71 833.67 460.62 C 835.42 463.28 835.51 469.54 835.76 597.08 C 835.97 702.71 835.76 731.56 834.76 734.59 C 833.97 736.99 832.22 739.29 830.10 740.71 L 826.70 743.00 L 512.10 742.92 C 339.07 742.88 196.82 742.59 196.00 742.29 Z M 282.00 715.21 C 282.00 705.13 274.57 687.39 266.07 677.18 C 254.67 663.48 236.29 653.63 218.25 651.54 L 213.00 650.93 L 213.00 684.97 L 213.00 719.00 L 247.50 719.00 L 282.00 719.00 L 282.00 715.21 Z M 717.16 714.43 C 717.36 711.92 717.33 709.67 717.10 709.43 C 716.86 709.19 624.49 709.00 511.83 709.00 L 307.00 709.00 L 307.00 714.00 L 307.00 719.00 L 511.90 719.00 L 716.80 719.00 L 717.16 714.43 Z M 811.00 685.50 L 811.00 652.00 L 806.21 652.00 C 790.78 652.00 769.76 662.96 757.93 677.18 C 749.41 687.42 742.00 705.31 742.00 715.66 L 742.00 719.00 L 776.50 719.00 L 811.00 719.00 L 811.00 685.50 Z M 728.04 678.75 C 737.35 660.78 751.63 646.68 769.59 637.69 C 775.58 634.69 776.64 633.78 776.42 631.82 C 776.28 630.54 776.12 609.03 776.06 584.00 L 775.96 538.50 L 770.87 535.50 C 763.53 531.17 751.13 517.68 746.63 509.12 C 742.32 500.90 738.43 490.08 737.45 483.50 L 736.77 478.99 L 649.64 479.24 L 562.50 479.50 L 562.24 488.00 C 561.80 502.73 556.90 514.79 547.65 523.93 C 534.50 536.94 519.17 541.97 503.02 538.58 C 493.10 536.50 486.16 532.96 479.04 526.38 C 467.79 515.96 463.08 505.82 462.13 490.00 L 461.50 479.50 L 374.58 479.50 L 287.65 479.50 L 285.88 487.73 C 283.51 498.77 277.65 510.89 270.27 520.00 C 264.75 526.81 260.74 530.38 251.25 536.90 L 248.00 539.14 L 248.00 586.86 L 248.00 634.58 L 253.75 637.40 C 262.60 641.74 269.81 646.85 277.81 654.43 C 284.89 661.15 295.17 675.12 297.90 681.75 L 299.24 685.00 L 512.02 685.00 L 724.80 685.00 L 728.04 678.75 Z M 808.50 627.01 L 811.50 627.00 L 811.20 588.28 C 810.98 559.45 810.60 549.37 809.70 548.80 C 809.04 548.38 806.81 548.02 804.75 548.02 L 801.00 548.00 L 801.00 588.12 L 801.00 628.23 L 803.25 627.63 C 804.49 627.30 806.85 627.02 808.50 627.01 Z M 223.00 587.50 L 223.00 548.00 L 218.00 548.00 L 213.00 548.00 L 213.00 587.50 L 213.00 627.00 L 218.00 627.00 L 223.00 627.00 L 223.00 587.50 Z M 223.27 522.53 C 232.92 520.49 241.00 515.82 248.17 508.16 C 254.74 501.14 260.47 490.51 261.60 483.25 L 262.26 479.00 L 237.63 479.00 L 213.00 479.00 L 213.00 501.50 C 213.00 527.19 211.90 524.94 223.27 522.53 Z M 811.00 501.50 L 811.00 479.00 L 786.50 479.00 C 758.27 479.00 760.24 478.06 764.42 489.58 C 768.68 501.31 777.17 511.48 788.00 517.84 C 792.67 520.59 803.48 523.84 808.25 523.94 L 811.00 524.00 L 811.00 501.50 Z M 197.62 445.97 C 193.55 444.75 190.16 441.25 189.00 437.07 C 187.73 432.50 187.73 395.03 189.00 380.00 C 190.29 364.76 193.85 351.90 200.48 338.50 C 214.62 309.95 236.48 292.58 269.42 283.71 L 277.50 281.54 L 506.50 281.22 C 671.15 280.99 737.75 281.22 743.50 282.02 C 768.94 285.57 789.68 295.49 805.78 311.82 C 819.97 326.22 829.94 346.45 834.20 369.50 C 835.08 374.26 835.50 386.33 835.50 407.17 C 835.50 436.62 835.42 437.96 833.43 440.67 C 832.29 442.23 829.81 444.29 827.93 445.25 C 824.71 446.89 815.93 447.00 687.00 447.00 C 558.07 447.00 549.29 446.89 546.07 445.25 C 539.76 442.03 538.59 439.27 537.96 426.19 C 537.32 412.63 535.87 408.90 528.66 402.26 C 515.97 390.56 497.03 394.41 488.79 410.37 C 487.09 413.65 486.53 417.01 486.05 426.71 C 485.47 438.47 485.34 439.03 482.53 441.97 C 480.93 443.64 478.01 445.46 476.06 446.00 C 471.60 447.24 201.76 447.21 197.62 445.97 Z M 261.00 420.72 C 261.00 416.81 254.29 404.22 249.44 399.04 C 241.02 390.03 231.92 385.46 219.75 384.12 L 213.00 383.38 L 213.00 403.19 L 213.00 423.00 L 237.00 423.00 L 261.00 423.00 L 261.00 420.72 Z M 462.24 415.82 C 464.52 395.15 480.86 376.73 501.03 372.08 C 507.54 370.58 517.72 370.78 524.47 372.53 C 543.63 377.53 558.98 394.89 562.22 415.26 L 563.45 423.01 L 650.40 422.76 L 737.34 422.50 L 738.64 416.80 C 741.58 403.85 749.66 389.38 759.40 379.64 C 762.48 376.56 765.00 373.86 765.00 373.64 C 765.00 373.43 761.91 370.99 758.13 368.23 C 746.85 360.00 737.08 346.87 731.13 331.95 C 728.31 324.86 725.00 311.43 725.00 307.04 L 725.00 305.00 L 512.36 305.25 L 299.71 305.50 L 297.81 314.93 C 293.87 334.40 286.25 348.62 272.83 361.50 C 268.25 365.90 263.18 370.43 261.56 371.56 L 258.63 373.62 L 263.43 378.05 C 272.65 386.54 282.15 402.57 285.08 414.54 C 285.74 417.27 286.69 420.29 287.18 421.26 C 288.03 422.91 292.96 423.00 374.79 422.76 L 461.50 422.50 L 462.24 415.82 Z M 811.00 402.99 L 811.00 382.98 L 806.75 383.53 C 792.56 385.40 782.12 390.51 774.24 399.47 C 769.45 404.91 763.00 417.06 763.00 420.63 L 763.00 423.00 L 787.00 423.00 L 811.00 423.00 L 811.00 402.99 Z M 235.91 357.11 C 252.86 351.83 268.15 334.43 272.57 315.38 C 273.41 311.74 273.93 308.59 273.72 308.39 C 272.88 307.55 262.02 311.44 254.50 315.28 C 242.58 321.36 229.98 334.27 223.68 346.86 C 221.10 352.00 219.00 356.83 219.00 357.60 C 219.00 359.68 228.53 359.40 235.91 357.11 Z M 805.00 357.22 C 805.00 354.25 798.56 341.88 793.60 335.31 C 785.56 324.67 774.33 316.59 759.84 311.00 C 755.56 309.35 751.83 308.00 751.53 308.00 C 750.21 308.00 751.26 314.18 753.83 321.56 C 761.36 343.18 780.23 358.71 799.25 358.93 C 804.12 358.99 805.00 358.73 805.00 357.22 Z" stroke-linecap="round"/>
</g>
</g>
</g>

  </svg>