<svg xmlns="http://www.w3.org/2000/svg" xmlns:xlink="http://www.w3.org/1999/xlink" width="2583px" height="2381px" viewBox="0 0 2583.4749672376493 2381.142446186019">
    <g id="9720142d-cb74-4c9e-b92f-48115e092135">
<g style="">
		<g id="9720142d-cb74-4c9e-b92f-48115e092135-child-0">
<path style="stroke: rgb(193,193,193); stroke-width: 0; stroke-dasharray: none; stroke-linecap: butt; stroke-dashoffset: 0; stroke-linejoin: miter; stroke-miterlimit: 4; fill: rgb(0,0,0); fill-rule: nonzero; opacity: 1;" transform="matrix(5.952707 0 0 5.952707 1291.737419 1190.571163) matrix(1 0 0 1 0 0)  translate(-512, -511.995)" d="M 332.00 711.29 C 331.17 710.99 329.44 709.79 328.15 708.62 C 323.55 704.45 323.00 702.05 322.97 685.80 L 322.95 670.50 L 308.97 655.71 L 295.00 640.91 L 295.00 513.93 L 295.00 386.95 L 330.61 350.04 C 350.19 329.74 366.88 312.88 367.69 312.57 C 368.50 312.25 433.81 312.00 512.83 311.99 L 656.50 311.99 L 664.50 320.31 C 668.90 324.88 685.21 341.78 700.75 357.87 L 729.00 387.11 L 729.00 514.11 L 729.00 641.10 L 715.00 655.40 L 701.00 669.69 L 701.00 685.70 C 701.00 700.67 700.85 701.92 698.73 705.10 C 694.52 711.40 691.98 712.00 669.22 712.00 C 638.77 712.00 638.76 711.99 638.00 687.55 L 637.50 671.50 L 512.00 671.50 L 386.50 671.50 L 386.00 687.55 C 385.24 712.08 385.29 712.04 354.28 711.92 C 342.85 711.88 332.83 711.60 332.00 711.29 Z M 369.78 683.25 L 370.06 671.00 L 355.03 671.00 L 340.00 671.00 L 340.00 682.83 C 340.00 689.34 340.31 694.98 340.69 695.36 C 341.07 695.74 347.71 695.93 355.44 695.78 L 369.50 695.50 L 369.78 683.25 Z M 684.00 683.50 L 684.00 671.00 L 669.00 671.00 L 654.00 671.00 L 654.00 682.92 C 654.00 691.51 654.35 694.97 655.25 695.34 C 655.94 695.62 662.69 695.88 670.25 695.92 L 684.00 696.00 L 684.00 683.50 Z M 702.23 644.27 L 713.00 633.53 L 713.00 521.27 L 713.00 409.00 L 512.00 409.00 L 311.00 409.00 L 311.00 521.40 L 311.00 633.79 L 321.60 644.40 L 332.21 655.00 L 511.84 655.00 L 691.47 655.00 L 702.23 644.27 Z M 699.94 380.25 C 693.64 373.79 679.59 359.39 668.72 348.25 L 648.96 328.00 L 512.02 328.00 L 375.08 328.00 L 353.28 350.25 C 341.29 362.49 327.23 376.89 322.05 382.25 L 312.63 392.00 L 512.01 392.00 L 711.39 392.00 L 699.94 380.25 Z M 436.50 710.79 C 431.49 707.92 430.43 701.82 434.31 698.17 L 436.63 696.00 L 511.70 696.00 C 583.57 696.00 586.88 696.08 589.09 697.87 C 592.51 700.64 592.29 706.49 588.64 709.63 L 585.89 712.00 L 512.19 711.97 C 458.65 711.95 437.95 711.63 436.50 710.79 Z M 349.44 627.63 C 346.66 626.33 342.74 623.35 340.73 621.00 C 333.68 612.76 333.92 616.16 334.23 529.92 L 334.50 452.50 L 337.15 447.50 C 340.26 441.64 342.85 439.09 349.00 435.86 L 353.50 433.50 L 414.87 433.21 C 483.49 432.89 482.96 432.85 490.91 439.66 C 493.33 441.72 496.32 445.65 497.63 448.44 L 499.98 453.50 L 499.99 531.12 C 500.00 616.24 500.21 613.16 493.99 621.01 C 492.32 623.12 488.63 626.00 485.78 627.42 L 480.61 630.00 L 417.55 629.99 L 354.50 629.98 L 349.44 627.63 Z M 480.73 610.73 L 483.50 607.96 L 483.81 537.73 C 483.98 499.10 483.82 464.63 483.46 461.12 C 482.95 456.05 482.28 454.24 480.26 452.37 L 477.71 450.00 L 417.28 450.00 L 356.85 450.00 L 353.92 452.92 L 351.00 455.85 L 351.01 531.17 C 351.03 589.59 351.31 607.06 352.28 608.98 C 354.85 614.06 354.21 614.01 418.23 613.75 L 477.96 613.50 L 480.73 610.73 Z M 540.46 628.41 C 534.60 626.33 529.55 621.74 526.59 615.81 L 524.00 610.61 L 524.00 532.67 C 524.00 475.35 524.31 453.68 525.19 450.76 C 526.76 445.54 533.91 437.69 539.24 435.36 C 543.22 433.62 547.58 433.48 604.87 433.21 C 675.63 432.88 673.79 432.70 682.05 440.95 C 690.42 449.33 690.10 445.43 689.78 534.11 L 689.50 611.50 L 686.53 616.87 C 683.15 622.96 679.30 626.28 673.06 628.48 C 666.83 630.68 546.67 630.61 540.46 628.41 Z M 670.59 610.69 L 673.00 607.89 L 673.00 531.53 L 673.00 455.18 L 669.92 452.59 L 666.85 450.00 L 606.38 450.00 L 545.91 450.00 L 543.52 452.39 C 542.21 453.70 540.86 456.29 540.52 458.14 C 540.19 459.99 540.05 494.42 540.21 534.65 C 540.49 606.17 540.54 607.84 542.50 610.01 C 543.60 611.24 545.40 612.61 546.50 613.07 C 547.60 613.52 575.43 613.81 608.34 613.70 L 668.17 613.50 L 670.59 610.69 Z M 406.14 368.05 C 401.88 366.98 400.21 365.30 399.41 361.28 C 398.87 358.59 399.25 357.59 401.81 355.04 L 404.85 352.00 L 421.47 352.00 C 437.78 352.00 438.14 352.05 440.55 354.45 C 443.72 357.63 443.74 362.03 440.59 365.69 L 438.18 368.50 L 423.84 368.69 C 415.95 368.80 407.99 368.51 406.14 368.05 Z M 483.27 368.29 C 480.23 367.71 477.00 363.35 477.00 359.82 C 477.00 358.06 477.97 355.94 479.45 354.45 L 481.91 352.00 L 550.50 352.00 L 619.09 352.00 L 621.55 354.45 C 624.72 357.63 624.74 362.03 621.59 365.69 L 619.17 368.50 L 552.34 368.60 C 515.58 368.66 484.50 368.52 483.27 368.29 Z M 416.99 555.07 C 405.16 551.47 397.04 540.45 397.04 528.00 C 397.04 512.66 407.98 501.24 423.64 500.22 C 429.72 499.82 431.57 500.12 436.14 502.22 C 443.55 505.62 447.46 509.20 450.44 515.30 C 457.54 529.85 452.45 545.32 438.12 552.74 C 432.91 555.44 430.77 555.99 425.66 555.91 C 422.27 555.87 418.37 555.48 416.99 555.07 Z M 432.00 537.11 C 435.62 534.50 437.14 531.05 436.62 526.65 C 434.95 512.57 414.00 513.81 414.00 528.00 C 414.00 533.65 416.86 537.26 423.00 539.37 C 425.23 540.13 429.17 539.14 432.00 537.11 Z M 589.50 554.76 C 577.66 550.51 570.98 540.69 571.02 527.62 C 571.05 520.25 573.56 514.12 578.80 508.63 C 591.64 495.19 614.31 497.74 623.65 513.67 C 626.79 519.03 627.93 529.61 626.07 536.24 C 622.83 547.82 611.52 556.07 599.09 555.92 C 595.47 555.88 591.15 555.36 589.50 554.76 Z M 605.78 537.41 C 608.72 535.48 611.30 529.60 610.48 526.68 C 608.59 519.90 604.91 517.00 598.18 517.00 C 593.18 517.00 589.40 519.92 587.90 524.96 C 586.91 528.24 587.02 529.37 588.62 532.65 C 591.94 539.45 599.48 541.54 605.78 537.41 Z" stroke-linecap="round"/>
</g>
</g>
</g>

  </svg>