<svg xmlns="http://www.w3.org/2000/svg" xmlns:xlink="http://www.w3.org/1999/xlink" width="375px" height="252px" viewBox="0 0 375.1325369360793 251.62478614383144">
    <g id="89c0d20d-af4c-4a3a-b38f-14220aec9c08">
<g style="">
		<g id="89c0d20d-af4c-4a3a-b38f-14220aec9c08-child-0">
<path style="stroke: rgb(193,193,193); stroke-width: 0; stroke-dasharray: none; stroke-linecap: butt; stroke-dashoffset: 0; stroke-linejoin: miter; stroke-miterlimit: 4; fill: rgb(0,0,0); fill-rule: nonzero; opacity: 1;" transform="matrix(0.58446 0 0 0.58446 187.566229 125.812366) matrix(1 0 0 1 0 0)  translate(-512.007626, -511.762579)" d="M 220.42 724.67 C 213.67 721.45 208.50 715.95 206.02 709.33 C 204.06 704.07 204.00 701.78 204.00 625.90 L 204.00 547.87 L 201.17 545.49 C 199.61 544.18 196.82 540.27 194.96 536.80 C 192.01 531.28 191.54 529.38 191.19 521.48 C 190.90 515.03 191.20 511.47 192.25 508.98 C 193.05 507.07 200.74 497.70 209.33 488.17 L 224.95 470.83 L 225.23 395.17 L 225.50 319.50 L 227.85 315.00 C 231.06 308.87 237.48 302.38 243.50 299.17 L 248.50 296.50 L 512.00 296.50 L 775.50 296.50 L 780.31 298.89 C 786.45 301.94 793.15 308.64 796.15 314.73 L 798.50 319.50 L 799.00 395.11 L 799.50 470.72 L 806.50 478.51 C 823.33 497.24 830.03 505.16 831.57 508.14 C 832.87 510.65 833.13 513.35 832.80 520.91 C 832.33 531.63 829.97 537.71 823.49 544.87 L 820.06 548.68 L 819.78 627.59 C 819.47 715.59 819.96 709.60 812.35 718.05 C 801.97 729.56 784.94 730.06 773.67 719.20 C 766.51 712.30 766.55 712.49 766.00 682.28 C 765.55 657.89 765.31 654.88 763.71 653.28 C 762.01 651.58 750.48 651.50 512.00 651.50 C 284.55 651.50 261.93 651.64 260.48 653.10 C 259.13 654.44 258.77 658.95 258.16 681.60 C 257.37 711.41 257.13 712.53 250.33 719.33 C 245.26 724.41 240.55 726.37 232.50 726.75 C 226.71 727.03 224.62 726.67 220.42 724.67 Z M 236.00 705.00 C 237.89 703.11 238.00 701.67 238.00 678.68 C 238.00 649.89 238.51 647.51 246.41 639.41 C 255.42 630.17 229.06 631.00 512.00 631.00 C 788.44 631.00 767.53 630.48 775.83 637.59 C 778.17 639.59 781.29 643.54 782.78 646.36 C 785.46 651.48 785.48 651.62 785.99 677.83 C 786.47 702.42 786.63 704.26 788.44 705.58 C 791.11 707.53 794.64 707.36 796.83 705.17 C 798.54 703.46 798.71 700.02 799.33 654.42 C 800.43 573.78 800.26 552.31 798.52 551.65 C 796.45 550.85 245.67 550.82 233.92 551.62 L 224.35 552.26 L 224.75 627.88 C 225.14 702.46 225.18 703.52 227.19 705.25 C 229.88 707.57 233.53 707.47 236.00 705.00 Z M 810.43 528.08 C 811.39 527.02 812.42 524.32 812.72 522.08 L 813.26 518.00 L 512.00 518.00 L 210.74 518.00 L 211.32 521.61 C 211.65 523.59 212.61 526.29 213.48 527.61 L 215.05 530.00 L 511.87 530.00 C 803.43 530.00 808.72 529.97 810.43 528.08 Z M 788.50 491.00 L 782.56 485.00 L 512.00 485.00 L 241.44 485.00 L 235.50 491.00 L 229.56 497.00 L 512.00 497.00 L 794.44 497.00 L 788.50 491.00 Z M 779.00 394.25 C 778.99 326.88 778.93 324.39 777.04 321.30 C 775.75 319.18 773.82 317.74 771.30 317.01 C 768.57 316.22 694.81 316.00 509.77 316.21 L 252.04 316.50 L 248.77 319.77 L 245.50 323.04 L 245.23 393.52 L 244.96 464.00 L 511.98 464.00 L 779.00 464.00 L 779.00 394.25 Z M 267.00 617.97 C 254.76 617.35 250.33 615.54 244.58 608.83 C 238.38 601.57 236.53 591.66 239.68 582.44 C 241.85 576.05 249.87 567.91 255.69 566.19 C 258.98 565.22 314.56 564.95 512.46 564.94 L 765.04 564.92 L 769.77 567.01 C 782.51 572.64 788.55 585.70 784.64 599.16 C 782.58 606.26 776.70 613.02 770.13 615.85 L 765.19 617.97 L 521.35 618.24 C 387.23 618.38 272.77 618.26 267.00 617.97 Z M 763.55 595.55 C 764.90 594.20 766.00 592.38 766.00 591.50 C 766.00 590.62 764.90 588.80 763.55 587.45 L 761.09 585.00 L 511.55 585.00 C 263.33 585.00 261.99 585.01 260.00 587.00 C 257.32 589.68 257.48 592.57 260.45 595.55 L 262.91 598.00 L 512.00 598.00 L 761.09 598.00 L 763.55 595.55 Z M 277.70 449.56 C 271.90 447.49 266.30 443.40 262.98 438.82 C 257.34 431.03 257.00 428.18 257.00 389.00 C 257.00 347.09 257.05 346.81 265.94 337.91 C 275.80 328.03 249.61 328.95 514.03 329.24 L 746.50 329.50 L 750.62 331.70 C 756.94 335.09 760.32 338.34 763.55 344.17 L 766.50 349.50 L 766.79 387.86 C 767.14 433.05 767.15 433.02 758.09 442.06 C 748.20 451.95 774.23 451.01 512.07 450.96 C 320.74 450.92 280.85 450.68 277.70 449.56 Z M 744.59 427.69 L 747.00 424.89 L 747.00 390.03 C 747.00 370.85 746.72 354.44 746.38 353.54 C 744.55 348.78 755.78 349.00 511.47 349.00 L 282.85 349.00 L 279.92 351.92 L 277.00 354.85 L 277.00 388.88 C 277.00 411.04 277.38 423.73 278.08 425.27 C 278.67 426.57 280.36 428.38 281.83 429.29 C 284.30 430.83 301.48 430.94 513.34 430.73 L 742.17 430.50 L 744.59 427.69 Z M 309.36 415.91 C 302.72 413.99 296.71 408.82 293.17 402.00 C 290.11 396.11 289.84 394.89 290.25 389.00 C 291.00 378.13 296.62 369.95 306.48 365.36 L 311.50 363.02 L 511.57 363.01 C 733.32 363.00 716.53 362.48 724.80 369.56 C 737.09 380.08 737.16 399.86 724.93 410.33 C 716.56 417.50 732.32 417.01 511.57 416.91 C 395.46 416.86 311.19 416.44 309.36 415.91 Z M 711.37 394.93 C 713.28 393.42 714.00 391.93 714.00 389.48 C 714.00 382.45 731.17 383.00 512.23 383.00 L 314.91 383.00 L 312.45 385.45 C 308.80 389.11 309.69 394.13 314.32 395.99 C 315.55 396.49 402.16 396.90 512.62 396.94 L 708.73 397.00 L 711.37 394.93 Z" stroke-linecap="round"/>
</g>
</g>
</g>

  </svg>