<svg xmlns="http://www.w3.org/2000/svg" xmlns:xlink="http://www.w3.org/1999/xlink" width="500px" height="491px" viewBox="0 0 500 491.3390726398343">
    <g id="e180c0b1-b4f8-4119-ae3d-eda135da633f">
<g style="">
		<g id="e180c0b1-b4f8-4119-ae3d-eda135da633f-child-0">
<path style="stroke: rgb(193,193,193); stroke-width: 0; stroke-dasharray: none; stroke-linecap: butt; stroke-dashoffset: 0; stroke-linejoin: miter; stroke-miterlimit: 4; fill: rgb(0,0,0); fill-rule: nonzero; opacity: 1;" transform="matrix(0.966372 0 0 0.966372 250.000056 245.669591) matrix(1 0 0 1 0 0)  translate(-511.800394, -511.414429)" d="M 500.00 765.07 C 490.52 764.24 491.99 764.81 448.50 745.02 C 416.86 730.62 322.17 687.88 307.05 681.18 C 295.62 676.10 290.86 672.19 287.86 665.42 C 285.93 661.04 285.73 659.10 282.48 613.00 C 281.61 600.62 280.26 581.95 279.48 571.50 C 278.70 561.05 276.68 533.60 274.99 510.50 C 273.30 487.40 271.73 467.96 271.51 467.30 C 271.28 466.63 269.16 465.12 266.80 463.93 C 261.19 461.12 258.29 458.40 255.65 453.50 C 253.59 449.66 253.49 448.12 253.20 414.65 C 252.94 384.74 253.13 379.12 254.51 374.96 C 257.12 367.12 261.83 363.35 278.13 356.12 C 286.03 352.60 329.85 332.85 375.50 312.22 C 500.57 255.70 493.09 258.92 501.85 257.79 C 506.06 257.25 513.62 257.04 518.66 257.32 C 529.15 257.90 526.63 256.92 581.50 281.79 C 599.65 290.02 632.72 304.96 655.00 315.00 C 742.59 354.46 761.52 363.16 763.33 364.80 C 764.36 365.73 766.40 368.52 767.85 371.00 L 770.50 375.50 L 770.50 412.50 C 770.50 448.74 770.45 449.58 768.29 453.62 C 765.70 458.48 762.00 461.80 756.34 464.35 L 752.24 466.19 L 751.56 476.35 C 751.19 481.93 749.12 509.90 746.97 538.50 C 744.81 567.10 741.92 605.80 740.53 624.50 C 739.14 643.20 737.50 660.39 736.89 662.71 C 735.27 668.77 729.84 674.55 722.13 678.43 C 716.51 681.25 648.52 712.04 600.50 733.51 C 592.80 736.95 575.96 744.58 563.08 750.47 C 550.20 756.35 537.37 762.06 534.58 763.16 C 528.74 765.47 513.84 766.29 500.00 765.07 Z M 496.00 625.94 C 496.00 524.35 495.92 519.94 494.22 521.19 C 493.24 521.91 487.05 526.59 480.47 531.59 C 473.88 536.58 467.38 541.29 466.00 542.04 C 464.40 542.92 460.09 543.42 454.00 543.44 L 444.50 543.47 L 431.00 537.35 C 409.04 527.41 349.15 500.54 326.17 490.32 C 314.44 485.10 304.65 481.02 304.42 481.25 C 304.19 481.48 306.70 519.35 310.00 565.40 C 313.30 611.45 316.00 649.57 316.00 650.12 C 316.00 651.30 320.77 653.54 384.50 682.22 C 411.45 694.35 447.23 710.48 464.00 718.07 C 480.77 725.66 494.84 731.90 495.25 731.94 C 495.66 731.97 496.00 684.27 496.00 625.94 Z M 618.44 691.88 C 667.42 669.82 707.57 651.71 707.66 651.63 C 707.85 651.47 708.81 638.37 714.50 558.00 C 716.98 523.08 719.28 491.46 719.63 487.75 C 719.98 484.04 719.86 481.00 719.38 481.00 C 718.34 481.00 662.55 505.93 614.50 527.86 L 580.50 543.38 L 570.41 543.43 C 558.79 543.48 559.75 543.94 540.44 529.35 C 534.36 524.76 529.07 521.00 528.69 521.00 C 528.31 521.00 528.00 568.47 528.00 626.50 C 528.00 684.53 528.31 732.00 528.69 732.00 C 529.07 732.00 569.46 713.95 618.44 691.88 Z M 468.26 501.92 C 476.64 495.83 483.60 490.54 483.72 490.17 C 483.84 489.80 478.44 487.07 471.72 484.11 C 465.00 481.14 443.75 471.62 424.50 462.94 C 385.55 445.40 294.86 404.77 288.25 401.91 L 284.00 400.07 L 284.00 418.82 L 284.00 437.56 L 298.75 444.15 C 306.86 447.77 341.40 463.23 375.50 478.50 C 447.33 510.67 452.41 512.94 452.76 512.97 C 452.90 512.99 459.87 508.02 468.26 501.92 Z M 585.08 507.41 C 591.91 504.33 629.22 487.64 668.00 470.32 C 706.78 453.00 738.85 438.49 739.27 438.09 C 739.70 437.69 739.92 428.96 739.77 418.71 L 739.50 400.06 L 727.00 405.61 C 705.30 415.25 568.10 476.89 554.25 483.21 C 546.96 486.54 541.00 489.57 541.00 489.94 C 541.00 490.68 541.43 491.00 559.50 504.21 C 566.10 509.03 571.76 512.98 572.08 512.99 C 572.40 513.00 578.25 510.48 585.08 507.41 Z M 535.00 458.30 C 551.81 450.90 626.20 417.50 635.25 413.29 C 639.51 411.31 643.00 409.41 643.00 409.07 C 643.00 408.73 629.39 402.30 612.75 394.77 C 596.11 387.24 569.45 375.11 553.50 367.80 L 524.50 354.51 L 512.00 354.55 L 499.50 354.59 L 450.50 376.88 C 423.55 389.14 396.89 401.22 391.25 403.73 C 385.61 406.24 381.00 408.61 381.00 409.01 C 381.00 409.41 392.81 415.04 407.25 421.52 C 472.21 450.69 499.80 462.85 502.06 463.32 C 503.40 463.60 508.77 463.73 514.00 463.60 C 523.00 463.38 524.11 463.10 535.00 458.30 Z M 394.21 368.89 C 476.80 331.68 491.27 325.28 495.50 324.12 C 501.21 322.54 524.68 322.69 530.09 324.35 C 532.52 325.09 547.33 331.44 563.00 338.47 C 650.27 377.61 679.68 390.75 681.24 391.31 C 682.30 391.69 689.12 389.18 698.74 384.86 C 707.41 380.98 714.88 377.57 715.34 377.28 C 716.22 376.75 699.64 368.92 657.50 349.97 C 627.40 336.43 564.36 307.96 539.50 296.67 L 521.50 288.50 L 511.50 288.55 L 501.50 288.59 L 474.00 301.19 C 458.88 308.12 429.40 321.52 408.50 330.97 C 321.62 370.23 308.12 376.45 308.61 376.96 C 309.23 377.60 341.19 391.85 342.21 391.94 C 342.60 391.97 366.00 381.60 394.21 368.89 Z" stroke-linecap="round"/>
</g>
</g>
</g>

  </svg>