<svg xmlns="http://www.w3.org/2000/svg" xmlns:xlink="http://www.w3.org/1999/xlink" width="500px" height="486px" viewBox="0 0 500 485.5104245801838">
    <g id="3bfa46b3-95a7-4de3-ae9b-2a14725d4eba">
<g style="">
		<g id="3bfa46b3-95a7-4de3-ae9b-2a14725d4eba-child-0">
<path style="stroke: rgb(193,193,193); stroke-width: 0; stroke-dasharray: none; stroke-linecap: butt; stroke-dashoffset: 0; stroke-linejoin: miter; stroke-miterlimit: 4; fill: rgb(0,0,0); fill-rule: nonzero; opacity: 1;" transform="matrix(0.958307 0 0 0.958307 250.000075 242.755285) matrix(1 0 0 1 0 0)  translate(-512.003502, -512.335127)" d="M 322.24 764.90 C 303.42 761.73 282.55 749.29 270.00 733.74 C 264.18 726.54 256.00 710.44 253.36 701.00 C 251.64 694.87 251.52 686.07 251.24 547.00 C 250.97 414.65 251.10 398.68 252.55 391.52 C 258.43 362.33 278.07 338.48 305.13 327.68 C 319.37 321.99 320.68 321.87 373.16 321.29 L 421.83 320.75 L 422.18 305.12 C 422.51 290.44 422.70 289.16 425.31 283.81 C 430.85 272.46 439.97 264.67 452.12 260.88 C 457.75 259.13 462.07 259.00 512.84 259.02 L 567.50 259.04 L 574.22 261.41 C 586.66 265.80 595.88 274.77 600.24 286.73 C 601.93 291.33 602.44 295.51 602.79 307.36 L 603.22 322.22 L 644.36 321.51 C 688.51 320.75 700.57 321.39 712.84 325.17 C 742.56 334.34 765.27 359.66 771.46 390.50 C 772.89 397.67 773.03 414.04 772.78 547.50 L 772.50 696.50 L 769.13 706.24 C 759.57 733.83 738.10 754.46 709.82 763.22 L 702.50 765.49 L 515.00 765.64 C 410.20 765.72 325.18 765.39 322.24 764.90 Z M 345.00 730.21 C 345.00 709.50 330.39 686.71 310.97 677.14 C 302.72 673.07 291.82 670.05 285.25 670.02 L 282.00 670.00 L 282.00 677.84 C 282.00 687.08 284.79 698.95 288.70 706.32 C 292.78 714.04 305.11 725.84 313.25 729.82 C 321.16 733.69 330.01 735.81 338.75 735.92 L 345.00 736.00 L 345.00 730.21 Z M 698.90 734.46 C 724.21 728.50 742.00 705.76 742.00 679.37 L 742.00 669.84 L 735.25 670.52 C 720.46 672.01 707.74 678.37 697.00 689.65 C 686.29 700.90 679.00 718.29 679.00 732.59 L 679.00 736.00 L 685.75 735.99 C 689.46 735.98 695.38 735.29 698.90 734.46 Z M 647.39 733.42 C 647.73 732.55 648.00 729.88 648.00 727.48 C 648.00 712.40 656.95 689.73 668.72 675.03 C 685.56 653.97 708.11 642.23 737.00 639.45 L 742.50 638.92 L 742.24 542.96 L 741.98 447.00 L 736.24 446.98 C 728.48 446.95 714.81 443.81 705.43 439.90 C 682.20 430.23 662.59 409.62 653.43 385.23 C 650.26 376.80 648.78 369.98 647.47 357.75 L 646.86 352.00 L 512.01 352.00 L 377.16 352.00 L 376.51 358.75 C 374.95 375.17 368.85 392.85 360.29 405.76 C 345.14 428.62 317.58 444.84 290.75 446.69 L 282.00 447.30 L 282.00 543.07 L 282.00 638.84 L 288.75 639.44 C 330.26 643.16 364.35 672.01 373.55 711.22 C 374.88 716.87 376.23 724.54 376.56 728.25 L 377.16 735.00 L 511.97 735.00 C 633.98 735.00 646.84 734.85 647.39 733.42 Z M 294.50 415.51 C 312.98 412.21 329.72 399.66 337.85 383.00 C 342.12 374.22 344.42 366.35 345.36 357.25 L 345.91 352.00 L 337.66 352.00 C 306.14 352.00 282.08 376.75 282.01 409.25 C 282.00 418.25 281.23 417.87 294.50 415.51 Z M 742.00 408.21 C 742.00 392.33 737.56 381.01 726.80 369.49 C 715.95 357.87 702.43 352.05 686.25 352.01 L 679.00 352.00 L 679.00 356.45 C 679.00 363.71 680.93 370.94 685.45 380.58 C 694.23 399.30 712.37 413.02 732.04 415.83 C 742.98 417.39 742.00 418.15 742.00 408.21 Z M 571.79 311.22 C 572.02 302.87 571.72 300.15 570.17 296.65 C 566.66 288.72 568.20 288.91 510.46 289.22 L 459.85 289.50 L 456.42 293.24 L 453.00 296.97 L 453.00 308.92 L 453.00 320.87 L 455.75 321.29 C 457.26 321.52 483.92 321.66 515.00 321.60 L 571.50 321.50 L 571.79 311.22 Z" stroke-linecap="round"/>
</g>
</g>
</g>

  </svg>