<svg xmlns="http://www.w3.org/2000/svg" xmlns:xlink="http://www.w3.org/1999/xlink" width="419px" height="346px" viewBox="0 0 419.4657845382967 346.759002591265">
    <g id="8bdbc401-0315-4be1-8903-28f103d6afc1">
<g style="">
		<g id="8bdbc401-0315-4be1-8903-28f103d6afc1-child-0">
<path style="stroke: rgb(193,193,193); stroke-width: 0; stroke-dasharray: none; stroke-linecap: butt; stroke-dashoffset: 0; stroke-linejoin: miter; stroke-miterlimit: 4; fill: rgb(0,0,0); fill-rule: nonzero; opacity: 1;" transform="matrix(0.728414 0 0 0.728414 209.732751 173.379384) matrix(1 0 0 1 0 0)  translate(-512.000054, -512.013136)" d="M 315.50 748.13 C 311.52 745.66 308.37 742.14 307.07 738.68 C 306.33 736.74 306.00 688.58 306.00 582.07 L 306.00 428.27 L 301.36 427.64 C 298.81 427.29 282.72 427.00 265.61 427.00 C 236.18 426.99 234.32 426.88 231.19 424.98 C 225.04 421.23 224.04 417.08 224.07 395.50 C 224.08 382.47 224.50 375.35 225.39 372.85 C 226.11 370.85 232.95 359.42 240.60 347.46 C 248.24 335.50 261.26 315.14 269.51 302.21 C 277.77 289.28 285.79 277.75 287.34 276.60 L 290.15 274.50 L 511.18 274.24 L 732.20 273.99 L 735.87 276.05 C 740.05 278.39 738.96 276.86 758.57 308.00 C 766.71 320.92 778.76 339.83 785.35 350.00 C 791.94 360.17 797.91 370.08 798.62 372.00 C 799.51 374.41 799.92 381.60 799.93 395.00 C 799.96 417.55 799.12 420.90 792.37 425.10 L 788.50 427.50 L 755.00 427.61 C 736.58 427.67 720.94 427.79 720.25 427.86 C 719.26 427.97 719.00 459.29 718.99 580.75 C 718.99 682.74 718.65 734.74 717.96 737.22 C 716.63 741.99 712.49 746.90 708.33 748.64 C 703.85 750.51 682.10 750.50 677.72 748.62 C 673.83 746.96 669.51 742.52 668.06 738.68 C 667.36 736.83 667.00 718.93 667.00 686.43 L 667.00 637.00 L 657.82 637.00 C 646.29 637.00 641.19 634.88 637.49 628.57 L 635.00 624.32 L 635.00 564.66 L 635.00 505.00 L 512.00 505.00 L 389.00 505.00 L 389.00 564.66 L 389.00 624.32 L 386.51 628.57 C 382.81 634.88 377.71 637.00 366.18 637.00 L 357.00 637.00 L 357.00 687.11 C 357.00 737.16 357.00 737.23 354.76 741.21 C 353.51 743.44 350.71 746.26 348.42 747.60 C 344.67 749.80 343.24 750.00 331.41 750.00 C 320.56 749.99 318.02 749.70 315.50 748.13 Z M 339.00 579.50 L 339.00 428.00 L 332.00 428.00 L 325.00 428.00 L 325.00 579.50 L 325.00 731.00 L 332.00 731.00 L 339.00 731.00 L 339.00 579.50 Z M 699.00 579.62 L 699.00 428.23 L 693.52 427.55 C 690.50 427.17 687.58 427.14 687.02 427.49 C 686.33 427.91 686.00 477.95 686.00 579.56 L 686.00 731.00 L 692.50 731.00 L 699.00 731.00 L 699.00 579.62 Z M 371.00 523.10 L 371.00 428.20 L 365.05 427.51 C 361.78 427.13 358.63 427.11 358.05 427.47 C 357.33 427.92 357.00 457.64 357.00 523.06 L 357.00 618.00 L 364.00 618.00 L 371.00 618.00 L 371.00 523.10 Z M 667.00 523.00 L 667.00 428.00 L 660.50 428.00 L 654.00 428.00 L 654.00 523.00 L 654.00 618.00 L 660.50 618.00 L 667.00 618.00 L 667.00 523.00 Z M 634.79 479.35 L 635.09 473.21 L 621.79 472.62 C 614.48 472.29 559.22 472.13 499.00 472.26 L 389.50 472.50 L 389.19 477.88 C 389.02 480.84 389.12 483.88 389.41 484.63 C 389.86 485.79 409.30 485.97 512.22 485.75 L 634.50 485.50 L 634.79 479.35 Z M 606.34 453.34 L 635.00 452.68 L 635.00 440.45 L 635.00 428.23 L 629.75 427.73 C 626.86 427.46 571.62 427.30 507.00 427.37 L 389.50 427.50 L 389.22 440.22 L 388.94 452.94 L 401.72 453.25 C 428.47 453.91 578.95 453.97 606.34 453.34 Z M 776.25 408.02 L 780.00 408.00 L 780.00 401.50 L 780.00 395.00 L 512.00 395.00 L 244.00 395.00 L 244.00 401.49 L 244.00 407.99 L 313.25 408.24 C 363.33 408.43 733.40 408.25 776.25 408.02 Z M 778.00 375.31 C 778.00 374.93 775.69 371.10 772.87 366.81 L 767.75 359.00 L 511.97 359.00 L 256.20 359.00 L 251.10 367.03 C 248.30 371.45 246.00 375.28 246.00 375.53 C 246.00 375.79 365.70 376.00 512.00 376.00 C 658.30 376.00 778.00 375.69 778.00 375.31 Z M 755.00 339.32 C 755.00 338.95 753.15 335.80 750.88 332.32 L 746.77 326.00 L 511.63 326.03 L 276.50 326.06 L 272.27 333.03 L 268.03 340.00 L 511.52 340.00 C 645.43 340.00 755.00 339.69 755.00 339.32 Z M 732.35 302.75 C 730.88 300.41 728.76 297.26 727.65 295.75 L 725.62 293.00 L 511.96 293.00 L 298.29 293.00 L 293.64 300.00 L 288.98 307.00 L 512.00 307.00 L 735.03 307.00 L 732.35 302.75 Z" stroke-linecap="round"/>
</g>
</g>
</g>

  </svg>