<svg xmlns="http://www.w3.org/2000/svg" xmlns:xlink="http://www.w3.org/1999/xlink" width="499px" height="500px" viewBox="0 0 498.67641205416885 499.9999999999998">
    <g id="96de3809-d16b-4b8f-8419-d1692a6dc0af">
<g style="">
		<g id="96de3809-d16b-4b8f-8419-d1692a6dc0af-child-0">
<path style="stroke: rgb(193,193,193); stroke-width: 0; stroke-dasharray: none; stroke-linecap: butt; stroke-dashoffset: 0; stroke-linejoin: miter; stroke-miterlimit: 4; fill: rgb(0,0,0); fill-rule: nonzero; opacity: 1;" transform="matrix(1.297915 0 0 1.297915 249.338171 249.999965) matrix(1 0 0 1 0 0)  translate(-511.943298, -512.116592)" d="M 343.32 703.57 C 331.25 699.77 321.68 688.70 320.17 676.79 C 319.80 673.88 319.73 597.70 320.00 507.50 L 320.50 343.50 L 322.84 338.75 C 326.11 332.12 333.03 325.34 339.78 322.18 L 345.50 319.50 L 512.00 319.50 L 678.50 319.50 L 684.50 322.31 C 692.14 325.88 699.22 333.30 701.95 340.60 C 703.95 345.93 704.00 347.96 704.00 416.79 C 703.99 485.04 703.92 487.61 702.05 490.69 C 700.98 492.44 699.07 494.46 697.80 495.19 C 695.93 496.25 662.14 496.59 518.50 497.00 L 341.50 497.50 L 341.22 512.25 L 340.95 527.00 L 392.22 527.00 C 449.91 527.00 448.72 526.86 452.33 534.24 C 454.72 539.14 453.25 544.27 448.65 547.07 C 445.65 548.90 443.00 548.99 393.25 549.00 L 341.00 549.00 L 341.00 581.50 C 341.00 599.38 341.27 614.00 341.61 614.00 C 341.95 614.00 345.21 611.85 348.86 609.22 C 368.93 594.77 387.65 586.15 407.92 582.02 C 417.11 580.14 421.61 580.00 471.39 580.00 L 524.97 580.00 L 528.23 582.92 C 531.04 585.42 531.50 586.50 531.50 590.50 C 531.50 594.50 531.04 595.58 528.23 598.08 L 524.97 601.00 L 475.06 601.00 C 444.71 601.00 422.09 601.42 417.36 602.08 C 396.70 604.96 380.29 613.02 349.28 635.53 L 341.05 641.50 L 341.03 658.40 L 341.00 675.29 L 350.25 666.40 C 355.34 661.50 362.99 655.11 367.26 652.19 C 377.02 645.50 393.09 637.82 403.50 634.86 L 411.50 632.59 L 507.39 632.26 C 613.03 631.90 610.61 631.78 628.77 638.11 C 645.80 644.05 664.20 656.03 676.81 669.38 C 679.73 672.47 682.33 675.00 682.61 675.00 C 683.13 675.00 682.34 640.95 681.81 640.55 C 662.05 625.71 645.87 615.66 632.63 610.01 C 617.69 603.62 609.15 601.95 588.00 601.29 L 569.50 600.70 L 566.25 597.45 C 561.68 592.88 561.73 588.07 566.40 583.40 L 569.80 580.00 L 586.77 580.00 C 606.40 580.00 616.71 581.49 631.64 586.48 C 644.89 590.91 657.39 597.26 671.08 606.51 C 677.17 610.63 682.35 614.00 682.58 614.00 C 682.81 614.00 683.00 599.38 683.00 581.50 L 683.00 549.00 L 588.02 549.00 L 493.03 549.00 L 489.98 546.25 C 483.83 540.71 486.01 531.07 494.03 528.31 C 496.62 527.42 522.14 527.10 594.78 527.06 C 701.28 526.99 696.05 526.70 701.32 532.97 L 704.05 536.21 L 703.78 608.86 L 703.50 681.50 L 701.26 686.04 C 698.21 692.23 691.80 698.46 685.09 701.76 L 679.50 704.50 L 513.50 704.69 C 378.91 704.84 346.71 704.63 343.32 703.57 Z M 655.07 678.56 C 644.76 669.41 632.41 662.25 618.29 657.26 L 610.50 654.50 L 514.28 654.22 C 408.27 653.91 412.83 653.68 397.23 660.18 C 388.27 663.90 374.15 673.13 368.55 678.92 L 364.59 683.00 L 512.33 683.00 L 660.07 683.00 L 655.07 678.56 Z M 682.76 442.25 C 682.91 423.96 682.82 409.00 682.58 409.00 C 682.33 409.00 678.39 411.68 673.81 414.96 C 650.86 431.40 629.20 440.74 606.50 443.97 C 602.60 444.52 576.57 444.97 547.65 444.98 C 501.71 445.00 495.41 444.81 492.36 443.37 C 486.56 440.61 484.49 434.37 487.62 429.07 C 491.01 423.32 488.70 423.54 551.50 422.96 C 607.97 422.43 609.71 422.35 617.50 420.14 C 633.20 415.68 651.58 405.44 673.75 388.80 L 683.00 381.86 L 683.00 365.93 C 683.00 357.17 682.72 350.00 682.38 350.00 C 682.04 350.00 677.79 353.78 672.93 358.40 C 657.46 373.12 637.82 384.41 618.28 389.80 L 608.50 392.49 L 512.00 392.50 L 415.50 392.50 L 405.72 389.80 C 386.66 384.54 368.68 374.30 350.70 358.49 L 341.00 349.97 L 341.03 365.73 L 341.07 381.50 L 348.24 387.00 C 372.81 405.85 389.34 415.06 407.52 420.04 C 413.33 421.63 419.76 422.40 431.18 422.86 C 444.96 423.42 447.19 423.75 449.67 425.60 C 455.49 429.95 455.14 438.61 448.97 442.84 C 445.59 445.16 445.10 445.21 430.50 444.68 C 418.38 444.24 413.29 443.56 404.00 441.18 C 385.45 436.41 367.00 427.38 348.50 414.02 L 341.50 408.96 L 341.24 441.22 C 341.09 458.97 341.19 474.05 341.46 474.74 C 341.84 475.75 375.94 475.96 512.22 475.75 L 682.50 475.50 L 682.76 442.25 Z M 615.81 368.21 C 629.68 363.94 643.59 355.86 656.50 344.57 L 660.50 341.08 L 512.00 341.08 L 363.50 341.08 L 367.50 344.57 C 383.05 358.18 397.11 365.64 414.50 369.53 C 419.32 370.61 438.95 370.83 514.50 370.67 L 608.50 370.46 L 615.81 368.21 Z" stroke-linecap="round"/>
</g>
</g>
</g>

  </svg>