<svg xmlns="http://www.w3.org/2000/svg" xmlns:xlink="http://www.w3.org/1999/xlink" width="500px" height="377px" viewBox="0 0 500 376.5522472507946">
    <g id="1b7d470e-a903-47e1-8964-88c1e26947f3">
<g style="">
		<g id="1b7d470e-a903-47e1-8964-88c1e26947f3-child-0">
<path style="stroke: rgb(193,193,193); stroke-width: 0; stroke-dasharray: none; stroke-linecap: butt; stroke-dashoffset: 0; stroke-linejoin: miter; stroke-miterlimit: 4; fill: rgb(0,0,0); fill-rule: nonzero; opacity: 1;" transform="matrix(0.852912 0 0 0.852912 249.999919 188.276062) matrix(1 0 0 1 0 0)  translate(-512.152565, -511.917576)" d="M 312.34 731.96 C 306.02 730.70 300.67 727.56 296.20 722.49 C 291.34 716.97 289.00 710.63 289.00 703.00 C 289.00 694.92 291.44 688.77 297.12 682.56 L 302.03 677.19 L 301.37 668.69 L 300.72 660.18 L 282.11 659.80 C 261.01 659.37 259.08 658.87 251.41 651.83 C 244.35 645.34 242.02 639.54 242.01 628.38 L 242.00 619.25 L 239.25 618.69 C 235.04 617.83 227.57 612.43 224.53 608.04 C 220.66 602.46 219.09 597.43 219.04 590.43 C 218.99 582.42 221.24 576.14 226.20 570.51 C 232.14 563.76 238.68 560.76 248.63 560.21 L 256.76 559.76 L 257.43 552.06 C 258.62 538.48 265.76 528.11 276.74 524.00 C 281.69 522.14 284.54 522.00 316.65 522.00 L 351.22 522.00 L 350.68 518.25 C 346.55 489.77 346.25 475.35 349.40 455.92 C 352.32 437.90 360.05 415.25 367.58 402.59 L 371.10 396.68 L 356.18 381.59 C 342.42 367.67 341.16 366.10 340.05 361.31 C 338.65 355.37 339.85 347.31 342.77 342.85 C 345.93 338.05 390.31 295.88 394.41 293.79 C 400.14 290.87 409.41 290.32 416.11 292.51 C 420.74 294.02 423.49 296.20 435.50 307.89 C 443.20 315.38 451.16 323.03 453.18 324.89 L 456.86 328.26 L 466.18 325.65 C 482.67 321.02 493.08 319.66 511.50 319.71 C 546.69 319.82 575.02 328.46 604.60 348.11 C 617.92 356.96 639.41 378.03 648.86 391.50 L 655.17 400.50 L 677.83 401.00 C 699.03 401.47 700.78 401.65 704.80 403.79 C 711.41 407.33 716.67 412.62 719.72 418.84 C 722.10 423.68 722.50 425.73 722.50 433.00 C 722.50 440.08 722.06 442.43 719.88 447.09 C 716.54 454.21 711.16 459.57 704.09 462.83 C 699.38 465.00 696.85 465.44 688.00 465.65 C 682.22 465.78 677.24 465.91 676.91 465.94 C 676.59 465.97 676.54 470.69 676.79 476.43 C 677.28 487.31 675.84 504.84 673.58 515.61 L 672.26 521.91 L 708.88 522.20 C 744.69 522.49 745.59 522.55 749.72 524.76 C 760.76 530.65 765.96 538.82 766.75 551.48 L 767.27 559.76 L 775.42 560.19 C 788.66 560.89 797.69 566.72 802.79 577.84 C 807.37 587.86 805.44 601.46 798.29 609.58 C 795.26 613.02 788.08 617.82 784.94 618.51 L 782.00 619.16 L 782.00 627.40 C 782.00 632.32 781.36 637.53 780.41 640.32 C 778.23 646.71 771.27 654.18 764.78 657.11 C 759.94 659.28 757.94 659.51 740.75 659.82 L 722.00 660.16 L 722.00 669.08 L 722.00 678.01 L 726.16 681.75 C 732.27 687.26 734.98 693.79 734.98 703.00 C 734.98 708.80 734.44 711.66 732.60 715.60 C 729.65 721.94 724.10 727.60 718.09 730.38 L 713.50 732.50 L 515.00 732.65 C 405.83 732.73 314.63 732.42 312.34 731.96 Z M 712.70 709.75 C 716.80 705.66 716.59 699.81 712.21 695.90 L 708.97 693.00 L 511.89 693.00 L 314.80 693.00 L 311.90 696.11 C 308.79 699.43 308.05 704.35 310.08 708.15 C 312.76 713.15 303.49 712.95 513.73 712.71 L 709.95 712.50 L 712.70 709.75 Z M 702.00 666.50 L 702.00 660.00 L 512.00 660.00 L 322.00 660.00 L 322.00 666.50 L 322.00 673.00 L 512.00 673.00 L 702.00 673.00 L 702.00 666.50 Z M 757.02 638.49 C 761.06 636.40 762.00 634.16 762.00 626.57 L 762.00 620.00 L 512.00 620.00 L 262.00 620.00 L 262.00 626.57 C 262.00 630.18 262.46 633.99 263.03 635.05 C 265.79 640.22 250.67 639.92 511.80 639.96 C 726.01 640.00 754.44 639.82 757.02 638.49 Z M 471.00 597.10 C 462.03 593.76 452.75 589.13 444.41 583.87 L 438.28 580.00 L 341.72 580.00 L 245.15 580.00 L 242.20 582.49 C 238.66 585.46 237.71 589.37 239.49 593.62 C 242.36 600.49 232.94 600.01 361.97 599.95 L 478.50 599.90 L 471.00 597.10 Z M 781.48 598.42 C 784.39 596.52 786.34 591.18 785.44 587.60 C 785.08 586.17 783.45 583.87 781.81 582.50 L 778.85 580.00 L 681.77 580.00 L 584.70 580.00 L 576.75 585.10 C 567.77 590.86 560.67 594.24 550.50 597.60 L 543.50 599.91 L 661.29 599.96 C 767.06 600.00 779.32 599.84 781.48 598.42 Z M 536.67 580.49 C 572.59 571.39 600.90 543.77 610.76 508.19 C 613.17 499.51 613.45 496.79 613.48 482.00 C 613.50 467.80 613.18 464.32 611.18 457.00 C 601.27 420.70 573.57 393.55 536.52 383.82 C 524.01 380.54 503.43 380.17 490.50 383.00 C 475.43 386.29 475.19 386.32 472.12 385.05 C 468.80 383.68 467.00 380.32 467.00 375.53 C 467.00 370.41 471.16 366.85 479.59 364.74 C 492.97 361.40 499.98 360.74 516.39 361.26 C 537.07 361.92 547.21 364.44 565.50 373.47 C 580.94 381.10 588.40 386.57 600.52 399.14 C 623.00 422.47 633.98 449.85 634.00 482.62 C 634.01 507.79 625.34 534.55 611.09 553.38 L 606.08 560.00 L 620.96 560.00 L 635.85 560.00 L 640.83 549.75 C 655.66 519.26 660.17 486.89 654.03 454.96 C 645.96 413.02 617.29 375.68 577.78 355.62 C 542.50 337.72 502.17 334.58 466.20 346.93 C 451.13 352.10 449.90 351.63 432.96 334.21 C 408.46 309.02 406.52 307.88 399.55 314.64 L 395.80 318.29 L 423.80 346.39 C 439.19 361.85 452.29 375.48 452.89 376.68 C 454.61 380.07 454.20 386.95 452.03 391.44 C 449.09 397.51 421.56 423.22 416.31 424.79 C 407.16 427.53 402.18 425.91 392.79 417.12 C 389.19 413.75 386.03 411.00 385.76 411.00 C 384.90 411.00 377.81 427.24 374.85 435.98 C 369.81 450.83 367.64 464.63 367.61 482.00 C 367.57 506.80 372.09 526.78 382.37 547.29 L 388.50 559.50 L 403.28 559.78 L 418.07 560.05 L 413.61 554.58 C 401.37 539.55 392.74 518.38 390.02 496.70 C 388.60 485.37 388.74 476.48 390.54 464.39 C 393.19 446.53 396.20 441.00 403.24 441.00 C 408.37 441.00 410.88 442.46 412.52 446.39 C 413.70 449.22 413.61 450.72 411.76 458.56 C 408.71 471.46 408.75 492.99 411.83 505.50 C 414.89 517.92 423.21 534.49 431.67 544.99 C 447.69 564.88 473.44 579.37 499.25 583.00 C 509.14 584.39 525.61 583.29 536.67 580.49 Z M 361.73 551.00 L 357.62 542.00 L 320.83 542.00 L 284.03 542.00 L 281.00 544.75 C 278.45 547.07 277.88 548.49 277.35 553.75 L 276.72 560.00 L 321.28 560.00 L 365.84 560.00 L 361.73 551.00 Z M 746.80 553.85 C 746.41 548.48 745.95 547.34 743.16 544.85 L 739.97 542.00 L 703.23 542.00 L 666.48 542.00 L 662.32 551.00 L 658.17 560.00 L 702.70 560.00 L 747.24 560.00 L 746.80 553.85 Z M 698.10 443.71 C 702.71 440.83 704.38 432.57 701.48 426.97 C 698.83 421.84 695.72 421.00 679.44 421.00 C 665.88 421.00 664.84 421.13 665.50 422.75 C 667.71 428.16 672.00 441.63 672.00 443.15 C 672.00 444.67 673.15 444.97 680.25 445.28 C 689.86 445.69 695.75 445.17 698.10 443.71 Z M 421.93 394.35 L 433.12 383.70 L 428.81 379.27 C 426.44 376.83 414.82 365.47 402.99 354.03 L 381.47 333.22 L 370.05 344.30 L 358.63 355.39 L 384.06 380.16 C 398.05 393.79 409.78 404.95 410.12 404.97 C 410.45 404.99 415.77 400.21 421.93 394.35 Z M 495.00 562.63 C 486.08 560.56 481.93 559.01 474.08 554.84 C 443.66 538.68 426.36 507.01 430.08 474.30 C 433.99 439.84 458.06 411.86 491.50 402.90 C 502.62 399.92 520.28 399.91 531.50 402.87 C 559.24 410.19 581.26 430.52 590.65 457.50 C 593.25 464.94 593.44 466.62 593.47 481.50 C 593.50 497.35 593.47 497.60 589.90 507.70 C 580.77 533.57 562.84 551.34 537.00 560.13 C 528.42 563.05 526.19 563.39 514.00 563.63 C 505.61 563.80 498.42 563.42 495.00 562.63 Z M 531.05 541.21 C 559.02 531.30 575.33 507.18 573.72 478.13 C 573.06 466.17 570.44 458.32 563.76 448.34 C 557.59 439.11 548.96 431.79 538.50 426.93 C 528.74 422.39 522.41 421.00 511.70 421.01 C 477.32 421.08 450.08 448.09 450.01 482.20 C 450.00 492.10 451.44 498.79 455.46 507.50 C 464.11 526.20 481.01 539.52 501.00 543.37 C 506.86 544.51 525.56 543.16 531.05 541.21 Z M 503.00 514.46 C 483.34 509.01 472.95 487.49 481.08 469.08 C 484.36 461.68 489.43 456.41 496.76 452.80 C 502.79 449.83 504.32 449.50 511.98 449.55 C 519.17 449.59 521.39 450.02 526.20 452.35 C 546.11 461.96 551.11 487.66 536.40 504.84 C 529.02 513.47 514.50 517.65 503.00 514.46 Z M 518.81 492.97 C 525.47 488.91 526.57 479.90 521.14 473.83 C 518.93 471.36 517.37 470.65 513.36 470.26 C 504.49 469.41 499.00 474.23 499.00 482.87 C 499.00 487.17 502.51 492.45 506.42 494.03 C 510.07 495.51 515.40 495.05 518.81 492.97 Z" stroke-linecap="round"/>
</g>
</g>
</g>

  </svg>