<svg xmlns="http://www.w3.org/2000/svg" xmlns:xlink="http://www.w3.org/1999/xlink" width="454px" height="500px" viewBox="0 0 453.9461226487956 500">
    <g id="07d53c28-0834-4ad8-ad7a-4a75c44a1a58">
<g style="">
		<g id="07d53c28-0834-4ad8-ad7a-4a75c44a1a58-child-0">
<path style="stroke: rgb(193,193,193); stroke-width: 0; stroke-dasharray: none; stroke-linecap: butt; stroke-dashoffset: 0; stroke-linejoin: miter; stroke-miterlimit: 4; fill: rgb(0,0,0); fill-rule: nonzero; opacity: 1;" transform="matrix(0.873097 0 0 0.873097 226.972935 249.999861) matrix(1 0 0 1 0 0)  translate(-511.900116, -512.589573)" d="M 261.50 797.90 C 252.96 795.28 249.34 785.87 253.96 778.30 C 257.91 771.82 256.12 772.00 317.70 772.00 L 373.50 772.00 L 373.50 760.75 C 373.50 750.46 373.73 749.06 376.19 744.39 C 381.08 735.12 387.08 729.66 397.00 725.42 C 401.17 723.64 405.04 723.46 449.81 723.00 L 498.13 722.50 L 498.31 665.50 C 498.49 611.61 498.60 608.33 500.39 605.39 C 502.96 601.13 506.95 599.00 512.33 599.00 C 517.08 599.00 521.68 601.83 524.27 606.36 C 525.20 607.98 525.50 622.29 525.50 665.50 L 525.50 722.50 L 574.00 723.00 L 622.50 723.50 L 629.09 726.72 C 637.04 730.62 644.09 737.79 647.79 745.78 C 649.90 750.33 650.45 753.03 650.47 759.00 C 650.49 763.12 650.15 767.74 649.73 769.25 L 648.96 772.00 L 705.61 772.00 C 761.39 772.00 762.32 772.03 765.66 774.10 C 775.44 780.14 773.22 794.90 762.06 798.00 C 757.39 799.30 265.73 799.20 261.50 797.90 Z M 620.03 769.50 C 621.27 768.40 622.89 766.06 623.63 764.30 C 625.40 760.13 623.66 754.55 619.68 751.60 C 616.86 749.50 616.63 749.50 513.68 749.20 C 442.44 749.00 409.36 749.24 406.80 749.98 C 404.77 750.57 402.18 752.22 401.05 753.66 C 398.53 756.86 398.32 763.58 400.63 766.88 C 404.29 772.11 400.58 771.95 513.15 771.72 C 616.22 771.50 617.82 771.47 620.03 769.50 Z M 385.03 611.69 C 378.78 609.54 377.30 605.87 376.48 590.42 C 375.38 569.85 376.18 555.57 378.64 552.28 C 383.51 545.76 390.15 543.96 396.77 547.38 C 402.84 550.52 403.25 552.61 403.07 579.32 C 402.89 606.62 402.58 607.92 395.68 611.06 C 390.85 613.25 389.75 613.32 385.03 611.69 Z M 628.32 611.10 C 621.28 607.83 621.00 606.57 621.00 578.58 L 621.00 554.07 L 624.05 550.60 C 628.42 545.62 632.96 544.33 638.57 546.47 C 641.11 547.45 643.93 549.49 645.24 551.33 C 647.41 554.38 647.51 555.42 647.78 578.00 C 648.04 598.95 647.87 601.87 646.28 604.93 C 642.59 612.03 635.52 614.46 628.32 611.10 Z M 505.30 572.04 C 498.33 567.79 498.50 568.93 498.50 525.29 C 498.50 503.68 498.27 486.01 498.00 486.03 C 497.73 486.04 495.96 488.33 494.07 491.10 C 487.33 501.04 474.03 509.97 461.50 512.97 C 452.81 515.05 441.23 514.46 432.40 511.50 C 423.97 508.67 413.57 502.30 408.09 496.61 L 404.68 493.07 L 398.35 498.99 C 387.85 508.81 373.72 514.37 359.48 514.28 C 331.37 514.10 309.37 493.81 303.88 463.00 C 302.02 452.50 302.33 423.38 304.46 409.50 C 314.00 347.42 348.06 293.71 399.41 259.77 C 481.02 205.82 591.84 218.10 660.11 288.67 C 676.77 305.89 688.69 323.06 699.56 345.50 C 714.07 375.47 719.75 398.44 720.72 431.05 C 721.61 461.14 718.84 475.69 709.50 490.00 C 704.35 497.90 700.38 501.74 692.50 506.47 C 683.47 511.89 675.10 514.22 664.50 514.28 C 649.67 514.36 638.05 509.84 625.53 499.15 L 618.92 493.50 L 612.89 499.17 C 602.44 508.99 588.36 514.47 573.94 514.33 C 557.48 514.17 542.47 506.69 531.03 492.93 C 528.26 489.61 525.96 487.03 525.90 487.20 C 525.85 487.36 525.60 505.04 525.36 526.48 C 524.88 569.22 525.04 568.18 518.70 572.04 C 516.94 573.12 513.92 573.99 512.00 573.99 C 510.08 573.99 507.06 573.12 505.30 572.04 Z M 371.52 485.64 C 377.72 482.76 384.39 476.19 390.57 466.89 C 395.98 458.75 399.77 456.01 405.62 456.00 C 410.95 456.00 413.86 458.33 419.80 467.37 C 426.07 476.92 431.95 482.63 438.67 485.71 C 443.42 487.88 445.23 488.18 451.04 487.76 C 462.80 486.92 470.98 480.21 479.03 464.79 C 482.29 458.55 488.00 445.07 488.00 443.62 C 488.00 443.44 484.03 441.45 479.18 439.19 C 433.53 417.98 381.20 427.66 342.11 464.54 C 338.20 468.22 335.00 471.90 335.00 472.71 C 335.00 475.20 345.58 484.69 350.19 486.32 C 356.87 488.68 365.59 488.40 371.52 485.64 Z M 586.50 485.48 C 591.87 482.90 598.51 476.11 604.83 466.76 C 610.89 457.77 614.27 455.54 620.73 456.27 C 626.03 456.87 628.67 459.14 634.48 468.10 C 639.72 476.17 644.46 481.01 650.73 484.70 C 654.95 487.18 656.48 487.50 664.00 487.49 C 670.77 487.48 673.32 487.04 676.54 485.32 C 681.02 482.94 689.00 474.83 689.00 472.66 C 689.00 470.49 673.20 455.87 664.52 450.01 C 644.26 436.34 617.37 428.01 593.50 428.01 C 576.75 428.01 556.35 432.76 542.04 439.98 L 536.02 443.02 L 538.49 449.57 C 546.57 471.03 554.88 482.07 566.45 486.73 C 570.78 488.47 581.70 487.79 586.50 485.48 Z M 340.21 431.39 C 350.88 423.45 370.97 412.99 383.00 409.11 C 407.34 401.26 438.50 399.41 460.73 404.50 C 476.82 408.18 493.64 415.04 505.61 422.81 L 511.72 426.77 L 516.61 423.72 C 532.37 413.89 552.35 406.25 569.76 403.41 C 580.89 401.59 603.64 401.38 614.91 402.98 C 639.81 406.53 666.03 417.51 686.36 432.89 C 689.86 435.54 693.30 438.07 693.99 438.50 C 696.60 440.10 692.83 409.06 688.30 391.61 C 676.37 345.57 644.98 302.84 605.61 279.06 C 566.33 255.34 519.89 247.10 475.78 256.03 C 403.37 270.69 344.60 333.01 331.99 408.50 C 330.93 414.84 329.15 439.00 329.74 439.00 C 329.88 439.00 334.59 435.58 340.21 431.39 Z M 624.42 366.58 C 622.60 365.79 619.35 362.44 616.45 358.37 C 605.46 342.97 591.73 329.65 577.39 320.47 C 570.15 315.84 557.67 309.66 551.41 307.61 C 544.32 305.29 540.84 301.39 540.24 295.11 C 539.86 291.22 540.22 289.39 541.85 286.74 C 547.31 277.92 556.97 279.10 580.88 291.53 C 603.62 303.34 625.11 322.85 640.32 345.48 C 648.43 357.54 637.36 372.22 624.42 366.58 Z" stroke-linecap="round"/>
</g>
</g>
</g>

  </svg>