<svg xmlns="http://www.w3.org/2000/svg" xmlns:xlink="http://www.w3.org/1999/xlink" width="500px" height="261px" viewBox="0 0 500.00025556304604 260.5811570000001">
    <g id="c9d9a2bb-b97f-4dc0-8d17-aa0ce0fb22f6">
<g style="">
		<g id="c9d9a2bb-b97f-4dc0-8d17-aa0ce0fb22f6-child-0">
<path style="stroke: rgb(193,193,193); stroke-width: 0; stroke-dasharray: none; stroke-linecap: butt; stroke-dashoffset: 0; stroke-linejoin: miter; stroke-miterlimit: 4; fill: rgb(0,0,0); fill-rule: nonzero; opacity: 1;" transform="matrix(0.698609 0 0 0.698609 250.000128 130.290579) matrix(1 0 0 1 0 0)  translate(-512.102395, -495.5)" d="M 247.08 678.92 C 244.21 676.05 244.00 675.36 244.00 668.58 L 244.00 661.32 L 203.25 660.61 C 159.51 659.86 159.95 659.91 156.42 654.52 C 153.61 650.23 153.52 644.95 156.19 641.01 C 157.50 639.10 159.67 636.97 161.03 636.28 C 162.88 635.34 173.56 635.03 203.75 635.01 L 244.00 635.00 L 244.00 548.75 L 244.01 462.50 L 246.27 459.67 C 248.23 457.23 250.61 456.32 263.97 452.94 C 331.38 435.90 395.71 402.70 456.50 353.59 C 469.89 342.77 494.54 321.24 499.50 316.03 C 504.56 310.72 507.85 309.00 512.95 309.00 C 516.69 309.00 517.83 309.77 528.25 319.38 C 589.16 375.59 641.31 409.78 704.50 434.95 C 726.75 443.81 763.75 454.99 770.85 455.00 C 772.19 455.00 774.67 456.47 776.60 458.40 L 780.00 461.80 L 780.00 548.40 L 780.00 635.00 L 820.35 635.00 C 860.70 635.00 860.70 635.00 864.09 637.28 C 869.98 641.25 871.49 647.05 868.37 653.64 C 865.11 660.50 865.14 660.50 820.50 660.50 L 780.50 660.50 L 780.00 668.10 C 779.52 675.43 778.57 677.82 775.00 680.72 C 773.83 681.67 716.00 681.94 511.83 681.97 L 250.15 682.00 L 247.08 678.92 Z M 349.75 601.00 L 350.01 545.50 L 339.35 543.18 C 316.28 538.18 300.00 529.01 280.86 510.28 L 269.00 498.67 L 269.00 577.17 C 269.00 620.34 269.31 655.97 269.68 656.34 C 270.05 656.72 288.16 656.91 309.93 656.76 L 349.50 656.50 L 349.75 601.00 Z M 608.61 655.69 C 583.08 639.63 568.97 627.45 553.77 608.31 C 537.64 588.01 525.87 566.34 516.41 539.50 C 514.06 532.84 511.93 528.17 511.62 529.00 C 511.31 529.83 509.19 535.67 506.92 542.00 C 498.55 565.29 484.28 590.94 469.71 608.92 C 456.45 625.26 437.36 642.20 421.71 651.52 C 418.04 653.71 415.03 655.84 415.02 656.25 C 415.01 656.66 458.99 656.97 512.75 656.94 C 588.79 656.90 610.08 656.62 608.61 655.69 Z M 754.76 577.32 L 755.01 498.14 L 743.76 509.36 C 732.76 520.32 721.37 528.84 710.24 534.41 C 703.03 538.02 688.89 542.64 680.75 544.04 L 674.00 545.21 L 674.00 600.44 C 674.00 630.81 674.31 655.97 674.68 656.34 C 675.05 656.72 693.16 656.91 714.93 656.76 L 754.50 656.50 L 754.76 577.32 Z M 389.97 640.35 C 408.79 631.46 422.47 621.71 438.05 606.09 C 454.00 590.09 462.42 578.17 473.36 556.08 C 481.49 539.67 487.69 522.11 492.03 503.18 C 494.96 490.45 499.00 462.43 499.00 454.91 C 499.00 444.09 509.80 437.53 518.70 442.96 C 523.22 445.71 524.63 449.20 525.42 459.50 C 527.15 482.40 533.91 514.79 540.94 534.00 C 545.43 546.25 555.85 567.07 562.72 577.50 C 582.15 607.03 607.06 628.26 639.00 642.53 C 647.28 646.23 648.59 646.57 649.18 645.14 C 650.05 643.04 650.20 556.73 649.35 547.72 L 648.71 540.94 L 640.10 536.48 C 615.04 523.47 585.50 493.98 560.97 457.50 C 545.96 435.18 527.26 400.52 517.42 376.77 C 514.75 370.32 512.25 365.37 511.88 365.77 C 511.50 366.17 509.30 371.00 506.98 376.50 C 501.07 390.48 486.28 419.81 478.36 433.23 C 450.06 481.20 414.51 519.83 382.83 537.02 L 374.50 541.54 L 374.24 594.34 L 373.98 647.14 L 376.24 646.45 C 377.48 646.08 383.66 643.33 389.97 640.35 Z M 368.55 516.13 C 403.04 499.35 441.08 453.56 472.49 391.01 C 477.88 380.28 485.14 363.81 484.69 363.35 C 484.52 363.18 480.81 366.03 476.44 369.68 C 463.51 380.48 441.58 396.63 425.00 407.56 C 384.81 434.04 343.79 454.07 301.77 467.73 C 292.02 470.91 284.04 473.88 284.02 474.35 C 283.98 475.94 296.94 490.74 304.86 498.14 C 316.76 509.27 327.85 515.23 342.50 518.35 C 354.68 520.94 359.52 520.53 368.55 516.13 Z M 680.53 518.46 C 695.62 515.34 708.50 508.35 720.86 496.56 C 727.88 489.87 740.00 475.75 740.00 474.26 C 740.00 473.74 736.29 472.30 731.75 471.06 C 710.87 465.37 673.74 450.24 649.34 437.49 C 615.02 419.55 583.29 398.63 551.25 372.80 C 544.51 367.36 539.00 363.15 539.00 363.43 C 539.00 363.71 541.91 370.29 545.46 378.06 C 577.48 448.08 624.32 505.04 660.99 518.56 C 665.76 520.32 671.66 520.29 680.53 518.46 Z" stroke-linecap="round"/>
</g>
</g>
</g>

  </svg>