<svg xmlns="http://www.w3.org/2000/svg" xmlns:xlink="http://www.w3.org/1999/xlink" width="409px" height="500px" viewBox="0 0 409.2584634722362 500">
    <g id="d54cac38-c81b-4904-bb1d-d7469d8f4a91">
<g style="">
		<g id="d54cac38-c81b-4904-bb1d-d7469d8f4a91-child-0">
<path style="stroke: rgb(193,193,193); stroke-width: 0; stroke-dasharray: none; stroke-linecap: butt; stroke-dashoffset: 0; stroke-linejoin: miter; stroke-miterlimit: 4; fill: rgb(0,0,0); fill-rule: nonzero; opacity: 1;" transform="matrix(0.600967 0 0 0.600967 204.629263 250.000039) matrix(1 0 0 1 0 0)  translate(-512.5, -511.526015)" d="M 429.50 926.98 C 329.37 923.84 249.13 914.70 229.53 904.20 C 224.97 901.75 224.50 901.18 224.50 898.02 C 224.50 894.96 225.01 894.26 228.73 892.21 C 238.49 886.82 270.73 881.03 313.50 876.99 C 325.05 875.90 335.17 875.00 336.00 875.00 C 336.83 875.00 335.02 873.50 332.00 871.68 C 324.14 866.93 312.05 858.28 308.25 854.68 C 305.93 852.49 305.00 850.71 305.00 848.47 C 305.00 845.49 304.70 845.24 299.10 843.69 C 293.49 842.13 292.54 841.36 280.35 828.49 C 273.28 821.03 266.61 813.40 265.51 811.54 L 263.52 808.14 L 265.76 805.11 C 266.99 803.44 268.00 801.70 268.00 801.24 C 268.00 800.77 264.81 799.37 260.92 798.11 L 253.83 795.83 L 247.46 786.01 C 239.75 774.13 230.00 756.98 230.00 755.29 C 230.00 754.62 231.38 752.49 233.08 750.56 C 234.77 748.64 235.94 746.71 235.67 746.28 C 235.41 745.85 232.17 744.38 228.49 743.00 C 222.89 740.91 221.49 739.90 219.94 736.87 C 217.56 732.23 208.47 709.55 205.42 700.69 L 203.08 693.87 L 207.18 689.42 C 209.44 686.96 211.11 684.82 210.90 684.64 C 210.68 684.47 207.51 682.95 203.85 681.26 C 196.22 677.75 197.54 680.58 189.54 650.50 C 183.01 625.96 183.05 627.88 188.93 623.34 C 191.67 621.23 193.93 619.17 193.96 618.76 C 193.98 618.36 191.39 616.71 188.19 615.10 C 184.99 613.48 181.86 611.54 181.22 610.77 C 179.63 608.85 174.39 575.00 173.75 562.51 L 173.50 557.51 L 179.82 553.27 L 186.15 549.02 L 179.68 544.96 C 175.90 542.59 172.96 539.99 172.62 538.70 C 172.29 537.49 172.02 524.67 172.01 510.21 L 172.00 483.92 L 178.74 480.89 L 185.47 477.87 L 181.04 474.19 C 178.60 472.16 175.72 469.79 174.64 468.91 C 172.76 467.39 172.73 466.76 173.85 452.74 C 175.51 431.83 177.97 413.68 179.33 412.36 C 179.97 411.73 183.13 410.46 186.34 409.55 L 192.17 407.89 L 189.58 404.70 C 188.15 402.94 185.84 400.08 184.45 398.35 L 181.92 395.21 L 184.01 384.85 C 187.12 369.50 192.81 346.23 194.00 343.99 C 194.63 342.82 197.32 341.39 200.77 340.40 C 203.92 339.49 206.85 338.55 207.28 338.30 C 207.71 338.05 206.47 335.68 204.53 333.04 C 202.59 330.40 201.00 327.31 201.00 326.18 C 201.00 323.74 207.10 306.19 213.74 289.51 L 218.52 277.52 L 225.01 276.14 C 228.58 275.38 231.67 274.61 231.87 274.42 C 232.08 274.24 231.06 272.08 229.62 269.62 C 228.18 267.16 227.00 264.54 227.00 263.80 C 227.00 261.98 237.69 242.83 245.67 230.37 C 252.55 219.61 253.37 219.05 262.13 219.01 C 264.74 219.00 264.75 218.97 263.43 215.25 C 262.69 213.19 262.07 210.60 262.05 209.50 C 262.02 207.29 271.63 195.35 283.88 182.39 C 291.80 174.00 291.80 174.00 296.90 174.00 L 302.00 174.00 L 302.00 169.69 C 302.00 164.54 302.71 163.78 318.50 152.11 C 330.67 143.10 336.27 140.00 340.34 140.00 C 342.56 140.00 343.16 139.45 343.66 136.96 C 344.19 134.30 345.37 133.40 353.38 129.60 C 366.44 123.40 380.72 117.85 385.14 117.25 C 387.63 116.92 389.14 116.12 389.52 114.94 C 390.90 110.59 428.13 101.90 465.01 97.33 C 476.54 95.90 486.96 95.53 516.00 95.53 C 548.40 95.52 554.35 95.78 569.00 97.78 C 599.69 101.99 626.36 108.27 648.67 116.56 C 658.38 120.16 683.60 132.03 689.59 135.82 L 692.68 137.78 L 691.29 149.64 C 689.71 163.16 687.62 172.40 685.37 175.84 C 683.58 178.56 681.95 178.45 672.63 174.96 C 665.25 172.20 665.01 171.62 661.58 148.50 C 657.96 124.09 657.95 124.00 656.55 124.00 C 655.65 124.00 655.13 128.38 654.65 140.17 C 653.96 156.75 653.05 161.96 650.13 165.83 C 648.55 167.93 647.97 168.01 639.65 167.37 C 632.24 166.80 630.63 166.36 629.49 164.60 C 628.75 163.44 625.40 153.74 622.04 143.03 C 615.86 123.27 613.26 117.41 614.47 126.00 C 615.45 132.91 615.60 159.03 614.69 163.33 C 613.75 167.75 611.59 168.95 600.78 171.05 C 594.62 172.25 593.88 172.20 592.07 170.56 C 590.98 169.57 585.99 160.72 581.00 150.88 C 576.00 141.05 571.78 133.00 571.62 133.00 C 571.47 133.00 572.37 138.51 573.63 145.25 C 576.58 160.97 577.73 176.41 576.11 178.37 C 573.97 180.94 557.25 190.03 555.72 189.45 C 554.05 188.81 545.98 177.76 538.02 165.21 C 535.12 160.65 532.62 157.05 532.46 157.21 C 532.30 157.37 534.16 165.60 536.58 175.50 C 539.00 185.40 540.99 195.07 540.99 196.98 C 541.00 200.02 539.90 201.56 532.27 209.23 C 525.59 215.94 522.91 218.00 520.84 218.00 C 518.65 218.00 515.88 215.54 506.32 205.11 C 499.82 198.02 494.40 192.30 494.28 192.41 C 494.16 192.51 496.56 199.33 499.61 207.55 C 506.72 226.75 508.27 232.62 506.90 235.18 C 506.33 236.25 502.71 241.60 498.86 247.07 C 492.88 255.55 491.45 257.00 489.10 257.00 C 485.77 257.00 479.73 253.12 471.00 245.38 C 467.42 242.21 463.67 238.92 462.66 238.07 C 461.65 237.22 463.70 242.15 467.22 249.01 C 470.74 255.88 475.01 264.85 476.72 268.95 L 479.82 276.39 L 472.90 290.20 L 465.99 304.00 L 462.24 304.00 C 459.72 303.99 454.49 302.04 446.14 298.00 C 439.35 294.70 433.64 292.00 433.45 292.00 C 433.27 292.00 436.89 297.29 441.49 303.75 C 446.10 310.21 451.36 318.30 453.18 321.72 L 456.50 327.94 L 453.33 337.22 C 451.59 342.33 449.20 349.09 448.01 352.25 L 445.86 358.00 L 440.04 358.00 C 436.84 358.00 429.85 357.10 424.50 356.00 C 419.15 354.90 414.33 354.00 413.78 354.00 C 413.23 354.00 418.68 360.11 425.89 367.58 C 436.05 378.10 439.00 381.75 439.00 383.83 C 439.00 389.58 433.61 413.39 431.93 415.07 C 430.04 416.96 425.84 417.62 409.72 418.59 L 398.94 419.24 L 402.72 421.93 C 404.80 423.41 410.29 427.29 414.91 430.56 C 419.54 433.83 424.75 437.85 426.49 439.50 L 429.65 442.50 L 428.08 459.11 C 427.07 469.67 426.00 476.32 425.12 477.37 C 423.73 479.03 409.75 483.79 399.57 486.07 C 396.51 486.76 394.00 487.64 394.00 488.04 C 394.00 488.43 395.46 489.34 397.25 490.05 C 405.66 493.41 422.68 501.82 424.25 503.39 C 425.77 504.91 426.00 507.24 426.00 521.14 C 426.00 530.03 425.55 537.97 424.99 539.03 C 423.75 541.34 415.49 546.25 403.54 551.76 C 398.48 554.10 395.22 556.12 396.04 556.40 C 396.84 556.68 402.67 558.11 409.00 559.58 C 424.69 563.23 427.76 564.54 428.39 567.83 C 428.68 569.30 429.65 576.52 430.55 583.89 C 431.91 594.93 431.97 597.69 430.91 599.68 C 429.46 602.38 419.89 610.33 409.78 617.22 L 403.05 621.81 L 414.78 622.51 C 427.17 623.25 435.93 624.53 437.18 625.78 C 437.60 626.20 439.47 632.92 441.33 640.73 L 444.73 654.92 L 442.75 658.21 C 440.37 662.15 433.58 670.33 426.03 678.34 L 420.52 684.18 L 424.01 683.61 C 425.93 683.29 430.17 682.58 433.43 682.02 C 436.70 681.46 442.39 681.00 446.08 681.00 L 452.78 681.00 L 458.09 694.22 C 461.01 701.49 463.33 708.25 463.26 709.24 C 463.07 711.73 457.20 721.17 449.49 731.40 C 445.92 736.13 443.13 740.00 443.29 740.00 C 443.45 740.00 449.32 737.97 456.34 735.50 C 463.35 733.03 470.13 731.00 471.39 731.00 C 474.47 731.00 475.70 732.61 482.43 745.48 C 489.38 758.74 489.53 757.68 478.13 776.80 C 473.76 784.12 470.50 789.97 470.86 789.80 C 471.23 789.64 475.86 787.14 481.14 784.25 C 489.84 779.50 497.87 776.00 500.10 776.00 C 500.56 776.00 504.37 780.15 508.57 785.21 C 517.71 796.26 517.69 794.67 508.95 816.26 C 505.55 824.64 502.54 832.17 502.25 833.00 C 501.96 833.83 504.82 831.55 508.61 827.94 C 522.18 815.01 528.14 810.00 529.96 810.00 C 531.64 810.00 547.02 821.61 548.50 823.99 C 549.32 825.33 546.84 837.37 542.52 852.95 C 540.62 859.80 539.20 865.53 539.35 865.69 C 539.51 865.85 544.70 859.21 550.89 850.93 C 557.07 842.66 562.76 835.65 563.52 835.35 C 565.19 834.71 580.88 840.56 583.00 842.62 C 585.06 844.61 584.60 853.59 581.46 872.90 C 580.09 881.37 579.10 888.44 579.28 888.61 C 579.45 888.78 584.03 880.16 589.46 869.45 C 594.89 858.74 599.93 849.47 600.67 848.86 C 601.66 848.04 604.53 848.08 611.54 849.01 C 619.35 850.04 621.27 850.64 622.16 852.30 C 623.25 854.33 622.54 886.62 621.29 891.85 C 620.84 893.74 621.09 894.13 622.57 893.84 C 623.99 893.57 625.70 889.45 630.17 875.50 C 637.14 853.72 638.69 850.11 641.41 849.45 C 648.11 847.84 658.47 846.24 659.55 846.66 C 661.57 847.43 662.03 850.56 662.68 868.27 C 663.29 884.70 663.35 885.02 665.40 884.39 C 666.56 884.04 667.67 883.60 667.88 883.41 C 668.09 883.23 669.53 875.71 671.08 866.71 C 672.63 857.72 674.71 847.96 675.70 845.04 C 677.39 840.06 677.93 839.50 684.53 835.89 C 693.57 830.96 695.99 830.65 697.75 834.24 C 699.23 837.24 701.96 855.87 701.97 863.00 C 701.97 867.37 701.81 867.60 696.33 871.16 L 690.69 874.82 L 696.10 875.38 C 699.07 875.69 709.38 876.66 719.00 877.54 C 749.66 880.35 782.11 885.83 793.67 890.15 C 799.94 892.50 804.00 895.54 804.00 897.90 C 804.00 910.28 737.00 920.51 619.50 926.05 C 590.30 927.43 463.55 928.05 429.50 926.98 Z M 479.91 898.58 C 479.68 898.35 474.77 896.96 469.00 895.50 C 463.23 894.04 457.91 892.34 457.18 891.73 C 456.16 890.89 456.00 888.95 456.52 883.82 C 457.05 878.52 456.90 876.93 455.85 876.61 C 427.81 868.23 412.98 862.53 413.04 860.17 C 413.06 859.25 413.90 854.57 414.91 849.76 C 416.23 843.43 416.43 840.80 415.62 840.20 C 415.00 839.75 408.16 836.40 400.42 832.76 C 380.64 823.46 376.57 820.94 376.19 817.78 C 376.02 816.36 377.31 810.32 379.04 804.36 C 381.60 795.59 381.94 793.38 380.85 792.74 C 367.33 784.86 349.86 773.72 346.78 771.00 L 342.81 767.50 L 348.40 753.33 C 351.48 745.54 354.00 738.96 354.00 738.70 C 354.00 738.45 349.61 734.97 344.25 730.96 C 328.65 719.32 318.00 709.97 318.00 707.92 C 318.00 706.90 320.92 699.91 324.50 692.39 C 328.08 684.86 331.00 678.15 331.00 677.48 C 331.00 676.80 324.81 670.61 317.25 663.73 C 298.27 646.45 297.61 645.70 298.42 642.47 C 298.97 640.26 310.75 617.57 314.27 611.93 C 315.13 610.56 313.20 607.89 303.39 596.88 C 287.34 578.88 285.64 576.56 286.37 573.65 C 286.70 572.35 291.92 564.52 297.98 556.25 C 304.04 547.97 309.00 540.91 309.00 540.54 C 309.00 540.18 304.55 533.92 299.10 526.64 C 287.54 511.17 282.99 504.21 283.02 502.05 C 283.04 500.49 298.75 481.03 306.20 473.34 L 310.23 469.19 L 300.26 453.34 C 294.78 444.63 289.58 436.11 288.70 434.42 C 286.35 429.82 285.77 430.60 313.21 401.45 L 317.03 397.39 L 309.01 381.47 C 304.61 372.71 301.00 364.35 301.00 362.89 C 301.00 360.84 303.17 358.17 310.45 351.20 C 315.65 346.23 323.08 339.60 326.95 336.47 C 330.83 333.34 334.00 330.67 334.00 330.53 C 334.00 330.40 331.58 323.81 328.62 315.89 C 321.10 295.80 321.15 296.22 325.72 291.86 C 329.64 288.12 346.40 275.36 353.65 270.59 L 357.80 267.86 L 355.40 260.18 C 349.49 241.28 348.61 237.17 350.10 235.37 C 352.21 232.80 360.23 227.91 374.57 220.42 C 381.68 216.71 387.67 213.53 387.89 213.36 C 388.10 213.20 387.27 207.96 386.04 201.72 C 384.82 195.47 383.97 189.27 384.16 187.93 C 384.44 185.93 386.54 184.50 396.00 179.84 C 402.33 176.72 411.67 172.73 416.76 170.97 C 421.86 169.21 426.19 167.48 426.40 167.13 C 426.60 166.79 426.13 162.52 425.35 157.65 C 424.30 151.12 424.22 148.44 425.04 147.45 C 426.75 145.40 449.09 138.25 465.22 134.59 C 467.87 133.99 467.93 133.82 467.72 127.27 L 467.50 120.55 L 471.50 119.20 C 477.32 117.22 493.33 114.24 502.00 113.51 C 512.66 112.62 513.87 112.28 513.56 110.25 C 513.32 108.67 512.10 108.53 500.90 108.85 C 493.31 109.06 487.72 109.68 486.50 110.45 C 485.40 111.13 480.90 112.01 476.50 112.39 C 469.47 113.00 448.31 116.17 442.37 117.50 C 440.51 117.92 440.15 118.93 439.53 125.49 L 438.83 132.99 L 433.16 134.57 C 422.42 137.57 401.49 143.85 398.67 144.93 C 395.86 146.01 395.85 146.04 396.47 152.76 C 396.82 156.46 397.31 160.50 397.56 161.72 C 398.17 164.64 397.29 165.14 375.15 174.55 C 365.06 178.85 356.57 182.96 356.29 183.69 C 356.01 184.43 356.67 190.31 357.76 196.76 C 359.60 207.60 359.62 208.63 358.12 210.22 C 357.23 211.16 348.86 216.18 339.52 221.36 C 330.18 226.54 322.08 231.51 321.52 232.40 C 320.78 233.57 321.53 237.95 324.29 248.54 C 326.37 256.53 327.82 263.49 327.50 263.99 C 327.19 264.50 318.87 270.80 309.01 277.99 C 291.36 290.87 291.10 291.12 292.13 293.79 C 302.98 321.71 304.06 325.26 302.50 327.64 C 301.65 328.93 294.56 335.45 286.73 342.12 C 278.90 348.78 271.67 355.03 270.65 355.99 C 268.87 357.69 269.01 358.19 275.29 371.62 C 283.33 388.85 285.00 392.83 285.00 394.80 C 285.00 395.65 278.27 403.14 270.04 411.43 L 255.08 426.50 L 265.85 444.00 C 271.77 453.62 276.89 462.23 277.23 463.12 C 278.07 465.35 276.01 468.34 262.61 484.47 C 256.22 492.15 251.00 498.72 251.00 499.07 C 251.00 499.42 252.28 501.45 253.85 503.60 C 255.41 505.74 261.26 513.76 266.85 521.42 C 272.43 529.07 277.00 535.86 277.00 536.50 C 277.00 537.83 264.93 555.66 258.36 564.06 C 255.96 567.12 254.00 570.15 254.00 570.80 C 254.00 571.44 256.45 574.87 259.45 578.40 C 276.58 598.59 283.00 606.66 283.00 608.00 C 283.00 608.82 279.60 615.07 275.46 621.87 C 271.32 628.68 267.28 635.48 266.50 637.00 L 265.08 639.75 L 282.13 656.79 C 297.08 671.72 299.10 674.12 298.47 676.16 C 298.07 677.45 294.87 684.55 291.35 691.95 C 285.27 704.73 285.04 705.48 286.73 707.04 C 287.70 707.94 295.02 714.09 303.00 720.71 C 323.86 738.02 322.31 734.42 316.02 751.03 C 313.10 758.74 310.89 765.21 311.11 765.41 C 311.32 765.61 319.67 771.19 329.65 777.82 C 339.64 784.45 348.07 790.31 348.40 790.83 C 348.72 791.36 347.60 797.34 345.89 804.11 C 344.19 810.89 343.18 816.57 343.65 816.74 C 344.12 816.91 353.05 821.44 363.50 826.81 C 385.29 838.00 384.35 836.77 381.69 850.74 L 380.31 857.98 L 388.41 861.12 C 392.86 862.85 401.46 865.94 407.52 867.98 C 413.57 870.03 419.91 872.42 421.60 873.29 L 424.68 874.88 L 424.22 882.85 L 423.75 890.81 L 429.13 891.89 C 440.14 894.11 453.34 896.14 465.24 897.44 C 480.36 899.09 480.43 899.09 479.91 898.58 Z M 541.00 892.98 C 548.97 892.43 556.80 891.71 558.38 891.38 C 561.06 890.83 560.74 890.55 553.88 887.53 C 549.82 885.74 544.60 883.17 542.28 881.82 C 538.38 879.56 537.52 879.44 530.78 880.22 C 526.78 880.69 514.28 881.17 503.00 881.28 L 482.50 881.50 L 482.19 884.72 C 481.93 887.38 482.27 888.02 484.19 888.46 C 485.46 888.75 490.73 889.88 495.91 890.98 C 501.08 892.08 505.54 893.21 505.82 893.49 C 506.66 894.33 525.47 894.05 541.00 892.98 Z M 397.00 881.58 C 397.00 880.80 397.26 879.50 397.57 878.69 C 398.00 877.56 395.81 876.44 388.32 873.95 C 382.92 872.16 376.48 869.83 374.00 868.77 C 369.71 866.95 330.05 857.62 329.38 858.28 C 329.21 858.46 333.21 861.02 338.28 863.97 C 343.35 866.93 348.85 870.30 350.50 871.48 C 352.23 872.71 358.56 874.76 365.50 876.32 C 399.41 883.96 397.00 883.56 397.00 881.58 Z M 514.97 866.15 L 520.43 865.50 L 517.47 863.60 C 515.84 862.56 510.76 858.55 506.20 854.70 L 497.90 847.70 L 483.20 848.30 C 475.11 848.63 462.42 848.53 455.00 848.08 C 447.58 847.62 441.35 847.38 441.17 847.54 C 440.99 847.70 440.76 849.94 440.67 852.52 L 440.50 857.20 L 454.00 861.99 L 467.50 866.78 L 488.50 866.79 C 500.05 866.80 511.96 866.51 514.97 866.15 Z M 356.10 844.20 L 356.77 840.90 L 343.63 834.24 C 333.40 829.05 327.33 826.74 316.17 823.78 C 308.28 821.69 298.05 818.92 293.43 817.62 L 285.02 815.25 L 289.93 820.88 C 292.63 823.97 297.36 828.97 300.43 831.98 L 306.03 837.46 L 327.76 842.66 C 339.72 845.53 350.83 847.79 352.46 847.69 C 354.96 847.53 355.54 846.98 356.10 844.20 Z M 480.77 830.36 C 482.96 829.78 482.89 829.59 478.73 825.13 C 476.35 822.58 471.75 816.97 468.51 812.65 L 462.60 804.80 L 454.55 805.46 C 450.12 805.82 438.85 805.59 429.50 804.95 C 420.15 804.31 411.18 803.73 409.56 803.65 C 406.90 803.51 406.49 803.93 405.33 807.89 C 404.62 810.30 403.78 813.11 403.46 814.13 C 402.59 816.85 427.96 829.05 436.50 830.02 C 444.26 830.89 477.81 831.16 480.77 830.36 Z M 318.90 799.83 C 320.05 796.43 320.88 793.55 320.74 793.42 C 320.61 793.30 314.82 789.39 307.89 784.73 C 299.00 778.77 293.68 775.89 289.89 774.98 C 286.92 774.28 276.86 771.31 267.53 768.40 C 258.20 765.49 250.45 763.21 250.32 763.35 C 250.19 763.48 254.00 769.86 258.79 777.52 L 267.50 791.44 L 275.00 793.80 C 282.86 796.28 315.02 805.74 316.16 805.90 C 316.52 805.96 317.75 803.22 318.90 799.83 Z M 450.00 785.38 C 450.00 785.04 448.47 782.23 446.61 779.13 C 444.74 776.03 441.38 769.82 439.14 765.33 C 436.89 760.83 434.53 756.83 433.88 756.43 C 433.24 756.03 426.36 755.32 418.61 754.86 C 410.85 754.39 399.33 753.32 393.00 752.48 C 386.67 751.64 380.65 750.85 379.61 750.73 C 378.13 750.55 377.00 752.18 374.42 758.19 L 371.13 765.88 L 383.82 773.31 C 390.79 777.40 397.51 781.27 398.76 781.91 C 400.70 782.91 410.32 784.04 428.00 785.32 C 436.72 785.96 450.00 785.99 450.00 785.38 Z M 288.53 746.94 C 293.51 737.12 293.56 737.66 287.20 732.90 C 284.06 730.56 278.27 726.05 274.31 722.87 C 269.02 718.61 265.60 716.69 261.31 715.57 C 258.12 714.73 248.11 711.57 239.07 708.54 C 230.04 705.51 222.53 703.13 222.40 703.27 C 222.13 703.53 234.87 735.20 235.49 735.83 C 236.33 736.67 282.49 752.00 284.18 752.00 C 285.32 752.00 286.89 750.18 288.53 746.94 Z M 422.72 730.75 C 413.58 707.63 410.52 700.31 409.61 699.42 C 409.00 698.83 401.30 697.57 392.50 696.62 C 383.70 695.67 372.90 694.25 368.50 693.45 C 364.10 692.66 358.92 691.74 356.99 691.42 L 353.49 690.82 L 349.61 698.78 C 347.47 703.16 346.04 707.25 346.42 707.87 C 346.80 708.49 352.92 713.19 360.02 718.33 L 372.93 727.67 L 383.12 728.97 C 407.62 732.09 423.53 732.81 422.72 730.75 Z M 266.52 682.41 L 270.94 674.32 L 258.83 663.17 L 246.72 652.02 L 235.11 648.41 C 228.72 646.42 218.82 643.03 213.09 640.89 C 207.37 638.74 202.54 637.12 202.37 637.30 C 202.02 637.64 206.87 656.48 210.04 667.13 L 212.04 673.86 L 221.27 677.42 C 239.53 684.45 258.53 690.93 260.30 690.72 C 261.42 690.58 263.77 687.44 266.52 682.41 Z M 399.31 664.75 C 398.00 660.21 395.85 651.85 394.54 646.16 C 393.22 640.47 391.99 635.65 391.79 635.46 C 391.59 635.26 385.59 634.20 378.46 633.10 C 371.33 632.01 359.65 629.96 352.50 628.56 C 345.35 627.16 338.81 626.01 337.98 626.00 C 337.12 626.00 334.17 629.84 331.27 634.72 C 325.19 644.95 324.23 642.60 340.20 656.67 C 350.86 666.05 350.95 666.10 358.70 667.55 C 367.73 669.23 394.05 672.77 398.60 672.91 L 401.70 673.00 L 399.31 664.75 Z M 248.47 616.35 C 252.06 611.59 255.00 607.32 255.00 606.85 C 255.00 606.39 252.00 602.74 248.34 598.75 C 244.68 594.76 240.08 589.58 238.11 587.23 C 235.69 584.33 233.26 582.61 230.59 581.89 C 228.42 581.30 218.56 577.70 208.69 573.88 C 198.81 570.06 190.50 567.16 190.22 567.45 C 189.55 568.12 194.96 606.28 195.85 607.22 C 196.35 607.74 239.96 624.60 241.72 624.96 C 241.85 624.98 244.88 621.11 248.47 616.35 Z M 386.60 603.25 C 386.22 600.64 385.04 591.79 383.97 583.60 C 382.90 575.40 381.85 568.52 381.63 568.30 C 381.41 568.08 375.67 566.77 368.87 565.40 C 362.07 564.02 350.25 561.32 342.60 559.40 C 334.96 557.47 328.39 556.26 328.02 556.70 C 323.51 562.01 313.96 575.38 314.20 576.06 C 314.36 576.55 319.32 582.09 325.21 588.36 L 335.93 599.77 L 347.71 602.01 C 366.23 605.53 380.20 607.80 383.89 607.91 L 387.27 608.00 L 386.60 603.25 Z M 241.38 544.88 C 247.64 537.76 249.08 535.54 248.38 534.13 C 247.90 533.16 243.72 527.34 239.09 521.21 C 230.76 510.16 230.61 510.03 224.09 507.87 C 218.87 506.14 195.36 497.01 189.25 494.33 C 188.27 493.91 188.00 498.03 188.01 513.14 C 188.02 523.79 188.29 533.47 188.61 534.66 C 189.07 536.38 193.39 538.60 209.34 545.35 C 220.43 550.04 230.40 553.87 231.50 553.86 C 232.75 553.85 236.44 550.49 241.38 544.88 Z M 380.16 519.75 C 379.97 508.61 379.52 499.24 379.16 498.92 C 378.36 498.21 330.73 486.00 328.78 486.00 C 328.03 486.00 323.71 490.12 319.19 495.15 L 310.97 504.30 L 312.66 506.90 C 313.91 508.83 326.13 524.66 329.67 528.93 C 330.22 529.60 375.19 539.82 378.00 539.92 L 380.50 540.00 L 380.16 519.75 Z M 240.40 472.27 C 245.40 467.47 249.65 463.19 249.83 462.77 C 250.43 461.39 234.66 437.80 232.55 436.92 C 226.08 434.22 193.58 422.08 193.38 422.29 C 192.92 422.75 190.12 449.54 189.81 456.50 L 189.50 463.50 L 193.50 465.45 C 199.51 468.39 229.37 480.95 230.40 480.98 C 230.89 480.99 235.39 477.07 240.40 472.27 Z M 382.37 456.25 C 382.75 448.14 383.42 438.64 383.86 435.15 C 384.40 430.83 384.31 428.70 383.58 428.48 C 382.99 428.30 372.38 425.36 360.00 421.95 C 347.62 418.54 336.70 415.52 335.73 415.25 C 334.47 414.90 331.08 417.58 324.24 424.32 L 314.53 433.89 L 323.02 446.41 C 331.46 458.86 331.52 458.93 336.50 460.01 C 339.25 460.61 350.27 463.30 361.00 466.00 C 371.73 468.70 380.77 470.92 381.09 470.95 C 381.42 470.98 382.00 464.36 382.37 456.25 Z M 248.56 399.95 L 258.96 390.89 L 253.01 379.02 C 249.74 372.50 246.49 366.78 245.78 366.33 C 245.08 365.87 236.25 362.52 226.17 358.87 C 214.38 354.60 207.70 352.64 207.44 353.37 C 205.37 359.16 198.46 392.82 199.20 393.51 C 199.77 394.05 236.50 408.93 237.33 408.97 C 237.79 408.98 242.84 404.93 248.56 399.95 Z M 391.59 390.88 C 392.43 385.17 393.99 376.26 395.06 371.08 C 396.13 365.91 396.76 361.43 396.47 361.13 C 396.17 360.84 385.49 357.56 372.74 353.86 L 349.54 347.12 L 340.17 354.81 C 335.02 359.04 329.96 363.17 328.94 364.00 C 327.16 365.43 327.35 365.98 333.40 376.31 C 336.87 382.26 340.16 387.56 340.69 388.09 C 341.59 388.99 389.16 401.97 389.78 401.48 C 389.94 401.36 390.75 396.59 391.59 390.88 Z M 265.50 331.17 C 271.00 327.06 275.91 323.34 276.41 322.89 C 276.94 322.42 275.32 317.26 272.56 310.58 L 267.80 299.09 L 249.65 293.22 L 231.50 287.35 L 229.16 292.42 C 226.81 297.53 218.00 322.52 218.00 324.09 C 218.00 325.32 220.80 326.66 237.93 333.62 C 246.41 337.07 253.84 339.61 254.43 339.26 C 255.02 338.91 260.00 335.27 265.50 331.17 Z M 409.03 324.50 C 410.83 319.00 413.59 311.35 415.15 307.50 C 416.71 303.65 417.99 300.01 418.00 299.42 C 418.00 298.82 414.06 297.11 409.25 295.61 C 387.97 288.97 374.38 285.00 372.96 285.00 C 370.57 285.00 347.83 300.12 348.32 301.38 C 348.56 302.00 350.67 307.03 353.01 312.58 L 357.26 322.65 L 368.78 325.46 C 375.12 327.01 385.75 329.95 392.40 332.01 C 399.06 334.06 404.78 335.46 405.13 335.12 C 405.47 334.78 407.23 330.00 409.03 324.50 Z M 285.35 268.65 C 289.83 265.71 295.37 262.13 297.65 260.70 L 301.79 258.10 L 299.12 248.89 L 296.45 239.68 L 279.98 234.93 L 263.50 230.18 L 261.38 232.69 C 258.85 235.69 246.04 258.13 245.35 260.77 C 244.94 262.35 247.07 263.46 259.68 268.24 C 267.83 271.32 275.11 273.88 275.85 273.92 C 276.59 273.97 280.86 271.59 285.35 268.65 Z M 437.12 258.23 C 442.26 247.60 444.37 242.26 443.62 241.75 C 442.23 240.82 418.01 232.89 408.35 230.20 L 401.19 228.21 L 388.35 235.20 C 381.28 239.04 375.37 242.30 375.22 242.45 C 375.07 242.60 376.46 246.94 378.32 252.09 L 381.70 261.45 L 398.10 265.65 C 407.12 267.96 417.20 270.74 420.50 271.83 C 423.80 272.91 427.17 273.83 428.00 273.88 C 428.98 273.93 432.16 268.46 437.12 258.23 Z M 462.21 216.24 C 464.24 213.08 468.81 206.90 472.35 202.50 L 478.79 194.50 L 472.14 192.21 C 468.49 190.95 459.29 188.11 451.70 185.90 C 439.32 182.29 437.52 182.00 434.20 183.05 C 430.19 184.33 409.71 192.10 409.16 192.56 C 408.98 192.71 409.59 196.24 410.51 200.41 L 412.20 207.98 L 416.35 209.04 C 429.42 212.39 443.43 216.52 450.00 218.96 C 454.12 220.50 457.73 221.81 458.00 221.87 C 458.27 221.93 460.17 219.40 462.21 216.24 Z M 321.77 210.81 C 328.77 207.41 334.57 204.60 334.66 204.56 C 334.75 204.53 334.12 201.02 333.28 196.78 C 332.21 191.44 331.23 188.91 330.12 188.58 C 329.23 188.33 322.33 186.90 314.80 185.43 L 301.10 182.73 L 296.18 188.12 C 287.62 197.50 280.00 206.69 280.00 207.63 C 280.00 208.55 303.97 216.68 307.27 216.89 C 308.25 216.95 314.77 214.22 321.77 210.81 Z M 497.08 174.40 C 498.41 172.97 502.99 168.85 507.25 165.24 C 511.51 161.64 515.00 158.38 515.00 158.01 C 515.00 157.39 493.49 150.62 483.04 147.95 C 477.99 146.66 474.96 147.01 459.63 150.65 L 448.75 153.23 L 449.41 158.82 C 449.77 161.89 450.16 164.50 450.28 164.61 C 450.40 164.73 455.70 166.00 462.06 167.42 C 468.42 168.85 478.10 171.55 483.56 173.43 C 489.03 175.31 493.76 176.88 494.08 176.92 C 494.39 176.97 495.74 175.83 497.08 174.40 Z M 358.91 164.80 C 366.38 161.94 372.65 159.51 372.83 159.39 C 373.00 159.28 372.85 157.16 372.48 154.68 C 371.68 149.38 371.88 149.45 354.00 148.52 L 342.50 147.92 L 331.50 156.13 C 324.31 161.49 321.02 164.51 322.00 164.84 C 323.44 165.32 342.53 169.61 344.41 169.87 C 344.91 169.94 351.43 167.66 358.91 164.80 Z M 548.33 135.41 L 555.30 132.07 L 552.40 130.95 C 550.81 130.33 542.89 128.30 534.81 126.44 L 520.11 123.05 L 506.81 124.56 C 499.49 125.39 492.94 126.26 492.25 126.50 C 491.56 126.74 491.00 128.09 491.00 129.49 C 491.00 132.63 492.37 133.24 505.50 135.94 C 511.00 137.06 519.55 139.26 524.50 140.81 L 533.50 143.63 L 537.42 141.19 C 539.58 139.85 544.49 137.25 548.33 135.41 Z M 401.74 131.50 C 414.88 127.81 415.98 127.32 415.99 125.15 L 416.00 122.80 L 403.22 123.15 L 390.45 123.50 L 379.27 128.47 C 373.13 131.20 368.34 133.67 368.63 133.97 C 369.11 134.45 384.08 135.81 386.50 135.59 C 387.05 135.54 393.91 133.70 401.74 131.50 Z M 589.50 119.16 L 598.50 117.28 L 591.12 115.60 C 579.38 112.92 559.56 110.12 547.21 109.38 L 535.82 108.70 L 536.16 111.02 C 536.47 113.15 537.48 113.52 548.50 115.56 C 555.10 116.78 563.88 118.71 568.00 119.84 C 572.12 120.97 576.62 121.70 578.00 121.47 C 579.38 121.23 584.55 120.19 589.50 119.16 Z M 710.01 843.81 C 710.01 834.29 710.47 824.84 711.04 822.81 C 711.76 820.20 713.88 817.53 718.28 813.70 C 721.70 810.72 725.48 807.77 726.68 807.14 C 730.74 805.02 732.69 808.94 735.58 825.00 C 737.92 837.99 737.93 837.93 729.75 845.16 C 721.83 852.15 713.22 859.24 711.25 860.39 C 710.27 860.96 710.00 857.38 710.01 843.81 Z M 612.23 832.50 C 584.76 827.52 560.86 814.40 536.62 791.00 C 498.74 754.43 470.04 699.55 453.57 632.21 C 436.65 563.00 435.86 472.85 451.55 400.14 C 459.32 364.15 471.39 329.90 487.56 298.00 C 507.12 259.40 533.79 227.34 562.04 208.45 C 615.37 172.80 675.07 177.93 724.52 222.41 C 774.26 267.15 810.83 349.39 822.41 442.50 C 826.59 476.13 827.81 528.47 825.10 558.00 C 819.41 620.13 805.14 671.35 780.12 719.50 C 765.29 748.02 752.74 765.40 732.06 786.03 C 705.69 812.33 680.29 826.88 651.07 832.43 C 641.11 834.32 622.44 834.35 612.23 832.50 Z M 656.50 755.49 C 705.08 742.07 749.49 681.04 768.50 601.59 C 775.34 573.04 778.07 547.42 778.05 512.06 C 778.02 449.09 766.11 394.68 741.93 347.00 C 729.63 322.75 718.63 307.53 701.78 291.42 C 691.15 281.26 681.66 274.56 670.81 269.55 C 658.29 263.77 652.22 262.55 636.00 262.54 C 622.10 262.53 621.09 262.67 611.64 265.93 C 575.46 278.39 543.30 315.77 521.68 370.51 C 475.78 486.68 493.19 641.45 560.82 718.61 C 578.75 739.06 598.38 751.77 619.50 756.59 C 627.33 758.39 648.29 757.76 656.50 755.49 Z M 745.03 829.00 C 745.00 828.72 744.32 823.55 743.51 817.50 C 742.70 811.45 742.03 803.08 742.02 798.89 C 742.00 791.69 742.19 791.03 745.65 786.39 C 754.17 774.97 757.45 772.95 760.47 777.25 C 762.34 779.91 768.00 797.10 768.00 800.12 C 768.00 801.27 765.08 805.96 761.50 810.54 C 755.00 818.87 745.12 829.94 745.03 829.00 Z M 772.68 780.75 C 771.25 775.66 769.59 768.57 768.98 764.98 C 767.67 757.28 768.12 755.72 774.63 745.25 C 781.54 734.15 784.73 735.37 790.94 751.50 C 793.31 757.67 793.71 759.70 792.86 761.38 C 789.91 767.25 776.42 789.98 775.89 789.99 C 775.55 790.00 774.11 785.84 772.68 780.75 Z M 798.93 743.41 C 796.01 736.01 792.16 723.90 791.53 720.16 C 790.32 713.00 797.29 695.83 801.66 695.20 C 804.18 694.83 808.04 699.21 812.67 707.69 L 815.85 713.50 L 809.00 728.88 C 805.23 737.34 801.68 744.72 801.11 745.29 C 800.40 746.00 799.72 745.42 798.93 743.41 Z M 819.06 696.08 C 817.91 694.47 815.31 689.65 813.27 685.36 C 808.70 675.74 808.59 670.97 812.63 659.00 C 815.07 651.78 815.86 650.45 817.90 650.16 C 821.31 649.68 824.34 651.59 829.09 657.22 L 833.23 662.13 L 831.52 668.31 C 829.05 677.26 821.96 699.00 821.52 699.00 C 821.31 699.00 820.20 697.69 819.06 696.08 Z M 831.50 641.35 C 828.92 638.13 825.68 633.11 824.30 630.18 L 821.79 624.86 L 823.53 615.18 C 824.49 609.86 825.74 604.48 826.31 603.23 C 827.95 599.63 831.34 599.43 837.54 602.56 C 845.39 606.53 845.52 606.80 844.07 615.29 C 842.04 627.17 837.88 645.44 837.01 646.35 C 836.56 646.82 834.08 644.57 831.50 641.35 Z M 840.93 587.11 C 838.42 585.52 835.16 582.79 833.68 581.04 C 831.22 578.11 831.00 577.14 831.02 569.17 C 831.07 553.01 833.53 548.35 841.84 548.70 C 844.47 548.81 847.86 549.38 849.38 549.96 L 852.15 551.01 L 851.43 560.16 C 849.79 581.18 848.55 589.47 847.00 589.73 C 846.17 589.88 843.45 588.69 840.93 587.11 Z M 842.76 532.80 C 840.70 532.25 837.89 530.46 836.51 528.83 C 834.12 525.99 834.00 525.25 834.00 513.06 C 834.00 500.64 834.08 500.20 836.58 497.69 C 839.23 495.04 848.75 492.31 851.56 493.39 C 852.75 493.84 853.00 497.46 853.00 513.97 L 853.00 534.00 L 849.75 533.90 C 847.96 533.84 844.82 533.35 842.76 532.80 Z M 834.59 476.73 C 832.34 475.03 831.18 468.30 831.07 456.28 C 831.00 448.51 831.16 447.88 834.04 444.60 C 837.41 440.77 846.93 435.53 848.21 436.81 C 849.61 438.21 852.39 475.01 851.19 476.21 C 849.41 477.99 836.79 478.39 834.59 476.73 Z M 829.35 426.00 C 826.82 424.99 825.52 421.31 824.00 410.85 C 822.63 401.38 823.41 399.19 832.16 387.87 C 837.87 380.50 838.46 380.01 839.22 382.05 C 840.05 384.31 844.24 406.60 845.44 415.15 L 846.09 419.80 L 840.80 422.79 C 834.24 426.49 832.09 427.09 829.35 426.00 Z M 817.23 376.75 C 815.19 374.25 812.00 361.65 812.00 356.13 C 812.00 351.09 812.64 349.30 817.82 339.98 C 821.02 334.22 824.05 329.58 824.54 329.68 C 825.66 329.90 829.06 339.91 832.87 354.17 L 835.79 365.08 L 830.90 370.93 C 828.21 374.15 825.29 377.06 824.42 377.39 C 821.81 378.39 818.31 378.08 817.23 376.75 Z M 802.65 331.17 C 800.43 328.71 796.00 315.48 796.00 311.29 C 796.00 307.83 801.05 293.72 805.07 285.90 L 807.34 281.50 L 810.56 288.50 C 812.33 292.35 815.41 299.90 817.41 305.28 L 821.06 315.06 L 816.59 321.97 C 809.36 333.15 806.28 335.18 802.65 331.17 Z M 784.90 290.01 C 784.02 289.49 782.00 286.24 780.41 282.79 C 776.31 273.91 776.50 267.77 781.33 252.68 C 783.51 245.87 785.58 241.03 786.21 241.24 C 787.43 241.64 801.90 267.79 801.96 269.71 C 802.02 271.48 795.28 285.38 792.89 288.41 C 790.81 291.06 787.75 291.67 784.90 290.01 Z M 760.80 251.25 C 756.10 246.23 754.55 242.04 754.58 234.50 C 754.61 227.80 759.26 205.55 761.02 203.64 C 761.89 202.70 768.54 211.37 775.63 222.70 L 780.14 229.90 L 776.44 239.20 C 771.71 251.08 769.67 254.00 766.12 254.00 C 764.42 254.00 762.40 252.96 760.80 251.25 Z M 737.63 220.92 C 734.07 218.12 729.41 211.18 728.60 207.47 C 727.98 204.63 730.63 170.04 731.54 169.13 C 732.24 168.43 734.97 171.09 745.17 182.40 C 750.58 188.40 755.00 194.03 755.00 194.90 C 755.00 195.78 753.40 201.31 751.43 207.20 C 746.28 222.68 743.44 225.50 737.63 220.92 Z M 706.78 193.50 C 703.09 191.03 699.61 188.14 699.04 187.07 C 697.78 184.72 697.60 142.00 698.85 142.00 C 699.96 142.00 706.39 146.63 717.31 155.29 L 726.13 162.28 L 725.47 166.39 C 722.95 181.99 717.54 198.00 714.79 198.00 C 714.07 198.00 710.46 195.98 706.78 193.50 Z M 609.37 732.51 C 594.81 729.34 583.38 722.99 570.67 711.00 C 530.44 673.05 504.96 595.50 505.01 511.10 C 505.06 419.54 537.77 331.74 583.36 300.76 C 610.94 282.02 644.57 283.12 675.91 303.79 C 690.22 313.23 708.36 334.16 719.63 354.23 C 764.75 434.58 769.27 558.46 730.27 645.60 C 709.10 692.89 676.05 725.16 641.25 732.53 C 632.92 734.30 617.55 734.29 609.37 732.51 Z M 638.79 716.45 C 688.27 706.48 731.24 636.16 740.52 550.00 C 742.45 532.15 742.42 495.47 740.47 475.89 C 733.71 408.12 706.90 347.40 672.20 321.27 C 656.16 309.20 642.95 304.52 625.00 304.58 C 615.13 304.61 612.39 305.00 605.62 307.35 C 595.83 310.73 585.97 317.03 578.06 324.94 C 571.92 331.08 570.82 333.00 573.46 333.00 C 576.00 333.00 591.40 341.42 597.64 346.22 C 634.00 374.20 660.96 438.58 660.99 497.50 C 660.99 510.63 658.66 514.46 648.45 518.07 C 640.82 520.78 622.76 521.80 613.82 520.04 C 607.41 518.78 599.21 515.20 597.31 512.83 C 596.73 512.10 595.95 507.23 595.58 502.00 C 592.50 458.50 583.36 422.71 566.95 389.85 C 562.54 381.01 552.27 365.00 551.01 365.00 C 550.60 365.00 548.86 368.15 547.14 371.99 L 544.01 378.98 L 547.38 384.24 C 561.08 405.68 572.64 439.87 577.40 473.00 C 585.37 528.51 577.84 586.55 556.76 632.00 C 554.84 636.12 551.68 641.84 549.74 644.70 L 546.20 649.91 L 549.12 656.09 C 552.03 662.25 552.05 662.26 554.13 660.39 C 557.96 656.92 568.78 639.64 574.65 627.61 C 581.49 613.58 582.31 613.00 595.40 613.00 C 615.64 613.00 636.00 621.49 636.00 629.92 C 636.00 636.84 625.72 654.05 615.38 664.43 C 604.74 675.12 592.56 682.87 577.57 688.51 L 571.64 690.74 L 577.01 696.42 C 593.41 713.76 615.92 721.06 638.79 716.45 Z M 545.70 622.27 C 553.75 604.85 560.65 578.99 564.19 553.00 C 565.01 547.04 565.47 533.26 565.43 516.00 C 565.37 485.04 563.82 471.32 557.60 446.75 C 552.92 428.25 544.28 406.20 538.14 397.10 C 537.46 396.09 536.22 398.74 533.69 406.60 C 526.17 429.98 520.82 461.36 518.97 493.04 C 516.44 536.34 523.47 590.35 536.24 625.81 C 539.71 635.45 539.59 635.49 545.70 622.27 Z M 688.10 723.81 C 739.82 671.99 768.69 582.51 763.05 491.50 C 761.18 461.22 758.28 441.89 751.82 416.50 C 743.16 382.47 731.01 354.19 713.57 327.50 C 705.61 315.33 697.03 305.16 685.22 293.93 C 677.61 286.69 675.51 284.25 678.00 285.50 C 692.66 292.90 712.20 311.84 724.73 330.77 C 755.58 377.40 772.25 441.13 772.27 512.50 C 772.29 565.21 763.90 608.96 745.58 651.62 C 731.87 683.57 709.36 713.54 688.50 727.64 C 677.64 734.98 677.58 734.35 688.10 723.81 Z M 628.00 705.49 C 627.17 705.29 624.80 704.86 622.73 704.52 C 617.66 703.69 612.24 698.82 611.40 694.33 C 609.84 686.01 615.76 678.12 626.62 674.02 C 631.48 672.19 633.98 671.88 641.00 672.22 C 650.77 672.70 655.12 674.50 658.04 679.30 C 660.58 683.46 660.51 686.57 657.75 692.04 C 655.26 696.98 648.22 702.35 642.16 703.92 C 637.56 705.11 629.97 705.95 628.00 705.49 Z M 658.60 663.02 C 657.01 662.51 654.43 660.87 652.88 659.38 C 642.83 649.75 649.65 631.00 665.83 623.78 C 672.06 620.99 684.07 620.75 688.79 623.31 C 695.92 627.17 698.25 637.71 693.95 646.60 C 691.37 651.93 684.24 658.56 678.24 661.22 C 673.07 663.51 663.00 664.43 658.60 663.02 Z M 680.50 605.50 C 663.69 599.58 666.07 570.15 684.11 560.94 C 697.21 554.26 712.10 560.17 715.02 573.20 C 717.19 582.88 712.55 595.43 704.54 601.54 C 697.59 606.84 688.54 608.33 680.50 605.50 Z M 691.50 539.10 C 689.30 538.09 686.29 535.96 684.80 534.38 C 674.09 522.95 675.39 500.06 687.19 492.26 C 693.07 488.36 701.10 487.98 708.27 491.27 C 717.36 495.43 722.00 503.40 722.00 514.84 C 722.00 526.79 718.07 534.29 709.61 538.51 C 703.58 541.51 697.16 541.72 691.50 539.10 Z M 689.99 470.07 C 684.97 468.54 681.14 465.97 677.19 461.48 C 667.23 450.16 667.53 432.28 677.79 425.36 C 690.31 416.92 710.61 426.75 715.12 443.44 C 716.70 449.26 715.69 459.15 713.08 463.37 C 709.22 469.61 698.61 472.69 689.99 470.07 Z M 668.36 404.92 C 657.17 400.62 649.00 389.69 649.00 379.05 C 649.01 368.77 654.57 363.60 665.50 363.72 C 681.85 363.90 695.63 375.64 696.68 390.29 C 697.20 397.50 695.24 401.66 689.76 405.01 C 685.40 407.66 675.39 407.62 668.36 404.92 Z M 631.87 351.44 C 624.06 349.03 617.84 344.17 614.75 338.07 C 611.64 331.92 611.39 329.40 613.42 324.53 C 614.39 322.22 616.23 320.41 619.11 318.94 C 628.12 314.35 646.25 318.08 654.84 326.30 C 664.50 335.55 664.27 347.48 654.36 351.62 C 650.14 353.39 637.88 353.29 631.87 351.44 Z" stroke-linecap="round"/>
</g>
</g>
</g>

  </svg>