<svg xmlns="http://www.w3.org/2000/svg" xmlns:xlink="http://www.w3.org/1999/xlink" width="500px" height="379px" viewBox="0 0 499.9999999999998 379.0637645821785">
    <g id="e33becf2-149c-4b85-bd0e-a372a54e253a">
<g style="">
		<g id="e33becf2-149c-4b85-bd0e-a372a54e253a-child-0">
<path style="stroke: rgb(193,193,193); stroke-width: 0; stroke-dasharray: none; stroke-linecap: butt; stroke-dashoffset: 0; stroke-linejoin: miter; stroke-miterlimit: 4; fill: rgb(0,0,0); fill-rule: nonzero; opacity: 1;" transform="matrix(0.866639 0 0 0.866639 249.999916 189.531819) matrix(1 0 0 1 0 0)  translate(-512.019349, -512.226121)" d="M 245.70 729.56 C 236.25 726.18 229.03 718.12 226.99 708.65 C 226.20 704.97 225.97 655.18 226.19 533.50 L 226.50 363.50 L 228.84 358.80 C 230.12 356.22 231.78 353.60 232.52 352.98 C 233.63 352.06 233.27 351.06 230.55 347.49 C 225.50 340.89 223.49 334.70 223.55 326.00 C 223.64 313.11 230.28 302.55 242.22 296.30 C 246.70 293.96 248.71 293.54 255.50 293.53 C 269.03 293.53 279.34 299.85 285.20 311.76 C 290.96 323.46 289.52 336.92 281.37 347.60 L 277.96 352.07 L 280.73 356.79 C 283.36 361.26 283.52 362.24 283.84 376.25 L 284.18 391.00 L 294.34 391.01 C 313.23 391.02 331.12 394.98 345.76 402.40 C 357.47 408.34 366.29 415.41 380.09 429.96 C 395.93 446.64 402.37 451.81 414.56 457.63 C 425.94 463.06 438.06 465.96 452.91 466.83 C 459.29 467.20 526.49 467.38 602.25 467.23 L 740.00 466.95 L 740.00 416.49 C 740.00 368.90 740.11 365.73 741.95 360.90 C 743.02 358.08 744.65 354.94 745.57 353.93 C 747.15 352.18 747.02 351.83 743.17 347.46 C 737.55 341.07 735.65 334.83 736.21 324.63 C 736.73 315.12 738.87 310.19 745.63 302.97 C 751.92 296.24 758.43 293.56 768.50 293.53 C 775.25 293.50 777.38 293.93 782.14 296.27 C 788.73 299.50 795.28 306.21 798.33 312.82 C 800.04 316.52 800.49 319.40 800.49 326.50 C 800.49 336.59 798.71 341.84 793.15 348.18 C 790.35 351.37 790.18 351.90 791.58 353.06 C 792.44 353.78 794.13 356.20 795.32 358.43 L 797.50 362.50 L 797.76 533.95 C 798.06 723.42 798.45 711.32 791.70 720.18 C 789.59 722.94 786.10 725.69 781.95 727.84 C 775.93 730.98 774.99 731.17 767.89 730.77 C 758.67 730.26 751.28 726.61 746.28 720.10 C 741.33 713.67 740.00 707.69 740.00 691.82 L 740.00 678.00 L 512.09 678.00 L 284.17 678.00 L 283.82 694.25 C 283.49 709.58 283.32 710.79 280.80 715.59 C 277.74 721.41 272.46 726.43 266.57 729.11 C 261.69 731.32 251.28 731.55 245.70 729.56 Z M 259.93 705.37 L 262.00 702.73 L 262.00 536.80 C 262.00 421.75 261.67 370.26 260.94 368.89 C 258.72 364.74 251.13 364.62 249.56 368.70 C 249.18 369.71 248.74 627.06 248.99 702.21 C 249.00 704.58 252.91 708.00 255.62 708.00 C 256.85 708.00 258.79 706.81 259.93 705.37 Z M 773.14 706.09 L 775.50 704.18 L 775.76 537.73 L 776.02 371.29 L 773.94 368.65 C 771.14 365.09 766.86 365.09 764.07 368.63 L 762.00 371.27 L 762.00 536.70 C 762.00 651.84 762.32 702.74 763.07 704.12 C 764.08 706.01 767.16 707.80 769.64 707.94 C 770.27 707.97 771.84 707.14 773.14 706.09 Z M 740.00 648.50 L 740.00 642.00 L 512.00 642.00 L 284.00 642.00 L 284.00 648.50 L 284.00 655.00 L 512.00 655.00 L 740.00 655.00 L 740.00 648.50 Z M 740.14 612.50 C 739.95 609.20 739.57 606.28 739.31 606.00 C 738.99 605.66 303.21 605.65 284.75 605.99 C 284.34 605.99 284.00 608.93 284.00 612.50 L 284.00 619.00 L 512.25 618.75 L 740.50 618.50 L 740.14 612.50 Z M 740.00 576.50 L 740.00 570.00 L 512.00 570.00 L 284.00 570.00 L 284.00 576.50 L 284.00 583.00 L 512.00 583.00 L 740.00 583.00 L 740.00 576.50 Z M 740.00 518.52 L 740.00 490.05 L 588.75 489.72 C 450.59 489.42 436.91 489.24 430.68 487.70 C 402.98 480.81 389.09 472.29 366.20 448.11 C 342.39 422.96 326.88 415.34 297.25 414.23 L 284.00 413.74 L 284.00 480.37 L 284.00 547.00 L 512.00 547.00 L 740.00 547.00 L 740.00 518.52 Z M 263.41 332.92 C 269.86 325.26 263.09 314.00 253.47 316.42 C 245.88 318.32 243.69 327.78 249.50 333.59 C 251.32 335.42 252.99 336.00 256.37 336.00 C 260.11 336.00 261.23 335.51 263.41 332.92 Z M 775.55 333.55 C 777.42 331.67 778.00 330.03 778.00 326.60 C 778.00 320.67 775.01 317.08 769.45 316.33 C 766.08 315.88 764.88 316.23 762.27 318.42 C 757.09 322.78 757.03 329.16 762.13 333.90 C 765.42 336.98 772.30 336.79 775.55 333.55 Z" stroke-linecap="round"/>
</g>
</g>
</g>

  </svg>