<svg xmlns="http://www.w3.org/2000/svg" xmlns:xlink="http://www.w3.org/1999/xlink" width="500px" height="382px" viewBox="0 0 500 381.5469182728141">
    <g id="b4563fb6-81dc-4b11-963b-9e503c9b7e68">
<g style="">
		<g id="b4563fb6-81dc-4b11-963b-9e503c9b7e68-child-0">
<path style="stroke: rgb(193,193,193); stroke-width: 0; stroke-dasharray: none; stroke-linecap: butt; stroke-dashoffset: 0; stroke-linejoin: miter; stroke-miterlimit: 4; fill: rgb(0,0,0); fill-rule: nonzero; opacity: 1;" transform="matrix(0.755623 0 0 0.755623 249.99995 190.773421) matrix(1 0 0 1 0 0)  translate(-511.960237, -511.528303)" d="M 186.76 762.43 C 181.13 759.38 179.36 751.20 183.03 745.19 C 187.01 738.66 179.97 739.00 310.47 739.00 L 429.00 739.00 L 429.00 688.09 L 429.00 637.17 L 424.24 633.67 C 421.62 631.75 415.11 625.68 409.78 620.18 C 392.16 602.03 381.24 581.85 375.54 556.90 C 374.38 551.86 373.16 549.39 370.35 546.41 C 363.70 539.36 362.50 535.33 362.50 520.00 C 362.50 504.13 363.81 500.14 371.54 492.40 L 376.25 487.70 L 371.55 450.60 C 368.97 430.20 366.13 407.54 365.23 400.25 L 363.60 387.00 L 358.55 386.99 C 351.27 386.99 346.49 385.37 343.60 381.94 C 340.04 377.70 339.36 372.97 341.65 368.29 C 344.00 363.48 348.80 361.00 355.80 361.00 L 361.09 361.00 L 360.57 357.75 C 360.29 355.96 359.32 348.73 358.42 341.69 C 356.95 330.17 356.44 328.37 353.41 323.86 C 348.67 316.82 347.00 310.34 347.00 299.00 C 347.00 283.13 351.28 273.49 361.62 266.08 C 372.27 258.46 363.16 258.87 514.50 259.20 L 649.50 259.50 L 655.60 262.32 C 663.04 265.76 671.07 273.62 674.15 280.50 C 675.86 284.30 676.50 287.93 676.81 295.63 C 677.32 308.37 675.94 314.88 671.09 322.49 C 667.37 328.34 667.21 328.98 665.07 346.50 C 662.90 364.31 648.51 477.21 647.54 484.04 C 647.10 487.21 647.51 488.02 651.68 492.04 C 658.38 498.49 661.29 505.46 661.82 516.28 C 662.27 525.49 660.82 535.52 658.35 540.30 C 657.54 541.85 655.39 544.78 653.56 546.81 C 651.18 549.45 649.88 552.21 649.00 556.50 C 645.86 571.73 636.78 591.64 626.40 606.05 C 620.03 614.90 608.04 627.38 600.25 633.27 L 595.00 637.24 L 595.00 688.12 L 595.00 739.00 L 713.53 739.00 C 814.43 739.00 832.58 739.21 835.51 740.44 C 843.73 743.87 845.36 754.53 838.61 760.72 L 835.03 764.00 L 512.26 763.96 C 228.73 763.92 189.17 763.74 186.76 762.43 Z M 569.00 696.09 L 569.00 653.18 L 559.53 656.57 C 542.80 662.54 531.82 664.35 512.00 664.40 C 492.24 664.45 482.94 663.04 467.06 657.58 C 461.80 655.77 456.71 653.96 455.75 653.54 C 454.10 652.83 454.00 655.22 454.00 695.89 L 454.00 739.00 L 511.50 739.00 L 569.00 739.00 L 569.00 696.09 Z M 538.84 636.98 C 577.43 626.93 608.48 598.71 621.08 562.25 L 622.89 557.00 L 511.95 557.00 C 450.93 557.00 401.00 557.21 401.00 557.48 C 401.00 557.74 402.07 560.79 403.37 564.26 C 417.69 602.30 451.81 630.76 492.50 638.60 C 503.09 640.65 528.14 639.77 538.84 636.98 Z M 635.12 529.36 C 635.88 528.43 636.63 524.62 636.84 520.59 C 637.13 514.78 636.85 513.05 635.35 511.22 L 633.50 508.98 L 511.50 508.97 C 397.62 508.97 389.42 509.08 388.25 510.67 C 386.40 513.20 386.62 526.02 388.56 528.78 L 390.11 531.00 L 511.93 531.00 C 623.58 531.00 633.87 530.86 635.12 529.36 Z M 618.05 483.39 L 621.60 482.80 L 623.24 470.15 C 624.14 463.19 628.28 431.27 632.44 399.20 C 636.60 367.14 640.00 340.25 640.00 339.45 C 640.00 338.19 623.18 338.00 511.43 338.00 C 389.46 338.00 382.89 338.09 383.37 339.75 C 383.65 340.71 384.41 345.89 385.06 351.25 L 386.25 361.00 L 405.17 361.00 C 419.93 361.00 424.73 361.33 426.96 362.48 C 436.11 367.21 436.46 379.26 427.61 384.61 C 424.94 386.23 422.00 386.55 406.99 386.83 L 389.47 387.16 L 395.67 435.33 C 399.08 461.82 401.90 483.61 401.93 483.75 C 402.08 484.29 614.73 483.94 618.05 483.39 Z M 649.59 309.69 C 651.70 307.23 652.00 305.90 652.00 298.88 C 652.00 294.47 651.54 290.00 650.97 288.94 C 648.21 283.78 654.30 284.00 512.00 284.00 C 369.70 284.00 375.79 283.78 373.03 288.94 C 372.46 290.00 372.00 294.40 372.00 298.71 C 372.00 307.11 373.31 310.37 377.36 312.02 C 378.55 312.50 438.95 312.80 513.34 312.69 L 647.17 312.50 L 649.59 309.69 Z" stroke-linecap="round"/>
</g>
</g>
</g>

  </svg>