<svg xmlns="http://www.w3.org/2000/svg" xmlns:xlink="http://www.w3.org/1999/xlink" width="500px" height="431px" viewBox="0 0 500 430.7319839308959">
    <g id="257c9571-efec-494f-b839-e18d2bd6ed37">
<g style="">
		<g id="257c9571-efec-494f-b839-e18d2bd6ed37-child-0">
<path style="stroke: rgb(193,193,193); stroke-width: 0; stroke-dasharray: none; stroke-linecap: butt; stroke-dashoffset: 0; stroke-linejoin: miter; stroke-miterlimit: 4; fill: rgb(0,0,0); fill-rule: nonzero; opacity: 1;" transform="matrix(0.934368 0 0 0.934368 250.000114 215.366091) matrix(1 0 0 1 0 0)  translate(-511.598335, -512.146867)" d="M 308.50 742.01 C 283.01 738.13 261.53 721.87 250.89 698.42 C 245.08 685.59 245.17 687.16 244.65 590.83 C 244.22 509.58 244.32 501.88 245.84 498.84 C 246.75 497.02 248.62 494.97 250.00 494.28 C 251.95 493.31 274.05 493.03 350.00 493.02 C 444.79 493.01 447.59 493.06 450.69 494.95 C 456.02 498.20 456.46 499.91 457.00 519.50 C 457.49 537.07 457.57 537.65 460.59 544.00 C 464.37 551.92 470.30 558.02 477.84 561.72 L 483.50 564.50 L 512.02 564.50 L 540.54 564.50 L 547.16 561.24 C 554.88 557.44 560.17 552.01 563.85 544.12 C 566.31 538.86 566.51 537.30 566.99 519.95 C 567.42 504.24 567.78 500.98 569.33 498.62 C 573.13 492.82 569.92 493.00 668.01 493.00 L 758.08 493.00 L 757.79 484.75 L 757.50 476.50 L 665.96 476.00 C 583.91 475.55 574.16 475.33 571.95 473.89 C 569.16 472.06 567.95 469.96 564.94 461.72 C 560.99 450.88 552.36 442.32 542.48 439.45 C 538.03 438.16 532.24 437.94 509.29 438.19 C 482.23 438.49 481.38 438.56 477.00 440.88 C 467.09 446.13 460.58 454.02 457.99 463.91 C 457.36 466.33 456.13 469.40 455.27 470.71 C 451.66 476.23 456.12 476.00 350.61 476.00 C 289.71 476.00 252.17 475.63 250.57 475.02 C 249.16 474.49 247.10 472.58 246.00 470.77 C 244.25 467.89 244.01 465.77 244.04 453.00 C 244.10 423.68 249.96 407.59 266.43 391.50 C 274.13 383.98 281.33 379.25 291.04 375.33 C 303.13 370.45 307.65 370.04 349.75 370.02 L 389.00 370.00 L 389.00 351.21 C 389.00 330.47 389.91 325.00 395.09 314.47 C 402.71 299.00 417.80 287.01 434.66 283.06 C 442.37 281.24 581.38 281.16 589.00 282.97 C 606.14 287.02 621.40 298.99 629.29 314.57 C 634.02 323.92 635.00 330.15 635.00 350.83 L 635.00 369.86 L 677.25 370.23 C 718.27 370.58 719.70 370.65 726.50 372.91 C 755.81 382.62 775.94 405.96 778.78 433.50 C 779.18 437.35 779.28 495.17 779.00 562.00 L 778.50 683.50 L 775.85 691.28 C 767.75 715.01 749.42 732.61 724.84 740.22 L 717.50 742.49 L 515.50 742.63 C 404.40 742.70 311.25 742.42 308.50 742.01 Z M 722.50 718.22 C 738.95 711.97 750.41 699.62 755.66 682.50 C 757.39 676.86 757.49 671.67 757.28 596.11 C 757.16 551.90 756.81 515.48 756.51 515.18 C 755.82 514.49 747.51 514.45 660.75 514.75 L 589.00 515.00 L 589.00 525.29 C 589.00 537.33 587.37 544.63 582.43 554.75 C 576.21 567.50 563.38 578.96 549.46 584.21 C 543.74 586.37 542.21 586.46 512.00 586.48 C 480.62 586.50 480.47 586.49 473.98 583.96 C 456.99 577.33 444.72 564.70 438.20 547.12 C 436.24 541.82 435.65 537.96 435.24 527.75 L 434.73 515.00 L 350.37 515.00 L 266.00 515.00 L 266.02 593.75 C 266.04 680.25 266.03 680.18 272.05 692.11 C 275.92 699.77 286.17 710.69 292.96 714.38 C 295.67 715.86 301.17 717.92 305.19 718.98 C 312.30 720.85 318.13 720.90 514.50 720.70 L 716.50 720.50 L 722.50 718.22 Z M 440.90 447.75 C 447.44 433.69 462.45 421.61 478.46 417.52 C 486.96 415.35 535.67 415.36 544.90 417.54 C 560.56 421.23 576.42 433.78 583.10 447.78 L 586.50 454.90 L 672.00 454.70 L 757.50 454.50 L 757.40 444.50 C 757.22 427.77 752.85 416.90 742.28 406.89 C 735.47 400.44 731.30 397.76 723.35 394.73 L 717.50 392.50 L 515.50 392.20 C 369.05 391.99 311.85 392.22 307.50 393.03 C 289.77 396.35 274.94 409.32 268.88 426.80 C 266.89 432.57 265.17 450.40 266.32 453.40 C 266.88 454.85 274.99 455.00 352.23 455.00 L 437.53 455.00 L 440.90 447.75 Z M 427.17 352.25 C 427.48 335.61 427.65 334.23 429.93 330.26 C 431.26 327.93 434.15 324.78 436.34 323.26 L 440.33 320.50 L 511.41 320.26 L 582.50 320.01 L 586.46 322.26 C 588.64 323.50 591.79 326.46 593.46 328.84 L 596.50 333.16 L 596.81 351.58 L 597.12 370.00 L 605.56 370.00 L 614.00 370.00 L 614.00 353.71 C 614.00 334.79 612.71 328.21 607.44 320.23 C 602.78 313.18 593.84 306.71 585.81 304.58 C 580.13 303.06 572.48 302.92 508.98 303.20 L 438.46 303.50 L 431.81 306.77 C 423.50 310.86 416.03 318.75 412.88 326.75 C 410.88 331.82 410.57 334.71 410.21 351.25 L 409.81 370.00 L 418.33 370.00 L 426.84 370.00 L 427.17 352.25 Z M 575.00 355.49 L 575.00 340.98 L 512.25 341.24 L 449.50 341.50 L 449.22 355.75 L 448.95 370.00 L 511.97 370.00 L 575.00 370.00 L 575.00 355.49 Z M 487.13 546.88 C 482.11 545.39 478.24 542.12 476.00 537.49 C 474.13 533.63 474.00 531.31 474.00 500.52 L 474.00 467.68 L 476.40 463.58 C 477.74 461.29 480.56 458.49 482.79 457.24 C 486.62 455.09 487.73 455.00 511.94 455.00 C 539.18 455.00 539.96 455.13 545.19 460.66 C 546.66 462.22 548.35 464.77 548.94 466.32 C 549.61 468.10 549.99 480.97 549.98 501.32 C 549.97 532.80 549.92 533.59 547.73 537.46 C 546.49 539.64 543.54 542.79 541.16 544.46 L 536.83 547.50 L 513.67 547.69 C 500.46 547.80 489.05 547.45 487.13 546.88 Z M 528.00 501.00 L 528.00 476.00 L 512.00 476.00 L 496.00 476.00 L 496.00 501.00 L 496.00 526.00 L 512.00 526.00 L 528.00 526.00 L 528.00 501.00 Z M 309.91 702.10 C 294.86 697.29 284.69 684.57 283.37 668.92 C 282.57 659.43 283.99 654.58 288.35 651.93 C 293.03 649.07 298.31 649.41 302.12 652.81 C 305.00 655.39 305.32 656.31 305.99 663.88 C 306.49 669.60 307.32 672.97 308.67 674.82 C 311.43 678.62 318.57 682.00 323.81 682.00 C 327.47 682.00 328.77 682.57 331.60 685.40 C 335.43 689.23 336.01 693.14 333.48 698.03 C 330.38 704.04 321.01 705.65 309.91 702.10 Z M 361.28 703.30 C 360.07 703.06 357.93 701.51 356.53 699.86 C 352.92 695.56 353.07 690.07 356.92 685.77 L 359.84 682.50 L 426.17 682.22 C 462.65 682.06 493.44 682.16 494.59 682.45 C 495.74 682.73 497.88 684.15 499.34 685.62 C 502.46 688.73 502.99 695.14 500.44 698.78 C 496.70 704.12 498.24 704.01 428.30 703.86 C 392.66 703.79 362.50 703.53 361.28 703.30 Z M 527.31 702.54 C 523.98 701.09 521.00 696.58 521.00 693.00 C 521.00 689.60 523.81 685.15 527.01 683.50 C 529.61 682.15 538.29 681.99 596.97 682.23 L 663.96 682.50 L 666.55 685.10 C 669.63 688.17 670.69 694.33 668.78 698.00 C 668.06 699.38 665.90 701.29 663.99 702.25 C 660.77 703.86 655.43 703.99 595.50 703.96 C 542.37 703.93 529.92 703.67 527.31 702.54 Z M 692.51 700.71 C 687.84 696.04 687.61 690.59 691.86 685.83 C 694.36 683.04 695.57 682.54 701.46 681.94 C 705.61 681.51 709.23 680.49 710.85 679.31 C 715.10 676.22 718.00 669.47 718.00 662.69 C 718.00 657.33 718.30 656.50 721.40 653.40 C 724.19 650.61 725.56 650.00 729.00 650.00 C 732.47 650.00 733.81 650.61 736.72 653.52 L 740.23 657.03 L 739.81 666.77 C 739.29 678.76 736.36 685.48 728.33 693.07 C 720.90 700.10 713.48 703.35 703.76 703.83 C 696.03 704.21 696.00 704.20 692.51 700.71 Z M 724.33 631.54 C 719.05 629.24 718.29 626.95 717.68 611.33 C 717.05 595.52 717.81 591.08 721.67 588.05 C 724.98 585.44 732.57 585.29 735.63 587.77 C 739.52 590.92 740.00 593.32 740.00 609.71 C 740.00 627.37 739.49 629.06 733.40 631.61 C 729.33 633.31 728.37 633.30 724.33 631.54 Z M 287.67 629.95 C 284.09 627.14 283.01 622.36 283.03 609.50 C 283.05 596.11 284.09 591.20 287.50 588.25 C 290.78 585.43 298.42 585.17 301.63 587.77 C 305.50 590.90 306.00 593.34 306.00 609.03 C 306.00 625.48 305.16 628.69 300.29 630.91 C 296.44 632.67 290.55 632.22 287.67 629.95 Z M 290.10 567.78 C 284.77 564.94 283.53 561.72 283.16 549.79 C 282.70 535.06 283.48 530.36 286.96 526.89 C 292.01 521.84 298.02 521.87 303.13 526.97 L 306.00 529.85 L 306.00 544.86 C 306.00 553.11 305.57 561.00 305.04 562.38 C 303.17 567.31 294.85 570.32 290.10 567.78 Z M 724.10 567.79 C 719.00 565.06 718.15 562.46 717.54 547.85 C 716.94 533.45 717.48 530.26 721.23 526.27 C 725.50 521.71 733.85 522.45 738.03 527.77 C 739.80 530.02 740.00 531.88 740.00 546.12 L 740.00 561.97 L 737.25 565.05 C 734.06 568.61 727.99 569.88 724.10 567.79 Z" stroke-linecap="round"/>
</g>
</g>
</g>

  </svg>