<svg xmlns="http://www.w3.org/2000/svg" xmlns:xlink="http://www.w3.org/1999/xlink" width="500px" height="474px" viewBox="0 0 499.9999999999998 473.5193612422895">
    <g id="2328ddda-b9d0-4c7f-9976-e70bca58c06c">
<g style="">
		<g id="2328ddda-b9d0-4c7f-9976-e70bca58c06c-child-0">
<path style="stroke: rgb(193,193,193); stroke-width: 0; stroke-dasharray: none; stroke-linecap: butt; stroke-dashoffset: 0; stroke-linejoin: miter; stroke-miterlimit: 4; fill: rgb(0,0,0); fill-rule: nonzero; opacity: 1;" transform="matrix(0.830516 0 0 0.830516 250.00015 236.759823) matrix(1 0 0 1 0 0)  translate(-511.944343, -511.971178)" d="M 216.31 795.05 C 210.85 791.72 209.43 785.94 212.57 779.87 C 214.88 775.41 219.31 774.00 231.07 774.00 C 245.74 774.00 251.00 777.22 251.00 786.23 C 251.00 794.18 245.57 797.00 230.28 797.00 C 221.37 796.99 218.95 796.66 216.31 795.05 Z M 282.76 795.43 C 277.41 792.53 275.52 785.31 278.71 779.92 C 281.78 774.71 284.91 774.00 304.77 774.00 L 322.74 774.00 L 323.42 768.92 C 323.79 766.12 325.04 761.28 326.21 758.17 C 330.41 746.93 343.93 737.00 355.02 737.00 C 358.28 737.00 359.06 736.61 359.51 734.75 C 360.77 729.54 392.92 567.59 392.72 567.45 C 380.08 558.36 372.66 552.42 370.63 549.76 C 363.73 540.71 361.43 528.70 364.46 517.50 C 367.73 505.43 368.13 505.06 411.08 473.90 C 432.76 458.17 452.88 443.60 455.79 441.53 C 458.70 439.45 460.80 437.47 460.46 437.13 C 460.12 436.78 434.33 436.27 403.17 436.00 L 346.50 435.50 L 340.97 432.78 C 332.53 428.64 327.54 423.80 323.63 415.98 C 319.56 407.86 318.40 400.67 319.88 392.71 C 321.09 386.12 339.96 334.86 343.80 327.70 C 347.07 321.61 352.71 316.50 359.88 313.14 C 364.72 310.87 366.82 310.50 375.00 310.50 C 383.07 310.51 385.18 310.86 389.00 312.88 C 393.67 315.35 420.43 334.34 456.33 360.65 C 474.70 374.12 477.38 375.78 479.08 374.72 C 480.13 374.06 481.00 373.11 481.00 372.61 C 481.00 372.10 474.05 350.72 465.56 325.10 C 447.83 271.56 448.01 272.18 448.01 265.36 C 447.99 248.72 460.42 232.63 476.46 228.52 C 484.73 226.41 539.90 226.33 547.76 228.43 C 554.96 230.34 560.68 233.88 566.32 239.91 C 573.01 247.06 575.20 252.56 575.76 263.60 L 576.23 272.71 L 559.52 322.92 C 550.33 350.54 542.96 373.24 543.15 373.35 C 543.34 373.47 544.26 374.15 545.19 374.86 C 546.68 375.99 552.17 372.31 589.14 345.43 C 612.38 328.54 633.44 313.77 635.94 312.61 C 643.01 309.35 656.59 309.61 664.12 313.14 C 670.91 316.32 677.28 321.89 680.46 327.42 C 681.75 329.66 687.67 344.55 693.60 360.50 L 704.40 389.50 L 704.45 399.00 C 704.50 407.54 704.20 409.10 701.56 414.49 C 697.82 422.11 691.11 428.82 683.49 432.56 L 677.50 435.50 L 620.25 435.77 C 588.76 435.92 563.01 436.37 563.02 436.77 C 563.04 437.45 574.40 445.78 627.89 484.36 C 651.88 501.66 655.07 504.51 658.18 511.39 C 660.13 515.70 660.49 518.13 660.46 527.00 C 660.42 543.04 657.09 548.75 640.77 560.72 C 635.95 564.26 632.00 567.64 632.00 568.23 C 632.00 569.36 636.82 594.43 650.41 664.00 C 655.09 687.92 660.12 713.88 661.61 721.69 L 664.30 735.87 L 668.40 736.51 C 680.15 738.32 689.17 743.85 694.70 752.63 C 698.09 758.01 699.51 762.10 700.48 769.25 L 701.12 774.00 L 719.61 774.00 C 740.03 774.00 742.72 774.62 745.48 779.97 C 748.45 785.71 746.45 792.68 741.03 795.48 C 738.44 796.83 712.17 797.00 511.80 796.96 C 313.59 796.92 285.16 796.74 282.76 795.43 Z M 678.00 771.90 C 678.00 768.43 675.15 763.52 672.08 761.71 C 669.39 760.12 658.33 760.00 511.32 760.00 C 366.98 760.00 353.25 760.14 351.12 761.63 C 348.61 763.38 346.00 768.66 346.00 771.97 L 346.00 774.00 L 512.00 774.00 L 678.00 774.00 L 678.00 771.90 Z M 520.22 736.01 L 640.95 736.00 L 640.45 733.25 C 637.36 716.07 623.93 649.59 623.46 649.12 C 623.11 648.78 572.81 648.50 511.67 648.50 L 400.50 648.50 L 392.33 689.00 C 387.83 711.28 383.88 730.93 383.55 732.67 C 382.79 736.59 383.96 737.06 393.00 736.45 C 396.58 736.21 453.83 736.01 520.22 736.01 Z M 619.00 623.83 C 619.00 621.77 611.78 585.54 611.13 584.34 C 610.72 583.58 607.47 585.21 601.72 589.07 C 591.10 596.20 584.07 598.50 575.66 597.62 C 569.25 596.95 560.63 593.48 555.32 589.43 C 547.67 583.59 548.42 585.44 518.22 498.00 C 514.90 488.38 511.92 481.17 511.61 482.00 C 511.30 482.83 504.10 503.59 495.61 528.15 C 487.12 552.71 479.29 574.76 478.21 577.15 C 474.95 584.37 469.60 589.59 461.25 593.72 C 454.25 597.18 452.93 597.49 445.55 597.43 C 436.13 597.34 431.64 595.65 420.37 587.97 C 416.32 585.21 413.00 583.23 413.00 583.56 C 413.00 583.90 411.20 593.20 409.00 604.25 C 406.80 615.29 405.00 624.47 405.00 624.66 C 405.00 624.85 453.15 625.00 512.00 625.00 C 592.92 625.00 619.00 624.72 619.00 623.83 Z M 454.54 570.86 C 457.40 567.95 460.03 561.17 474.42 519.74 C 483.54 493.47 491.00 471.32 491.00 470.52 C 491.00 469.72 488.61 467.53 485.68 465.66 C 482.75 463.79 478.80 460.89 476.90 459.22 L 473.44 456.18 L 467.47 460.68 C 460.28 466.11 445.24 477.10 414.50 499.41 C 401.85 508.59 390.26 517.44 388.75 519.07 C 386.59 521.40 386.00 523.00 386.00 526.57 C 386.00 529.06 386.66 532.38 387.48 533.95 C 388.40 535.73 398.26 543.54 413.73 554.73 C 427.35 564.60 439.40 573.20 440.50 573.86 C 441.60 574.52 444.47 574.87 446.87 574.64 C 450.20 574.32 452.04 573.41 454.54 570.86 Z M 584.04 573.23 C 587.93 571.25 628.75 542.03 633.69 537.70 C 640.71 531.53 640.53 523.36 633.21 517.00 C 629.24 513.55 557.43 461.16 552.16 457.87 C 550.72 456.97 549.22 457.67 543.77 461.80 C 540.11 464.56 536.20 467.12 535.06 467.48 C 533.93 467.84 533.00 468.53 533.00 469.02 C 533.00 469.89 557.17 541.47 563.18 558.37 C 566.75 568.41 569.74 572.57 574.33 573.90 C 579.02 575.26 580.23 575.18 584.04 573.23 Z M 525.15 447.26 C 538.46 441.36 546.30 424.92 542.55 410.75 C 538.77 396.50 528.55 388.07 514.00 387.24 C 503.34 386.62 496.89 389.18 489.81 396.85 C 483.46 403.73 480.99 409.94 481.00 419.00 C 481.01 431.38 489.31 443.20 501.36 447.98 C 507.91 450.58 518.38 450.26 525.15 447.26 Z M 411.73 413.01 L 457.96 413.00 L 458.57 410.25 C 458.90 408.74 460.10 404.61 461.23 401.07 L 463.28 394.65 L 459.89 391.93 C 458.03 390.43 449.75 384.30 441.50 378.29 C 433.25 372.28 416.29 359.90 403.82 350.78 C 391.35 341.66 379.60 333.69 377.73 333.07 C 373.35 331.63 367.48 333.44 364.79 337.06 C 361.61 341.36 342.04 395.01 342.02 399.50 C 342.01 404.04 344.78 409.26 348.20 411.13 C 351.34 412.85 357.77 413.92 362.00 413.43 C 363.92 413.21 386.30 413.02 411.73 413.01 Z M 675.40 411.15 C 679.99 408.53 682.34 404.64 682.27 399.79 C 682.22 396.91 678.89 386.69 672.15 368.79 C 660.41 337.62 659.89 336.51 656.03 334.52 C 650.24 331.52 645.95 332.47 637.36 338.63 C 621.84 349.76 561.00 394.17 561.00 394.37 C 561.00 394.48 561.86 397.03 562.91 400.03 C 563.97 403.04 565.14 407.18 565.52 409.24 L 566.22 412.98 L 613.36 413.28 C 666.65 413.63 671.35 413.46 675.40 411.15 Z M 522.00 362.83 C 522.00 362.44 529.23 340.66 538.07 314.43 C 555.68 262.15 555.65 262.30 550.20 255.83 C 545.50 250.24 543.91 250.00 511.48 250.00 C 479.71 250.00 479.04 250.10 474.13 255.34 C 472.61 256.98 471.58 259.56 471.23 262.61 C 470.76 266.79 472.56 272.96 486.60 315.42 L 502.50 363.50 L 512.25 363.52 C 517.61 363.53 522.00 363.23 522.00 362.83 Z M 779.32 795.39 C 770.47 791.02 771.68 778.72 781.32 775.07 C 785.86 773.35 802.61 773.72 806.64 775.63 C 814.95 779.58 815.10 791.31 806.90 795.55 C 802.88 797.63 783.64 797.51 779.32 795.39 Z M 430.31 709.05 C 425.63 706.19 425.00 704.23 425.00 692.52 C 425.00 680.16 426.12 677.12 431.60 674.52 C 434.71 673.04 435.89 672.95 439.19 673.94 C 445.53 675.84 446.99 679.32 447.00 692.53 C 447.00 704.62 446.23 706.79 440.99 709.51 C 437.11 711.51 434.14 711.38 430.31 709.05 Z M 481.10 702.76 C 472.46 698.23 472.73 686.10 481.55 682.42 C 486.66 680.28 526.91 680.39 531.47 682.55 C 538.63 685.95 539.85 694.89 533.92 700.57 L 530.87 703.50 L 507.19 703.76 C 489.62 703.96 482.88 703.70 481.10 702.76 Z" stroke-linecap="round"/>
</g>
</g>
</g>

  </svg>