<svg xmlns="http://www.w3.org/2000/svg" xmlns:xlink="http://www.w3.org/1999/xlink" width="457px" height="500px" viewBox="0 0 457.33760424571074 500">
    <g id="36836603-878f-43ae-a634-21e93c4ea994">
<g style="">
		<g id="36836603-878f-43ae-a634-21e93c4ea994-child-0">
<path style="stroke: rgb(193,193,193); stroke-width: 0; stroke-dasharray: none; stroke-linecap: butt; stroke-dashoffset: 0; stroke-linejoin: miter; stroke-miterlimit: 4; fill: rgb(0,0,0); fill-rule: nonzero; opacity: 1;" transform="matrix(0.980534 0 0 0.980534 228.668709 249.999898) matrix(1 0 0 1 0 0)  translate(-511.688245, -511.963008)" d="M 386.69 765.50 C 368.42 760.48 353.66 744.94 350.11 727.00 C 349.07 721.76 346.48 693.80 331.51 526.50 C 321.77 417.53 321.50 414.93 319.90 413.92 C 319.13 413.43 317.56 413.02 316.41 413.02 C 312.63 412.99 303.11 409.18 297.49 405.45 C 275.09 390.58 271.95 359.76 290.93 341.00 C 302.02 330.03 311.59 327.04 335.75 327.02 L 351.00 327.00 L 351.00 314.68 C 351.00 307.91 351.49 299.70 352.08 296.43 C 355.47 277.92 370.82 261.90 388.80 258.11 C 392.52 257.33 429.24 257.00 512.34 257.00 C 613.92 257.00 631.39 257.21 636.31 258.49 C 652.24 262.64 664.47 273.89 670.12 289.58 C 671.93 294.60 672.27 297.90 672.38 311.25 L 672.50 327.00 L 687.57 327.00 C 695.85 327.00 705.30 327.49 708.57 328.08 C 722.43 330.62 734.93 340.01 741.10 352.54 C 743.88 358.19 744.46 360.62 744.81 367.97 C 745.33 378.84 743.57 385.42 737.84 394.00 C 731.00 404.25 716.50 413.00 706.37 413.00 C 702.50 413.00 702.94 410.84 699.95 444.50 C 698.82 457.15 694.34 505.75 689.99 552.50 C 685.63 599.25 680.23 657.30 677.99 681.50 C 675.18 711.74 673.30 727.57 671.96 732.12 C 667.38 747.73 653.33 761.34 637.54 765.45 C 632.30 766.81 617.00 766.99 511.54 766.91 C 415.33 766.84 390.55 766.56 386.69 765.50 Z M 630.32 737.93 C 634.88 736.66 641.21 731.21 643.31 726.73 C 644.14 724.95 645.10 720.58 645.44 717.00 C 649.25 676.83 673.00 416.56 673.00 414.94 C 673.00 414.36 612.16 414.00 512.00 414.00 L 351.00 414.00 L 351.00 416.03 C 351.00 417.14 354.13 451.68 357.95 492.78 C 361.77 533.87 366.53 586.40 368.52 609.50 C 370.51 632.60 373.63 667.83 375.45 687.80 C 378.70 723.39 378.83 724.18 381.65 728.75 C 383.71 732.08 386.06 734.21 389.88 736.21 L 395.23 739.00 L 510.86 738.99 C 589.30 738.99 627.73 738.65 630.32 737.93 Z M 707.28 383.63 C 712.69 381.32 715.29 377.68 715.72 371.76 C 716.23 364.96 713.67 360.63 707.56 357.92 C 703.25 356.02 699.36 355.99 509.83 356.24 L 316.50 356.50 L 313.23 358.83 C 304.52 365.05 305.09 376.94 314.37 382.51 L 318.50 384.98 L 511.28 384.99 C 672.37 385.00 704.59 384.77 707.28 383.63 Z M 643.84 312.67 C 643.52 299.09 643.36 298.14 640.82 294.30 C 639.20 291.86 636.39 289.40 633.75 288.12 L 629.37 286.00 L 511.75 286.00 C 430.87 286.00 393.25 286.33 391.32 287.07 C 387.31 288.58 384.03 291.87 381.89 296.50 C 380.39 299.74 380.04 303.01 380.02 313.75 L 380.00 327.00 L 512.09 327.00 L 644.19 327.00 L 643.84 312.67 Z M 416.74 702.57 C 407.93 699.43 407.55 698.25 404.55 664.90 C 396.31 573.30 387.92 470.69 388.26 465.61 C 388.61 460.25 389.01 459.38 392.63 456.01 C 398.05 450.95 402.70 450.14 408.82 453.19 C 416.42 456.97 416.73 458.05 419.49 490.13 C 420.84 505.74 424.43 547.08 427.47 582.00 C 436.28 683.10 436.80 690.12 435.87 693.50 C 434.77 697.49 430.30 701.77 425.93 703.02 C 421.69 704.24 421.36 704.22 416.74 702.57 Z M 478.12 702.91 C 473.77 701.99 470.14 699.25 468.00 695.26 C 466.57 692.60 466.18 687.68 465.60 664.79 C 465.22 649.78 464.28 617.47 463.50 593.00 C 459.51 467.14 459.47 463.65 461.67 459.38 C 463.91 455.04 469.94 451.04 474.28 451.02 C 481.02 450.98 488.41 456.95 489.45 463.28 C 489.97 466.40 492.92 555.60 494.97 630.00 C 495.52 650.08 496.17 671.92 496.42 678.55 C 496.79 688.75 496.58 691.23 495.01 694.72 C 492.13 701.16 485.35 704.44 478.12 702.91 Z M 536.50 702.50 C 532.19 700.97 528.35 697.01 527.31 693.02 C 526.96 691.65 527.65 661.95 528.85 627.02 C 530.04 592.08 531.70 541.67 532.52 515.00 C 533.35 488.33 534.26 465.03 534.56 463.23 C 535.85 455.38 545.24 449.56 552.91 451.85 C 557.19 453.14 562.60 458.55 563.60 462.55 C 564.70 466.91 557.48 690.61 556.13 694.15 C 554.74 697.79 550.12 701.87 546.13 702.98 C 541.61 704.24 541.38 704.23 536.50 702.50 Z M 596.74 702.60 C 589.98 700.13 587.00 695.97 587.00 689.03 C 587.00 686.79 589.26 660.33 592.01 630.23 C 594.77 600.13 599.22 549.98 601.90 518.80 C 607.38 455.10 607.05 456.70 615.40 452.90 C 620.66 450.52 622.42 450.54 627.65 453.07 C 636.01 457.12 637.19 462.25 635.00 485.08 C 634.45 490.81 630.61 533.97 626.46 581.00 C 616.38 695.21 616.52 693.82 614.25 696.86 C 609.79 702.84 603.25 704.98 596.74 702.60 Z" stroke-linecap="round"/>
</g>
</g>
</g>

  </svg>