<svg xmlns="http://www.w3.org/2000/svg" xmlns:xlink="http://www.w3.org/1999/xlink" width="500px" height="469px" viewBox="0 0 500 469.14696033075165">
    <g id="307d571a-a871-4b3e-a322-f7e6f4ddb4f0">
<g style="">
		<g id="307d571a-a871-4b3e-a322-f7e6f4ddb4f0-child-0">
<path style="stroke: rgb(193,193,193); stroke-width: 0; stroke-dasharray: none; stroke-linecap: butt; stroke-dashoffset: 0; stroke-linejoin: miter; stroke-miterlimit: 4; fill: rgb(0,0,0); fill-rule: nonzero; opacity: 1;" transform="matrix(0.880544 0 0 0.880544 250.000013 234.573492) matrix(1 0 0 1 0 0)  translate(-511.915413, -512.36735)" d="M 282.95 777.70 C 271.56 774.48 263.74 765.81 260.91 753.28 C 259.87 748.67 259.60 748.39 253.15 745.30 C 237.00 737.58 228.00 722.97 228.00 704.46 C 228.00 694.43 230.74 685.85 236.39 678.14 C 241.12 671.70 246.04 667.82 254.65 663.74 L 261.50 660.50 L 286.67 660.17 L 311.84 659.85 L 308.11 656.48 C 306.06 654.62 303.05 650.72 301.44 647.80 C 298.76 642.98 298.50 641.65 298.50 633.00 C 298.51 618.68 299.40 617.38 325.60 593.38 C 337.53 582.44 350.72 570.43 354.90 566.68 C 359.08 562.93 363.16 559.21 363.96 558.43 C 365.22 557.21 365.39 550.42 365.16 511.75 C 364.98 482.80 365.27 464.52 365.95 461.00 C 367.51 452.92 372.12 444.48 379.60 436.00 C 383.24 431.88 401.35 410.30 419.86 388.05 C 467.42 330.87 464.53 334.06 472.46 330.00 C 478.82 326.75 479.95 326.50 488.40 326.52 C 496.12 326.54 498.37 326.95 503.24 329.21 C 510.40 332.54 517.31 339.42 522.61 348.50 C 524.86 352.35 533.83 367.88 542.55 383.00 C 551.26 398.12 558.86 410.84 559.44 411.25 C 560.03 411.66 569.39 411.95 580.25 411.88 C 599.71 411.77 600.08 411.80 605.43 414.42 C 608.42 415.88 612.27 418.68 613.99 420.65 C 615.71 422.61 617.25 424.05 617.41 423.86 C 619.68 421.04 636.01 399.74 652.94 377.50 C 664.66 362.10 675.66 348.00 677.38 346.16 C 688.54 334.24 705.10 333.96 716.64 345.50 C 726.62 355.49 727.74 370.38 719.44 382.93 C 718.14 384.89 705.79 400.90 691.99 418.50 C 669.24 447.52 666.96 450.78 667.47 453.48 C 668.01 456.30 674.72 479.01 710.02 597.50 C 718.21 625.00 725.68 650.31 726.62 653.75 L 728.33 660.00 L 742.41 660.02 C 750.16 660.04 758.47 660.50 760.89 661.06 C 768.80 662.88 776.31 667.17 782.57 673.43 C 796.52 687.38 799.72 706.94 790.95 724.75 C 786.79 733.21 778.05 741.97 770.16 745.59 C 764.58 748.15 764.07 748.66 763.03 752.80 C 760.42 763.16 753.95 771.52 745.00 776.08 C 741.52 777.86 738.80 778.39 733.00 778.42 C 723.27 778.46 716.65 775.63 710.52 768.82 C 706.52 764.36 702.00 755.16 702.00 751.46 C 702.00 750.18 678.08 750.00 512.16 750.00 L 322.32 750.00 L 321.05 754.25 C 315.78 771.89 298.98 782.23 282.95 777.70 Z M 294.36 758.62 C 297.49 757.31 302.00 752.74 302.00 750.87 C 302.00 750.39 297.27 750.00 291.50 750.00 C 282.00 750.00 281.00 750.17 281.00 751.83 C 281.00 754.52 286.32 758.93 290.78 759.94 C 290.94 759.97 292.55 759.38 294.36 758.62 Z M 740.66 755.85 C 744.22 752.51 743.57 751.35 737.75 750.65 C 729.94 749.71 722.00 749.87 722.00 750.97 C 722.00 752.80 728.10 758.87 730.30 759.23 C 733.61 759.76 738.04 758.31 740.66 755.85 Z M 760.73 729.14 C 767.09 726.26 773.07 720.00 775.48 713.69 C 779.21 703.92 775.72 690.82 767.80 684.81 C 760.90 679.59 760.59 679.53 738.27 679.00 C 711.98 678.38 713.99 679.74 708.00 658.50 C 705.67 650.25 695.71 616.50 685.87 583.50 C 676.03 550.50 664.50 511.69 660.24 497.26 C 655.98 482.83 652.21 471.13 651.85 471.26 C 650.45 471.77 640.00 485.94 640.00 487.32 C 640.00 488.13 640.86 491.65 641.91 495.14 C 657.54 547.13 657.49 546.89 652.29 550.99 C 649.26 553.37 645.00 553.57 641.04 551.52 C 637.79 549.84 637.24 548.38 628.92 519.50 C 626.07 509.60 623.66 501.40 623.56 501.27 C 623.46 501.15 621.04 501.94 618.18 503.02 C 613.38 504.85 610.43 505.00 580.17 505.00 C 542.24 505.00 540.20 504.68 532.21 497.50 C 524.46 490.53 521.17 481.45 522.98 472.00 C 523.51 469.22 523.47 467.37 522.88 467.15 C 519.32 465.87 514.71 459.41 504.52 441.47 C 498.13 430.21 492.72 421.00 492.51 421.00 C 492.29 421.00 484.19 430.75 474.51 442.67 C 457.66 463.41 456.98 464.42 458.70 466.07 C 459.69 467.03 475.80 478.48 494.50 491.52 C 513.20 504.56 529.91 516.57 531.64 518.21 C 533.37 519.84 536.07 523.50 537.64 526.34 L 540.50 531.50 L 540.50 587.50 C 540.50 650.71 540.96 646.84 532.46 655.70 L 528.34 660.00 L 562.22 660.00 C 599.47 660.00 600.83 660.20 602.82 665.91 C 604.21 669.90 602.99 673.92 599.62 676.43 C 596.86 678.50 596.72 678.50 430.68 679.00 L 264.50 679.50 L 260.36 681.72 C 252.43 685.95 246.00 696.39 246.00 705.00 C 246.00 717.54 256.76 729.22 270.00 731.07 C 272.48 731.42 382.73 731.66 515.00 731.60 L 755.50 731.50 L 760.73 729.14 Z M 491.73 657.07 C 489.90 655.46 487.07 651.74 485.45 648.82 L 482.50 643.50 L 482.21 600.80 L 481.92 558.10 L 478.21 555.21 C 474.29 552.15 439.77 527.57 431.82 522.18 L 427.14 519.00 L 426.82 547.75 C 426.51 575.40 426.41 576.68 424.20 581.11 C 421.60 586.35 415.24 592.67 379.01 626.03 C 364.99 638.94 351.04 651.85 348.01 654.73 L 342.50 659.96 L 418.78 659.98 L 495.07 660.00 L 491.73 657.07 Z M 519.10 641.89 C 520.69 640.19 522.07 637.60 522.15 636.14 C 522.23 634.69 522.20 611.67 522.10 585.00 C 521.91 540.24 521.76 536.31 520.11 534.00 C 519.13 532.62 514.09 528.55 508.91 524.95 C 446.90 481.81 435.74 473.62 434.33 470.24 C 432.23 465.23 433.50 462.60 444.28 449.69 C 449.42 443.54 461.58 428.76 471.30 416.86 C 481.02 404.96 489.69 394.95 490.57 394.61 C 493.67 393.42 496.92 394.03 499.39 396.25 C 500.76 397.49 508.49 409.75 516.56 423.50 C 524.62 437.25 531.68 449.06 532.23 449.75 C 533.00 450.70 540.75 451.00 564.72 451.00 L 596.20 451.00 L 599.60 447.60 C 602.24 444.96 603.00 443.37 603.00 440.50 C 603.00 437.63 602.24 436.04 599.60 433.40 L 596.20 430.00 L 572.26 430.00 C 550.71 430.00 548.15 429.82 546.76 428.25 C 545.90 427.29 536.46 411.20 525.78 392.50 C 502.17 351.18 501.93 350.80 497.81 347.86 C 495.19 345.99 493.21 345.50 488.32 345.50 C 480.44 345.50 479.26 346.37 466.50 361.67 C 411.73 427.34 388.18 455.81 386.50 458.40 C 384.57 461.38 384.50 463.19 384.49 511.49 C 384.48 546.67 384.15 562.24 383.35 564.00 C 382.01 566.93 375.07 573.67 342.35 603.80 C 329.07 616.03 317.93 626.74 317.60 627.60 C 317.27 628.46 317.00 631.19 317.00 633.66 C 317.00 643.03 326.78 647.36 334.17 641.25 C 336.00 639.74 348.48 628.38 361.90 616.00 C 375.32 603.63 390.37 589.78 395.34 585.23 C 409.34 572.43 408.07 577.67 407.90 533.20 L 407.75 494.90 L 410.05 492.45 C 414.27 487.96 418.08 488.96 430.52 497.81 C 480.10 533.06 496.88 545.21 498.56 547.06 C 500.41 549.11 500.51 551.25 500.78 594.03 L 501.06 638.85 L 503.93 641.93 C 506.35 644.51 507.54 645.00 511.50 645.00 C 515.47 645.00 516.65 644.52 519.10 641.89 Z M 613.83 484.08 C 618.53 481.69 622.55 477.23 636.97 458.45 C 643.28 450.23 660.35 428.20 674.91 409.50 C 706.47 368.97 706.00 369.64 706.00 365.28 C 706.00 358.65 697.59 353.55 692.75 357.25 C 691.21 358.43 669.05 387.31 629.45 439.71 C 619.81 452.48 610.61 463.85 609.02 464.98 C 602.63 469.54 599.23 470.00 572.10 470.00 C 543.06 470.00 542.00 470.23 542.00 476.63 C 542.00 479.19 542.80 480.95 544.92 483.08 L 547.85 486.00 L 578.96 486.00 C 607.65 486.00 610.37 485.85 613.83 484.08 Z M 536.50 338.95 C 515.70 335.37 500.18 319.98 496.79 299.58 C 493.02 276.78 509.82 252.42 533.00 247.09 C 548.45 243.53 565.45 248.61 577.12 260.28 C 604.98 288.14 586.95 335.41 547.00 339.27 C 543.97 339.57 539.25 339.42 536.50 338.95 Z M 553.26 319.00 C 573.61 311.39 577.80 283.88 560.58 270.87 C 554.37 266.17 548.72 264.59 540.52 265.25 C 530.21 266.07 522.18 271.89 517.84 281.66 C 512.88 292.82 514.91 303.09 523.82 311.95 C 532.61 320.67 542.47 323.04 553.26 319.00 Z M 266.92 711.08 C 264.93 709.08 264.00 707.15 264.00 705.00 C 264.00 702.85 264.93 700.92 266.92 698.92 L 269.85 696.00 L 322.47 696.00 L 375.09 696.00 L 377.55 698.45 C 381.25 702.16 380.97 708.00 376.92 711.41 L 373.85 714.00 L 321.85 714.00 L 269.85 714.00 L 266.92 711.08 Z M 406.93 711.09 C 403.00 707.16 402.88 701.94 406.65 698.45 L 409.29 696.00 L 580.71 696.00 C 709.12 696.00 752.68 696.29 754.32 697.16 C 759.56 699.96 760.58 706.05 756.59 710.69 L 754.17 713.50 L 582.02 713.76 L 409.86 714.02 L 406.93 711.09 Z M 631.50 678.28 C 625.97 676.95 623.13 670.70 625.63 665.39 C 627.95 660.47 630.20 660.00 651.65 660.00 C 669.88 660.00 671.17 659.88 670.52 658.25 C 668.25 652.53 648.00 583.54 648.00 581.54 C 648.00 580.20 649.09 577.85 650.41 576.31 C 653.57 572.63 660.74 572.29 664.10 575.66 C 666.60 578.16 691.92 660.75 692.28 667.55 C 692.55 672.91 690.05 676.61 685.26 677.94 C 681.56 678.97 635.55 679.26 631.50 678.28 Z" stroke-linecap="round"/>
</g>
</g>
</g>

  </svg>