<svg xmlns="http://www.w3.org/2000/svg" xmlns:xlink="http://www.w3.org/1999/xlink" width="500px" height="320px" viewBox="0 0 499.9999999999998 319.76872410477654">
    <g id="decda645-8709-41f8-a480-5859d1dbb037">
<g style="">
		<g id="decda645-8709-41f8-a480-5859d1dbb037-child-0">
<path style="stroke: rgb(193,193,193); stroke-width: 0; stroke-dasharray: none; stroke-linecap: butt; stroke-dashoffset: 0; stroke-linejoin: miter; stroke-miterlimit: 4; fill: rgb(0,0,0); fill-rule: nonzero; opacity: 1;" transform="matrix(0.784024 0 0 0.784024 249.99992 159.884311) matrix(1 0 0 1 0 0)  translate(-512.010911, -511.902909)" d="M 219.93 714.63 C 209.35 711.78 199.93 703.39 195.78 693.15 L 193.50 687.50 L 193.21 517.50 C 193.01 404.60 193.26 344.87 193.95 339.66 C 195.87 325.04 203.68 314.89 216.75 309.99 C 225.18 306.82 237.28 307.45 245.28 311.46 C 251.64 314.65 258.72 321.57 261.82 327.64 C 265.60 335.06 266.00 341.51 266.00 395.18 L 266.00 447.00 L 279.10 447.00 L 292.21 447.00 L 288.96 443.30 C 283.90 437.54 281.69 431.55 281.63 423.50 C 281.50 403.78 298.77 389.43 331.20 382.33 C 343.29 379.69 381.81 379.71 394.00 382.37 C 411.91 386.28 424.82 392.25 433.29 400.51 C 440.99 408.03 443.51 413.59 443.48 423.00 C 443.45 431.11 441.69 435.74 435.78 443.25 L 432.83 447.00 L 595.88 447.00 L 758.94 447.00 L 759.22 390.25 L 759.50 333.50 L 762.32 328.00 C 766.01 320.79 771.85 314.91 778.84 311.37 C 784.00 308.75 785.42 308.50 795.00 308.50 C 804.11 308.50 806.09 308.81 810.00 310.87 C 818.42 315.31 822.71 319.63 826.71 327.74 L 830.50 335.40 L 830.80 507.95 C 831.02 633.84 830.79 682.12 829.96 686.50 C 827.74 698.22 820.31 707.64 809.18 712.82 C 804.36 715.07 802.13 715.47 794.50 715.47 C 786.87 715.47 784.64 715.07 779.82 712.82 C 772.26 709.30 766.00 703.35 762.45 696.29 C 759.64 690.72 759.51 689.85 759.01 673.00 L 758.50 655.50 L 726.50 655.00 C 708.90 654.72 693.70 654.11 692.71 653.63 C 688.47 651.56 686.73 643.36 689.42 638.15 C 691.97 633.23 693.68 633.00 727.57 633.00 L 759.05 633.00 L 758.77 615.25 L 758.50 597.50 L 512.00 597.50 L 265.50 597.50 L 265.50 615.00 L 265.50 632.50 L 463.15 633.00 C 652.57 633.48 660.87 633.58 662.80 635.32 C 668.03 640.05 668.07 648.08 662.89 652.44 L 659.85 655.00 L 462.92 655.00 C 276.06 655.00 266.00 655.09 265.97 656.75 C 265.69 672.92 264.58 688.39 263.43 692.00 C 261.65 697.59 255.79 705.35 250.50 709.13 C 241.87 715.30 230.19 717.40 219.93 714.63 Z M 235.38 692.61 C 237.21 691.85 239.78 689.71 241.10 687.86 L 243.50 684.50 L 244.00 631.66 L 244.50 578.82 L 246.86 576.91 C 249.17 575.04 254.81 575.00 512.19 575.00 L 775.15 575.00 L 778.08 577.92 L 781.00 580.85 L 781.00 632.85 L 781.00 684.85 L 783.62 687.96 C 790.20 695.78 799.01 696.00 806.00 688.51 L 808.50 685.84 L 808.76 513.08 L 809.02 340.32 L 806.76 337.00 C 803.23 331.82 799.67 329.67 794.62 329.67 C 789.65 329.67 785.93 331.65 783.26 335.72 C 781.62 338.23 781.47 344.67 781.00 429.79 L 780.50 521.17 L 777.69 523.59 L 774.89 526.00 L 512.50 526.00 L 250.11 526.00 L 247.31 523.59 L 244.50 521.17 L 244.00 430.34 L 243.50 339.50 L 241.17 336.23 C 237.78 331.49 233.68 329.68 227.61 330.26 C 223.30 330.68 222.08 331.30 219.32 334.49 C 217.27 336.87 215.87 339.74 215.50 342.37 C 215.18 344.64 215.05 422.33 215.21 515.00 C 215.49 680.53 215.53 683.56 217.47 686.75 C 219.56 690.21 225.99 694.00 229.78 694.00 C 231.04 694.00 233.56 693.38 235.38 692.61 Z M 758.50 486.50 L 758.50 469.50 L 512.30 469.25 L 266.09 469.00 L 265.80 486.08 C 265.63 495.48 265.69 503.36 265.92 503.59 C 266.15 503.82 377.07 503.89 512.42 503.75 L 758.50 503.50 L 758.50 486.50 Z M 384.70 443.50 C 424.28 437.08 434.32 419.18 404.55 408.09 C 373.87 396.67 322.39 400.67 307.43 415.64 C 301.37 421.70 303.15 428.91 312.11 434.57 C 317.52 437.99 329.63 441.87 339.84 443.46 C 351.67 445.30 373.47 445.32 384.70 443.50 Z M 279.76 712.43 C 272.82 708.67 272.16 697.75 278.61 693.52 C 280.65 692.18 307.42 692.00 510.21 691.98 C 636.32 691.97 740.48 691.97 741.67 691.98 C 745.05 692.01 749.69 696.52 750.43 700.50 C 751.27 704.96 748.99 709.98 745.08 712.29 C 742.38 713.89 727.24 714.00 512.35 713.96 C 311.00 713.92 282.16 713.74 279.76 712.43 Z" stroke-linecap="round"/>
</g>
</g>
</g>

  </svg>