<svg xmlns="http://www.w3.org/2000/svg" xmlns:xlink="http://www.w3.org/1999/xlink" width="1690px" height="1865px" viewBox="0 0 1690.16851638988 1864.9105499562393">
    <g id="3bfa3cdf-9c38-43a1-bcf3-8591df39187f">
<g style="">
		<g id="3bfa3cdf-9c38-43a1-bcf3-8591df39187f-child-0">
<path style="stroke: rgb(193,193,193); stroke-width: 0; stroke-dasharray: none; stroke-linecap: butt; stroke-dashoffset: 0; stroke-linejoin: miter; stroke-miterlimit: 4; fill: rgb(0,0,0); fill-rule: nonzero; opacity: 1;" transform="matrix(3.007584 0 0 3.007584 845.084338 932.455363) matrix(1 0 0 1 0 0)  translate(-512.00189, -511.965314)" d="M 366.71 819.98 C 361.10 815.58 361.10 806.42 366.71 802.02 C 369.18 800.07 370.68 800.00 408.63 800.00 L 448.00 800.00 L 448.00 781.53 L 448.00 763.07 L 366.25 762.78 L 284.50 762.50 L 276.29 759.72 C 255.01 752.51 238.45 734.80 232.97 713.39 C 231.05 705.87 231.00 701.69 231.02 547.59 C 231.04 372.33 230.66 382.44 237.70 368.13 C 242.71 357.93 255.44 344.95 265.50 339.79 C 280.73 331.97 271.19 332.57 388.60 332.01 L 493.70 331.50 L 479.55 311.50 C 459.11 282.63 420.18 227.32 416.31 221.65 C 412.70 216.35 412.17 212.51 414.45 208.10 C 416.46 204.21 420.23 202.00 424.83 202.00 C 431.58 202.00 427.65 197.04 479.48 271.00 C 492.78 289.98 505.38 308.09 507.47 311.25 C 509.57 314.41 511.56 316.98 511.89 316.96 C 512.23 316.94 523.53 301.09 537.00 281.74 C 574.54 227.83 590.74 205.29 593.20 203.57 C 596.32 201.39 602.61 201.58 605.96 203.97 C 609.30 206.35 611.38 210.97 610.81 214.74 C 610.45 217.13 594.72 239.93 541.27 315.50 L 529.95 331.50 L 635.23 332.01 C 734.28 332.49 740.83 332.63 746.00 334.37 C 765.13 340.81 779.61 353.27 787.17 369.77 C 793.25 383.07 793.00 375.35 792.98 547.32 C 792.96 722.52 793.38 711.88 785.94 726.68 C 778.27 741.90 764.60 753.74 747.98 759.54 L 739.50 762.50 L 657.75 762.78 L 576.00 763.07 L 576.00 781.53 L 576.00 800.00 L 615.28 800.00 C 658.88 800.00 657.78 799.84 660.63 806.67 C 662.48 811.09 661.00 817.07 657.34 819.95 C 654.74 822.00 654.46 822.00 512.00 822.00 C 370.41 822.00 369.25 821.98 366.71 819.98 Z M 553.00 781.50 L 553.00 763.00 L 512.00 763.00 L 471.00 763.00 L 470.88 779.50 C 470.81 788.58 470.66 796.56 470.56 797.25 C 470.46 797.94 470.54 798.84 470.74 799.25 C 470.95 799.66 489.54 800.00 512.06 800.00 L 553.00 800.00 L 553.00 781.50 Z M 746.21 735.74 C 759.32 729.26 767.79 717.74 770.00 703.37 C 770.72 698.70 770.97 647.28 770.78 542.50 L 770.50 388.50 L 768.18 382.76 C 763.31 370.68 755.22 362.32 744.00 357.74 L 738.50 355.50 L 511.50 355.50 L 284.50 355.50 L 278.00 358.62 C 265.79 364.47 256.16 377.27 253.99 390.50 C 252.69 398.49 252.66 696.35 253.96 704.32 C 255.40 713.08 259.20 720.36 265.77 726.93 C 271.77 732.93 279.14 737.35 285.75 738.92 C 287.89 739.43 385.67 739.74 514.05 739.66 L 738.60 739.50 L 746.21 735.74 Z M 729.07 710.20 C 716.90 708.28 715.57 690.60 727.27 686.15 C 734.85 683.26 743.99 689.62 744.00 697.80 C 744.01 705.63 737.00 711.45 729.07 710.20 Z M 345.50 692.51 C 333.38 689.84 321.99 683.15 313.25 673.58 C 306.79 666.51 302.80 659.51 299.84 650.00 L 297.50 642.50 L 297.50 548.00 C 297.50 460.84 297.64 453.00 299.26 447.12 C 305.04 426.20 322.44 408.72 342.50 403.66 C 347.70 402.35 368.15 402.11 495.50 401.90 C 612.98 401.70 643.50 401.91 647.50 402.94 C 650.25 403.65 656.29 406.03 660.92 408.23 C 676.42 415.58 688.99 431.10 693.15 448.00 C 694.24 452.43 694.50 471.85 694.50 547.50 C 694.50 652.52 694.86 646.82 687.37 661.10 C 681.21 672.85 668.68 684.40 656.70 689.36 C 645.38 694.06 647.22 694.01 494.79 693.92 C 379.67 693.86 350.32 693.58 345.50 692.51 Z M 649.18 667.84 C 660.14 662.70 668.38 652.22 670.89 640.20 C 672.44 632.79 672.44 462.21 670.89 454.80 C 667.66 439.36 656.00 427.95 640.53 425.09 C 632.09 423.53 358.15 423.56 350.80 425.12 C 335.32 428.41 323.91 440.31 320.96 456.25 C 320.30 459.84 320.04 493.41 320.22 551.64 L 320.50 641.50 L 323.64 648.12 C 328.84 659.10 336.71 666.24 347.29 669.56 C 350.71 670.63 378.74 670.84 497.50 670.69 L 643.50 670.50 L 649.18 667.84 Z M 727.36 571.06 C 711.07 567.12 711.10 544.52 727.42 539.93 C 738.35 536.86 749.66 547.31 747.56 558.55 C 745.99 566.91 735.94 573.13 727.36 571.06 Z M 722.56 496.73 C 717.55 493.90 714.83 489.29 714.83 483.63 C 714.83 469.16 731.21 461.87 741.94 471.56 C 756.08 484.34 739.25 506.19 722.56 496.73 Z M 722.38 426.14 C 716.03 423.17 712.65 418.03 712.22 410.63 C 711.90 405.21 712.20 403.97 714.81 399.89 C 724.93 384.15 749.00 391.10 749.00 409.76 C 749.00 422.70 734.32 431.73 722.38 426.14 Z" stroke-linecap="round"/>
</g>
</g>
</g>

  </svg>