<svg xmlns="http://www.w3.org/2000/svg" xmlns:xlink="http://www.w3.org/1999/xlink" width="706px" height="611px" viewBox="0 0 706.3740856844305 610.8530879879772">
    <g id="14507e73-8592-42d6-a1ea-70a1f9aeba7a">
<g style="">
		<g id="14507e73-8592-42d6-a1ea-70a1f9aeba7a-child-0">
<path style="stroke: rgb(193,193,193); stroke-width: 0; stroke-dasharray: none; stroke-linecap: butt; stroke-dashoffset: 0; stroke-linejoin: miter; stroke-miterlimit: 4; fill: rgb(0,0,0); fill-rule: nonzero; opacity: 1;" transform="matrix(1.587357 0 0 1.587357 353.186932 305.426449) matrix(1 0 0 1 0 0)  translate(-512, -512.391945)" d="M 313.30 703.14 C 303.31 699.68 296.64 693.67 292.09 684.00 L 289.50 678.50 L 289.50 640.00 L 289.50 601.50 L 292.42 595.55 C 296.14 587.98 302.55 581.57 309.80 578.17 L 315.50 575.50 L 378.69 575.23 L 441.88 574.96 L 448.48 567.73 L 455.07 560.50 L 401.73 560.00 L 348.39 559.50 L 340.75 555.72 C 329.44 550.13 323.22 541.98 320.96 529.76 C 320.28 526.09 320.03 493.90 320.21 436.33 L 320.50 348.50 L 322.91 342.50 C 326.24 334.22 335.36 325.13 343.31 322.15 L 349.12 319.98 L 513.31 320.24 L 677.50 320.50 L 683.34 323.46 C 690.83 327.25 698.21 335.28 700.95 342.59 C 703.02 348.14 703.04 348.95 702.77 441.34 L 702.50 534.50 L 699.75 539.72 C 694.77 549.17 686.44 555.89 676.54 558.46 C 671.55 559.75 662.33 560.00 619.74 560.00 C 576.41 560.00 569.02 560.21 569.70 561.40 C 570.14 562.17 572.97 565.44 576.00 568.65 L 581.50 574.50 L 645.00 575.00 L 708.50 575.50 L 714.22 578.31 C 721.75 582.01 728.51 588.71 731.82 595.78 L 734.50 601.50 L 734.50 640.50 L 734.50 679.50 L 731.54 685.35 C 728.19 691.96 721.34 698.62 714.28 702.13 L 709.50 704.50 L 514.00 704.72 C 327.92 704.93 318.25 704.86 313.30 703.14 Z M 708.73 687.14 C 713.70 684.60 717.60 680.08 719.03 675.20 C 719.75 672.76 720.02 660.04 719.81 637.83 L 719.50 604.17 L 716.50 599.91 C 714.85 597.57 711.52 594.61 709.09 593.33 L 704.69 591.00 L 511.68 591.00 L 318.68 591.00 L 314.36 593.53 C 311.70 595.09 308.99 597.86 307.28 600.78 L 304.50 605.50 L 304.19 638.16 C 303.98 659.53 304.25 672.23 304.96 674.87 C 307.15 682.97 313.64 688.05 323.00 688.96 C 326.02 689.26 413.15 689.43 516.60 689.35 C 704.18 689.19 704.71 689.19 708.73 687.14 Z M 554.98 570.48 L 551.61 567.00 L 511.71 567.00 L 471.80 567.00 L 468.76 570.25 L 465.71 573.50 L 469.61 574.00 C 471.75 574.28 492.59 574.38 515.93 574.23 L 558.35 573.96 L 554.98 570.48 Z M 675.77 542.45 C 680.49 540.48 683.69 537.48 686.11 532.76 C 687.97 529.14 688.02 526.05 687.77 438.69 L 687.50 348.35 L 685.04 344.76 C 681.86 340.12 675.81 336.23 670.61 335.50 C 668.35 335.18 595.36 335.04 508.42 335.21 L 350.34 335.50 L 345.50 338.50 C 342.31 340.48 339.86 343.01 338.31 345.94 L 335.97 350.37 L 336.23 440.60 L 336.50 530.83 L 339.50 535.09 C 341.15 537.43 344.48 540.39 346.91 541.67 L 351.31 544.00 L 511.69 544.00 C 654.18 544.00 672.48 543.83 675.77 542.45 Z M 322.36 677.01 C 317.12 674.89 317.00 674.04 317.00 639.35 L 317.00 607.15 L 319.63 605.07 L 322.27 603.00 L 512.55 603.00 L 702.82 603.00 L 705.45 606.12 L 708.08 609.25 L 707.79 640.60 L 707.50 671.96 L 704.73 674.73 L 701.95 677.50 L 513.23 677.69 C 408.19 677.80 323.55 677.50 322.36 677.01 Z M 504.00 640.55 L 504.00 619.09 L 500.75 618.51 C 498.96 618.19 460.38 618.06 415.00 618.22 L 332.50 618.50 L 332.23 640.25 L 331.96 662.00 L 417.98 662.00 L 504.00 662.00 L 504.00 640.55 Z M 692.00 639.99 L 692.00 617.99 L 606.25 618.24 L 520.50 618.50 L 520.23 640.25 L 519.96 662.00 L 605.98 662.00 L 692.00 662.00 L 692.00 639.99 Z M 350.92 529.08 L 348.00 526.15 L 348.00 439.50 L 348.00 352.85 L 350.93 349.91 L 353.86 346.98 L 512.52 347.24 L 671.17 347.50 L 673.59 350.31 L 676.00 353.11 L 676.00 439.63 L 676.00 526.15 L 673.08 529.08 L 670.15 532.00 L 654.03 532.00 C 638.25 532.00 637.86 531.95 635.45 529.55 C 632.48 526.57 632.25 522.15 634.91 518.86 C 636.69 516.65 637.61 516.48 648.91 516.17 L 661.00 515.83 L 661.00 439.42 L 661.00 363.00 L 512.58 363.00 L 364.16 363.00 L 363.83 437.75 C 363.64 478.86 363.66 513.29 363.86 514.25 C 364.21 515.91 370.98 516.00 488.87 516.01 C 586.91 516.03 614.03 516.30 615.98 517.29 C 621.19 519.92 620.82 528.39 615.39 530.87 C 613.58 531.69 577.51 532.00 483.38 532.00 L 353.85 532.00 L 350.92 529.08 Z M 379.45 418.55 C 375.46 414.55 376.47 408.94 381.68 406.16 C 384.60 404.61 419.96 404.57 423.34 406.11 C 428.23 408.34 429.36 414.73 425.55 418.55 C 423.10 420.99 423.03 421.00 402.50 421.00 C 381.97 421.00 381.90 420.99 379.45 418.55 Z M 382.50 390.85 C 379.47 389.19 378.00 386.91 378.00 383.89 C 378.00 379.77 378.95 378.08 382.19 376.40 C 386.00 374.43 390.36 375.37 392.99 378.71 C 395.80 382.29 395.51 385.65 392.08 389.08 C 389.03 392.12 385.90 392.70 382.50 390.85 Z M 412.11 389.25 C 410.95 388.29 409.73 386.06 409.39 384.29 C 408.87 381.60 409.26 380.58 411.81 378.04 L 414.85 375.00 L 448.50 375.00 L 482.15 375.00 L 485.08 377.92 C 488.68 381.53 488.85 385.24 485.55 388.55 L 483.09 391.00 L 448.66 391.00 C 417.33 391.00 414.03 390.84 412.11 389.25 Z" stroke-linecap="round"/>
</g>
</g>
</g>

  </svg>