<svg xmlns="http://www.w3.org/2000/svg" xmlns:xlink="http://www.w3.org/1999/xlink" width="366px" height="500px" viewBox="0 0 365.6723809967773 500">
    <g id="d433a9cd-8a96-426a-b46c-0fe1d4c687ea">
<g style="">
		<g id="d433a9cd-8a96-426a-b46c-0fe1d4c687ea-child-0">
<path style="stroke: rgb(193,193,193); stroke-width: 0; stroke-dasharray: none; stroke-linecap: butt; stroke-dashoffset: 0; stroke-linejoin: miter; stroke-miterlimit: 4; fill: rgb(0,0,0); fill-rule: nonzero; opacity: 1;" transform="matrix(0.734437 0 0 0.734437 182.836099 249.999874) matrix(1 0 0 1 0 0)  translate(-511.998924, -511.316074)" d="M 268.36 851.01 C 262.83 848.77 261.22 840.69 265.45 836.45 L 267.91 834.00 L 350.90 834.00 C 396.54 834.00 434.06 833.66 434.28 833.25 C 434.50 832.84 430.92 819.00 426.33 802.50 C 421.73 786.00 415.08 762.15 411.56 749.50 C 408.03 736.85 399.45 706.03 392.50 681.00 C 385.54 655.97 377.21 626.05 373.98 614.50 C 361.01 568.17 342.74 502.30 341.96 499.07 C 340.95 494.90 342.73 490.00 346.12 487.63 C 348.22 486.16 355.90 486.00 425.72 486.00 L 503.00 486.00 L 503.00 421.61 L 503.00 357.22 L 499.14 352.55 C 495.01 347.55 486.77 340.94 481.02 338.01 C 471.08 332.95 455.54 331.48 444.93 334.59 C 432.58 338.22 420.58 347.95 415.12 358.76 C 411.71 365.52 409.84 367.00 404.74 367.00 C 400.96 367.00 398.73 364.97 395.49 358.58 C 391.11 349.94 379.28 339.44 369.94 335.88 C 348.09 327.58 325.01 335.23 309.78 355.80 C 304.12 363.46 299.59 364.60 294.25 359.71 C 291.13 356.86 291.32 351.51 294.92 340.46 C 303.09 315.35 316.12 291.90 333.34 271.29 C 342.67 260.12 360.19 243.25 370.51 235.50 C 403.44 210.76 445.68 194.51 486.49 190.88 C 504.44 189.28 503.00 189.98 503.00 182.90 C 503.00 177.54 503.34 176.51 505.92 173.92 C 509.74 170.10 515.00 169.91 518.55 173.45 C 520.64 175.55 521.00 176.84 521.00 182.37 L 521.00 188.83 L 528.75 189.50 C 560.81 192.29 590.20 200.32 616.96 213.58 C 642.22 226.11 660.65 239.61 680.50 260.13 C 703.50 283.90 719.40 309.82 729.11 339.39 C 732.99 351.21 733.25 356.04 730.17 359.32 C 725.57 364.21 718.86 362.90 714.69 356.30 C 710.70 349.99 700.15 340.97 692.52 337.36 C 668.42 325.96 639.71 336.04 627.40 360.21 C 624.77 365.39 622.58 367.02 618.32 366.97 C 614.44 366.92 612.77 365.41 608.44 358.03 C 598.89 341.73 583.90 333.00 565.50 333.00 C 551.26 333.00 538.19 338.68 528.40 349.12 C 520.32 357.74 521.00 351.04 521.00 422.22 L 521.00 486.00 L 599.08 486.00 L 677.15 486.00 L 680.08 488.92 C 681.88 490.73 683.00 492.89 683.00 494.58 C 683.00 496.08 678.74 512.43 673.54 530.90 C 668.33 549.38 657.98 586.44 650.54 613.25 C 634.67 670.40 614.28 743.45 599.66 795.50 C 593.95 815.85 589.46 832.84 589.70 833.25 C 589.93 833.66 627.63 834.00 673.49 834.00 L 756.85 834.00 L 758.93 836.63 C 761.74 840.21 761.60 845.19 758.59 848.69 L 756.17 851.50 L 513.34 851.69 C 377.87 851.80 269.55 851.50 268.36 851.01 Z M 470.30 833.25 C 470.52 832.84 469.47 823.72 467.96 813.00 C 466.44 802.28 463.08 778.20 460.49 759.50 C 457.89 740.80 448.64 675.78 439.92 615.00 C 431.20 554.22 424.05 504.39 424.03 504.25 C 424.01 504.11 410.02 504.00 392.93 504.00 C 363.81 504.00 361.90 504.11 362.40 505.75 C 362.69 506.71 367.64 524.60 373.40 545.50 C 379.16 566.40 389.71 604.42 396.83 630.00 C 403.96 655.58 415.49 696.97 422.46 722.00 C 450.53 822.91 453.23 832.53 453.67 833.25 C 453.91 833.66 457.66 834.00 462.00 834.00 C 466.34 834.00 470.07 833.66 470.30 833.25 Z M 503.00 669.00 L 503.00 504.00 L 472.39 504.00 L 441.78 504.00 L 442.33 506.25 C 442.79 508.10 460.36 631.20 484.44 801.17 C 486.83 818.04 489.08 832.33 489.45 832.92 C 489.82 833.51 493.02 834.00 496.56 834.00 L 503.00 834.00 L 503.00 669.00 Z M 535.15 829.00 C 535.52 826.53 541.25 786.92 547.89 741.00 C 554.52 695.08 563.35 634.10 567.51 605.50 C 577.60 536.14 581.98 505.66 581.99 504.75 C 582.00 504.34 568.28 504.00 551.50 504.00 L 521.00 504.00 L 521.00 668.33 C 521.00 758.72 521.32 832.99 521.71 833.38 C 522.10 833.77 525.13 833.95 528.45 833.79 L 534.48 833.50 L 535.15 829.00 Z M 571.00 831.75 C 571.52 830.51 573.52 823.88 575.43 817.00 C 582.88 790.17 594.34 748.83 598.02 735.50 C 600.15 727.80 606.44 705.30 612.00 685.50 C 617.57 665.70 625.03 638.92 628.60 626.00 C 632.16 613.08 636.61 597.10 638.49 590.50 C 640.37 583.90 645.97 563.88 650.93 546.00 C 655.90 528.12 660.42 511.93 660.98 510.01 C 661.54 508.09 662.00 505.95 662.00 505.26 C 662.00 504.27 655.22 504.00 631.00 504.00 C 613.95 504.00 600.00 504.34 599.99 504.75 C 599.99 505.42 590.53 570.86 570.40 709.50 C 559.97 781.38 553.05 832.28 553.61 833.17 C 553.89 833.63 557.70 834.00 562.08 834.00 C 569.39 834.00 570.12 833.81 571.00 831.75 Z M 533.88 322.63 C 555.46 311.29 583.08 312.64 602.47 325.98 C 607.86 329.68 607.86 329.65 604.50 316.40 C 597.24 287.77 582.48 261.41 562.53 241.46 C 549.98 228.90 538.10 220.40 522.49 212.81 L 511.84 207.63 L 502.17 212.42 C 476.59 225.11 458.66 240.85 442.85 264.50 C 432.64 279.79 423.91 300.20 419.54 319.00 C 417.41 328.15 417.49 328.50 420.98 326.01 C 434.84 316.15 457.40 312.37 475.23 316.93 C 487.30 320.02 500.94 327.98 509.40 336.87 L 512.30 339.92 L 519.58 333.12 C 523.58 329.38 530.02 324.66 533.88 322.63 Z M 400.48 324.12 C 407.71 282.97 430.99 241.87 460.71 217.75 C 464.24 214.89 466.68 212.39 466.13 212.21 C 464.45 211.65 443.02 217.59 432.45 221.54 C 388.92 237.80 350.13 270.86 327.28 311.18 C 324.41 316.24 322.16 320.49 322.28 320.61 C 322.40 320.72 325.88 319.66 330.00 318.23 C 339.00 315.12 355.55 314.07 365.33 315.97 C 374.24 317.71 384.54 322.30 392.00 327.87 C 395.58 330.53 398.62 332.62 398.77 332.50 C 398.92 332.39 399.69 328.61 400.48 324.12 Z M 632.32 327.62 C 643.22 319.90 651.46 316.65 664.24 315.03 C 673.84 313.82 685.55 315.14 694.78 318.49 C 698.43 319.82 701.61 320.73 701.83 320.50 C 702.54 319.79 692.97 303.83 685.66 293.52 C 671.00 272.85 644.57 249.10 621.69 236.04 C 604.19 226.05 580.66 216.80 562.00 212.58 L 555.50 211.11 L 559.50 214.27 C 566.83 220.07 580.13 233.40 586.67 241.50 C 604.57 263.66 619.21 295.41 623.71 321.83 C 624.67 327.42 625.61 332.00 625.80 332.00 C 625.99 332.00 628.92 330.03 632.32 327.62 Z" stroke-linecap="round"/>
</g>
</g>
</g>

  </svg>