<svg xmlns="http://www.w3.org/2000/svg" xmlns:xlink="http://www.w3.org/1999/xlink" width="386px" height="500px" viewBox="0 0 385.8890836159619 500">
    <g id="0ff8247d-729a-44c7-903e-c0bc5e54453f">
<g style="">
		<g id="0ff8247d-729a-44c7-903e-c0bc5e54453f-child-0">
<path style="stroke: rgb(193,193,193); stroke-width: 0; stroke-dasharray: none; stroke-linecap: butt; stroke-dashoffset: 0; stroke-linejoin: miter; stroke-miterlimit: 4; fill: rgb(0,0,0); fill-rule: nonzero; opacity: 1;" transform="matrix(0.828085 0 0 0.828085 192.9446 250.000076) matrix(1 0 0 1 0 0)  translate(-512.03574, -512.059696)" d="M 284.33 812.54 C 282.58 811.78 280.67 810.26 280.08 809.15 C 278.71 806.59 278.68 798.47 280.03 795.94 C 283.07 790.26 295.75 789.29 300.81 794.36 C 303.08 796.63 303.50 797.91 303.50 802.60 C 303.50 807.62 303.18 808.45 300.23 811.08 C 297.58 813.45 296.08 813.99 292.23 813.96 C 289.63 813.94 286.07 813.30 284.33 812.54 Z M 332.01 812.25 C 330.10 811.29 327.94 809.38 327.22 808.00 C 325.25 804.22 326.37 797.94 329.49 795.25 C 331.84 793.24 333.18 793.00 342.31 792.99 C 347.91 792.99 356.91 792.70 362.29 792.34 L 372.08 791.69 L 368.66 788.87 C 360.91 782.49 356.00 770.58 356.00 758.19 L 356.00 751.81 L 349.91 745.16 C 343.19 737.83 336.89 725.93 335.09 717.20 C 334.32 713.48 334.00 651.57 334.00 509.11 C 334.00 310.55 334.04 306.16 335.97 298.61 C 341.25 277.98 356.22 261.27 376.50 253.37 C 382.86 250.89 385.09 250.59 400.94 250.07 L 418.37 249.50 L 419.54 245.00 C 423.61 229.36 433.45 218.48 448.75 212.73 C 454.33 210.63 456.05 210.56 507.39 210.23 C 539.67 210.02 562.79 210.28 566.73 210.89 C 584.68 213.69 600.01 227.44 604.40 244.69 L 605.63 249.50 L 623.06 250.10 C 642.12 250.75 646.56 251.78 657.84 258.15 C 666.76 263.20 678.89 276.04 683.33 285.13 C 690.38 299.57 689.96 287.06 689.98 486.83 L 690.00 667.15 L 687.08 670.08 C 684.79 672.37 683.26 673.00 680.01 673.00 C 674.83 673.00 672.44 671.75 670.51 668.02 C 669.20 665.48 669.00 653.52 669.00 576.05 L 669.00 487.00 L 512.00 487.00 L 355.00 487.00 L 355.00 597.29 C 355.00 717.03 354.86 713.78 360.48 723.38 C 364.15 729.64 371.75 736.79 378.50 740.34 L 384.50 743.50 L 512.00 743.50 L 639.50 743.50 L 645.50 740.56 C 658.19 734.35 667.42 721.06 668.71 707.17 C 669.24 701.40 669.76 700.06 672.56 697.25 C 676.18 693.62 680.20 693.02 684.85 695.42 C 688.45 697.28 690.00 700.87 690.00 707.34 C 690.00 719.46 683.55 734.84 674.17 745.07 L 668.27 751.51 L 667.78 760.51 C 667.12 772.64 664.41 779.46 657.41 786.64 C 654.43 789.68 652.00 792.36 652.00 792.59 C 652.00 792.81 660.81 793.00 671.58 793.00 L 691.15 793.00 L 694.08 795.92 C 698.15 800.00 698.16 805.67 694.08 810.23 L 691.16 813.50 L 513.33 813.75 C 345.55 813.99 335.30 813.91 332.01 812.25 Z M 610.87 792.14 L 613.25 791.47 L 610.54 790.02 C 605.22 787.18 599.72 778.48 597.92 770.05 L 596.83 765.00 L 511.62 765.00 L 426.40 765.00 L 425.21 770.75 C 423.92 777.02 419.06 785.09 414.05 789.30 L 410.96 791.91 L 417.73 792.26 C 430.44 792.92 608.49 792.80 610.87 792.14 Z M 398.70 774.04 C 402.38 771.79 405.47 767.57 404.53 766.04 C 404.16 765.44 399.97 764.99 394.69 764.98 C 389.64 764.96 383.71 764.54 381.53 764.03 C 379.34 763.52 377.38 763.29 377.16 763.51 C 376.17 764.49 380.99 771.72 383.98 773.75 C 388.14 776.58 394.34 776.70 398.70 774.04 Z M 639.71 774.04 C 642.49 772.34 647.78 764.44 646.79 763.46 C 646.60 763.27 644.66 763.52 642.47 764.03 C 640.29 764.54 633.89 764.96 628.25 764.98 C 622.61 764.99 618.00 765.34 618.01 765.75 C 618.02 767.39 621.94 772.32 624.64 774.10 C 628.44 776.61 635.54 776.58 639.71 774.04 Z M 669.00 413.49 L 669.00 361.00 L 512.00 361.00 L 355.00 361.00 L 355.00 412.83 C 355.00 441.34 355.29 464.95 355.63 465.30 C 355.98 465.65 426.63 465.95 512.63 465.96 L 669.00 465.99 L 669.00 413.49 Z M 668.85 321.25 L 668.50 303.50 L 664.91 296.00 C 659.02 283.67 649.74 275.73 637.54 272.55 C 632.31 271.19 616.85 271.00 512.00 271.00 C 382.93 271.00 385.98 270.88 377.06 276.19 C 368.65 281.20 361.25 290.26 357.80 299.77 C 356.11 304.43 355.64 308.64 355.25 322.25 L 354.77 339.00 L 511.98 339.00 L 669.19 339.00 L 668.85 321.25 Z M 584.00 249.47 C 584.00 249.18 583.30 247.26 582.45 245.22 C 580.48 240.50 576.60 236.41 571.50 233.66 C 567.57 231.54 566.61 231.50 515.07 231.22 C 479.05 231.02 460.95 231.28 457.23 232.06 C 449.49 233.66 443.03 239.74 440.56 247.75 L 439.87 250.00 L 511.93 250.00 C 551.57 250.00 584.00 249.76 584.00 249.47 Z M 725.48 812.60 C 718.15 809.41 718.15 795.53 725.47 792.19 C 729.04 790.57 736.50 790.69 739.85 792.42 C 747.24 796.24 746.57 810.21 738.88 812.89 C 734.69 814.35 729.22 814.24 725.48 812.60 Z M 574.39 718.02 C 573.23 717.55 571.27 715.89 570.04 714.33 C 568.26 712.07 567.90 710.62 568.29 707.14 C 568.88 701.89 571.33 699.17 576.60 697.95 C 581.72 696.77 629.34 696.78 634.50 697.97 C 644.48 700.28 646.32 713.28 637.32 717.88 C 634.70 719.22 577.67 719.35 574.39 718.02 Z M 574.39 672.02 C 571.22 670.74 568.00 666.10 568.00 662.82 C 568.00 658.37 570.75 654.00 574.53 652.42 C 579.13 650.50 633.21 650.37 636.90 652.26 C 642.43 655.11 644.82 662.23 642.01 667.48 C 639.26 672.62 636.64 673.01 605.35 672.94 C 589.48 672.90 575.55 672.49 574.39 672.02 Z M 387.67 567.95 C 386.24 566.83 384.70 564.47 384.25 562.70 C 383.80 560.94 383.67 547.42 383.97 532.66 L 384.50 505.82 L 387.31 503.41 C 392.69 498.78 401.10 501.00 403.91 507.79 C 404.75 509.81 405.01 518.46 404.80 537.41 L 404.50 564.17 L 401.23 567.08 C 397.21 570.68 391.59 571.04 387.67 567.95 Z M 431.92 530.08 C 427.59 525.74 427.79 520.01 432.44 515.36 L 435.87 511.93 L 472.02 512.21 L 508.17 512.50 L 511.08 515.77 C 515.44 520.64 514.84 527.01 509.63 531.23 C 507.70 532.79 504.08 532.96 471.17 532.98 L 434.85 533.00 L 431.92 530.08 Z M 391.00 451.30 C 390.17 451.00 388.26 449.60 386.75 448.19 L 384.00 445.63 L 384.00 417.24 L 384.00 388.85 L 386.92 385.92 C 391.00 381.85 396.67 381.84 401.23 385.92 L 404.50 388.83 L 404.80 415.42 C 405.06 438.88 404.89 442.43 403.37 445.62 C 401.13 450.36 395.51 452.94 391.00 451.30 Z M 435.38 436.56 C 428.89 433.74 426.84 425.62 431.30 420.44 C 434.60 416.60 439.65 416.08 474.15 416.03 C 507.87 415.98 509.74 416.29 512.67 422.43 C 515.05 427.43 513.65 432.66 509.10 435.72 C 505.73 437.98 505.47 438.00 472.10 437.96 C 446.06 437.93 437.80 437.62 435.38 436.56 Z" stroke-linecap="round"/>
</g>
</g>
</g>

  </svg>