<svg xmlns="http://www.w3.org/2000/svg" xmlns:xlink="http://www.w3.org/1999/xlink" width="500px" height="448px" viewBox="0 0 500 447.89512486605736">
    <g id="9dcecb4b-750a-497b-acac-521b89c20361">
<g style="">
		<g id="9dcecb4b-750a-497b-acac-521b89c20361-child-0">
<path style="stroke: rgb(193,193,193); stroke-width: 0; stroke-dasharray: none; stroke-linecap: butt; stroke-dashoffset: 0; stroke-linejoin: miter; stroke-miterlimit: 4; fill: rgb(0,0,0); fill-rule: nonzero; opacity: 1;" transform="matrix(1.013337 0 0 1.013337 249.999905 223.947477) matrix(1 0 0 1 0 0)  translate(-512.20954, -512)" d="M 291.41 731.14 C 289.71 730.09 287.35 727.99 286.16 726.48 L 284.00 723.73 L 284.00 658.59 L 284.00 593.45 L 280.45 591.54 C 276.08 589.19 270.84 583.50 267.79 577.80 L 265.50 573.50 L 265.50 504.90 L 265.50 436.30 L 269.00 429.44 C 271.54 424.46 273.88 421.53 277.50 418.77 C 285.05 413.03 289.78 412.00 308.68 412.00 L 325.00 412.00 L 325.00 363.75 L 325.00 315.50 L 327.85 309.50 C 331.41 301.99 337.91 295.93 345.37 293.14 L 351.08 291.00 L 512.00 291.00 C 671.36 291.00 672.98 291.02 678.36 293.03 C 685.62 295.75 692.25 301.78 695.69 308.79 L 698.50 314.50 L 698.79 363.16 L 699.07 411.81 L 717.29 412.20 C 737.46 412.62 739.89 413.21 747.62 419.55 C 750.36 421.79 753.09 425.47 755.20 429.75 L 758.50 436.45 L 758.81 501.48 C 759.08 558.72 758.92 567.22 757.51 572.50 C 755.52 579.92 750.61 586.82 744.63 590.61 L 740.07 593.50 L 740.04 658.35 C 740.00 730.73 740.39 726.73 732.95 730.91 C 729.59 732.79 727.62 733.00 712.86 733.00 C 694.41 733.00 691.32 732.16 687.27 726.10 L 685.00 722.70 L 685.00 659.46 C 685.00 602.71 684.84 596.15 683.42 595.61 C 682.55 595.27 604.70 595.00 510.42 595.00 L 339.00 595.00 L 339.00 658.25 C 339.00 728.08 339.21 725.63 332.68 730.43 C 330.12 732.31 328.24 732.53 312.18 732.78 C 296.20 733.04 294.20 732.88 291.41 731.14 Z M 319.00 654.63 L 319.00 596.27 L 311.75 595.74 C 307.76 595.45 304.16 595.42 303.75 595.67 C 303.34 595.91 303.00 622.42 303.00 654.56 L 303.00 713.00 L 311.00 713.00 L 319.00 713.00 L 319.00 654.63 Z M 721.00 654.50 L 721.00 596.00 L 712.50 596.00 L 704.00 596.00 L 704.00 654.50 L 704.00 713.00 L 712.50 713.00 L 721.00 713.00 L 721.00 654.50 Z M 731.68 574.06 C 739.35 570.58 739.00 573.98 739.00 502.45 L 739.00 438.80 L 735.60 435.40 L 732.20 432.00 L 512.23 432.00 L 292.27 432.00 L 289.51 434.17 C 283.93 438.56 284.00 437.75 284.06 503.72 C 284.10 548.08 284.44 565.44 285.31 567.97 C 285.99 569.95 287.96 572.41 289.90 573.72 L 293.30 576.00 L 510.40 575.98 C 721.51 575.96 727.62 575.90 731.68 574.06 Z M 403.17 380.75 C 403.48 351.12 403.61 349.26 405.68 344.78 C 408.71 338.22 415.87 331.57 422.61 329.04 C 428.09 326.99 429.22 326.97 513.33 327.23 L 598.50 327.50 L 603.42 329.92 C 609.69 333.01 614.91 338.23 618.04 344.54 C 620.47 349.44 620.50 349.88 620.81 380.75 L 621.13 412.00 L 650.59 412.00 L 680.06 412.00 L 679.78 364.92 L 679.50 317.85 L 675.76 314.42 C 671.21 310.25 693.32 310.69 502.58 310.96 C 367.79 311.15 351.40 311.34 349.28 312.74 C 344.01 316.19 344.00 316.32 344.00 365.95 L 344.00 412.00 L 373.42 412.00 L 402.85 412.00 L 403.17 380.75 Z M 601.00 382.56 C 601.00 353.46 600.97 353.08 598.75 350.50 C 597.51 349.07 594.92 347.58 593.00 347.20 C 591.08 346.81 553.12 346.73 508.66 347.00 L 427.83 347.50 L 425.41 350.31 L 423.00 353.11 L 423.00 382.56 L 423.00 412.00 L 512.00 412.00 L 601.00 412.00 L 601.00 382.56 Z M 364.07 731.25 C 362.19 730.29 359.71 728.23 358.57 726.68 C 356.55 723.92 356.49 722.66 356.22 671.03 L 355.95 618.21 L 358.53 615.14 C 361.78 611.28 366.59 610.22 370.85 612.42 C 372.55 613.30 374.40 614.89 374.97 615.94 C 375.64 617.19 376.00 634.72 376.00 665.43 L 376.00 713.00 L 390.50 713.00 L 405.00 713.00 L 405.00 665.13 C 405.00 618.45 405.05 617.21 407.04 614.67 C 410.83 609.85 420.40 610.28 423.26 615.39 C 424.41 617.45 424.50 621.81 424.88 692.00 L 425.00 713.50 L 439.50 713.20 L 454.00 712.90 L 454.00 664.62 L 454.00 616.35 L 456.58 613.92 C 460.43 610.31 467.31 610.50 470.59 614.31 L 473.00 617.11 L 473.00 665.06 L 473.00 713.00 L 488.00 713.00 L 503.00 713.00 L 503.00 664.67 L 503.00 616.35 L 505.58 613.92 C 507.49 612.13 509.28 611.50 512.50 611.50 C 515.72 611.50 517.51 612.13 519.42 613.92 L 522.00 616.35 L 522.00 664.67 L 522.00 713.00 L 536.50 713.00 L 551.00 713.00 L 551.00 665.43 C 551.00 634.72 551.36 617.19 552.03 615.94 C 553.33 613.52 558.12 611.00 561.43 611.00 C 562.83 611.00 565.44 612.31 567.23 613.92 L 570.50 616.83 L 570.78 664.92 L 571.06 713.00 L 585.53 713.00 L 600.00 713.00 L 600.00 665.13 C 600.00 618.69 600.06 617.19 602.01 614.71 C 604.53 611.51 608.92 610.49 613.59 612.03 C 619.83 614.09 619.86 614.33 619.26 661.55 C 618.97 684.73 619.04 705.78 619.42 708.34 L 620.12 713.00 L 634.06 713.00 L 648.00 713.00 L 648.00 665.43 C 648.00 634.72 648.36 617.19 649.03 615.94 C 651.92 610.55 661.14 609.81 664.96 614.67 C 666.96 617.21 667.00 618.41 667.00 670.18 C 667.00 729.30 667.23 727.31 660.02 730.99 C 656.13 732.98 654.34 733.00 511.79 733.00 C 376.40 733.00 367.29 732.89 364.07 731.25 Z M 309.50 558.59 C 307.85 557.85 305.38 556.04 304.00 554.55 L 301.50 551.84 L 301.50 503.94 L 301.50 456.03 L 305.27 452.27 L 309.03 448.50 L 510.27 448.25 C 700.34 448.01 711.69 448.09 714.93 449.75 C 716.81 450.71 719.29 452.78 720.43 454.34 C 722.46 457.12 722.50 457.99 722.23 504.34 C 721.93 556.89 722.25 554.52 714.93 558.25 C 711.70 559.90 700.00 559.99 512.00 559.96 C 347.98 559.93 311.97 559.68 309.50 558.59 Z M 703.00 504.00 L 703.00 468.00 L 687.50 468.00 L 672.00 468.00 L 672.00 494.58 L 672.00 521.15 L 669.08 524.08 C 667.09 526.06 665.15 527.00 663.03 527.00 C 658.87 527.00 654.34 524.55 653.32 521.76 C 652.87 520.52 652.50 508.02 652.50 494.00 L 652.50 468.50 L 637.34 468.22 L 622.17 467.95 L 621.84 494.56 L 621.50 521.17 L 618.11 524.20 C 615.16 526.83 614.18 527.15 610.61 526.67 C 607.88 526.31 605.75 525.25 604.25 523.51 C 602.04 520.93 602.00 520.43 602.00 494.44 L 602.00 468.00 L 586.50 468.00 L 571.00 468.00 L 571.00 494.91 L 571.00 521.82 L 567.92 524.41 C 563.85 527.84 559.15 527.84 555.08 524.41 L 552.00 521.82 L 552.00 494.91 L 552.00 468.00 L 537.00 468.00 L 522.00 468.00 L 522.00 493.10 C 522.00 522.11 521.56 524.15 514.94 526.14 C 511.96 527.03 510.42 527.00 508.01 526.00 C 502.09 523.55 502.00 523.10 502.00 494.28 L 502.00 468.00 L 487.05 468.00 L 472.09 468.00 L 471.80 494.58 L 471.50 521.17 L 468.11 524.20 C 465.16 526.83 464.18 527.15 460.61 526.67 C 457.88 526.31 455.75 525.25 454.25 523.51 C 452.04 520.93 452.00 520.43 452.00 494.44 L 452.00 468.00 L 437.00 468.00 L 422.00 468.00 L 422.00 493.43 C 422.00 507.42 421.57 520.00 421.04 521.39 C 420.00 524.12 415.36 527.00 412.00 527.00 C 408.69 527.00 404.50 524.39 403.19 521.53 C 402.37 519.71 402.00 511.06 402.00 493.45 L 402.00 468.00 L 386.50 468.00 L 371.00 468.00 L 371.00 494.44 L 371.00 520.89 L 368.59 523.69 C 366.58 526.02 365.38 526.50 361.50 526.50 C 357.62 526.50 356.42 526.02 354.41 523.69 L 352.00 520.89 L 352.00 494.44 L 352.00 468.00 L 336.50 468.00 L 321.00 468.00 L 321.00 504.00 L 321.00 540.00 L 512.00 540.00 L 703.00 540.00 L 703.00 504.00 Z" stroke-linecap="round"/>
</g>
</g>
</g>

  </svg>