<svg xmlns="http://www.w3.org/2000/svg" xmlns:xlink="http://www.w3.org/1999/xlink" width="500px" height="359px" viewBox="0 0 500 358.5657646891532">
    <g id="e96f08a7-cf10-457d-b0d4-6444f8302b59">
<g style="">
		<g id="e96f08a7-cf10-457d-b0d4-6444f8302b59-child-0">
<path style="stroke: rgb(193,193,193); stroke-width: 0; stroke-dasharray: none; stroke-linecap: butt; stroke-dashoffset: 0; stroke-linejoin: miter; stroke-miterlimit: 4; fill: rgb(0,0,0); fill-rule: nonzero; opacity: 1;" transform="matrix(0.771718 0 0 0.771718 249.999844 179.28277) matrix(1 0 0 1 0 0)  translate(-511.945821, -512.83357)" d="M 196.40 743.57 C 194.69 742.83 192.22 740.71 190.91 738.87 C 188.74 735.82 188.50 734.33 188.15 721.76 C 187.46 696.44 188.22 695.10 208.23 686.74 C 259.47 665.34 275.48 659.00 278.30 659.01 C 280.06 659.01 286.43 661.03 292.46 663.50 C 298.49 665.96 303.71 667.64 304.05 667.24 C 305.66 665.34 363.02 587.93 393.28 546.83 C 404.08 532.16 421.39 508.76 431.76 494.83 C 442.13 480.90 460.24 456.45 472.01 440.50 C 483.77 424.55 510.04 389.00 530.37 361.50 C 550.71 334.00 571.58 305.76 576.77 298.74 C 583.81 289.20 587.37 285.28 590.85 283.24 C 595.48 280.51 595.58 280.50 614.50 280.52 C 630.14 280.54 635.48 280.94 644.67 282.79 C 685.97 291.08 718.97 308.24 747.82 336.40 C 776.33 364.25 794.56 397.39 802.24 435.36 C 804.17 444.93 804.48 449.54 804.44 468.00 C 804.40 486.41 804.07 490.99 802.15 499.88 C 798.89 514.98 794.21 528.89 791.45 531.64 C 787.87 535.22 781.77 534.92 777.82 530.97 C 774.22 527.37 774.27 525.18 778.28 511.85 C 782.59 497.49 784.18 488.18 784.74 473.98 C 786.55 427.57 768.74 384.32 733.86 350.43 C 708.25 325.55 679.66 310.35 644.52 302.94 C 632.82 300.47 610.77 298.51 604.80 299.40 C 600.29 300.08 599.88 300.44 593.31 309.44 C 586.57 318.67 558.80 356.37 541.76 379.42 C 536.91 385.98 533.10 391.79 533.28 392.33 C 533.46 392.87 536.18 395.35 539.33 397.84 C 544.84 402.18 545.12 402.28 546.47 400.43 C 547.24 399.37 553.84 390.40 561.12 380.50 C 568.41 370.60 581.08 353.27 589.27 342.00 C 597.46 330.73 605.07 320.71 606.19 319.75 C 611.99 314.75 645.76 319.98 669.60 329.56 C 710.24 345.89 745.81 383.13 758.83 423.00 C 767.12 448.37 768.49 475.02 762.81 500.50 C 760.11 512.62 758.26 515.00 751.60 515.00 C 745.98 515.00 741.97 511.92 741.85 507.50 C 741.81 505.85 742.79 500.00 744.03 494.50 C 746.96 481.59 747.24 459.89 744.65 446.73 C 735.59 400.61 700.79 361.30 654.69 345.11 C 645.52 341.89 629.77 338.38 622.00 337.82 L 617.50 337.50 L 610.00 347.51 C 605.88 353.02 591.95 371.92 579.05 389.51 C 557.20 419.32 533.92 450.85 502.63 493.00 C 495.48 502.62 480.34 523.10 468.99 538.50 C 457.63 553.90 427.80 594.33 402.71 628.34 L 357.08 690.18 L 361.29 693.38 C 367.39 698.03 368.23 701.40 367.83 719.68 C 367.46 736.47 366.94 738.04 360.01 742.75 L 356.70 745.00 L 278.10 744.96 C 214.35 744.93 198.91 744.67 196.40 743.57 Z M 347.79 717.21 L 348.08 708.91 L 341.58 705.96 C 329.21 700.36 279.50 679.85 278.00 679.74 C 276.32 679.61 266.48 683.55 231.75 698.24 L 208.00 708.29 L 208.00 717.15 L 208.00 726.01 L 277.75 725.76 L 347.50 725.50 L 347.79 717.21 Z M 344.91 673.30 L 351.24 664.60 L 348.37 662.29 C 343.66 658.49 337.98 654.67 337.68 655.10 C 333.12 661.41 326.81 670.26 325.09 672.76 L 322.85 676.02 L 329.17 678.94 C 332.65 680.54 336.19 681.89 337.04 681.93 C 337.89 681.97 341.44 678.09 344.91 673.30 Z M 380.55 625.00 C 394.96 605.42 446.89 535.11 480.99 489.00 C 488.52 478.83 503.33 458.86 513.90 444.64 C 524.47 430.42 532.98 418.71 532.81 418.61 C 532.64 418.51 530.25 416.68 527.50 414.54 C 524.75 412.39 521.96 410.23 521.30 409.74 C 520.03 408.79 518.84 410.34 470.37 476.00 C 457.17 493.88 428.39 532.80 406.40 562.50 C 357.70 628.29 350.99 637.52 351.04 638.63 C 351.09 639.94 363.39 648.02 364.11 647.21 C 364.44 646.82 371.84 636.83 380.55 625.00 Z M 405.48 741.68 C 401.79 737.99 401.15 734.96 403.14 730.60 C 405.10 726.28 409.54 725.00 422.45 725.00 C 438.18 725.00 442.00 727.03 442.00 735.38 C 442.00 737.65 441.15 739.88 439.59 741.69 C 437.19 744.49 437.12 744.50 423.07 744.83 L 408.95 745.15 L 405.48 741.68 Z M 465.00 743.18 C 462.82 742.04 460.65 739.70 459.25 736.96 C 457.20 732.97 457.00 731.19 457.00 717.02 C 457.00 698.84 457.91 696.03 465.01 692.27 C 469.09 690.12 470.41 690.00 490.05 690.00 L 510.78 690.00 L 511.26 665.25 C 511.79 638.02 512.94 629.34 518.50 610.42 C 524.59 589.75 535.99 565.88 541.05 563.22 C 546.35 560.43 554.21 564.13 555.50 570.02 C 555.97 572.13 554.92 575.10 551.05 582.60 C 540.74 602.61 534.30 622.85 532.08 642.22 C 531.49 647.32 530.90 660.05 530.76 670.50 L 530.50 689.50 L 537.00 689.50 L 543.50 689.50 L 544.08 666.50 C 544.53 648.28 545.10 641.38 546.83 633.31 C 558.04 580.95 594.84 538.64 643.14 522.57 C 661.03 516.62 668.32 515.50 689.00 515.52 C 702.66 515.53 709.79 516.00 716.27 517.30 C 768.55 527.85 810.66 564.96 827.53 615.38 C 834.13 635.11 836.33 652.53 835.83 681.18 C 835.46 701.89 835.18 702.87 828.01 707.75 C 824.89 709.88 823.71 710.00 806.60 710.02 L 788.50 710.04 L 781.79 717.39 L 775.09 724.75 L 780.79 725.38 C 783.93 725.72 796.17 725.98 808.00 725.95 L 829.50 725.90 L 832.25 728.96 C 835.90 733.04 835.85 737.02 832.08 741.23 L 829.16 744.50 L 648.83 744.76 C 475.67 745.01 468.36 744.94 465.00 743.18 Z M 660.11 725.42 L 664.50 724.84 L 657.18 717.42 L 649.86 710.00 L 563.56 710.00 L 477.26 710.00 L 476.64 713.75 C 475.64 719.79 475.91 724.80 477.25 725.34 C 479.01 726.05 654.76 726.13 660.11 725.42 Z M 735.36 723.42 C 777.63 712.54 797.84 665.09 776.02 627.98 C 768.63 615.42 755.70 604.90 741.00 599.50 C 731.28 595.92 715.91 595.00 705.77 597.38 C 682.42 602.87 664.50 619.93 657.34 643.50 C 654.46 653.01 654.90 670.18 658.30 680.50 C 665.23 701.56 682.28 717.56 704.00 723.39 C 711.44 725.39 727.65 725.40 735.36 723.42 Z M 639.63 688.47 C 634.88 676.10 634.02 653.04 637.80 639.71 C 646.57 608.83 667.76 587.64 698.71 578.79 C 708.68 575.93 730.05 575.63 739.50 578.20 C 765.94 585.41 785.66 601.40 796.59 624.50 C 803.09 638.24 804.39 644.22 804.43 660.50 C 804.46 673.56 803.46 680.43 800.37 688.47 C 799.88 689.77 801.02 690.00 807.89 690.00 L 816.00 690.00 L 816.00 674.75 C 815.99 643.40 810.89 621.15 798.71 599.34 C 780.40 566.56 747.15 542.98 710.01 536.43 C 698.95 534.48 677.86 534.48 666.88 536.43 C 628.61 543.24 594.68 569.77 576.48 607.14 C 567.42 625.73 564.19 641.20 563.30 670.25 L 562.69 690.00 L 601.45 690.00 C 635.86 690.00 640.15 689.83 639.63 688.47 Z M 562.77 550.03 C 561.40 548.95 559.72 546.74 559.05 545.12 C 557.21 540.67 559.62 536.73 569.44 528.09 C 593.80 506.70 622.07 492.15 651.31 485.97 C 676.18 480.70 711.41 481.28 717.56 487.05 C 721.96 491.19 720.94 499.03 715.54 502.57 C 713.13 504.15 711.91 504.18 700.94 502.99 C 668.69 499.50 636.02 507.09 606.73 524.89 C 599.18 529.48 591.09 535.67 577.21 547.49 C 571.21 552.61 566.99 553.35 562.77 550.03 Z M 710.25 703.48 C 683.03 697.57 668.48 667.48 680.33 641.60 C 683.17 635.39 690.54 626.97 696.36 623.28 C 714.09 612.05 738.18 615.44 752.42 631.18 C 767.99 648.38 767.07 675.06 750.34 691.79 C 744.21 697.92 735.03 702.61 726.39 704.02 C 719.13 705.21 718.05 705.18 710.25 703.48 Z M 727.13 683.47 C 747.01 676.70 749.70 650.11 731.57 639.49 C 722.54 634.20 710.87 635.54 703.48 642.71 C 698.35 647.70 696.05 653.21 696.02 660.55 C 695.96 677.51 711.35 688.85 727.13 683.47 Z" stroke-linecap="round"/>
</g>
</g>
</g>

  </svg>