<svg xmlns="http://www.w3.org/2000/svg" xmlns:xlink="http://www.w3.org/1999/xlink" width="303px" height="500px" viewBox="0 0 303.2650992591414 500">
    <g id="54c39d69-0879-4d6b-835a-79735de91371">
<g style="">
		<g id="54c39d69-0879-4d6b-835a-79735de91371-child-0">
<path style="stroke: rgb(193,193,193); stroke-width: 0; stroke-dasharray: none; stroke-linecap: butt; stroke-dashoffset: 0; stroke-linejoin: miter; stroke-miterlimit: 4; fill: rgb(0,0,0); fill-rule: nonzero; opacity: 1;" transform="matrix(0.777651 0 0 0.777651 151.632631 250.000134) matrix(1 0 0 1 0 0)  translate(-512.013297, -512.484451)" d="M 369.66 832.54 C 364.56 830.72 361.22 827.45 360.00 823.07 C 359.46 821.11 359.01 812.05 359.01 802.95 L 359.00 786.40 L 354.00 784.60 C 341.85 780.23 328.58 768.20 323.00 756.49 C 316.66 743.21 317.03 760.17 317.03 490.00 C 317.03 218.93 316.63 236.64 323.19 223.21 C 327.71 213.97 340.13 201.45 349.00 197.17 C 362.58 190.63 352.92 191.00 511.96 191.01 C 671.14 191.03 662.44 190.70 675.95 197.24 C 684.62 201.45 696.56 213.18 700.87 221.74 C 707.25 234.39 707.00 229.53 707.00 340.04 L 707.00 440.65 L 704.47 443.03 C 701.10 446.19 695.91 446.20 692.55 443.05 L 690.05 440.69 L 689.77 340.10 L 689.50 239.50 L 687.18 233.75 C 683.79 225.36 676.45 217.83 667.21 213.26 L 659.61 209.50 L 615.16 209.22 L 570.71 208.94 L 574.24 212.85 C 578.70 217.78 582.37 224.02 585.25 231.58 L 587.50 237.50 L 587.77 424.74 C 588.06 632.34 588.45 619.56 581.46 633.75 C 575.13 646.60 563.52 657.08 549.28 662.78 L 542.50 665.50 L 455.29 665.78 C 380.06 666.02 367.18 665.85 361.52 664.54 C 353.74 662.74 348.14 660.06 342.00 655.20 C 339.52 653.24 336.92 651.20 336.21 650.67 C 335.16 649.87 334.98 658.17 335.21 695.10 C 335.50 739.94 335.53 740.57 337.82 746.25 C 341.06 754.27 348.57 762.17 356.81 766.23 L 363.46 769.50 L 511.98 769.50 L 660.50 769.50 L 667.00 766.41 C 678.87 760.78 686.56 750.85 688.99 738.04 C 689.63 734.66 690.00 690.17 690.00 615.82 L 690.00 498.91 L 692.45 496.45 C 695.79 493.12 701.21 493.12 704.55 496.45 L 707.00 498.91 L 706.99 618.70 C 706.97 749.90 707.19 744.74 701.04 756.92 C 695.29 768.32 681.78 780.36 670.00 784.60 L 665.00 786.40 L 665.00 804.83 C 665.00 825.43 664.44 827.51 657.82 831.50 C 654.84 833.30 652.37 833.53 633.50 833.84 C 609.74 834.22 603.71 833.40 599.71 829.21 C 595.57 824.87 595.00 821.88 595.00 804.43 L 595.00 788.00 L 512.00 788.00 L 429.00 788.00 L 429.00 805.35 C 429.00 821.70 428.87 822.90 426.74 826.10 C 425.50 827.97 422.48 830.51 420.03 831.75 C 415.82 833.88 414.42 834.00 394.54 833.96 C 379.35 833.92 372.43 833.53 369.66 832.54 Z M 411.00 802.00 L 411.00 788.00 L 394.00 788.00 L 377.00 788.00 L 377.00 802.00 L 377.00 816.00 L 394.00 816.00 L 411.00 816.00 L 411.00 802.00 Z M 647.79 804.00 C 648.23 786.42 650.00 788.00 629.98 788.00 L 613.00 788.00 L 613.00 802.02 L 613.00 816.05 L 630.25 815.77 L 647.50 815.50 L 647.79 804.00 Z M 540.68 646.95 C 551.56 644.72 562.44 634.97 567.21 623.15 L 569.50 617.50 L 569.50 428.48 L 569.50 239.46 L 566.08 232.51 C 561.70 223.62 554.84 216.77 546.24 212.69 L 539.50 209.50 L 451.50 209.50 L 363.50 209.50 L 357.22 212.78 C 346.37 218.44 339.49 227.04 336.52 238.60 C 335.15 243.98 335.00 265.39 335.24 431.07 L 335.50 617.50 L 339.13 625.00 C 344.88 636.90 354.79 645.32 365.57 647.48 C 372.61 648.88 533.59 648.39 540.68 646.95 Z M 397.00 754.31 C 391.60 752.32 388.57 750.26 386.44 747.12 C 384.02 743.57 384.00 743.30 384.00 719.92 C 384.00 696.99 384.07 696.20 386.28 692.91 C 387.53 691.05 390.35 688.52 392.53 687.28 L 396.50 685.03 L 512.28 685.02 C 638.92 685.00 631.58 684.65 637.50 690.94 L 640.50 694.13 L 640.80 718.06 C 641.14 745.33 640.76 747.15 633.67 751.84 L 629.65 754.50 L 514.07 754.68 C 450.51 754.78 397.83 754.61 397.00 754.31 Z M 623.00 720.00 C 623.00 703.03 623.00 703.00 620.75 703.01 C 619.51 703.01 569.79 702.90 510.25 702.76 L 402.00 702.50 L 402.00 719.75 L 402.00 737.00 L 512.50 737.00 L 623.00 737.00 L 623.00 720.00 Z M 618.02 607.28 C 616.11 606.30 613.52 603.97 612.27 602.10 L 610.00 598.70 L 610.00 555.00 L 610.00 511.30 L 612.27 507.90 C 616.33 501.82 619.39 501.00 638.10 501.00 C 653.67 501.00 654.91 501.14 658.01 503.25 C 659.83 504.49 662.26 506.77 663.41 508.32 C 665.46 511.09 665.50 512.07 665.50 555.00 C 665.50 597.73 665.45 598.92 663.44 601.61 C 658.56 608.15 657.45 608.47 638.68 608.78 C 623.80 609.03 621.03 608.83 618.02 607.28 Z M 648.00 554.55 L 648.00 518.09 L 638.00 518.16 L 628.00 518.22 L 628.00 554.61 L 628.00 591.00 L 638.00 591.00 L 648.00 591.00 L 648.00 554.55 Z M 613.06 479.80 C 605.06 475.66 604.55 474.23 604.18 455.21 C 604.00 446.05 604.14 437.09 604.47 435.29 C 605.31 430.81 611.04 425.48 616.48 424.11 C 622.03 422.71 655.24 422.66 660.22 424.04 C 662.26 424.61 665.32 426.24 667.00 427.66 C 672.56 432.33 673.00 434.22 673.00 453.30 C 673.00 469.70 672.87 470.90 670.75 474.05 C 666.09 480.96 664.06 481.47 639.50 481.80 C 618.22 482.08 617.35 482.02 613.06 479.80 Z M 655.00 452.50 L 655.00 441.00 L 638.50 441.00 L 622.00 441.00 L 622.00 452.50 L 622.00 464.00 L 638.50 464.00 L 655.00 464.00 L 655.00 452.50 Z M 696.00 481.31 C 695.17 481.00 693.49 479.82 692.25 478.70 C 690.31 476.94 690.00 475.65 690.00 469.41 C 690.00 462.56 690.16 462.04 693.08 459.59 C 696.58 456.64 698.89 456.37 702.93 458.46 C 706.53 460.32 707.00 461.65 707.00 469.91 C 707.00 475.61 706.65 476.97 704.75 478.75 C 702.29 481.05 698.35 482.21 696.00 481.31 Z M 616.00 406.83 C 614.08 406.29 611.22 404.64 609.66 403.17 C 604.15 397.98 604.00 397.14 604.00 370.45 C 604.00 343.48 604.39 341.31 609.88 337.25 C 615.05 333.42 619.45 332.84 640.58 333.18 L 660.65 333.50 L 664.91 336.32 C 672.31 341.22 672.95 343.89 672.97 370.00 C 672.98 382.38 672.53 394.15 671.97 396.17 C 670.73 400.62 665.42 405.51 660.28 406.94 C 655.55 408.25 620.73 408.17 616.00 406.83 Z M 655.00 370.50 L 655.00 351.00 L 638.50 351.00 L 622.00 351.00 L 622.00 370.50 L 622.00 390.00 L 638.50 390.00 L 655.00 390.00 L 655.00 370.50 Z M 613.50 301.42 C 605.70 297.36 604.00 293.51 604.00 279.93 C 604.00 267.89 605.41 264.08 611.33 260.16 L 615.35 257.50 L 638.43 257.50 C 660.73 257.50 661.62 257.58 665.18 259.79 C 670.94 263.37 673.00 268.73 673.00 280.16 C 673.00 292.06 670.79 297.13 664.04 300.70 C 659.88 302.90 658.71 303.00 638.09 302.99 C 620.47 302.99 615.95 302.70 613.50 301.42 Z M 655.00 280.50 L 655.00 276.00 L 642.50 275.80 C 635.62 275.69 628.31 275.58 626.25 275.55 L 622.50 275.50 L 622.20 280.25 L 621.89 285.00 L 638.45 285.00 L 655.00 285.00 L 655.00 280.50 Z M 365.51 632.40 C 360.38 630.52 354.28 624.66 351.84 619.26 C 349.97 615.14 349.92 610.26 349.96 428.76 L 349.99 242.50 L 352.77 237.00 C 355.79 231.01 362.13 225.89 368.82 224.03 C 371.18 223.38 401.00 223.01 452.07 223.01 C 540.26 223.00 537.95 222.84 545.71 229.48 C 547.97 231.42 550.99 235.34 552.41 238.20 L 555.00 243.39 L 555.00 428.33 C 555.00 565.79 554.70 614.26 553.84 617.14 C 552.20 622.63 546.47 628.87 540.56 631.63 L 535.50 633.98 L 452.50 633.92 C 382.33 633.87 368.88 633.63 365.51 632.40 Z M 535.09 614.06 L 538.03 611.12 L 537.77 582.81 L 537.50 554.50 L 452.50 554.50 L 367.50 554.50 L 367.23 582.14 C 367.07 598.86 367.36 610.83 367.97 612.42 C 368.52 613.87 369.99 615.46 371.24 615.96 C 372.52 616.48 407.68 616.90 452.83 616.94 L 532.15 617.00 L 535.09 614.06 Z M 537.76 505.27 L 538.03 474.05 L 535.76 473.50 C 534.52 473.20 496.15 473.07 450.50 473.22 L 367.50 473.50 L 367.23 503.99 C 367.09 520.76 367.19 535.05 367.46 535.75 C 367.84 536.76 385.06 536.96 452.72 536.76 L 537.50 536.50 L 537.76 505.27 Z M 537.76 424.25 L 538.03 393.00 L 452.51 393.00 L 367.00 393.00 L 367.00 424.51 L 367.00 456.01 L 452.25 455.76 L 537.50 455.50 L 537.76 424.25 Z M 538.00 343.50 L 538.00 312.00 L 452.50 312.00 L 367.00 312.00 L 367.00 343.50 L 367.00 375.00 L 452.50 375.00 L 538.00 375.00 L 538.00 343.50 Z M 538.00 270.42 L 538.00 246.85 L 535.08 243.92 L 532.15 241.00 L 452.66 241.00 C 408.94 241.00 372.44 241.28 371.54 241.62 C 367.59 243.14 367.00 246.92 367.00 270.95 L 367.00 294.00 L 452.50 294.00 L 538.00 294.00 L 538.00 270.42 Z M 631.45 378.55 C 625.97 373.06 630.12 362.00 637.65 362.00 C 642.23 362.00 644.63 363.39 646.58 367.15 C 650.03 373.83 645.50 381.00 637.82 381.00 C 635.00 381.00 633.22 380.31 631.45 378.55 Z" stroke-linecap="round"/>
</g>
</g>
</g>

  </svg>