<svg xmlns="http://www.w3.org/2000/svg" xmlns:xlink="http://www.w3.org/1999/xlink" width="436px" height="500px" viewBox="0 0 436.411138918414 500">
    <g id="bcac5fa5-c366-45b5-817c-dec0ec999eb3">
<g style="">
		<g id="bcac5fa5-c366-45b5-817c-dec0ec999eb3-child-0">
<path style="stroke: rgb(193,193,193); stroke-width: 0; stroke-dasharray: none; stroke-linecap: butt; stroke-dashoffset: 0; stroke-linejoin: miter; stroke-miterlimit: 4; fill: rgb(0,0,0); fill-rule: nonzero; opacity: 1;" transform="matrix(0.766883 0 0 0.766883 218.205656 250.000099) matrix(1 0 0 1 0 0)  translate(-512.420779, -512.004902)" d="M 230.65 835.55 C 226.97 832.14 226.96 826.31 230.64 822.64 C 232.09 821.19 234.00 820.00 234.89 820.00 C 235.77 820.00 263.95 819.98 297.50 819.95 C 331.05 819.92 359.53 819.92 360.80 819.95 C 367.46 820.10 370.47 830.26 365.36 835.36 L 362.73 838.00 L 298.01 838.00 L 233.29 838.00 L 230.65 835.55 Z M 423.81 836.51 C 410.65 833.19 396.53 824.40 388.96 814.83 C 386.67 811.94 382.64 805.28 379.99 800.04 C 374.54 789.25 369.10 783.29 361.50 779.80 C 356.71 777.60 355.18 777.48 325.33 777.00 L 294.16 776.50 L 291.53 774.03 C 289.33 771.96 288.96 770.84 289.20 767.07 C 289.46 763.19 289.99 762.24 293.00 760.21 L 296.50 757.84 L 327.00 758.27 C 359.81 758.74 362.34 759.08 372.99 764.49 C 376.02 766.02 381.46 770.26 385.08 773.89 C 391.36 780.18 392.38 781.84 399.56 797.38 C 403.34 805.57 417.75 816.16 428.19 818.42 L 430.87 819.01 L 427.01 810.63 C 400.07 752.33 382.50 677.47 378.04 602.00 C 369.39 455.72 397.69 329.90 459.79 238.50 C 470.48 222.77 479.33 211.99 491.23 200.19 C 504.31 187.22 506.13 186.01 512.60 186.01 C 517.41 186.00 518.10 186.35 525.10 192.33 C 566.30 227.56 606.98 302.16 626.96 379.15 C 651.69 474.41 654.57 595.56 634.46 694.21 C 626.45 733.53 612.61 776.75 598.38 806.90 C 595.42 813.16 593.00 818.40 593.00 818.54 C 593.00 819.40 601.24 816.67 606.56 814.04 C 616.27 809.26 621.30 803.72 627.03 791.44 C 634.51 775.41 644.41 765.96 659.00 760.90 C 665.03 758.81 667.62 758.61 694.76 758.21 C 710.85 757.98 725.64 758.09 727.62 758.46 C 735.63 759.96 738.94 768.88 733.42 774.08 L 730.84 776.50 L 698.67 777.00 C 667.15 777.49 666.40 777.55 661.58 779.92 C 653.91 783.70 649.50 788.87 643.84 800.78 C 639.46 809.97 637.65 812.57 631.12 819.01 C 618.08 831.87 602.91 838.00 584.15 838.00 C 572.27 838.00 564.05 836.05 552.50 830.49 C 537.42 823.22 524.11 810.55 516.22 795.93 C 514.17 792.14 512.28 789.04 512.00 789.05 C 511.73 789.05 509.48 792.76 507.00 797.28 C 501.09 808.08 487.60 821.75 476.98 827.69 C 464.35 834.77 455.42 837.28 441.50 837.64 C 433.41 837.85 427.64 837.48 423.81 836.51 Z M 461.53 814.64 C 481.61 804.96 495.03 787.39 500.64 763.44 C 502.40 755.91 502.50 748.71 502.50 625.01 L 502.50 494.53 L 482.50 478.22 C 440.54 444.01 407.85 417.82 407.52 418.15 C 406.70 418.98 401.92 450.19 400.09 466.60 C 396.32 500.40 395.52 515.90 395.57 554.50 C 395.61 592.67 396.44 608.45 400.00 639.00 C 406.97 698.82 423.34 758.53 446.01 806.75 C 449.57 814.33 451.83 818.00 452.92 818.00 C 453.82 818.00 457.69 816.49 461.53 814.64 Z M 576.77 809.73 C 592.44 777.51 606.59 735.41 614.98 696.00 C 619.40 675.24 624.50 642.68 625.59 628.23 L 626.25 619.48 L 600.46 598.49 C 586.27 586.94 562.93 567.94 548.58 556.25 C 534.24 544.57 522.16 535.01 521.75 535.00 C 520.54 535.00 520.83 750.68 522.05 757.57 C 526.84 784.58 543.12 806.69 564.78 815.60 C 567.93 816.89 571.01 817.96 571.63 817.98 C 572.24 817.99 574.56 814.28 576.77 809.73 Z M 628.55 587.25 C 629.67 573.80 628.33 508.63 626.55 490.00 C 616.97 389.76 592.35 312.67 549.89 249.91 C 541.81 237.98 523.73 216.00 521.98 216.00 C 521.34 216.00 521.00 267.42 521.01 363.25 L 521.02 510.50 L 573.76 553.23 C 602.77 576.73 626.80 595.97 627.16 595.98 C 627.52 595.99 628.15 592.06 628.55 587.25 Z M 502.00 460.54 L 502.00 451.07 L 459.31 416.54 C 435.83 397.54 416.33 382.00 415.99 382.00 C 415.31 382.00 411.58 396.95 412.15 397.42 C 427.95 410.59 501.27 469.97 501.75 469.99 C 501.89 469.99 502.00 465.74 502.00 460.54 Z M 502.91 326.75 C 502.86 271.61 502.53 224.29 502.16 221.60 L 501.50 216.70 L 495.11 223.54 C 470.75 249.60 443.20 299.22 426.63 346.85 C 424.08 354.16 422.00 360.74 422.00 361.46 C 422.00 362.18 428.19 367.71 435.75 373.73 C 443.31 379.76 461.14 394.21 475.37 405.85 C 489.59 417.48 501.63 427.00 502.12 427.00 C 502.62 427.00 502.96 384.28 502.91 326.75 Z M 659.71 835.99 C 655.00 832.28 655.30 824.81 660.30 821.54 C 662.40 820.17 670.38 819.97 726.78 819.94 C 795.01 819.90 793.68 819.81 795.93 824.74 C 797.75 828.73 797.16 831.99 794.08 835.08 L 791.15 838.00 L 726.71 838.00 C 663.65 838.00 662.21 837.96 659.71 835.99 Z M 368.50 742.09 C 367.40 741.62 365.73 740.38 364.80 739.34 C 363.01 737.35 358.01 715.92 358.01 710.20 C 357.99 702.87 367.65 699.15 373.45 704.25 C 375.55 706.10 376.48 708.73 378.66 719.00 C 380.12 725.88 381.30 732.78 381.29 734.34 C 381.26 739.72 373.69 744.31 368.50 742.09 Z M 648.35 741.82 C 647.17 741.25 645.42 739.34 644.47 737.57 C 642.80 734.47 642.83 733.99 645.35 723.43 C 648.98 708.23 653.77 684.38 655.54 672.66 C 657.31 660.93 658.08 659.28 662.65 657.37 C 669.11 654.67 675.00 658.61 675.00 665.61 C 675.00 675.24 664.75 726.35 660.83 736.28 C 658.63 741.85 653.30 744.22 648.35 741.82 Z M 357.50 688.09 C 352.86 686.11 352.05 683.81 349.45 665.47 C 346.98 647.94 344.01 618.17 344.01 610.70 C 344.00 605.60 347.52 602.00 352.52 602.00 C 359.57 602.00 363.00 606.25 363.00 614.98 C 363.00 621.67 365.52 646.01 368.01 663.33 C 369.11 670.94 370.00 678.45 370.00 680.02 C 370.00 685.71 362.79 690.36 357.50 688.09 Z M 663.32 639.75 C 660.24 636.33 660.11 635.27 661.17 621.91 C 662.31 607.51 663.24 604.44 667.09 602.45 C 671.42 600.21 673.89 600.69 677.72 604.52 L 681.23 608.03 L 680.58 615.77 C 678.75 637.42 678.85 636.87 676.24 639.49 C 672.85 642.88 666.26 643.01 663.32 639.75 Z" stroke-linecap="round"/>
</g>
</g>
</g>

  </svg>