<svg xmlns="http://www.w3.org/2000/svg" xmlns:xlink="http://www.w3.org/1999/xlink" width="366px" height="500px" viewBox="0 0 365.916248359978 500">
    <g id="439171d8-9b53-41d3-80ad-4331cd4ad04c">
<g style="">
		<g id="439171d8-9b53-41d3-80ad-4331cd4ad04c-child-0">
<path style="stroke: rgb(193,193,193); stroke-width: 0; stroke-dasharray: none; stroke-linecap: butt; stroke-dashoffset: 0; stroke-linejoin: miter; stroke-miterlimit: 4; fill: rgb(0,0,0); fill-rule: nonzero; opacity: 1;" transform="matrix(0.897161 0 0 0.897161 182.958063 249.999917) matrix(1 0 0 1 0 0)  translate(-512.058329, -511.682796)" d="M 316.39 790.20 C 312.98 789.71 308.90 784.68 308.30 780.22 C 307.83 776.68 308.17 775.79 311.30 772.36 L 314.84 768.50 L 334.67 768.00 L 354.50 767.50 L 350.75 765.17 C 338.70 757.68 331.51 738.84 334.99 723.89 C 337.53 712.97 339.88 710.08 375.72 673.86 L 410.00 639.22 L 410.00 511.70 C 410.00 389.35 410.08 383.93 411.89 378.09 C 416.99 361.72 432.14 348.24 449.21 344.88 L 454.93 343.75 L 449.03 339.94 C 437.73 332.63 429.15 321.74 424.81 309.19 C 421.50 299.59 421.50 282.41 424.81 272.81 C 429.89 258.12 440.38 246.35 454.50 239.49 C 468.49 232.70 480.29 231.37 494.40 234.98 C 505.04 237.70 513.22 242.32 520.97 250.00 C 532.24 261.16 538.00 274.98 538.00 290.82 C 538.00 307.19 533.01 319.00 520.95 331.21 C 512.06 340.20 501.36 346.04 490.08 348.05 L 483.20 349.28 L 489.06 353.20 C 496.64 358.26 498.68 360.91 522.50 396.77 L 542.50 426.87 L 583.00 427.19 L 623.50 427.50 L 630.22 430.79 C 655.65 443.22 661.37 474.11 641.94 494.06 C 636.62 499.53 626.63 504.84 620.00 505.73 C 617.69 506.04 616.00 506.81 616.00 507.55 C 616.00 508.25 617.55 514.38 619.45 521.17 C 621.35 527.95 631.51 564.55 642.03 602.50 C 658.93 663.47 686.21 761.44 687.62 766.25 C 688.06 767.76 689.45 768.00 697.62 768.00 C 708.36 768.00 712.08 769.32 714.48 773.97 C 716.94 778.72 716.41 782.59 712.75 786.52 L 709.50 790.00 L 514.00 790.25 C 406.48 790.39 317.55 790.36 316.39 790.20 Z M 552.50 766.15 C 547.61 763.15 541.07 755.33 537.99 748.81 C 534.96 742.41 534.35 740.03 523.00 690.50 C 519.09 673.45 515.26 658.60 514.47 657.50 C 513.69 656.40 508.10 650.33 502.05 644.00 L 491.06 632.50 L 490.99 652.00 C 490.95 665.69 490.55 672.17 489.67 673.77 C 488.25 676.32 405.16 761.88 400.50 765.59 L 397.50 767.98 L 476.50 767.99 C 553.67 767.99 555.43 767.95 552.50 766.15 Z M 664.00 767.16 C 664.00 766.70 660.83 754.89 656.95 740.91 C 653.07 726.94 648.15 709.20 646.02 701.50 C 643.89 693.80 639.89 679.40 637.14 669.50 C 627.07 633.35 603.77 549.06 599.40 533.00 C 596.93 523.92 594.24 514.14 593.42 511.25 L 591.94 506.00 L 555.97 506.00 L 520.00 506.00 L 520.00 523.75 L 520.01 541.50 L 553.75 576.33 C 572.31 595.48 588.28 612.13 589.22 613.33 C 590.89 615.43 614.76 710.75 617.25 725.25 C 619.88 740.57 613.55 755.80 600.66 765.13 L 596.70 768.00 L 630.35 768.00 C 648.86 768.00 664.00 767.62 664.00 767.16 Z M 384.82 748.59 C 386.43 747.76 405.70 728.81 427.63 706.48 L 467.50 665.88 L 468.00 631.02 L 468.50 596.16 L 470.88 593.63 C 473.68 590.65 477.69 589.55 481.09 590.84 C 482.43 591.35 486.94 595.31 491.10 599.64 C 514.84 624.30 533.70 644.53 535.13 646.85 C 536.03 648.31 537.27 651.75 537.88 654.50 C 538.49 657.25 543.07 677.05 548.05 698.50 C 557.88 740.79 558.59 742.72 566.16 747.72 C 574.70 753.38 587.72 750.19 592.76 741.21 C 596.79 734.04 597.13 736.02 579.53 663.50 L 570.79 627.50 L 566.22 622.50 C 563.70 619.75 551.25 606.70 538.54 593.50 C 525.83 580.30 511.56 565.39 506.84 560.37 L 498.25 551.23 L 497.84 526.27 L 497.43 501.30 L 481.34 476.90 C 451.39 431.47 449.00 427.69 449.00 425.81 C 449.00 422.50 451.67 417.40 454.63 415.07 C 456.85 413.32 458.36 412.92 461.29 413.31 C 463.37 413.59 465.74 414.37 466.55 415.04 C 467.37 415.72 478.22 431.51 490.68 450.13 L 513.33 484.00 L 565.20 484.00 C 622.41 484.00 621.03 484.14 626.72 477.67 C 634.13 469.23 631.40 456.44 620.99 450.86 C 617.77 449.13 614.50 449.00 574.44 449.00 L 531.35 449.00 L 529.28 446.75 C 528.14 445.51 517.07 429.15 504.69 410.40 C 480.39 373.60 477.72 370.53 467.31 367.39 C 454.47 363.53 440.81 368.96 434.72 380.36 L 432.50 384.50 L 432.00 516.00 C 431.54 637.37 431.37 647.68 429.81 649.89 C 428.88 651.20 412.88 667.67 394.25 686.48 C 373.99 706.95 359.65 722.22 358.58 724.48 C 356.16 729.58 356.76 738.44 359.81 742.73 C 361.02 744.43 364.37 747.02 367.26 748.49 C 373.07 751.43 379.26 751.47 384.82 748.59 Z M 495.22 323.76 C 502.25 320.54 508.97 313.79 512.69 306.22 C 515.20 301.10 515.50 299.45 515.49 290.50 C 515.48 281.50 515.20 279.97 512.68 275.16 C 508.93 268.03 502.15 261.43 495.20 258.17 C 490.28 255.86 488.21 255.50 480.00 255.50 C 471.79 255.50 469.72 255.86 464.80 258.17 C 457.54 261.58 450.58 268.54 447.17 275.80 C 444.86 280.72 444.50 282.79 444.50 291.00 C 444.50 302.21 446.31 307.12 453.16 314.57 C 461.64 323.78 469.58 327.18 481.50 326.70 C 487.52 326.46 490.91 325.73 495.22 323.76 Z" stroke-linecap="round"/>
</g>
</g>
</g>

  </svg>