<svg xmlns="http://www.w3.org/2000/svg" xmlns:xlink="http://www.w3.org/1999/xlink" width="1727px" height="1267px" viewBox="0 0 1727.3213279481788 1267.1506304663526">
    <g id="c39d598e-0b85-428c-8859-d361b9ece3a0">
<g style="">
		<g id="c39d598e-0b85-428c-8859-d361b9ece3a0-child-0">
<path style="stroke: rgb(193,193,193); stroke-width: 0; stroke-dasharray: none; stroke-linecap: butt; stroke-dashoffset: 0; stroke-linejoin: miter; stroke-miterlimit: 4; fill: rgb(0,0,0); fill-rule: nonzero; opacity: 1;" transform="matrix(2.129866 0 0 2.129866 863.660663 633.575315) matrix(1 0 0 1 0 0)  translate(-512.5, -513.471914)" d="M 488.50 810.05 C 487.40 809.59 485.38 808.01 484.00 806.53 L 481.50 803.84 L 481.19 777.47 L 480.88 751.10 L 464.69 742.67 C 455.79 738.04 419.70 719.51 384.50 701.49 C 349.30 683.47 306.62 661.59 289.65 652.87 L 258.80 637.00 L 186.30 637.00 L 113.80 637.00 L 110.40 633.60 L 107.00 630.20 L 107.00 592.26 L 107.00 554.31 L 123.25 537.26 C 132.19 527.88 151.31 508.04 165.75 493.19 L 192.00 466.17 L 192.00 344.99 C 192.00 233.72 192.14 223.58 193.67 220.99 C 194.58 219.44 196.40 217.68 197.71 217.09 C 199.28 216.37 212.17 216.00 235.49 216.00 L 270.89 216.00 L 273.69 218.41 C 276.36 220.69 276.53 221.35 277.00 231.16 L 277.50 241.50 L 491.50 241.28 C 609.20 241.17 714.79 241.05 726.15 241.03 L 746.81 241.00 L 747.15 231.42 C 747.49 222.04 747.57 221.77 750.77 218.92 L 754.03 216.00 L 790.09 216.00 L 826.15 216.00 L 829.08 218.92 L 832.00 221.85 L 832.00 343.72 L 832.00 465.59 L 857.25 491.55 C 871.14 505.82 890.49 525.78 900.25 535.91 L 918.00 554.32 L 918.00 592.26 L 918.00 630.20 L 914.60 633.60 L 911.20 637.00 L 838.24 637.00 L 765.28 637.00 L 748.89 645.59 C 739.88 650.31 711.35 664.99 685.50 678.21 C 638.61 702.19 571.22 736.80 552.75 746.38 L 543.00 751.44 L 543.00 777.50 C 543.00 799.97 542.78 803.88 541.37 805.88 C 538.21 810.40 534.67 811.00 511.78 810.94 C 500.08 810.90 489.60 810.50 488.50 810.05 Z M 505.00 716.50 L 505.00 637.00 L 500.50 637.00 L 496.00 637.00 L 496.00 716.50 L 496.00 796.00 L 500.50 796.00 L 505.00 796.00 L 505.00 716.50 Z M 528.00 716.50 L 528.00 637.00 L 524.00 637.00 L 520.00 637.00 L 520.00 716.50 L 520.00 796.00 L 524.00 796.00 L 528.00 796.00 L 528.00 716.50 Z M 481.17 729.25 L 480.84 724.50 L 448.17 707.76 C 430.20 698.55 404.70 685.47 391.50 678.69 C 378.30 671.91 354.50 659.74 338.62 651.65 L 309.74 636.93 L 301.12 637.21 L 292.50 637.50 L 340.00 661.69 C 366.12 675.00 408.42 696.69 434.00 709.90 C 459.58 723.11 480.73 733.93 481.00 733.96 C 481.27 733.98 481.35 731.86 481.17 729.25 Z M 645.50 681.68 C 673.00 667.63 703.83 651.85 714.00 646.60 L 732.50 637.05 L 723.10 637.03 C 714.25 637.00 713.33 637.20 707.60 640.38 C 704.24 642.25 670.00 659.84 631.50 679.49 C 593.00 699.14 557.34 717.45 552.25 720.18 L 543.00 725.14 L 543.00 729.64 L 543.00 734.15 L 569.25 720.68 C 583.69 713.27 618.00 695.72 645.50 681.68 Z M 635.50 660.71 C 658.05 649.14 677.62 639.09 679.00 638.38 C 681.22 637.22 680.51 637.08 672.50 637.04 L 663.50 637.00 L 617.00 660.75 C 591.42 673.81 564.32 687.65 556.76 691.50 L 543.02 698.50 L 543.01 703.30 L 543.00 708.11 L 568.75 694.92 C 582.91 687.67 612.95 672.28 635.50 660.71 Z M 481.17 702.63 L 480.82 698.25 L 457.16 686.12 C 444.15 679.44 417.30 665.65 397.50 655.47 L 361.50 636.95 L 353.00 637.22 L 344.50 637.50 L 412.00 672.22 C 449.12 691.32 479.95 706.96 480.51 706.97 C 481.09 706.99 481.37 705.14 481.17 702.63 Z M 481.31 659.25 L 480.88 637.50 L 437.69 637.26 L 394.50 637.02 L 437.50 658.96 C 461.15 671.03 480.78 680.92 481.12 680.95 C 481.46 680.98 481.54 671.21 481.31 659.25 Z M 573.84 666.09 C 589.60 657.89 608.80 648.01 616.50 644.14 L 630.50 637.10 L 586.75 637.05 L 543.00 637.00 L 543.00 659.00 C 543.00 674.26 543.34 681.00 544.09 681.00 C 544.70 681.00 558.08 674.29 573.84 666.09 Z M 903.00 617.50 L 903.00 613.00 L 512.00 613.00 L 121.00 613.00 L 121.00 616.83 C 121.00 618.94 121.30 620.97 121.67 621.33 C 122.03 621.70 297.98 622.00 512.67 622.00 L 903.00 622.00 L 903.00 617.50 Z M 903.00 593.50 L 903.00 589.00 L 512.00 589.00 L 121.00 589.00 L 121.00 593.50 L 121.00 598.00 L 512.00 598.00 L 903.00 598.00 L 903.00 593.50 Z M 903.00 569.50 L 903.00 565.00 L 512.00 565.00 L 121.00 565.00 L 121.00 569.50 L 121.00 574.00 L 512.00 574.00 L 903.00 574.00 L 903.00 569.50 Z M 881.99 539.25 C 876.23 533.34 860.04 516.91 846.01 502.75 L 820.51 477.00 L 511.91 477.00 L 203.32 477.00 L 176.43 504.75 C 161.64 520.01 145.74 536.44 141.09 541.25 L 132.64 550.00 L 512.55 550.00 L 892.46 550.00 L 881.99 539.25 Z M 263.00 346.50 L 263.00 231.00 L 258.50 231.00 L 254.00 231.00 L 254.00 345.93 L 254.00 460.86 L 256.25 461.29 C 257.49 461.53 259.51 461.79 260.75 461.86 L 263.00 462.00 L 263.00 346.50 Z M 215.67 345.75 L 215.38 230.50 L 211.44 230.50 L 207.50 230.50 L 207.25 345.75 L 206.99 461.00 L 211.47 461.00 L 215.95 461.00 L 215.67 345.75 Z M 239.00 346.12 L 239.00 231.25 L 235.88 230.62 C 234.16 230.28 232.13 230.00 231.38 230.00 C 230.22 230.00 230.00 248.17 230.00 345.50 L 230.00 461.00 L 234.50 461.00 L 239.00 461.00 L 239.00 346.12 Z M 747.00 382.50 L 747.00 304.00 L 512.00 304.00 L 277.00 304.00 L 277.00 362.84 C 277.00 395.20 277.30 430.53 277.66 441.34 L 278.32 461.00 L 512.66 461.00 L 747.00 461.00 L 747.00 382.50 Z M 770.06 429.25 C 770.23 345.59 770.08 231.75 769.80 231.48 C 769.64 231.32 767.92 231.04 766.00 230.85 L 762.50 230.50 L 762.25 345.75 L 761.99 461.00 L 766.00 461.00 L 770.00 461.00 L 770.06 429.25 Z M 794.00 346.00 L 794.00 231.00 L 789.50 231.00 L 785.00 231.00 L 785.00 346.00 L 785.00 461.00 L 789.50 461.00 L 794.00 461.00 L 794.00 346.00 Z M 818.00 346.00 L 818.00 231.00 L 813.50 231.00 L 809.00 231.00 L 809.00 346.00 L 809.00 461.00 L 813.50 461.00 L 818.00 461.00 L 818.00 346.00 Z M 747.50 284.50 L 747.50 280.50 L 512.50 280.50 L 277.50 280.50 L 277.19 284.75 L 276.88 289.00 L 512.19 288.75 L 747.50 288.50 L 747.50 284.50 Z M 747.18 260.89 C 747.40 258.60 747.11 256.60 746.54 256.38 C 745.97 256.16 640.20 256.10 511.50 256.24 L 277.50 256.50 L 277.19 260.75 L 276.89 265.00 L 511.84 265.00 L 746.79 265.00 L 747.18 260.89 Z" stroke-linecap="round"/>
</g>
</g>
</g>

  </svg>