<svg xmlns="http://www.w3.org/2000/svg" xmlns:xlink="http://www.w3.org/1999/xlink" width="459px" height="501px" viewBox="0 0 458.50485952848726 500">
    <g id="c2967a63-ce63-4828-a9df-c14084a7d7fb">
<g style="">
		<g id="c2967a63-ce63-4828-a9df-c14084a7d7fb-child-0">
<path style="stroke: rgb(193,193,193); stroke-width: 0; stroke-dasharray: none; stroke-linecap: butt; stroke-dashoffset: 0; stroke-linejoin: miter; stroke-miterlimit: 4; fill: rgb(0,0,0); fill-rule: nonzero; opacity: 1;" transform="matrix(0.982318 0 0 0.982318 229.252366 249.999931) matrix(1 0 0 1 0 0)  translate(-512.378974, -511.5)" d="M 281.59 762.92 L 279.00 759.85 L 279.02 511.67 C 279.04 278.04 279.15 263.38 280.77 261.37 C 281.72 260.19 283.48 258.73 284.68 258.12 C 286.27 257.30 348.37 257.00 512.80 257.00 C 737.80 257.00 738.74 257.01 741.29 259.02 C 742.70 260.12 744.31 262.49 744.87 264.27 C 746.45 269.27 745.74 758.79 744.16 761.73 C 743.49 762.95 742.09 764.41 741.04 764.98 C 739.76 765.67 664.79 766.00 511.65 766.00 L 284.18 766.00 L 281.59 762.92 Z M 716.00 744.50 L 705.54 734.00 L 512.00 734.00 L 318.46 734.00 L 308.62 743.88 C 302.10 750.42 299.24 753.94 300.14 754.30 C 300.89 754.60 397.12 754.88 513.98 754.92 L 726.46 755.00 L 716.00 744.50 Z M 301.02 735.48 L 310.50 725.96 L 310.76 512.26 L 311.02 298.56 L 301.28 288.78 C 295.92 283.40 291.19 279.00 290.77 279.00 C 290.35 279.00 290.00 383.85 290.00 512.00 C 290.00 640.15 290.35 745.00 290.77 745.00 C 291.19 745.00 295.81 740.72 301.02 735.48 Z M 733.47 279.14 C 733.18 278.84 728.68 282.85 723.47 288.03 L 714.00 297.46 L 714.00 511.96 L 714.00 726.45 L 723.75 735.98 L 733.50 745.50 L 733.75 512.59 C 733.89 384.48 733.76 279.43 733.47 279.14 Z M 692.48 721.99 C 693.02 722.00 688.98 717.50 683.50 712.00 L 673.54 702.00 L 512.00 702.00 L 350.46 702.00 L 340.50 712.00 L 330.54 721.99 L 495.52 722.25 C 586.26 722.39 667.47 722.38 676.00 722.24 C 684.53 722.10 691.94 721.99 692.48 721.99 Z M 342.00 511.96 L 342.00 329.39 L 332.00 319.55 L 322.00 309.71 L 322.00 512.09 L 322.00 714.46 L 332.00 704.50 L 342.00 694.54 L 342.00 511.96 Z M 702.00 511.77 L 702.00 309.54 L 692.00 319.50 L 682.00 329.46 L 682.00 511.96 L 682.00 694.46 L 691.73 704.23 C 697.08 709.60 701.58 714.00 701.73 714.00 C 701.88 714.00 702.00 623.00 702.00 511.77 Z M 670.00 511.50 L 670.00 333.00 L 512.00 333.00 L 354.00 333.00 L 353.98 341.25 C 353.95 359.08 353.94 589.47 353.97 638.25 L 354.00 690.00 L 512.00 690.00 L 670.00 690.00 L 670.00 511.50 Z M 683.73 311.77 C 688.83 306.69 693.00 302.19 693.00 301.77 C 693.00 301.35 611.21 301.01 511.25 301.01 L 329.50 301.03 L 339.60 311.01 L 349.69 321.00 L 512.08 321.00 L 674.46 321.00 L 683.73 311.77 Z M 725.00 269.77 C 725.00 269.35 629.15 269.00 512.00 269.00 C 394.85 269.00 299.00 269.37 299.00 269.83 C 299.00 270.28 303.46 274.78 308.92 279.82 L 318.83 288.99 L 512.17 289.25 L 705.50 289.50 L 715.25 280.02 C 720.61 274.80 725.00 270.19 725.00 269.77 Z" stroke-linecap="round"/>
</g>
</g>
</g>

  </svg>