<svg xmlns="http://www.w3.org/2000/svg" xmlns:xlink="http://www.w3.org/1999/xlink" width="1512px" height="1636px" viewBox="0 0 1511.6757876588845 1635.3980300661133">
    <g id="793201a2-d26b-4c19-933f-45f93f2607e8">
<g style="">
		<g id="793201a2-d26b-4c19-933f-45f93f2607e8-child-0">
<path style="stroke: rgb(193,193,193); stroke-width: 0; stroke-dasharray: none; stroke-linecap: butt; stroke-dashoffset: 0; stroke-linejoin: miter; stroke-miterlimit: 4; fill: rgb(0,0,0); fill-rule: nonzero; opacity: 1;" transform="matrix(2.252673 0 0 2.252673 755.837997 817.699128) matrix(1 0 0 1 0 0)  translate(-512.43939, -512.009398)" d="M 186.24 872.89 C 183.90 871.73 180.97 869.37 179.74 867.64 C 177.62 864.66 177.48 863.40 177.20 843.32 C 176.91 823.67 177.04 821.85 178.92 818.16 C 181.14 813.81 184.27 810.96 188.96 809.02 L 192.00 807.76 L 192.00 511.47 L 192.00 215.18 L 187.39 212.95 C 184.24 211.42 181.84 209.24 179.84 206.11 L 176.91 201.50 L 177.20 180.50 C 177.49 160.17 177.58 159.39 179.90 156.13 C 181.22 154.28 184.15 151.93 186.40 150.91 C 190.37 149.10 200.64 149.04 512.28 149.02 C 783.33 149.00 834.57 149.22 837.28 150.38 C 841.17 152.04 845.49 156.48 846.94 160.32 C 848.32 163.99 848.31 196.33 846.92 201.34 C 845.52 206.41 840.47 211.75 835.50 213.45 L 831.50 214.81 L 831.25 511.17 L 831.00 807.53 L 835.92 809.28 C 841.66 811.32 845.50 815.42 847.05 821.18 C 847.73 823.71 848.03 832.56 847.82 844.38 C 847.52 862.26 847.35 863.74 845.21 867.18 C 843.87 869.34 841.16 871.71 838.65 872.93 L 834.37 875.00 L 512.43 875.00 L 190.50 875.00 L 186.24 872.89 Z M 828.00 842.01 L 828.00 829.01 L 823.47 826.88 C 817.52 824.08 813.32 818.85 811.97 812.56 C 811.21 808.97 810.98 720.40 811.20 508.50 L 811.50 209.50 L 813.72 205.34 C 816.26 200.60 819.68 197.61 824.60 195.83 L 828.00 194.60 L 828.00 181.80 L 828.00 169.00 L 512.00 169.00 L 196.00 169.00 L 196.00 178.88 C 196.00 191.89 196.61 194.68 199.59 195.43 C 203.00 196.29 209.07 201.93 210.65 205.70 C 212.66 210.52 212.66 812.48 210.65 817.30 C 209.05 821.12 202.99 826.71 199.48 827.59 L 197.00 828.22 L 197.00 841.61 L 197.00 855.00 L 512.50 855.00 L 828.00 855.00 L 828.00 842.01 Z M 247.50 825.58 C 243.37 823.74 239.15 819.02 237.98 814.93 C 237.35 812.73 237.01 704.40 237.02 511.01 C 237.04 219.67 237.10 210.37 238.91 206.38 C 239.94 204.12 242.48 200.97 244.56 199.38 L 248.34 196.50 L 511.20 196.24 C 771.21 195.99 774.10 196.01 777.93 197.96 C 780.06 199.05 782.86 201.64 784.15 203.72 L 786.50 207.50 L 786.78 509.00 C 786.99 731.62 786.77 811.59 785.93 814.65 C 784.68 819.21 780.08 824.28 775.68 825.94 C 773.72 826.68 693.53 826.99 511.68 826.96 C 295.70 826.93 249.98 826.69 247.50 825.58 Z M 502.00 672.82 L 502.00 538.65 L 499.75 540.70 C 496.18 543.95 493.46 545.00 488.60 545.00 C 480.07 545.00 473.45 536.12 475.90 527.95 C 478.72 518.54 491.15 514.95 498.22 521.50 C 499.70 522.88 501.16 524.00 501.46 524.00 C 501.76 524.00 502.00 454.70 502.00 370.00 L 502.00 216.00 L 379.50 216.00 L 257.00 216.00 L 257.00 511.43 L 257.00 806.86 L 259.25 807.18 C 260.49 807.36 315.61 807.38 381.75 807.24 L 502.00 806.98 L 502.00 672.82 Z M 650.14 807.00 L 767.00 807.00 L 767.00 511.50 L 767.00 216.00 L 644.50 216.00 L 522.00 216.00 L 522.00 370.69 L 522.00 525.37 L 524.75 522.81 C 530.43 517.51 536.11 516.55 541.70 519.96 C 553.76 527.31 549.06 545.00 535.03 545.00 C 531.30 545.00 528.51 543.70 524.75 540.19 L 522.00 537.63 L 522.00 672.23 C 522.00 778.95 522.26 806.95 523.25 807.39 C 523.94 807.70 526.48 807.73 528.89 807.47 C 531.30 807.21 585.87 807.00 650.14 807.00 Z M 290.60 777.73 C 288.46 776.51 285.87 773.93 284.85 772.02 C 283.08 768.69 283.00 763.82 283.00 662.17 C 283.00 544.49 282.61 551.55 289.37 546.73 L 292.50 544.50 L 378.58 544.23 L 464.66 543.97 L 467.99 546.23 C 469.82 547.48 472.26 549.77 473.41 551.32 C 475.50 554.14 475.50 554.36 475.77 660.72 L 476.04 767.29 L 473.91 771.68 C 472.45 774.70 470.59 776.68 467.93 778.03 C 464.19 779.94 461.64 780.00 379.29 779.98 L 294.50 779.97 L 290.60 777.73 Z M 456.00 662.00 L 456.00 564.00 L 380.00 564.00 L 304.00 564.00 L 304.00 662.00 L 304.00 760.00 L 380.00 760.00 L 456.00 760.00 L 456.00 662.00 Z M 291.07 514.26 C 289.19 513.29 286.71 511.23 285.57 509.68 C 283.51 506.86 283.50 506.47 283.20 382.68 C 283.01 300.38 283.25 257.31 283.93 254.97 C 284.49 253.03 286.56 249.88 288.53 247.97 L 292.11 244.50 L 378.73 244.23 L 465.35 243.97 L 469.07 246.43 C 476.52 251.36 476.09 242.61 475.78 382.00 C 475.51 500.48 475.41 506.63 473.68 509.18 C 472.68 510.65 470.65 512.68 469.18 513.68 C 466.65 515.40 461.76 515.51 380.50 515.76 C 300.07 516.00 294.28 515.91 291.07 514.26 Z M 456.00 380.00 L 456.00 264.00 L 380.00 264.00 L 304.00 264.00 L 304.00 380.00 L 304.00 496.00 L 380.00 496.00 L 456.00 496.00 L 456.00 380.00 Z M 556.03 778.16 C 554.12 777.14 551.65 775.07 550.53 773.58 C 548.52 770.88 548.50 769.65 548.24 663.93 C 547.95 545.53 547.55 552.73 554.57 547.38 L 558.34 544.50 L 644.50 544.23 L 730.66 543.97 L 734.08 546.25 C 741.52 551.22 741.04 542.96 740.76 662.68 C 740.50 769.17 740.49 769.87 738.44 772.62 C 737.30 774.13 735.13 776.30 733.62 777.44 C 730.88 779.48 729.94 779.50 645.18 779.76 C 563.21 780.01 559.35 779.94 556.03 778.16 Z M 720.75 661.75 L 721.01 564.00 L 644.50 564.00 L 568.00 564.00 L 568.00 662.01 L 568.00 760.01 L 644.25 759.76 L 720.50 759.50 L 720.75 661.75 Z M 556.22 514.34 C 554.41 513.45 551.94 511.32 550.72 509.61 L 548.50 506.50 L 548.20 382.00 C 548.00 295.12 548.23 256.37 548.99 253.78 C 549.66 251.45 551.43 249.01 553.70 247.28 L 557.34 244.50 L 643.50 244.23 L 729.66 243.97 L 732.99 246.23 C 734.82 247.48 737.26 249.77 738.41 251.32 L 740.50 254.15 L 740.76 379.32 C 741.01 499.82 740.95 504.63 739.16 508.00 C 738.13 509.92 735.54 512.51 733.40 513.73 L 729.50 515.97 L 644.50 515.96 C 568.23 515.96 559.16 515.79 556.22 514.34 Z M 720.82 380.00 L 721.14 264.00 L 644.57 264.00 L 568.00 264.00 L 568.00 380.00 L 568.00 496.00 L 644.25 496.00 L 720.50 496.00 L 720.82 380.00 Z" stroke-linecap="round"/>
</g>
</g>
</g>

  </svg>