<svg xmlns="http://www.w3.org/2000/svg" xmlns:xlink="http://www.w3.org/1999/xlink" width="1617px" height="2583px" viewBox="0 0 1617.4110012269784 2583.4749672376493">
    <g id="25f5463c-f892-4172-8310-19aa9d1015f2">
<g style="">
		<g id="25f5463c-f892-4172-8310-19aa9d1015f2-child-0">
<path style="stroke: rgb(193,193,193); stroke-width: 0; stroke-dasharray: none; stroke-linecap: butt; stroke-dashoffset: 0; stroke-linejoin: miter; stroke-miterlimit: 4; fill: rgb(0,0,0); fill-rule: nonzero; opacity: 1;" transform="matrix(4.518573 0 0 4.518573 808.705448 1291.7374) matrix(1 0 0 1 0 0)  translate(-511.489735, -512.089254)" d="M 498.85 796.15 C 488.90 792.13 481.64 784.96 476.70 774.27 L 474.50 769.50 L 474.00 675.64 L 473.50 581.78 L 465.50 579.46 C 444.75 573.46 424.38 563.81 408.00 552.22 C 395.95 543.70 374.42 522.23 366.17 510.51 C 349.57 486.94 339.36 462.81 334.41 435.50 C 331.91 421.74 331.88 390.41 334.35 377.18 C 342.56 333.17 364.46 295.39 397.83 267.67 C 451.67 222.94 525.46 213.60 588.00 243.60 C 639.82 268.46 676.81 315.90 688.19 372.11 C 690.21 382.09 690.50 386.34 690.46 406.50 C 690.43 426.55 690.13 430.84 688.16 440.00 C 681.88 469.08 668.78 496.73 650.96 518.55 C 642.65 528.72 625.82 544.45 614.92 552.22 C 598.71 563.78 571.46 576.61 555.77 580.05 L 550.05 581.31 L 549.77 674.90 L 549.50 768.50 L 547.17 774.28 C 544.08 781.93 535.58 791.08 528.21 794.69 C 520.71 798.36 506.13 799.08 498.85 796.15 Z M 516.50 777.88 C 522.09 776.33 525.67 773.53 528.27 768.67 L 530.50 764.50 L 530.78 675.00 L 531.05 585.50 L 512.52 585.65 L 493.99 585.80 L 493.92 675.30 C 493.86 763.61 493.88 764.85 495.91 768.81 C 498.22 773.35 501.94 776.36 507.04 777.83 C 511.67 779.16 511.89 779.16 516.50 777.88 Z M 542.77 563.08 C 598.59 550.88 642.25 512.86 662.28 459.00 C 674.24 426.84 674.64 389.92 663.41 356.10 C 645.05 300.82 597.11 259.14 539.50 248.37 C 525.67 245.78 495.35 245.77 482.54 248.34 C 450.18 254.84 423.49 269.32 399.44 293.41 C 375.62 317.28 361.81 342.56 354.88 375.00 C 351.87 389.06 351.59 419.44 354.33 434.00 C 365.86 495.34 412.94 545.67 473.18 561.05 C 488.92 565.07 497.54 565.97 516.00 565.52 C 528.53 565.22 536.13 564.53 542.77 563.08 Z M 491.00 534.51 C 461.35 529.43 433.99 514.48 415.09 493.03 C 402.04 478.22 394.28 465.00 388.49 447.67 C 383.82 433.69 382.00 422.16 382.00 406.50 C 382.00 367.88 397.22 334.29 426.59 308.12 C 459.68 278.63 506.62 268.50 549.71 281.55 C 560.83 284.92 578.08 293.72 588.18 301.16 C 597.99 308.40 609.43 319.73 616.77 329.50 C 623.59 338.56 633.28 358.14 636.43 369.19 C 639.51 380.01 642.00 396.47 642.00 406.00 C 642.00 415.53 639.51 431.99 636.43 442.81 C 633.07 454.61 623.44 473.66 615.57 484.11 C 595.81 510.32 565.41 528.84 533.07 534.38 C 521.90 536.30 501.80 536.36 491.00 534.51 Z M 529.50 514.83 C 550.51 511.66 571.85 500.86 588.34 485.06 C 613.65 460.79 625.92 424.78 620.63 390.26 C 613.84 346.02 582.02 310.83 537.93 298.81 C 530.55 296.80 527.26 296.52 511.50 296.56 C 495.30 296.60 492.53 296.87 483.82 299.23 C 457.82 306.27 434.41 323.49 419.28 346.71 C 380.56 406.10 408.06 486.09 475.50 510.26 C 492.62 516.39 509.60 517.83 529.50 514.83 Z M 444.91 452.72 C 442.49 450.86 441.00 447.48 441.00 443.84 C 441.00 440.83 445.27 436.27 491.24 390.27 C 525.45 356.03 542.49 339.66 544.65 338.95 C 551.52 336.68 559.21 343.61 557.63 350.64 C 557.17 352.69 542.54 367.81 506.27 403.75 L 455.54 454.00 L 451.02 453.97 C 448.53 453.95 445.79 453.39 444.91 452.72 Z" stroke-linecap="round"/>
</g>
</g>
</g>

  </svg>