<svg xmlns="http://www.w3.org/2000/svg" xmlns:xlink="http://www.w3.org/1999/xlink" width="397px" height="500px" viewBox="0 0 396.7969029411188 500">
    <g id="72dc2ec3-f3db-44bf-b08f-03d806f96252">
<g style="">
		<g id="72dc2ec3-f3db-44bf-b08f-03d806f96252-child-0">
<path style="stroke: rgb(193,193,193); stroke-width: 0; stroke-dasharray: none; stroke-linecap: butt; stroke-dashoffset: 0; stroke-linejoin: miter; stroke-miterlimit: 4; fill: rgb(0,0,0); fill-rule: nonzero; opacity: 1;" transform="matrix(0.778016 0 0 0.778016 198.398372 249.999899) matrix(1 0 0 1 0 0)  translate(-512.005516, -512.44773)" d="M 288.76 832.06 C 273.50 827.17 261.45 813.85 258.13 798.20 C 257.32 794.42 257.00 751.94 257.00 649.53 L 257.00 506.15 L 259.59 503.08 C 263.12 498.88 267.98 498.82 272.08 502.92 L 275.00 505.85 L 275.00 650.06 C 275.00 760.01 275.29 795.25 276.21 798.38 C 277.94 804.27 287.09 813.24 293.00 814.84 C 296.50 815.79 345.85 816.00 514.00 815.78 C 721.49 815.51 730.65 815.42 734.18 813.67 C 739.41 811.07 744.92 805.39 747.39 800.07 C 749.45 795.60 749.51 794.17 749.76 736.50 C 749.94 696.19 750.38 676.82 751.12 675.36 C 752.34 672.99 755.99 671.00 759.12 671.00 C 760.24 671.00 762.47 672.32 764.08 673.92 L 767.00 676.85 L 767.00 736.33 C 767.00 791.79 766.87 796.23 765.12 801.88 C 764.08 805.20 762.10 809.86 760.71 812.23 C 756.92 818.69 747.86 826.70 740.26 830.30 L 733.50 833.50 L 514.00 833.70 C 303.30 833.90 294.27 833.83 288.76 832.06 Z M 487.44 748.52 C 469.10 745.73 450.89 739.99 434.63 731.89 C 386.31 707.81 352.33 664.01 340.84 611.00 C 338.83 601.75 338.56 597.71 338.56 577.00 C 338.56 556.29 338.83 552.25 340.84 543.00 C 357.10 467.95 416.82 413.16 492.40 403.93 C 506.19 402.24 532.54 403.28 545.47 406.02 C 569.01 411.01 595.13 422.34 614.00 435.75 C 626.21 444.42 645.62 463.85 654.23 476.00 C 662.28 487.35 673.79 510.02 677.86 522.50 C 701.52 595.15 675.80 672.81 613.20 717.72 C 594.57 731.08 568.25 742.46 545.18 747.11 C 531.50 749.87 501.16 750.61 487.44 748.52 Z M 524.24 732.00 C 537.68 730.88 550.29 728.33 561.62 724.44 C 616.46 705.59 655.85 660.37 666.55 604.00 C 669.04 590.87 669.06 564.25 666.59 550.50 C 655.26 487.48 607.50 437.82 544.87 423.95 C 519.06 418.23 490.12 419.57 465.51 427.64 C 438.33 436.54 418.85 448.90 398.36 470.24 C 358.95 511.28 345.17 572.09 363.17 625.50 C 370.70 647.85 383.81 668.81 401.00 686.00 C 418.73 703.73 439.56 716.63 463.00 724.40 C 478.36 729.49 489.89 731.54 510.50 732.84 C 511.60 732.91 517.78 732.53 524.24 732.00 Z M 752.51 635.75 L 749.91 633.50 L 749.97 504.75 L 750.04 376.00 L 678.27 375.77 C 638.80 375.65 552.12 375.53 485.66 375.52 L 364.83 375.50 L 362.41 372.69 C 358.90 368.61 359.16 363.88 363.08 360.59 L 366.15 358.00 L 561.19 358.00 L 756.23 358.00 L 759.95 360.09 C 767.60 364.39 767.00 352.35 767.00 500.45 L 767.00 633.09 L 764.55 635.55 C 761.34 638.75 756.08 638.84 752.51 635.75 Z M 262.31 467.99 C 256.65 465.71 256.94 472.81 257.23 343.90 L 257.50 225.50 L 259.74 220.02 C 265.21 206.65 275.55 196.71 287.87 192.98 C 294.43 190.99 296.72 190.97 514.00 191.24 L 733.50 191.50 L 739.00 193.74 C 750.10 198.27 759.73 207.90 764.26 219.00 C 766.47 224.42 766.50 225.26 766.78 276.23 C 767.10 333.48 767.24 332.05 760.70 336.04 C 757.55 337.96 753.76 337.99 516.25 338.00 L 275.00 338.00 L 275.00 348.00 L 275.00 358.00 L 290.55 358.00 C 307.98 358.00 311.05 358.83 312.85 364.01 C 314.10 367.59 313.19 370.63 310.01 373.50 C 308.02 375.30 306.13 375.53 291.40 375.82 L 275.00 376.13 L 275.00 418.62 C 275.00 465.49 274.97 465.77 268.88 467.89 C 265.23 469.17 265.23 469.17 262.31 467.99 Z M 455.00 264.50 L 455.00 208.00 L 376.68 208.00 C 287.36 208.00 291.23 207.67 283.04 215.86 C 274.96 223.94 275.00 223.68 275.00 275.68 L 275.00 321.00 L 365.00 321.00 L 455.00 321.00 L 455.00 264.50 Z M 749.50 274.50 L 749.50 228.50 L 747.17 223.76 C 745.88 221.15 742.82 217.25 740.36 215.09 C 731.76 207.51 741.39 208.00 599.82 208.00 L 473.00 208.00 L 473.00 264.50 L 473.00 321.01 L 611.25 320.75 L 749.50 320.50 L 749.50 274.50 Z M 489.30 706.11 C 462.16 701.15 437.90 688.73 419.05 670.13 C 392.73 644.17 380.00 613.99 380.00 577.58 C 380.00 560.68 381.71 549.64 386.60 535.00 C 393.26 515.04 404.37 497.63 420.02 482.65 C 440.73 462.81 463.92 450.98 490.91 446.47 C 505.77 443.98 528.60 444.84 542.86 448.42 C 617.00 467.04 660.44 541.24 639.50 613.50 C 636.25 624.71 628.92 640.23 621.98 650.59 C 615.89 659.68 600.72 675.21 590.50 682.82 C 577.57 692.44 556.85 701.53 538.75 705.51 C 527.15 708.07 501.71 708.37 489.30 706.11 Z M 541.17 686.71 C 566.48 680.02 588.68 665.25 604.39 644.65 C 634.20 605.58 634.43 549.71 604.95 509.93 C 598.45 501.16 584.19 487.57 575.31 481.69 C 541.10 459.02 497.03 456.26 460.96 474.52 C 439.87 485.20 419.96 505.11 409.58 525.89 C 381.15 582.84 404.13 650.47 461.48 678.64 C 479.33 687.41 492.27 690.06 515.00 689.60 C 528.80 689.32 533.08 688.85 541.17 686.71 Z M 309.17 298.40 C 306.30 296.96 302.78 294.27 301.35 292.40 C 296.77 286.39 296.09 282.78 296.07 264.50 C 296.05 249.51 296.28 246.97 298.08 243.00 C 300.59 237.45 304.26 233.48 309.50 230.66 C 313.42 228.54 314.52 228.49 362.50 228.18 C 396.00 227.96 413.12 228.21 416.62 228.97 C 422.72 230.30 429.05 235.30 432.28 241.36 C 434.36 245.23 434.49 246.67 434.36 263.81 C 434.20 284.69 433.36 288.29 427.24 294.26 C 420.32 301.02 420.51 301.00 364.57 301.00 L 314.39 301.00 L 309.17 298.40 Z M 414.37 281.93 C 417.00 279.86 417.00 279.84 417.00 265.15 C 417.00 253.46 416.68 249.99 415.44 248.22 L 413.89 246.00 L 365.51 246.00 C 322.87 246.00 316.96 246.19 315.57 247.57 C 314.28 248.86 314.00 251.88 314.00 264.57 C 314.00 278.67 314.17 280.17 316.00 282.00 C 317.94 283.94 319.33 284.00 364.87 284.00 C 410.76 284.00 411.78 283.96 414.37 281.93 Z M 581.29 300.61 C 570.46 297.07 560.68 288.06 556.96 278.20 C 554.13 270.69 554.51 256.97 557.76 249.75 C 560.91 242.72 568.93 234.77 576.28 231.37 C 581.82 228.81 583.59 228.50 592.50 228.51 C 601.53 228.51 603.05 228.79 608.21 231.40 C 619.40 237.06 627.02 247.18 628.91 258.90 C 631.58 275.52 622.83 291.61 607.22 298.76 C 600.32 301.92 588.00 302.80 581.29 300.61 Z M 602.92 281.24 C 616.87 272.60 613.97 252.18 597.99 246.48 C 582.37 240.91 566.97 257.54 573.90 272.50 C 579.27 284.11 592.06 287.96 602.92 281.24 Z M 679.38 301.11 C 669.30 298.52 659.53 290.42 655.05 280.94 C 646.25 262.34 653.91 240.94 672.79 231.40 C 677.95 228.79 679.47 228.51 688.50 228.51 C 697.41 228.50 699.18 228.81 704.72 231.37 C 712.03 234.75 720.03 242.66 723.31 249.75 C 725.12 253.69 725.50 256.30 725.50 265.00 C 725.50 275.04 725.35 275.77 722.11 281.75 C 715.30 294.31 704.38 301.19 690.50 301.64 C 686.10 301.79 681.10 301.55 679.38 301.11 Z M 694.28 283.94 C 701.49 281.94 708.93 272.85 708.97 266.00 C 709.03 256.99 702.08 248.18 693.24 246.06 C 677.06 242.18 663.83 258.68 671.09 273.68 C 673.34 278.34 677.19 281.59 682.89 283.62 C 687.36 285.22 689.46 285.28 694.28 283.94 Z M 591.34 552.75 C 590.23 551.51 587.75 547.12 585.83 542.99 C 576.69 523.38 555.34 505.49 533.29 498.95 C 524.50 496.35 521.91 489.15 527.85 483.84 C 531.65 480.45 532.79 480.38 540.93 483.06 C 567.78 491.87 588.98 510.08 601.56 535.12 C 604.00 539.98 606.00 545.06 606.00 546.40 C 606.00 547.75 604.84 550.23 603.41 551.92 C 600.11 555.85 594.45 556.24 591.34 552.75 Z" stroke-linecap="round"/>
</g>
</g>
</g>

  </svg>