<svg xmlns="http://www.w3.org/2000/svg" xmlns:xlink="http://www.w3.org/1999/xlink" width="329px" height="500px" viewBox="0 0 329.154943950178 500">
    <g id="a4c36525-9e31-4df7-9295-58321c9c17d4">
<g style="">
		<g id="a4c36525-9e31-4df7-9295-58321c9c17d4-child-0">
<path style="stroke: rgb(193,193,193); stroke-width: 0; stroke-dasharray: none; stroke-linecap: butt; stroke-dashoffset: 0; stroke-linejoin: miter; stroke-miterlimit: 4; fill: rgb(0,0,0); fill-rule: nonzero; opacity: 1;" transform="matrix(0.88968 0 0 0.88968 164.577525 250.00008) matrix(1 0 0 1 0 0)  translate(-512.004922, -512)" d="M 339.49 791.14 C 334.45 788.84 329.43 783.19 328.06 778.28 C 327.48 776.20 327.01 770.45 327.02 765.50 C 327.02 751.90 331.12 744.49 340.87 740.41 C 343.25 739.42 348.54 739.00 358.77 739.00 L 373.29 739.00 L 368.35 733.75 C 359.24 724.07 353.47 714.08 349.94 701.84 L 347.82 694.50 L 347.92 511.45 C 348.02 331.05 348.05 328.29 350.04 321.11 C 353.37 309.10 359.17 299.00 368.35 289.25 L 373.29 284.00 L 358.40 283.98 C 346.15 283.96 342.79 283.63 339.49 282.14 C 334.45 279.84 329.43 274.19 328.06 269.28 C 326.71 264.41 326.71 250.59 328.06 245.72 C 329.37 240.99 334.14 235.48 339.12 232.94 C 342.84 231.04 346.61 231.00 512.50 231.00 C 679.84 231.00 682.13 231.03 685.98 232.99 C 693.80 236.98 696.99 244.07 696.99 257.50 C 696.99 267.50 695.74 272.09 691.79 276.59 C 686.05 283.13 683.00 284.00 665.93 284.00 L 650.77 284.00 L 656.82 290.47 C 667.38 301.76 673.70 314.66 676.00 329.64 C 676.72 334.31 676.97 393.98 676.78 516.50 L 676.50 696.50 L 673.69 704.50 C 669.99 715.06 664.25 724.59 656.82 732.53 L 650.77 739.00 L 665.98 739.00 C 683.23 739.00 685.67 739.68 691.42 746.05 C 696.04 751.16 697.29 756.36 696.83 768.61 C 696.50 777.74 696.17 779.19 693.48 783.53 C 691.53 786.68 688.98 789.15 686.09 790.67 L 681.69 793.00 L 512.59 792.98 C 351.20 792.96 343.32 792.87 339.49 791.14 Z M 676.50 766.00 L 676.50 759.50 L 512.25 759.25 L 348.00 758.99 L 348.00 766.00 L 348.00 773.01 L 512.25 772.75 L 676.50 772.50 L 676.50 766.00 Z M 617.20 735.81 C 634.38 728.93 647.20 716.50 653.07 701.06 C 655.50 694.66 657.29 683.37 656.52 679.25 L 655.91 676.00 L 623.94 676.00 L 591.97 676.00 L 589.60 681.38 C 579.38 704.48 556.77 723.04 531.50 729.07 C 519.50 731.93 499.27 731.44 488.50 728.02 C 464.57 720.42 446.57 704.99 435.12 682.25 L 431.97 676.00 L 417.99 676.00 L 404.00 676.00 L 404.01 679.75 C 404.02 688.53 406.27 692.27 416.35 700.29 C 422.11 704.86 422.12 711.91 416.37 715.68 C 410.56 719.49 401.16 716.34 393.71 708.10 C 387.28 700.98 384.00 691.82 384.00 680.95 L 384.00 676.00 L 376.00 676.00 L 368.00 676.00 L 368.01 683.25 C 368.04 697.74 372.84 708.80 384.00 720.08 C 392.08 728.24 399.35 732.90 409.85 736.62 L 416.50 738.98 L 513.50 738.74 L 610.50 738.50 L 617.20 735.81 Z M 525.47 709.49 C 539.20 706.58 555.02 696.93 562.72 686.77 C 568.04 679.75 569.77 676.60 573.42 667.32 C 576.23 660.18 576.88 659.31 580.96 657.25 C 585.34 655.04 586.08 655.00 621.27 655.00 L 657.12 655.00 L 656.62 647.75 C 656.34 643.76 656.09 640.16 656.06 639.75 C 656.03 639.34 639.64 639.00 619.65 639.00 C 583.51 639.00 583.28 638.99 579.93 636.73 C 577.37 635.00 575.94 632.78 573.98 627.48 C 569.61 615.65 565.91 609.86 557.03 600.94 C 547.43 591.31 538.67 586.29 526.50 583.44 C 516.33 581.06 500.87 581.86 491.19 585.26 C 472.58 591.82 457.61 606.98 450.94 626.00 C 446.25 639.40 447.68 639.00 404.05 639.00 L 368.00 639.00 L 368.00 647.00 L 368.00 655.00 L 403.25 655.02 C 436.03 655.04 438.80 655.18 442.79 656.99 C 446.27 658.57 447.47 659.85 449.11 663.72 C 455.51 678.83 458.40 683.49 466.40 691.55 C 472.81 698.02 476.27 700.58 483.00 703.88 C 496.93 710.71 510.96 712.56 525.47 709.49 Z M 434.49 612.44 C 438.73 602.45 444.45 594.26 452.95 586.00 C 481.84 557.92 525.52 553.66 558.69 575.67 C 571.97 584.48 583.03 597.30 589.55 611.41 L 593.06 619.00 L 624.53 619.00 L 656.01 619.00 L 655.75 495.75 L 655.50 372.50 L 511.75 372.25 L 368.00 371.99 L 368.00 495.50 L 368.00 619.00 L 399.85 619.00 L 431.70 619.00 L 434.49 612.44 Z M 384.17 341.75 C 384.50 333.41 385.05 330.47 387.14 325.95 C 394.36 310.33 409.42 302.27 417.08 309.92 C 419.15 311.99 420.00 313.83 420.00 316.20 C 420.00 320.55 418.08 323.18 412.52 326.43 C 406.53 329.95 404.75 333.65 404.20 343.75 L 403.75 352.00 L 530.53 352.00 L 657.30 352.00 L 656.70 341.75 C 655.64 323.88 650.90 312.86 639.32 301.34 C 631.35 293.41 620.09 286.99 610.79 285.06 C 607.11 284.30 576.26 284.05 509.50 284.23 L 413.50 284.50 L 406.50 287.40 C 386.88 295.53 374.13 309.34 369.52 327.46 C 368.68 330.74 368.00 337.60 368.00 342.71 L 368.00 352.00 L 375.89 352.00 L 383.77 352.00 L 384.17 341.75 Z M 676.68 257.98 C 676.36 255.21 675.82 252.51 675.49 251.98 C 675.10 251.35 616.66 251.00 511.44 251.00 L 348.00 251.00 L 348.00 257.00 L 348.00 263.00 L 512.64 263.00 L 677.28 263.00 L 676.68 257.98 Z M 495.98 695.72 C 466.35 685.62 452.06 652.38 465.36 624.50 C 474.14 606.08 491.66 595.00 512.00 595.00 C 527.44 595.00 540.02 600.64 550.70 612.35 C 576.34 640.46 562.46 686.83 525.54 696.45 C 516.71 698.75 503.93 698.43 495.98 695.72 Z M 525.80 675.13 C 539.89 667.86 546.73 652.89 542.54 638.48 C 538.36 624.10 526.58 615.00 512.17 615.00 C 503.04 615.00 497.40 617.44 490.42 624.42 C 483.38 631.47 481.00 637.04 481.00 646.50 C 481.00 655.96 483.38 661.53 490.42 668.59 C 498.12 676.30 502.64 678.07 513.50 677.65 C 519.35 677.43 522.65 676.75 525.80 675.13 Z M 388.78 600.44 C 387.28 599.63 385.59 598.10 385.03 597.05 C 384.35 595.78 384.00 562.28 384.00 497.52 C 384.00 391.48 383.77 395.79 389.47 393.19 C 390.91 392.54 393.00 392.00 394.10 392.00 C 396.95 392.00 401.76 394.68 402.97 396.94 C 403.66 398.23 404.00 431.61 404.00 497.00 C 404.00 562.39 403.66 595.77 402.97 597.06 C 401.70 599.44 396.88 602.01 393.80 601.96 C 392.53 601.94 390.27 601.25 388.78 600.44 Z M 507.00 477.06 C 498.31 475.11 490.96 469.39 487.69 462.02 C 484.79 455.49 483.97 428.05 486.43 419.61 C 489.63 408.58 500.42 400.90 512.43 401.08 C 522.11 401.22 531.32 406.76 535.46 414.92 C 537.91 419.76 538.00 420.57 537.99 438.72 C 537.98 456.28 537.83 457.82 535.65 462.51 C 530.61 473.32 518.28 479.59 507.00 477.06 Z M 515.78 455.44 C 517.90 453.96 518.00 453.23 518.00 439.44 C 518.00 426.33 517.82 424.82 516.00 423.00 C 513.32 420.32 510.43 420.48 507.45 423.45 C 505.10 425.81 505.00 426.43 505.00 439.00 C 505.00 451.57 505.10 452.19 507.45 454.55 C 510.29 457.38 512.65 457.64 515.78 455.44 Z M 504.50 664.51 C 500.33 662.56 498.66 661.06 495.63 656.59 C 492.61 652.14 492.04 644.23 494.35 638.70 C 496.84 632.74 505.49 627.03 512.07 627.01 C 516.13 626.99 523.16 630.43 526.40 634.02 C 532.90 641.22 533.25 651.03 527.29 658.86 C 522.51 665.14 511.60 667.85 504.50 664.51 Z" stroke-linecap="round"/>
</g>
</g>
</g>

  </svg>