<svg xmlns="http://www.w3.org/2000/svg" xmlns:xlink="http://www.w3.org/1999/xlink" width="500px" height="459px" viewBox="0 0 499.9998743257 459.4933888992999">
    <g id="7109b917-1729-449d-b296-917d1e49838a">
<g style="">
		<g id="7109b917-1729-449d-b296-917d1e49838a-child-0">
<path style="stroke: rgb(193,193,193); stroke-width: 0; stroke-dasharray: none; stroke-linecap: butt; stroke-dashoffset: 0; stroke-linejoin: miter; stroke-miterlimit: 4; fill: rgb(0,0,0); fill-rule: nonzero; opacity: 1;" transform="matrix(0.81473 0 0 0.81473 249.999937 229.746694) matrix(1 0 0 1 0 0)  translate(-511.736999, -512.008795)" d="M 208.08 791.41 C 203.88 787.88 203.82 783.02 207.92 778.92 L 210.85 776.00 L 235.49 776.00 C 260.49 776.00 262.96 776.32 265.72 779.91 C 266.39 780.79 266.95 783.15 266.97 785.16 C 266.99 788.04 266.35 789.37 263.92 791.41 L 260.85 794.00 L 236.00 794.00 L 211.15 794.00 L 208.08 791.41 Z M 291.36 793.01 C 285.60 790.68 284.36 783.49 288.92 778.92 L 291.85 776.00 L 331.38 776.00 L 370.91 776.00 L 368.46 770.75 L 366.02 765.50 L 366.01 656.64 C 366.00 536.14 365.72 541.68 372.50 529.48 C 376.55 522.18 385.75 513.18 392.79 509.61 C 401.82 505.03 407.94 504.00 426.46 503.96 L 443.50 503.92 L 435.50 496.49 L 427.50 489.06 L 417.86 489.03 C 406.01 488.99 397.70 486.65 389.11 480.92 C 378.41 473.77 370.70 463.07 367.45 450.87 C 365.28 442.71 365.31 277.05 367.49 268.70 C 372.27 250.37 387.46 235.12 405.00 231.09 C 407.95 230.41 445.12 230.04 512.64 230.02 C 612.75 230.00 615.98 230.06 622.22 231.99 C 634.35 235.73 646.08 245.38 652.22 256.66 C 658.11 267.48 658.00 265.55 658.00 359.53 C 658.00 435.83 657.82 446.26 656.39 451.07 C 652.56 463.97 645.41 473.89 634.87 480.93 C 626.16 486.75 618.02 489.00 605.64 489.01 L 595.50 489.03 L 587.50 496.47 L 579.50 503.91 L 597.04 503.95 C 615.87 504.00 622.15 505.01 630.79 509.39 C 641.52 514.83 651.06 525.47 655.32 536.74 L 657.50 542.50 L 657.77 653.86 L 658.04 765.23 L 655.58 770.61 L 653.11 776.00 L 692.50 776.00 L 731.89 776.00 L 734.67 778.39 C 738.33 781.54 738.59 787.85 735.20 791.24 L 732.94 793.50 L 513.22 793.69 C 390.75 793.80 292.55 793.50 291.36 793.01 Z M 629.68 774.06 C 632.32 772.86 634.91 770.58 636.68 767.90 L 639.50 763.65 L 639.76 665.96 L 640.03 568.27 L 636.26 567.64 C 634.19 567.30 576.59 567.02 508.25 567.01 L 384.00 567.00 L 384.00 664.03 C 384.00 749.09 384.19 761.52 385.54 764.75 C 387.61 769.70 389.74 771.93 394.50 774.12 C 398.31 775.87 403.98 775.96 512.00 775.96 C 621.36 775.96 625.65 775.89 629.68 774.06 Z M 639.24 546.17 C 638.65 538.75 630.72 529.23 621.50 524.85 L 615.50 522.00 L 512.00 522.08 C 435.42 522.13 407.67 522.46 405.32 523.33 C 400.59 525.07 393.67 530.26 390.46 534.46 C 387.55 538.27 383.78 547.84 384.64 549.23 C 384.91 549.66 442.36 549.89 512.31 549.75 L 639.50 549.50 L 639.24 546.17 Z M 561.58 497.33 C 565.66 493.66 569.00 490.28 569.00 489.82 C 569.00 489.35 543.12 488.99 511.50 489.02 C 479.88 489.04 454.05 489.39 454.10 489.78 C 454.16 490.18 457.51 493.54 461.55 497.25 L 468.89 504.00 L 511.52 504.00 L 554.16 504.00 L 561.58 497.33 Z M 621.25 468.20 C 628.68 464.54 633.65 459.32 637.08 451.54 C 638.82 447.61 638.96 446.58 637.85 445.84 C 636.27 444.78 387.52 445.06 385.80 446.12 C 383.94 447.27 387.62 455.36 392.45 460.73 C 396.93 465.72 403.99 469.88 410.00 471.10 C 411.92 471.49 458.73 471.74 514.02 471.66 L 614.54 471.50 L 621.25 468.20 Z M 640.00 422.49 L 640.00 417.00 L 512.00 417.00 L 384.00 417.00 L 384.00 422.51 L 384.00 428.01 L 512.00 427.99 L 640.00 427.97 L 640.00 422.49 Z M 640.00 383.50 L 640.00 368.00 L 512.00 368.00 L 384.00 368.00 L 384.00 383.50 L 384.00 399.00 L 512.00 399.00 L 640.00 399.00 L 640.00 383.50 Z M 640.00 345.00 L 640.00 340.00 L 512.00 340.00 L 384.00 340.00 L 384.00 345.00 L 384.00 350.00 L 512.00 350.00 L 640.00 350.00 L 640.00 345.00 Z M 640.00 306.52 L 640.00 291.04 L 569.10 290.77 C 499.81 290.51 498.16 290.45 495.99 288.50 C 492.58 285.42 491.80 282.41 493.42 278.53 C 494.20 276.68 495.74 274.67 496.85 274.08 C 498.24 273.34 520.66 273.00 568.93 273.00 C 648.41 273.00 641.50 273.89 636.04 264.37 C 632.32 257.89 626.24 252.65 619.08 249.77 L 613.50 247.52 L 516.60 247.20 C 455.37 247.01 417.34 247.26 413.28 247.89 C 405.21 249.15 398.76 252.24 393.74 257.26 C 389.76 261.24 384.67 270.65 385.64 272.23 C 385.94 272.71 393.69 273.01 402.87 272.90 C 419.59 272.70 422.19 273.11 424.93 276.42 C 427.17 279.12 426.48 284.97 423.58 287.88 C 420.97 290.49 420.91 290.50 402.48 290.81 L 384.00 291.12 L 384.00 306.56 L 384.00 322.00 L 512.00 322.00 L 640.00 322.00 L 640.00 306.52 Z M 761.50 792.82 C 758.29 790.93 757.07 788.75 757.03 784.84 C 757.01 781.96 757.65 780.63 760.08 778.59 L 763.15 776.00 L 788.02 776.00 C 812.81 776.00 812.90 776.01 815.67 778.39 C 819.33 781.54 819.59 787.85 816.20 791.24 C 814.00 793.45 813.41 793.51 788.72 793.75 C 770.82 793.92 762.92 793.65 761.50 792.82 Z M 420.74 673.75 C 417.40 671.22 417.00 667.13 417.00 635.84 C 417.00 602.08 417.37 599.52 422.60 597.14 C 426.59 595.32 459.35 595.61 463.01 597.51 C 467.45 599.80 468.22 604.03 467.84 623.85 L 467.50 641.17 L 464.23 644.08 C 461.00 646.97 460.85 647.00 448.59 647.00 C 438.23 647.00 436.12 647.26 435.61 648.58 C 435.27 649.45 435.00 654.65 435.00 660.13 C 435.00 669.37 434.82 670.27 432.55 672.55 C 429.80 675.29 423.60 675.92 420.74 673.75 Z M 450.00 622.00 L 450.00 614.00 L 443.00 614.00 L 436.00 614.00 L 436.00 622.00 L 436.00 630.00 L 443.00 630.00 L 450.00 630.00 L 450.00 622.00 Z M 492.11 645.60 C 487.56 643.08 487.07 640.75 487.04 621.18 C 487.01 610.46 487.43 602.07 488.03 600.94 C 490.27 596.76 493.93 596.00 511.90 596.00 C 537.40 596.00 537.00 595.59 537.00 621.50 C 537.00 640.70 536.34 643.61 531.53 645.81 C 527.72 647.54 495.31 647.38 492.11 645.60 Z M 519.00 622.00 L 519.00 614.00 L 512.00 614.00 L 505.00 614.00 L 505.00 622.00 L 505.00 630.00 L 512.00 630.00 L 519.00 630.00 L 519.00 622.00 Z M 560.83 645.32 C 559.36 644.39 557.67 642.57 557.08 641.27 C 555.67 638.19 555.63 603.55 557.03 600.94 C 559.30 596.71 562.86 596.00 582.03 596.00 L 600.15 596.00 L 603.08 598.92 L 606.00 601.85 L 606.00 621.37 C 606.00 640.56 605.96 640.94 603.59 643.69 L 601.18 646.50 L 582.34 646.76 C 566.07 646.98 563.14 646.78 560.83 645.32 Z M 588.00 622.00 L 588.00 614.00 L 581.00 614.00 L 574.00 614.00 L 574.00 622.00 L 574.00 630.00 L 581.00 630.00 L 588.00 630.00 L 588.00 622.00 Z M 452.92 288.08 C 450.93 286.08 450.00 284.15 450.00 282.00 C 450.00 277.32 454.68 273.00 459.75 273.00 C 468.93 273.00 472.03 285.35 463.91 289.55 C 459.57 291.79 456.19 291.34 452.92 288.08 Z" stroke-linecap="round"/>
</g>
</g>
</g>

  </svg>