<svg xmlns="http://www.w3.org/2000/svg" xmlns:xlink="http://www.w3.org/1999/xlink" width="500px" height="358px" viewBox="0 0 500 358.03332330803914">
    <g id="a768f0ef-613a-45fa-91fa-bd633b14c8ca">
<g style="">
		<g id="a768f0ef-613a-45fa-91fa-bd633b14c8ca-child-0">
<path style="stroke: rgb(193,193,193); stroke-width: 0; stroke-dasharray: none; stroke-linecap: butt; stroke-dashoffset: 0; stroke-linejoin: miter; stroke-miterlimit: 4; fill: rgb(0,0,0); fill-rule: nonzero; opacity: 1;" transform="matrix(0.788834 0 0 0.788834 249.999928 179.01661) matrix(1 0 0 1 0 0)  translate(-512.076632, -512.061747)" d="M 201.30 737.04 C 195.51 733.51 193.64 727.19 196.42 720.55 C 199.18 713.94 200.71 713.56 226.86 713.00 L 250.31 712.50 L 257.02 701.50 C 260.71 695.45 273.85 673.85 286.21 653.50 C 298.57 633.15 315.28 605.74 323.34 592.58 C 331.40 579.43 337.84 568.51 337.65 568.32 C 337.46 568.12 322.47 567.64 304.34 567.23 L 271.38 566.49 L 263.87 562.78 C 241.53 551.74 232.66 525.69 243.72 503.62 C 246.76 497.54 253.73 490.01 259.85 486.16 C 269.73 479.94 266.24 480.17 361.86 479.64 L 449.23 479.16 L 451.86 476.72 C 453.31 475.38 495.45 437.90 545.50 393.43 C 595.55 348.96 641.34 308.24 647.25 302.93 C 663.47 288.37 673.06 284.19 687.69 285.29 C 702.51 286.41 715.78 295.71 722.78 309.87 C 726.20 316.78 726.50 318.09 726.50 325.95 C 726.50 330.65 726.19 335.87 725.82 337.54 C 725.13 340.58 725.14 340.59 732.43 342.85 C 756.77 350.40 778.14 373.27 783.54 397.53 C 785.89 408.12 785.29 428.74 782.46 434.49 C 780.12 439.25 774.89 443.00 770.59 443.00 C 765.95 443.00 760.86 439.81 758.62 435.51 C 756.82 432.04 756.75 431.08 757.82 424.83 C 759.40 415.65 759.23 409.82 757.17 401.92 C 752.47 383.93 736.97 370.00 718.22 366.90 C 688.81 362.04 661.50 388.43 665.99 417.36 C 670.52 446.58 701.52 465.42 728.50 455.34 C 732.35 453.91 737.36 452.53 739.62 452.28 C 747.41 451.41 753.00 456.61 753.00 464.70 C 752.99 473.01 746.46 477.97 730.07 482.11 C 723.07 483.87 719.67 484.15 710.07 483.75 C 689.67 482.91 675.77 476.75 660.97 462.00 C 651.62 452.68 646.26 443.85 642.52 431.62 L 640.41 424.74 L 619.71 442.96 C 608.32 452.99 599.00 461.56 599.00 462.01 C 599.00 462.46 606.72 475.58 616.16 491.16 C 625.60 506.75 655.80 556.85 683.28 602.50 C 710.76 648.15 736.91 691.58 741.39 699.00 L 749.54 712.50 L 758.52 713.00 C 768.52 713.56 771.21 714.65 774.05 719.31 C 777.78 725.43 776.13 732.64 770.09 736.72 L 766.70 739.00 L 485.60 739.00 C 208.57 738.99 204.45 738.96 201.30 737.04 Z M 338.90 692.75 C 345.72 681.61 359.38 659.22 369.25 643.00 C 379.12 626.78 388.28 611.81 389.61 609.75 L 392.03 606.00 L 499.93 606.00 L 607.83 606.00 L 616.75 620.75 C 621.65 628.86 635.85 652.38 648.30 673.00 C 660.75 693.62 671.28 711.08 671.72 711.78 C 672.32 712.78 677.58 713.00 695.28 712.78 L 718.06 712.50 L 682.39 653.50 C 662.77 621.05 643.04 588.42 638.54 581.00 L 630.37 567.50 L 499.96 567.81 C 428.23 567.98 369.48 568.20 369.39 568.31 C 369.30 568.41 362.27 579.97 353.77 594.00 C 345.27 608.03 331.42 630.75 323.01 644.50 C 297.16 686.73 282.00 711.85 282.00 712.44 C 282.00 712.75 292.01 713.00 304.25 713.00 L 326.50 713.00 L 338.90 692.75 Z M 639.77 710.75 C 637.73 707.61 599.36 644.65 595.59 638.27 L 592.50 633.04 L 499.85 633.02 L 407.21 633.00 L 383.92 670.75 C 371.11 691.51 359.98 709.51 359.20 710.75 L 357.77 713.00 L 499.50 713.00 L 641.23 713.00 L 639.77 710.75 Z M 479.13 532.76 C 484.28 528.24 497.27 516.65 508.00 507.01 C 518.72 497.38 544.83 474.14 566.00 455.38 C 647.32 383.31 685.76 349.32 691.36 344.50 C 694.57 341.75 698.05 337.83 699.09 335.79 C 706.40 321.58 691.31 305.99 676.82 312.78 C 674.79 313.72 665.36 321.48 655.87 330.00 C 615.31 366.42 564.11 412.11 502.50 466.86 L 458.50 505.97 L 368.00 506.00 L 277.50 506.03 L 273.52 508.29 C 263.74 513.83 261.99 528.08 270.15 535.68 C 276.17 541.28 270.40 540.99 374.13 540.99 L 469.76 541.00 L 479.13 532.76 Z M 614.38 539.75 C 613.97 539.06 608.18 529.72 601.51 519.00 C 594.84 508.27 586.98 495.54 584.03 490.71 C 581.09 485.88 578.31 481.69 577.86 481.41 C 577.13 480.96 551.55 503.19 521.50 530.39 C 515.45 535.87 510.31 540.49 510.08 540.67 C 509.85 540.85 533.39 541.00 562.39 541.00 C 604.30 541.00 614.97 540.74 614.38 539.75 Z M 801.19 736.97 C 797.79 734.90 795.00 729.84 795.00 725.77 C 795.00 722.05 798.39 716.79 802.06 714.83 C 806.35 712.53 817.80 712.33 821.96 714.48 C 826.59 716.87 829.00 720.71 829.00 725.68 C 829.00 735.16 824.05 739.00 811.85 739.00 C 806.24 738.99 803.71 738.51 801.19 736.97 Z" stroke-linecap="round"/>
</g>
</g>
</g>

  </svg>