<svg xmlns="http://www.w3.org/2000/svg" xmlns:xlink="http://www.w3.org/1999/xlink" width="500px" height="301px" viewBox="0 0 500 301.10452218807427">
    <g id="e63596d9-0416-4f82-a977-ffeeea228a6e">
<g style="">
		<g id="e63596d9-0416-4f82-a977-ffeeea228a6e-child-0">
<path style="stroke: rgb(193,193,193); stroke-width: 0; stroke-dasharray: none; stroke-linecap: butt; stroke-dashoffset: 0; stroke-linejoin: miter; stroke-miterlimit: 4; fill: rgb(0,0,0); fill-rule: nonzero; opacity: 1;" transform="matrix(0.671988 0 0 0.671988 249.999884 150.552191) matrix(1 0 0 1 0 0)  translate(-511.969719, -511.96)" d="M 143.40 732.60 C 139.47 728.67 138.86 723.74 141.71 718.92 C 144.49 714.21 148.42 713.00 160.93 713.00 C 173.75 713.00 178.07 714.30 180.43 718.87 C 183.11 724.04 182.48 728.72 178.60 732.60 L 175.20 736.00 L 161.00 736.00 L 146.80 736.00 L 143.40 732.60 Z M 210.27 732.47 C 207.02 729.22 206.79 728.59 207.26 724.35 C 207.65 720.96 208.60 718.94 210.91 716.63 L 214.03 713.50 L 227.07 713.17 L 240.10 712.84 L 233.17 705.55 C 220.96 692.69 211.24 675.69 206.83 659.50 C 203.76 648.18 203.73 624.08 206.79 612.82 C 211.93 593.92 220.09 579.84 233.96 565.94 C 253.85 546.00 278.12 536.53 307.57 537.20 C 316.20 537.39 320.61 537.15 320.23 536.50 C 319.91 535.95 309.90 521.10 297.99 503.50 C 286.08 485.90 261.33 449.23 242.98 422.00 C 224.63 394.77 207.68 369.66 205.31 366.19 C 201.66 360.84 201.00 359.11 201.00 354.92 C 201.00 348.32 205.35 343.22 212.03 341.98 C 218.81 340.73 702.26 340.72 706.92 341.98 C 717.52 344.83 720.07 356.98 711.27 362.74 C 708.73 364.41 696.09 364.50 471.38 364.50 C 340.91 364.50 233.93 364.73 233.65 365.02 C 233.36 365.31 235.82 369.47 239.12 374.27 L 245.12 383.00 L 468.31 383.00 C 687.77 383.01 691.55 383.04 694.70 384.96 C 696.45 386.03 698.67 388.09 699.61 389.53 C 703.25 395.09 702.30 398.15 683.60 441.00 C 673.87 463.27 659.30 496.80 651.21 515.49 C 639.33 542.93 635.79 550.19 632.81 553.19 C 625.69 560.32 631.57 560.00 507.76 560.00 C 430.84 560.00 395.56 559.67 392.54 558.91 C 390.15 558.31 386.78 556.62 385.05 555.16 C 383.32 553.70 375.29 542.72 367.20 530.76 C 359.12 518.80 342.60 494.50 330.51 476.76 C 309.52 445.97 308.52 444.28 308.51 439.77 C 308.50 435.75 308.99 434.54 311.77 431.77 C 314.58 428.96 315.73 428.50 320.00 428.50 C 323.98 428.50 325.43 428.99 327.36 431.00 C 328.69 432.38 337.87 445.42 347.76 460.00 C 357.65 474.58 373.40 497.75 382.76 511.50 L 399.77 536.50 L 508.06 536.50 L 616.35 536.50 L 620.53 527.00 C 622.82 521.78 631.36 502.20 639.49 483.50 C 647.63 464.80 658.32 440.27 663.24 429.00 C 668.17 417.73 672.42 407.94 672.70 407.25 C 673.11 406.25 631.60 406.00 467.11 406.00 C 353.75 406.00 261.00 406.18 261.00 406.41 C 261.00 406.63 269.61 419.57 280.14 435.16 C 290.67 450.75 308.51 477.23 319.80 494.00 C 376.80 578.69 371.84 571.82 378.32 575.15 C 382.06 577.07 384.77 577.11 504.94 577.05 C 640.81 576.98 632.58 577.37 642.73 570.39 C 649.31 565.85 650.64 563.61 661.53 538.50 C 670.63 517.54 703.87 440.49 721.51 399.50 C 748.69 336.32 758.06 314.81 760.51 309.98 C 764.24 302.62 771.75 295.49 779.76 291.69 L 786.50 288.50 L 831.81 288.21 L 877.12 287.92 L 880.56 291.36 C 883.43 294.23 884.00 295.52 884.00 299.18 C 884.00 301.59 883.30 304.56 882.44 305.78 C 878.84 310.92 878.12 311.00 834.52 311.00 C 790.36 311.00 790.05 311.04 784.74 316.69 C 781.74 319.88 779.44 324.89 756.54 378.00 C 748.12 397.52 735.28 427.23 728.02 444.00 C 720.75 460.77 705.58 495.88 694.31 522.00 C 683.04 548.12 672.64 571.67 671.21 574.33 C 666.34 583.33 650.94 595.16 639.83 598.44 L 635.80 599.63 L 635.43 646.46 C 635.03 696.13 634.82 698.56 629.91 708.18 C 628.86 710.24 628.00 712.16 628.00 712.46 C 628.00 712.76 664.11 713.00 708.25 713.00 C 786.98 713.01 788.56 713.05 791.81 715.03 C 795.67 717.38 798.22 722.68 797.41 726.69 C 796.74 730.05 795.35 732.01 792.03 734.30 C 789.71 735.89 771.26 736.00 501.68 736.00 L 213.80 736.00 L 210.27 732.47 Z M 532.00 712.42 C 532.00 712.10 521.27 696.01 508.16 676.67 C 495.05 657.33 478.42 632.65 471.21 621.84 C 463.99 611.02 457.68 601.92 457.17 601.60 C 455.99 600.88 400.38 599.92 398.62 600.59 C 397.57 601.00 397.69 602.25 399.20 606.80 C 400.25 609.93 401.82 617.22 402.69 623.00 C 407.03 651.69 396.80 682.72 375.93 704.19 L 367.36 713.00 L 449.68 713.00 C 494.96 713.00 532.00 712.74 532.00 712.42 Z M 595.08 710.28 C 601.70 707.34 605.55 703.60 608.94 696.80 L 612.00 690.68 L 612.00 645.84 L 612.00 601.00 L 603.50 601.00 L 595.00 601.00 L 595.00 624.34 C 595.00 637.18 594.70 656.64 594.34 667.59 L 593.68 687.50 L 590.44 690.75 C 586.72 694.48 581.97 695.07 576.87 692.43 C 571.16 689.48 571.00 688.16 571.00 642.69 L 571.00 601.32 L 548.34 600.66 C 514.66 599.68 486.00 599.83 486.00 600.99 C 486.00 601.92 535.66 675.60 550.07 696.04 C 557.59 706.71 562.51 710.72 569.65 712.01 C 577.30 713.40 590.02 712.53 595.08 710.28 Z M 322.50 709.67 C 339.73 704.93 355.41 694.48 365.23 681.19 C 381.18 659.60 384.38 630.97 373.58 606.58 C 369.23 596.74 369.55 596.75 357.69 606.25 L 354.89 608.50 L 357.36 614.10 C 364.67 630.63 362.97 651.46 353.04 666.94 C 351.25 669.73 346.71 674.86 342.95 678.34 C 324.83 695.12 300.73 698.46 278.00 687.36 C 272.45 684.65 268.55 681.72 262.99 676.10 C 250.61 663.57 245.33 649.77 246.30 632.50 C 247.73 607.10 265.41 585.88 290.46 579.52 C 304.94 575.83 322.59 579.26 335.29 588.22 L 338.07 590.19 L 344.54 585.98 C 348.09 583.66 351.00 581.41 351.00 580.98 C 351.00 579.20 340.13 570.58 333.95 567.47 C 323.57 562.25 316.15 560.61 303.00 560.64 C 289.45 560.68 282.10 562.35 270.50 568.04 C 251.42 577.40 237.39 594.02 230.84 615.00 C 227.46 625.83 227.45 646.13 230.83 657.00 C 239.51 684.97 264.06 706.54 292.39 711.07 C 299.25 712.17 316.31 711.38 322.50 709.67 Z M 318.00 667.37 C 332.41 660.89 340.06 646.20 337.59 629.74 C 336.28 621.03 335.75 621.02 323.99 629.45 C 318.22 633.58 311.98 637.69 310.12 638.59 C 305.50 640.82 300.38 639.85 296.55 636.01 C 294.04 633.50 293.50 632.15 293.50 628.41 C 293.50 624.36 293.95 623.45 297.54 620.18 C 299.77 618.16 305.05 614.13 309.29 611.24 C 313.53 608.35 317.00 605.61 317.00 605.15 C 317.00 603.54 308.43 601.50 301.98 601.57 C 289.76 601.70 279.38 608.41 273.77 619.81 C 270.77 625.91 270.50 627.25 270.50 635.98 C 270.50 643.84 270.89 646.30 272.75 650.08 C 281.47 667.77 300.75 675.14 318.00 667.37 Z" stroke-linecap="round"/>
</g>
</g>
</g>

  </svg>