<svg xmlns="http://www.w3.org/2000/svg" xmlns:xlink="http://www.w3.org/1999/xlink" width="453px" height="500px" viewBox="0 0 452.91266861355484 500">
    <g id="1292fd14-34c5-41c1-b3c7-651579698543">
<g style="">
		<g id="1292fd14-34c5-41c1-b3c7-651579698543-child-0">
<path style="stroke: rgb(193,193,193); stroke-width: 0; stroke-dasharray: none; stroke-linecap: butt; stroke-dashoffset: 0; stroke-linejoin: miter; stroke-miterlimit: 4; fill: rgb(0,0,0); fill-rule: nonzero; opacity: 1;" transform="matrix(0.737901 0 0 0.737901 226.45628 249.99994) matrix(1 0 0 1 0 0)  translate(-528.892497, -511.798755)" d="M 433.00 850.38 C 374.42 843.34 329.81 823.12 292.14 786.53 C 271.25 766.24 257.83 747.84 245.44 722.50 C 228.97 688.80 222.00 658.05 222.00 619.20 C 222.01 597.15 224.08 580.89 229.52 560.22 C 241.47 514.79 266.54 474.34 301.70 443.78 C 307.09 439.09 313.08 434.30 315.00 433.13 C 325.89 426.53 339.88 436.75 336.01 448.47 C 335.16 451.03 332.16 454.18 324.68 460.33 C 262.89 511.15 236.12 592.42 255.57 670.14 C 262.60 698.27 277.36 727.95 295.02 749.50 C 303.27 759.56 321.08 776.54 331.18 783.97 C 360.44 805.48 396.65 819.10 434.86 822.96 C 479.32 827.44 529.17 815.63 567.50 791.52 C 586.49 779.58 602.08 766.06 622.03 744.24 C 630.32 735.18 630.60 734.98 635.00 734.99 C 646.95 735.03 653.37 747.09 646.63 756.82 C 642.52 762.74 621.92 784.00 612.85 791.68 C 577.37 821.71 537.64 840.34 492.50 848.12 C 483.45 849.68 475.09 850.27 458.50 850.50 C 446.40 850.67 434.92 850.61 433.00 850.38 Z M 709.27 795.46 C 697.12 792.19 684.55 783.20 678.12 773.19 C 674.74 767.93 672.93 763.58 633.49 666.20 C 618.50 629.19 605.92 598.59 605.54 598.20 C 605.15 597.82 559.53 597.28 504.17 597.00 L 403.50 596.50 L 397.67 594.30 C 388.60 590.87 383.05 587.23 376.00 580.09 C 368.89 572.88 363.93 564.00 362.10 555.20 C 361.34 551.55 361.00 520.06 361.01 454.20 C 361.02 350.29 360.84 354.02 366.62 342.13 C 369.92 335.34 379.53 325.46 386.75 321.43 C 389.64 319.82 391.97 318.27 391.94 318.00 C 391.90 317.73 388.87 316.03 385.19 314.22 C 372.26 307.89 359.12 294.37 352.59 280.70 C 347.97 271.02 346.03 263.37 345.32 251.96 C 343.33 219.78 362.80 190.08 394.00 177.74 C 402.77 174.27 410.41 173.00 422.52 173.00 C 435.45 173.00 445.07 175.40 457.27 181.67 C 464.62 185.45 468.23 188.15 475.00 194.96 C 484.60 204.60 489.82 212.83 493.74 224.50 C 496.18 231.77 496.43 233.87 496.43 247.50 C 496.43 261.13 496.18 263.23 493.74 270.50 C 490.03 281.54 484.80 290.06 476.13 299.20 C 466.44 309.42 453.86 317.11 440.19 321.15 C 439.42 321.38 441.07 323.33 444.16 325.84 C 453.23 333.23 459.71 343.26 462.01 353.53 C 462.53 355.85 462.99 373.11 463.03 391.88 L 463.10 426.00 L 532.60 426.00 C 610.03 426.00 610.69 426.05 621.66 432.62 C 632.73 439.25 641.02 449.14 645.10 460.58 C 648.24 469.36 648.14 482.21 644.85 491.75 C 643.05 496.98 642.71 499.00 643.62 499.00 C 644.32 499.00 648.44 500.12 652.78 501.49 C 665.69 505.57 677.09 514.05 685.04 525.51 C 687.27 528.72 699.58 558.11 719.60 608.00 C 736.71 650.62 751.11 685.39 751.60 685.26 C 752.10 685.13 758.35 682.99 765.50 680.51 C 777.00 676.53 779.50 676.01 787.14 676.00 C 811.98 675.99 831.07 691.90 835.22 716.06 C 838.23 733.63 828.97 753.77 813.24 763.84 C 807.65 767.42 742.99 793.69 735.00 795.63 C 727.95 797.34 715.97 797.26 709.27 795.46 Z M 732.09 768.07 C 749.00 762.04 799.62 740.76 801.72 738.81 C 804.79 735.95 807.62 730.53 808.50 725.86 C 809.97 718.00 804.57 708.53 796.51 704.86 C 788.68 701.31 783.98 702.17 760.36 711.50 C 748.52 716.17 738.03 720.00 737.04 720.00 C 734.41 720.00 733.91 719.07 726.76 701.00 C 708.23 654.14 664.60 545.93 662.70 542.12 C 659.83 536.36 653.10 530.55 646.36 528.03 C 641.03 526.04 639.02 526.00 541.52 526.00 L 442.11 526.00 L 439.31 523.59 L 436.50 521.17 L 436.00 440.34 L 435.50 359.50 L 432.39 354.00 C 424.51 340.05 405.94 337.74 395.21 349.39 C 388.14 357.06 388.50 351.33 388.50 455.50 C 388.50 543.40 388.62 549.74 390.27 553.27 C 392.72 558.47 398.57 564.72 403.43 567.32 L 407.50 569.50 L 515.64 569.77 C 599.86 569.98 624.01 570.31 624.80 571.27 C 625.37 571.95 630.64 584.42 636.53 599.00 C 642.41 613.58 652.96 639.67 659.97 657.00 C 666.98 674.33 678.97 703.96 686.61 722.85 C 701.81 760.45 703.57 763.49 712.44 767.63 C 718.65 770.52 724.85 770.66 732.09 768.07 Z M 607.50 496.10 C 627.51 486.84 621.92 456.13 599.74 453.53 C 596.86 453.19 565.03 453.04 529.00 453.20 L 463.50 453.50 L 463.23 475.75 L 462.96 498.00 L 533.23 497.98 C 599.49 497.96 603.73 497.85 607.50 496.10 Z M 433.47 294.47 C 460.70 287.37 476.03 258.02 466.54 231.13 C 462.79 220.49 453.21 209.84 442.84 204.79 C 421.03 194.15 393.73 201.41 380.73 221.29 C 369.31 238.77 370.02 260.00 382.59 277.12 C 388.34 284.96 401.79 293.53 411.04 295.27 C 416.60 296.31 427.95 295.90 433.47 294.47 Z M 438.77 779.96 C 373.24 773.13 320.19 730.68 300.70 669.50 C 288.20 630.29 291.60 586.02 309.98 548.50 C 319.43 529.21 324.92 523.13 333.00 523.05 C 340.39 522.97 347.49 530.33 346.65 537.20 C 346.41 539.24 344.15 544.19 341.65 548.21 C 332.13 563.48 326.11 579.47 322.95 597.85 C 311.83 662.59 349.08 725.55 410.53 745.88 C 426.13 751.04 438.25 753.00 454.58 753.00 C 501.89 753.00 544.12 730.85 570.04 692.45 C 574.49 685.84 579.12 676.85 586.05 661.30 C 589.31 654.00 597.21 651.11 604.48 654.56 C 612.77 658.49 613.90 666.37 608.14 680.08 C 586.97 730.45 536.32 769.76 481.50 778.37 C 468.52 780.41 449.78 781.10 438.77 779.96 Z" stroke-linecap="round"/>
</g>
</g>
</g>

  </svg>