<svg xmlns="http://www.w3.org/2000/svg" xmlns:xlink="http://www.w3.org/1999/xlink" width="500px" height="435px" viewBox="0 0 500 435.12247268787723">
    <g id="21abdf64-c755-45c1-8a9a-042993763353">
<g style="">
		<g id="21abdf64-c755-45c1-8a9a-042993763353-child-0">
<path style="stroke: rgb(193,193,193); stroke-width: 0; stroke-dasharray: none; stroke-linecap: butt; stroke-dashoffset: 0; stroke-linejoin: miter; stroke-miterlimit: 4; fill: rgb(0,0,0); fill-rule: nonzero; opacity: 1;" transform="matrix(1.148562 0 0 1.148562 250.000035 217.561267) matrix(1 0 0 1 0 0)  translate(-511.842535, -511.579431)" d="M 364.92 698.08 C 363.32 696.47 362.00 694.09 362.00 692.79 C 362.00 690.86 369.03 667.16 386.52 610.19 C 387.51 606.95 387.55 605.77 386.67 605.46 C 386.03 605.23 371.55 604.92 354.50 604.77 L 323.50 604.50 L 317.23 601.60 C 308.96 597.79 300.05 588.42 297.05 580.41 C 295.03 575.00 294.90 572.75 294.71 538.88 C 294.50 503.56 294.53 503.05 296.63 500.94 C 299.50 498.05 305.49 498.05 308.37 500.93 C 310.44 502.99 310.51 504.02 311.00 538.28 C 311.55 577.08 311.41 576.22 318.17 582.71 C 325.19 589.45 311.25 589.00 512.38 588.99 L 694.50 588.98 L 699.50 586.62 C 702.25 585.32 705.71 582.96 707.20 581.38 C 713.31 574.85 713.00 581.24 713.00 463.49 C 713.00 359.24 712.94 355.80 711.07 352.14 C 708.50 347.09 702.01 341.37 697.31 340.01 C 694.58 339.22 641.42 339.00 509.43 339.21 L 325.35 339.50 L 321.19 342.26 C 318.89 343.78 315.78 346.89 314.26 349.18 L 311.50 353.35 L 311.00 389.26 L 310.50 425.18 L 307.69 427.59 C 304.19 430.60 300.85 430.66 297.59 427.75 L 295.07 425.50 L 294.42 395.50 C 293.70 362.19 294.46 352.74 298.53 344.38 C 304.22 332.69 314.69 324.99 327.57 323.01 C 332.33 322.28 391.56 322.03 516.50 322.22 C 688.24 322.48 698.75 322.60 702.96 324.28 C 710.72 327.38 717.16 332.21 721.66 338.32 C 730.01 349.66 729.50 341.48 729.50 465.00 L 729.50 574.50 L 727.17 580.28 C 723.90 588.38 715.59 597.09 707.18 601.23 L 700.55 604.50 L 668.77 604.80 C 651.30 604.97 637.00 605.42 637.01 605.80 C 637.02 606.46 638.75 612.47 654.40 666.12 C 658.03 678.56 661.00 690.34 661.00 692.28 C 661.00 695.01 660.29 696.42 657.92 698.41 C 654.89 700.97 654.64 701.00 638.37 701.00 C 619.06 701.00 617.02 700.38 614.64 693.77 C 613.79 691.42 608.59 674.20 603.09 655.50 C 597.58 636.80 591.99 617.90 590.67 613.50 L 588.28 605.50 L 561.39 605.50 L 534.50 605.50 L 534.30 650.50 L 534.10 695.50 L 531.04 698.25 L 527.97 701.00 L 511.88 701.00 L 495.80 701.00 L 492.40 697.60 L 489.00 694.20 L 489.00 649.60 L 489.00 605.00 L 462.67 605.00 L 436.33 605.00 L 433.60 613.75 C 429.46 627.02 418.37 663.64 413.37 680.50 C 409.74 692.76 408.39 696.00 405.95 698.25 L 402.97 701.00 L 385.41 701.00 L 367.85 701.00 L 364.92 698.08 Z M 395.66 681.00 C 398.01 674.33 416.97 611.48 417.61 608.25 L 418.25 605.00 L 411.62 605.00 C 407.98 605.00 405.00 605.23 405.00 605.50 C 405.00 606.02 387.68 663.54 384.07 675.00 C 380.90 685.09 380.92 685.15 388.21 684.80 C 394.32 684.51 394.45 684.44 395.66 681.00 Z M 642.00 683.75 C 642.00 682.69 629.68 640.44 621.44 613.25 L 618.94 605.00 L 612.47 605.00 C 608.91 605.00 606.00 605.30 606.00 605.66 C 606.00 606.03 610.95 623.05 617.00 643.50 C 623.05 663.95 628.00 681.11 628.00 681.64 C 628.00 683.87 630.76 685.00 636.20 685.00 C 640.17 685.00 642.00 684.61 642.00 683.75 Z M 518.00 644.45 L 518.00 604.90 L 511.75 605.20 L 505.50 605.50 L 505.24 644.75 L 504.98 684.00 L 511.49 684.00 L 518.00 684.00 L 518.00 644.45 Z M 333.09 575.05 C 330.12 574.56 327.91 573.43 326.34 571.61 L 324.00 568.89 L 324.00 464.39 C 324.00 350.87 323.76 355.80 329.47 353.19 C 331.47 352.28 374.79 352.00 512.65 352.00 L 693.20 352.00 L 696.60 355.40 L 700.00 358.80 L 700.00 462.83 C 700.00 526.53 699.63 567.84 699.04 569.38 C 698.52 570.76 696.85 572.71 695.34 573.70 C 692.72 575.42 684.28 575.51 515.04 575.64 C 417.39 575.71 335.51 575.45 333.09 575.05 Z M 454.00 548.14 C 454.00 537.71 454.11 537.17 456.66 534.62 C 458.12 533.15 460.26 531.73 461.41 531.44 C 462.56 531.16 486.37 531.06 514.33 531.21 L 565.17 531.50 L 568.08 534.77 C 570.91 537.93 571.00 538.35 571.00 548.52 L 571.00 559.00 L 627.50 559.00 L 684.00 559.00 L 684.00 464.11 L 684.00 369.23 L 656.75 368.62 C 641.76 368.29 564.47 368.12 485.00 368.26 L 340.50 368.50 L 340.24 463.75 L 339.99 559.00 L 396.99 559.00 L 454.00 559.00 L 454.00 548.14 Z M 555.00 553.00 L 555.00 547.00 L 512.50 547.00 L 470.00 547.00 L 470.00 553.00 L 470.00 559.00 L 512.50 559.00 L 555.00 559.00 L 555.00 553.00 Z" stroke-linecap="round"/>
</g>
</g>
</g>

  </svg>