<svg xmlns="http://www.w3.org/2000/svg" xmlns:xlink="http://www.w3.org/1999/xlink" width="500px" height="429px" viewBox="0 0 500 429.23518340880815">
    <g id="b6caed84-0a15-4679-93c2-b375dec8f411">
<g style="">
		<g id="b6caed84-0a15-4679-93c2-b375dec8f411-child-0">
<path style="stroke: rgb(193,193,193); stroke-width: 0; stroke-dasharray: none; stroke-linecap: butt; stroke-dashoffset: 0; stroke-linejoin: miter; stroke-miterlimit: 4; fill: rgb(0,0,0); fill-rule: nonzero; opacity: 1;" transform="matrix(0.825896 0 0 0.825896 249.999986 214.617579) matrix(1 0 0 1 0 0)  translate(-512.201534, -512.267615)" d="M 329.00 770.42 C 313.66 766.38 301.10 756.12 294.12 741.90 C 290.49 734.50 288.67 727.76 278.95 685.50 C 259.97 603.00 237.86 509.53 237.16 508.90 C 236.80 508.57 234.48 507.52 232.02 506.57 C 223.14 503.13 216.88 497.35 211.88 487.97 C 209.83 484.12 209.50 482.12 209.50 473.50 C 209.50 464.61 209.80 462.94 212.16 458.47 C 216.00 451.18 222.23 445.26 229.84 441.65 L 236.50 438.50 L 307.00 438.22 L 377.50 437.94 L 377.51 405.22 C 377.52 377.61 377.80 371.10 379.33 363.54 C 383.45 343.19 392.20 322.78 403.59 306.96 C 410.79 296.96 426.14 281.98 436.01 275.33 C 450.53 265.54 467.91 258.10 485.00 254.38 C 496.95 251.78 525.95 251.74 538.00 254.32 C 564.33 259.95 586.18 271.43 604.90 289.45 C 620.79 304.74 631.60 321.55 638.89 342.30 C 645.39 360.80 646.18 367.11 646.72 404.25 L 647.21 438.00 L 715.50 438.00 C 781.06 438.00 784.04 438.08 790.14 440.00 C 806.29 445.10 815.70 458.56 814.85 475.36 C 814.14 489.29 805.62 501.13 792.43 506.49 L 786.62 508.85 L 773.33 564.17 C 756.80 632.93 752.04 653.04 741.43 698.85 C 731.46 741.86 730.27 744.93 719.10 756.08 C 711.04 764.12 704.76 767.79 694.37 770.49 C 685.82 772.72 337.47 772.65 329.00 770.42 Z M 396.99 740.25 C 396.97 726.86 397.33 727.36 387.20 726.73 C 378.79 726.21 378.48 726.10 375.17 722.48 C 372.10 719.13 371.81 718.34 372.27 714.27 C 372.62 711.20 373.62 708.93 375.41 707.13 C 377.77 704.77 378.97 704.45 387.27 704.00 L 396.50 703.50 L 396.50 693.50 L 396.50 683.50 L 388.00 683.00 C 378.21 682.42 375.89 681.40 373.63 676.63 C 371.60 672.35 371.59 670.67 373.58 666.48 C 375.79 661.81 380.22 660.00 389.40 660.00 L 397.00 660.00 L 396.99 653.25 C 396.98 649.54 396.71 644.86 396.37 642.85 L 395.77 639.19 L 386.91 638.85 C 378.94 638.53 377.78 638.24 375.45 635.90 C 369.96 630.41 371.65 620.30 378.53 617.42 C 380.41 616.64 385.10 616.00 388.97 616.00 L 396.00 616.00 L 396.00 606.13 L 396.00 596.25 L 387.45 595.80 C 379.43 595.38 378.69 595.15 375.70 592.16 C 372.94 589.40 372.50 588.26 372.50 583.90 C 372.50 579.44 372.89 578.49 375.77 575.92 C 378.83 573.18 379.55 573.00 387.52 573.00 L 396.00 573.00 L 396.00 562.50 L 396.00 552.00 L 388.45 552.00 C 379.76 552.00 375.78 550.41 373.52 546.03 C 370.55 540.29 372.55 533.32 377.97 530.52 C 380.38 529.27 385.74 529.00 408.05 529.00 C 438.20 529.00 439.46 529.24 442.48 535.61 C 444.36 539.57 444.38 541.16 442.58 545.47 C 440.53 550.37 436.64 552.00 427.01 552.00 L 418.93 552.00 L 419.22 562.25 L 419.50 572.50 L 428.60 573.00 C 438.27 573.53 440.08 574.33 442.57 579.13 C 444.41 582.70 444.38 585.40 442.42 589.52 C 440.21 594.19 435.78 596.00 426.60 596.00 L 419.00 596.00 L 419.00 606.00 L 419.00 616.00 L 426.60 616.00 C 435.78 616.00 440.21 617.81 442.42 622.48 C 444.37 626.57 444.39 628.13 442.58 632.47 C 440.53 637.36 436.64 639.00 427.05 639.00 L 419.00 639.00 L 419.00 649.50 L 419.00 660.00 L 427.05 660.00 C 436.64 660.00 440.53 661.64 442.58 666.53 C 444.40 670.88 444.37 673.38 442.48 677.03 C 440.18 681.49 436.27 683.00 427.01 683.00 L 418.93 683.00 L 419.22 693.25 L 419.50 703.50 L 428.84 704.00 C 437.85 704.48 438.27 704.61 441.09 707.77 C 444.60 711.70 444.96 716.91 442.05 721.69 C 439.69 725.55 435.28 726.99 425.75 726.99 L 419.00 727.00 L 419.00 738.00 L 419.00 749.00 L 459.53 749.00 L 500.07 749.00 L 499.78 737.75 L 499.50 726.50 L 490.85 726.00 C 481.17 725.44 478.87 724.18 476.96 718.38 C 475.54 714.06 477.12 708.84 480.71 706.02 C 482.81 704.36 484.76 704.00 491.63 704.00 L 500.00 704.00 L 500.00 693.50 L 500.00 683.00 L 492.45 683.00 C 483.49 683.00 479.93 681.47 477.63 676.64 C 475.59 672.33 475.59 670.67 477.63 666.36 C 479.93 661.53 483.49 660.00 492.45 660.00 L 500.00 660.00 L 500.00 649.50 L 500.00 639.00 L 492.45 639.00 C 483.27 639.00 479.44 637.29 477.34 632.27 C 475.35 627.50 476.29 623.05 480.08 619.43 C 482.87 616.75 483.84 616.47 491.57 616.15 L 500.00 615.79 L 500.00 605.90 L 500.00 596.00 L 493.25 596.00 C 484.68 596.00 480.17 593.88 477.62 588.65 C 476.02 585.37 475.91 584.24 476.90 580.96 C 478.78 574.65 481.84 573.00 491.63 573.00 L 500.00 573.00 L 500.00 562.50 L 500.00 552.00 L 492.45 552.00 C 483.49 552.00 479.93 550.47 477.63 545.64 C 475.60 541.35 475.59 539.67 477.58 535.48 C 479.80 530.79 484.21 529.00 493.55 529.00 L 501.29 529.00 L 500.65 522.25 C 500.30 518.54 500.01 514.04 500.01 512.25 L 500.00 509.00 L 380.38 509.00 L 260.77 509.00 L 261.35 511.21 C 261.66 512.43 262.68 516.93 263.61 521.21 L 265.29 529.00 L 298.19 529.00 C 334.32 529.00 335.49 529.17 338.48 534.97 C 341.45 540.71 339.45 547.68 334.03 550.48 C 332.12 551.47 328.29 552.00 323.05 552.00 L 315.00 552.00 L 315.00 562.50 L 315.00 573.00 L 323.98 573.00 C 332.50 573.00 333.14 573.15 336.23 575.92 C 339.11 578.49 339.50 579.44 339.50 583.90 C 339.50 588.28 339.06 589.40 336.23 592.23 C 333.10 595.36 332.59 595.51 323.98 595.85 L 315.00 596.20 L 315.00 606.00 L 315.00 615.80 L 323.94 616.15 C 332.22 616.47 333.09 616.71 335.92 619.43 C 339.71 623.05 340.65 627.50 338.66 632.27 C 336.09 638.41 333.72 639.00 311.55 639.00 C 292.88 639.00 292.00 639.09 292.00 640.94 C 292.00 642.70 294.37 654.05 295.59 658.19 C 296.04 659.68 298.26 659.91 314.53 660.19 L 332.97 660.50 L 336.23 663.77 C 338.97 666.50 339.50 667.78 339.50 671.60 C 339.50 675.58 339.03 676.58 335.76 679.58 L 332.03 683.00 L 316.45 683.00 C 302.07 683.00 300.91 683.14 301.40 684.75 C 301.70 685.71 302.65 689.65 303.52 693.50 C 304.38 697.35 305.33 701.29 305.61 702.25 C 306.08 703.80 307.64 704.00 319.55 704.00 C 332.78 704.00 333.01 704.04 336.05 706.75 C 341.50 711.62 340.96 719.74 334.90 724.24 C 332.71 725.87 330.69 726.15 322.04 726.08 L 311.78 726.00 L 312.43 728.58 C 314.18 735.54 322.98 744.76 330.39 747.38 C 333.64 748.54 341.06 748.86 365.75 748.92 L 397.00 749.00 L 396.99 740.25 Z M 605.00 738.15 L 605.00 727.30 L 595.75 726.70 C 586.68 726.12 586.43 726.03 583.13 722.44 C 580.10 719.13 579.82 718.33 580.27 714.27 C 580.62 711.20 581.62 708.93 583.41 707.13 C 585.77 704.77 586.97 704.45 595.27 704.00 L 604.50 703.50 L 604.78 693.25 L 605.07 683.00 L 596.99 683.00 C 587.36 683.00 583.47 681.37 581.42 676.47 C 579.61 672.13 579.63 670.57 581.58 666.48 C 583.79 661.81 588.22 660.00 597.40 660.00 L 605.00 660.00 L 605.00 649.50 L 605.00 639.00 L 596.75 639.00 C 590.44 638.99 587.77 638.55 585.42 637.11 C 579.13 633.28 578.48 624.79 584.08 619.43 C 586.91 616.71 587.78 616.47 596.06 616.15 L 605.00 615.80 L 605.00 606.02 L 605.00 596.24 L 595.86 595.81 C 586.78 595.37 586.71 595.35 583.25 591.57 C 580.09 588.13 579.81 587.35 580.27 583.27 C 580.62 580.20 581.62 577.93 583.41 576.13 C 585.77 573.77 586.97 573.45 595.27 573.00 L 604.50 572.50 L 604.78 562.25 L 605.07 552.00 L 596.99 552.00 C 587.73 552.00 583.82 550.49 581.52 546.03 C 578.41 540.02 580.52 533.40 586.45 530.59 C 589.55 529.12 593.41 528.95 617.48 529.20 L 644.96 529.50 L 648.15 532.69 C 650.83 535.37 651.33 536.62 651.33 540.59 C 651.33 544.74 650.89 545.71 647.68 548.65 C 644.14 551.90 643.78 552.00 635.51 552.00 L 627.00 552.00 L 627.00 562.50 L 627.00 573.00 L 635.78 573.00 C 645.50 573.00 647.92 574.00 650.58 579.15 C 652.78 583.41 651.65 589.00 647.87 592.63 C 645.10 595.28 644.18 595.53 635.94 595.85 L 627.00 596.20 L 627.00 606.10 L 627.00 616.00 L 634.53 616.00 C 638.78 616.00 643.55 616.62 645.47 617.42 C 651.27 619.85 653.59 627.02 650.51 632.99 C 647.92 637.99 645.45 639.00 635.78 639.00 L 627.00 639.00 L 627.00 649.50 L 627.00 660.00 L 634.75 660.00 C 646.43 660.01 651.29 663.68 651.18 672.40 C 651.13 675.78 650.50 677.07 647.57 679.75 C 644.15 682.89 643.73 683.00 635.48 683.00 L 626.93 683.00 L 627.22 693.25 L 627.50 703.50 L 633.00 703.64 C 636.03 703.72 639.96 703.84 641.73 703.89 C 643.79 703.96 646.16 705.07 648.23 706.92 C 651.11 709.49 651.50 710.44 651.50 714.90 C 651.50 719.28 651.06 720.40 648.23 723.23 C 645.05 726.41 644.72 726.50 636.23 726.56 L 627.50 726.62 L 627.22 737.81 L 626.93 749.00 L 658.22 749.00 L 689.50 749.00 L 695.50 746.16 C 701.95 743.10 708.31 736.89 710.60 731.42 C 711.37 729.58 712.00 727.82 712.00 727.53 C 712.00 727.24 708.16 727.00 703.47 727.00 C 693.31 727.00 688.83 725.41 686.03 720.81 C 683.64 716.90 683.47 713.92 685.43 710.13 C 688.11 704.96 689.38 704.53 703.84 704.00 L 717.38 703.50 L 719.66 694.50 C 720.92 689.55 721.96 684.94 721.98 684.25 C 721.99 683.31 718.53 683.00 707.90 683.00 C 691.60 683.00 688.17 681.98 685.48 676.33 C 682.50 670.04 685.33 663.71 692.32 661.07 C 693.89 660.47 702.32 660.00 711.46 660.00 L 727.80 660.00 L 729.39 652.75 C 730.27 648.76 731.27 644.04 731.62 642.25 L 732.25 639.00 L 712.38 639.00 C 694.69 638.99 692.16 638.79 689.42 637.11 C 683.56 633.54 682.44 624.75 687.27 620.23 C 690.63 617.08 694.40 616.00 702.07 616.00 L 709.00 616.00 L 709.00 606.10 L 709.00 596.20 L 699.92 595.85 L 690.84 595.50 L 687.31 591.64 C 684.07 588.10 683.81 587.38 684.28 583.17 C 684.68 579.65 685.54 577.91 687.92 575.78 C 690.83 573.18 691.60 573.00 700.02 573.00 L 709.00 573.00 L 709.00 562.50 L 709.00 552.00 L 700.90 552.00 C 691.48 552.00 687.90 550.43 685.42 545.20 C 683.28 540.68 684.23 536.11 688.08 532.43 L 691.13 529.50 L 724.99 529.21 L 758.85 528.92 L 760.93 520.09 C 762.07 515.23 763.00 510.75 763.00 510.13 C 763.00 509.30 731.30 509.00 643.00 509.00 L 523.00 509.00 L 523.00 519.00 L 523.00 529.00 L 531.05 529.00 C 540.27 529.00 544.18 530.51 546.48 534.97 C 549.44 540.68 547.91 546.87 542.77 550.00 C 540.20 551.56 537.73 551.99 531.25 552.00 L 523.00 552.00 L 523.00 562.50 L 523.00 573.00 L 531.78 573.00 C 541.45 573.00 543.92 574.01 546.51 579.01 C 548.41 582.70 548.39 585.37 546.42 589.52 C 544.21 594.19 539.78 596.00 530.60 596.00 L 523.00 596.00 L 523.00 605.90 L 523.00 615.80 L 532.08 616.15 L 541.16 616.50 L 544.69 620.36 C 547.93 623.90 548.19 624.62 547.72 628.83 C 547.32 632.35 546.46 634.09 544.08 636.22 C 541.17 638.82 540.40 639.00 531.98 639.00 L 523.00 639.00 L 523.00 649.50 L 523.00 660.00 L 530.53 660.00 C 534.78 660.00 539.55 660.62 541.47 661.42 C 547.29 663.85 549.59 671.02 546.48 677.03 C 544.18 681.49 540.27 683.00 531.05 683.00 L 523.00 683.00 L 523.00 693.50 L 523.00 704.00 L 532.10 704.00 C 541.12 704.00 541.23 704.03 544.60 707.40 C 548.43 711.23 549.11 715.95 546.54 720.91 C 544.14 725.56 539.03 727.33 530.38 726.52 L 523.00 725.83 L 523.00 737.41 L 523.00 749.00 L 564.00 749.00 L 605.00 749.00 L 605.00 738.15 Z M 292.89 606.00 L 292.64 596.00 L 286.70 596.00 C 281.03 596.00 280.79 596.10 281.37 598.25 C 281.70 599.49 282.73 603.99 283.66 608.25 L 285.34 616.00 L 289.24 616.00 L 293.13 616.00 L 292.89 606.00 Z M 740.39 607.75 C 741.34 603.21 742.35 598.71 742.63 597.75 C 743.07 596.22 742.37 596.00 737.07 596.00 L 731.00 596.00 L 731.00 606.00 L 731.00 616.00 L 734.83 616.00 L 738.66 616.00 L 740.39 607.75 Z M 292.78 562.25 L 293.07 552.00 L 282.03 552.00 C 275.97 552.00 271.00 552.21 271.00 552.46 C 271.00 553.22 275.00 570.39 275.50 571.79 C 275.84 572.74 278.18 573.00 284.23 572.79 L 292.50 572.50 L 292.78 562.25 Z M 748.90 569.25 C 751.36 559.84 753.00 553.16 753.00 552.61 C 753.00 552.27 748.05 552.00 742.00 552.00 L 731.00 552.00 L 731.00 561.83 C 731.00 567.24 731.30 571.97 731.67 572.33 C 732.03 572.70 735.84 573.00 740.13 573.00 L 747.92 573.00 L 748.90 569.25 Z M 377.00 473.50 L 377.00 461.00 L 307.90 461.00 L 238.80 461.00 L 235.46 464.34 C 233.62 466.18 231.80 468.96 231.40 470.53 C 230.32 474.84 232.90 481.03 236.90 483.72 L 240.30 486.00 L 308.65 486.00 L 377.00 486.00 L 377.00 473.50 Z M 425.24 429.25 C 425.57 373.84 425.63 372.33 427.81 365.17 C 439.40 327.22 469.40 302.82 507.50 300.35 C 542.48 298.09 578.25 320.59 591.75 353.34 C 598.56 369.85 598.38 367.93 598.76 429.75 L 599.11 486.00 L 611.61 486.00 L 624.12 486.00 L 623.73 428.25 C 623.39 377.73 623.12 369.57 621.60 363.10 C 618.74 350.97 614.24 339.81 607.80 328.84 C 599.48 314.70 583.73 298.81 569.89 290.61 C 552.19 280.13 532.64 274.75 512.00 274.69 C 480.36 274.60 453.63 285.97 431.85 308.76 C 415.01 326.39 404.50 348.12 401.03 372.50 C 400.48 376.42 400.03 402.90 400.02 432.75 L 400.00 486.00 L 412.45 486.00 L 424.91 486.00 L 425.24 429.25 Z M 576.00 473.50 L 576.00 461.00 L 512.00 461.00 L 448.00 461.00 L 448.00 473.50 L 448.00 486.00 L 512.00 486.00 L 576.00 486.00 L 576.00 473.50 Z M 786.70 484.04 C 792.52 480.49 794.45 473.86 791.48 467.61 C 788.20 460.69 791.76 461.00 715.60 461.00 L 647.00 461.00 L 647.00 473.50 L 647.00 486.00 L 715.25 486.00 C 781.18 485.99 783.61 485.93 786.70 484.04 Z M 575.79 405.75 C 575.44 373.87 575.40 373.42 572.84 366.76 C 569.01 356.77 564.29 349.46 556.91 342.09 C 549.28 334.45 542.13 329.93 531.83 326.21 C 525.47 323.91 522.92 323.56 512.50 323.53 C 498.54 323.49 490.67 325.48 480.07 331.72 C 472.22 336.34 461.65 346.74 457.18 354.25 C 452.93 361.40 449.30 371.84 448.04 380.60 C 447.49 384.40 447.03 398.86 447.02 412.75 L 447.00 438.00 L 511.57 438.00 L 576.15 438.00 L 575.79 405.75 Z" stroke-linecap="round"/>
</g>
</g>
</g>

  </svg>