<svg xmlns="http://www.w3.org/2000/svg" xmlns:xlink="http://www.w3.org/1999/xlink" width="500px" height="421px" viewBox="0 0 499.9999999999998 420.61239164995135">
    <g id="572f631e-a102-46f5-a518-a97bdde582ca">
<g style="">
		<g id="572f631e-a102-46f5-a518-a97bdde582ca-child-0">
<path style="stroke: rgb(193,193,193); stroke-width: 0; stroke-dasharray: none; stroke-linecap: butt; stroke-dashoffset: 0; stroke-linejoin: miter; stroke-miterlimit: 4; fill: rgb(0,0,0); fill-rule: nonzero; opacity: 1;" transform="matrix(0.817469 0 0 0.817469 250.000072 210.306257) matrix(1 0 0 1 0 0)  translate(-511.995043, -512.757763)" d="M 213.50 768.14 C 208.73 765.20 206.80 762.40 206.27 757.71 C 205.32 749.32 211.45 742.62 220.06 742.62 C 227.99 742.62 233.99 748.54 234.00 756.38 C 234.01 766.64 222.12 773.46 213.50 768.14 Z M 797.12 768.29 C 791.07 765.31 788.34 757.51 790.94 750.66 C 793.81 743.11 805.66 740.22 812.47 745.41 C 818.79 750.23 819.67 760.13 814.24 765.20 C 808.69 770.38 803.32 771.35 797.12 768.29 Z M 269.27 767.52 C 265.57 765.91 262.01 760.71 262.00 756.90 C 262.00 753.25 265.90 747.82 270.02 745.75 C 272.89 744.31 276.25 744.00 289.20 744.00 L 304.90 744.00 L 303.32 740.25 C 301.90 736.88 301.75 721.90 301.88 593.75 C 302.03 452.71 302.05 450.93 304.07 445.55 C 306.31 439.56 313.10 431.34 318.63 427.92 C 320.58 426.72 324.63 424.97 327.63 424.04 L 333.08 422.36 L 333.03 377.43 C 332.97 329.36 333.59 320.08 337.60 308.10 C 345.84 283.56 367.28 263.79 392.77 257.23 C 398.96 255.64 408.61 255.50 512.50 255.50 C 639.17 255.50 629.55 254.97 646.50 262.91 C 666.51 272.30 682.24 291.08 688.21 312.71 C 690.25 320.11 690.38 323.07 690.76 371.75 L 691.16 423.00 L 693.33 423.00 C 697.10 423.00 707.67 428.67 712.02 433.02 C 714.32 435.32 717.40 439.75 718.85 442.85 L 721.50 448.50 L 721.76 592.75 C 721.99 717.47 721.83 737.47 720.56 740.50 L 719.10 744.00 L 734.80 744.00 C 747.77 744.00 751.10 744.31 753.93 745.75 C 763.63 750.70 763.97 762.94 754.54 767.41 C 751.53 768.84 735.24 769.00 591.50 769.00 C 445.76 769.00 431.50 768.86 428.36 767.37 C 422.46 764.57 420.29 757.21 423.52 750.97 C 426.72 744.78 424.43 744.97 497.74 744.92 C 534.46 744.90 583.91 744.61 607.63 744.28 L 650.76 743.68 L 649.38 740.37 C 648.28 737.74 648.00 728.69 648.00 696.03 L 648.00 655.00 L 512.50 655.00 L 377.00 655.00 L 377.00 694.34 C 377.00 726.32 376.72 734.60 375.51 738.59 C 374.69 741.29 374.02 743.61 374.01 743.75 C 374.00 743.89 376.49 744.00 379.53 744.00 C 389.70 744.00 396.00 748.66 396.00 756.18 C 396.00 761.49 393.78 765.40 389.64 767.37 C 386.58 768.82 379.95 769.00 329.35 768.96 C 282.80 768.93 271.91 768.67 269.27 767.52 Z M 346.80 740.20 C 352.28 736.64 352.00 744.45 352.00 594.30 C 351.99 458.40 351.95 455.43 350.04 452.30 C 344.66 443.48 332.15 444.05 327.94 453.32 C 326.11 457.36 326.04 462.07 326.02 594.28 C 326.00 740.57 325.81 734.91 330.82 739.37 C 334.76 742.87 342.09 743.25 346.80 740.20 Z M 691.91 740.54 C 698.38 737.20 698.00 746.35 698.00 594.50 C 698.00 467.94 697.86 456.52 696.33 453.28 C 691.77 443.68 677.49 443.81 673.44 453.49 C 671.24 458.75 671.28 730.71 673.48 734.96 C 676.89 741.55 685.14 744.05 691.91 740.54 Z M 647.78 617.75 L 648.06 605.00 L 512.53 605.00 L 377.00 605.00 L 377.00 618.00 L 377.00 631.01 L 512.25 630.75 L 647.50 630.50 L 647.78 617.75 Z M 647.51 576.75 C 647.84 574.96 647.97 569.45 647.80 564.50 L 647.50 555.50 L 512.25 555.25 L 377.00 554.99 L 377.00 567.50 L 377.00 580.00 L 511.95 580.00 L 646.91 580.00 L 647.51 576.75 Z M 384.00 427.47 L 384.00 324.93 L 386.47 320.07 C 387.82 317.39 390.61 313.82 392.66 312.13 C 400.46 305.70 394.57 306.00 512.93 306.01 L 620.50 306.02 L 625.51 308.35 C 630.98 310.90 636.46 316.47 638.65 321.70 C 639.81 324.49 640.05 341.75 640.07 425.27 C 640.08 480.40 640.35 526.51 640.66 527.75 C 641.09 529.49 641.93 530.00 644.36 530.00 L 647.50 530.00 L 647.50 491.25 C 647.50 456.54 647.69 451.96 649.30 447.35 C 651.82 440.12 656.45 433.52 661.60 429.82 L 666.00 426.66 L 666.00 375.26 L 666.00 323.85 L 663.46 316.28 C 658.86 302.58 649.84 292.00 637.62 285.98 C 624.95 279.75 630.79 280.02 511.43 280.01 C 414.50 280.00 401.76 280.18 396.93 281.60 C 378.33 287.06 364.32 301.62 359.52 320.46 C 358.26 325.41 358.01 334.91 358.04 376.46 L 358.08 426.50 L 362.58 429.81 C 368.63 434.27 372.62 440.02 375.01 447.77 C 376.85 453.72 377.00 457.10 377.00 492.11 L 377.00 530.00 L 380.50 530.00 L 384.00 530.00 L 384.00 427.47 Z M 615.75 430.25 L 615.50 330.50 L 512.00 330.50 L 408.50 330.50 L 408.25 430.25 L 407.99 530.00 L 512.00 530.00 L 616.01 530.00 L 615.75 430.25 Z M 443.97 503.18 C 438.18 500.62 434.83 495.62 434.83 489.55 C 434.83 476.98 449.62 469.76 459.07 477.71 C 467.23 484.58 466.77 495.94 458.10 501.73 C 454.71 504.00 447.49 504.74 443.97 503.18 Z M 504.24 502.01 C 492.41 494.79 496.15 476.84 509.97 474.51 C 515.31 473.60 522.10 476.80 525.08 481.63 C 528.02 486.39 527.44 494.83 523.92 498.60 C 518.60 504.29 510.33 505.72 504.24 502.01 Z M 565.83 501.53 C 560.83 498.13 558.42 491.86 559.95 486.20 C 562.17 477.95 570.56 472.93 578.48 475.12 C 583.69 476.56 588.65 481.64 589.56 486.44 C 590.53 491.66 587.54 498.72 583.08 501.73 C 578.30 504.95 570.73 504.86 565.83 501.53 Z M 571.50 444.99 C 564.87 443.57 560.72 439.35 559.48 432.75 C 558.96 429.97 559.32 427.96 560.97 424.57 C 566.65 412.83 582.99 412.95 588.22 424.76 C 593.14 435.90 583.51 447.55 571.50 444.99 Z M 442.26 443.36 C 430.77 437.69 433.66 418.90 446.45 416.01 C 455.90 413.88 465.01 421.10 465.00 430.70 C 464.99 441.46 452.50 448.41 442.26 443.36 Z M 504.24 443.01 C 497.71 439.02 495.13 430.51 498.50 424.00 C 503.92 413.51 518.99 412.81 525.15 422.75 C 529.29 429.43 526.89 439.29 520.16 443.25 C 516.09 445.65 508.38 445.53 504.24 443.01 Z M 442.26 384.36 C 437.14 381.83 434.67 376.96 435.21 370.43 C 435.90 362.14 441.64 357.00 450.20 357.00 C 465.07 357.02 470.46 376.26 457.76 384.01 C 453.78 386.43 446.78 386.59 442.26 384.36 Z M 504.50 384.14 C 499.35 380.96 497.69 378.34 497.28 372.73 C 496.82 366.59 499.04 362.20 504.24 358.94 C 508.42 356.31 517.30 356.63 521.21 359.55 C 529.72 365.88 529.16 378.95 520.16 384.25 C 516.20 386.59 508.37 386.53 504.50 384.14 Z M 565.88 383.56 C 562.06 380.97 558.99 375.72 559.02 371.85 C 559.03 370.56 559.88 367.66 560.90 365.40 C 563.34 360.04 568.25 357.00 574.50 357.00 C 589.72 357.00 595.55 376.21 582.70 384.04 C 578.03 386.89 570.46 386.67 565.88 383.56 Z" stroke-linecap="round"/>
</g>
</g>
</g>

  </svg>