<svg xmlns="http://www.w3.org/2000/svg" xmlns:xlink="http://www.w3.org/1999/xlink" width="500px" height="468px" viewBox="0 0 500 467.67987487513795">
    <g id="de5098e2-a99a-44b0-bb2d-d50ce2943f8e">
<g style="">
		<g id="de5098e2-a99a-44b0-bb2d-d50ce2943f8e-child-0">
<path style="stroke: rgb(193,193,193); stroke-width: 0; stroke-dasharray: none; stroke-linecap: butt; stroke-dashoffset: 0; stroke-linejoin: miter; stroke-miterlimit: 4; fill: rgb(0,0,0); fill-rule: nonzero; opacity: 1;" transform="matrix(0.876225 0 0 0.876225 250.000136 233.840065) matrix(1 0 0 1 0 0)  translate(-512.185, -511.055116)" d="M 502.42 775.70 C 498.42 773.36 498.29 773.35 496.06 775.15 C 492.77 777.82 484.14 777.68 480.61 774.91 C 474.89 770.41 475.00 771.63 474.97 714.80 C 474.94 655.35 474.44 646.92 470.42 638.42 C 464.46 625.83 449.33 614.60 430.27 608.63 C 418.72 605.00 402.04 601.75 398.58 602.44 C 394.46 603.26 389.31 607.47 387.08 611.84 C 385.96 614.03 382.03 632.08 377.54 655.54 C 364.68 722.91 363.20 729.97 361.29 733.29 C 359.04 737.21 351.92 741.00 346.80 741.00 C 344.04 741.00 341.82 741.92 338.60 744.37 C 333.39 748.35 328.53 749.49 323.06 748.02 C 315.02 745.85 309.99 739.04 310.01 730.35 C 310.02 727.68 312.72 710.20 316.01 691.50 C 327.05 628.88 334.92 581.57 335.57 574.00 C 336.13 567.47 335.87 565.53 333.61 559.08 C 332.17 554.99 331.00 549.76 331.00 547.45 C 331.00 544.85 330.40 542.75 329.43 541.95 C 326.72 539.69 325.30 535.92 319.49 515.45 C 316.38 504.48 308.19 476.38 301.30 453.00 C 294.41 429.62 288.58 409.80 288.33 408.95 C 288.08 408.10 284.41 406.13 280.19 404.57 C 255.40 395.41 237.59 382.66 230.33 368.88 L 227.50 363.50 L 227.18 339.69 L 226.87 315.88 L 229.80 309.69 C 239.77 288.68 274.35 272.17 334.64 259.65 C 388.17 248.53 457.12 243.14 530.50 244.35 C 604.16 245.56 657.65 251.49 708.50 264.11 C 756.62 276.04 785.49 291.13 795.35 309.50 C 797.38 313.27 797.50 314.86 797.50 337.52 L 797.50 361.54 L 794.26 368.13 C 787.41 382.04 770.58 394.37 746.00 403.48 C 741.88 405.01 737.96 406.76 737.29 407.38 C 736.14 408.44 724.89 445.22 707.02 506.34 C 697.72 538.15 697.50 538.80 695.06 541.50 C 694.00 542.68 692.99 545.89 692.61 549.32 C 692.26 552.53 691.30 556.74 690.48 558.70 C 689.57 560.89 689.00 565.50 689.00 570.77 C 689.00 579.03 690.54 588.72 706.51 681.00 C 715.33 731.95 715.16 730.70 713.93 735.25 C 712.47 740.70 706.68 746.47 701.21 747.94 C 695.88 749.38 689.91 747.96 685.00 744.09 C 682.61 742.20 679.81 741.13 676.15 740.70 C 670.14 739.99 665.61 737.71 662.83 733.98 C 660.72 731.15 659.44 725.20 651.00 679.00 C 639.10 613.90 638.29 610.73 632.39 606.09 C 627.37 602.14 623.08 601.55 612.95 603.40 C 579.86 609.46 558.99 622.89 551.81 642.77 C 549.81 648.30 549.73 650.53 549.59 708.00 C 549.48 752.10 549.13 768.05 548.24 769.64 C 547.58 770.82 545.65 772.96 543.95 774.39 C 540.11 777.62 533.07 777.96 528.50 775.14 C 525.56 773.32 525.45 773.32 522.52 775.37 C 517.87 778.64 507.72 778.80 502.42 775.70 Z M 519.23 767.08 L 522.50 764.17 L 522.83 731.33 C 523.01 713.27 522.85 675.89 522.46 648.25 L 521.76 598.00 L 511.88 598.00 L 502.00 598.00 L 502.00 681.41 L 502.00 764.82 L 505.08 767.41 C 509.44 771.08 514.90 770.96 519.23 767.08 Z M 491.42 768.39 C 492.83 767.85 493.00 762.07 492.97 713.14 C 492.94 656.81 492.46 647.91 488.92 637.26 C 486.32 629.44 478.78 617.83 472.67 612.23 C 462.73 603.13 445.80 594.06 432.21 590.56 C 429.07 589.75 419.30 587.69 410.50 585.98 C 388.86 581.77 355.85 573.34 345.69 569.44 C 344.07 568.81 343.92 569.28 344.19 574.05 C 344.48 579.00 344.71 579.42 347.50 580.22 C 358.62 583.38 388.82 590.62 406.69 594.42 C 418.35 596.89 431.39 600.09 435.68 601.53 C 461.45 610.18 478.28 626.53 481.92 646.43 C 482.61 650.24 483.00 672.55 483.00 708.68 C 483.00 763.67 483.05 765.05 485.00 767.00 C 487.07 769.07 488.72 769.43 491.42 768.39 Z M 539.17 767.35 C 540.90 765.78 541.00 762.64 541.02 709.10 C 541.04 647.46 541.25 644.55 546.68 633.33 C 550.49 625.46 562.45 613.45 571.50 608.41 C 575.35 606.27 584.12 602.63 591.00 600.33 L 603.50 596.14 L 603.50 592.82 C 603.50 590.14 603.07 589.44 601.25 589.18 C 597.46 588.64 583.48 592.68 574.41 596.93 C 557.78 604.72 546.51 614.78 539.52 628.10 C 531.77 642.84 531.82 642.32 531.26 707.75 C 530.86 753.36 531.02 766.32 532.00 767.50 C 533.64 769.48 536.89 769.41 539.17 767.35 Z M 333.23 738.03 C 334.60 736.95 336.22 734.82 336.82 733.28 C 337.43 731.75 342.42 705.30 347.91 674.50 C 361.75 596.93 362.26 593.93 361.66 593.33 C 361.01 592.67 344.99 588.06 343.25 588.02 C 342.56 588.01 342.00 588.81 342.00 589.81 C 342.00 591.89 325.40 688.62 320.97 712.39 C 317.35 731.75 317.33 733.05 320.59 736.92 C 323.74 740.67 329.27 741.15 333.23 738.03 Z M 702.80 737.97 C 707.42 733.66 708.27 740.64 690.91 640.10 C 686.02 611.83 681.84 588.50 681.60 588.27 C 681.25 587.92 661.94 592.77 661.31 593.37 C 661.20 593.47 661.53 595.34 662.04 597.53 C 662.55 599.71 664.57 610.50 666.53 621.50 C 680.95 702.36 686.22 730.87 687.17 733.28 C 689.68 739.64 698.25 742.21 702.80 737.97 Z M 352.58 729.69 C 355.09 727.52 355.66 725.26 361.58 693.97 C 365.05 675.60 367.81 660.48 367.70 660.39 C 366.83 659.61 359.92 658.32 359.58 658.87 C 359.34 659.26 356.39 675.08 353.03 694.04 C 349.66 712.99 346.67 729.29 346.39 730.25 C 345.62 732.84 349.30 732.50 352.58 729.69 Z M 677.63 730.25 C 677.35 729.29 674.34 712.97 670.94 694.00 C 667.55 675.03 664.47 659.17 664.11 658.77 C 663.74 658.37 661.76 658.50 659.71 659.07 C 656.59 659.93 656.07 660.45 656.48 662.30 C 656.76 663.51 659.48 678.00 662.54 694.50 C 669.37 731.34 668.70 728.77 671.87 730.49 C 675.63 732.53 678.26 732.42 677.63 730.25 Z M 370.86 645.33 C 372.59 636.70 372.50 636.37 367.93 635.21 C 363.31 634.04 363.59 633.69 362.04 642.45 C 360.95 648.66 361.21 649.50 364.50 650.29 C 369.32 651.45 369.69 651.16 370.86 645.33 Z M 662.18 649.17 C 662.85 648.52 660.77 635.43 659.85 634.52 C 659.08 633.74 652.00 636.28 652.00 637.34 C 652.00 637.89 652.50 641.23 653.12 644.76 L 654.24 651.18 L 657.87 650.51 C 659.87 650.14 661.81 649.54 662.18 649.17 Z M 375.51 620.25 C 377.74 610.13 379.43 606.20 383.22 602.28 C 385.90 599.51 386.10 598.97 384.63 598.41 C 381.02 597.03 372.77 599.90 370.53 603.32 C 369.66 604.64 368.12 610.10 367.11 615.44 L 365.27 625.15 L 367.39 625.96 C 368.55 626.40 370.40 626.99 371.50 627.26 C 372.60 627.54 373.57 627.82 373.65 627.88 C 373.73 627.95 374.57 624.51 375.51 620.25 Z M 657.80 625.53 C 658.81 624.52 654.88 606.33 652.97 603.19 C 650.97 599.90 646.26 598.02 640.03 598.01 L 636.55 598.00 L 639.83 600.99 C 643.72 604.54 646.38 610.28 647.96 618.50 C 649.70 627.51 649.57 627.33 653.64 626.67 C 655.62 626.35 657.50 625.83 657.80 625.53 Z M 492.68 598.35 C 491.51 597.18 479.98 595.00 471.88 594.42 L 462.50 593.75 L 469.51 598.73 C 477.48 604.40 486.72 613.96 490.17 620.09 L 492.50 624.25 L 492.78 611.49 C 492.94 604.47 492.89 598.56 492.68 598.35 Z M 534.46 619.48 C 538.10 613.28 547.87 603.02 554.50 598.45 C 557.53 596.37 559.87 594.53 559.70 594.37 C 559.32 593.99 542.02 595.72 536.00 596.74 L 531.50 597.50 L 531.22 610.75 C 531.07 618.04 531.14 624.00 531.38 624.00 C 531.61 624.00 533.00 621.96 534.46 619.48 Z M 637.00 589.88 C 646.62 587.73 660.12 584.52 667.00 582.74 L 679.50 579.50 L 679.81 574.17 C 680.10 569.00 680.04 568.85 677.81 569.57 C 667.29 572.93 636.02 581.27 625.50 583.53 C 618.35 585.06 612.19 586.58 611.81 586.90 C 611.44 587.23 611.65 589.16 612.29 591.18 C 613.65 595.50 611.29 595.62 637.00 589.88 Z M 537.30 587.17 C 538.59 586.04 539.01 584.47 538.80 581.55 L 538.50 577.50 L 531.50 578.00 C 521.28 578.73 503.79 578.61 493.75 577.74 L 485.00 576.99 L 485.02 581.24 C 485.04 588.29 485.32 588.43 500.21 589.07 C 519.58 589.90 535.08 589.11 537.30 587.17 Z M 477.00 579.55 L 477.00 573.09 L 473.75 572.60 C 471.96 572.33 464.88 571.60 458.00 570.98 C 422.25 567.75 399.67 560.86 396.02 552.05 C 390.44 538.58 409.50 529.87 454.43 525.36 C 463.27 524.47 470.61 523.65 470.75 523.54 C 470.96 523.37 468.01 513.91 467.55 513.28 C 467.21 512.82 440.03 516.10 427.56 518.11 C 411.33 520.73 391.89 526.01 384.31 529.87 C 381.11 531.49 376.98 534.40 375.13 536.33 C 371.99 539.60 371.83 540.08 372.88 543.07 C 375.24 549.85 373.11 558.98 368.14 563.40 C 364.35 566.78 363.27 566.23 384.00 571.47 C 401.84 575.97 425.88 580.50 445.00 582.95 C 464.42 585.43 466.41 585.64 472.25 585.84 L 477.00 586.00 L 477.00 579.55 Z M 580.50 582.86 C 604.15 579.89 633.89 573.62 651.77 567.85 L 658.05 565.82 L 655.13 562.50 C 650.92 557.70 649.65 552.98 650.43 545.04 L 651.09 538.31 L 647.23 534.83 C 640.48 528.73 625.84 523.65 602.00 519.14 C 590.73 517.01 569.66 514.24 561.50 513.82 C 556.61 513.57 556.47 513.64 555.31 517.03 C 553.07 523.52 553.23 523.70 561.75 524.47 C 586.68 526.72 610.67 531.68 619.97 536.49 C 627.35 540.30 630.26 546.54 627.44 552.49 C 623.18 561.45 600.98 567.86 562.71 571.16 C 554.58 571.86 547.55 572.67 547.09 572.96 C 546.62 573.26 546.71 576.36 547.28 579.87 L 548.31 586.23 L 556.41 585.55 C 560.86 585.18 571.70 583.96 580.50 582.86 Z M 522.54 535.25 C 522.35 516.14 522.15 486.02 522.09 468.32 L 522.00 436.13 L 512.00 435.82 L 502.00 435.50 L 502.00 502.75 L 502.00 570.00 L 512.45 570.00 L 522.89 570.00 L 522.54 535.25 Z M 492.97 565.25 C 492.90 554.68 490.94 531.60 489.55 525.00 C 486.10 508.48 479.44 492.45 470.38 478.82 C 460.31 463.67 440.00 446.93 423.20 439.94 C 390.76 426.43 363.69 427.15 348.92 441.92 C 341.44 449.40 339.60 454.81 340.24 467.35 C 340.65 475.25 341.62 479.24 347.36 496.50 C 351.01 507.50 354.34 516.98 354.75 517.57 C 356.89 520.64 363.00 518.92 363.00 515.26 C 363.00 514.36 359.98 504.60 356.29 493.56 C 350.25 475.53 349.57 472.69 349.55 465.50 C 349.53 455.83 351.87 450.56 358.21 445.96 C 364.97 441.07 371.59 439.66 384.95 440.27 C 431.91 442.43 471.25 478.64 480.49 528.23 C 481.38 533.03 482.42 543.83 482.81 552.22 L 483.50 567.48 L 486.50 568.12 C 492.65 569.44 493.00 569.28 492.97 565.25 Z M 540.15 567.25 C 540.60 566.80 541.41 558.57 541.96 548.97 C 543.01 530.47 545.00 519.90 549.65 508.15 C 556.16 491.71 562.27 481.89 573.00 470.62 C 585.37 457.64 599.93 448.75 617.72 443.33 C 625.43 440.99 628.27 440.65 641.00 440.58 C 654.21 440.51 655.97 440.71 660.74 442.87 C 667.21 445.79 672.52 451.50 674.05 457.18 C 676.01 464.47 674.73 471.62 667.49 493.88 C 660.21 516.26 660.02 518.10 664.91 518.83 C 666.12 519.01 667.75 518.63 668.53 517.98 C 670.37 516.45 682.55 479.44 684.02 470.89 C 686.08 458.90 682.87 448.82 674.51 441.12 C 661.73 429.34 641.28 427.06 615.47 434.54 C 564.08 449.43 532.00 495.81 532.00 555.23 L 532.00 569.26 L 535.66 568.67 C 537.68 568.34 539.70 567.70 540.15 567.25 Z M 473.79 548.95 C 473.52 540.68 472.90 533.51 472.40 533.04 C 470.22 530.93 427.54 536.86 415.82 540.89 C 403.44 545.15 401.03 548.22 407.15 551.95 C 414.66 556.51 450.44 563.22 470.89 563.89 L 474.27 564.00 L 473.79 548.95 Z M 583.00 560.45 C 605.41 557.17 620.56 552.12 619.79 548.17 C 619.00 544.06 607.46 539.76 588.50 536.52 C 577.75 534.68 552.68 531.98 552.07 532.60 C 551.14 533.52 550.14 543.96 550.07 553.40 L 550.00 563.30 L 560.75 562.71 C 566.66 562.39 576.67 561.37 583.00 560.45 Z M 357.36 560.62 C 362.11 558.64 365.00 554.52 365.00 549.76 C 365.00 546.36 364.75 545.89 363.25 546.53 C 357.61 548.94 351.03 550.06 345.75 549.51 C 340.24 548.93 340.00 549.00 340.00 551.20 C 340.01 554.36 343.54 559.88 346.26 560.97 C 349.57 562.30 353.64 562.18 357.36 560.62 Z M 679.74 559.47 C 681.57 558.19 683.97 552.66 683.99 549.68 C 684.00 549.23 681.62 549.15 678.72 549.52 C 673.83 550.13 670.60 549.59 660.25 546.45 C 658.30 545.86 658.00 546.13 658.00 548.48 C 658.00 552.76 660.85 557.68 664.32 559.39 C 668.43 561.41 676.90 561.46 679.74 559.47 Z M 357.61 539.52 C 359.56 538.70 364.18 535.12 367.88 531.54 C 376.31 523.41 385.10 519.20 403.49 514.48 C 415.44 511.42 439.58 507.41 457.75 505.47 C 461.19 505.10 464.00 504.60 464.00 504.36 C 464.00 503.21 459.29 494.82 455.25 488.77 C 450.04 480.96 438.06 469.19 429.69 463.66 C 406.80 448.52 373.66 443.33 362.50 453.13 C 358.35 456.78 356.56 461.82 357.44 467.35 C 357.80 469.63 361.27 481.13 365.16 492.90 C 371.60 512.42 372.13 514.62 371.14 517.94 C 367.74 529.29 352.33 531.46 347.17 521.33 C 343.93 514.95 332.93 479.01 331.78 471.00 C 330.91 465.01 330.99 462.04 332.16 456.28 L 333.63 449.05 L 328.26 433.18 L 322.88 417.30 L 310.81 414.11 C 304.17 412.36 298.53 411.14 298.27 411.40 C 298.01 411.65 300.06 419.21 302.82 428.18 C 305.59 437.16 313.56 464.30 320.54 488.50 C 327.52 512.70 333.88 533.53 334.67 534.80 C 338.33 540.64 349.44 542.93 357.61 539.52 Z M 684.70 539.04 C 686.45 537.97 688.54 536.06 689.34 534.80 C 690.13 533.53 693.35 523.50 696.50 512.50 C 703.92 486.56 724.54 417.31 725.90 413.75 C 726.72 411.59 726.66 411.00 725.61 411.00 C 723.30 411.00 701.71 416.89 700.98 417.71 C 700.60 418.15 698.00 425.31 695.21 433.62 L 690.12 448.75 L 691.64 453.62 C 694.60 463.13 693.16 472.71 685.04 497.50 C 681.08 509.60 677.18 520.53 676.37 521.80 C 669.62 532.31 652.72 527.60 652.73 515.22 C 652.73 513.17 655.71 502.41 659.35 491.31 C 668.53 463.26 668.73 461.18 662.89 454.53 C 659.03 450.14 652.29 448.00 642.28 448.00 C 610.62 448.00 577.92 469.22 562.63 499.69 L 560.03 504.88 L 564.26 505.40 C 566.59 505.69 573.00 506.43 578.50 507.05 C 603.90 509.90 629.08 515.67 641.78 521.53 C 646.85 523.87 651.20 526.93 655.84 531.42 C 659.55 534.99 664.13 538.59 666.04 539.42 C 671.13 541.63 680.77 541.44 684.70 539.04 Z M 549.06 470.99 C 559.90 456.35 570.88 446.52 586.63 437.37 L 594.50 432.80 L 582.50 433.40 C 575.90 433.73 561.61 434.29 550.75 434.66 L 531.00 435.32 L 531.02 469.41 L 531.03 503.50 L 536.90 491.49 C 540.13 484.88 545.60 475.66 549.06 470.99 Z M 493.00 468.66 L 493.00 435.31 L 474.25 434.64 C 463.94 434.27 449.65 433.72 442.50 433.41 L 429.50 432.85 L 434.66 435.79 C 446.31 442.42 454.98 448.94 463.52 457.48 C 473.90 467.85 481.26 478.37 487.87 492.23 C 490.41 497.59 492.61 501.98 492.75 501.98 C 492.89 501.99 493.00 487.00 493.00 468.66 Z M 352.40 428.58 C 355.09 427.16 357.91 426.00 358.65 426.00 C 359.39 426.00 360.00 425.63 360.00 425.17 C 360.00 424.07 333.60 419.18 333.17 420.20 C 332.86 420.93 337.61 436.36 338.75 438.34 C 339.02 438.81 341.09 437.38 343.37 435.17 C 345.64 432.96 349.70 430.00 352.40 428.58 Z M 688.94 426.69 C 690.19 422.94 691.05 419.75 690.85 419.60 C 690.66 419.45 684.30 420.45 676.73 421.83 L 662.95 424.33 L 668.90 427.19 C 672.18 428.76 677.02 432.00 679.67 434.40 L 684.48 438.76 L 685.58 436.13 C 686.19 434.68 687.70 430.43 688.94 426.69 Z M 557.00 425.97 C 647.37 422.03 720.04 408.39 760.20 387.83 C 771.39 382.10 782.67 372.38 785.92 365.66 C 789.28 358.73 788.38 358.44 781.98 364.36 C 754.70 389.61 688.27 406.98 587.50 415.20 C 565.65 416.98 460.97 416.98 437.00 415.20 C 337.31 407.80 267.69 389.47 241.25 363.69 C 235.64 358.22 234.75 358.62 238.07 365.14 C 254.53 397.41 342.49 420.76 467.00 425.92 C 495.12 427.09 530.89 427.11 557.00 425.97 Z M 581.00 407.05 C 670.84 400.73 737.38 385.49 769.00 363.99 C 776.79 358.69 788.38 346.03 786.83 344.50 C 786.65 344.32 783.58 346.40 780.00 349.11 C 772.35 354.91 753.61 364.38 739.50 369.56 C 708.61 380.90 654.78 390.94 600.50 395.49 C 541.30 400.45 462.44 399.64 402.00 393.45 C 328.18 385.90 269.41 369.32 244.07 348.90 C 240.73 346.21 237.74 344.00 237.43 344.00 C 235.74 344.00 242.36 353.05 247.72 358.06 C 255.72 365.54 264.90 370.95 280.06 377.11 C 320.64 393.58 380.72 403.80 461.50 407.96 C 483.09 409.07 560.61 408.48 581.00 407.05 Z M 568.50 388.98 C 669.07 384.10 750.57 364.73 778.20 339.16 C 797.13 321.63 790.88 306.01 758.59 290.11 C 693.05 257.84 543.41 244.03 406.00 257.57 C 339.24 264.15 281.88 278.58 255.56 295.42 C 241.96 304.12 234.04 314.96 235.49 322.89 C 236.82 330.14 243.78 338.62 254.39 345.92 C 267.78 355.14 297.48 366.26 325.67 372.62 C 358.17 379.95 401.57 385.80 439.50 387.96 C 449.95 388.56 460.75 389.18 463.50 389.35 C 476.88 390.13 549.96 389.88 568.50 388.98 Z M 479.00 378.95 C 390.95 376.26 321.18 364.39 286.66 346.25 C 278.32 341.87 269.66 334.19 266.76 328.60 C 264.09 323.47 263.95 315.79 266.42 311.09 C 269.52 305.21 277.76 298.31 287.88 293.12 C 324.22 274.49 393.50 263.75 486.69 262.31 C 529.41 261.65 529.89 261.70 534.52 267.21 C 536.44 269.49 537.00 271.29 537.00 275.18 C 537.00 279.53 536.56 280.64 533.69 283.51 C 530.32 286.88 523.21 289.55 519.90 288.69 C 517.18 287.97 450.68 289.72 433.00 290.97 C 361.48 296.01 303.20 308.03 284.77 321.52 C 278.32 326.25 277.57 329.45 282.05 333.19 C 308.77 355.49 404.35 371.00 515.00 370.98 C 615.59 370.97 705.21 356.99 738.00 336.19 C 747.16 330.38 747.67 328.74 741.92 323.55 C 726.52 309.63 669.22 296.84 596.13 291.00 C 581.40 289.82 577.97 288.64 574.96 283.70 C 571.24 277.61 573.18 269.69 579.30 265.96 C 583.49 263.40 591.20 263.41 616.77 265.99 C 673.48 271.73 718.17 282.25 740.93 295.24 C 748.00 299.27 755.64 306.37 758.09 311.19 C 760.61 316.12 760.54 323.03 757.90 328.19 C 745.93 351.65 684.92 369.60 593.78 376.46 C 560.66 378.96 512.95 379.99 479.00 378.95 Z M 750.64 315.27 C 742.50 299.53 697.36 284.42 635.00 276.58 C 623.50 275.13 590.84 272.04 586.75 272.01 C 584.13 271.99 581.06 275.52 581.67 277.84 C 582.46 280.86 586.17 281.82 601.50 282.99 C 669.21 288.18 729.97 302.25 748.88 317.12 C 751.98 319.55 752.55 318.95 750.64 315.27 Z M 278.82 314.78 C 306.94 295.43 387.65 282.40 491.84 280.39 C 519.89 279.84 525.79 279.48 527.25 278.21 C 529.74 276.05 529.42 273.32 526.43 271.36 C 524.10 269.84 520.84 269.74 491.68 270.33 C 407.70 272.04 343.87 280.39 305.50 294.69 C 290.21 300.39 278.63 307.75 275.11 314.03 C 273.88 316.21 273.16 318.00 273.51 318.00 C 273.85 318.00 276.25 316.55 278.82 314.78 Z" stroke-linecap="round"/>
</g>
</g>
</g>

  </svg>