<svg xmlns="http://www.w3.org/2000/svg" xmlns:xlink="http://www.w3.org/1999/xlink" width="500px" height="304px" viewBox="0 0 500 303.76889711582265">
    <g id="a8e19580-4e61-49f9-b463-b2af5d2f3ef2">
<g style="">
		<g id="a8e19580-4e61-49f9-b463-b2af5d2f3ef2-child-0">
<path style="stroke: rgb(193,193,193); stroke-width: 0; stroke-dasharray: none; stroke-linecap: butt; stroke-dashoffset: 0; stroke-linejoin: miter; stroke-miterlimit: 4; fill: rgb(0,0,0); fill-rule: nonzero; opacity: 1;" transform="matrix(0.789402 0 0 0.789402 249.999892 151.884383) matrix(1 0 0 1 0 0)  translate(-511.804714, -512.413145)" d="M 224.05 703.91 C 212.88 701.72 203.23 693.99 198.16 683.18 L 195.50 677.50 L 195.23 575.07 C 194.93 461.19 194.64 466.63 201.64 456.30 C 205.46 450.68 209.00 447.62 216.00 443.89 C 219.88 441.83 221.87 441.50 230.50 441.50 C 239.46 441.50 241.04 441.78 245.69 444.24 L 250.88 446.97 L 251.21 405.74 L 251.54 364.50 L 254.10 357.88 C 257.92 348.00 261.66 342.17 268.43 335.50 C 275.01 329.03 283.28 324.14 291.93 321.60 C 296.83 320.16 318.42 320.00 511.93 320.01 C 744.78 320.02 730.27 319.67 742.50 325.60 C 750.93 329.68 762.74 341.53 766.82 350.00 C 772.76 362.32 773.00 364.54 773.00 407.66 L 773.00 446.90 L 778.21 444.20 C 782.88 441.79 784.49 441.50 793.46 441.52 C 801.92 441.54 804.24 441.91 808.22 443.87 C 815.72 447.56 821.57 453.38 825.21 460.78 L 828.50 467.46 L 828.50 572.98 L 828.50 678.50 L 825.34 684.54 C 811.17 711.64 774.16 711.04 761.30 683.50 L 758.50 677.50 L 758.19 651.75 C 758.02 637.59 757.74 626.00 757.57 626.00 C 757.40 626.00 754.25 628.02 750.57 630.49 C 746.88 632.96 740.64 635.97 736.69 637.19 L 729.50 639.40 L 512.50 639.45 C 330.59 639.49 294.61 639.28 290.00 638.11 C 283.46 636.46 274.49 632.12 270.25 628.56 C 268.58 627.15 266.97 626.00 266.67 626.00 C 266.37 626.00 265.98 637.81 265.81 652.25 L 265.50 678.50 L 262.74 684.13 C 259.69 690.32 252.44 697.71 246.36 700.82 C 244.20 701.92 239.78 703.31 236.53 703.91 C 229.97 705.12 230.24 705.12 224.05 703.91 Z M 240.09 686.67 C 242.52 685.39 245.85 682.43 247.50 680.09 L 250.50 675.83 L 250.77 575.34 C 250.95 506.83 250.70 473.60 249.98 470.91 C 248.62 465.87 243.63 460.19 238.51 457.86 C 228.71 453.42 218.11 457.37 212.65 467.50 L 210.50 471.50 L 210.23 570.82 C 210.05 638.52 210.30 671.40 211.02 674.09 C 214.25 686.08 229.06 692.50 240.09 686.67 Z M 802.61 686.51 C 807.99 683.83 810.96 680.51 812.83 675.10 C 813.69 672.59 813.99 645.71 813.98 572.10 C 813.95 460.54 814.45 468.11 806.74 461.35 C 796.53 452.38 782.90 454.92 776.00 467.09 L 773.50 471.50 L 773.20 571.00 C 772.98 643.79 773.20 671.57 774.05 674.50 C 777.62 686.93 790.72 692.43 802.61 686.51 Z M 732.07 622.41 C 739.09 620.36 746.19 615.82 750.10 610.87 C 755.20 604.43 757.22 597.82 757.77 585.78 L 758.25 575.05 L 751.00 578.78 L 743.75 582.50 L 704.87 582.79 L 666.00 583.09 L 663.39 580.48 C 661.27 578.36 660.89 577.26 661.39 574.68 C 662.69 567.94 662.33 568.00 701.24 568.00 C 726.06 568.00 737.47 567.64 740.38 566.77 C 744.35 565.58 753.00 558.22 753.00 556.03 C 753.00 554.88 301.19 554.52 282.66 555.65 C 276.80 556.01 272.00 556.60 272.00 556.96 C 272.00 558.50 278.81 564.44 282.50 566.13 C 286.13 567.79 289.78 567.96 322.19 567.98 L 357.89 568.00 L 360.61 570.34 C 364.17 573.40 364.35 578.49 361.00 581.20 C 358.79 582.99 356.64 583.07 319.46 582.79 L 280.25 582.50 L 273.00 578.78 L 265.75 575.05 L 266.19 585.78 C 266.55 594.60 267.09 597.52 269.23 602.18 C 272.11 608.47 278.41 615.86 283.70 619.12 C 291.72 624.08 281.26 623.86 511.07 623.93 C 705.19 623.99 727.18 623.84 732.07 622.41 Z M 750.00 539.98 L 753.50 539.96 L 748.40 535.05 C 739.22 526.22 761.50 526.95 509.46 527.24 L 286.50 527.50 L 281.82 530.25 C 279.25 531.76 276.00 534.46 274.60 536.25 L 272.05 539.50 L 286.28 540.00 C 296.31 540.35 703.54 540.34 750.00 539.98 Z M 271.72 517.96 C 281.08 512.02 281.36 512.00 339.10 512.00 L 391.83 512.00 L 392.16 495.41 C 392.49 479.38 392.58 478.76 394.86 476.91 C 397.92 474.43 402.47 474.47 405.00 477.00 C 406.84 478.84 407.00 480.33 407.00 495.50 L 407.00 512.00 L 456.00 512.00 L 505.00 512.00 L 505.00 495.54 C 505.00 479.89 505.11 478.98 507.19 477.04 C 509.94 474.48 514.07 474.43 517.14 476.91 C 519.42 478.76 519.51 479.36 519.82 495.42 L 520.13 512.02 L 568.82 511.76 L 617.50 511.50 L 617.75 495.00 C 617.99 479.61 618.15 478.38 620.12 476.75 C 622.72 474.58 626.84 474.50 629.78 476.56 C 631.93 478.06 632.00 478.68 632.00 495.02 L 632.00 511.92 L 686.75 512.21 C 746.75 512.53 744.44 512.30 754.00 518.69 L 757.50 521.02 L 757.79 447.76 C 758.00 396.15 757.75 372.74 756.95 368.54 C 754.44 355.35 746.35 344.76 734.22 338.79 L 727.54 335.50 L 512.02 335.50 L 296.50 335.50 L 290.82 338.16 C 280.64 342.94 273.02 351.44 268.66 362.89 C 266.57 368.41 266.53 369.74 266.22 444.75 C 266.06 486.69 266.15 521.00 266.42 521.00 C 266.70 521.00 269.08 519.63 271.72 517.96 Z M 225.04 673.81 C 223.10 671.73 223.00 670.40 223.00 646.75 C 223.00 631.12 223.39 621.13 224.06 619.89 C 226.37 615.58 234.68 615.67 237.02 620.04 C 237.58 621.09 238.00 632.50 238.00 646.93 C 238.00 670.67 237.89 672.11 236.00 674.00 C 233.25 676.75 227.69 676.65 225.04 673.81 Z M 225.60 598.90 C 222.97 596.83 222.94 596.68 223.22 585.76 C 223.49 575.11 223.60 574.64 226.16 572.73 C 229.24 570.43 232.91 570.91 236.03 574.03 C 237.73 575.73 238.00 577.38 238.00 586.05 C 238.00 595.38 237.83 596.27 235.55 598.55 C 232.54 601.55 229.13 601.68 225.60 598.90 Z M 227.32 554.99 C 223.77 553.57 223.00 550.75 223.00 539.24 C 223.00 529.15 223.17 528.19 225.31 526.17 C 228.23 523.44 231.97 523.40 235.37 526.07 C 237.94 528.10 238.00 528.41 238.00 539.62 C 238.00 550.47 237.87 551.22 235.55 553.55 C 232.98 556.11 230.97 556.47 227.32 554.99 Z M 225.45 506.55 C 223.07 504.16 223.00 503.69 223.00 489.00 C 223.00 474.31 223.07 473.84 225.45 471.45 C 226.80 470.10 229.07 469.00 230.50 469.00 C 231.93 469.00 234.20 470.10 235.55 471.45 C 237.93 473.84 238.00 474.31 238.00 489.00 C 238.00 503.69 237.93 504.16 235.55 506.55 C 234.20 507.90 231.93 509.00 230.50 509.00 C 229.07 509.00 226.80 507.90 225.45 506.55 Z M 788.07 673.37 C 786.04 670.78 786.00 669.76 786.00 624.00 C 786.00 578.24 786.04 577.22 788.07 574.63 C 790.67 571.33 796.02 571.02 799.00 574.00 C 800.94 575.94 801.00 577.33 801.00 623.83 L 801.00 671.65 L 798.69 673.83 C 795.41 676.90 790.69 676.70 788.07 673.37 Z M 788.45 553.35 C 786.17 550.89 786.00 549.98 786.00 539.99 C 786.00 530.66 786.27 528.93 788.07 526.63 C 790.66 523.35 795.63 523.07 798.81 526.04 C 800.83 527.92 801.00 529.02 801.00 539.97 C 801.00 551.62 800.95 551.90 798.37 553.93 C 794.80 556.73 791.40 556.53 788.45 553.35 Z M 788.45 506.55 C 786.07 504.16 786.00 503.69 786.00 489.00 C 786.00 474.31 786.07 473.84 788.45 471.45 C 791.60 468.30 795.94 468.25 798.83 471.31 C 800.87 473.49 801.00 474.59 801.00 489.24 L 801.00 504.85 L 798.37 506.93 C 794.87 509.68 791.45 509.55 788.45 506.55 Z M 291.45 609.59 C 284.70 606.66 280.83 598.31 284.51 594.64 C 287.19 591.95 289.89 591.74 293.59 593.92 C 297.08 595.98 297.93 596.00 375.42 596.00 C 453.13 596.00 453.75 596.02 456.37 598.07 C 459.67 600.67 459.98 606.02 457.00 609.00 C 455.03 610.97 453.69 611.00 374.75 610.96 C 310.29 610.93 293.90 610.66 291.45 609.59 Z M 480.00 609.00 C 477.02 606.02 477.33 600.67 480.63 598.07 C 483.27 596.00 483.38 596.00 605.38 595.97 C 711.17 595.94 727.76 595.74 729.44 594.47 C 734.06 590.98 741.00 594.19 741.00 599.81 C 741.00 602.93 737.53 606.75 732.30 609.39 C 729.41 610.85 717.27 611.00 605.55 611.00 C 483.33 611.00 481.98 610.98 480.00 609.00 Z M 385.23 582.33 C 384.53 582.05 383.26 580.46 382.40 578.81 C 380.47 575.07 381.87 570.84 385.61 569.13 C 387.39 568.32 409.96 568.00 464.94 568.00 C 538.52 568.00 541.88 568.08 544.09 569.87 C 545.76 571.23 546.40 572.78 546.40 575.50 C 546.40 578.22 545.76 579.77 544.09 581.13 C 541.87 582.92 538.57 583.00 464.14 582.92 C 421.44 582.88 385.93 582.61 385.23 582.33 Z M 567.45 580.55 C 566.10 579.20 565.00 576.92 565.00 575.50 C 565.00 574.08 566.10 571.80 567.45 570.45 L 569.91 568.00 L 604.00 568.00 L 638.09 568.00 L 640.55 570.45 C 643.70 573.60 643.75 577.94 640.69 580.83 C 638.40 582.97 637.91 583.00 604.14 583.00 L 569.91 583.00 L 567.45 580.55 Z M 281.86 496.09 L 279.50 494.18 L 279.50 444.00 L 279.50 393.82 L 281.86 391.91 C 284.92 389.44 288.08 389.49 291.37 392.07 L 294.00 394.15 L 294.00 444.03 L 294.00 493.92 L 291.81 495.96 C 289.06 498.52 284.93 498.57 281.86 496.09 Z M 311.24 496.96 C 309.99 496.46 308.53 494.89 307.99 493.46 C 306.47 489.47 306.73 440.09 308.29 437.02 C 310.66 432.32 318.72 431.74 321.05 436.10 C 321.80 437.50 322.14 447.28 322.08 465.84 L 321.98 493.50 L 319.44 495.75 C 316.72 498.15 314.87 498.42 311.24 496.96 Z M 337.86 496.09 L 335.50 494.18 L 335.23 467.34 C 334.94 438.45 335.17 436.88 340.08 434.13 C 343.93 431.97 347.83 433.35 349.57 437.50 C 351.67 442.54 351.65 489.85 349.54 493.93 C 347.20 498.46 341.98 499.42 337.86 496.09 Z M 366.63 495.93 L 364.00 493.85 L 364.00 465.50 L 364.00 437.15 L 366.63 435.07 C 370.13 432.32 373.55 432.45 376.55 435.45 L 379.00 437.91 L 379.00 465.88 L 379.00 493.85 L 376.37 495.93 C 374.92 497.07 372.73 498.00 371.50 498.00 C 370.27 498.00 368.08 497.07 366.63 495.93 Z M 424.74 497.31 C 420.55 496.22 420.00 492.50 420.01 465.30 C 420.03 446.60 420.38 438.82 421.29 437.02 C 423.71 432.23 431.71 431.76 434.16 436.26 C 435.05 437.90 435.32 445.89 435.15 466.00 L 434.92 493.50 L 432.41 495.75 C 429.96 497.94 428.38 498.26 424.74 497.31 Z M 452.36 496.83 C 451.19 496.26 449.73 494.70 449.11 493.35 C 447.74 490.34 447.57 441.27 448.92 437.72 C 449.42 436.40 451.22 434.74 452.92 434.03 C 457.03 432.33 461.72 434.16 462.76 437.88 C 463.17 439.32 463.49 452.36 463.47 466.86 L 463.44 493.23 L 460.66 495.61 C 457.68 498.18 455.74 498.46 452.36 496.83 Z M 480.32 496.99 C 476.29 495.37 476.00 493.23 476.00 465.18 C 476.00 440.97 476.18 438.01 477.75 436.11 C 480.59 432.70 485.15 432.36 488.59 435.32 L 491.50 437.82 L 491.82 463.16 C 492.16 491.04 491.59 495.45 487.38 497.05 C 484.41 498.18 483.23 498.17 480.32 496.99 Z M 536.50 496.81 C 535.40 496.18 534.17 495.18 533.77 494.59 C 533.36 493.99 533.02 480.82 533.02 465.32 L 533.00 437.15 L 535.63 435.07 C 537.08 433.93 539.33 433.00 540.63 433.00 C 543.41 433.00 546.71 435.99 547.52 439.24 C 547.84 440.49 547.96 453.37 547.80 467.85 C 547.50 494.15 547.50 494.18 545.14 496.09 C 542.49 498.24 539.47 498.49 536.50 496.81 Z M 564.50 496.81 C 563.40 496.18 562.17 495.18 561.77 494.59 C 561.36 493.99 561.02 480.82 561.02 465.32 L 561.00 437.15 L 563.63 435.07 C 566.92 432.49 570.08 432.44 573.14 434.91 L 575.50 436.82 L 575.79 464.91 L 576.09 493.00 L 573.59 495.50 C 570.91 498.18 567.73 498.63 564.50 496.81 Z M 591.45 495.55 L 589.00 493.09 L 589.00 465.50 L 589.00 437.91 L 591.45 435.45 C 594.45 432.45 597.87 432.32 601.37 435.07 L 604.00 437.15 L 604.00 465.53 C 604.00 493.45 603.96 493.96 601.81 495.96 C 598.83 498.74 594.47 498.56 591.45 495.55 Z M 648.63 495.93 L 646.00 493.85 L 646.00 465.50 C 646.00 441.07 646.22 436.93 647.57 435.57 C 651.42 431.72 658.21 432.80 660.02 437.55 C 660.57 438.99 661.00 451.39 661.00 465.61 C 661.00 486.03 660.71 491.66 659.54 493.93 C 657.16 498.52 652.92 499.30 648.63 495.93 Z M 676.73 496.01 L 674.00 493.85 L 674.00 465.50 L 674.00 437.15 L 676.63 435.07 C 680.13 432.32 683.55 432.45 686.55 435.45 L 689.00 437.91 L 689.00 465.34 C 689.00 490.00 688.82 492.99 687.25 494.89 C 684.58 498.10 680.02 498.59 676.73 496.01 Z M 704.73 496.01 L 702.00 493.85 L 702.00 465.50 L 702.00 437.15 L 704.73 434.99 C 708.02 432.41 712.58 432.90 715.25 436.11 C 716.82 438.01 717.00 440.99 717.00 465.50 C 717.00 490.01 716.82 492.99 715.25 494.89 C 712.58 498.10 708.02 498.59 704.73 496.01 Z M 732.63 495.93 L 730.00 493.85 L 730.00 444.00 L 730.00 394.15 L 732.63 392.07 C 736.13 389.32 739.55 389.45 742.55 392.45 L 745.00 394.91 L 745.00 444.00 L 745.00 493.09 L 742.55 495.55 C 739.55 498.55 736.13 498.68 732.63 495.93 Z M 394.86 457.09 C 392.71 455.35 392.47 454.28 392.15 445.01 C 391.96 439.42 392.10 433.28 392.46 431.36 C 393.75 424.48 399.24 422.04 404.37 426.07 C 406.97 428.13 407.00 428.27 407.00 441.40 C 407.00 453.96 406.88 454.77 404.69 456.83 C 401.83 459.51 397.98 459.61 394.86 457.09 Z M 507.00 457.00 C 505.19 455.19 505.00 453.67 505.00 441.15 C 505.00 425.48 505.63 424.00 512.26 424.00 C 514.98 424.00 516.37 424.66 518.00 426.73 C 519.99 429.26 520.13 430.41 519.82 442.32 C 519.52 454.44 519.36 455.29 517.14 457.09 C 514.08 459.57 509.53 459.53 507.00 457.00 Z M 620.00 457.00 C 618.20 455.20 618.00 453.67 618.00 441.54 C 618.00 428.98 618.15 427.94 620.19 426.04 C 622.98 423.44 626.03 423.45 629.37 426.07 C 631.98 428.13 632.00 428.26 632.00 441.57 C 632.00 453.67 631.80 455.20 630.00 457.00 C 628.89 458.11 626.67 459.00 625.00 459.00 C 623.33 459.00 621.11 458.11 620.00 457.00 Z M 311.50 418.85 C 307.04 416.41 305.51 410.54 308.36 406.79 C 311.54 402.60 319.73 402.75 322.02 407.04 C 325.96 414.40 318.56 422.71 311.50 418.85 Z M 339.32 418.99 C 334.48 417.05 333.49 409.77 337.53 405.97 C 343.02 400.81 351.40 404.21 351.40 411.61 C 351.40 417.82 345.44 421.46 339.32 418.99 Z M 366.47 417.73 C 360.59 412.67 363.72 403.92 371.50 403.70 C 374.44 403.62 375.77 404.20 377.63 406.35 C 382.17 411.64 379.73 418.54 372.92 419.63 C 370.06 420.09 368.78 419.72 366.47 417.73 Z M 422.63 417.93 C 419.99 415.85 419.13 411.42 420.62 407.54 C 422.42 402.87 431.52 402.05 434.50 406.30 C 440.15 414.36 430.33 423.98 422.63 417.93 Z M 450.46 417.72 C 448.48 416.02 447.80 414.49 447.80 411.78 C 447.80 407.16 448.47 406.12 452.54 404.42 C 461.25 400.78 468.19 410.90 461.55 417.55 C 458.42 420.67 453.97 420.74 450.46 417.72 Z M 481.00 419.29 C 477.63 418.05 476.00 415.62 476.00 411.85 C 476.00 406.68 478.73 404.00 484.00 404.00 C 489.14 404.00 492.00 406.69 492.00 411.55 C 492.00 417.52 486.58 421.34 481.00 419.29 Z M 534.92 417.08 C 531.36 413.52 531.18 410.06 534.37 406.36 C 536.15 404.28 537.65 403.60 540.39 403.60 C 548.05 403.60 551.44 412.65 545.64 417.63 C 541.94 420.82 538.48 420.64 534.92 417.08 Z M 564.50 418.79 C 561.48 417.06 560.07 414.81 560.03 411.67 C 559.99 408.08 564.87 403.00 568.37 403.00 C 571.79 403.00 575.87 406.81 576.62 410.71 C 577.13 413.39 576.74 414.42 574.19 416.96 C 571.01 420.14 567.88 420.73 564.50 418.79 Z M 591.86 418.11 C 586.61 413.98 587.43 406.97 593.45 404.46 C 599.40 401.97 604.90 405.40 604.97 411.64 C 605.04 418.38 597.15 422.27 591.86 418.11 Z M 649.32 418.99 C 641.73 415.93 644.99 403.60 653.39 403.60 C 661.05 403.60 664.44 412.65 658.64 417.63 C 655.78 420.09 653.04 420.49 649.32 418.99 Z M 675.45 417.55 C 670.12 412.21 673.95 403.60 681.66 403.60 C 684.35 403.60 685.86 404.30 687.63 406.36 C 690.82 410.06 690.64 413.52 687.08 417.08 C 683.35 420.81 678.90 420.99 675.45 417.55 Z M 703.45 417.55 C 701.77 415.86 701.00 413.98 701.00 411.55 C 701.00 406.69 703.86 404.00 709.00 404.00 C 714.30 404.00 717.00 406.67 717.00 411.93 C 717.00 419.19 708.58 422.68 703.45 417.55 Z M 509.47 411.05 C 505.87 409.59 505.09 407.57 504.79 398.95 L 504.50 390.50 L 456.00 390.50 L 407.50 390.50 L 407.20 398.48 C 406.96 405.00 406.52 406.89 404.78 408.73 C 401.94 411.75 397.58 411.67 394.45 408.55 C 392.26 406.35 392.00 405.25 392.00 398.05 L 392.00 390.00 L 352.22 390.00 C 307.33 390.00 308.00 390.10 308.00 383.10 C 308.00 380.54 308.67 378.70 310.06 377.45 C 312.05 375.65 316.17 375.59 426.67 375.73 C 554.95 375.91 545.00 375.30 545.00 383.00 C 545.00 389.06 543.07 390.00 530.67 390.00 L 520.00 390.00 L 520.00 397.45 C 520.00 405.94 518.84 409.30 515.34 410.89 C 512.55 412.16 512.23 412.17 509.47 411.05 Z M 619.45 408.55 C 617.26 406.35 617.00 405.25 617.00 398.05 L 617.00 390.00 L 593.11 390.00 C 571.81 390.00 569.00 389.81 567.15 388.25 C 563.85 385.45 563.47 381.72 566.18 378.64 L 568.50 376.00 L 638.00 375.97 C 676.22 375.96 708.51 375.96 709.75 375.97 C 713.08 376.01 716.00 379.45 716.00 383.35 C 716.00 390.08 716.84 389.95 672.43 390.24 L 632.50 390.50 L 632.00 399.33 C 631.59 406.57 631.15 408.42 629.56 409.58 C 626.57 411.76 622.22 411.32 619.45 408.55 Z M 285.31 374.53 C 275.86 370.43 284.52 352.73 297.78 349.05 C 300.19 348.37 328.41 348.01 378.08 348.01 L 454.65 348.00 L 456.83 350.31 C 460.69 354.43 459.27 360.01 453.87 361.89 C 451.67 362.66 427.93 363.01 376.10 363.02 C 292.80 363.05 299.55 362.45 295.65 370.13 C 294.22 372.95 290.28 376.26 288.70 375.96 C 288.59 375.94 287.06 375.30 285.31 374.53 Z M 730.78 373.25 C 729.93 372.29 728.51 370.05 727.61 368.28 C 726.71 366.51 725.11 364.60 724.06 364.03 C 722.77 363.34 683.15 363.00 604.13 363.00 C 524.91 363.00 485.23 362.66 483.40 361.96 C 477.90 359.87 476.52 355.15 480.07 350.63 L 482.15 348.00 L 602.99 348.00 L 723.83 348.00 L 730.03 351.25 C 740.11 356.52 745.53 366.48 741.60 372.48 C 739.57 375.59 733.22 376.04 730.78 373.25 Z" stroke-linecap="round"/>
</g>
</g>
</g>

  </svg>