<svg xmlns="http://www.w3.org/2000/svg" xmlns:xlink="http://www.w3.org/1999/xlink" width="3467px" height="3158px" viewBox="0 0 3466.666666666666 3157.2939452760766">
    <g id="1a21eee6-c105-4d5b-81aa-4274aecf685b">
<g style="">
		<g id="1a21eee6-c105-4d5b-81aa-4274aecf685b-child-0">
<path style="stroke: rgb(193,193,193); stroke-width: 0; stroke-dasharray: none; stroke-linecap: butt; stroke-dashoffset: 0; stroke-linejoin: miter; stroke-miterlimit: 4; fill: rgb(0,0,0); fill-rule: nonzero; opacity: 1;" transform="matrix(5.627875 0 0 5.627875 1733.333448 1578.647077) matrix(1 0 0 1 0 0)  translate(-512.000356, -511.495)" d="M 218.87 789.20 C 212.70 785.98 206.77 778.86 205.04 772.60 C 204.24 769.70 204.00 751.60 204.20 711.00 C 204.50 654.38 204.53 653.44 206.65 649.50 C 207.83 647.30 209.92 644.29 211.29 642.82 L 213.78 640.14 L 211.26 637.82 C 209.87 636.54 207.67 633.25 206.38 630.50 L 204.02 625.50 L 204.01 577.43 C 204.00 523.96 204.13 522.72 210.45 515.33 L 213.94 511.25 L 211.87 509.38 C 210.73 508.35 208.60 505.48 207.15 503.00 L 204.50 498.50 L 204.20 449.00 C 203.88 394.71 203.95 393.84 209.66 386.35 L 212.99 382.00 L 209.52 377.46 C 207.61 374.96 205.58 371.15 205.00 368.99 C 204.29 366.37 204.03 345.98 204.22 308.28 C 204.49 252.77 204.55 251.40 206.62 247.00 C 209.45 241.02 214.37 236.21 220.60 233.34 L 225.71 230.99 L 513.60 231.24 L 801.50 231.50 L 806.00 234.15 C 811.53 237.42 814.12 240.17 817.16 246.00 L 819.50 250.50 L 819.50 310.00 C 819.50 375.25 819.74 372.49 813.50 379.21 L 811.01 381.90 L 813.41 384.50 C 819.63 391.21 819.47 389.73 819.78 445.00 C 820.10 501.18 820.17 500.49 813.37 508.01 L 810.03 511.71 L 812.12 513.61 C 813.27 514.65 815.40 517.52 816.85 520.00 L 819.50 524.50 L 819.79 574.26 C 819.97 607.16 819.71 625.36 819.01 627.97 C 818.42 630.14 816.47 633.85 814.67 636.21 L 811.40 640.50 L 814.66 644.78 C 816.45 647.13 818.39 650.73 818.95 652.78 C 819.61 655.14 819.99 677.19 819.99 713.07 C 820.00 775.84 820.07 775.05 813.44 782.80 C 811.55 785.01 807.66 787.99 804.80 789.41 L 799.61 792.00 L 511.92 792.00 L 224.23 792.00 L 218.87 789.20 Z M 244.40 776.17 C 245.99 775.25 248.24 773.23 249.40 771.68 C 251.47 768.90 251.50 767.99 251.76 714.18 C 252.00 663.63 251.89 659.24 250.26 656.02 C 247.44 650.46 242.85 648.00 235.25 648.00 C 227.45 648.00 222.78 649.99 219.98 654.53 C 217.98 657.76 217.94 659.12 217.98 713.00 C 218.03 773.00 217.92 771.75 223.68 775.52 C 229.39 779.27 238.54 779.55 244.40 776.17 Z M 799.40 776.17 C 800.99 775.25 803.24 773.23 804.40 771.68 C 806.47 768.90 806.50 767.97 806.78 714.88 C 807.04 663.14 806.97 660.72 805.09 656.48 C 802.38 650.35 798.25 648.01 790.15 648.00 C 782.31 648.00 777.77 650.02 774.77 654.86 L 772.50 658.50 L 772.50 712.50 C 772.50 770.97 772.51 771.09 777.92 774.94 C 783.82 779.15 793.30 779.69 799.40 776.17 Z M 334.00 772.49 L 334.00 766.97 L 299.92 767.24 L 265.85 767.50 L 264.00 772.75 L 262.15 778.00 L 298.07 778.00 L 334.00 778.00 L 334.00 772.49 Z M 420.00 772.50 L 420.00 767.00 L 384.00 767.00 L 348.00 767.00 L 348.00 772.50 L 348.00 778.00 L 384.00 778.00 L 420.00 778.00 L 420.00 772.50 Z M 505.00 772.50 L 505.00 767.00 L 469.50 767.00 L 434.00 767.00 L 434.00 772.50 L 434.00 778.00 L 469.50 778.00 L 505.00 778.00 L 505.00 772.50 Z M 591.00 772.50 L 591.00 767.00 L 555.00 767.00 L 519.00 767.00 L 519.00 772.50 L 519.00 778.00 L 555.00 778.00 L 591.00 778.00 L 591.00 772.50 Z M 676.00 772.50 L 676.00 767.00 L 640.50 767.00 L 605.00 767.00 L 605.00 772.50 L 605.00 778.00 L 640.50 778.00 L 676.00 778.00 L 676.00 772.50 Z M 760.89 774.29 C 759.85 772.25 759.00 769.77 759.00 768.79 C 759.00 767.11 756.97 767.00 724.50 767.00 L 690.00 767.00 L 690.00 772.50 L 690.00 778.00 L 726.39 778.00 L 762.78 778.00 L 760.89 774.29 Z M 334.00 749.62 C 334.00 745.48 332.77 745.03 321.32 745.01 C 313.69 745.00 313.01 744.83 311.07 742.37 C 308.48 739.07 308.48 737.93 311.07 734.63 C 313.07 732.09 313.50 732.00 323.57 732.00 L 334.00 732.00 L 334.00 727.50 L 334.00 723.00 L 323.57 723.00 C 313.43 723.00 313.09 722.93 311.02 720.29 C 308.53 717.13 308.96 713.45 312.15 710.75 C 313.82 709.34 316.15 709.00 324.11 709.00 L 334.00 709.00 L 334.00 705.09 L 334.00 701.18 L 323.53 700.84 C 311.83 700.46 309.67 699.40 309.67 694.06 C 309.67 688.19 312.03 687.00 323.65 687.00 L 334.00 687.00 L 334.00 682.50 L 334.00 678.00 L 324.43 678.00 C 319.17 678.00 313.98 677.52 312.89 676.94 C 310.06 675.43 308.80 671.54 310.16 668.55 C 311.68 665.20 315.79 664.00 325.65 664.00 L 334.00 664.00 L 334.00 660.09 L 334.00 656.18 L 323.41 655.84 C 313.70 655.53 312.66 655.30 310.91 653.14 C 308.34 649.97 308.51 647.40 311.45 644.45 C 313.74 642.17 314.62 642.00 324.01 642.00 L 334.11 642.00 L 333.81 637.75 L 333.50 633.50 L 322.85 633.22 C 311.66 632.92 310.67 632.53 309.52 627.95 C 309.08 626.17 309.52 624.61 311.02 622.71 C 313.09 620.07 313.43 620.00 323.57 620.00 L 334.00 620.00 L 334.00 615.50 L 334.00 611.00 L 323.57 611.00 C 313.50 611.00 313.07 610.91 311.07 608.37 C 308.50 605.09 308.46 602.90 310.91 599.86 C 312.66 597.70 313.70 597.47 323.41 597.16 L 334.00 596.82 L 334.00 592.91 L 334.00 589.00 L 325.07 589.00 C 320.15 589.00 315.00 588.57 313.63 588.05 C 308.87 586.24 307.81 580.33 311.57 576.57 C 312.80 575.34 315.43 575.00 323.57 575.00 L 334.00 575.00 L 334.00 570.50 L 334.00 566.00 L 323.57 566.00 C 313.50 566.00 313.07 565.91 311.07 563.37 C 308.50 560.09 308.46 557.90 310.91 554.86 C 312.66 552.70 313.70 552.47 323.41 552.16 L 334.00 551.82 L 334.00 547.40 L 334.00 542.97 L 300.25 543.24 L 266.50 543.50 L 266.19 547.75 L 265.89 552.00 L 274.31 552.00 C 284.20 552.00 288.00 553.96 288.00 559.07 C 288.00 564.50 285.18 566.00 274.94 566.00 L 265.89 566.00 L 266.19 570.25 L 266.50 574.50 L 275.50 574.77 C 283.22 574.99 284.75 575.33 286.25 577.13 C 288.71 580.08 288.42 583.67 285.48 586.61 C 283.15 588.94 282.35 589.11 274.73 588.90 L 266.50 588.68 L 266.19 592.84 L 265.89 597.00 L 274.49 597.00 C 282.29 597.00 283.32 597.23 285.55 599.45 C 288.58 602.49 288.67 605.65 285.83 608.69 C 283.87 610.77 282.76 611.00 274.77 611.00 L 265.89 611.00 L 266.19 615.25 L 266.50 619.50 L 275.83 620.00 C 283.56 620.41 285.41 620.83 286.58 622.44 C 288.53 625.11 288.36 628.34 286.11 631.11 C 284.33 633.31 283.63 633.43 273.86 633.23 L 263.50 633.03 L 260.78 636.88 C 259.29 639.00 258.35 641.02 258.70 641.37 C 259.05 641.71 264.85 642.00 271.59 642.00 C 283.65 642.00 283.89 642.04 285.93 644.63 C 287.07 646.08 288.00 648.05 288.00 649.00 C 288.00 649.95 287.07 651.92 285.93 653.37 C 283.96 655.87 283.40 656.00 274.65 656.00 L 265.45 656.00 L 265.82 659.88 L 266.19 663.76 L 275.23 664.20 C 283.18 664.58 284.51 664.91 286.14 666.93 C 288.56 669.92 288.50 673.09 285.96 675.81 C 284.16 677.75 282.89 678.00 274.96 678.00 L 266.00 678.00 L 266.00 682.50 L 266.00 687.00 L 275.00 687.00 C 285.13 687.00 288.00 688.51 288.00 693.85 C 288.00 698.83 284.96 700.45 274.90 700.85 L 266.00 701.20 L 266.00 705.10 L 266.00 709.00 L 274.37 709.00 C 281.31 709.00 283.18 709.35 285.37 711.07 C 288.40 713.46 288.83 717.37 286.44 720.78 C 285.02 722.81 284.07 723.00 275.39 723.00 L 265.89 723.00 L 266.19 727.25 L 266.50 731.50 L 275.47 731.79 C 285.73 732.13 288.00 733.36 288.00 738.58 C 288.00 744.06 284.44 746.00 274.37 746.00 L 266.00 746.00 L 266.00 749.50 L 266.00 753.00 L 300.00 753.00 L 334.00 753.00 L 334.00 749.62 Z M 419.81 749.25 L 419.50 745.50 L 409.00 745.24 C 399.74 745.01 398.29 744.73 396.75 742.88 C 394.42 740.09 394.53 735.73 396.98 733.51 C 398.85 731.82 404.56 731.10 416.75 731.02 C 419.87 731.00 420.00 730.84 420.00 727.00 L 420.00 723.00 L 409.81 723.00 C 400.73 723.00 399.38 722.76 397.31 720.83 C 394.32 718.01 394.37 714.54 397.45 711.45 C 399.73 709.17 400.62 709.00 409.95 709.00 L 420.00 709.00 L 420.00 705.15 L 420.00 701.30 L 409.38 700.70 C 401.41 700.25 398.30 699.68 396.88 698.39 C 394.60 696.32 394.45 692.23 396.56 689.22 C 398.00 687.16 398.88 687.00 409.06 687.00 L 420.00 687.00 L 420.00 682.50 L 420.00 678.00 L 409.50 678.00 C 400.33 678.00 398.75 677.75 397.00 676.00 C 394.12 673.12 394.41 668.61 397.63 666.07 C 399.90 664.29 401.67 664.00 410.13 664.00 L 420.00 664.00 L 420.00 660.00 L 420.00 656.00 L 410.13 656.00 C 401.67 656.00 399.90 655.71 397.63 653.93 C 394.38 651.37 394.19 647.49 397.17 644.31 C 399.17 642.18 400.17 642.00 409.67 642.00 L 420.00 642.00 L 420.00 638.11 L 420.00 634.23 L 409.58 633.84 C 401.14 633.53 398.77 633.10 397.08 631.57 C 394.61 629.34 394.39 625.32 396.56 622.22 C 398.00 620.16 398.88 620.00 409.06 620.00 L 420.00 620.00 L 420.00 615.50 L 420.00 611.00 L 409.54 611.00 C 400.07 611.00 398.89 610.79 397.04 608.81 C 394.39 605.97 394.45 602.22 397.17 599.31 C 399.17 597.18 400.17 597.00 409.67 597.00 L 420.00 597.00 L 420.00 592.59 L 420.00 588.17 L 409.42 588.34 C 399.40 588.49 398.73 588.37 396.92 586.14 C 394.53 583.20 394.47 579.86 396.75 577.12 C 398.29 575.27 399.74 574.99 409.00 574.76 L 419.50 574.50 L 419.81 570.25 L 420.11 566.00 L 409.56 566.00 C 400.33 566.00 398.75 565.75 397.00 564.00 C 394.12 561.12 394.41 556.61 397.63 554.07 C 399.90 552.29 401.67 552.00 410.13 552.00 L 420.00 552.00 L 420.00 547.50 L 420.00 543.00 L 384.50 543.00 L 349.00 543.00 L 349.00 547.50 L 349.00 552.00 L 358.89 552.00 C 370.49 552.00 373.33 553.38 373.33 559.00 C 373.33 564.62 370.49 566.00 358.89 566.00 L 349.00 566.00 L 349.00 570.50 L 349.00 575.00 L 359.17 575.00 C 370.74 575.00 373.00 576.06 373.00 581.50 C 373.00 586.89 370.42 588.24 359.10 588.78 L 349.19 589.26 L 348.82 593.13 L 348.45 597.00 L 357.97 597.01 C 369.74 597.03 372.38 598.14 372.81 603.22 C 373.03 605.87 372.55 607.45 371.06 608.94 C 369.26 610.74 367.76 611.00 359.06 611.00 C 353.59 611.00 348.93 611.34 348.70 611.75 C 348.47 612.16 348.49 614.19 348.75 616.25 L 349.22 620.00 L 359.45 620.00 C 367.94 620.00 369.96 620.30 371.25 621.75 C 373.23 623.96 373.60 625.81 372.71 629.15 C 371.76 632.74 367.70 634.00 357.07 634.00 L 348.45 634.00 L 348.83 638.00 L 349.21 642.00 L 358.99 642.00 C 366.95 642.00 369.20 642.34 371.01 643.81 C 374.16 646.36 373.96 650.78 370.57 653.69 C 368.18 655.75 366.86 656.00 358.44 656.00 L 349.00 656.00 L 349.00 660.00 L 349.00 664.00 L 358.07 664.00 C 369.79 664.00 372.95 665.54 372.98 671.25 C 373.01 676.63 370.17 678.00 359.00 678.00 L 349.00 678.00 L 349.00 682.50 L 349.00 687.00 L 359.17 687.00 C 370.74 687.00 373.00 688.06 373.00 693.50 C 373.00 699.03 370.27 700.45 358.90 700.84 L 349.00 701.19 L 349.00 705.09 L 349.00 709.00 L 358.78 709.00 C 370.53 709.00 373.00 710.17 373.00 715.73 C 373.00 722.02 371.17 723.00 359.35 723.00 L 349.00 723.00 L 349.00 727.50 L 349.00 732.00 L 359.17 732.00 C 367.23 732.00 369.72 732.34 371.17 733.65 C 373.54 735.80 373.51 740.16 371.09 743.14 C 369.27 745.37 368.63 745.49 359.09 745.24 L 349.00 744.98 L 349.00 748.99 L 349.00 753.00 L 384.56 753.00 L 420.12 753.00 L 419.81 749.25 Z M 504.81 749.25 L 504.50 745.50 L 496.23 745.86 C 486.84 746.27 482.81 745.08 481.13 741.39 C 479.57 737.96 479.70 736.59 481.86 733.93 C 483.61 731.76 484.34 731.64 494.36 731.84 L 505.00 732.05 L 505.00 727.52 L 505.00 723.00 L 494.95 723.00 C 485.52 723.00 484.75 722.84 482.36 720.45 C 480.39 718.48 479.95 717.29 480.45 715.20 C 481.66 710.08 484.21 709.00 495.11 709.00 L 505.00 709.00 L 505.00 705.00 L 505.00 701.00 L 496.65 701.00 C 486.24 701.00 482.57 699.80 480.95 695.87 C 479.86 693.25 479.96 692.53 481.71 690.19 C 483.63 687.60 484.12 687.49 494.36 687.22 L 505.00 686.93 L 505.00 682.47 L 505.00 678.00 L 494.57 678.00 C 484.43 678.00 484.09 677.93 482.02 675.29 C 480.53 673.40 480.07 671.82 480.51 670.04 C 481.69 665.21 483.33 664.52 494.53 664.16 L 505.00 663.82 L 505.00 660.00 L 505.00 656.18 L 494.53 655.84 C 483.33 655.48 481.69 654.79 480.51 649.96 C 480.07 648.18 480.53 646.60 482.02 644.71 C 484.09 642.07 484.42 642.00 494.63 642.00 L 505.11 642.00 L 504.81 637.75 L 504.50 633.50 L 495.50 633.25 C 483.65 632.92 482.48 632.58 480.98 628.95 C 479.86 626.24 479.94 625.56 481.71 623.19 C 483.63 620.60 484.12 620.49 494.36 620.22 L 505.00 619.93 L 505.00 615.47 L 505.00 611.00 L 496.97 611.00 C 487.79 611.00 483.83 609.67 479.19 605.04 C 472.63 598.48 472.55 598.06 472.00 569.50 L 471.50 543.50 L 452.75 543.23 L 434.00 542.96 L 434.00 547.48 L 434.00 552.00 L 444.43 552.00 C 454.50 552.00 454.93 552.09 456.93 554.63 C 459.74 558.21 459.54 561.43 456.37 563.93 C 454.10 565.71 452.33 566.00 443.81 566.00 L 433.89 566.00 L 434.19 570.25 L 434.50 574.50 L 445.00 574.76 C 454.26 574.99 455.71 575.27 457.25 577.12 C 459.48 579.80 459.48 583.19 457.25 585.90 C 455.70 587.79 454.32 588.05 445.00 588.26 L 434.50 588.50 L 434.20 592.66 L 433.89 596.81 L 444.34 597.16 C 456.08 597.54 459.00 598.94 459.00 604.15 C 459.00 609.71 456.26 611.00 444.44 611.00 L 433.89 611.00 L 434.19 615.25 L 434.50 619.50 L 444.82 619.66 C 456.59 619.84 459.00 621.01 459.00 626.50 C 459.00 631.98 456.45 633.26 444.49 633.80 L 434.00 634.26 L 434.00 638.13 L 434.00 642.00 L 444.50 642.00 C 453.67 642.00 455.25 642.25 457.00 644.00 C 459.88 646.88 459.59 651.39 456.37 653.93 C 454.10 655.71 452.33 656.00 443.87 656.00 L 434.00 656.00 L 434.00 660.00 L 434.00 664.00 L 443.87 664.00 C 452.33 664.00 454.10 664.29 456.37 666.07 C 459.40 668.46 459.83 672.37 457.44 675.78 C 456.00 677.84 455.12 678.00 444.94 678.00 L 434.00 678.00 L 434.00 682.50 L 434.00 687.00 L 444.67 687.00 C 456.83 687.00 459.00 688.00 459.00 693.58 C 459.00 695.93 458.25 697.44 456.37 698.93 C 454.10 700.71 452.33 701.00 443.87 701.00 L 434.00 701.00 L 434.00 704.91 L 434.00 708.82 L 445.08 709.16 C 457.29 709.53 459.00 710.40 459.00 716.19 C 459.00 721.71 456.24 723.00 444.44 723.00 L 433.89 723.00 L 434.19 727.25 L 434.50 731.50 L 444.64 731.50 C 456.30 731.50 459.00 732.82 459.00 738.50 C 459.00 744.19 456.54 745.31 444.51 745.12 L 434.00 744.95 L 434.00 748.97 L 434.00 753.00 L 469.56 753.00 L 505.12 753.00 L 504.81 749.25 Z M 591.00 749.61 C 591.00 745.31 590.15 745.00 578.47 745.00 C 569.93 745.00 568.98 744.81 567.56 742.78 C 566.70 741.56 566.00 739.37 566.00 737.93 C 566.00 733.36 568.50 732.22 580.25 731.44 L 591.00 730.73 L 591.00 726.86 L 591.00 723.00 L 580.81 723.00 C 571.73 723.00 570.38 722.76 568.31 720.83 C 565.16 717.86 565.29 713.70 568.63 711.07 C 570.90 709.29 572.67 709.00 581.19 709.00 L 591.11 709.00 L 590.81 704.75 L 590.50 700.50 L 580.36 700.50 C 568.93 700.50 566.00 699.14 566.00 693.85 C 566.00 688.29 568.74 687.00 580.50 687.00 L 591.00 687.00 L 591.00 682.50 L 591.00 678.00 L 580.50 678.00 C 568.74 678.00 566.00 676.71 566.00 671.15 C 566.00 665.94 568.92 664.54 580.60 664.16 L 591.00 663.82 L 591.00 659.91 L 591.00 656.00 L 581.13 656.00 C 572.67 656.00 570.90 655.71 568.63 653.93 C 565.41 651.39 565.12 646.88 568.00 644.00 C 569.75 642.25 571.33 642.00 580.50 642.00 L 591.00 642.00 L 591.00 638.11 L 591.00 634.23 L 580.58 633.84 C 572.14 633.53 569.77 633.10 568.08 631.57 C 565.54 629.28 565.39 624.95 567.75 622.12 C 569.29 620.27 570.74 619.99 580.00 619.76 L 590.50 619.50 L 590.81 615.25 L 591.11 611.00 L 580.78 611.00 C 568.69 611.00 565.99 609.85 566.02 604.69 C 566.05 598.44 568.93 597.00 581.43 597.00 L 591.00 597.00 L 591.00 593.11 L 591.00 589.23 L 580.58 588.84 C 568.66 588.40 566.00 587.06 566.00 581.50 C 566.00 576.17 568.21 575.11 580.04 574.79 L 590.50 574.50 L 590.81 570.25 L 591.11 566.00 L 580.78 566.00 C 568.69 566.00 565.99 564.85 566.02 559.69 C 566.02 557.94 566.37 555.97 566.79 555.31 C 568.21 553.07 573.15 552.00 582.12 552.00 L 591.11 552.00 L 590.81 547.75 L 590.50 543.50 L 571.75 543.23 L 553.00 542.96 L 552.98 567.73 C 552.95 595.27 552.67 596.75 545.90 604.46 C 541.30 609.70 537.63 611.00 527.47 611.00 L 518.89 611.00 L 519.19 615.25 L 519.50 619.50 L 530.20 619.78 C 540.38 620.05 541.01 620.19 542.95 622.67 C 544.08 624.10 545.00 625.82 545.00 626.50 C 545.00 627.18 544.08 628.90 542.95 630.33 C 541.01 632.81 540.38 632.95 530.20 633.22 L 519.50 633.50 L 519.19 637.75 L 518.89 642.00 L 529.44 642.00 C 541.34 642.00 544.00 643.28 544.00 649.00 C 544.00 654.71 541.34 656.00 529.50 656.00 L 519.00 656.00 L 519.00 660.00 L 519.00 664.00 L 527.85 664.00 C 538.19 664.00 542.30 665.17 543.84 668.54 C 545.04 671.18 544.54 673.51 542.19 676.25 C 540.93 677.72 538.93 678.00 529.79 678.00 L 518.89 678.00 L 519.19 682.25 L 519.50 686.50 L 530.40 687.00 C 540.79 687.48 541.38 687.62 543.29 690.19 C 545.04 692.53 545.14 693.26 544.06 695.85 C 542.31 700.09 538.59 701.27 528.29 700.85 L 519.50 700.50 L 519.19 704.75 L 518.89 709.00 L 528.86 709.00 C 534.35 709.00 539.56 709.28 540.46 709.62 C 542.70 710.48 545.12 715.50 544.34 717.69 C 542.65 722.45 541.19 723.00 530.40 723.00 C 524.21 723.00 519.86 723.42 519.46 724.06 C 519.10 724.65 519.09 726.68 519.45 728.56 L 520.09 732.00 L 530.30 732.02 C 541.24 732.03 542.05 732.26 543.93 735.84 C 545.57 738.95 543.81 743.31 540.26 744.93 C 538.77 745.61 533.99 746.03 529.08 745.92 C 524.36 745.82 520.39 746.02 520.25 746.37 C 520.11 746.72 520.00 748.35 520.00 750.00 L 520.00 753.00 L 555.50 753.00 L 591.00 753.00 L 591.00 749.61 Z M 676.00 748.98 L 676.00 744.96 L 665.86 745.17 C 655.93 745.37 655.67 745.32 653.36 742.63 C 650.70 739.54 650.44 737.33 652.42 734.71 C 654.35 732.16 659.32 731.00 668.24 731.00 L 676.00 731.00 L 676.00 727.00 L 676.00 723.00 L 666.43 723.00 C 655.99 723.00 653.40 722.17 651.96 718.38 C 650.87 715.52 652.86 710.65 655.54 709.62 C 656.44 709.28 661.40 709.00 666.58 709.00 L 676.00 709.00 L 676.00 705.00 L 676.00 701.00 L 667.57 701.00 C 658.58 701.00 654.46 699.97 652.36 697.21 C 650.50 694.76 650.70 692.65 653.07 689.63 C 655.07 687.09 655.50 687.00 665.57 687.00 L 676.00 687.00 L 676.00 682.50 L 676.00 678.00 L 665.65 678.00 C 654.03 678.00 651.67 676.81 651.67 670.94 C 651.67 665.60 653.83 664.54 665.53 664.16 L 676.00 663.82 L 676.00 659.91 L 676.00 656.00 L 666.11 656.00 C 654.51 656.00 651.67 654.62 651.67 649.00 C 651.67 643.38 654.51 642.00 666.11 642.00 L 676.00 642.00 L 676.00 638.11 L 676.00 634.23 L 665.39 633.83 C 655.73 633.48 654.61 633.23 652.89 631.11 C 650.45 628.11 650.50 625.90 653.07 622.63 C 655.07 620.09 655.50 620.00 665.57 620.00 L 676.00 620.00 L 676.00 615.50 L 676.00 611.00 L 665.57 611.00 C 655.50 611.00 655.07 610.91 653.07 608.37 C 650.35 604.90 650.46 602.45 653.45 599.45 C 655.73 597.17 656.62 597.00 665.95 597.00 L 676.00 597.00 L 676.00 592.50 L 676.00 588.00 L 665.03 588.00 L 654.05 588.00 L 652.47 584.95 C 650.80 581.71 651.18 578.97 653.64 576.51 C 654.79 575.36 657.62 575.00 665.57 575.00 L 676.00 575.00 L 676.00 570.50 L 676.00 566.00 L 665.57 566.00 C 655.50 566.00 655.07 565.91 653.07 563.37 C 650.50 560.09 650.46 557.90 652.91 554.86 C 654.66 552.70 655.70 552.47 665.41 552.16 L 676.00 551.82 L 676.00 547.41 L 676.00 543.00 L 640.50 543.00 L 605.00 543.00 L 605.00 547.50 L 605.00 552.00 L 614.87 552.00 C 623.33 552.00 625.10 552.29 627.37 554.07 C 630.62 556.63 630.81 560.51 627.83 563.69 C 625.82 565.82 624.83 566.00 615.27 566.00 L 604.89 566.00 L 605.19 570.25 L 605.50 574.50 L 616.00 574.76 C 625.26 574.99 626.71 575.27 628.25 577.12 C 630.37 579.66 630.50 582.94 628.58 585.56 C 627.38 587.21 625.56 587.57 616.33 588.00 L 605.50 588.50 L 605.19 592.75 L 604.89 597.00 L 614.99 597.00 C 624.38 597.00 625.26 597.17 627.55 599.45 C 630.54 602.45 630.65 604.90 627.93 608.37 C 625.93 610.91 625.50 611.00 615.43 611.00 L 605.00 611.00 L 605.00 615.50 L 605.00 620.00 L 615.50 620.00 C 624.67 620.00 626.25 620.25 628.00 622.00 C 630.37 624.37 630.57 627.74 628.52 630.67 C 627.23 632.51 625.64 632.87 616.02 633.50 L 605.00 634.22 L 605.00 638.11 L 605.00 642.00 L 615.50 642.00 C 624.67 642.00 626.25 642.25 628.00 644.00 C 630.52 646.52 630.56 650.09 628.09 653.14 C 626.34 655.30 625.30 655.53 615.59 655.84 L 605.00 656.18 L 605.00 660.00 L 605.00 663.82 L 615.59 664.16 C 625.30 664.47 626.34 664.70 628.09 666.86 C 630.54 669.90 630.50 672.09 627.93 675.37 C 625.93 677.91 625.50 678.00 615.43 678.00 L 605.00 678.00 L 605.00 682.50 L 605.00 687.00 L 615.50 687.00 C 624.67 687.00 626.25 687.25 628.00 689.00 C 630.51 691.51 630.56 695.09 628.11 698.11 C 626.39 700.23 625.27 700.48 615.61 700.83 L 605.00 701.23 L 605.00 705.11 L 605.00 709.00 L 615.05 709.00 C 624.38 709.00 625.27 709.17 627.55 711.45 C 630.54 714.45 630.65 716.90 627.93 720.37 C 625.92 722.91 625.51 723.00 615.37 723.00 L 604.89 723.00 L 605.19 727.19 L 605.50 731.38 L 615.84 731.44 C 625.46 731.50 626.31 731.66 628.09 733.86 C 630.62 736.99 630.50 739.31 627.61 742.66 C 625.28 745.38 625.02 745.43 615.11 745.26 L 605.00 745.08 L 605.00 749.04 L 605.00 753.00 L 640.50 753.00 L 676.00 753.00 L 676.00 748.98 Z M 758.81 749.25 L 758.50 745.50 L 749.67 745.50 C 741.59 745.50 740.67 745.30 738.92 743.14 C 736.56 740.24 736.45 736.27 738.65 733.83 C 740.02 732.32 741.86 732.00 749.15 732.00 L 758.00 732.00 L 758.00 727.50 L 758.00 723.00 L 749.50 723.00 C 739.87 723.00 737.00 721.41 737.00 716.07 C 737.00 710.97 740.80 709.00 750.63 709.00 L 759.00 709.00 L 759.00 705.10 L 759.00 701.20 L 749.91 700.85 C 741.79 700.54 740.62 700.25 738.91 698.14 C 736.44 695.09 736.48 691.52 739.00 689.00 C 740.68 687.32 742.33 687.00 749.39 687.00 L 757.79 687.00 L 758.18 682.95 C 758.39 680.72 758.36 678.69 758.11 678.45 C 757.87 678.20 753.92 678.00 749.33 678.00 C 742.33 678.00 740.68 677.68 739.00 676.00 C 736.48 673.48 736.44 669.91 738.91 666.86 C 740.60 664.77 741.82 664.46 749.41 664.15 C 756.57 663.85 758.00 663.52 758.01 662.15 C 758.02 661.24 758.30 659.49 758.63 658.25 C 759.22 656.05 759.06 656.00 750.75 656.00 C 743.68 656.00 741.83 655.65 739.63 653.93 C 736.38 651.37 736.19 647.49 739.17 644.31 C 741.22 642.14 742.09 642.00 753.62 642.00 C 760.36 642.00 766.09 641.66 766.34 641.25 C 766.59 640.84 765.35 638.84 763.59 636.81 L 760.38 633.11 L 750.57 633.27 C 741.42 633.42 740.64 633.27 738.88 631.10 C 736.53 628.20 736.48 624.85 738.75 622.13 C 740.25 620.33 741.78 619.99 749.50 619.77 L 758.50 619.50 L 758.42 615.50 L 758.34 611.50 L 749.21 611.00 C 739.20 610.45 737.10 609.21 737.03 603.82 C 736.98 599.09 741.00 597.00 750.13 597.00 L 758.00 597.00 L 758.00 592.50 L 758.00 588.00 L 749.06 588.00 C 740.95 588.00 739.97 587.79 738.56 585.78 C 737.70 584.56 737.00 582.63 737.00 581.50 C 737.00 580.37 737.70 578.44 738.56 577.22 C 739.97 575.21 740.95 575.00 749.06 575.00 L 758.00 575.00 L 758.00 570.50 L 758.00 566.00 L 750.13 566.00 C 740.89 566.00 737.00 563.93 737.00 559.00 C 737.00 553.98 740.85 552.00 750.63 552.00 C 758.95 552.00 759.00 551.98 759.00 549.43 C 759.00 548.02 758.53 546.00 757.96 544.93 C 756.97 543.08 755.53 543.00 723.46 543.00 L 690.00 543.00 L 690.00 547.50 L 690.00 552.00 L 700.55 552.00 C 710.41 552.00 711.25 552.16 713.55 554.45 C 716.58 557.49 716.67 560.65 713.83 563.69 C 711.81 565.83 710.85 566.00 700.77 566.00 L 689.89 566.00 L 690.19 570.25 L 690.50 574.50 L 701.50 574.76 C 711.27 574.99 712.70 575.26 714.25 577.12 C 716.53 579.85 716.47 583.20 714.10 586.12 C 712.36 588.27 711.31 588.49 701.10 588.84 L 690.00 589.22 L 690.00 593.02 L 690.00 596.82 L 701.09 597.16 C 711.33 597.47 712.33 597.68 714.09 599.86 C 716.37 602.68 716.49 605.77 714.43 608.50 C 713.12 610.23 711.41 610.57 701.71 611.00 L 690.50 611.50 L 690.50 615.50 L 690.50 619.50 L 701.83 620.00 C 711.56 620.43 713.37 620.78 714.58 622.44 C 716.53 625.12 716.36 628.34 714.10 631.12 C 712.36 633.27 711.31 633.49 701.10 633.84 L 690.00 634.22 L 690.00 638.11 L 690.00 642.00 L 700.69 642.00 C 710.28 642.00 711.61 642.22 713.69 644.17 C 716.68 646.99 716.63 650.46 713.55 653.55 C 711.25 655.84 710.41 656.00 700.55 656.00 L 690.00 656.00 L 690.00 659.91 L 690.00 663.82 L 701.09 664.16 C 711.33 664.47 712.33 664.68 714.09 666.86 C 716.56 669.91 716.51 673.07 713.96 675.81 C 712.10 677.81 710.95 678.00 700.90 678.00 L 689.89 678.00 L 690.19 682.25 L 690.50 686.50 L 701.83 687.00 C 711.56 687.43 713.37 687.78 714.58 689.44 C 716.70 692.34 716.30 695.79 713.55 698.55 C 711.25 700.84 710.41 701.00 700.55 701.00 L 690.00 701.00 L 690.00 705.00 L 690.00 709.00 L 700.55 709.00 C 710.41 709.00 711.25 709.16 713.55 711.45 C 714.90 712.80 716.00 714.85 716.00 716.00 C 716.00 717.15 714.90 719.20 713.55 720.55 C 711.25 722.84 710.41 723.00 700.55 723.00 L 690.00 723.00 L 690.00 726.89 L 690.00 730.78 L 701.10 731.16 C 711.45 731.51 712.34 731.71 714.19 733.98 C 715.61 735.75 716.00 737.27 715.56 739.45 C 714.52 744.64 713.23 745.18 701.37 745.35 C 690.81 745.50 690.49 745.57 690.17 747.82 C 689.41 753.16 688.31 753.00 725.03 753.00 L 759.12 753.00 L 758.81 749.25 Z M 799.08 631.46 C 800.60 630.67 802.89 628.56 804.17 626.77 L 806.50 623.50 L 806.50 576.32 C 806.50 530.02 806.46 529.09 804.41 526.32 C 803.26 524.77 800.83 522.49 799.01 521.25 L 795.70 519.00 L 674.35 519.00 L 553.00 519.00 L 553.00 524.00 L 553.00 529.00 L 655.25 529.08 C 731.14 529.13 758.34 529.46 760.75 530.33 C 764.68 531.76 769.84 536.45 771.09 539.73 C 771.59 541.05 772.01 559.76 772.02 581.32 C 772.04 617.04 772.20 620.85 773.86 624.50 C 776.01 629.22 777.68 630.75 782.74 632.62 C 787.05 634.22 794.82 633.66 799.08 631.46 Z M 245.10 630.73 C 251.98 626.14 252.00 626.01 252.00 582.32 C 252.00 556.99 252.38 542.13 253.07 540.32 C 254.58 536.31 257.87 533.03 262.50 530.89 C 266.31 529.13 271.48 529.04 368.75 529.02 L 471.00 529.00 L 471.00 524.00 L 471.00 519.00 L 349.75 519.00 C 230.53 519.01 228.45 519.04 225.24 520.99 C 223.45 522.09 221.09 524.45 219.99 526.24 C 218.09 529.37 218.01 531.36 218.00 576.35 C 218.00 627.96 217.79 626.12 224.30 630.75 C 228.87 634.00 240.23 633.98 245.10 630.73 Z M 536.59 593.69 L 539.00 590.89 L 539.00 554.94 L 539.00 519.00 L 511.95 519.00 L 484.91 519.00 L 485.20 554.90 C 485.49 589.16 485.59 590.89 487.50 593.01 C 488.60 594.24 490.40 595.62 491.50 596.08 C 492.60 596.55 502.65 596.83 513.84 596.72 L 534.18 596.50 L 536.59 593.69 Z M 799.66 501.90 C 801.77 500.60 804.00 498.01 805.10 495.60 C 806.82 491.80 806.96 488.21 806.98 446.46 C 807.00 401.70 806.99 401.40 804.75 397.04 C 801.80 391.29 797.44 389.00 789.41 389.00 C 782.69 389.00 778.48 391.08 774.59 396.32 C 772.57 399.05 772.48 400.49 772.00 441.50 C 771.43 489.52 771.85 487.22 762.98 491.75 L 758.58 494.00 L 656.29 494.00 L 554.00 494.00 L 554.00 498.98 L 554.00 503.97 L 580.25 504.23 C 594.69 504.38 649.15 504.41 701.29 504.31 L 796.08 504.12 L 799.66 501.90 Z M 471.00 499.00 L 471.00 494.00 L 368.32 494.00 C 266.27 494.00 265.60 493.99 261.32 491.91 C 258.95 490.77 256.00 488.40 254.76 486.66 C 252.52 483.53 252.50 483.13 252.00 440.82 C 251.52 399.89 251.42 398.03 249.47 395.42 C 246.29 391.17 241.31 389.00 234.72 389.00 C 225.92 389.00 220.06 392.94 218.34 400.00 C 217.87 401.92 217.72 424.35 218.00 449.82 L 218.50 496.15 L 222.71 500.07 L 226.92 504.00 L 348.96 504.00 L 471.00 504.00 L 471.00 499.00 Z M 539.44 491.25 C 539.11 484.24 538.36 477.51 537.78 476.30 C 535.62 471.83 531.59 471.00 512.16 471.00 C 502.25 471.00 492.98 471.44 491.57 471.98 C 486.42 473.93 485.01 478.20 485.00 491.75 L 485.00 504.00 L 512.52 504.00 L 540.03 504.00 L 539.44 491.25 Z M 334.00 475.50 L 334.00 471.00 L 323.06 471.00 C 312.88 471.00 312.00 470.84 310.56 468.78 C 308.47 465.80 308.60 463.78 311.07 460.63 C 313.07 458.09 313.50 458.00 323.57 458.00 L 334.00 458.00 L 334.00 453.50 L 334.00 449.00 L 323.57 449.00 C 313.48 449.00 313.08 448.92 311.06 446.34 C 308.74 443.40 309.05 440.71 312.07 437.56 C 313.69 435.87 315.18 435.65 323.96 435.83 L 334.00 436.04 L 334.00 431.52 L 334.00 427.00 L 323.95 427.00 C 314.62 427.00 313.73 426.83 311.45 424.55 C 308.34 421.43 308.34 418.57 311.45 415.45 C 313.73 413.17 314.62 413.00 323.95 413.00 L 334.00 413.00 L 334.00 408.50 L 334.00 404.00 L 323.57 404.00 C 313.50 404.00 313.07 403.91 311.07 401.37 C 309.93 399.92 309.00 398.18 309.00 397.50 C 309.00 396.82 309.93 395.08 311.07 393.63 C 313.07 391.09 313.50 391.00 323.57 391.00 L 334.00 391.00 L 334.00 386.50 L 334.00 382.00 L 323.57 382.00 C 313.43 382.00 313.09 381.93 311.02 379.29 C 309.53 377.40 309.07 375.82 309.51 374.04 C 310.69 369.21 312.33 368.52 323.53 368.16 L 334.00 367.82 L 334.00 364.00 L 334.00 360.18 L 323.53 359.84 C 312.25 359.47 310.70 358.80 309.47 353.80 C 308.96 351.70 309.37 350.53 311.36 348.55 C 313.75 346.16 314.52 346.00 323.95 346.00 L 334.00 346.00 L 334.00 342.02 C 334.00 337.30 333.57 337.12 321.10 336.75 C 313.34 336.52 312.56 336.30 310.75 333.87 C 308.65 331.06 308.96 328.19 311.64 325.51 C 312.79 324.36 315.62 324.00 323.57 324.00 L 334.00 324.00 L 334.00 319.53 L 334.00 315.07 L 323.36 314.78 C 313.06 314.51 312.64 314.41 310.67 311.76 C 308.73 309.16 308.71 308.84 310.23 305.65 C 312.12 301.68 314.46 301.00 326.12 301.00 L 334.00 301.00 L 334.00 297.11 L 334.00 293.23 L 323.51 292.84 C 312.23 292.42 310.68 291.76 309.47 286.80 C 308.96 284.70 309.37 283.53 311.36 281.55 C 313.75 279.16 314.52 279.00 323.95 279.00 L 334.00 279.00 L 334.00 275.14 C 334.00 271.30 333.97 271.27 329.36 270.64 C 326.81 270.29 322.08 270.00 318.86 270.00 C 314.33 270.00 312.54 269.54 311.00 268.00 C 308.48 265.48 308.44 261.91 310.91 258.86 C 312.70 256.65 313.49 256.50 323.41 256.50 L 334.00 256.50 L 334.00 250.75 L 334.00 245.00 L 297.89 245.00 C 263.89 245.00 261.83 245.10 262.53 246.75 C 262.94 247.71 263.84 250.07 264.54 252.00 L 265.81 255.50 L 275.01 256.02 C 283.11 256.48 284.43 256.82 286.10 258.88 C 288.52 261.87 288.52 265.14 286.09 268.14 C 284.32 270.32 283.49 270.49 275.09 270.40 L 266.00 270.30 L 266.00 274.65 L 266.00 279.00 L 274.55 279.00 C 282.29 279.00 283.32 279.23 285.55 281.45 C 286.90 282.80 288.00 284.85 288.00 286.00 C 288.00 287.15 286.90 289.20 285.55 290.55 C 283.32 292.77 282.29 293.00 274.55 293.00 L 266.00 293.00 L 266.00 297.00 L 266.00 301.00 L 274.37 301.00 C 284.20 301.00 288.00 302.97 288.00 308.07 C 288.00 313.49 285.17 315.00 275.00 315.00 L 266.00 315.00 L 266.00 319.50 L 266.00 324.00 L 274.96 324.00 C 282.89 324.00 284.16 324.25 285.96 326.19 C 288.52 328.93 288.56 332.09 286.09 335.14 C 284.31 337.32 283.50 337.49 275.09 337.39 L 266.00 337.27 L 266.00 341.64 L 266.00 346.00 L 274.55 346.00 C 282.29 346.00 283.32 346.23 285.55 348.45 C 288.54 351.45 288.65 353.90 285.93 357.37 C 283.96 359.86 283.38 360.00 274.93 360.00 C 266.15 360.00 266.00 360.04 266.00 362.42 C 266.00 363.75 265.74 365.50 265.43 366.32 C 264.96 367.55 266.46 367.86 274.33 368.15 C 281.91 368.43 284.21 368.88 285.90 370.40 C 288.57 372.82 288.61 377.39 286.00 380.00 C 284.21 381.79 282.67 382.00 271.04 382.00 L 258.08 382.00 L 260.79 386.47 L 263.50 390.94 L 273.75 390.97 C 282.64 391.00 284.27 391.27 286.00 393.00 C 288.73 395.73 288.51 399.58 285.44 402.65 C 283.04 405.06 282.38 405.19 274.69 404.86 L 266.50 404.50 L 266.19 408.75 L 265.89 413.00 L 274.31 413.00 C 281.31 413.00 283.17 413.35 285.37 415.07 C 288.62 417.63 288.81 421.51 285.83 424.69 C 283.87 426.77 282.76 427.00 274.83 427.00 L 266.00 427.00 L 266.00 430.88 C 266.00 435.53 267.01 435.97 277.69 435.99 C 283.98 436.00 285.08 436.28 286.44 438.22 C 287.30 439.44 288.00 441.37 288.00 442.50 C 288.00 443.63 287.30 445.56 286.44 446.78 C 285.02 448.81 284.07 449.00 275.44 449.00 L 266.00 449.00 L 266.00 453.50 L 266.00 458.00 L 275.44 458.00 C 284.07 458.00 285.02 458.19 286.44 460.22 C 288.47 463.11 288.42 466.87 286.35 469.17 C 284.97 470.69 283.13 471.00 275.35 471.00 L 266.00 471.00 L 266.00 474.92 C 266.00 477.11 266.55 479.05 267.25 479.34 C 267.94 479.62 283.24 479.88 301.25 479.92 L 334.00 480.00 L 334.00 475.50 Z M 419.81 475.25 L 420.11 471.00 L 409.39 471.00 C 397.32 471.00 395.00 469.98 395.00 464.67 C 395.00 458.95 397.02 458.00 409.21 458.00 L 420.11 458.00 L 419.81 453.75 L 419.50 449.50 L 408.67 449.00 C 396.82 448.45 395.00 447.52 395.00 441.96 C 395.00 436.96 398.05 435.54 409.60 435.16 L 420.00 434.82 L 420.00 430.91 L 420.00 427.00 L 409.50 427.00 C 397.66 427.00 395.00 425.71 395.00 420.00 C 395.00 414.29 397.66 413.00 409.50 413.00 L 420.00 413.00 L 420.00 408.50 L 420.00 404.00 L 409.06 404.00 C 398.88 404.00 398.00 403.84 396.56 401.78 C 394.43 398.75 394.60 395.40 397.00 393.00 C 398.75 391.25 400.33 391.00 409.50 391.00 L 420.00 391.00 L 420.00 386.50 L 420.00 382.00 L 409.50 382.00 C 400.33 382.00 398.75 381.75 397.00 380.00 C 394.12 377.12 394.41 372.61 397.63 370.07 C 399.90 368.29 401.67 368.00 410.13 368.00 L 420.00 368.00 L 420.00 364.00 L 420.00 360.00 L 410.13 360.00 C 401.67 360.00 399.90 359.71 397.63 357.93 C 394.41 355.39 394.12 350.88 397.00 348.00 C 398.75 346.25 400.33 346.00 409.56 346.00 L 420.11 346.00 L 419.81 341.75 L 419.50 337.50 L 409.00 337.24 C 399.74 337.01 398.29 336.73 396.75 334.88 C 394.43 332.10 394.53 328.47 397.00 326.00 C 398.75 324.25 400.33 324.00 409.50 324.00 L 420.00 324.00 L 420.00 319.50 L 420.00 315.00 L 409.50 315.00 C 400.33 315.00 398.75 314.75 397.00 313.00 C 394.12 310.12 394.41 305.61 397.63 303.07 C 399.90 301.29 401.67 301.00 410.13 301.00 L 420.00 301.00 L 420.00 297.00 L 420.00 293.00 L 410.13 293.00 C 401.67 293.00 399.90 292.71 397.63 290.93 C 394.41 288.39 394.12 283.88 397.00 281.00 C 398.75 279.25 400.33 279.00 409.56 279.00 L 420.11 279.00 L 419.81 274.75 L 419.50 270.50 L 409.00 270.24 C 399.74 270.01 398.29 269.73 396.75 267.88 C 394.49 265.17 394.51 260.75 396.79 258.69 C 398.14 257.47 401.10 257.01 409.04 256.79 L 419.50 256.50 L 419.80 250.75 L 420.10 245.00 L 384.00 245.00 L 347.90 245.00 L 348.20 250.56 L 348.50 256.11 L 358.72 256.31 C 367.71 256.48 369.21 256.76 371.10 258.65 C 373.71 261.27 373.88 265.38 371.47 268.03 C 369.92 269.75 368.36 270.00 359.45 270.00 L 349.20 270.00 L 348.84 274.50 L 348.49 279.00 L 358.52 279.00 C 370.42 279.00 373.00 280.16 373.00 285.52 C 373.00 291.59 370.28 293.00 358.51 293.00 L 348.40 293.00 L 348.45 297.00 L 348.50 300.99 L 357.18 301.00 C 365.88 301.00 370.80 302.09 372.21 304.31 C 372.63 304.97 372.98 306.94 372.98 308.69 C 373.01 313.78 370.27 315.00 358.78 315.00 L 349.00 315.00 L 349.00 319.50 L 349.00 324.00 L 359.17 324.00 C 370.64 324.00 373.00 325.08 373.00 330.33 C 373.00 335.99 370.93 337.00 359.35 337.00 L 349.00 337.00 L 349.00 341.50 L 349.00 346.00 L 359.00 346.00 C 367.67 346.00 369.27 346.27 371.00 348.00 C 373.88 350.88 373.59 355.39 370.37 357.93 C 368.13 359.69 366.33 360.00 358.37 360.00 L 349.00 360.00 L 349.00 364.00 L 349.00 368.00 L 357.35 368.00 C 361.94 368.00 367.09 368.48 368.78 369.07 C 374.06 370.91 374.90 378.38 370.12 380.93 C 369.03 381.52 363.88 382.00 358.68 382.00 L 349.22 382.00 L 348.75 385.75 C 348.49 387.81 348.47 389.84 348.70 390.25 C 348.93 390.66 353.67 391.00 359.23 391.00 C 370.74 391.00 373.00 392.07 373.00 397.50 C 373.00 403.20 370.40 404.44 358.95 404.16 L 349.00 403.92 L 349.00 408.46 L 349.00 413.00 L 358.78 413.00 C 370.30 413.00 373.00 414.21 373.00 419.37 C 373.00 425.57 371.41 426.46 359.58 426.84 L 349.00 427.18 L 349.01 431.34 L 349.01 435.50 L 359.16 435.74 C 370.59 436.00 373.00 437.15 373.00 442.33 C 373.00 447.99 370.93 449.00 359.35 449.00 L 349.00 449.00 L 349.00 453.50 L 349.00 458.00 L 359.17 458.00 C 370.64 458.00 373.00 459.08 373.00 464.33 C 373.00 469.99 370.93 471.00 359.35 471.00 L 349.00 471.00 L 349.00 475.51 L 349.00 480.03 L 384.25 479.76 L 419.50 479.50 L 419.81 475.25 Z M 472.62 474.25 C 473.91 470.14 475.72 467.20 478.99 463.92 C 484.17 458.73 489.16 457.00 498.94 457.00 L 505.00 457.00 L 505.00 453.03 L 505.00 449.07 L 494.36 448.78 C 484.12 448.51 483.63 448.40 481.71 445.81 C 479.96 443.47 479.86 442.75 480.95 440.13 C 482.57 436.20 486.24 435.00 496.65 435.00 L 505.00 435.00 L 505.00 431.00 L 505.00 427.00 L 494.95 427.00 C 485.62 427.00 484.73 426.83 482.45 424.55 C 479.46 421.55 479.35 419.10 482.07 415.63 C 484.07 413.09 484.50 413.00 494.57 413.00 L 505.00 413.00 L 505.00 408.50 L 505.00 404.00 L 494.57 404.00 C 484.50 404.00 484.07 403.91 482.07 401.37 C 480.93 399.92 480.00 398.18 480.00 397.50 C 480.00 396.82 480.93 395.08 482.07 393.63 C 484.07 391.09 484.50 391.00 494.57 391.00 L 505.00 391.00 L 505.00 386.50 L 505.00 382.00 L 494.57 382.00 C 484.50 382.00 484.07 381.91 482.07 379.37 C 479.35 375.90 479.46 373.45 482.45 370.45 C 484.73 368.17 485.62 368.00 494.95 368.00 L 505.00 368.00 L 505.00 364.00 L 505.00 360.00 L 494.95 360.00 C 485.62 360.00 484.73 359.83 482.45 357.55 C 479.46 354.55 479.35 352.10 482.07 348.63 C 484.07 346.09 484.50 346.00 494.57 346.00 L 505.00 346.00 L 505.00 341.50 L 505.00 337.00 L 494.75 336.98 C 489.11 336.98 484.00 336.64 483.40 336.23 C 481.44 334.93 479.87 330.98 480.51 328.97 C 481.89 324.62 483.64 324.00 494.57 324.00 L 505.00 324.00 L 505.00 319.50 L 505.00 315.00 L 494.57 315.00 C 484.43 315.00 484.09 314.93 482.02 312.29 C 480.53 310.40 480.07 308.82 480.51 307.04 C 481.69 302.21 483.33 301.52 494.53 301.16 L 505.00 300.82 L 505.00 296.91 L 505.00 293.00 L 495.58 293.00 C 490.40 293.00 485.44 292.72 484.54 292.38 C 481.86 291.35 479.87 286.48 480.96 283.62 C 482.40 279.83 484.99 279.00 495.43 279.00 L 505.00 279.00 L 505.00 274.50 L 505.00 270.00 L 494.75 269.98 C 483.76 269.97 482.96 269.74 481.07 266.16 C 479.30 262.80 481.30 258.44 485.24 257.06 C 486.92 256.48 492.06 256.00 496.65 256.00 L 505.00 256.00 L 505.00 250.50 L 505.00 245.00 L 469.50 245.00 L 434.00 245.00 L 434.00 250.50 L 434.00 256.00 L 443.87 256.00 C 452.33 256.00 454.10 256.29 456.37 258.07 C 459.40 260.46 459.83 264.37 457.44 267.78 C 456.00 269.84 455.12 270.00 444.94 270.00 L 434.00 270.00 L 434.00 274.50 L 434.00 279.00 L 444.19 279.00 C 453.27 279.00 454.62 279.24 456.69 281.17 C 459.56 283.87 459.70 288.30 457.00 291.00 C 455.25 292.75 453.67 293.00 444.50 293.00 L 434.00 293.00 L 434.00 297.00 L 434.00 301.00 L 443.87 301.00 C 452.33 301.00 454.10 301.29 456.37 303.07 C 459.59 305.61 459.88 310.12 457.00 313.00 C 455.25 314.75 453.67 315.00 444.50 315.00 L 434.00 315.00 L 434.00 319.50 L 434.00 324.00 L 444.94 324.00 C 455.12 324.00 456.00 324.16 457.44 326.22 C 458.30 327.44 459.00 329.37 459.00 330.50 C 459.00 331.63 458.30 333.56 457.44 334.78 C 456.00 336.84 455.12 337.00 444.94 337.00 L 434.00 337.00 L 434.00 341.50 L 434.00 346.00 L 444.50 346.00 C 453.67 346.00 455.25 346.25 457.00 348.00 C 459.88 350.88 459.59 355.39 456.37 357.93 C 454.10 359.71 452.33 360.00 443.87 360.00 L 434.00 360.00 L 434.00 364.00 L 434.00 368.00 L 443.87 368.00 C 452.33 368.00 454.10 368.29 456.37 370.07 C 459.59 372.61 459.88 377.12 457.00 380.00 C 455.25 381.75 453.67 382.00 444.50 382.00 L 434.00 382.00 L 434.00 386.50 L 434.00 391.00 L 444.67 391.00 C 456.68 391.00 459.00 392.03 459.00 397.33 C 459.00 403.05 456.97 404.00 444.85 404.00 L 434.00 404.00 L 434.00 408.50 L 434.00 413.00 L 444.50 413.00 C 456.34 413.00 459.00 414.29 459.00 420.00 C 459.00 425.71 456.34 427.00 444.50 427.00 L 434.00 427.00 L 434.00 430.89 L 434.00 434.77 L 444.42 435.16 C 456.23 435.60 459.00 436.96 459.00 442.33 C 459.00 448.05 456.97 449.00 444.85 449.00 L 434.00 449.00 L 434.00 453.50 L 434.00 458.00 L 444.94 458.00 C 455.12 458.00 456.00 458.16 457.44 460.22 C 458.30 461.44 459.00 463.37 459.00 464.50 C 459.00 465.63 458.30 467.56 457.44 468.78 C 456.00 470.84 455.12 471.00 444.94 471.00 L 434.00 471.00 L 434.00 475.50 L 434.00 480.00 L 452.41 480.00 L 470.81 480.00 L 472.62 474.25 Z M 590.50 475.50 L 590.50 471.50 L 580.04 471.21 C 568.19 470.89 566.00 469.84 566.00 464.47 C 566.00 459.50 568.01 458.56 579.90 458.00 L 590.50 457.50 L 590.50 453.50 L 590.50 449.50 L 579.67 449.00 C 570.44 448.57 568.62 448.21 567.42 446.56 C 565.47 443.89 565.64 440.66 567.89 437.89 C 569.61 435.77 570.73 435.52 580.39 435.17 L 591.00 434.77 L 591.00 430.89 L 591.00 427.00 L 580.50 427.00 C 568.66 427.00 566.00 425.71 566.00 420.00 C 566.00 414.28 568.66 413.00 580.56 413.00 L 591.11 413.00 L 590.81 408.75 L 590.50 404.50 L 580.00 404.24 C 570.74 404.01 569.29 403.73 567.75 401.88 C 566.79 400.72 566.00 398.75 566.00 397.50 C 566.00 396.25 566.79 394.28 567.75 393.12 C 569.29 391.27 570.74 390.99 580.00 390.76 L 590.50 390.50 L 590.81 386.25 L 591.11 382.00 L 580.56 382.00 C 568.74 382.00 566.00 380.71 566.00 375.15 C 566.00 369.94 568.92 368.54 580.60 368.16 L 591.00 367.82 L 591.00 363.91 L 591.00 360.00 L 581.13 360.00 C 572.67 360.00 570.90 359.71 568.63 357.93 C 565.41 355.39 565.12 350.88 568.00 348.00 C 569.75 346.25 571.33 346.00 580.56 346.00 L 591.11 346.00 L 590.81 341.75 L 590.50 337.50 L 580.00 337.24 C 570.74 337.01 569.29 336.73 567.75 334.88 C 565.49 332.17 565.51 327.75 567.79 325.69 C 569.14 324.47 572.10 324.01 580.04 323.79 L 590.50 323.50 L 590.50 319.50 L 590.50 315.50 L 580.00 315.24 C 570.74 315.01 569.29 314.73 567.75 312.88 C 565.38 310.04 565.54 305.72 568.10 303.40 C 569.82 301.85 572.09 301.44 580.60 301.16 L 591.00 300.82 L 591.00 297.00 L 591.00 293.18 L 580.60 292.84 C 572.09 292.56 569.82 292.15 568.10 290.60 C 565.39 288.14 565.42 284.24 568.17 281.31 C 570.17 279.18 571.17 279.00 580.67 279.00 L 591.00 279.00 L 591.00 275.14 L 591.00 271.28 L 585.75 270.65 C 582.86 270.30 578.06 270.01 575.08 270.01 C 568.60 270.00 566.00 268.14 566.00 263.50 C 566.00 257.81 568.69 256.50 580.36 256.50 L 590.50 256.50 L 590.50 251.00 L 590.50 245.50 L 554.75 245.24 L 519.00 244.97 L 519.00 250.40 L 519.00 255.82 L 529.40 256.16 C 541.31 256.55 544.00 257.90 544.00 263.50 C 544.00 269.07 541.49 270.28 529.76 270.40 L 519.50 270.50 L 519.19 274.75 L 518.89 279.00 L 529.44 279.00 C 541.24 279.00 544.00 280.29 544.00 285.81 C 544.00 291.60 542.29 292.47 530.08 292.84 L 519.00 293.18 L 519.00 297.09 L 519.00 301.00 L 529.39 301.00 C 541.54 301.00 544.33 302.31 544.33 308.00 C 544.33 313.70 541.54 315.00 529.33 315.00 L 518.89 315.00 L 519.19 319.25 L 519.50 323.50 L 529.96 323.79 C 541.79 324.11 544.00 325.17 544.00 330.50 C 544.00 335.83 541.79 336.89 529.96 337.21 L 519.50 337.50 L 519.50 341.50 L 519.50 345.50 L 530.10 346.00 C 542.08 346.56 544.00 347.48 544.00 352.62 C 544.00 358.76 541.56 360.00 529.50 360.00 L 519.00 360.00 L 519.00 363.91 L 519.00 367.82 L 530.09 368.16 C 540.33 368.47 541.33 368.68 543.09 370.86 C 545.54 373.90 545.50 376.09 542.93 379.37 C 540.91 381.93 540.55 382.00 529.87 382.00 L 518.89 382.00 L 519.19 386.25 L 519.50 390.50 L 529.94 390.79 C 536.07 390.96 540.97 391.56 541.80 392.25 C 545.73 395.51 544.73 402.20 540.07 403.83 C 538.54 404.36 533.46 404.56 528.78 404.27 C 519.25 403.67 518.55 404.07 519.56 409.48 L 520.22 413.00 L 529.68 413.00 C 540.01 413.00 542.61 413.84 544.04 417.62 C 545.13 420.48 543.14 425.35 540.46 426.38 C 539.56 426.72 534.37 427.00 528.92 427.00 L 519.00 427.00 L 519.07 429.75 C 519.21 435.19 519.75 435.48 530.50 435.82 C 539.73 436.11 540.68 436.33 542.79 438.67 C 545.24 441.38 545.06 444.02 542.23 447.25 C 540.94 448.71 538.92 449.00 529.85 449.00 L 519.00 449.00 L 519.00 452.88 L 519.00 456.76 L 527.82 457.18 C 535.21 457.53 537.41 458.05 541.40 460.39 C 546.47 463.36 551.41 469.98 552.56 475.36 C 552.93 477.09 553.44 478.85 553.69 479.27 C 553.94 479.70 562.33 479.92 572.32 479.77 L 590.50 479.50 L 590.50 475.50 Z M 676.00 475.50 L 676.00 471.00 L 665.50 471.00 C 656.33 471.00 654.75 470.75 653.00 469.00 C 650.44 466.44 650.45 462.97 653.04 460.19 C 654.89 458.21 656.07 458.00 665.54 458.00 L 676.00 458.00 L 676.00 453.50 L 676.00 449.00 L 665.57 449.00 C 655.50 449.00 655.07 448.91 653.07 446.37 C 650.50 443.09 650.46 440.90 652.91 437.86 C 654.66 435.70 655.70 435.47 665.41 435.16 L 676.00 434.82 L 676.00 430.91 L 676.00 427.00 L 665.95 427.00 C 656.62 427.00 655.73 426.83 653.45 424.55 C 652.10 423.20 651.00 421.15 651.00 420.00 C 651.00 418.85 652.10 416.80 653.45 415.45 C 655.73 413.17 656.62 413.00 665.95 413.00 L 676.00 413.00 L 676.00 408.50 L 676.00 404.00 L 665.57 404.00 C 657.62 404.00 654.79 403.64 653.64 402.49 C 650.96 399.81 650.65 396.94 652.75 394.13 C 654.62 391.62 655.18 391.49 665.36 391.22 L 676.00 390.93 L 676.00 386.47 L 676.00 382.00 L 665.95 382.00 C 656.62 382.00 655.73 381.83 653.45 379.55 C 650.51 376.60 650.34 374.03 652.91 370.86 C 654.66 368.70 655.70 368.47 665.41 368.16 L 676.00 367.82 L 676.00 363.91 L 676.00 360.00 L 665.95 360.00 C 656.62 360.00 655.73 359.83 653.45 357.55 C 652.10 356.20 651.00 354.15 651.00 353.00 C 651.00 351.85 652.10 349.80 653.45 348.45 C 655.73 346.17 656.62 346.00 665.95 346.00 L 676.00 346.00 L 676.00 341.50 L 676.00 337.00 L 665.57 337.00 C 657.62 337.00 654.79 336.64 653.64 335.49 C 650.96 332.81 650.65 329.94 652.75 327.13 C 654.62 324.62 655.18 324.49 665.36 324.22 L 676.00 323.93 L 676.00 319.47 L 676.00 315.00 L 665.95 315.00 C 656.62 315.00 655.73 314.83 653.45 312.55 C 650.51 309.60 650.34 307.03 652.91 303.86 C 654.66 301.70 655.70 301.47 665.41 301.16 L 676.00 300.82 L 676.00 296.91 L 676.00 293.00 L 666.58 293.00 C 655.53 293.00 654.40 292.68 652.46 288.93 C 650.49 285.11 650.60 284.31 653.45 281.45 C 655.73 279.17 656.62 279.00 665.95 279.00 L 676.00 279.00 L 676.00 274.47 L 676.00 269.94 L 666.75 270.16 C 661.66 270.29 656.54 270.06 655.36 269.66 C 652.26 268.61 650.48 263.84 652.07 260.84 C 653.96 257.26 654.76 257.03 665.75 257.02 L 676.00 257.00 L 676.00 251.00 L 676.00 245.00 L 640.50 245.00 L 605.00 245.00 L 605.00 250.41 L 605.00 255.82 L 615.59 256.16 C 625.30 256.47 626.34 256.70 628.09 258.86 C 630.56 261.91 630.52 265.48 628.00 268.00 C 626.25 269.75 624.67 270.00 615.50 270.00 L 605.00 270.00 L 605.00 274.50 L 605.00 279.00 L 615.05 279.00 C 624.38 279.00 625.27 279.17 627.55 281.45 C 630.49 284.40 630.66 286.97 628.09 290.14 C 626.34 292.30 625.30 292.53 615.59 292.84 L 605.00 293.18 L 605.00 297.00 L 605.00 300.82 L 615.59 301.16 C 625.30 301.47 626.34 301.70 628.09 303.86 C 630.54 306.90 630.50 309.09 627.93 312.37 C 625.93 314.91 625.50 315.00 615.43 315.00 L 605.00 315.00 L 605.00 319.50 L 605.00 324.00 L 615.94 324.00 C 626.12 324.00 627.00 324.16 628.44 326.22 C 630.49 329.14 630.42 332.28 628.25 334.88 C 626.71 336.73 625.26 337.01 616.00 337.24 L 605.50 337.50 L 605.19 341.75 L 604.89 346.00 L 614.99 346.00 C 624.48 346.00 625.24 346.15 627.64 348.55 C 629.61 350.52 630.05 351.71 629.55 353.80 C 628.34 358.92 625.79 360.00 614.89 360.00 L 605.00 360.00 L 605.00 363.91 L 605.00 367.82 L 615.59 368.16 C 625.30 368.47 626.34 368.70 628.09 370.86 C 630.59 373.95 630.51 376.83 627.83 379.69 C 625.83 381.82 624.83 382.00 615.33 382.00 L 605.00 382.00 L 605.00 386.50 L 605.00 391.00 L 615.50 391.00 C 624.67 391.00 626.25 391.25 628.00 393.00 C 630.47 395.47 630.57 399.10 628.25 401.88 C 626.71 403.73 625.26 404.01 616.00 404.24 L 605.50 404.50 L 605.19 408.75 L 604.89 413.00 L 615.37 413.00 C 625.51 413.00 625.92 413.09 627.93 415.63 C 630.65 419.10 630.54 421.55 627.55 424.55 C 625.27 426.83 624.38 427.00 615.05 427.00 L 605.00 427.00 L 605.00 431.25 L 605.00 435.50 L 615.61 435.53 C 625.50 435.56 626.35 435.72 628.11 437.89 C 630.55 440.89 630.50 443.10 627.93 446.37 C 625.93 448.91 625.50 449.00 615.43 449.00 L 605.00 449.00 L 605.00 453.50 L 605.00 458.00 L 615.94 458.00 C 626.12 458.00 627.00 458.16 628.44 460.22 C 630.57 463.25 630.40 466.60 628.00 469.00 C 626.25 470.75 624.67 471.00 615.50 471.00 L 605.00 471.00 L 605.00 474.83 C 605.00 476.94 605.30 478.97 605.67 479.33 C 606.03 479.70 622.01 480.00 641.17 480.00 L 676.00 480.00 L 676.00 475.50 Z M 756.42 479.39 C 757.49 478.98 758.00 477.52 758.00 474.89 L 758.00 471.00 L 749.06 471.00 C 740.95 471.00 739.97 470.79 738.56 468.78 C 737.70 467.56 737.00 465.37 737.00 463.93 C 737.00 459.40 739.61 458.12 749.45 457.79 L 758.34 457.50 L 758.34 453.50 L 758.34 449.50 L 748.95 449.00 C 740.04 448.53 739.49 448.36 738.07 445.82 C 736.15 442.40 737.50 438.07 741.02 436.29 C 742.38 435.59 746.76 435.02 750.75 435.01 L 758.00 435.00 L 758.00 431.00 L 758.00 427.00 L 749.95 427.00 C 742.75 427.00 741.65 426.74 739.45 424.55 C 736.48 421.57 736.30 417.70 739.00 415.00 C 740.69 413.31 742.33 413.00 749.50 413.00 L 758.00 413.00 L 758.00 409.12 C 758.00 404.51 756.96 404.03 746.81 404.01 C 741.03 404.00 739.90 403.69 738.56 401.78 C 736.43 398.75 736.60 395.40 739.00 393.00 C 740.73 391.27 742.33 391.00 750.81 391.00 L 760.61 391.00 L 763.79 386.50 L 766.96 382.00 L 754.29 382.00 C 742.67 382.00 741.44 381.82 739.31 379.83 C 736.16 376.86 736.29 372.70 739.63 370.07 C 741.84 368.34 743.68 368.00 750.91 368.00 L 759.55 368.00 L 759.17 364.00 L 758.79 360.00 L 750.53 360.00 C 740.81 360.00 737.00 358.01 737.00 352.93 C 737.00 347.61 739.88 346.00 749.39 346.00 L 757.79 346.00 L 758.18 341.95 C 758.39 339.72 758.36 337.69 758.11 337.45 C 757.87 337.20 753.72 337.00 748.89 337.00 C 740.95 337.00 739.96 336.79 738.56 334.78 C 736.51 331.86 736.58 328.72 738.75 326.13 C 740.25 324.33 741.78 323.99 749.50 323.77 L 758.50 323.50 L 758.81 319.25 L 759.11 315.00 L 750.06 315.00 C 739.86 315.00 737.00 313.50 737.00 308.15 C 737.00 303.17 740.04 301.55 750.10 301.15 L 759.00 300.80 L 759.00 296.90 L 759.00 293.00 L 750.45 293.00 C 742.71 293.00 741.68 292.77 739.45 290.55 C 736.42 287.51 736.33 284.35 739.17 281.31 C 741.13 279.23 742.24 279.00 750.23 279.00 L 759.11 279.00 L 758.81 274.75 L 758.50 270.50 L 749.03 270.00 C 740.04 269.52 739.49 269.37 738.07 266.82 C 736.15 263.40 737.50 259.07 741.02 257.29 C 742.38 256.59 746.99 256.02 751.25 256.01 C 758.37 256.00 759.00 255.83 759.00 253.97 C 759.00 252.85 759.65 250.38 760.45 248.47 L 761.90 245.00 L 725.95 245.00 L 690.00 245.00 L 690.00 250.50 L 690.00 256.00 L 700.55 256.00 C 710.41 256.00 711.25 256.16 713.55 258.45 C 716.43 261.34 716.70 264.94 714.25 267.88 C 712.70 269.74 711.27 270.01 701.50 270.24 L 690.50 270.50 L 690.19 274.75 L 689.89 279.00 L 700.49 279.00 C 710.41 279.00 711.25 279.16 713.55 281.45 C 714.90 282.80 716.00 284.85 716.00 286.00 C 716.00 287.15 714.90 289.20 713.55 290.55 C 711.25 292.84 710.41 293.00 700.55 293.00 L 690.00 293.00 L 690.00 297.00 L 690.00 301.00 L 699.75 301.01 C 710.66 301.03 713.98 302.14 715.43 306.27 C 716.20 308.46 715.98 309.55 714.34 311.75 C 712.37 314.39 711.86 314.52 701.40 315.00 L 690.50 315.50 L 690.50 319.50 L 690.50 323.50 L 700.53 323.60 C 711.14 323.70 714.45 324.69 715.52 328.07 C 716.45 330.98 714.16 335.93 711.62 336.51 C 710.46 336.78 705.22 337.11 700.00 337.25 L 690.50 337.50 L 690.50 341.50 L 690.50 345.50 L 701.20 345.78 C 711.38 346.05 712.01 346.19 713.95 348.67 C 716.65 352.10 716.54 354.55 713.55 357.55 C 711.25 359.84 710.41 360.00 700.55 360.00 L 690.00 360.00 L 690.00 363.91 L 690.00 367.82 L 701.09 368.16 C 711.33 368.47 712.33 368.68 714.09 370.86 C 716.59 373.95 716.51 376.83 713.83 379.69 C 711.81 381.83 710.85 382.00 700.77 382.00 L 689.89 382.00 L 690.19 386.25 L 690.50 390.50 L 701.83 391.00 C 711.56 391.43 713.37 391.78 714.58 393.44 C 715.36 394.51 716.00 396.34 716.00 397.50 C 716.00 398.66 715.36 400.49 714.58 401.56 C 713.37 403.22 711.56 403.57 701.83 404.00 L 690.50 404.50 L 690.19 408.75 L 689.89 413.00 L 700.87 413.00 C 711.55 413.00 711.91 413.07 713.93 415.63 C 716.65 419.10 716.54 421.55 713.55 424.55 C 711.25 426.84 710.41 427.00 700.55 427.00 L 690.00 427.00 L 690.00 430.89 L 690.00 434.78 L 701.10 435.16 C 711.31 435.51 712.36 435.73 714.10 437.88 C 716.47 440.80 716.53 444.15 714.25 446.88 C 712.70 448.74 711.27 449.01 701.50 449.24 L 690.50 449.50 L 690.50 453.50 L 690.50 457.50 L 701.83 458.00 C 711.56 458.43 713.37 458.78 714.58 460.44 C 717.64 464.63 714.77 470.93 709.75 471.05 C 708.51 471.08 703.67 471.20 699.00 471.30 L 690.50 471.50 L 690.18 474.33 C 689.50 480.24 688.14 480.00 722.89 480.00 C 740.46 480.00 755.55 479.73 756.42 479.39 Z M 241.04 374.00 C 242.99 373.46 246.14 371.42 248.04 369.45 L 251.50 365.89 L 251.78 311.40 C 252.08 251.07 252.21 252.42 245.65 247.75 C 241.07 244.49 230.76 244.06 225.18 246.91 C 217.73 250.71 218.00 248.33 218.00 309.50 C 218.00 366.91 218.03 367.29 222.42 370.94 C 226.63 374.43 234.72 375.76 241.04 374.00 Z M 799.70 372.37 C 801.17 371.28 803.30 369.13 804.44 367.62 C 806.45 364.92 806.51 363.61 806.77 311.18 L 807.04 257.50 L 804.77 253.00 C 801.89 247.29 797.57 245.00 789.65 245.00 C 782.34 245.00 777.70 247.13 774.77 251.86 L 772.50 255.50 L 772.19 306.50 C 772.03 334.55 772.17 359.43 772.51 361.79 C 773.26 366.95 777.81 372.57 782.35 373.96 C 787.40 375.51 796.64 374.66 799.70 372.37 Z M 230.00 766.00 C 228.05 764.05 228.00 762.67 228.00 713.00 C 228.00 663.33 228.05 661.95 230.00 660.00 C 232.50 657.50 237.16 657.42 239.35 659.83 C 240.84 661.48 241.00 666.62 241.00 712.83 C 241.00 762.67 240.95 764.05 239.00 766.00 C 237.90 767.10 235.88 768.00 234.50 768.00 C 233.12 768.00 231.10 767.10 230.00 766.00 Z M 785.00 766.00 C 783.05 764.05 783.00 762.67 783.00 713.17 L 783.00 662.35 L 785.31 660.17 C 788.05 657.61 790.72 657.41 793.78 659.56 L 796.00 661.11 L 796.00 712.90 C 796.00 761.80 795.90 764.78 794.17 766.35 C 791.69 768.59 787.43 768.43 785.00 766.00 Z M 788.00 623.28 C 787.17 622.98 785.71 622.05 784.75 621.21 C 783.13 619.81 783.00 616.40 783.00 576.85 C 783.00 535.33 783.06 533.94 785.00 532.00 C 787.50 529.50 792.16 529.42 794.35 531.83 C 795.83 533.47 796.00 538.05 796.00 576.64 C 796.00 609.51 795.71 619.99 794.75 621.21 C 793.28 623.08 790.12 624.05 788.00 623.28 Z M 229.65 621.17 C 228.17 619.53 228.00 614.94 228.00 576.23 L 228.00 533.11 L 230.22 531.56 C 233.21 529.47 237.32 529.59 239.35 531.83 C 240.83 533.47 241.00 538.05 241.00 576.67 C 241.00 617.08 240.89 619.79 239.17 621.35 C 236.74 623.54 231.72 623.45 229.65 621.17 Z M 504.00 570.41 C 495.95 566.92 490.82 559.02 490.73 549.98 C 490.55 530.67 511.68 520.03 526.28 532.08 C 539.26 542.78 536.22 564.00 520.78 570.45 C 516.11 572.40 508.56 572.38 504.00 570.41 Z M 518.19 554.96 C 520.75 552.40 521.13 551.41 520.59 548.71 C 518.53 538.41 504.80 539.10 504.80 549.50 C 504.80 552.51 505.42 553.96 507.46 555.72 C 511.10 558.85 514.54 558.61 518.19 554.96 Z M 785.00 491.00 C 783.06 489.06 783.00 487.67 783.00 446.00 C 783.00 404.33 783.06 402.94 785.00 401.00 C 787.50 398.50 792.16 398.42 794.35 400.83 C 795.83 402.47 796.00 407.08 796.00 446.17 C 796.00 487.06 795.89 489.79 794.17 491.35 C 791.69 493.59 787.43 493.43 785.00 491.00 Z M 231.50 491.81 C 230.40 491.18 229.17 490.18 228.77 489.59 C 228.36 488.99 228.02 469.26 228.02 445.75 C 228.00 404.32 228.06 402.94 230.00 401.00 C 232.50 398.50 237.16 398.42 239.35 400.83 C 240.83 402.47 241.00 407.06 241.00 445.76 L 241.00 488.85 L 238.37 490.93 C 235.38 493.28 234.33 493.41 231.50 491.81 Z M 229.65 362.17 C 228.16 360.52 228.00 355.42 228.00 309.74 C 228.00 255.43 227.84 257.14 232.97 255.51 C 234.98 254.87 238.93 256.44 240.23 258.40 C 240.64 259.00 240.98 282.27 240.98 310.10 C 241.00 357.85 240.90 360.78 239.17 362.35 C 236.74 364.54 231.72 364.45 229.65 362.17 Z M 785.63 362.93 L 783.00 360.85 L 783.00 309.93 C 783.00 260.33 783.05 258.95 785.00 257.00 C 787.40 254.60 790.75 254.43 793.78 256.56 L 796.00 258.11 L 796.00 310.00 L 796.00 361.89 L 793.78 363.44 C 790.80 365.53 788.78 365.40 785.63 362.93 Z" stroke-linecap="round"/>
</g>
</g>
</g>

  </svg>