<svg xmlns="http://www.w3.org/2000/svg" xmlns:xlink="http://www.w3.org/1999/xlink" width="541px" height="529px" viewBox="0 0 541.016406562625 529.0473203781794">
    <g id="3b2d9650-b6ae-4bc0-b234-f6637c419fc1">
<g style="">
		<g id="3b2d9650-b6ae-4bc0-b234-f6637c419fc1-child-0">
<path style="stroke: rgb(193,193,193); stroke-width: 0; stroke-dasharray: none; stroke-linecap: butt; stroke-dashoffset: 0; stroke-linejoin: miter; stroke-miterlimit: 4; fill: rgb(0,0,0); fill-rule: nonzero; opacity: 1;" transform="matrix(1.045542 0 0 1.045542 270.508262 264.523718) matrix(1 0 0 1 0 0)  translate(-512.28539, -512.001523)" d="M 264.42 762.98 C 257.26 759.44 254.00 752.96 254.00 742.30 C 254.00 738.64 254.63 734.69 255.46 733.07 C 257.29 729.53 263.36 727.00 270.02 727.00 L 275.00 727.00 L 275.00 714.02 C 275.00 701.26 275.05 700.98 277.75 697.99 C 279.67 695.86 281.85 694.72 285.00 694.20 L 289.50 693.45 L 289.74 652.97 C 289.98 613.12 290.02 612.47 292.10 610.75 C 294.85 608.48 296.54 608.54 299.00 611.00 C 300.93 612.93 301.00 614.33 301.00 653.50 L 301.00 694.00 L 404.00 694.00 L 507.00 694.00 L 507.00 529.52 L 507.00 365.04 L 504.75 364.58 C 503.51 364.33 499.97 363.88 496.87 363.57 C 489.14 362.80 479.01 359.56 469.58 354.83 L 461.66 350.86 L 452.08 355.35 C 441.10 360.50 433.29 362.72 421.38 364.07 C 405.77 365.84 386.33 362.00 371.93 354.29 L 365.37 350.78 L 355.93 355.36 C 341.90 362.17 331.56 364.44 314.75 364.40 L 301.00 364.37 L 301.00 395.03 C 301.00 423.46 300.87 425.81 299.17 427.35 C 297.07 429.25 294.71 429.45 291.93 427.96 C 290.08 426.97 290.00 425.53 290.00 394.06 L 290.00 361.19 L 284.65 358.17 C 277.79 354.30 271.66 347.30 268.86 340.15 C 266.93 335.22 266.59 332.08 266.21 315.50 L 265.78 296.50 L 261.93 294.69 C 256.05 291.92 253.56 287.06 253.56 278.41 C 253.56 272.31 253.95 270.67 256.28 267.15 C 257.78 264.89 260.78 262.13 262.96 261.02 C 266.90 259.01 268.10 259.00 511.90 259.00 C 682.98 259.00 757.72 259.32 759.68 260.07 C 773.78 265.41 775.07 289.05 761.58 294.63 L 757.11 296.48 L 756.81 315.99 C 756.51 334.66 756.39 335.74 753.86 341.12 C 750.67 347.93 745.13 354.25 739.44 357.59 C 737.12 358.95 734.95 361.06 734.62 362.28 C 734.29 363.50 734.02 374.87 734.01 387.55 C 734.00 412.31 733.86 413.00 728.86 413.00 C 723.44 413.00 723.00 410.94 723.00 385.71 C 723.00 364.43 722.88 362.90 721.25 363.35 C 712.77 365.70 693.16 364.49 681.16 360.87 C 677.50 359.76 670.83 357.06 666.33 354.87 L 658.17 350.87 L 648.83 355.40 C 624.04 367.44 596.00 367.46 571.26 355.45 L 562.02 350.96 L 555.77 354.12 C 552.34 355.85 546.79 358.30 543.44 359.56 C 538.07 361.58 534.47 362.39 521.25 364.56 L 518.00 365.09 L 518.00 529.55 L 518.00 694.00 L 620.50 694.00 L 723.00 694.00 L 723.00 662.72 C 723.00 636.03 723.23 631.12 724.56 629.22 C 726.31 626.72 731.09 626.19 732.84 628.31 C 733.56 629.17 734.02 640.46 734.21 661.56 L 734.50 693.50 L 738.50 694.05 C 748.22 695.40 750.00 698.63 750.00 714.95 L 750.00 727.00 L 755.25 727.00 C 761.95 727.00 766.98 729.51 769.32 734.00 C 772.75 740.61 769.99 755.08 764.32 760.21 C 758.71 765.29 773.89 765.00 511.78 765.00 C 269.82 765.00 268.48 764.99 264.42 762.98 Z M 756.51 751.74 C 758.62 749.93 759.17 748.51 759.32 744.49 L 759.50 739.50 L 512.25 739.25 L 265.00 739.00 L 265.00 743.81 C 265.00 748.80 266.09 750.98 269.50 752.85 C 270.93 753.63 340.03 753.95 512.69 753.97 L 753.89 754.00 L 756.51 751.74 Z M 739.00 716.65 L 739.00 706.29 L 731.35 705.65 C 721.65 704.83 289.72 704.79 287.58 705.61 C 286.28 706.11 286.00 708.05 286.00 716.61 L 286.00 727.00 L 512.50 727.00 L 739.00 727.00 L 739.00 716.65 Z M 340.72 349.55 C 345.24 348.01 352.66 344.58 357.22 341.93 L 365.50 337.10 L 369.50 339.59 C 377.53 344.60 387.70 349.03 395.97 351.11 C 403.07 352.91 406.38 353.17 416.47 352.76 C 432.41 352.12 441.82 349.05 458.03 339.20 C 461.98 336.80 461.50 336.67 472.19 343.21 C 475.31 345.13 481.61 347.96 486.19 349.50 C 493.35 351.92 496.51 352.37 509.06 352.77 C 521.42 353.17 524.84 352.93 531.62 351.21 C 539.98 349.10 549.02 345.23 557.51 340.13 L 562.51 337.12 L 571.01 342.08 C 575.68 344.81 583.10 348.26 587.50 349.74 C 594.76 352.18 596.89 352.43 610.50 352.45 C 624.41 352.47 626.08 352.27 633.50 349.67 C 637.90 348.12 645.31 344.65 649.96 341.95 L 658.42 337.05 L 661.96 339.21 C 678.67 349.39 686.77 352.05 703.15 352.73 C 710.11 353.02 717.43 352.95 719.40 352.58 L 723.00 351.91 L 723.00 338.95 L 723.00 326.00 L 512.00 326.00 L 301.00 326.00 L 301.00 338.93 C 301.00 354.28 299.25 352.95 319.00 352.59 C 330.75 352.37 333.57 351.97 340.72 349.55 Z M 290.00 337.00 L 290.00 327.00 L 285.58 327.00 C 283.15 327.00 280.45 326.73 279.58 326.39 C 275.40 324.79 279.42 338.67 284.75 344.25 C 289.32 349.04 290.00 348.10 290.00 337.00 Z M 739.85 342.51 C 742.39 339.63 746.00 330.99 746.00 327.82 C 746.00 327.37 743.41 327.00 740.24 327.00 L 734.48 327.00 L 734.16 336.50 C 733.79 347.44 734.69 348.39 739.85 342.51 Z M 746.00 305.50 L 746.00 296.00 L 512.00 296.00 L 278.00 296.00 L 278.00 305.50 L 278.00 315.00 L 512.00 315.00 L 746.00 315.00 L 746.00 305.50 Z M 758.80 283.80 C 759.46 283.14 760.00 280.70 760.00 278.37 C 760.00 275.00 759.47 273.73 757.37 272.07 L 754.73 270.00 L 511.82 270.00 L 268.91 270.00 L 266.45 272.45 C 263.83 275.08 263.21 279.66 265.04 283.07 C 266.05 284.97 269.88 285.00 511.84 285.00 C 701.65 285.00 757.87 284.73 758.80 283.80 Z M 322.35 675.95 C 315.75 671.72 315.93 673.77 316.23 604.97 L 316.50 542.85 L 320.24 539.42 L 323.97 536.00 L 402.84 536.00 L 481.70 536.00 L 485.09 538.28 C 486.95 539.53 489.03 541.67 489.72 543.03 C 490.68 544.93 490.97 559.83 490.99 607.10 L 491.00 668.70 L 488.72 672.09 C 487.47 673.95 485.33 676.03 483.97 676.72 C 482.06 677.69 463.91 677.97 403.50 677.97 C 326.95 677.97 325.44 677.93 322.35 675.95 Z M 479.50 607.00 L 479.50 547.50 L 403.50 547.50 L 327.50 547.50 L 327.46 605.50 C 327.43 637.40 327.60 664.29 327.82 665.26 C 328.21 666.91 332.44 667.00 403.87 666.76 L 479.50 666.50 L 479.50 607.00 Z M 539.87 676.32 C 538.43 675.42 536.40 673.29 535.37 671.59 C 533.60 668.66 533.50 665.32 533.50 606.32 C 533.50 544.76 533.52 544.12 535.60 541.32 C 536.75 539.77 538.77 537.94 540.10 537.26 C 541.94 536.32 560.65 536.03 620.80 536.01 C 705.69 536.00 702.68 535.81 706.35 541.41 C 707.84 543.68 708.00 550.03 708.00 606.01 C 708.00 674.53 708.22 672.06 701.70 676.04 C 698.60 677.93 696.12 677.99 620.50 677.97 C 550.16 677.95 542.24 677.79 539.87 676.32 Z M 696.50 607.00 L 696.50 547.50 L 620.91 547.24 L 545.32 546.99 L 544.66 568.15 C 543.80 595.80 543.81 665.47 544.67 666.34 C 545.04 666.71 579.36 666.90 620.92 666.76 L 696.50 666.50 L 696.50 607.00 Z M 725.44 596.58 C 723.56 595.20 723.49 593.07 723.18 521.93 C 723.00 481.65 723.12 447.65 723.45 446.36 C 723.77 445.08 725.15 443.29 726.52 442.40 C 728.81 440.89 729.19 440.89 731.50 442.41 L 734.00 444.05 L 734.00 519.45 C 734.00 586.67 733.83 595.03 732.43 596.43 C 730.48 598.38 727.98 598.43 725.44 596.58 Z M 291.20 579.80 C 290.29 578.89 290.00 564.10 290.00 519.36 L 290.00 460.11 L 292.22 458.56 C 295.16 456.50 296.59 456.59 299.00 459.00 C 300.95 460.95 301.00 462.33 301.00 519.35 C 301.00 574.60 300.90 577.78 299.17 579.35 C 297.03 581.28 292.92 581.52 291.20 579.80 Z M 322.30 518.05 C 315.70 514.01 315.93 516.57 316.23 448.07 L 316.50 386.13 L 319.44 383.06 C 321.06 381.37 323.99 379.54 325.94 379.00 C 328.14 378.39 358.12 378.02 404.50 378.03 C 476.02 378.04 479.69 378.13 483.68 379.94 C 491.34 383.42 491.00 380.21 491.00 449.97 L 491.00 512.03 L 487.58 515.76 L 484.15 519.50 L 404.83 519.76 C 327.53 520.01 325.42 519.96 322.30 518.05 Z M 479.50 449.50 L 479.50 390.50 L 403.50 390.50 L 327.50 390.50 L 327.29 447.54 C 327.17 478.92 327.34 505.58 327.66 506.80 L 328.24 509.01 L 403.87 508.76 L 479.50 508.50 L 479.50 449.50 Z M 539.89 518.51 C 538.46 517.73 536.43 515.83 535.39 514.29 C 533.59 511.63 533.50 508.68 533.50 449.32 C 533.50 388.01 533.53 387.11 535.57 384.32 C 536.71 382.77 539.19 380.71 541.07 379.74 C 544.27 378.09 549.58 377.99 621.50 378.24 C 692.93 378.48 698.73 378.63 701.73 380.27 C 708.12 383.75 707.91 381.56 708.05 449.29 C 708.12 488.25 707.80 511.50 707.17 512.66 C 706.63 513.67 704.98 515.62 703.51 517.00 L 700.84 519.50 L 621.67 519.72 C 554.69 519.91 542.10 519.72 539.89 518.51 Z M 697.00 449.50 L 697.00 390.00 L 621.00 390.00 C 579.20 390.00 544.98 390.11 544.95 390.25 C 544.44 393.00 543.97 499.62 544.46 503.49 L 545.14 509.00 L 621.07 509.00 L 697.00 509.00 L 697.00 449.50 Z M 352.38 649.09 C 338.64 642.85 338.50 623.89 352.14 616.93 C 355.88 615.02 357.84 614.96 404.84 615.22 L 453.65 615.50 L 457.27 617.98 C 466.84 624.54 467.78 638.96 459.10 646.26 C 457.36 647.72 454.26 649.39 452.22 649.96 C 449.90 650.60 431.13 650.98 402.50 650.97 C 359.73 650.96 356.21 650.82 352.38 649.09 Z M 452.19 637.25 C 456.01 632.81 454.82 628.60 449.31 627.07 C 444.09 625.62 361.14 625.62 357.34 627.06 C 355.80 627.65 354.20 628.66 353.79 629.31 C 352.49 631.35 352.93 635.26 354.65 637.17 C 356.21 638.89 359.05 639.00 403.50 639.00 C 447.20 639.00 450.80 638.87 452.19 637.25 Z M 353.50 597.51 C 339.42 592.56 337.84 571.71 351.04 564.98 C 354.75 563.09 357.08 563.00 402.99 563.00 C 443.99 563.00 451.61 563.23 454.75 564.54 C 461.97 567.56 465.29 572.58 465.29 580.50 C 465.29 588.46 461.32 594.30 453.77 597.45 C 448.52 599.64 359.72 599.69 353.50 597.51 Z M 451.83 585.40 C 453.62 584.15 454.04 583.03 453.80 580.18 C 453.28 573.98 453.72 574.03 402.75 574.01 C 358.32 574.00 356.94 574.06 355.00 576.00 C 353.90 577.10 353.00 579.12 353.00 580.50 C 353.00 581.88 353.90 583.90 355.00 585.00 C 356.94 586.94 358.33 587.00 403.28 587.00 C 444.02 587.00 449.83 586.81 451.83 585.40 Z M 571.79 650.03 C 561.94 647.00 556.39 635.18 560.36 625.67 C 562.09 621.54 567.01 617.37 571.80 615.97 C 574.29 615.24 591.04 614.99 623.07 615.20 L 670.65 615.50 L 674.27 617.98 C 679.89 621.83 682.31 626.98 681.81 633.99 C 681.31 640.88 678.18 645.69 672.31 648.61 C 668.75 650.37 665.38 650.51 621.50 650.68 C 595.65 650.78 573.28 650.48 571.79 650.03 Z M 668.78 637.44 C 671.64 635.44 671.70 630.94 668.90 628.40 C 666.89 626.59 664.61 626.50 620.31 626.50 L 573.82 626.50 L 571.91 628.86 C 569.46 631.89 569.49 634.49 572.00 637.00 C 573.94 638.94 575.33 639.00 620.28 639.00 C 660.54 639.00 666.84 638.80 668.78 637.44 Z M 569.45 596.52 C 557.13 590.33 555.63 574.73 566.55 566.39 L 570.34 563.50 L 619.67 563.22 C 663.85 562.97 669.33 563.12 672.25 564.59 C 679.41 568.22 682.28 572.84 682.21 580.59 C 682.14 589.10 677.16 595.75 669.22 597.96 C 666.91 598.60 648.20 598.99 619.95 598.99 L 574.39 599.00 L 569.45 596.52 Z M 668.78 585.44 C 670.99 583.89 671.76 579.68 670.23 577.40 C 668.11 574.22 664.93 574.00 620.02 574.00 L 574.91 574.00 L 572.45 576.45 C 569.46 579.45 569.39 580.95 572.07 584.37 L 574.15 587.00 L 620.35 587.00 C 660.55 587.00 666.84 586.80 668.78 585.44 Z M 352.50 491.12 C 345.45 487.84 342.00 482.52 342.00 474.90 C 342.00 466.94 347.07 460.23 354.80 457.97 C 357.30 457.23 373.90 456.98 406.09 457.19 L 453.67 457.50 L 457.61 460.23 C 463.00 463.97 465.42 468.38 465.42 474.50 C 465.42 480.68 462.34 486.54 457.27 490.02 L 453.65 492.50 L 405.07 492.74 C 359.52 492.97 356.25 492.87 352.50 491.12 Z M 449.71 480.95 C 454.87 479.15 456.36 472.34 452.10 470.06 C 451.09 469.51 430.56 469.04 403.64 468.93 C 360.10 468.76 356.80 468.87 354.97 470.53 C 351.19 473.95 353.18 479.98 358.50 481.28 C 362.70 482.30 446.70 482.00 449.71 480.95 Z M 353.66 439.54 C 346.06 436.83 342.00 431.06 342.00 422.95 C 342.00 416.22 344.37 411.45 349.33 408.16 L 353.35 405.50 L 401.84 405.21 L 450.33 404.93 L 455.41 407.47 C 461.57 410.54 464.11 413.83 464.76 419.56 C 465.81 428.90 462.32 435.59 454.54 439.12 C 450.80 440.82 447.01 440.95 404.00 440.93 C 367.19 440.92 356.70 440.63 353.66 439.54 Z M 452.22 427.31 C 454.56 425.18 454.49 420.75 452.07 418.57 C 450.30 416.96 446.51 416.82 404.32 416.84 C 350.39 416.85 356.50 416.64 354.57 418.57 C 350.98 422.16 353.60 428.42 359.00 429.16 C 360.38 429.35 381.51 429.37 405.97 429.21 C 445.23 428.95 450.64 428.73 452.22 427.31 Z M 569.17 490.85 C 562.72 487.66 559.50 482.21 559.50 474.50 C 559.50 469.26 559.93 467.78 562.38 464.56 C 568.18 456.97 567.56 457.05 620.80 457.02 C 671.85 457.00 670.84 456.90 676.85 462.37 C 684.12 468.98 684.11 480.90 676.83 487.70 C 671.22 492.94 670.63 493.00 620.28 493.00 C 574.47 493.00 573.41 492.95 569.17 490.85 Z M 668.90 479.60 C 671.59 477.15 671.59 472.84 668.89 470.40 C 666.88 468.59 664.63 468.50 622.14 468.50 C 597.59 468.50 576.38 468.76 575.00 469.07 C 573.62 469.39 571.84 470.81 571.04 472.24 C 569.81 474.43 569.79 475.24 570.90 477.32 C 571.63 478.68 573.19 480.26 574.36 480.84 C 575.77 481.52 592.02 481.81 621.65 481.69 C 664.49 481.51 666.90 481.40 668.90 479.60 Z M 569.40 438.61 C 554.72 431.77 556.29 410.35 571.78 406.04 C 574.09 405.40 592.96 405.01 621.55 405.01 L 667.61 405.00 L 672.77 407.57 C 680.69 411.52 684.15 419.01 681.91 427.35 C 680.51 432.54 674.65 438.45 669.48 439.88 C 666.84 440.62 650.14 440.99 620.00 440.98 L 574.50 440.98 L 569.40 438.61 Z M 669.12 427.39 C 670.15 426.46 671.00 424.44 671.00 422.92 C 671.00 417.20 672.02 417.33 622.81 416.55 C 592.16 416.06 576.63 416.16 574.81 416.86 C 569.21 419.03 568.64 426.11 573.89 428.31 C 575.96 429.18 588.89 429.45 621.98 429.30 C 663.02 429.11 667.41 428.93 669.12 427.39 Z" stroke-linecap="round"/>
</g>
</g>
</g>

  </svg>