<svg xmlns="http://www.w3.org/2000/svg" xmlns:xlink="http://www.w3.org/1999/xlink" width="500px" height="474px" viewBox="0 0 500.0000000000002 473.86218542341294">
    <g id="87356636-09e5-4bb0-a388-4b876bbe4189">
<g style="">
		<g id="87356636-09e5-4bb0-a388-4b876bbe4189-child-0">
<path style="stroke: rgb(193,193,193); stroke-width: 0; stroke-dasharray: none; stroke-linecap: butt; stroke-dashoffset: 0; stroke-linejoin: miter; stroke-miterlimit: 4; fill: rgb(0,0,0); fill-rule: nonzero; opacity: 1;" transform="matrix(1.013148 0 0 1.013148 250.000093 236.931181) matrix(1 0 0 1 0 0)  translate(-512.255749, -511.856436)" d="M 318.00 744.50 C 295.71 739.04 276.40 721.34 268.18 698.83 L 265.50 691.50 L 265.50 512.50 L 265.50 333.50 L 267.84 326.50 C 275.72 302.87 293.54 285.87 316.61 279.97 C 324.15 278.04 328.48 278.00 512.00 278.00 C 695.52 278.00 699.85 278.04 707.39 279.97 C 731.33 286.09 750.91 305.67 757.03 329.61 C 758.95 337.14 759.00 341.42 759.00 511.95 C 759.00 707.55 759.64 691.05 751.37 707.90 C 743.60 723.76 728.55 736.90 711.00 743.18 L 704.50 745.50 L 514.00 745.67 C 357.22 745.82 322.53 745.61 318.00 744.50 Z M 704.14 720.02 C 719.30 715.31 730.17 703.28 734.47 686.46 C 735.82 681.15 735.98 665.78 735.75 559.96 L 735.50 439.50 L 511.75 439.25 L 288.00 439.00 L 288.01 560.25 C 288.02 662.15 288.25 682.36 289.45 686.87 C 293.91 703.62 306.16 716.33 322.00 720.64 C 325.47 721.58 368.94 721.88 512.14 721.93 C 694.29 722.00 697.91 721.96 704.14 720.02 Z M 736.00 379.71 C 736.00 340.47 735.64 337.04 730.39 326.59 C 724.90 315.67 716.06 308.06 704.23 304.08 C 698.07 302.00 697.73 302.00 512.78 302.02 C 391.56 302.04 325.98 302.40 323.11 303.06 C 306.67 306.85 292.71 321.52 289.11 338.80 C 288.42 342.10 288.00 357.67 288.00 380.05 L 288.00 416.00 L 512.00 416.00 L 736.00 416.00 L 736.00 379.71 Z M 363.50 700.98 C 355.25 700.69 347.70 700.08 346.71 699.61 C 344.07 698.35 342.00 693.66 342.00 688.95 C 342.00 685.56 342.63 684.17 345.40 681.40 L 348.80 678.00 L 511.45 678.00 C 654.88 678.00 674.45 678.18 677.03 679.52 C 683.79 683.01 684.87 693.05 679.05 698.25 C 677.35 699.76 674.96 701.00 673.73 701.00 C 672.51 700.99 605.58 701.11 525.00 701.25 C 444.42 701.39 371.75 701.27 363.50 700.98 Z M 349.50 648.05 C 345.10 646.23 342.50 642.10 342.50 636.94 C 342.50 632.74 342.97 631.57 345.77 628.77 L 349.04 625.50 L 440.59 625.23 C 542.22 624.94 537.17 624.62 540.42 631.48 C 542.46 635.78 542.42 639.48 540.29 643.08 C 536.64 649.26 540.96 649.01 441.85 648.94 C 392.16 648.90 350.60 648.50 349.50 648.05 Z M 587.20 647.33 C 578.87 643.22 578.97 630.61 587.36 626.63 C 590.37 625.20 595.95 625.00 632.15 625.00 C 671.86 625.01 673.63 625.09 676.81 627.03 C 683.09 630.85 684.64 640.25 679.73 644.72 C 675.07 648.96 674.62 649.00 631.82 648.98 C 595.70 648.96 590.08 648.75 587.20 647.33 Z M 351.26 595.05 C 343.57 593.17 339.84 585.08 343.45 578.10 C 346.66 571.88 345.73 572.00 392.71 572.00 C 433.36 572.01 435.66 572.10 438.70 573.96 C 445.28 577.97 445.27 588.47 438.68 593.39 C 435.93 595.45 434.85 595.50 395.18 595.67 C 372.81 595.76 353.04 595.48 351.26 595.05 Z M 491.33 594.90 C 486.42 593.48 483.00 588.73 483.00 583.32 C 483.00 579.51 483.54 578.26 486.40 575.40 L 489.80 572.00 L 581.95 572.00 C 683.97 572.00 678.17 571.62 681.46 578.55 C 684.64 585.26 681.21 593.01 674.20 594.96 C 669.48 596.27 495.88 596.22 491.33 594.90 Z M 345.40 538.60 C 342.55 535.75 342.00 534.48 342.00 530.73 C 342.00 527.67 342.68 525.41 344.17 523.51 C 348.41 518.12 349.45 518.00 393.82 518.00 L 434.70 518.00 L 438.09 520.28 C 443.86 524.17 445.53 530.15 442.48 536.03 C 439.40 541.99 439.29 542.00 391.95 542.00 L 348.80 542.00 L 345.40 538.60 Z M 486.40 538.60 C 483.54 535.74 483.00 534.49 483.00 530.68 C 483.00 525.07 486.44 520.53 491.81 519.03 C 494.20 518.37 526.91 518.01 584.60 518.01 L 673.70 518.00 L 677.09 520.28 C 682.86 524.17 684.53 530.15 681.48 536.03 C 678.25 542.29 683.11 542.00 581.95 542.00 L 489.80 542.00 L 486.40 538.60 Z M 347.76 487.25 C 344.78 485.40 342.00 480.48 342.00 477.05 C 342.00 473.61 344.84 469.07 348.30 466.96 C 351.44 465.04 354.58 465.01 511.85 465.00 C 656.19 465.00 672.53 465.16 675.54 466.59 C 684.45 470.81 684.66 483.24 675.90 487.74 C 674.02 488.70 638.23 488.97 512.00 488.96 C 361.70 488.95 350.31 488.83 347.76 487.25 Z M 663.00 395.46 C 648.54 391.42 638.48 380.88 635.01 366.13 C 631.01 349.14 642.13 328.41 658.75 321.88 C 663.18 320.14 666.57 319.62 673.50 319.60 C 681.53 319.57 683.22 319.91 689.18 322.70 C 714.46 334.54 720.42 365.68 701.11 384.99 C 691.34 394.75 675.78 399.03 663.00 395.46 Z M 680.93 371.03 C 685.08 368.92 689.00 362.50 689.00 357.84 C 689.00 353.73 684.78 346.89 680.99 344.86 C 674.34 341.29 665.00 343.28 660.68 349.18 C 657.84 353.06 657.41 360.65 659.79 365.00 C 663.72 372.18 673.32 374.92 680.93 371.03 Z M 337.23 392.45 C 334.33 391.67 330.57 390.31 328.87 389.43 C 323.85 386.84 317.03 379.31 314.17 373.20 C 311.83 368.21 311.50 366.25 311.50 357.50 C 311.50 348.60 311.81 346.88 314.26 341.88 C 317.67 334.94 325.21 327.73 332.78 324.18 L 338.50 321.50 L 473.18 321.50 C 607.68 321.50 607.86 321.50 610.68 323.56 C 614.66 326.48 617.17 331.91 616.37 335.90 C 615.55 340.01 611.03 344.54 606.94 345.36 C 605.18 345.71 544.81 346.00 472.77 346.00 L 341.80 346.00 L 338.40 349.40 C 335.63 352.17 335.00 353.56 335.00 356.95 C 335.00 362.48 337.17 366.38 341.36 368.37 C 344.49 369.85 355.70 370.00 463.42 370.00 L 582.03 370.00 L 585.76 373.42 C 589.12 376.50 589.50 377.35 589.50 381.82 C 589.50 387.46 587.53 390.42 582.28 392.64 C 577.41 394.70 344.93 394.52 337.23 392.45 Z" stroke-linecap="round"/>
</g>
</g>
</g>

  </svg>