<svg xmlns="http://www.w3.org/2000/svg" xmlns:xlink="http://www.w3.org/1999/xlink" width="706px" height="563px" viewBox="0 0 706.3740856844306 563.4752912756094">
    <g id="0723726f-0691-499c-aa51-e8052edaa721">
<g style="">
		<g id="0723726f-0691-499c-aa51-e8052edaa721-child-0">
<path style="stroke: rgb(193,193,193); stroke-width: 0; stroke-dasharray: none; stroke-linecap: butt; stroke-dashoffset: 0; stroke-linejoin: miter; stroke-miterlimit: 4; fill: rgb(0,0,0); fill-rule: nonzero; opacity: 1;" transform="matrix(1.275703 0 0 1.275703 353.186997 281.737609) matrix(1 0 0 1 0 0)  translate(-511.971654, -511.857931)" d="M 261.00 731.62 C 250.86 729.36 242.79 723.32 238.19 714.56 C 235.92 710.25 235.53 708.25 235.51 701.00 C 235.50 693.43 235.83 691.91 238.47 687.14 C 243.63 677.83 252.75 672.00 262.18 672.00 L 266.00 672.00 L 266.00 528.75 L 266.00 385.50 L 260.61 382.69 C 250.69 377.50 241.64 366.98 237.87 356.23 C 228.68 330.10 243.28 301.17 269.78 292.99 C 276.12 291.03 279.60 291.00 511.86 291.01 C 707.88 291.02 748.36 291.25 752.63 292.39 C 776.52 298.75 792.05 322.59 788.26 347.10 C 785.94 362.04 775.17 377.35 762.64 383.47 L 757.00 386.23 L 757.00 529.12 L 757.00 672.00 L 762.25 672.02 C 771.70 672.06 780.91 678.08 785.79 687.41 C 789.54 694.55 789.65 706.17 786.04 713.50 C 782.53 720.65 775.53 727.25 768.44 730.11 L 762.50 732.50 L 514.50 732.67 C 321.88 732.81 265.27 732.57 261.00 731.62 Z M 760.99 709.51 C 766.85 706.47 768.85 699.98 764.99 696.49 C 763.06 694.75 753.23 694.68 512.58 694.74 C 374.86 694.78 261.24 695.11 260.09 695.47 C 257.57 696.27 256.38 700.33 257.62 703.86 C 258.12 705.28 260.05 707.46 261.91 708.72 L 265.30 711.00 L 511.70 711.00 C 728.35 711.00 758.45 710.82 760.99 709.51 Z M 736.00 530.50 L 736.00 389.00 L 512.00 389.00 L 288.00 389.00 L 288.00 530.50 L 288.00 672.00 L 512.00 672.00 L 736.00 672.00 L 736.00 530.50 Z M 751.76 364.43 C 761.39 359.64 767.23 350.27 767.28 339.57 C 767.30 336.21 766.60 331.85 765.73 329.81 C 763.37 324.30 756.59 317.50 751.08 315.13 L 746.21 313.03 L 512.02 312.98 L 277.84 312.93 L 272.66 315.30 C 263.00 319.72 257.91 327.03 257.20 337.52 C 256.38 349.74 261.18 358.30 271.91 363.75 L 278.31 367.00 L 512.46 367.00 L 746.61 367.00 L 751.76 364.43 Z M 310.37 650.63 L 306.00 646.26 L 305.83 542.88 C 305.74 486.02 305.65 434.52 305.64 428.43 C 305.60 416.02 306.99 412.08 312.55 408.83 C 315.36 407.19 327.18 407.08 511.76 406.95 C 701.76 406.81 708.08 406.86 711.24 408.68 C 713.08 409.73 715.48 412.48 716.75 414.98 L 719.00 419.42 L 718.98 530.96 C 718.96 638.79 718.89 642.64 717.04 646.73 C 715.93 649.17 713.72 651.81 711.81 652.98 C 708.52 654.98 707.29 654.99 511.62 655.00 L 314.74 655.00 L 310.37 650.63 Z M 394.76 587.25 L 395.02 541.00 L 361.01 541.00 L 327.00 541.00 L 327.00 586.92 C 327.00 622.71 327.28 632.95 328.25 633.34 C 328.94 633.63 344.12 633.78 362.00 633.68 L 394.50 633.50 L 394.76 587.25 Z M 500.50 587.50 L 500.50 541.50 L 458.75 541.24 L 417.00 540.98 L 417.00 586.91 C 417.00 622.71 417.28 632.95 418.25 633.34 C 418.94 633.62 437.73 633.77 460.00 633.68 L 500.50 633.50 L 500.50 587.50 Z M 606.49 587.50 L 606.50 541.50 L 564.75 541.24 L 523.00 540.98 L 523.00 586.82 C 523.00 612.04 523.30 632.97 523.68 633.34 C 524.05 633.72 542.84 633.90 565.42 633.76 L 606.49 633.50 L 606.49 587.50 Z M 696.50 587.50 L 696.50 541.50 L 662.75 541.24 L 629.00 540.97 L 629.00 587.50 L 629.00 634.03 L 662.75 633.76 L 696.50 633.50 L 696.50 587.50 Z M 395.00 474.00 L 395.00 429.00 L 361.00 429.00 L 327.00 429.00 L 327.00 474.00 L 327.00 519.00 L 361.00 519.00 L 395.00 519.00 L 395.00 474.00 Z M 501.00 474.00 L 501.00 429.00 L 498.25 428.92 C 496.74 428.88 477.95 428.84 456.50 428.85 L 417.50 428.85 L 417.24 473.93 L 416.98 519.00 L 458.99 519.00 L 501.00 519.00 L 501.00 474.00 Z M 606.91 474.12 L 606.73 429.23 L 602.62 428.80 C 600.35 428.56 581.62 428.53 561.00 428.72 L 523.50 429.07 L 523.24 474.03 L 522.98 519.00 L 565.03 519.00 L 607.08 519.00 L 606.91 474.12 Z M 697.00 474.09 L 697.00 429.18 L 692.89 428.48 C 690.63 428.10 675.33 427.95 658.89 428.14 L 629.00 428.50 L 629.00 473.75 L 629.00 519.00 L 663.00 519.00 L 697.00 519.00 L 697.00 474.09 Z M 276.27 346.47 C 273.10 343.30 272.80 342.53 273.29 338.89 C 273.84 334.74 275.94 331.64 279.49 329.73 C 282.54 328.09 739.41 327.88 743.50 329.52 C 747.78 331.24 750.09 334.24 750.71 338.89 C 751.20 342.53 750.90 343.30 747.73 346.47 L 744.20 350.00 L 512.00 350.00 L 279.80 350.00 L 276.27 346.47 Z" stroke-linecap="round"/>
</g>
</g>
</g>

  </svg>