<svg xmlns="http://www.w3.org/2000/svg" xmlns:xlink="http://www.w3.org/1999/xlink" width="452px" height="500px" viewBox="0 0 452.08719575081 500.00015499999995">
    <g id="46fd6e86-8acd-4c07-be92-c9eb91ce3d8c">
<g style="">
		<g id="46fd6e86-8acd-4c07-be92-c9eb91ce3d8c-child-0">
<path style="stroke: rgb(193,193,193); stroke-width: 0; stroke-dasharray: none; stroke-linecap: butt; stroke-dashoffset: 0; stroke-linejoin: miter; stroke-miterlimit: 4; fill: rgb(0,0,0); fill-rule: nonzero; opacity: 1;" transform="matrix(0.86881 0 0 0.86881 226.043598 250.000077) matrix(1 0 0 1 0 0)  translate(-512.282905, -512.25)" d="M 254.07 797.37 C 251.35 793.90 251.45 790.75 254.41 787.31 L 256.83 784.50 L 312.19 784.23 L 367.56 783.95 L 362.74 778.82 C 356.50 772.18 351.64 763.37 349.06 754.02 C 347.01 746.56 347.00 745.87 347.00 513.43 C 347.00 284.70 347.04 280.18 348.97 272.61 C 354.54 250.82 370.54 234.02 393.00 226.37 C 398.25 224.59 403.70 224.50 512.50 224.50 L 626.50 224.50 L 633.73 227.14 C 654.78 234.84 669.63 250.75 675.68 272.09 C 677.42 278.21 677.50 289.23 677.50 512.00 C 677.50 705.44 677.27 746.44 676.14 751.00 C 674.01 759.61 668.36 770.55 662.42 777.55 L 656.99 783.95 L 712.47 784.23 L 767.95 784.50 L 770.17 786.73 C 773.26 789.81 773.21 795.60 770.09 798.13 C 767.84 799.95 760.42 800.00 511.96 800.00 L 256.15 800.00 L 254.07 797.37 Z M 628.28 781.92 C 644.76 776.42 657.02 762.82 660.56 746.13 C 661.74 740.56 661.97 705.65 661.98 526.77 L 662.00 314.04 L 659.74 313.47 C 658.49 313.16 654.18 313.04 650.14 313.20 L 642.81 313.50 L 642.64 474.50 C 642.48 624.93 642.35 635.80 640.72 640.00 C 636.71 650.35 627.02 659.43 616.72 662.49 C 608.97 664.79 417.32 664.76 408.47 662.45 C 397.88 659.69 390.50 653.61 384.88 643.00 L 382.50 638.50 L 382.24 476.38 L 381.98 314.26 L 378.24 313.64 C 376.18 313.30 371.91 313.02 368.75 313.01 L 363.00 313.00 L 363.01 528.25 C 363.02 704.78 363.26 744.40 364.36 748.50 C 368.57 764.25 380.75 777.26 395.76 782.06 C 401.18 783.79 407.66 783.90 511.78 783.95 C 620.85 784.00 622.13 783.98 628.28 781.92 Z M 617.16 644.46 C 619.55 642.78 622.62 639.41 624.00 636.96 L 626.50 632.50 L 626.79 576.78 L 627.08 521.05 L 574.95 520.78 L 522.82 520.50 L 520.91 518.14 C 518.25 514.85 518.47 510.43 521.45 507.45 C 523.79 505.12 524.50 505.00 535.95 505.00 L 548.00 505.00 L 548.00 487.50 C 548.00 471.50 547.85 470.00 546.25 470.00 C 542.86 470.00 531.95 464.04 527.18 459.57 C 518.09 451.07 515.00 441.29 515.00 421.06 C 515.00 409.91 515.25 407.91 516.91 405.86 L 518.82 403.50 L 555.23 403.21 C 591.30 402.93 591.67 402.95 594.40 405.10 L 597.16 407.27 L 596.79 423.89 C 596.34 443.70 594.85 448.72 586.86 457.46 C 582.17 462.59 570.06 470.00 566.37 470.00 C 565.26 470.00 565.00 473.38 565.00 487.50 L 565.00 505.00 L 596.01 505.00 L 627.01 505.00 L 626.76 438.75 L 626.50 372.50 L 512.25 372.25 L 398.00 371.99 L 398.00 438.50 L 398.00 505.00 L 424.00 505.00 L 450.00 505.00 L 450.00 487.50 C 450.00 471.17 449.88 470.00 448.16 470.00 C 445.17 470.00 434.59 464.27 429.80 460.05 C 424.60 455.48 419.68 446.70 418.11 439.20 C 417.50 436.29 417.00 428.12 417.00 421.06 C 417.00 409.91 417.25 407.91 418.91 405.86 L 420.82 403.50 L 457.23 403.21 C 493.36 402.93 493.66 402.95 496.42 405.11 L 499.19 407.30 L 498.83 424.40 C 498.50 440.43 498.31 441.86 495.81 447.21 C 494.34 450.35 491.87 454.54 490.32 456.52 C 486.62 461.23 477.46 467.33 471.64 468.96 L 467.00 470.26 L 467.00 487.63 L 467.00 505.00 L 480.55 505.00 C 493.59 505.00 494.18 505.09 496.55 507.45 C 500.49 511.40 499.73 517.05 494.93 519.54 C 492.56 520.76 484.39 521.00 445.05 521.00 L 398.00 521.00 L 398.01 575.75 C 398.01 611.21 398.38 631.84 399.07 634.31 C 400.36 638.97 406.75 645.58 411.21 646.88 C 413.23 647.47 452.69 647.78 513.66 647.67 L 612.83 647.50 L 617.16 644.46 Z M 468.56 452.63 C 474.47 449.87 480.20 443.63 481.84 438.14 C 482.48 436.01 483.00 431.06 483.00 427.13 L 483.00 420.00 L 457.86 420.00 L 432.72 420.00 L 433.24 428.30 C 433.82 437.64 435.85 442.61 441.16 447.69 C 448.81 455.01 459.36 456.91 468.56 452.63 Z M 566.68 452.67 C 576.47 447.60 580.98 439.76 580.99 427.75 L 581.00 420.00 L 555.86 420.00 L 530.72 420.00 L 531.24 428.40 C 532.06 441.50 537.65 449.75 548.50 453.83 C 552.47 455.33 562.81 454.67 566.68 452.67 Z M 626.77 334.75 L 626.50 313.50 L 512.50 313.50 L 398.50 313.50 L 398.23 334.75 L 397.96 356.00 L 512.50 356.00 L 627.04 356.00 L 626.77 334.75 Z M 382.35 290.88 C 383.67 278.31 391.73 266.79 402.78 261.68 L 407.50 259.50 L 512.00 259.50 L 616.50 259.50 L 621.22 261.68 C 630.76 266.09 640.01 277.28 641.37 286.06 C 641.67 287.95 642.17 291.19 642.50 293.25 L 643.09 297.00 L 652.69 297.00 L 662.30 297.00 L 661.71 288.25 C 660.23 266.38 649.13 251.01 628.78 242.67 L 623.50 240.50 L 515.01 240.23 C 439.28 240.04 404.93 240.29 401.25 241.05 C 392.42 242.88 382.81 248.36 376.55 255.11 C 367.34 265.07 363.00 276.20 363.00 289.89 L 363.00 297.00 L 372.36 297.00 L 381.72 297.00 L 382.35 290.88 Z M 626.37 292.75 C 626.01 290.41 625.13 287.33 624.41 285.90 C 622.43 281.96 616.50 277.21 612.09 276.02 C 609.40 275.30 576.65 275.05 509.25 275.23 L 410.35 275.50 L 406.10 278.32 C 401.26 281.52 398.06 287.44 398.02 293.25 L 398.00 297.00 L 512.51 297.00 L 627.02 297.00 L 626.37 292.75 Z M 405.45 761.55 C 402.28 758.37 402.26 753.97 405.41 750.31 C 407.73 747.61 408.19 747.50 417.00 747.50 C 425.44 747.50 426.33 747.69 428.09 749.86 C 431.00 753.45 430.64 759.35 427.37 761.93 C 425.17 763.65 423.31 764.00 416.32 764.00 C 408.72 764.00 407.67 763.76 405.45 761.55 Z M 448.32 763.00 C 445.60 761.90 443.99 759.00 444.03 755.32 C 444.07 751.54 446.08 749.13 450.13 747.96 C 454.85 746.61 572.03 746.68 575.60 748.04 C 577.11 748.61 578.92 749.85 579.64 750.79 C 581.55 753.30 581.28 758.44 579.09 761.14 L 577.18 763.50 L 513.84 763.70 C 478.52 763.81 449.53 763.50 448.32 763.00 Z M 597.63 761.93 C 594.31 759.32 593.94 753.06 596.93 750.07 C 599.21 747.79 606.28 746.55 612.78 747.28 C 621.12 748.22 624.90 756.19 619.55 761.55 C 617.33 763.76 616.28 764.00 608.68 764.00 C 601.69 764.00 599.83 763.65 597.63 761.93 Z M 405.45 729.55 C 403.91 728.00 403.00 725.95 403.00 724.00 C 403.00 722.05 403.91 720.00 405.45 718.45 C 407.70 716.21 408.68 716.00 416.95 716.00 C 427.75 716.00 430.00 717.38 430.00 724.00 C 430.00 730.62 427.75 732.00 416.95 732.00 C 408.68 732.00 407.70 731.79 405.45 729.55 Z M 446.07 729.37 C 444.93 727.92 444.00 725.50 444.00 724.00 C 444.00 722.50 444.93 720.08 446.07 718.63 L 448.15 716.00 L 512.50 716.00 L 576.85 716.00 L 578.93 718.63 C 581.73 722.20 581.58 726.51 578.55 729.55 L 576.09 732.00 L 512.12 732.00 L 448.15 732.00 L 446.07 729.37 Z M 597.00 730.00 C 594.14 727.14 594.30 721.01 597.31 718.17 C 599.32 716.29 600.78 716.00 608.20 716.00 C 618.92 716.00 621.45 717.53 621.45 724.00 C 621.45 730.52 618.95 732.00 607.89 732.00 C 600.33 732.00 598.70 731.70 597.00 730.00 Z M 601.26 700.33 C 595.01 699.45 592.74 691.17 597.45 686.45 C 599.67 684.24 600.72 684.00 608.34 684.00 C 618.15 684.00 620.72 685.37 621.63 691.08 C 622.09 693.94 621.72 695.22 619.74 697.52 C 617.55 700.07 616.55 700.41 610.88 700.58 C 607.37 700.69 603.04 700.58 601.26 700.33 Z M 406.40 699.23 C 402.52 696.65 402.02 689.88 405.45 686.45 C 407.67 684.24 408.72 684.00 416.32 684.00 C 423.31 684.00 425.17 684.35 427.37 686.07 C 430.46 688.51 430.98 694.16 428.44 697.78 C 427.02 699.82 426.09 700.00 417.19 699.98 C 411.86 699.98 407.00 699.64 406.40 699.23 Z M 447.40 699.23 C 443.52 696.65 443.02 689.88 446.45 686.45 L 448.91 684.00 L 512.50 684.00 L 576.09 684.00 L 578.55 686.45 C 581.58 689.49 581.73 693.80 578.93 697.37 L 576.85 700.00 L 512.68 699.98 C 477.38 699.98 448.00 699.64 447.40 699.23 Z M 416.00 551.00 C 413.44 548.44 413.39 542.97 415.91 539.86 L 417.82 537.50 L 508.16 537.21 C 557.85 537.05 599.99 537.19 601.81 537.52 C 603.62 537.84 605.99 538.99 607.06 540.06 C 609.65 542.65 609.62 548.38 607.00 551.00 C 605.03 552.97 603.67 553.00 511.50 553.00 C 419.33 553.00 417.97 552.97 416.00 551.00 Z" stroke-linecap="round"/>
</g>
</g>
</g>

  </svg>