<svg xmlns="http://www.w3.org/2000/svg" xmlns:xlink="http://www.w3.org/1999/xlink" width="1011px" height="1252px" viewBox="0 0 1011.4891554332044 1252.4584947582189">
    <g id="e83d5e70-c67a-4fc2-9e5f-823630a61119">
<g style="">
		<g id="e83d5e70-c67a-4fc2-9e5f-823630a61119-child-0">
<path style="stroke: rgb(193,193,193); stroke-width: 0; stroke-dasharray: none; stroke-linecap: butt; stroke-dashoffset: 0; stroke-linejoin: miter; stroke-miterlimit: 4; fill: rgb(0,0,0); fill-rule: nonzero; opacity: 1;" transform="matrix(1.975565 0 0 1.975565 505.74464 626.229324) matrix(1 0 0 1 0 0)  translate(-512, -511.977456)" d="M 261.76 827.43 C 256.53 824.60 256.00 822.03 256.00 799.68 C 256.00 780.50 256.13 779.11 258.09 776.61 C 261.77 771.94 264.92 771.00 276.95 771.00 L 288.00 771.00 L 288.00 512.07 L 288.00 253.13 L 285.94 252.48 C 284.81 252.12 281.62 252.14 278.86 252.52 C 276.10 252.90 271.30 252.89 268.19 252.50 C 263.52 251.92 261.98 251.20 259.27 248.33 L 256.00 244.86 L 256.00 223.81 L 256.00 202.76 L 259.89 198.88 L 263.78 194.99 L 512.47 195.24 L 761.15 195.50 L 764.58 199.24 L 768.00 202.97 L 768.00 223.91 L 768.00 244.85 L 765.43 247.90 C 762.07 251.89 756.39 253.40 747.71 252.60 C 743.98 252.26 739.82 252.26 738.46 252.60 L 736.00 253.22 L 736.00 512.11 L 736.00 771.00 L 747.05 771.00 C 759.08 771.00 762.23 771.94 765.91 776.61 C 767.88 779.12 768.00 780.49 768.00 800.41 C 768.00 823.53 767.78 824.51 761.99 827.51 C 759.45 828.82 729.30 829.00 511.80 828.96 C 295.01 828.92 264.16 828.74 261.76 827.43 Z M 748.00 800.00 L 748.00 793.00 L 685.25 792.91 C 506.36 792.66 277.80 793.01 276.96 793.53 C 276.43 793.85 276.00 797.02 276.00 800.56 L 276.00 807.00 L 512.00 807.00 L 748.00 807.00 L 748.00 800.00 Z M 318.16 767.75 C 319.43 765.96 328.56 755.50 338.45 744.50 C 384.00 693.85 404.48 671.77 406.71 670.92 C 409.84 669.73 415.65 669.74 417.89 670.94 C 418.85 671.46 425.46 678.32 432.57 686.19 C 467.53 724.89 475.43 733.65 487.03 746.56 C 493.92 754.23 501.53 762.86 503.94 765.75 C 507.96 770.58 508.65 771.00 512.59 771.00 C 516.28 771.00 517.17 770.56 519.12 767.75 C 520.37 765.96 526.58 758.72 532.94 751.65 C 585.39 693.37 603.78 673.27 606.24 671.55 C 609.53 669.24 616.12 669.58 619.86 672.25 C 622.74 674.31 646.28 700.14 691.86 751.25 C 706.71 767.90 709.91 771.00 712.24 771.00 L 715.00 771.00 L 715.00 530.06 C 715.00 361.87 714.68 288.92 713.94 288.46 C 711.87 287.18 708.44 289.14 704.62 293.79 C 700.89 298.32 695.22 304.64 644.16 361.13 C 630.24 376.53 619.78 387.26 617.97 388.01 C 613.53 389.85 607.33 388.68 603.79 385.33 C 599.49 381.25 524.35 297.82 520.66 293.02 C 517.76 289.25 517.26 289.00 512.42 289.00 L 507.27 289.00 L 494.41 303.75 C 482.45 317.46 445.95 358.18 427.69 378.18 C 423.34 382.95 418.47 387.39 416.87 388.05 C 412.87 389.71 406.32 388.64 403.27 385.83 C 400.22 383.02 350.43 328.22 329.57 304.70 C 316.75 290.26 314.30 287.94 312.08 288.20 L 309.50 288.50 L 309.24 528.50 C 309.10 660.50 309.20 769.06 309.46 769.75 C 309.72 770.44 311.27 771.00 312.90 771.00 C 315.11 771.00 316.45 770.17 318.16 767.75 Z M 479.00 770.13 C 479.00 768.94 413.05 696.00 411.97 696.00 C 410.90 696.00 344.00 769.30 344.00 770.47 C 344.00 770.76 374.38 771.00 411.50 771.00 C 448.95 771.00 479.00 770.61 479.00 770.13 Z M 680.00 770.25 C 679.99 769.84 674.26 763.18 667.25 755.45 C 660.24 747.72 645.28 731.17 634.00 718.67 C 622.73 706.17 613.01 696.07 612.41 696.22 C 611.43 696.47 594.57 714.73 557.25 755.95 C 550.51 763.39 545.00 769.82 545.00 770.24 C 545.00 770.66 575.38 771.00 612.50 771.00 C 649.62 771.00 680.00 770.66 680.00 770.25 Z M 636.68 337.70 C 649.18 323.84 664.10 307.43 669.84 301.23 C 675.59 295.03 679.96 289.63 679.56 289.23 C 678.57 288.23 549.82 287.76 547.17 288.74 C 545.28 289.44 547.01 291.67 564.17 310.51 C 574.68 322.05 589.81 338.80 597.79 347.72 C 605.76 356.64 612.67 363.71 613.13 363.42 C 613.59 363.14 624.19 351.56 636.68 337.70 Z M 421.27 353.75 C 460.87 310.31 479.09 289.76 478.51 289.18 C 477.56 288.23 345.80 287.78 344.95 288.73 C 344.12 289.64 409.96 362.88 411.67 362.95 C 412.31 362.98 416.63 358.84 421.27 353.75 Z M 714.80 259.75 L 715.09 253.00 L 512.05 253.00 L 309.00 253.00 L 309.00 259.33 C 309.00 262.82 309.30 265.97 309.67 266.34 C 310.04 266.70 401.27 266.89 512.42 266.75 L 714.50 266.50 L 714.80 259.75 Z M 748.00 224.00 L 748.00 217.00 L 512.25 217.25 L 276.50 217.50 L 276.19 222.88 C 276.02 225.84 276.12 228.88 276.41 229.63 C 276.85 230.78 314.03 231.00 512.47 231.00 L 748.00 231.00 L 748.00 224.00 Z M 504.72 742.25 C 499.79 738.47 428.43 659.73 426.44 655.88 C 424.39 651.92 424.38 645.10 426.42 641.16 C 428.18 637.74 426.88 639.22 472.10 589.38 C 490.03 569.62 505.92 552.90 507.40 552.23 C 514.50 548.99 518.36 551.31 533.00 567.60 C 556.58 593.83 583.43 623.50 589.79 630.35 C 598.03 639.22 599.99 642.55 600.00 647.68 C 600.00 653.33 598.99 655.63 593.87 661.66 C 580.10 677.86 520.36 742.28 517.96 743.52 C 513.50 745.83 508.78 745.37 504.72 742.25 Z M 525.07 706.00 C 538.91 690.38 573.42 652.70 575.34 651.13 C 576.25 650.37 577.00 649.32 577.00 648.79 C 577.00 647.27 513.42 576.94 512.17 577.07 C 511.80 577.11 505.65 583.77 498.50 591.88 C 491.35 599.99 477.17 615.76 467.00 626.92 C 456.83 638.08 448.50 647.80 448.50 648.50 C 448.50 649.76 453.84 655.82 492.89 698.82 C 511.52 719.33 512.34 720.10 514.02 718.33 C 514.98 717.33 519.95 711.78 525.07 706.00 Z M 328.36 720.54 C 323.98 717.47 323.95 716.86 324.23 645.15 L 324.50 576.82 L 326.92 574.86 C 328.63 573.48 330.53 572.99 333.39 573.20 C 337.32 573.49 338.28 574.43 366.68 605.50 C 395.00 636.48 400.03 642.92 399.97 648.07 C 399.92 653.22 395.79 658.76 374.50 682.22 C 338.90 721.45 338.34 722.00 334.09 722.00 C 332.09 722.00 329.51 721.34 328.36 720.54 Z M 361.37 665.04 C 369.41 656.27 376.00 648.62 376.00 648.06 C 376.00 646.41 346.84 614.98 345.87 615.58 C 345.39 615.87 345.00 630.42 345.00 647.89 C 345.00 675.13 345.27 681.00 346.53 681.00 C 346.64 681.00 353.32 673.82 361.37 665.04 Z M 683.25 718.23 C 681.19 716.16 670.99 705.02 660.58 693.48 C 650.18 681.94 639.08 669.80 635.92 666.50 C 627.32 657.50 625.00 653.57 625.00 647.97 C 625.00 641.68 626.66 639.46 651.89 611.83 C 685.65 574.88 687.57 573.00 691.61 573.00 C 694.09 573.00 695.80 573.76 697.55 575.65 L 700.00 578.29 L 700.00 647.51 L 700.00 716.73 L 697.36 719.36 C 693.26 723.47 688.04 723.05 683.25 718.23 Z M 679.00 648.00 C 679.00 629.85 678.83 615.00 678.63 615.00 C 678.43 615.00 671.59 622.26 663.45 631.13 C 649.19 646.64 648.69 647.34 650.07 649.55 C 652.08 652.77 677.34 680.93 678.25 680.97 C 678.66 680.99 679.00 666.15 679.00 648.00 Z M 405.93 624.52 C 404.52 623.75 393.04 611.74 380.43 597.82 C 367.82 583.91 351.09 565.45 343.25 556.81 C 335.41 548.16 327.87 539.43 326.50 537.40 C 323.50 532.98 323.20 526.93 325.75 522.29 C 327.25 519.57 358.56 484.35 377.57 464.00 C 380.91 460.42 388.06 452.55 393.46 446.50 C 398.86 440.45 404.45 434.72 405.89 433.76 C 408.92 431.74 413.79 431.49 417.49 433.18 C 420.17 434.40 494.87 516.20 498.14 521.50 C 500.50 525.32 500.55 532.53 498.25 536.73 C 496.03 540.79 423.96 620.74 419.80 623.75 C 416.22 626.35 409.94 626.70 405.93 624.52 Z M 415.68 597.66 C 417.23 595.82 427.49 584.45 438.49 572.41 C 449.48 560.36 462.68 545.88 467.81 540.23 C 472.95 534.58 477.01 529.54 476.83 529.03 C 476.45 527.97 417.32 462.50 414.11 459.60 C 412.03 457.72 411.99 457.73 408.13 462.10 C 406.00 464.52 391.40 480.67 375.69 497.99 L 347.12 529.49 L 349.31 532.15 C 350.51 533.62 362.98 547.35 377.00 562.67 C 391.02 577.98 404.52 592.88 407.00 595.76 C 409.48 598.64 411.80 601.00 412.18 601.00 C 412.55 601.00 414.12 599.49 415.68 597.66 Z M 606.30 624.80 C 604.33 623.85 593.01 611.70 558.00 572.97 C 552.22 566.59 542.93 556.39 537.34 550.31 C 531.76 544.24 526.47 537.88 525.59 536.18 C 523.14 531.44 523.56 525.94 526.75 521.25 C 529.22 517.61 583.59 456.91 598.49 441.15 C 601.80 437.66 605.81 434.12 607.41 433.29 C 611.27 431.29 617.48 432.17 620.70 435.17 C 625.23 439.39 697.47 520.10 698.71 522.32 C 700.67 525.83 700.26 533.07 697.87 536.98 C 695.54 540.80 694.33 542.18 652.22 588.97 C 636.11 606.86 621.53 622.51 619.82 623.75 C 616.43 626.20 610.19 626.68 606.30 624.80 Z M 644.12 566.38 C 661.38 547.33 675.87 531.12 676.32 530.34 C 676.90 529.35 674.67 526.23 668.75 519.72 C 664.14 514.65 649.66 498.66 636.59 484.20 C 623.51 469.73 612.44 458.03 612.00 458.20 C 611.55 458.36 601.84 468.85 590.42 481.50 C 578.99 494.15 564.53 510.03 558.27 516.79 L 546.89 529.09 L 551.20 533.85 C 577.75 563.26 612.16 601.00 612.42 601.00 C 612.60 601.00 626.87 585.42 644.12 566.38 Z M 506.32 505.31 C 503.71 503.83 471.30 468.67 435.43 428.43 C 425.64 417.45 425.00 416.34 425.00 410.53 C 425.01 402.88 420.85 408.00 478.39 344.71 C 493.54 328.04 506.53 314.61 508.13 313.95 C 509.69 313.30 512.48 313.05 514.33 313.40 C 518.05 314.10 521.85 317.83 545.04 343.51 C 552.48 351.75 567.11 367.87 577.54 379.33 C 587.97 390.78 597.29 401.58 598.25 403.31 C 600.38 407.16 600.50 413.51 598.52 417.32 C 597.71 418.87 593.52 424.04 589.20 428.82 C 556.17 465.32 521.06 503.73 519.67 504.87 C 516.91 507.14 509.93 507.37 506.32 505.31 Z M 547.41 443.61 C 563.41 426.06 576.44 411.15 576.38 410.45 C 576.31 409.76 561.93 393.42 544.42 374.13 C 513.66 340.25 512.52 339.12 510.67 340.78 C 509.62 341.73 503.75 348.12 497.63 355.00 C 491.51 361.88 477.81 377.07 467.18 388.77 C 456.55 400.47 448.00 410.45 448.17 410.95 C 448.35 411.44 456.83 420.97 467.00 432.11 C 477.17 443.26 491.56 459.08 498.98 467.28 L 512.45 482.18 L 515.39 478.84 C 517.00 477.00 531.41 461.15 547.41 443.61 Z M 328.75 483.92 C 323.98 481.14 324.00 481.46 324.00 410.50 C 324.00 337.67 323.85 339.55 329.80 337.08 C 335.07 334.90 337.28 336.47 353.30 353.85 C 400.27 404.80 401.21 406.04 398.94 414.25 C 397.69 418.77 397.63 418.85 370.64 448.81 C 337.88 485.19 338.07 485.01 333.97 484.97 C 332.06 484.95 329.71 484.48 328.75 483.92 Z M 362.93 426.06 C 370.14 418.12 375.92 411.31 375.77 410.92 C 375.62 410.53 368.98 403.01 361.00 394.20 L 346.50 378.20 L 345.81 381.85 C 344.91 386.58 344.83 414.93 345.66 431.31 C 346.29 443.55 346.39 444.05 348.07 442.31 C 349.03 441.32 355.72 434.00 362.93 426.06 Z M 680.00 477.25 C 665.15 462.02 629.46 421.78 627.25 417.77 C 624.57 412.91 624.46 409.79 626.78 404.78 C 629.51 398.88 684.67 338.46 688.73 336.91 C 692.05 335.65 695.66 336.75 698.02 339.75 C 699.95 342.21 700.00 343.97 700.00 410.95 L 700.00 479.63 L 697.20 482.31 C 695.27 484.16 693.32 485.00 690.98 485.00 C 688.03 485.00 686.52 483.93 680.00 477.25 Z M 678.98 410.75 L 678.95 377.50 L 674.73 382.03 C 659.85 397.97 649.00 410.13 649.00 410.83 C 649.00 411.72 677.74 444.00 678.53 444.00 C 678.79 444.00 678.99 429.04 678.98 410.75 Z M 499.88 672.21 C 480.93 662.31 481.25 633.68 500.43 623.80 C 514.53 616.54 533.17 624.45 537.56 639.57 C 540.50 649.66 537.54 661.38 530.34 668.19 C 522.63 675.50 509.49 677.23 499.88 672.21 Z M 515.43 651.43 C 517.71 649.15 517.36 646.28 514.57 644.45 C 511.27 642.29 508.00 643.97 508.00 647.84 C 508.00 652.66 512.18 654.68 515.43 651.43 Z M 406.50 556.12 C 393.94 552.81 386.00 542.51 386.00 529.50 C 386.00 514.01 396.84 503.00 412.07 503.00 C 420.16 503.00 424.69 504.75 430.53 510.13 C 447.34 525.63 437.19 554.54 414.25 556.50 C 411.64 556.72 408.15 556.55 406.50 556.12 Z M 415.07 533.96 C 418.06 532.36 417.66 527.26 414.42 525.78 C 411.17 524.30 408.62 525.71 408.20 529.23 C 407.90 531.69 410.16 535.00 412.14 535.00 C 412.68 535.00 414.00 534.53 415.07 533.96 Z M 606.50 556.11 C 593.65 552.76 586.04 542.87 586.04 529.50 C 586.04 513.73 596.96 502.66 612.50 502.68 C 619.52 502.69 624.17 504.45 629.48 509.12 C 640.77 519.03 640.93 540.15 629.79 549.52 C 623.01 555.23 613.48 557.93 606.50 556.11 Z M 615.17 533.35 C 617.54 531.20 617.49 528.76 615.04 526.54 C 612.36 524.11 608.24 525.20 607.40 528.56 C 606.97 530.27 607.33 531.71 608.54 533.04 C 610.70 535.44 612.76 535.53 615.17 533.35 Z M 502.29 435.89 C 496.06 433.50 488.95 426.13 487.19 420.24 C 479.95 396.06 503.89 375.71 525.33 387.82 C 543.53 398.10 542.81 425.00 524.07 434.75 C 516.61 438.63 510.28 438.96 502.29 435.89 Z M 514.78 414.44 C 517.69 412.40 517.60 409.44 514.57 407.45 C 512.67 406.21 511.67 406.10 510.07 406.96 C 507.45 408.36 507.25 413.46 509.75 414.92 C 512.06 416.27 512.19 416.25 514.78 414.44 Z" stroke-linecap="round"/>
</g>
</g>
</g>

  </svg>