<svg xmlns="http://www.w3.org/2000/svg" xmlns:xlink="http://www.w3.org/1999/xlink" width="460px" height="500px" viewBox="0 0 459.56549868109596 500">
    <g id="0d0be7c2-3144-46af-a6e5-376d38572db1">
<g style="">
		<g id="0d0be7c2-3144-46af-a6e5-376d38572db1-child-0">
<path style="stroke: rgb(193,193,193); stroke-width: 0; stroke-dasharray: none; stroke-linecap: butt; stroke-dashoffset: 0; stroke-linejoin: miter; stroke-miterlimit: 4; fill: rgb(0,0,0); fill-rule: nonzero; opacity: 1;" transform="matrix(0.971296 0 0 0.971296 229.782802 250.000057) matrix(1 0 0 1 0 0)  translate(-512.150346, -512.554015)" d="M 362.36 768.91 C 357.53 767.51 349.91 761.96 346.31 757.21 C 341.11 750.35 340.00 744.90 339.99 726.07 L 339.98 709.50 L 335.74 707.50 C 329.81 704.70 320.11 694.66 316.20 687.27 C 310.41 676.33 310.04 672.42 310.02 622.86 L 310.00 578.22 L 307.25 577.53 C 298.06 575.24 285.86 564.43 280.60 553.92 C 266.86 526.46 282.45 494.50 313.46 486.53 C 316.74 485.69 320.68 485.00 322.21 485.00 C 324.45 485.00 325.00 484.55 325.00 482.72 C 325.00 481.46 320.49 451.65 314.98 416.47 C 297.19 302.91 297.80 307.18 298.28 298.50 C 299.03 285.01 304.57 274.45 315.66 265.42 C 323.75 258.82 330.58 256.56 342.50 256.53 C 352.00 256.50 352.89 256.68 360.28 260.22 C 372.42 266.01 380.83 275.55 384.91 288.15 L 386.09 291.81 L 401.30 284.53 C 442.84 264.65 471.99 256.43 505.00 255.30 C 530.53 254.42 553.38 257.84 579.50 266.47 C 593.23 271.00 615.82 280.38 629.07 287.03 C 633.42 289.22 637.33 290.95 637.75 290.88 C 638.16 290.80 639.42 288.20 640.54 285.11 C 645.37 271.77 654.84 262.78 669.17 257.93 C 674.27 256.21 677.19 255.87 684.16 256.20 C 691.70 256.55 693.80 257.09 700.42 260.37 C 710.40 265.30 717.21 272.13 721.89 281.93 C 725.44 289.38 725.50 289.68 725.40 301.50 C 725.32 311.23 723.86 322.58 717.69 361.50 C 708.34 420.51 704.59 444.37 701.10 467.00 L 698.40 484.50 L 703.95 485.24 C 717.42 487.04 731.19 494.47 738.23 503.75 C 752.22 522.18 752.22 545.01 738.24 562.61 C 733.70 568.32 723.84 575.37 717.90 577.15 L 714.00 578.32 L 713.98 622.91 C 713.96 671.82 713.59 675.94 708.18 686.62 C 704.27 694.37 698.36 700.93 690.72 706.02 L 684.50 710.18 L 683.99 728.84 C 683.50 746.61 683.35 747.74 680.82 752.56 C 677.50 758.87 671.39 764.47 664.27 767.73 C 659.47 769.93 657.79 770.18 650.65 769.79 C 637.92 769.09 628.67 763.13 623.28 752.16 C 620.70 746.90 620.46 745.39 620.00 731.00 L 619.50 715.50 L 511.84 715.25 L 404.18 714.99 L 403.83 730.75 C 403.43 748.58 402.37 752.26 395.36 760.03 C 389.60 766.42 381.27 770.02 372.50 769.91 C 368.65 769.86 364.09 769.41 362.36 768.91 Z M 377.78 743.68 C 379.96 741.69 380.04 741.03 379.78 728.55 L 379.50 715.50 L 372.00 715.50 L 364.50 715.50 L 364.22 727.88 C 363.99 737.85 364.25 740.73 365.53 742.68 C 368.56 747.31 373.39 747.71 377.78 743.68 Z M 655.08 746.00 C 655.59 746.00 656.90 745.10 658.00 744.00 C 659.80 742.20 660.00 740.67 660.00 728.46 L 660.00 714.92 L 652.25 715.21 L 644.50 715.50 L 644.25 727.50 C 644.08 735.69 644.40 740.29 645.27 741.98 C 646.70 744.77 650.82 747.23 652.83 746.49 C 653.56 746.22 654.58 746.00 655.08 746.00 Z M 363.98 619.75 C 363.96 542.79 363.83 540.51 358.61 530.22 C 354.85 522.80 347.17 515.44 339.37 511.79 C 330.73 507.75 320.91 507.41 313.67 510.92 C 304.03 515.58 298.04 525.97 299.37 535.68 C 300.67 545.19 307.02 552.40 317.18 555.89 C 325.40 558.72 328.60 560.62 331.17 564.23 L 333.50 567.50 L 334.00 618.50 L 334.50 669.50 L 336.89 674.79 C 341.02 683.93 350.86 690.72 360.25 690.92 L 364.00 691.00 L 363.98 619.75 Z M 636.00 681.50 L 636.00 672.00 L 512.00 672.00 L 388.00 672.00 L 388.00 681.50 L 388.00 691.00 L 512.00 691.00 L 636.00 691.00 L 636.00 681.50 Z M 674.60 687.85 C 680.18 685.22 684.69 680.69 687.38 675.00 C 689.43 670.64 689.52 668.87 690.00 619.50 C 690.46 572.86 690.65 568.22 692.30 565.21 C 694.39 561.38 698.61 558.54 705.12 556.58 C 714.62 553.72 719.38 549.81 722.92 542.00 C 726.49 534.12 725.24 524.62 719.83 518.46 C 715.24 513.23 711.86 511.18 704.94 509.41 C 689.58 505.47 672.72 514.69 664.96 531.28 C 663.35 534.71 661.58 539.93 661.02 542.89 C 660.39 546.24 660.00 575.32 660.00 619.77 L 660.00 691.26 L 665.12 690.58 C 667.93 690.21 672.20 688.98 674.60 687.85 Z M 636.00 639.50 L 636.00 630.00 L 512.00 630.00 L 388.00 630.00 L 388.00 639.50 L 388.00 649.00 L 512.00 649.00 L 636.00 649.00 L 636.00 639.50 Z M 636.00 461.51 L 636.00 317.02 L 626.25 312.13 C 596.66 297.30 567.30 286.12 547.50 282.12 C 501.52 272.84 465.74 279.48 406.75 308.21 L 388.00 317.35 L 388.00 461.67 L 388.00 606.00 L 512.00 606.00 L 636.00 606.00 L 636.00 461.51 Z M 363.77 379.00 C 363.52 302.96 363.38 297.23 361.70 293.50 C 357.92 285.11 350.46 280.00 342.01 280.00 C 335.49 280.00 331.25 281.81 327.34 286.27 C 322.81 291.43 321.62 295.93 322.41 304.91 C 322.78 309.08 329.28 352.53 336.85 401.45 L 350.61 490.40 L 357.06 495.12 L 363.50 499.83 L 363.77 480.16 C 363.93 469.35 363.93 423.83 363.77 379.00 Z M 662.55 497.92 C 662.91 497.33 665.50 495.38 668.30 493.58 L 673.39 490.31 L 677.09 465.91 C 679.13 452.48 685.56 410.64 691.40 372.93 C 697.23 335.22 702.00 302.46 702.00 300.15 C 702.00 287.50 690.54 277.65 678.44 279.91 C 671.52 281.21 666.62 285.03 663.35 291.70 L 660.50 297.50 L 660.23 398.25 C 660.05 462.44 660.30 499.00 660.92 499.00 C 661.45 499.00 662.18 498.52 662.55 497.92 Z M 414.22 345.44 C 411.41 343.47 409.00 338.88 409.00 335.50 C 409.00 330.72 411.76 327.15 417.77 324.14 C 429.27 318.40 461.66 305.00 464.05 305.00 C 467.21 305.01 472.54 308.26 474.07 311.14 C 475.75 314.27 475.57 320.48 473.72 323.31 C 472.63 324.96 464.89 328.91 448.12 336.34 C 423.05 347.46 418.75 348.61 414.22 345.44 Z M 576.01 336.46 C 562.74 330.62 551.75 325.17 550.76 323.95 C 548.41 321.05 548.50 314.33 550.93 310.35 C 553.13 306.75 558.69 304.46 562.80 305.47 C 564.29 305.84 575.17 310.24 587.00 315.27 C 612.09 325.93 615.00 328.03 615.00 335.50 C 615.00 339.51 614.50 340.70 611.60 343.60 C 606.12 349.08 603.40 348.53 576.01 336.46 Z" stroke-linecap="round"/>
</g>
</g>
</g>

  </svg>