<svg xmlns="http://www.w3.org/2000/svg" xmlns:xlink="http://www.w3.org/1999/xlink" width="500px" height="300px" viewBox="0 0 500 299.70873435838894">
    <g id="4e462e22-f4d3-48fb-bb6c-d6e82f1cc205">
<g style="">
		<g id="4e462e22-f4d3-48fb-bb6c-d6e82f1cc205-child-0">
<path style="stroke: rgb(193,193,193); stroke-width: 0; stroke-dasharray: none; stroke-linecap: butt; stroke-dashoffset: 0; stroke-linejoin: miter; stroke-miterlimit: 4; fill: rgb(0,0,0); fill-rule: nonzero; opacity: 1;" transform="matrix(0.886884 0 0 0.886884 250.000011 149.854373) matrix(1 0 0 1 0 0)  translate(-511.970799, -511.977741)" d="M 255.32 679.56 C 246.18 676.70 237.74 669.01 233.30 659.50 L 230.50 653.50 L 230.20 619.59 C 229.92 587.84 230.03 585.27 231.93 579.09 C 234.41 571.06 238.28 564.28 244.55 557.00 C 247.15 553.97 277.25 522.47 311.43 487.00 C 345.61 451.52 385.63 409.90 400.36 394.50 C 435.32 357.95 439.43 354.07 447.91 349.62 C 461.07 342.70 452.56 343.04 616.57 343.02 C 779.29 343.00 769.58 342.64 779.33 349.09 C 784.46 352.50 789.10 358.52 791.77 365.24 C 793.27 369.01 793.50 375.54 793.78 421.85 C 794.00 457.89 793.75 475.89 792.98 479.61 C 790.72 490.48 785.88 497.96 771.17 513.28 C 763.65 521.11 730.51 555.64 697.53 590.01 C 621.04 669.71 619.96 670.78 612.13 674.90 C 599.82 681.37 611.58 680.98 427.50 680.92 C 292.20 680.88 258.69 680.61 255.32 679.56 Z M 597.43 662.85 C 598.82 662.21 600.22 660.89 600.53 659.90 C 601.16 657.91 583.41 587.23 581.78 585.25 C 580.97 584.26 546.49 584.00 415.50 584.00 C 263.08 584.00 250.14 584.13 248.87 585.65 C 247.05 587.85 246.32 642.18 248.02 649.00 C 249.52 654.97 253.34 659.80 258.38 662.09 C 262.35 663.89 268.54 663.96 428.70 663.98 C 552.02 663.99 595.56 663.70 597.43 662.85 Z M 622.56 643.75 C 624.64 641.41 652.03 612.76 683.42 580.08 C 764.21 495.99 768.99 490.94 771.77 486.75 C 774.34 482.89 776.74 474.40 776.50 470.00 C 776.43 468.62 776.27 449.05 776.14 426.50 L 775.91 385.50 L 767.21 394.57 C 762.42 399.56 731.72 431.51 698.99 465.57 C 603.06 565.41 596.80 572.04 597.23 573.30 C 597.46 573.96 601.89 591.04 607.07 611.25 C 612.50 632.39 616.98 647.99 617.63 648.00 C 618.26 648.00 620.47 646.09 622.56 643.75 Z M 589.69 555.00 C 595.64 548.68 611.08 532.47 624.00 518.99 C 636.92 505.51 667.96 473.11 692.97 446.99 C 717.98 420.87 745.82 392.01 754.83 382.86 C 772.31 365.10 773.18 363.56 767.22 361.09 C 765.24 360.27 723.82 360.04 614.45 360.23 L 464.40 360.50 L 456.86 364.23 C 449.76 367.73 447.71 369.64 421.91 396.71 C 406.83 412.52 387.75 432.45 379.50 440.99 C 338.94 482.96 285.00 538.99 273.11 551.50 L 259.81 565.50 L 266.16 566.09 C 269.64 566.41 341.44 566.63 425.69 566.59 L 578.89 566.50 L 589.69 555.00 Z M 286.04 649.93 C 276.68 648.05 267.29 639.51 264.93 630.72 C 263.44 625.22 264.16 615.43 266.39 610.82 C 267.36 608.80 269.78 605.48 271.75 603.45 C 286.18 588.59 312.06 594.16 318.67 613.55 C 320.69 619.47 320.02 629.09 317.22 634.53 C 311.45 645.70 298.03 652.34 286.04 649.93 Z M 299.05 630.25 C 301.24 628.29 302.29 626.29 302.69 623.28 C 303.21 619.43 302.94 618.74 299.73 615.53 C 295.02 610.82 289.60 610.60 284.77 614.92 C 281.96 617.42 281.50 618.50 281.50 622.50 C 281.50 626.50 281.96 627.58 284.77 630.08 C 289.20 634.05 294.72 634.11 299.05 630.25 Z M 380.92 628.08 C 379.16 626.31 378.00 624.10 378.00 622.50 C 378.00 620.90 379.16 618.69 380.92 616.92 L 383.85 614.00 L 461.87 614.00 L 539.89 614.00 L 542.54 616.28 C 546.36 619.57 546.42 625.39 542.65 628.63 L 539.89 631.00 L 461.87 631.00 L 383.85 631.00 L 380.92 628.08 Z M 624.89 592.54 C 621.73 590.78 619.65 586.19 620.52 582.90 C 620.87 581.58 629.62 571.74 639.97 561.02 C 658.56 541.78 658.84 541.55 663.00 541.55 C 666.37 541.55 667.69 542.10 669.61 544.33 C 674.44 549.95 673.65 551.41 655.12 570.82 C 645.83 580.54 637.15 589.51 635.82 590.73 C 632.68 593.64 628.19 594.38 624.89 592.54 Z M 713.45 497.55 C 711.92 496.01 711.00 493.95 711.00 492.02 C 711.00 488.39 713.21 485.76 733.93 464.75 C 746.90 451.60 748.84 450.00 751.81 450.00 C 756.34 450.00 761.00 454.60 761.00 459.06 C 761.00 461.90 758.79 464.52 742.31 481.14 C 724.49 499.12 723.43 500.00 719.76 500.00 C 717.00 500.00 715.21 499.30 713.45 497.55 Z M 330.16 550.40 C 326.91 548.12 325.71 544.40 326.99 540.54 C 327.62 538.61 332.88 532.57 340.36 525.18 C 351.01 514.65 353.12 513.00 355.92 513.00 C 360.31 513.00 365.00 517.65 365.00 522.01 C 365.00 524.67 363.24 527.01 353.83 536.83 C 347.69 543.25 341.73 549.28 340.58 550.23 C 337.96 552.40 333.14 552.48 330.16 550.40 Z M 404.00 550.29 C 400.34 548.96 398.00 545.63 398.00 541.77 C 398.00 538.12 398.93 536.94 414.19 521.20 C 423.09 512.01 431.60 503.88 433.09 503.12 C 438.74 500.23 445.00 504.35 445.00 510.97 C 445.00 514.71 444.24 515.73 431.56 528.75 C 424.17 536.35 417.12 543.85 415.90 545.41 C 414.67 546.97 412.18 548.86 410.36 549.62 C 406.84 551.09 406.33 551.15 404.00 550.29 Z M 544.71 542.99 C 541.61 540.55 540.42 535.96 542.08 532.81 C 543.84 529.47 573.90 498.83 577.48 496.72 C 583.03 493.45 590.00 497.41 590.00 503.83 C 590.00 507.67 589.97 507.71 566.85 531.75 C 555.38 543.68 553.76 545.00 550.69 545.00 C 548.78 545.00 546.14 544.11 544.71 542.99 Z M 503.21 517.95 C 499.99 516.66 497.71 510.89 499.04 507.41 C 499.60 505.93 508.98 495.67 519.87 484.61 C 530.77 473.55 544.32 459.66 549.99 453.75 C 559.87 443.44 560.47 443.00 564.47 443.00 C 570.73 443.00 574.97 448.32 572.95 453.63 C 572.40 455.07 559.74 468.80 544.81 484.14 C 529.88 499.48 517.04 512.93 516.27 514.02 C 514.61 516.40 509.81 519.03 507.30 518.94 C 506.31 518.90 504.47 518.46 503.21 517.95 Z M 395.40 486.59 C 391.90 485.04 391.00 483.36 391.00 478.36 C 391.00 475.33 392.25 473.55 400.62 464.69 C 405.91 459.08 411.42 453.49 412.87 452.25 C 420.18 446.02 431.08 454.28 426.63 462.68 C 424.35 467.00 403.83 486.81 401.00 487.42 C 399.62 487.72 397.10 487.35 395.40 486.59 Z M 624.50 465.08 C 620.39 463.35 618.55 459.94 618.88 454.66 C 618.95 453.65 632.16 439.25 648.25 422.66 C 700.08 369.21 695.05 374.00 699.32 374.00 C 704.40 374.00 708.00 377.54 708.00 382.54 C 708.00 386.42 711.05 383.10 643.50 452.63 C 631.51 464.97 628.67 466.83 624.50 465.08 Z M 484.50 461.85 C 481.31 460.10 480.00 457.87 480.00 454.19 C 480.00 450.41 476.43 454.39 526.34 402.50 C 540.09 388.20 552.57 375.88 554.07 375.12 C 559.66 372.28 566.00 376.35 566.00 382.76 C 566.00 386.80 565.97 386.84 507.32 447.25 C 491.30 463.76 489.78 464.73 484.50 461.85 Z M 453.71 421.99 C 450.60 419.54 449.42 414.96 451.09 411.81 C 452.77 408.62 483.71 376.81 486.70 375.18 C 492.01 372.31 499.00 377.01 499.00 383.46 C 499.00 386.24 496.68 389.02 480.75 405.35 C 464.69 421.82 462.13 424.06 459.38 424.03 C 457.67 424.01 455.12 423.09 453.71 421.99 Z M 610.50 408.84 C 607.30 406.93 606.07 404.75 606.03 400.98 C 606.00 397.85 607.18 396.24 616.75 386.31 C 622.66 380.18 628.55 374.64 629.84 374.00 C 635.16 371.35 642.00 375.95 642.00 382.17 C 642.00 385.69 641.11 386.90 630.75 397.52 C 621.52 406.98 618.87 409.14 616.00 409.54 C 614.08 409.82 611.60 409.50 610.50 408.84 Z" stroke-linecap="round"/>
</g>
</g>
</g>

  </svg>