<svg xmlns="http://www.w3.org/2000/svg" xmlns:xlink="http://www.w3.org/1999/xlink" width="500px" height="401px" viewBox="0 0 500 401.3746109426925">
    <g id="45a3dcfc-39a8-4ee1-b15a-f5cbfcf494b5">
<g style="">
		<g id="45a3dcfc-39a8-4ee1-b15a-f5cbfcf494b5-child-0">
<path style="stroke: rgb(193,193,193); stroke-width: 0; stroke-dasharray: none; stroke-linecap: butt; stroke-dashoffset: 0; stroke-linejoin: miter; stroke-miterlimit: 4; fill: rgb(0,0,0); fill-rule: nonzero; opacity: 1;" transform="matrix(0.888029 0 0 0.888029 249.999977 200.687287) matrix(1 0 0 1 0 0)  translate(-512.401586, -512.008184)" d="M 233.50 735.75 C 228.87 731.77 230.70 722.87 236.44 721.43 C 237.77 721.09 243.83 720.97 249.90 721.16 C 262.23 721.54 264.36 722.57 265.59 728.71 C 266.13 731.41 265.75 732.40 263.19 734.96 L 260.15 738.00 L 248.13 738.00 C 237.11 738.00 235.89 737.81 233.50 735.75 Z M 289.45 735.55 C 285.84 731.93 286.10 726.93 290.08 723.59 C 292.69 721.39 294.12 721.00 299.58 721.00 L 306.01 721.00 L 305.76 631.25 L 305.50 541.50 L 298.19 541.00 C 287.78 540.29 287.05 539.16 287.02 523.75 L 287.00 512.00 L 280.92 512.00 C 275.54 512.00 274.51 511.67 271.92 509.08 L 269.00 506.15 L 269.00 490.01 C 269.00 480.85 269.45 473.04 270.03 471.94 C 272.23 467.84 276.02 467.00 292.45 467.00 L 308.00 467.00 L 308.00 456.52 C 308.00 446.35 308.09 445.93 310.92 442.77 L 313.83 439.50 L 345.92 439.21 L 378.00 438.92 L 378.00 428.54 C 378.00 418.83 378.17 417.95 380.59 415.08 C 383.73 411.35 388.40 410.95 392.37 414.07 C 394.94 416.10 395.00 416.42 395.00 427.57 L 395.00 439.00 L 406.43 439.00 C 418.77 439.00 421.66 439.65 424.90 443.13 C 426.76 445.12 427.00 446.59 427.00 456.19 L 427.00 467.00 L 534.50 467.00 L 642.00 467.00 L 642.00 456.43 C 642.00 450.62 642.49 444.96 643.08 443.85 C 644.54 441.12 649.96 439.00 655.47 439.00 L 660.00 439.00 L 660.00 393.00 L 660.00 347.00 L 624.39 347.00 C 590.89 347.00 588.83 347.10 589.47 348.75 C 589.84 349.71 590.40 353.52 590.71 357.20 C 591.38 365.02 590.07 369.10 585.96 372.03 C 583.30 373.93 581.38 374.00 534.82 374.00 C 481.78 374.00 483.71 374.21 480.49 367.99 C 478.64 364.39 478.63 360.41 480.47 351.71 C 483.72 336.41 493.80 322.94 507.23 315.99 C 513.73 312.62 513.97 312.36 514.61 308.00 C 515.66 300.76 517.94 296.23 522.56 292.16 C 529.98 285.62 539.62 284.21 548.54 288.37 C 553.65 290.74 558.47 295.49 560.07 299.69 C 560.94 301.98 561.08 302.00 578.89 302.00 L 596.82 302.00 L 599.41 305.08 C 602.69 308.97 602.69 312.03 599.41 315.92 L 596.82 319.00 L 583.70 319.00 L 570.57 319.00 L 576.00 324.50 L 581.43 330.00 L 619.82 330.00 C 654.42 330.00 658.15 329.84 657.61 328.42 C 657.27 327.55 657.00 325.07 657.00 322.92 L 657.00 319.00 L 641.95 319.00 C 627.31 319.00 626.84 318.93 624.45 316.55 C 621.12 313.21 621.12 307.79 624.45 304.45 C 626.89 302.02 627.04 302.00 646.33 302.00 C 665.66 302.00 665.77 301.99 670.62 299.25 C 676.99 295.66 687.22 295.45 693.63 298.77 C 704.10 304.21 709.76 315.87 707.00 326.34 C 705.96 330.29 705.56 344.09 705.31 385.25 L 704.97 439.00 L 709.52 439.00 C 715.04 439.00 720.46 441.12 721.92 443.85 C 722.51 444.96 723.00 450.62 723.00 456.43 L 723.00 467.00 L 734.03 467.00 C 753.44 467.00 755.00 468.71 755.00 490.00 C 755.00 509.19 753.47 512.00 743.07 512.00 L 738.00 512.00 L 738.00 523.48 C 738.00 534.65 737.92 535.06 735.20 538.10 C 732.64 540.96 731.84 541.25 725.95 541.37 L 719.50 541.50 L 719.24 631.25 L 718.99 721.00 L 724.56 721.00 C 733.03 721.00 736.91 723.75 736.97 729.80 C 736.99 731.99 736.18 733.91 734.55 735.55 L 732.09 738.00 L 664.00 738.00 L 595.91 738.00 L 593.45 735.55 C 589.84 731.93 590.10 726.93 594.08 723.59 L 597.15 721.00 L 635.08 721.00 L 673.00 721.00 L 673.00 687.50 L 673.00 654.00 L 512.60 654.00 L 352.20 654.00 L 351.66 659.75 C 351.36 662.91 351.12 677.99 351.12 693.25 L 351.11 721.00 L 457.50 721.00 L 563.89 721.00 L 566.45 723.25 C 567.85 724.49 569.28 726.94 569.62 728.71 C 570.13 731.39 569.74 732.42 567.19 734.96 L 564.15 738.00 L 428.03 738.00 L 291.91 738.00 L 289.45 735.55 Z M 334.00 631.00 L 334.00 541.00 L 328.50 541.00 L 323.00 541.00 L 323.00 631.00 L 323.00 721.00 L 328.50 721.00 L 334.00 721.00 L 334.00 631.00 Z M 702.00 630.95 L 702.00 540.90 L 696.25 541.20 L 690.50 541.50 L 690.29 629.00 C 690.17 677.12 690.30 717.51 690.56 718.75 C 690.99 720.75 691.64 721.00 696.52 721.00 L 702.00 721.00 L 702.00 630.95 Z M 673.00 631.50 L 673.00 626.00 L 512.00 626.00 L 351.00 626.00 L 351.00 631.50 L 351.00 637.00 L 512.00 637.00 L 673.00 637.00 L 673.00 631.50 Z M 673.26 608.25 C 673.47 607.84 673.44 592.54 673.21 574.25 L 672.78 540.99 L 512.14 541.25 L 351.50 541.50 L 351.34 575.25 L 351.19 609.00 L 512.03 609.00 C 600.50 609.00 673.05 608.66 673.26 608.25 Z M 593.15 524.00 L 721.00 524.00 L 721.00 518.62 C 721.00 514.30 720.65 513.16 719.25 512.87 C 718.29 512.66 624.46 512.62 510.75 512.76 L 304.00 513.02 L 304.00 518.50 L 304.00 523.99 L 378.75 524.31 C 419.86 524.48 456.15 524.49 459.40 524.31 C 462.64 524.14 522.83 524.00 593.15 524.00 Z M 737.80 490.40 L 738.09 485.31 L 728.30 484.66 C 722.91 484.30 621.19 484.01 502.25 484.01 L 286.00 484.00 L 286.00 490.00 L 286.00 496.00 L 511.75 495.75 L 737.50 495.50 L 737.80 490.40 Z M 410.00 461.50 L 410.00 456.00 L 367.50 456.00 L 325.00 456.00 L 325.00 461.50 L 325.00 467.00 L 367.50 467.00 L 410.00 467.00 L 410.00 461.50 Z M 706.15 461.92 C 706.34 459.12 706.31 456.65 706.08 456.42 C 705.85 456.19 695.17 456.00 682.33 456.00 L 659.00 456.00 L 659.00 461.50 L 659.00 467.00 L 682.40 467.00 L 705.81 467.00 L 706.15 461.92 Z M 688.64 432.85 C 688.29 429.47 688.00 408.75 688.00 386.80 L 688.00 346.90 L 682.75 347.20 L 677.50 347.50 L 677.24 393.25 L 676.98 439.00 L 683.13 439.00 L 689.28 439.00 L 688.64 432.85 Z M 573.00 355.16 C 573.00 351.48 566.86 341.15 561.95 336.55 C 548.49 323.96 527.76 322.50 512.41 333.06 C 505.38 337.90 499.34 346.45 497.45 354.25 L 496.78 357.00 L 534.89 357.00 C 571.23 357.00 573.00 356.91 573.00 355.16 Z M 687.09 328.72 C 691.51 325.32 691.82 319.78 687.80 316.03 C 682.86 311.42 674.00 315.26 674.00 322.00 C 674.00 328.14 682.29 332.40 687.09 328.72 Z M 546.00 308.31 C 546.00 306.54 541.38 303.00 539.08 303.02 C 535.92 303.03 534.65 303.83 533.11 306.75 C 531.94 308.98 531.98 309.00 538.96 309.00 C 542.83 309.00 546.00 308.69 546.00 308.31 Z M 760.81 734.96 C 758.25 732.40 757.87 731.41 758.41 728.71 C 759.67 722.40 761.62 721.54 775.52 721.17 L 787.99 720.84 L 791.00 723.84 C 794.87 727.72 794.90 731.26 791.08 735.08 C 788.17 737.99 788.10 738.00 776.00 738.00 L 763.85 738.00 L 760.81 734.96 Z" stroke-linecap="round"/>
</g>
</g>
</g>

  </svg>